<svg id="Layer_1" data-name="Layer 1" xmlns="http://www.w3.org/2000/svg" viewBox="0 0 21.82 21.82"><defs><style>.cls-1{fill:#6d6e70;}.cls-2{fill:#fff;}</style></defs><circle class="cls-1" cx="10.91" cy="10.91" r="10.91"/><path class="cls-2" d="M10.91,6.16c1.55,0,1.73,0,2.34,0a3.72,3.72,0,0,1,1.08.2,1.87,1.87,0,0,1,.66.44,1.72,1.72,0,0,1,.43.66,3.08,3.08,0,0,1,.2,1.08c0,.61,0,.79,0,2.34s0,1.73,0,2.34a3.13,3.13,0,0,1-.2,1.08,1.91,1.91,0,0,1-1.09,1.09,3.13,3.13,0,0,1-1.08.2c-.61,0-.79,0-2.34,0s-1.73,0-2.34,0a3.08,3.08,0,0,1-1.08-.2A1.72,1.72,0,0,1,6.83,15a1.87,1.87,0,0,1-.44-.66,3.72,3.72,0,0,1-.2-1.08c0-.61,0-.79,0-2.34s0-1.73,0-2.34a3.64,3.64,0,0,1,.2-1.08,2,2,0,0,1,1.1-1.1,3.64,3.64,0,0,1,1.08-.2c.61,0,.79,0,2.34,0m0-1c-1.57,0-1.77,0-2.39,0a4.33,4.33,0,0,0-1.4.27,3,3,0,0,0-1.7,1.7,4.33,4.33,0,0,0-.27,1.4c0,.62,0,.82,0,2.39s0,1.77,0,2.39a4.39,4.39,0,0,0,.27,1.4,2.9,2.9,0,0,0,.67,1,2.82,2.82,0,0,0,1,.67,4.33,4.33,0,0,0,1.4.27c.62,0,.82,0,2.39,0s1.77,0,2.39,0a4.39,4.39,0,0,0,1.4-.27,3,3,0,0,0,1.7-1.7,4.39,4.39,0,0,0,.27-1.4c0-.62,0-.82,0-2.39s0-1.77,0-2.39a4.33,4.33,0,0,0-.27-1.4,2.82,2.82,0,0,0-.67-1,2.9,2.9,0,0,0-1-.67,4.39,4.39,0,0,0-1.4-.27c-.62,0-.82,0-2.39,0Z"/><path class="cls-2" d="M10.91,7.94a3,3,0,1,0,3,3A3,3,0,0,0,10.91,7.94Zm0,4.9a1.93,1.93,0,1,1,1.93-1.93A1.92,1.92,0,0,1,10.91,12.84Z"/><circle class="cls-2" cx="14" cy="7.82" r="0.7"/></svg>