<svg id="Layer_1" data-name="Layer 1" xmlns="http://www.w3.org/2000/svg" viewBox="0 0 21.82 21.82"><defs><style>.cls-1{fill:#6d6e70;}.cls-2{fill:#fff;fill-rule:evenodd;}</style></defs><circle class="cls-1" cx="10.91" cy="10.91" r="10.91"/><g id="WA_Logo" data-name="WA Logo"><path class="cls-2" d="M15.06,6.73a5.83,5.83,0,0,0-9.18,7l-.83,3L8.14,16a5.82,5.82,0,0,0,2.79.71h0a5.83,5.83,0,0,0,4.13-10Zm-4.13,9h0A4.79,4.79,0,0,1,8.46,15l-.17-.1-1.84.48.49-1.79-.11-.18a4.85,4.85,0,1,1,4.1,2.27Zm2.66-3.63c-.14-.07-.86-.43-1-.48s-.23-.07-.33.08-.38.47-.46.57-.17.11-.32,0a3.9,3.9,0,0,1-1.17-.72,4.32,4.32,0,0,1-.81-1c-.09-.14,0-.22.06-.3A2.8,2.8,0,0,0,9.79,10a1.58,1.58,0,0,0,.15-.24.29.29,0,0,0,0-.26c0-.07-.33-.79-.45-1.08s-.24-.25-.33-.25H8.87a.55.55,0,0,0-.39.18A1.66,1.66,0,0,0,8,9.56a2.88,2.88,0,0,0,.59,1.51,6.52,6.52,0,0,0,2.5,2.2,7.83,7.83,0,0,0,.83.31,1.93,1.93,0,0,0,.91.05,1.5,1.5,0,0,0,1-.69,1.17,1.17,0,0,0,.08-.69C13.84,12.19,13.74,12.15,13.59,12.08Z"/></g></svg>