<svg id="Layer_1" data-name="Layer 1" xmlns="http://www.w3.org/2000/svg" viewBox="0 0 18.07 18.07"><defs><style>.cls-1{fill:#f48120;}.cls-2{fill:#fff;}</style></defs><circle class="cls-1" cx="9.04" cy="9.04" r="9.04"/><path class="cls-2" d="M9.51,8.34a5,5,0,0,1,.35-.41,2,2,0,0,1,1.41-.55,3.33,3.33,0,0,1,.89.1,1.75,1.75,0,0,1,1.23,1.3,5.65,5.65,0,0,1,.16,1.48v3.15c0,.1,0,.13-.13.13H11.8c-.1,0-.12,0-.12-.12,0-1,0-2,0-3a2.63,2.63,0,0,0-.08-.74A.86.86,0,0,0,10.67,9a1,1,0,0,0-1.06,1,3.7,3.7,0,0,0,0,.47c0,1,0,1.95,0,2.92,0,.1,0,.13-.13.13H7.83c-.09,0-.12,0-.12-.11q0-2.89,0-5.79c0-.09,0-.12.12-.12q.78,0,1.56,0c.1,0,.12,0,.12.12S9.51,8.1,9.51,8.34Z"/><path class="cls-2" d="M6.54,10.54c0,1,0,1.91,0,2.86,0,.11,0,.14-.14.14H4.78c-.09,0-.12,0-.12-.11,0-1.94,0-3.87,0-5.8,0-.08,0-.11.11-.11q.83,0,1.65,0c.1,0,.12,0,.12.13Z"/><path class="cls-2" d="M6.69,5.61A1.09,1.09,0,1,1,5.61,4.53,1.09,1.09,0,0,1,6.69,5.61Z"/></svg>