<svg id="Layer_1" data-name="Layer 1" xmlns="http://www.w3.org/2000/svg" viewBox="0 0 18.07 18.07"><defs><style>.cls-1{fill:#f48120;}.cls-2{fill:#fff;}</style></defs><circle class="cls-1" cx="9.04" cy="9.04" r="9.04"/><path class="cls-2" d="M9,5.1c1.28,0,1.43,0,1.93,0a2.42,2.42,0,0,1,.89.17,1.47,1.47,0,0,1,.91.91,2.47,2.47,0,0,1,.17.89c0,.5,0,.65,0,1.94s0,1.43,0,1.93a2.42,2.42,0,0,1-.17.89,1.47,1.47,0,0,1-.91.91,2.42,2.42,0,0,1-.89.17c-.5,0-.65,0-1.93,0s-1.44,0-1.94,0a2.47,2.47,0,0,1-.89-.17,1.47,1.47,0,0,1-.91-.91A2.42,2.42,0,0,1,5.13,11c0-.5,0-.65,0-1.93s0-1.44,0-1.94a2.47,2.47,0,0,1,.17-.89,1.47,1.47,0,0,1,.91-.91,2.47,2.47,0,0,1,.89-.17c.5,0,.65,0,1.94,0m0-.86c-1.31,0-1.47,0-2,0a3.48,3.48,0,0,0-1.17.22,2.42,2.42,0,0,0-1.4,1.4,3.48,3.48,0,0,0-.22,1.17c0,.51,0,.67,0,2s0,1.46,0,2a3.48,3.48,0,0,0,.22,1.17,2.42,2.42,0,0,0,1.4,1.4,3.48,3.48,0,0,0,1.17.22c.51,0,.67,0,2,0s1.46,0,2,0a3.48,3.48,0,0,0,1.17-.22,2.42,2.42,0,0,0,1.4-1.4A3.48,3.48,0,0,0,13.8,11c0-.51,0-.67,0-2s0-1.47,0-2a3.48,3.48,0,0,0-.22-1.17,2.42,2.42,0,0,0-1.4-1.4A3.48,3.48,0,0,0,11,4.27c-.51,0-.67,0-2,0Z"/><path class="cls-2" d="M9,6.57A2.47,2.47,0,1,0,11.5,9,2.46,2.46,0,0,0,9,6.57Zm0,4.06A1.6,1.6,0,1,1,10.63,9,1.59,1.59,0,0,1,9,10.63Z"/><circle class="cls-2" cx="11.6" cy="6.47" r="0.58"/></svg>