<svg id="Layer_1" data-name="Layer 1" xmlns="http://www.w3.org/2000/svg" viewBox="0 0 18.07 18.07"><defs><style>.cls-1{fill:#f48120;}.cls-2{fill:#fff;}</style></defs><circle class="cls-1" cx="9.04" cy="9.04" r="9.04"/><path class="cls-2" d="M13.43,5.36a.2.2,0,0,0-.14-.15.75.75,0,0,0-.38,0S4.47,8.27,4,8.61c-.11.07-.14.11-.16.16-.08.24.18.35.18.35l2.17.71s.09,0,.11,0c.5-.31,5-3.14,5.24-3.24.05,0,.08,0,.07,0-.11.36-4,3.83-4,3.83l0,0h0l-.2,2.16s-.09.67.57,0c.47-.46.92-.85,1.15-1,.74.51,1.55,1.09,1.9,1.38a.58.58,0,0,0,.44.17.49.49,0,0,0,.42-.37s1.54-6.19,1.59-7c0-.09,0-.14,0-.19A.56.56,0,0,0,13.43,5.36Z"/></svg>