<svg id="Layer_1" data-name="Layer 1" xmlns="http://www.w3.org/2000/svg" viewBox="0 0 358.53 412.98"><defs><style>.cls-1{fill:#231f20;}</style></defs><path class="cls-1" d="M144.55,72.84l-17,4.76-.65-3,16.92-5.08Z"/><path class="cls-1" d="M150.27,61.89a13.71,13.71,0,0,1-6.49-1.29,8.19,8.19,0,0,1-3.58-4,10.44,10.44,0,0,1-5.36,5,19,19,0,0,1-7.62,1.54,22.8,22.8,0,0,1-6.08-.81,16.45,16.45,0,0,1-5-2.26L119.17,55a8.68,8.68,0,0,0,3.58,1.65,20.44,20.44,0,0,0,4.72.52,22.07,22.07,0,0,0,4-.36A13.69,13.69,0,0,0,135,55.64a8.18,8.18,0,0,0,2.54-1.85,4.13,4.13,0,0,0,1.05-2.54L135,32.31l4.43-3.38,3.39,17.57c.32,1.55.61,2.92.88,4.11a8.43,8.43,0,0,0,1.21,2.94A5.08,5.08,0,0,0,147,55.32a8.82,8.82,0,0,0,3.58.6h.24v6Z"/><path class="cls-1" d="M169,61.89a12.69,12.69,0,0,1-6.24-1.21,7.13,7.13,0,0,1-3-3.63A9.19,9.19,0,0,1,156,60.76a10.77,10.77,0,0,1-4.79,1.13h-.33a5.22,5.22,0,0,1-1.25-.16c-.4-.11-.6-.25-.6-.41V56.49q0-.33.6-.45a6.46,6.46,0,0,1,1.25-.12A9.72,9.72,0,0,0,156,54.59,4.86,4.86,0,0,0,158.17,50V47.46l4.19-1.53a27,27,0,0,0,.32,4.55,7.44,7.44,0,0,0,1.17,3.11,4.91,4.91,0,0,0,2.33,1.77,10.91,10.91,0,0,0,3.83.56v6Zm-8.86-21-5.32-3.71,4-4.92L164.13,36Z"/><path class="cls-1" d="M162.92,74.38,166.38,70l4.76,3.46,3.38-4,4.76,3.47-3.63,4.35-4.59-3.55-3.31,4.11Zm5.24-17.89q0-.33.6-.45a6.39,6.39,0,0,1,1.25-.12h1.61a11.52,11.52,0,0,0,5-.92,3.08,3.08,0,0,0,1.89-2.94,5.94,5.94,0,0,0-1.17-3.27c-.78-1.15-1.51-2.19-2.21-3.1l4.11-4.43a18,18,0,0,1,3,4.75,15.43,15.43,0,0,1,1.13,5.56q0,10.32-12.09,10.32H170a5.16,5.16,0,0,1-1.25-.16c-.4-.11-.6-.25-.6-.41Z"/><path class="cls-1" d="M203.8,3a9.7,9.7,0,0,1-2.74,3,10,10,0,0,1-3.26,1.49,13.37,13.37,0,0,1-3.59.41,32.92,32.92,0,0,1-3.7-.29c-1.13-.16-2.14-.29-3-.4A13,13,0,0,0,185,7.09a6.53,6.53,0,0,0-2.14.53,12.1,12.1,0,0,0-2.13,1.24L178.26,6a12.79,12.79,0,0,1,2.86-2.25,8.7,8.7,0,0,1,2.7-1,9.54,9.54,0,0,1,3,0c1.1.16,2.4.38,3.91.64a15.71,15.71,0,0,0,3.67.33,10.53,10.53,0,0,0,2.86-.53,9.62,9.62,0,0,0,2.45-1.25A19.78,19.78,0,0,0,202.11,0ZM193.73,60.76l-4.11,1.13q-.17-4.35-.28-10.28t-.24-12.53q-.12-6.6-.28-13.41t-.33-13l5.24-2.09Z"/><path class="cls-1" d="M208.67,60.76a17,17,0,0,1-2,7.41A29.59,29.59,0,0,1,202,74.58a38.85,38.85,0,0,1-6.08,5.24,52.53,52.53,0,0,1-6.37,3.82l-3.71-4.19A62,62,0,0,0,192.11,76a39.36,39.36,0,0,0,5.48-4.11,24.88,24.88,0,0,0,4.11-4.71,12.9,12.9,0,0,0,2.05-5.32,10.31,10.31,0,0,0-1.09-4.84,30,30,0,0,0-2.45-3.95l4-4.59c.69,1,1.31,1.89,1.85,2.78a16.41,16.41,0,0,0,1.69,2.34,8.73,8.73,0,0,0,1.93,1.65,4.84,4.84,0,0,0,2.58.64v6A6.69,6.69,0,0,1,208.67,60.76Z"/><path class="cls-1" d="M212.29,61.89a5.22,5.22,0,0,1-1.25-.16c-.4-.11-.6-.25-.6-.41V56.49q0-.33.6-.45a6.46,6.46,0,0,1,1.25-.12h7.5v6Z"/><path class="cls-1" d="M217.93,56.49c0-.22.2-.37.61-.45a6.39,6.39,0,0,1,1.25-.12h7.41a27.46,27.46,0,0,0,3.54-.24,15.73,15.73,0,0,0,3.47-.84,7.16,7.16,0,0,0,2.66-1.7,3.94,3.94,0,0,0,1-2.86v-.52a1.72,1.72,0,0,0-.08-.52,22.31,22.31,0,0,1-3.39,1.28,11.73,11.73,0,0,1-3.3.49,5.87,5.87,0,0,1-4.07-1.49c-1.1-1-1.65-2.67-1.65-5a15,15,0,0,1,.64-4,19.31,19.31,0,0,1,1.81-4.35,14.86,14.86,0,0,1,2.7-3.5,4.57,4.57,0,0,1,7.09.48,16.32,16.32,0,0,1,2.66,4.59,29.85,29.85,0,0,1,1.58,5.48,27.11,27.11,0,0,1,.52,4.6q0,14.1-14.51,14.1h-8.13a5.16,5.16,0,0,1-1.25-.16c-.41-.11-.61-.25-.61-.41Zm15.64-31.27-5.32-3.7,4-4.92,5.23,3.71ZM232.2,45.37a7.33,7.33,0,0,0,2.41-.45,12.87,12.87,0,0,0,2.26-1c-.16-.7-.36-1.45-.61-2.26a15.55,15.55,0,0,0-.84-2.22,5.92,5.92,0,0,0-1.13-1.65,2,2,0,0,0-1.45-.64,1.88,1.88,0,0,0-1.25.52A5.67,5.67,0,0,0,230.5,39a8.92,8.92,0,0,0-.8,1.77,5.8,5.8,0,0,0-.33,1.86,3,3,0,0,0,.65,1.93A2.62,2.62,0,0,0,232.2,45.37Z"/><path class="cls-1" d="M.9,186.68q3.23-1.83,7.11-4A86.06,86.06,0,0,0,15.49,178a55.53,55.53,0,0,0,6.62-5.43,21.62,21.62,0,0,0,4.62-6.35c-.5.07-1,.12-1.39.16s-.87.05-1.3.05a15.4,15.4,0,0,1-6.24-1.13,11.33,11.33,0,0,1-4.25-3.12,13.13,13.13,0,0,1-2.48-4.68,20.88,20.88,0,0,1-.8-5.92,23.78,23.78,0,0,1,4.14-13.08,18.26,18.26,0,0,1,4.68-4.68A10.32,10.32,0,0,1,25,132,9.83,9.83,0,0,1,32,134.64a19.41,19.41,0,0,1,4.58,6.51A35.06,35.06,0,0,1,39,149.38a46.58,46.58,0,0,1,.75,7.8,35.23,35.23,0,0,1-2.37,13.3A38.92,38.92,0,0,1,31.15,181a48.93,48.93,0,0,1-8.77,8.18,96.21,96.21,0,0,1-10,6.35Zm19.91-37a2.92,2.92,0,0,0-.32,1.29,2.16,2.16,0,0,0,.86,1.83,3.9,3.9,0,0,0,2.37.65,15.7,15.7,0,0,0,3.34-.38,4.89,4.89,0,0,0,2.26-.91,18.62,18.62,0,0,0-.65-2.48,21.4,21.4,0,0,0-1-2.42,6.1,6.1,0,0,0-1.29-1.83,2.32,2.32,0,0,0-1.61-.7,2.89,2.89,0,0,0-2.42,1.56A12.47,12.47,0,0,0,20.81,149.65Z"/><path class="cls-1" d="M74.69,146.1a12.13,12.13,0,0,0-1.07,2.42c-.36,1-.69,2.12-1,3.23a34.51,34.51,0,0,0-.7,3.39,19.35,19.35,0,0,0-.27,2.91,14.32,14.32,0,0,0,.75,4.52,10,10,0,0,0,2.59,4,13,13,0,0,0,5,2.86,25.16,25.16,0,0,0,7.91,1.07,53.08,53.08,0,0,0,7.59-.59,54.32,54.32,0,0,0,7.75-1.72,47.52,47.52,0,0,0,6.73-2.59,11.85,11.85,0,0,0,4.41-3.28,2.31,2.31,0,0,0,.59-1,.53.53,0,0,0-.16-.54,1.53,1.53,0,0,0-.86-.16l-4.25-.27q-2.64-.17-5.54-.48T98.64,159a12.13,12.13,0,0,1-4.14-1.5,8.28,8.28,0,0,1-3.5-4.09,16.34,16.34,0,0,1-1-6,18.1,18.1,0,0,1,2.31-8.07,36.69,36.69,0,0,1,6.08-8.51,37.27,37.27,0,0,1,8.56-6.72,19.58,19.58,0,0,1,9.85-2.75,20.18,20.18,0,0,1,5.92.86,46.27,46.27,0,0,1,4.52,1.62l-4.84,12.91c-.65-.28-1.44-.59-2.37-.91a10,10,0,0,0-3.23-.48,13.9,13.9,0,0,0-5.06,1,22.14,22.14,0,0,0-4.57,2.43,19.73,19.73,0,0,0-3.66,3.22,12,12,0,0,0-2.21,3.39l5.87.65,5.86.65a26.61,26.61,0,0,1,7.48,1.88,9.79,9.79,0,0,1,3.88,3,8.25,8.25,0,0,1,1.5,3.71,30.89,30.89,0,0,1,.27,4.15,12.74,12.74,0,0,1-1.77,6.35,26,26,0,0,1-4.74,5.92,41.4,41.4,0,0,1-6.83,5.16,55.65,55.65,0,0,1-16.69,6.79,37.57,37.57,0,0,1-8.18,1,31.77,31.77,0,0,1-13.13-2.36A23,23,0,0,1,66.51,176a21.86,21.86,0,0,1-4.36-8.5,37.53,37.53,0,0,1-1.23-9.47,28.2,28.2,0,0,1,.43-4.79q.42-2.53,1.07-4.95a43.85,43.85,0,0,1,1.46-4.53,22.64,22.64,0,0,1,1.56-3.39Z"/><path class="cls-1" d="M143.6,142.87c.57.93,1.24,2,2,3.07a28.73,28.73,0,0,1,2.15,3.82,26.85,26.85,0,0,1,1.72,4.84,23.89,23.89,0,0,1,.7,6,25.54,25.54,0,0,1-2.36,10.6,47.68,47.68,0,0,1-5.87,9.69,56,56,0,0,1-7.64,8,45.92,45.92,0,0,1-7.7,5.49l-10.65-8.61c2.72-1.51,5.49-3.2,8.28-5.06a62.12,62.12,0,0,0,7.59-5.92,31.65,31.65,0,0,0,5.55-6.62,13.55,13.55,0,0,0,2.15-7.16,7.19,7.19,0,0,0-.43-2.31,21.57,21.57,0,0,0-1.08-2.53c-.43-.87-.88-1.71-1.34-2.53s-.92-1.56-1.35-2.21Z"/><path class="cls-1" d="M163.88,164a15,15,0,0,1-5.49-4.47,18.65,18.65,0,0,1-3.07-6.35,27.9,27.9,0,0,1-1-7.32l-.11-41.11,10.76-4,.11,45.1a6,6,0,0,0,1.56,4q1.56,1.83,5.33,1.83v14A18.28,18.28,0,0,1,163.88,164Z"/><path class="cls-1" d="M218.94,165.69a18.73,18.73,0,0,1-5.44-.76,19.1,19.1,0,0,1-4.95-2.31,43.92,43.92,0,0,1-5-3.82q-2.58-2.27-5.59-5.38a15.39,15.39,0,0,1-2.16,4.73,12.53,12.53,0,0,1-4.52,3.93,27.34,27.34,0,0,1-7.69,2.64,58.73,58.73,0,0,1-11.57,1,6.17,6.17,0,0,1-1.67-.22q-.81-.21-.81-.54V152.56c0-.29.27-.5.81-.65a6.59,6.59,0,0,1,1.67-.21,62.81,62.81,0,0,0,8.88-.49,16,16,0,0,0,4.73-1.29,3.74,3.74,0,0,0,1.94-1.83,5.79,5.79,0,0,0,.38-2,7.88,7.88,0,0,0-1.94-4.58,45.35,45.35,0,0,0-4.57-5.05c-1.76-1.69-3.54-3.3-5.33-4.85a32.61,32.61,0,0,1-4.09-4l.21-5.81a12.52,12.52,0,0,1,1.56-4.84,16.55,16.55,0,0,1,1.89-2.37c.71-.57,1.86-1.36,3.44-2.37s3.45-2.15,5.6-3.44,4.52-2.64,7.1-4,5.2-2.8,7.86-4.19,5.24-2.71,7.75-3.93,4.81-2.3,6.89-3.23V109q-3.76,1.62-7.7,3.5l-7.69,3.72c-2.52,1.22-4.9,2.46-7.16,3.71s-4.33,2.42-6.19,3.5q3.77,3.56,7.59,7.48c2.54,2.62,5.4,5.51,8.55,8.66q3,3.14,5.28,5.38a45.49,45.49,0,0,0,4.2,3.77,16,16,0,0,0,3.76,2.26,10.24,10.24,0,0,0,4,.76h.86v14Z"/><path class="cls-1" d="M219.8,165.69a6.17,6.17,0,0,1-1.67-.22q-.81-.21-.81-.54V152.56c0-.29.27-.5.81-.65a6.59,6.59,0,0,1,1.67-.21h10.76v14Z"/><path class="cls-1" d="M230.56,165.69a6.17,6.17,0,0,1-1.67-.22q-.81-.21-.81-.54V152.56c0-.29.27-.5.81-.65a6.59,6.59,0,0,1,1.67-.21h10.76v14Z"/><path class="cls-1" d="M241.32,165.69a6.22,6.22,0,0,1-1.67-.22c-.54-.14-.8-.32-.8-.54V152.56c0-.29.26-.5.8-.65a6.65,6.65,0,0,1,1.67-.21h10.76v14Z"/><path class="cls-1" d="M252.08,165.69a6.1,6.1,0,0,1-1.66-.22q-.81-.21-.81-.54V152.56c0-.29.27-.5.81-.65a6.51,6.51,0,0,1,1.66-.21h10.77v14Z"/><path class="cls-1" d="M310,165.69a14.42,14.42,0,0,1-5.27-1,24.7,24.7,0,0,1-4.85-2.58,11.48,11.48,0,0,1-3,5.32,7.09,7.09,0,0,1-5.22,2.1,12.38,12.38,0,0,1-3.66-.64,30.91,30.91,0,0,1-4.25-1.73q-2.2-1.06-4.41-2.42c-1.47-.89-2.89-1.81-4.25-2.74a17.61,17.61,0,0,1-4.36,2.64,13.92,13.92,0,0,1-5.44,1h-2.47a6.17,6.17,0,0,1-1.67-.22q-.81-.21-.81-.54V152.56c0-.29.27-.5.81-.65a6.59,6.59,0,0,1,1.67-.21h2.47a5.63,5.63,0,0,0,3-.81,9.81,9.81,0,0,0,2.42-2,19.66,19.66,0,0,0,2-2.74c.61-1,1.21-2,1.78-2.91q1.29-2.15,2.48-4.14a20.33,20.33,0,0,1,2.58-3.5,13.17,13.17,0,0,1,3-2.42,6.8,6.8,0,0,1,3.5-.92,6.32,6.32,0,0,1,3.23,1,18.63,18.63,0,0,1,3.28,2.59,40,40,0,0,1,3.28,3.6q1.62,2,3.23,4c.65.86,1.35,1.77,2.1,2.74a18.85,18.85,0,0,0,2.48,2.64,13.59,13.59,0,0,0,3,2,8.67,8.67,0,0,0,3.44.92Zm-21.85-10.23a8.06,8.06,0,0,0,.86.38,1.34,1.34,0,0,0,.86,0,1,1,0,0,0,.65-.48,3,3,0,0,0,.21-1.35,7.06,7.06,0,0,0-.27-1.77,17.82,17.82,0,0,0-.7-2.1c-.28-.72-.57-1.38-.86-2a7,7,0,0,0-.86-1.46c-.5-.57-1-.78-1.45-.64a2.9,2.9,0,0,0-1.24.75c-.14.15-.54.67-1.18,1.56a11.88,11.88,0,0,0-1.62,3.39,21.34,21.34,0,0,0,2.75,2A22.67,22.67,0,0,0,288.14,155.46Z"/><path class="cls-1" d="M317.42,151.7a10.3,10.3,0,0,1-1.51-2.75,9.07,9.07,0,0,1-.65-3.28,14.22,14.22,0,0,1,.92-5.17,17,17,0,0,1,5.86-7.64,16.21,16.21,0,0,1,4.09-2.15l-2.69-1.94,8.4-10.87q4.2,3.55,8.88,8a93.18,93.18,0,0,1,8.66,9.47A52.28,52.28,0,0,1,356,145.94a26.62,26.62,0,0,1,2.58,11.35,22.25,22.25,0,0,1-.48,4.63,10.87,10.87,0,0,1-1.67,4,8.84,8.84,0,0,1-7.75,3.88,14.8,14.8,0,0,1-4.14-.65,36.78,36.78,0,0,1-4.42-1.61q-2.2-1-4.36-2.05c-1.43-.71-2.79-1.36-4.09-1.93a25.22,25.22,0,0,1-10.33,2.15H310a6.22,6.22,0,0,1-1.67-.22q-.81-.21-.81-.54V152.56c0-.29.27-.5.81-.65a6.65,6.65,0,0,1,1.67-.21Zm8.07-7.11a3,3,0,0,0,.64,1.83A7.49,7.49,0,0,0,327.7,148a19.19,19.19,0,0,0,2,1.35,17.62,17.62,0,0,0,2,1.07,8,8,0,0,0,2.91-5.59,6.47,6.47,0,0,0-1-3.34,3,3,0,0,0-2.69-1.61,4.81,4.81,0,0,0-1.72.37,6.46,6.46,0,0,0-1.78,1,6.88,6.88,0,0,0-1.4,1.5A3.23,3.23,0,0,0,325.49,144.59Zm16.68,1.62a23.42,23.42,0,0,1-.91,4.09,24.71,24.71,0,0,1-1.46,3.76l3.5,1.83c.83.43,1.46.76,1.89,1a5.34,5.34,0,0,0,.86.38,1.54,1.54,0,0,0,.43,0c.79,0,1.18-.5,1.18-1.5a8.77,8.77,0,0,0-1.83-5.22A35.72,35.72,0,0,0,342.17,146.21Z"/><path class="cls-1" d="M39.34,293.45a14,14,0,0,1-5.54-4.2,23.42,23.42,0,0,1-8.13,5.28,25.44,25.44,0,0,1-9.31,1.83,28.8,28.8,0,0,1-9.42-1.51A21.88,21.88,0,0,1,0,291.19l6.89-10.76a7.87,7.87,0,0,0,3.44,1.4,28.84,28.84,0,0,0,6,.53A23.42,23.42,0,0,0,20.5,282a18.91,18.91,0,0,0,3.83-1.08,12.16,12.16,0,0,0,3-1.67,4.19,4.19,0,0,0,1.56-2.15q-1.19-6.13-2.37-11.46t-2.37-11.57l10-7.11,5.49,28.2A6.81,6.81,0,0,0,42,279.4a8.29,8.29,0,0,0,5.27,1.46v14A20.2,20.2,0,0,1,39.34,293.45Z"/><path class="cls-1" d="M50.69,280.86c4.6,0,6.89-.83,6.89-2.48a3.16,3.16,0,0,0-.48-1.18c-.32-.57-.72-1.2-1.18-1.89l-1.46-2.09c-.5-.72-.9-1.3-1.18-1.73l8-11.08c.5.64,1.15,1.58,1.94,2.8a38.36,38.36,0,0,1,4.31,9.36,19.79,19.79,0,0,1,.86,5.81q0,8.07-4.52,12.27c-3,2.8-7.39,4.2-13.14,4.2H47.25a6.65,6.65,0,0,1-1.67-.21q-.81-.22-.81-.54V281.72c0-.29.27-.5.81-.65a6.65,6.65,0,0,1,1.67-.21Zm8.4-24.76-4.25-3c-1.4-1-2.82-1.95-4.25-3,1.14-1.43,2.2-2.78,3.17-4s2.06-2.6,3.29-4q2.14,1.5,4.14,3t4.14,3Z"/><path class="cls-1" d="M90,294.53a34,34,0,0,1-3.71,9.63,39.59,39.59,0,0,1-6,7.91,53.44,53.44,0,0,1-7.7,6.46A87.47,87.47,0,0,1,64,323.8l-10.33-8.39c1.94-1,4.39-2.32,7.37-3.93a59.7,59.7,0,0,0,8.56-5.65,38.74,38.74,0,0,0,7.05-7.21,14.19,14.19,0,0,0,3-8.61,5.85,5.85,0,0,0-.54-2.32,18.23,18.23,0,0,0-1.29-2.42Q77,284.09,76.19,283c-.54-.76-1-1.42-1.35-2l9-9.15c.51.86,1.08,1.83,1.73,2.9a21.16,21.16,0,0,0,2.1,3,12.78,12.78,0,0,0,2.42,2.26,4.9,4.9,0,0,0,2.9.92v14A13.69,13.69,0,0,1,90,294.53Z"/><path class="cls-1" d="M96.48,280.86q6.88,0,6.88-2.48a3.16,3.16,0,0,0-.48-1.18c-.32-.57-.72-1.2-1.18-1.89l-1.46-2.09c-.5-.72-.89-1.3-1.18-1.73l8-11.08c.51.64,1.15,1.58,1.94,2.8a37.39,37.39,0,0,1,4.31,9.36,19.79,19.79,0,0,1,.86,5.81q0,8.07-4.52,12.27t-13.13,4.2H93a6.65,6.65,0,0,1-1.67-.21c-.53-.15-.8-.33-.8-.54V281.72c0-.29.27-.5.8-.65a6.65,6.65,0,0,1,1.67-.21Zm6,36.06q-2.15-1.51-4.25-3L94,311q1.73-2.16,3.18-4c1-1.26,2.06-2.6,3.28-4,1.43,1,2.81,2,4.14,3s2.71,2,4.15,3Z"/><path class="cls-1" d="M171.08,294.85a25.6,25.6,0,0,1-6.57-.75,14.42,14.42,0,0,1-4.84-2.26,13.38,13.38,0,0,1-3.44-3.77,23.91,23.91,0,0,1-2.37-5.17,33.13,33.13,0,0,1-5.81,2.05,22.62,22.62,0,0,1-5.39.75q-5.7,0-8.34-3.66a14.67,14.67,0,0,1-2.63-8.82,13.65,13.65,0,0,1,1.61-6.57,25,25,0,0,1,4-5.54,32.4,32.4,0,0,1,5.27-4.47,54.25,54.25,0,0,1,5.33-3.23l-.65-4,9.9-7.32L162.9,274a9.9,9.9,0,0,0,2.26,5.22q1.62,1.67,5.92,1.67Zm-20-23.36a8.38,8.38,0,0,0-.16-1.23c-.11-.61-.24-1.3-.38-2.05s-.27-1.43-.38-2a9.6,9.6,0,0,0-.26-1.24c-.44.21-1.12.61-2,1.18a23.76,23.76,0,0,0-2.74,2,16.65,16.65,0,0,0-2.32,2.37,2.87,2.87,0,0,0-.75,2.32c.07.64.52,1,1.34,1a10,10,0,0,0,2.8-.32,20.52,20.52,0,0,0,3-1A9.15,9.15,0,0,0,151.06,271.49Z"/><path class="cls-1" d="M208.43,294.85q-7,0-11-1.78a17.27,17.27,0,0,1-6.57-5q-1.83,1.51-3.66,2.8a18.68,18.68,0,0,1-4,2.15,26.44,26.44,0,0,1-4.9,1.35,35.91,35.91,0,0,1-6.24.48h-1a6.59,6.59,0,0,1-1.67-.21q-.81-.22-.81-.54V281.72c0-.29.27-.5.81-.65a6.59,6.59,0,0,1,1.67-.21h1a27.55,27.55,0,0,0,7.42-.86,17.49,17.49,0,0,0,5.17-2.37c-.79-.43-1.9-1-3.34-1.72a8.4,8.4,0,0,0-4.62-.86,21.22,21.22,0,0,1,2.15-7.86,19.06,19.06,0,0,1,4.09-5.49,15.84,15.84,0,0,1,5.11-3.18,15.27,15.27,0,0,1,5.33-1,19.57,19.57,0,0,1,4.95.65,14.36,14.36,0,0,1,4.47,2,10.33,10.33,0,0,1,3.23,3.6,12.47,12.47,0,0,1,1.34,5.6,10.51,10.51,0,0,1-1.67,6.51,18.72,18.72,0,0,1-4.25,4.36,27.65,27.65,0,0,0,7,.65h4.3v14Z"/><path class="cls-1" d="M241.43,280.86a6.43,6.43,0,0,0,3-.59,4.94,4.94,0,0,0,1.72-1.4,4.74,4.74,0,0,0,.81-1.62,5.59,5.59,0,0,0,.22-1.34v-.81c0-.39,0-.81-.06-1.24s-.05-.84-.05-1.24v-.91l9.36-2.69a24.77,24.77,0,0,1,.22,3.6,16.15,16.15,0,0,0,.48,4,7.06,7.06,0,0,0,1.73,3.17,5.05,5.05,0,0,0,3.82,1.29,6.34,6.34,0,0,0,3-.59,4.91,4.91,0,0,0,1.72-1.4,5.08,5.08,0,0,0,.81-1.61,5.58,5.58,0,0,0,.21-1.35v-.86c0-.43,0-.88,0-1.34s-.06-.9-.06-1.3v-.91L277.6,269a26.44,26.44,0,0,1,.21,3.6,16.26,16.26,0,0,0,.49,4,7.29,7.29,0,0,0,1.72,3.28,4.93,4.93,0,0,0,3.82,1.35,10.22,10.22,0,0,0,1.4-.11,4.94,4.94,0,0,0,1.45-.43,3.71,3.71,0,0,0,1.19-.86,1.88,1.88,0,0,0,.48-1.29,8.64,8.64,0,0,0-.75-3.93,12.94,12.94,0,0,0-1.83-2.64l8.29-9.26a19.65,19.65,0,0,1,3.33,5.6,26.57,26.57,0,0,1,1.72,9.91,20.35,20.35,0,0,1-1.34,7.85,14.91,14.91,0,0,1-3.55,5.28,13.54,13.54,0,0,1-5,3,17.43,17.43,0,0,1-5.44.91,21.56,21.56,0,0,1-5.6-.75,10.58,10.58,0,0,1-5.06-3.23,13.67,13.67,0,0,1-4.41,2.74,16.46,16.46,0,0,1-6.13,1,21.1,21.1,0,0,1-5.6-.76,10.53,10.53,0,0,1-5.06-3.23,13.69,13.69,0,0,1-4.41,2.75,16.69,16.69,0,0,1-6.14,1H210.32a6.51,6.51,0,0,1-1.66-.21q-.81-.22-.81-.54V281.72c0-.29.27-.5.81-.65a6.51,6.51,0,0,1,1.66-.21Z"/><path class="cls-1" d="M332.16,294.85a30.5,30.5,0,0,1-3.71,9.8,40,40,0,0,1-6.3,8,56.26,56.26,0,0,1-8,6.57q-4.35,3-8.66,5.44l-11.73-8.83q3.33-1.93,7.26-4.14a84.45,84.45,0,0,0,7.54-4.79,59.48,59.48,0,0,0,6.67-5.55,21,21,0,0,0,4.68-6.51h-2.8q-6.68,0-10.27-3.5T303.21,281a22.26,22.26,0,0,1,1.13-6.84,24.38,24.38,0,0,1,3.12-6.4A17.52,17.52,0,0,1,312.2,263a10.55,10.55,0,0,1,6-1.83,10.39,10.39,0,0,1,6,1.78,16.71,16.71,0,0,1,4.53,4.57,28.47,28.47,0,0,1,3.12,6.3,38.71,38.71,0,0,1,1.77,7.05h1.62v14Zm-14-20.77a3.9,3.9,0,0,0-3.07,1.66,5.5,5.5,0,0,0-1.34,3.5c0,1.08.75,1.62,2.26,1.62h7.1c-.14-.72-.34-1.49-.59-2.32a9.63,9.63,0,0,0-1-2.2,5.66,5.66,0,0,0-1.45-1.62A3.16,3.16,0,0,0,318.17,274.08Z"/><path class="cls-1" d="M338.62,280.86q6.88,0,6.89-2.48a3.06,3.06,0,0,0-.49-1.18c-.32-.57-.71-1.2-1.18-1.89s-.95-1.38-1.45-2.09-.9-1.3-1.19-1.73l8-11.08c.5.64,1.15,1.58,1.94,2.8a39,39,0,0,1,2.31,4.19,37.61,37.61,0,0,1,2,5.17,19.79,19.79,0,0,1,.86,5.81q0,8.07-4.52,12.27t-13.13,4.2h-3.44a6.59,6.59,0,0,1-1.67-.21q-.81-.22-.81-.54V281.72c0-.29.27-.5.81-.65a6.59,6.59,0,0,1,1.67-.21ZM358.53,248c-1,1.44-2,2.78-3,4s-2,2.6-3,4l-6.56-5-4.63,5.49-4.2-2.91q-2-1.39-4.19-2.9,1.5-2,3.12-4t3.12-3.93l6.89,5.39,4.09-6Z"/><path class="cls-1" d="M0,384.46a15,15,0,0,1,1.53-6.89q1.53-3,3.39-6.09a3.93,3.93,0,0,1-1.13-.88l3.14-6q11.85,9.27,11.85,17.49a14.33,14.33,0,0,1-.65,4.31A10.27,10.27,0,0,1,16.2,390,9.14,9.14,0,0,1,13,392.43a10.06,10.06,0,0,1-4.31.89q-4.27,0-6.48-2.5A9.22,9.22,0,0,1,0,384.46Zm13.62-2.34a6.85,6.85,0,0,0-1.77-4.51A33.68,33.68,0,0,0,8,373.74a33.44,33.44,0,0,0-2.38,4.47,11.44,11.44,0,0,0-1.09,4.55,3,3,0,0,0,1.41,2.74,5.53,5.53,0,0,0,3.15.85,5.38,5.38,0,0,0,3.14-1.09A3.66,3.66,0,0,0,13.62,382.12Z"/><path class="cls-1" d="M26.68,389.65a9.83,9.83,0,0,1-3.5-4.07,16.48,16.48,0,0,1-1.45-5.64q-.29-3.13-.28-6.2v-31l5.07-3.38-.08,36.91a32.42,32.42,0,0,0,.16,3.3,7.78,7.78,0,0,0,.85,2.9,5,5,0,0,0,2.05,2.06,7.65,7.65,0,0,0,3.71.76v6A11.61,11.61,0,0,1,26.68,389.65Z"/><path class="cls-1" d="M66.72,391.22a10.09,10.09,0,0,1-3.91-.72,14.86,14.86,0,0,1-3.59-2.22,49.13,49.13,0,0,1-4.07-3.74c-1.47-1.51-3.26-3.25-5.36-5.24a13,13,0,0,1-1.08,5.64,9.77,9.77,0,0,1-3,3.66,11.82,11.82,0,0,1-4.52,2,25.38,25.38,0,0,1-5.68.6h-.32a4.71,4.71,0,0,1-1.25-.16c-.4-.1-.6-.24-.6-.4v-4.84c0-.21.2-.36.6-.44a6.39,6.39,0,0,1,1.25-.12q10.95,0,11-6.45a7.76,7.76,0,0,0-1.37-4.27,28.9,28.9,0,0,0-3.18-4A45.76,45.76,0,0,0,38,367.13a23.21,23.21,0,0,1-2.7-2.58c.05-1.93.13-3.37.24-4.31s.27-1.49.49-1.65a152.36,152.36,0,0,1,16.31-9.83,174.09,174.09,0,0,1,16.24-7.5l-.89,6.13c-.86.37-2,.91-3.54,1.61s-3.17,1.49-5,2.38-3.72,1.82-5.68,2.82-3.84,2-5.64,2.9-3.4,1.82-4.79,2.66a33.21,33.21,0,0,0-3.15,2.05q6.28,5.88,10.44,10.28c2.76,2.92,5.16,5.37,7.17,7.33A29.61,29.61,0,0,0,63,383.81a10.83,10.83,0,0,0,5.56,1.45h2.26v6Zm-2.26-51.89c-2.09,1-5.51,2.65-10.23,5s-10.83,5.57-18.3,9.54l.33-3.54q8.3-4.68,15.35-8.42t13.09-6.73Z"/><path class="cls-1" d="M64,385.82c0-.21.2-.36.61-.44a6.39,6.39,0,0,1,1.25-.12h1.61a11.49,11.49,0,0,0,5-.93,3.06,3.06,0,0,0,1.9-2.94,5.91,5.91,0,0,0-1.17-3.26c-.78-1.15-1.52-2.19-2.22-3.1l4.11-4.43a17.77,17.77,0,0,1,3,4.75,15.22,15.22,0,0,1,1.13,5.56q0,10.32-12.09,10.31H65.83a4.71,4.71,0,0,1-1.25-.16c-.41-.1-.61-.24-.61-.4Zm9.51-19.58-5.32-3.7,4-4.92,5.24,3.71Z"/><path class="cls-1" d="M158.47,391.22a10.13,10.13,0,0,1-3.91-.72,14.27,14.27,0,0,1-3.54-2.22,52.73,52.73,0,0,1-4-3.74c-1.48-1.51-3.26-3.25-5.36-5.24v.4a7.79,7.79,0,0,1-1.37,4.55,12.59,12.59,0,0,1-3.63,3.43,22.91,22.91,0,0,1-5.15,2.42,50.41,50.41,0,0,1-6,1.57,55.43,55.43,0,0,1-6.12.84c-2,.16-3.83.25-5.44.25-2.26-.06-4.62-.19-7.09-.41a24.23,24.23,0,0,1-6.81-1.53,12.16,12.16,0,0,1-5.08-3.59,9.85,9.85,0,0,1-2-6.48,12,12,0,0,1,.68-4.07,13.55,13.55,0,0,1,1.82-3.43l3.78,1.13a12.26,12.26,0,0,0-1.2,2.9,9.81,9.81,0,0,0-.33,2.42,4.84,4.84,0,0,0,1.74,4,11.16,11.16,0,0,0,4.27,2.09,24.78,24.78,0,0,0,5.52.81q3,.12,5.4.12c1.34,0,2.86-.15,4.55-.28s3.4-.34,5.12-.61,3.38-.6,5-1a24.06,24.06,0,0,0,4.35-1.53,11.26,11.26,0,0,0,3.11-2.1,3.82,3.82,0,0,0,1.16-2.78,8.53,8.53,0,0,0-1.53-4.15,26.72,26.72,0,0,0-3.14-3.87c-1.18-1.2-2.35-2.32-3.51-3.34a35.58,35.58,0,0,1-2.61-2.5c.05-1.93.13-3.37.24-4.31s.29-1.49.56-1.65a138.21,138.21,0,0,1,16.2-9.83q8.53-4.44,16.2-7.5l-.81,6.13L156,349q-2.3,1-5,2.38t-5.72,2.82q-3,1.49-5.64,2.9c-1.78.94-3.38,1.82-4.8,2.66a23.83,23.83,0,0,0-3.1,2.05q6.28,5.88,10.39,10.28t7.18,7.33a30.37,30.37,0,0,0,5.56,4.39,10.67,10.67,0,0,0,5.48,1.45h2.25v6Z"/><path class="cls-1" d="M155.49,403.71l3.47-4.43,4.75,3.47,3.38-4,4.76,3.46-3.63,4.35L163.63,403l-3.31,4.11Zm5.24-17.89c0-.21.2-.36.6-.44a6.46,6.46,0,0,1,1.25-.12h1.61a11.51,11.51,0,0,0,5-.93,3.06,3.06,0,0,0,1.89-2.94,5.91,5.91,0,0,0-1.17-3.26c-.77-1.15-1.51-2.19-2.21-3.1l4.11-4.43a18,18,0,0,1,3,4.75,15.43,15.43,0,0,1,1.13,5.56q0,10.32-12.09,10.31h-1.29a4.76,4.76,0,0,1-1.25-.16c-.4-.1-.6-.24-.6-.4Z"/><path class="cls-1" d="M261.51,391.22a8.59,8.59,0,0,1-4.71-1.08,5.69,5.69,0,0,1-2.3-3,6.57,6.57,0,0,1-3.1,3.27,10,10,0,0,1-4.31.93,9.83,9.83,0,0,1-4.55-1.05,7.86,7.86,0,0,1-3.27-3.15,6.67,6.67,0,0,1-3.1,3.11,9.77,9.77,0,0,1-4.47,1.09,11.19,11.19,0,0,1-2.34-.25,7,7,0,0,1-2.26-1,20.75,20.75,0,0,1-1.08,8,20.37,20.37,0,0,1-4,6.89,19.57,19.57,0,0,1-6.61,4.84,21.38,21.38,0,0,1-9,1.81q-6.28,0-10.19-2.66a14.85,14.85,0,0,1-5.6-6.85,18.62,18.62,0,0,1-1.13-9.18,25.74,25.74,0,0,1,3.23-9.75l3.86,1.77a33.67,33.67,0,0,0-1.69,5.52,18.6,18.6,0,0,0-.4,5,9.91,9.91,0,0,0,2.13,5.76,11.34,11.34,0,0,0,4.64,3.38,15.29,15.29,0,0,0,6,1,16.24,16.24,0,0,0,6.12-1.25,14.73,14.73,0,0,0,5.08-3.5,11.63,11.63,0,0,0,2.9-5.69,17,17,0,0,0-.24-7.13,21.13,21.13,0,0,0-3.22-7.13l4.67-3.38a25.5,25.5,0,0,0,3.63,5.4,7,7,0,0,0,5,2.17h1a4.88,4.88,0,0,0,3.91-1.45c.83-1,1.25-2.79,1.25-5.48v-.64l4.11-1.53a26.5,26.5,0,0,0,.2,3.34,9.61,9.61,0,0,0,.8,2.94,5.49,5.49,0,0,0,1.7,2.1,4.86,4.86,0,0,0,2.94.8,5.79,5.79,0,0,0,2.9-.64,4.45,4.45,0,0,0,1.73-1.74,7.8,7.8,0,0,0,.85-2.45,16.43,16.43,0,0,0,.24-2.82l3.79-1.45c0,1.34.05,2.56.16,3.66a8,8,0,0,0,.76,2.86,4.2,4.2,0,0,0,1.82,1.86,7,7,0,0,0,3.3.64h.65v6Z"/><path class="cls-1" d="M261.35,385.82c0-.21.2-.36.6-.44a6.46,6.46,0,0,1,1.25-.12h5.24a30.06,30.06,0,0,0,6.77-.68,32,32,0,0,0,5.4-1.78c1.66-.72,3.29-1.53,4.87-2.41s3.29-1.74,5.12-2.54l-4.91-2.1-3.55-1.49c-1-.4-1.77-.71-2.42-.93a5.27,5.27,0,0,0-1.53-.32,6.92,6.92,0,0,0-2.82.69,8.28,8.28,0,0,0-2.9,2.29l-3.63-1.61a15.68,15.68,0,0,1,4.4-5.6,7.68,7.68,0,0,1,4.39-1.81,12.57,12.57,0,0,1,5.56,1.49q3,1.49,6.85,3c1.18.54,2.25,1,3.22,1.33a24,24,0,0,0,2.94.85,29,29,0,0,0,3.23.48c1.15.11,2.53.16,4.15.16l-1.37,5.8a29.53,29.53,0,0,0-2.95.13c-.88.08-1.7.17-2.45.28a16.32,16.32,0,0,0-6.21,2.25q-2.89,1.77-6.08,3.63a49.5,49.5,0,0,1-7,3.34,24.88,24.88,0,0,1-9.07,1.49H263.2a4.76,4.76,0,0,1-1.25-.16c-.4-.1-.6-.24-.6-.4Z"/><path class="cls-1" d="M327.32,390.1a15.24,15.24,0,0,1-1.85,7.25,29.81,29.81,0,0,1-4.68,6.44,40,40,0,0,1-6.16,5.32,51.3,51.3,0,0,1-6.41,3.87l-3.71-4.19a60.71,60.71,0,0,0,6.41-3.54,40.46,40.46,0,0,0,5.76-4.4,22.59,22.59,0,0,0,4.19-5.07,10.88,10.88,0,0,0,1.61-5.68,9.24,9.24,0,0,0-1.2-4.52q-1.21-2.18-2.5-4l4.27-4.27a27.71,27.71,0,0,1,3.26,6.37A20.09,20.09,0,0,1,327.32,390.1Z"/><path class="cls-1" d="M343.71,391.22a26.55,26.55,0,0,1-6.17-.72,15.75,15.75,0,0,1-5.36-2.34l3.06-5.16a9.29,9.29,0,0,0,4.19,1.86,27.39,27.39,0,0,0,4.68.4c1,0,2-.05,3.18-.16a12.13,12.13,0,0,0,3.22-.73,6.94,6.94,0,0,0,2.54-1.61,3.8,3.8,0,0,0,1.05-2.82,7.19,7.19,0,0,0-1.25-4,17.57,17.57,0,0,0-3-3.46,30.34,30.34,0,0,0-3.79-2.86c-1.34-.86-2.5-1.59-3.46-2.18l2.41-6.12a61.53,61.53,0,0,1,5,3.75,29.8,29.8,0,0,1,4.35,4.43,22.2,22.2,0,0,1,3.06,5.11,14.85,14.85,0,0,1,1.17,5.89,8.62,8.62,0,0,1-1.41,5.07,11.36,11.36,0,0,1-3.58,3.31,15.15,15.15,0,0,1-4.8,1.81A25.51,25.51,0,0,1,343.71,391.22Z"/><path class="cls-1" d="M298.59,398.06l-15.54,4.34-.59-2.72L297.93,395Z"/><path class="cls-1" d="M78.89,398.06,63.35,402.4l-.59-2.72L78.23,395Z"/></svg>