<svg id="Layer_1" data-name="Layer 1" xmlns="http://www.w3.org/2000/svg" viewBox="0 0 21.55 20"><defs><style>.cls-1{fill:#fff;fill-rule:evenodd;}</style></defs><path class="cls-1" d="M5.48.93C5.05-.11,4.61,0,4.29,0s-.67,0-1,0A1.93,1.93,0,0,0,1.86.66,6,6,0,0,0,0,5.09c0,2.6,1.9,5.12,2.16,5.48s3.74,5.71,9.06,8a31.65,31.65,0,0,0,3,1.12,7.37,7.37,0,0,0,3.33.21c1-.15,3.14-1.28,3.58-2.52a4.29,4.29,0,0,0,.31-2.52c-.13-.22-.48-.36-1-.62s-3.14-1.55-3.63-1.73-.84-.26-1.19.27S14.27,14.5,14,14.86s-.62.4-1.15.13a14.42,14.42,0,0,1-4.26-2.63,16,16,0,0,1-3-3.67c-.31-.53,0-.82.23-1.08s.53-.62.8-.93a3.81,3.81,0,0,0,.53-.89,1,1,0,0,0,0-.93C7,4.6,5.92,2,5.48.93Z"/></svg>