<svg id="Layer_1" data-name="Layer 1" xmlns="http://www.w3.org/2000/svg" viewBox="0 0 48.62 48.63"><path d="M23.62,20.73a125.37,125.37,0,0,1,25-19.1V0h-.46A126,126,0,0,0,22.48,19.56q-4.87,4.77-9.37,9.81h0a45.84,45.84,0,0,1-5-8.75,59.87,59.87,0,0,1-4.58-19c0-.28,0-.57-.07-.86H1.82c0,.33,0,.67.07,1A61.46,61.46,0,0,0,6.61,21.28,47,47,0,0,0,12,30.63Q5.61,37.92,0,45.77v2.86A191.26,191.26,0,0,1,13,32l.21-.24L13,32c6.12,7.54,14.48,12.43,25,14.55A90.61,90.61,0,0,0,48.62,48V46.32a89.13,89.13,0,0,1-10.3-1.43C28.13,42.83,20,38.07,14.13,30.69h0l-.05-.06.05.06Q18.68,25.58,23.62,20.73Z"/></svg>