<svg id="Layer_1" data-name="Layer 1" xmlns="http://www.w3.org/2000/svg" viewBox="0 0 350 68.21"><defs><style>.cls-1{fill:#231f20;}</style></defs><path class="cls-1" d="M13.54,29a8.54,8.54,0,0,1-3.18-.54A5.83,5.83,0,0,1,8.15,27a5.93,5.93,0,0,1-1.3-2.21,8.24,8.24,0,0,1-.43-2.69,10,10,0,0,1,.32-2.47,8.87,8.87,0,0,1,1-2.34l2.34.82a8.93,8.93,0,0,0-.63,1.65,5.75,5.75,0,0,0-.23,1.58,4.48,4.48,0,0,0,.27,1.58,3.38,3.38,0,0,0,.83,1.27,3.79,3.79,0,0,0,1.4.84,6.26,6.26,0,0,0,2.06.3A7,7,0,0,0,16.05,25,4.84,4.84,0,0,0,17.71,24a3.61,3.61,0,0,0,1-1.39A4.55,4.55,0,0,0,19,20.88a7.12,7.12,0,0,0-1.36-4l2.66-2.18a12.51,12.51,0,0,1,1.41,3,10.28,10.28,0,0,1,.46,3,8.5,8.5,0,0,1-.61,3.22,7.86,7.86,0,0,1-1.72,2.66,8.08,8.08,0,0,1-2.72,1.8A9.2,9.2,0,0,1,13.54,29Zm2.05-15.82L13.7,15.72,11.07,14,13,11.39Z"/><path class="cls-1" d="M28.28,22.49l-3.23.85V5.12l3.23-1.26Z"/><path class="cls-1" d="M33.88,16.2a12.29,12.29,0,0,1,1.31,2.26,6.6,6.6,0,0,1,.49,2.67,6.28,6.28,0,0,1-.74,2.93A12,12,0,0,1,33,26.7,19.84,19.84,0,0,1,30.35,29a31.48,31.48,0,0,1-3,1.91L24.7,28.79c.7-.34,1.52-.79,2.46-1.33a25.67,25.67,0,0,0,2.68-1.81,14.86,14.86,0,0,0,2.19-2,3.07,3.07,0,0,0,.9-1.95,2.72,2.72,0,0,0-.49-1.42,17.66,17.66,0,0,0-1-1.46Z"/><path class="cls-1" d="M41.75,22.49l-3.22.85V5.12l3.22-1.26Z"/><path class="cls-1" d="M58.27,22.9a5,5,0,0,1-2.58-.68,4.84,4.84,0,0,1-1.85-1.85c-.83,2-2.52,2.94-5.1,2.94a5.51,5.51,0,0,1-4.46-1.67l1.14-2.91a4.39,4.39,0,0,0,1.62.72,8.53,8.53,0,0,0,2.21.29,8,8,0,0,0,1.3-.1,4.47,4.47,0,0,0,1.12-.3,2.18,2.18,0,0,0,.79-.52,1.06,1.06,0,0,0,.3-.76.86.86,0,0,0,0-.27c0-.11-.11-.38-.25-.8s-.36-1.07-.66-1.93-.73-2.07-1.25-3.61l2.53-2.28q1,3.16,1.56,5.13a25.05,25.05,0,0,0,1.08,3.05,3.7,3.7,0,0,0,1,1.49,2.51,2.51,0,0,0,1.47.39h.67V22.9ZM54.44,4.84l-1.9,2.53L49.91,5.6,51.84,3Z"/><path class="cls-1" d="M58.17,19.49c0-.09.08-.15.24-.19a1.61,1.61,0,0,1,.49-.07h1q5.28,0,5.28-1.29a1.93,1.93,0,0,0-.54-1.11,12.91,12.91,0,0,0-1.33-1.38c-.52-.47-1.09-.94-1.69-1.39l-1.63-1.22a6.79,6.79,0,0,1-.6-.44A1.28,1.28,0,0,1,59,12a1.13,1.13,0,0,1-.09-.47,5.46,5.46,0,0,1,.06-.71c0-.19.06-.43.1-.71s.1-.58.17-.87a4.27,4.27,0,0,1,.29-.81A1,1,0,0,1,60,7.94a45.33,45.33,0,0,1,5.29-2.26c2.19-.81,4.83-1.67,7.9-2.58l-.41,3.7Q70,7.4,67.3,8.11a47.25,47.25,0,0,0-5.24,1.73c-.38.15-.44.31-.19.5L64,11.86a15.18,15.18,0,0,1,1.9,1.63,7.27,7.27,0,0,1,1.37,1.92,5.1,5.1,0,0,1,.53,2.34,4.48,4.48,0,0,1-.76,2.7,4.91,4.91,0,0,1-2,1.57,8.91,8.91,0,0,1-2.59.71,23.33,23.33,0,0,1-2.71.17H58.9a2,2,0,0,1-.49-.06c-.16,0-.24-.1-.24-.16Zm15-17.72c-2.29.74-4.21,1.37-5.74,1.88S64.64,4.6,63.67,5s-1.71.63-2.24.84-.94.39-1.23.54l.41-1.74q1.55-.74,4.73-1.87C67.45,2,70.15,1.05,73.42,0Z"/><path class="cls-1" d="M87.14,22.9a3.44,3.44,0,0,1-2.48-.76,4.28,4.28,0,0,1-1.09-2.27,3.42,3.42,0,0,1-1.42.79,6.72,6.72,0,0,1-2.06.31,5.81,5.81,0,0,1-1.2-.12,3.49,3.49,0,0,1-1-.42,2.16,2.16,0,0,1-.73-.71,1.92,1.92,0,0,1-.27-1.06q0-3.35,5.13-6.39l-.29-1.36L84,8.57,85.69,17a3.64,3.64,0,0,0,.73,1.74,2.31,2.31,0,0,0,1.71.5V22.9Zm-4.65-8.13a5.9,5.9,0,0,0-1.24.62,4.66,4.66,0,0,0-1.19,1q-.51.63-.27.93c.16.2.51.3,1.06.3a9.18,9.18,0,0,0,1.2-.08,2.42,2.42,0,0,0,1-.33Z"/><path class="cls-1" d="M92.62,26.89,91,29,89,27.68l-1.17,1.58-2.47-1.58L87,25.5l2,1.39,1.14-1.62Zm-5.22-7.4c0-.09.08-.15.23-.19a1.68,1.68,0,0,1,.5-.07h2.08c1.08,0,1.62-.25,1.62-.76a1.09,1.09,0,0,0-.07-.33,2.82,2.82,0,0,0-.25-.49c-.13-.21-.31-.47-.54-.77s-.54-.7-.92-1.19l2.06-2.91A5.59,5.59,0,0,1,93.65,15a7.61,7.61,0,0,1,.55,2.82A5.46,5.46,0,0,1,93.77,20a4.4,4.4,0,0,1-1.17,1.6,4.94,4.94,0,0,1-1.75.95,7.39,7.39,0,0,1-2.19.31h-.53a2.07,2.07,0,0,1-.5-.06c-.15,0-.23-.1-.23-.16Z"/><path class="cls-1" d="M99.69,22.38a3.85,3.85,0,0,1-1.55-1.44,5.92,5.92,0,0,1-.76-2.18A19.29,19.29,0,0,1,97.14,16c0-.47,0-1.13-.06-2s0-1.8-.07-2.81,0-2-.08-3.12-.05-2-.07-3L100,3.86V16.39a3.43,3.43,0,0,0,.56,2.13,2.21,2.21,0,0,0,1.84.71V22.9A5.73,5.73,0,0,1,99.69,22.38Z"/><path class="cls-1" d="M101.63,19.49c0-.09.08-.15.24-.19a1.61,1.61,0,0,1,.49-.07,5.58,5.58,0,0,0,2.17-.36,2.8,2.8,0,0,0,1.28-1.09c.25-.42.51-.88.77-1.36a11.18,11.18,0,0,1,.87-1.35,4.82,4.82,0,0,1,1.09-1,2.61,2.61,0,0,1,1.47-.41,2.4,2.4,0,0,1,1.57.53,3.84,3.84,0,0,1,1,1.28,6.33,6.33,0,0,1,.59,1.63,7.18,7.18,0,0,1,.19,1.56,6.54,6.54,0,0,1-.13,1.28,4,4,0,0,1-.44,1.25,3,3,0,0,1-.81.95,1.87,1.87,0,0,1-1.18.38,4.6,4.6,0,0,1-2.11-.52,10.5,10.5,0,0,1-1.82-1.16A5.55,5.55,0,0,1,105,22.36a5.92,5.92,0,0,1-2.66.54,2,2,0,0,1-.49-.06c-.16,0-.24-.1-.24-.16Zm8.26-3c-.68-.1-1.24.42-1.68,1.58a4.53,4.53,0,0,0,1.08.75,4.06,4.06,0,0,0,1.14.39.5.5,0,0,0,.66-.44,2.54,2.54,0,0,0,0-.66,2.75,2.75,0,0,0-.22-.72,2.39,2.39,0,0,0-.4-.58A1,1,0,0,0,109.89,16.51Z"/><path class="cls-1" d="M121.29,22.71a2.38,2.38,0,0,1-.62-.44,7.73,7.73,0,0,1-1.06,2.55,12,12,0,0,1-1.86,2.27,19.64,19.64,0,0,1-2.44,2c-.89.63-1.82,1.22-2.77,1.77l-2.68-2.08q1-.51,2.43-1.32A26.28,26.28,0,0,0,115,25.72a14.33,14.33,0,0,0,2.2-2,3,3,0,0,0,.9-2,1.86,1.86,0,0,0-.19-.79c-.13-.27-.27-.54-.44-.82s-.34-.53-.51-.76l-.41-.57L119,16.23c.23.36.44.71.65,1.07a7.09,7.09,0,0,0,.64,1,3.74,3.74,0,0,0,.76.69,1.76,1.76,0,0,0,1,.27V22.9A1.54,1.54,0,0,1,121.29,22.71Z"/><path class="cls-1" d="M121.31,19.49c0-.09.07-.15.23-.19a1.61,1.61,0,0,1,.49-.07h.32a2.17,2.17,0,0,0,1.42-.47,1.68,1.68,0,0,0,.57-1.36v-.92l2.22-.76v1a3.5,3.5,0,0,0,.41,1.85,1.32,1.32,0,0,0,1.23.68c1.48,0,2.22-.66,2.22-2V16l2.24-.67V17a2.43,2.43,0,0,0,.63,1.7,2.08,2.08,0,0,0,1.62.7,1.33,1.33,0,0,0,1-.35,1.3,1.3,0,0,0,.3-.88,2.7,2.7,0,0,0-.32-1.25,2.91,2.91,0,0,0-.73-1l2.18-2.47a6.2,6.2,0,0,1,1.1,2,7.28,7.28,0,0,1,.36,2.27,7.16,7.16,0,0,1-.25,1.89,5.64,5.64,0,0,1-.75,1.67,3.71,3.71,0,0,1-1.23,1.2,3.13,3.13,0,0,1-1.69.46,4.74,4.74,0,0,1-2.14-.46,2.88,2.88,0,0,1-1.37-1.34,3,3,0,0,1-1.21,1.28,3.35,3.35,0,0,1-1.61.49,4,4,0,0,1-1.82-.41,3,3,0,0,1-1.28-1.23A3,3,0,0,1,124,22.52a5.14,5.14,0,0,1-1.93.38,2,2,0,0,1-.49-.06c-.16,0-.23-.1-.23-.16Z"/><path class="cls-1" d="M143.38,28.79c.68-.34,1.48-.77,2.39-1.3s1.81-1.1,2.66-1.71a14.52,14.52,0,0,0,2.2-1.91,3.28,3.28,0,0,0,1-1.92,3.66,3.66,0,0,1-1,.37,5.34,5.34,0,0,1-1.17.14,3.35,3.35,0,0,1-2.64-.89A3.31,3.31,0,0,1,146,19.3a7.1,7.1,0,0,1,.24-1.78,5.8,5.8,0,0,1,.71-1.67,4.6,4.6,0,0,1,1.17-1.27,2.76,2.76,0,0,1,1.65-.5,3,3,0,0,1,2.08.72,5.42,5.42,0,0,1,1.32,1.79,9,9,0,0,1,.68,2.23,13.93,13.93,0,0,1,.19,2.06,7.64,7.64,0,0,1-.65,3.19,9.6,9.6,0,0,1-1.76,2.61,17.8,17.8,0,0,1-2.54,2.22c-1,.68-2,1.34-3.06,2Zm7.94-9.62a3.72,3.72,0,0,0-.63-1.46,1.32,1.32,0,0,0-1.11-.6,1.27,1.27,0,0,0-.91.41,1.38,1.38,0,0,0-.41,1,.77.77,0,0,0,.47.76,2.55,2.55,0,0,0,1,.22,3.58,3.58,0,0,0,.87-.11A4.29,4.29,0,0,0,151.32,19.17Z"/><path class="cls-1" d="M167.77,29a8.54,8.54,0,0,1-3.18-.54A5.91,5.91,0,0,1,162.38,27a6.21,6.21,0,0,1-1.3-2.21,8.52,8.52,0,0,1-.43-2.69,10,10,0,0,1,.32-2.47,8.87,8.87,0,0,1,1-2.34l2.34.82a10.63,10.63,0,0,0-.63,1.65,5.74,5.74,0,0,0-.22,1.58,4.48,4.48,0,0,0,.27,1.58,3.35,3.35,0,0,0,.82,1.27,3.92,3.92,0,0,0,1.41.84,6.2,6.2,0,0,0,2.05.3,7,7,0,0,0,2.3-.35A5,5,0,0,0,172,24a3.7,3.7,0,0,0,1-1.39,4.37,4.37,0,0,0,.34-1.75,7.19,7.19,0,0,0-1.36-4l2.65-2.18a12.13,12.13,0,0,1,1.41,3,10,10,0,0,1,.46,3,8.69,8.69,0,0,1-.6,3.22,7.89,7.89,0,0,1-1.73,2.66,8,8,0,0,1-2.72,1.8A9.2,9.2,0,0,1,167.77,29Zm2.06-15.82-1.9,2.53L165.3,14l1.93-2.56Z"/><path class="cls-1" d="M181.93,22.38a3.85,3.85,0,0,1-1.55-1.44,6.11,6.11,0,0,1-.76-2.18,19.29,19.29,0,0,1-.24-2.75c0-.47,0-1.13-.06-2s0-1.8-.07-2.81,0-2-.07-3.12-.06-2-.08-3l3.1-1.26V16.39a3.36,3.36,0,0,0,.57,2.13,2.19,2.19,0,0,0,1.83.71V22.9A5.73,5.73,0,0,1,181.93,22.38Z"/><path class="cls-1" d="M183.87,19.49c0-.09.08-.15.24-.19a1.61,1.61,0,0,1,.49-.07h1q5.28,0,5.28-1.29a1.93,1.93,0,0,0-.54-1.11A12.74,12.74,0,0,0,189,15.45c-.53-.47-1.1-.94-1.7-1.39l-1.63-1.22a6.79,6.79,0,0,1-.6-.44,1.24,1.24,0,0,1-.31-.4,1,1,0,0,1-.1-.47,5.46,5.46,0,0,1,.06-.71c0-.19.06-.43.1-.71s.1-.58.17-.87a4.27,4.27,0,0,1,.29-.81,1,1,0,0,1,.43-.49A44.34,44.34,0,0,1,191,5.68q3.28-1.21,7.91-2.58l-.42,3.7q-2.77.6-5.45,1.31a48,48,0,0,0-5.24,1.73c-.38.15-.44.31-.19.5l2.09,1.52a15.18,15.18,0,0,1,1.9,1.63,7.54,7.54,0,0,1,1.38,1.92,5.23,5.23,0,0,1,.52,2.34,4.48,4.48,0,0,1-.76,2.7A4.91,4.91,0,0,1,190.75,22a8.91,8.91,0,0,1-2.59.71,23.33,23.33,0,0,1-2.71.17h-.85a2,2,0,0,1-.49-.06c-.16,0-.24-.1-.24-.16Zm15-17.72q-3.45,1.11-5.75,1.88c-1.52.52-2.77.95-3.74,1.3s-1.72.63-2.25.84-.94.39-1.23.54l.41-1.74q1.55-.74,4.73-1.87T199.12,0Z"/><path class="cls-1" d="M210,22.9a5,5,0,0,1-2.58-.68,4.84,4.84,0,0,1-1.85-1.85q-1.23,2.94-5.09,2.94A5.5,5.5,0,0,1,196,21.64l1.14-2.91a4.26,4.26,0,0,0,1.61.72,8.59,8.59,0,0,0,2.21.29,7.87,7.87,0,0,0,1.3-.1,4.35,4.35,0,0,0,1.12-.3,2.18,2.18,0,0,0,.79-.52,1.06,1.06,0,0,0,.3-.76,1.16,1.16,0,0,0,0-.27c0-.11-.12-.38-.26-.8s-.35-1.07-.66-1.93-.72-2.07-1.25-3.61l2.53-2.28c.65,2.11,1.18,3.82,1.57,5.13a27.19,27.19,0,0,0,1.07,3.05,3.7,3.7,0,0,0,1.05,1.49,2.49,2.49,0,0,0,1.47.39h.66V22.9Z"/><path class="cls-1" d="M209.87,19.49c0-.09.08-.15.24-.19a1.61,1.61,0,0,1,.49-.07h2.09c1.07,0,1.61-.25,1.61-.76a1.05,1.05,0,0,0-.06-.33,3.8,3.8,0,0,0-.25-.49c-.13-.21-.31-.47-.54-.77s-.54-.7-.92-1.19l2.06-2.91A5.57,5.57,0,0,1,216.12,15a7.41,7.41,0,0,1,.55,2.82,5.63,5.63,0,0,1-.42,2.26,4.64,4.64,0,0,1-1.17,1.6,5,5,0,0,1-1.76.95,7.27,7.27,0,0,1-2.18.31h-.54a2,2,0,0,1-.49-.06c-.16,0-.24-.1-.24-.16Zm5.76-10.63-1.9,2.53-2.62-1.77L213,7.05Z"/><path class="cls-1" d="M222.27,16.2a12.37,12.37,0,0,1,1.32,2.26,6.77,6.77,0,0,1,.49,2.67,6.17,6.17,0,0,1-.75,2.93,11.66,11.66,0,0,1-1.93,2.64A19.74,19.74,0,0,1,218.75,29a31.48,31.48,0,0,1-3,1.91l-2.69-2.11c.7-.34,1.51-.79,2.45-1.33a24.79,24.79,0,0,0,2.69-1.81,15.28,15.28,0,0,0,2.18-2,3.07,3.07,0,0,0,.9-1.95,2.72,2.72,0,0,0-.49-1.42,17.64,17.64,0,0,0-1-1.46Zm1.33-4-1.9,2.53-2.62-1.77L221,10.34Z"/><path class="cls-1" d="M229.56,22.38A3.92,3.92,0,0,1,228,20.94a6.11,6.11,0,0,1-.76-2.18A20.93,20.93,0,0,1,227,16c0-.47,0-1.13-.07-2s0-1.8-.06-2.81,0-2-.08-3.12-.06-2-.08-3l3.1-1.26V16.39a3.36,3.36,0,0,0,.57,2.13,2.2,2.2,0,0,0,1.84.71V22.9A5.81,5.81,0,0,1,229.56,22.38Z"/><path class="cls-1" d="M231.51,19.49c0-.09.08-.15.24-.19a1.57,1.57,0,0,1,.49-.07h.31a2.2,2.2,0,0,0,1.43-.47,1.68,1.68,0,0,0,.57-1.36v-.92l2.21-.76v1a3.6,3.6,0,0,0,.41,1.85,1.33,1.33,0,0,0,1.23.68c1.48,0,2.22-.66,2.22-2V16l2.24-.67V17a2.44,2.44,0,0,0,.64,1.7,2.06,2.06,0,0,0,1.61.7,1.14,1.14,0,0,0,1.33-1.23,2.7,2.7,0,0,0-.32-1.25,3,3,0,0,0-.72-1l2.18-2.47a6.17,6.17,0,0,1,1.09,2,7.28,7.28,0,0,1,.36,2.27,7.16,7.16,0,0,1-.25,1.89,5.89,5.89,0,0,1-.74,1.67,3.84,3.84,0,0,1-1.24,1.2,3.11,3.11,0,0,1-1.69.46,4.7,4.7,0,0,1-2.13-.46,2.85,2.85,0,0,1-1.38-1.34,3,3,0,0,1-1.2,1.28,3.42,3.42,0,0,1-1.62.49,4,4,0,0,1-1.81-.41,3.05,3.05,0,0,1-1.29-1.23,2.93,2.93,0,0,1-1.51,1.26,5.22,5.22,0,0,1-1.93.38,1.93,1.93,0,0,1-.49-.06c-.16,0-.24-.1-.24-.16Z"/><path class="cls-1" d="M258.25,22.38a3.92,3.92,0,0,1-1.55-1.44,6.11,6.11,0,0,1-.76-2.18,20.93,20.93,0,0,1-.23-2.75c0-.47-.05-1.13-.07-2s0-1.8-.06-2.81-.05-2-.08-3.12-.06-2-.08-3l3.1-1.26V16.39a3.36,3.36,0,0,0,.57,2.13,2.2,2.2,0,0,0,1.84.71V22.9A5.81,5.81,0,0,1,258.25,22.38Z"/><path class="cls-1" d="M259.88,27.8l1.9-2.53,2.63,1.78-1.93,2.56Zm.32-8.31c0-.09.08-.15.24-.19a1.57,1.57,0,0,1,.49-.07H263c1.08,0,1.62-.25,1.62-.76a.85.85,0,0,0-.07-.33,2.82,2.82,0,0,0-.25-.49c-.13-.21-.31-.47-.54-.77l-.91-1.19,2.05-2.91A5.49,5.49,0,0,1,266.45,15a7.61,7.61,0,0,1,.55,2.82,5.46,5.46,0,0,1-.43,2.26,4.4,4.4,0,0,1-1.17,1.6,4.94,4.94,0,0,1-1.75.95,7.39,7.39,0,0,1-2.19.31h-.53a1.93,1.93,0,0,1-.49-.06c-.16,0-.24-.1-.24-.16Z"/><path class="cls-1" d="M291.23,16a6.72,6.72,0,0,0-2.63-.38,4.07,4.07,0,0,0-1.2.2,5.28,5.28,0,0,0-1.15.54,4,4,0,0,0-.87.73,1.18,1.18,0,0,0-.35.81.57.57,0,0,0,.47.55,5.8,5.8,0,0,0,1.21.19l1.55.11a6.1,6.1,0,0,1,1.55.32,2.75,2.75,0,0,1,1.2.79,2.25,2.25,0,0,1,.47,1.52,5.69,5.69,0,0,1-1,3.28,8.37,8.37,0,0,1-2.4,2.38,11.67,11.67,0,0,1-3.21,1.44,12.93,12.93,0,0,1-3.4.49,11.51,11.51,0,0,1-3.5-.49,6.94,6.94,0,0,1-2.48-1.36,5.56,5.56,0,0,1-1.47-2.08,6.71,6.71,0,0,1-.49-2.59,9.91,9.91,0,0,1,.36-2.55,11.31,11.31,0,0,1,1.13-2.67l2.49.86a10.67,10.67,0,0,0-.74,1.74,5.45,5.45,0,0,0-.27,1.67,3.78,3.78,0,0,0,.3,1.52,3.11,3.11,0,0,0,1,1.22,4.85,4.85,0,0,0,1.69.82,8.77,8.77,0,0,0,2.45.3,10.87,10.87,0,0,0,2.18-.25,14.71,14.71,0,0,0,2.33-.67,8.4,8.4,0,0,0,1.85-.93c.51-.35.76-.69.76-1s-.12-.32-.37-.39a5.49,5.49,0,0,0-1-.18c-.43,0-.93-.08-1.48-.11s-1.16-.09-1.79-.17a2.24,2.24,0,0,1-2.12-2.44,6,6,0,0,1,.62-2.7,7.71,7.71,0,0,1,1.61-2.25,7.91,7.91,0,0,1,2.26-1.53,6.18,6.18,0,0,1,2.56-.57,5.57,5.57,0,0,1,1.36.17,4.78,4.78,0,0,1,1.3.56Z"/><path class="cls-1" d="M297.49,16.2a11.75,11.75,0,0,1,1.31,2.26,6.59,6.59,0,0,1,.5,2.67,7.5,7.5,0,0,1-.48,2.56,11.91,11.91,0,0,1-1.33,2.61,15.16,15.16,0,0,1-2.07,2.47,16.67,16.67,0,0,1-2.7,2.13l-2.66-2.11c.69-.41,1.42-.87,2.18-1.41a17.9,17.9,0,0,0,2.1-1.73,9.89,9.89,0,0,0,1.59-1.91,3.81,3.81,0,0,0,.61-2,2.72,2.72,0,0,0-.49-1.42,17.64,17.64,0,0,0-1-1.46Z"/><path class="cls-1" d="M304.78,22.38a3.92,3.92,0,0,1-1.55-1.44,6.11,6.11,0,0,1-.76-2.18,20.93,20.93,0,0,1-.23-2.75c0-.47-.05-1.13-.07-2s0-1.8-.06-2.81-.05-2-.08-3.12-.06-2-.08-3l3.1-1.26V16.39a3.36,3.36,0,0,0,.57,2.13,2.2,2.2,0,0,0,1.84.71V22.9A5.81,5.81,0,0,1,304.78,22.38Z"/><path class="cls-1" d="M321.06,22.9a5.62,5.62,0,0,1-2-.35,8.46,8.46,0,0,1-1.8-.91,9.85,9.85,0,0,1-1.58-1.3,13.58,13.58,0,0,1-1.3-1.49,4,4,0,0,1-2.05,3,9.92,9.92,0,0,1-4.87,1,1.93,1.93,0,0,1-.49-.06c-.16,0-.24-.1-.24-.16V19.49c0-.09.08-.15.24-.19a1.57,1.57,0,0,1,.49-.07h1.28a11.59,11.59,0,0,0,1.66-.12,5,5,0,0,0,1.42-.43,1,1,0,0,0,.6-.9,2.27,2.27,0,0,0-.54-1.27A13.69,13.69,0,0,0,310.6,15c-.49-.49-1-1-1.5-1.42s-.91-.83-1.2-1.13a2.57,2.57,0,0,1-.3-.33.69.69,0,0,1-.11-.61,6.94,6.94,0,0,1,.11-.84,7,7,0,0,1,.19-.87,3.89,3.89,0,0,1,.27-.75.76.76,0,0,1,.38-.42,50.35,50.35,0,0,1,5.61-2.39c2.31-.85,5.08-1.79,8.3-2.8l-.41,3.57c-2.3.53-4.39,1.09-6.28,1.66s-3.62,1.19-5.2,1.82c-.4.15-.45.33-.16.54.91.7,1.79,1.42,2.64,2.18s1.7,1.55,2.52,2.38c.46.46.92.91,1.37,1.34a11.9,11.9,0,0,0,1.43,1.16,7.19,7.19,0,0,0,1.56.8,5.25,5.25,0,0,0,1.81.3h1.45V22.9Z"/><path class="cls-1" d="M336.11,22.9a4.79,4.79,0,0,1-1.64-.3,3.47,3.47,0,0,1-1.36-.87l-.24.81a1.9,1.9,0,0,1-.31.62,1.49,1.49,0,0,1-.53.39,2.1,2.1,0,0,1-.88.14,4.62,4.62,0,0,1-1.17-.16,6.83,6.83,0,0,1-1.27-.44,9.51,9.51,0,0,1-1.22-.65,6.37,6.37,0,0,1-1-.74,4.62,4.62,0,0,1-1.46.89,5.49,5.49,0,0,1-2,.31,2,2,0,0,1-.49-.06c-.16,0-.24-.1-.24-.16V19.49c0-.09.08-.15.24-.19a1.61,1.61,0,0,1,.49-.07c.42,0,.8,0,1.12,0a3,3,0,0,0,.91-.2,2.42,2.42,0,0,0,.74-.5,3.65,3.65,0,0,0,.65-.88c.21-.36.43-.71.66-1a6.21,6.21,0,0,1,.76-.91,3.66,3.66,0,0,1,.9-.63A2.54,2.54,0,0,1,330,14.8a2,2,0,0,1,1.53.76,15.74,15.74,0,0,1,1.25,1.71c.27.49.5.86.68,1.12A1.92,1.92,0,0,0,334,19a1.65,1.65,0,0,0,.76.22c.3,0,.71,0,1.24,0h.28V22.9Zm-7.68-4.24a2.1,2.1,0,0,1-.15.3c0,.1-.1.2-.14.3a5.18,5.18,0,0,0,1.41.81,3.65,3.65,0,0,0,1.22.3q.38,0,.42-.27a1.3,1.3,0,0,0,0-.61,4.14,4.14,0,0,0-.57-1.21,1.21,1.21,0,0,0-1-.6C329.1,17.68,328.72,18,328.43,18.66Z"/><path class="cls-1" d="M335.54,19.49c0-.09.08-.15.24-.19a1.61,1.61,0,0,1,.49-.07H339a2.82,2.82,0,0,1-.57-1.61,4,4,0,0,1,.68-2.14,6.92,6.92,0,0,1,1.6-1.75l-.7-.44L341.52,10c.64.44,1.43,1,2.39,1.74a26.75,26.75,0,0,1,2.78,2.38A17.26,17.26,0,0,1,349,16.88a5.23,5.23,0,0,1,1,2.83,7.65,7.65,0,0,1-.22,1.91,4.56,4.56,0,0,1-.62,1.46,2.46,2.46,0,0,1-.92.85,1.33,1.33,0,0,1-1.09.08,17.11,17.11,0,0,1-2.2-.76c-.81-.34-1.61-.72-2.42-1.14a8,8,0,0,1-2,.62,11,11,0,0,1-1.74.17h-2.53a2,2,0,0,1-.49-.06c-.16,0-.24-.1-.24-.16Zm5.86-1.11a8.32,8.32,0,0,0,.91.57,2.18,2.18,0,0,0,1.19-.89,2.21,2.21,0,0,0,.33-1.1,1.06,1.06,0,0,0-.16-.56,2.22,2.22,0,0,0-.38-.49,1.69,1.69,0,0,0-.49-.35,1.16,1.16,0,0,0-.46-.12,1.13,1.13,0,0,0-.56.17,2.74,2.74,0,0,0-.54.44,2.41,2.41,0,0,0-.41.57,1.13,1.13,0,0,0-.16.52,2.59,2.59,0,0,0,.09.53A1.39,1.39,0,0,0,341.4,18.38Zm4.61,0a4.27,4.27,0,0,1-.42,1.11,7.7,7.7,0,0,1-.62.91,6.86,6.86,0,0,0,.78.35c.26.11.51.21.74.32s.53.18.69.22.32-.08.45-.38a2,2,0,0,0-.22-1.79,7.39,7.39,0,0,0-1.33-1.53A2.31,2.31,0,0,1,346,18.41Z"/><path class="cls-1" d="M9.17,49.2a12.43,12.43,0,0,1,1.32,2.27A6.7,6.7,0,0,1,11,54.14a6.1,6.1,0,0,1-.75,2.92A11.71,11.71,0,0,1,8.3,59.71,19.74,19.74,0,0,1,5.65,62c-1,.7-2,1.34-3,1.91L0,61.79c.7-.33,1.51-.78,2.45-1.33a24.71,24.71,0,0,0,2.69-1.8,14.75,14.75,0,0,0,2.18-2,3,3,0,0,0,.9-1.94,2.78,2.78,0,0,0-.49-1.43c-.32-.52-.66-1-1-1.45Z"/><path class="cls-1" d="M16.38,55.39A3.92,3.92,0,0,1,14.83,54a6.1,6.1,0,0,1-.75-2.18A19.43,19.43,0,0,1,13.84,49c0-.46,0-1.12-.06-2s0-1.8-.07-2.81-.05-2.06-.08-3.12-.06-2.05-.08-3l3.1-1.26V49.39a3.39,3.39,0,0,0,.57,2.14,2.23,2.23,0,0,0,1.84.71v3.67A5.81,5.81,0,0,1,16.38,55.39Z"/><path class="cls-1" d="M19.06,55.91a2,2,0,0,1-.49-.06c-.16-.05-.24-.1-.24-.16v-3.2c0-.08.08-.14.24-.19a2,2,0,0,1,.49-.06h3.16v3.67Z"/><path class="cls-1" d="M22.22,55.91a2,2,0,0,1-.49-.06c-.16-.05-.24-.1-.24-.16v-3.2c0-.08.08-.14.24-.19a2,2,0,0,1,.49-.06h3.16v3.67Z"/><path class="cls-1" d="M25.38,55.91a2,2,0,0,1-.49-.06c-.16-.05-.23-.1-.23-.16v-3.2c0-.08.07-.14.23-.19a2,2,0,0,1,.49-.06h3.17v3.67Z"/><path class="cls-1" d="M28.55,55.91a1.93,1.93,0,0,1-.49-.06c-.16-.05-.24-.1-.24-.16v-3.2c0-.08.08-.14.24-.19a1.93,1.93,0,0,1,.49-.06h3.16v3.67Z"/><path class="cls-1" d="M31.71,55.91a2,2,0,0,1-.49-.06c-.16-.05-.24-.1-.24-.16v-3.2c0-.08.08-.14.24-.19a2,2,0,0,1,.49-.06h3.16v3.67Z"/><path class="cls-1" d="M34.87,55.91a2,2,0,0,1-.49-.06c-.16-.05-.24-.1-.24-.16v-3.2c0-.08.08-.14.24-.19a2,2,0,0,1,.49-.06H38v3.67Z"/><path class="cls-1" d="M38,55.91a2.07,2.07,0,0,1-.5-.06c-.15-.05-.23-.1-.23-.16v-3.2c0-.08.08-.14.23-.19a2.07,2.07,0,0,1,.5-.06H41.2v3.67Z"/><path class="cls-1" d="M41.2,55.91a2,2,0,0,1-.49-.06c-.16-.05-.24-.1-.24-.16v-3.2c0-.08.08-.14.24-.19a2,2,0,0,1,.49-.06h3.16v3.67Z"/><path class="cls-1" d="M43.63,52.49c0-.08.08-.14.24-.19a2,2,0,0,1,.49-.06h1q5.28,0,5.28-1.3a1.94,1.94,0,0,0-.54-1.1,11.14,11.14,0,0,0-1.32-1.38c-.53-.47-1.1-.94-1.7-1.39s-1.14-.86-1.63-1.22c-.25-.17-.45-.32-.6-.44a1.24,1.24,0,0,1-.31-.4,1,1,0,0,1-.1-.47,4.3,4.3,0,0,1,.07-.71q0-.28.09-.72c0-.28.1-.57.17-.87a4.42,4.42,0,0,1,.29-.8,1,1,0,0,1,.43-.49,45.08,45.08,0,0,1,5.28-2.26q3.28-1.23,7.91-2.58l-.41,3.7q-2.79.6-5.46,1.31a48,48,0,0,0-5.24,1.73c-.38.14-.44.31-.19.5l2.09,1.52a15.18,15.18,0,0,1,1.9,1.63,7.67,7.67,0,0,1,1.38,1.91,5.29,5.29,0,0,1,.52,2.34,4.51,4.51,0,0,1-.76,2.71,4.89,4.89,0,0,1-2,1.56,8.92,8.92,0,0,1-2.59.72,23.33,23.33,0,0,1-2.71.17h-.85a2,2,0,0,1-.49-.06c-.16-.05-.24-.1-.24-.16Zm15-17.71c-2.3.74-4.22,1.36-5.74,1.88s-2.78,1-3.75,1.3-1.72.63-2.25.84-.94.39-1.23.53l.41-1.74q1.55-.72,4.73-1.86T58.88,33Z"/><path class="cls-1" d="M69.65,55.91a5.13,5.13,0,0,1-2.58-.68,4.84,4.84,0,0,1-1.85-1.85Q64,56.32,60.13,56.32a5.47,5.47,0,0,1-4.46-1.68l1.14-2.91a4.17,4.17,0,0,0,1.61.73,8.67,8.67,0,0,0,2.22.29,9.1,9.1,0,0,0,1.29-.1,4.55,4.55,0,0,0,1.13-.3,2.41,2.41,0,0,0,.79-.52,1.06,1.06,0,0,0,.3-.76,1.31,1.31,0,0,0-.05-.27c0-.11-.12-.38-.25-.81s-.36-1.06-.67-1.93-.72-2.06-1.25-3.6l2.53-2.28q1,3.16,1.57,5.13a27.94,27.94,0,0,0,1.07,3,3.58,3.58,0,0,0,1.05,1.48,2.44,2.44,0,0,0,1.47.4h.66v3.67Z"/><path class="cls-1" d="M69.56,52.49c0-.08.07-.14.23-.19a2,2,0,0,1,.49-.06h2.09c1.08,0,1.61-.25,1.61-.76a1,1,0,0,0-.06-.33,3.24,3.24,0,0,0-.25-.49q-.19-.31-.54-.78l-.92-1.18,2.06-2.91A5.5,5.5,0,0,1,75.8,48a7.41,7.41,0,0,1,.56,2.81,5.67,5.67,0,0,1-.43,2.27,4.51,4.51,0,0,1-1.17,1.59,4.83,4.83,0,0,1-1.76,1,7.27,7.27,0,0,1-2.18.32h-.54a2,2,0,0,1-.49-.06c-.16-.05-.23-.1-.23-.16Zm5.75-10.63-1.9,2.54-2.62-1.78,1.93-2.56Z"/><path class="cls-1" d="M81.77,55.39A3.79,3.79,0,0,1,80.22,54a5.92,5.92,0,0,1-.76-2.18A19.43,19.43,0,0,1,79.22,49c0-.46,0-1.12-.06-2s0-1.8-.07-2.81,0-2.06-.08-3.12-.06-2.05-.08-3L82,36.87V49.39a3.39,3.39,0,0,0,.57,2.14,2.23,2.23,0,0,0,1.84.71v3.67A5.73,5.73,0,0,1,81.77,55.39Z"/><path class="cls-1" d="M83.71,52.49c0-.08.08-.14.24-.19a2,2,0,0,1,.49-.06,5.5,5.5,0,0,0,2.16-.36,2.79,2.79,0,0,0,1.29-1.1c.25-.42.51-.87.77-1.36a9.64,9.64,0,0,1,.87-1.34,4.82,4.82,0,0,1,1.09-1,2.61,2.61,0,0,1,1.47-.41,2.47,2.47,0,0,1,1.57.52,4,4,0,0,1,1,1.28,6.47,6.47,0,0,1,.59,1.63,8,8,0,0,1,.19,1.57,7.41,7.41,0,0,1-.13,1.28,4,4,0,0,1-.44,1.25,3,3,0,0,1-.81.95,1.89,1.89,0,0,1-1.18.38A4.73,4.73,0,0,1,90.81,55,11.13,11.13,0,0,1,89,53.82a5.7,5.7,0,0,1-1.9,1.55,5.85,5.85,0,0,1-2.65.54,2,2,0,0,1-.49-.06c-.16-.05-.24-.1-.24-.16Zm8.26-3c-.68-.11-1.24.42-1.68,1.58a4.31,4.31,0,0,0,1.08.74,3.85,3.85,0,0,0,1.13.4.51.51,0,0,0,.67-.44,2.63,2.63,0,0,0,0-.67,3.26,3.26,0,0,0-.22-.71,2.21,2.21,0,0,0-.4-.58A1,1,0,0,0,92,49.52Z"/><path class="cls-1" d="M116.45,49.05a6.72,6.72,0,0,0-2.63-.38,3.77,3.77,0,0,0-1.2.2,5.07,5.07,0,0,0-1.15.54,3.74,3.74,0,0,0-.87.73,1.17,1.17,0,0,0-.35.8.57.57,0,0,0,.47.56,6.55,6.55,0,0,0,1.21.19l1.55.11a6.09,6.09,0,0,1,1.55.31,2.93,2.93,0,0,1,1.2.79,2.27,2.27,0,0,1,.47,1.52,5.73,5.73,0,0,1-1,3.29,8.22,8.22,0,0,1-2.4,2.37,11.11,11.11,0,0,1-3.21,1.44,12.53,12.53,0,0,1-3.4.49,11.21,11.21,0,0,1-3.5-.49,6.79,6.79,0,0,1-2.48-1.36,5.61,5.61,0,0,1-1.47-2.07,6.71,6.71,0,0,1-.49-2.59A9.91,9.91,0,0,1,99.16,53a11.51,11.51,0,0,1,1.12-2.67l2.5.85a10.67,10.67,0,0,0-.74,1.74,5.56,5.56,0,0,0-.27,1.68,3.82,3.82,0,0,0,.3,1.52,3.11,3.11,0,0,0,1,1.22,5,5,0,0,0,1.69.82,8.77,8.77,0,0,0,2.45.3,11.66,11.66,0,0,0,2.18-.25,15.85,15.85,0,0,0,2.33-.67,8.4,8.4,0,0,0,1.85-.93c.5-.35.76-.69.76-1s-.12-.32-.37-.4a5.63,5.63,0,0,0-1-.17c-.43,0-.93-.08-1.48-.11s-1.16-.09-1.79-.17a2.43,2.43,0,0,1-1.6-.8,2.46,2.46,0,0,1-.52-1.64,6,6,0,0,1,.62-2.7,7.58,7.58,0,0,1,1.61-2.25A7.91,7.91,0,0,1,112,45.76a6.18,6.18,0,0,1,2.56-.57,5.06,5.06,0,0,1,2.66.72Z"/><path class="cls-1" d="M122.52,55.39A3.92,3.92,0,0,1,121,54a6.11,6.11,0,0,1-.76-2.18A21.08,21.08,0,0,1,120,49c0-.46,0-1.12-.07-2s0-1.8-.06-2.81,0-2.06-.08-3.12-.06-2.05-.08-3l3.1-1.26V49.39a3.39,3.39,0,0,0,.57,2.14,2.22,2.22,0,0,0,1.83.71v3.67A5.79,5.79,0,0,1,122.52,55.39Z"/><path class="cls-1" d="M125.19,55.91a2.05,2.05,0,0,1-.49-.06c-.15-.05-.23-.1-.23-.16v-3.2c0-.08.08-.14.23-.19a2.05,2.05,0,0,1,.49-.06h3.17v3.67Z"/><path class="cls-1" d="M128.36,55.91a2,2,0,0,1-.49-.06c-.16-.05-.24-.1-.24-.16v-3.2c0-.08.08-.14.24-.19a2,2,0,0,1,.49-.06h3.16v3.67Z"/><path class="cls-1" d="M131.52,55.91a2,2,0,0,1-.49-.06c-.16-.05-.24-.1-.24-.16v-3.2c0-.08.08-.14.24-.19a2,2,0,0,1,.49-.06h3.16v3.67Z"/><path class="cls-1" d="M134.68,55.91a2,2,0,0,1-.49-.06c-.16-.05-.23-.1-.23-.16v-3.2c0-.08.07-.14.23-.19a2,2,0,0,1,.49-.06h3.17v3.67Z"/><path class="cls-1" d="M137.85,55.91a1.93,1.93,0,0,1-.49-.06c-.16-.05-.24-.1-.24-.16v-3.2c0-.08.08-.14.24-.19a1.93,1.93,0,0,1,.49-.06H141v3.67Z"/><path class="cls-1" d="M141,55.91a2,2,0,0,1-.49-.06c-.16-.05-.24-.1-.24-.16v-3.2c0-.08.08-.14.24-.19a2,2,0,0,1,.49-.06h3.16v3.67Z"/><path class="cls-1" d="M144.17,55.91a2,2,0,0,1-.49-.06c-.16-.05-.24-.1-.24-.16v-3.2c0-.08.08-.14.24-.19a2,2,0,0,1,.49-.06h3.17v3.67Z"/><path class="cls-1" d="M147.33,55.91a2.05,2.05,0,0,1-.49-.06c-.15-.05-.23-.1-.23-.16v-3.2c0-.08.08-.14.23-.19a2.05,2.05,0,0,1,.49-.06h3.17v3.67Z"/><path class="cls-1" d="M149.77,52.49c0-.08.08-.14.24-.19a2,2,0,0,1,.49-.06h2.72a2.85,2.85,0,0,1-.57-1.61,4,4,0,0,1,.68-2.14,6.57,6.57,0,0,1,1.6-1.75l-.7-.45L155.75,43c.63.45,1.43,1,2.39,1.74a29.33,29.33,0,0,1,2.78,2.39,17.2,17.2,0,0,1,2.31,2.75,5.43,5.43,0,0,1,1,2.83,7.66,7.66,0,0,1-.23,1.92,4.49,4.49,0,0,1-.61,1.45,2.57,2.57,0,0,1-.92.86,1.38,1.38,0,0,1-1.09.08,18.18,18.18,0,0,1-2.2-.76c-.81-.34-1.62-.72-2.42-1.14a8.64,8.64,0,0,1-2,.62,11.24,11.24,0,0,1-1.74.17H150.5a2,2,0,0,1-.49-.06c-.16-.05-.24-.1-.24-.16Zm5.85-1.1a10.58,10.58,0,0,0,.92.57,2.26,2.26,0,0,0,1.19-.89,2.21,2.21,0,0,0,.33-1.11,1.12,1.12,0,0,0-.16-.55,2.57,2.57,0,0,0-.38-.49,1.84,1.84,0,0,0-.49-.35,1.2,1.2,0,0,0-.46-.13,1.06,1.06,0,0,0-.57.18,2.43,2.43,0,0,0-.54.44,2.73,2.73,0,0,0-.41.57,1.22,1.22,0,0,0-.16.52,2.62,2.62,0,0,0,.1.52A1.33,1.33,0,0,0,155.62,51.39Zm4.62,0a4.43,4.43,0,0,1-.43,1.1,7,7,0,0,1-.61.92c.25.13.51.24.77.35s.51.21.74.32.53.18.7.22.32-.09.44-.38a2,2,0,0,0-.22-1.79,7.1,7.1,0,0,0-1.33-1.53A2.61,2.61,0,0,1,160.24,51.42Z"/><path class="cls-1" d="M175.44,51.51a5.14,5.14,0,0,1-.36,2,4.22,4.22,0,0,1-1,1.45,4.33,4.33,0,0,1-1.46.91,4.84,4.84,0,0,1-1.77.31,4.31,4.31,0,0,1-2.83-.85,3,3,0,0,1-1-2.47,9.77,9.77,0,0,1,1.77-4.74l-.66-.32,1.68-2.91a20.48,20.48,0,0,1,2.15,1.25,11,11,0,0,1,1.79,1.49A6.7,6.7,0,0,1,175,49.38,5.29,5.29,0,0,1,175.44,51.51Zm-2.47.22c0-.95-.78-1.81-2.34-2.59a8.07,8.07,0,0,0-.81,1.22,2.65,2.65,0,0,0-.36,1.22,1.17,1.17,0,0,0,.35.85,1.62,1.62,0,0,0,1.17.35,3,3,0,0,0,.63-.07,2.72,2.72,0,0,0,.65-.19,1.5,1.5,0,0,0,.51-.33A.65.65,0,0,0,173,51.73Z"/><path class="cls-1" d="M181,49.2a12.36,12.36,0,0,1,1.31,2.27,6.53,6.53,0,0,1,.49,2.67,6.21,6.21,0,0,1-.74,2.92,12,12,0,0,1-1.93,2.65A19.84,19.84,0,0,1,177.43,62a34.47,34.47,0,0,1-3,1.91l-2.68-2.12c.69-.33,1.51-.78,2.45-1.33a25.72,25.72,0,0,0,2.69-1.8,14.75,14.75,0,0,0,2.18-2,3,3,0,0,0,.9-1.94,2.78,2.78,0,0,0-.49-1.43c-.33-.52-.66-1-1-1.45Zm-4.11-3.13,1.58-2.15,2,1.36,1.17-1.61,2.41,1.61-1.58,2.15-2.09-1.36-1.11,1.62ZM178,42.56l1.61-2.09L181.84,42l-1.55,2.09Z"/><path class="cls-1" d="M183,61.86c.67-.32,1.46-.75,2.37-1.28A29.58,29.58,0,0,0,188,58.84a15.26,15.26,0,0,0,2.15-2,3.57,3.57,0,0,0,1-1.93,4,4,0,0,1-1,.36,4.82,4.82,0,0,1-1.17.15,2.93,2.93,0,0,1-3.42-3.17,7,7,0,0,1,.24-1.77,5.54,5.54,0,0,1,.71-1.67,4.31,4.31,0,0,1,1.17-1.27,2.69,2.69,0,0,1,1.64-.51,3.06,3.06,0,0,1,2.09.73,5.26,5.26,0,0,1,1.31,1.79,8.23,8.23,0,0,1,.68,2.23,12.58,12.58,0,0,1,.19,2.05,7.65,7.65,0,0,1-.64,3.2,9.83,9.83,0,0,1-1.76,2.61,16.74,16.74,0,0,1-2.55,2.21c-1,.69-2,1.35-3.05,2Zm7.81-9.68a3.81,3.81,0,0,0-.63-1.46,1.33,1.33,0,0,0-1.11-.6,1.3,1.3,0,0,0-.92.41,1.4,1.4,0,0,0-.41,1,.77.77,0,0,0,.48.76,2.36,2.36,0,0,0,1,.22,3.15,3.15,0,0,0,.87-.11A3.55,3.55,0,0,0,190.81,52.18Z"/><path class="cls-1" d="M201.38,55.72a2.45,2.45,0,0,1-.62-.44,11.19,11.19,0,0,1-.66,2.13,14.63,14.63,0,0,1-1.22,2.25,16.07,16.07,0,0,1-1.79,2.21,14.86,14.86,0,0,1-2.4,2l-2.88-2A14.77,14.77,0,0,0,194,60.54,14,14,0,0,0,196,58.77a11.17,11.17,0,0,0,1.55-2,3.9,3.9,0,0,0,.62-2A2,2,0,0,0,198,54c-.13-.27-.28-.55-.44-.82s-.34-.53-.51-.76-.31-.42-.41-.57l2.43-2.63c.24.36.45.72.65,1.08a7.12,7.12,0,0,0,.65,1,3.5,3.5,0,0,0,.76.69,1.73,1.73,0,0,0,1,.27v3.67A1.54,1.54,0,0,1,201.38,55.72Z"/><path class="cls-1" d="M208.38,59.89l-1.58,2.16-2.05-1.36-1.18,1.58-2.43-1.58,1.64-2.19,2.06,1.39L206,58.28Zm-7-7.4c0-.08.08-.14.24-.19a2,2,0,0,1,.49-.06H206c1.09,0,1.64-.25,1.64-.76a1,1,0,0,0-.06-.33,3.24,3.24,0,0,0-.25-.49q-.19-.31-.54-.78c-.23-.3-.55-.7-1-1.18l2.06-2.91A5.64,5.64,0,0,1,209.4,48a7.41,7.41,0,0,1,.56,2.81,5.68,5.68,0,0,1-.42,2.27,4.51,4.51,0,0,1-1.17,1.59,4.83,4.83,0,0,1-1.76,1,7.27,7.27,0,0,1-2.18.32h-2.28a2,2,0,0,1-.49-.06c-.16-.05-.24-.1-.24-.16Zm5.82,10.88-1.61,2.12L203.39,64l1.54-2.09Z"/><path class="cls-1" d="M224.83,66.35l-7.15,1.86-.22-1.13,7.09-2Z"/><path class="cls-1" d="M228.41,55.91a7.62,7.62,0,0,1-2.68,5.2,7.74,7.74,0,0,1-2.48,1.43,9,9,0,0,1-2.94.49,8.59,8.59,0,0,1-2.68-.43,6.59,6.59,0,0,1-2.24-1.27,6.07,6.07,0,0,1-1.54-2.07,6.85,6.85,0,0,1-.56-2.84,10.74,10.74,0,0,1,.39-2.87,19.34,19.34,0,0,1,1-2.8l2.4.86a18.3,18.3,0,0,0-.77,2,7.33,7.33,0,0,0-.33,2.2,5.49,5.49,0,0,0,.23,1.63,3.6,3.6,0,0,0,.75,1.34,3.71,3.71,0,0,0,1.32.92,5.2,5.2,0,0,0,2,.34,9,9,0,0,0,2.12-.26,6.32,6.32,0,0,0,1.85-.8,4.2,4.2,0,0,0,1.31-1.31,3.46,3.46,0,0,0,.54-1.8h-.25a16,16,0,0,1-2.16-.13,4.5,4.5,0,0,1-1.67-.52A2.65,2.65,0,0,1,221,54.12a4.29,4.29,0,0,1-.38-1.94,7.11,7.11,0,0,1,.22-1.62,6.08,6.08,0,0,1,.67-1.64,4.52,4.52,0,0,1,1.09-1.28,2.3,2.3,0,0,1,1.5-.52,3.06,3.06,0,0,1,1.76.52,4.76,4.76,0,0,1,1.29,1.28,6.82,6.82,0,0,1,.84,1.66,7.86,7.86,0,0,1,.41,1.66h1.74v3.67Zm-8-12.12L222,41.64l2,1.36,1.17-1.61L227.68,43l-1.62,2.15L224,43.79l-1.08,1.62Zm5.48,8.45a2.88,2.88,0,0,0-.62-1.6,1.55,1.55,0,0,0-1.22-.61,1.08,1.08,0,0,0-.88.41,1.34,1.34,0,0,0-.35.91.94.94,0,0,0,.12.53.81.81,0,0,0,.46.25,5.23,5.23,0,0,0,.94.09C224.76,52.24,225.27,52.24,225.91,52.24Z"/><path class="cls-1" d="M230.11,55.91a2,2,0,0,1-.49-.06c-.16-.05-.23-.1-.23-.16v-3.2c0-.08.07-.14.23-.19a2,2,0,0,1,.49-.06h3.17v3.67Z"/><path class="cls-1" d="M233.28,55.91a1.93,1.93,0,0,1-.49-.06c-.16-.05-.24-.1-.24-.16v-3.2c0-.08.08-.14.24-.19a1.93,1.93,0,0,1,.49-.06h3.16v3.67Z"/><path class="cls-1" d="M236.44,55.91a2,2,0,0,1-.49-.06c-.16-.05-.24-.1-.24-.16v-3.2c0-.08.08-.14.24-.19a2,2,0,0,1,.49-.06h3.16v3.67Z"/><path class="cls-1" d="M239.6,55.91a2,2,0,0,1-.49-.06c-.16-.05-.24-.1-.24-.16v-3.2c0-.08.08-.14.24-.19a2,2,0,0,1,.49-.06h3.17v3.67Z"/><path class="cls-1" d="M242.76,55.91a2.05,2.05,0,0,1-.49-.06c-.15-.05-.23-.1-.23-.16v-3.2c0-.08.08-.14.23-.19a2.05,2.05,0,0,1,.49-.06h3.17v3.67Z"/><path class="cls-1" d="M245.93,55.91a2,2,0,0,1-.49-.06c-.16-.05-.24-.1-.24-.16v-3.2c0-.08.08-.14.24-.19a2,2,0,0,1,.49-.06h3.16v3.67Z"/><path class="cls-1" d="M249.09,55.91a2,2,0,0,1-.49-.06c-.16-.05-.24-.1-.24-.16v-3.2c0-.08.08-.14.24-.19a2,2,0,0,1,.49-.06h3.16v3.67Z"/><path class="cls-1" d="M257.76,55.5a3.7,3.7,0,0,1-1.52-1.2,3.7,3.7,0,0,1-1.52,1.2,6.33,6.33,0,0,1-2.47.41,2.05,2.05,0,0,1-.49-.06c-.15-.05-.23-.1-.23-.16v-3.2c0-.08.08-.14.23-.19a2.05,2.05,0,0,1,.49-.06h.41a6.38,6.38,0,0,0,1.29-.11,1.36,1.36,0,0,0,.74-.4A1.4,1.4,0,0,0,255,51a7.2,7.2,0,0,0,0-1.19c0-.23,0-.78,0-1.64s0-1.87-.08-3-.07-2.33-.11-3.59-.08-2.39-.1-3.43l3.13-1.26V49.39a3.46,3.46,0,0,0,.56,2.14,2.16,2.16,0,0,0,1.82.71v3.67A6.33,6.33,0,0,1,257.76,55.5Z"/><path class="cls-1" d="M259.5,52.49c0-.08.08-.14.23-.19a2.07,2.07,0,0,1,.5-.06H263c.67,0,1.22,0,1.64,0A7.35,7.35,0,0,0,266,52a14.37,14.37,0,0,0,1.83-.57c.73-.26,1.73-.63,3-1.12-1.2-.34-2.13-.59-2.78-.76s-1.14-.3-1.46-.41a1.54,1.54,0,0,0-1.15.11,3.29,3.29,0,0,0-.9.74l-2.18-1.48A8.84,8.84,0,0,1,264.31,46a2.63,2.63,0,0,1,2.21-.55,20.5,20.5,0,0,1,2.15.44l2.22.6c.75.22,1.53.42,2.34.62s1.66.38,2.59.52c.42.05.84.08,1.25.1l1.22.06-1,3.61c-.51,0-.95-.07-1.33-.07a6.19,6.19,0,0,0-1.08.1,5.19,5.19,0,0,0-1,.3,10.5,10.5,0,0,0-1.18.58c-1.08.62-2,1.14-2.67,1.59a15.57,15.57,0,0,1-2.08,1.1,9.85,9.85,0,0,1-2.23.67,17.92,17.92,0,0,1-3.14.22h-2.34a2.07,2.07,0,0,1-.5-.06c-.15-.05-.23-.1-.23-.16ZM269,40.82l-1.9,2.53-2.63-1.77L266.36,39Z"/><path class="cls-1" d="M299.26,49.05a6.72,6.72,0,0,0-2.63-.38,3.77,3.77,0,0,0-1.2.2,5.07,5.07,0,0,0-1.15.54,3.74,3.74,0,0,0-.87.73,1.17,1.17,0,0,0-.35.8.57.57,0,0,0,.47.56,6.55,6.55,0,0,0,1.21.19l1.55.11a6.09,6.09,0,0,1,1.55.31,2.93,2.93,0,0,1,1.2.79,2.27,2.27,0,0,1,.47,1.52,5.73,5.73,0,0,1-.95,3.29,8.22,8.22,0,0,1-2.4,2.37A11.11,11.11,0,0,1,293,61.52a12.53,12.53,0,0,1-3.4.49,11.21,11.21,0,0,1-3.5-.49,6.79,6.79,0,0,1-2.48-1.36,5.61,5.61,0,0,1-1.47-2.07,6.71,6.71,0,0,1-.49-2.59A9.91,9.91,0,0,1,282,53a11.51,11.51,0,0,1,1.12-2.67l2.5.85a10.67,10.67,0,0,0-.74,1.74,5.56,5.56,0,0,0-.27,1.68,3.82,3.82,0,0,0,.3,1.52,3.11,3.11,0,0,0,1,1.22,5,5,0,0,0,1.69.82,8.77,8.77,0,0,0,2.45.3,11.66,11.66,0,0,0,2.18-.25,15.85,15.85,0,0,0,2.33-.67,8.4,8.4,0,0,0,1.85-.93c.5-.35.76-.69.76-1s-.12-.32-.37-.4a5.63,5.63,0,0,0-1-.17c-.43,0-.93-.08-1.48-.11s-1.16-.09-1.79-.17a2.43,2.43,0,0,1-1.6-.8,2.46,2.46,0,0,1-.52-1.64,6,6,0,0,1,.62-2.7,7.58,7.58,0,0,1,1.61-2.25,7.91,7.91,0,0,1,2.26-1.53,6.18,6.18,0,0,1,2.56-.57,5.06,5.06,0,0,1,2.66.72Z"/><path class="cls-1" d="M305.92,55.5l-3.23.85V38.13l3.23-1.26Z"/><path class="cls-1" d="M313.73,55.72a2.65,2.65,0,0,1-.62-.44,7.68,7.68,0,0,1-1.06,2.54,12.81,12.81,0,0,1-1.86,2.28,19.64,19.64,0,0,1-2.44,2c-.89.63-1.82,1.22-2.77,1.77l-2.69-2.09c.68-.33,1.49-.77,2.44-1.31a26.36,26.36,0,0,0,2.72-1.76,13.36,13.36,0,0,0,2.2-2,3,3,0,0,0,.9-2,1.86,1.86,0,0,0-.19-.79,8.19,8.19,0,0,0-.44-.82c-.17-.27-.34-.53-.51-.76l-.41-.57,2.44-2.63c.23.36.44.72.65,1.08a7.09,7.09,0,0,0,.64,1,3.74,3.74,0,0,0,.76.69,1.76,1.76,0,0,0,1,.27v3.67A1.54,1.54,0,0,1,313.73,55.72Z"/><path class="cls-1" d="M314.47,55.91a2,2,0,0,1-.49-.06c-.16-.05-.23-.1-.23-.16v-3.2c0-.08.07-.14.23-.19a2,2,0,0,1,.49-.06h3.17v3.67Z"/><path class="cls-1" d="M317.64,55.91a1.93,1.93,0,0,1-.49-.06c-.16-.05-.24-.1-.24-.16v-3.2c0-.08.08-.14.24-.19a1.93,1.93,0,0,1,.49-.06h3.16v3.67Z"/><path class="cls-1" d="M320.8,55.91a2,2,0,0,1-.49-.06c-.16-.05-.24-.1-.24-.16v-3.2c0-.08.08-.14.24-.19a2,2,0,0,1,.49-.06H324v3.67Z"/><path class="cls-1" d="M324,55.91a2,2,0,0,1-.49-.06c-.16-.05-.24-.1-.24-.16v-3.2c0-.08.08-.14.24-.19a2,2,0,0,1,.49-.06h3.16v3.67Z"/><path class="cls-1" d="M327.12,55.91a2.05,2.05,0,0,1-.49-.06c-.15-.05-.23-.1-.23-.16v-3.2c0-.08.08-.14.23-.19a2.05,2.05,0,0,1,.49-.06h3.17v3.67Z"/><path class="cls-1" d="M330.29,55.91a2,2,0,0,1-.49-.06c-.16-.05-.24-.1-.24-.16v-3.2c0-.08.08-.14.24-.19a2,2,0,0,1,.49-.06h3.16v3.67Z"/><path class="cls-1" d="M333.45,55.91a2,2,0,0,1-.49-.06c-.16-.05-.24-.1-.24-.16v-3.2c0-.08.08-.14.24-.19a2,2,0,0,1,.49-.06h3.16v3.67Z"/><path class="cls-1" d="M336.61,55.91a2,2,0,0,1-.49-.06c-.16-.05-.23-.1-.23-.16v-3.2c0-.08.07-.14.23-.19a2,2,0,0,1,.49-.06h3.17v3.67Z"/><path class="cls-1" d="M339.78,55.91a1.93,1.93,0,0,1-.49-.06c-.16-.05-.24-.1-.24-.16v-3.2c0-.08.08-.14.24-.19a1.93,1.93,0,0,1,.49-.06h3.16v3.67Z"/><path class="cls-1" d="M341.9,60.81l1.89-2.53,2.63,1.77-1.93,2.57Zm.31-8.32c0-.08.08-.14.24-.19a2,2,0,0,1,.49-.06H345c1.07,0,1.61-.25,1.61-.76a1,1,0,0,0-.06-.33,3.52,3.52,0,0,0-.26-.49,8.42,8.42,0,0,0-.53-.78l-.92-1.18,2.05-2.91A5.42,5.42,0,0,1,348.46,48a7.4,7.4,0,0,1,.55,2.81,5.68,5.68,0,0,1-.42,2.27,4.51,4.51,0,0,1-1.17,1.59,4.91,4.91,0,0,1-1.76,1,7.32,7.32,0,0,1-2.18.32h-.54a2,2,0,0,1-.49-.06c-.16-.05-.24-.1-.24-.16Z"/></svg>