<svg id="Layer_1" data-name="Layer 1" xmlns="http://www.w3.org/2000/svg" viewBox="0 0 350 31.94"><defs><style>.cls-1{fill:#231f20;}</style></defs><path class="cls-1" d="M16.44,20a2.52,2.52,0,0,1,.12,1.16,4.47,4.47,0,0,1-.35,1.19A6.67,6.67,0,0,1,14,24.88a10.61,10.61,0,0,1-3.27,1.51A11.49,11.49,0,0,1,7,26.75a9.1,9.1,0,0,1-3.47-.86A6.51,6.51,0,0,1,1,23.73a6,6,0,0,1-1-3.57,9.17,9.17,0,0,1,.43-2.84,13.72,13.72,0,0,1,1.1-2.54l2.52.9c-.26.57-.52,1.2-.76,1.89a5.73,5.73,0,0,0-.37,2,3.82,3.82,0,0,0,.5,2,3.3,3.3,0,0,0,1.33,1.21,5.27,5.27,0,0,0,1.88.51,9.32,9.32,0,0,0,2.11,0,12.12,12.12,0,0,0,2.07-.45,11.17,11.17,0,0,0,1.78-.71c.42-.22.64-.41.66-.55s-.06-.25-.26-.32L9.37,20a4.34,4.34,0,0,1,.21-.65c.1-.26.21-.52.32-.8s.22-.54.33-.8a3.35,3.35,0,0,1,.33-.61,2.36,2.36,0,0,1,.77-.8,2.48,2.48,0,0,1,1.13-.2h4.15V20Z"/><path class="cls-1" d="M37.7,20a4.65,4.65,0,0,1-2.14-.5,5.66,5.66,0,0,1-1.72-1.36,9.92,9.92,0,0,1-3.13,1.39,13.4,13.4,0,0,1-3.38.47H23.15a3.92,3.92,0,0,1-1.69-.4,2.24,2.24,0,0,1-1.17-1.33A3.47,3.47,0,0,1,17.2,20h-.59a2.25,2.25,0,0,1-.52-.07c-.16-.05-.25-.1-.25-.17V16.41c0-.09.09-.16.25-.2a1.81,1.81,0,0,1,.52-.07h.86c.93,0,1.4-.55,1.4-1.66V13.22l2.55-.73v.73a9.82,9.82,0,0,0,.1,1.48,2.56,2.56,0,0,0,.3.89,1.05,1.05,0,0,0,.52.44,2.48,2.48,0,0,0,.78.11h.2l2.14-2.41a31.07,31.07,0,0,1,2.36-2.37,13.9,13.9,0,0,1,2.47-1.81,5,5,0,0,1,2.49-.71,4.4,4.4,0,0,1,1.65.29,4,4,0,0,1,1.29.83,3.82,3.82,0,0,1,.85,1.23,3.87,3.87,0,0,1,.3,1.53,6.09,6.09,0,0,1-.24,1.76A5,5,0,0,1,36,15.84q.16.3,1.89.3h.43V20Zm-5.81-7.54a4.32,4.32,0,0,0-2.65,1c-.87.69-1.86,1.58-3,2.66h.93l.95,0c.43,0,.91-.06,1.43-.12a15.38,15.38,0,0,0,1.59-.25,11.63,11.63,0,0,0,1.5-.41,3.67,3.67,0,0,0,1.11-.63,1.18,1.18,0,0,0,.43-.92.84.84,0,0,0-.25-.64,1.75,1.75,0,0,0-.61-.4,4,4,0,0,0-.77-.22A4.71,4.71,0,0,0,31.89,12.46Z"/><path class="cls-1" d="M38.36,20a2.16,2.16,0,0,1-.51-.07c-.17-.05-.25-.1-.25-.17V16.41c0-.09.08-.16.25-.2a1.75,1.75,0,0,1,.51-.07h3.32V20Z"/><path class="cls-1" d="M41.68,20a2.16,2.16,0,0,1-.51-.07c-.17-.05-.25-.1-.25-.17V16.41c0-.09.08-.16.25-.2a1.75,1.75,0,0,1,.51-.07H45V20Z"/><path class="cls-1" d="M45,20a2.24,2.24,0,0,1-.51-.07c-.17-.05-.25-.1-.25-.17V16.41c0-.09.08-.16.25-.2a1.79,1.79,0,0,1,.51-.07h3.33V20Z"/><path class="cls-1" d="M48.33,20a2.25,2.25,0,0,1-.52-.07c-.17-.05-.25-.1-.25-.17V16.41c0-.09.08-.16.25-.2a1.81,1.81,0,0,1,.52-.07h3.32V20Z"/><path class="cls-1" d="M51.65,20a2.25,2.25,0,0,1-.52-.07c-.16-.05-.25-.1-.25-.17V16.41c0-.09.09-.16.25-.2a1.81,1.81,0,0,1,.52-.07H55V20Z"/><path class="cls-1" d="M55,20a2.25,2.25,0,0,1-.52-.07c-.16-.05-.25-.1-.25-.17V16.41c0-.09.09-.16.25-.2a1.81,1.81,0,0,1,.52-.07h3.32V20Z"/><path class="cls-1" d="M58.29,20a2.25,2.25,0,0,1-.52-.07c-.16-.05-.25-.1-.25-.17V16.41c0-.09.09-.16.25-.2a1.81,1.81,0,0,1,.52-.07h3.32V20Z"/><path class="cls-1" d="M61.61,20a2.09,2.09,0,0,1-.51-.07c-.17-.05-.25-.1-.25-.17V16.41c0-.09.08-.16.25-.2a1.7,1.7,0,0,1,.51-.07h3.32V20Z"/><path class="cls-1" d="M64.93,20a2.09,2.09,0,0,1-.51-.07c-.17-.05-.25-.1-.25-.17V16.41c0-.09.08-.16.25-.2a1.7,1.7,0,0,1,.51-.07h3.32V20Z"/><path class="cls-1" d="M89.34,20a4.68,4.68,0,0,1-2.14-.5,5.74,5.74,0,0,1-1.71-1.36,10,10,0,0,1-3.14,1.39A13.32,13.32,0,0,1,79,20H74.8a4,4,0,0,1-1.7-.4,2.26,2.26,0,0,1-1.16-1.33A3.47,3.47,0,0,1,68.85,20h-.6a2.16,2.16,0,0,1-.51-.07c-.17-.05-.25-.1-.25-.17V16.41c0-.09.08-.16.25-.2a1.75,1.75,0,0,1,.51-.07h.87c.93,0,1.39-.55,1.39-1.66V13.22l2.56-.73v.73a8.65,8.65,0,0,0,.1,1.48,2.2,2.2,0,0,0,.3.89A1,1,0,0,0,74,16a2.48,2.48,0,0,0,.78.11H75l2.14-2.41a33,33,0,0,1,2.36-2.37,14,14,0,0,1,2.48-1.81,5,5,0,0,1,2.49-.71,4.35,4.35,0,0,1,1.64.29,4.07,4.07,0,0,1,1.3.83,4,4,0,0,1,.84,1.23,3.87,3.87,0,0,1,.3,1.53,6.1,6.1,0,0,1-.23,1.76,4.74,4.74,0,0,1-.6,1.36c.11.2.74.3,1.9.3H90V20Zm-5.81-7.54a4.27,4.27,0,0,0-2.64,1,38.43,38.43,0,0,0-3,2.66h.93l.94,0c.44,0,.91-.06,1.43-.12a16,16,0,0,0,1.6-.25,11,11,0,0,0,1.49-.41,3.55,3.55,0,0,0,1.11-.63,1.19,1.19,0,0,0,.44-.92.88.88,0,0,0-.25-.64,1.79,1.79,0,0,0-.62-.4,3.9,3.9,0,0,0-.76-.22A4.83,4.83,0,0,0,83.53,12.46Z"/><path class="cls-1" d="M107.15,20c-2.53,0-3.82-1.59-3.89-4.75a17.11,17.11,0,0,0-2.11,1.44A25.54,25.54,0,0,1,99,18.23a12.94,12.94,0,0,1-2.43,1.25,8.25,8.25,0,0,1-3,.52H90a2.25,2.25,0,0,1-.52-.07c-.16-.05-.25-.1-.25-.17V16.41c0-.09.09-.16.25-.2a1.81,1.81,0,0,1,.52-.07H93.1a10.23,10.23,0,0,0,2.12-.21,12.33,12.33,0,0,0,1.93-.59A16,16,0,0,0,99,14.48c.61-.33,1.24-.7,1.88-1.09l-1.3-.24c-.46-.09-.91-.16-1.34-.23l-1.16-.18a5.11,5.11,0,0,0-.75-.09,1.15,1.15,0,0,0-.78.35,4.65,4.65,0,0,0-.78,1L92.3,12.82Q93.83,9,95.85,9A11.47,11.47,0,0,1,98,9.23l2.82.6c1,.22,2.08.42,3.17.6a19.87,19.87,0,0,0,3.21.27,13.46,13.46,0,0,0,1.49-.1l-.43,3.68a9.14,9.14,0,0,0-3,.43c.14.65.39,1,.77,1.2a4.66,4.66,0,0,0,1.66.23h2.52V20ZM101.37,4.35,99.37,7,96.62,5.15l2-2.69Z"/><path class="cls-1" d="M109.44,16.41c0-.09.08-.16.25-.2a1.7,1.7,0,0,1,.51-.07h2.19c1.13,0,1.7-.26,1.7-.8A.86.86,0,0,0,114,15a2.74,2.74,0,0,0-.26-.52q-.21-.33-.57-.81c-.24-.32-.56-.74-1-1.25l2.16-3.05A5.81,5.81,0,0,1,116,11.66a7.91,7.91,0,0,1,.58,2.95,5.84,5.84,0,0,1-.45,2.38,4.76,4.76,0,0,1-1.23,1.68,5.18,5.18,0,0,1-1.84,1,7.73,7.73,0,0,1-2.29.34h-.57a2.09,2.09,0,0,1-.51-.07c-.17-.05-.25-.1-.25-.17Zm.23-10.2L111.33,4l2.16,1.43,1.23-1.69,2.56,1.69-1.7,2.26-2.19-1.43L112.26,7.9Z"/><path class="cls-1" d="M143.42,12.79a7.11,7.11,0,0,0-2.76-.4,4.15,4.15,0,0,0-1.26.21,5.7,5.7,0,0,0-1.22.57,4.37,4.37,0,0,0-.91.76,1.3,1.3,0,0,0-.36.85.58.58,0,0,0,.49.58,5.73,5.73,0,0,0,1.27.2l1.62.12a6.13,6.13,0,0,1,1.63.33,2.9,2.9,0,0,1,1.26.83,2.35,2.35,0,0,1,.5,1.59,6.06,6.06,0,0,1-1,3.46,8.79,8.79,0,0,1-2.52,2.49,12.1,12.1,0,0,1-3.37,1.51,13.4,13.4,0,0,1-3.57.52,11.9,11.9,0,0,1-3.67-.52,7.27,7.27,0,0,1-2.61-1.43,5.72,5.72,0,0,1-1.54-2.17,7,7,0,0,1-.52-2.73,10.42,10.42,0,0,1,.38-2.67,12.29,12.29,0,0,1,1.18-2.81l2.63.9a9.48,9.48,0,0,0-.78,1.83,5.74,5.74,0,0,0-.29,1.76,4,4,0,0,0,.32,1.59,3.32,3.32,0,0,0,1,1.28,5.18,5.18,0,0,0,1.78.86,9.25,9.25,0,0,0,2.57.32,11.47,11.47,0,0,0,2.3-.27,16.46,16.46,0,0,0,2.44-.69,9.47,9.47,0,0,0,1.94-1c.53-.37.8-.73.8-1.08s-.13-.34-.39-.42a5.08,5.08,0,0,0-1.06-.18c-.45-.05-1-.08-1.56-.12s-1.21-.09-1.88-.18a2.54,2.54,0,0,1-1.67-.83,2.6,2.6,0,0,1-.55-1.73,6.39,6.39,0,0,1,.65-2.84,8.28,8.28,0,0,1,1.69-2.36,8.4,8.4,0,0,1,2.38-1.61,6.44,6.44,0,0,1,2.69-.59,5.64,5.64,0,0,1,1.42.18,5.08,5.08,0,0,1,1.37.58Z"/><path class="cls-1" d="M150.21,19.45a4.1,4.1,0,0,1-1.63-1.51,6.51,6.51,0,0,1-.8-2.3,20.89,20.89,0,0,1-.25-2.89c0-.48,0-1.18-.06-2.09s-.05-1.89-.07-2.95-.05-2.16-.08-3.28-.06-2.15-.09-3.1L150.49,0V13.15a3.5,3.5,0,0,0,.6,2.24,2.31,2.31,0,0,0,1.92.75V20A6.11,6.11,0,0,1,150.21,19.45Z"/><path class="cls-1" d="M152.25,16.41c0-.09.08-.16.25-.2a1.75,1.75,0,0,1,.51-.07h2.86a3,3,0,0,1-.6-1.69,4.09,4.09,0,0,1,.72-2.24,6.94,6.94,0,0,1,1.67-1.85l-.73-.46,1.6-3.46c.66.47,1.5,1.08,2.5,1.83A28.44,28.44,0,0,1,164,10.78a17.93,17.93,0,0,1,2.42,2.89,5.53,5.53,0,0,1,1.05,3,8.41,8.41,0,0,1-.23,2,5.15,5.15,0,0,1-.65,1.53,2.55,2.55,0,0,1-1,.89,1.41,1.41,0,0,1-1.14.09,18.34,18.34,0,0,1-2.31-.8,27.8,27.8,0,0,1-2.54-1.2,8.14,8.14,0,0,1-2.09.65,11.37,11.37,0,0,1-1.83.19H153a2.16,2.16,0,0,1-.51-.07c-.17-.05-.25-.1-.25-.17Zm6.14-1.16c.25.17.57.37,1,.59a2.28,2.28,0,0,0,1.24-.93,2.22,2.22,0,0,0,.35-1.16,1.13,1.13,0,0,0-.16-.58,3.42,3.42,0,0,0-.4-.52,2,2,0,0,0-.52-.36,1,1,0,0,0-1.08.05,2.69,2.69,0,0,0-.56.46,2.66,2.66,0,0,0-.43.6,1.14,1.14,0,0,0-.17.55,2.37,2.37,0,0,0,.1.55A1.49,1.49,0,0,0,158.39,15.25Zm4.85,0a4.52,4.52,0,0,1-.45,1.16,7.28,7.28,0,0,1-.64,1,7.43,7.43,0,0,0,.81.37l.78.33a6.91,6.91,0,0,0,.73.23c.18.05.33-.08.47-.39a2.09,2.09,0,0,0-.24-1.88,7.52,7.52,0,0,0-1.39-1.61A2.55,2.55,0,0,1,163.24,15.28Z"/><path class="cls-1" d="M185.73,20a3.13,3.13,0,0,1-2.79-1.4,7,7,0,0,1-.93-3.92,18,18,0,0,0-5,2.67,11.28,11.28,0,0,0-2.91,3.24,5.17,5.17,0,0,0-.71,3.22A3.87,3.87,0,0,0,175,26.46a8.62,8.62,0,0,0,4.07,1.44,22.38,22.38,0,0,0,6.64-.33l1.13,3.32a17.88,17.88,0,0,1-3.39.85,17.5,17.5,0,0,1-3.69.16,16.85,16.85,0,0,1-3.58-.61,9.57,9.57,0,0,1-3.06-1.48,7.1,7.1,0,0,1-2.92-6,8.34,8.34,0,0,1,.71-3.44,10.63,10.63,0,0,1,1.88-2.84,15.36,15.36,0,0,1,2.61-2.26,19.86,19.86,0,0,1,2.94-1.69l-2.31-.27c-.59-.06-1-.1-1.25-.1q-.69,0-1.56,1.23l-2.49-1.16a9.71,9.71,0,0,1,1.63-2.89,2.83,2.83,0,0,1,2.22-1,16.22,16.22,0,0,1,1.73.11l2.17.27c.81.1,1.72.19,2.71.26s2.12.12,3.36.12c.44,0,.88,0,1.31-.05s.86-.07,1.28-.12L186.69,14a25.74,25.74,0,0,0-2.72.2,1.94,1.94,0,0,0,.6,1.53,2.66,2.66,0,0,0,1.72.46h2.43V20ZM179.58,4.82l-2,2.65-2.76-1.86,2-2.69Z"/><path class="cls-1" d="M188.72,20a2.25,2.25,0,0,1-.52-.07c-.16-.05-.25-.1-.25-.17V16.41c0-.09.09-.16.25-.2a1.81,1.81,0,0,1,.52-.07H192V20Z"/><path class="cls-1" d="M192,20a2.25,2.25,0,0,1-.52-.07c-.16-.05-.24-.1-.24-.17V16.41c0-.09.08-.16.24-.2a1.81,1.81,0,0,1,.52-.07h3.32V20Z"/><path class="cls-1" d="M195.36,20a2.09,2.09,0,0,1-.51-.07c-.17-.05-.25-.1-.25-.17V16.41c0-.09.08-.16.25-.2a1.7,1.7,0,0,1,.51-.07h3.32V20Z"/><path class="cls-1" d="M198.68,20a2.09,2.09,0,0,1-.51-.07c-.17-.05-.25-.1-.25-.17V16.41c0-.09.08-.16.25-.2a1.7,1.7,0,0,1,.51-.07H202V20Z"/><path class="cls-1" d="M202,20a2.16,2.16,0,0,1-.51-.07c-.17-.05-.25-.1-.25-.17V16.41c0-.09.08-.16.25-.2a1.75,1.75,0,0,1,.51-.07h3.32V20Z"/><path class="cls-1" d="M205.32,20a2.16,2.16,0,0,1-.51-.07c-.17-.05-.25-.1-.25-.17V16.41c0-.09.08-.16.25-.2a1.75,1.75,0,0,1,.51-.07h3.32V20Z"/><path class="cls-1" d="M207.88,16.41c0-.09.08-.16.25-.2a1.79,1.79,0,0,1,.51-.07H209a2.22,2.22,0,0,0,1.49-.5,1.73,1.73,0,0,0,.6-1.42v-1l2.32-.79v1a3.75,3.75,0,0,0,.44,1.95,1.41,1.41,0,0,0,1.29.71c1.55,0,2.33-.7,2.33-2.09V12.79l2.35-.7v1.66a2.56,2.56,0,0,0,.67,1.79,2.18,2.18,0,0,0,1.69.74,1.38,1.38,0,0,0,1.08-.37,1.36,1.36,0,0,0,.32-.93,2.86,2.86,0,0,0-.33-1.31,3.5,3.5,0,0,0-.77-1l2.29-2.59a6.51,6.51,0,0,1,1.15,2.1,7.65,7.65,0,0,1,.12,4.36,6.12,6.12,0,0,1-.78,1.76,4.14,4.14,0,0,1-1.3,1.27,3.32,3.32,0,0,1-1.78.48,5,5,0,0,1-2.24-.48,3.08,3.08,0,0,1-1.44-1.41,3.16,3.16,0,0,1-1.27,1.34,3.7,3.7,0,0,1-1.69.52,4.1,4.1,0,0,1-1.91-.44,3.2,3.2,0,0,1-1.34-1.29,3.18,3.18,0,0,1-1.6,1.33,5.72,5.72,0,0,1-2,.4,2.24,2.24,0,0,1-.51-.07c-.17-.05-.25-.1-.25-.17Z"/><path class="cls-1" d="M232.38,19.45a4.1,4.1,0,0,1-1.63-1.51,6.51,6.51,0,0,1-.8-2.3,20.89,20.89,0,0,1-.25-2.89c0-.48,0-1.18-.06-2.09s0-1.89-.07-2.95,0-2.16-.08-3.28-.06-2.15-.09-3.1L232.66,0V13.15a3.5,3.5,0,0,0,.6,2.24,2.3,2.3,0,0,0,1.92.75V20A6.11,6.11,0,0,1,232.38,19.45Z"/><path class="cls-1" d="M239.8,24.18l-1.66,2.26L236,25l-1.23,1.66L232.19,25l1.73-2.29,2.16,1.46,1.19-1.69Zm-5.38-7.77c0-.09.08-.16.25-.2a1.75,1.75,0,0,1,.51-.07h2.19c1.13,0,1.7-.26,1.7-.8A.86.86,0,0,0,239,15a2.74,2.74,0,0,0-.26-.52q-.21-.33-.57-.81c-.24-.32-.56-.74-1-1.25l2.16-3.05A5.81,5.81,0,0,1,241,11.66a7.72,7.72,0,0,1,.58,2.95,5.84,5.84,0,0,1-.45,2.38,4.76,4.76,0,0,1-1.23,1.68,5.18,5.18,0,0,1-1.84,1,7.68,7.68,0,0,1-2.29.34h-.57a2.16,2.16,0,0,1-.51-.07c-.17-.05-.25-.1-.25-.17Zm4.18,11.42-1.69,2.23-2.36-1.6,1.63-2.19Z"/><path class="cls-1" d="M247.74,26.17c.71-.35,1.54-.81,2.5-1.36A30.81,30.81,0,0,0,253,23a15,15,0,0,0,2.31-2,3.41,3.41,0,0,0,1-2,3.91,3.91,0,0,1-1,.38,5.3,5.3,0,0,1-1.23.15,3.53,3.53,0,0,1-2.77-.93,3.51,3.51,0,0,1-.81-2.39,7.22,7.22,0,0,1,.25-1.86,6.13,6.13,0,0,1,.74-1.76,4.61,4.61,0,0,1,1.23-1.33,2.89,2.89,0,0,1,1.73-.53,3.19,3.19,0,0,1,2.19.76,5.56,5.56,0,0,1,1.38,1.88,8.93,8.93,0,0,1,.71,2.34,12.92,12.92,0,0,1,.2,2.16,7.87,7.87,0,0,1-.68,3.35A10.14,10.14,0,0,1,256.44,24a18,18,0,0,1-2.68,2.33c-1,.72-2.07,1.41-3.2,2.08Zm8.33-10.09a4,4,0,0,0-.66-1.53,1.4,1.4,0,0,0-1.16-.63,1.33,1.33,0,0,0-1,.43,1.47,1.47,0,0,0-.43,1.06.82.82,0,0,0,.5.8,2.64,2.64,0,0,0,1.1.23,3.5,3.5,0,0,0,.91-.12A3.62,3.62,0,0,0,256.07,16.08Z"/><path class="cls-1" d="M297.49,20a4.18,4.18,0,0,1-1.86-.39,2.85,2.85,0,0,1-1.29-1.34A4,4,0,0,1,293,19.53a3.4,3.4,0,0,1-1.66.43,3,3,0,0,1-1.48-.4,3.36,3.36,0,0,1-1.24-1.29A3.7,3.7,0,0,1,285.3,20a2.65,2.65,0,0,1-1.49-.43,8.85,8.85,0,0,1-.78,3.14,8.31,8.31,0,0,1-1.85,2.57A8.77,8.77,0,0,1,278.39,27a9.81,9.81,0,0,1-3.65.64,8.88,8.88,0,0,1-3.34-.56,6.24,6.24,0,0,1-2.32-1.56,6.5,6.5,0,0,1-1.37-2.33,9,9,0,0,1-.44-2.82,10.45,10.45,0,0,1,.33-2.59,9.11,9.11,0,0,1,1-2.46l2.46.87a10.66,10.66,0,0,0-.67,1.72,6.39,6.39,0,0,0-.23,1.66,4.7,4.7,0,0,0,.28,1.66,3.59,3.59,0,0,0,.86,1.33,4.11,4.11,0,0,0,1.48.9,6.29,6.29,0,0,0,2.16.33,7.4,7.4,0,0,0,2.41-.36,5.07,5.07,0,0,0,1.74-1,3.94,3.94,0,0,0,1.05-1.48,4.74,4.74,0,0,0,.35-1.81,6.81,6.81,0,0,0-.35-2.07,8.18,8.18,0,0,0-1.08-2.15l2.79-2.29a12.13,12.13,0,0,0,.75,1.3,11.85,11.85,0,0,0,.84,1.13,4.82,4.82,0,0,0,.88.79,1.65,1.65,0,0,0,.92.3,2.32,2.32,0,0,0,1.53-.4,1.56,1.56,0,0,0,.46-1.26V13.32l2.33-.83v1.13a3.3,3.3,0,0,0,.44,1.94,1.92,1.92,0,0,0,1.61.58,1.9,1.9,0,0,0,1.35-.45,1.57,1.57,0,0,0,.48-1.21V13.32l2.36-.83v1.39q0,.6,0,1a1.7,1.7,0,0,0,.2.69,1,1,0,0,0,.53.42,3.15,3.15,0,0,0,1,.13h.5V20ZM284.6,8.93l1.66-2.25,2.16,1.42,1.23-1.69,2.53,1.69-1.66,2.26-2.2-1.43-1.16,1.7Zm1.23-3.68,1.7-2.19,2.32,1.56-1.63,2.19Z"/><path class="cls-1" d="M298.12,20a2.09,2.09,0,0,1-.51-.07c-.17-.05-.25-.1-.25-.17V16.41c0-.09.08-.16.25-.2a1.7,1.7,0,0,1,.51-.07h3.32V20Z"/><path class="cls-1" d="M301.44,20a2.16,2.16,0,0,1-.51-.07c-.17-.05-.25-.1-.25-.17V16.41c0-.09.08-.16.25-.2a1.75,1.75,0,0,1,.51-.07h3.32V20Z"/><path class="cls-1" d="M304.76,20a2.16,2.16,0,0,1-.51-.07c-.17-.05-.25-.1-.25-.17V16.41c0-.09.08-.16.25-.2a1.75,1.75,0,0,1,.51-.07h3.33V20Z"/><path class="cls-1" d="M308.08,20a2.24,2.24,0,0,1-.51-.07c-.17-.05-.25-.1-.25-.17V16.41c0-.09.08-.16.25-.2a1.79,1.79,0,0,1,.51-.07h3.33V20Z"/><path class="cls-1" d="M311.41,20a2.25,2.25,0,0,1-.52-.07c-.16-.05-.25-.1-.25-.17V16.41c0-.09.09-.16.25-.2a1.81,1.81,0,0,1,.52-.07h3.32V20Z"/><path class="cls-1" d="M314,16.41c0-.09.09-.16.25-.2a1.81,1.81,0,0,1,.52-.07h.33a2.19,2.19,0,0,0,1.49-.5,1.73,1.73,0,0,0,.6-1.42v-1l2.33-.79v1a3.76,3.76,0,0,0,.43,1.95,1.42,1.42,0,0,0,1.29.71c1.55,0,2.33-.7,2.33-2.09V12.79l2.36-.7v1.66a2.55,2.55,0,0,0,.66,1.79,2.19,2.19,0,0,0,1.7.74,1.21,1.21,0,0,0,1.39-1.3,2.86,2.86,0,0,0-.33-1.31,3.33,3.33,0,0,0-.77-1l2.3-2.59a6.3,6.3,0,0,1,1.14,2.1,7.65,7.65,0,0,1,.12,4.36,6.12,6.12,0,0,1-.78,1.76,4.14,4.14,0,0,1-1.3,1.27,3.31,3.31,0,0,1-1.77.48,5.06,5.06,0,0,1-2.25-.48,3.08,3.08,0,0,1-1.44-1.41,3.19,3.19,0,0,1-1.26,1.34,3.77,3.77,0,0,1-1.7.52,4.13,4.13,0,0,1-1.91-.44,3.2,3.2,0,0,1-1.34-1.29,3.18,3.18,0,0,1-1.6,1.33,5.67,5.67,0,0,1-2,.4,2.25,2.25,0,0,1-.52-.07c-.16-.05-.25-.1-.25-.17Z"/><path class="cls-1" d="M341,19.8a2.65,2.65,0,0,1-.64-.47A8.17,8.17,0,0,1,339.22,22a13,13,0,0,1-2,2.4,21.67,21.67,0,0,1-2.55,2.11c-.95.66-1.91,1.28-2.91,1.86L329,26.17c.7-.35,1.56-.81,2.55-1.38A27.33,27.33,0,0,0,334.39,23a14.29,14.29,0,0,0,2.31-2.06,3.15,3.15,0,0,0,.94-2.06,2,2,0,0,0-.19-.83,9.13,9.13,0,0,0-.47-.86c-.18-.29-.35-.55-.53-.8s-.32-.44-.43-.6L338.57,13c.25.37.47.75.69,1.13a6.85,6.85,0,0,0,.68,1,3.59,3.59,0,0,0,.79.73,1.83,1.83,0,0,0,1,.28V20A1.74,1.74,0,0,1,341,19.8Z"/><path class="cls-1" d="M348.34,24.18l-1.66,2.26L344.52,25l-1.23,1.66L340.73,25l1.73-2.29,2.16,1.46,1.19-1.69ZM341,16.41c0-.09.09-.16.25-.2a1.81,1.81,0,0,1,.52-.07h4c1.15,0,1.73-.26,1.73-.8a.86.86,0,0,0-.07-.34,2.74,2.74,0,0,0-.26-.52c-.14-.22-.32-.49-.57-.81s-.57-.74-1-1.25l2.15-3.05a5.85,5.85,0,0,1,1.63,2.29,7.55,7.55,0,0,1,.6,2.95,5.84,5.84,0,0,1-.45,2.38,4.76,4.76,0,0,1-1.23,1.68,5.18,5.18,0,0,1-1.84,1,7.68,7.68,0,0,1-2.29.34H341.8a2.25,2.25,0,0,1-.52-.07c-.16-.05-.25-.1-.25-.17Zm6.11,11.42-1.69,2.23-2.36-1.6,1.63-2.19Z"/></svg>