<svg id="Layer_1" data-name="Layer 1" xmlns="http://www.w3.org/2000/svg" viewBox="0 0 350 35.7"><defs><style>.cls-1{fill:#231f20;}</style></defs><path class="cls-1" d="M8.69,18.35a5.26,5.26,0,0,1-.38,2,4.29,4.29,0,0,1-1,1.49,4.56,4.56,0,0,1-1.5.93A5,5,0,0,1,4,23.14a4.43,4.43,0,0,1-2.91-.88A3.1,3.1,0,0,1,0,19.72a10.07,10.07,0,0,1,1.82-4.88l-.68-.33,1.72-3A21.78,21.78,0,0,1,5.08,12.8a11.59,11.59,0,0,1,1.83,1.53,6.77,6.77,0,0,1,1.27,1.83A5.26,5.26,0,0,1,8.69,18.35Zm-2.54.23c0-1-.8-1.86-2.41-2.67a7.85,7.85,0,0,0-.83,1.26,2.66,2.66,0,0,0-.37,1.25,1.19,1.19,0,0,0,.36.88,1.64,1.64,0,0,0,1.2.35,3.93,3.93,0,0,0,.65-.06,2.89,2.89,0,0,0,.67-.2,1.56,1.56,0,0,0,.52-.34A.66.66,0,0,0,6.15,18.58Z"/><path class="cls-1" d="M14.66,22.34a4,4,0,0,1-1.6-1.48,6.23,6.23,0,0,1-.78-2.25A20.2,20.2,0,0,1,12,15.78c0-.47,0-1.16-.07-2s0-1.85-.06-2.89-.05-2.11-.08-3.21-.06-2.11-.08-3l3.19-1.3V16.17a3.48,3.48,0,0,0,.58,2.2,2.27,2.27,0,0,0,1.89.73v3.78A5.92,5.92,0,0,1,14.66,22.34Z"/><path class="cls-1" d="M31.4,22.88a5.9,5.9,0,0,1-2-.36,8.3,8.3,0,0,1-1.85-.95,10.41,10.41,0,0,1-1.63-1.33,14.26,14.26,0,0,1-1.33-1.53,4.09,4.09,0,0,1-2.12,3.12,10.09,10.09,0,0,1-5,1.05,2.24,2.24,0,0,1-.51-.07c-.16,0-.24-.1-.24-.16V19.36c0-.08.08-.15.24-.19a1.79,1.79,0,0,1,.51-.07h1.32a10.72,10.72,0,0,0,1.7-.13,4.89,4.89,0,0,0,1.47-.44,1,1,0,0,0,.62-.93A2.35,2.35,0,0,0,22,16.3a12.48,12.48,0,0,0-1.31-1.51c-.51-.51-1-1-1.55-1.46s-.93-.86-1.24-1.16c-.08-.09-.19-.2-.3-.34a.79.79,0,0,1-.12-.64,8,8,0,0,1,.12-.86,7.76,7.76,0,0,1,.19-.89A4.94,4.94,0,0,1,18,8.67a.86.86,0,0,1,.39-.44,51.77,51.77,0,0,1,5.77-2.45q3.57-1.32,8.55-2.88l-.43,3.67C30,7.12,27.79,7.69,25.85,8.3s-3.72,1.22-5.35,1.85c-.41.15-.47.34-.16.56.93.71,1.84,1.46,2.71,2.24s1.75,1.6,2.59,2.44c.48.48.95.94,1.42,1.38A10.14,10.14,0,0,0,28.52,18a7,7,0,0,0,1.61.83A5.3,5.3,0,0,0,32,19.1h1.49v3.78Zm.65-21-5.9,1.92c-1.58.52-2.87,1-3.88,1.32S20.49,5.77,20,6s-1,.4-1.27.55l.42-1.79c1.06-.5,2.69-1.14,4.87-1.92s5-1.72,8.31-2.83Z"/><path class="cls-1" d="M32.74,19.36c0-.08.08-.15.24-.19a1.68,1.68,0,0,1,.5-.07h2.15c1.11,0,1.66-.26,1.66-.78a1.06,1.06,0,0,0-.06-.34,4.12,4.12,0,0,0-.26-.51,9.68,9.68,0,0,0-.56-.79l-.94-1.22,2.11-3a5.65,5.65,0,0,1,1.58,2.25,7.6,7.6,0,0,1,.57,2.89,5.76,5.76,0,0,1-.44,2.33,4.45,4.45,0,0,1-1.2,1.64,5,5,0,0,1-1.81,1,7.35,7.35,0,0,1-2.24.33h-.56a2.08,2.08,0,0,1-.5-.07c-.16,0-.24-.1-.24-.16ZM38.66,8.43l-2,2.6L34,9.21l2-2.64Z"/><path class="cls-1" d="M75.72,22.88a5.91,5.91,0,0,1-2.13-.39,9.26,9.26,0,0,1-1.92-1A10.07,10.07,0,0,1,70,20.06a14.37,14.37,0,0,1-1.34-1.64,3.78,3.78,0,0,1-.7,2.11A5.33,5.33,0,0,1,66.4,22a9.19,9.19,0,0,1-2.18.94,17.7,17.7,0,0,1-2.48.54c-.83.12-1.63.19-2.4.23s-1.45,0-2,0q-9.44,0-9.43-5.53a9.63,9.63,0,0,1,1.2-4.1l2.41.72a6.42,6.42,0,0,0-.72,2.21,2,2,0,0,0,.43,1.34,3.41,3.41,0,0,0,1.07.86,5.37,5.37,0,0,0,1.48.5A11.77,11.77,0,0,0,55.4,20c.55,0,1.07.05,1.54.05h1.21l1.35,0c.55,0,1.14-.06,1.76-.11a18.59,18.59,0,0,0,1.88-.28,13,13,0,0,0,1.73-.47,4,4,0,0,0,1.25-.7,1.38,1.38,0,0,0,.52-1,1.86,1.86,0,0,0-.37-1,7.86,7.86,0,0,0-1-1.14c-.39-.39-.81-.79-1.25-1.19s-.86-.78-1.23-1.15a9.88,9.88,0,0,1-.74-.88,1.43,1.43,0,0,1-.2-1,6.78,6.78,0,0,1,.12-.8,6.73,6.73,0,0,1,.19-.83,4.2,4.2,0,0,1,.28-.71.93.93,0,0,1,.35-.43,51.52,51.52,0,0,1,5.83-2.49q3.59-1.3,8.53-2.84l-.43,3.61c-2,.5-4,1-6,1.61a58,58,0,0,0-5.81,2,.53.53,0,0,0-.31.21c0,.1,0,.22.18.35.82.63,1.66,1.33,2.52,2.11s1.78,1.64,2.75,2.57l1.43,1.35A13.22,13.22,0,0,0,73,17.93a7.61,7.61,0,0,0,1.59.85,5.3,5.3,0,0,0,1.86.32h1.49v3.78Z"/><path class="cls-1" d="M82.55,27l-1.62,2.21-2.12-1.4-1.2,1.63-2.54-1.63,1.72-2.25L78.91,27l1.17-1.66Zm-5.36-7.62c0-.08.08-.15.24-.19a1.68,1.68,0,0,1,.5-.07h2.15c1.11,0,1.66-.26,1.66-.78a1.06,1.06,0,0,0-.06-.34,4.12,4.12,0,0,0-.26-.51,9.68,9.68,0,0,0-.56-.79l-.94-1.22,2.11-3a5.65,5.65,0,0,1,1.58,2.25,7.6,7.6,0,0,1,.57,2.89,5.6,5.6,0,0,1-.44,2.33,4.45,4.45,0,0,1-1.2,1.64,5,5,0,0,1-1.81,1,7.35,7.35,0,0,1-2.24.33h-.56a2.08,2.08,0,0,1-.5-.07c-.16,0-.24-.1-.24-.16Z"/><path class="cls-1" d="M104.29,33.78,96.94,35.7l-.23-1.17L104,32.48Z"/><path class="cls-1" d="M121.93,22.88a4.14,4.14,0,0,1-1.82-.38,2.81,2.81,0,0,1-1.27-1.32,3.76,3.76,0,0,1-1.34,1.24,3.37,3.37,0,0,1-1.62.42,2.92,2.92,0,0,1-1.45-.39,3.26,3.26,0,0,1-1.22-1.27A3.62,3.62,0,0,1,110,22.84a2.66,2.66,0,0,1-1.47-.42,8.51,8.51,0,0,1-.76,3.08A8.26,8.26,0,0,1,106,28a8.79,8.79,0,0,1-2.73,1.71,9.71,9.71,0,0,1-3.58.63,8.75,8.75,0,0,1-3.27-.55A6,6,0,0,1,92.76,26a8.42,8.42,0,0,1-.44-2.77,10,10,0,0,1,.32-2.53,8.93,8.93,0,0,1,1-2.41l2.41.84a10.31,10.31,0,0,0-.65,1.7,6,6,0,0,0-.23,1.62,4.54,4.54,0,0,0,.28,1.63,3.39,3.39,0,0,0,.84,1.3,4.08,4.08,0,0,0,1.45.88,6.05,6.05,0,0,0,2.12.33,7.14,7.14,0,0,0,2.36-.36,4.94,4.94,0,0,0,1.7-1,3.89,3.89,0,0,0,1-1.45A4.54,4.54,0,0,0,105.3,22a6.5,6.5,0,0,0-.34-2,8,8,0,0,0-1.06-2.1l2.73-2.25a12.36,12.36,0,0,0,.74,1.27A10,10,0,0,0,108.2,18a4.71,4.71,0,0,0,.86.78,1.62,1.62,0,0,0,.89.29,2.29,2.29,0,0,0,1.5-.39,1.56,1.56,0,0,0,.46-1.24V16.34l2.27-.82v1.11a3.18,3.18,0,0,0,.44,1.9,1.9,1.9,0,0,0,1.58.57,1.83,1.83,0,0,0,1.32-.44,1.56,1.56,0,0,0,.47-1.19V16.34l2.31-.82v1.37q0,.59,0,1a1.65,1.65,0,0,0,.2.68,1,1,0,0,0,.52.41,3,3,0,0,0,1,.13h.49v3.78Z"/><path class="cls-1" d="M121.8,19.36c0-.08.08-.15.24-.19a1.7,1.7,0,0,1,.51-.07h2.86c.69,0,1.26,0,1.69,0a7.75,7.75,0,0,0,1.42-.21,18.05,18.05,0,0,0,1.89-.59c.74-.27,1.77-.65,3.07-1.15-1.24-.35-2.19-.61-2.86-.78s-1.17-.32-1.5-.43a1.59,1.59,0,0,0-1.19.12,3.62,3.62,0,0,0-.93.76l-2.24-1.53a9.16,9.16,0,0,1,2-2.55,2.72,2.72,0,0,1,2.28-.57,21.11,21.11,0,0,1,2.21.45l2.28.62c.78.22,1.59.43,2.41.64s1.71.38,2.67.53c.43,0,.86.08,1.28.1l1.26.07-1,3.71c-.52-.05-1-.07-1.37-.07a5.71,5.71,0,0,0-2.16.41,9,9,0,0,0-1.22.6c-1.11.63-2,1.17-2.75,1.63A18.61,18.61,0,0,1,130.49,22a10.47,10.47,0,0,1-2.3.68,18.8,18.8,0,0,1-3.24.23h-2.4a2.09,2.09,0,0,1-.51-.07c-.16,0-.24-.1-.24-.16Z"/><path class="cls-1" d="M161.27,33.13l-7.35,1.92-.23-1.17L161,31.83Z"/><path class="cls-1" d="M157.17,25.94a10.34,10.34,0,0,0,2.57-.31,6.21,6.21,0,0,0,2-.93,4.25,4.25,0,0,0,1.34-1.55,4.77,4.77,0,0,0,.47-2.16v-.16a4.45,4.45,0,0,1-2.6.84,4.16,4.16,0,0,1-1.27-.19,3.15,3.15,0,0,1-1.08-.59,3,3,0,0,1-.73-1,3.21,3.21,0,0,1-.27-1.34,6.76,6.76,0,0,1,.26-1.77,7.27,7.27,0,0,1,.76-1.87,5.4,5.4,0,0,1,1.22-1.48,2.43,2.43,0,0,1,1.63-.61,2.94,2.94,0,0,1,2.11.82,5.8,5.8,0,0,1,1.35,2,10.25,10.25,0,0,1,.72,2.46,14,14,0,0,1,.21,2.2,11.51,11.51,0,0,1-.65,4,7.67,7.67,0,0,1-4.8,4.72,11.37,11.37,0,0,1-3.79.6,8.57,8.57,0,0,1-3.32-.58A6.37,6.37,0,0,1,151,27.5a6.23,6.23,0,0,1-1.34-2.28,8.69,8.69,0,0,1-.44-2.77,10.56,10.56,0,0,1,.36-2.67,13.22,13.22,0,0,1,1-2.66l2.44.91a8.75,8.75,0,0,0-.88,3.67,4.14,4.14,0,0,0,1.19,3A5.14,5.14,0,0,0,157.17,25.94Zm.19-16.57L159,7.16l2.12,1.4,1.2-1.66,2.51,1.66-1.66,2.21L161,9.37,159.9,11Zm3.84,9.18a3.57,3.57,0,0,0,1-.16,1.86,1.86,0,0,0,.81-.46,4.49,4.49,0,0,0-.74-1.29,1.41,1.41,0,0,0-1.08-.53,1.1,1.1,0,0,0-.86.47,1.44,1.44,0,0,0-.37.89.91.91,0,0,0,.4.82A1.6,1.6,0,0,0,161.2,18.55Z"/><path class="cls-1" d="M182.1,22.5a4,4,0,0,1-1.55-1,4.31,4.31,0,0,1-.91-1.61,10.45,10.45,0,0,1-.44-2.08,8.69,8.69,0,0,1-2.93,3.95,9.05,9.05,0,0,1-4.69,1.74l-2.44-2.6c.66-.11,1.39-.27,2.22-.49a17.68,17.68,0,0,0,2.36-.8,7.5,7.5,0,0,0,1.88-1.09,1.75,1.75,0,0,0,.77-1.36,4.2,4.2,0,0,0-.62-1.94,11.24,11.24,0,0,0-1.66-2.24,17,17,0,0,0-2.42-2.14,13.76,13.76,0,0,0-2.92-1.62L169.44,5c1.12.76,2.13,1.51,3,2.23a19,19,0,0,1,2.36,2.28,14.69,14.69,0,0,1,1.79,2.56,17.74,17.74,0,0,1,1.32,3,9.93,9.93,0,0,0,.63-1.76,11.9,11.9,0,0,0,.38-2c0-1.11-.08-2.26-.1-3.47s0-2.31-.06-3.33L182,3.29V16.17a3.48,3.48,0,0,0,.58,2.2,2.23,2.23,0,0,0,1.86.73v3.78A6.33,6.33,0,0,1,182.1,22.5Z"/><path class="cls-1" d="M184.44,22.88a2.16,2.16,0,0,1-.51-.07c-.16,0-.24-.1-.24-.16V19.36c0-.08.08-.15.24-.19a1.75,1.75,0,0,1,.51-.07h3.25v3.78Z"/><path class="cls-1" d="M187.69,22.88a2.08,2.08,0,0,1-.5-.07c-.17,0-.25-.1-.25-.16V19.36c0-.08.08-.15.25-.19a1.68,1.68,0,0,1,.5-.07H191v3.78Z"/><path class="cls-1" d="M191,22.88a2.09,2.09,0,0,1-.51-.07c-.16,0-.24-.1-.24-.16V19.36c0-.08.08-.15.24-.19a1.7,1.7,0,0,1,.51-.07h3.25v3.78Z"/><path class="cls-1" d="M194.2,22.88a2.08,2.08,0,0,1-.5-.07c-.17,0-.25-.1-.25-.16V19.36c0-.08.08-.15.25-.19a1.68,1.68,0,0,1,.5-.07h3.25v3.78Z"/><path class="cls-1" d="M197.45,22.88a2.08,2.08,0,0,1-.5-.07c-.16,0-.25-.1-.25-.16V19.36c0-.08.09-.15.25-.19a1.68,1.68,0,0,1,.5-.07h3.26v3.78Z"/><path class="cls-1" d="M200.71,22.88a2.16,2.16,0,0,1-.51-.07c-.16,0-.24-.1-.24-.16V19.36c0-.08.08-.15.24-.19a1.75,1.75,0,0,1,.51-.07H204v3.78Z"/><path class="cls-1" d="M203.21,19.36c0-.08.08-.15.25-.19a1.68,1.68,0,0,1,.5-.07h2.86c.7,0,1.26,0,1.7,0a7.77,7.77,0,0,0,1.41-.21,18.05,18.05,0,0,0,1.89-.59c.75-.27,1.77-.65,3.07-1.15-1.23-.35-2.19-.61-2.86-.78s-1.17-.32-1.5-.43a1.56,1.56,0,0,0-1.18.12,3.31,3.31,0,0,0-.93.76l-2.25-1.53a9.36,9.36,0,0,1,2-2.55,2.72,2.72,0,0,1,2.28-.57,22.21,22.21,0,0,1,2.21.45l2.28.62c.78.22,1.58.43,2.41.64s1.71.38,2.66.53c.44,0,.87.08,1.29.1l1.25.07-1,3.71c-.52-.05-1-.07-1.36-.07a5.66,5.66,0,0,0-1.11.1,5.51,5.51,0,0,0-1.06.31,9.65,9.65,0,0,0-1.22.6c-1.1.63-2,1.17-2.75,1.63A17.81,17.81,0,0,1,211.9,22a10.38,10.38,0,0,1-2.29.68,19,19,0,0,1-3.24.23H204a2.08,2.08,0,0,1-.5-.07c-.17,0-.25-.1-.25-.16Zm9.73-12L211,10l-2.7-1.82,2-2.64Z"/><path class="cls-1" d="M248.83,15.81a7,7,0,0,0-2.7-.39,4,4,0,0,0-1.23.22,5,5,0,0,0-1.19.55,4.27,4.27,0,0,0-.9.75,1.29,1.29,0,0,0-.35.83.58.58,0,0,0,.48.57,6.13,6.13,0,0,0,1.24.19l1.6.12a6.32,6.32,0,0,1,1.59.32,3,3,0,0,1,1.24.81,2.32,2.32,0,0,1,.48,1.57,6,6,0,0,1-1,3.38,8.57,8.57,0,0,1-2.47,2.44,11.67,11.67,0,0,1-3.31,1.48,12.83,12.83,0,0,1-3.5.51,11.48,11.48,0,0,1-3.59-.51,7.07,7.07,0,0,1-2.56-1.4,5.65,5.65,0,0,1-1.51-2.13,6.9,6.9,0,0,1-.5-2.67,10.08,10.08,0,0,1,.37-2.62,12,12,0,0,1,1.16-2.75l2.57.88a10.85,10.85,0,0,0-.77,1.79,5.88,5.88,0,0,0-.27,1.73A4,4,0,0,0,234,23a3.21,3.21,0,0,0,1,1.25,5,5,0,0,0,1.74.85,9.23,9.23,0,0,0,2.52.31,11.69,11.69,0,0,0,2.25-.26,15.81,15.81,0,0,0,2.39-.69,8.63,8.63,0,0,0,1.9-1c.52-.35.78-.71.78-1.05s-.12-.33-.37-.41a5.1,5.1,0,0,0-1-.18c-.45,0-1-.08-1.53-.11s-1.19-.1-1.84-.18a2.51,2.51,0,0,1-1.65-.82,2.59,2.59,0,0,1-.53-1.69,6.39,6.39,0,0,1,.63-2.78,8.09,8.09,0,0,1,4-3.89,6.35,6.35,0,0,1,2.63-.58,5.42,5.42,0,0,1,1.4.17,5.2,5.2,0,0,1,1.34.57Z"/><path class="cls-1" d="M255.49,22.34a4,4,0,0,1-1.6-1.48,6.23,6.23,0,0,1-.78-2.25,20.2,20.2,0,0,1-.24-2.83c0-.47,0-1.16-.07-2s0-1.85-.06-2.89-.05-2.11-.08-3.21-.06-2.11-.08-3l3.19-1.3V16.17a3.48,3.48,0,0,0,.58,2.2,2.27,2.27,0,0,0,1.89.73v3.78A5.92,5.92,0,0,1,255.49,22.34Z"/><path class="cls-1" d="M258.24,22.88a2.16,2.16,0,0,1-.51-.07c-.16,0-.24-.1-.24-.16V19.36c0-.08.08-.15.24-.19a1.75,1.75,0,0,1,.51-.07h3.25v3.78Z"/><path class="cls-1" d="M261.49,22.88a2.08,2.08,0,0,1-.5-.07c-.17,0-.25-.1-.25-.16V19.36c0-.08.08-.15.25-.19a1.68,1.68,0,0,1,.5-.07h3.26v3.78Z"/><path class="cls-1" d="M264.75,22.88a2.09,2.09,0,0,1-.51-.07c-.16,0-.24-.1-.24-.16V19.36c0-.08.08-.15.24-.19a1.7,1.7,0,0,1,.51-.07H268v3.78Z"/><path class="cls-1" d="M268,22.88a2.24,2.24,0,0,1-.51-.07c-.16,0-.24-.1-.24-.16V19.36c0-.08.08-.15.24-.19a1.79,1.79,0,0,1,.51-.07h3.25v3.78Z"/><path class="cls-1" d="M271.25,22.88a2.08,2.08,0,0,1-.5-.07c-.16,0-.25-.1-.25-.16V19.36c0-.08.09-.15.25-.19a1.68,1.68,0,0,1,.5-.07h3.26v3.78Z"/><path class="cls-1" d="M273.76,19.36c0-.08.08-.15.24-.19a1.75,1.75,0,0,1,.51-.07h2.8a2.85,2.85,0,0,1-.59-1.66,4,4,0,0,1,.7-2.19,7,7,0,0,1,1.64-1.81l-.71-.46,1.56-3.38c.65.46,1.47,1.05,2.46,1.79a29.6,29.6,0,0,1,2.86,2.46,17.71,17.71,0,0,1,2.37,2.83,5.36,5.36,0,0,1,1,2.91,8.07,8.07,0,0,1-.23,2,4.81,4.81,0,0,1-.63,1.5,2.52,2.52,0,0,1-.95.87,1.37,1.37,0,0,1-1.12.09,17.69,17.69,0,0,1-2.26-.79A25.5,25.5,0,0,1,281,22.06a8.24,8.24,0,0,1-2.05.64,10.69,10.69,0,0,1-1.79.18h-2.6a2.16,2.16,0,0,1-.51-.07c-.16,0-.24-.1-.24-.16Zm6-1.14a8.87,8.87,0,0,0,.94.59,2.16,2.16,0,0,0,1.56-2,1.07,1.07,0,0,0-.16-.57,2.76,2.76,0,0,0-.39-.51,1.68,1.68,0,0,0-.5-.35,1.15,1.15,0,0,0-.48-.13,1.09,1.09,0,0,0-.58.18,2.58,2.58,0,0,0-.55.45,2.61,2.61,0,0,0-.43.59A1.13,1.13,0,0,0,279,17a2.23,2.23,0,0,0,.1.54A1.35,1.35,0,0,0,279.78,18.22Zm4.75,0a4.67,4.67,0,0,1-.44,1.13,8.22,8.22,0,0,1-.63.95c.26.13.52.25.79.36s.53.21.77.32a6.85,6.85,0,0,0,.71.23c.18,0,.33-.09.46-.39A2,2,0,0,0,286,19a7.51,7.51,0,0,0-1.37-1.58A2.49,2.49,0,0,1,284.53,18.26Z"/><path class="cls-1" d="M294.71,16a11.89,11.89,0,0,1,1.35,2.32,6.78,6.78,0,0,1,.51,2.75,6.33,6.33,0,0,1-.77,3,11.88,11.88,0,0,1-2,2.72,20.22,20.22,0,0,1-2.73,2.36,35.74,35.74,0,0,1-3,2l-2.76-2.18c.71-.35,1.55-.8,2.52-1.37a26.17,26.17,0,0,0,2.77-1.85,16.19,16.19,0,0,0,2.24-2.07,3.11,3.11,0,0,0,.93-2,2.82,2.82,0,0,0-.51-1.46,15.07,15.07,0,0,0-1-1.5Z"/><path class="cls-1" d="M302.54,22.34A3.92,3.92,0,0,1,301,20.86a6.43,6.43,0,0,1-.79-2.25,20.2,20.2,0,0,1-.24-2.83c0-.47,0-1.16-.06-2s-.05-1.85-.07-2.89-.05-2.11-.08-3.21-.06-2.11-.08-3l3.19-1.3V16.17a3.48,3.48,0,0,0,.58,2.2,2.27,2.27,0,0,0,1.89.73v3.78A5.92,5.92,0,0,1,302.54,22.34Z"/><path class="cls-1" d="M319.28,22.88a5.9,5.9,0,0,1-2-.36,8.3,8.3,0,0,1-1.85-.95,10.41,10.41,0,0,1-1.63-1.33,14.26,14.26,0,0,1-1.33-1.53,4.07,4.07,0,0,1-2.12,3.12,10,10,0,0,1-5,1.05,2.08,2.08,0,0,1-.5-.07c-.17,0-.25-.1-.25-.16V19.36c0-.08.08-.15.25-.19a1.68,1.68,0,0,1,.5-.07h1.32a10.94,10.94,0,0,0,1.71-.13,4.92,4.92,0,0,0,1.46-.44,1,1,0,0,0,.62-.93,2.4,2.4,0,0,0-.55-1.3,13.57,13.57,0,0,0-1.32-1.51c-.51-.51-1-1-1.55-1.46s-.93-.86-1.23-1.16a3.71,3.71,0,0,1-.31-.34.79.79,0,0,1-.12-.64,8,8,0,0,1,.12-.86,7.76,7.76,0,0,1,.19-.89,4.94,4.94,0,0,1,.28-.77.86.86,0,0,1,.39-.44,51.77,51.77,0,0,1,5.77-2.45q3.57-1.32,8.55-2.88l-.43,3.67q-3.54.82-6.46,1.71t-5.35,1.87c-.41.15-.47.34-.16.56.93.71,1.84,1.46,2.72,2.24s1.74,1.6,2.58,2.44c.48.48,1,.94,1.42,1.38A10.14,10.14,0,0,0,316.4,18a7,7,0,0,0,1.61.83,5.34,5.34,0,0,0,1.86.31h1.49v3.78Z"/><path class="cls-1" d="M320.62,19.36c0-.08.08-.15.24-.19a1.68,1.68,0,0,1,.5-.07h2.8a2.91,2.91,0,0,1-.58-1.66,4,4,0,0,1,.7-2.19,6.82,6.82,0,0,1,1.64-1.81L325.2,13l1.57-3.38c.65.46,1.47,1.05,2.45,1.79a29.7,29.7,0,0,1,2.87,2.46,17.71,17.71,0,0,1,2.37,2.83,5.45,5.45,0,0,1,1,2.91,8.07,8.07,0,0,1-.23,2,4.59,4.59,0,0,1-.64,1.5,2.49,2.49,0,0,1-.94.87,1.37,1.37,0,0,1-1.12.09,17.69,17.69,0,0,1-2.26-.79,25.5,25.5,0,0,1-2.49-1.17,8.37,8.37,0,0,1-2.05.64,10.79,10.79,0,0,1-1.79.18h-2.61a2.08,2.08,0,0,1-.5-.07c-.16,0-.24-.1-.24-.16Zm6-1.14a7.94,7.94,0,0,0,.94.59,2.16,2.16,0,0,0,1.56-2,1.07,1.07,0,0,0-.16-.57,2.76,2.76,0,0,0-.39-.51,1.6,1.6,0,0,0-.51-.35,1.08,1.08,0,0,0-.47-.13,1.09,1.09,0,0,0-.58.18,2.63,2.63,0,0,0-1,1,1.13,1.13,0,0,0-.16.53,2.23,2.23,0,0,0,.1.54A1.35,1.35,0,0,0,326.64,18.22Zm4.75,0a4.67,4.67,0,0,1-.44,1.13,8.32,8.32,0,0,1-.64.95c.26.13.53.25.8.36s.53.21.77.32a6.85,6.85,0,0,0,.71.23c.17,0,.33-.09.46-.39a2.07,2.07,0,0,0-.23-1.84,7.81,7.81,0,0,0-1.37-1.58A2.79,2.79,0,0,1,331.39,18.26Z"/><path class="cls-1" d="M342.06,22.45l-3.32.88V4.59l3.32-1.3Z"/><path class="cls-1" d="M348.15,16a13,13,0,0,1,1.35,2.32,7,7,0,0,1,.5,2.75,6.43,6.43,0,0,1-.76,3,11.93,11.93,0,0,1-2,2.72,19.63,19.63,0,0,1-2.73,2.36,35.74,35.74,0,0,1-3,2l-2.76-2.18c.71-.35,1.56-.8,2.52-1.37A26.17,26.17,0,0,0,344,25.71a16.19,16.19,0,0,0,2.24-2.07,3.11,3.11,0,0,0,.93-2,2.82,2.82,0,0,0-.51-1.46,15.07,15.07,0,0,0-1-1.5Z"/></svg>