<svg id="Layer_1" data-name="Layer 1" xmlns="http://www.w3.org/2000/svg" viewBox="0 0 369.86 253.95"><defs><style>.cls-1{fill:#231f20;}.cls-2{fill:#f48120;}</style></defs><path class="cls-1" d="M240,81.72a3.82,3.82,0,0,1,.11.57,5.46,5.46,0,0,1,0,.57,4.23,4.23,0,0,1-.72,2.42,6.92,6.92,0,0,1-1.92,1.89,11.38,11.38,0,0,1-1.67.92,18.16,18.16,0,0,1-2,.77,16.17,16.17,0,0,1-2.13.53,12.7,12.7,0,0,1-2.21.2,11.1,11.1,0,0,1-3.91-.63,7.58,7.58,0,0,1-2.77-1.72,7.06,7.06,0,0,1-1.66-2.63,9.77,9.77,0,0,1-.55-3.35,11.65,11.65,0,0,1,.41-2.86,20,20,0,0,1,.94-2.83l3.28,1.49c-.15.34-.28.7-.41,1.09s-.25.78-.34,1.16-.17.74-.23,1.08a5.23,5.23,0,0,0-.09.87,3.26,3.26,0,0,0,1.31,2.65,6.4,6.4,0,0,0,4,1,11.24,11.24,0,0,0,3.4-.5,9.48,9.48,0,0,0,2.65-1.21,1.36,1.36,0,0,1,.14-.1l-1-.43q-.57-.25-1.14-.48l-1.09-.44c-.34-.15-.62-.25-.83-.32l.85-4.38h7.62v4.62Z"/><path class="cls-1" d="M240.16,81.72a2.1,2.1,0,0,1-.56-.07c-.17,0-.26-.1-.26-.17v-4.1c0-.09.09-.16.26-.21a2.1,2.1,0,0,1,.56-.07h3.55v4.62Z"/><path class="cls-1" d="M243.71,81.72a2,2,0,0,1-.55-.07c-.18,0-.27-.1-.27-.17v-4.1q0-.13.27-.21a2,2,0,0,1,.55-.07h3.56v4.62Z"/><path class="cls-1" d="M247.27,77.1a20.22,20.22,0,0,0,2.94-.16,5.35,5.35,0,0,0,1.56-.43,1.22,1.22,0,0,0,.64-.6,2,2,0,0,0,.13-.66,2.48,2.48,0,0,0-.61-1.46,15.61,15.61,0,0,0-1.44-1.6c-.56-.54-1.14-1.08-1.74-1.6a12.84,12.84,0,0,1-1.48-1.46l.07-1.92a4,4,0,0,1,.52-1.6,5.16,5.16,0,0,1,.62-.78c.24-.19.62-.45,1.14-.79l1.85-1.14c.71-.42,1.49-.87,2.35-1.33l2.59-1.39c.88-.46,1.73-.89,2.56-1.3s1.59-.75,2.28-1.06V63c-.83.35-1.68.74-2.54,1.15l-2.55,1.23c-.83.4-1.61.81-2.36,1.23s-1.43.8-2.05,1.15c.45.41.93.87,1.44,1.39a13.09,13.09,0,0,1,1.41,1.71,9.79,9.79,0,0,1,1.07,2,6.62,6.62,0,0,1,.42,2.38,13.49,13.49,0,0,1-.19,2.28,4.05,4.05,0,0,1-1.07,2.08,6.12,6.12,0,0,1-2.65,1.53,16.35,16.35,0,0,1-4.91.58,2,2,0,0,1-.55-.07c-.18,0-.27-.1-.27-.17v-4.1q0-.13.27-.21A2,2,0,0,1,247.27,77.1Zm1.46-16.79L253.1,58l3.1-1.62c.85-.44,1.56-.8,2.12-1.07l1.44-.69v2.24c-.55.23-1.14.51-1.76.82s-1.37.68-2.23,1.13l-3,1.6c-1.13.62-2.49,1.35-4.05,2.17Z"/><path class="cls-1" d="M272.3,81.26a4.56,4.56,0,0,1-1.83-1.39,7.87,7.87,0,0,1-2.69,1.75,8.47,8.47,0,0,1-3.08.6,9.26,9.26,0,0,1-3.11-.5,7.38,7.38,0,0,1-2.3-1.2L261.57,77a2.58,2.58,0,0,0,1.14.46,9.45,9.45,0,0,0,2,.18,7.14,7.14,0,0,0,1.37-.13,6.24,6.24,0,0,0,1.26-.35,4.33,4.33,0,0,0,1-.55,1.35,1.35,0,0,0,.52-.72q-.39-2-.78-3.78c-.27-1.18-.53-2.45-.79-3.83l3.31-2.35,1.82,9.32a2.24,2.24,0,0,0,.78,1.41,2.73,2.73,0,0,0,1.74.48v4.62A6.59,6.59,0,0,1,272.3,81.26Z"/><path class="cls-1" d="M276.05,77.1c1.52,0,2.28-.27,2.28-.82a1.18,1.18,0,0,0-.16-.39c-.11-.19-.24-.4-.39-.62l-.48-.7c-.17-.23-.3-.42-.4-.57l2.64-3.66c.16.21.38.52.64.93a12.4,12.4,0,0,1,.76,1.38,12.18,12.18,0,0,1,.66,1.71,6.51,6.51,0,0,1,.28,1.92,5.26,5.26,0,0,1-1.49,4.06,6.18,6.18,0,0,1-4.34,1.38h-1.14a2,2,0,0,1-.55-.07c-.18,0-.27-.1-.27-.17v-4.1q0-.13.27-.21a2,2,0,0,1,.55-.07Zm2.78-8.18-1.41-1L276,67c.38-.47.73-.92,1.05-1.33s.69-.86,1.09-1.34l1.37,1c.44.32.89.65,1.37,1Z"/><path class="cls-1" d="M288.79,74.11c.19.31.41.69.65,1.14a13.62,13.62,0,0,1,.7,1.48,15.22,15.22,0,0,1,.55,1.69,7.3,7.3,0,0,1,.23,1.81,8.41,8.41,0,0,1-.71,3.42,12.37,12.37,0,0,1-1.9,3,17.46,17.46,0,0,1-2.78,2.54,28.56,28.56,0,0,1-3.33,2.13l-3.41-2.77c.81-.43,1.71-.92,2.7-1.48a19.38,19.38,0,0,0,2.81-1.88,11.17,11.17,0,0,0,2.19-2.28,4.49,4.49,0,0,0,.87-2.65,2,2,0,0,0-.17-.76,9,9,0,0,0-.41-.82c-.16-.27-.32-.54-.5-.8l-.48-.71Zm-.89-2.24-1.41-1c-.46-.32-.93-.64-1.4-1,.38-.47.73-.92,1.05-1.33s.68-.86,1.08-1.33l1.37,1,1.37,1Z"/><path class="cls-1" d="M312.84,81.72a8.61,8.61,0,0,1-2.17-.24,4.88,4.88,0,0,1-1.61-.75,4.24,4.24,0,0,1-1.13-1.25,8.1,8.1,0,0,1-.79-1.7,10.38,10.38,0,0,1-1.92.67,7.23,7.23,0,0,1-1.78.25,3.15,3.15,0,0,1-2.75-1.21,4.79,4.79,0,0,1-.88-2.92,4.5,4.5,0,0,1,.54-2.17,8.38,8.38,0,0,1,1.33-1.83,10.58,10.58,0,0,1,1.75-1.47A15.38,15.38,0,0,1,305.19,68L305,66.71l3.28-2.42,1.88,10.53a3.24,3.24,0,0,0,.75,1.73,2.69,2.69,0,0,0,2,.55ZM306.22,74a2.53,2.53,0,0,0-.06-.4c0-.21-.07-.43-.12-.68s-.09-.47-.12-.68-.07-.33-.09-.41l-.68.4a7.64,7.64,0,0,0-.91.65,5.12,5.12,0,0,0-.76.79.93.93,0,0,0-.25.76c0,.22.17.33.44.34a3.18,3.18,0,0,0,.93-.11,6.24,6.24,0,0,0,1-.32A2.71,2.71,0,0,0,306.22,74Z"/><path class="cls-1" d="M314.22,89l-1.4-1-1.41-1c.38-.47.73-.92,1-1.33s.68-.86,1.09-1.34l1.37,1c.43.32.89.65,1.37,1ZM314,77.1c1.52,0,2.28-.27,2.28-.82a1,1,0,0,0-.16-.39c-.11-.19-.24-.4-.39-.62l-.48-.7q-.25-.34-.39-.57l2.63-3.66a10.61,10.61,0,0,1,.64.93,11,11,0,0,1,.76,1.38,12.18,12.18,0,0,1,.66,1.71,6.52,6.52,0,0,1,.29,1.92,5.27,5.27,0,0,1-1.5,4.06A6.16,6.16,0,0,1,314,81.72h-1.14a2.08,2.08,0,0,1-.55-.07c-.17,0-.26-.1-.26-.17v-4.1c0-.09.09-.16.26-.21a2.08,2.08,0,0,1,.55-.07Z"/><path class="cls-1" d="M230.34,122.56l-7.51,2.1-.28-1.31L230,121.1Z"/><path class="cls-1" d="M225.75,117.72a11.25,11.25,0,0,1-2.72-.32,6.86,6.86,0,0,1-2.37-1L222,114.1a4.06,4.06,0,0,0,1.85.81,12.06,12.06,0,0,0,2.07.18c.42,0,.89,0,1.4-.07a5.35,5.35,0,0,0,1.42-.32,2.94,2.94,0,0,0,1.12-.71,1.68,1.68,0,0,0,.47-1.25,3.23,3.23,0,0,0-.55-1.76,8.36,8.36,0,0,0-1.34-1.53,13.78,13.78,0,0,0-1.67-1.26l-1.53-1,1.07-2.7a26.59,26.59,0,0,1,2.18,1.65,13.72,13.72,0,0,1,1.93,2,10.17,10.17,0,0,1,1.35,2.26,6.58,6.58,0,0,1,.51,2.59,3.77,3.77,0,0,1-.62,2.24,4.92,4.92,0,0,1-1.58,1.46,6.6,6.6,0,0,1-2.12.8A10.88,10.88,0,0,1,225.75,117.72Z"/><path class="cls-1" d="M240.65,117.23a7.34,7.34,0,0,1-.89,3.27,12.94,12.94,0,0,1-2,2.83,17.45,17.45,0,0,1-2.69,2.31,22.25,22.25,0,0,1-2.81,1.69l-1.63-1.85a27.25,27.25,0,0,0,2.75-1.51,16.81,16.81,0,0,0,2.42-1.82,10.65,10.65,0,0,0,1.82-2.08,5.74,5.74,0,0,0,.9-2.35,4.58,4.58,0,0,0-.48-2.13,12.71,12.71,0,0,0-1.08-1.74l1.78-2c.31.43.58.83.82,1.23a7,7,0,0,0,.74,1,3.67,3.67,0,0,0,.86.73,2.08,2.08,0,0,0,1.13.28v2.63A3,3,0,0,1,240.65,117.23Z"/><path class="cls-1" d="M241.44,115.34c0-.09.08-.16.26-.19a2.51,2.51,0,0,1,.55-.06h3.28a12.11,12.11,0,0,0,1.56-.1,7.14,7.14,0,0,0,1.53-.38,3.15,3.15,0,0,0,1.18-.75,1.77,1.77,0,0,0,.46-1.26v-.23a.59.59,0,0,0,0-.23,8.77,8.77,0,0,1-1.49.57,5.42,5.42,0,0,1-1.46.21,2.6,2.6,0,0,1-1.8-.66,2.89,2.89,0,0,1-.73-2.22,6.68,6.68,0,0,1,.29-1.76,8.55,8.55,0,0,1,.8-1.92,6.5,6.5,0,0,1,1.19-1.55,2.08,2.08,0,0,1,1.46-.64,2.11,2.11,0,0,1,1.67.85,7.32,7.32,0,0,1,1.18,2,13.39,13.39,0,0,1,.69,2.42,12,12,0,0,1,.23,2q0,6.23-6.4,6.22h-3.6a2,2,0,0,1-.55-.07c-.18,0-.26-.1-.26-.17Zm6.9-13.8L246,99.9l1.78-2.17,2.31,1.64Zm-.61,8.89a3.32,3.32,0,0,0,1.07-.19,5.46,5.46,0,0,0,1-.45q-.11-.47-.27-1a6.93,6.93,0,0,0-.37-1,2.75,2.75,0,0,0-.5-.73.9.9,0,0,0-.64-.29.84.84,0,0,0-.55.23,2.38,2.38,0,0,0-.48.59,3.47,3.47,0,0,0-.36.78,2.77,2.77,0,0,0-.14.82,1.35,1.35,0,0,0,.28.86A1.18,1.18,0,0,0,247.73,110.43Z"/><path class="cls-1" d="M274,117.72a5,5,0,0,1-3.54-1,5.86,5.86,0,0,1-1.51-3.16l0-.15a7,7,0,0,1-1.94,1,7.42,7.42,0,0,1-2.3.37,3,3,0,0,1-1.79-.48A2.44,2.44,0,0,1,262,113a3.19,3.19,0,0,1-.11-1.58,4.88,4.88,0,0,1,.57-1.62,11.69,11.69,0,0,1,5-4.2l-.36-2,2-1.49,1.7,8.75c.15.66.29,1.26.43,1.78a5,5,0,0,0,.55,1.32,2.29,2.29,0,0,0,.87.8,3.25,3.25,0,0,0,1.39.26h.25v2.63Zm-6.19-9.89a8.78,8.78,0,0,0-1.51.82,8.16,8.16,0,0,0-1.4,1.18c-.72.71-1,1.27-.8,1.69s.7.56,1.58.44a6.56,6.56,0,0,0,1.63-.43,3.83,3.83,0,0,0,1.14-.6Z"/><path class="cls-1" d="M275.27,124.84,273,123.2,274.7,121l2.35,1.64Zm-1.89-9.5c0-.09.09-.16.27-.19a2.51,2.51,0,0,1,.55-.06h.71a5,5,0,0,0,2.23-.41,1.36,1.36,0,0,0,.83-1.3,2.63,2.63,0,0,0-.51-1.44c-.35-.51-.67-1-1-1.37l1.81-1.95a7.85,7.85,0,0,1,1.32,2.1,6.81,6.81,0,0,1,.5,2.45c0,3-1.78,4.55-5.34,4.55h-.57a2,2,0,0,1-.55-.07c-.18,0-.27-.1-.27-.17Z"/><path class="cls-1" d="M296.29,117.23a7.34,7.34,0,0,1-.89,3.27,12.94,12.94,0,0,1-2,2.83,17.93,17.93,0,0,1-2.69,2.31,22.25,22.25,0,0,1-2.81,1.69l-1.64-1.85A26.35,26.35,0,0,0,289,124a16.81,16.81,0,0,0,2.42-1.82,11,11,0,0,0,1.82-2.08,5.74,5.74,0,0,0,.9-2.35,4.58,4.58,0,0,0-.48-2.13,12.71,12.71,0,0,0-1.08-1.74l1.78-2c.3.43.58.83.81,1.23a7.83,7.83,0,0,0,.75,1,3.67,3.67,0,0,0,.86.73,2.08,2.08,0,0,0,1.13.28v2.63A3,3,0,0,1,296.29,117.23Z"/><path class="cls-1" d="M320.8,117.72a3.72,3.72,0,0,1-3.45-1.56l0,0a9,9,0,0,1-2.1.91,18.39,18.39,0,0,1-2.31.53,17.09,17.09,0,0,1-2.33.25c-.77,0-1.49.06-2.15.06-.91,0-1.73,0-2.48,0a11.47,11.47,0,0,1-2-.21,5,5,0,0,1-1.51-.55,2.52,2.52,0,0,1-1-1.09,3,3,0,0,1-2.92,1.74h-.71a2,2,0,0,1-.55-.07c-.18,0-.26-.1-.26-.17v-2.14c0-.09.08-.16.26-.19a2.51,2.51,0,0,1,.55-.06h.18a2.29,2.29,0,0,0,2-.75,4.92,4.92,0,0,0,.54-2.73l2.1-.72a13.51,13.51,0,0,0,.17,2.21,2.36,2.36,0,0,0,.93,1.65,4,4,0,0,0,1.88.48c1-1.2,1.94-2.3,2.83-3.27a24.36,24.36,0,0,1,2.65-2.51,11.29,11.29,0,0,1,2.64-1.6,7.2,7.2,0,0,1,2.77-.55,3.45,3.45,0,0,1,1.42.3,4.55,4.55,0,0,1,1.21.8,3.64,3.64,0,0,1,.84,1.18,3.45,3.45,0,0,1,.3,1.42,5.65,5.65,0,0,1-.32,2,6.39,6.39,0,0,1-.82,1.58,3,3,0,0,0,1.85.5H322v2.63Zm-5.55-7.79a3.9,3.9,0,0,0-1.92.57,12.27,12.27,0,0,0-1.95,1.41c-.64.56-1.25,1.14-1.82,1.74l-1.49,1.58h2c.66,0,1.36,0,2.08-.11s1.44-.15,2.15-.27a8.28,8.28,0,0,0,1.91-.53,4,4,0,0,0,1.35-.91,1.9,1.9,0,0,0,.52-1.33,2,2,0,0,0-.25-1,1.84,1.84,0,0,0-.66-.64,3.11,3.11,0,0,0-.91-.34A4.79,4.79,0,0,0,315.25,109.93Z"/><path class="cls-1" d="M322,117.72a2,2,0,0,1-.55-.07c-.18,0-.27-.1-.27-.17v-2.14c0-.09.09-.16.27-.19a2.44,2.44,0,0,1,.55-.06h3.31v2.63Z"/><path class="cls-1" d="M325.29,117.72a2.1,2.1,0,0,1-.56-.07c-.17,0-.26-.1-.26-.17v-2.14c0-.09.09-.16.26-.19a2.6,2.6,0,0,1,.56-.06h3.3v2.63Z"/><path class="cls-1" d="M346.7,117.72a5,5,0,0,1-2-.32,3.28,3.28,0,0,1-1.25-.88,4.06,4.06,0,0,1-.74-1.34,16.2,16.2,0,0,1-.48-1.65L339.53,115q-1.36.72-2.79,1.35a21,21,0,0,1-2.88,1,11.38,11.38,0,0,1-2.95.39h-2.32a2,2,0,0,1-.55-.07c-.18,0-.26-.1-.26-.17v-2.14c0-.09.08-.16.26-.19a2.51,2.51,0,0,1,.55-.06h2.28a12.41,12.41,0,0,0,2.95-.32,18.35,18.35,0,0,0,2.57-.8c.8-.32,1.59-.67,2.36-1.07s1.57-.77,2.4-1.15c-1.71-.71-3.1-1.27-4.18-1.67a8,8,0,0,0-2.11-.61,1.88,1.88,0,0,0-1.05.32,5.1,5.1,0,0,0-1.09,1.07l-1.64-.82c1.19-2.23,2.36-3.34,3.53-3.34a6.21,6.21,0,0,1,2.31.53c.88.36,1.8.75,2.77,1.19a32.32,32.32,0,0,0,3,1.19,9.4,9.4,0,0,0,3.09.54,6.17,6.17,0,0,0,1.64-.22l-.57,2.53a7.66,7.66,0,0,0-3.34.57,2.38,2.38,0,0,0,1.31,1.71,7.32,7.32,0,0,0,2.49.35h1.78v2.63Z"/><path class="cls-1" d="M357.16,117.72a5.57,5.57,0,0,1-2.76-.53,3.12,3.12,0,0,1-1.33-1.6,4.09,4.09,0,0,1-1.69,1.64,4.77,4.77,0,0,1-2.12.49h-.14a2,2,0,0,1-.55-.07c-.18,0-.27-.1-.27-.17v-2.14c0-.09.09-.16.27-.19a2.51,2.51,0,0,1,.55-.06,4.3,4.3,0,0,0,2.26-.58,2.18,2.18,0,0,0,1-2v-1.14l1.85-.68a12.82,12.82,0,0,0,.14,2,3.41,3.41,0,0,0,.52,1.37,2.08,2.08,0,0,0,1,.78,4.75,4.75,0,0,0,1.69.25v2.63Zm-3.91-9.25-2.35-1.63,1.78-2.17L355,106.3Z"/><path class="cls-1" d="M356.77,115.34c0-.09.09-.16.27-.19a2.44,2.44,0,0,1,.55-.06h.53a3.31,3.31,0,0,0,.77-.09,4,4,0,0,0,.55-.16,2.55,2.55,0,0,0,1.1-.85,7.94,7.94,0,0,0,.84-1.37c.25-.51.48-1,.69-1.58a9.5,9.5,0,0,1,.73-1.5,4.23,4.23,0,0,1,.92-1.1A1.92,1.92,0,0,1,365,108a2.32,2.32,0,0,1,1.63.66,5.32,5.32,0,0,1,1.18,1.6,8.53,8.53,0,0,1,.69,2,8.3,8.3,0,0,1,.23,1.84,5.42,5.42,0,0,1-.14,1.24,4.48,4.48,0,0,1-.43,1.18,2.55,2.55,0,0,1-.76.87,1.92,1.92,0,0,1-1.12.33,3.37,3.37,0,0,1-1.1-.21A8.44,8.44,0,0,1,364,117c-.39-.22-.76-.44-1.12-.68a8.22,8.22,0,0,1-.89-.67,4.15,4.15,0,0,1-1.42,1.56,4.38,4.38,0,0,1-2.35.53h-.6a2,2,0,0,1-.55-.07c-.18,0-.27-.1-.27-.17Zm6.19-1.81a15.93,15.93,0,0,0,1.48.92,2.71,2.71,0,0,0,1.26.43.6.6,0,0,0,.57-.39,2.11,2.11,0,0,0,.18-.89,4.64,4.64,0,0,0-.11-1,3.62,3.62,0,0,0-.32-.91,2.55,2.55,0,0,0-.5-.68.9.9,0,0,0-.6-.26c-.24,0-.54.19-.91.57A5.62,5.62,0,0,0,363,113.53Z"/><path class="cls-1" d="M223.33,153a4.28,4.28,0,0,1-1.55-1.8,7.35,7.35,0,0,1-.64-2.49c-.08-.92-.12-1.83-.12-2.74V132.31l2.24-1.5,0,16.3c0,.5,0,1,.07,1.46a3.35,3.35,0,0,0,.38,1.28,2.17,2.17,0,0,0,.9.9,3.33,3.33,0,0,0,1.64.34v2.63A5.15,5.15,0,0,1,223.33,153Z"/><path class="cls-1" d="M225.39,151.34c0-.09.09-.16.27-.19a2.51,2.51,0,0,1,.55-.06H230a2.54,2.54,0,0,0,.41,0,5.29,5.29,0,0,1-1.27-1.28,2.92,2.92,0,0,1-.44-1.61,3.37,3.37,0,0,1,.34-1.44,6.08,6.08,0,0,1,.87-1.37,7.21,7.21,0,0,1,1.21-1.13,8.06,8.06,0,0,1,1.32-.82c-.17-.14-.34-.27-.5-.38a3.17,3.17,0,0,1-.46-.33l1.06-2.49c.79.59,1.6,1.24,2.44,1.93a25.32,25.32,0,0,1,2.38,2.25,21.46,21.46,0,0,1,2,2.45,9.06,9.06,0,0,1,1.26,2.58,7.39,7.39,0,0,1,.34,2.24,4.06,4.06,0,0,1-.45,1.89,2.13,2.13,0,0,1-1.28,1,3.4,3.4,0,0,1-2.17-.24c-.59-.23-1.23-.51-1.92-.83s-1.32-.62-1.89-.91a7.15,7.15,0,0,1-1.95.84,8.16,8.16,0,0,1-2.07.26h-3a2,2,0,0,1-.55-.07c-.18,0-.27-.1-.27-.17Zm7-2a3.21,3.21,0,0,1,.41.21c.16.1.33.19.52.29l.3-.25a.82.82,0,0,1,.2-.14,2,2,0,0,0,.58-.88,3,3,0,0,0,.2-1,3.49,3.49,0,0,0-.09-.76,2.48,2.48,0,0,0-.28-.75,1.72,1.72,0,0,0-.48-.55,1,1,0,0,0-.64-.22,1.61,1.61,0,0,0-.8.22,2.57,2.57,0,0,0-.75.57,3.43,3.43,0,0,0-.57.76,1.51,1.51,0,0,0-.23.77,1.25,1.25,0,0,0,.51,1A6.44,6.44,0,0,0,232.36,149.35Zm4-2.46a6.51,6.51,0,0,1-.26,2.16,6.36,6.36,0,0,1-.84,1.76l1.48.69c.44.2.75.34.94.41.66.21,1.06.1,1.19-.36a2.35,2.35,0,0,0-.26-1.63,9.37,9.37,0,0,0-.95-1.48C237.29,147.93,236.86,147.42,236.38,146.89Z"/><path class="cls-1" d="M259.9,144.94a11,11,0,0,1,1.62,3.38,10.63,10.63,0,0,1,.39,3.41,9,9,0,0,1-.75,3.17,8.11,8.11,0,0,1-1.83,2.61,8.58,8.58,0,0,1-2.83,1.78,9.94,9.94,0,0,1-3.72.66,7.93,7.93,0,0,1-4.51-1.17,6.45,6.45,0,0,1-2.48-3,8.47,8.47,0,0,1-.49-4.05,11.14,11.14,0,0,1,1.4-4.31l1.74.78a11,11,0,0,0-.92,4.67,4.36,4.36,0,0,0,.94,2.54,5.06,5.06,0,0,0,2,1.49,6.84,6.84,0,0,0,2.63.47,7.43,7.43,0,0,0,2.7-.54,6.17,6.17,0,0,0,2.25-1.53,4.85,4.85,0,0,0,1.24-2.51,7.38,7.38,0,0,0-.07-3.2,9.33,9.33,0,0,0-1.42-3.16Zm-6.76.53-2.35-1.64,1.78-2.17,2.31,1.64Z"/><path class="cls-1" d="M268.51,153a4.35,4.35,0,0,1-1.55-1.8,7.35,7.35,0,0,1-.64-2.49c-.08-.92-.12-1.83-.12-2.74V132.31l2.24-1.5,0,16.3c0,.5,0,1,.07,1.46a3.54,3.54,0,0,0,.38,1.28,2.17,2.17,0,0,0,.9.9,3.33,3.33,0,0,0,1.64.34v2.63A5.15,5.15,0,0,1,268.51,153Z"/><path class="cls-1" d="M271.39,153.72a2,2,0,0,1-.55-.07c-.18,0-.27-.1-.27-.17v-2.14c0-.09.09-.16.27-.19a2.51,2.51,0,0,1,.55-.06h3.31v2.63Z"/><path class="cls-1" d="M295.26,153.72a3.67,3.67,0,0,1-2.06-.48,2.49,2.49,0,0,1-1-1.33,2.88,2.88,0,0,1-1.37,1.44,4.44,4.44,0,0,1-1.9.41,4.31,4.31,0,0,1-2-.46,3.45,3.45,0,0,1-1.42-1.39,3.17,3.17,0,0,1-1.64,1.46,5.78,5.78,0,0,1-2.06.39,4.12,4.12,0,0,1-1.87-.44,3,3,0,0,1-1.33-1.41,3.49,3.49,0,0,1-3.38,1.81h-.5a2,2,0,0,1-.55-.07c-.18,0-.27-.1-.27-.17v-2.14c0-.09.09-.16.27-.19a2.51,2.51,0,0,1,.55-.06h.07q3,0,3-3.34l1.78-.64a12.51,12.51,0,0,0,.09,1.54,4.81,4.81,0,0,0,.32,1.27,2,2,0,0,0,.69.85,2.13,2.13,0,0,0,1.25.32,2.93,2.93,0,0,0,2-.64,3.21,3.21,0,0,0,.71-2.42v-.28l1.78-.68c0,.5.06,1,.12,1.48a4.28,4.28,0,0,0,.36,1.3,2.33,2.33,0,0,0,.74.92,2.15,2.15,0,0,0,1.3.36,2.55,2.55,0,0,0,1.28-.29,1.94,1.94,0,0,0,.77-.76,3.34,3.34,0,0,0,.37-1.09,7.24,7.24,0,0,0,.11-1.24l1.64-.64c0,.59.05,1.13.1,1.62a3.64,3.64,0,0,0,.34,1.26,1.93,1.93,0,0,0,.78.82,3,3,0,0,0,1.44.28h.5v2.63Z"/><path class="cls-1" d="M295.4,151.34c0-.09.09-.16.27-.19a2.51,2.51,0,0,1,.55-.06h.71a5,5,0,0,0,2.23-.41,1.36,1.36,0,0,0,.83-1.3,2.63,2.63,0,0,0-.51-1.44c-.35-.51-.67-1-1-1.37l1.81-1.95a7.85,7.85,0,0,1,1.32,2.1,6.81,6.81,0,0,1,.5,2.45c0,3-1.78,4.55-5.34,4.55h-.57a2,2,0,0,1-.55-.07c-.18,0-.27-.1-.27-.17Zm4.2-8.64-2.35-1.64,1.78-2.17,2.31,1.64Z"/><path class="cls-1" d="M308.46,153.23l-1.81.49c0-1.28-.09-2.79-.13-4.53s-.07-3.59-.11-5.53-.07-3.92-.12-5.93-.1-3.92-.14-5.74l2.31-.93Z"/><path class="cls-1" d="M335.36,153.72a2.5,2.5,0,0,1,.8,1.89,3.72,3.72,0,0,1-.66,2,6.49,6.49,0,0,1-1.5,1.44,12.19,12.19,0,0,1-2.17,1.24,13.84,13.84,0,0,1-2.59.88,12.75,12.75,0,0,1-2.81.32,10.08,10.08,0,0,1-4.77-1,6.41,6.41,0,0,1-2.83-2.76,7.52,7.52,0,0,1-.76-4,12.15,12.15,0,0,1,1.45-4.8l1.82.68a10.69,10.69,0,0,0-1,3.48,5.5,5.5,0,0,0,.41,3,4.34,4.34,0,0,0,2,2,8,8,0,0,0,3.72.74,13.21,13.21,0,0,0,5.94-1.46,5.84,5.84,0,0,0,.8-.48,2.9,2.9,0,0,0,.6-.53,1,1,0,0,0,.27-.5c0-.15-.06-.27-.25-.34l-4.55-1.78c.16-.59.29-1.06.37-1.42a3.19,3.19,0,0,1,.27-.8.64.64,0,0,1,.33-.34,2,2,0,0,1,.56-.07h5.4v2.63Z"/><path class="cls-1" d="M335.35,151.34c0-.09.09-.16.27-.19a2.51,2.51,0,0,1,.55-.06h2.32a13.16,13.16,0,0,0,3-.3,14,14,0,0,0,2.39-.78c.73-.32,1.45-.68,2.15-1.07a25,25,0,0,1,2.26-1.12l-2.17-.93-1.57-.65c-.42-.18-.78-.32-1.06-.41a2.21,2.21,0,0,0-.68-.15,3.18,3.18,0,0,0-1.25.31,3.77,3.77,0,0,0-1.28,1l-1.6-.71a6.85,6.85,0,0,1,1.94-2.47,3.38,3.38,0,0,1,1.94-.8,5.65,5.65,0,0,1,2.46.65c.87.44,1.88.89,3,1.34.52.24,1,.43,1.42.59a12,12,0,0,0,1.3.37,11.5,11.5,0,0,0,1.42.21c.51,0,1.12.07,1.84.07l-.61,2.57c-.47,0-.91,0-1.3.05s-.75.08-1.08.12a7.37,7.37,0,0,0-2.74,1c-.86.52-1.75,1.06-2.69,1.6a21.6,21.6,0,0,1-3.09,1.48,11,11,0,0,1-4,.65h-2.32a2,2,0,0,1-.55-.07c-.18,0-.27-.1-.27-.17Zm8.26-10.85-2.35-1.64,1.78-2.17,2.31,1.64Z"/><path class="cls-1" d="M362.36,153.23a7.61,7.61,0,0,1-.89,3.27,13.33,13.33,0,0,1-2.05,2.83,17.86,17.86,0,0,1-2.68,2.31,22.33,22.33,0,0,1-2.82,1.69l-1.63-1.85a26.35,26.35,0,0,0,2.76-1.51,17.28,17.28,0,0,0,2.41-1.82,10.65,10.65,0,0,0,1.82-2.08,5.76,5.76,0,0,0,.91-2.35,4.58,4.58,0,0,0-.48-2.13,12.76,12.76,0,0,0-1.09-1.74l1.78-2c.31.43.58.83.82,1.23a6.35,6.35,0,0,0,.75,1,3.63,3.63,0,0,0,.85.73,2.14,2.14,0,0,0,1.14.28v2.63A2.94,2.94,0,0,1,362.36,153.23Z"/><path class="cls-1" d="M363.14,151.34c0-.09.09-.16.27-.19a2.44,2.44,0,0,1,.55-.06h.71a5,5,0,0,0,2.22-.41,1.35,1.35,0,0,0,.84-1.3,2.57,2.57,0,0,0-.52-1.44c-.34-.51-.67-1-1-1.37l1.82-1.95a7.57,7.57,0,0,1,1.31,2.1,6.6,6.6,0,0,1,.5,2.45c0,3-1.78,4.55-5.33,4.55H364a2,2,0,0,1-.55-.07c-.18,0-.27-.1-.27-.17Zm3.16,9.5L364,159.2l1.75-2.17,2.34,1.64Z"/><path class="cls-1" d="M223.33,189a4.28,4.28,0,0,1-1.55-1.8,7.35,7.35,0,0,1-.64-2.49c-.08-.92-.12-1.83-.12-2.74V168.31l2.24-1.5,0,16.3c0,.5,0,1,.07,1.46a3.35,3.35,0,0,0,.38,1.28,2.17,2.17,0,0,0,.9.9,3.33,3.33,0,0,0,1.64.34v2.63A5.15,5.15,0,0,1,223.33,189Z"/><path class="cls-1" d="M225.39,187.34c0-.09.09-.16.27-.19a2.51,2.51,0,0,1,.55-.06H230a2.54,2.54,0,0,0,.41,0,5.29,5.29,0,0,1-1.27-1.28,2.92,2.92,0,0,1-.44-1.61,3.37,3.37,0,0,1,.34-1.44,6.08,6.08,0,0,1,.87-1.37,7.21,7.21,0,0,1,1.21-1.13,8.06,8.06,0,0,1,1.32-.82c-.17-.14-.34-.27-.5-.38a3.17,3.17,0,0,1-.46-.33l1.06-2.49c.79.59,1.6,1.24,2.44,1.93a25.32,25.32,0,0,1,2.38,2.25,21.46,21.46,0,0,1,2,2.45,9.06,9.06,0,0,1,1.26,2.58,7.39,7.39,0,0,1,.34,2.24,4.06,4.06,0,0,1-.45,1.89,2.13,2.13,0,0,1-1.28,1,3.4,3.4,0,0,1-2.17-.24c-.59-.23-1.23-.51-1.92-.83s-1.32-.62-1.89-.91a7.15,7.15,0,0,1-1.95.84,8.16,8.16,0,0,1-2.07.26h-3a2,2,0,0,1-.55-.07c-.18,0-.27-.1-.27-.17Zm7-2a3.21,3.21,0,0,1,.41.21c.16.1.33.19.52.29l.3-.25a.82.82,0,0,1,.2-.14,2,2,0,0,0,.58-.88,3,3,0,0,0,.2-1,3.49,3.49,0,0,0-.09-.76,2.48,2.48,0,0,0-.28-.75,1.72,1.72,0,0,0-.48-.55,1,1,0,0,0-.64-.22,1.61,1.61,0,0,0-.8.22,2.57,2.57,0,0,0-.75.57,3.43,3.43,0,0,0-.57.76,1.51,1.51,0,0,0-.23.77,1.25,1.25,0,0,0,.51,1A6.44,6.44,0,0,0,232.36,185.35Zm4-2.46a6.51,6.51,0,0,1-.26,2.16,6.36,6.36,0,0,1-.84,1.76l1.48.69c.44.2.75.34.94.41.66.21,1.06.1,1.19-.36a2.35,2.35,0,0,0-.26-1.63,9.37,9.37,0,0,0-.95-1.48C237.29,183.93,236.86,183.42,236.38,182.89Z"/><path class="cls-1" d="M249.37,189.23a6.66,6.66,0,0,1-.82,3.2,12.77,12.77,0,0,1-2.06,2.84,17.85,17.85,0,0,1-2.72,2.35,22.92,22.92,0,0,1-2.83,1.71l-1.64-1.85a27.33,27.33,0,0,0,2.83-1.56,18.07,18.07,0,0,0,2.54-1.94,10.06,10.06,0,0,0,1.85-2.24,4.8,4.8,0,0,0,.71-2.51,4,4,0,0,0-.53-2,18.5,18.5,0,0,0-1.1-1.77l1.88-1.89a11.73,11.73,0,0,1,1.44,2.81A8.78,8.78,0,0,1,249.37,189.23Z"/><path class="cls-1" d="M256,189a4.35,4.35,0,0,1-1.55-1.8,7.59,7.59,0,0,1-.64-2.49c-.08-.92-.12-1.83-.12-2.74V168.31l2.24-1.5,0,16.3a14,14,0,0,0,.08,1.46,3.34,3.34,0,0,0,.37,1.28,2.14,2.14,0,0,0,.91.9,3.27,3.27,0,0,0,1.63.34v2.63A5.15,5.15,0,0,1,256,189Z"/><path class="cls-1" d="M258,187.34c0-.09.09-.16.27-.19a2.51,2.51,0,0,1,.55-.06h1.43q3.87,0,3.87-2.74a3.29,3.29,0,0,0-.66-1.85,13.55,13.55,0,0,0-1.52-1.85c-.59-.59-1.18-1.14-1.78-1.65s-1.08-.93-1.41-1.26c.07-1.55.29-2.46.64-2.74a53.69,53.69,0,0,1,5.89-3.54q3.46-1.83,7.67-3.69l-.36,2.81c-.28.1-.73.29-1.33.57l-2.07,1-2.43,1.19c-.86.43-1.66.85-2.42,1.25s-1.43.77-2,1.1-1,.6-1.27.78q5.13,4.28,5.13,7.69a5.05,5.05,0,0,1-.57,2.44,5.29,5.29,0,0,1-1.51,1.74,7,7,0,0,1-2.16,1.05,8.77,8.77,0,0,1-2.52.35h-.61a2,2,0,0,1-.55-.07c-.18,0-.27-.1-.27-.17Z"/><path class="cls-1" d="M268.26,197.48c.92-.47,1.84-1,2.74-1.55a16.45,16.45,0,0,0,2.45-1.83,9.79,9.79,0,0,0,1.85-2.19,6.36,6.36,0,0,0,.93-2.65,6.66,6.66,0,0,1-1.16.46,4.26,4.26,0,0,1-1.26.18,3.72,3.72,0,0,1-2.35-.78,2.93,2.93,0,0,1-1-2.45,6.55,6.55,0,0,1,.26-1.78,6.75,6.75,0,0,1,.77-1.78,4.74,4.74,0,0,1,1.19-1.35,2.5,2.5,0,0,1,1.58-.54,2.88,2.88,0,0,1,2,.73,5.52,5.52,0,0,1,1.28,1.78,8.83,8.83,0,0,1,.67,2.21,12.13,12.13,0,0,1,.2,2,9.91,9.91,0,0,1-.71,3.79,12.27,12.27,0,0,1-1.89,3.13,15.13,15.13,0,0,1-2.7,2.53,25.64,25.64,0,0,1-3.17,2Zm5.8-10.17a4.24,4.24,0,0,0,1.14-.15,2.58,2.58,0,0,0,1-.49,6.43,6.43,0,0,0-.62-1.87,1.57,1.57,0,0,0-2.64-.22,2.23,2.23,0,0,0-.51,1.45,1,1,0,0,0,.51,1A2.74,2.74,0,0,0,274.06,187.31Z"/><path class="cls-1" d="M309.67,189.72c-2.06,0-3.29-.88-3.66-2.66a8.87,8.87,0,0,1-4.9,2.52,41.27,41.27,0,0,1-8.94.86c-1,0-2.09-.05-3.21-.13a11.3,11.3,0,0,1-3.07-.64,5.48,5.48,0,0,1-2.32-1.56,4.27,4.27,0,0,1-.9-2.87,5.9,5.9,0,0,1,.28-1.81,5.27,5.27,0,0,1,.82-1.6l1.67.46a4.67,4.67,0,0,0-.53,1.26,4.78,4.78,0,0,0-.14,1.19,2.09,2.09,0,0,0,.78,1.75,5.17,5.17,0,0,0,1.92.89,11.69,11.69,0,0,0,2.44.33c.86,0,1.65.06,2.36.06s1.57,0,2.49-.06,1.87-.09,2.83-.17,1.91-.2,2.83-.36a14.86,14.86,0,0,0,2.51-.62,6.94,6.94,0,0,0,1.85-.93,2.23,2.23,0,0,0,.91-1.31l.17-1,1.46-.5a7.29,7.29,0,0,0,.55,3.15,2.29,2.29,0,0,0,2.26,1.08h.11v2.63Zm-14.55,7.12-2.31-1.64,1.74-2.17,2.35,1.64Z"/><path class="cls-1" d="M310.24,189.72a2,2,0,0,1-.55-.07c-.18,0-.27-.1-.27-.17v-2.14c0-.09.09-.16.27-.19a2.51,2.51,0,0,1,.55-.06h3.31v2.63Z"/><path class="cls-1" d="M313.55,189.72a2,2,0,0,1-.55-.07c-.18,0-.27-.1-.27-.17v-2.14c0-.09.09-.16.27-.19a2.44,2.44,0,0,1,.55-.06h3.31v2.63Z"/><path class="cls-1" d="M337.42,189.72a3.73,3.73,0,0,1-2.07-.48,2.52,2.52,0,0,1-1-1.33,2.88,2.88,0,0,1-1.37,1.44,4.47,4.47,0,0,1-1.9.41,4.31,4.31,0,0,1-2-.46,3.48,3.48,0,0,1-1.43-1.39,3.12,3.12,0,0,1-1.63,1.46,5.83,5.83,0,0,1-2.07.39,4.11,4.11,0,0,1-1.86-.44,3,3,0,0,1-1.34-1.41,3.48,3.48,0,0,1-3.38,1.81h-.49a2.1,2.1,0,0,1-.56-.07c-.17,0-.26-.1-.26-.17v-2.14c0-.09.09-.16.26-.19a2.6,2.6,0,0,1,.56-.06h.07c2,0,2.95-1.11,2.95-3.34l1.78-.64a12.51,12.51,0,0,0,.09,1.54,4.45,4.45,0,0,0,.32,1.27,1.92,1.92,0,0,0,.69.85,2.11,2.11,0,0,0,1.25.32,2.9,2.9,0,0,0,2-.64,3.16,3.16,0,0,0,.72-2.42v-.28l1.77-.68c0,.5.07,1,.13,1.48a4.59,4.59,0,0,0,.35,1.3,2.35,2.35,0,0,0,.75.92,2.11,2.11,0,0,0,1.3.36,2.55,2.55,0,0,0,1.28-.29,2,2,0,0,0,.77-.76,3.59,3.59,0,0,0,.37-1.09,7.24,7.24,0,0,0,.11-1.24l1.63-.64c0,.59.06,1.13.11,1.62a3.64,3.64,0,0,0,.34,1.26,1.87,1.87,0,0,0,.78.82,3,3,0,0,0,1.44.28h.5v2.63Z"/><path class="cls-1" d="M337.56,187.34c0-.09.09-.16.27-.19a2.44,2.44,0,0,1,.55-.06h1.42q3.88,0,3.88-2.74a3.29,3.29,0,0,0-.66-1.85,14.42,14.42,0,0,0-1.53-1.85c-.58-.59-1.17-1.14-1.78-1.65s-1.07-.93-1.4-1.26c.07-1.55.28-2.46.64-2.74a52.76,52.76,0,0,1,5.89-3.54q3.46-1.83,7.66-3.69l-.35,2.81c-.29.1-.73.29-1.34.57l-2.06,1-2.44,1.19-2.42,1.25c-.76.4-1.43.77-2,1.1s-1,.6-1.26.78q5.13,4.28,5.12,7.69a5.05,5.05,0,0,1-.57,2.44,5.18,5.18,0,0,1-1.51,1.74,7,7,0,0,1-2.15,1.05,8.84,8.84,0,0,1-2.53.35h-.6a2,2,0,0,1-.55-.07c-.18,0-.27-.1-.27-.17Z"/><path class="cls-1" d="M360.51,189a4.28,4.28,0,0,1-1.55-1.8,7.13,7.13,0,0,1-.64-2.49c-.09-.92-.13-1.83-.13-2.74V168.31l2.24-1.5,0,16.3a14,14,0,0,0,.07,1.46,3.53,3.53,0,0,0,.37,1.28,2.25,2.25,0,0,0,.91.9,3.31,3.31,0,0,0,1.64.34v2.63A5.11,5.11,0,0,1,360.51,189Z"/><path class="cls-1" d="M360.26,195.24l1.53-2,2.1,1.53,1.49-1.78,2.1,1.53-1.6,1.92-2-1.56-1.46,1.81Zm2.31-7.9c0-.09.09-.16.27-.19a2.44,2.44,0,0,1,.55-.06h.71a5,5,0,0,0,2.22-.41,1.35,1.35,0,0,0,.84-1.3,2.57,2.57,0,0,0-.52-1.44c-.34-.51-.67-1-1-1.37l1.82-1.95a7.57,7.57,0,0,1,1.31,2.1,6.6,6.6,0,0,1,.5,2.45c0,3-1.78,4.55-5.33,4.55h-.57a2,2,0,0,1-.55-.07c-.18,0-.27-.1-.27-.17Z"/><path class="cls-2" d="M49,214.79a17.68,17.68,0,0,1-6.91-5.23A29.12,29.12,0,0,1,32,216.13a31.7,31.7,0,0,1-11.6,2.28,35.71,35.71,0,0,1-11.73-1.88A27.44,27.44,0,0,1,0,212l8.58-13.41a9.76,9.76,0,0,0,4.29,1.75,36.47,36.47,0,0,0,7.51.67,29.39,29.39,0,0,0,5.16-.47,24.22,24.22,0,0,0,4.76-1.34A15.46,15.46,0,0,0,34,197.09a5.16,5.16,0,0,0,1.94-2.68q-1.47-7.65-3-14.28T30,165.71l12.47-8.85L49.34,192a8.54,8.54,0,0,0,2.95,5.3q2.28,1.82,6.57,1.81v17.43A25.08,25.08,0,0,1,49,214.79Z"/><path class="cls-2" d="M63.15,199.1q8.58,0,8.58-3.09a4,4,0,0,0-.6-1.47c-.4-.72-.9-1.5-1.48-2.35s-1.18-1.72-1.81-2.61-1.11-1.61-1.47-2.15l9.92-13.81c.63.81,1.43,2,2.42,3.49a47.08,47.08,0,0,1,2.88,5.23,47.83,47.83,0,0,1,2.48,6.43A24.69,24.69,0,0,1,85.14,196q0,10.06-5.63,15.29t-16.36,5.23H58.86a8,8,0,0,1-2.08-.27c-.67-.18-1-.4-1-.67V200.17c0-.36.33-.62,1-.8a8,8,0,0,1,2.08-.27Zm10.46-30.84-5.3-3.69c-1.74-1.2-3.51-2.43-5.29-3.69,1.43-1.78,2.75-3.46,3.95-5s2.57-3.24,4.09-5q2.68,1.88,5.16,3.69t5.17,3.68Z"/><path class="cls-2" d="M109.36,216.13a42.35,42.35,0,0,1-4.63,12A48.89,48.89,0,0,1,97.22,238,67.15,67.15,0,0,1,87.64,246a112.54,112.54,0,0,1-10.73,6.57L64,242.14q3.61-1.87,9.18-4.89a75,75,0,0,0,10.66-7,47.8,47.8,0,0,0,8.78-9,17.61,17.61,0,0,0,3.69-10.72,7.23,7.23,0,0,0-.67-2.89,21.9,21.9,0,0,0-1.61-3c-.62-1-1.27-1.95-1.94-2.89s-1.23-1.76-1.68-2.48l11.26-11.39,2.15,3.62a28.41,28.41,0,0,0,2.61,3.68,16.23,16.23,0,0,0,3,2.82,6.11,6.11,0,0,0,3.62,1.14v17.43A16.53,16.53,0,0,1,109.36,216.13Z"/><path class="cls-2" d="M178.6,245.36,150.44,254l-1.88-6.44,28.16-8.58Z"/><path class="cls-2" d="M113.11,216.53a8,8,0,0,1-2.08-.27c-.67-.18-1-.4-1-.67V200.17c0-.36.33-.62,1-.8a8,8,0,0,1,2.08-.27h13.41v17.43Z"/><path class="cls-2" d="M126.52,216.53a8,8,0,0,1-2.08-.27c-.67-.18-1-.4-1-.67V200.17c0-.36.34-.62,1-.8a8,8,0,0,1,2.08-.27h13.41v17.43Z"/><path class="cls-2" d="M139.92,216.53a7.94,7.94,0,0,1-2.07-.27c-.67-.18-1-.4-1-.67V200.17c0-.36.34-.62,1-.8a7.94,7.94,0,0,1,2.07-.27h13.41v17.43Z"/><path class="cls-2" d="M164,238.62q-2.69-1.87-5.29-3.68l-5.3-3.69q2.14-2.69,4-5t4.09-5q2.67,1.88,5.16,3.69c1.65,1.21,3.37,2.43,5.16,3.69Zm-6.33-39.52q8.58,0,8.58-3.09a4,4,0,0,0-.6-1.47c-.4-.72-.9-1.5-1.48-2.35s-1.18-1.72-1.81-2.61-1.11-1.61-1.47-2.15l9.92-13.81c.63.81,1.43,2,2.42,3.49a47.08,47.08,0,0,1,2.88,5.23,47.83,47.83,0,0,1,2.48,6.43,24.69,24.69,0,0,1,1.07,7.24q0,10.06-5.63,15.29t-16.36,5.23h-4.29a8,8,0,0,1-2.08-.27c-.67-.18-1-.4-1-.67V200.17c0-.36.33-.62,1-.8a8,8,0,0,1,2.08-.27Z"/><path class="cls-2" d="M10.79,34.68A8.71,8.71,0,0,0,10,36.53c-.28.79-.53,1.61-.74,2.46s-.4,1.72-.54,2.59a14.37,14.37,0,0,0-.2,2.22,10.94,10.94,0,0,0,.57,3.45,7.56,7.56,0,0,0,2,3.08,10,10,0,0,0,3.82,2.18,19,19,0,0,0,6,.82,40.33,40.33,0,0,0,5.8-.45,41,41,0,0,0,5.91-1.31,36.29,36.29,0,0,0,5.14-2,9.19,9.19,0,0,0,3.37-2.5,1.91,1.91,0,0,0,.45-.78.41.41,0,0,0-.12-.42,1.23,1.23,0,0,0-.66-.12l-3.25-.2c-1.34-.09-2.75-.21-4.23-.37s-2.89-.39-4.23-.66a9.28,9.28,0,0,1-3.16-1.15,6.32,6.32,0,0,1-2.67-3.12,12.5,12.5,0,0,1-.78-4.61,13.79,13.79,0,0,1,1.76-6.16A29,29,0,0,1,35.4,17.87a15,15,0,0,1,7.52-2.09,15.25,15.25,0,0,1,4.52.66,30.8,30.8,0,0,1,3.45,1.23l-3.7,9.86c-.49-.22-1.1-.45-1.81-.7a7.4,7.4,0,0,0-2.46-.37,10.51,10.51,0,0,0-3.86.74,16.67,16.67,0,0,0-3.5,1.85,15.16,15.16,0,0,0-2.79,2.46,9.26,9.26,0,0,0-1.69,2.59l4.48.5,4.48.49a20.14,20.14,0,0,1,5.71,1.44,7.41,7.41,0,0,1,3,2.26,6.23,6.23,0,0,1,1.15,2.83,23.23,23.23,0,0,1,.21,3.17,9.7,9.7,0,0,1-1.36,4.84,19.49,19.49,0,0,1-3.61,4.52,31.59,31.59,0,0,1-5.22,4,43.44,43.44,0,0,1-6.21,3.12,42.14,42.14,0,0,1-6.53,2.06,28.61,28.61,0,0,1-6.25.73,24.21,24.21,0,0,1-10-1.8,17.59,17.59,0,0,1-6.33-4.69A16.66,16.66,0,0,1,1.21,51,28.48,28.48,0,0,1,.27,43.8,21.81,21.81,0,0,1,.6,40.14c.22-1.28.49-2.54.82-3.78a35,35,0,0,1,1.11-3.45,18.65,18.65,0,0,1,1.19-2.59Z"/><path class="cls-2" d="M64,0q.17,5.43.21,12.08t.08,13.27q0,6.62,0,12.49c0,3.92.06,7.16.17,9.74l-8.22,3c-.11-2.9-.17-6.4-.17-10.48s0-8.3,0-12.65S56,18.82,56,14.55s-.09-8.08-.2-11.43Z"/><path class="cls-2" d="M81.9,49.39a26,26,0,0,1-2.84,7.35,30.22,30.22,0,0,1-4.6,6,40.63,40.63,0,0,1-5.88,4.93,67.66,67.66,0,0,1-6.57,4l-7.89-6.41q2.22-1.15,5.63-3A45.75,45.75,0,0,0,66.28,58a29.17,29.17,0,0,0,5.38-5.51,10.79,10.79,0,0,0,2.26-6.57,4.35,4.35,0,0,0-.41-1.77,13.15,13.15,0,0,0-1-1.85c-.39-.6-.78-1.19-1.19-1.77s-.76-1.08-1-1.52l6.9-7q.57,1,1.32,2.22a17.23,17.23,0,0,0,1.6,2.26A9.6,9.6,0,0,0,82,38.25a3.69,3.69,0,0,0,2.22.7V49.63A10.41,10.41,0,0,1,81.9,49.39Z"/><path class="cls-2" d="M84.2,49.63a4.93,4.93,0,0,1-1.28-.16c-.41-.11-.61-.25-.61-.41V39.61c0-.22.2-.38.61-.49A4.94,4.94,0,0,1,84.2,39h8.21V49.63Z"/><path class="cls-2" d="M89.17,49.63a4.93,4.93,0,0,1-1.28-.16c-.41-.11-.61-.25-.61-.41V39.61c0-.22.2-.38.61-.49A4.94,4.94,0,0,1,89.17,39h8.21V49.63Z"/><path class="cls-2" d="M97.38,49.63a4.86,4.86,0,0,1-1.27-.16c-.41-.11-.62-.25-.62-.41V39.61c0-.22.21-.38.62-.49A4.86,4.86,0,0,1,97.38,39h8.22V49.63Z"/><path class="cls-2" d="M105.6,49.63a4.86,4.86,0,0,1-1.27-.16c-.42-.11-.62-.25-.62-.41V39.61c0-.22.2-.38.62-.49A4.86,4.86,0,0,1,105.6,39h8.22V49.63Z"/><path class="cls-2" d="M113.82,49.63a4.93,4.93,0,0,1-1.28-.16c-.41-.11-.61-.25-.61-.41V39.61c0-.22.2-.38.61-.49a4.94,4.94,0,0,1,1.28-.17H122V49.63Z"/><path class="cls-2" d="M128.36,39a26.66,26.66,0,0,0,4.77-.45,47,47,0,0,0,4.93-1.19,48.88,48.88,0,0,0,4.8-1.73,32.84,32.84,0,0,0,4.24-2.13q-1.24-.59-2.67-1.2c-1-.41-1.87-.78-2.72-1.11s-1.63-.6-2.34-.82a6.06,6.06,0,0,0-1.64-.33,4.84,4.84,0,0,0-2.71,1A12,12,0,0,0,132.63,33l-6.57-4c.49-.71,1.16-1.59,2-2.63a23.7,23.7,0,0,1,2.84-2.92,20,20,0,0,1,3.33-2.34,7.08,7.08,0,0,1,3.49-1,12.51,12.51,0,0,1,4.72.95c1.56.63,3.22,1.35,5,2.18l2.3,1.15a20.55,20.55,0,0,0,3.41,1.27,35.73,35.73,0,0,0,5.26,1,56.15,56.15,0,0,0,7.84.33l-3.12,11.17a43.65,43.65,0,0,0-4.85.7,25.4,25.4,0,0,0-7,2.55c-1,.52-1.91,1-2.84,1.6L144.1,45.4a39.5,39.5,0,0,1-4.6,2.14,32.53,32.53,0,0,1-5.18,1.52,29.41,29.41,0,0,1-6,.57H122a4.91,4.91,0,0,1-1.27-.16c-.41-.11-.62-.25-.62-.41V39.61c0-.22.21-.38.62-.49A4.92,4.92,0,0,1,122,39Zm15,27.45-3.25-2.26-3.24-2.26,2.42-3.08c.74-1,1.58-2,2.51-3.09L145,58c1,.74,2.07,1.5,3.16,2.26Z"/><path class="cls-2" d="M179.12,0q.16,5.43.2,12.08t.09,13.27q0,6.62,0,12.49c0,3.92.05,7.16.16,9.74l-8.22,3c-.11-2.9-.16-6.4-.16-10.48s0-8.3,0-12.65-.06-8.67-.08-12.94-.1-8.08-.21-11.43Z"/><path class="cls-2" d="M30.34,123a19.6,19.6,0,0,1-5-.58,10.9,10.9,0,0,1-3.7-1.73A10.21,10.21,0,0,1,19,117.85a18.67,18.67,0,0,1-1.8-3.95,24.89,24.89,0,0,1-4.44,1.56,16.94,16.94,0,0,1-4.11.58c-2.9,0-5-.93-6.37-2.79a11.25,11.25,0,0,1-2-6.74,10.44,10.44,0,0,1,1.23-5,19.22,19.22,0,0,1,3.08-4.24,26.09,26.09,0,0,1,4-3.41,42.85,42.85,0,0,1,4.07-2.46l-.5-3,7.56-5.59,4.36,24.32a7.63,7.63,0,0,0,1.72,4c.83.85,2.33,1.27,4.52,1.27ZM15.06,105.19a6.82,6.82,0,0,0-.12-.94c-.09-.47-.18-1-.29-1.56s-.21-1.1-.29-1.56a8.59,8.59,0,0,0-.2-.95c-.33.16-.85.47-1.57.9a18.15,18.15,0,0,0-2.09,1.52,12.53,12.53,0,0,0-1.77,1.81,2.19,2.19,0,0,0-.57,1.77q.08.73,1,.78a7.38,7.38,0,0,0,2.14-.25,13.59,13.59,0,0,0,2.26-.74A6.72,6.72,0,0,0,15.06,105.19Z"/><path class="cls-2" d="M36.67,112.34a26.66,26.66,0,0,0,4.77-.45,47,47,0,0,0,4.93-1.19,46.43,46.43,0,0,0,4.8-1.73,31.61,31.61,0,0,0,4.24-2.13c-.82-.39-1.72-.78-2.67-1.19s-1.87-.79-2.72-1.11-1.63-.61-2.34-.83a6.37,6.37,0,0,0-1.64-.32,4.83,4.83,0,0,0-2.71.94,11.68,11.68,0,0,0-2.39,2.1l-6.57-4c.49-.71,1.16-1.59,2-2.63a24.42,24.42,0,0,1,2.84-2.92,20,20,0,0,1,3.33-2.34,7.08,7.08,0,0,1,3.49-1,12.51,12.51,0,0,1,4.72,1c1.57.63,3.22,1.36,5,2.18L58,97.8a20.55,20.55,0,0,0,3.41,1.27,35.73,35.73,0,0,0,5.26,1,56.15,56.15,0,0,0,7.84.33L71.43,111.6a43.65,43.65,0,0,0-4.85.7,25.4,25.4,0,0,0-7,2.55c-1,.52-1.91,1.05-2.84,1.6l-4.31,2.34a38.75,38.75,0,0,1-4.6,2.14,32.53,32.53,0,0,1-5.18,1.52,29.39,29.39,0,0,1-6,.58H30.34a4.92,4.92,0,0,1-1.27-.17c-.41-.11-.62-.25-.62-.41V113c0-.22.21-.38.62-.49a4.92,4.92,0,0,1,1.27-.17ZM41,135.76c.76-1.09,1.53-2.12,2.3-3.08s1.53-2,2.3-3.08l5,3.78,3.53-4.27c1.1.76,2.17,1.52,3.21,2.26l3.2,2.26c-.76,1-1.56,2.06-2.38,3.08s-1.62,2-2.38,3l-4.93-3.78-3.54,4.27Zm5.91,8.47c.77-.88,1.51-1.76,2.22-2.63s1.43-1.73,2.14-2.55c.93.77,1.85,1.51,2.75,2.22s1.82,1.42,2.75,2.13c-.76.94-1.5,1.88-2.21,2.84s-1.46,1.9-2.22,2.83Z"/><path class="cls-2" d="M84,105.44c.44.71,1,1.59,1.52,2.63a30.89,30.89,0,0,1,1.61,3.41,33.61,33.61,0,0,1,1.27,3.9,16.43,16.43,0,0,1,.53,4.19,19.1,19.1,0,0,1-1.64,7.89,27.24,27.24,0,0,1-4.4,6.86,39.92,39.92,0,0,1-6.41,5.88,66.47,66.47,0,0,1-7.68,4.93l-7.89-6.41c1.86-1,4-2.12,6.25-3.41A49,49,0,0,0,73.65,131a26,26,0,0,0,5-5.26,10.39,10.39,0,0,0,2-6.13,4.52,4.52,0,0,0-.41-1.76,20.88,20.88,0,0,0-1-1.89c-.36-.63-.74-1.25-1.15-1.85l-1.11-1.65Z"/><path class="cls-2" d="M101.26,121.75a11.39,11.39,0,0,1-4.19-3.41,14.1,14.1,0,0,1-2.34-4.85,20.8,20.8,0,0,1-.74-5.58l-.09-31.4,8.22-3,.08,34.44a4.6,4.6,0,0,0,1.2,3c.79.93,2.15,1.39,4.06,1.39V123A13.91,13.91,0,0,1,101.26,121.75Z"/><path class="cls-2" d="M125.87,123q-6.24,0-9.29-3.29a12.19,12.19,0,0,1-4.51,2.55,16.23,16.23,0,0,1-4.61.74,4.92,4.92,0,0,1-1.27-.17c-.41-.11-.62-.25-.62-.41V113c0-.22.21-.38.62-.49a4.92,4.92,0,0,1,1.27-.17,8.81,8.81,0,0,0,1.77-.2,5.9,5.9,0,0,0,1.77-.7,4.23,4.23,0,0,0,1.35-1.28,3.44,3.44,0,0,0,.54-2V106.1l8.21-2.71v3.53a6.89,6.89,0,0,0,1.28,4.15,4.38,4.38,0,0,0,3.49,1.27H127V123Zm-18.24,12.81c.76-1.09,1.53-2.12,2.3-3.08s1.53-2,2.3-3.08l5,3.78,3.54-4.27,3.2,2.26,3.21,2.26c-.77,1-1.57,2.07-2.39,3.08s-1.61,2-2.38,3L117.49,136,114,140.28Zm5.91,8.47c.77-.88,1.51-1.76,2.22-2.63s1.43-1.73,2.14-2.55c.93.77,1.85,1.51,2.75,2.22l2.76,2.14c-.77.93-1.51,1.87-2.22,2.83s-1.46,1.91-2.22,2.84Z"/><path class="cls-2" d="M162.85,123a14.6,14.6,0,0,1-4.15-.58,14.38,14.38,0,0,1-3.78-1.77,32.29,32.29,0,0,1-3.82-2.91c-1.32-1.15-2.74-2.52-4.28-4.11a11.59,11.59,0,0,1-1.64,3.61,9.71,9.71,0,0,1-3.45,3,21.07,21.07,0,0,1-5.88,2A44.65,44.65,0,0,1,127,123a4.86,4.86,0,0,1-1.27-.17c-.41-.11-.62-.25-.62-.41V113c0-.22.21-.38.62-.49a4.86,4.86,0,0,1,1.27-.17,47.24,47.24,0,0,0,6.78-.37,12.19,12.19,0,0,0,3.62-1,2.83,2.83,0,0,0,1.47-1.4,4.21,4.21,0,0,0,.29-1.52,5.93,5.93,0,0,0-1.48-3.49,33.87,33.87,0,0,0-3.49-3.87q-2-1.92-4.07-3.69A26,26,0,0,1,127,93.94l.16-4.44a9.48,9.48,0,0,1,1.2-3.7A13.13,13.13,0,0,1,129.81,84c.55-.44,1.43-1,2.63-1.81s2.63-1.64,4.28-2.63,3.45-2,5.42-3.08,4-2.13,6-3.2,4-2.07,5.92-3,3.67-1.75,5.26-2.47V79.72q-2.88,1.23-5.88,2.67l-5.88,2.83c-1.91.94-3.73,1.88-5.46,2.84s-3.3,1.85-4.73,2.67q2.88,2.72,5.8,5.71t6.53,6.62c1.53,1.59,2.88,3,4,4.11a34.7,34.7,0,0,0,3.2,2.87,12.78,12.78,0,0,0,2.88,1.73,8,8,0,0,0,3,.57h.66V123Z"/><path class="cls-2" d="M175.58,133.13c-.76,1.1-1.53,2.13-2.3,3.08s-1.53,2-2.3,3.09l-5-3.78-3.53,4.19-3.21-2.22c-1-.71-2.11-1.45-3.2-2.22.76-1,1.56-2.06,2.38-3s1.62-2,2.38-3l5.26,4.11,3.13-4.6Zm-9.45-20.79q5.26,0,5.26-1.89a2.37,2.37,0,0,0-.37-.9,16.15,16.15,0,0,0-.9-1.44l-1.11-1.6-.9-1.32,6.08-8.46c.38.49.87,1.2,1.48,2.14A29.12,29.12,0,0,1,179,106a14.9,14.9,0,0,1,.66,4.43q0,6.17-3.45,9.37t-10,3.21H163.5a4.92,4.92,0,0,1-1.27-.17c-.41-.11-.62-.25-.62-.41V113c0-.22.21-.38.62-.49a4.92,4.92,0,0,1,1.27-.17Z"/></svg>