<svg id="Layer_1" data-name="Layer 1" xmlns="http://www.w3.org/2000/svg" viewBox="0 0 350 37.35"><defs><style>.cls-1{fill:#231f20;}</style></defs><path class="cls-1" d="M28.88,25.3a6.17,6.17,0,0,1-2.21-.4,9.23,9.23,0,0,1-2-1A9.86,9.86,0,0,1,23,22.39a14.66,14.66,0,0,1-1.39-1.71,4,4,0,0,1-.72,2.2,5.6,5.6,0,0,1-1.66,1.51,9.13,9.13,0,0,1-2.26,1,18.54,18.54,0,0,1-2.56.56c-.87.12-1.7.2-2.5.23s-1.5.06-2.11.06Q0,26.22,0,20.48a9.93,9.93,0,0,1,1.25-4.25l2.5.74A6.64,6.64,0,0,0,3,19.27a2.13,2.13,0,0,0,.44,1.38,3.38,3.38,0,0,0,1.11.89,5.82,5.82,0,0,0,1.54.53,12.62,12.62,0,0,0,1.72.21c.57,0,1.11.06,1.6.06h1.25c.36,0,.83,0,1.4,0s1.18-.06,1.82-.12a17.12,17.12,0,0,0,2-.28,13.89,13.89,0,0,0,1.79-.49,4.13,4.13,0,0,0,1.3-.73,1.46,1.46,0,0,0,.54-1,1.79,1.79,0,0,0-.32-.83,12.33,12.33,0,0,0-.81-1.13,15.22,15.22,0,0,0-1.1-1.23l-1.16-1.2-1-1a3.64,3.64,0,0,1-.57-.68,5.87,5.87,0,0,1,.07-.79,8.21,8.21,0,0,1,.2-1.06c.09-.36.19-.69.3-1a1,1,0,0,1,.44-.59,52.11,52.11,0,0,1,6-2.58q3.71-1.37,8.84-2.95L30,8.33c-2.11.52-4.19,1.08-6.22,1.67a62.44,62.44,0,0,0-6,2.11.56.56,0,0,0-.32.22c-.05.1,0,.22.19.36q1.28,1,2.61,2.19c.89.81,1.84,1.7,2.85,2.66.5.48,1,.94,1.49,1.4a12.33,12.33,0,0,0,1.52,1.24,7.23,7.23,0,0,0,1.65.87,5.2,5.2,0,0,0,1.92.34h1.55V25.3Zm.78-21.76q-3.69,1.18-6.13,2c-1.63.54-3,1-4,1.37s-1.83.67-2.39.89-1,.42-1.32.58l.37-1.86q1.69-.78,5.08-2c2.26-.81,5.14-1.79,8.62-2.93Z"/><path class="cls-1" d="M38.53,25.3a3,3,0,0,1-3.1-1.75,4.46,4.46,0,0,1-3.95,1.75h-.31a2.31,2.31,0,0,1-.52-.06c-.17,0-.25-.1-.25-.17V21.66c0-.09.08-.16.25-.2a1.86,1.86,0,0,1,.52-.07h.17c1.69,0,2.53-.57,2.53-1.72V18.32l2.77-.88v.85c0,2.07.68,3.1,2,3.1h.2V25.3ZM37.05,12.79l-2,2.7-2.8-1.89,2.06-2.74Z"/><path class="cls-1" d="M43.66,29.56,42,31.85,39.78,30.4l-1.25,1.69L35.9,30.4l1.79-2.33,2.19,1.49,1.21-1.73Zm-5.57-7.9c0-.09.09-.16.25-.2a1.88,1.88,0,0,1,.53-.07h2.22c1.15,0,1.72-.27,1.72-.81a1.12,1.12,0,0,0-.06-.35,4.45,4.45,0,0,0-.27-.53c-.14-.22-.33-.5-.58-.82s-.57-.75-1-1.27l2.19-3.1a5.73,5.73,0,0,1,1.63,2.33,7.73,7.73,0,0,1,.6,3,6,6,0,0,1-.46,2.41A4.51,4.51,0,0,1,43.64,24a5.22,5.22,0,0,1-1.87,1,8,8,0,0,1-2.33.33h-.57a2.33,2.33,0,0,1-.53-.06c-.16,0-.25-.1-.25-.17Z"/><path class="cls-1" d="M63.29,25.3a5.48,5.48,0,0,1-2.75-.72,5.18,5.18,0,0,1-2-2q-1.32,3.13-5.43,3.13c-2.18,0-3.77-.59-4.76-1.79l1.22-3.1a4.53,4.53,0,0,0,1.72.78,9.25,9.25,0,0,0,2.36.3,9,9,0,0,0,1.38-.1,5,5,0,0,0,1.2-.32A2.38,2.38,0,0,0,57.1,21a1.09,1.09,0,0,0,.32-.81.87.87,0,0,0-.05-.28c0-.13-.12-.41-.27-.86s-.38-1.14-.71-2.06-.77-2.21-1.33-3.85l2.7-2.43c.7,2.25,1.25,4.07,1.67,5.47a27.67,27.67,0,0,0,1.15,3.25A3.9,3.9,0,0,0,61.69,21a2.65,2.65,0,0,0,1.57.42H64V25.3Z"/><path class="cls-1" d="M63.19,21.66c0-.09.09-.16.26-.2a1.77,1.77,0,0,1,.52-.07H66.2c1.14,0,1.72-.27,1.72-.81a1.15,1.15,0,0,0-.07-.35,4.45,4.45,0,0,0-.27-.53c-.14-.22-.33-.5-.57-.82l-1-1.27,2.19-3.1a5.84,5.84,0,0,1,1.64,2.33,7.9,7.9,0,0,1,.59,3A5.79,5.79,0,0,1,70,22.25,4.51,4.51,0,0,1,68.74,24a5.22,5.22,0,0,1-1.87,1,8,8,0,0,1-2.33.33H64a2.18,2.18,0,0,1-.52-.06c-.17,0-.26-.1-.26-.17Zm6.14-11.34-2,2.7-2.8-1.89L66.57,8.4Z"/><path class="cls-1" d="M79.2,25.1a2.53,2.53,0,0,1-.66-.47,8.32,8.32,0,0,1-1.13,2.72,13.26,13.26,0,0,1-2,2.42,21.42,21.42,0,0,1-2.59,2.15c-1,.67-1.94,1.3-3,1.89L67,31.58c.72-.36,1.58-.83,2.59-1.4a28.74,28.74,0,0,0,2.9-1.87,15.33,15.33,0,0,0,2.35-2.09,3.22,3.22,0,0,0,1-2.1,2.06,2.06,0,0,0-.2-.84c-.14-.29-.29-.58-.47-.88s-.36-.56-.54-.81l-.44-.6,2.6-2.8q.36.57.69,1.14a6.16,6.16,0,0,0,.69,1,3.49,3.49,0,0,0,.81.74,1.79,1.79,0,0,0,1,.29V25.3A1.63,1.63,0,0,1,79.2,25.1Z"/><path class="cls-1" d="M79.22,21.66c0-.09.08-.16.25-.2a1.81,1.81,0,0,1,.52-.07h2.23c1.15,0,1.72-.27,1.72-.81a.91.91,0,0,0-.07-.35,2.63,2.63,0,0,0-.27-.53,7.92,7.92,0,0,0-.57-.82c-.25-.33-.57-.75-1-1.27l2.2-3.1a5.82,5.82,0,0,1,1.63,2.33,7.9,7.9,0,0,1,.59,3A6,6,0,0,1,86,22.25,4.62,4.62,0,0,1,84.77,24a5.22,5.22,0,0,1-1.87,1,8,8,0,0,1-2.33.33H80a2.24,2.24,0,0,1-.52-.06c-.17,0-.25-.1-.25-.17ZM80,30.53l2-2.7,2.81,1.89-2.06,2.74Z"/><path class="cls-1" d="M105.3,29.25l-7.63,2L97.44,30,105,27.9Z"/><path class="cls-1" d="M109.48,25.3a5.48,5.48,0,0,1-2.75-.72,5.18,5.18,0,0,1-2-2q-1.32,3.13-5.43,3.13c-2.19,0-3.77-.59-4.76-1.79l1.21-3.1a4.69,4.69,0,0,0,1.72.78,9.39,9.39,0,0,0,2.37.3,9,9,0,0,0,1.38-.1,5,5,0,0,0,1.2-.32,2.38,2.38,0,0,0,.84-.56,1.13,1.13,0,0,0,.32-.81,1.28,1.28,0,0,0,0-.28c0-.13-.12-.41-.27-.86s-.38-1.14-.71-2.06-.77-2.21-1.33-3.85l2.7-2.43c.7,2.25,1.25,4.07,1.67,5.47a25.94,25.94,0,0,0,1.15,3.25A3.81,3.81,0,0,0,107.88,21a2.65,2.65,0,0,0,1.57.42h.71V25.3Z"/><path class="cls-1" d="M117.51,25.3a3,3,0,0,1-3.1-1.75,4.46,4.46,0,0,1-4,1.75h-.3a2.33,2.33,0,0,1-.53-.06c-.17,0-.25-.1-.25-.17V21.66c0-.09.08-.16.25-.2a1.88,1.88,0,0,1,.53-.07h.17c1.68,0,2.53-.57,2.53-1.72V18.32l2.76-.88v.85c0,2.07.68,3.1,2,3.1h.2V25.3ZM116,12.79l-2,2.7-2.8-1.89,2.06-2.74Z"/><path class="cls-1" d="M122.64,29.56,121,31.85l-2.19-1.45-1.25,1.69-2.63-1.69,1.79-2.33,2.19,1.49,1.22-1.73Zm-5.57-7.9c0-.09.09-.16.26-.2a1.77,1.77,0,0,1,.52-.07h2.23c1.14,0,1.72-.27,1.72-.81a1.15,1.15,0,0,0-.07-.35,4.45,4.45,0,0,0-.27-.53c-.14-.22-.33-.5-.57-.82l-1-1.27,2.19-3.1a5.84,5.84,0,0,1,1.64,2.33,7.9,7.9,0,0,1,.59,3,6,6,0,0,1-.46,2.41,4.51,4.51,0,0,1-1.25,1.7,5.22,5.22,0,0,1-1.87,1,8,8,0,0,1-2.33.33h-.57a2.18,2.18,0,0,1-.52-.06c-.17,0-.26-.1-.26-.17Z"/><path class="cls-1" d="M135,1.55a5.55,5.55,0,0,1-1.67,1.64,4.09,4.09,0,0,1-2.18.62,6.54,6.54,0,0,1-1.5-.18,10.1,10.1,0,0,0-1.52-.27,4.52,4.52,0,0,0-1.47.06,2.52,2.52,0,0,0-1.31.83L124.19,2.7a4.24,4.24,0,0,1,1.57-1.25,4,4,0,0,1,1.54-.29,8.58,8.58,0,0,1,1.61.21,11.23,11.23,0,0,0,1.79.22A4,4,0,0,0,134.18,0Zm-3.85,23.32-3.44.91V6.34L131.14,5Z"/><path class="cls-1" d="M139.9,25.1a2.53,2.53,0,0,1-.66-.47,8.32,8.32,0,0,1-1.13,2.72,13.69,13.69,0,0,1-2,2.42,21.54,21.54,0,0,1-2.6,2.15c-1,.67-1.94,1.3-3,1.89l-2.87-2.23c.72-.36,1.59-.83,2.6-1.4a29.91,29.91,0,0,0,2.9-1.87,15.71,15.71,0,0,0,2.34-2.09,3.19,3.19,0,0,0,1-2.1,1.93,1.93,0,0,0-.21-.84,8.42,8.42,0,0,0-.47-.88q-.27-.43-.54-.81c-.18-.24-.32-.45-.44-.6l2.6-2.8q.38.57.69,1.14a7.68,7.68,0,0,0,.69,1,3.49,3.49,0,0,0,.81.74,1.82,1.82,0,0,0,1.05.29V25.3A1.63,1.63,0,0,1,139.9,25.1Z"/><path class="cls-1" d="M139.91,21.66c0-.09.09-.16.26-.2a1.81,1.81,0,0,1,.52-.07h2.66c.79,0,1.51,0,2.16,0a8,8,0,0,0,1.69-.18,2.61,2.61,0,0,0,1.11-.52,1.45,1.45,0,0,0,.44-1.07,4.22,4.22,0,0,1-1.19.49,5.44,5.44,0,0,1-1.27.15,3.68,3.68,0,0,1-2.36-.74,2.77,2.77,0,0,1-1-2.33,7.12,7.12,0,0,1,.24-1.75,6.37,6.37,0,0,1,.71-1.74,4.26,4.26,0,0,1,1.18-1.31,2.69,2.69,0,0,1,1.65-.53,3,3,0,0,1,2.18.85,6.46,6.46,0,0,1,1.38,2,10.09,10.09,0,0,1,.73,2.51,16.24,16.24,0,0,1,.2,2.28,5.89,5.89,0,0,1-.66,3,4.75,4.75,0,0,1-1.7,1.77,6.73,6.73,0,0,1-2.35.85,16,16,0,0,1-2.58.21h-3.27a2.24,2.24,0,0,1-.52-.06c-.17,0-.26-.1-.26-.17Zm8.88-14.41-2,2.7L144,8.06,146,5.33Zm-2.3,10.09a2,2,0,0,0,.95-.25,4.67,4.67,0,0,0,.84-.59,3.93,3.93,0,0,0-.71-1.2,1.44,1.44,0,0,0-1.11-.49,1.15,1.15,0,0,0-.9.49,1.61,1.61,0,0,0-.38,1,.89.89,0,0,0,.42.83A1.69,1.69,0,0,0,146.49,17.34Z"/><path class="cls-1" d="M174.26,25.3a5.46,5.46,0,0,1-2.75-.72,5.18,5.18,0,0,1-2-2q-1.32,3.13-5.44,3.13c-2.18,0-3.76-.59-4.75-1.79l1.21-3.1a4.61,4.61,0,0,0,1.72.78,9.31,9.31,0,0,0,2.36.3,9,9,0,0,0,1.39-.1,4.79,4.79,0,0,0,1.19-.32,2.52,2.52,0,0,0,.85-.56,1.13,1.13,0,0,0,.32-.81,1.28,1.28,0,0,0,0-.28l-.27-.86c-.15-.45-.38-1.14-.71-2.06s-.77-2.21-1.33-3.85l2.7-2.43q1,3.38,1.67,5.47a26.18,26.18,0,0,0,1.14,3.25A3.82,3.82,0,0,0,172.66,21a2.63,2.63,0,0,0,1.57.42h.7V25.3Z"/><path class="cls-1" d="M174.93,25.3a2.24,2.24,0,0,1-.52-.06c-.17,0-.25-.1-.25-.17V21.66c0-.09.08-.16.25-.2a1.81,1.81,0,0,1,.52-.07h3.38V25.3Z"/><path class="cls-1" d="M178.31,25.3a2.33,2.33,0,0,1-.53-.06c-.16,0-.25-.1-.25-.17V21.66c0-.09.09-.16.25-.2a1.88,1.88,0,0,1,.53-.07h3.37V25.3Z"/><path class="cls-1" d="M181.68,25.3a2.24,2.24,0,0,1-.52-.06c-.17,0-.25-.1-.25-.17V21.66c0-.09.08-.16.25-.2a1.81,1.81,0,0,1,.52-.07h3.38V25.3Z"/><path class="cls-1" d="M185.05,25.3a2.31,2.31,0,0,1-.52-.06c-.17,0-.25-.1-.25-.17V21.66c0-.09.08-.16.25-.2a1.86,1.86,0,0,1,.52-.07h3.38V25.3Z"/><path class="cls-1" d="M188.43,25.3a2.18,2.18,0,0,1-.52-.06c-.17,0-.26-.1-.26-.17V21.66c0-.09.09-.16.26-.2a1.77,1.77,0,0,1,.52-.07h3.37V25.3Z"/><path class="cls-1" d="M191.8,25.3a2.24,2.24,0,0,1-.52-.06c-.17,0-.25-.1-.25-.17V21.66c0-.09.08-.16.25-.2a1.81,1.81,0,0,1,.52-.07h3.38V25.3Z"/><path class="cls-1" d="M195.18,25.3a2.33,2.33,0,0,1-.53-.06c-.17,0-.25-.1-.25-.17V21.66c0-.09.08-.16.25-.2a1.88,1.88,0,0,1,.53-.07h3.37V25.3Z"/><path class="cls-1" d="M197.77,21.66c0-.09.09-.16.26-.2a1.77,1.77,0,0,1,.52-.07h.88c.94,0,1.41-.56,1.41-1.69V18.42l2.6-.74v.74a10,10,0,0,0,.1,1.5,2.4,2.4,0,0,0,.31.91,1,1,0,0,0,.52.44,2.26,2.26,0,0,0,.79.12h.2l2.18-2.45a32.12,32.12,0,0,1,2.4-2.41,14.36,14.36,0,0,1,2.51-1.84A5.13,5.13,0,0,1,215,14a4.51,4.51,0,0,1,1.67.3,3.82,3.82,0,0,1,2.48,3.65,5.82,5.82,0,0,1-1,3.42,8,8,0,0,1-2.43,2.29,10.2,10.2,0,0,1-3.14,1.29,13.89,13.89,0,0,1-3.13.38H205.2a3.9,3.9,0,0,1-1.72-.4,2.28,2.28,0,0,1-1.19-1.35,3.5,3.5,0,0,1-3.13,1.75h-.61a2.18,2.18,0,0,1-.52-.06c-.17,0-.26-.1-.26-.17Zm16.3-4a4.3,4.3,0,0,0-2.68,1,37.53,37.53,0,0,0-3,2.7h.94l1,0c.44,0,.93-.06,1.45-.12s1.07-.14,1.62-.25a11.46,11.46,0,0,0,1.52-.43,3.31,3.31,0,0,0,1.13-.64,1.19,1.19,0,0,0,.44-.92.89.89,0,0,0-.25-.66,1.86,1.86,0,0,0-.63-.41,3.81,3.81,0,0,0-.77-.22A5,5,0,0,0,214.07,17.65Z"/><path class="cls-1" d="M225.32,24.75a4,4,0,0,1-1.65-1.54,6.24,6.24,0,0,1-.81-2.33A21.42,21.42,0,0,1,222.6,18c0-.5,0-1.2-.06-2.13s0-1.92-.07-3-.05-2.19-.08-3.32-.07-2.19-.09-3.16L225.61,5V18.35a3.55,3.55,0,0,0,.61,2.28,2.33,2.33,0,0,0,1.95.76V25.3A6.2,6.2,0,0,1,225.32,24.75Z"/><path class="cls-1" d="M227.4,21.66c0-.09.08-.16.25-.2a1.81,1.81,0,0,1,.52-.07h2.23c1.15,0,1.72-.27,1.72-.81a.91.91,0,0,0-.07-.35,2.63,2.63,0,0,0-.27-.53,7.92,7.92,0,0,0-.57-.82l-1-1.27,2.19-3.1a5.74,5.74,0,0,1,1.64,2.33,7.9,7.9,0,0,1,.59,3,5.79,5.79,0,0,1-.46,2.41A4.6,4.6,0,0,1,233,24a5.26,5.26,0,0,1-1.88,1,7.88,7.88,0,0,1-2.32.33h-.58a2.24,2.24,0,0,1-.52-.06c-.17,0-.25-.1-.25-.17Zm.23-10.36L229.32,9l2.19,1.45,1.25-1.72,2.6,1.72-1.72,2.29-2.23-1.45L230.26,13Z"/><path class="cls-1" d="M246.78,25.1a2.53,2.53,0,0,1-.66-.47A8.32,8.32,0,0,1,245,27.35a13.26,13.26,0,0,1-2,2.42,21.54,21.54,0,0,1-2.6,2.15c-1,.67-1.94,1.3-3,1.89l-2.87-2.23c.72-.36,1.59-.83,2.6-1.4a29.91,29.91,0,0,0,2.9-1.87,16.34,16.34,0,0,0,2.35-2.09,3.22,3.22,0,0,0,1-2.1,1.93,1.93,0,0,0-.21-.84,8.42,8.42,0,0,0-.47-.88q-.27-.43-.54-.81c-.18-.24-.32-.45-.44-.6l2.6-2.8q.38.57.69,1.14a6.86,6.86,0,0,0,.7,1,3.26,3.26,0,0,0,.8.74,1.84,1.84,0,0,0,1,.29V25.3A1.63,1.63,0,0,1,246.78,25.1Z"/><path class="cls-1" d="M258,25.3a8,8,0,0,1-2.38-.35,11.35,11.35,0,0,1-2.21-.93,9.66,9.66,0,0,1-2,.93,6.71,6.71,0,0,1-2.17.35h-1.69a2.24,2.24,0,0,1-.52-.06c-.17,0-.26-.1-.26-.17V21.66c0-.09.09-.16.26-.2a1.81,1.81,0,0,1,.52-.07h3a7,7,0,0,1-.49-1.05,3,3,0,0,1-.19-1,4.42,4.42,0,0,1,.43-1.86,6.15,6.15,0,0,1,1.09-1.68,6.33,6.33,0,0,1,1.49-1.22,3.24,3.24,0,0,1,1.62-.47,2.08,2.08,0,0,1,1.36.45,3.92,3.92,0,0,1,.93,1.15,5.52,5.52,0,0,1,.54,1.45,6.55,6.55,0,0,1,.17,1.37,3.66,3.66,0,0,1-.3,1.38,7.51,7.51,0,0,1-.88,1.52H259V25.3ZM256.14,9.41l-2,2.7-2.8-1.89,2.05-2.73Zm-4,9.72a1.14,1.14,0,0,0,.37.79,4,4,0,0,0,1,.73,5,5,0,0,0,1.25-.81,1.26,1.26,0,0,0,.47-.95,1.17,1.17,0,0,0-.42-.91,1.48,1.48,0,0,0-1-.37,1.71,1.71,0,0,0-1.15.49A1.41,1.41,0,0,0,252.16,19.13Z"/><path class="cls-1" d="M258.23,21.66c0-.09.09-.16.25-.2a1.88,1.88,0,0,1,.53-.07h.87c.95,0,1.42-.56,1.42-1.69V18.42l2.6-.74v.74a8.83,8.83,0,0,0,.1,1.5,2.61,2.61,0,0,0,.3.91,1,1,0,0,0,.53.44,2.26,2.26,0,0,0,.79.12h.2L268,18.94c.78-.86,1.57-1.67,2.39-2.41a14.81,14.81,0,0,1,2.52-1.84,5.13,5.13,0,0,1,2.53-.72,4.51,4.51,0,0,1,1.67.3,4,4,0,0,1,1.31.85,3.64,3.64,0,0,1,.86,1.24,3.81,3.81,0,0,1,.31,1.56,5.82,5.82,0,0,1-1,3.42,8,8,0,0,1-2.43,2.29A10.31,10.31,0,0,1,273,24.92a13.89,13.89,0,0,1-3.13.38h-4.26a4,4,0,0,1-1.72-.4,2.3,2.3,0,0,1-1.18-1.35,3.51,3.51,0,0,1-3.14,1.75H259a2.33,2.33,0,0,1-.53-.06c-.16,0-.25-.1-.25-.17Zm16.3-4a4.28,4.28,0,0,0-2.68,1,37.53,37.53,0,0,0-3,2.7h.94l1,0c.44,0,.92-.06,1.45-.12s1.07-.14,1.62-.25a11.46,11.46,0,0,0,1.52-.43,3.31,3.31,0,0,0,1.13-.64,1.19,1.19,0,0,0,.44-.92.93.93,0,0,0-.25-.66,1.86,1.86,0,0,0-.63-.41,4,4,0,0,0-.77-.22A5,5,0,0,0,274.53,17.65Z"/><path class="cls-1" d="M301.28,35.36l-7.62,2-.24-1.22L301,34Z"/><path class="cls-1" d="M306.85,18a7.3,7.3,0,0,0-2.8-.4,4,4,0,0,0-1.28.22,5,5,0,0,0-1.23.57,4.08,4.08,0,0,0-.93.78,1.29,1.29,0,0,0-.37.86.59.59,0,0,0,.5.59,5.83,5.83,0,0,0,1.28.2l1.66.12a6.37,6.37,0,0,1,1.65.34,2.93,2.93,0,0,1,1.28.84,2.35,2.35,0,0,1,.51,1.62,6.21,6.21,0,0,1-1,3.51,9,9,0,0,1-2.57,2.53,12.32,12.32,0,0,1-3.42,1.53,13.45,13.45,0,0,1-3.63.53,12,12,0,0,1-3.73-.53,7.4,7.4,0,0,1-2.65-1.45,5.83,5.83,0,0,1-1.56-2.21,7.18,7.18,0,0,1-.53-2.76,10.38,10.38,0,0,1,.39-2.72,12,12,0,0,1,1.2-2.85l2.66.91a11.26,11.26,0,0,0-.79,1.86,5.91,5.91,0,0,0-.29,1.78,4.07,4.07,0,0,0,.32,1.62,3.36,3.36,0,0,0,1,1.3,5.36,5.36,0,0,0,1.81.88A9.5,9.5,0,0,0,297,28a11.74,11.74,0,0,0,2.33-.27,16.32,16.32,0,0,0,2.48-.71,9.13,9.13,0,0,0,2-1c.53-.38.8-.74.8-1.1,0-.2-.12-.34-.38-.42a6.15,6.15,0,0,0-1.08-.19l-1.59-.12c-.59,0-1.23-.09-1.9-.18a2.59,2.59,0,0,1-1.71-.84,2.69,2.69,0,0,1-.56-1.76,6.53,6.53,0,0,1,.66-2.88,8.36,8.36,0,0,1,4.14-4,6.67,6.67,0,0,1,2.73-.6,5.88,5.88,0,0,1,1.45.18,5.52,5.52,0,0,1,1.38.59Z"/><path class="cls-1" d="M314.37,24.87l-3.44.91V6.34L314.37,5Z"/><path class="cls-1" d="M323.13,25.1a2.53,2.53,0,0,1-.66-.47,8.32,8.32,0,0,1-1.13,2.72,13.69,13.69,0,0,1-2,2.42,21.54,21.54,0,0,1-2.6,2.15c-.95.67-1.94,1.3-2.95,1.89l-2.87-2.23c.72-.36,1.59-.83,2.6-1.4a29.91,29.91,0,0,0,2.9-1.87,16.34,16.34,0,0,0,2.35-2.09,3.22,3.22,0,0,0,1-2.1,1.93,1.93,0,0,0-.21-.84,8.42,8.42,0,0,0-.47-.88q-.27-.43-.54-.81c-.18-.24-.32-.45-.44-.6l2.6-2.8q.38.57.69,1.14a7.68,7.68,0,0,0,.69,1,3.49,3.49,0,0,0,.81.74,1.84,1.84,0,0,0,1.05.29V25.3A1.63,1.63,0,0,1,323.13,25.1Z"/><path class="cls-1" d="M323.14,21.66c0-.09.09-.16.26-.2a1.81,1.81,0,0,1,.52-.07h3c.72,0,1.3,0,1.75,0a9.54,9.54,0,0,0,1.47-.22,20.17,20.17,0,0,0,2-.61c.77-.28,1.84-.68,3.19-1.2l-3-.81c-.7-.18-1.22-.32-1.55-.44a1.72,1.72,0,0,0-1.24.12,3.41,3.41,0,0,0-1,.8l-2.33-1.59a9.62,9.62,0,0,1,2.06-2.65,2.8,2.8,0,0,1,2.36-.59,20.85,20.85,0,0,1,2.3.47l2.36.64c.81.23,1.64.45,2.5.66s1.77.4,2.76.56c.45,0,.9.08,1.34.1l1.3.07-1.05,3.84c-.54,0-1-.06-1.42-.06a5.9,5.9,0,0,0-1.14.1,5.08,5.08,0,0,0-1.1.32,9.66,9.66,0,0,0-1.27.62c-1.14.65-2.09,1.22-2.85,1.69a17.71,17.71,0,0,1-2.21,1.18,11,11,0,0,1-2.38.71,19.12,19.12,0,0,1-3.35.23h-2.5a2.24,2.24,0,0,1-.52-.06c-.17,0-.26-.1-.26-.17Zm7,8.87,2-2.7,2.8,1.89-2.06,2.74Z"/><path class="cls-1" d="M350,24.87l-3.44.91V6.34L350,5Z"/></svg>