<svg id="Layer_1" data-name="Layer 1" xmlns="http://www.w3.org/2000/svg" viewBox="0 0 1309.45 36.12"><defs><style>.cls-1{fill:#f48120;}.cls-2{fill:#005879;}</style></defs><path d="M82.56,15.36A92,92,0,0,1,101.44,1V0h-.7a93.56,93.56,0,0,0-19,14.49,144.77,144.77,0,0,0-18.2,21.63H65A143.48,143.48,0,0,1,82.56,15.36Z"/><path class="cls-1" d="M38.9,21.73V20.48c-1.29-.31-2.58-.62-3.87-.91A218.06,218.06,0,0,0,0,14.39v1.22a216.78,216.78,0,0,1,34.76,5.14C36.15,21.07,37.53,21.39,38.9,21.73Z"/><path d="M165.43,21.73V20.48c-1.29-.31-2.58-.62-3.87-.91a218.22,218.22,0,0,0-35-5.18v1.22a217.11,217.11,0,0,1,34.76,5.14C162.67,21.07,164.05,21.39,165.43,21.73Z"/><path d="M209.08,15.36A92.55,92.55,0,0,1,228,1V0h-.7a93.56,93.56,0,0,0-19,14.49A145.37,145.37,0,0,0,190,36.12h1.48A144.76,144.76,0,0,1,209.08,15.36Z"/><path d="M337.45,15.36A92.55,92.55,0,0,1,356.33,1V0h-.7a93.56,93.56,0,0,0-19,14.49,144.77,144.77,0,0,0-18.2,21.63h1.48A143.48,143.48,0,0,1,337.45,15.36Z"/><path class="cls-2" d="M464,15.36A92,92,0,0,1,482.86,1V0h-.7a93.56,93.56,0,0,0-19,14.49,144.77,144.77,0,0,0-18.2,21.63h1.48A143.48,143.48,0,0,1,464,15.36Z"/><path d="M590.5,15.36A92.55,92.55,0,0,1,609.38,1V0h-.7a93.56,93.56,0,0,0-19,14.49,145.37,145.37,0,0,0-18.2,21.63h1.48A144.76,144.76,0,0,1,590.5,15.36Z"/><path class="cls-1" d="M420.32,21.73V20.48c-1.29-.31-2.58-.62-3.87-.91a218.06,218.06,0,0,0-35-5.18v1.22a216.78,216.78,0,0,1,34.76,5.14C417.56,21.07,419,21.39,420.32,21.73Z"/><path d="M293.55,21.73V20.48c-1.28-.31-2.57-.62-3.87-.91a218.06,218.06,0,0,0-35-5.18v1.22a216.78,216.78,0,0,1,34.76,5.14C290.8,21.07,292.18,21.39,293.55,21.73Z"/><path d="M546.85,21.73V20.48c-1.29-.31-2.58-.62-3.87-.91a218.22,218.22,0,0,0-35-5.18v1.22a217.11,217.11,0,0,1,34.76,5.14C544.09,21.07,545.47,21.39,546.85,21.73Z"/><path d="M673.37,21.73V20.48c-1.28-.31-2.57-.62-3.87-.91a217.89,217.89,0,0,0-35-5.18v1.22a216.78,216.78,0,0,1,34.76,5.14C670.62,21.07,672,21.39,673.37,21.73Z"/><path d="M717,15.36A92.28,92.28,0,0,1,735.91,1V0h-.7a93.56,93.56,0,0,0-19,14.49A144.77,144.77,0,0,0,698,36.12h1.48A143.48,143.48,0,0,1,717,15.36Z"/><path class="cls-1" d="M845.4,15.36A92,92,0,0,1,864.28,1V0h-.7a93.56,93.56,0,0,0-19,14.49,144.77,144.77,0,0,0-18.2,21.63h1.48A143.48,143.48,0,0,1,845.4,15.36Z"/><path d="M971.92,15.36A92.55,92.55,0,0,1,990.8,1V0h-.7a93.56,93.56,0,0,0-19,14.49,145.37,145.37,0,0,0-18.2,21.63h1.48A144.76,144.76,0,0,1,971.92,15.36Z"/><path d="M1098.45,15.36A92.28,92.28,0,0,1,1117.33,1V0h-.7a93.56,93.56,0,0,0-19,14.49,144.77,144.77,0,0,0-18.2,21.63h1.48A143.48,143.48,0,0,1,1098.45,15.36Z"/><path d="M928.27,21.73V20.48c-1.29-.31-2.58-.62-3.87-.91a218.22,218.22,0,0,0-35-5.18v1.22a217.11,217.11,0,0,1,34.76,5.14C925.51,21.07,926.89,21.39,928.27,21.73Z"/><path class="cls-2" d="M801.5,21.73V20.48c-1.29-.31-2.58-.62-3.87-.91a218.22,218.22,0,0,0-35-5.18v1.22a217.11,217.11,0,0,1,34.76,5.14C798.74,21.07,800.12,21.39,801.5,21.73Z"/><path d="M1054.79,21.73V20.48c-1.28-.31-2.57-.62-3.87-.91a217.89,217.89,0,0,0-35-5.18v1.22a216.78,216.78,0,0,1,34.76,5.14C1052,21.07,1053.42,21.39,1054.79,21.73Z"/><path class="cls-1" d="M1181.32,21.73V20.48c-1.29-.31-2.58-.62-3.87-.91a218.22,218.22,0,0,0-35-5.18v1.22a217.11,217.11,0,0,1,34.76,5.14C1178.56,21.07,1179.94,21.39,1181.32,21.73Z"/><path d="M1225,15.36A92.34,92.34,0,0,1,1243.86,1V0h-.71a94.11,94.11,0,0,0-19,14.49,146,146,0,0,0-18.2,21.63h1.49A144,144,0,0,1,1225,15.36Z"/><path d="M1309.45,21.73V20.48c-1.29-.31-2.58-.62-3.88-.91a217.89,217.89,0,0,0-35-5.18v1.22a216.78,216.78,0,0,1,34.76,5.14C1306.69,21.07,1308.07,21.39,1309.45,21.73Z"/></svg>