<svg id="Layer_1" data-name="Layer 1" xmlns="http://www.w3.org/2000/svg" viewBox="0 0 1920 1285.72"><defs><style>.cls-1{fill:#f48120;}.cls-2{fill:#fff;}</style></defs><rect class="cls-1" width="1920" height="1285.72"/><path class="cls-2" d="M292.37,131.69c-11.73-2.38-20.09-9.1-24.84-20a48.85,48.85,0,0,1-3.77-15.63c0-.23,0-.47-.06-.71h-1.35l.06.83a50.28,50.28,0,0,0,3.88,16.05c4.94,11.3,13.63,18.28,25.81,20.75a75.92,75.92,0,0,0,9.14,1.24v-1.36A75.21,75.21,0,0,1,292.37,131.69Z"/><path class="cls-2" d="M352.12,111.82a101.87,101.87,0,0,1,21-15.94V94.77h-.78a103.94,103.94,0,0,0-21.13,16.08,161.44,161.44,0,0,0-20.2,24h1.64A159.61,159.61,0,0,1,352.12,111.82Z"/><path class="cls-2" d="M233.16,118.89V117.5c-1.43-.35-2.86-.68-4.3-1A241.8,241.8,0,0,0,190,110.74v1.35a240.39,240.39,0,0,1,38.58,5.72C230.1,118.15,231.63,118.52,233.16,118.89Z"/><path class="cls-2" d="M140.73,111.62a111.35,111.35,0,0,1,22.29-17V93.14h-.41a112,112,0,0,0-22.9,17.44q-4.35,4.24-8.35,8.74h0a39.92,39.92,0,0,1-4.46-7.8,53.18,53.18,0,0,1-4.09-16.94l-.06-.77h-1.46l.06.9a54.93,54.93,0,0,0,4.21,17.4,42.83,42.83,0,0,0,4.8,8.34q-5.69,6.49-10.69,13.5v2.54a174.23,174.23,0,0,1,11.61-14.87l.19-.21-.19.21c5.46,6.73,12.91,11.08,22.26,13a81.43,81.43,0,0,0,9.48,1.3v-1.46a80.55,80.55,0,0,1-9.19-1.28c-9.08-1.84-16.3-6.08-21.56-12.66h0a.21.21,0,0,0,0-.06l.05.06Q136.32,115.94,140.73,111.62Z"/><path class="cls-2" d="M139.08,170.47a43.66,43.66,0,0,1,6.59,17.33,30.44,30.44,0,0,1-2.11,16H145a31.8,31.8,0,0,0,2-16.2,45.2,45.2,0,0,0-6.78-17.86q-1.47-2.37-3.17-4.68h-1.68C136.72,166.85,138,168.64,139.08,170.47Z"/><path class="cls-2" d="M211.66,181.45a102.85,102.85,0,0,1,21-15.94V164.4h-.78a103.94,103.94,0,0,0-21.12,16.09,160.34,160.34,0,0,0-20.2,24h1.64A159.62,159.62,0,0,1,211.66,181.45Z"/><path class="cls-2" d="M298.81,186.27q-6.53-1.49-12.83-2.63a51.9,51.9,0,0,0-6.54-15.12c-1.07-1.71-2.21-3.4-3.44-5.07h-1.82q2.18,2.88,4,5.84a50.57,50.57,0,0,1,6.22,14.07c-8.29-1.45-16.34-2.47-24.29-3.08v1.47c8.07.62,16.24,1.66,24.66,3.16.23,1.06.42,2.11.56,3.17a33.15,33.15,0,0,1-2.29,17.37h1.57a34.43,34.43,0,0,0,2.17-17.56c-.12-.9-.28-1.8-.46-2.7q6,1.11,12.16,2.5l5,1.17v-1.5C301.92,187,300.37,186.62,298.81,186.27Z"/><path class="cls-2" d="M373.61,188.52v-1.39c-1.42-.34-2.86-.68-4.29-1a241,241,0,0,0-38.89-5.75v1.35A240.61,240.61,0,0,1,369,187.44C370.55,187.79,372.09,188.15,373.61,188.52Z"/><path class="cls-2" d="M573.67,131.69c-11.72-2.38-20.08-9.1-24.84-20a49.12,49.12,0,0,1-3.77-15.63l-.06-.71h-1.35l.06.83a50.55,50.55,0,0,0,3.88,16.05c4.95,11.3,13.63,18.28,25.81,20.75a75.92,75.92,0,0,0,9.14,1.24v-1.36A75.21,75.21,0,0,1,573.67,131.69Z"/><path class="cls-2" d="M633.42,111.82a101.87,101.87,0,0,1,21-15.94V94.77h-.78a103.94,103.94,0,0,0-21.13,16.08,162,162,0,0,0-20.2,24h1.65A159.54,159.54,0,0,1,633.42,111.82Z"/><path class="cls-2" d="M514.46,118.89V117.5c-1.43-.35-2.86-.68-4.3-1a241.8,241.8,0,0,0-38.88-5.75v1.35a240.67,240.67,0,0,1,38.59,5.72C511.4,118.15,512.94,118.52,514.46,118.89Z"/><path class="cls-2" d="M422,111.62a111.63,111.63,0,0,1,22.29-17V93.14h-.41A112.29,112.29,0,0,0,421,110.58q-4.35,4.24-8.35,8.74h0a41,41,0,0,1-4.46-7.8,53.45,53.45,0,0,1-4.09-16.94c0-.26,0-.52-.05-.77h-1.47c0,.3,0,.6.07.9a54.66,54.66,0,0,0,4.2,17.4,42.36,42.36,0,0,0,4.81,8.34Q406,126.95,401,134v2.54a172.36,172.36,0,0,1,11.62-14.87l.18-.21-.19.21c5.46,6.73,12.91,11.08,22.26,13a81.72,81.72,0,0,0,9.48,1.3v-1.46a80.86,80.86,0,0,1-9.19-1.28c-9.08-1.84-16.3-6.08-21.56-12.66h0l-.05-.06.05.06Q417.62,115.94,422,111.62Z"/><path class="cls-2" d="M420.38,170.47A43.66,43.66,0,0,1,427,187.8a30.34,30.34,0,0,1-2.11,16h1.45a31.69,31.69,0,0,0,2-16.2,45.05,45.05,0,0,0-6.78-17.86c-1-1.58-2-3.14-3.17-4.68h-1.68C418,166.85,419.25,168.64,420.38,170.47Z"/><path class="cls-2" d="M493,181.45a103.13,103.13,0,0,1,21-15.94V164.4h-.77A104,104,0,0,0,492,180.49a160.34,160.34,0,0,0-20.2,24h1.64A160.25,160.25,0,0,1,493,181.45Z"/><path class="cls-2" d="M580.11,186.27q-6.52-1.49-12.82-2.63a51.67,51.67,0,0,0-6.55-15.12q-1.59-2.57-3.43-5.07h-1.83c1.46,1.92,2.79,3.87,4,5.84a50.57,50.57,0,0,1,6.22,14.07c-8.28-1.45-16.33-2.47-24.29-3.08v1.47c8.07.62,16.24,1.66,24.66,3.16.23,1.06.42,2.11.56,3.17a33,33,0,0,1-2.29,17.37h1.57a34.33,34.33,0,0,0,2.17-17.56c-.12-.9-.27-1.8-.46-2.7q6,1.11,12.16,2.5,2.51.57,5,1.17v-1.5C583.22,187,581.67,186.62,580.11,186.27Z"/><path class="cls-2" d="M654.92,188.52v-1.39c-1.43-.34-2.87-.68-4.3-1a241,241,0,0,0-38.89-5.75v1.35a240.45,240.45,0,0,1,38.59,5.71C651.86,187.79,653.39,188.15,654.92,188.52Z"/><path class="cls-2" d="M292.37,271c-11.73-2.38-20.09-9.1-24.84-20a48.86,48.86,0,0,1-3.77-15.62c0-.24,0-.48-.06-.72h-1.35l.06.83a50.28,50.28,0,0,0,3.88,16.05c4.94,11.3,13.63,18.28,25.81,20.75a75.92,75.92,0,0,0,9.14,1.24v-1.36A73.17,73.17,0,0,1,292.37,271Z"/><path class="cls-2" d="M352.12,251.09a101.87,101.87,0,0,1,21-15.94V234h-.78a103.94,103.94,0,0,0-21.13,16.08,161.44,161.44,0,0,0-20.2,24h1.64A159.61,159.61,0,0,1,352.12,251.09Z"/><path class="cls-2" d="M233.16,258.16v-1.39c-1.43-.35-2.86-.68-4.3-1A241.8,241.8,0,0,0,190,250v1.36a239.22,239.22,0,0,1,38.58,5.71C230.1,257.43,231.63,257.79,233.16,258.16Z"/><path class="cls-2" d="M140.73,250.89a111.35,111.35,0,0,1,22.29-17v-1.45h-.41a112,112,0,0,0-22.9,17.44q-4.35,4.25-8.35,8.74h0a39.92,39.92,0,0,1-4.46-7.8,53.18,53.18,0,0,1-4.09-16.94l-.06-.77h-1.46l.06.9a54.93,54.93,0,0,0,4.21,17.4,42.54,42.54,0,0,0,4.8,8.34q-5.69,6.5-10.69,13.5v2.54a174.23,174.23,0,0,1,11.61-14.87l.19-.21-.19.21c5.46,6.73,12.91,11.08,22.26,13a81.43,81.43,0,0,0,9.48,1.3v-1.46a80.55,80.55,0,0,1-9.19-1.28c-9.08-1.84-16.3-6.08-21.56-12.66h0a.1.1,0,0,0,0,0l.05,0Q136.32,255.21,140.73,250.89Z"/><path class="cls-2" d="M139.08,309.74a43.66,43.66,0,0,1,6.59,17.33,30.44,30.44,0,0,1-2.11,16H145a31.79,31.79,0,0,0,2-16.2A45.26,45.26,0,0,0,140.23,309q-1.47-2.37-3.17-4.68h-1.68Q137.39,307,139.08,309.74Z"/><path class="cls-2" d="M211.66,320.72a102.85,102.85,0,0,1,21-15.94v-1.11h-.78a103.94,103.94,0,0,0-21.12,16.09,160.34,160.34,0,0,0-20.2,24h1.64A160.15,160.15,0,0,1,211.66,320.72Z"/><path class="cls-2" d="M298.81,325.54q-6.53-1.49-12.83-2.62a51.84,51.84,0,0,0-6.54-15.13c-1.07-1.71-2.21-3.4-3.44-5.07h-1.82c1.45,1.93,2.79,3.87,4,5.84a50.57,50.57,0,0,1,6.22,14.07c-8.29-1.45-16.34-2.47-24.29-3.08V321c8.07.62,16.24,1.66,24.66,3.16.23,1.06.42,2.11.56,3.17a33.15,33.15,0,0,1-2.29,17.37h1.57a34.43,34.43,0,0,0,2.17-17.56c-.12-.9-.28-1.8-.46-2.69q6,1.09,12.16,2.49,2.49.57,5,1.18v-1.51C301.92,326.26,300.37,325.89,298.81,325.54Z"/><path class="cls-2" d="M373.61,327.79v-1.38c-1.42-.35-2.86-.69-4.29-1a241,241,0,0,0-38.89-5.75V321A240.61,240.61,0,0,1,369,326.71C370.55,327.06,372.09,327.42,373.61,327.79Z"/><path class="cls-2" d="M573.67,271c-11.72-2.38-20.08-9.1-24.84-20a49.12,49.12,0,0,1-3.77-15.62l-.06-.72h-1.35l.06.83a50.55,50.55,0,0,0,3.88,16.05c4.95,11.3,13.63,18.28,25.81,20.75a75.92,75.92,0,0,0,9.14,1.24v-1.36A73.17,73.17,0,0,1,573.67,271Z"/><path class="cls-2" d="M633.42,251.09a101.87,101.87,0,0,1,21-15.94V234h-.78a103.94,103.94,0,0,0-21.13,16.08,162,162,0,0,0-20.2,24h1.65A159.54,159.54,0,0,1,633.42,251.09Z"/><path class="cls-2" d="M514.46,258.16v-1.39c-1.43-.35-2.86-.68-4.3-1A241.8,241.8,0,0,0,471.28,250v1.36a239.5,239.5,0,0,1,38.59,5.71C511.4,257.43,512.94,257.79,514.46,258.16Z"/><path class="cls-2" d="M422,250.89a111.63,111.63,0,0,1,22.29-17v-1.45h-.41A112.29,112.29,0,0,0,421,249.85q-4.35,4.25-8.35,8.74h0a41,41,0,0,1-4.46-7.8,53.45,53.45,0,0,1-4.09-16.94c0-.26,0-.52-.05-.77h-1.47c0,.3,0,.6.07.9a54.66,54.66,0,0,0,4.2,17.4,42.07,42.07,0,0,0,4.81,8.34q-5.7,6.5-10.7,13.5v2.54a172.36,172.36,0,0,1,11.62-14.87l.18-.21-.19.21c5.46,6.73,12.91,11.08,22.26,13a81.72,81.72,0,0,0,9.48,1.3v-1.46a80.86,80.86,0,0,1-9.19-1.28c-9.08-1.84-16.3-6.08-21.56-12.66h0s0,0-.05,0,0,0,.05,0Q417.62,255.21,422,250.89Z"/><path class="cls-2" d="M420.38,309.74A43.66,43.66,0,0,1,427,327.07a30.34,30.34,0,0,1-2.11,16h1.45a31.68,31.68,0,0,0,2-16.2A45.11,45.11,0,0,0,421.53,309c-1-1.58-2-3.14-3.17-4.68h-1.68Q418.69,307,420.38,309.74Z"/><path class="cls-2" d="M493,320.72a103.13,103.13,0,0,1,21-15.94v-1.11h-.77A104,104,0,0,0,492,319.76a160.34,160.34,0,0,0-20.2,24h1.64A160.8,160.8,0,0,1,493,320.72Z"/><path class="cls-2" d="M580.11,325.54q-6.52-1.49-12.82-2.62a51.61,51.61,0,0,0-6.55-15.13q-1.59-2.57-3.43-5.07h-1.83c1.46,1.93,2.79,3.87,4,5.84a50.57,50.57,0,0,1,6.22,14.07c-8.28-1.45-16.33-2.47-24.29-3.08V321c8.07.62,16.24,1.66,24.66,3.16.23,1.06.42,2.11.56,3.17a33,33,0,0,1-2.29,17.37h1.57a34.33,34.33,0,0,0,2.17-17.56c-.12-.9-.27-1.8-.46-2.69q6,1.09,12.16,2.49,2.51.57,5,1.18v-1.51C583.22,326.26,581.67,325.89,580.11,325.54Z"/><path class="cls-2" d="M654.92,327.79v-1.38c-1.43-.35-2.87-.69-4.3-1a241,241,0,0,0-38.89-5.75V321a240.45,240.45,0,0,1,38.59,5.71C651.86,327.06,653.39,327.42,654.92,327.79Z"/><path class="cls-2" d="M865.08,131.69c-11.73-2.38-20.09-9.1-24.85-20a49.12,49.12,0,0,1-3.77-15.63c0-.23,0-.47-.05-.71h-1.35l.06.83A50.28,50.28,0,0,0,839,112.26c4.94,11.3,13.63,18.28,25.81,20.75a75.92,75.92,0,0,0,9.14,1.24v-1.36A74.92,74.92,0,0,1,865.08,131.69Z"/><path class="cls-2" d="M924.82,111.82a102.41,102.41,0,0,1,21-15.94V94.77H945a103.94,103.94,0,0,0-21.13,16.08,160.84,160.84,0,0,0-20.2,24h1.64A160.18,160.18,0,0,1,924.82,111.82Z"/><path class="cls-2" d="M805.87,118.89V117.5c-1.43-.35-2.86-.68-4.3-1a242,242,0,0,0-38.88-5.75v1.35a240.39,240.39,0,0,1,38.58,5.72C802.81,118.15,804.34,118.52,805.87,118.89Z"/><path class="cls-2" d="M713.43,111.62a111.41,111.41,0,0,1,22.3-17V93.14h-.42a112.56,112.56,0,0,0-22.9,17.44q-4.33,4.24-8.34,8.74h0a39.92,39.92,0,0,1-4.46-7.8,53.18,53.18,0,0,1-4.09-16.94l-.06-.77H694l.06.9a54.66,54.66,0,0,0,4.21,17.4,42.33,42.33,0,0,0,4.8,8.34q-5.7,6.49-10.69,13.5v2.54A172.24,172.24,0,0,1,704,121.62l.19-.21-.19.21c5.46,6.73,12.91,11.08,22.26,13a81.43,81.43,0,0,0,9.48,1.3v-1.46a80.55,80.55,0,0,1-9.19-1.28c-9.08-1.84-16.3-6.08-21.57-12.66h0l0-.06,0,.06Q709,115.94,713.43,111.62Z"/><path class="cls-2" d="M711.79,170.47a43.81,43.81,0,0,1,6.59,17.33,30.54,30.54,0,0,1-2.11,16h1.45a31.8,31.8,0,0,0,2-16.2,45.08,45.08,0,0,0-6.79-17.86c-1-1.58-2-3.14-3.16-4.68h-1.68C709.43,166.85,710.66,168.64,711.79,170.47Z"/><path class="cls-2" d="M784.37,181.45a102.85,102.85,0,0,1,21-15.94V164.4h-.78a103.67,103.67,0,0,0-21.12,16.09,161,161,0,0,0-20.21,24h1.65A159.62,159.62,0,0,1,784.37,181.45Z"/><path class="cls-2" d="M871.52,186.27q-6.53-1.49-12.83-2.63a51.67,51.67,0,0,0-6.55-15.12q-1.59-2.57-3.43-5.07h-1.82q2.18,2.88,4,5.84a50.87,50.87,0,0,1,6.22,14.07c-8.29-1.45-16.34-2.47-24.29-3.08v1.47a248.26,248.26,0,0,1,24.65,3.16c.24,1.06.42,2.11.57,3.17a33.15,33.15,0,0,1-2.29,17.37h1.57a34.43,34.43,0,0,0,2.17-17.56c-.12-.9-.28-1.8-.46-2.7,4,.74,8,1.57,12.15,2.5q2.5.57,5,1.17v-1.5C874.63,187,873.08,186.62,871.52,186.27Z"/><path class="cls-2" d="M946.32,188.52v-1.39c-1.43-.34-2.86-.68-4.3-1a240.69,240.69,0,0,0-38.88-5.75v1.35a240.34,240.34,0,0,1,38.58,5.71C943.26,187.79,944.79,188.15,946.32,188.52Z"/><path class="cls-2" d="M1146.38,131.69c-11.73-2.38-20.09-9.1-24.84-20a48.85,48.85,0,0,1-3.77-15.63c0-.23,0-.47-.06-.71h-1.35l.06.83a50.28,50.28,0,0,0,3.88,16.05c5,11.3,13.63,18.28,25.81,20.75a75.92,75.92,0,0,0,9.14,1.24v-1.36A75.21,75.21,0,0,1,1146.38,131.69Z"/><path class="cls-2" d="M1206.13,111.82a101.87,101.87,0,0,1,21-15.94V94.77h-.78a103.94,103.94,0,0,0-21.13,16.08,161.44,161.44,0,0,0-20.2,24h1.64A159.61,159.61,0,0,1,1206.13,111.82Z"/><path class="cls-2" d="M1087.17,118.89V117.5c-1.43-.35-2.86-.68-4.3-1a241.8,241.8,0,0,0-38.88-5.75v1.35a240.39,240.39,0,0,1,38.58,5.72C1084.11,118.15,1085.64,118.52,1087.17,118.89Z"/><path class="cls-2" d="M994.74,111.62a111.35,111.35,0,0,1,22.29-17V93.14h-.41a112,112,0,0,0-22.9,17.44q-4.35,4.24-8.35,8.74h0a39.92,39.92,0,0,1-4.46-7.8,53.18,53.18,0,0,1-4.09-16.94l-.06-.77H975.3l.06.9a54.93,54.93,0,0,0,4.21,17.4,42.83,42.83,0,0,0,4.8,8.34q-5.68,6.49-10.69,13.5v2.54a174.23,174.23,0,0,1,11.61-14.87l.19-.21-.19.21c5.46,6.73,12.91,11.08,22.26,13a81.43,81.43,0,0,0,9.48,1.3v-1.46a80.55,80.55,0,0,1-9.19-1.28c-9.08-1.84-16.3-6.08-21.56-12.66h0a.21.21,0,0,0,0-.06l0,.06Q990.33,115.94,994.74,111.62Z"/><path class="cls-2" d="M993.09,170.47a43.66,43.66,0,0,1,6.59,17.33,30.44,30.44,0,0,1-2.11,16H999a31.8,31.8,0,0,0,2-16.2,45.2,45.2,0,0,0-6.78-17.86q-1.47-2.37-3.17-4.68h-1.68C990.73,166.85,992,168.64,993.09,170.47Z"/><path class="cls-2" d="M1065.67,181.45a103.13,103.13,0,0,1,21-15.94V164.4h-.78a103.94,103.94,0,0,0-21.12,16.09,160.34,160.34,0,0,0-20.2,24h1.64A160.25,160.25,0,0,1,1065.67,181.45Z"/><path class="cls-2" d="M1152.82,186.27q-6.52-1.49-12.83-2.63a51.9,51.9,0,0,0-6.54-15.12q-1.6-2.57-3.43-5.07h-1.83q2.18,2.88,4,5.84a50.57,50.57,0,0,1,6.22,14.07c-8.29-1.45-16.34-2.47-24.29-3.08v1.47c8.07.62,16.24,1.66,24.66,3.16.23,1.06.42,2.11.56,3.17a33.15,33.15,0,0,1-2.29,17.37h1.57a34.43,34.43,0,0,0,2.17-17.56c-.12-.9-.28-1.8-.46-2.7q6,1.11,12.16,2.5c1.66.38,3.33.77,5,1.17v-1.5C1155.93,187,1154.38,186.62,1152.82,186.27Z"/><path class="cls-2" d="M1227.62,188.52v-1.39c-1.42-.34-2.86-.68-4.29-1a241,241,0,0,0-38.89-5.75v1.35a240.61,240.61,0,0,1,38.59,5.71C1224.56,187.79,1226.1,188.15,1227.62,188.52Z"/><path class="cls-2" d="M865.08,271c-11.73-2.38-20.09-9.1-24.85-20a49.12,49.12,0,0,1-3.77-15.62c0-.24,0-.48-.05-.72h-1.35l.06.83A50.28,50.28,0,0,0,839,251.53c4.94,11.3,13.63,18.28,25.81,20.75a75.92,75.92,0,0,0,9.14,1.24v-1.36A72.9,72.9,0,0,1,865.08,271Z"/><path class="cls-2" d="M924.82,251.09a102.41,102.41,0,0,1,21-15.94V234H945a103.94,103.94,0,0,0-21.13,16.08,160.84,160.84,0,0,0-20.2,24h1.64A160.18,160.18,0,0,1,924.82,251.09Z"/><path class="cls-2" d="M805.87,258.16v-1.39c-1.43-.35-2.86-.68-4.3-1A242,242,0,0,0,762.69,250v1.36a239.22,239.22,0,0,1,38.58,5.71C802.81,257.43,804.34,257.79,805.87,258.16Z"/><path class="cls-2" d="M713.43,250.89a111.41,111.41,0,0,1,22.3-17v-1.45h-.42a112.56,112.56,0,0,0-22.9,17.44q-4.33,4.25-8.34,8.74h0a39.92,39.92,0,0,1-4.46-7.8,53.18,53.18,0,0,1-4.09-16.94l-.06-.77H694l.06.9a54.66,54.66,0,0,0,4.21,17.4,42,42,0,0,0,4.8,8.34q-5.7,6.5-10.69,13.5v2.54A172.24,172.24,0,0,1,704,260.89l.19-.21-.19.21c5.46,6.73,12.91,11.08,22.26,13a81.43,81.43,0,0,0,9.48,1.3v-1.46a80.55,80.55,0,0,1-9.19-1.28c-9.08-1.84-16.3-6.08-21.57-12.66h0l0,0,0,0Q709,255.21,713.43,250.89Z"/><path class="cls-2" d="M711.79,309.74a43.81,43.81,0,0,1,6.59,17.33,30.54,30.54,0,0,1-2.11,16h1.45a31.79,31.79,0,0,0,2-16.2A45.13,45.13,0,0,0,712.93,309c-1-1.58-2-3.14-3.16-4.68h-1.68Q710.1,307,711.79,309.74Z"/><path class="cls-2" d="M784.37,320.72a102.85,102.85,0,0,1,21-15.94v-1.11h-.78a103.67,103.67,0,0,0-21.12,16.09,161,161,0,0,0-20.21,24h1.65A160.15,160.15,0,0,1,784.37,320.72Z"/><path class="cls-2" d="M871.52,325.54q-6.53-1.49-12.83-2.62a51.61,51.61,0,0,0-6.55-15.13q-1.59-2.57-3.43-5.07h-1.82c1.45,1.93,2.79,3.87,4,5.84a50.87,50.87,0,0,1,6.22,14.07c-8.29-1.45-16.34-2.47-24.29-3.08V321a248.26,248.26,0,0,1,24.65,3.16c.24,1.06.42,2.11.57,3.17a33.15,33.15,0,0,1-2.29,17.37h1.57a34.43,34.43,0,0,0,2.17-17.56c-.12-.9-.28-1.8-.46-2.69,4,.73,8,1.56,12.15,2.49q2.5.57,5,1.18v-1.51C874.63,326.26,873.08,325.89,871.52,325.54Z"/><path class="cls-2" d="M946.32,327.79v-1.38c-1.43-.35-2.86-.69-4.3-1a240.69,240.69,0,0,0-38.88-5.75V321a240.34,240.34,0,0,1,38.58,5.71C943.26,327.06,944.79,327.42,946.32,327.79Z"/><path class="cls-2" d="M1146.38,271c-11.73-2.38-20.09-9.1-24.84-20a48.86,48.86,0,0,1-3.77-15.62c0-.24,0-.48-.06-.72h-1.35l.06.83a50.28,50.28,0,0,0,3.88,16.05c5,11.3,13.63,18.28,25.81,20.75a75.92,75.92,0,0,0,9.14,1.24v-1.36A73.17,73.17,0,0,1,1146.38,271Z"/><path class="cls-2" d="M1206.13,251.09a101.87,101.87,0,0,1,21-15.94V234h-.78a103.94,103.94,0,0,0-21.13,16.08,161.44,161.44,0,0,0-20.2,24h1.64A159.61,159.61,0,0,1,1206.13,251.09Z"/><path class="cls-2" d="M1087.17,258.16v-1.39c-1.43-.35-2.86-.68-4.3-1A241.8,241.8,0,0,0,1044,250v1.36a239.22,239.22,0,0,1,38.58,5.71C1084.11,257.43,1085.64,257.79,1087.17,258.16Z"/><path class="cls-2" d="M994.74,250.89a111.35,111.35,0,0,1,22.29-17v-1.45h-.41a112,112,0,0,0-22.9,17.44q-4.35,4.25-8.35,8.74h0a39.92,39.92,0,0,1-4.46-7.8,53.18,53.18,0,0,1-4.09-16.94l-.06-.77H975.3l.06.9a54.93,54.93,0,0,0,4.21,17.4,42.54,42.54,0,0,0,4.8,8.34q-5.68,6.5-10.69,13.5v2.54a174.23,174.23,0,0,1,11.61-14.87l.19-.21-.19.21c5.46,6.73,12.91,11.08,22.26,13a81.43,81.43,0,0,0,9.48,1.3v-1.46a80.55,80.55,0,0,1-9.19-1.28c-9.08-1.84-16.3-6.08-21.56-12.66h0a.1.1,0,0,0,0,0l0,0Q990.33,255.21,994.74,250.89Z"/><path class="cls-2" d="M993.09,309.74a43.66,43.66,0,0,1,6.59,17.33,30.44,30.44,0,0,1-2.11,16H999a31.79,31.79,0,0,0,2-16.2A45.26,45.26,0,0,0,994.24,309q-1.47-2.37-3.17-4.68h-1.68Q991.4,307,993.09,309.74Z"/><path class="cls-2" d="M1065.67,320.72a103.13,103.13,0,0,1,21-15.94v-1.11h-.78a103.94,103.94,0,0,0-21.12,16.09,160.34,160.34,0,0,0-20.2,24h1.64A160.8,160.8,0,0,1,1065.67,320.72Z"/><path class="cls-2" d="M1152.82,325.54q-6.52-1.49-12.83-2.62a51.84,51.84,0,0,0-6.54-15.13q-1.6-2.57-3.43-5.07h-1.83c1.45,1.93,2.79,3.87,4,5.84a50.57,50.57,0,0,1,6.22,14.07c-8.29-1.45-16.34-2.47-24.29-3.08V321c8.07.62,16.24,1.66,24.66,3.16.23,1.06.42,2.11.56,3.17a33.15,33.15,0,0,1-2.29,17.37h1.57a34.43,34.43,0,0,0,2.17-17.56c-.12-.9-.28-1.8-.46-2.69q6,1.09,12.16,2.49c1.66.38,3.33.77,5,1.18v-1.51C1155.93,326.26,1154.38,325.89,1152.82,325.54Z"/><path class="cls-2" d="M1227.62,327.79v-1.38c-1.42-.35-2.86-.69-4.29-1a241,241,0,0,0-38.89-5.75V321a240.61,240.61,0,0,1,38.59,5.71C1224.56,327.06,1226.1,327.42,1227.62,327.79Z"/><path class="cls-2" d="M1437.79,131.69c-11.73-2.38-20.09-9.1-24.85-20a49.12,49.12,0,0,1-3.77-15.63c0-.23,0-.47-.05-.71h-1.35c0,.28,0,.56.06.83a50.28,50.28,0,0,0,3.88,16.05c4.94,11.3,13.63,18.28,25.81,20.75a75.65,75.65,0,0,0,9.14,1.24v-1.36A74.92,74.92,0,0,1,1437.79,131.69Z"/><path class="cls-2" d="M1497.53,111.82a102.14,102.14,0,0,1,21-15.94V94.77h-.78a103.89,103.89,0,0,0-21.12,16.08,161.51,161.51,0,0,0-20.21,24H1478A159.54,159.54,0,0,1,1497.53,111.82Z"/><path class="cls-2" d="M1378.58,118.89V117.5c-1.43-.35-2.86-.68-4.3-1a242.08,242.08,0,0,0-38.89-5.75v1.35a240.51,240.51,0,0,1,38.59,5.72C1375.52,118.15,1377.05,118.52,1378.58,118.89Z"/><path class="cls-2" d="M1286.14,111.62a111.63,111.63,0,0,1,22.29-17V93.14H1308a112.56,112.56,0,0,0-22.9,17.44q-4.33,4.24-8.34,8.74h0a40.46,40.46,0,0,1-4.47-7.8,53.45,53.45,0,0,1-4.08-16.94c0-.26,0-.52-.06-.77h-1.47c0,.3,0,.6.07.9a54.93,54.93,0,0,0,4.2,17.4,42.86,42.86,0,0,0,4.81,8.34q-5.7,6.49-10.7,13.5v2.54a174.35,174.35,0,0,1,11.62-14.87l.19-.21-.19.21c5.46,6.73,12.91,11.08,22.26,13a81.56,81.56,0,0,0,9.47,1.3v-1.46a80.38,80.38,0,0,1-9.18-1.28c-9.09-1.84-16.3-6.08-21.57-12.66h0l0-.06,0,.06Q1281.75,115.94,1286.14,111.62Z"/><path class="cls-2" d="M1284.5,170.47a43.81,43.81,0,0,1,6.59,17.33,30.45,30.45,0,0,1-2.12,16h1.46a31.69,31.69,0,0,0,2-16.2,44.9,44.9,0,0,0-6.78-17.86q-1.47-2.37-3.16-4.68h-1.68C1282.14,166.85,1283.37,168.64,1284.5,170.47Z"/><path class="cls-2" d="M1357.08,181.45a102.58,102.58,0,0,1,21-15.94V164.4h-.78a104,104,0,0,0-21.13,16.09,161.54,161.54,0,0,0-20.2,24h1.65A159.62,159.62,0,0,1,1357.08,181.45Z"/><path class="cls-2" d="M1444.22,186.27q-6.51-1.49-12.82-2.63a51.67,51.67,0,0,0-6.55-15.12q-1.59-2.57-3.43-5.07h-1.82c1.45,1.92,2.78,3.87,4,5.84a50.87,50.87,0,0,1,6.22,14.07c-8.29-1.45-16.34-2.47-24.29-3.08v1.47c8.06.62,16.23,1.66,24.65,3.16.23,1.06.42,2.11.57,3.17a33,33,0,0,1-2.3,17.37H1430a34.32,34.32,0,0,0,2.16-17.56q-.18-1.35-.45-2.7c4,.74,8,1.57,12.15,2.5q2.5.57,5,1.17v-1.5C1447.34,187,1445.78,186.62,1444.22,186.27Z"/><path class="cls-2" d="M1519,188.52v-1.39c-1.43-.34-2.86-.68-4.3-1a240.69,240.69,0,0,0-38.88-5.75v1.35a240.34,240.34,0,0,1,38.58,5.71C1516,187.79,1517.5,188.15,1519,188.52Z"/><path class="cls-2" d="M1719.09,131.69c-11.73-2.38-20.09-9.1-24.85-20a49.39,49.39,0,0,1-3.77-15.63c0-.23,0-.47,0-.71h-1.35l.06.83a50.28,50.28,0,0,0,3.88,16.05c4.94,11.3,13.63,18.28,25.81,20.75a75.92,75.92,0,0,0,9.14,1.24v-1.36A74.92,74.92,0,0,1,1719.09,131.69Z"/><path class="cls-2" d="M1778.83,111.82a102.41,102.41,0,0,1,21-15.94V94.77H1799a103.94,103.94,0,0,0-21.13,16.08,160.84,160.84,0,0,0-20.2,24h1.64A160.18,160.18,0,0,1,1778.83,111.82Z"/><path class="cls-2" d="M1659.88,118.89V117.5c-1.43-.35-2.86-.68-4.3-1a241.8,241.8,0,0,0-38.88-5.75v1.35a240.39,240.39,0,0,1,38.58,5.72C1656.82,118.15,1658.35,118.52,1659.88,118.89Z"/><path class="cls-2" d="M1567.44,111.62a111.41,111.41,0,0,1,22.3-17V93.14h-.42a112.56,112.56,0,0,0-22.9,17.44q-4.34,4.24-8.34,8.74h0a39.92,39.92,0,0,1-4.46-7.8,53.18,53.18,0,0,1-4.09-16.94l-.06-.77H1548l.06.9a54.66,54.66,0,0,0,4.21,17.4,42.33,42.33,0,0,0,4.8,8.34q-5.7,6.49-10.69,13.5v2.54A172.24,172.24,0,0,1,1558,121.62l.19-.21-.19.21c5.46,6.73,12.91,11.08,22.26,13a81.43,81.43,0,0,0,9.48,1.3v-1.46a80.55,80.55,0,0,1-9.19-1.28c-9.08-1.84-16.3-6.08-21.57-12.66h0l0-.06,0,.06Q1563,115.94,1567.44,111.62Z"/><path class="cls-2" d="M1565.8,170.47a43.81,43.81,0,0,1,6.59,17.33,30.54,30.54,0,0,1-2.11,16h1.45a31.8,31.8,0,0,0,2-16.2,45.2,45.2,0,0,0-6.78-17.86q-1.47-2.37-3.17-4.68h-1.68C1563.44,166.85,1564.67,168.64,1565.8,170.47Z"/><path class="cls-2" d="M1638.38,181.45a102.85,102.85,0,0,1,21-15.94V164.4h-.78a103.67,103.67,0,0,0-21.12,16.09,161,161,0,0,0-20.21,24h1.65A159.62,159.62,0,0,1,1638.38,181.45Z"/><path class="cls-2" d="M1725.53,186.27q-6.52-1.49-12.83-2.63a51.67,51.67,0,0,0-6.55-15.12q-1.59-2.57-3.43-5.07h-1.82q2.17,2.88,4,5.84a50.87,50.87,0,0,1,6.22,14.07c-8.29-1.45-16.34-2.47-24.29-3.08v1.47a248.26,248.26,0,0,1,24.65,3.16c.24,1.06.43,2.11.57,3.17a33.15,33.15,0,0,1-2.29,17.37h1.57a34.43,34.43,0,0,0,2.17-17.56c-.12-.9-.28-1.8-.46-2.7,4,.74,8,1.57,12.15,2.5q2.5.57,5,1.17v-1.5C1728.64,187,1727.09,186.62,1725.53,186.27Z"/><path class="cls-2" d="M1800.33,188.52v-1.39c-1.43-.34-2.86-.68-4.3-1a240.69,240.69,0,0,0-38.88-5.75v1.35a240.34,240.34,0,0,1,38.58,5.71C1797.27,187.79,1798.8,188.15,1800.33,188.52Z"/><path class="cls-2" d="M1437.79,271c-11.73-2.38-20.09-9.1-24.85-20a49.12,49.12,0,0,1-3.77-15.62c0-.24,0-.48-.05-.72h-1.35c0,.28,0,.56.06.83a50.28,50.28,0,0,0,3.88,16.05c4.94,11.3,13.63,18.28,25.81,20.75a75.65,75.65,0,0,0,9.14,1.24v-1.36A72.9,72.9,0,0,1,1437.79,271Z"/><path class="cls-2" d="M1497.53,251.09a102.14,102.14,0,0,1,21-15.94V234h-.78a103.89,103.89,0,0,0-21.12,16.08,161.51,161.51,0,0,0-20.21,24H1478A159.54,159.54,0,0,1,1497.53,251.09Z"/><path class="cls-2" d="M1378.58,258.16v-1.39c-1.43-.35-2.86-.68-4.3-1a242.08,242.08,0,0,0-38.89-5.75v1.36a239.33,239.33,0,0,1,38.59,5.71C1375.52,257.43,1377.05,257.79,1378.58,258.16Z"/><path class="cls-2" d="M1286.14,250.89a111.63,111.63,0,0,1,22.29-17v-1.45H1308a112.56,112.56,0,0,0-22.9,17.44q-4.33,4.25-8.34,8.74h0a40.46,40.46,0,0,1-4.47-7.8,53.45,53.45,0,0,1-4.08-16.94c0-.26,0-.52-.06-.77h-1.47c0,.3,0,.6.07.9a54.93,54.93,0,0,0,4.2,17.4,42.57,42.57,0,0,0,4.81,8.34q-5.7,6.5-10.7,13.5v2.54a174.35,174.35,0,0,1,11.62-14.87l.19-.21-.19.21c5.46,6.73,12.91,11.08,22.26,13a81.56,81.56,0,0,0,9.47,1.3v-1.46a80.38,80.38,0,0,1-9.18-1.28c-9.09-1.84-16.3-6.08-21.57-12.66h0l0,0,0,0Q1281.75,255.21,1286.14,250.89Z"/><path class="cls-2" d="M1284.5,309.74a43.81,43.81,0,0,1,6.59,17.33,30.45,30.45,0,0,1-2.12,16h1.46a31.68,31.68,0,0,0,2-16.2,45,45,0,0,0-6.78-17.86q-1.47-2.37-3.16-4.68h-1.68Q1282.81,307,1284.5,309.74Z"/><path class="cls-2" d="M1357.08,320.72a102.58,102.58,0,0,1,21-15.94v-1.11h-.78a104,104,0,0,0-21.13,16.09,161.54,161.54,0,0,0-20.2,24h1.65A160.15,160.15,0,0,1,1357.08,320.72Z"/><path class="cls-2" d="M1444.22,325.54q-6.51-1.49-12.82-2.62a51.61,51.61,0,0,0-6.55-15.13q-1.59-2.57-3.43-5.07h-1.82c1.45,1.93,2.78,3.87,4,5.84a50.87,50.87,0,0,1,6.22,14.07c-8.29-1.45-16.34-2.47-24.29-3.08V321c8.06.62,16.23,1.66,24.65,3.16.23,1.06.42,2.11.57,3.17a33,33,0,0,1-2.3,17.37H1430a34.32,34.32,0,0,0,2.16-17.56c-.12-.9-.27-1.8-.45-2.69,4,.73,8,1.56,12.15,2.49q2.5.57,5,1.18v-1.51C1447.34,326.26,1445.78,325.89,1444.22,325.54Z"/><path class="cls-2" d="M1519,327.79v-1.38c-1.43-.35-2.86-.69-4.3-1a240.69,240.69,0,0,0-38.88-5.75V321a240.34,240.34,0,0,1,38.58,5.71C1516,327.06,1517.5,327.42,1519,327.79Z"/><path class="cls-2" d="M1719.09,271c-11.73-2.38-20.09-9.1-24.85-20a49.39,49.39,0,0,1-3.77-15.62c0-.24,0-.48,0-.72h-1.35l.06.83a50.28,50.28,0,0,0,3.88,16.05c4.94,11.3,13.63,18.28,25.81,20.75a75.92,75.92,0,0,0,9.14,1.24v-1.36A72.9,72.9,0,0,1,1719.09,271Z"/><path class="cls-2" d="M1778.83,251.09a102.41,102.41,0,0,1,21-15.94V234H1799a103.94,103.94,0,0,0-21.13,16.08,160.84,160.84,0,0,0-20.2,24h1.64A160.18,160.18,0,0,1,1778.83,251.09Z"/><path class="cls-2" d="M1659.88,258.16v-1.39c-1.43-.35-2.86-.68-4.3-1A241.8,241.8,0,0,0,1616.7,250v1.36a239.22,239.22,0,0,1,38.58,5.71C1656.82,257.43,1658.35,257.79,1659.88,258.16Z"/><path class="cls-2" d="M1567.44,250.89a111.41,111.41,0,0,1,22.3-17v-1.45h-.42a112.56,112.56,0,0,0-22.9,17.44q-4.34,4.25-8.34,8.74h0a39.92,39.92,0,0,1-4.46-7.8,53.18,53.18,0,0,1-4.09-16.94l-.06-.77H1548l.06.9a54.66,54.66,0,0,0,4.21,17.4,42,42,0,0,0,4.8,8.34q-5.7,6.5-10.69,13.5v2.54A172.24,172.24,0,0,1,1558,260.89l.19-.21-.19.21c5.46,6.73,12.91,11.08,22.26,13a81.43,81.43,0,0,0,9.48,1.3v-1.46a80.55,80.55,0,0,1-9.19-1.28c-9.08-1.84-16.3-6.08-21.57-12.66h0l0,0,0,0Q1563,255.21,1567.44,250.89Z"/><path class="cls-2" d="M1565.8,309.74a43.81,43.81,0,0,1,6.59,17.33,30.54,30.54,0,0,1-2.11,16h1.45a31.79,31.79,0,0,0,2-16.2A45.26,45.26,0,0,0,1567,309q-1.47-2.37-3.17-4.68h-1.68Q1564.11,307,1565.8,309.74Z"/><path class="cls-2" d="M1638.38,320.72a102.85,102.85,0,0,1,21-15.94v-1.11h-.78a103.67,103.67,0,0,0-21.12,16.09,161,161,0,0,0-20.21,24h1.65A160.15,160.15,0,0,1,1638.38,320.72Z"/><path class="cls-2" d="M1725.53,325.54q-6.52-1.49-12.83-2.62a51.61,51.61,0,0,0-6.55-15.13q-1.59-2.57-3.43-5.07h-1.82c1.45,1.93,2.79,3.87,4,5.84a50.87,50.87,0,0,1,6.22,14.07c-8.29-1.45-16.34-2.47-24.29-3.08V321a248.26,248.26,0,0,1,24.65,3.16c.24,1.06.43,2.11.57,3.17a33.15,33.15,0,0,1-2.29,17.37h1.57a34.43,34.43,0,0,0,2.17-17.56c-.12-.9-.28-1.8-.46-2.69,4,.73,8,1.56,12.15,2.49q2.5.57,5,1.18v-1.51C1728.64,326.26,1727.09,325.89,1725.53,325.54Z"/><path class="cls-2" d="M1800.33,327.79v-1.38c-1.43-.35-2.86-.69-4.3-1a240.69,240.69,0,0,0-38.88-5.75V321a240.34,240.34,0,0,1,38.58,5.71C1797.27,327.06,1798.8,327.42,1800.33,327.79Z"/><path class="cls-2" d="M292.37,418.46c-11.73-2.38-20.09-9.09-24.84-20a48.85,48.85,0,0,1-3.77-15.63c0-.24,0-.48-.06-.71h-1.35l.06.83A50.41,50.41,0,0,0,266.29,399c4.94,11.29,13.63,18.27,25.81,20.74a75.92,75.92,0,0,0,9.14,1.24v-1.35A75.24,75.24,0,0,1,292.37,418.46Z"/><path class="cls-2" d="M352.12,398.59a102.58,102.58,0,0,1,21-15.94v-1.11h-.78a104,104,0,0,0-21.13,16.09,160.94,160.94,0,0,0-20.2,24h1.64A159.69,159.69,0,0,1,352.12,398.59Z"/><path class="cls-2" d="M233.16,405.66v-1.39l-4.3-1A241.74,241.74,0,0,0,190,397.52v1.35a240.34,240.34,0,0,1,38.58,5.71C230.1,404.93,231.63,405.29,233.16,405.66Z"/><path class="cls-2" d="M140.73,398.4a111.41,111.41,0,0,1,22.29-17v-1.45h-.41a112.74,112.74,0,0,0-22.9,17.44q-4.35,4.25-8.35,8.75h0a40.51,40.51,0,0,1-4.46-7.8,53.18,53.18,0,0,1-4.09-16.95l-.06-.77h-1.46l.06.9a54.86,54.86,0,0,0,4.21,17.4,42.25,42.25,0,0,0,4.8,8.34q-5.69,6.51-10.69,13.5v2.55a171.15,171.15,0,0,1,11.61-14.87c.07-.07.13-.15.19-.22s-.12.15-.19.22c5.46,6.72,12.91,11.08,22.26,13a81.47,81.47,0,0,0,9.48,1.31v-1.47a80.52,80.52,0,0,1-9.19-1.27c-9.08-1.84-16.3-6.09-21.56-12.66h0l0-.06.05.06Q136.32,402.71,140.73,398.4Z"/><path class="cls-2" d="M139.08,457.24a43.77,43.77,0,0,1,6.59,17.33,30.49,30.49,0,0,1-2.11,16H145a31.84,31.84,0,0,0,2-16.21,45.26,45.26,0,0,0-6.78-17.86c-1-1.58-2-3.13-3.17-4.68h-1.68C136.72,453.63,138,455.42,139.08,457.24Z"/><path class="cls-2" d="M211.66,468.23a102.14,102.14,0,0,1,21-15.94v-1.11h-.78a103.89,103.89,0,0,0-21.12,16.08,160.84,160.84,0,0,0-20.2,24h1.64A159.54,159.54,0,0,1,211.66,468.23Z"/><path class="cls-2" d="M298.81,473q-6.53-1.49-12.83-2.62a51.79,51.79,0,0,0-6.54-15.12c-1.07-1.72-2.21-3.41-3.44-5.08h-1.82c1.45,1.93,2.79,3.87,4,5.85a50.45,50.45,0,0,1,6.22,14.07c-8.29-1.45-16.34-2.48-24.29-3.09v1.47c8.07.62,16.24,1.67,24.66,3.17.23,1.05.42,2.11.56,3.17a33.16,33.16,0,0,1-2.29,17.37h1.57a34.47,34.47,0,0,0,2.17-17.57c-.12-.9-.28-1.8-.46-2.69q6,1.09,12.16,2.5l5,1.17v-1.5C301.92,473.76,300.37,473.4,298.81,473Z"/><path class="cls-2" d="M373.61,475.3v-1.39c-1.42-.35-2.86-.68-4.29-1a242.08,242.08,0,0,0-38.89-5.75v1.36A239.5,239.5,0,0,1,369,474.22C370.55,474.57,372.09,474.93,373.61,475.3Z"/><path class="cls-2" d="M573.67,418.46c-11.72-2.38-20.08-9.09-24.84-20a49.12,49.12,0,0,1-3.77-15.63l-.06-.71h-1.35l.06.83A50.68,50.68,0,0,0,547.59,399c4.95,11.29,13.63,18.27,25.81,20.74a75.92,75.92,0,0,0,9.14,1.24v-1.35A75.24,75.24,0,0,1,573.67,418.46Z"/><path class="cls-2" d="M633.42,398.59a102.58,102.58,0,0,1,21-15.94v-1.11h-.78a104,104,0,0,0-21.13,16.09,161.54,161.54,0,0,0-20.2,24h1.65A159.62,159.62,0,0,1,633.42,398.59Z"/><path class="cls-2" d="M514.46,405.66v-1.39l-4.3-1a241.74,241.74,0,0,0-38.88-5.74v1.35a240.61,240.61,0,0,1,38.59,5.71C511.4,404.93,512.94,405.29,514.46,405.66Z"/><path class="cls-2" d="M422,398.4a111.69,111.69,0,0,1,22.29-17v-1.45h-.41A113,113,0,0,0,421,397.35q-4.35,4.25-8.35,8.75h0a41.59,41.59,0,0,1-4.46-7.8,53.45,53.45,0,0,1-4.09-16.95c0-.25,0-.51-.05-.77h-1.47c0,.3,0,.6.07.9a54.59,54.59,0,0,0,4.2,17.4,41.79,41.79,0,0,0,4.81,8.34q-5.7,6.51-10.7,13.5v2.55a169.34,169.34,0,0,1,11.62-14.87l.18-.22c-.06.07-.12.15-.19.22,5.46,6.72,12.91,11.08,22.26,13a81.76,81.76,0,0,0,9.48,1.31v-1.47a80.83,80.83,0,0,1-9.19-1.27c-9.08-1.84-16.3-6.09-21.56-12.66h0l-.05-.06.05.06Q417.62,402.71,422,398.4Z"/><path class="cls-2" d="M420.38,457.24A43.77,43.77,0,0,1,427,474.57a30.39,30.39,0,0,1-2.11,16h1.45a31.73,31.73,0,0,0,2-16.21,45.11,45.11,0,0,0-6.78-17.86c-1-1.58-2-3.13-3.17-4.68h-1.68C418,453.63,419.25,455.42,420.38,457.24Z"/><path class="cls-2" d="M493,468.23a102.41,102.41,0,0,1,21-15.94v-1.11h-.77A103.94,103.94,0,0,0,492,467.26a160.84,160.84,0,0,0-20.2,24h1.64A160.18,160.18,0,0,1,493,468.23Z"/><path class="cls-2" d="M580.11,473q-6.52-1.49-12.82-2.62a51.56,51.56,0,0,0-6.55-15.12q-1.59-2.58-3.43-5.08h-1.83c1.46,1.93,2.79,3.87,4,5.85a50.45,50.45,0,0,1,6.22,14.07c-8.28-1.45-16.33-2.48-24.29-3.09v1.47c8.07.62,16.24,1.67,24.66,3.17.23,1.05.42,2.11.56,3.17a33.06,33.06,0,0,1-2.29,17.37h1.57a34.37,34.37,0,0,0,2.17-17.57c-.12-.9-.27-1.8-.46-2.69q6,1.09,12.16,2.5,2.51.57,5,1.17v-1.5C583.22,473.76,581.67,473.4,580.11,473Z"/><path class="cls-2" d="M654.92,475.3v-1.39c-1.43-.35-2.87-.68-4.3-1a242.08,242.08,0,0,0-38.89-5.75v1.36a239.33,239.33,0,0,1,38.59,5.71C651.86,474.57,653.39,474.93,654.92,475.3Z"/><path class="cls-2" d="M292.37,557.73c-11.73-2.38-20.09-9.09-24.84-20a48.85,48.85,0,0,1-3.77-15.63c0-.24,0-.47-.06-.71h-1.35l.06.83a50.41,50.41,0,0,0,3.88,16c4.94,11.29,13.63,18.27,25.81,20.74a75.92,75.92,0,0,0,9.14,1.24v-1.35A75.24,75.24,0,0,1,292.37,557.73Z"/><path class="cls-2" d="M352.12,537.86a102.58,102.58,0,0,1,21-15.94v-1.11h-.78a104,104,0,0,0-21.13,16.09,160.94,160.94,0,0,0-20.2,24h1.64A160.23,160.23,0,0,1,352.12,537.86Z"/><path class="cls-2" d="M233.16,544.93v-1.38c-1.43-.35-2.86-.69-4.3-1A240.69,240.69,0,0,0,190,536.79v1.35a240.34,240.34,0,0,1,38.58,5.71C230.1,544.2,231.63,544.56,233.16,544.93Z"/><path class="cls-2" d="M140.73,537.67a111,111,0,0,1,22.29-17v-1.45h-.41a112.32,112.32,0,0,0-22.9,17.43q-4.35,4.26-8.35,8.75h0a39.92,39.92,0,0,1-4.46-7.8,53.18,53.18,0,0,1-4.09-17l-.06-.77h-1.46l.06.9a54.79,54.79,0,0,0,4.21,17.4,42.25,42.25,0,0,0,4.8,8.34Q124.67,553,119.67,560v2.55a172.68,172.68,0,0,1,11.61-14.87,2,2,0,0,0,.19-.22,2,2,0,0,1-.19.22c5.46,6.73,12.91,11.08,22.26,13A81.47,81.47,0,0,0,163,562v-1.47a80.52,80.52,0,0,1-9.19-1.27c-9.08-1.84-16.3-6.09-21.56-12.66h0l0-.06.05.06Q136.32,542,140.73,537.67Z"/><path class="cls-2" d="M139.08,596.51a43.76,43.76,0,0,1,6.59,17.34,30.46,30.46,0,0,1-2.11,16H145a31.84,31.84,0,0,0,2-16.21,45.26,45.26,0,0,0-6.78-17.86c-1-1.58-2-3.13-3.17-4.68h-1.68C136.72,592.9,138,594.69,139.08,596.51Z"/><path class="cls-2" d="M211.66,607.5a102.49,102.49,0,0,1,21-15.94v-1.11h-.78a103.89,103.89,0,0,0-21.12,16.08,160.84,160.84,0,0,0-20.2,24h1.64A159.54,159.54,0,0,1,211.66,607.5Z"/><path class="cls-2" d="M298.81,612.31q-6.53-1.47-12.83-2.62a51.79,51.79,0,0,0-6.54-15.12c-1.07-1.72-2.21-3.4-3.44-5.08h-1.82c1.45,1.93,2.79,3.87,4,5.85a50.57,50.57,0,0,1,6.22,14.07c-8.29-1.45-16.34-2.48-24.29-3.09v1.47c8.07.62,16.24,1.67,24.66,3.17.23,1,.42,2.11.56,3.17a33.16,33.16,0,0,1-2.29,17.37h1.57a34.47,34.47,0,0,0,2.17-17.57c-.12-.9-.28-1.79-.46-2.69q6,1.1,12.16,2.5l5,1.17v-1.5C301.92,613,300.37,612.67,298.81,612.31Z"/><path class="cls-2" d="M373.61,614.57v-1.39l-4.29-1a242.08,242.08,0,0,0-38.89-5.75v1.36A239.5,239.5,0,0,1,369,613.49C370.55,613.84,372.09,614.2,373.61,614.57Z"/><path class="cls-2" d="M573.67,557.73c-11.72-2.38-20.08-9.09-24.84-20a49.12,49.12,0,0,1-3.77-15.63l-.06-.71h-1.35l.06.83a50.68,50.68,0,0,0,3.88,16c4.95,11.29,13.63,18.27,25.81,20.74a75.92,75.92,0,0,0,9.14,1.24v-1.35A75.24,75.24,0,0,1,573.67,557.73Z"/><path class="cls-2" d="M633.42,537.86a102.58,102.58,0,0,1,21-15.94v-1.11h-.78a104,104,0,0,0-21.13,16.09,161.54,161.54,0,0,0-20.2,24h1.65A160.15,160.15,0,0,1,633.42,537.86Z"/><path class="cls-2" d="M514.46,544.93v-1.38c-1.43-.35-2.86-.69-4.3-1a240.69,240.69,0,0,0-38.88-5.75v1.35a240.61,240.61,0,0,1,38.59,5.71C511.4,544.2,512.94,544.56,514.46,544.93Z"/><path class="cls-2" d="M422,537.67a111.26,111.26,0,0,1,22.29-17v-1.45h-.41A112.59,112.59,0,0,0,421,536.62q-4.35,4.26-8.35,8.75h0a41,41,0,0,1-4.46-7.8,53.45,53.45,0,0,1-4.09-17c0-.25,0-.51-.05-.77h-1.47c0,.3,0,.6.07.9a54.53,54.53,0,0,0,4.2,17.4,41.79,41.79,0,0,0,4.81,8.34Q406,553,401,560v2.55a170.84,170.84,0,0,1,11.62-14.87l.18-.22a2,2,0,0,1-.19.22c5.46,6.73,12.91,11.08,22.26,13a81.76,81.76,0,0,0,9.48,1.31v-1.47a80.83,80.83,0,0,1-9.19-1.27c-9.08-1.84-16.3-6.09-21.56-12.66h0l-.05-.06.05.06Q417.62,542,422,537.67Z"/><path class="cls-2" d="M420.38,596.51A43.76,43.76,0,0,1,427,613.85a30.36,30.36,0,0,1-2.11,16h1.45a31.73,31.73,0,0,0,2-16.21,45.11,45.11,0,0,0-6.78-17.86c-1-1.58-2-3.13-3.17-4.68h-1.68C418,592.9,419.25,594.69,420.38,596.51Z"/><path class="cls-2" d="M493,607.5a102.76,102.76,0,0,1,21-15.94v-1.11h-.77A103.94,103.94,0,0,0,492,606.53a160.84,160.84,0,0,0-20.2,24h1.64A160.18,160.18,0,0,1,493,607.5Z"/><path class="cls-2" d="M580.11,612.31q-6.52-1.47-12.82-2.62a51.56,51.56,0,0,0-6.55-15.12c-1.06-1.72-2.2-3.4-3.43-5.08h-1.83c1.46,1.93,2.79,3.87,4,5.85a50.57,50.57,0,0,1,6.22,14.07c-8.28-1.45-16.33-2.48-24.29-3.09v1.47c8.07.62,16.24,1.67,24.66,3.17.23,1,.42,2.11.56,3.17a33.06,33.06,0,0,1-2.29,17.37h1.57a34.37,34.37,0,0,0,2.17-17.57c-.12-.9-.27-1.79-.46-2.69q6,1.1,12.16,2.5,2.51.57,5,1.17v-1.5C583.22,613,581.67,612.67,580.11,612.31Z"/><path class="cls-2" d="M654.92,614.57v-1.39l-4.3-1a242.08,242.08,0,0,0-38.89-5.75v1.36a239.33,239.33,0,0,1,38.59,5.71C651.86,613.84,653.39,614.2,654.92,614.57Z"/><path class="cls-2" d="M865.08,418.46c-11.73-2.38-20.09-9.09-24.85-20a49.12,49.12,0,0,1-3.77-15.63c0-.24,0-.48-.05-.71h-1.35l.06.83A50.41,50.41,0,0,0,839,399c4.94,11.29,13.63,18.27,25.81,20.74A75.92,75.92,0,0,0,874,421v-1.35A75,75,0,0,1,865.08,418.46Z"/><path class="cls-2" d="M924.82,398.59a103.13,103.13,0,0,1,21-15.94v-1.11H945a104,104,0,0,0-21.13,16.09,160.34,160.34,0,0,0-20.2,24h1.64A160.25,160.25,0,0,1,924.82,398.59Z"/><path class="cls-2" d="M805.87,405.66v-1.39l-4.3-1a241.91,241.91,0,0,0-38.88-5.74v1.35a240.34,240.34,0,0,1,38.58,5.71C802.81,404.93,804.34,405.29,805.87,405.66Z"/><path class="cls-2" d="M713.43,398.4a111.46,111.46,0,0,1,22.3-17v-1.45h-.42a113.29,113.29,0,0,0-22.9,17.44q-4.33,4.25-8.34,8.75h0a40.51,40.51,0,0,1-4.46-7.8,53.18,53.18,0,0,1-4.09-16.95l-.06-.77H694l.06.9a54.59,54.59,0,0,0,4.21,17.4,41.76,41.76,0,0,0,4.8,8.34q-5.7,6.51-10.69,13.5v2.55A169.23,169.23,0,0,1,704,408.4l.19-.22-.19.22c5.46,6.72,12.91,11.08,22.26,13a81.47,81.47,0,0,0,9.48,1.31v-1.47a80.52,80.52,0,0,1-9.19-1.27c-9.08-1.84-16.3-6.09-21.57-12.66h0l0-.06,0,.06Q709,402.71,713.43,398.4Z"/><path class="cls-2" d="M711.79,457.24a43.92,43.92,0,0,1,6.59,17.33,30.59,30.59,0,0,1-2.11,16h1.45a31.84,31.84,0,0,0,2-16.21,45.13,45.13,0,0,0-6.79-17.86c-1-1.58-2-3.13-3.16-4.68h-1.68C709.43,453.63,710.66,455.42,711.79,457.24Z"/><path class="cls-2" d="M784.37,468.23a102.14,102.14,0,0,1,21-15.94v-1.11h-.78a103.61,103.61,0,0,0-21.12,16.08,161.51,161.51,0,0,0-20.21,24h1.65A159.54,159.54,0,0,1,784.37,468.23Z"/><path class="cls-2" d="M871.52,473q-6.53-1.49-12.83-2.62a51.56,51.56,0,0,0-6.55-15.12q-1.59-2.58-3.43-5.08h-1.82c1.45,1.93,2.79,3.87,4,5.85a50.74,50.74,0,0,1,6.22,14.07c-8.29-1.45-16.34-2.48-24.29-3.09v1.47a248.34,248.34,0,0,1,24.65,3.17c.24,1.05.42,2.11.57,3.17a33.16,33.16,0,0,1-2.29,17.37h1.57a34.47,34.47,0,0,0,2.17-17.57c-.12-.9-.28-1.8-.46-2.69,4,.73,8,1.56,12.15,2.5q2.5.57,5,1.17v-1.5C874.63,473.76,873.08,473.4,871.52,473Z"/><path class="cls-2" d="M946.32,475.3v-1.39c-1.43-.35-2.86-.68-4.3-1a241.8,241.8,0,0,0-38.88-5.75v1.36a239.22,239.22,0,0,1,38.58,5.71C943.26,474.57,944.79,474.93,946.32,475.3Z"/><path class="cls-2" d="M1146.38,418.46c-11.73-2.38-20.09-9.09-24.84-20a48.85,48.85,0,0,1-3.77-15.63c0-.24,0-.48-.06-.71h-1.35l.06.83A50.41,50.41,0,0,0,1120.3,399c5,11.29,13.63,18.27,25.81,20.74a75.92,75.92,0,0,0,9.14,1.24v-1.35A75.24,75.24,0,0,1,1146.38,418.46Z"/><path class="cls-2" d="M1206.13,398.59a102.58,102.58,0,0,1,21-15.94v-1.11h-.78a104,104,0,0,0-21.13,16.09,160.94,160.94,0,0,0-20.2,24h1.64A159.69,159.69,0,0,1,1206.13,398.59Z"/><path class="cls-2" d="M1087.17,405.66v-1.39l-4.3-1a241.74,241.74,0,0,0-38.88-5.74v1.35a240.34,240.34,0,0,1,38.58,5.71C1084.11,404.93,1085.64,405.29,1087.17,405.66Z"/><path class="cls-2" d="M994.74,398.4a111.41,111.41,0,0,1,22.29-17v-1.45h-.41a112.74,112.74,0,0,0-22.9,17.44q-4.35,4.25-8.35,8.75h0a40.51,40.51,0,0,1-4.46-7.8,53.18,53.18,0,0,1-4.09-16.95l-.06-.77H975.3l.06.9a54.86,54.86,0,0,0,4.21,17.4,42.25,42.25,0,0,0,4.8,8.34q-5.68,6.51-10.69,13.5v2.55a171.15,171.15,0,0,1,11.61-14.87c.07-.07.13-.15.19-.22s-.12.15-.19.22c5.46,6.72,12.91,11.08,22.26,13a81.47,81.47,0,0,0,9.48,1.31v-1.47a80.52,80.52,0,0,1-9.19-1.27c-9.08-1.84-16.3-6.09-21.56-12.66h0l0-.06,0,.06Q990.33,402.71,994.74,398.4Z"/><path class="cls-2" d="M993.09,457.24a43.77,43.77,0,0,1,6.59,17.33,30.49,30.49,0,0,1-2.11,16H999a31.84,31.84,0,0,0,2-16.21,45.26,45.26,0,0,0-6.78-17.86c-1-1.58-2-3.13-3.17-4.68h-1.68C990.73,453.63,992,455.42,993.09,457.24Z"/><path class="cls-2" d="M1065.67,468.23a102.41,102.41,0,0,1,21-15.94v-1.11h-.78a103.89,103.89,0,0,0-21.12,16.08,160.84,160.84,0,0,0-20.2,24h1.64A160.18,160.18,0,0,1,1065.67,468.23Z"/><path class="cls-2" d="M1152.82,473q-6.52-1.49-12.83-2.62a51.79,51.79,0,0,0-6.54-15.12q-1.6-2.58-3.43-5.08h-1.83c1.45,1.93,2.79,3.87,4,5.85a50.45,50.45,0,0,1,6.22,14.07c-8.29-1.45-16.34-2.48-24.29-3.09v1.47c8.07.62,16.24,1.67,24.66,3.17.23,1.05.42,2.11.56,3.17a33.16,33.16,0,0,1-2.29,17.37h1.57a34.47,34.47,0,0,0,2.17-17.57c-.12-.9-.28-1.8-.46-2.69q6,1.09,12.16,2.5c1.66.38,3.33.77,5,1.17v-1.5C1155.93,473.76,1154.38,473.4,1152.82,473Z"/><path class="cls-2" d="M1227.62,475.3v-1.39c-1.42-.35-2.86-.68-4.29-1a242.08,242.08,0,0,0-38.89-5.75v1.36a239.5,239.5,0,0,1,38.59,5.71C1224.56,474.57,1226.1,474.93,1227.62,475.3Z"/><path class="cls-2" d="M1437.79,418.46c-11.73-2.38-20.09-9.09-24.85-20a49.12,49.12,0,0,1-3.77-15.63c0-.24,0-.48-.05-.71h-1.35c0,.27,0,.55.06.83a50.41,50.41,0,0,0,3.88,16.05c4.94,11.29,13.63,18.27,25.81,20.74a75.65,75.65,0,0,0,9.14,1.24v-1.35A75,75,0,0,1,1437.79,418.46Z"/><path class="cls-2" d="M1497.53,398.59a102.85,102.85,0,0,1,21-15.94v-1.11h-.78a103.94,103.94,0,0,0-21.12,16.09,161,161,0,0,0-20.21,24H1478A159.62,159.62,0,0,1,1497.53,398.59Z"/><path class="cls-2" d="M1378.58,405.66v-1.39l-4.3-1a242,242,0,0,0-38.89-5.74v1.35a240.45,240.45,0,0,1,38.59,5.71C1375.52,404.93,1377.05,405.29,1378.58,405.66Z"/><path class="cls-2" d="M1286.14,398.4a111.69,111.69,0,0,1,22.29-17v-1.45H1308a113.29,113.29,0,0,0-22.9,17.44q-4.33,4.25-8.34,8.75h0a41.07,41.07,0,0,1-4.47-7.8,53.45,53.45,0,0,1-4.08-16.95c0-.25,0-.51-.06-.77h-1.47c0,.3,0,.6.07.9a54.86,54.86,0,0,0,4.2,17.4,42.28,42.28,0,0,0,4.81,8.34q-5.7,6.51-10.7,13.5v2.55a171.26,171.26,0,0,1,11.62-14.87c.06-.07.12-.15.19-.22s-.13.15-.19.22c5.46,6.72,12.91,11.08,22.26,13a81.6,81.6,0,0,0,9.47,1.31v-1.47a80.35,80.35,0,0,1-9.18-1.27c-9.09-1.84-16.3-6.09-21.57-12.66h0l0-.06,0,.06Q1281.75,402.71,1286.14,398.4Z"/><path class="cls-2" d="M1284.5,457.24a43.92,43.92,0,0,1,6.59,17.33,30.5,30.5,0,0,1-2.12,16h1.46a31.73,31.73,0,0,0,2-16.21,45,45,0,0,0-6.78-17.86c-1-1.58-2-3.13-3.16-4.68h-1.68C1282.14,453.63,1283.37,455.42,1284.5,457.24Z"/><path class="cls-2" d="M1357.08,468.23a101.87,101.87,0,0,1,21-15.94v-1.11h-.78a103.94,103.94,0,0,0-21.13,16.08,162,162,0,0,0-20.2,24h1.65A159.54,159.54,0,0,1,1357.08,468.23Z"/><path class="cls-2" d="M1444.22,473q-6.51-1.49-12.82-2.62a51.56,51.56,0,0,0-6.55-15.12q-1.59-2.58-3.43-5.08h-1.82c1.45,1.93,2.78,3.87,4,5.85a50.74,50.74,0,0,1,6.22,14.07c-8.29-1.45-16.34-2.48-24.29-3.09v1.47c8.06.62,16.23,1.67,24.65,3.17.23,1.05.42,2.11.57,3.17a33.06,33.06,0,0,1-2.3,17.37H1430a34.36,34.36,0,0,0,2.16-17.57c-.12-.9-.27-1.8-.45-2.69,4,.73,8,1.56,12.15,2.5q2.5.57,5,1.17v-1.5C1447.34,473.76,1445.78,473.4,1444.22,473Z"/><path class="cls-2" d="M1519,475.3v-1.39c-1.43-.35-2.86-.68-4.3-1a241.8,241.8,0,0,0-38.88-5.75v1.36a239.22,239.22,0,0,1,38.58,5.71C1516,474.57,1517.5,474.93,1519,475.3Z"/><path class="cls-2" d="M1719.09,418.46c-11.73-2.38-20.09-9.09-24.85-20a49.39,49.39,0,0,1-3.77-15.63c0-.24,0-.48,0-.71h-1.35l.06.83A50.41,50.41,0,0,0,1693,399c4.94,11.29,13.63,18.27,25.81,20.74A75.92,75.92,0,0,0,1728,421v-1.35A75,75,0,0,1,1719.09,418.46Z"/><path class="cls-2" d="M1778.83,398.59a103.13,103.13,0,0,1,21-15.94v-1.11H1799a104,104,0,0,0-21.13,16.09,160.34,160.34,0,0,0-20.2,24h1.64A160.25,160.25,0,0,1,1778.83,398.59Z"/><path class="cls-2" d="M1659.88,405.66v-1.39l-4.3-1a241.74,241.74,0,0,0-38.88-5.74v1.35a240.34,240.34,0,0,1,38.58,5.71C1656.82,404.93,1658.35,405.29,1659.88,405.66Z"/><path class="cls-2" d="M1567.44,398.4a111.46,111.46,0,0,1,22.3-17v-1.45h-.42a113.29,113.29,0,0,0-22.9,17.44q-4.34,4.25-8.34,8.75h0a40.51,40.51,0,0,1-4.46-7.8,53.18,53.18,0,0,1-4.09-16.95l-.06-.77H1548l.06.9a54.59,54.59,0,0,0,4.21,17.4,41.76,41.76,0,0,0,4.8,8.34q-5.7,6.51-10.69,13.5v2.55A169.23,169.23,0,0,1,1558,408.4l.19-.22-.19.22c5.46,6.72,12.91,11.08,22.26,13a81.47,81.47,0,0,0,9.48,1.31v-1.47a80.52,80.52,0,0,1-9.19-1.27c-9.08-1.84-16.3-6.09-21.57-12.66h0l0-.06,0,.06Q1563,402.71,1567.44,398.4Z"/><path class="cls-2" d="M1565.8,457.24a43.92,43.92,0,0,1,6.59,17.33,30.59,30.59,0,0,1-2.11,16h1.45a31.84,31.84,0,0,0,2-16.21,45.26,45.26,0,0,0-6.78-17.86c-1-1.58-2-3.13-3.17-4.68h-1.68C1563.44,453.63,1564.67,455.42,1565.8,457.24Z"/><path class="cls-2" d="M1638.38,468.23a102.14,102.14,0,0,1,21-15.94v-1.11h-.78a103.61,103.61,0,0,0-21.12,16.08,161.51,161.51,0,0,0-20.21,24h1.65A159.54,159.54,0,0,1,1638.38,468.23Z"/><path class="cls-2" d="M1725.53,473q-6.52-1.49-12.83-2.62a51.56,51.56,0,0,0-6.55-15.12q-1.59-2.58-3.43-5.08h-1.82c1.45,1.93,2.79,3.87,4,5.85a50.74,50.74,0,0,1,6.22,14.07c-8.29-1.45-16.34-2.48-24.29-3.09v1.47a248.34,248.34,0,0,1,24.65,3.17c.24,1.05.43,2.11.57,3.17a33.16,33.16,0,0,1-2.29,17.37h1.57a34.47,34.47,0,0,0,2.17-17.57c-.12-.9-.28-1.8-.46-2.69,4,.73,8,1.56,12.15,2.5q2.5.57,5,1.17v-1.5C1728.64,473.76,1727.09,473.4,1725.53,473Z"/><path class="cls-2" d="M1800.33,475.3v-1.39c-1.43-.35-2.86-.68-4.3-1a241.8,241.8,0,0,0-38.88-5.75v1.36a239.22,239.22,0,0,1,38.58,5.71C1797.27,474.57,1798.8,474.93,1800.33,475.3Z"/><path class="cls-2" d="M1437.79,557.73c-11.73-2.38-20.09-9.09-24.85-20a49.12,49.12,0,0,1-3.77-15.63c0-.24,0-.47-.05-.71h-1.35c0,.28,0,.55.06.83a50.41,50.41,0,0,0,3.88,16c4.94,11.29,13.63,18.27,25.81,20.74a75.65,75.65,0,0,0,9.14,1.24v-1.35A75,75,0,0,1,1437.79,557.73Z"/><path class="cls-2" d="M1497.53,537.86a102.85,102.85,0,0,1,21-15.94v-1.11h-.78a103.94,103.94,0,0,0-21.12,16.09,161,161,0,0,0-20.21,24H1478A160.15,160.15,0,0,1,1497.53,537.86Z"/><path class="cls-2" d="M1378.58,544.93v-1.38c-1.43-.35-2.86-.69-4.3-1a241,241,0,0,0-38.89-5.75v1.35a240.45,240.45,0,0,1,38.59,5.71C1375.52,544.2,1377.05,544.56,1378.58,544.93Z"/><path class="cls-2" d="M1286.14,537.67a111.26,111.26,0,0,1,22.29-17v-1.45H1308a112.87,112.87,0,0,0-22.9,17.43q-4.33,4.26-8.34,8.75h0a40.46,40.46,0,0,1-4.47-7.8,53.45,53.45,0,0,1-4.08-17c0-.25,0-.51-.06-.77h-1.47c0,.3,0,.6.07.9a54.79,54.79,0,0,0,4.2,17.4,42.28,42.28,0,0,0,4.81,8.34q-5.7,6.51-10.7,13.5v2.55a172.79,172.79,0,0,1,11.62-14.87l.19-.22-.19.22c5.46,6.73,12.91,11.08,22.26,13a81.6,81.6,0,0,0,9.47,1.31v-1.47a80.35,80.35,0,0,1-9.18-1.27c-9.09-1.84-16.3-6.09-21.57-12.66h0l0-.06,0,.06Q1281.75,542,1286.14,537.67Z"/><path class="cls-2" d="M1284.5,596.51a43.91,43.91,0,0,1,6.59,17.34,30.46,30.46,0,0,1-2.12,16h1.46a31.73,31.73,0,0,0,2-16.21,45,45,0,0,0-6.78-17.86c-1-1.58-2-3.13-3.16-4.68h-1.68C1282.14,592.9,1283.37,594.69,1284.5,596.51Z"/><path class="cls-2" d="M1357.08,607.5a102.22,102.22,0,0,1,21-15.94v-1.11h-.78a103.94,103.94,0,0,0-21.13,16.08,162,162,0,0,0-20.2,24h1.65A159.54,159.54,0,0,1,1357.08,607.5Z"/><path class="cls-2" d="M1444.22,612.31q-6.51-1.47-12.82-2.62a51.56,51.56,0,0,0-6.55-15.12c-1.06-1.72-2.2-3.4-3.43-5.08h-1.82c1.45,1.93,2.78,3.87,4,5.85a50.87,50.87,0,0,1,6.22,14.07c-8.29-1.45-16.34-2.48-24.29-3.09v1.47c8.06.62,16.23,1.67,24.65,3.17.23,1,.42,2.11.57,3.17a33.06,33.06,0,0,1-2.3,17.37H1430a34.36,34.36,0,0,0,2.16-17.57c-.12-.9-.27-1.79-.45-2.69,4,.73,8,1.56,12.15,2.5q2.5.57,5,1.17v-1.5C1447.34,613,1445.78,612.67,1444.22,612.31Z"/><path class="cls-2" d="M1519,614.57v-1.39l-4.3-1a241.8,241.8,0,0,0-38.88-5.75v1.36a239.22,239.22,0,0,1,38.58,5.71C1516,613.84,1517.5,614.2,1519,614.57Z"/><path class="cls-2" d="M1719.09,557.73c-11.73-2.38-20.09-9.09-24.85-20a49.39,49.39,0,0,1-3.77-15.63c0-.24,0-.47,0-.71h-1.35l.06.83a50.41,50.41,0,0,0,3.88,16c4.94,11.29,13.63,18.27,25.81,20.74a75.92,75.92,0,0,0,9.14,1.24v-1.35A75,75,0,0,1,1719.09,557.73Z"/><path class="cls-2" d="M1778.83,537.86a103.13,103.13,0,0,1,21-15.94v-1.11H1799a104,104,0,0,0-21.13,16.09,160.34,160.34,0,0,0-20.2,24h1.64A160.8,160.8,0,0,1,1778.83,537.86Z"/><path class="cls-2" d="M1659.88,544.93v-1.38c-1.43-.35-2.86-.69-4.3-1a240.69,240.69,0,0,0-38.88-5.75v1.35a240.34,240.34,0,0,1,38.58,5.71C1656.82,544.2,1658.35,544.56,1659.88,544.93Z"/><path class="cls-2" d="M1567.44,537.67a111,111,0,0,1,22.3-17v-1.45h-.42a112.87,112.87,0,0,0-22.9,17.43q-4.34,4.26-8.34,8.75h0a39.92,39.92,0,0,1-4.46-7.8,53.18,53.18,0,0,1-4.09-17l-.06-.77H1548l.06.9a54.53,54.53,0,0,0,4.21,17.4,41.76,41.76,0,0,0,4.8,8.34q-5.7,6.51-10.69,13.5v2.55A170.72,170.72,0,0,1,1558,547.67c.06-.07.13-.14.19-.22-.06.08-.13.15-.19.22,5.46,6.73,12.91,11.08,22.26,13a81.47,81.47,0,0,0,9.48,1.31v-1.47a80.52,80.52,0,0,1-9.19-1.27c-9.08-1.84-16.3-6.09-21.57-12.66h0l0-.06,0,.06Q1563,542,1567.44,537.67Z"/><path class="cls-2" d="M1565.8,596.51a43.91,43.91,0,0,1,6.59,17.34,30.56,30.56,0,0,1-2.11,16h1.45a31.84,31.84,0,0,0,2-16.21A45.26,45.26,0,0,0,1567,595.8c-1-1.58-2-3.13-3.17-4.68h-1.68C1563.44,592.9,1564.67,594.69,1565.8,596.51Z"/><path class="cls-2" d="M1638.38,607.5a102.49,102.49,0,0,1,21-15.94v-1.11h-.78a103.61,103.61,0,0,0-21.12,16.08,161.51,161.51,0,0,0-20.21,24h1.65A159.54,159.54,0,0,1,1638.38,607.5Z"/><path class="cls-2" d="M1725.53,612.31q-6.52-1.47-12.83-2.62a51.56,51.56,0,0,0-6.55-15.12c-1.06-1.72-2.2-3.4-3.43-5.08h-1.82c1.45,1.93,2.79,3.87,4,5.85a50.87,50.87,0,0,1,6.22,14.07c-8.29-1.45-16.34-2.48-24.29-3.09v1.47a248.34,248.34,0,0,1,24.65,3.17c.24,1,.43,2.11.57,3.17a33.16,33.16,0,0,1-2.29,17.37h1.57a34.47,34.47,0,0,0,2.17-17.57c-.12-.9-.28-1.79-.46-2.69,4,.73,8,1.56,12.15,2.5q2.5.57,5,1.17v-1.5C1728.64,613,1727.09,612.67,1725.53,612.31Z"/><path class="cls-2" d="M1800.33,614.57v-1.39l-4.3-1a241.8,241.8,0,0,0-38.88-5.75v1.36a239.22,239.22,0,0,1,38.58,5.71C1797.27,613.84,1798.8,614.2,1800.33,614.57Z"/><path class="cls-2" d="M292.37,705.24c-11.73-2.38-20.09-9.1-24.84-20a48.85,48.85,0,0,1-3.77-15.63c0-.23,0-.47-.06-.71h-1.35l.06.83a50.28,50.28,0,0,0,3.88,16c4.94,11.3,13.63,18.28,25.81,20.75a75.92,75.92,0,0,0,9.14,1.24v-1.36A75.21,75.21,0,0,1,292.37,705.24Z"/><path class="cls-2" d="M352.12,685.37a101.87,101.87,0,0,1,21-15.94v-1.11h-.78a103.94,103.94,0,0,0-21.13,16.08,161.44,161.44,0,0,0-20.2,24h1.64A159.61,159.61,0,0,1,352.12,685.37Z"/><path class="cls-2" d="M233.16,692.44v-1.39c-1.43-.35-2.86-.68-4.3-1A241.8,241.8,0,0,0,190,684.29v1.35a240.39,240.39,0,0,1,38.58,5.72C230.1,691.7,231.63,692.07,233.16,692.44Z"/><path class="cls-2" d="M140.73,685.17a111.35,111.35,0,0,1,22.29-17v-1.45h-.41a112,112,0,0,0-22.9,17.44q-4.35,4.25-8.35,8.74h0a39.92,39.92,0,0,1-4.46-7.8,53.18,53.18,0,0,1-4.09-16.94l-.06-.77h-1.46l.06.9a54.93,54.93,0,0,0,4.21,17.4,42.54,42.54,0,0,0,4.8,8.34q-5.69,6.5-10.69,13.5V710a174.23,174.23,0,0,1,11.61-14.87l.19-.21-.19.21c5.46,6.73,12.91,11.08,22.26,13a81.43,81.43,0,0,0,9.48,1.3V708a80.55,80.55,0,0,1-9.19-1.28c-9.08-1.84-16.3-6.08-21.56-12.66h0l0-.06.05.06Q136.32,689.49,140.73,685.17Z"/><path class="cls-2" d="M139.08,744a43.66,43.66,0,0,1,6.59,17.33,30.44,30.44,0,0,1-2.11,16H145a31.8,31.8,0,0,0,2-16.2,45.2,45.2,0,0,0-6.78-17.86q-1.47-2.37-3.17-4.68h-1.68C136.72,740.4,138,742.19,139.08,744Z"/><path class="cls-2" d="M211.66,755a102.85,102.85,0,0,1,21-15.94V738h-.78A103.94,103.94,0,0,0,210.72,754a160.34,160.34,0,0,0-20.2,24h1.64A159.62,159.62,0,0,1,211.66,755Z"/><path class="cls-2" d="M298.81,759.82q-6.53-1.49-12.83-2.63a51.9,51.9,0,0,0-6.54-15.12c-1.07-1.71-2.21-3.4-3.44-5.07h-1.82q2.18,2.88,4,5.84a50.57,50.57,0,0,1,6.22,14.07c-8.29-1.45-16.34-2.47-24.29-3.08v1.47c8.07.62,16.24,1.66,24.66,3.16.23,1.06.42,2.11.56,3.17A33.15,33.15,0,0,1,283.05,779h1.57a34.43,34.43,0,0,0,2.17-17.56c-.12-.9-.28-1.8-.46-2.7q6,1.11,12.16,2.5,2.49.57,5,1.18v-1.51C301.92,760.54,300.37,760.17,298.81,759.82Z"/><path class="cls-2" d="M373.61,762.07v-1.38c-1.42-.35-2.86-.69-4.29-1a241,241,0,0,0-38.89-5.75v1.35A240.61,240.61,0,0,1,369,761C370.55,761.34,372.09,761.7,373.61,762.07Z"/><path class="cls-2" d="M573.67,705.24c-11.72-2.38-20.08-9.1-24.84-20a49.12,49.12,0,0,1-3.77-15.63l-.06-.71h-1.35l.06.83a50.55,50.55,0,0,0,3.88,16c4.95,11.3,13.63,18.28,25.81,20.75a75.92,75.92,0,0,0,9.14,1.24v-1.36A75.21,75.21,0,0,1,573.67,705.24Z"/><path class="cls-2" d="M633.42,685.37a101.87,101.87,0,0,1,21-15.94v-1.11h-.78a103.94,103.94,0,0,0-21.13,16.08,162,162,0,0,0-20.2,24h1.65A159.54,159.54,0,0,1,633.42,685.37Z"/><path class="cls-2" d="M514.46,692.44v-1.39c-1.43-.35-2.86-.68-4.3-1a241.8,241.8,0,0,0-38.88-5.75v1.35a240.67,240.67,0,0,1,38.59,5.72C511.4,691.7,512.94,692.07,514.46,692.44Z"/><path class="cls-2" d="M422,685.17a111.63,111.63,0,0,1,22.29-17v-1.45h-.41A112.29,112.29,0,0,0,421,684.13q-4.35,4.25-8.35,8.74h0a41,41,0,0,1-4.46-7.8,53.45,53.45,0,0,1-4.09-16.94c0-.26,0-.52-.05-.77h-1.47c0,.3,0,.6.07.9a54.66,54.66,0,0,0,4.2,17.4,42.07,42.07,0,0,0,4.81,8.34q-5.7,6.5-10.7,13.5V710a172.36,172.36,0,0,1,11.62-14.87l.18-.21-.19.21c5.46,6.73,12.91,11.08,22.26,13a81.72,81.72,0,0,0,9.48,1.3V708a80.86,80.86,0,0,1-9.19-1.28c-9.08-1.84-16.3-6.08-21.56-12.66h0l-.05-.06.05.06Q417.62,689.49,422,685.17Z"/><path class="cls-2" d="M420.38,744A43.66,43.66,0,0,1,427,761.35a30.34,30.34,0,0,1-2.11,16h1.45a31.69,31.69,0,0,0,2-16.2,45.05,45.05,0,0,0-6.78-17.86c-1-1.58-2-3.14-3.17-4.68h-1.68C418,740.4,419.25,742.19,420.38,744Z"/><path class="cls-2" d="M493,755a103.13,103.13,0,0,1,21-15.94V738h-.77A104,104,0,0,0,492,754a160.34,160.34,0,0,0-20.2,24h1.64A160.25,160.25,0,0,1,493,755Z"/><path class="cls-2" d="M580.11,759.82q-6.52-1.49-12.82-2.63a51.67,51.67,0,0,0-6.55-15.12q-1.59-2.57-3.43-5.07h-1.83c1.46,1.92,2.79,3.87,4,5.84a50.57,50.57,0,0,1,6.22,14.07c-8.28-1.45-16.33-2.47-24.29-3.08v1.47c8.07.62,16.24,1.66,24.66,3.16.23,1.06.42,2.11.56,3.17A33,33,0,0,1,564.35,779h1.57a34.33,34.33,0,0,0,2.17-17.56c-.12-.9-.27-1.8-.46-2.7q6,1.11,12.16,2.5,2.51.57,5,1.18v-1.51C583.22,760.54,581.67,760.17,580.11,759.82Z"/><path class="cls-2" d="M654.92,762.07v-1.38c-1.43-.35-2.87-.69-4.3-1a241,241,0,0,0-38.89-5.75v1.35A240.45,240.45,0,0,1,650.32,761C651.86,761.34,653.39,761.7,654.92,762.07Z"/><path class="cls-2" d="M292.37,844.51c-11.73-2.38-20.09-9.1-24.84-20a48.86,48.86,0,0,1-3.77-15.62c0-.24,0-.48-.06-.72h-1.35l.06.83a50.28,50.28,0,0,0,3.88,16.05c4.94,11.3,13.63,18.28,25.81,20.75a75.92,75.92,0,0,0,9.14,1.24v-1.35A75.24,75.24,0,0,1,292.37,844.51Z"/><path class="cls-2" d="M352.12,824.64a102.22,102.22,0,0,1,21-15.94v-1.11h-.78a103.94,103.94,0,0,0-21.13,16.08,161.44,161.44,0,0,0-20.2,24h1.64A159.61,159.61,0,0,1,352.12,824.64Z"/><path class="cls-2" d="M233.16,831.71v-1.39l-4.3-1A241.8,241.8,0,0,0,190,823.56v1.36a239.22,239.22,0,0,1,38.58,5.71C230.1,831,231.63,831.34,233.16,831.71Z"/><path class="cls-2" d="M140.73,824.44a111.35,111.35,0,0,1,22.29-17V806h-.41a112,112,0,0,0-22.9,17.44q-4.35,4.25-8.35,8.74h0a39.92,39.92,0,0,1-4.46-7.8,53.18,53.18,0,0,1-4.09-16.94l-.06-.77h-1.46l.06.9a54.93,54.93,0,0,0,4.21,17.4,42.25,42.25,0,0,0,4.8,8.34q-5.69,6.5-10.69,13.5v2.54a174.23,174.23,0,0,1,11.61-14.87l.19-.21-.19.21c5.46,6.73,12.91,11.08,22.26,13a81.43,81.43,0,0,0,9.48,1.3v-1.46a80.55,80.55,0,0,1-9.19-1.28c-9.08-1.84-16.3-6.08-21.56-12.66h0s0,0,0-.05l.05.05Q136.32,828.76,140.73,824.44Z"/><path class="cls-2" d="M139.08,883.29a43.66,43.66,0,0,1,6.59,17.33,30.44,30.44,0,0,1-2.11,16H145a31.79,31.79,0,0,0,2-16.2,45.26,45.26,0,0,0-6.78-17.86q-1.47-2.37-3.17-4.68h-1.68Q137.39,880.56,139.08,883.29Z"/><path class="cls-2" d="M211.66,894.27a102.85,102.85,0,0,1,21-15.94v-1.11h-.78a104.3,104.3,0,0,0-21.12,16.09,160.34,160.34,0,0,0-20.2,24h1.64A160.15,160.15,0,0,1,211.66,894.27Z"/><path class="cls-2" d="M298.81,899.09q-6.53-1.49-12.83-2.62a51.84,51.84,0,0,0-6.54-15.13c-1.07-1.71-2.21-3.4-3.44-5.07h-1.82c1.45,1.93,2.79,3.87,4,5.84a50.57,50.57,0,0,1,6.22,14.07c-8.29-1.45-16.34-2.47-24.29-3.08v1.47c8.07.62,16.24,1.66,24.66,3.16.23,1.06.42,2.11.56,3.17a33.15,33.15,0,0,1-2.29,17.37h1.57a34.43,34.43,0,0,0,2.17-17.56c-.12-.9-.28-1.8-.46-2.69q6,1.1,12.16,2.49,2.49.57,5,1.18v-1.51C301.92,899.81,300.37,899.44,298.81,899.09Z"/><path class="cls-2" d="M373.61,901.34V900c-1.42-.35-2.86-.69-4.29-1a241,241,0,0,0-38.89-5.75v1.35A240.61,240.61,0,0,1,369,900.26C370.55,900.61,372.09,901,373.61,901.34Z"/><path class="cls-2" d="M573.67,844.51c-11.72-2.38-20.08-9.1-24.84-20a49.12,49.12,0,0,1-3.77-15.62l-.06-.72h-1.35l.06.83a50.55,50.55,0,0,0,3.88,16.05c4.95,11.3,13.63,18.28,25.81,20.75a75.92,75.92,0,0,0,9.14,1.24v-1.35A75.24,75.24,0,0,1,573.67,844.51Z"/><path class="cls-2" d="M633.42,824.64a102.22,102.22,0,0,1,21-15.94v-1.11h-.78a103.94,103.94,0,0,0-21.13,16.08,162,162,0,0,0-20.2,24h1.65A159.54,159.54,0,0,1,633.42,824.64Z"/><path class="cls-2" d="M514.46,831.71v-1.39l-4.3-1a241.8,241.8,0,0,0-38.88-5.75v1.36a239.5,239.5,0,0,1,38.59,5.71C511.4,831,512.94,831.34,514.46,831.71Z"/><path class="cls-2" d="M422,824.44a111.63,111.63,0,0,1,22.29-17V806h-.41A112.29,112.29,0,0,0,421,823.4q-4.35,4.25-8.35,8.74h0a41,41,0,0,1-4.46-7.8,53.45,53.45,0,0,1-4.09-16.94c0-.26,0-.51-.05-.77h-1.47c0,.3,0,.6.07.9a54.66,54.66,0,0,0,4.2,17.4,41.79,41.79,0,0,0,4.81,8.34q-5.7,6.5-10.7,13.5v2.54a172.36,172.36,0,0,1,11.62-14.87l.18-.21-.19.21c5.46,6.73,12.91,11.08,22.26,13a81.72,81.72,0,0,0,9.48,1.3v-1.46a80.86,80.86,0,0,1-9.19-1.28c-9.08-1.84-16.3-6.08-21.56-12.66h0s0,0-.05-.05,0,0,.05.05Q417.62,828.76,422,824.44Z"/><path class="cls-2" d="M420.38,883.29A43.66,43.66,0,0,1,427,900.62a30.34,30.34,0,0,1-2.11,16h1.45a31.68,31.68,0,0,0,2-16.2,45.11,45.11,0,0,0-6.78-17.86c-1-1.58-2-3.14-3.17-4.68h-1.68Q418.69,880.56,420.38,883.29Z"/><path class="cls-2" d="M493,894.27a103.13,103.13,0,0,1,21-15.94v-1.11h-.77A104.36,104.36,0,0,0,492,893.31a160.34,160.34,0,0,0-20.2,24h1.64A160.8,160.8,0,0,1,493,894.27Z"/><path class="cls-2" d="M580.11,899.09q-6.52-1.49-12.82-2.62a51.61,51.61,0,0,0-6.55-15.13q-1.59-2.57-3.43-5.07h-1.83c1.46,1.93,2.79,3.87,4,5.84a50.57,50.57,0,0,1,6.22,14.07c-8.28-1.45-16.33-2.47-24.29-3.08v1.47c8.07.62,16.24,1.66,24.66,3.16.23,1.06.42,2.11.56,3.17a33,33,0,0,1-2.29,17.37h1.57a34.33,34.33,0,0,0,2.17-17.56c-.12-.9-.27-1.8-.46-2.69q6,1.1,12.16,2.49,2.51.57,5,1.18v-1.51C583.22,899.81,581.67,899.44,580.11,899.09Z"/><path class="cls-2" d="M654.92,901.34V900c-1.43-.35-2.87-.69-4.3-1a241,241,0,0,0-38.89-5.75v1.35a240.45,240.45,0,0,1,38.59,5.71C651.86,900.61,653.39,901,654.92,901.34Z"/><path class="cls-2" d="M865.08,705.24c-11.73-2.38-20.09-9.1-24.85-20a49.12,49.12,0,0,1-3.77-15.63c0-.23,0-.47-.05-.71h-1.35l.06.83a50.28,50.28,0,0,0,3.88,16c4.94,11.3,13.63,18.28,25.81,20.75A75.92,75.92,0,0,0,874,707.8v-1.36A74.92,74.92,0,0,1,865.08,705.24Z"/><path class="cls-2" d="M924.82,685.37a102.41,102.41,0,0,1,21-15.94v-1.11H945a103.94,103.94,0,0,0-21.13,16.08,160.84,160.84,0,0,0-20.2,24h1.64A160.18,160.18,0,0,1,924.82,685.37Z"/><path class="cls-2" d="M805.87,692.44v-1.39c-1.43-.35-2.86-.68-4.3-1a242,242,0,0,0-38.88-5.75v1.35a240.39,240.39,0,0,1,38.58,5.72C802.81,691.7,804.34,692.07,805.87,692.44Z"/><path class="cls-2" d="M713.43,685.17a111.41,111.41,0,0,1,22.3-17v-1.45h-.42a112.56,112.56,0,0,0-22.9,17.44q-4.33,4.25-8.34,8.74h0a39.92,39.92,0,0,1-4.46-7.8,53.18,53.18,0,0,1-4.09-16.94l-.06-.77H694l.06.9a54.66,54.66,0,0,0,4.21,17.4,42,42,0,0,0,4.8,8.34q-5.7,6.5-10.69,13.5V710A172.24,172.24,0,0,1,704,695.17l.19-.21-.19.21c5.46,6.73,12.91,11.08,22.26,13a81.43,81.43,0,0,0,9.48,1.3V708a80.55,80.55,0,0,1-9.19-1.28c-9.08-1.84-16.3-6.08-21.57-12.66h0l0-.06,0,.06Q709,689.49,713.43,685.17Z"/><path class="cls-2" d="M711.79,744a43.81,43.81,0,0,1,6.59,17.33,30.54,30.54,0,0,1-2.11,16h1.45a31.8,31.8,0,0,0,2-16.2,45.08,45.08,0,0,0-6.79-17.86c-1-1.58-2-3.14-3.16-4.68h-1.68C709.43,740.4,710.66,742.19,711.79,744Z"/><path class="cls-2" d="M784.37,755a102.85,102.85,0,0,1,21-15.94V738h-.78A103.67,103.67,0,0,0,783.43,754a161,161,0,0,0-20.21,24h1.65A159.62,159.62,0,0,1,784.37,755Z"/><path class="cls-2" d="M871.52,759.82q-6.53-1.49-12.83-2.63a51.67,51.67,0,0,0-6.55-15.12q-1.59-2.57-3.43-5.07h-1.82q2.18,2.88,4,5.84a50.87,50.87,0,0,1,6.22,14.07c-8.29-1.45-16.34-2.47-24.29-3.08v1.47a248.26,248.26,0,0,1,24.65,3.16c.24,1.06.42,2.11.57,3.17A33.15,33.15,0,0,1,855.76,779h1.57a34.43,34.43,0,0,0,2.17-17.56c-.12-.9-.28-1.8-.46-2.7,4,.74,8,1.57,12.15,2.5q2.5.57,5,1.18v-1.51C874.63,760.54,873.08,760.17,871.52,759.82Z"/><path class="cls-2" d="M946.32,762.07v-1.38c-1.43-.35-2.86-.69-4.3-1a240.69,240.69,0,0,0-38.88-5.75v1.35A240.34,240.34,0,0,1,941.72,761C943.26,761.34,944.79,761.7,946.32,762.07Z"/><path class="cls-2" d="M1146.38,705.24c-11.73-2.38-20.09-9.1-24.84-20a48.85,48.85,0,0,1-3.77-15.63c0-.23,0-.47-.06-.71h-1.35l.06.83a50.28,50.28,0,0,0,3.88,16c5,11.3,13.63,18.28,25.81,20.75a75.92,75.92,0,0,0,9.14,1.24v-1.36A75.21,75.21,0,0,1,1146.38,705.24Z"/><path class="cls-2" d="M1206.13,685.37a101.87,101.87,0,0,1,21-15.94v-1.11h-.78a103.94,103.94,0,0,0-21.13,16.08,161.44,161.44,0,0,0-20.2,24h1.64A159.61,159.61,0,0,1,1206.13,685.37Z"/><path class="cls-2" d="M1087.17,692.44v-1.39c-1.43-.35-2.86-.68-4.3-1a241.8,241.8,0,0,0-38.88-5.75v1.35a240.39,240.39,0,0,1,38.58,5.72C1084.11,691.7,1085.64,692.07,1087.17,692.44Z"/><path class="cls-2" d="M994.74,685.17a111.35,111.35,0,0,1,22.29-17v-1.45h-.41a112,112,0,0,0-22.9,17.44q-4.35,4.25-8.35,8.74h0a39.92,39.92,0,0,1-4.46-7.8,53.18,53.18,0,0,1-4.09-16.94l-.06-.77H975.3l.06.9a54.93,54.93,0,0,0,4.21,17.4,42.54,42.54,0,0,0,4.8,8.34q-5.68,6.5-10.69,13.5V710a174.23,174.23,0,0,1,11.61-14.87l.19-.21-.19.21c5.46,6.73,12.91,11.08,22.26,13a81.43,81.43,0,0,0,9.48,1.3V708a80.55,80.55,0,0,1-9.19-1.28c-9.08-1.84-16.3-6.08-21.56-12.66h0l0-.06,0,.06Q990.33,689.49,994.74,685.17Z"/><path class="cls-2" d="M993.09,744a43.66,43.66,0,0,1,6.59,17.33,30.44,30.44,0,0,1-2.11,16H999a31.8,31.8,0,0,0,2-16.2,45.2,45.2,0,0,0-6.78-17.86q-1.47-2.37-3.17-4.68h-1.68C990.73,740.4,992,742.19,993.09,744Z"/><path class="cls-2" d="M1065.67,755a103.13,103.13,0,0,1,21-15.94V738h-.78A103.94,103.94,0,0,0,1064.73,754a160.34,160.34,0,0,0-20.2,24h1.64A160.25,160.25,0,0,1,1065.67,755Z"/><path class="cls-2" d="M1152.82,759.82q-6.52-1.49-12.83-2.63a51.9,51.9,0,0,0-6.54-15.12q-1.6-2.57-3.43-5.07h-1.83q2.18,2.88,4,5.84a50.57,50.57,0,0,1,6.22,14.07c-8.29-1.45-16.34-2.47-24.29-3.08v1.47c8.07.62,16.24,1.66,24.66,3.16.23,1.06.42,2.11.56,3.17a33.15,33.15,0,0,1-2.29,17.37h1.57a34.43,34.43,0,0,0,2.17-17.56c-.12-.9-.28-1.8-.46-2.7q6,1.11,12.16,2.5c1.66.38,3.33.77,5,1.18v-1.51C1155.93,760.54,1154.38,760.17,1152.82,759.82Z"/><path class="cls-2" d="M1227.62,762.07v-1.38c-1.42-.35-2.86-.69-4.29-1a241,241,0,0,0-38.89-5.75v1.35A240.61,240.61,0,0,1,1223,761C1224.56,761.34,1226.1,761.7,1227.62,762.07Z"/><path class="cls-2" d="M865.08,844.51c-11.73-2.38-20.09-9.1-24.85-20a49.12,49.12,0,0,1-3.77-15.62c0-.24,0-.48-.05-.72h-1.35l.06.83A50.28,50.28,0,0,0,839,825.08c4.94,11.3,13.63,18.28,25.81,20.75a75.92,75.92,0,0,0,9.14,1.24v-1.35A75,75,0,0,1,865.08,844.51Z"/><path class="cls-2" d="M924.82,824.64a102.76,102.76,0,0,1,21-15.94v-1.11H945a103.94,103.94,0,0,0-21.13,16.08,160.84,160.84,0,0,0-20.2,24h1.64A160.18,160.18,0,0,1,924.82,824.64Z"/><path class="cls-2" d="M805.87,831.71v-1.39l-4.3-1a242,242,0,0,0-38.88-5.75v1.36a239.22,239.22,0,0,1,38.58,5.71C802.81,831,804.34,831.34,805.87,831.71Z"/><path class="cls-2" d="M713.43,824.44a111.41,111.41,0,0,1,22.3-17V806h-.42a112.56,112.56,0,0,0-22.9,17.44q-4.33,4.25-8.34,8.74h0a39.92,39.92,0,0,1-4.46-7.8,53.18,53.18,0,0,1-4.09-16.94l-.06-.77H694l.06.9a54.66,54.66,0,0,0,4.21,17.4,41.76,41.76,0,0,0,4.8,8.34q-5.7,6.5-10.69,13.5v2.54A172.24,172.24,0,0,1,704,834.44l.19-.21-.19.21c5.46,6.73,12.91,11.08,22.26,13a81.43,81.43,0,0,0,9.48,1.3v-1.46a80.55,80.55,0,0,1-9.19-1.28c-9.08-1.84-16.3-6.08-21.57-12.66h0l0-.05,0,.05Q709,828.76,713.43,824.44Z"/><path class="cls-2" d="M711.79,883.29a43.81,43.81,0,0,1,6.59,17.33,30.54,30.54,0,0,1-2.11,16h1.45a31.79,31.79,0,0,0,2-16.2,45.13,45.13,0,0,0-6.79-17.86c-1-1.58-2-3.14-3.16-4.68h-1.68Q710.1,880.56,711.79,883.29Z"/><path class="cls-2" d="M784.37,894.27a102.85,102.85,0,0,1,21-15.94v-1.11h-.78a104,104,0,0,0-21.12,16.09,161,161,0,0,0-20.21,24h1.65A160.15,160.15,0,0,1,784.37,894.27Z"/><path class="cls-2" d="M1146.38,844.51c-11.73-2.38-20.09-9.1-24.84-20a48.86,48.86,0,0,1-3.77-15.62c0-.24,0-.48-.06-.72h-1.35l.06.83a50.28,50.28,0,0,0,3.88,16.05c5,11.3,13.63,18.28,25.81,20.75a75.92,75.92,0,0,0,9.14,1.24v-1.35A75.24,75.24,0,0,1,1146.38,844.51Z"/><path class="cls-2" d="M1206.13,824.64a102.22,102.22,0,0,1,21-15.94v-1.11h-.78a103.94,103.94,0,0,0-21.13,16.08,161.44,161.44,0,0,0-20.2,24h1.64A159.61,159.61,0,0,1,1206.13,824.64Z"/><path class="cls-2" d="M1087.17,831.71v-1.39l-4.3-1a241.8,241.8,0,0,0-38.88-5.75v1.36a239.22,239.22,0,0,1,38.58,5.71C1084.11,831,1085.64,831.34,1087.17,831.71Z"/><path class="cls-2" d="M994.74,824.44a111.35,111.35,0,0,1,22.29-17V806h-.41a112,112,0,0,0-22.9,17.44q-4.35,4.25-8.35,8.74h0a39.92,39.92,0,0,1-4.46-7.8,53.18,53.18,0,0,1-4.09-16.94l-.06-.77H975.3l.06.9a54.93,54.93,0,0,0,4.21,17.4,42.25,42.25,0,0,0,4.8,8.34q-5.68,6.5-10.69,13.5v2.54a174.23,174.23,0,0,1,11.61-14.87l.19-.21-.19.21c5.46,6.73,12.91,11.08,22.26,13a81.43,81.43,0,0,0,9.48,1.3v-1.46a80.55,80.55,0,0,1-9.19-1.28c-9.08-1.84-16.3-6.08-21.56-12.66h0s0,0,0-.05l0,.05Q990.33,828.76,994.74,824.44Z"/><path class="cls-2" d="M1152.82,899.09q-6.52-1.49-12.83-2.62a51.84,51.84,0,0,0-6.54-15.13q-1.6-2.57-3.43-5.07h-1.83c1.45,1.93,2.79,3.87,4,5.84a50.57,50.57,0,0,1,6.22,14.07c-8.29-1.45-16.34-2.47-24.29-3.08v1.47c8.07.62,16.24,1.66,24.66,3.16.23,1.06.42,2.11.56,3.17a33.15,33.15,0,0,1-2.29,17.37h1.57a34.43,34.43,0,0,0,2.17-17.56c-.12-.9-.28-1.8-.46-2.69q6,1.1,12.16,2.49c1.66.38,3.33.77,5,1.18v-1.51C1155.93,899.81,1154.38,899.44,1152.82,899.09Z"/><path class="cls-2" d="M1227.62,901.34V900c-1.42-.35-2.86-.69-4.29-1a241,241,0,0,0-38.89-5.75v1.35a240.61,240.61,0,0,1,38.59,5.71C1224.56,900.61,1226.1,901,1227.62,901.34Z"/><path class="cls-2" d="M1437.79,705.24c-11.73-2.38-20.09-9.1-24.85-20a49.12,49.12,0,0,1-3.77-15.63c0-.23,0-.47-.05-.71h-1.35c0,.28,0,.56.06.83a50.28,50.28,0,0,0,3.88,16c4.94,11.3,13.63,18.28,25.81,20.75a75.65,75.65,0,0,0,9.14,1.24v-1.36A74.92,74.92,0,0,1,1437.79,705.24Z"/><path class="cls-2" d="M1497.53,685.37a102.14,102.14,0,0,1,21-15.94v-1.11h-.78a103.89,103.89,0,0,0-21.12,16.08,161.51,161.51,0,0,0-20.21,24H1478A159.54,159.54,0,0,1,1497.53,685.37Z"/><path class="cls-2" d="M1378.58,692.44v-1.39c-1.43-.35-2.86-.68-4.3-1a242.08,242.08,0,0,0-38.89-5.75v1.35a240.51,240.51,0,0,1,38.59,5.72C1375.52,691.7,1377.05,692.07,1378.58,692.44Z"/><path class="cls-2" d="M1286.14,685.17a111.63,111.63,0,0,1,22.29-17v-1.45H1308a112.56,112.56,0,0,0-22.9,17.44q-4.33,4.25-8.34,8.74h0a40.46,40.46,0,0,1-4.47-7.8,53.45,53.45,0,0,1-4.08-16.94c0-.26,0-.52-.06-.77h-1.47c0,.3,0,.6.07.9a54.93,54.93,0,0,0,4.2,17.4,42.57,42.57,0,0,0,4.81,8.34q-5.7,6.5-10.7,13.5V710a174.35,174.35,0,0,1,11.62-14.87l.19-.21-.19.21c5.46,6.73,12.91,11.08,22.26,13a81.56,81.56,0,0,0,9.47,1.3V708a80.38,80.38,0,0,1-9.18-1.28c-9.09-1.84-16.3-6.08-21.57-12.66h0l0-.06,0,.06Q1281.75,689.49,1286.14,685.17Z"/><path class="cls-2" d="M1284.5,744a43.81,43.81,0,0,1,6.59,17.33,30.45,30.45,0,0,1-2.12,16h1.46a31.69,31.69,0,0,0,2-16.2,44.9,44.9,0,0,0-6.78-17.86q-1.47-2.37-3.16-4.68h-1.68C1282.14,740.4,1283.37,742.19,1284.5,744Z"/><path class="cls-2" d="M1357.08,755a102.58,102.58,0,0,1,21-15.94V738h-.78A104,104,0,0,0,1356.13,754a161.54,161.54,0,0,0-20.2,24h1.65A159.62,159.62,0,0,1,1357.08,755Z"/><path class="cls-2" d="M1444.22,759.82q-6.51-1.49-12.82-2.63a51.67,51.67,0,0,0-6.55-15.12q-1.59-2.57-3.43-5.07h-1.82c1.45,1.92,2.78,3.87,4,5.84a50.87,50.87,0,0,1,6.22,14.07c-8.29-1.45-16.34-2.47-24.29-3.08v1.47c8.06.62,16.23,1.66,24.65,3.16.23,1.06.42,2.11.57,3.17a33,33,0,0,1-2.3,17.37H1430a34.32,34.32,0,0,0,2.16-17.56q-.18-1.35-.45-2.7c4,.74,8,1.57,12.15,2.5q2.5.57,5,1.18v-1.51C1447.34,760.54,1445.78,760.17,1444.22,759.82Z"/><path class="cls-2" d="M1519,762.07v-1.38c-1.43-.35-2.86-.69-4.3-1a240.69,240.69,0,0,0-38.88-5.75v1.35a240.34,240.34,0,0,1,38.58,5.71C1516,761.34,1517.5,761.7,1519,762.07Z"/><path class="cls-2" d="M1719.09,705.24c-11.73-2.38-20.09-9.1-24.85-20a49.39,49.39,0,0,1-3.77-15.63c0-.23,0-.47,0-.71h-1.35l.06.83a50.28,50.28,0,0,0,3.88,16c4.94,11.3,13.63,18.28,25.81,20.75a75.92,75.92,0,0,0,9.14,1.24v-1.36A74.92,74.92,0,0,1,1719.09,705.24Z"/><path class="cls-2" d="M1778.83,685.37a102.41,102.41,0,0,1,21-15.94v-1.11H1799a103.94,103.94,0,0,0-21.13,16.08,160.84,160.84,0,0,0-20.2,24h1.64A160.18,160.18,0,0,1,1778.83,685.37Z"/><path class="cls-2" d="M1659.88,692.44v-1.39c-1.43-.35-2.86-.68-4.3-1a241.8,241.8,0,0,0-38.88-5.75v1.35a240.39,240.39,0,0,1,38.58,5.72C1656.82,691.7,1658.35,692.07,1659.88,692.44Z"/><path class="cls-2" d="M1567.44,685.17a111.41,111.41,0,0,1,22.3-17v-1.45h-.42a112.56,112.56,0,0,0-22.9,17.44q-4.34,4.25-8.34,8.74h0a39.92,39.92,0,0,1-4.46-7.8,53.18,53.18,0,0,1-4.09-16.94l-.06-.77H1548l.06.9a54.66,54.66,0,0,0,4.21,17.4,42,42,0,0,0,4.8,8.34q-5.7,6.5-10.69,13.5V710A172.24,172.24,0,0,1,1558,695.17l.19-.21-.19.21c5.46,6.73,12.91,11.08,22.26,13a81.43,81.43,0,0,0,9.48,1.3V708a80.55,80.55,0,0,1-9.19-1.28c-9.08-1.84-16.3-6.08-21.57-12.66h0l0-.06,0,.06Q1563,689.49,1567.44,685.17Z"/><path class="cls-2" d="M1565.8,744a43.81,43.81,0,0,1,6.59,17.33,30.54,30.54,0,0,1-2.11,16h1.45a31.8,31.8,0,0,0,2-16.2,45.2,45.2,0,0,0-6.78-17.86q-1.47-2.37-3.17-4.68h-1.68C1563.44,740.4,1564.67,742.19,1565.8,744Z"/><path class="cls-2" d="M1638.38,755a102.85,102.85,0,0,1,21-15.94V738h-.78A103.67,103.67,0,0,0,1637.44,754a161,161,0,0,0-20.21,24h1.65A159.62,159.62,0,0,1,1638.38,755Z"/><path class="cls-2" d="M1725.53,759.82q-6.52-1.49-12.83-2.63a51.67,51.67,0,0,0-6.55-15.12q-1.59-2.57-3.43-5.07h-1.82q2.17,2.88,4,5.84a50.87,50.87,0,0,1,6.22,14.07c-8.29-1.45-16.34-2.47-24.29-3.08v1.47a248.26,248.26,0,0,1,24.65,3.16c.24,1.06.43,2.11.57,3.17a33.15,33.15,0,0,1-2.29,17.37h1.57a34.43,34.43,0,0,0,2.17-17.56c-.12-.9-.28-1.8-.46-2.7,4,.74,8,1.57,12.15,2.5q2.5.57,5,1.18v-1.51C1728.64,760.54,1727.09,760.17,1725.53,759.82Z"/><path class="cls-2" d="M1800.33,762.07v-1.38c-1.43-.35-2.86-.69-4.3-1a240.69,240.69,0,0,0-38.88-5.75v1.35a240.34,240.34,0,0,1,38.58,5.71C1797.27,761.34,1798.8,761.7,1800.33,762.07Z"/><path class="cls-2" d="M1437.79,844.51c-11.73-2.38-20.09-9.1-24.85-20a49.12,49.12,0,0,1-3.77-15.62c0-.24,0-.48-.05-.72h-1.35c0,.28,0,.56.06.83a50.28,50.28,0,0,0,3.88,16.05c4.94,11.3,13.63,18.28,25.81,20.75a75.65,75.65,0,0,0,9.14,1.24v-1.35A75,75,0,0,1,1437.79,844.51Z"/><path class="cls-2" d="M1497.53,824.64a102.49,102.49,0,0,1,21-15.94v-1.11h-.78a103.89,103.89,0,0,0-21.12,16.08,161.51,161.51,0,0,0-20.21,24H1478A159.54,159.54,0,0,1,1497.53,824.64Z"/><path class="cls-2" d="M1378.58,831.71v-1.39l-4.3-1a242.08,242.08,0,0,0-38.89-5.75v1.36a239.33,239.33,0,0,1,38.59,5.71C1375.52,831,1377.05,831.34,1378.58,831.71Z"/><path class="cls-2" d="M1286.14,824.44a111.63,111.63,0,0,1,22.29-17V806H1308a112.56,112.56,0,0,0-22.9,17.44q-4.33,4.25-8.34,8.74h0a40.46,40.46,0,0,1-4.47-7.8,53.45,53.45,0,0,1-4.08-16.94c0-.26,0-.51-.06-.77h-1.47c0,.3,0,.6.07.9a54.93,54.93,0,0,0,4.2,17.4,42.28,42.28,0,0,0,4.81,8.34q-5.7,6.5-10.7,13.5v2.54a174.35,174.35,0,0,1,11.62-14.87l.19-.21-.19.21c5.46,6.73,12.91,11.08,22.26,13a81.56,81.56,0,0,0,9.47,1.3v-1.46a80.38,80.38,0,0,1-9.18-1.28c-9.09-1.84-16.3-6.08-21.57-12.66h0l0-.05,0,.05Q1281.75,828.76,1286.14,824.44Z"/><path class="cls-2" d="M1284.5,883.29a43.81,43.81,0,0,1,6.59,17.33,30.45,30.45,0,0,1-2.12,16h1.46a31.68,31.68,0,0,0,2-16.2,45,45,0,0,0-6.78-17.86q-1.47-2.37-3.16-4.68h-1.68Q1282.81,880.56,1284.5,883.29Z"/><path class="cls-2" d="M1357.08,894.27a102.58,102.58,0,0,1,21-15.94v-1.11h-.78a104.36,104.36,0,0,0-21.13,16.09,161.54,161.54,0,0,0-20.2,24h1.65A160.15,160.15,0,0,1,1357.08,894.27Z"/><path class="cls-2" d="M1444.22,899.09q-6.51-1.49-12.82-2.62a51.61,51.61,0,0,0-6.55-15.13q-1.59-2.57-3.43-5.07h-1.82c1.45,1.93,2.78,3.87,4,5.84a50.87,50.87,0,0,1,6.22,14.07c-8.29-1.45-16.34-2.47-24.29-3.08v1.47c8.06.62,16.23,1.66,24.65,3.16.23,1.06.42,2.11.57,3.17a33,33,0,0,1-2.3,17.37H1430a34.32,34.32,0,0,0,2.16-17.56c-.12-.9-.27-1.8-.45-2.69,4,.73,8,1.56,12.15,2.49q2.5.57,5,1.18v-1.51C1447.34,899.81,1445.78,899.44,1444.22,899.09Z"/><path class="cls-2" d="M1519,901.34V900c-1.43-.35-2.86-.69-4.3-1a240.69,240.69,0,0,0-38.88-5.75v1.35a240.34,240.34,0,0,1,38.58,5.71C1516,900.61,1517.5,901,1519,901.34Z"/><path class="cls-2" d="M1719.09,844.51c-11.73-2.38-20.09-9.1-24.85-20a49.39,49.39,0,0,1-3.77-15.62c0-.24,0-.48,0-.72h-1.35l.06.83a50.28,50.28,0,0,0,3.88,16.05c4.94,11.3,13.63,18.28,25.81,20.75a75.92,75.92,0,0,0,9.14,1.24v-1.35A75,75,0,0,1,1719.09,844.51Z"/><path class="cls-2" d="M1778.83,824.64a102.76,102.76,0,0,1,21-15.94v-1.11H1799a103.94,103.94,0,0,0-21.13,16.08,160.84,160.84,0,0,0-20.2,24h1.64A160.18,160.18,0,0,1,1778.83,824.64Z"/><path class="cls-2" d="M1659.88,831.71v-1.39l-4.3-1a241.8,241.8,0,0,0-38.88-5.75v1.36a239.22,239.22,0,0,1,38.58,5.71C1656.82,831,1658.35,831.34,1659.88,831.71Z"/><path class="cls-2" d="M1567.44,824.44a111.41,111.41,0,0,1,22.3-17V806h-.42a112.56,112.56,0,0,0-22.9,17.44q-4.34,4.25-8.34,8.74h0a39.92,39.92,0,0,1-4.46-7.8,53.18,53.18,0,0,1-4.09-16.94l-.06-.77H1548l.06.9a54.66,54.66,0,0,0,4.21,17.4,41.76,41.76,0,0,0,4.8,8.34q-5.7,6.5-10.69,13.5v2.54A172.24,172.24,0,0,1,1558,834.44l.19-.21-.19.21c5.46,6.73,12.91,11.08,22.26,13a81.43,81.43,0,0,0,9.48,1.3v-1.46a80.55,80.55,0,0,1-9.19-1.28c-9.08-1.84-16.3-6.08-21.57-12.66h0l0-.05,0,.05Q1563,828.76,1567.44,824.44Z"/><path class="cls-2" d="M1565.8,883.29a43.81,43.81,0,0,1,6.59,17.33,30.54,30.54,0,0,1-2.11,16h1.45a31.79,31.79,0,0,0,2-16.2,45.26,45.26,0,0,0-6.78-17.86q-1.47-2.37-3.17-4.68h-1.68Q1564.11,880.56,1565.8,883.29Z"/><path class="cls-2" d="M1638.38,894.27a102.85,102.85,0,0,1,21-15.94v-1.11h-.78a104,104,0,0,0-21.12,16.09,161,161,0,0,0-20.21,24h1.65A160.15,160.15,0,0,1,1638.38,894.27Z"/><path class="cls-2" d="M1725.53,899.09q-6.52-1.49-12.83-2.62a51.61,51.61,0,0,0-6.55-15.13q-1.59-2.57-3.43-5.07h-1.82c1.45,1.93,2.79,3.87,4,5.84a50.87,50.87,0,0,1,6.22,14.07c-8.29-1.45-16.34-2.47-24.29-3.08v1.47a248.26,248.26,0,0,1,24.65,3.16c.24,1.06.43,2.11.57,3.17a33.15,33.15,0,0,1-2.29,17.37h1.57a34.43,34.43,0,0,0,2.17-17.56c-.12-.9-.28-1.8-.46-2.69,4,.73,8,1.56,12.15,2.49q2.5.57,5,1.18v-1.51C1728.64,899.81,1727.09,899.44,1725.53,899.09Z"/><path class="cls-2" d="M1800.33,901.34V900c-1.43-.35-2.86-.69-4.3-1a240.69,240.69,0,0,0-38.88-5.75v1.35a240.34,240.34,0,0,1,38.58,5.71C1797.27,900.61,1798.8,901,1800.33,901.34Z"/><path class="cls-2" d="M292.37,992c-11.73-2.38-20.09-9.09-24.84-20a48.85,48.85,0,0,1-3.77-15.63c0-.24,0-.47-.06-.71h-1.35l.06.83a50.41,50.41,0,0,0,3.88,16.05c4.94,11.29,13.63,18.27,25.81,20.74a75.92,75.92,0,0,0,9.14,1.24v-1.35A75.24,75.24,0,0,1,292.37,992Z"/><path class="cls-2" d="M352.12,972.14a102.58,102.58,0,0,1,21-15.94v-1.11h-.78a104,104,0,0,0-21.13,16.09,160.94,160.94,0,0,0-20.2,24h1.64A159.69,159.69,0,0,1,352.12,972.14Z"/><path class="cls-2" d="M233.16,979.21v-1.39c-1.43-.34-2.86-.68-4.3-1A240.69,240.69,0,0,0,190,971.07v1.35a240.34,240.34,0,0,1,38.58,5.71C230.1,978.48,231.63,978.84,233.16,979.21Z"/><path class="cls-2" d="M140.73,972a111,111,0,0,1,22.29-17v-1.46h-.41a112.74,112.74,0,0,0-22.9,17.44q-4.35,4.26-8.35,8.75h0a40.21,40.21,0,0,1-4.46-7.8,53.18,53.18,0,0,1-4.09-17l-.06-.77h-1.46l.06.9a54.79,54.79,0,0,0,4.21,17.4,42.25,42.25,0,0,0,4.8,8.34q-5.69,6.51-10.69,13.5v2.55A171.15,171.15,0,0,1,131.28,982c.07-.07.13-.15.19-.22s-.12.15-.19.22c5.46,6.72,12.91,11.08,22.26,13a81.47,81.47,0,0,0,9.48,1.31v-1.47a80.52,80.52,0,0,1-9.19-1.27c-9.08-1.84-16.3-6.09-21.56-12.66h0a.21.21,0,0,0,0-.06l.05.06Q136.32,976.25,140.73,972Z"/><path class="cls-2" d="M139.08,1030.79a43.77,43.77,0,0,1,6.59,17.33,30.48,30.48,0,0,1-2.11,16H145a31.84,31.84,0,0,0,2-16.21,45.26,45.26,0,0,0-6.78-17.86c-1-1.58-2-3.13-3.17-4.68h-1.68C136.72,1027.18,138,1029,139.08,1030.79Z"/><path class="cls-2" d="M211.66,1041.78a102.14,102.14,0,0,1,21-15.94v-1.11h-.78a103.89,103.89,0,0,0-21.12,16.08,160.84,160.84,0,0,0-20.2,24h1.64A159.54,159.54,0,0,1,211.66,1041.78Z"/><path class="cls-2" d="M298.81,1046.59q-6.53-1.48-12.83-2.62a51.79,51.79,0,0,0-6.54-15.12c-1.07-1.72-2.21-3.4-3.44-5.08h-1.82c1.45,1.93,2.79,3.87,4,5.85a50.45,50.45,0,0,1,6.22,14.07c-8.29-1.45-16.34-2.48-24.29-3.09v1.47c8.07.62,16.24,1.67,24.66,3.17.23,1,.42,2.11.56,3.17a33.16,33.16,0,0,1-2.29,17.37h1.57a34.47,34.47,0,0,0,2.17-17.57c-.12-.9-.28-1.8-.46-2.69q6,1.1,12.16,2.5l5,1.17v-1.5C301.92,1047.31,300.37,1047,298.81,1046.59Z"/><path class="cls-2" d="M373.61,1048.85v-1.39c-1.42-.35-2.86-.68-4.29-1a242.08,242.08,0,0,0-38.89-5.75v1.36a239.5,239.5,0,0,1,38.59,5.71C370.55,1048.12,372.09,1048.48,373.61,1048.85Z"/><path class="cls-2" d="M573.67,992c-11.72-2.38-20.08-9.09-24.84-20a49.12,49.12,0,0,1-3.77-15.63l-.06-.71h-1.35l.06.83a50.68,50.68,0,0,0,3.88,16.05c4.95,11.29,13.63,18.27,25.81,20.74a75.92,75.92,0,0,0,9.14,1.24v-1.35A75.24,75.24,0,0,1,573.67,992Z"/><path class="cls-2" d="M633.42,972.14a102.58,102.58,0,0,1,21-15.94v-1.11h-.78a104,104,0,0,0-21.13,16.09,161.54,161.54,0,0,0-20.2,24h1.65A159.62,159.62,0,0,1,633.42,972.14Z"/><path class="cls-2" d="M514.46,979.21v-1.39c-1.43-.34-2.86-.68-4.3-1a240.69,240.69,0,0,0-38.88-5.75v1.35a240.61,240.61,0,0,1,38.59,5.71C511.4,978.48,512.94,978.84,514.46,979.21Z"/><path class="cls-2" d="M422,972a111.26,111.26,0,0,1,22.29-17v-1.46h-.41A113,113,0,0,0,421,970.9q-4.35,4.26-8.35,8.75h0a41.27,41.27,0,0,1-4.46-7.8,53.45,53.45,0,0,1-4.09-17c0-.25,0-.51-.05-.77h-1.47c0,.3,0,.6.07.9a54.53,54.53,0,0,0,4.2,17.4,41.79,41.79,0,0,0,4.81,8.34q-5.7,6.51-10.7,13.5v2.55A169.34,169.34,0,0,1,412.59,982l.18-.22c-.06.07-.12.15-.19.22,5.46,6.72,12.91,11.08,22.26,13a81.76,81.76,0,0,0,9.48,1.31v-1.47a80.83,80.83,0,0,1-9.19-1.27c-9.08-1.84-16.3-6.09-21.56-12.66h0l-.05-.06.05.06Q417.62,976.25,422,972Z"/><path class="cls-2" d="M420.38,1030.79a43.77,43.77,0,0,1,6.59,17.33,30.38,30.38,0,0,1-2.11,16h1.45a31.73,31.73,0,0,0,2-16.21,45.11,45.11,0,0,0-6.78-17.86c-1-1.58-2-3.13-3.17-4.68h-1.68C418,1027.18,419.25,1029,420.38,1030.79Z"/><path class="cls-2" d="M493,1041.78a102.41,102.41,0,0,1,21-15.94v-1.11h-.77A103.94,103.94,0,0,0,492,1040.81a160.84,160.84,0,0,0-20.2,24h1.64A160.18,160.18,0,0,1,493,1041.78Z"/><path class="cls-2" d="M580.11,1046.59q-6.52-1.48-12.82-2.62a51.56,51.56,0,0,0-6.55-15.12c-1.06-1.72-2.2-3.4-3.43-5.08h-1.83c1.46,1.93,2.79,3.87,4,5.85a50.45,50.45,0,0,1,6.22,14.07c-8.28-1.45-16.33-2.48-24.29-3.09v1.47c8.07.62,16.24,1.67,24.66,3.17.23,1,.42,2.11.56,3.17a33.06,33.06,0,0,1-2.29,17.37h1.57a34.37,34.37,0,0,0,2.17-17.57c-.12-.9-.27-1.8-.46-2.69q6,1.1,12.16,2.5,2.51.57,5,1.17v-1.5C583.22,1047.31,581.67,1047,580.11,1046.59Z"/><path class="cls-2" d="M654.92,1048.85v-1.39c-1.43-.35-2.87-.68-4.3-1a242.08,242.08,0,0,0-38.89-5.75v1.36a239.33,239.33,0,0,1,38.59,5.71C651.86,1048.12,653.39,1048.48,654.92,1048.85Z"/><path class="cls-2" d="M292.37,1131.28c-11.73-2.38-20.09-9.09-24.84-20a48.85,48.85,0,0,1-3.77-15.63c0-.24,0-.47-.06-.71h-1.35l.06.83a50.41,50.41,0,0,0,3.88,16c4.94,11.29,13.63,18.27,25.81,20.74a75.92,75.92,0,0,0,9.14,1.24v-1.35A75.24,75.24,0,0,1,292.37,1131.28Z"/><path class="cls-2" d="M352.12,1111.41a102.58,102.58,0,0,1,21-15.94v-1.11h-.78a104,104,0,0,0-21.13,16.09,160.94,160.94,0,0,0-20.2,24h1.64A160.23,160.23,0,0,1,352.12,1111.41Z"/><path class="cls-2" d="M233.16,1118.48v-1.38c-1.43-.35-2.86-.69-4.3-1a240.69,240.69,0,0,0-38.88-5.75v1.35a240.34,240.34,0,0,1,38.58,5.71C230.1,1117.75,231.63,1118.11,233.16,1118.48Z"/><path class="cls-2" d="M140.73,1111.22a111,111,0,0,1,22.29-17v-1.45h-.41a112,112,0,0,0-22.9,17.44q-4.35,4.24-8.35,8.74h0a39.92,39.92,0,0,1-4.46-7.8,53.18,53.18,0,0,1-4.09-16.94l-.06-.78h-1.46l.06.9a54.79,54.79,0,0,0,4.21,17.4,42.25,42.25,0,0,0,4.8,8.34q-5.69,6.51-10.69,13.5v2.55a172.68,172.68,0,0,1,11.61-14.87,2,2,0,0,0,.19-.22,2,2,0,0,1-.19.22c5.46,6.73,12.91,11.08,22.26,13a81.47,81.47,0,0,0,9.48,1.31V1134a80.52,80.52,0,0,1-9.19-1.27c-9.08-1.84-16.3-6.09-21.56-12.66h0l0-.06.05.06Q136.32,1115.53,140.73,1111.22Z"/><path class="cls-2" d="M139.08,1170.06a43.76,43.76,0,0,1,6.59,17.34,30.46,30.46,0,0,1-2.11,16H145a31.81,31.81,0,0,0,2-16.2,45.24,45.24,0,0,0-6.78-17.87c-1-1.58-2-3.13-3.17-4.68h-1.68C136.72,1166.45,138,1168.24,139.08,1170.06Z"/><path class="cls-2" d="M211.66,1181.05a102.49,102.49,0,0,1,21-15.94V1164h-.78a103.89,103.89,0,0,0-21.12,16.08,160.84,160.84,0,0,0-20.2,24h1.64A160.08,160.08,0,0,1,211.66,1181.05Z"/><path class="cls-2" d="M298.81,1185.86q-6.53-1.47-12.83-2.62a51.79,51.79,0,0,0-6.54-15.12c-1.07-1.72-2.21-3.4-3.44-5.08h-1.82c1.45,1.93,2.79,3.87,4,5.85a50.57,50.57,0,0,1,6.22,14.07c-8.29-1.45-16.34-2.48-24.29-3.09v1.47c8.07.62,16.24,1.67,24.66,3.17.23,1,.42,2.11.56,3.17a33.16,33.16,0,0,1-2.29,17.37h1.57a34.47,34.47,0,0,0,2.17-17.57c-.12-.9-.28-1.79-.46-2.69q6,1.1,12.16,2.5l5,1.17V1187C301.92,1186.58,300.37,1186.22,298.81,1185.86Z"/><path class="cls-2" d="M373.61,1188.12v-1.39l-4.29-1a242.08,242.08,0,0,0-38.89-5.75v1.36A239.5,239.5,0,0,1,369,1187C370.55,1187.39,372.09,1187.75,373.61,1188.12Z"/><path class="cls-2" d="M573.67,1131.28c-11.72-2.38-20.08-9.09-24.84-20a49.12,49.12,0,0,1-3.77-15.63L545,1095h-1.35l.06.83a50.68,50.68,0,0,0,3.88,16c4.95,11.29,13.63,18.27,25.81,20.74a75.92,75.92,0,0,0,9.14,1.24v-1.35A75.24,75.24,0,0,1,573.67,1131.28Z"/><path class="cls-2" d="M633.42,1111.41a102.58,102.58,0,0,1,21-15.94v-1.11h-.78a104,104,0,0,0-21.13,16.09,161.54,161.54,0,0,0-20.2,24h1.65A160.15,160.15,0,0,1,633.42,1111.41Z"/><path class="cls-2" d="M514.46,1118.48v-1.38c-1.43-.35-2.86-.69-4.3-1a240.69,240.69,0,0,0-38.88-5.75v1.35a240.61,240.61,0,0,1,38.59,5.71C511.4,1117.75,512.94,1118.11,514.46,1118.48Z"/><path class="cls-2" d="M422,1111.22a111.26,111.26,0,0,1,22.29-17v-1.45h-.41a112.29,112.29,0,0,0-22.9,17.44q-4.35,4.24-8.35,8.74h0a41,41,0,0,1-4.46-7.8,53.45,53.45,0,0,1-4.09-16.94c0-.26,0-.52-.05-.78h-1.47c0,.3,0,.6.07.9a54.53,54.53,0,0,0,4.2,17.4,41.79,41.79,0,0,0,4.81,8.34q-5.7,6.51-10.7,13.5v2.55a170.84,170.84,0,0,1,11.62-14.87l.18-.22a2,2,0,0,1-.19.22c5.46,6.73,12.91,11.08,22.26,13a81.76,81.76,0,0,0,9.48,1.31V1134a80.83,80.83,0,0,1-9.19-1.27c-9.08-1.84-16.3-6.09-21.56-12.66h0l-.05-.06.05.06Q417.62,1115.53,422,1111.22Z"/><path class="cls-2" d="M420.38,1170.06A43.76,43.76,0,0,1,427,1187.4a30.36,30.36,0,0,1-2.11,16h1.45a31.71,31.71,0,0,0,2-16.2,45.09,45.09,0,0,0-6.78-17.87c-1-1.58-2-3.13-3.17-4.68h-1.68C418,1166.45,419.25,1168.24,420.38,1170.06Z"/><path class="cls-2" d="M493,1181.05a102.76,102.76,0,0,1,21-15.94V1164h-.77A103.94,103.94,0,0,0,492,1180.08a160.84,160.84,0,0,0-20.2,24h1.64A160.72,160.72,0,0,1,493,1181.05Z"/><path class="cls-2" d="M580.11,1185.86q-6.52-1.47-12.82-2.62a51.56,51.56,0,0,0-6.55-15.12c-1.06-1.72-2.2-3.4-3.43-5.08h-1.83c1.46,1.93,2.79,3.87,4,5.85a50.57,50.57,0,0,1,6.22,14.07c-8.28-1.45-16.33-2.48-24.29-3.09v1.47c8.07.62,16.24,1.67,24.66,3.17.23,1,.42,2.11.56,3.17a33.06,33.06,0,0,1-2.29,17.37h1.57a34.37,34.37,0,0,0,2.17-17.57c-.12-.9-.27-1.79-.46-2.69q6,1.1,12.16,2.5,2.51.57,5,1.17V1187C583.22,1186.58,581.67,1186.22,580.11,1185.86Z"/><path class="cls-2" d="M654.92,1188.12v-1.39l-4.3-1a242.08,242.08,0,0,0-38.89-5.75v1.36a239.33,239.33,0,0,1,38.59,5.71C651.86,1187.39,653.39,1187.75,654.92,1188.12Z"/><path class="cls-2" d="M865.08,992c-11.73-2.38-20.09-9.09-24.85-20a49.12,49.12,0,0,1-3.77-15.63c0-.24,0-.47-.05-.71h-1.35l.06.83A50.41,50.41,0,0,0,839,972.59c4.94,11.29,13.63,18.27,25.81,20.74a75.92,75.92,0,0,0,9.14,1.24v-1.35A75,75,0,0,1,865.08,992Z"/><path class="cls-2" d="M924.82,972.14a103.13,103.13,0,0,1,21-15.94v-1.11H945a104,104,0,0,0-21.13,16.09,160.34,160.34,0,0,0-20.2,24h1.64A160.25,160.25,0,0,1,924.82,972.14Z"/><path class="cls-2" d="M805.87,979.21v-1.39c-1.43-.34-2.86-.68-4.3-1a240.85,240.85,0,0,0-38.88-5.75v1.35a240.34,240.34,0,0,1,38.58,5.71C802.81,978.48,804.34,978.84,805.87,979.21Z"/><path class="cls-2" d="M713.43,972a111,111,0,0,1,22.3-17v-1.46h-.42a113.29,113.29,0,0,0-22.9,17.44q-4.33,4.26-8.34,8.75h0a40.21,40.21,0,0,1-4.46-7.8,53.18,53.18,0,0,1-4.09-17l-.06-.77H694l.06.9a54.53,54.53,0,0,0,4.21,17.4,41.76,41.76,0,0,0,4.8,8.34q-5.7,6.51-10.69,13.5v2.55A169.23,169.23,0,0,1,704,982l.19-.22L704,982c5.46,6.72,12.91,11.08,22.26,13a81.47,81.47,0,0,0,9.48,1.31v-1.47a80.52,80.52,0,0,1-9.19-1.27c-9.08-1.84-16.3-6.09-21.57-12.66h0l0-.06,0,.06Q709,976.25,713.43,972Z"/><path class="cls-2" d="M711.79,1030.79a43.92,43.92,0,0,1,6.59,17.33,30.58,30.58,0,0,1-2.11,16h1.45a31.84,31.84,0,0,0,2-16.21,45.13,45.13,0,0,0-6.79-17.86c-1-1.58-2-3.13-3.16-4.68h-1.68C709.43,1027.18,710.66,1029,711.79,1030.79Z"/><path class="cls-2" d="M784.37,1041.78a102.14,102.14,0,0,1,21-15.94v-1.11h-.78a103.61,103.61,0,0,0-21.12,16.08,161.51,161.51,0,0,0-20.21,24h1.65A159.54,159.54,0,0,1,784.37,1041.78Z"/><path class="cls-2" d="M871.52,1046.59q-6.53-1.48-12.83-2.62a51.56,51.56,0,0,0-6.55-15.12c-1.06-1.72-2.2-3.4-3.43-5.08h-1.82c1.45,1.93,2.79,3.87,4,5.85a50.74,50.74,0,0,1,6.22,14.07c-8.29-1.45-16.34-2.48-24.29-3.09v1.47a248.34,248.34,0,0,1,24.65,3.17c.24,1,.42,2.11.57,3.17a33.16,33.16,0,0,1-2.29,17.37h1.57a34.47,34.47,0,0,0,2.17-17.57c-.12-.9-.28-1.8-.46-2.69,4,.73,8,1.56,12.15,2.5q2.5.57,5,1.17v-1.5C874.63,1047.31,873.08,1047,871.52,1046.59Z"/><path class="cls-2" d="M946.32,1048.85v-1.39c-1.43-.35-2.86-.68-4.3-1a241.8,241.8,0,0,0-38.88-5.75v1.36a239.22,239.22,0,0,1,38.58,5.71C943.26,1048.12,944.79,1048.48,946.32,1048.85Z"/><path class="cls-2" d="M1146.38,992c-11.73-2.38-20.09-9.09-24.84-20a48.85,48.85,0,0,1-3.77-15.63c0-.24,0-.47-.06-.71h-1.35l.06.83a50.41,50.41,0,0,0,3.88,16.05c5,11.29,13.63,18.27,25.81,20.74a75.92,75.92,0,0,0,9.14,1.24v-1.35A75.24,75.24,0,0,1,1146.38,992Z"/><path class="cls-2" d="M1206.13,972.14a102.58,102.58,0,0,1,21-15.94v-1.11h-.78a104,104,0,0,0-21.13,16.09,160.94,160.94,0,0,0-20.2,24h1.64A159.69,159.69,0,0,1,1206.13,972.14Z"/><path class="cls-2" d="M1087.17,979.21v-1.39c-1.43-.34-2.86-.68-4.3-1a240.69,240.69,0,0,0-38.88-5.75v1.35a240.34,240.34,0,0,1,38.58,5.71C1084.11,978.48,1085.64,978.84,1087.17,979.21Z"/><path class="cls-2" d="M994.74,972a111,111,0,0,1,22.29-17v-1.46h-.41a112.74,112.74,0,0,0-22.9,17.44q-4.35,4.26-8.35,8.75h0a40.21,40.21,0,0,1-4.46-7.8,53.18,53.18,0,0,1-4.09-17l-.06-.77H975.3l.06.9a54.79,54.79,0,0,0,4.21,17.4,42.25,42.25,0,0,0,4.8,8.34q-5.68,6.51-10.69,13.5v2.55A171.15,171.15,0,0,1,985.29,982c.07-.07.13-.15.19-.22s-.12.15-.19.22c5.46,6.72,12.91,11.08,22.26,13a81.47,81.47,0,0,0,9.48,1.31v-1.47a80.52,80.52,0,0,1-9.19-1.27c-9.08-1.84-16.3-6.09-21.56-12.66h0l0-.06,0,.06Q990.33,976.25,994.74,972Z"/><path class="cls-2" d="M993.09,1030.79a43.77,43.77,0,0,1,6.59,17.33,30.48,30.48,0,0,1-2.11,16H999a31.84,31.84,0,0,0,2-16.21,45.26,45.26,0,0,0-6.78-17.86c-1-1.58-2-3.13-3.17-4.68h-1.68C990.73,1027.18,992,1029,993.09,1030.79Z"/><path class="cls-2" d="M1065.67,1041.78a102.41,102.41,0,0,1,21-15.94v-1.11h-.78a103.89,103.89,0,0,0-21.12,16.08,160.84,160.84,0,0,0-20.2,24h1.64A160.18,160.18,0,0,1,1065.67,1041.78Z"/><path class="cls-2" d="M1152.82,1046.59q-6.52-1.48-12.83-2.62a51.79,51.79,0,0,0-6.54-15.12c-1.07-1.72-2.21-3.4-3.43-5.08h-1.83c1.45,1.93,2.79,3.87,4,5.85a50.45,50.45,0,0,1,6.22,14.07c-8.29-1.45-16.34-2.48-24.29-3.09v1.47c8.07.62,16.24,1.67,24.66,3.17.23,1,.42,2.11.56,3.17a33.16,33.16,0,0,1-2.29,17.37h1.57a34.47,34.47,0,0,0,2.17-17.57c-.12-.9-.28-1.8-.46-2.69q6,1.1,12.16,2.5c1.66.38,3.33.77,5,1.17v-1.5C1155.93,1047.31,1154.38,1047,1152.82,1046.59Z"/><path class="cls-2" d="M1227.62,1048.85v-1.39c-1.42-.35-2.86-.68-4.29-1a242.08,242.08,0,0,0-38.89-5.75v1.36a239.5,239.5,0,0,1,38.59,5.71C1224.56,1048.12,1226.1,1048.48,1227.62,1048.85Z"/><path class="cls-2" d="M865.08,1131.28c-11.73-2.38-20.09-9.09-24.85-20a49.12,49.12,0,0,1-3.77-15.63c0-.24,0-.47-.05-.71h-1.35l.06.83a50.41,50.41,0,0,0,3.88,16c4.94,11.29,13.63,18.27,25.81,20.74a75.92,75.92,0,0,0,9.14,1.24v-1.35A75,75,0,0,1,865.08,1131.28Z"/><path class="cls-2" d="M924.82,1111.41a103.13,103.13,0,0,1,21-15.94v-1.11H945a104,104,0,0,0-21.13,16.09,160.34,160.34,0,0,0-20.2,24h1.64A160.8,160.8,0,0,1,924.82,1111.41Z"/><path class="cls-2" d="M805.87,1118.48v-1.38c-1.43-.35-2.86-.69-4.3-1a240.85,240.85,0,0,0-38.88-5.75v1.35a240.34,240.34,0,0,1,38.58,5.71C802.81,1117.75,804.34,1118.11,805.87,1118.48Z"/><path class="cls-2" d="M713.43,1111.22a111,111,0,0,1,22.3-17v-1.45h-.42a112.56,112.56,0,0,0-22.9,17.44q-4.33,4.24-8.34,8.74h0a39.92,39.92,0,0,1-4.46-7.8,53.18,53.18,0,0,1-4.09-16.94l-.06-.78H694l.06.9a54.53,54.53,0,0,0,4.21,17.4,41.76,41.76,0,0,0,4.8,8.34q-5.7,6.51-10.69,13.5v2.55A170.72,170.72,0,0,1,704,1121.22c.06-.07.13-.14.19-.22-.06.08-.13.15-.19.22,5.46,6.73,12.91,11.08,22.26,13a81.47,81.47,0,0,0,9.48,1.31V1134a80.52,80.52,0,0,1-9.19-1.27c-9.08-1.84-16.3-6.09-21.57-12.66h0l0-.06,0,.06Q709,1115.53,713.43,1111.22Z"/><path class="cls-2" d="M711.79,1170.06a43.91,43.91,0,0,1,6.59,17.34,30.56,30.56,0,0,1-2.11,16h1.45a31.81,31.81,0,0,0,2-16.2,45.12,45.12,0,0,0-6.79-17.87c-1-1.58-2-3.13-3.16-4.68h-1.68C709.43,1166.45,710.66,1168.24,711.79,1170.06Z"/><path class="cls-2" d="M784.37,1181.05a102.49,102.49,0,0,1,21-15.94V1164h-.78a103.61,103.61,0,0,0-21.12,16.08,161.51,161.51,0,0,0-20.21,24h1.65A160.08,160.08,0,0,1,784.37,1181.05Z"/><path class="cls-2" d="M871.52,1185.86q-6.53-1.47-12.83-2.62a51.56,51.56,0,0,0-6.55-15.12c-1.06-1.72-2.2-3.4-3.43-5.08h-1.82c1.45,1.93,2.79,3.87,4,5.85a50.87,50.87,0,0,1,6.22,14.07c-8.29-1.45-16.34-2.48-24.29-3.09v1.47a248.34,248.34,0,0,1,24.65,3.17c.24,1,.42,2.11.57,3.17a33.16,33.16,0,0,1-2.29,17.37h1.57a34.47,34.47,0,0,0,2.17-17.57c-.12-.9-.28-1.79-.46-2.69,4,.73,8,1.56,12.15,2.5q2.5.57,5,1.17V1187C874.63,1186.58,873.08,1186.22,871.52,1185.86Z"/><path class="cls-2" d="M946.32,1188.12v-1.39l-4.3-1a241.8,241.8,0,0,0-38.88-5.75v1.36a239.22,239.22,0,0,1,38.58,5.71C943.26,1187.39,944.79,1187.75,946.32,1188.12Z"/><path class="cls-2" d="M1146.38,1131.28c-11.73-2.38-20.09-9.09-24.84-20a48.85,48.85,0,0,1-3.77-15.63c0-.24,0-.47-.06-.71h-1.35l.06.83a50.41,50.41,0,0,0,3.88,16c5,11.29,13.63,18.27,25.81,20.74a75.92,75.92,0,0,0,9.14,1.24v-1.35A75.24,75.24,0,0,1,1146.38,1131.28Z"/><path class="cls-2" d="M1206.13,1111.41a102.58,102.58,0,0,1,21-15.94v-1.11h-.78a104,104,0,0,0-21.13,16.09,160.94,160.94,0,0,0-20.2,24h1.64A160.23,160.23,0,0,1,1206.13,1111.41Z"/><path class="cls-2" d="M1087.17,1118.48v-1.38c-1.43-.35-2.86-.69-4.3-1a240.69,240.69,0,0,0-38.88-5.75v1.35a240.34,240.34,0,0,1,38.58,5.71C1084.11,1117.75,1085.64,1118.11,1087.17,1118.48Z"/><path class="cls-2" d="M994.74,1111.22a111,111,0,0,1,22.29-17v-1.45h-.41a112,112,0,0,0-22.9,17.44q-4.35,4.24-8.35,8.74h0a39.92,39.92,0,0,1-4.46-7.8,53.18,53.18,0,0,1-4.09-16.94l-.06-.78H975.3l.06.9a54.79,54.79,0,0,0,4.21,17.4,42.25,42.25,0,0,0,4.8,8.34q-5.68,6.51-10.69,13.5v2.55a172.68,172.68,0,0,1,11.61-14.87,2,2,0,0,0,.19-.22,2,2,0,0,1-.19.22c5.46,6.73,12.91,11.08,22.26,13a81.47,81.47,0,0,0,9.48,1.31V1134a80.52,80.52,0,0,1-9.19-1.27c-9.08-1.84-16.3-6.09-21.56-12.66h0l0-.06,0,.06Q990.33,1115.53,994.74,1111.22Z"/><path class="cls-2" d="M993.09,1170.06a43.76,43.76,0,0,1,6.59,17.34,30.46,30.46,0,0,1-2.11,16H999a31.81,31.81,0,0,0,2-16.2,45.24,45.24,0,0,0-6.78-17.87c-1-1.58-2-3.13-3.17-4.68h-1.68C990.73,1166.45,992,1168.24,993.09,1170.06Z"/><path class="cls-2" d="M1065.67,1181.05a102.76,102.76,0,0,1,21-15.94V1164h-.78a103.89,103.89,0,0,0-21.12,16.08,160.84,160.84,0,0,0-20.2,24h1.64A160.72,160.72,0,0,1,1065.67,1181.05Z"/><path class="cls-2" d="M1152.82,1185.86q-6.52-1.47-12.83-2.62a51.79,51.79,0,0,0-6.54-15.12c-1.07-1.72-2.21-3.4-3.43-5.08h-1.83c1.45,1.93,2.79,3.87,4,5.85a50.57,50.57,0,0,1,6.22,14.07c-8.29-1.45-16.34-2.48-24.29-3.09v1.47c8.07.62,16.24,1.67,24.66,3.17.23,1,.42,2.11.56,3.17a33.16,33.16,0,0,1-2.29,17.37h1.57a34.47,34.47,0,0,0,2.17-17.57c-.12-.9-.28-1.79-.46-2.69q6,1.1,12.16,2.5c1.66.38,3.33.77,5,1.17V1187C1155.93,1186.58,1154.38,1186.22,1152.82,1185.86Z"/><path class="cls-2" d="M1227.62,1188.12v-1.39l-4.29-1a242.08,242.08,0,0,0-38.89-5.75v1.36A239.5,239.5,0,0,1,1223,1187C1224.56,1187.39,1226.1,1187.75,1227.62,1188.12Z"/><path class="cls-2" d="M1437.79,992c-11.73-2.38-20.09-9.09-24.85-20a49.12,49.12,0,0,1-3.77-15.63c0-.24,0-.47-.05-.71h-1.35c0,.27,0,.55.06.83a50.41,50.41,0,0,0,3.88,16.05c4.94,11.29,13.63,18.27,25.81,20.74a75.65,75.65,0,0,0,9.14,1.24v-1.35A75,75,0,0,1,1437.79,992Z"/><path class="cls-2" d="M1497.53,972.14a102.85,102.85,0,0,1,21-15.94v-1.11h-.78a103.94,103.94,0,0,0-21.12,16.09,161,161,0,0,0-20.21,24H1478A159.62,159.62,0,0,1,1497.53,972.14Z"/><path class="cls-2" d="M1378.58,979.21v-1.39c-1.43-.34-2.86-.68-4.3-1a241,241,0,0,0-38.89-5.75v1.35a240.45,240.45,0,0,1,38.59,5.71C1375.52,978.48,1377.05,978.84,1378.58,979.21Z"/><path class="cls-2" d="M1286.14,972a111.26,111.26,0,0,1,22.29-17v-1.46H1308a113.29,113.29,0,0,0-22.9,17.44q-4.33,4.26-8.34,8.75h0a40.77,40.77,0,0,1-4.47-7.8,53.45,53.45,0,0,1-4.08-17c0-.25,0-.51-.06-.77h-1.47c0,.3,0,.6.07.9a54.79,54.79,0,0,0,4.2,17.4,42.28,42.28,0,0,0,4.81,8.34q-5.7,6.51-10.7,13.5v2.55A171.26,171.26,0,0,1,1276.7,982c.06-.07.12-.15.19-.22s-.13.15-.19.22c5.46,6.72,12.91,11.08,22.26,13a81.6,81.6,0,0,0,9.47,1.31v-1.47a80.35,80.35,0,0,1-9.18-1.27c-9.09-1.84-16.3-6.09-21.57-12.66h0l0-.06,0,.06Q1281.75,976.25,1286.14,972Z"/><path class="cls-2" d="M1284.5,1030.79a43.92,43.92,0,0,1,6.59,17.33,30.49,30.49,0,0,1-2.12,16h1.46a31.73,31.73,0,0,0,2-16.21,45,45,0,0,0-6.78-17.86c-1-1.58-2-3.13-3.16-4.68h-1.68C1282.14,1027.18,1283.37,1029,1284.5,1030.79Z"/><path class="cls-2" d="M1357.08,1041.78a101.87,101.87,0,0,1,21-15.94v-1.11h-.78a103.94,103.94,0,0,0-21.13,16.08,162,162,0,0,0-20.2,24h1.65A159.54,159.54,0,0,1,1357.08,1041.78Z"/><path class="cls-2" d="M1444.22,1046.59q-6.51-1.48-12.82-2.62a51.56,51.56,0,0,0-6.55-15.12c-1.06-1.72-2.2-3.4-3.43-5.08h-1.82c1.45,1.93,2.78,3.87,4,5.85a50.74,50.74,0,0,1,6.22,14.07c-8.29-1.45-16.34-2.48-24.29-3.09v1.47c8.06.62,16.23,1.67,24.65,3.17.23,1,.42,2.11.57,3.17a33.06,33.06,0,0,1-2.3,17.37H1430a34.36,34.36,0,0,0,2.16-17.57c-.12-.9-.27-1.8-.45-2.69,4,.73,8,1.56,12.15,2.5q2.5.57,5,1.17v-1.5C1447.34,1047.31,1445.78,1047,1444.22,1046.59Z"/><path class="cls-2" d="M1519,1048.85v-1.39c-1.43-.35-2.86-.68-4.3-1a241.8,241.8,0,0,0-38.88-5.75v1.36a239.22,239.22,0,0,1,38.58,5.71C1516,1048.12,1517.5,1048.48,1519,1048.85Z"/><path class="cls-2" d="M1719.09,992c-11.73-2.38-20.09-9.09-24.85-20a49.39,49.39,0,0,1-3.77-15.63c0-.24,0-.47,0-.71h-1.35l.06.83a50.41,50.41,0,0,0,3.88,16.05c4.94,11.29,13.63,18.27,25.81,20.74a75.92,75.92,0,0,0,9.14,1.24v-1.35A75,75,0,0,1,1719.09,992Z"/><path class="cls-2" d="M1778.83,972.14a103.13,103.13,0,0,1,21-15.94v-1.11H1799a104,104,0,0,0-21.13,16.09,160.34,160.34,0,0,0-20.2,24h1.64A160.25,160.25,0,0,1,1778.83,972.14Z"/><path class="cls-2" d="M1659.88,979.21v-1.39c-1.43-.34-2.86-.68-4.3-1a240.69,240.69,0,0,0-38.88-5.75v1.35a240.34,240.34,0,0,1,38.58,5.71C1656.82,978.48,1658.35,978.84,1659.88,979.21Z"/><path class="cls-2" d="M1567.44,972a111,111,0,0,1,22.3-17v-1.46h-.42a113.29,113.29,0,0,0-22.9,17.44q-4.34,4.26-8.34,8.75h0a40.21,40.21,0,0,1-4.46-7.8,53.18,53.18,0,0,1-4.09-17l-.06-.77H1548l.06.9a54.53,54.53,0,0,0,4.21,17.4,41.76,41.76,0,0,0,4.8,8.34q-5.7,6.51-10.69,13.5v2.55A169.23,169.23,0,0,1,1558,982l.19-.22-.19.22c5.46,6.72,12.91,11.08,22.26,13a81.47,81.47,0,0,0,9.48,1.31v-1.47a80.52,80.52,0,0,1-9.19-1.27c-9.08-1.84-16.3-6.09-21.57-12.66h0l0-.06,0,.06Q1563,976.25,1567.44,972Z"/><path class="cls-2" d="M1565.8,1030.79a43.92,43.92,0,0,1,6.59,17.33,30.58,30.58,0,0,1-2.11,16h1.45a31.84,31.84,0,0,0,2-16.21,45.26,45.26,0,0,0-6.78-17.86c-1-1.58-2-3.13-3.17-4.68h-1.68C1563.44,1027.18,1564.67,1029,1565.8,1030.79Z"/><path class="cls-2" d="M1638.38,1041.78a102.14,102.14,0,0,1,21-15.94v-1.11h-.78a103.61,103.61,0,0,0-21.12,16.08,161.51,161.51,0,0,0-20.21,24h1.65A159.54,159.54,0,0,1,1638.38,1041.78Z"/><path class="cls-2" d="M1725.53,1046.59q-6.52-1.48-12.83-2.62a51.56,51.56,0,0,0-6.55-15.12c-1.06-1.72-2.2-3.4-3.43-5.08h-1.82c1.45,1.93,2.79,3.87,4,5.85a50.74,50.74,0,0,1,6.22,14.07c-8.29-1.45-16.34-2.48-24.29-3.09v1.47a248.34,248.34,0,0,1,24.65,3.17c.24,1,.43,2.11.57,3.17a33.16,33.16,0,0,1-2.29,17.37h1.57a34.47,34.47,0,0,0,2.17-17.57c-.12-.9-.28-1.8-.46-2.69,4,.73,8,1.56,12.15,2.5q2.5.57,5,1.17v-1.5C1728.64,1047.31,1727.09,1047,1725.53,1046.59Z"/><path class="cls-2" d="M1800.33,1048.85v-1.39c-1.43-.35-2.86-.68-4.3-1a241.8,241.8,0,0,0-38.88-5.75v1.36a239.22,239.22,0,0,1,38.58,5.71C1797.27,1048.12,1798.8,1048.48,1800.33,1048.85Z"/><path class="cls-2" d="M1437.79,1131.28c-11.73-2.38-20.09-9.09-24.85-20a49.12,49.12,0,0,1-3.77-15.63c0-.24,0-.47-.05-.71h-1.35c0,.28,0,.55.06.83a50.41,50.41,0,0,0,3.88,16c4.94,11.29,13.63,18.27,25.81,20.74a75.65,75.65,0,0,0,9.14,1.24v-1.35A75,75,0,0,1,1437.79,1131.28Z"/><path class="cls-2" d="M1497.53,1111.41a102.85,102.85,0,0,1,21-15.94v-1.11h-.78a103.94,103.94,0,0,0-21.12,16.09,161,161,0,0,0-20.21,24H1478A160.15,160.15,0,0,1,1497.53,1111.41Z"/><path class="cls-2" d="M1378.58,1118.48v-1.38c-1.43-.35-2.86-.69-4.3-1a241,241,0,0,0-38.89-5.75v1.35a240.45,240.45,0,0,1,38.59,5.71C1375.52,1117.75,1377.05,1118.11,1378.58,1118.48Z"/><path class="cls-2" d="M1286.14,1111.22a111.26,111.26,0,0,1,22.29-17v-1.45H1308a112.56,112.56,0,0,0-22.9,17.44q-4.33,4.24-8.34,8.74h0a40.46,40.46,0,0,1-4.47-7.8,53.45,53.45,0,0,1-4.08-16.94c0-.26,0-.52-.06-.78h-1.47c0,.3,0,.6.07.9a54.79,54.79,0,0,0,4.2,17.4,42.28,42.28,0,0,0,4.81,8.34q-5.7,6.51-10.7,13.5v2.55a172.79,172.79,0,0,1,11.62-14.87l.19-.22-.19.22c5.46,6.73,12.91,11.08,22.26,13a81.6,81.6,0,0,0,9.47,1.31V1134a80.35,80.35,0,0,1-9.18-1.27c-9.09-1.84-16.3-6.09-21.57-12.66h0l0-.06,0,.06Q1281.75,1115.53,1286.14,1111.22Z"/><path class="cls-2" d="M1284.5,1170.06a43.91,43.91,0,0,1,6.59,17.34,30.46,30.46,0,0,1-2.12,16h1.46a31.7,31.7,0,0,0,2-16.2,44.94,44.94,0,0,0-6.78-17.87c-1-1.58-2-3.13-3.16-4.68h-1.68C1282.14,1166.45,1283.37,1168.24,1284.5,1170.06Z"/><path class="cls-2" d="M1357.08,1181.05a102.22,102.22,0,0,1,21-15.94V1164h-.78a103.94,103.94,0,0,0-21.13,16.08,162,162,0,0,0-20.2,24h1.65A160.08,160.08,0,0,1,1357.08,1181.05Z"/><path class="cls-2" d="M1444.22,1185.86q-6.51-1.47-12.82-2.62a51.56,51.56,0,0,0-6.55-15.12c-1.06-1.72-2.2-3.4-3.43-5.08h-1.82c1.45,1.93,2.78,3.87,4,5.85a50.87,50.87,0,0,1,6.22,14.07c-8.29-1.45-16.34-2.48-24.29-3.09v1.47c8.06.62,16.23,1.67,24.65,3.17.23,1,.42,2.11.57,3.17a33.06,33.06,0,0,1-2.3,17.37H1430a34.36,34.36,0,0,0,2.16-17.57c-.12-.9-.27-1.79-.45-2.69,4,.73,8,1.56,12.15,2.5q2.5.57,5,1.17V1187C1447.34,1186.58,1445.78,1186.22,1444.22,1185.86Z"/><path class="cls-2" d="M1519,1188.12v-1.39l-4.3-1a241.8,241.8,0,0,0-38.88-5.75v1.36a239.22,239.22,0,0,1,38.58,5.71C1516,1187.39,1517.5,1187.75,1519,1188.12Z"/><path class="cls-2" d="M1719.09,1131.28c-11.73-2.38-20.09-9.09-24.85-20a49.39,49.39,0,0,1-3.77-15.63c0-.24,0-.47,0-.71h-1.35l.06.83a50.41,50.41,0,0,0,3.88,16c4.94,11.29,13.63,18.27,25.81,20.74a75.92,75.92,0,0,0,9.14,1.24v-1.35A75,75,0,0,1,1719.09,1131.28Z"/><path class="cls-2" d="M1778.83,1111.41a103.13,103.13,0,0,1,21-15.94v-1.11H1799a104,104,0,0,0-21.13,16.09,160.34,160.34,0,0,0-20.2,24h1.64A160.8,160.8,0,0,1,1778.83,1111.41Z"/><path class="cls-2" d="M1659.88,1118.48v-1.38c-1.43-.35-2.86-.69-4.3-1a240.69,240.69,0,0,0-38.88-5.75v1.35a240.34,240.34,0,0,1,38.58,5.71C1656.82,1117.75,1658.35,1118.11,1659.88,1118.48Z"/><path class="cls-2" d="M1567.44,1111.22a111,111,0,0,1,22.3-17v-1.45h-.42a112.56,112.56,0,0,0-22.9,17.44q-4.34,4.24-8.34,8.74h0a39.92,39.92,0,0,1-4.46-7.8,53.18,53.18,0,0,1-4.09-16.94l-.06-.78H1548l.06.9a54.53,54.53,0,0,0,4.21,17.4,41.76,41.76,0,0,0,4.8,8.34q-5.7,6.51-10.69,13.5v2.55a170.72,170.72,0,0,1,11.61-14.87c.06-.07.13-.14.19-.22-.06.08-.13.15-.19.22,5.46,6.73,12.91,11.08,22.26,13a81.47,81.47,0,0,0,9.48,1.31V1134a80.52,80.52,0,0,1-9.19-1.27c-9.08-1.84-16.3-6.09-21.57-12.66h0l0-.06,0,.06Q1563,1115.53,1567.44,1111.22Z"/><path class="cls-2" d="M1565.8,1170.06a43.91,43.91,0,0,1,6.59,17.34,30.56,30.56,0,0,1-2.11,16h1.45a31.81,31.81,0,0,0,2-16.2,45.24,45.24,0,0,0-6.78-17.87c-1-1.58-2-3.13-3.17-4.68h-1.68C1563.44,1166.45,1564.67,1168.24,1565.8,1170.06Z"/><path class="cls-2" d="M1638.38,1181.05a102.49,102.49,0,0,1,21-15.94V1164h-.78a103.61,103.61,0,0,0-21.12,16.08,161.51,161.51,0,0,0-20.21,24h1.65A160.08,160.08,0,0,1,1638.38,1181.05Z"/><path class="cls-2" d="M1725.53,1185.86q-6.52-1.47-12.83-2.62a51.56,51.56,0,0,0-6.55-15.12c-1.06-1.72-2.2-3.4-3.43-5.08h-1.82c1.45,1.93,2.79,3.87,4,5.85a50.87,50.87,0,0,1,6.22,14.07c-8.29-1.45-16.34-2.48-24.29-3.09v1.47a248.34,248.34,0,0,1,24.65,3.17c.24,1,.43,2.11.57,3.17a33.16,33.16,0,0,1-2.29,17.37h1.57a34.47,34.47,0,0,0,2.17-17.57c-.12-.9-.28-1.79-.46-2.69,4,.73,8,1.56,12.15,2.5q2.5.57,5,1.17V1187C1728.64,1186.58,1727.09,1186.22,1725.53,1185.86Z"/><path class="cls-2" d="M1800.33,1188.12v-1.39l-4.3-1a241.8,241.8,0,0,0-38.88-5.75v1.36a239.22,239.22,0,0,1,38.58,5.71C1797.27,1187.39,1798.8,1187.75,1800.33,1188.12Z"/></svg>