<svg id="Layer_1" data-name="Layer 1" xmlns="http://www.w3.org/2000/svg" viewBox="0 0 154.63 29.07"><defs><style>.cls-1{fill:#231f20;}</style></defs><path class="cls-1" d="M15,20.47a5.54,5.54,0,0,1-2.77-.73,5.21,5.21,0,0,1-2-2c-.89,2.11-2.71,3.16-5.48,3.16q-3.28,0-4.79-1.8L1.22,16A4.56,4.56,0,0,0,3,16.76a9,9,0,0,0,2.38.31A10.57,10.57,0,0,0,6.73,17a5,5,0,0,0,1.21-.33,2.38,2.38,0,0,0,.85-.56,1.15,1.15,0,0,0,.32-.81,1.35,1.35,0,0,0,0-.29q0-.2-.27-.87T8.07,12L6.73,8.16,9.45,5.71c.7,2.27,1.27,4.1,1.69,5.51a26.09,26.09,0,0,0,1.15,3.28,4,4,0,0,0,1.12,1.6,2.71,2.71,0,0,0,1.58.42h.72v3.95Z"/><path class="cls-1" d="M14.93,16.8c0-.09.08-.16.25-.21a2.33,2.33,0,0,1,.53-.07H18q1.74,0,1.74-.81a1.21,1.21,0,0,0-.07-.36,5.37,5.37,0,0,0-.27-.53c-.14-.22-.33-.5-.58-.83l-1-1.27L20,9.59a6,6,0,0,1,1.65,2.34,8,8,0,0,1,.6,3,6.05,6.05,0,0,1-.46,2.43,4.89,4.89,0,0,1-1.26,1.72,5.38,5.38,0,0,1-1.89,1,8,8,0,0,1-2.34.34h-.58a1.88,1.88,0,0,1-.53-.07c-.17,0-.25-.1-.25-.17ZM21.11,5.37l-2,2.72-2.82-1.9,2.08-2.76Z"/><path class="cls-1" d="M31.06,20.26a2.53,2.53,0,0,1-.66-.47,8.53,8.53,0,0,1-1.14,2.73,13.64,13.64,0,0,1-2,2.45,21.07,21.07,0,0,1-2.62,2.16c-1,.68-1.95,1.32-3,1.91l-2.89-2.25c.72-.36,1.6-.83,2.62-1.41a30.38,30.38,0,0,0,2.92-1.89,15,15,0,0,0,2.36-2.1,3.23,3.23,0,0,0,1-2.11,2.1,2.1,0,0,0-.2-.85,9.69,9.69,0,0,0-.48-.89q-.27-.43-.54-.81L26,16.12l2.61-2.83c.25.39.48.77.7,1.16a7.54,7.54,0,0,0,.7,1,3.73,3.73,0,0,0,.81.74,1.85,1.85,0,0,0,1.06.29v3.95A1.68,1.68,0,0,1,31.06,20.26Z"/><path class="cls-1" d="M31.08,16.8c0-.09.08-.16.25-.21a2.33,2.33,0,0,1,.53-.07H34.1q1.74,0,1.74-.81a1.21,1.21,0,0,0-.07-.36,5.37,5.37,0,0,0-.27-.53c-.14-.22-.33-.5-.58-.83l-1-1.27,2.21-3.13a6,6,0,0,1,1.65,2.34,8,8,0,0,1,.6,3,6.05,6.05,0,0,1-.46,2.43,4.89,4.89,0,0,1-1.26,1.72,5.38,5.38,0,0,1-1.89,1,8,8,0,0,1-2.34.34h-.58a1.88,1.88,0,0,1-.53-.07c-.17,0-.25-.1-.25-.17Zm.74,8.94,2-2.72,2.83,1.9-2.08,2.76Z"/><path class="cls-1" d="M63.71,20.47a2.4,2.4,0,0,1,.12,1.19,4.32,4.32,0,0,1-.35,1.22,6.89,6.89,0,0,1-2.26,2.59A10.77,10.77,0,0,1,57.87,27a11.73,11.73,0,0,1-3.79.38,9.52,9.52,0,0,1-3.56-.89,6.68,6.68,0,0,1-2.62-2.21,6.17,6.17,0,0,1-1-3.65,9.33,9.33,0,0,1,.45-2.91,13.69,13.69,0,0,1,1.12-2.6l2.58.92c-.27.59-.53,1.23-.78,1.94a6,6,0,0,0-.37,2,3.89,3.89,0,0,0,.51,2.08,3.39,3.39,0,0,0,1.36,1.24,5.23,5.23,0,0,0,1.92.52,9.77,9.77,0,0,0,2.16,0,12.32,12.32,0,0,0,3.94-1.19c.43-.23.66-.41.68-.56s-.07-.26-.27-.32l-3.71-1.26c.05-.18.12-.4.22-.67s.21-.53.33-.81.22-.56.34-.82a3,3,0,0,1,.34-.63,2.38,2.38,0,0,1,.78-.8,2.78,2.78,0,0,1,1.15-.18l5.78,0v3.95Z"/><path class="cls-1" d="M64.63,16.8c0-.09.09-.16.26-.21a2.25,2.25,0,0,1,.52-.07h2.25c1.15,0,1.73-.27,1.73-.81a1,1,0,0,0-.07-.36,2.92,2.92,0,0,0-.27-.53,9.54,9.54,0,0,0-.58-.83c-.25-.33-.57-.75-1-1.27L69.7,9.59a6,6,0,0,1,1.65,2.34,8.13,8.13,0,0,1,.59,3,5.89,5.89,0,0,1-.46,2.43,4.75,4.75,0,0,1-1.25,1.72,5.56,5.56,0,0,1-1.89,1,8.09,8.09,0,0,1-2.35.34h-.58a1.81,1.81,0,0,1-.52-.07c-.17,0-.26-.1-.26-.17Zm.75,8.94,2-2.72,2.82,1.9-2.07,2.76Z"/><path class="cls-1" d="M78.18,19.91a4.24,4.24,0,0,1-1.67-1.55A6.72,6.72,0,0,1,75.7,16a21.88,21.88,0,0,1-.26-3c0-.5,0-1.22-.06-2.15s0-1.93-.07-3,0-2.21-.09-3.35-.06-2.21-.08-3.18L78.47,0V13.46a3.63,3.63,0,0,0,.61,2.3,2.38,2.38,0,0,0,2,.76v3.95A6.26,6.26,0,0,1,78.18,19.91Z"/><path class="cls-1" d="M85.88,24.75l-1.7,2.31L82,25.6l-1.26,1.7-2.65-1.7,1.8-2.34,2.21,1.49L83.3,23ZM80.27,16.8c0-.09.09-.16.26-.21a2.25,2.25,0,0,1,.52-.07H83.3c1.15,0,1.73-.27,1.73-.81a1,1,0,0,0-.07-.36,2.92,2.92,0,0,0-.27-.53,9.54,9.54,0,0,0-.58-.83c-.25-.33-.57-.75-1-1.27l2.21-3.13A6,6,0,0,1,87,11.93a8.13,8.13,0,0,1,.59,3,5.89,5.89,0,0,1-.46,2.43,4.66,4.66,0,0,1-1.26,1.72,5.42,5.42,0,0,1-1.88,1,8.09,8.09,0,0,1-2.35.34h-.58a1.81,1.81,0,0,1-.52-.07c-.17,0-.26-.1-.26-.17Z"/><path class="cls-1" d="M102,20.47a3.7,3.7,0,0,1-2.67-.82,4.73,4.73,0,0,1-1.17-2.45,3.54,3.54,0,0,1-1.53.85,7,7,0,0,1-2.21.34,5.94,5.94,0,0,1-1.29-.13,3.63,3.63,0,0,1-1.11-.44,2.39,2.39,0,0,1-.78-.77A2.12,2.12,0,0,1,91,15.91q0-3.6,5.51-6.87l-.31-1.46,2.48-2.51,1.81,9a3.91,3.91,0,0,0,.78,1.87,2.47,2.47,0,0,0,1.83.54v3.95Zm-5-8.74a6,6,0,0,0-1.34.66,5.38,5.38,0,0,0-1.28,1.07c-.36.46-.45.79-.28,1a1.46,1.46,0,0,0,1.13.32,9,9,0,0,0,1.3-.09,2.61,2.61,0,0,0,1-.35Z"/><path class="cls-1" d="M102.3,16.8c0-.09.09-.16.26-.21a2.25,2.25,0,0,1,.52-.07H104c1,0,1.43-.56,1.43-1.7V13.53l2.61-.75v.75a8.82,8.82,0,0,0,.11,1.51,2.47,2.47,0,0,0,.3.92,1,1,0,0,0,.53.44,2.29,2.29,0,0,0,.8.12h.2c.68-.77,1.41-1.59,2.2-2.46a32.55,32.55,0,0,1,2.41-2.43,14.49,14.49,0,0,1,2.53-1.86A5.22,5.22,0,0,1,119.64,9a4.62,4.62,0,0,1,1.69.31,4,4,0,0,1,1.32.85,3.79,3.79,0,0,1,.87,1.26,4,4,0,0,1,.3,1.56,5.85,5.85,0,0,1-1,3.45,8.3,8.3,0,0,1-2.45,2.31,10.19,10.19,0,0,1-3.16,1.3,14.26,14.26,0,0,1-3.16.39h-4.29a4,4,0,0,1-1.73-.41,2.27,2.27,0,0,1-1.19-1.36,3.54,3.54,0,0,1-3.16,1.77h-.62a1.81,1.81,0,0,1-.52-.07c-.17,0-.26-.1-.26-.17ZM113.28,6l-2,2.72-2.82-1.91,2.08-2.75Zm5.44,6.73A4.39,4.39,0,0,0,116,13.8a39.93,39.93,0,0,0-3,2.72h1l1,0c.44,0,.93-.06,1.46-.12s1.08-.14,1.63-.25a11.19,11.19,0,0,0,1.53-.43,3.28,3.28,0,0,0,1.14-.65,1.18,1.18,0,0,0,.44-.93.89.89,0,0,0-.25-.66,1.86,1.86,0,0,0-.63-.41,3.48,3.48,0,0,0-.78-.22A4,4,0,0,0,118.72,12.75Z"/><path class="cls-1" d="M130.18,13.26a13.34,13.34,0,0,1,1.41,2.43,7.17,7.17,0,0,1,.53,2.87,6.7,6.7,0,0,1-.8,3.15,12.56,12.56,0,0,1-2.07,2.84A20.85,20.85,0,0,1,126.39,27a35,35,0,0,1-3.18,2.06l-2.89-2.28c.75-.36,1.63-.84,2.64-1.43a28.48,28.48,0,0,0,2.89-1.93,16.53,16.53,0,0,0,2.34-2.16,3.27,3.27,0,0,0,1-2.09,2.94,2.94,0,0,0-.52-1.53c-.36-.57-.71-1.09-1.08-1.57Z"/><path class="cls-1" d="M138.36,19.91a4.17,4.17,0,0,1-1.67-1.55,6.53,6.53,0,0,1-.81-2.35,20.36,20.36,0,0,1-.26-3c0-.5,0-1.22-.07-2.15s0-1.93-.06-3-.06-2.21-.09-3.35-.06-2.21-.08-3.18L138.65,0V13.46a3.63,3.63,0,0,0,.61,2.3,2.37,2.37,0,0,0,2,.76v3.95A6.26,6.26,0,0,1,138.36,19.91Z"/><path class="cls-1" d="M140.45,16.8c0-.09.08-.16.25-.21a2.33,2.33,0,0,1,.53-.07h3a7.1,7.1,0,0,1-.53-1.46,6.23,6.23,0,0,1-.19-1.46,4.63,4.63,0,0,1,.41-1.92A4.93,4.93,0,0,1,145,10.13a5.14,5.14,0,0,1,1.56-1,4.76,4.76,0,0,1,1.87-.37,5.6,5.6,0,0,1,2.37.52,5.8,5.8,0,0,1,1.95,1.48l-1,2.11a7.72,7.72,0,0,0-1.61-.59,6.71,6.71,0,0,0-1.69-.22,4,4,0,0,0-1.8.37,1.27,1.27,0,0,0-.75,1.22,1.53,1.53,0,0,0,.39,1,3.73,3.73,0,0,0,1,.78,6,6,0,0,0,1.19.51,4.1,4.1,0,0,0,1.1.19,12.77,12.77,0,0,0,2.06-.21c.83-.13,1.83-.33,3-.58l-.41,3.44q-3.84.89-6.75,1.29a36.77,36.77,0,0,1-4.91.41h-1.33a1.88,1.88,0,0,1-.53-.07c-.17,0-.25-.1-.25-.17Z"/></svg>