<svg id="Layer_1" data-name="Layer 1" xmlns="http://www.w3.org/2000/svg" viewBox="0 0 131.88 29.04"><defs><style>.cls-1{fill:#231f20;}</style></defs><path class="cls-1" d="M11.05,20.47a3.7,3.7,0,0,1-2.67-.82A4.65,4.65,0,0,1,7.21,17.2a3.54,3.54,0,0,1-1.53.85,7,7,0,0,1-2.21.34,5.88,5.88,0,0,1-1.29-.13,3.63,3.63,0,0,1-1.11-.44,2.39,2.39,0,0,1-.78-.77A2.12,2.12,0,0,1,0,15.91Q0,12.31,5.51,9L5.2,7.58,7.68,5.07l1.81,9A3.91,3.91,0,0,0,10.27,16a2.47,2.47,0,0,0,1.83.54v3.95Zm-5-8.74a6,6,0,0,0-1.34.66,5.38,5.38,0,0,0-1.28,1.07c-.36.46-.45.79-.28,1a1.45,1.45,0,0,0,1.13.32,9,9,0,0,0,1.3-.09,2.61,2.61,0,0,0,1-.35Z"/><path class="cls-1" d="M11,25.74,13,23l2.82,1.9-2.07,2.76Zm.34-8.94c0-.09.09-.16.26-.21a2.25,2.25,0,0,1,.52-.07h2.25c1.15,0,1.73-.27,1.73-.81a1,1,0,0,0-.07-.36,2.92,2.92,0,0,0-.27-.53,9.54,9.54,0,0,0-.58-.83c-.25-.33-.57-.75-1-1.27l2.21-3.13A6,6,0,0,1,18,11.93a8.13,8.13,0,0,1,.59,3,5.89,5.89,0,0,1-.46,2.43,4.66,4.66,0,0,1-1.26,1.72,5.42,5.42,0,0,1-1.88,1,8.09,8.09,0,0,1-2.35.34H12.1a1.81,1.81,0,0,1-.52-.07c-.17,0-.26-.1-.26-.17Z"/><path class="cls-1" d="M27.45,20.26a2.53,2.53,0,0,1-.66-.47,10.84,10.84,0,0,1-.71,2.29,15.13,15.13,0,0,1-1.31,2.42,17.57,17.57,0,0,1-1.92,2.38A15.87,15.87,0,0,1,20.26,29l-3.09-2.18a15.73,15.73,0,0,0,2.33-1.41,16.21,16.21,0,0,0,2.21-1.91,11.54,11.54,0,0,0,1.66-2.14A4,4,0,0,0,24,19.28a2,2,0,0,0-.21-.85,7.64,7.64,0,0,0-.47-.89c-.18-.29-.37-.56-.55-.81l-.44-.61L25,13.29c.25.39.48.77.7,1.16a6.7,6.7,0,0,0,.69,1,3.55,3.55,0,0,0,.82.74,1.82,1.82,0,0,0,1.05.29v3.95A1.68,1.68,0,0,1,27.45,20.26Z"/><path class="cls-1" d="M45.8,20.47c-2.59,0-3.91-1.62-4-4.86a17.14,17.14,0,0,0-2.16,1.47c-.69.56-1.42,1.09-2.18,1.59A13.77,13.77,0,0,1,35,19.94a8.39,8.39,0,0,1-3.08.53H28.25a1.81,1.81,0,0,1-.52-.07c-.17,0-.26-.1-.26-.17V16.8c0-.09.09-.16.26-.21a2.25,2.25,0,0,1,.52-.07h3.16a10.07,10.07,0,0,0,2.18-.22,11.8,11.8,0,0,0,2-.59,16.19,16.19,0,0,0,1.89-.89c.62-.34,1.26-.71,1.92-1.12L38,13.46c-.47-.09-.93-.17-1.37-.23L35.48,13a5.15,5.15,0,0,0-.77-.09,1.19,1.19,0,0,0-.8.36,5.28,5.28,0,0,0-.8,1L30.6,13.12q1.56-3.94,3.64-3.94a11.33,11.33,0,0,1,2.17.27l2.89.61c1.05.23,2.13.43,3.25.62a20.72,20.72,0,0,0,3.28.27,14,14,0,0,0,1.53-.1l-.44,3.77a9.18,9.18,0,0,0-3.06.44,1.54,1.54,0,0,0,.78,1.23,4.91,4.91,0,0,0,1.7.23h2.58v3.95Zm-8.61,5.27,2-2.72,2.83,1.9L40,27.68Z"/><path class="cls-1" d="M48.14,16.8c0-.09.09-.16.26-.21a2.25,2.25,0,0,1,.52-.07h2.25c1.15,0,1.73-.27,1.73-.81a1,1,0,0,0-.07-.36,2.92,2.92,0,0,0-.27-.53A9.54,9.54,0,0,0,52,14c-.25-.33-.57-.75-1-1.27l2.21-3.13a6,6,0,0,1,1.65,2.34,8.13,8.13,0,0,1,.59,3A5.89,5.89,0,0,1,55,17.39a4.75,4.75,0,0,1-1.25,1.72,5.56,5.56,0,0,1-1.89,1,8.09,8.09,0,0,1-2.35.34h-.58a1.81,1.81,0,0,1-.52-.07c-.17,0-.26-.1-.26-.17Zm.24-10.44,1.7-2.31,2.21,1.46,1.26-1.74,2.62,1.74L54.43,7.82,52.19,6.36,51,8.09Z"/><path class="cls-1" d="M80.78,20.47a2.4,2.4,0,0,1,.12,1.19,4.71,4.71,0,0,1-.36,1.22,6.72,6.72,0,0,1-2.26,2.59A10.66,10.66,0,0,1,74.93,27a11.68,11.68,0,0,1-3.79.38,9.52,9.52,0,0,1-3.55-.89A6.61,6.61,0,0,1,65,24.29a6.17,6.17,0,0,1-1-3.65,9.62,9.62,0,0,1,.44-2.91,14.39,14.39,0,0,1,1.13-2.6l2.58.92c-.27.59-.53,1.23-.78,1.94a6,6,0,0,0-.38,2,3.89,3.89,0,0,0,.51,2.08,3.45,3.45,0,0,0,1.36,1.24,5.34,5.34,0,0,0,1.92.52,9.75,9.75,0,0,0,2.16,0,12.28,12.28,0,0,0,4-1.19c.43-.23.65-.41.68-.56s-.07-.26-.27-.32l-3.71-1.26a5.67,5.67,0,0,1,.22-.67l.32-.81.34-.82a4.38,4.38,0,0,1,.34-.63,2.54,2.54,0,0,1,.79-.81,2.42,2.42,0,0,1,1.15-.21H81v3.95Z"/><path class="cls-1" d="M80.17,16.8c0-.09.08-.16.25-.21a2.33,2.33,0,0,1,.53-.07h3q1.09,0,1.77,0a8.56,8.56,0,0,0,1.48-.22,20.24,20.24,0,0,0,2-.61l3.22-1.21-3-.82c-.7-.18-1.22-.32-1.56-.44a1.72,1.72,0,0,0-1.24.12,3.45,3.45,0,0,0-1,.8l-2.35-1.6a9.93,9.93,0,0,1,2.08-2.67,2.83,2.83,0,0,1,2.38-.59A21,21,0,0,1,90,9.72l2.38.65c.82.23,1.65.45,2.52.66s1.79.41,2.78.56c.46.05.9.08,1.35.11l1.31.06-1.06,3.88c-.54-.05-1-.07-1.43-.07a7,7,0,0,0-1.15.1,6.07,6.07,0,0,0-1.11.33,8.24,8.24,0,0,0-1.27.63c-1.16.65-2.12,1.22-2.88,1.7a18.67,18.67,0,0,1-2.22,1.19,11.4,11.4,0,0,1-2.4.71,19.36,19.36,0,0,1-3.38.24H81a1.88,1.88,0,0,1-.53-.07c-.17,0-.25-.1-.25-.17Z"/><path class="cls-1" d="M107.23,20l-3.47.91V1.36L107.23,0Z"/><path class="cls-1" d="M116.06,20.26a2.58,2.58,0,0,1-.67-.47,8.1,8.1,0,0,1-1.14,2.73,13.17,13.17,0,0,1-2,2.45,21.83,21.83,0,0,1-2.62,2.16c-1,.68-2,1.32-3,1.91l-2.89-2.25c.73-.36,1.6-.83,2.62-1.41a30.53,30.53,0,0,0,2.93-1.89,15.41,15.41,0,0,0,2.36-2.1,3.23,3.23,0,0,0,1-2.11,2,2,0,0,0-.21-.85,7.64,7.64,0,0,0-.47-.89c-.18-.29-.36-.56-.55-.81s-.32-.46-.44-.61l2.62-2.83c.25.39.48.77.7,1.16a7.51,7.51,0,0,0,.69,1,3.77,3.77,0,0,0,.82.74,1.84,1.84,0,0,0,1,.29v3.95A1.64,1.64,0,0,1,116.06,20.26Z"/><path class="cls-1" d="M116.07,16.8c0-.09.09-.16.26-.21a2.25,2.25,0,0,1,.52-.07H118l.63-.74c.22-.25.45-.5.7-.75.07-.68.12-1.41.15-2.18s0-1.49,0-2.17c0-1.39,0-2.82-.13-4.3s-.23-3.16-.41-5L122.57,0V11.7a15.6,15.6,0,0,1,2.56-1.89,5.15,5.15,0,0,1,2.6-.77,4.09,4.09,0,0,1,3,1.14A3.83,3.83,0,0,1,131.88,13a5.92,5.92,0,0,1-1,3.45,8.35,8.35,0,0,1-2.43,2.31,10.14,10.14,0,0,1-3.15,1.3,14.08,14.08,0,0,1-3.13.39h-5.34a1.81,1.81,0,0,1-.52-.07c-.17,0-.26-.1-.26-.17Zm10.75-4.05a4.34,4.34,0,0,0-2.72,1.05,36.59,36.59,0,0,0-3,2.72H122l1,0c.43,0,.92-.06,1.45-.12s1.08-.14,1.63-.25a11.19,11.19,0,0,0,1.53-.43,3.28,3.28,0,0,0,1.14-.65,1.21,1.21,0,0,0,.44-.93.89.89,0,0,0-.25-.66,1.86,1.86,0,0,0-.63-.41,3.55,3.55,0,0,0-.77-.22A3.66,3.66,0,0,0,126.82,12.75Z"/></svg>