<svg id="Layer_1" data-name="Layer 1" xmlns="http://www.w3.org/2000/svg" viewBox="0 0 350 418.83"><defs><style>.cls-1{fill:#f58641;}</style></defs><path class="cls-1" d="M120.11,410.27a3.72,3.72,0,0,1-2.67-.82,4.58,4.58,0,0,1-1.17-2.45,3.54,3.54,0,0,1-1.53.85,7.09,7.09,0,0,1-2.21.34,6,6,0,0,1-1.3-.13,3.69,3.69,0,0,1-1.1-.45,2.37,2.37,0,0,1-.78-.76,2.14,2.14,0,0,1-.29-1.14q0-3.6,5.51-6.87l-.31-1.46,2.48-2.52,1.8,9.05a4,4,0,0,0,.79,1.87,2.47,2.47,0,0,0,1.83.54v3.95Zm-5-8.74a6,6,0,0,0-1.34.66,5.38,5.38,0,0,0-1.28,1.07c-.36.45-.46.79-.29,1s.55.33,1.14.33a8.71,8.71,0,0,0,1.29-.09,2.65,2.65,0,0,0,1.06-.35Z"/><path class="cls-1" d="M120,415.54l2-2.72,2.82,1.9-2.07,2.75Zm.34-9c0-.09.09-.15.26-.2a1.81,1.81,0,0,1,.52-.07h2.25c1.15,0,1.73-.27,1.73-.81a.92.92,0,0,0-.07-.36,2.63,2.63,0,0,0-.27-.53c-.14-.22-.33-.5-.58-.83l-1-1.28,2.21-3.12a5.9,5.9,0,0,1,1.65,2.34,8.09,8.09,0,0,1,.59,3,5.89,5.89,0,0,1-.46,2.43,4.66,4.66,0,0,1-1.26,1.72,5.42,5.42,0,0,1-1.88,1,8.09,8.09,0,0,1-2.35.34h-.58a2.25,2.25,0,0,1-.52-.07c-.17-.05-.26-.1-.26-.17Z"/><path class="cls-1" d="M136.51,410.06a2.53,2.53,0,0,1-.66-.47,11.46,11.46,0,0,1-.71,2.29,15,15,0,0,1-1.31,2.41,17.88,17.88,0,0,1-1.92,2.38,14.92,14.92,0,0,1-2.59,2.16l-3.09-2.17a17.65,17.65,0,0,0,2.33-1.41,16.94,16.94,0,0,0,2.21-1.91,11.54,11.54,0,0,0,1.66-2.14,4.07,4.07,0,0,0,.67-2.12,1.94,1.94,0,0,0-.21-.85,7.64,7.64,0,0,0-.47-.89c-.19-.29-.37-.56-.55-.81l-.44-.62,2.62-2.82c.25.39.48.77.7,1.16a6.6,6.6,0,0,0,.69,1,3.39,3.39,0,0,0,.82.75,1.8,1.8,0,0,0,1.05.29v3.95A1.68,1.68,0,0,1,136.51,410.06Z"/><path class="cls-1" d="M154.86,410.27c-2.59,0-3.91-1.62-4-4.87a17.22,17.22,0,0,0-2.16,1.48c-.69.56-1.42,1.08-2.18,1.58a13.18,13.18,0,0,1-2.48,1.28,8.39,8.39,0,0,1-3.08.53h-3.67a2.33,2.33,0,0,1-.53-.07c-.17-.05-.25-.1-.25-.17v-3.44c0-.09.08-.15.25-.2a1.88,1.88,0,0,1,.53-.07h3.16a10.13,10.13,0,0,0,2.18-.22,12.82,12.82,0,0,0,2-.59,16.19,16.19,0,0,0,1.89-.89c.62-.34,1.26-.71,1.92-1.12l-1.33-.24-1.37-.24-1.19-.18a5.15,5.15,0,0,0-.77-.09,1.19,1.19,0,0,0-.8.36,5.28,5.28,0,0,0-.8,1l-2.51-1.19q1.56-3.94,3.64-3.94a11.33,11.33,0,0,1,2.17.27c.89.18,1.85.38,2.89.61s2.13.43,3.25.61a20.66,20.66,0,0,0,3.28.28,12,12,0,0,0,1.53-.11l-.44,3.78a9.18,9.18,0,0,0-3.06.44,1.5,1.5,0,0,0,.78,1.22,4.61,4.61,0,0,0,1.7.24H158v3.95Zm-8.61,5.27,2-2.72,2.83,1.9L149,417.47Z"/><path class="cls-1" d="M157.2,406.59c0-.09.09-.15.26-.2a1.81,1.81,0,0,1,.52-.07h2.25c1.15,0,1.73-.27,1.73-.81a.92.92,0,0,0-.07-.36,2.63,2.63,0,0,0-.27-.53,9.54,9.54,0,0,0-.58-.83c-.25-.33-.57-.76-1-1.28l2.21-3.12a5.9,5.9,0,0,1,1.65,2.34,8.09,8.09,0,0,1,.59,3,5.89,5.89,0,0,1-.46,2.43,4.66,4.66,0,0,1-1.26,1.72,5.42,5.42,0,0,1-1.88,1,8.09,8.09,0,0,1-2.35.34H158a2.25,2.25,0,0,1-.52-.07c-.17-.05-.26-.1-.26-.17Zm.24-10.43,1.7-2.32,2.21,1.47,1.26-1.74,2.62,1.74-1.74,2.31-2.24-1.46-1.16,1.73Z"/><path class="cls-1" d="M189.84,410.27a2.4,2.4,0,0,1,.12,1.19,4.82,4.82,0,0,1-.36,1.22,6.7,6.7,0,0,1-2.26,2.58,10.47,10.47,0,0,1-3.35,1.55,11.7,11.7,0,0,1-3.79.37,9.47,9.47,0,0,1-3.55-.88,6.69,6.69,0,0,1-2.62-2.21,6.17,6.17,0,0,1-1-3.65,9.62,9.62,0,0,1,.44-2.91,14.77,14.77,0,0,1,1.12-2.6l2.59.92c-.27.59-.53,1.23-.78,1.93a6,6,0,0,0-.38,2,3.83,3.83,0,0,0,.51,2.07,3.31,3.31,0,0,0,1.36,1.24,5.35,5.35,0,0,0,1.92.53,9.75,9.75,0,0,0,2.16,0,12.61,12.61,0,0,0,2.13-.46,11.67,11.67,0,0,0,1.82-.73c.43-.23.65-.42.68-.56s-.07-.26-.28-.33l-3.7-1.25a4.68,4.68,0,0,1,.22-.67l.32-.81.34-.82a4.38,4.38,0,0,1,.34-.63,2.42,2.42,0,0,1,.78-.81,2.47,2.47,0,0,1,1.16-.21H190v3.95Z"/><path class="cls-1" d="M189.23,406.59c0-.09.08-.15.25-.2a1.88,1.88,0,0,1,.53-.07h3q1.09,0,1.77,0a9.65,9.65,0,0,0,1.48-.22,18.15,18.15,0,0,0,2-.62q1.17-.42,3.21-1.2c-1.29-.37-2.29-.64-3-.82s-1.22-.33-1.56-.44a1.72,1.72,0,0,0-1.24.12,3.45,3.45,0,0,0-1,.8l-2.35-1.6a9.73,9.73,0,0,1,2.08-2.67,2.83,2.83,0,0,1,2.38-.59,21,21,0,0,1,2.31.47l2.38.65,2.51.66c.87.22,1.79.4,2.79.56.46.05.9.08,1.35.1l1.3.07-1,3.88c-.54-.05-1-.07-1.43-.07a6,6,0,0,0-1.15.1,6.91,6.91,0,0,0-1.11.32,10.57,10.57,0,0,0-1.27.63c-1.16.66-2.12,1.23-2.88,1.7a16.16,16.16,0,0,1-2.22,1.19,10.85,10.85,0,0,1-2.4.72,19.36,19.36,0,0,1-3.38.24H190a2.33,2.33,0,0,1-.53-.07c-.17-.05-.25-.1-.25-.17Z"/><path class="cls-1" d="M216.29,409.82l-3.47.92V391.16l3.47-1.36Z"/><path class="cls-1" d="M225.11,410.06a2.53,2.53,0,0,1-.66-.47,8.1,8.1,0,0,1-1.14,2.73,13.5,13.5,0,0,1-2,2.45,22.65,22.65,0,0,1-2.62,2.16c-1,.68-2,1.31-3,1.9l-2.89-2.24c.73-.36,1.6-.83,2.62-1.41a30.53,30.53,0,0,0,2.93-1.89,15.39,15.39,0,0,0,2.36-2.11,3.24,3.24,0,0,0,1-2.1,1.94,1.94,0,0,0-.21-.85,7.64,7.64,0,0,0-.47-.89c-.18-.29-.37-.56-.55-.81l-.44-.62,2.62-2.82c.25.39.48.77.7,1.16a6.6,6.6,0,0,0,.69,1,3.39,3.39,0,0,0,.82.75,1.82,1.82,0,0,0,1,.29v3.95A1.71,1.71,0,0,1,225.11,410.06Z"/><path class="cls-1" d="M225.13,406.59c0-.09.09-.15.26-.2a1.81,1.81,0,0,1,.52-.07h1.19l.63-.75c.22-.25.45-.5.7-.74.07-.68.12-1.41.15-2.18s0-1.5,0-2.18c0-1.38,0-2.81-.13-4.3s-.23-3.15-.41-5l3.54-1.36v11.69a16.11,16.11,0,0,1,2.56-1.88,5.12,5.12,0,0,1,2.6-.77,4.1,4.1,0,0,1,3,1.14,3.83,3.83,0,0,1,1.15,2.84,5.92,5.92,0,0,1-1,3.45,8.27,8.27,0,0,1-2.44,2.31,10.2,10.2,0,0,1-3.14,1.29,14.13,14.13,0,0,1-3.13.4h-5.34a2.25,2.25,0,0,1-.52-.07c-.17-.05-.26-.1-.26-.17Zm10.75-4a4.34,4.34,0,0,0-2.72,1.05,34.84,34.84,0,0,0-3,2.72h.92l.95,0c.43,0,.92-.06,1.45-.12s1.07-.14,1.63-.26a10,10,0,0,0,1.53-.42,3.67,3.67,0,0,0,1.14-.65,1.21,1.21,0,0,0,.44-.93.91.91,0,0,0-.25-.67,1.84,1.84,0,0,0-.63-.4,3.06,3.06,0,0,0-.77-.22A3.66,3.66,0,0,0,235.88,402.55Z"/><path class="cls-1" d="M350,16.57l-4.23-1A609.64,609.64,0,0,0,240.45.65C209.23-.88,178.06.06,147.22,5.89c-23.32,4.4-45.87,11.19-66.87,22.46C30.89,54.89,5.51,96.88.78,152.21-.31,165,.09,177.8,0,192.05c1,11.15.93,23.78,1.74,36.38,1.68,26.3,4.69,52.42,10.17,78.2A300.66,300.66,0,0,0,24.29,350H350Z"/></svg>