<svg id="Layer_1" data-name="Layer 1" xmlns="http://www.w3.org/2000/svg" viewBox="0 0 350 418.83"><defs><style>.cls-1{fill-rule:evenodd;}.cls-2{fill:#231f20;}</style></defs><path class="cls-1" d="M350,89C238.74,43.66,115.89,11.4,0,0V345.48H350Z"/><path class="cls-2" d="M196.92,409.4a6,6,0,0,1-3-.8,5.8,5.8,0,0,1-2.19-2.18c-1,2.31-3,3.47-6,3.47q-3.62,0-5.25-2l1.34-3.43a5,5,0,0,0,1.9.86,10.26,10.26,0,0,0,2.61.33,9.67,9.67,0,0,0,1.53-.11,5.41,5.41,0,0,0,1.32-.35,2.7,2.7,0,0,0,.93-.62,1.25,1.25,0,0,0,.36-.89,1.23,1.23,0,0,0-.06-.32c0-.14-.14-.45-.3-.95s-.42-1.26-.78-2.28-.85-2.43-1.47-4.25l3-2.68q1.16,3.73,1.85,6a32,32,0,0,0,1.26,3.6,4.34,4.34,0,0,0,1.23,1.75,3,3,0,0,0,1.74.47h.78v4.32Z"/><path class="cls-2" d="M196.81,405.37c0-.09.1-.17.28-.22a2.25,2.25,0,0,1,.58-.07h2.46c1.27,0,1.9-.3,1.9-.9a1.15,1.15,0,0,0-.07-.39,3.62,3.62,0,0,0-.3-.58c-.15-.25-.36-.55-.63-.91l-1.09-1.4,2.43-3.43a6.53,6.53,0,0,1,1.81,2.57,8.84,8.84,0,0,1,.65,3.32,6.49,6.49,0,0,1-.51,2.67,5.23,5.23,0,0,1-1.37,1.88,5.92,5.92,0,0,1-2.07,1.12,8.61,8.61,0,0,1-2.58.37h-.63a2.25,2.25,0,0,1-.58-.07c-.18-.05-.28-.12-.28-.19Zm6.79-12.52-2.24,3-3.09-2.09,2.27-3Z"/><path class="cls-2" d="M214.5,409.18a3.1,3.1,0,0,1-.72-.52,9.3,9.3,0,0,1-1.25,3,15.36,15.36,0,0,1-2.2,2.68,25.31,25.31,0,0,1-2.87,2.37c-1.06.74-2.15,1.44-3.27,2.09L201,416.34c.8-.4,1.76-.92,2.88-1.55a36.47,36.47,0,0,0,3.2-2.07,17,17,0,0,0,2.59-2.31,3.57,3.57,0,0,0,1.07-2.31,2.27,2.27,0,0,0-.23-.94,10.27,10.27,0,0,0-.52-1c-.2-.32-.4-.62-.6-.89l-.48-.67,2.87-3.1c.27.43.53.85.76,1.27a8.11,8.11,0,0,0,.77,1.14,4,4,0,0,0,.89.82,2.1,2.1,0,0,0,1.16.32v4.32A1.88,1.88,0,0,1,214.5,409.18Z"/><path class="cls-2" d="M214.52,405.37c0-.09.09-.17.28-.22a2.25,2.25,0,0,1,.58-.07h2.46c1.27,0,1.9-.3,1.9-.9a1.46,1.46,0,0,0-.07-.39,3.62,3.62,0,0,0-.3-.58,9.47,9.47,0,0,0-.64-.91c-.27-.36-.63-.83-1.08-1.4l2.43-3.43a6.41,6.41,0,0,1,1.8,2.57,8.66,8.66,0,0,1,.66,3.32A6.49,6.49,0,0,1,222,406a5.14,5.14,0,0,1-1.38,1.88,5.75,5.75,0,0,1-2.07,1.12,8.49,8.49,0,0,1-2.57.37h-.63a2.25,2.25,0,0,1-.58-.07c-.19-.05-.28-.12-.28-.19Zm.82,9.81,2.24-3,3.09,2.08-2.27,3Z"/><path class="cls-2" d="M250.31,409.4a2.77,2.77,0,0,1,.13,1.31,5,5,0,0,1-.39,1.34,7.36,7.36,0,0,1-2.48,2.83,11.72,11.72,0,0,1-3.67,1.7,13.12,13.12,0,0,1-4.16.41,10.37,10.37,0,0,1-3.89-1,7.37,7.37,0,0,1-2.88-2.43,6.8,6.8,0,0,1-1.11-4,10.48,10.48,0,0,1,.48-3.19,15.13,15.13,0,0,1,1.23-2.85l2.83,1c-.29.65-.58,1.36-.85,2.13a6.4,6.4,0,0,0-.41,2.2,4.13,4.13,0,0,0,.56,2.27,3.62,3.62,0,0,0,1.49,1.36,5.82,5.82,0,0,0,2.1.58,10.44,10.44,0,0,0,2.37,0,13.06,13.06,0,0,0,2.33-.5,12.61,12.61,0,0,0,2-.8c.47-.25.72-.45.74-.62s-.07-.28-.3-.35l-4.06-1.38a6.75,6.75,0,0,1,.24-.73c.11-.28.23-.58.36-.89s.24-.61.37-.9a4.3,4.3,0,0,1,.37-.69,2.61,2.61,0,0,1,.86-.87,2.88,2.88,0,0,1,1.27-.21l6.33,0v4.32Z"/><path class="cls-2" d="M251.32,405.37c0-.09.09-.17.28-.22a2.17,2.17,0,0,1,.57-.07h2.47c1.26,0,1.9-.3,1.9-.9a1.18,1.18,0,0,0-.08-.39,3.62,3.62,0,0,0-.3-.58c-.15-.25-.36-.55-.63-.91s-.63-.83-1.08-1.4l2.42-3.43a6.43,6.43,0,0,1,1.81,2.57,8.84,8.84,0,0,1,.65,3.32,6.66,6.66,0,0,1-.5,2.67,5.37,5.37,0,0,1-1.38,1.88,5.75,5.75,0,0,1-2.07,1.12,8.54,8.54,0,0,1-2.57.37h-.64a2.17,2.17,0,0,1-.57-.07c-.19-.05-.28-.12-.28-.19Zm.82,9.81,2.23-3,3.1,2.08-2.28,3Z"/><path class="cls-2" d="M266.17,408.79a4.53,4.53,0,0,1-1.82-1.7,7,7,0,0,1-.9-2.57,24.61,24.61,0,0,1-.28-3.25c0-.54-.05-1.33-.07-2.35s-.05-2.12-.08-3.31,0-2.42-.09-3.68-.07-2.41-.09-3.48l3.65-1.49v14.76a4,4,0,0,0,.67,2.52,2.61,2.61,0,0,0,2.16.84v4.32A6.87,6.87,0,0,1,266.17,408.79Z"/><path class="cls-2" d="M274.62,414.1l-1.87,2.53-2.42-1.6L269,416.89,266,415l2-2.57,2.42,1.64,1.34-1.9Zm-6.15-8.73c0-.09.09-.17.28-.22a2.12,2.12,0,0,1,.57-.07h2.46c1.27,0,1.91-.3,1.91-.9a1.18,1.18,0,0,0-.08-.39,3.62,3.62,0,0,0-.3-.58c-.15-.25-.36-.55-.63-.91l-1.08-1.4,2.42-3.43a6.53,6.53,0,0,1,1.81,2.57,8.84,8.84,0,0,1,.65,3.32A6.66,6.66,0,0,1,276,406a5.37,5.37,0,0,1-1.38,1.88,5.92,5.92,0,0,1-2.07,1.12,8.54,8.54,0,0,1-2.57.37h-.64a2.12,2.12,0,0,1-.57-.07c-.19-.05-.28-.12-.28-.19Z"/><path class="cls-2" d="M292.33,409.4a4.09,4.09,0,0,1-2.93-.89,5.18,5.18,0,0,1-1.29-2.69,3.84,3.84,0,0,1-1.67.93,7.87,7.87,0,0,1-2.43.38,6.35,6.35,0,0,1-1.41-.15,3.76,3.76,0,0,1-1.22-.49,2.53,2.53,0,0,1-.85-.84,2.21,2.21,0,0,1-.32-1.25q0-3.94,6-7.53l-.34-1.6,2.73-2.76,2,9.92a4.34,4.34,0,0,0,.86,2.05,2.68,2.68,0,0,0,2,.6v4.32Zm-5.48-9.58a6.84,6.84,0,0,0-1.48.73,5.75,5.75,0,0,0-1.4,1.17c-.39.5-.5.86-.31,1.1s.6.35,1.25.35a10.56,10.56,0,0,0,1.41-.09,2.89,2.89,0,0,0,1.16-.39Z"/><path class="cls-2" d="M292.62,405.37c0-.09.1-.17.28-.22a2.25,2.25,0,0,1,.58-.07h1c1,0,1.57-.63,1.57-1.87V401.8l2.87-.83v.83a9.43,9.43,0,0,0,.11,1.65,2.84,2.84,0,0,0,.33,1,1.19,1.19,0,0,0,.58.49,2.77,2.77,0,0,0,.88.13H301l2.41-2.71a36.86,36.86,0,0,1,2.64-2.66,15.71,15.71,0,0,1,2.78-2,5.63,5.63,0,0,1,2.8-.81,5,5,0,0,1,1.84.34,4.21,4.21,0,0,1,2.74,4,6.43,6.43,0,0,1-1.08,3.78,9,9,0,0,1-2.68,2.54A11.57,11.57,0,0,1,309,409a15.29,15.29,0,0,1-3.47.43h-4.69a4.38,4.38,0,0,1-1.91-.45,2.48,2.48,0,0,1-1.3-1.49,3.9,3.9,0,0,1-3.47,1.94h-.67a2.25,2.25,0,0,1-.58-.07c-.18-.05-.28-.12-.28-.19Zm12.05-11.81-2.24,3-3.1-2.09,2.28-3Zm6,7.38a4.78,4.78,0,0,0-3,1.15,41.13,41.13,0,0,0-3.34,3h1l1.07,0c.48,0,1-.07,1.6-.13s1.18-.16,1.79-.28a12,12,0,0,0,1.68-.47,3.76,3.76,0,0,0,1.25-.71,1.31,1.31,0,0,0,.48-1,1,1,0,0,0-.28-.73,2.29,2.29,0,0,0-.69-.45,4,4,0,0,0-.86-.24A4.59,4.59,0,0,0,310.63,400.94Z"/><path class="cls-2" d="M323.2,401.5a14.34,14.34,0,0,1,1.54,2.66,7.77,7.77,0,0,1,.58,3.15,7.2,7.2,0,0,1-.88,3.45,13.38,13.38,0,0,1-2.27,3.11,23.62,23.62,0,0,1-3.13,2.71,41.1,41.1,0,0,1-3.49,2.25l-3.17-2.49c.82-.4,1.79-.92,2.89-1.57a31.32,31.32,0,0,0,3.17-2.13,17.52,17.52,0,0,0,2.57-2.36,3.59,3.59,0,0,0,1.07-2.3,3.32,3.32,0,0,0-.58-1.67c-.39-.62-.78-1.2-1.18-1.72Z"/><path class="cls-2" d="M332.16,408.79a4.62,4.62,0,0,1-1.83-1.7,7.23,7.23,0,0,1-.89-2.57,23,23,0,0,1-.28-3.25c0-.54-.05-1.33-.07-2.35s0-2.12-.08-3.31-.06-2.42-.09-3.68-.07-2.41-.1-3.48l3.66-1.49v14.76a4,4,0,0,0,.67,2.52,2.61,2.61,0,0,0,2.16.84v4.32A6.81,6.81,0,0,1,332.16,408.79Z"/><path class="cls-2" d="M334.45,405.37c0-.09.1-.17.28-.22a2.25,2.25,0,0,1,.58-.07h3.32a8.87,8.87,0,0,1-.58-1.61,6.38,6.38,0,0,1-.2-1.6,5.18,5.18,0,0,1,.44-2.11,5.41,5.41,0,0,1,1.2-1.69A5.34,5.34,0,0,1,341.2,397a5.28,5.28,0,0,1,2.05-.41,6,6,0,0,1,2.59.58,6.11,6.11,0,0,1,2.15,1.62l-1.12,2.31a9.08,9.08,0,0,0-1.77-.65,7.61,7.61,0,0,0-1.85-.25,4.38,4.38,0,0,0-2,.41,1.41,1.41,0,0,0-.82,1.35,1.7,1.7,0,0,0,.42,1.1,4,4,0,0,0,1.05.85,5.55,5.55,0,0,0,1.3.56,4.27,4.27,0,0,0,1.21.21,14.45,14.45,0,0,0,2.26-.23c.91-.14,2-.36,3.3-.63l-.45,3.77c-2.81.64-5.27,1.12-7.4,1.41a39.52,39.52,0,0,1-5.39.45h-1.45a2.25,2.25,0,0,1-.58-.07c-.18-.05-.28-.12-.28-.19Z"/></svg>