<svg id="Layer_1" data-name="Layer 1" xmlns="http://www.w3.org/2000/svg" viewBox="0 0 20.28 20.28"><defs><style>.cls-1{fill:#f48120;}.cls-2{fill:#fff;fill-rule:evenodd;}</style></defs><circle class="cls-1" cx="10.14" cy="10.14" r="10.14"/><g id="WA_Logo" data-name="WA Logo"><path class="cls-2" d="M14,6.26A5.43,5.43,0,0,0,5.46,12.8l-.77,2.81,2.88-.75a5.42,5.42,0,0,0,2.59.66h0A5.42,5.42,0,0,0,14,6.26ZM10.16,14.6h0A4.47,4.47,0,0,1,7.87,14l-.17-.1L6,14.33l.45-1.67-.11-.17a4.51,4.51,0,0,1,7-5.58,4.44,4.44,0,0,1,1.32,3.19A4.51,4.51,0,0,1,10.16,14.6Zm2.48-3.37c-.14-.07-.8-.4-.93-.44s-.21-.07-.3.06a6.8,6.8,0,0,1-.43.54c-.08.09-.16.1-.3,0a3.87,3.87,0,0,1-1.09-.67,4.29,4.29,0,0,1-.75-.94c-.08-.14,0-.21.06-.28s.13-.16.2-.24a.83.83,0,0,0,.14-.22.28.28,0,0,0,0-.24c0-.07-.31-.73-.42-1s-.22-.23-.31-.24H8.24a.49.49,0,0,0-.36.17,1.52,1.52,0,0,0-.47,1.13A2.64,2.64,0,0,0,8,10.29a6.11,6.11,0,0,0,2.32,2.05,6.45,6.45,0,0,0,.77.28,2,2,0,0,0,.85.06,1.4,1.4,0,0,0,.92-.65,1.2,1.2,0,0,0,.08-.64C12.86,11.33,12.77,11.3,12.64,11.23Z"/></g></svg>