<svg id="Layer_1" data-name="Layer 1" xmlns="http://www.w3.org/2000/svg" viewBox="0 0 350 62.14"><defs><style>.cls-1{fill:#231f20;}</style></defs><path class="cls-1" d="M16.58,20.17a2.33,2.33,0,0,1,.12,1.17,4.72,4.72,0,0,1-.35,1.21,6.67,6.67,0,0,1-2.23,2.54,10.6,10.6,0,0,1-3.3,1.53A11.64,11.64,0,0,1,7.09,27a9.08,9.08,0,0,1-3.51-.87A6.63,6.63,0,0,1,1,23.94a6.11,6.11,0,0,1-1-3.61,9,9,0,0,1,.44-2.86,13.91,13.91,0,0,1,1.1-2.56l2.55.9a20.49,20.49,0,0,0-.77,1.91,5.8,5.8,0,0,0-.37,2,3.83,3.83,0,0,0,.5,2A3.28,3.28,0,0,0,4.79,23a5.18,5.18,0,0,0,1.89.52,9.48,9.48,0,0,0,2.13,0A12.35,12.35,0,0,0,10.9,23a10.53,10.53,0,0,0,1.8-.72c.42-.23.64-.41.67-.56s-.07-.25-.27-.31L9.45,20.17a4.81,4.81,0,0,1,.21-.66c.11-.25.21-.52.32-.8s.23-.55.34-.8a3.16,3.16,0,0,1,.33-.62,2.51,2.51,0,0,1,.77-.81,2.56,2.56,0,0,1,1.14-.2h4.19v3.89Z"/><path class="cls-1" d="M16,16.55c0-.09.08-.16.25-.2a1.81,1.81,0,0,1,.52-.07h.87c.94,0,1.41-.56,1.41-1.67V13.33l2.58-.73v.73a8.7,8.7,0,0,0,.1,1.49,2.48,2.48,0,0,0,.3.91,1,1,0,0,0,.52.43,2.23,2.23,0,0,0,.79.12h.2l2.16-2.43a29.84,29.84,0,0,1,2.38-2.39,13.68,13.68,0,0,1,2.49-1.83,5.09,5.09,0,0,1,2.51-.72,4.42,4.42,0,0,1,1.66.3,4,4,0,0,1,1.31.84,3.76,3.76,0,0,1,.85,1.24,3.88,3.88,0,0,1,.3,1.54,5.78,5.78,0,0,1-1,3.4,8.06,8.06,0,0,1-2.41,2.28,10.2,10.2,0,0,1-3.11,1.27,13.85,13.85,0,0,1-3.12.39H23.35a3.91,3.91,0,0,1-1.71-.41,2.2,2.2,0,0,1-1.17-1.34,3.49,3.49,0,0,1-3.12,1.75h-.6a2.25,2.25,0,0,1-.52-.07c-.17,0-.25-.1-.25-.17Zm16.18-4a4.31,4.31,0,0,0-2.66,1,35.35,35.35,0,0,0-3,2.68h.94l.95,0q.66,0,1.44-.12c.53-.06,1.06-.14,1.61-.25A10,10,0,0,0,33,15.46a3.54,3.54,0,0,0,1.12-.64,1.17,1.17,0,0,0,.43-.92.87.87,0,0,0-.25-.65,1.7,1.7,0,0,0-.62-.4,3.25,3.25,0,0,0-.77-.22A3.76,3.76,0,0,0,32.16,12.56Z"/><path class="cls-1" d="M43,19.61a4,4,0,0,1-1.65-1.52,6.57,6.57,0,0,1-.8-2.31,21.49,21.49,0,0,1-.25-2.92c0-.49,0-1.19-.07-2.11s0-1.91-.06-3-.05-2.17-.09-3.3S40,2.3,40,1.34L43.28,0V13.27a3.61,3.61,0,0,0,.6,2.26,2.36,2.36,0,0,0,1.95.75v3.89A6.08,6.08,0,0,1,43,19.61Z"/><path class="cls-1" d="M67.1,20.17a4.65,4.65,0,0,1-2.16-.51,5.44,5.44,0,0,1-1.73-1.37,9.89,9.89,0,0,1-3.16,1.41,13.61,13.61,0,0,1-3.4.47H52.43a3.91,3.91,0,0,1-1.71-.41,2.2,2.2,0,0,1-1.17-1.34,3.49,3.49,0,0,1-3.12,1.75h-.6a2.18,2.18,0,0,1-.52-.07c-.17,0-.25-.1-.25-.17V16.55c0-.09.08-.16.25-.2a1.77,1.77,0,0,1,.52-.07h.87c.94,0,1.4-.56,1.4-1.67V13.33l2.58-.73v.73a9.86,9.86,0,0,0,.1,1.49,2.47,2.47,0,0,0,.31.91,1,1,0,0,0,.52.43,2.21,2.21,0,0,0,.78.12h.2l2.16-2.43a31.6,31.6,0,0,1,2.38-2.39,14.09,14.09,0,0,1,2.5-1.83,5.06,5.06,0,0,1,2.51-.72,4.46,4.46,0,0,1,1.66.3,4,4,0,0,1,1.31.84,3.79,3.79,0,0,1,1.15,2.78A6.61,6.61,0,0,1,66,14.61,5.25,5.25,0,0,1,65.42,16c.12.2.75.3,1.91.3h.44v3.89Zm-5.86-7.61a4.34,4.34,0,0,0-2.67,1,37,37,0,0,0-3,2.68h.93l1,0q.64,0,1.44-.12c.52-.06,1.06-.14,1.61-.25a9.86,9.86,0,0,0,1.5-.42,3.49,3.49,0,0,0,1.13-.64,1.17,1.17,0,0,0,.43-.92.87.87,0,0,0-.25-.65,1.79,1.79,0,0,0-.62-.4,3.39,3.39,0,0,0-.77-.22A3.84,3.84,0,0,0,61.24,12.56Z"/><path class="cls-1" d="M75.07,20.17A3,3,0,0,1,72,18.42a4.41,4.41,0,0,1-3.92,1.75h-.3a2.25,2.25,0,0,1-.52-.07c-.17,0-.25-.1-.25-.17V16.55c0-.09.08-.16.25-.2a1.81,1.81,0,0,1,.52-.07h.17c1.67,0,2.51-.57,2.51-1.71V13.23l2.75-.87v.84c0,2.05.67,3.08,2,3.08h.2v3.89ZM67.74,8.71l1.67-2.28,2.18,1.44,1.24-1.71,2.58,1.71L73.7,10.15,71.49,8.71l-1.14,1.71Z"/><path class="cls-1" d="M74.64,16.55c0-.09.08-.16.25-.2a1.81,1.81,0,0,1,.52-.07h2.94c.72,0,1.3,0,1.75,0A8.25,8.25,0,0,0,81.55,16a16.69,16.69,0,0,0,2-.6l3.16-1.19q-1.91-.54-2.94-.81c-.7-.18-1.21-.32-1.55-.43a1.67,1.67,0,0,0-1.22.12,3.47,3.47,0,0,0-1,.78l-2.31-1.57a9.44,9.44,0,0,1,2-2.63,2.79,2.79,0,0,1,2.34-.59,20.51,20.51,0,0,1,2.28.47l2.35.64c.8.22,1.63.44,2.48.65s1.76.4,2.74.55c.45.05.89.08,1.33.1l1.29.07-1,3.82c-.54,0-1-.07-1.41-.07a6.91,6.91,0,0,0-1.14.1,6.69,6.69,0,0,0-1.09.32,9.58,9.58,0,0,0-1.25.62c-1.14.65-2.09,1.21-2.83,1.68a16.28,16.28,0,0,1-2.2,1.17,10.33,10.33,0,0,1-2.36.7,18.81,18.81,0,0,1-3.33.24H75.41a2.25,2.25,0,0,1-.52-.07c-.17,0-.25-.1-.25-.17Zm10-12.36-2,2.68L79.86,5l2-2.71Z"/><path class="cls-1" d="M101,19.73l-3.42.91V1.34L101,0Z"/><path class="cls-1" d="M105.35,26.4c.72-.36,1.56-.82,2.53-1.38a32.88,32.88,0,0,0,2.82-1.8,15.78,15.78,0,0,0,2.33-2,3.43,3.43,0,0,0,1-2,3.58,3.58,0,0,1-1,.39,5.45,5.45,0,0,1-1.24.15,3.55,3.55,0,0,1-2.8-.94,3.52,3.52,0,0,1-.82-2.41,7.43,7.43,0,0,1,.25-1.88,6.38,6.38,0,0,1,.75-1.77,4.69,4.69,0,0,1,1.24-1.34,2.89,2.89,0,0,1,1.75-.54,3.23,3.23,0,0,1,2.21.77,5.87,5.87,0,0,1,1.39,1.89,9.57,9.57,0,0,1,.72,2.37,14.19,14.19,0,0,1,.2,2.17,8.09,8.09,0,0,1-.69,3.39,10.47,10.47,0,0,1-1.86,2.76,17.79,17.79,0,0,1-2.7,2.35c-1,.72-2.09,1.42-3.23,2.09Zm8.41-10.19a3.92,3.92,0,0,0-.67-1.54,1.4,1.4,0,0,0-1.17-.63,1.33,1.33,0,0,0-1,.43,1.46,1.46,0,0,0-.44,1.07.83.83,0,0,0,.51.81,2.64,2.64,0,0,0,1.1.23,4.06,4.06,0,0,0,.92-.11A3.86,3.86,0,0,0,113.76,16.21Z"/><path class="cls-1" d="M139.79,20.17a2.45,2.45,0,0,1,.12,1.17,4.72,4.72,0,0,1-.35,1.21,6.67,6.67,0,0,1-2.23,2.54,10.6,10.6,0,0,1-3.3,1.53,11.67,11.67,0,0,1-3.74.36,9.07,9.07,0,0,1-3.5-.87,6.63,6.63,0,0,1-2.58-2.17,6.11,6.11,0,0,1-1-3.61,9,9,0,0,1,.44-2.86,13.91,13.91,0,0,1,1.1-2.56l2.55.9a20.49,20.49,0,0,0-.77,1.91,5.8,5.8,0,0,0-.37,2,3.83,3.83,0,0,0,.5,2A3.28,3.28,0,0,0,128,23a5.18,5.18,0,0,0,1.89.52,9.48,9.48,0,0,0,2.13,0,12.35,12.35,0,0,0,2.09-.45,10.88,10.88,0,0,0,1.8-.72c.42-.23.64-.41.67-.56s-.07-.25-.27-.31l-3.65-1.24a4.81,4.81,0,0,1,.21-.66l.32-.8c.11-.28.23-.55.34-.8a3.16,3.16,0,0,1,.33-.62,2.51,2.51,0,0,1,.77-.81,2.56,2.56,0,0,1,1.14-.2H140v3.89Z"/><path class="cls-1" d="M161.23,20.17a4.65,4.65,0,0,1-2.16-.51,5.4,5.4,0,0,1-1.72-1.37,10,10,0,0,1-3.17,1.41,13.61,13.61,0,0,1-3.4.47h-4.22a3.91,3.91,0,0,1-1.71-.41,2.2,2.2,0,0,1-1.17-1.34,3.49,3.49,0,0,1-3.12,1.75H140a2.25,2.25,0,0,1-.52-.07c-.17,0-.25-.1-.25-.17V16.55c0-.09.08-.16.25-.2a1.81,1.81,0,0,1,.52-.07h.87c.94,0,1.41-.56,1.41-1.67V13.33l2.58-.73v.73a8.7,8.7,0,0,0,.1,1.49,2.31,2.31,0,0,0,.3.91,1,1,0,0,0,.52.43,2.23,2.23,0,0,0,.79.12h.2l2.16-2.43a29.84,29.84,0,0,1,2.38-2.39,13.68,13.68,0,0,1,2.49-1.83,5.09,5.09,0,0,1,2.51-.72,4.42,4.42,0,0,1,1.66.3,4,4,0,0,1,1.31.84,3.76,3.76,0,0,1,.85,1.24,3.88,3.88,0,0,1,.3,1.54,6.24,6.24,0,0,1-.23,1.78,5.6,5.6,0,0,1-.6,1.37c.11.2.74.3,1.91.3h.43v3.89Zm-5.86-7.61a4.31,4.31,0,0,0-2.66,1,35.35,35.35,0,0,0-3,2.68h.94l.95,0q.66,0,1.44-.12c.53-.06,1.06-.14,1.61-.25a10,10,0,0,0,1.51-.42,3.54,3.54,0,0,0,1.12-.64,1.17,1.17,0,0,0,.43-.92.87.87,0,0,0-.25-.65,1.7,1.7,0,0,0-.62-.4,3.25,3.25,0,0,0-.77-.22A3.84,3.84,0,0,0,155.37,12.56Z"/><path class="cls-1" d="M183.17,20.17a4.65,4.65,0,0,1-2.16-.51,5.4,5.4,0,0,1-1.72-1.37,10,10,0,0,1-3.17,1.41,13.55,13.55,0,0,1-3.4.47H168.5a3.91,3.91,0,0,1-1.71-.41,2.2,2.2,0,0,1-1.17-1.34,3.49,3.49,0,0,1-3.12,1.75h-.6a2.25,2.25,0,0,1-.52-.07c-.17,0-.25-.1-.25-.17V16.55c0-.09.08-.16.25-.2a1.81,1.81,0,0,1,.52-.07h.87c.94,0,1.41-.56,1.41-1.67V13.33l2.58-.73v.73a8.7,8.7,0,0,0,.1,1.49,2.68,2.68,0,0,0,.3.91,1,1,0,0,0,.52.43,2.23,2.23,0,0,0,.79.12h.2l2.16-2.43a29.84,29.84,0,0,1,2.38-2.39,13.68,13.68,0,0,1,2.49-1.83,5.1,5.1,0,0,1,2.52-.72,4.4,4.4,0,0,1,1.65.3,3.88,3.88,0,0,1,1.31.84,4,4,0,0,1,.86,1.24,3.88,3.88,0,0,1,.3,1.54,6.23,6.23,0,0,1-.24,1.78,5.24,5.24,0,0,1-.6,1.37c.11.2.75.3,1.91.3h.43v3.89Zm-5.86-7.61a4.31,4.31,0,0,0-2.66,1,38.73,38.73,0,0,0-3,2.68h.94l.95,0q.66,0,1.44-.12c.53-.06,1.06-.14,1.61-.25a10,10,0,0,0,1.51-.42,3.43,3.43,0,0,0,1.12-.64,1.18,1.18,0,0,0,.44-.92.91.91,0,0,0-.25-.65,1.89,1.89,0,0,0-.62-.4,3.55,3.55,0,0,0-.77-.22A3.94,3.94,0,0,0,177.31,12.56Z"/><path class="cls-1" d="M201.13,20.17c-2.55,0-3.85-1.6-3.92-4.79a16.67,16.67,0,0,0-2.13,1.45,26.07,26.07,0,0,1-2.14,1.56,13.45,13.45,0,0,1-2.45,1.26,8.36,8.36,0,0,1-3,.52h-3.62a2.32,2.32,0,0,1-.52-.07c-.16,0-.25-.1-.25-.17V16.55c0-.09.09-.16.25-.2a1.86,1.86,0,0,1,.52-.07H187a9.76,9.76,0,0,0,2.14-.22,12.88,12.88,0,0,0,2-.58,19.41,19.41,0,0,0,1.86-.87q.92-.51,1.89-1.11l-1.31-.23L192.14,13,191,12.85a4.83,4.83,0,0,0-.75-.09,1.16,1.16,0,0,0-.79.36,4.72,4.72,0,0,0-.79,1l-2.47-1.17c1-2.59,2.22-3.89,3.58-3.89a11,11,0,0,1,2.14.27l2.85.61c1,.22,2.1.42,3.2.6a20.11,20.11,0,0,0,3.23.27,13.65,13.65,0,0,0,1.51-.1l-.43,3.72a9,9,0,0,0-3,.43,1.51,1.51,0,0,0,.77,1.21,4.79,4.79,0,0,0,1.68.23h2.54v3.89ZM195.3,4.39l-2,2.68-2.78-1.88,2-2.71Z"/><path class="cls-1" d="M203.44,16.55c0-.09.08-.16.25-.2a1.81,1.81,0,0,1,.52-.07h2.21c1.14,0,1.71-.27,1.71-.8a.91.91,0,0,0-.07-.35,2.74,2.74,0,0,0-.26-.52c-.14-.23-.33-.5-.57-.82l-1-1.26,2.17-3.08a5.82,5.82,0,0,1,1.63,2.31,7.83,7.83,0,0,1,.58,3,5.94,5.94,0,0,1-.45,2.4A4.61,4.61,0,0,1,209,18.83a5.2,5.2,0,0,1-1.86,1,7.46,7.46,0,0,1-2.31.34h-.57a2.25,2.25,0,0,1-.52-.07c-.17,0-.25-.1-.25-.17Zm.24-10.29L205.35,4l2.18,1.44,1.24-1.71,2.58,1.71-1.71,2.28-2.21-1.45L206.29,8Z"/><path class="cls-1" d="M235.87,12.9a7.19,7.19,0,0,0-2.78-.4,4.33,4.33,0,0,0-1.28.21,5.94,5.94,0,0,0-1.22.57,4.47,4.47,0,0,0-.92.77,1.29,1.29,0,0,0-.37.86.59.59,0,0,0,.5.58,5.74,5.74,0,0,0,1.28.2l1.64.12a6.63,6.63,0,0,1,1.64.34,3,3,0,0,1,1.27.83,2.34,2.34,0,0,1,.51,1.61,6.16,6.16,0,0,1-1,3.49,8.93,8.93,0,0,1-2.54,2.51,12.15,12.15,0,0,1-3.4,1.52,13.29,13.29,0,0,1-3.61.52,11.85,11.85,0,0,1-3.7-.52,7.14,7.14,0,0,1-2.63-1.44,5.87,5.87,0,0,1-1.56-2.19,7.35,7.35,0,0,1-.51-2.75,10.21,10.21,0,0,1,.38-2.7,12.21,12.21,0,0,1,1.19-2.83l2.65.91a10.3,10.3,0,0,0-.79,1.84,5.91,5.91,0,0,0-.29,1.78,4,4,0,0,0,.32,1.6,3.24,3.24,0,0,0,1,1.29,5.4,5.4,0,0,0,1.8.88,9.38,9.38,0,0,0,2.59.31,12.26,12.26,0,0,0,2.31-.26,16.19,16.19,0,0,0,2.47-.71,9.18,9.18,0,0,0,2-1c.53-.36.8-.73.8-1.09,0-.2-.13-.34-.38-.41a6.15,6.15,0,0,0-1.08-.19L230.56,19q-.88,0-1.89-.18A2.58,2.58,0,0,1,227,18a2.67,2.67,0,0,1-.55-1.74,6.58,6.58,0,0,1,.65-2.86A8.35,8.35,0,0,1,228.78,11a8.56,8.56,0,0,1,2.4-1.63,6.58,6.58,0,0,1,2.71-.6,5.8,5.8,0,0,1,1.44.18,5.52,5.52,0,0,1,1.38.59Z"/><path class="cls-1" d="M243,19.73l-3.41.91V1.34L243,0Z"/><path class="cls-1" d="M254.23,20.17A9,9,0,0,1,253,22.65a15.59,15.59,0,0,1-2,2.22,21.65,21.65,0,0,1-2.48,2c-.91.62-1.83,1.2-2.77,1.74l-2.84-2.21c.62-.32,1.35-.71,2.17-1.17s1.66-1,2.48-1.53A20.6,20.6,0,0,0,249.85,22a6.4,6.4,0,0,0,1.49-1.81,14.46,14.46,0,0,1-2.16-.15,4.51,4.51,0,0,1-1.69-.59,2.91,2.91,0,0,1-1.09-1.21,4.59,4.59,0,0,1-.38-2,7.33,7.33,0,0,1,.23-1.7,6.56,6.56,0,0,1,.71-1.75,4.85,4.85,0,0,1,1.15-1.35,2.47,2.47,0,0,1,1.59-.56,3.42,3.42,0,0,1,1.86.52,4.93,4.93,0,0,1,1.38,1.31,7.26,7.26,0,0,1,.87,1.74,9.5,9.5,0,0,1,.42,1.86h1.2v3.89Zm-2.58-3.89a5.3,5.3,0,0,0-.24-.75,3.39,3.39,0,0,0-.43-.77,3,3,0,0,0-.59-.59,1.1,1.1,0,0,0-.69-.23,1.21,1.21,0,0,0-1,.43,1.51,1.51,0,0,0-.37,1,1,1,0,0,0,.14.56.79.79,0,0,0,.48.26,4.86,4.86,0,0,0,1,.1C250.42,16.28,251,16.28,251.65,16.28Z"/><path class="cls-1" d="M262.73,20.17a3,3,0,0,1-3.08-1.75,4.41,4.41,0,0,1-3.92,1.75h-.3a2.25,2.25,0,0,1-.52-.07c-.17,0-.25-.1-.25-.17V16.55c0-.09.08-.16.25-.2a1.81,1.81,0,0,1,.52-.07h.17c1.67,0,2.51-.57,2.51-1.71V13.23l2.75-.87v.84c0,2.05.67,3.08,2,3.08h.2v3.89ZM255.4,8.71l1.67-2.28,2.18,1.44,1.24-1.71,2.58,1.71-1.71,2.28-2.21-1.44L258,10.42Z"/><path class="cls-1" d="M280.36,20.17q-3.83,0-3.92-4.79a16.67,16.67,0,0,0-2.13,1.45,26.24,26.24,0,0,1-2.15,1.56,13.36,13.36,0,0,1-2.44,1.26,8.36,8.36,0,0,1-3,.52h-3.62a2.25,2.25,0,0,1-.52-.07c-.17,0-.25-.1-.25-.17V16.55c0-.09.08-.16.25-.2a1.81,1.81,0,0,1,.52-.07h3.11a9.85,9.85,0,0,0,2.15-.22,12.43,12.43,0,0,0,1.94-.58,17.38,17.38,0,0,0,1.86-.87q.93-.51,1.89-1.11l-1.3-.23L271.36,13l-1.17-.18a5.06,5.06,0,0,0-.76-.09,1.14,1.14,0,0,0-.78.36,4.72,4.72,0,0,0-.79,1l-2.48-1.17C266.41,10.34,267.6,9,269,9a11.07,11.07,0,0,1,2.14.27l2.85.61c1,.22,2.09.42,3.2.6a20,20,0,0,0,3.23.27,13.81,13.81,0,0,0,1.51-.1l-.44,3.72a8.92,8.92,0,0,0-3,.43,1.51,1.51,0,0,0,.77,1.21,4.72,4.72,0,0,0,1.67.23h2.55v3.89Z"/><path class="cls-1" d="M282.67,16.55c0-.09.08-.16.25-.2a1.81,1.81,0,0,1,.52-.07,6,6,0,0,0,2.29-.38,2.93,2.93,0,0,0,1.36-1.16c.27-.45.54-.93.82-1.44a11.18,11.18,0,0,1,.92-1.42A4.78,4.78,0,0,1,290,10.79a2.72,2.72,0,0,1,1.55-.44,2.61,2.61,0,0,1,1.66.55,4.21,4.21,0,0,1,1.11,1.36,7.12,7.12,0,0,1,.62,1.73,8,8,0,0,1,.2,1.65A7.39,7.39,0,0,1,295,17a4.4,4.4,0,0,1-.46,1.32,3.25,3.25,0,0,1-.86,1,2,2,0,0,1-1.26.4,4.83,4.83,0,0,1-2.22-.55A11.6,11.6,0,0,1,288.26,18a6.14,6.14,0,0,1-2,1.64,6.25,6.25,0,0,1-2.81.57,2.25,2.25,0,0,1-.52-.07c-.17,0-.25-.1-.25-.17Zm8.74-3.15c-.72-.11-1.31.45-1.78,1.68a5,5,0,0,0,1.14.78,4.73,4.73,0,0,0,1.21.42.53.53,0,0,0,.7-.47,2.87,2.87,0,0,0,0-.7,2.81,2.81,0,0,0-.24-.76,2.41,2.41,0,0,0-.41-.61A1.15,1.15,0,0,0,291.41,13.4Z"/><path class="cls-1" d="M312,24.09l-7.57,2-.24-1.2,7.51-2.11Z"/><path class="cls-1" d="M316.13,20.17a5.41,5.41,0,0,1-2.73-.72,5.2,5.2,0,0,1-2-2q-1.31,3.11-5.39,3.11-3.26,0-4.72-1.77l1.2-3.08a4.72,4.72,0,0,0,1.71.77,9.16,9.16,0,0,0,2.34.3,10.42,10.42,0,0,0,1.38-.1,5.57,5.57,0,0,0,1.19-.32,2.72,2.72,0,0,0,.84-.55,1.16,1.16,0,0,0,.31-.81.87.87,0,0,0-.05-.28c0-.13-.12-.41-.26-.86l-.71-2L308,8l2.68-2.41q1,3.35,1.66,5.42a25.93,25.93,0,0,0,1.14,3.24,3.79,3.79,0,0,0,1.1,1.57,2.62,2.62,0,0,0,1.56.42h.7v3.89Z"/><path class="cls-1" d="M324.11,20.17A3,3,0,0,1,321,18.42a4.41,4.41,0,0,1-3.92,1.75h-.3a2.25,2.25,0,0,1-.52-.07c-.16,0-.25-.1-.25-.17V16.55c0-.09.09-.16.25-.2a1.81,1.81,0,0,1,.52-.07H317c1.67,0,2.51-.57,2.51-1.71V13.23l2.75-.87v.84c0,2.05.67,3.08,2,3.08h.2v3.89Zm.33,4.22-1.67,2.28-2.18-1.44-1.24,1.67-2.61-1.67,1.77-2.32,2.18,1.48,1.2-1.71Z"/><path class="cls-1" d="M323.67,16.55c0-.09.08-.16.25-.2a1.81,1.81,0,0,1,.52-.07h.5a4.13,4.13,0,0,0,1.39-.18,1.4,1.4,0,0,0,.72-.57,2,2,0,0,0,.27-.94q0-.55,0-1.32V1.34L330.7,0c0,1.3-.08,2.62-.11,4s-.07,2.63-.1,3.84-.06,2.28-.09,3.23,0,1.68,0,2.19c0,1.16,0,2.18-.08,3.05a4.7,4.7,0,0,1-.61,2.16A3.15,3.15,0,0,1,328,19.73a9,9,0,0,1-3.16.44h-.44a2.25,2.25,0,0,1-.52-.07c-.17,0-.25-.1-.25-.17Z"/><path class="cls-1" d="M341.66,20.17a8.74,8.74,0,0,1-1.24,2.48,15,15,0,0,1-2,2.22,21.65,21.65,0,0,1-2.48,2c-.9.62-1.83,1.2-2.76,1.74l-2.85-2.21c.62-.32,1.35-.71,2.18-1.17s1.65-1,2.48-1.53A21.6,21.6,0,0,0,337.29,22a6.76,6.76,0,0,0,1.49-1.81,14.46,14.46,0,0,1-2.16-.15,4.39,4.39,0,0,1-1.69-.59,2.84,2.84,0,0,1-1.09-1.21,4.44,4.44,0,0,1-.39-2,6.87,6.87,0,0,1,.24-1.7,6.54,6.54,0,0,1,.7-1.75,4.88,4.88,0,0,1,1.16-1.35,2.43,2.43,0,0,1,1.59-.56,3.47,3.47,0,0,1,1.86.52,5,5,0,0,1,1.37,1.31,6.6,6.6,0,0,1,.87,1.74,9.5,9.5,0,0,1,.42,1.86h1.2v3.89Zm-2.58-3.89a4.26,4.26,0,0,0-.24-.75,3,3,0,0,0-.43-.77,3,3,0,0,0-.59-.59,1.1,1.1,0,0,0-.68-.23,1.22,1.22,0,0,0-1,.43,1.5,1.5,0,0,0-.36,1,1,1,0,0,0,.13.56.79.79,0,0,0,.49.26,4.75,4.75,0,0,0,1,.1C337.86,16.28,338.41,16.28,339.08,16.28Z"/><path class="cls-1" d="M342.09,16.55c0-.09.09-.16.26-.2a1.75,1.75,0,0,1,.51-.07h2.22c1.13,0,1.7-.27,1.7-.8a1.12,1.12,0,0,0-.06-.35,3.79,3.79,0,0,0-.27-.52,8.45,8.45,0,0,0-.57-.82l-1-1.26,2.18-3.08a5.8,5.8,0,0,1,1.62,2.31,7.84,7.84,0,0,1,.59,3,5.77,5.77,0,0,1-.46,2.4,4.61,4.61,0,0,1-1.24,1.69,5.24,5.24,0,0,1-1.85,1,7.57,7.57,0,0,1-2.32.34h-.57a2.16,2.16,0,0,1-.51-.07c-.17,0-.26-.1-.26-.17Zm.24-10.29L344,4l2.18,1.44,1.24-1.71L350,5.43l-1.71,2.28-2.21-1.45L344.94,8Z"/><path class="cls-1" d="M75.61,46.4a7.19,7.19,0,0,0-2.78-.4,4.22,4.22,0,0,0-1.27.21,5.78,5.78,0,0,0-1.23.57,4.75,4.75,0,0,0-.92.77,1.34,1.34,0,0,0-.37.86c0,.29.17.48.51.58a5.64,5.64,0,0,0,1.27.2l1.64.12a6.63,6.63,0,0,1,1.64.34,3.06,3.06,0,0,1,1.28.83,2.39,2.39,0,0,1,.5,1.61,6.16,6.16,0,0,1-1,3.49,8.93,8.93,0,0,1-2.54,2.51,12,12,0,0,1-3.4,1.52,13.22,13.22,0,0,1-3.6.52,11.87,11.87,0,0,1-3.71-.52A7.23,7.23,0,0,1,59,58.17,5.73,5.73,0,0,1,57.44,56a7.16,7.16,0,0,1-.52-2.75,10.64,10.64,0,0,1,.38-2.7,12.66,12.66,0,0,1,1.19-2.83l2.65.91a10.3,10.3,0,0,0-.79,1.84,5.9,5.9,0,0,0-.28,1.78,4,4,0,0,0,.31,1.6,3.26,3.26,0,0,0,1,1.29A5.25,5.25,0,0,0,63.2,56a9.38,9.38,0,0,0,2.59.31,12.44,12.44,0,0,0,2.32-.26,16.4,16.4,0,0,0,2.46-.71,9.18,9.18,0,0,0,2-1c.53-.36.8-.73.8-1.09,0-.2-.13-.34-.38-.41a6.15,6.15,0,0,0-1.08-.19l-1.57-.12q-.89,0-1.89-.18a2.54,2.54,0,0,1-1.69-.84,2.62,2.62,0,0,1-.56-1.74,6.45,6.45,0,0,1,.66-2.86,8.13,8.13,0,0,1,1.7-2.38,8.71,8.71,0,0,1,2.4-1.63,6.58,6.58,0,0,1,2.71-.6,5.8,5.8,0,0,1,1.44.18,5.52,5.52,0,0,1,1.38.59Z"/><path class="cls-1" d="M82.24,46.57A12.61,12.61,0,0,1,83.63,49a7,7,0,0,1,.52,2.83,8.12,8.12,0,0,1-.5,2.71,12.71,12.71,0,0,1-1.41,2.77,16.31,16.31,0,0,1-2.19,2.61,17.76,17.76,0,0,1-2.87,2.26L74.37,59.9c.74-.43,1.51-.92,2.31-1.49a19.25,19.25,0,0,0,2.23-1.83,10,10,0,0,0,1.67-2,4,4,0,0,0,.66-2.16,3,3,0,0,0-.52-1.5,17.94,17.94,0,0,0-1.06-1.54Z"/><path class="cls-1" d="M90,53.11a4,4,0,0,1-1.64-1.52,6.38,6.38,0,0,1-.8-2.31,20,20,0,0,1-.25-2.92c0-.49,0-1.19-.07-2.11s0-1.91-.07-3,0-2.17-.08-3.3S87,35.8,87,34.84l3.28-1.34V46.77a3.61,3.61,0,0,0,.6,2.26,2.34,2.34,0,0,0,1.94.75v3.89A6.13,6.13,0,0,1,90,53.11Z"/><path class="cls-1" d="M106.6,53.67a5.1,5.1,0,0,1-1.75-.32,3.68,3.68,0,0,1-1.44-.92c-.09.31-.17.6-.25.85a1.89,1.89,0,0,1-.33.65,1.48,1.48,0,0,1-.56.42,2.31,2.31,0,0,1-.93.15,5.15,5.15,0,0,1-1.24-.16,8.54,8.54,0,0,1-1.34-.47,10,10,0,0,1-1.29-.69,6.79,6.79,0,0,1-1.06-.79,4.76,4.76,0,0,1-1.54.94,5.63,5.63,0,0,1-2.08.34,2.32,2.32,0,0,1-.52-.07c-.16,0-.25-.1-.25-.17V50.05c0-.09.09-.16.25-.2a1.86,1.86,0,0,1,.52-.07c.45,0,.85,0,1.19,0a2.93,2.93,0,0,0,1-.22,2.71,2.71,0,0,0,.79-.52,3.94,3.94,0,0,0,.68-.94c.22-.38.46-.75.71-1.1a5.82,5.82,0,0,1,.8-1,3.82,3.82,0,0,1,1-.67,2.7,2.7,0,0,1,1.19-.25,2.1,2.1,0,0,1,1.63.8A15.37,15.37,0,0,1,103,47.7c.29.52.53.91.72,1.19a2,2,0,0,0,.62.62,1.68,1.68,0,0,0,.81.24c.31,0,.74,0,1.3,0h.3v3.89Zm-8.14-4.49a3.18,3.18,0,0,1-.16.32l-.15.31a5.67,5.67,0,0,0,1.49.86,4,4,0,0,0,1.29.32c.27,0,.42-.1.46-.29a1.66,1.66,0,0,0,0-.65,4.22,4.22,0,0,0-.61-1.27,1.25,1.25,0,0,0-1.07-.64C99.17,48.14,98.77,48.49,98.46,49.18Z"/><path class="cls-1" d="M117.52,53.67a5.27,5.27,0,0,1-2.45-.56,4.23,4.23,0,0,1-1.74-1.72,7.7,7.7,0,0,1-2.71,1.71,9.62,9.62,0,0,1-3.35.57h-.51a2.25,2.25,0,0,1-.52-.07c-.16,0-.25-.1-.25-.17V50.05c0-.09.09-.16.25-.2a1.81,1.81,0,0,1,.52-.07h.54c2.39,0,3.86-.42,4.42-1.27a2.65,2.65,0,0,0-1-.82A4,4,0,0,0,109,47.4a4.39,4.39,0,0,1,.44-2A4.08,4.08,0,0,1,110.63,44a4.69,4.69,0,0,1,1.68-.81,8.1,8.1,0,0,1,2-.25,5.81,5.81,0,0,1,1.32.15,3.77,3.77,0,0,1,1.16.47,2.61,2.61,0,0,1,.8.82,2.4,2.4,0,0,1,.31,1.24,2.43,2.43,0,0,1-.21.94,4.58,4.58,0,0,1-.55,1,7.07,7.07,0,0,1-.8,1,7.43,7.43,0,0,1-1,.82c.23.31,1.06.47,2.52.47h1.54v3.89Z"/><path class="cls-1" d="M118.66,50.05c0-.09.08-.16.25-.2a1.77,1.77,0,0,1,.52-.07,6,6,0,0,0,2.29-.38,3,3,0,0,0,1.36-1.16c.27-.45.54-.93.82-1.44a10.18,10.18,0,0,1,.92-1.42A4.61,4.61,0,0,1,126,44.29a2.72,2.72,0,0,1,1.55-.44,2.61,2.61,0,0,1,1.66.55,4.21,4.21,0,0,1,1.11,1.36,7.12,7.12,0,0,1,.62,1.73,8,8,0,0,1,.2,1.65A7.39,7.39,0,0,1,131,50.5a4.15,4.15,0,0,1-.47,1.32,3.1,3.1,0,0,1-.85,1,2,2,0,0,1-1.26.4,4.8,4.8,0,0,1-2.22-.55,11.6,11.6,0,0,1-1.93-1.22,6.14,6.14,0,0,1-2,1.64,6.25,6.25,0,0,1-2.81.57,2.18,2.18,0,0,1-.52-.07c-.17,0-.25-.1-.25-.17Zm8.74-3.15c-.72-.11-1.31.45-1.78,1.67A4.92,4.92,0,0,0,128,49.78a.53.53,0,0,0,.7-.47,2.87,2.87,0,0,0,0-.7,2.81,2.81,0,0,0-.24-.76,2.41,2.41,0,0,0-.41-.61A1.15,1.15,0,0,0,127.4,46.9Z"/><path class="cls-1" d="M135.84,59.9c.71-.36,1.56-.82,2.53-1.38a32.71,32.71,0,0,0,2.81-1.8,15.28,15.28,0,0,0,2.33-2,3.45,3.45,0,0,0,1-2,3.65,3.65,0,0,1-1,.39,5.38,5.38,0,0,1-1.24.15,3.1,3.1,0,0,1-3.62-3.35,7.4,7.4,0,0,1,.26-1.88,5.83,5.83,0,0,1,.75-1.77,4.55,4.55,0,0,1,1.24-1.34,2.86,2.86,0,0,1,1.74-.54,3.23,3.23,0,0,1,2.21.77A5.73,5.73,0,0,1,146.24,47a8.79,8.79,0,0,1,.72,2.37,13,13,0,0,1,.2,2.17,8.24,8.24,0,0,1-.68,3.39,10.47,10.47,0,0,1-1.86,2.76,18.29,18.29,0,0,1-2.7,2.35c-1,.72-2.09,1.42-3.23,2.09Zm8.41-10.19a4.24,4.24,0,0,0-.67-1.54,1.42,1.42,0,0,0-1.17-.63,1.35,1.35,0,0,0-1,.43A1.46,1.46,0,0,0,141,49a.84.84,0,0,0,.5.81,2.69,2.69,0,0,0,1.11.23,4.06,4.06,0,0,0,.92-.11A3.86,3.86,0,0,0,144.25,49.71Z"/><path class="cls-1" d="M161.57,60.13a9,9,0,0,1-3.37-.57A6.23,6.23,0,0,1,155.86,58a6.38,6.38,0,0,1-1.38-2.35A8.85,8.85,0,0,1,154,52.8a10.63,10.63,0,0,1,.33-2.62,9.6,9.6,0,0,1,1-2.48l2.48.87a11.31,11.31,0,0,0-.67,1.75A6.4,6.4,0,0,0,157,52a4.86,4.86,0,0,0,.28,1.68,3.61,3.61,0,0,0,.87,1.34,4,4,0,0,0,1.49.88,6.42,6.42,0,0,0,2.18.32,7.22,7.22,0,0,0,2.43-.37,5.23,5.23,0,0,0,1.76-1,3.94,3.94,0,0,0,1-1.48,4.74,4.74,0,0,0,.36-1.86A7.57,7.57,0,0,0,166,47.3L168.77,45a12.84,12.84,0,0,1,1.49,3.15,10.77,10.77,0,0,1,.49,3.15,9.36,9.36,0,0,1-.64,3.42,8.13,8.13,0,0,1-1.83,2.81,8.68,8.68,0,0,1-2.88,1.91A9.87,9.87,0,0,1,161.57,60.13Zm2.17-16.75-2,2.68L159,44.19,161,41.47Z"/><path class="cls-1" d="M176.56,53.11a4,4,0,0,1-1.64-1.52,6.57,6.57,0,0,1-.81-2.31,21.49,21.49,0,0,1-.25-2.92c0-.49,0-1.19-.07-2.11s0-1.91-.06-3,0-2.17-.09-3.3-.06-2.17-.08-3.13l3.28-1.34V46.77a3.54,3.54,0,0,0,.61,2.26,2.34,2.34,0,0,0,1.94.75v3.89A6.1,6.1,0,0,1,176.56,53.11Z"/><path class="cls-1" d="M193.19,53.67a5.09,5.09,0,0,1-1.74-.32,3.68,3.68,0,0,1-1.44-.92c-.09.31-.18.6-.25.85a1.74,1.74,0,0,1-.34.65,1.44,1.44,0,0,1-.55.42,2.36,2.36,0,0,1-.94.15,5.21,5.21,0,0,1-1.24-.16,8.92,8.92,0,0,1-1.34-.47,10,10,0,0,1-1.29-.69,7.18,7.18,0,0,1-1.05-.79,4.76,4.76,0,0,1-1.54.94,5.7,5.7,0,0,1-2.08.34,2.25,2.25,0,0,1-.52-.07c-.17,0-.25-.1-.25-.17V50.05c0-.09.08-.16.25-.2a1.81,1.81,0,0,1,.52-.07c.45,0,.84,0,1.19,0a2.94,2.94,0,0,0,.95-.22,2.58,2.58,0,0,0,.79-.52,4.24,4.24,0,0,0,.69-.94c.22-.38.45-.75.7-1.1a6.36,6.36,0,0,1,.8-1,3.69,3.69,0,0,1,1-.67,2.64,2.64,0,0,1,1.19-.25,2.09,2.09,0,0,1,1.62.8,16.63,16.63,0,0,1,1.33,1.81c.29.52.53.91.72,1.19a1.92,1.92,0,0,0,.62.62,1.67,1.67,0,0,0,.8.24c.31,0,.75,0,1.31,0h.3v3.89Zm-8.14-4.49a3.13,3.13,0,0,1-.15.32,1.77,1.77,0,0,0-.15.31,5.52,5.52,0,0,0,1.49.86,4,4,0,0,0,1.29.32c.27,0,.42-.1.45-.29a1.49,1.49,0,0,0,0-.65,4,4,0,0,0-.6-1.27,1.27,1.27,0,0,0-1.07-.64C185.76,48.14,185.36,48.49,185.05,49.18Z"/><path class="cls-1" d="M200.66,53.67a3,3,0,0,1-3.08-1.75,4.42,4.42,0,0,1-3.92,1.75h-.3a2.25,2.25,0,0,1-.52-.07c-.17,0-.25-.1-.25-.17V50.05c0-.09.08-.16.25-.2a1.81,1.81,0,0,1,.52-.07h.17c1.67,0,2.51-.57,2.51-1.71V46.73l2.74-.87v.84c0,2,.67,3.08,2,3.08H201v3.89Zm-7.34-11.46L195,39.93l2.18,1.44,1.24-1.71L201,41.37l-1.71,2.28-2.21-1.44-1.14,1.71Z"/><path class="cls-1" d="M200.23,50.05c0-.09.08-.16.25-.2a1.77,1.77,0,0,1,.52-.07h2.94c.72,0,1.3,0,1.75,0a8.25,8.25,0,0,0,1.45-.22,16.69,16.69,0,0,0,2-.6l3.16-1.19c-1.27-.36-2.25-.63-2.95-.81s-1.2-.32-1.54-.43a1.67,1.67,0,0,0-1.22.12,3.47,3.47,0,0,0-.95.78l-2.32-1.57a9.63,9.63,0,0,1,2-2.63,2.79,2.79,0,0,1,2.34-.59,20.51,20.51,0,0,1,2.28.47l2.35.64c.8.22,1.63.44,2.47.65s1.77.4,2.75.55c.45,0,.89.08,1.32.1l1.29.07-1,3.82c-.54,0-1-.07-1.41-.07a6.91,6.91,0,0,0-1.14.1,6.69,6.69,0,0,0-1.09.32,10.3,10.3,0,0,0-1.26.62c-1.13.65-2.08,1.21-2.83,1.68a16.19,16.19,0,0,1-2.19,1.17,10.48,10.48,0,0,1-2.36.7,18.86,18.86,0,0,1-3.34.24H201a2.18,2.18,0,0,1-.52-.07c-.17,0-.25-.1-.25-.17Zm10-12.36-2,2.68-2.78-1.88,2-2.71Z"/><path class="cls-1" d="M225.94,53.11a4,4,0,0,1-1.65-1.52,6.57,6.57,0,0,1-.8-2.31,21.49,21.49,0,0,1-.25-2.92c0-.49-.05-1.19-.07-2.11s0-1.91-.06-3-.05-2.17-.09-3.3-.06-2.17-.08-3.13l3.28-1.34V46.77a3.61,3.61,0,0,0,.6,2.26,2.36,2.36,0,0,0,2,.75v3.89A6.08,6.08,0,0,1,225.94,53.11Z"/><path class="cls-1" d="M228,50.05c0-.09.08-.16.25-.2a1.77,1.77,0,0,1,.52-.07h.33a2.31,2.31,0,0,0,1.51-.5,1.79,1.79,0,0,0,.6-1.44v-1l2.35-.81v1a3.77,3.77,0,0,0,.43,2,1.43,1.43,0,0,0,1.31.72c1.56,0,2.34-.7,2.34-2.11V46.4l2.38-.71v1.68a2.63,2.63,0,0,0,.67,1.81,2.22,2.22,0,0,0,1.71.73,1.2,1.2,0,0,0,1.41-1.3,2.76,2.76,0,0,0-.34-1.32,3.26,3.26,0,0,0-.77-1L245,43.65a6.5,6.5,0,0,1,1.16,2.11,7.83,7.83,0,0,1,.12,4.41,5.94,5.94,0,0,1-.79,1.77,4.07,4.07,0,0,1-1.31,1.27,3.27,3.27,0,0,1-1.79.49,5,5,0,0,1-2.26-.49,3.05,3.05,0,0,1-1.46-1.42,3.21,3.21,0,0,1-1.27,1.36,3.81,3.81,0,0,1-1.71.52,4.22,4.22,0,0,1-1.93-.44,3.21,3.21,0,0,1-1.35-1.31,3.12,3.12,0,0,1-1.61,1.34,5.58,5.58,0,0,1-2,.41,2.18,2.18,0,0,1-.52-.07c-.17,0-.25-.1-.25-.17Z"/><path class="cls-1" d="M268.66,57.65l-7.57,2-.23-1.21,7.5-2.11Z"/><path class="cls-1" d="M278.48,53.67a3.42,3.42,0,0,1-3.42-2c-.71,1-2.09,1.68-4.12,2.16a35.55,35.55,0,0,1-7.94.73q-4.81,0-7.2-1.46a4.54,4.54,0,0,1-2.38-4.07,6.77,6.77,0,0,1,.34-2.06,16.11,16.11,0,0,1,.93-2.33l2.48.74c-.18.4-.33.81-.47,1.22a4.15,4.15,0,0,0-.2,1.26,1.94,1.94,0,0,0,.71,1.6,4.7,4.7,0,0,0,1.84.86,12.28,12.28,0,0,0,2.6.33c1,0,1.94,0,2.93,0,.8,0,1.74,0,2.81,0a19.53,19.53,0,0,0,3.05-.32,8,8,0,0,0,2.43-.8,1.66,1.66,0,0,0,1-1.51V47.2l2.74-.87a14,14,0,0,0,.09,1.78,2.12,2.12,0,0,0,.35,1,1.34,1.34,0,0,0,.75.51,5.07,5.07,0,0,0,1.29.13h0v3.89ZM261,42.38l1.67-2.28,2.18,1.44,1.24-1.71,2.58,1.71L267,43.82l-2.21-1.44-1.14,1.71Z"/><path class="cls-1" d="M289.87,53.67a5.27,5.27,0,0,1-2.45-.56,4.23,4.23,0,0,1-1.74-1.72A7.61,7.61,0,0,1,283,53.1a9.62,9.62,0,0,1-3.35.57h-.5a2.18,2.18,0,0,1-.52-.07c-.17,0-.25-.1-.25-.17V50.05c0-.09.08-.16.25-.2a1.77,1.77,0,0,1,.52-.07h.53c2.39,0,3.87-.42,4.42-1.27a2.57,2.57,0,0,0-1-.82,4,4,0,0,0-1.68-.29,4.39,4.39,0,0,1,.44-2A4,4,0,0,1,283,44a4.64,4.64,0,0,1,1.67-.81,8.16,8.16,0,0,1,2-.25,6,6,0,0,1,1.33.15,3.71,3.71,0,0,1,1.15.47,2.54,2.54,0,0,1,.81.82,2.4,2.4,0,0,1,.3,1.24,2.61,2.61,0,0,1-.2.94,5.09,5.09,0,0,1-.56,1,7.07,7.07,0,0,1-.8,1,8.09,8.09,0,0,1-.95.82c.22.31,1.06.47,2.51.47h1.54v3.89Z"/><path class="cls-1" d="M299.08,53.67A3,3,0,0,1,296,51.92a4.41,4.41,0,0,1-3.92,1.75h-.3a2.25,2.25,0,0,1-.52-.07c-.17,0-.25-.1-.25-.17V50.05c0-.09.08-.16.25-.2a1.81,1.81,0,0,1,.52-.07H292c1.67,0,2.51-.57,2.51-1.71V46.73l2.75-.87v.84c0,2,.67,3.08,2,3.08h.2v3.89Zm-1.47-12.43-2,2.68L292.82,42l2-2.71Z"/><path class="cls-1" d="M298.65,50.05c0-.09.08-.16.25-.2a1.77,1.77,0,0,1,.52-.07h.87c.94,0,1.4-.56,1.4-1.67V46.83l2.58-.73v.73a9.86,9.86,0,0,0,.1,1.49,2.47,2.47,0,0,0,.31.91,1,1,0,0,0,.52.43,2.21,2.21,0,0,0,.78.12h.2l2.16-2.43A31.6,31.6,0,0,1,310.72,45a14.09,14.09,0,0,1,2.5-1.83,5.06,5.06,0,0,1,2.51-.72,4.46,4.46,0,0,1,1.66.3,4,4,0,0,1,1.31.84,3.79,3.79,0,0,1,1.15,2.78,5.78,5.78,0,0,1-1,3.4A8.06,8.06,0,0,1,316.47,52a10.15,10.15,0,0,1-3.12,1.27,13.7,13.7,0,0,1-3.11.39H306a3.87,3.87,0,0,1-1.71-.41,2.25,2.25,0,0,1-1.18-1.34A3.47,3.47,0,0,1,300,53.67h-.6a2.18,2.18,0,0,1-.52-.07c-.17,0-.25-.1-.25-.17Zm16.18-4a4.34,4.34,0,0,0-2.67,1,38.73,38.73,0,0,0-3,2.68h.94l1,0q.65,0,1.44-.12c.52-.06,1.06-.14,1.61-.25a9.86,9.86,0,0,0,1.5-.42,3.49,3.49,0,0,0,1.13-.64,1.17,1.17,0,0,0,.43-.92.87.87,0,0,0-.25-.65,1.79,1.79,0,0,0-.62-.4,3.39,3.39,0,0,0-.77-.22A3.84,3.84,0,0,0,314.83,46.06Z"/><path class="cls-1" d="M333,46.57A12.61,12.61,0,0,1,334.37,49a7,7,0,0,1,.52,2.83,6.5,6.5,0,0,1-.79,3.1,12.21,12.21,0,0,1-2,2.8,20.8,20.8,0,0,1-2.81,2.43c-1,.74-2.09,1.42-3.14,2l-2.84-2.24c.73-.36,1.6-.83,2.59-1.41a26.71,26.71,0,0,0,2.85-1.91A15,15,0,0,0,331,54.45a3.2,3.2,0,0,0,1-2.06,3,3,0,0,0-.52-1.5,17.94,17.94,0,0,0-1.06-1.54Z"/><path class="cls-1" d="M349.3,48.37a6.09,6.09,0,0,1-.51,2.6,4.82,4.82,0,0,1-1.37,1.79,5.67,5.67,0,0,1-2,1,8.79,8.79,0,0,1-2.42.34,8.17,8.17,0,0,1-3.22-.57A5.58,5.58,0,0,1,337.57,52L339.18,49a4.82,4.82,0,0,0,3.25,1.18c.4,0,.85,0,1.36,0a7.15,7.15,0,0,0,1.42-.2,3,3,0,0,0,1.14-.53,1.27,1.27,0,0,0,.47-1,2.34,2.34,0,0,0-.61-1.38,9.94,9.94,0,0,0-1.44-1.47,19.91,19.91,0,0,0-1.69-1.29,14.23,14.23,0,0,0-1.35-.85l1.5-3.69Q349.3,43.45,349.3,48.37Z"/></svg>