<svg id="Layer_1" data-name="Layer 1" xmlns="http://www.w3.org/2000/svg" viewBox="0 0 523.2 679.2"><defs><style>.cls-1{fill:#cccbcb;}.cls-2{fill:#0b0c0c;}</style></defs><path class="cls-1" d="M194.28,43.36c-13.2-2.67-22.6-10.23-27.95-22.46a55.12,55.12,0,0,1-4.24-17.58c0-.26,0-.53-.06-.8h-1.52c0,.31,0,.63.07.94a56.46,56.46,0,0,0,4.36,18.05c5.56,12.71,15.33,20.56,29,23.34a87,87,0,0,0,10.29,1.39V44.72A85.4,85.4,0,0,1,194.28,43.36Z"/><path class="cls-1" d="M261.48,21A115.63,115.63,0,0,1,285.06,3.08V1.83h-.87a117.08,117.08,0,0,0-23.77,18.1,181.3,181.3,0,0,0-22.72,27h1.85A180.22,180.22,0,0,1,261.48,21Z"/><path class="cls-1" d="M127.67,29V27.4c-1.61-.39-3.22-.77-4.84-1.13A270.76,270.76,0,0,0,79.09,19.8v1.52a270.06,270.06,0,0,1,43.41,6.43C124.23,28.14,126,28.55,127.67,29Z"/><path class="cls-1" d="M23.69,20.79A125.59,125.59,0,0,1,48.77,1.63V0H48.3A126.82,126.82,0,0,0,22.54,19.62q-4.89,4.77-9.39,9.83h0a46.08,46.08,0,0,1-5-8.77A59.91,59.91,0,0,1,3.54,1.62c0-.29,0-.58-.07-.87H1.82c0,.34.05.68.08,1A61.43,61.43,0,0,0,6.63,21.34,47.28,47.28,0,0,0,12,30.72Q5.63,38,0,45.91v2.86A192.42,192.42,0,0,1,13.07,32l.21-.24-.21.24c6.14,7.57,14.51,12.46,25,14.6a93.15,93.15,0,0,0,10.66,1.47V46.45A87.38,87.38,0,0,1,38.43,45C28.21,43,20.09,38.18,14.17,30.78h0l-.05-.06.05.06Q18.73,25.65,23.69,20.79Z"/><path class="cls-1" d="M21.84,87a49.15,49.15,0,0,1,7.41,19.5,34.27,34.27,0,0,1-2.37,18h1.63a35.82,35.82,0,0,0,2.25-18.23,50.86,50.86,0,0,0-7.63-20.09c-1.1-1.78-2.29-3.53-3.56-5.27h-1.9Q19.93,83.92,21.84,87Z"/><path class="cls-1" d="M103.49,99.35a115.14,115.14,0,0,1,23.58-17.94V80.17h-.88a116.34,116.34,0,0,0-23.76,18.09,180.84,180.84,0,0,0-22.73,27h1.85A179.11,179.11,0,0,1,103.49,99.35Z"/><path class="cls-1" d="M201.52,104.76c-4.89-1.11-9.69-2.09-14.43-3a58.09,58.09,0,0,0-7.36-17c-1.2-1.93-2.48-3.83-3.86-5.71h-2.06c1.64,2.17,3.14,4.35,4.52,6.57a57.18,57.18,0,0,1,7,15.84C176,99.86,166.94,98.71,158,98v1.66a277,277,0,0,1,27.73,3.56c.26,1.18.48,2.37.64,3.56a37.28,37.28,0,0,1-2.58,19.54h1.77A38.78,38.78,0,0,0,188,106.58c-.14-1-.31-2-.52-3,4.49.83,9,1.76,13.68,2.81q2.81.65,5.6,1.32V106Q204.15,105.36,201.52,104.76Z"/><path class="cls-1" d="M285.67,107.3v-1.56c-1.61-.39-3.22-.77-4.84-1.14a271.81,271.81,0,0,0-43.74-6.46v1.52a270.16,270.16,0,0,1,43.41,6.42Q283.1,106.67,285.67,107.3Z"/><path class="cls-2" d="M510.72,43.36c-13.19-2.67-22.6-10.23-28-22.46a55.12,55.12,0,0,1-4.24-17.58l-.06-.8H477c0,.31,0,.63.07.94a56.73,56.73,0,0,0,4.36,18.05c5.56,12.71,15.33,20.56,29,23.34a86.54,86.54,0,0,0,10.28,1.39V44.72A85.4,85.4,0,0,1,510.72,43.36Z"/><path class="cls-1" d="M444.11,29V27.4c-1.6-.39-3.22-.77-4.83-1.13a270.87,270.87,0,0,0-43.75-6.47v1.52a270.06,270.06,0,0,1,43.41,6.43C440.67,28.14,442.39,28.55,444.11,29Z"/><path class="cls-1" d="M340.13,20.79A125.59,125.59,0,0,1,365.21,1.63V0h-.47A126.82,126.82,0,0,0,339,19.62q-4.87,4.77-9.39,9.83h0a45.51,45.51,0,0,1-5-8.77A59.65,59.65,0,0,1,320,1.62c0-.29,0-.58-.07-.87h-1.65c0,.34.05.68.08,1a61.43,61.43,0,0,0,4.73,19.58,46.82,46.82,0,0,0,5.41,9.38q-6.42,7.32-12,15.19v2.86A194.38,194.38,0,0,1,329.51,32l.21-.24-.21.24c6.14,7.57,14.52,12.46,25,14.6a93.15,93.15,0,0,0,10.66,1.47V46.45A87.38,87.38,0,0,1,354.87,45c-10.21-2.07-18.33-6.84-24.26-14.24h0l-.05-.06.05.06Q335.19,25.65,340.13,20.79Z"/><path class="cls-1" d="M338.28,87a49.15,49.15,0,0,1,7.41,19.5,34.27,34.27,0,0,1-2.37,18H345a35.82,35.82,0,0,0,2.25-18.23,50.71,50.71,0,0,0-7.63-20.09c-1.1-1.78-2.29-3.53-3.56-5.27h-1.89Q336.37,83.92,338.28,87Z"/><path class="cls-1" d="M419.93,99.35a115.41,115.41,0,0,1,23.58-17.94V80.17h-.88a116.61,116.61,0,0,0-23.76,18.09,181.44,181.44,0,0,0-22.73,27H398A179.75,179.75,0,0,1,419.93,99.35Z"/><path class="cls-1" d="M518,104.76c-4.89-1.11-9.69-2.09-14.43-3a58.09,58.09,0,0,0-7.36-17c-1.2-1.93-2.48-3.83-3.86-5.71h-2.05c1.63,2.17,3.13,4.35,4.51,6.57a56.88,56.88,0,0,1,7,15.84c-9.32-1.64-18.37-2.79-27.32-3.48v1.66a277.21,277.21,0,0,1,27.74,3.56c.26,1.18.47,2.37.63,3.56a37.08,37.08,0,0,1-2.58,19.54H502a38.67,38.67,0,0,0,2.44-19.76q-.21-1.52-.51-3,6.72,1.24,13.67,2.81,2.8.65,5.6,1.32V106Q520.59,105.36,518,104.76Z"/><path class="cls-1" d="M194.28,200c-13.2-2.67-22.6-10.23-27.95-22.46A55.12,55.12,0,0,1,162.09,160c0-.26,0-.53-.06-.8h-1.52c0,.31,0,.63.07.94a56.46,56.46,0,0,0,4.36,18.05c5.56,12.71,15.33,20.56,29,23.34a87,87,0,0,0,10.29,1.39v-1.52A85.4,85.4,0,0,1,194.28,200Z"/><path class="cls-1" d="M261.48,177.68a115.63,115.63,0,0,1,23.58-17.93V158.5h-.87a117.08,117.08,0,0,0-23.77,18.1,180.79,180.79,0,0,0-22.72,27h1.85A180.22,180.22,0,0,1,261.48,177.68Z"/><path class="cls-1" d="M127.67,185.63v-1.56c-1.61-.39-3.22-.77-4.84-1.13a270.76,270.76,0,0,0-43.74-6.47V178a270.06,270.06,0,0,1,43.41,6.43Q125.1,185,127.67,185.63Z"/><path class="cls-1" d="M23.69,177.46A125.59,125.59,0,0,1,48.77,158.3v-1.63H48.3a126.82,126.82,0,0,0-25.76,19.62q-4.89,4.77-9.39,9.83h0a46.08,46.08,0,0,1-5-8.77,60,60,0,0,1-4.59-19.06c0-.29,0-.58-.07-.87H1.82c0,.34.05.68.08,1A61.5,61.5,0,0,0,6.63,178a47.28,47.28,0,0,0,5.4,9.38q-6.4,7.32-12,15.19v2.85a193.81,193.81,0,0,1,13.07-16.72l.21-.24-.21.24c6.14,7.57,14.51,12.46,25,14.59a91,91,0,0,0,10.66,1.47v-1.65a89.5,89.5,0,0,1-10.34-1.43c-10.22-2.07-18.34-6.84-24.26-14.24h0l-.05-.07.05.07Q18.73,182.31,23.69,177.46Z"/><path class="cls-1" d="M21.84,243.66a49.11,49.11,0,0,1,7.41,19.49,34.29,34.29,0,0,1-2.37,18h1.63A35.82,35.82,0,0,0,30.76,263a50.8,50.8,0,0,0-7.63-20.09c-1.1-1.78-2.29-3.53-3.56-5.27h-1.9Q19.93,240.59,21.84,243.66Z"/><path class="cls-1" d="M103.49,256a115.09,115.09,0,0,1,23.58-17.93v-1.25h-.88a116.75,116.75,0,0,0-23.76,18.1,180.84,180.84,0,0,0-22.73,27h1.85A179.73,179.73,0,0,1,103.49,256Z"/><path class="cls-1" d="M201.52,261.43c-4.89-1.11-9.69-2.09-14.43-2.95a58.09,58.09,0,0,0-7.36-17c-1.2-1.93-2.48-3.83-3.86-5.71h-2.06c1.64,2.17,3.14,4.35,4.52,6.57a57.25,57.25,0,0,1,7,15.83c-9.32-1.63-18.38-2.78-27.32-3.47v1.65c9.07.7,18.26,1.88,27.73,3.56.26,1.19.48,2.38.64,3.57A37.28,37.28,0,0,1,183.79,283h1.77A38.78,38.78,0,0,0,188,263.25c-.14-1-.31-2-.52-3,4.49.83,9,1.76,13.68,2.81q2.81.64,5.6,1.32v-1.69Q204.15,262,201.52,261.43Z"/><path class="cls-1" d="M285.67,264v-1.56c-1.61-.39-3.22-.77-4.84-1.14a271.81,271.81,0,0,0-43.74-6.46v1.52a270.16,270.16,0,0,1,43.41,6.42Q283.1,263.33,285.67,264Z"/><path class="cls-1" d="M510.72,200c-13.19-2.67-22.6-10.23-28-22.46A55.12,55.12,0,0,1,478.53,160l-.06-.8H477c0,.31,0,.63.07.94a56.73,56.73,0,0,0,4.36,18.05c5.56,12.71,15.33,20.56,29,23.34a86.54,86.54,0,0,0,10.28,1.39v-1.52A85.4,85.4,0,0,1,510.72,200Z"/><path class="cls-1" d="M444.11,185.63v-1.56c-1.6-.39-3.22-.77-4.83-1.13a270.87,270.87,0,0,0-43.75-6.47V178a270.06,270.06,0,0,1,43.41,6.43Q441.54,185,444.11,185.63Z"/><path class="cls-1" d="M340.13,177.46a125.59,125.59,0,0,1,25.08-19.16v-1.63h-.47A126.82,126.82,0,0,0,339,176.29q-4.87,4.77-9.39,9.83h0a45.51,45.51,0,0,1-5-8.77,59.71,59.71,0,0,1-4.6-19.06c0-.29,0-.58-.07-.87h-1.65c0,.34.05.68.08,1A61.5,61.5,0,0,0,323.07,178a46.82,46.82,0,0,0,5.41,9.38q-6.42,7.32-12,15.19v2.85a195.79,195.79,0,0,1,13.07-16.72l.21-.24-.21.24c6.14,7.57,14.52,12.46,25,14.59a91,91,0,0,0,10.66,1.47v-1.65a89.5,89.5,0,0,1-10.34-1.43c-10.21-2.07-18.33-6.84-24.26-14.24h0l-.05-.07.05.07Q335.19,182.31,340.13,177.46Z"/><path class="cls-1" d="M338.28,243.66a49.11,49.11,0,0,1,7.41,19.49,34.29,34.29,0,0,1-2.37,18H345A35.82,35.82,0,0,0,347.2,263a50.65,50.65,0,0,0-7.63-20.09c-1.1-1.78-2.29-3.53-3.56-5.27h-1.89Q336.37,240.59,338.28,243.66Z"/><path class="cls-1" d="M419.93,256a115.36,115.36,0,0,1,23.58-17.93v-1.25h-.88a117,117,0,0,0-23.76,18.1,181.44,181.44,0,0,0-22.73,27H398A180.37,180.37,0,0,1,419.93,256Z"/><path class="cls-1" d="M518,261.43c-4.89-1.11-9.69-2.09-14.43-2.95a58.09,58.09,0,0,0-7.36-17c-1.2-1.93-2.48-3.83-3.86-5.71h-2.05c1.63,2.17,3.13,4.35,4.51,6.57a57,57,0,0,1,7,15.83c-9.32-1.63-18.37-2.78-27.32-3.47v1.65c9.07.7,18.27,1.88,27.74,3.56q.39,1.78.63,3.57A37.08,37.08,0,0,1,500.23,283H502a38.67,38.67,0,0,0,2.44-19.76q-.21-1.51-.51-3,6.72,1.25,13.67,2.81,2.8.64,5.6,1.32v-1.69Q520.59,262,518,261.43Z"/><path class="cls-1" d="M194.28,357.74c-13.2-2.68-22.6-10.23-27.95-22.46a55.25,55.25,0,0,1-4.24-17.58c0-.27,0-.53-.06-.8h-1.52c0,.31,0,.62.07.93a56.52,56.52,0,0,0,4.36,18.06c5.56,12.7,15.33,20.56,29,23.34a87,87,0,0,0,10.29,1.39V359.1A85.4,85.4,0,0,1,194.28,357.74Z"/><path class="cls-1" d="M261.48,335.39a115.27,115.27,0,0,1,23.58-17.93v-1.25h-.87a116.67,116.67,0,0,0-23.77,18.09,181.38,181.38,0,0,0-22.72,27h1.85A179.68,179.68,0,0,1,261.48,335.39Z"/><path class="cls-2" d="M127.67,343.34v-1.56c-1.61-.39-3.22-.77-4.84-1.14a271.81,271.81,0,0,0-43.74-6.46v1.52a271.13,271.13,0,0,1,43.41,6.42C124.23,342.52,126,342.92,127.67,343.34Z"/><path class="cls-1" d="M23.69,335.17A124.85,124.85,0,0,1,48.77,316v-1.63H48.3A126.4,126.4,0,0,0,22.54,334q-4.89,4.78-9.39,9.84h0a45.86,45.86,0,0,1-5-8.78A59.85,59.85,0,0,1,3.54,316c0-.29,0-.58-.07-.87H1.82c0,.33.05.67.08,1a61.44,61.44,0,0,0,4.73,19.57A47.65,47.65,0,0,0,12,345.1q-6.4,7.31-12,15.18v2.86a193.81,193.81,0,0,1,13.07-16.72l.21-.24-.21.24c6.14,7.56,14.51,12.46,25,14.59a91,91,0,0,0,10.66,1.47v-1.65a89.5,89.5,0,0,1-10.34-1.43c-10.22-2.07-18.34-6.85-24.26-14.24h0l-.05-.07.05.07Q18.73,340,23.69,335.17Z"/><path class="cls-1" d="M21.84,401.36a49.15,49.15,0,0,1,7.41,19.5,34.31,34.31,0,0,1-2.37,18h1.63a35.82,35.82,0,0,0,2.25-18.23,50.9,50.9,0,0,0-7.63-20.1q-1.65-2.65-3.56-5.26h-1.9C19.18,397.3,20.57,399.31,21.84,401.36Z"/><path class="cls-1" d="M103.49,413.72a115.09,115.09,0,0,1,23.58-17.93v-1.25h-.88a116.75,116.75,0,0,0-23.76,18.1,180.34,180.34,0,0,0-22.73,27h1.85A179.19,179.19,0,0,1,103.49,413.72Z"/><path class="cls-1" d="M201.52,419.14c-4.89-1.11-9.69-2.09-14.43-2.95a58.26,58.26,0,0,0-7.36-17c-1.2-1.92-2.48-3.82-3.86-5.7h-2.06c1.64,2.16,3.14,4.35,4.52,6.57a57.25,57.25,0,0,1,7,15.83c-9.32-1.63-18.38-2.79-27.32-3.47v1.65c9.07.7,18.26,1.88,27.73,3.56.26,1.19.48,2.38.64,3.57a37.3,37.3,0,0,1-2.58,19.54h1.77A38.78,38.78,0,0,0,188,421c-.14-1-.31-2-.52-3,4.49.83,9,1.76,13.68,2.81q2.81.64,5.6,1.32v-1.69Q204.15,419.74,201.52,419.14Z"/><path class="cls-1" d="M285.67,421.67v-1.56c-1.61-.39-3.22-.76-4.84-1.13a270.76,270.76,0,0,0-43.74-6.47V414a270.22,270.22,0,0,1,43.41,6.43C282.23,420.85,284,421.26,285.67,421.67Z"/><path class="cls-1" d="M510.72,357.74c-13.19-2.68-22.6-10.23-28-22.46a55.25,55.25,0,0,1-4.24-17.58l-.06-.8H477c0,.31,0,.62.07.93a56.79,56.79,0,0,0,4.36,18.06c5.56,12.7,15.33,20.56,29,23.34a86.54,86.54,0,0,0,10.28,1.39V359.1A85.4,85.4,0,0,1,510.72,357.74Z"/><path class="cls-1" d="M444.11,343.34v-1.56c-1.6-.39-3.22-.77-4.83-1.14a271.93,271.93,0,0,0-43.75-6.46v1.52a271.13,271.13,0,0,1,43.41,6.42C440.67,342.52,442.39,342.92,444.11,343.34Z"/><path class="cls-1" d="M340.13,335.17A124.85,124.85,0,0,1,365.21,316v-1.63h-.47A126.4,126.4,0,0,0,339,334q-4.87,4.78-9.39,9.84h0a45.3,45.3,0,0,1-5-8.78A59.58,59.58,0,0,1,320,316c0-.29,0-.58-.07-.87h-1.65c0,.33.05.67.08,1a61.44,61.44,0,0,0,4.73,19.57,47.19,47.19,0,0,0,5.41,9.39q-6.42,7.31-12,15.18v2.86a195.79,195.79,0,0,1,13.07-16.72l.21-.24-.21.24c6.14,7.56,14.52,12.46,25,14.59a91,91,0,0,0,10.66,1.47v-1.65a89.5,89.5,0,0,1-10.34-1.43c-10.21-2.07-18.33-6.85-24.26-14.24h0l-.05-.07.05.07Q335.19,340,340.13,335.17Z"/><path class="cls-1" d="M338.28,401.36a49.15,49.15,0,0,1,7.41,19.5,34.31,34.31,0,0,1-2.37,18H345a35.82,35.82,0,0,0,2.25-18.23,50.75,50.75,0,0,0-7.63-20.1q-1.65-2.65-3.56-5.26h-1.89C335.62,397.3,337,399.31,338.28,401.36Z"/><path class="cls-1" d="M419.93,413.72a115.36,115.36,0,0,1,23.58-17.93v-1.25h-.88a117,117,0,0,0-23.76,18.1,180.94,180.94,0,0,0-22.73,27H398A179.83,179.83,0,0,1,419.93,413.72Z"/><path class="cls-1" d="M518,419.14c-4.89-1.11-9.69-2.09-14.43-2.95a58.26,58.26,0,0,0-7.36-17c-1.2-1.92-2.48-3.82-3.86-5.7h-2.05q2.44,3.24,4.51,6.57a57,57,0,0,1,7,15.83c-9.32-1.63-18.37-2.79-27.32-3.47v1.65c9.07.7,18.27,1.88,27.74,3.56q.39,1.78.63,3.57a37.1,37.1,0,0,1-2.58,19.54H502A38.67,38.67,0,0,0,504.44,421q-.21-1.51-.51-3,6.72,1.24,13.67,2.81,2.8.64,5.6,1.32v-1.69Q520.59,419.74,518,419.14Z"/><path class="cls-1" d="M194.28,514.41c-13.2-2.68-22.6-10.23-27.95-22.46a55.25,55.25,0,0,1-4.24-17.58c0-.27,0-.53-.06-.8h-1.52c0,.31,0,.62.07.93a56.52,56.52,0,0,0,4.36,18.06c5.56,12.7,15.33,20.55,29,23.33a85,85,0,0,0,10.29,1.4v-1.52A85.4,85.4,0,0,1,194.28,514.41Z"/><path class="cls-1" d="M261.48,492.06a115.68,115.68,0,0,1,23.58-17.94v-1.24h-.87A116.67,116.67,0,0,0,260.42,491a181.38,181.38,0,0,0-22.72,27h1.85A179.68,179.68,0,0,1,261.48,492.06Z"/><path class="cls-1" d="M127.67,500v-1.56c-1.61-.39-3.22-.77-4.84-1.14a271.81,271.81,0,0,0-43.74-6.46v1.52a270,270,0,0,1,43.41,6.42Q125.1,499.38,127.67,500Z"/><path class="cls-1" d="M23.69,491.84a124.85,124.85,0,0,1,25.08-19.16V471H48.3a126.82,126.82,0,0,0-25.76,19.62q-4.89,4.79-9.39,9.84h0a46.16,46.16,0,0,1-5-8.78,59.85,59.85,0,0,1-4.59-19.06c0-.28,0-.58-.07-.86H1.82c0,.33.05.67.08,1a61.44,61.44,0,0,0,4.73,19.57,47.28,47.28,0,0,0,5.4,9.38Q5.63,509.08,0,517v2.86a192.28,192.28,0,0,1,13.07-16.72l.21-.25-.21.25c6.14,7.56,14.51,12.46,25,14.59a91,91,0,0,0,10.66,1.47V517.5a89.5,89.5,0,0,1-10.34-1.43c-10.22-2.07-18.34-6.85-24.26-14.24h0l-.05-.07.05.07Q18.73,496.68,23.69,491.84Z"/><path class="cls-1" d="M21.84,558a49.15,49.15,0,0,1,7.41,19.5,34.26,34.26,0,0,1-2.37,18h1.63a35.77,35.77,0,0,0,2.25-18.22,50.9,50.9,0,0,0-7.63-20.1c-1.1-1.77-2.29-3.53-3.56-5.26h-1.9C19.18,554,20.57,556,21.84,558Z"/><path class="cls-1" d="M103.49,570.39a115.09,115.09,0,0,1,23.58-17.93v-1.25h-.88a116.75,116.75,0,0,0-23.76,18.1,180.77,180.77,0,0,0-22.73,27h1.85A179.65,179.65,0,0,1,103.49,570.39Z"/><path class="cls-1" d="M201.52,575.81c-4.89-1.12-9.69-2.1-14.43-2.95a58.26,58.26,0,0,0-7.36-17c-1.2-1.92-2.48-3.82-3.86-5.7h-2.06c1.64,2.16,3.14,4.35,4.52,6.57a57.12,57.12,0,0,1,7,15.83c-9.32-1.64-18.38-2.79-27.32-3.47v1.65c9.07.7,18.26,1.88,27.73,3.56.26,1.19.48,2.38.64,3.57a37.3,37.3,0,0,1-2.58,19.54h1.77A38.79,38.79,0,0,0,188,577.63c-.14-1-.31-2-.52-3,4.49.83,9,1.76,13.68,2.81,1.87.43,3.74.86,5.6,1.32V577C205,576.62,203.27,576.2,201.52,575.81Z"/><path class="cls-1" d="M285.67,578.34v-1.56c-1.61-.39-3.22-.77-4.84-1.13a270.76,270.76,0,0,0-43.74-6.47v1.52a270.22,270.22,0,0,1,43.41,6.43Q283.1,577.71,285.67,578.34Z"/><path class="cls-1" d="M510.72,514.41c-13.19-2.68-22.6-10.23-28-22.46a55.25,55.25,0,0,1-4.24-17.58l-.06-.8H477c0,.31,0,.62.07.93a56.79,56.79,0,0,0,4.36,18.06c5.56,12.7,15.33,20.55,29,23.33a84.56,84.56,0,0,0,10.28,1.4v-1.52A85.4,85.4,0,0,1,510.72,514.41Z"/><path class="cls-1" d="M444.11,500v-1.56c-1.6-.39-3.22-.77-4.83-1.14a271.93,271.93,0,0,0-43.75-6.46v1.52a270,270,0,0,1,43.41,6.42Q441.54,499.38,444.11,500Z"/><path class="cls-1" d="M340.13,491.84a124.85,124.85,0,0,1,25.08-19.16V471h-.47A126.82,126.82,0,0,0,339,490.66q-4.87,4.79-9.39,9.84h0a45.6,45.6,0,0,1-5-8.78,59.58,59.58,0,0,1-4.6-19.06c0-.28,0-.58-.07-.86h-1.65c0,.33.05.67.08,1a61.44,61.44,0,0,0,4.73,19.57,46.82,46.82,0,0,0,5.41,9.38q-6.42,7.32-12,15.19v2.86a194.24,194.24,0,0,1,13.07-16.72l.21-.25-.21.25c6.14,7.56,14.52,12.46,25,14.59a91,91,0,0,0,10.66,1.47V517.5a89.5,89.5,0,0,1-10.34-1.43c-10.21-2.07-18.33-6.85-24.26-14.24h0l-.05-.07a.18.18,0,0,1,.05.07Q335.19,496.68,340.13,491.84Z"/><path class="cls-1" d="M338.28,558a49.15,49.15,0,0,1,7.41,19.5,34.26,34.26,0,0,1-2.37,18H345a35.77,35.77,0,0,0,2.25-18.22,50.75,50.75,0,0,0-7.63-20.1c-1.1-1.77-2.29-3.53-3.56-5.26h-1.89C335.62,554,337,556,338.28,558Z"/><path class="cls-1" d="M419.93,570.39a115.36,115.36,0,0,1,23.58-17.93v-1.25h-.88a117,117,0,0,0-23.76,18.1,181.37,181.37,0,0,0-22.73,27H398A180.29,180.29,0,0,1,419.93,570.39Z"/><path class="cls-1" d="M518,575.81c-4.89-1.12-9.69-2.1-14.43-2.95a58.26,58.26,0,0,0-7.36-17c-1.2-1.92-2.48-3.82-3.86-5.7h-2.05q2.44,3.24,4.51,6.57a56.83,56.83,0,0,1,7,15.83c-9.32-1.64-18.37-2.79-27.32-3.47v1.65c9.07.7,18.27,1.88,27.74,3.56q.39,1.79.63,3.57a37.1,37.1,0,0,1-2.58,19.54H502a38.68,38.68,0,0,0,2.44-19.76q-.21-1.51-.51-3,6.72,1.24,13.67,2.81c1.87.43,3.74.86,5.6,1.32V577C521.46,576.62,519.71,576.2,518,575.81Z"/><path class="cls-1" d="M194.28,673.8c-13.2-2.68-22.6-10.24-27.95-22.46a55.25,55.25,0,0,1-4.24-17.58c0-.27,0-.54-.06-.8h-1.52c0,.31,0,.62.07.93A56.52,56.52,0,0,0,164.94,652c5.56,12.7,15.33,20.55,29,23.33a85,85,0,0,0,10.29,1.4v-1.53A83.28,83.28,0,0,1,194.28,673.8Z"/><path class="cls-1" d="M261.48,651.44a116,116,0,0,1,23.58-17.93v-1.24h-.87a116.67,116.67,0,0,0-23.77,18.09,181.38,181.38,0,0,0-22.72,27h1.85A180.3,180.3,0,0,1,261.48,651.44Z"/><path class="cls-1" d="M127.67,659.4v-1.56c-1.61-.39-3.22-.77-4.84-1.14a271.81,271.81,0,0,0-43.74-6.46v1.52a270,270,0,0,1,43.41,6.42Q125.1,658.77,127.67,659.4Z"/><path class="cls-1" d="M23.69,651.23a124.85,124.85,0,0,1,25.08-19.16v-1.64H48.3a126.82,126.82,0,0,0-25.76,19.62q-4.89,4.79-9.39,9.84h0a46.16,46.16,0,0,1-5-8.78,59.85,59.85,0,0,1-4.59-19.06c0-.29,0-.58-.07-.87H1.82c0,.34.05.68.08,1a61.44,61.44,0,0,0,4.73,19.57,47.28,47.28,0,0,0,5.4,9.38q-6.4,7.32-12,15.19v2.86a194,194,0,0,1,13.07-16.73l.21-.24-.21.25c6.14,7.56,14.51,12.46,25,14.59a91,91,0,0,0,10.66,1.47v-1.65a91.74,91.74,0,0,1-10.34-1.43c-10.22-2.08-18.34-6.85-24.26-14.24h0l-.05-.07.05.07Q18.73,656.08,23.69,651.23Z"/><path class="cls-1" d="M510.72,673.8c-13.19-2.68-22.6-10.24-28-22.46a55.25,55.25,0,0,1-4.24-17.58l-.06-.8H477c0,.31,0,.62.07.93A56.79,56.79,0,0,0,481.38,652c5.56,12.7,15.33,20.55,29,23.33a84.56,84.56,0,0,0,10.28,1.4v-1.53A83.28,83.28,0,0,1,510.72,673.8Z"/><path class="cls-2" d="M444.11,659.4v-1.56c-1.6-.39-3.22-.77-4.83-1.14a271.93,271.93,0,0,0-43.75-6.46v1.52a270,270,0,0,1,43.41,6.42Q441.54,658.77,444.11,659.4Z"/><path class="cls-1" d="M340.13,651.23a124.85,124.85,0,0,1,25.08-19.16v-1.64h-.47A126.82,126.82,0,0,0,339,650.05q-4.87,4.79-9.39,9.84h0a45.6,45.6,0,0,1-5-8.78,59.58,59.58,0,0,1-4.6-19.06c0-.29,0-.58-.07-.87h-1.65c0,.34.05.68.08,1a61.44,61.44,0,0,0,4.73,19.57,46.82,46.82,0,0,0,5.41,9.38q-6.42,7.32-12,15.19v2.86a195.94,195.94,0,0,1,13.07-16.73l.21-.24-.21.25c6.14,7.56,14.52,12.46,25,14.59a91,91,0,0,0,10.66,1.47v-1.65a91.74,91.74,0,0,1-10.34-1.43c-10.21-2.08-18.33-6.85-24.26-14.24h0a.18.18,0,0,0-.05-.07.18.18,0,0,1,.05.07Q335.19,656.08,340.13,651.23Z"/></svg>