<svg id="Layer_1" data-name="Layer 1" xmlns="http://www.w3.org/2000/svg" viewBox="0 0 1309.69 225.91"><defs><style>.cls-1{fill:#005879;}</style></defs><path d="M82.8,15.36A92.28,92.28,0,0,1,101.68,1V0H101A93.56,93.56,0,0,0,82,14.49a144.77,144.77,0,0,0-18.2,21.63h1.48A143.48,143.48,0,0,1,82.8,15.36Z"/><path d="M19.53,78.62A92.34,92.34,0,0,1,38.42,64.26v-1h-.7a94.26,94.26,0,0,0-19,14.49A145.3,145.3,0,0,0,.49,99.38H2A144.58,144.58,0,0,1,19.53,78.62Z"/><path d="M102.17,85V83.74l-3.88-.91a217.89,217.89,0,0,0-35-5.18v1.22A216.84,216.84,0,0,1,98,84C99.41,84.33,100.79,84.66,102.17,85Z"/><path d="M39.14,21.73V20.48c-1.28-.31-2.57-.62-3.87-.91a217.89,217.89,0,0,0-35-5.18v1.22A216.78,216.78,0,0,1,35,20.75C36.39,21.07,37.77,21.39,39.14,21.73Z"/><path d="M165.67,21.73V20.48c-1.29-.31-2.58-.62-3.87-.91a218.06,218.06,0,0,0-35-5.18v1.22a216.94,216.94,0,0,1,34.76,5.14C162.91,21.07,164.29,21.39,165.67,21.73Z"/><path d="M209.32,15.36A92.34,92.34,0,0,1,228.21,1V0h-.7a93.89,93.89,0,0,0-19,14.49,146,146,0,0,0-18.2,21.63h1.49A144,144,0,0,1,209.32,15.36Z"/><path d="M146.06,78.62a92.55,92.55,0,0,1,18.88-14.36v-1h-.7a93.93,93.93,0,0,0-19,14.49A145.37,145.37,0,0,0,127,99.38h1.48A145.3,145.3,0,0,1,146.06,78.62Z"/><path d="M228.69,85V83.74l-3.87-.91a218.06,218.06,0,0,0-35-5.18v1.22A216.84,216.84,0,0,1,224.55,84C225.93,84.33,227.32,84.66,228.69,85Z"/><path d="M82.8,141.89a91.93,91.93,0,0,1,18.88-14.36v-1H101A93.2,93.2,0,0,0,82,141a144.77,144.77,0,0,0-18.2,21.63h1.48A142.94,142.94,0,0,1,82.8,141.89Z"/><path d="M38.9,148.25V147L35,146.09a216.89,216.89,0,0,0-35-5.17v1.22a215.66,215.66,0,0,1,34.76,5.14C36.15,147.59,37.53,147.92,38.9,148.25Z"/><path d="M19.53,205.15a92.34,92.34,0,0,1,18.89-14.36v-1h-.7a93.53,93.53,0,0,0-19,14.49A145.3,145.3,0,0,0,.49,225.91H2A144,144,0,0,1,19.53,205.15Z"/><path d="M102.17,211.52v-1.25c-1.29-.31-2.58-.62-3.88-.91a217.89,217.89,0,0,0-35-5.18v1.22A215.66,215.66,0,0,1,98,210.54C99.41,210.86,100.79,211.18,102.17,211.52Z"/><path class="cls-1" d="M209.32,141.89a92,92,0,0,1,18.89-14.36v-1h-.7a93.53,93.53,0,0,0-19,14.49,146,146,0,0,0-18.2,21.63h1.49A143.51,143.51,0,0,1,209.32,141.89Z"/><path d="M165.43,148.25V147l-3.87-.91a217,217,0,0,0-35-5.17v1.22a216,216,0,0,1,34.76,5.14C162.67,147.59,164.05,147.92,165.43,148.25Z"/><path d="M146.06,205.15a92.55,92.55,0,0,1,18.88-14.36v-1h-.7a93.2,93.2,0,0,0-19,14.49A145.37,145.37,0,0,0,127,225.91h1.48A144.76,144.76,0,0,1,146.06,205.15Z"/><path d="M228.69,211.52v-1.25c-1.29-.31-2.58-.62-3.87-.91a218.06,218.06,0,0,0-35-5.18v1.22a215.66,215.66,0,0,1,34.76,5.14C225.93,210.86,227.32,211.18,228.69,211.52Z"/><path d="M337.69,15.36A92.55,92.55,0,0,1,356.57,1V0h-.7a93.56,93.56,0,0,0-19,14.49,145.37,145.37,0,0,0-18.2,21.63h1.48A144.76,144.76,0,0,1,337.69,15.36Z"/><path d="M274.43,78.62a92.55,92.55,0,0,1,18.88-14.36v-1h-.7a93.93,93.93,0,0,0-19,14.49,144.77,144.77,0,0,0-18.2,21.63h1.48A144,144,0,0,1,274.43,78.62Z"/><path d="M357.06,85V83.74l-3.87-.91a218.22,218.22,0,0,0-35-5.18v1.22A217.17,217.17,0,0,1,352.92,84C354.3,84.33,355.68,84.66,357.06,85Z"/><path class="cls-1" d="M464.22,15.36A92.28,92.28,0,0,1,483.1,1V0h-.7a93.56,93.56,0,0,0-19,14.49,144.77,144.77,0,0,0-18.2,21.63h1.48A143.48,143.48,0,0,1,464.22,15.36Z"/><path d="M401,78.62a92.34,92.34,0,0,1,18.89-14.36v-1h-.7a94.26,94.26,0,0,0-19,14.49,146,146,0,0,0-18.2,21.63h1.49A144.58,144.58,0,0,1,401,78.62Z"/><path d="M483.58,85V83.74l-3.87-.91a217.89,217.89,0,0,0-35-5.18v1.22A216.84,216.84,0,0,1,479.44,84C480.83,84.33,482.21,84.66,483.58,85Z"/><path d="M590.74,15.36A92.34,92.34,0,0,1,609.63,1V0h-.7a93.89,93.89,0,0,0-19,14.49,146,146,0,0,0-18.2,21.63h1.49A144,144,0,0,1,590.74,15.36Z"/><path d="M527.48,78.62a92.55,92.55,0,0,1,18.88-14.36v-1h-.7a93.93,93.93,0,0,0-19,14.49,144.77,144.77,0,0,0-18.2,21.63h1.48A145.3,145.3,0,0,1,527.48,78.62Z"/><path d="M610.11,85V83.74l-3.87-.91a218.06,218.06,0,0,0-35-5.18v1.22A216.84,216.84,0,0,1,606,84C607.35,84.33,608.73,84.66,610.11,85Z"/><path d="M420.56,21.73V20.48c-1.28-.31-2.57-.62-3.87-.91a217.89,217.89,0,0,0-35-5.18v1.22a216.78,216.78,0,0,1,34.76,5.14C417.81,21.07,419.19,21.39,420.56,21.73Z"/><path d="M293.8,21.73V20.48c-1.29-.31-2.58-.62-3.88-.91a217.89,217.89,0,0,0-35-5.18v1.22a216.78,216.78,0,0,1,34.76,5.14C291,21.07,292.42,21.39,293.8,21.73Z"/><path d="M547.09,21.73V20.48c-1.29-.31-2.58-.62-3.87-.91a218.22,218.22,0,0,0-35-5.18v1.22A217.11,217.11,0,0,1,543,20.75C544.33,21.07,545.71,21.39,547.09,21.73Z"/><path d="M673.62,21.73V20.48c-1.29-.31-2.58-.62-3.88-.91a217.89,217.89,0,0,0-35-5.18v1.22a216.78,216.78,0,0,1,34.76,5.14C670.86,21.07,672.24,21.39,673.62,21.73Z"/><path d="M717.27,15.36A92.55,92.55,0,0,1,736.15,1V0h-.7a93.56,93.56,0,0,0-19,14.49,144.77,144.77,0,0,0-18.2,21.63h1.48A144.11,144.11,0,0,1,717.27,15.36Z"/><path d="M654,78.62a92,92,0,0,1,18.88-14.36v-1h-.7a93.93,93.93,0,0,0-19,14.49A144.77,144.77,0,0,0,635,99.38h1.48A144,144,0,0,1,654,78.62Z"/><path d="M736.64,85V83.74l-3.88-.91a217.94,217.94,0,0,0-35-5.18v1.22A217.17,217.17,0,0,1,732.5,84C733.88,84.33,735.26,84.66,736.64,85Z"/><path d="M337.69,141.89a92.2,92.2,0,0,1,18.88-14.36v-1h-.7a93.2,93.2,0,0,0-19,14.49,145.37,145.37,0,0,0-18.2,21.63h1.48A144.21,144.21,0,0,1,337.69,141.89Z"/><path d="M293.8,148.25V147l-3.88-.91a216.73,216.73,0,0,0-35-5.17v1.22a215.66,215.66,0,0,1,34.76,5.14C291,147.59,292.42,147.92,293.8,148.25Z"/><path d="M274.43,205.15a92.55,92.55,0,0,1,18.88-14.36v-1h-.7a93.2,93.2,0,0,0-19,14.49,144.77,144.77,0,0,0-18.2,21.63h1.48A143.48,143.48,0,0,1,274.43,205.15Z"/><path d="M357.06,211.52v-1.25c-1.29-.31-2.58-.62-3.87-.91a218.22,218.22,0,0,0-35-5.18v1.22a216,216,0,0,1,34.76,5.14C354.3,210.86,355.68,211.18,357.06,211.52Z"/><path d="M464.22,141.89a91.93,91.93,0,0,1,18.88-14.36v-1h-.7a93.2,93.2,0,0,0-19,14.49,144.77,144.77,0,0,0-18.2,21.63h1.48A142.94,142.94,0,0,1,464.22,141.89Z"/><path d="M420.32,148.25V147l-3.87-.91a216.89,216.89,0,0,0-35-5.17v1.22a215.66,215.66,0,0,1,34.76,5.14C417.56,147.59,419,147.92,420.32,148.25Z"/><path d="M401,205.15a92.34,92.34,0,0,1,18.89-14.36v-1h-.7a93.53,93.53,0,0,0-19,14.49,146,146,0,0,0-18.2,21.63h1.49A144,144,0,0,1,401,205.15Z"/><path d="M483.58,211.52v-1.25c-1.28-.31-2.57-.62-3.87-.91a217.89,217.89,0,0,0-35-5.18v1.22a215.66,215.66,0,0,1,34.76,5.14C480.83,210.86,482.21,211.18,483.58,211.52Z"/><path d="M590.74,141.89a92,92,0,0,1,18.89-14.36v-1h-.7a93.53,93.53,0,0,0-19,14.49,146,146,0,0,0-18.2,21.63h1.49A143.51,143.51,0,0,1,590.74,141.89Z"/><path d="M546.85,148.25V147l-3.87-.91a217,217,0,0,0-35-5.17v1.22a216,216,0,0,1,34.76,5.14C544.09,147.59,545.47,147.92,546.85,148.25Z"/><path d="M527.48,205.15a92.55,92.55,0,0,1,18.88-14.36v-1h-.7a93.2,93.2,0,0,0-19,14.49,144.77,144.77,0,0,0-18.2,21.63h1.48A144.76,144.76,0,0,1,527.48,205.15Z"/><path d="M610.11,211.52v-1.25c-1.29-.31-2.58-.62-3.87-.91a218.06,218.06,0,0,0-35-5.18v1.22A215.66,215.66,0,0,1,606,210.54C607.35,210.86,608.73,211.18,610.11,211.52Z"/><path d="M717.27,141.89a92.2,92.2,0,0,1,18.88-14.36v-1h-.7a93.2,93.2,0,0,0-19,14.49,144.77,144.77,0,0,0-18.2,21.63h1.48A143.58,143.58,0,0,1,717.27,141.89Z"/><path d="M673.37,148.25V147l-3.87-.91a216.73,216.73,0,0,0-35-5.17v1.22a215.66,215.66,0,0,1,34.76,5.14C670.62,147.59,672,147.92,673.37,148.25Z"/><path d="M654,205.15a92,92,0,0,1,18.88-14.36v-1h-.7a93.2,93.2,0,0,0-19,14.49A144.77,144.77,0,0,0,635,225.91h1.48A143.48,143.48,0,0,1,654,205.15Z"/><path class="cls-1" d="M736.64,211.52v-1.25c-1.29-.31-2.58-.62-3.88-.91a217.94,217.94,0,0,0-35-5.18v1.22a216,216,0,0,1,34.76,5.14C733.88,210.86,735.26,211.18,736.64,211.52Z"/><path d="M845.64,15.36A92.28,92.28,0,0,1,864.52,1V0h-.7a93.56,93.56,0,0,0-19,14.49,144.77,144.77,0,0,0-18.2,21.63h1.48A143.48,143.48,0,0,1,845.64,15.36Z"/><path d="M782.37,78.62a92.34,92.34,0,0,1,18.89-14.36v-1h-.7a94.26,94.26,0,0,0-19,14.49,146,146,0,0,0-18.2,21.63h1.49A144.58,144.58,0,0,1,782.37,78.62Z"/><path d="M865,85V83.74l-3.87-.91a217.89,217.89,0,0,0-35-5.18v1.22A216.84,216.84,0,0,1,860.86,84C862.25,84.33,863.63,84.66,865,85Z"/><path d="M972.16,15.36A92.34,92.34,0,0,1,991.05,1V0h-.71a94.11,94.11,0,0,0-19,14.49,146,146,0,0,0-18.2,21.63h1.49A144,144,0,0,1,972.16,15.36Z"/><path d="M908.9,78.62a92.55,92.55,0,0,1,18.88-14.36v-1h-.7a93.93,93.93,0,0,0-19,14.49,144.77,144.77,0,0,0-18.2,21.63h1.48A144.66,144.66,0,0,1,908.9,78.62Z"/><path d="M991.53,85V83.74l-3.87-.91a218.06,218.06,0,0,0-35-5.18v1.22A217,217,0,0,1,987.39,84C988.77,84.33,990.15,84.66,991.53,85Z"/><path d="M1098.69,15.36A92.55,92.55,0,0,1,1117.57,1V0h-.7a93.56,93.56,0,0,0-19,14.49,144.77,144.77,0,0,0-18.2,21.63h1.48A144.11,144.11,0,0,1,1098.69,15.36Z"/><path class="cls-1" d="M1035.43,78.62a92,92,0,0,1,18.88-14.36v-1h-.7a93.93,93.93,0,0,0-19,14.49,144.77,144.77,0,0,0-18.2,21.63h1.48A144,144,0,0,1,1035.43,78.62Z"/><path d="M1118.06,85V83.74l-3.88-.91a217.94,217.94,0,0,0-35-5.18v1.22A217.17,217.17,0,0,1,1113.92,84C1115.3,84.33,1116.68,84.66,1118.06,85Z"/><path d="M928.51,21.73V20.48c-1.29-.31-2.58-.62-3.87-.91a218.22,218.22,0,0,0-35-5.18v1.22a217.11,217.11,0,0,1,34.76,5.14C925.75,21.07,927.13,21.39,928.51,21.73Z"/><path class="cls-1" d="M801.74,21.73V20.48c-1.29-.31-2.58-.62-3.87-.91a218.06,218.06,0,0,0-35-5.18v1.22a216.78,216.78,0,0,1,34.76,5.14C799,21.07,800.37,21.39,801.74,21.73Z"/><path d="M1055,21.73V20.48c-1.29-.31-2.58-.62-3.88-.91a217.89,217.89,0,0,0-35-5.18v1.22a216.78,216.78,0,0,1,34.76,5.14C1052.28,21.07,1053.66,21.39,1055,21.73Z"/><path d="M1181.56,21.73V20.48c-1.28-.31-2.57-.62-3.87-.91a218.06,218.06,0,0,0-35-5.18v1.22a216.78,216.78,0,0,1,34.76,5.14C1178.81,21.07,1180.19,21.39,1181.56,21.73Z"/><path d="M1225.22,15.36A92,92,0,0,1,1244.1,1V0h-.7a93.56,93.56,0,0,0-19,14.49,144.77,144.77,0,0,0-18.2,21.63h1.48A143.48,143.48,0,0,1,1225.22,15.36Z"/><path d="M1162,78.62a92.34,92.34,0,0,1,18.89-14.36v-1h-.71a94.48,94.48,0,0,0-19,14.49,145.37,145.37,0,0,0-18.2,21.63h1.49A144.58,144.58,0,0,1,1162,78.62Z"/><path d="M1244.58,85V83.74l-3.87-.91a218.06,218.06,0,0,0-35-5.18v1.22A216.84,216.84,0,0,1,1240.44,84C1241.83,84.33,1243.21,84.66,1244.58,85Z"/><path d="M845.64,141.89a91.93,91.93,0,0,1,18.88-14.36v-1h-.7a93.2,93.2,0,0,0-19,14.49,144.77,144.77,0,0,0-18.2,21.63h1.48A142.94,142.94,0,0,1,845.64,141.89Z"/><path d="M801.74,148.25V147l-3.87-.91a216.89,216.89,0,0,0-35-5.17v1.22a215.66,215.66,0,0,1,34.76,5.14C799,147.59,800.37,147.92,801.74,148.25Z"/><path d="M782.37,205.15a92.34,92.34,0,0,1,18.89-14.36v-1h-.7a93.53,93.53,0,0,0-19,14.49,146,146,0,0,0-18.2,21.63h1.49A144,144,0,0,1,782.37,205.15Z"/><path d="M865,211.52v-1.25c-1.28-.31-2.57-.62-3.87-.91a217.89,217.89,0,0,0-35-5.18v1.22a215.66,215.66,0,0,1,34.76,5.14C862.25,210.86,863.63,211.18,865,211.52Z"/><path d="M972.16,141.89a92,92,0,0,1,18.89-14.36v-1h-.71a93.75,93.75,0,0,0-19,14.49,146,146,0,0,0-18.2,21.63h1.49A143.51,143.51,0,0,1,972.16,141.89Z"/><path d="M928.27,148.25V147l-3.87-.91a217,217,0,0,0-35-5.17v1.22a216,216,0,0,1,34.76,5.14C925.51,147.59,926.89,147.92,928.27,148.25Z"/><path d="M908.9,205.15a92.55,92.55,0,0,1,18.88-14.36v-1h-.7a93.2,93.2,0,0,0-19,14.49,144.77,144.77,0,0,0-18.2,21.63h1.48A144.11,144.11,0,0,1,908.9,205.15Z"/><path d="M991.53,211.52v-1.25c-1.29-.31-2.58-.62-3.87-.91a218.06,218.06,0,0,0-35-5.18v1.22a215.82,215.82,0,0,1,34.76,5.14C988.77,210.86,990.15,211.18,991.53,211.52Z"/><path d="M1098.69,141.89a92.2,92.2,0,0,1,18.88-14.36v-1h-.7a93.2,93.2,0,0,0-19,14.49,144.77,144.77,0,0,0-18.2,21.63h1.48A143.58,143.58,0,0,1,1098.69,141.89Z"/><path d="M1054.79,148.25V147l-3.87-.91a216.73,216.73,0,0,0-35-5.17v1.22a215.66,215.66,0,0,1,34.76,5.14C1052,147.59,1053.42,147.92,1054.79,148.25Z"/><path d="M1035.43,205.15a92,92,0,0,1,18.88-14.36v-1h-.7a93.2,93.2,0,0,0-19,14.49,144.77,144.77,0,0,0-18.2,21.63h1.48A143.48,143.48,0,0,1,1035.43,205.15Z"/><path d="M1118.06,211.52v-1.25c-1.29-.31-2.58-.62-3.88-.91a217.94,217.94,0,0,0-35-5.18v1.22a216,216,0,0,1,34.76,5.14C1115.3,210.86,1116.68,211.18,1118.06,211.52Z"/><path d="M1225.22,141.89a91.66,91.66,0,0,1,18.88-14.36v-1h-.7a93.2,93.2,0,0,0-19,14.49,144.77,144.77,0,0,0-18.2,21.63h1.48A142.94,142.94,0,0,1,1225.22,141.89Z"/><path d="M1181.32,148.25V147l-3.87-.91a217,217,0,0,0-35-5.17v1.22a216,216,0,0,1,34.76,5.14C1178.56,147.59,1179.94,147.92,1181.32,148.25Z"/><path d="M1162,205.15a92.34,92.34,0,0,1,18.89-14.36v-1h-.71a93.75,93.75,0,0,0-19,14.49,145.37,145.37,0,0,0-18.2,21.63h1.49A144,144,0,0,1,1162,205.15Z"/><path class="cls-1" d="M1244.58,211.52v-1.25c-1.28-.31-2.57-.62-3.87-.91a218.06,218.06,0,0,0-35-5.18v1.22a215.66,215.66,0,0,1,34.76,5.14C1241.83,210.86,1243.21,211.18,1244.58,211.52Z"/><path class="cls-1" d="M1290.32,78.62a92.55,92.55,0,0,1,18.88-14.36v-1h-.7a93.93,93.93,0,0,0-19,14.49,144.77,144.77,0,0,0-18.2,21.63h1.48A144.66,144.66,0,0,1,1290.32,78.62Z"/><path d="M1309.69,21.73V20.48c-1.29-.31-2.58-.62-3.88-.91a217.94,217.94,0,0,0-35-5.18v1.22a217.11,217.11,0,0,1,34.76,5.14C1306.93,21.07,1308.31,21.39,1309.69,21.73Z"/><path d="M1309.69,148.25V147l-3.88-.91a216.77,216.77,0,0,0-35-5.17v1.22a216,216,0,0,1,34.76,5.14C1306.93,147.59,1308.31,147.92,1309.69,148.25Z"/><path d="M1290.32,205.15a92.55,92.55,0,0,1,18.88-14.36v-1h-.7a93.2,93.2,0,0,0-19,14.49,144.77,144.77,0,0,0-18.2,21.63h1.48A144.11,144.11,0,0,1,1290.32,205.15Z"/></svg>