<svg id="Layer_1" data-name="Layer 1" xmlns="http://www.w3.org/2000/svg" viewBox="0 0 616.88 220.41"><defs><style>.cls-1{fill:#231f20;}.cls-2{fill:#f69333;}</style></defs><path class="cls-1" d="M484,65a5.72,5.72,0,0,1,.11.57,5.44,5.44,0,0,1,0,.57,4.24,4.24,0,0,1-.71,2.42,6.76,6.76,0,0,1-1.92,1.88,13.77,13.77,0,0,1-1.67.93,18.14,18.14,0,0,1-2,.76,16.6,16.6,0,0,1-2.13.54,12.69,12.69,0,0,1-2.21.19,11.3,11.3,0,0,1-3.91-.62,7.64,7.64,0,0,1-2.78-1.73,7.08,7.08,0,0,1-1.65-2.63,9.71,9.71,0,0,1-.55-3.34,11.26,11.26,0,0,1,.41-2.87A19.14,19.14,0,0,1,466,58.8l3.27,1.5c-.14.33-.28.69-.41,1.08s-.24.78-.34,1.16-.17.74-.23,1.08a5.34,5.34,0,0,0-.09.88,3.26,3.26,0,0,0,1.32,2.65,6.4,6.4,0,0,0,4,1,11.56,11.56,0,0,0,3.4-.5,9.77,9.77,0,0,0,2.65-1.21.67.67,0,0,1,.14-.11l-1-.43-1.14-.48L476.52,65c-.34-.14-.62-.25-.83-.32l.85-4.38h7.61V65Z"/><path class="cls-1" d="M499.66,65a6.05,6.05,0,0,1-1.79-.25,6.26,6.26,0,0,1-1.64-.77,14,14,0,0,1-1.65-1.26c-.57-.5-1.19-1.09-1.85-1.78a5.17,5.17,0,0,1-.72,1.57,4.18,4.18,0,0,1-1.49,1.3,9.5,9.5,0,0,1-2.54.87,19.57,19.57,0,0,1-3.83.32,2,2,0,0,1-.55-.07q-.27-.08-.27-.18V60.62c0-.1.09-.17.27-.22a2.51,2.51,0,0,1,.55-.07,20.22,20.22,0,0,0,2.94-.16,5.3,5.3,0,0,0,1.56-.42,1.19,1.19,0,0,0,.64-.61,1.72,1.72,0,0,0,.13-.66,2.64,2.64,0,0,0-.64-1.51,15.19,15.19,0,0,0-1.51-1.67c-.59-.56-1.17-1.09-1.77-1.6a11.36,11.36,0,0,1-1.35-1.34l.07-1.92a4.08,4.08,0,0,1,.52-1.6,5.16,5.16,0,0,1,.62-.78q.36-.29,1.14-.78l1.85-1.14c.71-.43,1.49-.87,2.35-1.34l2.6-1.38c.87-.47,1.73-.9,2.56-1.3s1.59-.76,2.27-1.07v5.16c-.83.36-1.67.74-2.54,1.16l-2.54,1.22q-1.24.61-2.37,1.23L488.63,51c.83.78,1.67,1.6,2.51,2.47s1.79,1.82,2.83,2.86l1.74,1.78a15.91,15.91,0,0,0,1.39,1.25,5.18,5.18,0,0,0,1.25.74,3.32,3.32,0,0,0,1.31.25H500V65ZM485.61,43.54,490,41.23l3.09-1.62,2.12-1.07,1.44-.69v2.24c-.55.24-1.13.51-1.76.82s-1.37.69-2.22,1.14-1.85,1-3,1.6-2.49,1.34-4.06,2.17Z"/><path class="cls-1" d="M500,65a2,2,0,0,1-.55-.07q-.27-.08-.27-.18V60.62c0-.1.09-.17.27-.22a2.43,2.43,0,0,1,.55-.07h3.56V65Z"/><path class="cls-1" d="M503.5,65a2.08,2.08,0,0,1-.55-.07c-.17,0-.26-.11-.26-.18V60.62c0-.1.09-.17.26-.22a2.59,2.59,0,0,1,.55-.07h3.56V65Z"/><path class="cls-1" d="M507.06,65a2,2,0,0,1-.55-.07q-.27-.08-.27-.18V60.62c0-.1.09-.17.27-.22a2.51,2.51,0,0,1,.55-.07h3.56V65Z"/><path class="cls-1" d="M510.62,65a2,2,0,0,1-.55-.07q-.27-.08-.27-.18V60.62c0-.1.09-.17.27-.22a2.51,2.51,0,0,1,.55-.07h3.56V65Z"/><path class="cls-1" d="M514.18,65a2,2,0,0,1-.55-.07q-.27-.08-.27-.18V60.62c0-.1.09-.17.27-.22a2.43,2.43,0,0,1,.55-.07h3.55V65Z"/><path class="cls-1" d="M517.73,65a2,2,0,0,1-.55-.07c-.18,0-.26-.11-.26-.18V60.62c0-.1.08-.17.26-.22a2.51,2.51,0,0,1,.55-.07h3.56V65Z"/><path class="cls-1" d="M521.29,65a2,2,0,0,1-.55-.07q-.27-.08-.27-.18V60.62c0-.1.09-.17.27-.22a2.51,2.51,0,0,1,.55-.07h3.56V65Z"/><path class="cls-1" d="M524.85,65a2,2,0,0,1-.55-.07q-.27-.08-.27-.18V60.62c0-.1.09-.17.27-.22a2.51,2.51,0,0,1,.55-.07h3.56V65Z"/><path class="cls-1" d="M528.41,65a2.1,2.1,0,0,1-.56-.07c-.17,0-.26-.11-.26-.18V60.62c0-.1.09-.17.26-.22a2.6,2.6,0,0,1,.56-.07H532V65Z"/><path class="cls-1" d="M533.1,60.33q2.28,0,2.28-.81a1,1,0,0,0-.16-.4c-.11-.19-.24-.39-.39-.62s-.32-.45-.48-.69l-.39-.57,2.63-3.67c.16.22.38.53.64.93a13.11,13.11,0,0,1,1.42,3.09,6.54,6.54,0,0,1,.29,1.93,5.25,5.25,0,0,1-1.5,4A6.12,6.12,0,0,1,533.1,65H532a2,2,0,0,1-.55-.07q-.27-.08-.27-.18V60.62c0-.1.09-.17.27-.22a2.51,2.51,0,0,1,.55-.07Zm2.78-8.18-1.41-1c-.46-.32-.93-.64-1.4-1,.38-.47.73-.91,1-1.33s.68-.86,1.08-1.33l1.37,1,1.37,1Z"/><path class="cls-1" d="M552.06,65a10.11,10.11,0,0,1-1.22,3.24,13.71,13.71,0,0,1-2.09,2.65A19.4,19.4,0,0,1,546.1,73c-1,.65-1.91,1.25-2.86,1.79l-3.88-2.91c.74-.43,1.54-.89,2.4-1.37a26.35,26.35,0,0,0,2.49-1.59,19.89,19.89,0,0,0,2.21-1.83A7,7,0,0,0,548,65h-.93a4.7,4.7,0,0,1-3.4-1.16,4.58,4.58,0,0,1-1.19-3.43,7.29,7.29,0,0,1,.38-2.26,8.17,8.17,0,0,1,1-2.12,5.79,5.79,0,0,1,1.56-1.56,3.55,3.55,0,0,1,2-.61,3.46,3.46,0,0,1,2,.59,5.67,5.67,0,0,1,1.5,1.51,9.38,9.38,0,0,1,1,2.08,13,13,0,0,1,.59,2.33h.53V65Zm-4.62-6.87a1.32,1.32,0,0,0-1,.55A1.87,1.87,0,0,0,546,59.8c0,.36.25.53.75.53h2.34a7,7,0,0,0-.19-.76,3,3,0,0,0-.32-.73,1.88,1.88,0,0,0-.48-.53A1,1,0,0,0,547.44,58.09Z"/><path class="cls-1" d="M568.57,65a6.17,6.17,0,0,1-1.8-.25,6.35,6.35,0,0,1-1.63-.77,13.24,13.24,0,0,1-1.66-1.26c-.57-.5-1.18-1.09-1.85-1.78a5.14,5.14,0,0,1-.71,1.57,4.18,4.18,0,0,1-1.49,1.3,9.71,9.71,0,0,1-2.55.87,19.46,19.46,0,0,1-3.82.32,2,2,0,0,1-.55-.07q-.27-.08-.27-.18V60.62c0-.1.09-.17.27-.22a2.51,2.51,0,0,1,.55-.07,20.07,20.07,0,0,0,2.93-.16,5.48,5.48,0,0,0,1.57-.42,1.23,1.23,0,0,0,.64-.61,1.92,1.92,0,0,0,.12-.66,2.57,2.57,0,0,0-.64-1.51,14.24,14.24,0,0,0-1.51-1.67c-.58-.56-1.17-1.09-1.76-1.6a11.36,11.36,0,0,1-1.35-1.34l.07-1.92a4.08,4.08,0,0,1,.52-1.6,5.16,5.16,0,0,1,.62-.78,12.81,12.81,0,0,1,1.14-.78l1.85-1.14c.71-.43,1.49-.87,2.34-1.34l2.6-1.38c.88-.47,1.73-.9,2.56-1.3s1.59-.76,2.28-1.07v5.16c-.83.36-1.68.74-2.54,1.16L562,48.59c-.83.41-1.62.82-2.36,1.23L557.54,51c.83.78,1.67,1.6,2.51,2.47s1.78,1.82,2.83,2.86c.66.69,1.24,1.28,1.74,1.78A14.58,14.58,0,0,0,566,59.34a5.33,5.33,0,0,0,1.24.74,3.41,3.41,0,0,0,1.32.25h.28V65ZM554.52,43.54l4.37-2.31,3.1-1.62c.85-.44,1.56-.79,2.12-1.07l1.44-.69v2.24c-.55.24-1.14.51-1.77.82l-2.22,1.14-3,1.6-4.05,2.17Z"/><path class="cls-1" d="M571.59,60.33a11.47,11.47,0,0,0,2.07-.19,18.34,18.34,0,0,0,2.13-.52,20.49,20.49,0,0,0,2.08-.74A14.17,14.17,0,0,0,579.7,58c-.35-.17-.74-.34-1.15-.52L577.37,57c-.36-.14-.7-.26-1-.35a2.47,2.47,0,0,0-.71-.14,2.14,2.14,0,0,0-1.18.4,5.73,5.73,0,0,0-1,.91L570.6,56q.31-.47.87-1.14a10.44,10.44,0,0,1,1.23-1.26,9,9,0,0,1,1.44-1,3.11,3.11,0,0,1,1.51-.42,5.23,5.23,0,0,1,2,.41c.68.27,1.4.58,2.16.94l1,.5a9.21,9.21,0,0,0,1.48.55,14.91,14.91,0,0,0,2.28.44,23.9,23.9,0,0,0,3.39.15L586.64,60a18.12,18.12,0,0,0-2.1.31,11.43,11.43,0,0,0-1.67.48,10.86,10.86,0,0,0-1.37.62l-1.23.69-1.86,1a17.41,17.41,0,0,1-2,.92,14.65,14.65,0,0,1-2.24.66,12.28,12.28,0,0,1-2.58.25h-2.74a2,2,0,0,1-.55-.07c-.18,0-.26-.11-.26-.18V60.62c0-.1.08-.17.26-.22a2.51,2.51,0,0,1,.55-.07Zm1.89,10.14c.33-.47.66-.92,1-1.33s.67-.86,1-1.34l2.17,1.64,1.53-1.85,1.39,1,1.39,1c-.34.45-.68.89-1,1.33s-.7.87-1,1.3l-2.13-1.64-1.53,1.85ZM576,74.14q.5-.57,1-1.14c.31-.38.62-.75.93-1.1l1.19,1,1.19.92q-.49.6-1,1.23t-1,1.23Z"/><path class="cls-1" d="M609.91,65a8.19,8.19,0,0,1-2.17-.25,4.64,4.64,0,0,1-1.6-.75A4.38,4.38,0,0,1,605,62.72a7.92,7.92,0,0,1-.78-1.71,11.84,11.84,0,0,1-1.92.68,7.75,7.75,0,0,1-1.78.24,3.18,3.18,0,0,1-2.76-1.2,4.88,4.88,0,0,1-.87-2.92,4.58,4.58,0,0,1,.53-2.17,8,8,0,0,1,1.34-1.83,10.65,10.65,0,0,1,1.74-1.48,18.08,18.08,0,0,1,1.76-1.07L602.05,50l3.27-2.42,1.88,10.53a3.4,3.4,0,0,0,.75,1.72,2.7,2.7,0,0,0,2,.55Zm-6.62-7.72a3.82,3.82,0,0,0,0-.41c0-.2-.08-.43-.13-.68s-.09-.47-.12-.67-.07-.34-.09-.41-.37.2-.68.39a7.65,7.65,0,0,0-.9.66,5.65,5.65,0,0,0-.77.78,1,1,0,0,0-.25.77c0,.21.17.32.45.33a3.11,3.11,0,0,0,.92-.1,7,7,0,0,0,1-.32A3.14,3.14,0,0,0,603.29,57.24Z"/><path class="cls-1" d="M611.3,72.25l-1.41-1-1.41-1c.38-.48.73-.92,1-1.34s.69-.86,1.09-1.33c.47.33.93.65,1.37,1l1.37,1Zm-.25-11.92c1.51,0,2.27-.27,2.27-.81a1,1,0,0,0-.16-.4,6,6,0,0,0-.39-.62l-.48-.69-.39-.57,2.63-3.67c.17.22.38.53.64.93a12.6,12.6,0,0,1,1.43,3.09,6.53,6.53,0,0,1,.28,1.93,5.28,5.28,0,0,1-1.49,4A6.15,6.15,0,0,1,611.05,65h-1.14a2,2,0,0,1-.55-.07q-.27-.08-.27-.18V60.62c0-.1.09-.17.27-.22a2.43,2.43,0,0,1,.55-.07Z"/><path class="cls-1" d="M474.33,105.8l-7.5,2.1-.29-1.32,7.47-2.24Z"/><path class="cls-1" d="M469.74,101a11.83,11.83,0,0,1-2.72-.32,7.11,7.11,0,0,1-2.36-1L466,97.33a4,4,0,0,0,1.85.82,12,12,0,0,0,2.06.18c.43,0,.9,0,1.41-.08a5,5,0,0,0,1.42-.32,3,3,0,0,0,1.12-.71,1.65,1.65,0,0,0,.46-1.24,3.1,3.1,0,0,0-.55-1.76,7.69,7.69,0,0,0-1.33-1.53,12.89,12.89,0,0,0-1.67-1.27l-1.53-1,1.06-2.7a27.28,27.28,0,0,1,2.19,1.65,13.64,13.64,0,0,1,1.92,2,9.46,9.46,0,0,1,1.35,2.26,6.46,6.46,0,0,1,.52,2.6,3.84,3.84,0,0,1-.62,2.24,5.06,5.06,0,0,1-1.59,1.46,6.79,6.79,0,0,1-2.11.8A11.65,11.65,0,0,1,469.74,101Z"/><path class="cls-1" d="M484.65,100.46a7.47,7.47,0,0,1-.89,3.27,13,13,0,0,1-2,2.83,16.85,16.85,0,0,1-2.69,2.31,22.25,22.25,0,0,1-2.81,1.69l-1.64-1.85a26.35,26.35,0,0,0,2.76-1.51,17.53,17.53,0,0,0,2.42-1.81,10.89,10.89,0,0,0,1.81-2.08,5.68,5.68,0,0,0,.91-2.35,4.59,4.59,0,0,0-.48-2.14,14.05,14.05,0,0,0-1.08-1.74l1.77-2c.31.43.58.84.82,1.23a7.21,7.21,0,0,0,.75,1,3.63,3.63,0,0,0,.85.73,2.14,2.14,0,0,0,1.14.29V101A3,3,0,0,1,484.65,100.46Z"/><path class="cls-1" d="M485.43,98.57c0-.09.09-.15.27-.19a2.5,2.5,0,0,1,.55,0h3.27a12.45,12.45,0,0,0,1.57-.11,7.44,7.44,0,0,0,1.53-.37,3.19,3.19,0,0,0,1.17-.75,1.74,1.74,0,0,0,.47-1.26V95.6a.85.85,0,0,0,0-.23,9.46,9.46,0,0,1-1.49.57,5.45,5.45,0,0,1-1.46.22,2.6,2.6,0,0,1-1.8-.66,2.88,2.88,0,0,1-.73-2.23,6.75,6.75,0,0,1,.29-1.76,8.48,8.48,0,0,1,.8-1.92A6.7,6.7,0,0,1,491,88a2.11,2.11,0,0,1,1.46-.64,2.13,2.13,0,0,1,1.67.86,7.4,7.4,0,0,1,1.17,2,13.42,13.42,0,0,1,.7,2.42,11.94,11.94,0,0,1,.23,2q0,6.22-6.41,6.23h-3.59a2,2,0,0,1-.55-.07q-.27-.08-.27-.18Zm6.9-13.8L490,83.13,491.77,81l2.31,1.64Zm-.6,8.9a3.34,3.34,0,0,0,1.07-.2,5.75,5.75,0,0,0,1-.44c-.07-.31-.16-.65-.26-1a6.25,6.25,0,0,0-.38-1,2.54,2.54,0,0,0-.5-.73A.87.87,0,0,0,492,90a.81.81,0,0,0-.55.23,2.42,2.42,0,0,0-.48.59,3.48,3.48,0,0,0-.35.78,2.46,2.46,0,0,0-.15.82,1.33,1.33,0,0,0,.29.85A1.15,1.15,0,0,0,491.73,93.67Z"/><path class="cls-1" d="M518,101a5.06,5.06,0,0,1-3.54-1A5.86,5.86,0,0,1,513,96.76l0-.14a6.87,6.87,0,0,1-1.94.94,7.36,7.36,0,0,1-2.29.37,3,3,0,0,1-1.8-.48,2.38,2.38,0,0,1-.9-1.19,3.07,3.07,0,0,1-.11-1.58,4.61,4.61,0,0,1,.57-1.62,11.59,11.59,0,0,1,4.94-4.2l-.35-2,1.95-1.5,1.71,8.75c.14.67.29,1.26.43,1.78a4.72,4.72,0,0,0,.55,1.32,2.22,2.22,0,0,0,.87.8,3.1,3.1,0,0,0,1.39.27h.25V101Zm-6.19-9.89a9.11,9.11,0,0,0-2.92,2c-.71.71-1,1.28-.8,1.69s.71.56,1.59.45a7.56,7.56,0,0,0,1.63-.43,4,4,0,0,0,1.14-.61Z"/><path class="cls-1" d="M519.26,108.07,517,106.44l1.75-2.17L521,105.9Zm-1.88-9.5c0-.09.09-.15.27-.19a2.45,2.45,0,0,1,.55,0h.71a5.11,5.11,0,0,0,2.22-.41,1.37,1.37,0,0,0,.84-1.3,2.57,2.57,0,0,0-.52-1.44c-.34-.51-.67-1-1-1.37l1.82-2a8.18,8.18,0,0,1,1.32,2.1,6.85,6.85,0,0,1,.49,2.45q0,4.56-5.33,4.56h-.57a2,2,0,0,1-.55-.07q-.27-.08-.27-.18Z"/><path class="cls-1" d="M540.29,100.46a7.47,7.47,0,0,1-.89,3.27,13.08,13.08,0,0,1-2,2.83,16.35,16.35,0,0,1-2.68,2.31,22.25,22.25,0,0,1-2.81,1.69l-1.64-1.85A26.35,26.35,0,0,0,533,107.2a18.16,18.16,0,0,0,2.42-1.81,10.89,10.89,0,0,0,1.81-2.08,5.68,5.68,0,0,0,.91-2.35,4.59,4.59,0,0,0-.48-2.14,13,13,0,0,0-1.09-1.74l1.78-2c.31.43.58.84.82,1.23a7.21,7.21,0,0,0,.75,1,3.63,3.63,0,0,0,.85.73,2.14,2.14,0,0,0,1.14.29V101A3,3,0,0,1,540.29,100.46Z"/><path class="cls-1" d="M564.8,101a3.7,3.7,0,0,1-3.45-1.57l0,0a9,9,0,0,1-2.1.9,18.17,18.17,0,0,1-2.32.54,20.72,20.72,0,0,1-2.33.25c-.77,0-1.48,0-2.15,0-.9,0-1.72,0-2.47,0a12.33,12.33,0,0,1-2-.22,4.89,4.89,0,0,1-1.51-.55,2.55,2.55,0,0,1-1-1.08A3,3,0,0,1,542.6,101h-.71a2,2,0,0,1-.55-.07q-.27-.08-.27-.18V98.57c0-.09.09-.15.27-.19a2.5,2.5,0,0,1,.55,0h.18a2.3,2.3,0,0,0,2-.75,5,5,0,0,0,.53-2.74l2.1-.71a12.4,12.4,0,0,0,.18,2.2A2.39,2.39,0,0,0,547.8,98a4.16,4.16,0,0,0,1.88.48q1.5-1.81,2.83-3.27a22.61,22.61,0,0,1,2.65-2.51,10.91,10.91,0,0,1,2.63-1.6,7.08,7.08,0,0,1,2.78-.56,3.46,3.46,0,0,1,1.42.31,4.47,4.47,0,0,1,1.21.8,3.64,3.64,0,0,1,.84,1.17,3.48,3.48,0,0,1,.3,1.42,5.89,5.89,0,0,1-.32,2,7.22,7.22,0,0,1-.82,1.59,3.08,3.08,0,0,0,1.85.5H566V101Zm-5.55-7.79a3.84,3.84,0,0,0-1.92.57,12.92,12.92,0,0,0-2,1.4,25,25,0,0,0-1.81,1.75l-1.49,1.58h.28l1.71,0c.66,0,1.35,0,2.08-.11s1.44-.14,2.15-.26a8.18,8.18,0,0,0,1.9-.54,4,4,0,0,0,1.36-.9,1.92,1.92,0,0,0,.51-1.34,2,2,0,0,0-.25-1,1.76,1.76,0,0,0-.66-.64,3.57,3.57,0,0,0-.9-.34A4.92,4.92,0,0,0,559.25,93.17Z"/><path class="cls-1" d="M566,101a2.08,2.08,0,0,1-.55-.07c-.17,0-.26-.11-.26-.18V98.57c0-.09.09-.15.26-.19a2.56,2.56,0,0,1,.55,0h3.31V101Z"/><path class="cls-1" d="M569.28,101a2,2,0,0,1-.55-.07q-.27-.08-.27-.18V98.57c0-.09.09-.15.27-.19a2.5,2.5,0,0,1,.55,0h3.31V101Z"/><path class="cls-1" d="M590.7,101a5.25,5.25,0,0,1-2-.32,3.27,3.27,0,0,1-1.24-.89,4.22,4.22,0,0,1-.75-1.33,16.41,16.41,0,0,1-.48-1.66l-2.72,1.44q-1.37.73-2.79,1.35a19.78,19.78,0,0,1-2.88,1,11.46,11.46,0,0,1-3,.39h-2.31a2,2,0,0,1-.55-.07q-.27-.08-.27-.18V98.57c0-.09.09-.15.27-.19a2.5,2.5,0,0,1,.55,0h2.28a13,13,0,0,0,3-.32,19.16,19.16,0,0,0,2.56-.8c.81-.32,1.6-.68,2.37-1.07s1.57-.78,2.4-1.16c-1.71-.71-3.1-1.27-4.18-1.67a8.28,8.28,0,0,0-2.12-.6,1.8,1.8,0,0,0-1.05.32,5,5,0,0,0-1.08,1.06l-1.64-.82c1.19-2.22,2.36-3.34,3.52-3.34a6.42,6.42,0,0,1,2.32.53c.87.36,1.8.76,2.77,1.2s2,.83,3,1.19a9.76,9.76,0,0,0,3.1.53,6.59,6.59,0,0,0,1.64-.21l-.57,2.52a7.74,7.74,0,0,0-3.35.57A2.37,2.37,0,0,0,588.85,98a7.05,7.05,0,0,0,2.49.36h1.78V101Z"/><path class="cls-1" d="M601.16,101a5.53,5.53,0,0,1-2.76-.54,3.08,3.08,0,0,1-1.33-1.6,4.08,4.08,0,0,1-1.69,1.64,4.78,4.78,0,0,1-2.12.5h-.14a2,2,0,0,1-.55-.07q-.27-.08-.27-.18V98.57c0-.09.09-.15.27-.19a2.45,2.45,0,0,1,.55,0,4.35,4.35,0,0,0,2.26-.59,2.16,2.16,0,0,0,1-2V94.59l1.85-.68a11.56,11.56,0,0,0,.14,2,3.22,3.22,0,0,0,.51,1.37,2.18,2.18,0,0,0,1,.79,4.94,4.94,0,0,0,1.69.25V101Zm-3.92-9.25-2.34-1.64,1.78-2.17L599,89.54Z"/><path class="cls-1" d="M600.77,98.57c0-.09.09-.15.26-.19a2.56,2.56,0,0,1,.55,0h.54a3.22,3.22,0,0,0,.76-.09,5.31,5.31,0,0,0,.55-.16,2.54,2.54,0,0,0,1.11-.86,7.91,7.91,0,0,0,.83-1.37c.25-.51.48-1,.7-1.58a9,9,0,0,1,.73-1.49,4.46,4.46,0,0,1,.92-1.11,2,2,0,0,1,1.26-.42,2.37,2.37,0,0,1,1.64.65,5.37,5.37,0,0,1,1.18,1.61,9.36,9.36,0,0,1,.69,2,8.94,8.94,0,0,1,.23,1.83,6,6,0,0,1-.14,1.24,4.86,4.86,0,0,1-.43,1.18,2.46,2.46,0,0,1-.76.87,1.88,1.88,0,0,1-1.12.34,3.43,3.43,0,0,1-1.11-.21,9.7,9.7,0,0,1-1.19-.54c-.39-.21-.76-.44-1.12-.67a8.49,8.49,0,0,1-.89-.68,4.08,4.08,0,0,1-1.42,1.56,4.37,4.37,0,0,1-2.35.54h-.61a2.08,2.08,0,0,1-.55-.07c-.17,0-.26-.11-.26-.18ZM607,96.76q.7.49,1.47.93a2.79,2.79,0,0,0,1.27.42.6.6,0,0,0,.57-.39,2.28,2.28,0,0,0,.17-.89,4.61,4.61,0,0,0-.1-1A3.77,3.77,0,0,0,610,95a2.72,2.72,0,0,0-.5-.67.87.87,0,0,0-.61-.27,1.48,1.48,0,0,0-.9.57A5.62,5.62,0,0,0,607,96.76Z"/><path class="cls-1" d="M467.33,136.26a4.32,4.32,0,0,1-1.55-1.79,7.24,7.24,0,0,1-.64-2.49c-.09-.93-.13-1.84-.13-2.74v-13.7l2.24-1.49,0,16.29a13.87,13.87,0,0,0,.07,1.46,3.47,3.47,0,0,0,.37,1.28,2.28,2.28,0,0,0,.91.91,3.42,3.42,0,0,0,1.64.34V137A5,5,0,0,1,467.33,136.26Z"/><path class="cls-1" d="M469.39,134.57c0-.09.09-.15.27-.19a2.45,2.45,0,0,1,.55,0H474a2.25,2.25,0,0,0,.4,0,5.24,5.24,0,0,1-1.26-1.28,2.8,2.8,0,0,1-.44-1.6A3.43,3.43,0,0,1,473,130a6.26,6.26,0,0,1,.88-1.37,6.54,6.54,0,0,1,1.21-1.14,10.29,10.29,0,0,1,1.31-.82,3.39,3.39,0,0,0-.5-.37,5.48,5.48,0,0,1-.46-.34l1.07-2.49c.78.59,1.59,1.24,2.44,1.94a28,28,0,0,1,2.38,2.24,20.34,20.34,0,0,1,2,2.45,9.32,9.32,0,0,1,1.26,2.58,7.11,7.11,0,0,1,.34,2.25,4,4,0,0,1-.44,1.88,2.16,2.16,0,0,1-1.28,1.05,3.38,3.38,0,0,1-2.17-.23q-.9-.36-1.92-.84l-1.89-.9a7.18,7.18,0,0,1-2,.83,8,8,0,0,1-2.06.27h-3a2,2,0,0,1-.55-.07q-.27-.07-.27-.18Zm7-2a2.41,2.41,0,0,1,.41.22c.15.09.33.19.52.28l.3-.25a1.08,1.08,0,0,1,.19-.14,1.9,1.9,0,0,0,.59-.87,3.11,3.11,0,0,0,.2-1,3.56,3.56,0,0,0-.09-.76,2.72,2.72,0,0,0-.29-.75,1.83,1.83,0,0,0-.48-.55,1,1,0,0,0-.64-.21,1.74,1.74,0,0,0-.8.21,2.67,2.67,0,0,0-.74.57,3.68,3.68,0,0,0-.57.76,1.56,1.56,0,0,0-.24.77,1.3,1.3,0,0,0,.52,1A6.58,6.58,0,0,0,476.36,132.58Zm4-2.45a6.44,6.44,0,0,1-.27,2.15,6.64,6.64,0,0,1-.83,1.76l1.47.69c.44.21.76.34.95.41.66.22,1.06.1,1.19-.35a2.33,2.33,0,0,0-.27-1.64,9,9,0,0,0-.94-1.47C481.29,131.17,480.86,130.65,480.38,130.13Z"/><path class="cls-1" d="M503.9,128.17a11,11,0,0,1,1.62,3.38,10.65,10.65,0,0,1,.39,3.42,8.92,8.92,0,0,1-.75,3.16,8.15,8.15,0,0,1-1.83,2.62,9,9,0,0,1-2.83,1.78,10.15,10.15,0,0,1-3.72.65,8,8,0,0,1-4.52-1.17,6.46,6.46,0,0,1-2.47-3,8.53,8.53,0,0,1-.5-4.06,11.28,11.28,0,0,1,1.41-4.3l1.74.78a10.77,10.77,0,0,0-.92,4.66,4.31,4.31,0,0,0,.94,2.54,5,5,0,0,0,2,1.5,6.92,6.92,0,0,0,2.64.46,7.42,7.42,0,0,0,2.7-.53,6.39,6.39,0,0,0,2.24-1.53,4.94,4.94,0,0,0,1.25-2.51,7.38,7.38,0,0,0-.07-3.2,9.22,9.22,0,0,0-1.43-3.17Zm-6.76.54-2.35-1.64,1.78-2.17,2.31,1.63Z"/><path class="cls-1" d="M512.51,136.26a4.32,4.32,0,0,1-1.55-1.79,7.24,7.24,0,0,1-.64-2.49c-.09-.93-.13-1.84-.13-2.74v-13.7l2.24-1.49,0,16.29a13.87,13.87,0,0,0,.07,1.46,3.47,3.47,0,0,0,.37,1.28,2.34,2.34,0,0,0,.91.91,3.42,3.42,0,0,0,1.64.34V137A5,5,0,0,1,512.51,136.26Z"/><path class="cls-1" d="M515.39,137a2,2,0,0,1-.55-.07q-.27-.07-.27-.18v-2.14c0-.09.09-.15.27-.19a2.45,2.45,0,0,1,.55,0h3.31V137Z"/><path class="cls-1" d="M539.26,137a3.73,3.73,0,0,1-2.07-.48,2.54,2.54,0,0,1-1-1.34,2.94,2.94,0,0,1-1.37,1.45,4.46,4.46,0,0,1-1.9.4,4.31,4.31,0,0,1-2-.46,3.48,3.48,0,0,1-1.43-1.39,3.08,3.08,0,0,1-1.63,1.46,5.83,5.83,0,0,1-2.07.39,4,4,0,0,1-1.86-.44,3,3,0,0,1-1.34-1.41,3.49,3.49,0,0,1-3.38,1.82h-.49a2.1,2.1,0,0,1-.56-.07c-.17,0-.26-.11-.26-.18v-2.14c0-.09.09-.15.26-.19a2.59,2.59,0,0,1,.56,0h.07c2,0,3-1.12,3-3.35l1.78-.64a12.68,12.68,0,0,0,.09,1.55,4.29,4.29,0,0,0,.32,1.26,2,2,0,0,0,.69.86,2.18,2.18,0,0,0,1.25.32,3,3,0,0,0,2-.64,3.19,3.19,0,0,0,.72-2.42V131l1.77-.67c0,.49.07,1,.13,1.47a4.5,4.5,0,0,0,.35,1.3,2.45,2.45,0,0,0,.75.93,2.18,2.18,0,0,0,1.3.35,2.56,2.56,0,0,0,1.28-.28,2,2,0,0,0,.77-.77,3.62,3.62,0,0,0,.37-1.08,7.36,7.36,0,0,0,.11-1.25l1.63-.64c0,.59.06,1.13.11,1.62a3.52,3.52,0,0,0,.34,1.26,1.88,1.88,0,0,0,.78.82,3,3,0,0,0,1.44.29h.5V137Z"/><path class="cls-1" d="M539.4,134.57c0-.09.09-.15.27-.19a2.5,2.5,0,0,1,.55,0h.71a5.08,5.08,0,0,0,2.22-.41,1.37,1.37,0,0,0,.84-1.3,2.57,2.57,0,0,0-.52-1.44c-.34-.51-.67-1-1-1.37l1.81-2a8.18,8.18,0,0,1,1.32,2.1,6.85,6.85,0,0,1,.49,2.45c0,3-1.77,4.56-5.33,4.56h-.57a2,2,0,0,1-.55-.07q-.27-.07-.27-.18Zm4.2-8.64-2.35-1.64,1.78-2.17,2.31,1.64Z"/><path class="cls-1" d="M552.46,136.46l-1.82.5c0-1.28-.09-2.79-.12-4.54s-.07-3.58-.11-5.53-.08-3.92-.12-5.92-.1-3.92-.15-5.75l2.32-.92Z"/><path class="cls-1" d="M579.35,137a2.44,2.44,0,0,1,.8,1.88,3.56,3.56,0,0,1-.66,2,6.23,6.23,0,0,1-1.49,1.44,12.21,12.21,0,0,1-2.17,1.25,13.23,13.23,0,0,1-2.6.87,12.61,12.61,0,0,1-2.81.32,10.16,10.16,0,0,1-4.76-1,6.46,6.46,0,0,1-2.83-2.76,7.52,7.52,0,0,1-.77-4,12.09,12.09,0,0,1,1.46-4.8l1.81.67a11.18,11.18,0,0,0-1,3.49,5.56,5.56,0,0,0,.41,3,4.34,4.34,0,0,0,2,2,7.93,7.93,0,0,0,3.72.75,13.34,13.34,0,0,0,5.94-1.46,7.69,7.69,0,0,0,.8-.48,3.71,3.71,0,0,0,.61-.54,1.1,1.1,0,0,0,.27-.49c0-.16-.06-.27-.25-.34L573.23,137c.17-.59.29-1.07.38-1.42a3.67,3.67,0,0,1,.26-.81.67.67,0,0,1,.34-.33,1.63,1.63,0,0,1,.55-.07h5.41V137Z"/><path class="cls-1" d="M579.35,134.57c0-.09.09-.15.27-.19a2.5,2.5,0,0,1,.55,0h2.31a12.6,12.6,0,0,0,3-.31,13.83,13.83,0,0,0,2.38-.78,21.67,21.67,0,0,0,2.16-1.07c.7-.39,1.45-.76,2.26-1.12l-2.17-.92-1.57-.66c-.43-.18-.78-.31-1.07-.41a2.42,2.42,0,0,0-.67-.14,3.11,3.11,0,0,0-1.25.3,3.68,3.68,0,0,0-1.28,1l-1.6-.71a6.94,6.94,0,0,1,1.94-2.47,3.42,3.42,0,0,1,1.94-.8,5.5,5.5,0,0,1,2.45.66c.88.44,1.89.88,3,1.33.52.24,1,.44,1.42.59a10.09,10.09,0,0,0,1.3.37,11.45,11.45,0,0,0,1.42.22c.51,0,1.12.07,1.83.07l-.6,2.56c-.48,0-.91,0-1.3,0l-1.09.13a7.13,7.13,0,0,0-2.73,1c-.86.53-1.75,1.06-2.69,1.6a21.73,21.73,0,0,1-3.1,1.48,11,11,0,0,1-4,.66h-2.31a2,2,0,0,1-.55-.07q-.27-.07-.27-.18Zm8.26-10.85-2.35-1.63,1.78-2.17,2.31,1.63Z"/><path class="cls-1" d="M606.35,136.46a7.34,7.34,0,0,1-.89,3.27,12.71,12.71,0,0,1-2,2.83,16.85,16.85,0,0,1-2.69,2.31,22.25,22.25,0,0,1-2.81,1.69l-1.63-1.85A27.25,27.25,0,0,0,599,143.2a17.53,17.53,0,0,0,2.42-1.81,11.31,11.31,0,0,0,1.82-2.08,5.8,5.8,0,0,0,.9-2.35,4.59,4.59,0,0,0-.48-2.14,14.05,14.05,0,0,0-1.08-1.74l1.78-2c.3.43.58.84.81,1.23a7.21,7.21,0,0,0,.75,1,3.67,3.67,0,0,0,.86.73,2.08,2.08,0,0,0,1.13.29V137A3,3,0,0,1,606.35,136.46Z"/><path class="cls-1" d="M607.14,134.57c0-.09.08-.15.26-.19a2.5,2.5,0,0,1,.55,0h.72a5.14,5.14,0,0,0,2.22-.41,1.36,1.36,0,0,0,.83-1.3,2.63,2.63,0,0,0-.51-1.44c-.35-.51-.67-1-1-1.37l1.81-2a8.18,8.18,0,0,1,1.32,2.1,6.65,6.65,0,0,1,.5,2.45q0,4.56-5.34,4.56H608a2,2,0,0,1-.55-.07c-.18,0-.26-.11-.26-.18Zm3.16,9.5L608,142.44l1.74-2.17,2.35,1.63Z"/><path class="cls-1" d="M467.33,172.26a4.32,4.32,0,0,1-1.55-1.79,7.24,7.24,0,0,1-.64-2.49c-.09-.93-.13-1.84-.13-2.74v-13.7l2.24-1.49,0,16.29a13.87,13.87,0,0,0,.07,1.46,3.47,3.47,0,0,0,.37,1.28,2.28,2.28,0,0,0,.91.91,3.42,3.42,0,0,0,1.64.34V173A5,5,0,0,1,467.33,172.26Z"/><path class="cls-1" d="M469.39,170.57c0-.09.09-.15.27-.19a2.45,2.45,0,0,1,.55,0H474a2.25,2.25,0,0,0,.4,0,5.24,5.24,0,0,1-1.26-1.28,2.8,2.8,0,0,1-.44-1.6A3.43,3.43,0,0,1,473,166a6.26,6.26,0,0,1,.88-1.37,6.54,6.54,0,0,1,1.21-1.14,10.29,10.29,0,0,1,1.31-.82,3.39,3.39,0,0,0-.5-.37,5.48,5.48,0,0,1-.46-.34l1.07-2.49c.78.59,1.59,1.24,2.44,1.94a28,28,0,0,1,2.38,2.24,20.34,20.34,0,0,1,2,2.45,9.32,9.32,0,0,1,1.26,2.58,7.11,7.11,0,0,1,.34,2.25,4,4,0,0,1-.44,1.88,2.16,2.16,0,0,1-1.28,1.05,3.38,3.38,0,0,1-2.17-.23q-.9-.36-1.92-.84l-1.89-.9a7.18,7.18,0,0,1-2,.83,8,8,0,0,1-2.06.27h-3a2,2,0,0,1-.55-.07q-.27-.07-.27-.18Zm7-2a2.41,2.41,0,0,1,.41.22c.15.09.33.19.52.28l.3-.25a1.08,1.08,0,0,1,.19-.14,1.9,1.9,0,0,0,.59-.87,3.11,3.11,0,0,0,.2-1,3.56,3.56,0,0,0-.09-.76,2.72,2.72,0,0,0-.29-.75,1.83,1.83,0,0,0-.48-.55,1,1,0,0,0-.64-.21,1.74,1.74,0,0,0-.8.21,2.67,2.67,0,0,0-.74.57,3.68,3.68,0,0,0-.57.76,1.56,1.56,0,0,0-.24.77,1.3,1.3,0,0,0,.52,1A6.58,6.58,0,0,0,476.36,168.58Zm4-2.45a6.44,6.44,0,0,1-.27,2.15,6.64,6.64,0,0,1-.83,1.76l1.47.69c.44.21.76.34.95.41.66.22,1.06.1,1.19-.35a2.33,2.33,0,0,0-.27-1.64,9,9,0,0,0-.94-1.47C481.29,167.17,480.86,166.65,480.38,166.13Z"/><path class="cls-1" d="M493.37,172.46a6.74,6.74,0,0,1-.82,3.2,13.45,13.45,0,0,1-2.07,2.85,17.39,17.39,0,0,1-2.72,2.35,22.54,22.54,0,0,1-2.83,1.7l-1.63-1.85a27.33,27.33,0,0,0,2.83-1.56,17.9,17.9,0,0,0,2.54-1.94,10.06,10.06,0,0,0,1.85-2.24,4.87,4.87,0,0,0,.71-2.51,4.09,4.09,0,0,0-.53-2c-.36-.64-.73-1.23-1.1-1.78l1.88-1.89a12.72,12.72,0,0,1,1.44,2.81A8.78,8.78,0,0,1,493.37,172.46Z"/><path class="cls-1" d="M500,172.26a4.32,4.32,0,0,1-1.55-1.79,7.48,7.48,0,0,1-.64-2.49c-.08-.93-.12-1.84-.12-2.74v-13.7l2.24-1.49,0,16.29a13.87,13.87,0,0,0,.07,1.46,3.3,3.3,0,0,0,.38,1.28,2.25,2.25,0,0,0,.9.91,3.45,3.45,0,0,0,1.64.34V173A5.07,5.07,0,0,1,500,172.26Z"/><path class="cls-1" d="M502,170.57c0-.09.09-.15.27-.19a2.5,2.5,0,0,1,.55,0h1.42c2.59,0,3.88-.92,3.88-2.74a3.27,3.27,0,0,0-.66-1.85,13.77,13.77,0,0,0-1.53-1.85,22.9,22.9,0,0,0-1.78-1.66c-.6-.51-1.07-.93-1.4-1.26.07-1.54.28-2.46.64-2.74a52.76,52.76,0,0,1,5.89-3.54q3.46-1.83,7.66-3.68l-.35,2.81a11.59,11.59,0,0,0-1.34.57l-2.06,1c-.77.36-1.58.76-2.44,1.19s-1.66.84-2.42,1.24-1.43.77-2,1.11a14.37,14.37,0,0,0-1.26.78c3.42,2.84,5.12,5.41,5.12,7.68a5,5,0,0,1-.57,2.44,5.18,5.18,0,0,1-1.51,1.74,6.53,6.53,0,0,1-2.15,1,8.84,8.84,0,0,1-2.53.36h-.6a2,2,0,0,1-.55-.07q-.27-.07-.27-.18Z"/><path class="cls-1" d="M512.26,180.71c.92-.47,1.83-1,2.74-1.54a16.5,16.5,0,0,0,2.45-1.84,10.25,10.25,0,0,0,1.85-2.18,6.41,6.41,0,0,0,.93-2.65,7.56,7.56,0,0,1-1.16.46,4.26,4.26,0,0,1-1.26.18,3.63,3.63,0,0,1-2.35-.79,2.91,2.91,0,0,1-1-2.45,6.58,6.58,0,0,1,.27-1.78,7.24,7.24,0,0,1,.76-1.78,5.06,5.06,0,0,1,1.2-1.35,2.49,2.49,0,0,1,1.58-.53,2.79,2.79,0,0,1,2,.73,5.23,5.23,0,0,1,1.28,1.77,8.85,8.85,0,0,1,.68,2.21,12.23,12.23,0,0,1,.2,2,9.73,9.73,0,0,1-.72,3.79,11.79,11.79,0,0,1-1.88,3.13,15.48,15.48,0,0,1-2.7,2.53,24.49,24.49,0,0,1-3.17,2Zm5.8-10.17a4.54,4.54,0,0,0,1.13-.14,2.45,2.45,0,0,0,1-.5,5.89,5.89,0,0,0-.62-1.87,1.56,1.56,0,0,0-2.63-.21,2.2,2.2,0,0,0-.52,1.44,1,1,0,0,0,.52,1A2.57,2.57,0,0,0,518.06,170.54Z"/><path class="cls-1" d="M553.67,173q-3.1,0-3.67-2.67a8.87,8.87,0,0,1-4.89,2.53,41.39,41.39,0,0,1-9,.85c-1,0-2.08,0-3.2-.12a11.85,11.85,0,0,1-3.08-.64,5.63,5.63,0,0,1-2.31-1.57,4.25,4.25,0,0,1-.91-2.86,5.92,5.92,0,0,1,.29-1.82,5.39,5.39,0,0,1,.82-1.6l1.67.46a4.6,4.6,0,0,0-.53,1.27,4.73,4.73,0,0,0-.15,1.19,2,2,0,0,0,.79,1.74,5.17,5.17,0,0,0,1.92.89,12.38,12.38,0,0,0,2.43.34c.87,0,1.66.05,2.37.05s1.57,0,2.49-.05,1.87-.1,2.83-.18,1.9-.2,2.83-.35a16.13,16.13,0,0,0,2.51-.63,7.42,7.42,0,0,0,1.85-.92,2.27,2.27,0,0,0,.9-1.32l.18-1,1.46-.5a7.09,7.09,0,0,0,.55,3.15,2.3,2.3,0,0,0,2.26,1.09h.11V173Zm-14.55,7.11-2.32-1.63,1.75-2.17,2.34,1.63Z"/><path class="cls-1" d="M554.24,173a2.1,2.1,0,0,1-.56-.07c-.17,0-.26-.11-.26-.18v-2.14c0-.09.09-.15.26-.19a2.59,2.59,0,0,1,.56,0h3.3V173Z"/><path class="cls-1" d="M557.54,173a2,2,0,0,1-.55-.07c-.18,0-.26-.11-.26-.18v-2.14c0-.09.08-.15.26-.19a2.5,2.5,0,0,1,.55,0h3.31V173Z"/><path class="cls-1" d="M581.41,173a3.69,3.69,0,0,1-2.06-.48,2.49,2.49,0,0,1-1-1.34,3,3,0,0,1-1.37,1.45,4.51,4.51,0,0,1-1.91.4,4.34,4.34,0,0,1-2-.46,3.51,3.51,0,0,1-1.42-1.39A3.09,3.09,0,0,1,570,172.6a5.74,5.74,0,0,1-2.06.39,4,4,0,0,1-1.87-.44,3,3,0,0,1-1.33-1.41,3.5,3.5,0,0,1-3.38,1.82h-.5a2,2,0,0,1-.55-.07q-.27-.07-.27-.18v-2.14c0-.09.09-.15.27-.19a2.5,2.5,0,0,1,.55,0h.07q3,0,3-3.35l1.77-.64a12.68,12.68,0,0,0,.09,1.55,4.63,4.63,0,0,0,.32,1.26,2,2,0,0,0,.7.86,2.17,2.17,0,0,0,1.24.32,3,3,0,0,0,2-.64,3.24,3.24,0,0,0,.71-2.42V167l1.78-.67c0,.49.07,1,.13,1.47a3.94,3.94,0,0,0,.35,1.3,2.45,2.45,0,0,0,.75.93,2.18,2.18,0,0,0,1.3.35,2.56,2.56,0,0,0,1.28-.28,2,2,0,0,0,.76-.77,3.63,3.63,0,0,0,.38-1.08,7.36,7.36,0,0,0,.1-1.25l1.64-.64c0,.59.06,1.13.11,1.62a3.53,3.53,0,0,0,.33,1.26,1.84,1.84,0,0,0,.79.82,3,3,0,0,0,1.44.29h.5V173Z"/><path class="cls-1" d="M581.56,170.57c0-.09.09-.15.26-.19a2.59,2.59,0,0,1,.56,0h1.42c2.58,0,3.88-.92,3.88-2.74a3.27,3.27,0,0,0-.66-1.85,13.77,13.77,0,0,0-1.53-1.85c-.58-.6-1.18-1.15-1.78-1.66s-1.07-.93-1.41-1.26c.08-1.54.29-2.46.64-2.74a54.66,54.66,0,0,1,5.89-3.54q3.46-1.83,7.67-3.68l-.36,2.81a11.64,11.64,0,0,0-1.33.57c-.61.28-1.29.61-2.06,1s-1.59.76-2.44,1.19-1.66.84-2.42,1.24-1.43.77-2,1.11a14.37,14.37,0,0,0-1.26.78c3.41,2.84,5.12,5.41,5.12,7.68a5,5,0,0,1-.57,2.44,5.18,5.18,0,0,1-1.51,1.74,6.63,6.63,0,0,1-2.15,1A8.84,8.84,0,0,1,583,173h-.6a2.1,2.1,0,0,1-.56-.07c-.17,0-.26-.11-.26-.18Z"/><path class="cls-1" d="M604.5,172.26a4.29,4.29,0,0,1-1.54-1.79,7.48,7.48,0,0,1-.65-2.49c-.08-.93-.12-1.84-.12-2.74v-13.7l2.24-1.49,0,16.29a13.87,13.87,0,0,0,.07,1.46,3.29,3.29,0,0,0,.37,1.28,2.22,2.22,0,0,0,.91.91,3.41,3.41,0,0,0,1.63.34V173A5.07,5.07,0,0,1,604.5,172.26Z"/><path class="cls-1" d="M604.25,178.47l1.53-1.95,2.1,1.53,1.5-1.78,2.1,1.53-1.61,1.92-2-1.57L606.39,180Zm2.32-7.9c0-.09.08-.15.26-.19a2.5,2.5,0,0,1,.55,0h.72a5.14,5.14,0,0,0,2.22-.41,1.37,1.37,0,0,0,.84-1.3,2.65,2.65,0,0,0-.52-1.44c-.34-.51-.67-1-1-1.37l1.82-2a8.41,8.41,0,0,1,1.31,2.1,6.65,6.65,0,0,1,.5,2.45q0,4.56-5.34,4.56h-.57a2,2,0,0,1-.55-.07c-.18,0-.26-.11-.26-.18Z"/><path class="cls-1" d="M18.8,91.31a7.11,7.11,0,0,0-2.72-.39,4.14,4.14,0,0,0-1.25.21,5.2,5.2,0,0,0-1.19.56,4.09,4.09,0,0,0-.91.75,1.3,1.3,0,0,0-.36.84.59.59,0,0,0,.49.58,6.24,6.24,0,0,0,1.25.19l1.61.12a6.06,6.06,0,0,1,1.61.33,2.73,2.73,0,0,1,1.24.82,2.28,2.28,0,0,1,.5,1.57,6,6,0,0,1-1,3.41,8.62,8.62,0,0,1-2.49,2.47,12.23,12.23,0,0,1-3.33,1.49,13.1,13.1,0,0,1-3.53.51,11.7,11.7,0,0,1-3.63-.51,7.11,7.11,0,0,1-2.57-1.41A5.73,5.73,0,0,1,1,100.7,7,7,0,0,1,.49,98a10.2,10.2,0,0,1,.38-2.64A12,12,0,0,1,2,92.59l2.6.89a9.84,9.84,0,0,0-.77,1.8A5.65,5.65,0,0,0,3.58,97a3.91,3.91,0,0,0,.31,1.58,3.24,3.24,0,0,0,1,1.26,5.2,5.2,0,0,0,1.75.86,9.51,9.51,0,0,0,2.55.31,11.11,11.11,0,0,0,2.26-.27,15.86,15.86,0,0,0,2.42-.68,9.54,9.54,0,0,0,1.92-1c.52-.36.78-.72.78-1.07s-.12-.33-.37-.41a5.35,5.35,0,0,0-1-.18l-1.55-.12c-.58,0-1.2-.09-1.85-.18a2.51,2.51,0,0,1-1.66-.82,2.57,2.57,0,0,1-.54-1.7,6.35,6.35,0,0,1,.64-2.81,8.13,8.13,0,0,1,1.67-2.33,8,8,0,0,1,2.35-1.59,6.31,6.31,0,0,1,2.66-.59,5.56,5.56,0,0,1,1.41.18,5.26,5.26,0,0,1,1.35.57Z"/><path class="cls-1" d="M25.52,97.89a4,4,0,0,1-1.61-1.49,6.16,6.16,0,0,1-.79-2.27,22.07,22.07,0,0,1-.25-2.85q0-.72-.06-2.07c0-.9,0-1.87-.07-2.92s0-2.13-.08-3.23-.06-2.13-.08-3.07l3.22-1.31v13a3.46,3.46,0,0,0,.59,2.22,2.28,2.28,0,0,0,1.9.74v3.8A6,6,0,0,1,25.52,97.89Z"/><path class="cls-1" d="M27.53,94.89c0-.09.09-.15.25-.2a2.1,2.1,0,0,1,.51-.06h2.82A3,3,0,0,1,30.52,93a4.06,4.06,0,0,1,.71-2.21,6.91,6.91,0,0,1,1.65-1.82l-.72-.46L33.74,85c.65.46,1.48,1.06,2.48,1.81a28.69,28.69,0,0,1,2.88,2.48,18.06,18.06,0,0,1,2.4,2.85,5.48,5.48,0,0,1,1,2.94,7.69,7.69,0,0,1-.23,2,4.47,4.47,0,0,1-.64,1.51,2.58,2.58,0,0,1-.95.89,1.39,1.39,0,0,1-1.13.08,16.44,16.44,0,0,1-2.28-.79c-.84-.35-1.68-.74-2.51-1.18a8.38,8.38,0,0,1-2.07.64,10.91,10.91,0,0,1-1.81.18H28.29a2.1,2.1,0,0,1-.51-.06c-.16-.05-.25-.1-.25-.17Zm6.08-1.15a8.18,8.18,0,0,0,1,.59,2.17,2.17,0,0,0,1.57-2.07,1.12,1.12,0,0,0-.16-.57,2.46,2.46,0,0,0-.39-.51,2.16,2.16,0,0,0-.51-.36,1.15,1.15,0,0,0-.48-.13,1.12,1.12,0,0,0-.59.18,2.63,2.63,0,0,0-.56.46,2.36,2.36,0,0,0-.42.59,1.23,1.23,0,0,0-.17.54A2.23,2.23,0,0,0,33,93,1.39,1.39,0,0,0,33.61,93.74Zm4.79,0A4.45,4.45,0,0,1,38,94.92a5.86,5.86,0,0,1-.64,1,8.41,8.41,0,0,0,.81.37c.27.1.53.21.77.32s.55.19.72.23.33-.08.46-.39a2.08,2.08,0,0,0-.23-1.86A7.61,7.61,0,0,0,38.46,93,2.76,2.76,0,0,1,38.4,93.77Z"/><path class="cls-1" d="M64.13,91.31a7.16,7.16,0,0,0-2.73-.39,4,4,0,0,0-1.24.21,5.09,5.09,0,0,0-1.2.56,4.27,4.27,0,0,0-.9.75,1.3,1.3,0,0,0-.36.84.58.58,0,0,0,.49.58,6.12,6.12,0,0,0,1.25.19l1.6.12a6,6,0,0,1,1.61.33,2.82,2.82,0,0,1,1.25.82,2.27,2.27,0,0,1,.49,1.57,6,6,0,0,1-1,3.41,8.65,8.65,0,0,1-2.5,2.47,12,12,0,0,1-3.33,1.49,13,13,0,0,1-3.53.51,11.63,11.63,0,0,1-3.62-.51,7.25,7.25,0,0,1-2.58-1.41,5.73,5.73,0,0,1-1.53-2.15A7,7,0,0,1,45.81,98a10.2,10.2,0,0,1,.38-2.64,11.62,11.62,0,0,1,1.17-2.78l2.59.89a9.84,9.84,0,0,0-.77,1.8A5.65,5.65,0,0,0,48.9,97a3.91,3.91,0,0,0,.31,1.58,3.24,3.24,0,0,0,1,1.26,5.26,5.26,0,0,0,1.76.86,9.43,9.43,0,0,0,2.54.31,11.2,11.2,0,0,0,2.27-.27,16.06,16.06,0,0,0,2.41-.68,9.54,9.54,0,0,0,1.92-1c.52-.36.79-.72.79-1.07s-.13-.33-.38-.41a5.09,5.09,0,0,0-1.05-.18l-1.54-.12q-.87,0-1.86-.18a2.32,2.32,0,0,1-2.2-2.52,6.49,6.49,0,0,1,.64-2.81,8.16,8.16,0,0,1,1.68-2.33,8.08,8.08,0,0,1,2.34-1.59,6.34,6.34,0,0,1,2.66-.59,5.56,5.56,0,0,1,1.41.18,5.26,5.26,0,0,1,1.35.57Z"/><path class="cls-1" d="M74.11,98.43a1.69,1.69,0,0,1-.78-.19,2.83,2.83,0,0,1-.64-.46A10.52,10.52,0,0,1,72,100a13,13,0,0,1-1.26,2.33,15.94,15.94,0,0,1-1.85,2.3,15.09,15.09,0,0,1-2.5,2.08l-3-2.1a14.91,14.91,0,0,0,2.24-1.36,15.82,15.82,0,0,0,2.14-1.84,11.64,11.64,0,0,0,1.61-2.06,4.07,4.07,0,0,0,.64-2,2,2,0,0,0-.2-.83c-.13-.28-.29-.56-.46-.85s-.35-.55-.53-.79l-.42-.59L71,91.51c.25.37.47.74.68,1.11a7.08,7.08,0,0,0,.67,1,3.56,3.56,0,0,0,.79.72,1.85,1.85,0,0,0,1,.28Zm-7.39-10.2L68.36,86l2.14,1.42,1.21-1.68,2.49,1.68-1.64,2.23L70.4,88.23,69.25,89.9Zm1.22-3.65,1.67-2.16L71.91,84,70.3,86.13Z"/><path class="cls-1" d="M73.35,94.89c0-.09.08-.15.25-.2a2.07,2.07,0,0,1,.5-.06h2.17c1.12,0,1.67-.27,1.67-.79a1.17,1.17,0,0,0-.06-.35,2.7,2.7,0,0,0-.26-.5,9.51,9.51,0,0,0-.56-.81l-1-1.23,2.13-3a5.67,5.67,0,0,1,1.59,2.27,7.72,7.72,0,0,1,.58,2.92A5.65,5.65,0,0,1,80,95.46a4.55,4.55,0,0,1-1.21,1.66,5.17,5.17,0,0,1-1.82,1,7.88,7.88,0,0,1-2.27.32H74.1a2.07,2.07,0,0,1-.5-.06c-.17-.05-.25-.1-.25-.17Zm.23-10.08,1.64-2.23L77.35,84l1.22-1.67L81.1,84l-1.68,2.23-2.16-1.41-1.12,1.68Z"/><path class="cls-1" d="M87,98l-3.35.88V80L87,78.68Z"/><path class="cls-1" d="M95.55,98.24a2.83,2.83,0,0,1-.64-.46,7.77,7.77,0,0,1-1.1,2.64,13,13,0,0,1-1.93,2.36,21.15,21.15,0,0,1-2.53,2.09c-.93.65-1.89,1.27-2.87,1.83l-2.79-2.16c.7-.35,1.54-.81,2.53-1.36A29.58,29.58,0,0,0,89,101.35a14.34,14.34,0,0,0,2.28-2,3.13,3.13,0,0,0,.93-2,2,2,0,0,0-.19-.83c-.13-.28-.29-.56-.46-.85s-.35-.55-.53-.79l-.42-.59,2.52-2.72c.24.37.47.74.68,1.11a6.32,6.32,0,0,0,.67,1,3.56,3.56,0,0,0,.79.72,1.84,1.84,0,0,0,1,.28v3.8A1.65,1.65,0,0,1,95.55,98.24Z"/><path class="cls-1" d="M103.48,98.43a2.92,2.92,0,0,1-3-1.7,4.33,4.33,0,0,1-3.84,1.7h-.3a2.22,2.22,0,0,1-.51-.06c-.16-.05-.24-.1-.24-.17V94.89c0-.09.08-.15.24-.2a2.22,2.22,0,0,1,.51-.06h.17q2.46,0,2.46-1.68V91.64l2.69-.85v.82c0,2,.66,3,2,3h.2v3.8ZM96.29,87.21,97.93,85l2.13,1.41,1.22-1.67,2.53,1.67-1.68,2.23L100,87.21l-1.12,1.67Z"/><path class="cls-1" d="M103.05,94.89c0-.09.08-.15.25-.2a2.1,2.1,0,0,1,.51-.06h.32a2.21,2.21,0,0,0,1.48-.5,1.69,1.69,0,0,0,.59-1.41v-1l2.3-.79v1a3.64,3.64,0,0,0,.43,1.92,1.4,1.4,0,0,0,1.28.71c1.53,0,2.29-.69,2.29-2.07V91.31l2.33-.69v1.64a2.55,2.55,0,0,0,.66,1.78,2.17,2.17,0,0,0,1.67.72,1.18,1.18,0,0,0,1.38-1.28,2.82,2.82,0,0,0-.33-1.3,3.19,3.19,0,0,0-.75-1l2.26-2.56a6.34,6.34,0,0,1,1.14,2.07,7.52,7.52,0,0,1,.37,2.36,7.16,7.16,0,0,1-.26,2,5.73,5.73,0,0,1-.77,1.74A4.12,4.12,0,0,1,118.92,98a3.25,3.25,0,0,1-1.76.48A4.89,4.89,0,0,1,115,98a3.06,3.06,0,0,1-1.43-1.39,3.09,3.09,0,0,1-1.25,1.33,3.59,3.59,0,0,1-1.67.5,4.17,4.17,0,0,1-1.89-.42,3.21,3.21,0,0,1-1.33-1.28A3.07,3.07,0,0,1,105.81,98a5.59,5.59,0,0,1-2,.39,2.1,2.1,0,0,1-.51-.06c-.17-.05-.25-.1-.25-.17Z"/><path class="cls-1" d="M127.86,98l-3.34.88V80l3.34-1.31Z"/><path class="cls-1" d="M152.31,98.43a2.38,2.38,0,0,1,.12,1.15,4.3,4.3,0,0,1-.35,1.18,6.42,6.42,0,0,1-2.18,2.5,10.24,10.24,0,0,1-3.23,1.49,11.18,11.18,0,0,1-3.66.36,9.07,9.07,0,0,1-3.43-.85,6.45,6.45,0,0,1-2.53-2.13,6,6,0,0,1-1-3.53,9.28,9.28,0,0,1,.42-2.81,14.42,14.42,0,0,1,1.09-2.51l2.49.89c-.26.57-.51,1.19-.75,1.87A5.79,5.79,0,0,0,139,98a3.74,3.74,0,0,0,.49,2,3.2,3.2,0,0,0,1.31,1.19,5,5,0,0,0,1.86.51,9.06,9.06,0,0,0,2.08,0,12.89,12.89,0,0,0,2.05-.44,11.29,11.29,0,0,0,1.76-.71c.41-.22.63-.4.65-.54s-.06-.25-.26-.31l-3.58-1.22c.05-.17.12-.38.22-.64l.31-.78c.11-.28.22-.54.33-.79a4.17,4.17,0,0,1,.32-.61,2.5,2.5,0,0,1,.76-.79,2.45,2.45,0,0,1,1.12-.19h4.1v3.8Z"/><path class="cls-1" d="M151.72,94.89c0-.09.08-.15.25-.2a2.1,2.1,0,0,1,.51-.06h2.89c.7,0,1.26,0,1.7,0a7.85,7.85,0,0,0,1.43-.21,18.12,18.12,0,0,0,1.9-.59c.76-.27,1.79-.66,3.11-1.17-1.25-.34-2.21-.61-2.89-.78s-1.18-.32-1.51-.43a1.62,1.62,0,0,0-1.2.12,3.36,3.36,0,0,0-.94.77l-2.26-1.55a9.34,9.34,0,0,1,2-2.57,2.73,2.73,0,0,1,2.3-.58,22.07,22.07,0,0,1,2.23.46l2.3.63c.79.22,1.6.43,2.43.64s1.73.39,2.69.54L170,90l1.27.06-1,3.74q-.78-.06-1.38-.06a5.66,5.66,0,0,0-1.11.1,5.6,5.6,0,0,0-1.07.31,8.68,8.68,0,0,0-1.23.61c-1.12.63-2,1.18-2.77,1.64a16.1,16.1,0,0,1-2.15,1.14,10.13,10.13,0,0,1-2.32.69,18.16,18.16,0,0,1-3.26.23h-2.43a2.1,2.1,0,0,1-.51-.06c-.17-.05-.25-.1-.25-.17Z"/><path class="cls-1" d="M177.85,98l-3.35.88V80l3.35-1.31Z"/><path class="cls-1" d="M186.36,98.24a2.83,2.83,0,0,1-.64-.46,7.77,7.77,0,0,1-1.1,2.64,13,13,0,0,1-1.93,2.36,21.15,21.15,0,0,1-2.53,2.09c-.93.65-1.89,1.27-2.87,1.83l-2.79-2.16c.7-.35,1.54-.81,2.53-1.36a29.58,29.58,0,0,0,2.82-1.83,13.91,13.91,0,0,0,2.28-2,3.15,3.15,0,0,0,.94-2,2,2,0,0,0-.2-.83c-.13-.28-.29-.56-.46-.85s-.35-.55-.53-.79l-.42-.59L184,91.51c.25.37.47.74.68,1.11a7.08,7.08,0,0,0,.67,1,3.56,3.56,0,0,0,.79.72,1.85,1.85,0,0,0,1,.28v3.8A1.69,1.69,0,0,1,186.36,98.24Z"/><path class="cls-1" d="M186.38,94.89c0-.09.08-.15.25-.2a2.07,2.07,0,0,1,.5-.06h1.15l.61-.73c.21-.24.43-.48.67-.72q.1-1,.15-2.1c0-.74,0-1.44,0-2.1,0-1.33,0-2.72-.13-4.15s-.22-3-.39-4.84l3.41-1.31V90a15.19,15.19,0,0,1,2.48-1.83,5,5,0,0,1,2.51-.73,3.93,3.93,0,0,1,2.89,1.1,3.69,3.69,0,0,1,1.11,2.74,5.71,5.71,0,0,1-.95,3.33,8.05,8.05,0,0,1-2.35,2.23,9.85,9.85,0,0,1-3,1.25,13.64,13.64,0,0,1-3,.37h-5.16a2.07,2.07,0,0,1-.5-.06c-.17-.05-.25-.1-.25-.17ZM196.75,91a4.15,4.15,0,0,0-2.62,1,34.41,34.41,0,0,0-2.89,2.63h.88c.2,0,.51,0,.92,0s.88-.06,1.4-.11,1-.14,1.57-.25a9.61,9.61,0,0,0,1.48-.41,3.4,3.4,0,0,0,1.1-.62,1.18,1.18,0,0,0,.43-.9.87.87,0,0,0-.25-.64,1.75,1.75,0,0,0-.61-.4,3.13,3.13,0,0,0-.74-.21A4.36,4.36,0,0,0,196.75,91Z"/><path class="cls-1" d="M16.25,133.43a2.38,2.38,0,0,1,.11,1.15,4.28,4.28,0,0,1-.34,1.18,6.53,6.53,0,0,1-2.19,2.5,10.24,10.24,0,0,1-3.23,1.49,11.18,11.18,0,0,1-3.66.36,9.07,9.07,0,0,1-3.43-.85A6.45,6.45,0,0,1,1,137.13a6,6,0,0,1-1-3.53,9,9,0,0,1,.43-2.81,13.67,13.67,0,0,1,1.08-2.51l2.49.89c-.26.57-.51,1.19-.75,1.87A5.79,5.79,0,0,0,2.89,133a3.74,3.74,0,0,0,.49,2,3.26,3.26,0,0,0,1.31,1.19,5,5,0,0,0,1.86.51,9.05,9.05,0,0,0,2.08,0,12.66,12.66,0,0,0,2-.44,10.91,10.91,0,0,0,1.76-.71q.62-.33.66-.54c0-.14-.07-.25-.27-.31l-3.57-1.22a5.16,5.16,0,0,1,.21-.64l.31-.78c.11-.28.22-.54.33-.79a3.35,3.35,0,0,1,.33-.61,2.39,2.39,0,0,1,.75-.79,2.45,2.45,0,0,1,1.12-.19h4.1v3.8Z"/><path class="cls-1" d="M16.41,133.43a2.16,2.16,0,0,1-.51-.06c-.16-.05-.25-.1-.25-.17v-3.31c0-.09.09-.15.25-.2a2.16,2.16,0,0,1,.51-.06h3.28v3.8Z"/><path class="cls-1" d="M19.69,133.43a2.22,2.22,0,0,1-.51-.06c-.16-.05-.24-.1-.24-.17v-3.31c0-.09.08-.15.24-.2a2.22,2.22,0,0,1,.51-.06H23v3.8Z"/><path class="cls-1" d="M23,133.43a2.22,2.22,0,0,1-.51-.06c-.16-.05-.24-.1-.24-.17v-3.31c0-.09.08-.15.24-.2a2.22,2.22,0,0,1,.51-.06h3.29v3.8Z"/><path class="cls-1" d="M26.26,133.43a2.1,2.1,0,0,1-.51-.06c-.17-.05-.25-.1-.25-.17v-3.31c0-.09.08-.15.25-.2a2.1,2.1,0,0,1,.51-.06h3.28v3.8Z"/><path class="cls-1" d="M29.54,133.43a2.1,2.1,0,0,1-.51-.06c-.17-.05-.25-.1-.25-.17v-3.31c0-.09.08-.15.25-.2a2.1,2.1,0,0,1,.51-.06h3.28v3.8Z"/><path class="cls-1" d="M31.74,138.52l2-2.62,2.73,1.83-2,2.66Zm.32-8.63c0-.09.09-.15.25-.2a2.1,2.1,0,0,1,.51-.06H35c1.12,0,1.68-.27,1.68-.79a1,1,0,0,0-.07-.35,2.7,2.7,0,0,0-.26-.5,9.51,9.51,0,0,0-.56-.81l-1-1.23,2.13-3a5.79,5.79,0,0,1,1.6,2.27,7.71,7.71,0,0,1,.57,2.92,5.81,5.81,0,0,1-.44,2.34,4.57,4.57,0,0,1-1.22,1.66,5.09,5.09,0,0,1-1.82,1,7.81,7.81,0,0,1-2.26.32h-.56a2.1,2.1,0,0,1-.51-.06c-.16-.05-.25-.1-.25-.17Z"/><path class="cls-1" d="M45.14,132.89a4.07,4.07,0,0,1-1.61-1.49,6.34,6.34,0,0,1-.78-2.27,19,19,0,0,1-.25-2.85c0-.48,0-1.17-.07-2.07s0-1.87-.06-2.92,0-2.13-.08-3.23-.06-2.13-.09-3.07l3.22-1.31v13a3.52,3.52,0,0,0,.59,2.22,2.32,2.32,0,0,0,1.91.74v3.8A6.05,6.05,0,0,1,45.14,132.89Z"/><path class="cls-1" d="M52.58,137.57l-1.65,2.23-2.13-1.41L47.59,140,45,138.39l1.74-2.26,2.13,1.44,1.18-1.67Zm-5.42-7.68c0-.09.08-.15.25-.2a2.07,2.07,0,0,1,.5-.06h2.17c1.12,0,1.67-.27,1.67-.79a1.17,1.17,0,0,0-.06-.35,2.7,2.7,0,0,0-.26-.5,9.51,9.51,0,0,0-.56-.81L49.92,126l2.13-3a5.67,5.67,0,0,1,1.59,2.27,7.72,7.72,0,0,1,.58,2.92,5.65,5.65,0,0,1-.45,2.34,4.55,4.55,0,0,1-1.21,1.66,5.17,5.17,0,0,1-1.82,1,7.88,7.88,0,0,1-2.27.32h-.56a2.07,2.07,0,0,1-.5-.06c-.17-.05-.25-.1-.25-.17Z"/><path class="cls-1" d="M61,126.48a12.62,12.62,0,0,1,1.36,2.34,6.9,6.9,0,0,1,.51,2.78,7.77,7.77,0,0,1-.49,2.65A12.38,12.38,0,0,1,61,137a15.79,15.79,0,0,1-2.15,2.56,17.61,17.61,0,0,1-2.81,2.22l-2.75-2.2c.72-.42,1.47-.9,2.26-1.46a19.44,19.44,0,0,0,2.18-1.79,9.89,9.89,0,0,0,1.64-2,3.93,3.93,0,0,0,.64-2.11,2.86,2.86,0,0,0-.5-1.48c-.34-.55-.69-1.05-1-1.51Z"/><path class="cls-1" d="M69.51,133l-3.35.88V115l3.35-1.31Z"/><path class="cls-1" d="M75.65,126.48A12.62,12.62,0,0,1,77,128.82a6.9,6.9,0,0,1,.51,2.78,6.43,6.43,0,0,1-.77,3,12.13,12.13,0,0,1-2,2.74A19.84,19.84,0,0,1,72,139.75a36.31,36.31,0,0,1-3.07,2l-2.79-2.2c.72-.35,1.57-.81,2.54-1.38a25.6,25.6,0,0,0,2.79-1.87,16,16,0,0,0,2.27-2.08,3.2,3.2,0,0,0,.93-2,2.88,2.88,0,0,0-.51-1.48c-.34-.55-.68-1.05-1-1.51Zm1.38-4.2-2,2.62-2.73-1.84,2-2.66Z"/><path class="cls-1" d="M83.54,132.89a4,4,0,0,1-1.61-1.49,6.54,6.54,0,0,1-.79-2.27,20.49,20.49,0,0,1-.24-2.85c0-.48-.05-1.17-.07-2.07s0-1.87-.06-2.92,0-2.13-.09-3.23-.06-2.13-.08-3.07l3.22-1.31v13a3.52,3.52,0,0,0,.59,2.22,2.3,2.3,0,0,0,1.9.74v3.8A6,6,0,0,1,83.54,132.89Z"/><path class="cls-1" d="M85.23,138.52l2-2.62,2.72,1.83-2,2.66Zm.33-8.63c0-.09.08-.15.24-.2a2.22,2.22,0,0,1,.51-.06h2.17c1.11,0,1.67-.27,1.67-.79a1.17,1.17,0,0,0-.06-.35,2.89,2.89,0,0,0-.27-.5,9.07,9.07,0,0,0-.55-.81q-.36-.48-1-1.23l2.14-3A5.67,5.67,0,0,1,92,125.2a7.71,7.71,0,0,1,.57,2.92,5.65,5.65,0,0,1-.44,2.34A4.55,4.55,0,0,1,91,132.12a5.17,5.17,0,0,1-1.82,1,7.93,7.93,0,0,1-2.27.32h-.56a2.22,2.22,0,0,1-.51-.06c-.16-.05-.24-.1-.24-.17Z"/><path class="cls-1" d="M98.72,139.54c.7-.35,1.52-.8,2.48-1.35a29.25,29.25,0,0,0,2.75-1.77,14.14,14.14,0,0,0,2.28-2,3.3,3.3,0,0,0,1-2,3.83,3.83,0,0,1-1,.38A5.11,5.11,0,0,1,105,133a3,3,0,0,1-3.55-3.28,7.59,7.59,0,0,1,.25-1.84,6,6,0,0,1,.74-1.73,4.65,4.65,0,0,1,1.21-1.32,2.82,2.82,0,0,1,1.71-.52,3.16,3.16,0,0,1,2.17.75,5.56,5.56,0,0,1,1.36,1.86,8.7,8.7,0,0,1,.7,2.31,12.59,12.59,0,0,1,.2,2.13,7.91,7.91,0,0,1-.67,3.32,10.31,10.31,0,0,1-1.82,2.71,17.54,17.54,0,0,1-2.65,2.29c-1,.71-2,1.4-3.16,2Zm8.24-10a4.08,4.08,0,0,0-.66-1.51,1.4,1.4,0,0,0-1.15-.62,1.32,1.32,0,0,0-1,.42,1.43,1.43,0,0,0-.43,1.05.81.81,0,0,0,.49.79,2.45,2.45,0,0,0,1.09.23,4,4,0,0,0,.9-.11A3.8,3.8,0,0,0,107,129.56Z"/><path class="cls-1" d="M146.11,133.43A6.06,6.06,0,0,1,144,133a9,9,0,0,1-1.94-1,10.14,10.14,0,0,1-1.65-1.42,13.64,13.64,0,0,1-1.35-1.66,3.85,3.85,0,0,1-.71,2.13,5.54,5.54,0,0,1-1.6,1.48,9.36,9.36,0,0,1-2.2.95,17.66,17.66,0,0,1-2.5.54,23.66,23.66,0,0,1-2.43.23c-.77,0-1.46,0-2.05,0q-9.51,0-9.51-5.58a9.56,9.56,0,0,1,1.21-4.13l2.43.72a6.48,6.48,0,0,0-.72,2.23,2,2,0,0,0,.42,1.34,3.36,3.36,0,0,0,1.09.87,5.33,5.33,0,0,0,1.49.51,13.9,13.9,0,0,0,1.67.22c.56,0,1.08.05,1.56.05h1.22c.35,0,.8,0,1.36,0s1.15-.06,1.77-.11a18.54,18.54,0,0,0,1.9-.28,11.41,11.41,0,0,0,1.74-.48,3.93,3.93,0,0,0,1.27-.7,1.42,1.42,0,0,0,.52-1,1.66,1.66,0,0,0-.31-.8,10.14,10.14,0,0,0-.79-1.1,14.25,14.25,0,0,0-1.06-1.2l-1.14-1.17-1-1a3.52,3.52,0,0,1-.56-.66,7.25,7.25,0,0,1,.06-.77,9.83,9.83,0,0,1,.2-1,9.32,9.32,0,0,1,.3-1,1,1,0,0,1,.42-.58,53.51,53.51,0,0,1,5.88-2.51q3.6-1.32,8.6-2.87l-.43,3.65q-3.09.75-6.06,1.62a58.79,58.79,0,0,0-5.85,2,.56.56,0,0,0-.32.21c-.05.1,0,.22.18.35.84.63,1.68,1.34,2.55,2.13s1.79,1.65,2.77,2.6l1.45,1.36a13.33,13.33,0,0,0,1.47,1.2,7.75,7.75,0,0,0,1.61.85,5.14,5.14,0,0,0,1.87.33h1.51v3.8Zm.75-21.17-6,1.94c-1.59.53-2.89,1-3.89,1.33s-1.79.65-2.33.87-1,.41-1.28.56l.36-1.81c1.09-.5,2.74-1.15,4.94-1.93s5-1.74,8.38-2.86Z"/><path class="cls-1" d="M155.5,133.43a2.92,2.92,0,0,1-3-1.7,4.33,4.33,0,0,1-3.84,1.7h-.3a2.22,2.22,0,0,1-.51-.06c-.16-.05-.24-.1-.24-.17v-3.31c0-.09.08-.15.24-.2a2.22,2.22,0,0,1,.51-.06h.17q2.46,0,2.46-1.68v-1.31l2.69-.85v.82c0,2,.65,3,2,3h.19v3.8Zm-1.45-12.17-2,2.62-2.72-1.83,2-2.66Z"/><path class="cls-1" d="M160.49,137.57l-1.65,2.23-2.13-1.41L155.5,140l-2.56-1.64,1.74-2.26,2.13,1.44L158,135.9Zm-5.42-7.68c0-.09.08-.15.25-.2a2.07,2.07,0,0,1,.5-.06H158c1.12,0,1.67-.27,1.67-.79a1.17,1.17,0,0,0-.06-.35,3.51,3.51,0,0,0-.26-.5,9.51,9.51,0,0,0-.56-.81l-.95-1.23,2.13-3a5.67,5.67,0,0,1,1.59,2.27,7.72,7.72,0,0,1,.58,2.92,5.65,5.65,0,0,1-.45,2.34,4.55,4.55,0,0,1-1.21,1.66,5.17,5.17,0,0,1-1.82,1,7.88,7.88,0,0,1-2.27.32h-.56a2.07,2.07,0,0,1-.5-.06c-.17-.05-.25-.1-.25-.17Z"/><path class="cls-1" d="M179.59,133.43a5.28,5.28,0,0,1-2.68-.7,5.06,5.06,0,0,1-1.92-1.92q-1.28,3-5.28,3.05-3.19,0-4.63-1.74l1.18-3a4.41,4.41,0,0,0,1.67.76,9.29,9.29,0,0,0,2.3.29,8.58,8.58,0,0,0,1.35-.1,4.67,4.67,0,0,0,1.16-.31,2.25,2.25,0,0,0,.82-.54,1.1,1.1,0,0,0,.32-.79,1.38,1.38,0,0,0,0-.28c0-.12-.12-.4-.27-.83s-.37-1.11-.69-2-.75-2.14-1.29-3.74l2.62-2.36q1,3.28,1.63,5.32a25.86,25.86,0,0,0,1.11,3.16,3.76,3.76,0,0,0,1.09,1.55,2.58,2.58,0,0,0,1.52.41h.69v3.8Z"/><path class="cls-1" d="M179.49,129.89c0-.09.08-.15.24-.2a2.22,2.22,0,0,1,.51-.06h2.17c1.11,0,1.67-.27,1.67-.79a1.17,1.17,0,0,0-.06-.35,2.89,2.89,0,0,0-.27-.5,9.07,9.07,0,0,0-.55-.81q-.36-.48-1-1.23l2.14-3A5.67,5.67,0,0,1,186,125.2a7.71,7.71,0,0,1,.57,2.92,5.65,5.65,0,0,1-.44,2.34,4.55,4.55,0,0,1-1.21,1.66,5.22,5.22,0,0,1-1.83,1,7.81,7.81,0,0,1-2.26.32h-.56a2.22,2.22,0,0,1-.51-.06c-.16-.05-.24-.1-.24-.17Zm6-11-2,2.63-2.72-1.84,2-2.66Z"/><path class="cls-1" d="M195.06,133.24a2.83,2.83,0,0,1-.64-.46,8,8,0,0,1-1.1,2.64,13,13,0,0,1-1.94,2.36,20.27,20.27,0,0,1-2.52,2.09c-.93.65-1.89,1.27-2.87,1.83l-2.79-2.16c.7-.35,1.54-.81,2.52-1.36a28.52,28.52,0,0,0,2.83-1.83,14.79,14.79,0,0,0,2.28-2,3.13,3.13,0,0,0,.93-2,1.87,1.87,0,0,0-.2-.83c-.13-.28-.28-.56-.45-.85s-.35-.55-.53-.79l-.43-.59,2.53-2.72c.24.37.47.74.67,1.11a7.11,7.11,0,0,0,.68,1,3.75,3.75,0,0,0,.78.72,1.9,1.9,0,0,0,1,.28v3.8A1.65,1.65,0,0,1,195.06,133.24Z"/><path class="cls-1" d="M195.08,129.89c0-.09.08-.15.24-.2a2.22,2.22,0,0,1,.51-.06H198c1.11,0,1.67-.27,1.67-.79a1.17,1.17,0,0,0-.06-.35,3.81,3.81,0,0,0-.27-.5,9.07,9.07,0,0,0-.55-.81c-.25-.32-.56-.73-1-1.23l2.14-3a5.77,5.77,0,0,1,1.59,2.27,7.71,7.71,0,0,1,.57,2.92,5.65,5.65,0,0,1-.44,2.34,4.66,4.66,0,0,1-1.21,1.66,5.22,5.22,0,0,1-1.83,1,7.81,7.81,0,0,1-2.26.32h-.56a2.22,2.22,0,0,1-.51-.06c-.16-.05-.24-.1-.24-.17Zm.72,8.63,2-2.62,2.72,1.83-2,2.66Z"/><path class="cls-2" d="M293,181.25a17.62,17.62,0,0,1-6.9-5.23A29.09,29.09,0,0,1,276,182.6a31.89,31.89,0,0,1-11.6,2.27A35.66,35.66,0,0,1,252.65,183a27.22,27.22,0,0,1-8.65-4.56L252.58,165a9.6,9.6,0,0,0,4.29,1.74,35.72,35.72,0,0,0,7.51.67,28.54,28.54,0,0,0,5.16-.47,23.1,23.1,0,0,0,4.76-1.34,15.44,15.44,0,0,0,3.69-2.07,5.25,5.25,0,0,0,1.94-2.69q-1.47-7.63-2.95-14.28t-3-14.41l12.47-8.85,6.84,35.13a8.54,8.54,0,0,0,3,5.3c1.52,1.2,3.71,1.81,6.57,1.81V183A25,25,0,0,1,293,181.25Z"/><path class="cls-2" d="M307.15,165.57q8.58,0,8.58-3.09a3.88,3.88,0,0,0-.6-1.47c-.41-.72-.9-1.5-1.48-2.35s-1.18-1.72-1.81-2.61-1.12-1.61-1.47-2.15l9.92-13.81c.62.8,1.43,2,2.41,3.49a45.5,45.5,0,0,1,2.88,5.23,47.31,47.31,0,0,1,2.49,6.43,24.69,24.69,0,0,1,1.07,7.24q0,10.07-5.63,15.29T307.15,183h-4.29a8,8,0,0,1-2.08-.27c-.67-.18-1-.4-1-.67V166.64c0-.36.34-.63,1-.81a8.41,8.41,0,0,1,2.08-.26Zm10.46-30.84-5.3-3.69c-1.74-1.21-3.51-2.43-5.3-3.69q2.14-2.67,4-5t4.09-5q2.69,1.88,5.16,3.68t5.16,3.69Z"/><path class="cls-2" d="M353.35,182.6a42.16,42.16,0,0,1-4.62,12,49.26,49.26,0,0,1-7.51,9.85,67.24,67.24,0,0,1-9.59,8.05,112.39,112.39,0,0,1-10.72,6.57L308,208.61q3.63-1.89,9.19-4.9a73.82,73.82,0,0,0,10.66-7,47.76,47.76,0,0,0,8.78-9A17.62,17.62,0,0,0,340.35,177a7.39,7.39,0,0,0-.67-2.88,23.15,23.15,0,0,0-1.61-3q-.94-1.47-1.95-2.88c-.67-.94-1.23-1.76-1.67-2.48l11.26-11.4c.63,1.08,1.34,2.28,2.15,3.62a28.25,28.25,0,0,0,2.61,3.69,16.23,16.23,0,0,0,3,2.82,6.11,6.11,0,0,0,3.62,1.14V183A17.21,17.21,0,0,1,353.35,182.6Z"/><path class="cls-2" d="M422.6,211.83l-28.16,8.58L392.56,214l28.16-8.58Z"/><path class="cls-2" d="M357.11,183a8,8,0,0,1-2.08-.27c-.67-.18-1-.4-1-.67V166.64c0-.36.34-.63,1-.81a8.41,8.41,0,0,1,2.08-.26h13.4V183Z"/><path class="cls-2" d="M370.51,183a7.94,7.94,0,0,1-2.07-.27c-.68-.18-1-.4-1-.67V166.64c0-.36.33-.63,1-.81a8.39,8.39,0,0,1,2.07-.26h13.41V183Z"/><path class="cls-2" d="M383.92,183a8,8,0,0,1-2.08-.27c-.67-.18-1-.4-1-.67V166.64c0-.36.33-.63,1-.81a8.47,8.47,0,0,1,2.08-.26h13.41V183Z"/><path class="cls-2" d="M408,205.09l-5.3-3.69q-2.61-1.8-5.29-3.68,2.14-2.68,3.95-5c1.21-1.57,2.57-3.24,4.09-5q2.69,1.88,5.16,3.69t5.17,3.69Zm-6.33-39.52q8.58,0,8.58-3.09a3.88,3.88,0,0,0-.6-1.47c-.41-.72-.9-1.5-1.48-2.35s-1.18-1.72-1.81-2.61-1.12-1.61-1.47-2.15l9.92-13.81c.62.8,1.43,2,2.41,3.49a45.5,45.5,0,0,1,2.88,5.23,47.31,47.31,0,0,1,2.49,6.43,24.69,24.69,0,0,1,1.07,7.24q0,10.07-5.63,15.29T401.62,183h-4.29a8,8,0,0,1-2.08-.27c-.67-.18-1-.4-1-.67V166.64c0-.36.34-.63,1-.81a8.41,8.41,0,0,1,2.08-.26Z"/><path class="cls-2" d="M284.47,31.92a8.66,8.66,0,0,1-2.16-1.55,27.28,27.28,0,0,1-3.73,9,44.77,44.77,0,0,1-6.56,8,71.45,71.45,0,0,1-8.57,7.06q-4.72,3.34-9.73,6.23l-9.45-7.34q3.55-1.78,8.56-4.62a98.32,98.32,0,0,0,9.57-6.17,49.44,49.44,0,0,0,7.73-6.9Q273.3,32,273.3,28.7a6.69,6.69,0,0,0-.67-2.78,29.33,29.33,0,0,0-1.56-2.9c-.59-1-1.19-1.85-1.78-2.67l-1.44-2,8.56-9.23q1.23,1.89,2.28,3.78A22.77,22.77,0,0,0,281,16.29a11.74,11.74,0,0,0,2.67,2.45,6.15,6.15,0,0,0,3.45,1v12.9A5.58,5.58,0,0,1,284.47,31.92Z"/><path class="cls-2" d="M311.34,32.59q-7.8,0-10.24-5.78-4,5.78-13,5.78h-1a6.62,6.62,0,0,1-1.73-.22c-.55-.15-.83-.34-.83-.56V20.58c0-.3.28-.52.83-.67a6.62,6.62,0,0,1,1.73-.22h.55Q296,19.69,296,14V9.57l9.12-2.9V9.45q0,10.25,6.67,10.24h.67v12.9Zm1.11,14-5.56,7.56-7.23-4.78L295.54,55l-8.68-5.56,5.9-7.68,7.23,4.9,4-5.68Z"/><path class="cls-2" d="M381.59,32.59c-2.45,0-10.84-.43-12.58-1.28a9.68,9.68,0,0,1-4.28-4.5A13.08,13.08,0,0,1,360.16,31a11.45,11.45,0,0,1-5.56,1.45,9.74,9.74,0,0,1-4.89-1.34,11.67,11.67,0,0,1-4.12-4.33,13,13,0,0,1-11.12,5.67,10,10,0,0,1-5-1.34,11.54,11.54,0,0,1-4.17-4.33,11.19,11.19,0,0,1-10.23,5.78h-2.67a6.62,6.62,0,0,1-1.73-.22c-.55-.15-.83-.34-.83-.56V20.58c0-.3.28-.52.83-.67a6.62,6.62,0,0,1,1.73-.22h2.89c3.11,0,4.67-1.86,4.67-5.56v-3.9l7.9-2.78V9.9c0,3.41.55,5.86,1.67,7.34a6.21,6.21,0,0,0,4.78,2.45q6.56,0,6.56-5.56v-3.9l7.9-2.78v3.78c0,3,.5,5.21,1.5,6.51s2.8,2,5.4,2a6.37,6.37,0,0,0,4.5-1.5,5.32,5.32,0,0,0,1.61-4.06v-3.9l7.79-2.78v4.67c0,1.34,0,2.47.11,3.4a5.37,5.37,0,0,0,.67,2.33,3.22,3.22,0,0,0,1.78,1.39c.81.3,8.26.45,9.74.45h1.34v12.9Z"/><path class="cls-2" d="M382,20.58c0-.3.28-.52.84-.67a6.54,6.54,0,0,1,1.72-.22,19.4,19.4,0,0,0,7.62-1.28,9.51,9.51,0,0,0,4.5-3.84c.89-1.48,1.8-3.08,2.73-4.78a36.23,36.23,0,0,1,3.06-4.73,15.8,15.8,0,0,1,3.84-3.61A9,9,0,0,1,411.44,0a8.46,8.46,0,0,1,5.5,1.84,13.88,13.88,0,0,1,3.67,4.5,22.61,22.61,0,0,1,2.06,5.73,25.74,25.74,0,0,1,.67,5.5,24.51,24.51,0,0,1-.45,4.51,14.23,14.23,0,0,1-1.55,4.39,10.72,10.72,0,0,1-2.84,3.34,6.61,6.61,0,0,1-4.17,1.33,16.22,16.22,0,0,1-7.4-1.83,36.81,36.81,0,0,1-6.39-4.06,20.31,20.31,0,0,1-6.68,5.45,20.75,20.75,0,0,1-9.34,1.89,6.54,6.54,0,0,1-1.72-.22c-.56-.15-.84-.34-.84-.56Zm29-10.46q-3.56-.55-5.89,5.56a16,16,0,0,0,3.78,2.62,15.18,15.18,0,0,0,4,1.39,1.77,1.77,0,0,0,2.34-1.56,8.73,8.73,0,0,0-.11-2.34,9.46,9.46,0,0,0-.78-2.5,8,8,0,0,0-1.39-2.06A3.65,3.65,0,0,0,411,10.12Z"/><path class="cls-2" d="M270.18,116.77,245,123.34l-.77-4,24.91-7Z"/><path class="cls-2" d="M293.43,103.76a18,18,0,0,1-9.07-2.39,17.08,17.08,0,0,1-6.5-6.51q-4.35,10.35-17.91,10.35-10.78,0-15.68-5.9l4-10.23a15,15,0,0,0,5.67,2.56,30.64,30.64,0,0,0,7.79,1,29.75,29.75,0,0,0,4.56-.34,16.6,16.6,0,0,0,3.95-1A8.27,8.27,0,0,0,273,89.41a3.75,3.75,0,0,0,1.05-2.67,3.8,3.8,0,0,0-.16-.94c-.11-.41-.41-1.36-.89-2.84s-1.26-3.74-2.34-6.78-2.54-7.27-4.39-12.69l8.9-8q3.44,11.11,5.5,18a90.88,90.88,0,0,0,3.78,10.73,12.78,12.78,0,0,0,3.68,5.23,8.75,8.75,0,0,0,5.17,1.39h2.33v12.9Z"/><path class="cls-2" d="M301.05,103.76c-.59,0-6.42-.07-7-.22s-.84-.34-.84-.56V91.75c0-.3.28-.52.84-.67s6.38-.22,7-.22h11.12v12.9Z"/><path class="cls-2" d="M312.17,103.76a6.54,6.54,0,0,1-1.72-.22c-.56-.15-.84-.34-.84-.56V91.75c0-.3.28-.52.84-.67a6.54,6.54,0,0,1,1.72-.22h11.12v12.9Z"/><path class="cls-2" d="M323.29,103.76a6.54,6.54,0,0,1-1.72-.22c-.56-.15-.84-.34-.84-.56V91.75c0-.3.28-.52.84-.67a6.54,6.54,0,0,1,1.72-.22h11.13v12.9Z"/><path class="cls-2" d="M334.41,103.76a6.6,6.6,0,0,1-1.72-.22c-.56-.15-.83-.34-.83-.56V91.75c0-.3.27-.52.83-.67a6.6,6.6,0,0,1,1.72-.22h11.13v12.9Z"/><path class="cls-2" d="M343,91.75c0-.3.28-.52.83-.67a6.62,6.62,0,0,1,1.73-.22h1.11a7.55,7.55,0,0,0,5-1.67,5.86,5.86,0,0,0,2-4.78V81.18l7.78-2.67V82a12.51,12.51,0,0,0,1.45,6.51,4.75,4.75,0,0,0,4.34,2.39q7.78,0,7.78-7V79.62l7.9-2.33v5.56a8.64,8.64,0,0,0,2.22,6,7.35,7.35,0,0,0,5.68,2.44A4,4,0,0,0,395.48,87a9.56,9.56,0,0,0-1.11-4.39,11,11,0,0,0-2.56-3.39l7.67-8.68a21.5,21.5,0,0,1,3.84,7,25.41,25.41,0,0,1,.39,14.63A20.71,20.71,0,0,1,401.1,98a14.12,14.12,0,0,1-4.34,4.23,11.17,11.17,0,0,1-5.95,1.61,16.89,16.89,0,0,1-7.51-1.61,10.33,10.33,0,0,1-4.84-4.73,10.53,10.53,0,0,1-4.23,4.51,12.11,12.11,0,0,1-5.67,1.72,13.79,13.79,0,0,1-6.39-1.45A10.74,10.74,0,0,1,357.66,98a10.54,10.54,0,0,1-5.34,4.45,18.91,18.91,0,0,1-6.78,1.33,6.62,6.62,0,0,1-1.73-.22c-.55-.15-.83-.34-.83-.56Zm23.13-26,5.57-7.56,7.23,4.78L383,57.27l8.45,5.67-5.56,7.56-7.34-4.78-3.89,5.67Zm4.12-12.35L375.9,46l7.79,5.23-5.45,7.34Z"/><path class="cls-2" d="M417,80.18a43.14,43.14,0,0,1,4.62,7.95,23.55,23.55,0,0,1,1.72,9.4,21.78,21.78,0,0,1-2.61,10.29,41.3,41.3,0,0,1-6.79,9.29,67.94,67.94,0,0,1-9.34,8.06,119.66,119.66,0,0,1-10.4,6.73l-9.46-7.45q3.67-1.78,8.62-4.67a94,94,0,0,0,9.46-6.34,53.06,53.06,0,0,0,7.67-7.07c2.12-2.41,3.17-4.69,3.17-6.84a9.72,9.72,0,0,0-1.72-5c-1.15-1.86-2.32-3.56-3.51-5.12Z"/></svg>