<svg id="Layer_1" data-name="Layer 1" xmlns="http://www.w3.org/2000/svg" viewBox="0 0 80.71 27.77"><defs><style>.cls-1{fill:#231f20;}</style></defs><path class="cls-1" d="M6.23,7.84a2.18,2.18,0,0,1-1.06-.28,2,2,0,0,1-.76-.77A2,2,0,0,1,2.32,8,2.25,2.25,0,0,1,.48,7.32L1,6.12a1.85,1.85,0,0,0,.66.3,3.49,3.49,0,0,0,.91.11,4.75,4.75,0,0,0,.54,0,1.92,1.92,0,0,0,.46-.13,1,1,0,0,0,.33-.21A.45.45,0,0,0,4,5.84a.89.89,0,0,0,0-.11s-.05-.15-.1-.33S3.7,5,3.57,4.61L3.06,3.12l1-.93c.27.86.48,1.57.64,2.11a9.81,9.81,0,0,0,.45,1.25,1.33,1.33,0,0,0,.43.61,1,1,0,0,0,.6.17H6.5V7.84Z"/><path class="cls-1" d="M6.2,6.43s0-.06.09-.08a.75.75,0,0,1,.21,0h.85C7.8,6.33,8,6.22,8,6a.31.31,0,0,0,0-.13,1.22,1.22,0,0,0-.1-.2,3.13,3.13,0,0,0-.22-.32l-.38-.49.85-1.2a2.51,2.51,0,0,1,.63.9A3.07,3.07,0,0,1,9,5.73a2.27,2.27,0,0,1-.17.93,2,2,0,0,1-.48.66,2.22,2.22,0,0,1-.73.39,3.13,3.13,0,0,1-.89.13H6.5a.76.76,0,0,1-.21,0c-.06,0-.09,0-.09-.07ZM8.56,2.06l-.78,1L6.7,2.37l.8-1.06Z"/><path class="cls-1" d="M12.37,7.76a.94.94,0,0,1-.25-.18,3.26,3.26,0,0,1-.44,1,4.88,4.88,0,0,1-.77.94,8.31,8.31,0,0,1-1,.83c-.37.26-.75.5-1.14.73l-1.1-.86,1-.54A10.24,10.24,0,0,0,9.79,9a5.5,5.5,0,0,0,.9-.8,1.24,1.24,0,0,0,.37-.81A.77.77,0,0,0,11,7.06a3.72,3.72,0,0,0-.19-.34l-.2-.32-.17-.23,1-1.08.27.44a3.07,3.07,0,0,0,.26.4,1.67,1.67,0,0,0,.31.29.78.78,0,0,0,.41.11V7.84A.68.68,0,0,1,12.37,7.76Z"/><path class="cls-1" d="M12.38,6.43s0-.06.1-.08a.65.65,0,0,1,.2,0h.86c.44,0,.66-.11.66-.32a.31.31,0,0,0,0-.13.73.73,0,0,0-.1-.2,3.13,3.13,0,0,0-.22-.32l-.38-.49.85-1.2a2.28,2.28,0,0,1,.63.9,3.08,3.08,0,0,1,.23,1.16,2.27,2.27,0,0,1-.18.93,2,2,0,0,1-.48.66,2.17,2.17,0,0,1-.72.39,3.26,3.26,0,0,1-.9.13h-.22a.64.64,0,0,1-.2,0c-.07,0-.1,0-.1-.07Zm.28,3.42.79-1,1.08.73-.8,1.06Z"/><path class="cls-1" d="M25.69,5a2.88,2.88,0,0,0-1.08-.15,1.48,1.48,0,0,0-.49.08,2.62,2.62,0,0,0-.48.22,1.49,1.49,0,0,0-.35.3.49.49,0,0,0-.15.33c0,.12.07.19.2.23a2,2,0,0,0,.49.08l.64,0a2.6,2.6,0,0,1,.64.13,1.12,1.12,0,0,1,.49.33.92.92,0,0,1,.2.62,2.39,2.39,0,0,1-.39,1.36,3.39,3.39,0,0,1-1,1,5,5,0,0,1-1.32.6,5.38,5.38,0,0,1-1.4.2,4.77,4.77,0,0,1-1.44-.2,2.93,2.93,0,0,1-1-.56,2.37,2.37,0,0,1-.61-.86,2.86,2.86,0,0,1-.2-1.06,4,4,0,0,1,.15-1A4.52,4.52,0,0,1,19,5.52l1,.35a3.67,3.67,0,0,0-.3.72,2.09,2.09,0,0,0-.12.69,1.6,1.6,0,0,0,.13.62,1.19,1.19,0,0,0,.4.5,1.86,1.86,0,0,0,.69.34,3.73,3.73,0,0,0,1,.12,4.49,4.49,0,0,0,.9-.1,6.73,6.73,0,0,0,1-.27,3.85,3.85,0,0,0,.76-.39c.21-.14.31-.28.31-.42s0-.13-.15-.16a1.81,1.81,0,0,0-.42-.07l-.61,0c-.23,0-.47,0-.73-.07A1,1,0,0,1,22.24,7,1,1,0,0,1,22,6.33a2.56,2.56,0,0,1,.26-1.12,3.22,3.22,0,0,1,.66-.92,2.94,2.94,0,0,1,.93-.63,2.52,2.52,0,0,1,1.06-.24,2.68,2.68,0,0,1,.56.07,2.24,2.24,0,0,1,.53.23Z"/><path class="cls-1" d="M29.65,7.84a.67.67,0,0,1-.3-.08,1,1,0,0,1-.26-.18,4.1,4.1,0,0,1-.27.87,6,6,0,0,1-.5.93,6.71,6.71,0,0,1-.74.91,5.88,5.88,0,0,1-1,.83l-1.18-.84a6.83,6.83,0,0,0,.89-.54A6,6,0,0,0,27.15,9a4.38,4.38,0,0,0,.63-.82A1.57,1.57,0,0,0,28,7.38.79.79,0,0,0,28,7.06a2.21,2.21,0,0,0-.18-.34c-.07-.12-.14-.22-.21-.32l-.17-.23,1-1.08c.1.15.19.29.27.44a2.33,2.33,0,0,0,.27.4,1.41,1.41,0,0,0,.31.29.75.75,0,0,0,.4.11Zm-2.93-4,.65-.89.85.56.48-.66,1,.66L29,4.35l-.86-.56-.46.66Zm.48-1.45.67-.86.91.62L28.14,3Z"/><path class="cls-1" d="M29.35,6.43s0-.06.1-.08a.65.65,0,0,1,.2,0h.86c.44,0,.66-.11.66-.32a.3.3,0,0,0,0-.13.83.83,0,0,0-.11-.2,2.06,2.06,0,0,0-.22-.32c-.09-.13-.22-.29-.37-.49l.84-1.2a2.28,2.28,0,0,1,.63.9,3.08,3.08,0,0,1,.23,1.16,2.27,2.27,0,0,1-.18.93,1.76,1.76,0,0,1-.48.66,2.08,2.08,0,0,1-.72.39,3.26,3.26,0,0,1-.9.13h-.22a.64.64,0,0,1-.2,0c-.07,0-.1,0-.1-.07Zm.09-4,.65-.88.85.56.48-.67,1,.67L31.76,3l-.86-.56-.44.67Z"/><path class="cls-1" d="M34.78,7.67,33.45,8V.52L34.78,0Z"/><path class="cls-1" d="M38.16,7.76a1,1,0,0,1-.26-.18,3,3,0,0,1-.43,1,5.28,5.28,0,0,1-.77.94,8.31,8.31,0,0,1-1,.83c-.37.26-.75.5-1.14.73l-1.11-.86c.28-.14.61-.32,1-.54A9.36,9.36,0,0,0,35.57,9a5.59,5.59,0,0,0,.91-.8,1.24,1.24,0,0,0,.37-.81.79.79,0,0,0-.08-.32,2.21,2.21,0,0,0-.18-.34c-.07-.12-.14-.22-.21-.32l-.17-.23,1-1.08c.1.15.19.29.27.44a2.33,2.33,0,0,0,.27.4,1.41,1.41,0,0,0,.31.29.75.75,0,0,0,.4.11V7.84A.67.67,0,0,1,38.16,7.76Z"/><path class="cls-1" d="M41.3,7.84a1.17,1.17,0,0,1-1.2-.68,1.72,1.72,0,0,1-1.52.68h-.12a.69.69,0,0,1-.2,0c-.06,0-.1,0-.1-.07V6.43s0-.06.1-.08a.68.68,0,0,1,.2,0h.07c.65,0,1-.23,1-.67V5.14l1.07-.34v.33q0,1.2.78,1.2h.08V7.84ZM38.45,3.38l.65-.88.85.56.48-.66,1,.66-.66.88-.86-.56-.44.67Z"/><path class="cls-1" d="M41.13,6.43s0-.06.1-.08a.65.65,0,0,1,.2,0h.13a.9.9,0,0,0,.59-.2.71.71,0,0,0,.23-.56V5.19l.91-.31v.4a1.52,1.52,0,0,0,.17.77.56.56,0,0,0,.51.28c.61,0,.91-.28.91-.82V5l.92-.27v.65a1,1,0,0,0,.27.7.85.85,0,0,0,.66.29.51.51,0,0,0,.42-.15.53.53,0,0,0,.13-.36,1.2,1.2,0,0,0-.13-.51,1.44,1.44,0,0,0-.3-.4l.89-1a2.63,2.63,0,0,1,.45.82,3,3,0,0,1,.15.94,3,3,0,0,1-.1.78,2.39,2.39,0,0,1-.31.69,1.67,1.67,0,0,1-.5.49,1.29,1.29,0,0,1-.7.19,1.93,1.93,0,0,1-.88-.19,1.27,1.27,0,0,1-.57-.55,1.17,1.17,0,0,1-.49.52,1.42,1.42,0,0,1-.66.21,1.66,1.66,0,0,1-.75-.17,1.3,1.3,0,0,1-.53-.51,1.26,1.26,0,0,1-.62.52,2.33,2.33,0,0,1-.8.16.64.64,0,0,1-.2,0c-.07,0-.1,0-.1-.07Z"/><path class="cls-1" d="M51,7.67,49.64,8V.52L51,0Z"/><path class="cls-1" d="M60.67,7.84a1,1,0,0,1,0,.45,2.1,2.1,0,0,1-.14.47,2.57,2.57,0,0,1-.87,1,3.84,3.84,0,0,1-1.28.59,4.4,4.4,0,0,1-1.45.15,3.94,3.94,0,0,1-1.36-.34,2.58,2.58,0,0,1-1-.85,2.36,2.36,0,0,1-.39-1.4,3.39,3.39,0,0,1,.17-1.11,5,5,0,0,1,.43-1l1,.35c-.1.23-.2.48-.29.75a2.18,2.18,0,0,0-.15.76,1.51,1.51,0,0,0,.2.8,1.24,1.24,0,0,0,.52.47,1.88,1.88,0,0,0,.73.2,3.29,3.29,0,0,0,.83,0,4.31,4.31,0,0,0,.81-.17,5.36,5.36,0,0,0,.7-.28c.16-.09.25-.16.26-.22s0-.1-.1-.12L57.9,7.84A1.23,1.23,0,0,1,58,7.58l.13-.31A2.88,2.88,0,0,1,58.24,7a.89.89,0,0,1,.13-.24.94.94,0,0,1,.3-.32,1,1,0,0,1,.44-.07h1.62V7.84Z"/><path class="cls-1" d="M60.44,6.43s0-.06.09-.08a.71.71,0,0,1,.2,0h1.15l.68,0a3,3,0,0,0,.56-.08A7,7,0,0,0,63.88,6c.3-.1.71-.26,1.23-.46L64,5.22l-.6-.17a.62.62,0,0,0-.47,0,1.17,1.17,0,0,0-.37.3l-.9-.61a3.64,3.64,0,0,1,.79-1,1.11,1.11,0,0,1,.92-.23,6.87,6.87,0,0,1,.88.18l.91.25,1,.25a10.08,10.08,0,0,0,1.07.22l.52,0,.5,0L67.76,6l-.54,0a2.15,2.15,0,0,0-.45,0l-.42.12a4.59,4.59,0,0,0-.49.25c-.44.25-.81.46-1.1.65a6.38,6.38,0,0,1-.85.45,4.12,4.12,0,0,1-.92.27,6.48,6.48,0,0,1-1.29.1h-1l-.2,0c-.06,0-.09,0-.09-.07Z"/><path class="cls-1" d="M70.8,7.67,69.47,8V.52L70.8,0Z"/><path class="cls-1" d="M74.17,7.76a.94.94,0,0,1-.25-.18,3,3,0,0,1-.44,1,4.82,4.82,0,0,1-.76.94,8.43,8.43,0,0,1-1,.83c-.36.26-.74.5-1.13.73l-1.11-.86c.28-.14.61-.32,1-.54A10.24,10.24,0,0,0,71.59,9a5.59,5.59,0,0,0,.91-.8,1.29,1.29,0,0,0,.37-.81.79.79,0,0,0-.08-.32,2.21,2.21,0,0,0-.18-.34c-.07-.12-.14-.22-.21-.32l-.17-.23,1-1.08c.1.15.19.29.27.44a3.07,3.07,0,0,0,.26.4,1.45,1.45,0,0,0,.32.29.72.72,0,0,0,.4.11V7.84A.71.71,0,0,1,74.17,7.76Z"/><path class="cls-1" d="M74.18,6.43s0-.06.1-.08a.65.65,0,0,1,.2,0h.46A3.07,3.07,0,0,1,75.18,6c.08-.1.17-.19.26-.29,0-.26,0-.53.06-.83s0-.57,0-.83c0-.53,0-1.08,0-1.65s-.09-1.21-.16-1.92L76.67,0V4.48a5.71,5.71,0,0,1,1-.72,1.93,1.93,0,0,1,1-.3,1.56,1.56,0,0,1,1.14.44A1.44,1.44,0,0,1,80.23,5a2.25,2.25,0,0,1-.37,1.32,3.38,3.38,0,0,1-.93.88,3.92,3.92,0,0,1-1.21.5,5.32,5.32,0,0,1-1.2.15h-2a.64.64,0,0,1-.2,0c-.07,0-.1,0-.1-.07Zm4.11-1.55a1.72,1.72,0,0,0-1,.4,12.54,12.54,0,0,0-1.14,1h.35l.36,0,.56,0c.2,0,.41-.06.62-.1A4.59,4.59,0,0,0,78.59,6,1.48,1.48,0,0,0,79,5.76a.44.44,0,0,0,.17-.36.32.32,0,0,0-.1-.25A.6.6,0,0,0,78.85,5a1,1,0,0,0-.29-.08Z"/><path class="cls-1" d="M40.91,16H40V14.39H38.42v-1H40V11.88h1v1.54h1.52v1H40.91Z"/><path class="cls-1" d="M5.75,24.49a2.08,2.08,0,0,1-1.06-.28,2,2,0,0,1-.76-.76,2,2,0,0,1-2.09,1.21A2.25,2.25,0,0,1,0,24l.47-1.19a1.69,1.69,0,0,0,.66.29,3.5,3.5,0,0,0,.91.12,3.19,3.19,0,0,0,.54,0A1.64,1.64,0,0,0,3,23a1,1,0,0,0,.32-.22.4.4,0,0,0,.13-.31.89.89,0,0,0,0-.11c0-.05-.05-.16-.11-.33s-.14-.44-.27-.79-.3-.85-.51-1.49l1-.94c.27.87.48,1.58.64,2.11a9.49,9.49,0,0,0,.45,1.26,1.39,1.39,0,0,0,.43.61,1,1,0,0,0,.6.16H6v1.51Z"/><path class="cls-1" d="M5.71,23.09s0-.06.1-.08A.69.69,0,0,1,6,23h.86c.45,0,.67-.1.67-.31a.39.39,0,0,0,0-.14l-.1-.2L7.19,22c-.1-.12-.23-.28-.38-.48l.84-1.2a2.26,2.26,0,0,1,.64.9,3.07,3.07,0,0,1,.22,1.16,2.45,2.45,0,0,1-.17.93,1.87,1.87,0,0,1-.48.65,1.91,1.91,0,0,1-.73.39,2.82,2.82,0,0,1-.89.13H6a.68.68,0,0,1-.2,0c-.06,0-.1,0-.1-.07Zm2.37-4.38L7.3,19.76,6.22,19,7,18Z"/><path class="cls-1" d="M11.89,24.42a1.26,1.26,0,0,1-.25-.19,3.22,3.22,0,0,1-.44,1.05,4.88,4.88,0,0,1-.77.94,9.37,9.37,0,0,1-1,.83q-.55.39-1.14.72l-1.1-.86c.27-.13.61-.31,1-.54a11.86,11.86,0,0,0,1.12-.72,6.54,6.54,0,0,0,.9-.8,1.24,1.24,0,0,0,.37-.81.7.7,0,0,0-.08-.33,3.79,3.79,0,0,0-.18-.34l-.21-.31-.17-.23,1-1.08c.09.14.18.29.26.44a4.62,4.62,0,0,0,.27.4,1.6,1.6,0,0,0,.31.28.7.7,0,0,0,.41.11v1.51A.67.67,0,0,1,11.89,24.42Z"/><path class="cls-1" d="M11.9,23.09s0-.06.09-.08a.76.76,0,0,1,.21,0h.86c.44,0,.66-.1.66-.31a.39.39,0,0,0,0-.14,1.19,1.19,0,0,0-.1-.2L13.37,22,13,21.53l.85-1.2a2.15,2.15,0,0,1,.63.9,3.08,3.08,0,0,1,.23,1.16,2.27,2.27,0,0,1-.18.93A1.87,1.87,0,0,1,14,24a1.94,1.94,0,0,1-.72.39,2.92,2.92,0,0,1-.9.13H12.2a.75.75,0,0,1-.21,0c-.06,0-.09,0-.09-.07Zm.28,3.42.78-1L14,26.2l-.79,1.05Z"/><path class="cls-1" d="M27.69,24.49a1.33,1.33,0,0,1-1.33-.75,2.76,2.76,0,0,1-1.6.84,14.28,14.28,0,0,1-3.09.28,5.45,5.45,0,0,1-2.8-.57A1.77,1.77,0,0,1,18,22.71a2.62,2.62,0,0,1,.13-.8,7.66,7.66,0,0,1,.36-.9l1,.28a4.68,4.68,0,0,0-.18.48,1.34,1.34,0,0,0-.08.48.77.77,0,0,0,.27.63,1.72,1.72,0,0,0,.72.33,4.27,4.27,0,0,0,1,.13l1.13,0,1.1,0a7.37,7.37,0,0,0,1.18-.12,3.53,3.53,0,0,0,1-.31.66.66,0,0,0,.38-.59V22L27,21.64a6.21,6.21,0,0,0,0,.69.86.86,0,0,0,.14.41.5.5,0,0,0,.29.19,1.75,1.75,0,0,0,.5.05h0v1.51ZM20.9,20.11l.66-.89.84.56.48-.66,1,.66-.67.89-.86-.56-.44.66Z"/><path class="cls-1" d="M29.78,26.13l-.65.89-.85-.56-.48.65-1-.65.69-.9.84.57.47-.66Zm-2.15-3s0-.06.1-.08a.69.69,0,0,1,.2,0h.86c.45,0,.67-.1.67-.31a.39.39,0,0,0,0-.14l-.1-.2L29.1,22l-.37-.48.84-1.2a2.15,2.15,0,0,1,.63.9,2.89,2.89,0,0,1,.23,1.16,2.45,2.45,0,0,1-.17.93,1.87,1.87,0,0,1-.48.65,1.91,1.91,0,0,1-.73.39,2.84,2.84,0,0,1-.9.13h-.22a.68.68,0,0,1-.2,0c-.06,0-.1,0-.1-.07Z"/><path class="cls-1" d="M34.92,24.49a3.25,3.25,0,0,1-.48,1,6.08,6.08,0,0,1-.76.86,8.35,8.35,0,0,1-1,.78,12.1,12.1,0,0,1-1.08.67l-1.1-.86.84-.45c.32-.18.64-.38,1-.59a9,9,0,0,0,.87-.67,2.42,2.42,0,0,0,.58-.71,7.3,7.3,0,0,1-.84,0,1.79,1.79,0,0,1-.65-.23,1.15,1.15,0,0,1-.43-.47,1.75,1.75,0,0,1-.15-.78,2.47,2.47,0,0,1,.1-.67,2.61,2.61,0,0,1,.27-.67,1.79,1.79,0,0,1,.45-.53,1,1,0,0,1,.62-.21,1.26,1.26,0,0,1,.72.2,1.81,1.81,0,0,1,.53.5,2.41,2.41,0,0,1,.34.68,3.35,3.35,0,0,1,.16.72h.47v1.51Zm-1-1.51a3,3,0,0,0-.09-.29,1.11,1.11,0,0,0-.17-.3,1,1,0,0,0-.23-.23.43.43,0,0,0-.26-.09.47.47,0,0,0-.38.17.54.54,0,0,0-.14.38.3.3,0,0,0,.05.21.29.29,0,0,0,.19.11,2.77,2.77,0,0,0,.39,0Z"/><path class="cls-1" d="M35.09,23.09s0-.06.1-.08a.69.69,0,0,1,.2,0h1.12a1.17,1.17,0,0,1-.23-.66,1.6,1.6,0,0,1,.28-.88,2.66,2.66,0,0,1,.65-.72l-.28-.18.62-1.36,1,.72a11.4,11.4,0,0,1,1.14,1,7,7,0,0,1,1,1.13A2.18,2.18,0,0,1,41,23.18,3.24,3.24,0,0,1,41,24a2.21,2.21,0,0,1-.25.6,1.14,1.14,0,0,1-.38.35.58.58,0,0,1-.45,0,6.46,6.46,0,0,1-.9-.31c-.34-.14-.67-.3-1-.47a3.52,3.52,0,0,1-.82.25,4.13,4.13,0,0,1-.72.07h-1a.68.68,0,0,1-.2,0c-.06,0-.1,0-.1-.07Zm2.41-.46a4.41,4.41,0,0,0,.38.24.92.92,0,0,0,.49-.37.89.89,0,0,0,.13-.45.46.46,0,0,0-.06-.23,1.56,1.56,0,0,0-.16-.2,1,1,0,0,0-.2-.15.54.54,0,0,0-.19,0,.48.48,0,0,0-.23.07.79.79,0,0,0-.22.19.91.91,0,0,0-.17.23.4.4,0,0,0-.07.21.79.79,0,0,0,0,.22A.53.53,0,0,0,37.5,22.63Zm1.9,0a1.83,1.83,0,0,1-.17.45,3.19,3.19,0,0,1-.26.38l.32.14.31.13a1.24,1.24,0,0,0,.28.09c.07,0,.13,0,.19-.15A.84.84,0,0,0,40,23a2.91,2.91,0,0,0-.54-.63A.93.93,0,0,1,39.4,22.65Z"/><path class="cls-1" d="M50.74,24.49a.9.9,0,0,1,0,.46,1.65,1.65,0,0,1-.13.47,2.57,2.57,0,0,1-.87,1A4,4,0,0,1,48.5,27a4.39,4.39,0,0,1-1.45.14,3.54,3.54,0,0,1-1.36-.34,2.47,2.47,0,0,1-1-.84,2.38,2.38,0,0,1-.39-1.4,3.68,3.68,0,0,1,.16-1.11,6,6,0,0,1,.43-1l1,.35c-.1.23-.2.47-.3.74a2.47,2.47,0,0,0-.14.77,1.51,1.51,0,0,0,.2.8,1.31,1.31,0,0,0,.52.47,1.88,1.88,0,0,0,.73.2,3.84,3.84,0,0,0,.83,0,4.33,4.33,0,0,0,.81-.18,3.52,3.52,0,0,0,.7-.28c.16-.08.25-.15.26-.21s0-.1-.11-.12L48,24.49a1.17,1.17,0,0,1,.08-.25l.12-.31.13-.31.13-.25a1.11,1.11,0,0,1,.3-.31,1,1,0,0,1,.45-.08H50.8v1.51Z"/><path class="cls-1" d="M50.8,24.49a.68.68,0,0,1-.2,0c-.06,0-.1,0-.1-.07V23.09s0-.06.1-.08a.69.69,0,0,1,.2,0h1.31v1.51Z"/><path class="cls-1" d="M52.11,24.49a.75.75,0,0,1-.21,0c-.06,0-.09,0-.09-.07V23.09s0-.06.09-.08a.76.76,0,0,1,.21,0h1.3v1.51Z"/><path class="cls-1" d="M53.41,24.49a.75.75,0,0,1-.21,0c-.06,0-.09,0-.09-.07V23.09s0-.06.09-.08a.76.76,0,0,1,.21,0h1.3v1.51Z"/><path class="cls-1" d="M54.71,24.49a.65.65,0,0,1-.2,0c-.07,0-.1,0-.1-.07V23.09s0-.06.1-.08a.64.64,0,0,1,.2,0H56v1.51Z"/><path class="cls-1" d="M56,24.49a.65.65,0,0,1-.2,0c-.07,0-.1,0-.1-.07V23.09s0-.06.1-.08a.64.64,0,0,1,.2,0h1.3v1.51Z"/><path class="cls-1" d="M57.31,24.49a.65.65,0,0,1-.2,0c-.07,0-.1,0-.1-.07V23.09s0-.06.1-.08a.64.64,0,0,1,.2,0h1.3v1.51Z"/><path class="cls-1" d="M58.61,24.49a.68.68,0,0,1-.2,0c-.06,0-.1,0-.1-.07V23.09s0-.06.1-.08a.69.69,0,0,1,.2,0h1.3v1.51Z"/><path class="cls-1" d="M59.91,24.49a.71.71,0,0,1-.2,0c-.06,0-.09,0-.09-.07V23.09s0-.06.09-.08l.2,0h1.31v1.51Z"/><path class="cls-1" d="M60.92,23.09S61,23,61,23a.76.76,0,0,1,.21,0H63a4.19,4.19,0,0,0,.56-.08,7,7,0,0,0,.76-.24l1.23-.46-1.15-.31-.59-.17a.64.64,0,0,0-.48,0,1.53,1.53,0,0,0-.37.31l-.9-.61a3.47,3.47,0,0,1,.8-1,1.06,1.06,0,0,1,.91-.23,6.87,6.87,0,0,1,.88.18l.91.25,1,.25c.33.08.68.16,1.06.22l.52,0,.5,0-.4,1.49-.55,0a2,2,0,0,0-.44,0,2.54,2.54,0,0,0-.43.12l-.49.24-1.1.65a5.49,5.49,0,0,1-.85.46,4.12,4.12,0,0,1-.92.27,7.47,7.47,0,0,1-1.29.09h-1a.75.75,0,0,1-.21,0c-.06,0-.09,0-.09-.07Z"/><path class="cls-1" d="M71.28,24.32,70,24.68v-7.5l1.33-.52Z"/><path class="cls-1" d="M74.66,24.42a1.34,1.34,0,0,1-.26-.19A3.19,3.19,0,0,1,74,25.28a5.28,5.28,0,0,1-.77.94,10.49,10.49,0,0,1-1,.83q-.56.39-1.14.72L70,26.91c.28-.13.61-.31,1-.54a10.7,10.7,0,0,0,1.12-.72,6.11,6.11,0,0,0,.91-.8,1.29,1.29,0,0,0,.37-.81.84.84,0,0,0-.08-.33,3.79,3.79,0,0,0-.18-.34l-.21-.31-.17-.23,1-1.08a4,4,0,0,1,.27.44,2.33,2.33,0,0,0,.27.4,1.36,1.36,0,0,0,.31.28A.67.67,0,0,0,75,23v1.51A.66.66,0,0,1,74.66,24.42Z"/><path class="cls-1" d="M74.66,23.09s0-.06.1-.08a.64.64,0,0,1,.2,0h.46l.24-.28c.08-.1.17-.19.26-.29,0-.26,0-.54.06-.83s0-.57,0-.84c0-.52,0-1.07,0-1.64s-.09-1.21-.16-1.92l1.36-.52v4.48a6.38,6.38,0,0,1,1-.73,2,2,0,0,1,1-.29,1.54,1.54,0,0,1,1.14.44,1.43,1.43,0,0,1,.44,1.08A2.25,2.25,0,0,1,80.34,23a3.16,3.16,0,0,1-.93.89,3.9,3.9,0,0,1-1.21.49,5.3,5.3,0,0,1-1.19.15H75a.65.65,0,0,1-.2,0c-.07,0-.1,0-.1-.07Zm4.12-1.55a1.67,1.67,0,0,0-1,.4c-.33.27-.72.62-1.14,1h.71l.56,0,.62-.1a4.15,4.15,0,0,0,.59-.17,1.18,1.18,0,0,0,.43-.24.44.44,0,0,0,.17-.36.35.35,0,0,0-.09-.25.78.78,0,0,0-.24-.16l-.3-.09Z"/></svg>