<svg id="Layer_1" data-name="Layer 1" xmlns="http://www.w3.org/2000/svg" viewBox="0 0 181.83 187.38"><defs><style>.cls-1{fill:#f9a64a;}</style></defs><path class="cls-1" d="M49,148.22A17.58,17.58,0,0,1,42.1,143,29.12,29.12,0,0,1,32,149.56a31.7,31.7,0,0,1-11.6,2.28A35.7,35.7,0,0,1,8.65,150,27.65,27.65,0,0,1,0,145.41L8.58,132a9.9,9.9,0,0,0,4.29,1.74,35.78,35.78,0,0,0,7.51.67,28.46,28.46,0,0,0,5.16-.47,23.55,23.55,0,0,0,4.76-1.34A15.12,15.12,0,0,0,34,130.52a5.08,5.08,0,0,0,1.94-2.68q-1.47-7.64-3-14.28T30,99.15L42.5,90.3l6.84,35.13a8.52,8.52,0,0,0,2.95,5.29q2.28,1.82,6.57,1.81V150A25.07,25.07,0,0,1,49,148.22Z"/><path class="cls-1" d="M63.15,132.53c5.72,0,8.58-1,8.58-3.08a3.88,3.88,0,0,0-.6-1.47c-.4-.72-.9-1.5-1.48-2.35s-1.18-1.72-1.81-2.62-1.11-1.6-1.47-2.14l9.92-13.81c.63.8,1.43,2,2.42,3.48a49,49,0,0,1,2.88,5.23,48,48,0,0,1,2.48,6.44,24.69,24.69,0,0,1,1.07,7.24q0,10.05-5.63,15.29T63.15,150H58.86a8,8,0,0,1-2.08-.27c-.67-.18-1-.41-1-.67V133.61c0-.36.33-.63,1-.81a8,8,0,0,1,2.08-.27Zm10.46-30.84L68.31,98,63,94.32c1.43-1.79,2.75-3.46,3.95-5s2.57-3.24,4.09-5c1.79,1.26,3.51,2.48,5.16,3.69s3.38,2.44,5.17,3.69Z"/><path class="cls-1" d="M109.36,149.56a42.35,42.35,0,0,1-4.63,12,49,49,0,0,1-7.51,9.86,66.44,66.44,0,0,1-9.58,8A108.59,108.59,0,0,1,76.91,186L64,175.58q3.61-1.89,9.18-4.9a74.1,74.1,0,0,0,10.66-7,47.76,47.76,0,0,0,8.78-9,17.62,17.62,0,0,0,3.69-10.73,7.22,7.22,0,0,0-.67-2.88,22,22,0,0,0-1.61-3c-.62-1-1.27-1.94-1.94-2.88s-1.23-1.77-1.68-2.48l11.26-11.4,2.15,3.62a29.24,29.24,0,0,0,2.61,3.69,16.23,16.23,0,0,0,3,2.82,6.1,6.1,0,0,0,3.62,1.13V150A16.51,16.51,0,0,1,109.36,149.56Z"/><path class="cls-1" d="M178.6,178.8l-28.16,8.58L148.56,181l28.16-8.59Z"/><path class="cls-1" d="M113.11,150a8,8,0,0,1-2.08-.27c-.67-.18-1-.41-1-.67V133.61c0-.36.33-.63,1-.81a8,8,0,0,1,2.08-.27h13.41V150Z"/><path class="cls-1" d="M126.52,150a8,8,0,0,1-2.08-.27c-.67-.18-1-.41-1-.67V133.61c0-.36.34-.63,1-.81a8,8,0,0,1,2.08-.27h13.41V150Z"/><path class="cls-1" d="M139.92,150a7.94,7.94,0,0,1-2.07-.27c-.67-.18-1-.41-1-.67V133.61c0-.36.34-.63,1-.81a7.94,7.94,0,0,1,2.07-.27h13.41V150Z"/><path class="cls-1" d="M164,172.06l-5.29-3.69c-1.75-1.2-3.51-2.43-5.3-3.69,1.43-1.78,2.75-3.46,4-5s2.56-3.24,4.09-5q2.67,1.88,5.16,3.69t5.16,3.68Zm-6.33-39.53c5.72,0,8.58-1,8.58-3.08a3.88,3.88,0,0,0-.6-1.47c-.4-.72-.9-1.5-1.48-2.35s-1.18-1.72-1.81-2.62-1.11-1.6-1.47-2.14l9.92-13.81c.63.8,1.43,2,2.42,3.48a49,49,0,0,1,2.88,5.23,48,48,0,0,1,2.48,6.44,24.69,24.69,0,0,1,1.07,7.24q0,10.05-5.63,15.29T157.62,150h-4.29a8,8,0,0,1-2.08-.27c-.67-.18-1-.41-1-.67V133.61c0-.36.33-.63,1-.81a8,8,0,0,1,2.08-.27Z"/><path class="cls-1" d="M22.73,98.35,1.42,104.84,0,100l21.31-6.49Z"/><path class="cls-1" d="M54.4,61.2a30.41,30.41,0,0,1-3.86,11.72A27.87,27.87,0,0,1,34.41,85.66a33.73,33.73,0,0,1-9.95,1.52,27.52,27.52,0,0,1-9.08-1.52A22.09,22.09,0,0,1,7.56,81a22.94,22.94,0,0,1-5.48-7.76A26.69,26.69,0,0,1,0,62.32c0-1.08.07-2.3.2-3.66s.32-2.75.56-4.21.54-2.87.91-4.26A23.6,23.6,0,0,1,3,46.38l9.34,5.48a23.31,23.31,0,0,0-1.67,5.48,29,29,0,0,0-.56,5,10.65,10.65,0,0,0,1.22,5.17,10.77,10.77,0,0,0,3.19,3.66,14.35,14.35,0,0,0,4.57,2.13,20.21,20.21,0,0,0,5.33.71,24.9,24.9,0,0,0,6.09-.76,21.89,21.89,0,0,0,5.68-2.29A16.9,16.9,0,0,0,40.85,67a16.25,16.25,0,0,0,3-5.74H39.58a16.91,16.91,0,0,1-4.51-.66,12.65,12.65,0,0,1-4.32-2.13,11.33,11.33,0,0,1-3.19-4,13.32,13.32,0,0,1-1.27-6.14,23.37,23.37,0,0,1,.91-6.24A22.31,22.31,0,0,1,29.94,36a15.9,15.9,0,0,1,4.57-4.67,11,11,0,0,1,6.29-1.82,9.1,9.1,0,0,1,5.58,1.72,14.43,14.43,0,0,1,3.91,4.42,25.21,25.21,0,0,1,2.49,5.93A57.7,57.7,0,0,1,54.2,48h2.94V61.3ZM52.47,15.63c-.95,1.36-1.89,2.62-2.84,3.81s-1.89,2.45-2.84,3.8L40.6,18.57l-4.37,5.18q-2-1.42-4-2.74t-4-2.74c.94-1.28,1.93-2.55,2.94-3.81s2-2.48,2.94-3.7l6.5,5.07,3.86-5.68ZM43.85,48.11a8.44,8.44,0,0,0-1.12-4.77c-.75-1.08-1.49-1.63-2.23-1.63a3.5,3.5,0,0,0-2.69,1A5.9,5.9,0,0,0,36.44,45a2.93,2.93,0,0,0,0,2.44,1.84,1.84,0,0,0,1.62.71Z"/><path class="cls-1" d="M71.54,60.44a12.84,12.84,0,0,1-5-2.79,10.58,10.58,0,0,1-3.3,2.13,21.47,21.47,0,0,1-3.5,1.07,19.54,19.54,0,0,1-3.2.4c-1,0-1.78,0-2.39,0a5.88,5.88,0,0,1-1.57-.2c-.51-.14-.76-.3-.76-.51V48.92c0-.27.25-.47.76-.61a6.31,6.31,0,0,1,1.57-.2c.41,0,1,0,1.83,0a9.73,9.73,0,0,0,2.39-.41,5.87,5.87,0,0,0,2-1.06,2.64,2.64,0,0,0,.86-2.14V24.51q0-10.31-.2-20.65L71.24,0c.06,3.32.11,6.78.15,10.4s0,7.28,0,11V42.53c0,2,.59,3.46,1.77,4.31a7.57,7.57,0,0,0,4.52,1.27V61.3A21.05,21.05,0,0,1,71.54,60.44Z"/><path class="cls-1" d="M135,48.11a32.91,32.91,0,0,0,5.89-.56A56.12,56.12,0,0,0,147,46.08,58.75,58.75,0,0,0,153,44a40.46,40.46,0,0,0,5.23-2.64c-1-.47-2.11-1-3.3-1.47s-2.3-1-3.35-1.37-2-.75-2.89-1a7.51,7.51,0,0,0-2-.4,6.05,6.05,0,0,0-3.35,1.16,14.58,14.58,0,0,0-2.94,2.59l-8.12-5c.61-.88,1.44-2,2.49-3.25a28.28,28.28,0,0,1,3.5-3.6,24.24,24.24,0,0,1,4.11-2.9,8.79,8.79,0,0,1,4.31-1.21A15.67,15.67,0,0,1,152.45,26c1.93.78,4,1.68,6.14,2.69l2.84,1.42a25.5,25.5,0,0,0,4.21,1.58,44.54,44.54,0,0,0,6.5,1.27,68.87,68.87,0,0,0,9.69.4L178,47.2a51.82,51.82,0,0,0-6,.86,31.61,31.61,0,0,0-8.67,3.14c-1.19.65-2.35,1.31-3.5,2-1.77,1-3.54,1.92-5.33,2.9a47.75,47.75,0,0,1-5.69,2.63,39.34,39.34,0,0,1-6.39,1.88,35.56,35.56,0,0,1-7.36.71H72.44a5.9,5.9,0,0,1-1.58-.2c-.5-.14-.76-.3-.76-.51V48.92c0-.27.26-.47.76-.61a6.33,6.33,0,0,1,1.58-.2Zm18.57-29.74-4-2.79q-2-1.37-4-2.79,1.62-2,3-3.81t3.1-3.8c1.35,1,2.65,1.87,3.9,2.79s2.56,1.84,3.91,2.79Z"/></svg>