<svg id="Layer_1" data-name="Layer 1" xmlns="http://www.w3.org/2000/svg" viewBox="0 0 1478.39 1364.1"><defs><style>.cls-1{fill:#231f20;}</style></defs><path d="M178.21,15.36A92.55,92.55,0,0,1,197.09,1V0h-.7a93.56,93.56,0,0,0-19,14.49,144.77,144.77,0,0,0-18.2,21.63h1.48A143.48,143.48,0,0,1,178.21,15.36Z"/><path d="M266.73,958.62a92.55,92.55,0,0,1,18.88-14.36v-1h-.7a93.93,93.93,0,0,0-19,14.49,145.78,145.78,0,0,0-18.2,21.63h1.48A144,144,0,0,1,266.73,958.62Z"/><path d="M1478.39,688.14v-1.25c-1.28-.31-2.57-.62-3.87-.91a217.89,217.89,0,0,0-35-5.18V682a215.72,215.72,0,0,1,34.76,5.15C1475.64,687.48,1477,687.8,1478.39,688.14Z"/><path d="M781.56,1205.19v-1.25c-1.29-.32-2.58-.62-3.88-.91a216.83,216.83,0,0,0-35-5.18v1.22a216,216,0,0,1,34.76,5.14C778.8,1204.53,780.18,1204.85,781.56,1205.19Z"/><path d="M1248.65,1281.18a92.55,92.55,0,0,1,18.88-14.36v-1h-.7a93.93,93.93,0,0,0-19,14.49,145.37,145.37,0,0,0-18.2,21.63h1.48A145.3,145.3,0,0,1,1248.65,1281.18Z"/><path d="M762.19,1143.24a92.55,92.55,0,0,1,18.88-14.36v-1h-.7a93.2,93.2,0,0,0-19,14.49,144.77,144.77,0,0,0-18.2,21.63h1.48A144.11,144.11,0,0,1,762.19,1143.24Z"/><path d="M781.56,1089.33v-1.25l-3.88-.91a216.77,216.77,0,0,0-35-5.17v1.21a217.17,217.17,0,0,1,34.76,5.15C778.8,1088.67,780.18,1089,781.56,1089.33Z"/><path d="M762.19,1022.69a92.55,92.55,0,0,1,18.88-14.36v-1h-.7a93.2,93.2,0,0,0-19,14.49,144.77,144.77,0,0,0-18.2,21.63h1.48A143.58,143.58,0,0,1,762.19,1022.69Z"/><path d="M781.56,338.46v-1.25c-1.29-.31-2.58-.62-3.88-.91a217.94,217.94,0,0,0-35-5.18v1.22a217.11,217.11,0,0,1,34.76,5.14C778.8,337.8,780.18,338.12,781.56,338.46Z"/><path d="M762.19,276.51a92.55,92.55,0,0,1,18.88-14.36v-1h-.7a93.56,93.56,0,0,0-19,14.49,144.77,144.77,0,0,0-18.2,21.63h1.48A144.66,144.66,0,0,1,762.19,276.51Z"/><path d="M781.56,222.6v-1.25l-3.88-.91a216.77,216.77,0,0,0-35-5.17v1.21a217.17,217.17,0,0,1,34.76,5.15C778.8,221.94,780.18,222.27,781.56,222.6Z"/><path d="M762.19,156a92.55,92.55,0,0,1,18.88-14.36v-1h-.7a93.56,93.56,0,0,0-19,14.49,144.77,144.77,0,0,0-18.2,21.63h1.48A144.66,144.66,0,0,1,762.19,156Z"/><path d="M1365.26,258.45a92.34,92.34,0,0,1,18.89-14.36v-1h-.7a93.89,93.89,0,0,0-19,14.49,146,146,0,0,0-18.2,21.63h1.49A144.58,144.58,0,0,1,1365.26,258.45Z"/><path d="M90.58,1364.1v-1.25l-3.88-.91a217.89,217.89,0,0,0-35-5.18V1358a216.84,216.84,0,0,1,34.76,5.15C87.82,1363.44,89.2,1363.77,90.58,1364.1Z"/><path d="M38.9,627.2V626c-1.29-.31-2.58-.62-3.87-.91a218.06,218.06,0,0,0-35-5.18v1.22a215.72,215.72,0,0,1,34.76,5.15C36.15,626.54,37.53,626.86,38.9,627.2Z"/><path class="cls-1" d="M1245.11,784.48c5.59,9,8.89,17.7,10.08,26.53a46.64,46.64,0,0,1-3.23,24.52h2.22a48.64,48.64,0,0,0,3.06-24.8c-1.23-9.12-4.63-18.06-10.38-27.34q-2.25-3.61-4.84-7.16h-2.58C1241.49,779,1243.38,781.69,1245.11,784.48Z"/><path d="M1131.49,65.21A142.89,142.89,0,0,1,1160,43.41V41.55h-.53a144.4,144.4,0,0,0-29.3,22.32q-5.57,5.45-10.68,11.19h0a51.18,51.18,0,0,1-5.71-10,68,68,0,0,1-5.23-21.68c0-.33,0-.66-.08-1h-1.87c0,.38.05.77.08,1.15a70.19,70.19,0,0,0,5.38,22.27,54,54,0,0,0,6.15,10.67q-7.29,8.32-13.69,17.28V97a220.62,220.62,0,0,1,14.87-19l.24-.28-.24.28c7,8.61,16.51,14.17,28.48,16.6A103.91,103.91,0,0,0,1160,96.28V94.4a103.47,103.47,0,0,1-11.76-1.62c-11.62-2.36-20.86-7.79-27.59-16.21h0l-.05-.07.06.07Q1125.86,70.74,1131.49,65.21Z"/><path d="M420.34,449.5c-6.66-1.51-13.19-2.84-19.63-4a79.09,79.09,0,0,0-10-23.15c-1.63-2.62-3.37-5.21-5.25-7.77h-2.8c2.23,2.95,4.27,5.93,6.15,8.95a77.54,77.54,0,0,1,9.51,21.54c-12.68-2.23-25-3.79-37.17-4.72v2.24a379.93,379.93,0,0,1,37.73,4.85c.36,1.61.65,3.23.87,4.85a50.72,50.72,0,0,1-3.51,26.59h2.4A52.59,52.59,0,0,0,401.94,452c-.18-1.38-.42-2.75-.7-4.12,6.11,1.12,12.3,2.39,18.61,3.82q3.82.87,7.62,1.8v-2.3C425.1,450.6,422.73,450,420.34,449.5Z"/></svg>