<svg id="Layer_1" data-name="Layer 1" xmlns="http://www.w3.org/2000/svg" viewBox="0 0 350 404.11"><defs><style>.cls-1{fill:#007199;}</style></defs><path class="cls-1" d="M16.44,392.17a2.58,2.58,0,0,1,.12,1.17,4.58,4.58,0,0,1-.35,1.19A6.67,6.67,0,0,1,14,397.06a10.61,10.61,0,0,1-3.27,1.51,11.49,11.49,0,0,1-3.71.36,9.28,9.28,0,0,1-3.47-.86A6.51,6.51,0,0,1,1,395.91a6,6,0,0,1-1-3.57,9.17,9.17,0,0,1,.43-2.84A13.72,13.72,0,0,1,1.53,387l2.52.89c-.26.58-.52,1.21-.76,1.9a5.69,5.69,0,0,0-.37,2,3.76,3.76,0,0,0,.5,2A3.25,3.25,0,0,0,4.75,395a5.48,5.48,0,0,0,1.88.51,9.32,9.32,0,0,0,2.11,0,12.12,12.12,0,0,0,2.07-.45,11.17,11.17,0,0,0,1.78-.71c.42-.23.64-.41.66-.55s-.06-.25-.26-.32l-3.62-1.23a4.67,4.67,0,0,1,.21-.64l.32-.8c.11-.28.22-.54.33-.8a3.35,3.35,0,0,1,.33-.61,2.36,2.36,0,0,1,.77-.8,2.48,2.48,0,0,1,1.13-.2h4.15v3.85Z"/><path class="cls-1" d="M37.7,392.17a4.53,4.53,0,0,1-2.14-.5,5.37,5.37,0,0,1-1.72-1.36,9.93,9.93,0,0,1-3.13,1.4,13.37,13.37,0,0,1-3.38.46H23.15a3.78,3.78,0,0,1-1.69-.4,2.19,2.19,0,0,1-1.17-1.32,3.46,3.46,0,0,1-3.09,1.72h-.59a2.24,2.24,0,0,1-.52-.06c-.16-.05-.25-.1-.25-.17v-3.35c0-.09.09-.16.25-.2a1.81,1.81,0,0,1,.52-.07h.86c.93,0,1.4-.55,1.4-1.66V385.4l2.55-.73v.73a9.92,9.92,0,0,0,.1,1.48,2.63,2.63,0,0,0,.3.89,1,1,0,0,0,.52.43,2.21,2.21,0,0,0,.78.12h.2c.66-.75,1.37-1.56,2.14-2.41a31.07,31.07,0,0,1,2.36-2.37,13.43,13.43,0,0,1,2.47-1.81,5,5,0,0,1,2.49-.72,4.4,4.4,0,0,1,1.65.3,4,4,0,0,1,1.29.83,3.82,3.82,0,0,1,.85,1.23,3.87,3.87,0,0,1,.3,1.53,6.09,6.09,0,0,1-.24,1.76A5.16,5.16,0,0,1,36,388q.16.3,1.89.3h.43v3.85Zm-5.81-7.54a4.33,4.33,0,0,0-2.65,1c-.87.69-1.86,1.58-3,2.66h.93l.95,0c.43,0,.91-.06,1.43-.12a15.38,15.38,0,0,0,1.59-.25,11.63,11.63,0,0,0,1.5-.41,3.67,3.67,0,0,0,1.11-.63,1.18,1.18,0,0,0,.43-.92.88.88,0,0,0-.25-.65,1.73,1.73,0,0,0-.61-.39,3.39,3.39,0,0,0-.77-.22A4.87,4.87,0,0,0,31.89,384.63Z"/><path class="cls-1" d="M38.36,392.17a2.16,2.16,0,0,1-.51-.06c-.17-.05-.25-.1-.25-.17v-3.35c0-.09.08-.16.25-.2a1.75,1.75,0,0,1,.51-.07h3.32v3.85Z"/><path class="cls-1" d="M41.68,392.17a2.16,2.16,0,0,1-.51-.06c-.17-.05-.25-.1-.25-.17v-3.35c0-.09.08-.16.25-.2a1.75,1.75,0,0,1,.51-.07H45v3.85Z"/><path class="cls-1" d="M45,392.17a2.22,2.22,0,0,1-.51-.06c-.17-.05-.25-.1-.25-.17v-3.35c0-.09.08-.16.25-.2a1.79,1.79,0,0,1,.51-.07h3.33v3.85Z"/><path class="cls-1" d="M48.33,392.17a2.24,2.24,0,0,1-.52-.06c-.17-.05-.25-.1-.25-.17v-3.35c0-.09.08-.16.25-.2a1.81,1.81,0,0,1,.52-.07h3.32v3.85Z"/><path class="cls-1" d="M51.65,392.17a2.24,2.24,0,0,1-.52-.06c-.16-.05-.25-.1-.25-.17v-3.35c0-.09.09-.16.25-.2a1.81,1.81,0,0,1,.52-.07H55v3.85Z"/><path class="cls-1" d="M55,392.17a2.24,2.24,0,0,1-.52-.06c-.16-.05-.25-.1-.25-.17v-3.35c0-.09.09-.16.25-.2a1.81,1.81,0,0,1,.52-.07h3.32v3.85Z"/><path class="cls-1" d="M58.29,392.17a2.24,2.24,0,0,1-.52-.06c-.16-.05-.25-.1-.25-.17v-3.35c0-.09.09-.16.25-.2a1.81,1.81,0,0,1,.52-.07h3.32v3.85Z"/><path class="cls-1" d="M61.61,392.17a2.1,2.1,0,0,1-.51-.06c-.17-.05-.25-.1-.25-.17v-3.35c0-.09.08-.16.25-.2a1.7,1.7,0,0,1,.51-.07h3.32v3.85Z"/><path class="cls-1" d="M64.93,392.17a2.1,2.1,0,0,1-.51-.06c-.17-.05-.25-.1-.25-.17v-3.35c0-.09.08-.16.25-.2a1.7,1.7,0,0,1,.51-.07h3.32v3.85Z"/><path class="cls-1" d="M89.34,392.17a4.56,4.56,0,0,1-2.14-.5,5.44,5.44,0,0,1-1.71-1.36,10,10,0,0,1-3.14,1.4,13.29,13.29,0,0,1-3.37.46H74.8a3.82,3.82,0,0,1-1.7-.4,2.21,2.21,0,0,1-1.16-1.32,3.46,3.46,0,0,1-3.09,1.72h-.6a2.16,2.16,0,0,1-.51-.06c-.17-.05-.25-.1-.25-.17v-3.35c0-.09.08-.16.25-.2a1.75,1.75,0,0,1,.51-.07h.87c.93,0,1.39-.55,1.39-1.66V385.4l2.56-.73v.73a8.73,8.73,0,0,0,.1,1.48,2.26,2.26,0,0,0,.3.89,1,1,0,0,0,.51.43,2.21,2.21,0,0,0,.78.12H75l2.14-2.41a33,33,0,0,1,2.36-2.37,13.48,13.48,0,0,1,2.48-1.81,5,5,0,0,1,2.49-.72,4.35,4.35,0,0,1,1.64.3,4.07,4.07,0,0,1,1.3.83,4,4,0,0,1,.84,1.23,3.87,3.87,0,0,1,.3,1.53,6.1,6.1,0,0,1-.23,1.76,4.86,4.86,0,0,1-.6,1.36c.11.2.74.3,1.9.3H90v3.85Zm-5.81-7.54a4.28,4.28,0,0,0-2.64,1,38.43,38.43,0,0,0-3,2.66h.93l.94,0c.44,0,.91-.06,1.43-.12a16,16,0,0,0,1.6-.25,11,11,0,0,0,1.49-.41,3.55,3.55,0,0,0,1.11-.63,1.19,1.19,0,0,0,.44-.92.92.92,0,0,0-.25-.65,1.77,1.77,0,0,0-.62-.39,3.31,3.31,0,0,0-.76-.22A5,5,0,0,0,83.53,384.63Z"/><path class="cls-1" d="M107.15,392.17c-2.53,0-3.82-1.58-3.89-4.75a17.2,17.2,0,0,0-2.11,1.45A25.54,25.54,0,0,1,99,390.41a13.56,13.56,0,0,1-2.43,1.25,8.26,8.26,0,0,1-3,.51H90a2.24,2.24,0,0,1-.52-.06c-.16-.05-.25-.1-.25-.17v-3.35c0-.09.09-.16.25-.2a1.81,1.81,0,0,1,.52-.07H93.1a9.58,9.58,0,0,0,2.12-.22,11.33,11.33,0,0,0,1.93-.58,16,16,0,0,0,1.84-.86c.61-.33,1.24-.7,1.88-1.1-.4-.06-.83-.14-1.3-.23s-.91-.17-1.34-.23l-1.16-.18a5.11,5.11,0,0,0-.75-.09,1.15,1.15,0,0,0-.78.35,4.41,4.41,0,0,0-.78,1L92.3,385q1.53-3.86,3.55-3.85a10.68,10.68,0,0,1,2.13.26l2.82.6c1,.22,2.08.42,3.17.6a21,21,0,0,0,3.21.26,11.41,11.41,0,0,0,1.49-.1l-.43,3.69a8.88,8.88,0,0,0-3,.43,1.53,1.53,0,0,0,.77,1.2,4.66,4.66,0,0,0,1.66.23h2.52v3.85Zm-5.78-15.64-2,2.66-2.75-1.86,2-2.69Z"/><path class="cls-1" d="M109.44,388.59c0-.09.08-.16.25-.2a1.7,1.7,0,0,1,.51-.07h2.19c1.13,0,1.7-.27,1.7-.8a1,1,0,0,0-.07-.35,3.06,3.06,0,0,0-.26-.51q-.21-.33-.57-.81c-.24-.33-.56-.74-1-1.25l2.16-3.06a5.85,5.85,0,0,1,1.61,2.3,7.87,7.87,0,0,1,.58,3,5.84,5.84,0,0,1-.45,2.38,4.63,4.63,0,0,1-1.23,1.67,5,5,0,0,1-1.84,1,7.73,7.73,0,0,1-2.29.33h-.57a2.1,2.1,0,0,1-.51-.06c-.17-.05-.25-.1-.25-.17Zm.23-10.2,1.66-2.26,2.16,1.43,1.23-1.7,2.56,1.7-1.7,2.26-2.19-1.43-1.13,1.69Z"/><path class="cls-1" d="M143.42,385a7.11,7.11,0,0,0-2.76-.4,4.15,4.15,0,0,0-1.26.21,5.26,5.26,0,0,0-1.22.57,4.08,4.08,0,0,0-.91.76,1.3,1.3,0,0,0-.36.85.58.58,0,0,0,.49.58,5.73,5.73,0,0,0,1.27.2l1.62.11a6.55,6.55,0,0,1,1.63.34,2.82,2.82,0,0,1,1.26.83,2.33,2.33,0,0,1,.5,1.59,6.06,6.06,0,0,1-1,3.46,8.79,8.79,0,0,1-2.52,2.49,12.39,12.39,0,0,1-3.37,1.51,13.38,13.38,0,0,1-3.57.51,11.92,11.92,0,0,1-3.67-.51,7.42,7.42,0,0,1-2.61-1.43,5.68,5.68,0,0,1-1.54-2.18,7,7,0,0,1-.52-2.72,10.42,10.42,0,0,1,.38-2.67,12.29,12.29,0,0,1,1.18-2.81l2.63.9a9.68,9.68,0,0,0-.78,1.82,5.84,5.84,0,0,0-.29,1.76,4,4,0,0,0,.32,1.6,3.32,3.32,0,0,0,1,1.28,5.37,5.37,0,0,0,1.78.86,9.25,9.25,0,0,0,2.57.32,11.47,11.47,0,0,0,2.3-.27,16.47,16.47,0,0,0,2.44-.7,8.56,8.56,0,0,0,1.94-1c.53-.36.8-.72.8-1.08,0-.19-.13-.33-.39-.41a5.08,5.08,0,0,0-1.06-.18q-.68-.07-1.56-.12c-.59,0-1.21-.09-1.88-.18a2.54,2.54,0,0,1-1.67-.83,2.62,2.62,0,0,1-.55-1.73,6.36,6.36,0,0,1,.65-2.84,8.14,8.14,0,0,1,1.69-2.36,8.4,8.4,0,0,1,2.38-1.61,6.45,6.45,0,0,1,2.69-.6,5.23,5.23,0,0,1,1.42.19,5.08,5.08,0,0,1,1.37.58Z"/><path class="cls-1" d="M150.21,391.62a4,4,0,0,1-1.63-1.51,6.39,6.39,0,0,1-.8-2.29,21,21,0,0,1-.25-2.89c0-.48,0-1.18-.06-2.09s-.05-1.89-.07-3-.05-2.15-.08-3.27-.06-2.15-.09-3.1l3.26-1.33v13.15a3.52,3.52,0,0,0,.6,2.24,2.31,2.31,0,0,0,1.92.75v3.85A6,6,0,0,1,150.21,391.62Z"/><path class="cls-1" d="M152.25,388.59c0-.09.08-.16.25-.2a1.75,1.75,0,0,1,.51-.07h2.86a3,3,0,0,1-.6-1.69,4.12,4.12,0,0,1,.72-2.25,7.05,7.05,0,0,1,1.67-1.84l-.73-.46,1.6-3.46c.66.47,1.5,1.08,2.5,1.83A28.44,28.44,0,0,1,164,383a17.51,17.51,0,0,1,2.42,2.89,5.47,5.47,0,0,1,1.05,3,8.41,8.41,0,0,1-.23,2,5.15,5.15,0,0,1-.65,1.53,2.63,2.63,0,0,1-1,.89,1.41,1.41,0,0,1-1.14.09,18.34,18.34,0,0,1-2.31-.8c-.85-.36-1.7-.75-2.54-1.2a8.56,8.56,0,0,1-2.09.65,11.22,11.22,0,0,1-1.83.18H153a2.16,2.16,0,0,1-.51-.06c-.17-.05-.25-.1-.25-.17Zm6.14-1.17a9.58,9.58,0,0,0,1,.6,2.28,2.28,0,0,0,1.24-.93,2.22,2.22,0,0,0,.35-1.16,1.13,1.13,0,0,0-.16-.58,3.42,3.42,0,0,0-.4-.52,2,2,0,0,0-.52-.36,1.19,1.19,0,0,0-.48-.14,1.17,1.17,0,0,0-.6.19,2.41,2.41,0,0,0-.56.46,2.66,2.66,0,0,0-.43.6,1.11,1.11,0,0,0-.17.55,2.37,2.37,0,0,0,.1.55A1.44,1.44,0,0,0,158.39,387.42Zm4.85,0a4.52,4.52,0,0,1-.45,1.16,7.28,7.28,0,0,1-.64,1,7.43,7.43,0,0,0,.81.37l.78.33a6.91,6.91,0,0,0,.73.23c.18.05.33-.09.47-.4a2.07,2.07,0,0,0-.24-1.87,7.28,7.28,0,0,0-1.39-1.61A2.57,2.57,0,0,1,163.24,387.46Z"/><path class="cls-1" d="M185.73,392.17a3.13,3.13,0,0,1-2.79-1.39,7,7,0,0,1-.93-3.92,18,18,0,0,0-5,2.67,11,11,0,0,0-2.91,3.24,5.17,5.17,0,0,0-.71,3.22,3.87,3.87,0,0,0,1.61,2.64,8.62,8.62,0,0,0,4.07,1.45,22.38,22.38,0,0,0,6.64-.33l1.13,3.32a17.88,17.88,0,0,1-3.39.84,17.08,17.08,0,0,1-7.27-.44,9.78,9.78,0,0,1-3.06-1.48,7.39,7.39,0,0,1-2.12-2.46,7.18,7.18,0,0,1-.8-3.5,8.34,8.34,0,0,1,.71-3.44,10.63,10.63,0,0,1,1.88-2.84,14.93,14.93,0,0,1,2.61-2.26,19.86,19.86,0,0,1,2.94-1.69l-2.31-.27a12,12,0,0,0-1.25-.1q-.69,0-1.56,1.23l-2.49-1.16a9.58,9.58,0,0,1,1.63-2.89,2.81,2.81,0,0,1,2.22-1,14.12,14.12,0,0,1,1.73.12l2.17.27c.81.1,1.72.18,2.71.26s2.12.12,3.36.12c.44,0,.88,0,1.31-.05s.86-.07,1.28-.12l-.47,3.89a25.74,25.74,0,0,0-2.72.2,1.92,1.92,0,0,0,.6,1.52,2.6,2.6,0,0,0,1.72.47h2.43v3.85ZM179.58,377l-2,2.66-2.76-1.86,2-2.69Z"/><path class="cls-1" d="M188.72,392.17a2.24,2.24,0,0,1-.52-.06c-.16-.05-.25-.1-.25-.17v-3.35c0-.09.09-.16.25-.2a1.81,1.81,0,0,1,.52-.07H192v3.85Z"/><path class="cls-1" d="M192,392.17a2.24,2.24,0,0,1-.52-.06c-.16-.05-.24-.1-.24-.17v-3.35c0-.09.08-.16.24-.2a1.81,1.81,0,0,1,.52-.07h3.32v3.85Z"/><path class="cls-1" d="M195.36,392.17a2.1,2.1,0,0,1-.51-.06c-.17-.05-.25-.1-.25-.17v-3.35c0-.09.08-.16.25-.2a1.7,1.7,0,0,1,.51-.07h3.32v3.85Z"/><path class="cls-1" d="M198.68,392.17a2.1,2.1,0,0,1-.51-.06c-.17-.05-.25-.1-.25-.17v-3.35c0-.09.08-.16.25-.2a1.7,1.7,0,0,1,.51-.07H202v3.85Z"/><path class="cls-1" d="M202,392.17a2.16,2.16,0,0,1-.51-.06c-.17-.05-.25-.1-.25-.17v-3.35c0-.09.08-.16.25-.2a1.75,1.75,0,0,1,.51-.07h3.32v3.85Z"/><path class="cls-1" d="M205.32,392.17a2.16,2.16,0,0,1-.51-.06c-.17-.05-.25-.1-.25-.17v-3.35c0-.09.08-.16.25-.2a1.75,1.75,0,0,1,.51-.07h3.32v3.85Z"/><path class="cls-1" d="M207.88,388.59c0-.09.08-.16.25-.2a1.79,1.79,0,0,1,.51-.07H209a2.27,2.27,0,0,0,1.49-.5,1.75,1.75,0,0,0,.6-1.43v-1l2.32-.8v1a3.75,3.75,0,0,0,.44,1.95,1.41,1.41,0,0,0,1.29.71c1.55,0,2.33-.7,2.33-2.09V385l2.35-.7v1.66a2.56,2.56,0,0,0,.67,1.79,2.17,2.17,0,0,0,1.69.73,1.38,1.38,0,0,0,1.08-.36,1.4,1.4,0,0,0,.32-.93,2.83,2.83,0,0,0-.33-1.31,3.37,3.37,0,0,0-.77-1l2.29-2.59a6.57,6.57,0,0,1,1.15,2.09,7.69,7.69,0,0,1,.12,4.37,6.12,6.12,0,0,1-.78,1.76,4.22,4.22,0,0,1-1.3,1.26,3.24,3.24,0,0,1-1.78.49,4.89,4.89,0,0,1-2.24-.49,3.08,3.08,0,0,1-1.44-1.41,3.13,3.13,0,0,1-1.27,1.35,3.56,3.56,0,0,1-1.69.51,4.1,4.1,0,0,1-1.91-.43,3.26,3.26,0,0,1-1.34-1.29,3.11,3.11,0,0,1-1.6,1.32,5.51,5.51,0,0,1-2,.4,2.22,2.22,0,0,1-.51-.06c-.17-.05-.25-.1-.25-.17Z"/><path class="cls-1" d="M232.38,391.62a4,4,0,0,1-1.63-1.51,6.39,6.39,0,0,1-.8-2.29,21,21,0,0,1-.25-2.89c0-.48,0-1.18-.06-2.09s0-1.89-.07-3,0-2.15-.08-3.27-.06-2.15-.09-3.1l3.26-1.33v13.15a3.52,3.52,0,0,0,.6,2.24,2.3,2.3,0,0,0,1.92.75v3.85A6,6,0,0,1,232.38,391.62Z"/><path class="cls-1" d="M239.8,396.36l-1.66,2.26L236,397.19l-1.23,1.66-2.56-1.66,1.73-2.29,2.16,1.46,1.19-1.7Zm-5.38-7.77c0-.09.08-.16.25-.2a1.75,1.75,0,0,1,.51-.07h2.19c1.13,0,1.7-.27,1.7-.8a1,1,0,0,0-.07-.35,3.06,3.06,0,0,0-.26-.51q-.21-.33-.57-.81c-.24-.33-.56-.74-1-1.25l2.16-3.06a5.85,5.85,0,0,1,1.61,2.3,7.68,7.68,0,0,1,.58,3,5.84,5.84,0,0,1-.45,2.38,4.63,4.63,0,0,1-1.23,1.67,5,5,0,0,1-1.84,1,7.68,7.68,0,0,1-2.29.33h-.57a2.16,2.16,0,0,1-.51-.06c-.17-.05-.25-.1-.25-.17ZM238.6,400l-1.69,2.23-2.36-1.6,1.63-2.19Z"/><path class="cls-1" d="M247.74,398.35c.71-.35,1.54-.81,2.5-1.36A30.81,30.81,0,0,0,253,395.2a15.57,15.57,0,0,0,2.31-2,3.41,3.41,0,0,0,1-2,3.91,3.91,0,0,1-1,.38,5.3,5.3,0,0,1-1.23.15,3.07,3.07,0,0,1-3.58-3.32,7.22,7.22,0,0,1,.25-1.86,6,6,0,0,1,.74-1.76,4.48,4.48,0,0,1,1.23-1.33,2.82,2.82,0,0,1,1.73-.53,3.19,3.19,0,0,1,2.19.76,5.47,5.47,0,0,1,1.38,1.88,8.93,8.93,0,0,1,.71,2.34,12.92,12.92,0,0,1,.2,2.16,7.87,7.87,0,0,1-.68,3.35,10.14,10.14,0,0,1-1.84,2.74,18,18,0,0,1-2.68,2.33c-1,.72-2.07,1.41-3.2,2.07Zm8.33-10.1a4,4,0,0,0-.66-1.52,1.41,1.41,0,0,0-1.16-.64,1.34,1.34,0,0,0-1,.44,1.46,1.46,0,0,0-.43,1.06.82.82,0,0,0,.5.8,2.64,2.64,0,0,0,1.1.23,3.5,3.5,0,0,0,.91-.12A3,3,0,0,0,256.07,388.25Z"/><path class="cls-1" d="M297.49,392.17a4.18,4.18,0,0,1-1.86-.38,2.85,2.85,0,0,1-1.29-1.34,4,4,0,0,1-1.37,1.26,3.4,3.4,0,0,1-1.66.43,3,3,0,0,1-1.48-.4,3.43,3.43,0,0,1-1.24-1.29,3.7,3.7,0,0,1-3.29,1.69,2.65,2.65,0,0,1-1.49-.43,8.9,8.9,0,0,1-.78,3.14,8.31,8.31,0,0,1-1.85,2.57,8.58,8.58,0,0,1-2.79,1.74,9.61,9.61,0,0,1-3.65.65,9.09,9.09,0,0,1-3.34-.56,6.24,6.24,0,0,1-2.32-1.56,6.5,6.5,0,0,1-1.37-2.33,9,9,0,0,1-.44-2.82,10.39,10.39,0,0,1,.33-2.59,8.86,8.86,0,0,1,1-2.46l2.46.86a11.12,11.12,0,0,0-.67,1.73,6.33,6.33,0,0,0-.23,1.66,4.7,4.7,0,0,0,.28,1.66,3.68,3.68,0,0,0,.86,1.33,4.11,4.11,0,0,0,1.48.9A6.29,6.29,0,0,0,275,396a7.14,7.14,0,0,0,2.41-.37,4.9,4.9,0,0,0,1.74-1,4,4,0,0,0,1.05-1.48,4.78,4.78,0,0,0,.35-1.81,6.82,6.82,0,0,0-.35-2.08,8.13,8.13,0,0,0-1.08-2.14l2.79-2.29a12,12,0,0,0,.75,1.29,9.76,9.76,0,0,0,.84,1.13,4.55,4.55,0,0,0,.88.8,1.65,1.65,0,0,0,.92.3,2.32,2.32,0,0,0,1.53-.4,1.56,1.56,0,0,0,.46-1.26V385.5l2.33-.83v1.13a3.32,3.32,0,0,0,.44,1.94,1.92,1.92,0,0,0,1.61.58,1.9,1.9,0,0,0,1.35-.45,1.57,1.57,0,0,0,.48-1.21V385.5l2.36-.83v1.39c0,.4,0,.74,0,1a1.75,1.75,0,0,0,.2.7,1,1,0,0,0,.53.42,3.15,3.15,0,0,0,1,.13h.5v3.85ZM284.6,381.11l1.66-2.26,2.16,1.43,1.23-1.69,2.53,1.69-1.66,2.26-2.2-1.43-1.16,1.7Zm1.23-3.68,1.7-2.2,2.32,1.56-1.63,2.2Z"/><path class="cls-1" d="M298.12,392.17a2.1,2.1,0,0,1-.51-.06c-.17-.05-.25-.1-.25-.17v-3.35c0-.09.08-.16.25-.2a1.7,1.7,0,0,1,.51-.07h3.32v3.85Z"/><path class="cls-1" d="M301.44,392.17a2.16,2.16,0,0,1-.51-.06c-.17-.05-.25-.1-.25-.17v-3.35c0-.09.08-.16.25-.2a1.75,1.75,0,0,1,.51-.07h3.32v3.85Z"/><path class="cls-1" d="M304.76,392.17a2.16,2.16,0,0,1-.51-.06c-.17-.05-.25-.1-.25-.17v-3.35c0-.09.08-.16.25-.2a1.75,1.75,0,0,1,.51-.07h3.33v3.85Z"/><path class="cls-1" d="M308.08,392.17a2.22,2.22,0,0,1-.51-.06c-.17-.05-.25-.1-.25-.17v-3.35c0-.09.08-.16.25-.2a1.79,1.79,0,0,1,.51-.07h3.33v3.85Z"/><path class="cls-1" d="M311.41,392.17a2.24,2.24,0,0,1-.52-.06c-.16-.05-.25-.1-.25-.17v-3.35c0-.09.09-.16.25-.2a1.81,1.81,0,0,1,.52-.07h3.32v3.85Z"/><path class="cls-1" d="M314,388.59c0-.09.09-.16.25-.2a1.81,1.81,0,0,1,.52-.07h.33a2.24,2.24,0,0,0,1.49-.5,1.75,1.75,0,0,0,.6-1.43v-1l2.33-.8v1a3.76,3.76,0,0,0,.43,1.95,1.42,1.42,0,0,0,1.29.71c1.55,0,2.33-.7,2.33-2.09V385l2.36-.7v1.66a2.55,2.55,0,0,0,.66,1.79,2.18,2.18,0,0,0,1.7.73,1.37,1.37,0,0,0,1.07-.36,1.4,1.4,0,0,0,.32-.93,2.83,2.83,0,0,0-.33-1.31,3.22,3.22,0,0,0-.77-1l2.3-2.59a6.35,6.35,0,0,1,1.14,2.09,7.53,7.53,0,0,1,.38,2.4,7.36,7.36,0,0,1-.26,2,6.12,6.12,0,0,1-.78,1.76,4.22,4.22,0,0,1-1.3,1.26,3.23,3.23,0,0,1-1.77.49,4.93,4.93,0,0,1-2.25-.49,3.08,3.08,0,0,1-1.44-1.41,3.16,3.16,0,0,1-1.26,1.35,3.63,3.63,0,0,1-1.7.51,4.13,4.13,0,0,1-1.91-.43,3.26,3.26,0,0,1-1.34-1.29,3.11,3.11,0,0,1-1.6,1.32,5.46,5.46,0,0,1-2,.4,2.24,2.24,0,0,1-.52-.06c-.16-.05-.25-.1-.25-.17Z"/><path class="cls-1" d="M341,392a2.39,2.39,0,0,1-.64-.46,8.17,8.17,0,0,1-1.12,2.67,12.91,12.91,0,0,1-2,2.39,19.86,19.86,0,0,1-2.55,2.11c-.95.67-1.91,1.29-2.91,1.86L329,398.35c.7-.35,1.56-.81,2.55-1.38a29.05,29.05,0,0,0,2.86-1.84,14.78,14.78,0,0,0,2.31-2.06,3.17,3.17,0,0,0,.94-2.06,2,2,0,0,0-.19-.83,8,8,0,0,0-.47-.86c-.18-.29-.35-.56-.53-.8s-.32-.44-.43-.6l2.55-2.76c.25.38.47.76.69,1.13a6.46,6.46,0,0,0,.68,1,3.59,3.59,0,0,0,.79.73,1.83,1.83,0,0,0,1,.28v3.85A1.62,1.62,0,0,1,341,392Z"/><path class="cls-1" d="M348.34,396.36l-1.66,2.26-2.16-1.43-1.23,1.66-2.56-1.66,1.73-2.29,2.16,1.46,1.19-1.7ZM341,388.59c0-.09.09-.16.25-.2a1.81,1.81,0,0,1,.52-.07h4c1.15,0,1.73-.27,1.73-.8a1,1,0,0,0-.07-.35,3.06,3.06,0,0,0-.26-.51c-.14-.22-.32-.49-.57-.81s-.57-.74-1-1.25l2.15-3.06a5.88,5.88,0,0,1,1.63,2.3,7.52,7.52,0,0,1,.6,3,5.84,5.84,0,0,1-.45,2.38,4.63,4.63,0,0,1-1.23,1.67,5,5,0,0,1-1.84,1,7.68,7.68,0,0,1-2.29.33H341.8a2.24,2.24,0,0,1-.52-.06c-.16-.05-.25-.1-.25-.17ZM347.14,400l-1.69,2.23-2.36-1.6,1.63-2.19Z"/><path class="cls-1" d="M350,189a709.37,709.37,0,0,0-58.56-66C255.7,87.35,216.13,57,170.88,34.65,116.53,7.85,59.63-3.9,0,1.14V350H350Z"/></svg>