<svg id="Layer_1" data-name="Layer 1" xmlns="http://www.w3.org/2000/svg" viewBox="0 0 38.9 197.86"><defs><style>.cls-1{fill:#005879;}.cls-2{fill:#f48120;}</style></defs><path class="cls-1" d="M38.9,197.86v-1.25c-1.29-.31-2.58-.62-3.87-.91a218.06,218.06,0,0,0-35-5.18v1.22a215.66,215.66,0,0,1,34.76,5.14C36.15,197.2,37.53,197.52,38.9,197.86Z"/><path class="cls-2" d="M19.53,135.91a92.34,92.34,0,0,1,18.89-14.36v-1h-.7a93.89,93.89,0,0,0-19,14.49A145.3,145.3,0,0,0,.49,156.67H2A144.58,144.58,0,0,1,19.53,135.91Z"/><path class="cls-1" d="M38.9,82V80.75L35,79.84A216.89,216.89,0,0,0,0,74.67v1.21A216.84,216.84,0,0,1,34.76,81C36.15,81.34,37.53,81.67,38.9,82Z"/><path class="cls-2" d="M19.53,15.36A92.34,92.34,0,0,1,38.42,1V0h-.7a93.89,93.89,0,0,0-19,14.49A145.3,145.3,0,0,0,.49,36.12H2A144,144,0,0,1,19.53,15.36Z"/></svg>