<svg id="Layer_1" data-name="Layer 1" xmlns="http://www.w3.org/2000/svg" viewBox="0 0 55.48 55.48"><defs><style>.cls-1{fill:#f48120;}</style></defs><path class="cls-1" d="M27,23.65A142.55,142.55,0,0,1,55.48,1.86V0H55A144.37,144.37,0,0,0,25.64,22.32Q20.09,27.75,15,33.51h0a52.31,52.31,0,0,1-5.71-10A68.1,68.1,0,0,1,4,1.84c0-.33,0-.66-.07-1H2.07c0,.39.05.77.09,1.16A70.06,70.06,0,0,0,7.54,24.27,53.87,53.87,0,0,0,13.69,35Q6.4,43.28,0,52.23v3.25a220.64,220.64,0,0,1,14.86-19l.25-.27-.25.27c7,8.61,16.52,14.18,28.49,16.6a105.52,105.52,0,0,0,12.13,1.68V52.85a103.2,103.2,0,0,1-11.76-1.63C32.1,48.86,22.86,43.43,16.12,35h0l-.06-.08.06.08Q21.31,29.17,27,23.65Z"/></svg>