<svg id="Layer_1" data-name="Layer 1" xmlns="http://www.w3.org/2000/svg" viewBox="0 0 1298.4 26.46"><path d="M60.65,11.25A67.75,67.75,0,0,1,74.48.73V0H74A68.59,68.59,0,0,0,60,10.61,106,106,0,0,0,46.7,26.46h1.08A106.08,106.08,0,0,1,60.65,11.25Z"/><path d="M28.5,15.92V15l-2.84-.67A160.18,160.18,0,0,0,0,10.54v.89A158.7,158.7,0,0,1,25.46,15.2C26.48,15.43,27.49,15.67,28.5,15.92Z"/><path d="M153.33,11.25A67.75,67.75,0,0,1,167.16.73V0h-.51a68.32,68.32,0,0,0-13.94,10.61,106.1,106.1,0,0,0-13.34,15.85h1.09A105.44,105.44,0,0,1,153.33,11.25Z"/><path d="M121.17,15.92V15l-2.83-.67a160.18,160.18,0,0,0-25.66-3.79v.89a158.7,158.7,0,0,1,25.46,3.77Q119.67,15.55,121.17,15.92Z"/><path d="M246,11.25A67.75,67.75,0,0,1,259.84.73V0h-.51a68.32,68.32,0,0,0-13.94,10.61,106.1,106.1,0,0,0-13.34,15.85h1.09A105.44,105.44,0,0,1,246,11.25Z"/><path d="M213.85,15.92V15L211,14.33a160.18,160.18,0,0,0-25.66-3.79v.89a158.7,158.7,0,0,1,25.46,3.77C211.83,15.43,212.85,15.67,213.85,15.92Z"/><path d="M338.69,11.25A67.75,67.75,0,0,1,352.52.73V0H352a68.86,68.86,0,0,0-13.94,10.61,106.64,106.64,0,0,0-13.33,15.85h1.09A105.44,105.44,0,0,1,338.69,11.25Z"/><path d="M306.53,15.92V15l-2.83-.67A160.18,160.18,0,0,0,278,10.54v.89A158.7,158.7,0,0,1,303.5,15.2C304.51,15.43,305.53,15.67,306.53,15.92Z"/><path d="M437.73,11.25A67.75,67.75,0,0,1,451.56.73V0h-.51a68.59,68.59,0,0,0-13.94,10.61,106,106,0,0,0-13.33,15.85h1.08A106.08,106.08,0,0,1,437.73,11.25Z"/><path d="M405.58,15.92V15l-2.84-.67a160,160,0,0,0-25.66-3.79v.89a158.7,158.7,0,0,1,25.46,3.77C403.56,15.43,404.57,15.67,405.58,15.92Z"/><path d="M530.41,11.25A67.75,67.75,0,0,1,544.24.73V0h-.51a68.59,68.59,0,0,0-13.94,10.61,106,106,0,0,0-13.33,15.85h1.08A106.08,106.08,0,0,1,530.41,11.25Z"/><path d="M498.26,15.92V15l-2.84-.67a160,160,0,0,0-25.66-3.79v.89a158.7,158.7,0,0,1,25.46,3.77C496.24,15.43,497.25,15.67,498.26,15.92Z"/><path d="M623.09,11.25A67.75,67.75,0,0,1,636.92.73V0h-.51a68.59,68.59,0,0,0-13.94,10.61,106,106,0,0,0-13.33,15.85h1.08A106.08,106.08,0,0,1,623.09,11.25Z"/><path d="M590.94,15.92V15l-2.84-.67a160.18,160.18,0,0,0-25.66-3.79v.89A158.7,158.7,0,0,1,587.9,15.2C588.92,15.43,589.93,15.67,590.94,15.92Z"/><path d="M715.77,11.25A67.75,67.75,0,0,1,729.6.73V0h-.51a68.32,68.32,0,0,0-13.94,10.61,106.7,106.7,0,0,0-13.34,15.85h1.09A105.44,105.44,0,0,1,715.77,11.25Z"/><path d="M683.61,15.92V15l-2.83-.67a160.18,160.18,0,0,0-25.66-3.79v.89a158.7,158.7,0,0,1,25.46,3.77Q682.11,15.55,683.61,15.92Z"/><path d="M814.81,11.25A67.75,67.75,0,0,1,828.64.73V0h-.51a68.59,68.59,0,0,0-13.94,10.61,106.64,106.64,0,0,0-13.33,15.85h1.08A106.08,106.08,0,0,1,814.81,11.25Z"/><path d="M782.66,15.92V15l-2.84-.67a160,160,0,0,0-25.66-3.79v.89a158.7,158.7,0,0,1,25.46,3.77C780.64,15.43,781.65,15.67,782.66,15.92Z"/><path d="M907.49,11.25A67.75,67.75,0,0,1,921.32.73V0h-.51a68.59,68.59,0,0,0-13.94,10.61,106.64,106.64,0,0,0-13.33,15.85h1.08A106.08,106.08,0,0,1,907.49,11.25Z"/><path d="M875.34,15.92V15l-2.84-.67a160,160,0,0,0-25.66-3.79v.89A158.7,158.7,0,0,1,872.3,15.2C873.32,15.43,874.33,15.67,875.34,15.92Z"/><path d="M1000.17,11.25A67.75,67.75,0,0,1,1014,.73V0h-.51a68.59,68.59,0,0,0-13.94,10.61,106,106,0,0,0-13.33,15.85h1.08A106.08,106.08,0,0,1,1000.17,11.25Z"/><path d="M968,15.92V15l-2.84-.67a160,160,0,0,0-25.66-3.79v.89A158.7,158.7,0,0,1,965,15.2C966,15.43,967,15.67,968,15.92Z"/><path d="M1092.85,11.25A67.75,67.75,0,0,1,1106.68.73V0h-.51a68.59,68.59,0,0,0-13.94,10.61,106,106,0,0,0-13.33,15.85H1080A106.08,106.08,0,0,1,1092.85,11.25Z"/><path d="M1060.7,15.92V15l-2.84-.67a160,160,0,0,0-25.66-3.79v.89a158.7,158.7,0,0,1,25.46,3.77C1058.68,15.43,1059.69,15.67,1060.7,15.92Z"/><path d="M1191.89,11.25A67.75,67.75,0,0,1,1205.72.73V0h-.51a68.86,68.86,0,0,0-13.94,10.61,106.64,106.64,0,0,0-13.33,15.85H1179A106.08,106.08,0,0,1,1191.89,11.25Z"/><path d="M1159.74,15.92V15l-2.84-.67a160,160,0,0,0-25.66-3.79v.89a158.7,158.7,0,0,1,25.46,3.77C1157.72,15.43,1158.73,15.67,1159.74,15.92Z"/><path d="M1284.57,11.25A67.75,67.75,0,0,1,1298.4.73V0h-.51A68.59,68.59,0,0,0,1284,10.61a106.64,106.64,0,0,0-13.33,15.85h1.08A106.08,106.08,0,0,1,1284.57,11.25Z"/><path d="M1252.42,15.92V15l-2.84-.67a160,160,0,0,0-25.66-3.79v.89a158.7,158.7,0,0,1,25.46,3.77C1250.4,15.43,1251.41,15.67,1252.42,15.92Z"/></svg>