<svg id="Layer_1" data-name="Layer 1" xmlns="http://www.w3.org/2000/svg" xmlns:xlink="http://www.w3.org/1999/xlink" viewBox="0 0 267.11 95.53"><defs><style>.cls-1{fill:none;}.cls-2{clip-path:url(#clip-path);}.cls-3{fill:#e5e6e6;}.cls-4{fill:#221f1f;}.cls-5{fill:#a6a7aa;}.cls-6{fill:#fff;}</style><clipPath id="clip-path"><path class="cls-1" d="M271.11,350H580.45C625,275.17,622,182.19,531.51,75.48,503.63,42.6,475.2,17.8,446.68,0H271.11Z"/></clipPath></defs><g class="cls-2"><image width="1302" height="767" transform="translate(263.46 -353.04) scale(0.92)" xlink:href="../attachments-2/%D8%A7%D8%AC%D8%B1%D8%A7%DB%8C%20%DB%8C%DA%A9%D9%BE%D8%A7%D8%B1%DA%86%D9%87%20%D8%A8%D8%B1%D9%86%D8%AF%DB%8C%D9%86%DA%AF%20integrated%20brand%20execution.jpg"/></g><rect class="cls-3" x="76.13" y="54.5" width="190.56" height="41.03"/><rect class="cls-4" y="54.5" width="76.13" height="41.03"/><path class="cls-5" d="M107.37,75.53a2.24,2.24,0,0,1-.21,1,2.55,2.55,0,0,1-.55.79,2.64,2.64,0,0,1-.79.52,2.53,2.53,0,0,1-.94.18,2.3,2.3,0,0,1-.95-.19,2.72,2.72,0,0,1-.78-.54,2.78,2.78,0,0,1-.52-.79,2.41,2.41,0,0,1-.19-.93,2.31,2.31,0,0,1,.2-1,2.63,2.63,0,0,1,.53-.78,2.48,2.48,0,0,1,.78-.52,2.51,2.51,0,0,1,1.89,0,2.67,2.67,0,0,1,.79.53,2.48,2.48,0,0,1,.54.78A2.25,2.25,0,0,1,107.37,75.53Zm-1.65,0a.8.8,0,0,0-.24-.58.81.81,0,0,0-.62-.24.73.73,0,0,0-.56.24.83.83,0,0,0-.23.58.82.82,0,0,0,.23.59.72.72,0,0,0,.56.23.81.81,0,0,0,.62-.23A.79.79,0,0,0,105.72,75.53Z"/><path class="cls-5" d="M115,80a8.11,8.11,0,0,1-1.49-2.46,8.63,8.63,0,0,1-.51-3,11.72,11.72,0,0,1-1.68-.11,3.32,3.32,0,0,1-1.2-.39,1.78,1.78,0,0,1-.72-.79,3,3,0,0,1-.25-1.3,4,4,0,0,1,.26-1.27,6.43,6.43,0,0,1,.69-1.42,5,5,0,0,1,1-1.14,1.77,1.77,0,0,1,1.14-.47,1.94,1.94,0,0,1,1.37.46,2.77,2.77,0,0,1,.7,1.14,5.65,5.65,0,0,1,.27,1.45c0,.52,0,1,0,1.41a14.19,14.19,0,0,0,.08,1.69,6.3,6.3,0,0,0,.28,1.36,5.24,5.24,0,0,0,.56,1.17,8.52,8.52,0,0,0,.88,1.17Zm-2.06-7.79,0-.88a3.51,3.51,0,0,0-.1-.77,1.21,1.21,0,0,0-.3-.56.87.87,0,0,0-.65-.22.74.74,0,0,0-.49.18,1.72,1.72,0,0,0-.37.43,2.2,2.2,0,0,0-.25.54,1.71,1.71,0,0,0-.09.5.49.49,0,0,0,.28.43,2,2,0,0,0,.65.24,6.15,6.15,0,0,0,.75.1Z"/><path class="cls-5" d="M120.31,80q0-6.18-2.55-9.59L119,67.62a10.73,10.73,0,0,1,1.63,2.81,17.63,17.63,0,0,1,.88,3.12,22,22,0,0,1,.36,3.24c0,1.1.07,2.15.07,3.17Z"/><path class="cls-5" d="M130.91,67.51c0,3.76-1.18,5.65-3.53,5.65a25.75,25.75,0,0,1,.4,3c.08,1.13.13,2.39.15,3.77h-1.65q0-6.13-2.53-9.59L125,67.62l.56,1a6.27,6.27,0,0,0,.61.86,3,3,0,0,0,.72.62,1.79,1.79,0,0,0,.92.23,1.65,1.65,0,0,0,.81-.18,1.38,1.38,0,0,0,.5-.49,2.24,2.24,0,0,0,.25-.7,5.31,5.31,0,0,0,.07-.81Z"/><path class="cls-4" d="M2.57,15.17H0V13.33a5.25,5.25,0,0,1,.23-1.74,2.43,2.43,0,0,1,.68-1.12,3.85,3.85,0,0,1,1.21-.72l.35.91A2,2,0,0,0,1,12.6H2.57Z"/><path class="cls-4" d="M11,15a2.27,2.27,0,0,1-.49-.35,6.16,6.16,0,0,1-.84,2,9.76,9.76,0,0,1-1.49,1.81,15.44,15.44,0,0,1-1.94,1.6c-.71.51-1.45,1-2.21,1.42L1.89,19.86c.54-.27,1.19-.62,1.94-1A23,23,0,0,0,6,17.42a11.34,11.34,0,0,0,1.75-1.57,2.36,2.36,0,0,0,.72-1.56,1.52,1.52,0,0,0-.15-.63A5.84,5.84,0,0,0,8,13c-.14-.22-.27-.42-.41-.61L7.24,12,9.18,9.86c.18.28.35.57.51.85a4.93,4.93,0,0,0,.52.77,2.56,2.56,0,0,0,.6.55,1.36,1.36,0,0,0,.79.22v2.92A1.3,1.3,0,0,1,11,15Z"/><path class="cls-4" d="M17.09,15.17a2.24,2.24,0,0,1-2.32-1.31,3.31,3.31,0,0,1-2.95,1.31h-.23a1.31,1.31,0,0,1-.39-.05c-.12,0-.19-.07-.19-.12V12.45c0-.07.07-.12.19-.15a1.74,1.74,0,0,1,.39-.05h.13q1.89,0,1.89-1.29V10l2.07-.66v.63c0,1.55.5,2.32,1.51,2.32h.15v2.92ZM11.57,6.55l1.26-1.71,1.64,1.08.93-1.28,1.94,1.28L16.06,7.64,14.39,6.55l-.85,1.29Z"/><path class="cls-4" d="M31.58,15.17a3.1,3.1,0,0,1-1.42-.29,2.15,2.15,0,0,1-1-1,3,3,0,0,1-1,1,2.58,2.58,0,0,1-1.26.33,2.19,2.19,0,0,1-1.1-.3,2.58,2.58,0,0,1-.94-1,3,3,0,0,1-2.52,1.29,2.27,2.27,0,0,1-1.12-.3,2.51,2.51,0,0,1-.94-1A2.54,2.54,0,0,1,18,15.17h-.61a1.31,1.31,0,0,1-.39-.05c-.13,0-.19-.07-.19-.12V12.45c0-.07.06-.12.19-.15a1.74,1.74,0,0,1,.39-.05H18c.7,0,1.06-.42,1.06-1.26v-.88l1.78-.63V10a2.82,2.82,0,0,0,.38,1.66,1.42,1.42,0,0,0,1.09.56c1,0,1.48-.42,1.48-1.26v-.88l1.79-.63v.85a2.54,2.54,0,0,0,.34,1.48,1.49,1.49,0,0,0,1.23.44,1.45,1.45,0,0,0,1-.34,1.21,1.21,0,0,0,.36-.92v-.88l1.77-.63v1.06c0,.3,0,.56,0,.76a1.33,1.33,0,0,0,.15.53.75.75,0,0,0,.41.32,2.27,2.27,0,0,0,.78.1H32v2.92ZM21.75,6.78,23,5.07l1.64,1.08.93-1.29L27.5,6.15,26.24,7.86,24.58,6.78l-.89,1.29ZM22.68,4,24,2.32,25.74,3.5,24.5,5.17Z"/><path class="cls-4" d="M37.46,15.17a2.24,2.24,0,0,1-2.32-1.31,3.32,3.32,0,0,1-3,1.31H32a1.31,1.31,0,0,1-.39-.05c-.13,0-.19-.07-.19-.12V12.45c0-.07.06-.12.19-.15a1.74,1.74,0,0,1,.39-.05h.13Q34,12.25,34,11V10L36,9.3v.63c0,1.55.51,2.32,1.52,2.32h.15v2.92Zm.25,3.18-1.26,1.71L34.81,19l-.93,1.26-2-1.26,1.34-1.74,1.63,1.11.91-1.29Z"/><path class="cls-4" d="M37.13,12.45c0-.07.06-.12.19-.15a1.6,1.6,0,0,1,.39-.05h1.66q1.29,0,1.29-.6a.86.86,0,0,0,0-.27A2.68,2.68,0,0,0,40.4,11c-.1-.17-.24-.37-.42-.62s-.43-.56-.74-.94l1.64-2.32a4.49,4.49,0,0,1,1.23,1.74,6,6,0,0,1,.44,2.24,4.51,4.51,0,0,1-.34,1.8,3.5,3.5,0,0,1-.94,1.28,4,4,0,0,1-1.39.75,5.76,5.76,0,0,1-1.74.25h-.43a1.23,1.23,0,0,1-.39-.05c-.13,0-.19-.07-.19-.12Zm.55,6.63,1.51-2,2.1,1.42-1.54,2Z"/><path class="cls-4" d="M53.41,15.85A10.62,10.62,0,0,1,48,14.76a3.42,3.42,0,0,1-1.79-3.07,5.61,5.61,0,0,1,.25-1.55,13.14,13.14,0,0,1,.71-1.75L49,9a8,8,0,0,0-.36.92,3,3,0,0,0-.15.94,1.46,1.46,0,0,0,.57,1.24,4,4,0,0,0,1.47.63,12.15,12.15,0,0,0,2.06.24c.76,0,1.52,0,2.28,0a22.09,22.09,0,0,0,2.42-.16,24,24,0,0,0,2.49-.41,10.91,10.91,0,0,0,1.94-.61c.53-.22.79-.45.79-.69a1.51,1.51,0,0,0-.32-.69c-.21-.31-.52-.75-.94-1.3l1.61-2.42a6.19,6.19,0,0,1,1.21,1.8,5.29,5.29,0,0,1,.45,2.16A3.71,3.71,0,0,1,64,12.7a4.92,4.92,0,0,1-1.5,1.44,8.56,8.56,0,0,1-2.13.92,18.25,18.25,0,0,1-2.44.52c-.82.11-1.63.19-2.42.22S54,15.85,53.41,15.85ZM51.92,6.68,53.18,5l1.64,1.09.94-1.29L57.7,6.05,56.41,7.76,54.75,6.68,53.89,8Z"/><path class="cls-4" d="M68.55,14.76a3.13,3.13,0,0,1-1.24-1.15,5,5,0,0,1-.6-1.74,16.1,16.1,0,0,1-.19-2.19c0-.37,0-.9,0-1.59s0-1.44,0-2.24,0-1.64-.07-2.48,0-1.64-.06-2.36l2.47-1V10a2.63,2.63,0,0,0,.46,1.7,1.75,1.75,0,0,0,1.46.57v2.92A4.72,4.72,0,0,1,68.55,14.76Z"/><path class="cls-4" d="M70.1,12.45c0-.07.06-.12.19-.15a1.6,1.6,0,0,1,.39-.05h2.24a5.37,5.37,0,0,1-.39-1.08,4.59,4.59,0,0,1-.14-1.09,3.41,3.41,0,0,1,.3-1.42,3.67,3.67,0,0,1,.81-1.15,4,4,0,0,1,1.16-.76,3.62,3.62,0,0,1,1.39-.27,4.16,4.16,0,0,1,1.75.39A4.3,4.3,0,0,1,79.25,8l-.76,1.57a5.7,5.7,0,0,0-1.2-.44,4.93,4.93,0,0,0-1.24-.17,2.91,2.91,0,0,0-1.34.28.94.94,0,0,0-.55.91,1.09,1.09,0,0,0,.29.74,2.49,2.49,0,0,0,.7.58,4,4,0,0,0,.88.38,3.06,3.06,0,0,0,.82.14,9.87,9.87,0,0,0,1.53-.15c.61-.11,1.35-.25,2.23-.43l-.3,2.54q-2.85.66-5,1a27,27,0,0,1-3.64.3h-1a1.23,1.23,0,0,1-.39-.05c-.13,0-.19-.07-.19-.12Z"/><path class="cls-4" d="M92.53,14.88a3.12,3.12,0,0,1-1.2-.8,3.47,3.47,0,0,1-.7-1.25,7.77,7.77,0,0,1-.34-1.61A6.82,6.82,0,0,1,88,14.28a7.2,7.2,0,0,1-3.63,1.35l-1.89-2c.5-.08,1.07-.21,1.71-.38A13.09,13.09,0,0,0,86,12.62a6.1,6.1,0,0,0,1.46-.85,1.34,1.34,0,0,0,.59-1.06,3.32,3.32,0,0,0-.47-1.5,8.86,8.86,0,0,0-1.29-1.74,12.75,12.75,0,0,0-1.88-1.65A10.42,10.42,0,0,0,82.2,4.56l.53-3.2c.87.59,1.65,1.16,2.34,1.73A14.64,14.64,0,0,1,86.9,4.85a12.12,12.12,0,0,1,1.38,2,13.11,13.11,0,0,1,1,2.34,8.14,8.14,0,0,0,.5-1.36,9.56,9.56,0,0,0,.29-1.53c0-.86-.06-1.76-.08-2.69S90,1.8,90,1l2.5-1V10a2.7,2.7,0,0,0,.45,1.7,1.72,1.72,0,0,0,1.44.57v2.92A4.82,4.82,0,0,1,92.53,14.88Z"/><path class="cls-4" d="M93.77,12.45c0-.07.06-.12.19-.15a1.6,1.6,0,0,1,.39-.05h.88l.46-.56c.16-.18.34-.36.52-.55.05-.5.09-1,.12-1.61s0-1.11,0-1.62c0-1,0-2.08-.1-3.19S96.09,2.38,96,1l2.62-1V8.67a12.5,12.5,0,0,1,1.9-1.4,3.79,3.79,0,0,1,1.93-.57,3,3,0,0,1,2.22.85,2.83,2.83,0,0,1,.86,2.1,4.41,4.41,0,0,1-.73,2.56A6.18,6.18,0,0,1,103,13.93a7.57,7.57,0,0,1-2.33,1,10,10,0,0,1-2.32.29h-4a1.23,1.23,0,0,1-.39-.05c-.13,0-.19-.07-.19-.12Zm8-3a3.24,3.24,0,0,0-2,.78,27.83,27.83,0,0,0-2.21,2h.68l.7,0c.32,0,.68,0,1.07-.08s.8-.11,1.21-.19a8.14,8.14,0,0,0,1.14-.32,2.44,2.44,0,0,0,.84-.48.88.88,0,0,0,.33-.69.64.64,0,0,0-.19-.49,1.23,1.23,0,0,0-.46-.3,3.08,3.08,0,0,0-.57-.17A3.61,3.61,0,0,0,101.73,9.45Z"/><path class="cls-4" d="M110,14.85l-2.57.68V1L110,0Z"/><path class="cls-4" d="M112,19.86c.54-.27,1.17-.61,1.9-1A24.63,24.63,0,0,0,116,17.47a11.62,11.62,0,0,0,1.75-1.53,2.56,2.56,0,0,0,.78-1.52,2.9,2.9,0,0,1-.78.29,4.36,4.36,0,0,1-.93.11,2.67,2.67,0,0,1-2.11-.71,2.63,2.63,0,0,1-.61-1.81,5.48,5.48,0,0,1,.19-1.41,4.69,4.69,0,0,1,.56-1.34,3.78,3.78,0,0,1,.94-1,2.21,2.21,0,0,1,1.31-.4,2.4,2.4,0,0,1,1.66.58,4.42,4.42,0,0,1,1,1.42,6.91,6.91,0,0,1,.54,1.78,10.48,10.48,0,0,1,.15,1.64,6,6,0,0,1-.52,2.55,7.49,7.49,0,0,1-1.4,2.07,12.58,12.58,0,0,1-2,1.77c-.76.55-1.57,1.07-2.43,1.58Zm6.33-7.66a3,3,0,0,0-.51-1.16,1.05,1.05,0,0,0-.88-.48,1,1,0,0,0-.73.33,1.09,1.09,0,0,0-.33.8.63.63,0,0,0,.38.61,1.9,1.9,0,0,0,.83.18,2.61,2.61,0,0,0,.69-.09A2.88,2.88,0,0,0,118.32,12.2Z"/><path class="cls-4" d="M130.89,11.67a3.89,3.89,0,0,1-.29,1.57,3.23,3.23,0,0,1-.79,1.17,3.46,3.46,0,0,1-1.16.71,3.88,3.88,0,0,1-1.41.26,3.41,3.41,0,0,1-2.26-.69,2.41,2.41,0,0,1-.82-2A7.72,7.72,0,0,1,125.58,9l-.53-.26,1.33-2.31a15.12,15.12,0,0,1,1.72,1,8.77,8.77,0,0,1,1.42,1.19,5.18,5.18,0,0,1,1,1.41A4,4,0,0,1,130.89,11.67Zm-2,.18c0-.76-.62-1.45-1.87-2.07a6.27,6.27,0,0,0-.64,1,2.16,2.16,0,0,0-.29,1,.9.9,0,0,0,.28.68,1.25,1.25,0,0,0,.93.28,3.13,3.13,0,0,0,.5,0,3.55,3.55,0,0,0,.52-.15,1.28,1.28,0,0,0,.4-.27A.51.51,0,0,0,128.93,11.85Z"/><path class="cls-4" d="M135,9.83a10.51,10.51,0,0,1,1,1.8,5.33,5.33,0,0,1,.39,2.13,4.83,4.83,0,0,1-.59,2.33,9.25,9.25,0,0,1-1.54,2.11A16.41,16.41,0,0,1,132.17,20c-.79.56-1.57,1.07-2.36,1.52l-2.14-1.69c.55-.27,1.2-.62,2-1.06a19.44,19.44,0,0,0,2.14-1.43,12.41,12.41,0,0,0,1.74-1.6,2.45,2.45,0,0,0,.72-1.56,2.22,2.22,0,0,0-.39-1.13c-.26-.42-.53-.81-.79-1.16Z"/><path class="cls-4" d="M136.29,19.91a21,21,0,0,0,1.89-1c.72-.43,1.41-.89,2.08-1.38A12.42,12.42,0,0,0,142,16a2.94,2.94,0,0,0,.8-1.54,3.45,3.45,0,0,1-.81.29,4.36,4.36,0,0,1-.93.11,2.65,2.65,0,0,1-2.11-.71,2.63,2.63,0,0,1-.62-1.81,6,6,0,0,1,.19-1.41,5,5,0,0,1,.57-1.34,3.6,3.6,0,0,1,.93-1,2.23,2.23,0,0,1,1.31-.4,2.41,2.41,0,0,1,1.67.58,4.39,4.39,0,0,1,1,1.42,6.91,6.91,0,0,1,.54,1.78,9.5,9.5,0,0,1,.16,1.64,6.18,6.18,0,0,1-.52,2.55,7.49,7.49,0,0,1-1.4,2.07,13,13,0,0,1-2,1.77c-.76.55-1.57,1.07-2.43,1.58Zm6.22-7.71A3.14,3.14,0,0,0,142,11a1.06,1.06,0,0,0-.88-.48,1,1,0,0,0-.73.33,1.09,1.09,0,0,0-.33.8.61.61,0,0,0,.38.61,1.9,1.9,0,0,0,.83.18,2.72,2.72,0,0,0,.69-.09A2.53,2.53,0,0,0,142.51,12.2Z"/><path class="cls-4" d="M148.7,14.76a3,3,0,0,1-1.23-1.15,4.78,4.78,0,0,1-.61-1.74,16.1,16.1,0,0,1-.19-2.19c0-.37,0-.9,0-1.59s0-1.44-.05-2.24,0-1.64-.06-2.48,0-1.64-.06-2.36l2.47-1V10a2.7,2.7,0,0,0,.45,1.7,1.75,1.75,0,0,0,1.46.57v2.92A4.72,4.72,0,0,1,148.7,14.76Z"/><path class="cls-4" d="M165.07,15.17a3.1,3.1,0,0,1-1.42-.29,2.15,2.15,0,0,1-1-1,3,3,0,0,1-1,1,2.58,2.58,0,0,1-1.26.33,2.19,2.19,0,0,1-1.1-.3,2.58,2.58,0,0,1-.94-1,3,3,0,0,1-2.52,1.29,2.27,2.27,0,0,1-1.12-.3,2.51,2.51,0,0,1-.94-1,2.54,2.54,0,0,1-2.32,1.31h-.61a1.31,1.31,0,0,1-.39-.05c-.13,0-.19-.07-.19-.12V12.45c0-.07.06-.12.19-.15a1.74,1.74,0,0,1,.39-.05h.66c.7,0,1.06-.42,1.06-1.26v-.88l1.78-.63V10a2.82,2.82,0,0,0,.38,1.66,1.42,1.42,0,0,0,1.09.56c1,0,1.48-.42,1.48-1.26v-.88l1.79-.63v.85a2.54,2.54,0,0,0,.34,1.48,1.49,1.49,0,0,0,1.23.44,1.45,1.45,0,0,0,1-.34A1.21,1.21,0,0,0,162,11v-.88l1.77-.63v1.06c0,.3,0,.56,0,.76a1.33,1.33,0,0,0,.15.53.75.75,0,0,0,.41.32,2.27,2.27,0,0,0,.78.1h.3v2.92Zm-9.83-8.39,1.26-1.71,1.64,1.08.93-1.29L161,6.15l-1.26,1.71-1.66-1.08-.89,1.29Zm.93-2.8,1.29-1.66,1.77,1.18L158,5.17Z"/><path class="cls-4" d="M164.87,12.45c0-.07.06-.12.19-.15a1.74,1.74,0,0,1,.39-.05,4.46,4.46,0,0,0,1.73-.29,2.18,2.18,0,0,0,1-.87c.2-.34.41-.7.62-1.08a8.3,8.3,0,0,1,.69-1.08,3.51,3.51,0,0,1,.87-.81,2.06,2.06,0,0,1,1.17-.33,2,2,0,0,1,1.25.41,3.22,3.22,0,0,1,.83,1,5.09,5.09,0,0,1,.47,1.29,6,6,0,0,1,.15,1.25,6.28,6.28,0,0,1-.1,1,3.41,3.41,0,0,1-.36,1,2.32,2.32,0,0,1-.64.75,1.44,1.44,0,0,1-.94.31,3.64,3.64,0,0,1-1.68-.42,8.18,8.18,0,0,1-1.45-.92,4.67,4.67,0,0,1-1.51,1.24,4.8,4.8,0,0,1-2.12.42,1.31,1.31,0,0,1-.39-.05c-.13,0-.19-.07-.19-.12Zm6.58-2.37c-.54-.08-1,.34-1.34,1.26a3.65,3.65,0,0,0,.86.59,3,3,0,0,0,.91.32.4.4,0,0,0,.53-.35,2,2,0,0,0,0-.53,2.21,2.21,0,0,0-.17-.57,2,2,0,0,0-.32-.47A.79.79,0,0,0,171.45,10.08Z"/><path class="cls-4" d="M196.76,15.17a2.55,2.55,0,0,1-2.57-1.46,5.31,5.31,0,0,1-3.1,1.63,27,27,0,0,1-6,.54,10.61,10.61,0,0,1-5.42-1.1,3.42,3.42,0,0,1-1.79-3.06,5.56,5.56,0,0,1,.25-1.55,12.62,12.62,0,0,1,.71-1.75l1.87.55a8,8,0,0,0-.36.92,3.09,3.09,0,0,0-.15.95,1.48,1.48,0,0,0,.53,1.21,3.59,3.59,0,0,0,1.39.64,9.24,9.24,0,0,0,2,.25c.73,0,1.47,0,2.21,0s1.31,0,2.11,0a14,14,0,0,0,2.3-.24,6,6,0,0,0,1.82-.6,1.25,1.25,0,0,0,.75-1.14v-.65l2.07-.66a11.87,11.87,0,0,0,.06,1.34,1.66,1.66,0,0,0,.26.78,1,1,0,0,0,.57.38,3.65,3.65,0,0,0,1,.1h0v2.92ZM183.62,6.68,184.89,5l1.63,1.09.94-1.29,1.94,1.29-1.29,1.71-1.66-1.08L185.59,8Z"/><path class="cls-4" d="M196.66,12.45q0-.1.18-.15a1.75,1.75,0,0,1,.4-.05h3.6a6.28,6.28,0,0,0,1.26-.14,2.07,2.07,0,0,0,.83-.39,1.1,1.1,0,0,0,.33-.8,3.35,3.35,0,0,1-.9.37,4.24,4.24,0,0,1-.94.11,2.74,2.74,0,0,1-1.76-.55A2.05,2.05,0,0,1,199,9.1a5.28,5.28,0,0,1,.18-1.31,4.5,4.5,0,0,1,.53-1.3,3.32,3.32,0,0,1,.88-1,2,2,0,0,1,1.23-.39,2.23,2.23,0,0,1,1.63.63,4.76,4.76,0,0,1,1,1.51A7.28,7.28,0,0,1,205,9.14a11.64,11.64,0,0,1,.15,1.7,4.42,4.42,0,0,1-.49,2.22,3.51,3.51,0,0,1-1.27,1.32,5,5,0,0,1-1.75.63,11.51,11.51,0,0,1-1.93.16h-2.44a1.33,1.33,0,0,1-.4-.05q-.18,0-.18-.12Zm6.63-10.76-1.52,2-2.09-1.41,1.54-2Zm-1.72,7.54a1.57,1.57,0,0,0,.71-.19,3.59,3.59,0,0,0,.63-.45,2.88,2.88,0,0,0-.53-.89,1.09,1.09,0,0,0-.83-.37.84.84,0,0,0-.67.37,1.11,1.11,0,0,0-.29.72.68.68,0,0,0,.31.62A1.36,1.36,0,0,0,201.57,9.23Z"/><path class="cls-4" d="M209.12,14.76a3.13,3.13,0,0,1-1.24-1.15,5,5,0,0,1-.6-1.74,16.1,16.1,0,0,1-.19-2.19c0-.37,0-.9-.05-1.59s0-1.44,0-2.24,0-1.64-.06-2.48-.05-1.64-.07-2.36l2.47-1V10a2.69,2.69,0,0,0,.46,1.7,1.75,1.75,0,0,0,1.46.57v2.92A4.72,4.72,0,0,1,209.12,14.76Z"/><path class="cls-4" d="M214.83,18.35l-1.26,1.71L211.93,19,211,20.24,209,19l1.34-1.74L212,18.35l.9-1.29Zm-4.16-5.9c0-.07.06-.12.19-.15a1.74,1.74,0,0,1,.39-.05h1.66q1.29,0,1.29-.6a.86.86,0,0,0,0-.27A2.41,2.41,0,0,0,214,11c-.1-.17-.25-.37-.43-.62l-.73-.94,1.64-2.32a4.47,4.47,0,0,1,1.22,1.74,6,6,0,0,1,.44,2.24,4.35,4.35,0,0,1-.34,1.8,3.59,3.59,0,0,1-.93,1.28,4.1,4.1,0,0,1-1.4.75,5.76,5.76,0,0,1-1.74.25h-.43a1.31,1.31,0,0,1-.39-.05c-.13,0-.19-.07-.19-.12Z"/><path class="cls-4" d="M220.68,9.83a10.51,10.51,0,0,1,1,1.8,5.33,5.33,0,0,1,.39,2.13,6,6,0,0,1-.37,2,10,10,0,0,1-1.06,2.08,13,13,0,0,1-1.65,2,13.38,13.38,0,0,1-2.16,1.7l-2.12-1.69a20.14,20.14,0,0,0,1.74-1.12,15.38,15.38,0,0,0,1.68-1.37,8,8,0,0,0,1.26-1.53,3,3,0,0,0,.49-1.63,2.22,2.22,0,0,0-.39-1.13c-.26-.42-.53-.81-.79-1.16Z"/><path class="cls-4" d="M232.57,11.19a4.62,4.62,0,0,1-.37,2,3.71,3.71,0,0,1-1,1.35,4.07,4.07,0,0,1-1.52.78,6.48,6.48,0,0,1-1.83.26,6.27,6.27,0,0,1-2.42-.43,4.21,4.21,0,0,1-1.64-1.21l1.21-2.2a3.64,3.64,0,0,0,2.45.89l1,0a5.21,5.21,0,0,0,1.07-.15,2.35,2.35,0,0,0,.86-.4,1,1,0,0,0,.35-.78,1.74,1.74,0,0,0-.46-1,8,8,0,0,0-1.08-1.11c-.42-.35-.84-.67-1.27-1a11.87,11.87,0,0,0-1-.64L228,4.69Q232.57,7.48,232.57,11.19Z"/><path class="cls-4" d="M250.29,9.7a5.46,5.46,0,0,0-2.09-.3,3.11,3.11,0,0,0-1,.16,4.56,4.56,0,0,0-.92.43,3.36,3.36,0,0,0-.69.58,1,1,0,0,0-.28.65c0,.22.13.36.38.44a5.11,5.11,0,0,0,1,.15l1.23.09a4.55,4.55,0,0,1,1.24.25,2.13,2.13,0,0,1,1,.63A1.79,1.79,0,0,1,250.5,14a4.66,4.66,0,0,1-.76,2.62,6.53,6.53,0,0,1-1.92,1.89,9.15,9.15,0,0,1-2.56,1.15,10,10,0,0,1-2.71.39,9,9,0,0,1-2.78-.39,5.39,5.39,0,0,1-2-1.09,4.37,4.37,0,0,1-1.17-1.65,5.4,5.4,0,0,1-.39-2.06,7.48,7.48,0,0,1,.29-2,8.85,8.85,0,0,1,.89-2.13l2,.68a8.06,8.06,0,0,0-.59,1.38,4.56,4.56,0,0,0-.21,1.34,3,3,0,0,0,.24,1.21,2.44,2.44,0,0,0,.77,1,4.09,4.09,0,0,0,1.34.66,7.45,7.45,0,0,0,2,.24,8.52,8.52,0,0,0,1.74-.21,11.68,11.68,0,0,0,1.85-.53,6.71,6.71,0,0,0,1.47-.74c.41-.28.61-.55.61-.82s-.1-.25-.29-.31a3.9,3.9,0,0,0-.81-.14c-.34,0-.74-.07-1.18-.09s-.92-.07-1.43-.14a1.91,1.91,0,0,1-1.27-.63,2,2,0,0,1-.41-1.31,4.91,4.91,0,0,1,.49-2.16A6.17,6.17,0,0,1,245,8.3a6.29,6.29,0,0,1,1.8-1.22,5,5,0,0,1,2.05-.45,4.32,4.32,0,0,1,1.08.14,3.86,3.86,0,0,1,1,.44Z"/><path class="cls-4" d="M255.28,14.85l-2.57.68V1l2.57-1Z"/><path class="cls-4" d="M261.19,15a2.27,2.27,0,0,1-.49-.35,6.16,6.16,0,0,1-.84,2,9.76,9.76,0,0,1-1.49,1.81,15.44,15.44,0,0,1-1.94,1.6c-.71.51-1.45,1-2.2,1.42l-2.15-1.67c.54-.27,1.19-.62,1.94-1a23,23,0,0,0,2.17-1.4,11.34,11.34,0,0,0,1.75-1.57,2.36,2.36,0,0,0,.72-1.56,1.52,1.52,0,0,0-.15-.63,5.84,5.84,0,0,0-.35-.65c-.14-.22-.27-.42-.41-.61l-.32-.45,1.94-2.09c.18.28.35.57.51.85a5.74,5.74,0,0,0,.52.77A2.6,2.6,0,0,0,261,12a1.31,1.31,0,0,0,.78.22v2.92A1.33,1.33,0,0,1,261.19,15Z"/><path class="cls-4" d="M261.21,12.45c0-.07.06-.12.19-.15a1.6,1.6,0,0,1,.39-.05h1.66q1.29,0,1.29-.6a.86.86,0,0,0-.05-.27,2.68,2.68,0,0,0-.21-.39c-.1-.17-.24-.37-.42-.62s-.43-.56-.74-.94L265,7.11a4.49,4.49,0,0,1,1.23,1.74,6,6,0,0,1,.44,2.24,4.51,4.51,0,0,1-.34,1.8,3.5,3.5,0,0,1-.94,1.28,4,4,0,0,1-1.39.75,5.76,5.76,0,0,1-1.74.25h-.43a1.23,1.23,0,0,1-.39-.05c-.13,0-.19-.07-.19-.12Zm.55,6.63,1.51-2,2.1,1.42-1.54,2Z"/><path class="cls-4" d="M2.67,39.31H0V36.64H2.67Z"/><path class="cls-4" d="M16.08,39.31a4.05,4.05,0,0,1-2-.54,3.94,3.94,0,0,1-1.48-1.47c-.65,1.56-2,2.34-4.06,2.34A4.36,4.36,0,0,1,4.94,38.3L5.85,36a3.26,3.26,0,0,0,1.28.58,6.51,6.51,0,0,0,1.77.23,7,7,0,0,0,1-.07,3.81,3.81,0,0,0,.9-.24,1.83,1.83,0,0,0,.63-.42.85.85,0,0,0,.24-.6,1.31,1.31,0,0,0,0-.22c0-.09-.1-.3-.2-.64s-.29-.85-.53-1.54-.58-1.64-1-2.87l2-1.82c.52,1.68.93,3.05,1.25,4.09a20.76,20.76,0,0,0,.85,2.43,2.9,2.9,0,0,0,.83,1.18,2,2,0,0,0,1.18.32h.53v2.92Z"/><path class="cls-4" d="M22.08,39.31A2.24,2.24,0,0,1,19.76,38a3.31,3.31,0,0,1-3,1.31h-.22a1.33,1.33,0,0,1-.4-.05q-.18,0-.18-.12V36.59q0-.11.18-.15a1.75,1.75,0,0,1,.4,0h.12q1.89,0,1.89-1.29v-1l2.07-.66v.63c0,1.55.5,2.32,1.51,2.32h.15v2.92Zm.25,3.18L21.07,44.2l-1.64-1.08-.93,1.26-2-1.26,1.33-1.74,1.64,1.11.91-1.29Z"/><path class="cls-4" d="M27.83,39.31A2.24,2.24,0,0,1,25.51,38a3.32,3.32,0,0,1-3,1.31h-.23a1.31,1.31,0,0,1-.39-.05c-.12,0-.19-.07-.19-.12V36.59c0-.07.07-.12.19-.15a1.74,1.74,0,0,1,.39,0h.13q1.89,0,1.89-1.29v-1l2.07-.66v.63c0,1.55.5,2.32,1.51,2.32h.15v2.92ZM26.72,30l-1.51,2-2.1-1.41,1.54-2.05Z"/><path class="cls-4" d="M27.5,36.59c0-.07.06-.12.19-.15a1.74,1.74,0,0,1,.39,0h.76c2.8,0,4.21-.35,4.21-1a1.63,1.63,0,0,0-.43-.88,10.64,10.64,0,0,0-1.06-1.09q-.63-.57-1.35-1.11c-.48-.36-.91-.69-1.3-1l-.48-.36a.88.88,0,0,1-.25-.31.92.92,0,0,1-.07-.38,3.45,3.45,0,0,1,.05-.57c0-.15,0-.34.07-.56a6.19,6.19,0,0,1,.14-.7,3,3,0,0,1,.23-.64.78.78,0,0,1,.34-.39,36.66,36.66,0,0,1,4.21-1.8c1.74-.65,3.84-1.33,6.3-2.06l-.33,2.95q-2.22.48-4.35,1.05A37.65,37.65,0,0,0,30.6,28.9c-.3.12-.35.25-.15.41l1.66,1.21a12,12,0,0,1,1.52,1.29,6.2,6.2,0,0,1,1.09,1.53,4.07,4.07,0,0,1,.42,1.86,3.52,3.52,0,0,1-.61,2.16A3.88,3.88,0,0,1,33,38.61a7.2,7.2,0,0,1-2.06.56,16.29,16.29,0,0,1-2.16.14h-.68a1.31,1.31,0,0,1-.39-.05c-.13,0-.19-.07-.19-.12Z"/><path class="cls-4" d="M54.72,37.52a7.36,7.36,0,0,1-1,2.44,5.22,5.22,0,0,1-1.83,1.66,5.62,5.62,0,0,1-2.73.62,7,7,0,0,1-2.54-.43,4.93,4.93,0,0,1-1.76-1.17,4.71,4.71,0,0,1-1-1.76,6.61,6.61,0,0,1-.35-2.16,7.81,7.81,0,0,1,.26-1.95,7.48,7.48,0,0,1,.78-1.88l1.86.67a8.05,8.05,0,0,0-.5,1.3,4.76,4.76,0,0,0-.18,1.28,3.45,3.45,0,0,0,.22,1.24,2.7,2.7,0,0,0,.65,1,3.36,3.36,0,0,0,1.12.68,5,5,0,0,0,1.64.25A3.71,3.71,0,0,0,51.05,39a3.14,3.14,0,0,0,1.16-1,3.54,3.54,0,0,0,.63-1.31A4.85,4.85,0,0,0,53,35.31L52.5,25.15l2.55-1V34.6A12.56,12.56,0,0,1,54.72,37.52Z"/><path class="cls-4" d="M59.68,38.9a3.06,3.06,0,0,1-1.24-1.15,4.77,4.77,0,0,1-.6-1.74,14.64,14.64,0,0,1-.19-2.19c0-.37,0-.9,0-1.59s0-1.44-.06-2.24,0-1.64-.06-2.49,0-1.63-.06-2.35l2.47-1v10a2.7,2.7,0,0,0,.45,1.7,1.77,1.77,0,0,0,1.46.57v2.92A4.64,4.64,0,0,1,59.68,38.9Z"/><path class="cls-4" d="M61.81,39.31a1.33,1.33,0,0,1-.4-.05q-.18,0-.18-.12V36.59q0-.11.18-.15a1.75,1.75,0,0,1,.4,0h2.52v2.92Z"/><path class="cls-4" d="M64.33,39.31a1.23,1.23,0,0,1-.39-.05c-.13,0-.19-.07-.19-.12V36.59c0-.07.06-.12.19-.15a1.6,1.6,0,0,1,.39,0h2.52v2.92Z"/><path class="cls-4" d="M66.85,39.31a1.23,1.23,0,0,1-.39-.05c-.13,0-.19-.07-.19-.12V36.59c0-.07.06-.12.19-.15a1.6,1.6,0,0,1,.39,0h2.52v2.92Z"/><path class="cls-4" d="M69.37,39.31a1.23,1.23,0,0,1-.39-.05c-.13,0-.19-.07-.19-.12V36.59c0-.07.06-.12.19-.15a1.6,1.6,0,0,1,.39,0h2.52v2.92Z"/><path class="cls-4" d="M71.89,39.31a1.23,1.23,0,0,1-.39-.05c-.13,0-.19-.07-.19-.12V36.59c0-.07.06-.12.19-.15a1.6,1.6,0,0,1,.39,0h2.52v2.92Z"/><path class="cls-4" d="M74.41,39.31a1.23,1.23,0,0,1-.39-.05c-.13,0-.19-.07-.19-.12V36.59c0-.07.06-.12.19-.15a1.6,1.6,0,0,1,.39,0h2.52v2.92Z"/><path class="cls-4" d="M76.35,36.59c0-.07.06-.12.19-.15a1.6,1.6,0,0,1,.39,0h.25A1.71,1.71,0,0,0,78.31,36a1.3,1.3,0,0,0,.46-1.08V34.2l1.76-.61v.78a2.85,2.85,0,0,0,.33,1.48,1.08,1.08,0,0,0,1,.54q1.77,0,1.77-1.59v-1l1.79-.53v1.26a2,2,0,0,0,.5,1.37,1.67,1.67,0,0,0,1.29.55.91.91,0,0,0,1.06-1,2.16,2.16,0,0,0-.26-1,2.36,2.36,0,0,0-.58-.77l1.74-2A4.79,4.79,0,0,1,90,33.36a5.64,5.64,0,0,1,.29,1.82,5.53,5.53,0,0,1-.2,1.5A4.35,4.35,0,0,1,89.52,38a3.09,3.09,0,0,1-1,1,2.49,2.49,0,0,1-1.35.37,3.7,3.7,0,0,1-1.7-.37,2.29,2.29,0,0,1-1.1-1.07,2.37,2.37,0,0,1-1,1,2.61,2.61,0,0,1-1.28.39A3.13,3.13,0,0,1,80.7,39a2.35,2.35,0,0,1-1-1,2.4,2.4,0,0,1-1.21,1,4.34,4.34,0,0,1-1.54.3,1.23,1.23,0,0,1-.39-.05c-.13,0-.19-.07-.19-.12Z"/><path class="cls-4" d="M95,34a10.15,10.15,0,0,1,1,1.8,5.33,5.33,0,0,1,.39,2.13,4.83,4.83,0,0,1-.59,2.33,9.25,9.25,0,0,1-1.54,2.11,15.61,15.61,0,0,1-2.11,1.82,26.2,26.2,0,0,1-2.36,1.53L87.72,44c.55-.27,1.2-.62,2-1.06a21,21,0,0,0,2.14-1.43,13,13,0,0,0,1.74-1.6,2.45,2.45,0,0,0,.72-1.56,2.22,2.22,0,0,0-.39-1.13c-.26-.42-.53-.81-.79-1.16Z"/><path class="cls-4" d="M101.55,39,99,39.67V25.15l2.57-1Z"/><path class="cls-4" d="M110.43,39l-2.57.69V25.15l2.57-1Z"/><path class="cls-4" d="M115.14,34a9.64,9.64,0,0,1,1,1.8,5.33,5.33,0,0,1,.39,2.13,4.84,4.84,0,0,1-.6,2.33,9.21,9.21,0,0,1-1.53,2.11,15.7,15.7,0,0,1-2.12,1.82A24.86,24.86,0,0,1,110,45.69L107.83,44c.56-.27,1.21-.62,2-1.06a21.11,21.11,0,0,0,2.15-1.43,13,13,0,0,0,1.74-1.6,2.48,2.48,0,0,0,.71-1.56,2.22,2.22,0,0,0-.39-1.13,13.77,13.77,0,0,0-.79-1.16Z"/><path class="cls-4" d="M131.45,35.33a4.61,4.61,0,0,1-.38,2,3.68,3.68,0,0,1-1,1.35,4.26,4.26,0,0,1-1.53.78,6.48,6.48,0,0,1-1.83.26,6.31,6.31,0,0,1-2.42-.43A4.18,4.18,0,0,1,122.63,38l1.21-2.2a3.63,3.63,0,0,0,2.44.89l1,0a5.87,5.87,0,0,0,1.07-.15,2.28,2.28,0,0,0,.86-.4.94.94,0,0,0,.35-.79,1.78,1.78,0,0,0-.45-1,8,8,0,0,0-1.08-1.11c-.43-.35-.85-.67-1.28-1a11.87,11.87,0,0,0-1-.64l1.14-2.77Q131.45,31.62,131.45,35.33Z"/><path class="cls-4" d="M140.15,39.31a6.71,6.71,0,0,1-.94,1.87,11.42,11.42,0,0,1-1.47,1.67,16.58,16.58,0,0,1-1.87,1.5c-.68.48-1.37.91-2.08,1.32L131.65,44c.47-.23,1-.53,1.64-.88s1.24-.74,1.86-1.15a14.47,14.47,0,0,0,1.71-1.3A4.83,4.83,0,0,0,138,39.31a10.36,10.36,0,0,1-1.63-.11,3.41,3.41,0,0,1-1.27-.44,2.19,2.19,0,0,1-.82-.91,3.44,3.44,0,0,1-.29-1.51,5.25,5.25,0,0,1,.18-1.29,4.68,4.68,0,0,1,.53-1.31,3.7,3.7,0,0,1,.86-1,1.86,1.86,0,0,1,1.2-.41,2.57,2.57,0,0,1,1.4.39,3.44,3.44,0,0,1,1,1,4.88,4.88,0,0,1,.66,1.31,7.58,7.58,0,0,1,.32,1.4h.9v2.92Zm-2-2.92a3.23,3.23,0,0,0-.17-.57,3,3,0,0,0-.33-.58,2.29,2.29,0,0,0-.44-.44.84.84,0,0,0-.52-.18A.92.92,0,0,0,136,35a1.15,1.15,0,0,0-.28.73.76.76,0,0,0,.1.42.62.62,0,0,0,.37.2,4.2,4.2,0,0,0,.76.08Z"/><path class="cls-4" d="M140.47,36.59c0-.07.07-.12.19-.15a1.74,1.74,0,0,1,.39,0h2.22c.54,0,1,0,1.31,0a5.84,5.84,0,0,0,1.1-.16,13.11,13.11,0,0,0,1.46-.45l2.38-.9q-1.44-.41-2.22-.6l-1.16-.33a1.19,1.19,0,0,0-.92.09,2.46,2.46,0,0,0-.71.59l-1.74-1.19a7.23,7.23,0,0,1,1.53-2,2.08,2.08,0,0,1,1.77-.44,14.82,14.82,0,0,1,1.71.35l1.77.48c.6.17,1.22.33,1.86.49s1.33.3,2.07.41c.34,0,.67.06,1,.08l1,0-.78,2.87c-.4,0-.75,0-1.06,0a4.63,4.63,0,0,0-.85.08,4.45,4.45,0,0,0-.82.24,8,8,0,0,0-1,.46c-.85.49-1.56.91-2.13,1.27a13.31,13.31,0,0,1-1.65.88,8.42,8.42,0,0,1-1.78.53,15.28,15.28,0,0,1-2.5.17h-1.87a1.31,1.31,0,0,1-.39-.05c-.12,0-.19-.07-.19-.12Zm7.54-9.3-1.51,2-2.1-1.42,1.54-2Z"/><path class="cls-4" d="M168.48,35.81a4.07,4.07,0,0,1-.29,1.57,3.25,3.25,0,0,1-.8,1.16,3.38,3.38,0,0,1-1.16.72,3.84,3.84,0,0,1-1.41.26,3.41,3.41,0,0,1-2.26-.69,2.4,2.4,0,0,1-.81-2,7.79,7.79,0,0,1,1.41-3.78l-.53-.26L164,30.52a15.12,15.12,0,0,1,1.72,1,8.36,8.36,0,0,1,1.42,1.19,5,5,0,0,1,1,1.41A4.13,4.13,0,0,1,168.48,35.81Zm-2,.17c0-.75-.62-1.44-1.87-2.06a6.27,6.27,0,0,0-.64,1,2.12,2.12,0,0,0-.29,1,.9.9,0,0,0,.28.68,1.26,1.26,0,0,0,.93.28,3.36,3.36,0,0,0,.51,0,3.8,3.8,0,0,0,.51-.15,1.33,1.33,0,0,0,.41-.27A.5.5,0,0,0,166.51,36Z"/><path class="cls-4" d="M173.57,39l-2.57.69V25.15l2.57-1Z"/><path class="cls-4" d="M180.11,39.16a1.86,1.86,0,0,1-.49-.35,6.19,6.19,0,0,1-.85,2,9.7,9.7,0,0,1-1.48,1.81,14.86,14.86,0,0,1-1.95,1.6c-.71.51-1.45,1-2.2,1.42L171,44c.53-.27,1.18-.62,1.94-1a20.93,20.93,0,0,0,2.16-1.39A11.44,11.44,0,0,0,176.86,40a2.36,2.36,0,0,0,.72-1.56,1.4,1.4,0,0,0-.16-.63,4.55,4.55,0,0,0-.35-.65c-.13-.22-.27-.42-.4-.61s-.25-.34-.33-.45l1.94-2.1c.19.29.36.57.52.86a5.71,5.71,0,0,0,.51.77,2.6,2.6,0,0,0,.61.55,1.35,1.35,0,0,0,.78.22v2.92A1.26,1.26,0,0,1,180.11,39.16Z"/><path class="cls-4" d="M191.09,39.31a3.74,3.74,0,0,1-1.31-.24,2.83,2.83,0,0,1-1.09-.69c-.07.24-.13.45-.19.64a1.47,1.47,0,0,1-.25.5,1.21,1.21,0,0,1-.42.31,1.65,1.65,0,0,1-.7.11,4,4,0,0,1-.93-.12,5.54,5.54,0,0,1-1-.36,8.12,8.12,0,0,1-1-.51,5.37,5.37,0,0,1-.8-.6,3.52,3.52,0,0,1-1.16.71,4.25,4.25,0,0,1-1.56.25,1.31,1.31,0,0,1-.39-.05c-.13,0-.19-.07-.19-.12V36.59c0-.07.06-.12.19-.15a1.74,1.74,0,0,1,.39,0q.51,0,.9,0a2,2,0,0,0,.71-.16,1.94,1.94,0,0,0,.6-.39,3.1,3.1,0,0,0,.51-.71c.17-.28.35-.56.53-.83a4.82,4.82,0,0,1,.61-.72,2.74,2.74,0,0,1,.72-.5,1.94,1.94,0,0,1,.89-.19,1.56,1.56,0,0,1,1.22.6,11.53,11.53,0,0,1,1,1.37c.22.38.4.68.54.89a1.5,1.5,0,0,0,.47.47,1.24,1.24,0,0,0,.6.17c.24,0,.57,0,1,0h.23v2.92ZM185,35.94a1.63,1.63,0,0,1-.11.23l-.12.24a4.21,4.21,0,0,0,1.13.65,2.86,2.86,0,0,0,1,.24c.2,0,.31-.08.34-.22a1.22,1.22,0,0,0,0-.49,3.24,3.24,0,0,0-.46-1,.94.94,0,0,0-.8-.48C185.5,35.15,185.2,35.42,185,35.94Z"/><path class="cls-4" d="M191.21,39.31a1.31,1.31,0,0,1-.39-.05c-.13,0-.19-.07-.19-.12V36.59c0-.07.06-.12.19-.15a1.74,1.74,0,0,1,.39,0h2.52v2.92Z"/><path class="cls-4" d="M193.73,39.31a1.31,1.31,0,0,1-.39-.05c-.12,0-.19-.07-.19-.12V36.59c0-.07.07-.12.19-.15a1.74,1.74,0,0,1,.39,0h2.52v2.92Z"/><path class="cls-4" d="M196.25,39.31a1.31,1.31,0,0,1-.39-.05c-.12,0-.19-.07-.19-.12V36.59c0-.07.07-.12.19-.15a1.74,1.74,0,0,1,.39,0h2.52v2.92Z"/><path class="cls-4" d="M198.77,39.31a1.31,1.31,0,0,1-.39-.05c-.12,0-.19-.07-.19-.12V36.59c0-.07.07-.12.19-.15a1.74,1.74,0,0,1,.39,0h2.52v2.92Z"/><path class="cls-4" d="M201.29,39.31a1.31,1.31,0,0,1-.39-.05c-.12,0-.19-.07-.19-.12V36.59c0-.07.07-.12.19-.15a1.74,1.74,0,0,1,.39,0h2.52v2.92Z"/><path class="cls-4" d="M203.81,39.31a1.31,1.31,0,0,1-.39-.05c-.12,0-.19-.07-.19-.12V36.59c0-.07.07-.12.19-.15a1.74,1.74,0,0,1,.39,0h2.52v2.92Z"/><path class="cls-4" d="M205.76,36.59q0-.11.18-.15a1.74,1.74,0,0,1,.39,0h2.17a2.29,2.29,0,0,1-.45-1.29,3.15,3.15,0,0,1,.54-1.7,5.54,5.54,0,0,1,1.27-1.4l-.55-.35L210.52,29c.5.35,1.14.81,1.9,1.39a20.68,20.68,0,0,1,2.22,1.9,13.79,13.79,0,0,1,1.84,2.19,4.31,4.31,0,0,1,.8,2.26,6,6,0,0,1-.18,1.52,3.75,3.75,0,0,1-.49,1.16,2,2,0,0,1-.73.68,1.06,1.06,0,0,1-.87.06,12.26,12.26,0,0,1-1.76-.6c-.64-.27-1.29-.57-1.92-.91a6.21,6.21,0,0,1-1.59.49,7.66,7.66,0,0,1-1.39.14h-2a1.31,1.31,0,0,1-.39-.05q-.18,0-.18-.12Zm4.66-.88a8.38,8.38,0,0,0,.73.45,1.72,1.72,0,0,0,.94-.7,1.76,1.76,0,0,0,.27-.89.83.83,0,0,0-.13-.44,1.85,1.85,0,0,0-.3-.39,1.75,1.75,0,0,0-.39-.28,1,1,0,0,0-.37-.1.88.88,0,0,0-.45.14,2,2,0,0,0-.43.36,2.36,2.36,0,0,0-.33.45,1,1,0,0,0-.12.42,1.8,1.8,0,0,0,.07.41A1.1,1.1,0,0,0,210.42,35.71Zm3.68,0a4,4,0,0,1-.34.89,6.65,6.65,0,0,1-.49.73,6.65,6.65,0,0,0,.61.27l.6.26c.23.08.42.14.55.17s.25-.07.35-.3a1.61,1.61,0,0,0-.17-1.43,6.07,6.07,0,0,0-1.06-1.22A1.88,1.88,0,0,1,214.1,35.73Z"/><path class="cls-4" d="M230.31,35.81a4.07,4.07,0,0,1-.29,1.57,3.25,3.25,0,0,1-.8,1.16,3.48,3.48,0,0,1-1.16.72,3.88,3.88,0,0,1-1.41.26,3.41,3.41,0,0,1-2.26-.69,2.4,2.4,0,0,1-.81-2A7.79,7.79,0,0,1,225,33.09l-.53-.26,1.33-2.31a15.12,15.12,0,0,1,1.72,1,8.36,8.36,0,0,1,1.42,1.19,5,5,0,0,1,1,1.41A4.13,4.13,0,0,1,230.31,35.81Zm-2,.17c0-.75-.62-1.44-1.87-2.06a6.27,6.27,0,0,0-.64,1,2.12,2.12,0,0,0-.29,1,.9.9,0,0,0,.28.68,1.25,1.25,0,0,0,.93.28,3.36,3.36,0,0,0,.51,0,3.8,3.8,0,0,0,.51-.15,1.33,1.33,0,0,0,.41-.27A.54.54,0,0,0,228.34,36Z"/><path class="cls-4" d="M235,34a10.22,10.22,0,0,1,1,1.8,5.33,5.33,0,0,1,.39,2.13,4.84,4.84,0,0,1-.6,2.33,9.21,9.21,0,0,1-1.53,2.11,16.34,16.34,0,0,1-2.12,1.82,24.86,24.86,0,0,1-2.36,1.53L227.71,44c.55-.27,1.2-.62,1.95-1.06a22.28,22.28,0,0,0,2.15-1.43,12.35,12.35,0,0,0,1.73-1.6,2.45,2.45,0,0,0,.72-1.56,2.22,2.22,0,0,0-.39-1.13,13.77,13.77,0,0,0-.79-1.16Z"/><path class="cls-4" d="M241.08,38.9a3,3,0,0,1-1.23-1.15,4.78,4.78,0,0,1-.61-1.74,16.1,16.1,0,0,1-.19-2.19c0-.37,0-.9-.05-1.59s0-1.44-.05-2.24,0-1.64-.06-2.49,0-1.63-.06-2.35l2.47-1v10a2.7,2.7,0,0,0,.45,1.7,1.75,1.75,0,0,0,1.46.57v2.92A4.72,4.72,0,0,1,241.08,38.9Z"/><path class="cls-4" d="M253.6,39.31a3.74,3.74,0,0,1-1.31-.24,2.83,2.83,0,0,1-1.09-.69c-.07.24-.13.45-.19.64a1.47,1.47,0,0,1-.25.5,1.21,1.21,0,0,1-.42.31,1.65,1.65,0,0,1-.7.11,4,4,0,0,1-.93-.12,5.54,5.54,0,0,1-1-.36,8.12,8.12,0,0,1-1-.51,5.37,5.37,0,0,1-.8-.6,3.52,3.52,0,0,1-1.16.71,4.25,4.25,0,0,1-1.56.25,1.31,1.31,0,0,1-.39-.05c-.13,0-.19-.07-.19-.12V36.59c0-.07.06-.12.19-.15a1.74,1.74,0,0,1,.39,0q.51,0,.9,0a2,2,0,0,0,.71-.16,1.94,1.94,0,0,0,.6-.39,3.1,3.1,0,0,0,.51-.71c.17-.28.35-.56.53-.83a4.82,4.82,0,0,1,.61-.72,2.74,2.74,0,0,1,.72-.5,1.94,1.94,0,0,1,.89-.19,1.56,1.56,0,0,1,1.22.6,11.53,11.53,0,0,1,1,1.37c.22.38.4.68.54.89a1.5,1.5,0,0,0,.47.47,1.24,1.24,0,0,0,.6.17c.24,0,.57,0,1,0h.23v2.92Zm-6.13-3.37a1.63,1.63,0,0,1-.11.23l-.12.24a4.21,4.21,0,0,0,1.13.65,2.86,2.86,0,0,0,1,.24c.2,0,.31-.08.34-.22a1.22,1.22,0,0,0,0-.49,3.24,3.24,0,0,0-.46-1,.94.94,0,0,0-.8-.48C248,35.15,247.71,35.42,247.47,35.94Z"/><path class="cls-4" d="M253.14,36.59c0-.07.06-.12.19-.15a1.74,1.74,0,0,1,.39,0H254a1.72,1.72,0,0,0,1.14-.38,1.33,1.33,0,0,0,.45-1.08V34.2l1.77-.61v.78a3,3,0,0,0,.32,1.48,1.08,1.08,0,0,0,1,.54c1.17,0,1.76-.53,1.76-1.59v-1l1.79-.53v1.26a2,2,0,0,0,.51,1.37,1.64,1.64,0,0,0,1.28.55.91.91,0,0,0,1.06-1,2.15,2.15,0,0,0-.25-1,2.51,2.51,0,0,0-.58-.77l1.74-2a5.19,5.19,0,0,1,.87,1.58,5.8,5.8,0,0,1,.09,3.32,4.62,4.62,0,0,1-.6,1.33,3.09,3.09,0,0,1-1,1,2.49,2.49,0,0,1-1.35.37,3.7,3.7,0,0,1-1.7-.37,2.33,2.33,0,0,1-1.1-1.07,2.37,2.37,0,0,1-1,1,2.58,2.58,0,0,1-1.28.39,3.13,3.13,0,0,1-1.45-.33,2.35,2.35,0,0,1-1-1,2.4,2.4,0,0,1-1.21,1,4.26,4.26,0,0,1-1.54.3,1.31,1.31,0,0,1-.39-.05c-.13,0-.19-.07-.19-.12Zm5.25-5.9L259.65,29l1.63,1.08.94-1.28,1.91,1.28-1.26,1.72-1.66-1.09L260.33,32Zm.93-2.8,1.28-1.66,1.77,1.19-1.24,1.66Z"/><path class="cls-6" d="M30.75,77.14a5.87,5.87,0,0,1-.85,2,4.24,4.24,0,0,1-1.49,1.36,4.62,4.62,0,0,1-2.23.5,5.6,5.6,0,0,1-2.07-.35,3.72,3.72,0,0,1-1.44-1,3.89,3.89,0,0,1-.85-1.43,5.66,5.66,0,0,1-.28-1.77,6.19,6.19,0,0,1,.21-1.58,6.12,6.12,0,0,1,.64-1.55l1.52.56A6.07,6.07,0,0,0,23.5,75a3.77,3.77,0,0,0-.14,1,2.88,2.88,0,0,0,.17,1,2.21,2.21,0,0,0,.54.83,2.51,2.51,0,0,0,.91.56,3.82,3.82,0,0,0,1.34.2,3.12,3.12,0,0,0,1.43-.29,2.63,2.63,0,0,0,.95-.79,3,3,0,0,0,.51-1.07,3.79,3.79,0,0,0,.14-1.14L28.94,67,31,66.21v8.54A10.24,10.24,0,0,1,30.75,77.14Z"/><path class="cls-6" d="M34.11,78.26a2.52,2.52,0,0,1-1-.93,4,4,0,0,1-.5-1.42,12.33,12.33,0,0,1-.15-1.79c0-.31,0-.74,0-1.3s0-1.17,0-1.83,0-1.34,0-2,0-1.34-.06-1.93l2-.82v8.15a2.24,2.24,0,0,0,.37,1.39,1.45,1.45,0,0,0,1.2.47V78.6A3.71,3.71,0,0,1,34.11,78.26Z"/><path class="cls-6" d="M35.37,76.38s.05-.1.16-.12a1.12,1.12,0,0,1,.32,0h.2a1.45,1.45,0,0,0,.93-.31,1.09,1.09,0,0,0,.37-.89v-.6l1.44-.49v.64a2.27,2.27,0,0,0,.27,1.2.87.87,0,0,0,.8.45c1,0,1.44-.44,1.44-1.3v-.78l1.46-.44v1a1.57,1.57,0,0,0,.42,1.11,1.32,1.32,0,0,0,1,.46.86.86,0,0,0,.67-.23.84.84,0,0,0,.19-.57,1.87,1.87,0,0,0-.2-.82,2.13,2.13,0,0,0-.48-.63l1.42-1.6a3.79,3.79,0,0,1,.71,1.29,4.74,4.74,0,0,1,.24,1.49,4.6,4.6,0,0,1-.17,1.22,3.72,3.72,0,0,1-.48,1.09,2.51,2.51,0,0,1-.8.79,2,2,0,0,1-1.1.29,3.06,3.06,0,0,1-1.39-.29,1.88,1.88,0,0,1-.9-.88,1.9,1.9,0,0,1-.78.83,2.21,2.21,0,0,1-1,.32,2.7,2.7,0,0,1-1.19-.26,2,2,0,0,1-.83-.81,1.93,1.93,0,0,1-1,.83,3.51,3.51,0,0,1-1.25.24,1.12,1.12,0,0,1-.32,0c-.11,0-.16-.06-.16-.1Z"/><path class="cls-6" d="M49.94,74.24a8,8,0,0,1,.86,1.47,4.39,4.39,0,0,1,.32,1.74,4,4,0,0,1-.49,1.91,7.49,7.49,0,0,1-1.25,1.71,12.59,12.59,0,0,1-1.73,1.5,21.63,21.63,0,0,1-1.93,1.24L44,82.43c.45-.22,1-.5,1.6-.86a19,19,0,0,0,1.75-1.17,10.74,10.74,0,0,0,1.42-1.31,2,2,0,0,0,.59-1.27,1.88,1.88,0,0,0-.32-.93c-.22-.34-.43-.65-.65-.94Z"/><path class="cls-6" d="M54.59,78.34l-2.1.55V67l2.1-.82Z"/></svg>