<svg id="Layer_1" data-name="Layer 1" xmlns="http://www.w3.org/2000/svg" viewBox="0 0 270.76 92.28"><defs><style>.cls-1{fill:#e6e7e8;}.cls-2{fill:#f48120;}.cls-3{fill:#231f20;}.cls-4{fill:#fff;}.cls-5{fill:#a6a8ab;}</style></defs><rect class="cls-1" x="49.06" y="51.18" width="221.7" height="41.09"/><rect class="cls-2" x="0.76" y="51.18" width="76.25" height="41.09"/><path class="cls-3" d="M3.84,13.25A2.21,2.21,0,0,1,3,12.43a3.55,3.55,0,0,1-.43-1.25,12.22,12.22,0,0,1-.14-1.57c0-.27,0-.64,0-1.14s0-1,0-1.61,0-1.17,0-1.78,0-1.17,0-1.68L4,2.67V9.83A1.88,1.88,0,0,0,4.32,11a1.22,1.22,0,0,0,1,.41v2.1A3.3,3.3,0,0,1,3.84,13.25Z"/><path class="cls-3" d="M5,11.6s0-.09.13-.11a1,1,0,0,1,.28,0H6.92a1.6,1.6,0,0,1-.33-.92A2.22,2.22,0,0,1,7,9.31a3.82,3.82,0,0,1,.91-1L7.5,8.06l.86-1.88c.36.25.82.58,1.37,1a18.09,18.09,0,0,1,1.59,1.37,9.1,9.1,0,0,1,1.31,1.57,3,3,0,0,1,.57,1.61,4.75,4.75,0,0,1-.12,1.1,2.88,2.88,0,0,1-.35.83,1.49,1.49,0,0,1-.53.48.75.75,0,0,1-.62,0,10.5,10.5,0,0,1-1.26-.43c-.46-.2-.92-.41-1.38-.65a5.17,5.17,0,0,1-1.14.35,6.62,6.62,0,0,1-1,.1H5.36a1,1,0,0,1-.28,0c-.09,0-.13,0-.13-.09ZM8.29,11a4.83,4.83,0,0,0,.52.33,1.2,1.2,0,0,0,.68-.51,1.18,1.18,0,0,0,.19-.63.65.65,0,0,0-.09-.32,1.13,1.13,0,0,0-.22-.27.69.69,0,0,0-.28-.2.59.59,0,0,0-.26-.08.66.66,0,0,0-.32.1,1.48,1.48,0,0,0-.31.26A1.36,1.36,0,0,0,8,10a.71.71,0,0,0-.09.3,1.13,1.13,0,0,0,0,.3A.78.78,0,0,0,8.29,11Zm2.64,0a2.24,2.24,0,0,1-.25.63,4.41,4.41,0,0,1-.35.53l.44.2.43.18.4.12c.09,0,.18,0,.25-.21a1.12,1.12,0,0,0-.13-1,4.18,4.18,0,0,0-.76-.88A1.33,1.33,0,0,1,10.93,11Z"/><path class="cls-3" d="M21,10.69a3.3,3.3,0,0,1-.27,1.4,2.67,2.67,0,0,1-.74,1,3.13,3.13,0,0,1-1.09.56,4.76,4.76,0,0,1-1.31.18,4.33,4.33,0,0,1-1.74-.31,2.93,2.93,0,0,1-1.17-.86l.87-1.58a2.55,2.55,0,0,0,1.75.64l.73,0a3.76,3.76,0,0,0,.77-.11,1.65,1.65,0,0,0,.61-.29.66.66,0,0,0,.25-.56,1.23,1.23,0,0,0-.32-.74,5.28,5.28,0,0,0-.78-.79,9.61,9.61,0,0,0-.91-.7c-.31-.21-.55-.36-.73-.46l.81-2Q21,8,21,10.69Z"/><path class="cls-3" d="M24.44,13.31l-1.84.49V3.4l1.84-.73Z"/><path class="cls-3" d="M33.87,13.55a3,3,0,0,1-1.48-.39,2.74,2.74,0,0,1-1.05-1.06,2.83,2.83,0,0,1-2.91,1.68,3.13,3.13,0,0,1-2.55-1l.65-1.66a2.47,2.47,0,0,0,.92.42,4.91,4.91,0,0,0,1.27.16,6,6,0,0,0,.74-.05,2.84,2.84,0,0,0,.64-.18,1.13,1.13,0,0,0,.45-.29.6.6,0,0,0,.17-.44s0-.08,0-.15l-.15-.46c-.08-.24-.2-.61-.38-1.1L29.46,7l1.44-1.3c.38,1.2.68,2.18.9,2.92a15.89,15.89,0,0,0,.61,1.75,2.16,2.16,0,0,0,.6.85,1.42,1.42,0,0,0,.84.22h.38v2.1Z"/><path class="cls-3" d="M36.79,15.82l-.9,1.23-1.17-.78-.67.91-1.41-.91,1-1.24,1.17.79.65-.92Zm-3-4.22s0-.09.14-.11a.86.86,0,0,1,.28,0h1.19c.61,0,.92-.14.92-.43a.43.43,0,0,0,0-.19,1.43,1.43,0,0,0-.14-.28,3.36,3.36,0,0,0-.31-.44l-.52-.68L36.5,7.77A3.07,3.07,0,0,1,37.38,9a4.28,4.28,0,0,1,.32,1.61,3.22,3.22,0,0,1-.25,1.29,2.38,2.38,0,0,1-.67.91,2.63,2.63,0,0,1-1,.55,4.15,4.15,0,0,1-1.25.18h-.3a.86.86,0,0,1-.28,0c-.09,0-.14,0-.14-.09Z"/><path class="cls-3" d="M37.88,16.94c.38-.18.83-.42,1.35-.73s1-.64,1.49-1A8.43,8.43,0,0,0,42,14.11,2.11,2.11,0,0,0,42.52,13a2.07,2.07,0,0,1-.58.21,2.61,2.61,0,0,1-.67.08,1.92,1.92,0,0,1-1.51-.5,1.93,1.93,0,0,1-.44-1.3,4,4,0,0,1,.14-1,3.42,3.42,0,0,1,.4-1,2.57,2.57,0,0,1,.67-.72,1.52,1.52,0,0,1,.94-.29,1.76,1.76,0,0,1,1.19.41,3.07,3.07,0,0,1,.75,1,4.74,4.74,0,0,1,.39,1.28,7.61,7.61,0,0,1,.11,1.17,4.41,4.41,0,0,1-.37,1.82,5.7,5.7,0,0,1-1,1.5A10,10,0,0,1,41.08,17c-.55.39-1.13.77-1.74,1.13Zm4.46-5.52a2.48,2.48,0,0,0-.36-.84.78.78,0,0,0-.64-.34.72.72,0,0,0-.52.24.76.76,0,0,0-.24.57.46.46,0,0,0,.28.44,1.45,1.45,0,0,0,.59.12,2.07,2.07,0,0,0,.5-.06A2.94,2.94,0,0,0,42.34,11.42Z"/><path class="cls-3" d="M47.11,9.72A6.55,6.55,0,0,1,47.85,11a3.77,3.77,0,0,1,.28,1.53A4.4,4.4,0,0,1,47.86,14a7.18,7.18,0,0,1-.75,1.49,8.57,8.57,0,0,1-1.19,1.41,10.33,10.33,0,0,1-1.54,1.22l-1.52-1.21c.4-.23.81-.5,1.25-.81a10.45,10.45,0,0,0,1.2-1,5.26,5.26,0,0,0,.9-1.09,2.15,2.15,0,0,0,.35-1.17,1.54,1.54,0,0,0-.28-.81,7.55,7.55,0,0,0-.57-.83Z"/><path class="cls-3" d="M53.77,13.55H51.93V12.23A3.71,3.71,0,0,1,52.09,11a1.77,1.77,0,0,1,.49-.8,2.9,2.9,0,0,1,.86-.52l.26.65a1.44,1.44,0,0,0-1.07,1.39h1.14Z"/><path class="cls-3" d="M56.9,13.25a2.18,2.18,0,0,1-.88-.82,3.55,3.55,0,0,1-.44-1.25,12.3,12.3,0,0,1-.13-1.57c0-.27,0-.64,0-1.14s0-1,0-1.61,0-1.17-.05-1.78,0-1.17,0-1.68l1.77-.73V9.83A1.94,1.94,0,0,0,57.38,11a1.25,1.25,0,0,0,1,.41v2.1A3.3,3.3,0,0,1,56.9,13.25Z"/><path class="cls-3" d="M58,11.6s.05-.09.14-.11a.86.86,0,0,1,.28,0H60a1.65,1.65,0,0,1-.32-.92,2.22,2.22,0,0,1,.39-1.22,3.65,3.65,0,0,1,.91-1l-.4-.25.87-1.88c.36.25.81.58,1.36,1a15.59,15.59,0,0,1,1.59,1.37,9.65,9.65,0,0,1,1.32,1.57,3,3,0,0,1,.57,1.61,4.25,4.25,0,0,1-.13,1.1,2.63,2.63,0,0,1-.35.83,1.47,1.47,0,0,1-.52.48.77.77,0,0,1-.63,0,10.4,10.4,0,0,1-1.25-.43c-.47-.2-.93-.41-1.38-.65a5.52,5.52,0,0,1-1.14.35,6.86,6.86,0,0,1-1,.1H58.43a.86.86,0,0,1-.28,0c-.09,0-.14,0-.14-.09ZM61.36,11a4,4,0,0,0,.52.33,1.21,1.21,0,0,0,.87-1.14.65.65,0,0,0-.09-.32,1.44,1.44,0,0,0-.22-.27.86.86,0,0,0-.28-.2.63.63,0,0,0-.26-.08.7.7,0,0,0-.33.1,1.22,1.22,0,0,0-.3.26A1.41,1.41,0,0,0,61,10a.71.71,0,0,0-.09.3,1.8,1.8,0,0,0,.05.3A.76.76,0,0,0,61.36,11ZM64,11a2.58,2.58,0,0,1-.24.63,4.41,4.41,0,0,1-.35.53l.44.2.42.18.4.12c.1,0,.18,0,.25-.21a1.15,1.15,0,0,0-.12-1,4.49,4.49,0,0,0-.76-.88A1.33,1.33,0,0,1,64,11Z"/><path class="cls-3" d="M72.72,11a2.92,2.92,0,0,1-.21,1.13,2.46,2.46,0,0,1-.57.83,2.62,2.62,0,0,1-.83.51,2.79,2.79,0,0,1-1,.18,2.43,2.43,0,0,1-1.62-.49,1.72,1.72,0,0,1-.59-1.41,5.5,5.5,0,0,1,1-2.7l-.38-.18,1-1.67A10.45,10.45,0,0,1,70.71,8a5.75,5.75,0,0,1,1,.85,3.7,3.7,0,0,1,.71,1A3.17,3.17,0,0,1,72.72,11Zm-1.41.12c0-.54-.45-1-1.34-1.48a4.46,4.46,0,0,0-.46.7,1.5,1.5,0,0,0-.21.69.66.66,0,0,0,.2.49.94.94,0,0,0,.67.2,1.59,1.59,0,0,0,.36,0,1.45,1.45,0,0,0,.37-.11.73.73,0,0,0,.29-.19A.34.34,0,0,0,71.31,11.16Z"/><path class="cls-3" d="M75.91,9.72A6.15,6.15,0,0,1,76.66,11a3.77,3.77,0,0,1,.28,1.53,3.6,3.6,0,0,1-.42,1.67,6.49,6.49,0,0,1-1.1,1.5A11.37,11.37,0,0,1,73.9,17a18.7,18.7,0,0,1-1.69,1.1l-1.53-1.21c.39-.2.86-.45,1.39-.76a16.51,16.51,0,0,0,1.54-1A8.79,8.79,0,0,0,74.86,14a1.74,1.74,0,0,0,.51-1.11,1.54,1.54,0,0,0-.28-.81c-.19-.3-.38-.58-.57-.83ZM73.56,7.93l.91-1.23,1.17.78.67-.92,1.37.92-.9,1.23-1.19-.78L75,8.85Zm.67-2,.92-1.19,1.27.85-.89,1.19Z"/><path class="cls-3" d="M77.12,16.94a14.87,14.87,0,0,0,1.36-.73c.52-.31,1-.64,1.49-1a9.61,9.61,0,0,0,1.23-1.11A2.11,2.11,0,0,0,81.77,13a2.07,2.07,0,0,1-.58.21,2.61,2.61,0,0,1-.67.08,1.92,1.92,0,0,1-1.51-.5,1.93,1.93,0,0,1-.44-1.3,4,4,0,0,1,.13-1,3.44,3.44,0,0,1,.41-1,2.43,2.43,0,0,1,.67-.72,1.5,1.5,0,0,1,.94-.29,1.76,1.76,0,0,1,1.19.41,3.22,3.22,0,0,1,.75,1,4.74,4.74,0,0,1,.39,1.28,7.61,7.61,0,0,1,.11,1.17,4.41,4.41,0,0,1-.37,1.82,5.73,5.73,0,0,1-1,1.5A9.44,9.44,0,0,1,80.33,17c-.55.39-1.13.77-1.74,1.13Zm4.46-5.52a2.14,2.14,0,0,0-.36-.84.78.78,0,0,0-.63-.34.7.7,0,0,0-.52.24.76.76,0,0,0-.24.57.45.45,0,0,0,.27.44,1.46,1.46,0,0,0,.6.12,2.14,2.14,0,0,0,.5-.06A2.34,2.34,0,0,0,81.58,11.42Z"/><path class="cls-3" d="M87.66,13.44a1.57,1.57,0,0,1-.35-.25,6,6,0,0,1-.38,1.22,7.75,7.75,0,0,1-.7,1.28,8.81,8.81,0,0,1-1,1.26,7.8,7.8,0,0,1-1.37,1.15L82.2,16.94a8,8,0,0,0,1.24-.75,8.65,8.65,0,0,0,1.17-1A6.46,6.46,0,0,0,85.49,14a2.14,2.14,0,0,0,.36-1.12,1.14,1.14,0,0,0-.11-.46c-.07-.15-.16-.31-.25-.47l-.29-.43L85,11.24l1.39-1.5c.13.2.26.41.37.61a4.78,4.78,0,0,0,.37.55,2,2,0,0,0,.44.4,1,1,0,0,0,.56.15v2.1A1,1,0,0,1,87.66,13.44Z"/><path class="cls-3" d="M91.66,15.82l-.9,1.23-1.17-.78-.67.91-1.39-.91L88.47,15l1.17.79.65-.92Zm-4-4.22s0-.09.13-.11a.9.9,0,0,1,.28,0h2.17c.63,0,.94-.14.94-.43a.43.43,0,0,0,0-.19,1.43,1.43,0,0,0-.14-.28,3.36,3.36,0,0,0-.31-.44c-.13-.18-.31-.4-.54-.68l1.18-1.66A3.28,3.28,0,0,1,92.24,9a4.11,4.11,0,0,1,.33,1.61,3.22,3.22,0,0,1-.25,1.29,2.38,2.38,0,0,1-.67.91,2.63,2.63,0,0,1-1,.55,4.15,4.15,0,0,1-1.25.18H88.1a.9.9,0,0,1-.28,0c-.09,0-.13,0-.13-.09ZM91,17.81,90.09,19l-1.28-.87L89.69,17Z"/><path class="cls-3" d="M98.2,13.55H96.36V12.23A3.71,3.71,0,0,1,96.52,11a1.77,1.77,0,0,1,.49-.8,2.83,2.83,0,0,1,.87-.52l.25.65a1.44,1.44,0,0,0-1.07,1.39H98.2Z"/><path class="cls-3" d="M101.33,13.25a2.24,2.24,0,0,1-.88-.82,3.36,3.36,0,0,1-.43-1.25,10.65,10.65,0,0,1-.14-1.57c0-.27,0-.64,0-1.14s0-1,0-1.61,0-1.17,0-1.78,0-1.17,0-1.68l1.77-.73V9.83a1.94,1.94,0,0,0,.32,1.21,1.25,1.25,0,0,0,1,.41v2.1A3.3,3.3,0,0,1,101.33,13.25Z"/><path class="cls-3" d="M102.44,11.6s0-.09.14-.11a.86.86,0,0,1,.28,0h1.55a1.65,1.65,0,0,1-.32-.92,2.22,2.22,0,0,1,.39-1.22,3.82,3.82,0,0,1,.91-1l-.4-.25.87-1.88c.36.25.81.58,1.36,1a15.59,15.59,0,0,1,1.59,1.37,9.65,9.65,0,0,1,1.32,1.57,3,3,0,0,1,.57,1.61,4.25,4.25,0,0,1-.13,1.1,2.63,2.63,0,0,1-.35.83,1.39,1.39,0,0,1-.52.48.77.77,0,0,1-.63,0,10.4,10.4,0,0,1-1.25-.43c-.47-.2-.93-.41-1.38-.65a5.52,5.52,0,0,1-1.14.35,6.88,6.88,0,0,1-1,.1h-1.45a.86.86,0,0,1-.28,0c-.09,0-.14,0-.14-.09Zm3.35-.64a4,4,0,0,0,.52.33,1.23,1.23,0,0,0,.68-.51,1.28,1.28,0,0,0,.19-.63.65.65,0,0,0-.09-.32,1.44,1.44,0,0,0-.22-.27.76.76,0,0,0-.28-.2.63.63,0,0,0-.26-.08.7.7,0,0,0-.33.1,1.22,1.22,0,0,0-.3.26,1.41,1.41,0,0,0-.24.32.71.71,0,0,0-.09.3,1.27,1.27,0,0,0,.06.3A.7.7,0,0,0,105.79,11Zm2.63,0a2.58,2.58,0,0,1-.24.63,4.41,4.41,0,0,1-.35.53l.44.2.42.18.4.12c.1,0,.18,0,.25-.21a1.15,1.15,0,0,0-.12-1,4.49,4.49,0,0,0-.76-.88A1.33,1.33,0,0,1,108.42,11Z"/><path class="cls-3" d="M118.47,10.69a3.15,3.15,0,0,1-.28,1.4,2.56,2.56,0,0,1-.74,1,3,3,0,0,1-1.09.56,4.66,4.66,0,0,1-1.31.18,4.31,4.31,0,0,1-1.73-.31,3,3,0,0,1-1.18-.86l.87-1.58a2.57,2.57,0,0,0,1.75.64l.73,0a3.66,3.66,0,0,0,.77-.11,1.69,1.69,0,0,0,.62-.29.69.69,0,0,0,.25-.56,1.25,1.25,0,0,0-.33-.74,4.76,4.76,0,0,0-.77-.79,11.09,11.09,0,0,0-.91-.7c-.31-.21-.56-.36-.74-.46l.82-2Q118.47,8,118.47,10.69Z"/><path class="cls-3" d="M121.66,9.72a6.15,6.15,0,0,1,.75,1.29,3.77,3.77,0,0,1,.28,1.53,3.6,3.6,0,0,1-.42,1.67,6.8,6.8,0,0,1-1.1,1.5A11.37,11.37,0,0,1,119.65,17a18.7,18.7,0,0,1-1.69,1.1l-1.54-1.21c.4-.2.87-.45,1.4-.76a16.51,16.51,0,0,0,1.54-1A8.79,8.79,0,0,0,120.61,14a1.74,1.74,0,0,0,.51-1.11,1.54,1.54,0,0,0-.28-.81c-.19-.3-.38-.58-.57-.83Z"/><path class="cls-3" d="M122.87,16.94a14.87,14.87,0,0,0,1.36-.73c.51-.31,1-.64,1.49-1A9.61,9.61,0,0,0,127,14.11a2,2,0,0,0,.56-1.11,1.89,1.89,0,0,1-.57.21,2.66,2.66,0,0,1-.67.08,1.91,1.91,0,0,1-1.51-.5,1.88,1.88,0,0,1-.44-1.3,4,4,0,0,1,.13-1,3.44,3.44,0,0,1,.41-1,2.43,2.43,0,0,1,.67-.72,1.5,1.5,0,0,1,.94-.29,1.76,1.76,0,0,1,1.19.41,3.22,3.22,0,0,1,.75,1,5.58,5.58,0,0,1,.39,1.28,7.61,7.61,0,0,1,.11,1.17,4.26,4.26,0,0,1-.38,1.82,5.46,5.46,0,0,1-1,1.5A9.44,9.44,0,0,1,126.08,17c-.55.39-1.13.77-1.74,1.13Zm4.46-5.52a2.14,2.14,0,0,0-.36-.84.78.78,0,0,0-.63-.34.7.7,0,0,0-.52.24.76.76,0,0,0-.24.57.45.45,0,0,0,.27.44,1.46,1.46,0,0,0,.6.12,2.14,2.14,0,0,0,.5-.06A2.34,2.34,0,0,0,127.33,11.42Z"/><path class="cls-3" d="M132,13.25a2.21,2.21,0,0,1-.89-.82,3.55,3.55,0,0,1-.43-1.25,12.22,12.22,0,0,1-.14-1.57c0-.27,0-.64,0-1.14s0-1,0-1.61,0-1.17,0-1.78,0-1.17-.05-1.68l1.77-.73V9.83a1.88,1.88,0,0,0,.33,1.21,1.22,1.22,0,0,0,1,.41v2.1A3.28,3.28,0,0,1,132,13.25Z"/><path class="cls-3" d="M137.5,13.55a1.62,1.62,0,0,1-1.66-.94,2.4,2.4,0,0,1-2.11.94h-.17a1,1,0,0,1-.28,0c-.09,0-.13,0-.13-.09V11.6s0-.09.13-.11a1,1,0,0,1,.28,0h.09c.91,0,1.36-.31,1.36-.92V9.81l1.48-.47v.45c0,1.11.36,1.66,1.08,1.66h.11v2.1Zm-3.95-6.18.9-1.23,1.17.78.67-.92,1.39.92-.92,1.23-1.19-.78-.61.92Z"/><path class="cls-3" d="M137.27,11.6s0-.09.13-.11a.9.9,0,0,1,.28,0h.18a1.25,1.25,0,0,0,.82-.27,1,1,0,0,0,.32-.78V9.88l1.27-.43V10a2,2,0,0,0,.23,1.05.77.77,0,0,0,.7.39c.85,0,1.27-.38,1.27-1.14V9.63l1.28-.38v.9a1.41,1.41,0,0,0,.36,1,1.2,1.2,0,0,0,.92.39.64.64,0,0,0,.76-.7,1.53,1.53,0,0,0-.18-.71,1.75,1.75,0,0,0-.41-.55l1.24-1.41a3.39,3.39,0,0,1,.63,1.13,4.46,4.46,0,0,1,.2,1.3,4,4,0,0,1-.14,1.08,3.48,3.48,0,0,1-.43,1,2.16,2.16,0,0,1-.7.68,1.74,1.74,0,0,1-1,.26,2.7,2.7,0,0,1-1.22-.26,1.69,1.69,0,0,1-.78-.76,1.8,1.8,0,0,1-.69.73,2,2,0,0,1-.92.28,2.24,2.24,0,0,1-1-.24,1.75,1.75,0,0,1-.73-.7,1.63,1.63,0,0,1-.87.72,3.12,3.12,0,0,1-1.1.22.9.9,0,0,1-.28,0c-.09,0-.13,0-.13-.09Z"/><path class="cls-3" d="M155,10.69a3.3,3.3,0,0,1-.27,1.4,2.67,2.67,0,0,1-.74,1,3.13,3.13,0,0,1-1.09.56,4.76,4.76,0,0,1-1.31.18,4.33,4.33,0,0,1-1.74-.31,2.93,2.93,0,0,1-1.17-.86l.87-1.58a2.55,2.55,0,0,0,1.75.64l.73,0a3.76,3.76,0,0,0,.77-.11,1.65,1.65,0,0,0,.61-.29.66.66,0,0,0,.25-.56,1.23,1.23,0,0,0-.32-.74,5.28,5.28,0,0,0-.78-.79,9.61,9.61,0,0,0-.91-.7c-.31-.21-.55-.36-.73-.46l.81-2Q155,8,155,10.69Z"/><path class="cls-3" d="M168.93,13.55a1.67,1.67,0,0,1-.74-.16.65.65,0,0,1-.4-.35,6.24,6.24,0,0,1-.36,2.07,4.76,4.76,0,0,1-1,1.63,4.6,4.6,0,0,1-1.55,1.08,5.08,5.08,0,0,1-2,.39,4.72,4.72,0,0,1-1.81-.32,3.4,3.4,0,0,1-2-2.12,4.82,4.82,0,0,1-.24-1.54,5.68,5.68,0,0,1,.18-1.41,4.7,4.7,0,0,1,.56-1.33l1.33.49a5.93,5.93,0,0,0-.36.93,3.56,3.56,0,0,0-.12.91,2.66,2.66,0,0,0,.15.9,1.84,1.84,0,0,0,.47.72,2.06,2.06,0,0,0,.8.48,3.46,3.46,0,0,0,1.18.17,3.8,3.8,0,0,0,1.31-.2,2.61,2.61,0,0,0,.94-.54,2.17,2.17,0,0,0,.58-.8,2.37,2.37,0,0,0,.2-1,4.18,4.18,0,0,0-.87-2.58l1.58-1.44c.12.25.24.49.37.72a4,4,0,0,0,.39.61,1.72,1.72,0,0,0,.47.43,1.23,1.23,0,0,0,.61.15h.5v2.1Zm-4.86-4.74L163,10.26l-1.5-1,1.1-1.46Z"/><path class="cls-3" d="M172.7,15.82l-.9,1.23-1.17-.78-.67.91-1.41-.91,1-1.24,1.17.79.65-.92Zm-4-4.22s0-.09.13-.11a.9.9,0,0,1,.28,0h2.17c.63,0,.94-.14.94-.43a.43.43,0,0,0,0-.19,1.43,1.43,0,0,0-.14-.28,4.72,4.72,0,0,0-.31-.44c-.13-.18-.31-.4-.54-.68l1.17-1.66A3.19,3.19,0,0,1,173.23,9a4.28,4.28,0,0,1,.32,1.61,3.23,3.23,0,0,1-.24,1.29,2.48,2.48,0,0,1-.67.91,2.71,2.71,0,0,1-1,.55,4.2,4.2,0,0,1-1.25.18h-1.3a.9.9,0,0,1-.28,0c-.09,0-.13,0-.13-.09Z"/><path class="cls-3" d="M178.42,13.44a1.37,1.37,0,0,1-.35-.25,6,6,0,0,1-.38,1.22,7.75,7.75,0,0,1-.7,1.28A8.81,8.81,0,0,1,176,17a7.8,7.8,0,0,1-1.37,1.15L173,16.94a8,8,0,0,0,1.23-.75,8.17,8.17,0,0,0,1.18-1,6.46,6.46,0,0,0,.88-1.14,2.12,2.12,0,0,0,.35-1.12,1.13,1.13,0,0,0-.1-.46c-.08-.15-.16-.31-.26-.47a4.61,4.61,0,0,0-.29-.43l-.23-.32,1.39-1.5c.13.2.26.41.37.61a4.78,4.78,0,0,0,.37.55,2,2,0,0,0,.43.4,1,1,0,0,0,.56.15v2.1A.94.94,0,0,1,178.42,13.44Z"/><path class="cls-3" d="M178.43,11.6s0-.09.13-.11a.9.9,0,0,1,.28,0h1.59c.39,0,.7,0,.94,0a4.82,4.82,0,0,0,.79-.11q.42-.11,1.05-.33l1.7-.64c-.68-.19-1.21-.34-1.59-.43l-.83-.24a.87.87,0,0,0-.66.07,2,2,0,0,0-.51.42l-1.25-.85a5.38,5.38,0,0,1,1.1-1.42,1.52,1.52,0,0,1,1.27-.31,10.73,10.73,0,0,1,1.23.25l1.26.34,1.34.36c.46.11.95.21,1.48.29l.71.06.7,0L188.6,11l-.76,0a3,3,0,0,0-.61.05,3.28,3.28,0,0,0-.59.17,4.77,4.77,0,0,0-.68.34l-1.53.9a9.06,9.06,0,0,1-1.18.63,5.38,5.38,0,0,1-1.27.38,10.83,10.83,0,0,1-1.8.13h-1.34a.9.9,0,0,1-.28,0c-.09,0-.13,0-.13-.09Zm5.4-6.67-1.08,1.45-1.5-1,1.1-1.47Z"/><path class="cls-3" d="M194.68.83a3,3,0,0,1-.89.88,2.14,2.14,0,0,1-1.16.33,3.21,3.21,0,0,1-.81-.1A7.62,7.62,0,0,0,191,1.8a2.61,2.61,0,0,0-.79,0,1.4,1.4,0,0,0-.7.45l-.62-.83a2.3,2.3,0,0,1,.84-.67,2.22,2.22,0,0,1,.83-.16,5.48,5.48,0,0,1,.86.11,4.85,4.85,0,0,0,1,.12A2.11,2.11,0,0,0,194.25,0Zm-2.05,12.48-1.85.49V3.4l1.85-.73Z"/><path class="cls-3" d="M200.52,9.72a7.17,7.17,0,0,1,.75,1.29,3.94,3.94,0,0,1,.28,1.53,3.49,3.49,0,0,1-.43,1.67,6.49,6.49,0,0,1-1.1,1.5A10.77,10.77,0,0,1,198.5,17c-.56.41-1.12.77-1.68,1.1l-1.54-1.21c.4-.2.86-.45,1.4-.76a16.51,16.51,0,0,0,1.54-1A8.68,8.68,0,0,0,199.46,14a1.76,1.76,0,0,0,.52-1.11,1.64,1.64,0,0,0-.28-.81c-.19-.3-.38-.58-.57-.83Zm.76-2.31-1.09,1.44-1.5-1,1.11-1.46Z"/><path class="cls-3" d="M205,13.31l-1.85.49V3.4L205,2.67Z"/><path class="cls-3" d="M217.75,13.55a1.33,1.33,0,0,1,.06.63,2.29,2.29,0,0,1-.19.65,3.49,3.49,0,0,1-1.2,1.37,5.36,5.36,0,0,1-1.78.82,6.14,6.14,0,0,1-2,.2,5.06,5.06,0,0,1-1.89-.47,3.51,3.51,0,0,1-1.39-1.17,3.29,3.29,0,0,1-.54-1.94,5.28,5.28,0,0,1,.23-1.55,8.11,8.11,0,0,1,.6-1.38l1.37.49c-.14.31-.28.66-.41,1a3,3,0,0,0-.2,1.06,2.07,2.07,0,0,0,.27,1.11,1.81,1.81,0,0,0,.72.65,2.57,2.57,0,0,0,1,.28,4.92,4.92,0,0,0,1.15,0,6.35,6.35,0,0,0,1.13-.25,5,5,0,0,0,1-.39c.23-.12.35-.22.37-.29s0-.14-.15-.18l-2-.66a3,3,0,0,1,.12-.36l.17-.43.18-.43a2.1,2.1,0,0,1,.18-.34,1,1,0,0,1,1-.54h2.26v2.1Z"/><path class="cls-3" d="M217.42,11.6s.05-.09.14-.11a.86.86,0,0,1,.28,0h1.55a1.65,1.65,0,0,1-.32-.92,2.22,2.22,0,0,1,.39-1.22,3.65,3.65,0,0,1,.91-1l-.4-.25.87-1.88c.36.25.81.58,1.36,1a15.59,15.59,0,0,1,1.59,1.37,9.65,9.65,0,0,1,1.32,1.57,3,3,0,0,1,.57,1.61,4.25,4.25,0,0,1-.13,1.1,2.63,2.63,0,0,1-.35.83,1.47,1.47,0,0,1-.52.48.77.77,0,0,1-.63,0,10.4,10.4,0,0,1-1.25-.43c-.47-.2-.93-.41-1.38-.65a5.52,5.52,0,0,1-1.14.35,6.86,6.86,0,0,1-1,.1h-1.44a.86.86,0,0,1-.28,0c-.09,0-.14,0-.14-.09Zm3.35-.64a4,4,0,0,0,.52.33,1.21,1.21,0,0,0,.87-1.14.65.65,0,0,0-.09-.32,1.44,1.44,0,0,0-.22-.27.86.86,0,0,0-.28-.2.63.63,0,0,0-.26-.08.7.7,0,0,0-.33.1,1.48,1.48,0,0,0-.31.26,1.72,1.72,0,0,0-.23.32.71.71,0,0,0-.09.3,1.8,1.8,0,0,0,.05.3A.76.76,0,0,0,220.77,11Zm2.63,0a2.58,2.58,0,0,1-.24.63,4.41,4.41,0,0,1-.35.53l.44.2.42.18.4.12c.1,0,.18,0,.25-.21a1.15,1.15,0,0,0-.12-1,4.49,4.49,0,0,0-.76-.88A1.33,1.33,0,0,1,223.4,11Z"/><path class="cls-3" d="M228.81,13.25a2.18,2.18,0,0,1-.88-.82,3.55,3.55,0,0,1-.44-1.25,10.71,10.71,0,0,1-.13-1.57c0-.27,0-.64,0-1.14s0-1,0-1.61,0-1.17,0-1.78,0-1.17-.05-1.68L229,2.67V9.83a1.88,1.88,0,0,0,.33,1.21,1.25,1.25,0,0,0,1.05.41v2.1A3.3,3.3,0,0,1,228.81,13.25Z"/><path class="cls-3" d="M229.92,11.6s.05-.09.14-.11a.86.86,0,0,1,.28,0h.54c2,0,3-.24,3-.74a1.14,1.14,0,0,0-.31-.63,7.84,7.84,0,0,0-.76-.79c-.3-.27-.62-.53-1-.79l-.93-.7a3,3,0,0,1-.34-.25.76.76,0,0,1-.18-.23.54.54,0,0,1,0-.27,3.58,3.58,0,0,1,0-.4c0-.11,0-.25.06-.41a3.16,3.16,0,0,1,.1-.5,2.27,2.27,0,0,1,.16-.46A.56.56,0,0,1,231,5a29.89,29.89,0,0,1,3-1.29c1.25-.46,2.76-1,4.51-1.47l-.23,2.11q-1.59.35-3.12.75a26.83,26.83,0,0,0-3,1c-.21.08-.25.18-.1.29l1.19.86a8.92,8.92,0,0,1,1.08.93,4.2,4.2,0,0,1,.79,1.1,2.89,2.89,0,0,1,.3,1.33,2.54,2.54,0,0,1-.44,1.55,2.76,2.76,0,0,1-1.11.89,5,5,0,0,1-1.48.41,14,14,0,0,1-1.54.1h-.49a.86.86,0,0,1-.28,0c-.09,0-.14,0-.14-.09Zm8.56-10.12q-2,.63-3.27,1.08c-.88.29-1.59.54-2.15.74l-1.28.48-.7.3.23-1c.59-.28,1.49-.63,2.7-1.07s2.75-.95,4.62-1.55Z"/><path class="cls-3" d="M245.08.83a3.14,3.14,0,0,1-.9.88A2.14,2.14,0,0,1,243,2a3.21,3.21,0,0,1-.81-.1,7.62,7.62,0,0,0-.81-.14,2.61,2.61,0,0,0-.79,0,1.4,1.4,0,0,0-.7.45l-.61-.83A2,2,0,0,1,241,.62a5.48,5.48,0,0,1,.86.11,4.94,4.94,0,0,0,1,.12A2.11,2.11,0,0,0,244.64,0ZM243,13.31l-1.85.49V3.4L243,2.67Z"/><path class="cls-3" d="M257.61,9.63a3.75,3.75,0,0,0-1.5-.22,2.23,2.23,0,0,0-.69.12,3,3,0,0,0-.65.3,2.36,2.36,0,0,0-.5.42.7.7,0,0,0-.2.46c0,.16.09.26.27.32a3.56,3.56,0,0,0,.69.11l.88.06a3.2,3.2,0,0,1,.89.18,1.69,1.69,0,0,1,.68.45,1.29,1.29,0,0,1,.27.87,3.34,3.34,0,0,1-.54,1.88,4.76,4.76,0,0,1-1.37,1.35,6.32,6.32,0,0,1-1.83.82,7.11,7.11,0,0,1-1.94.28,6.36,6.36,0,0,1-2-.28,3.86,3.86,0,0,1-1.42-.77,3.31,3.31,0,0,1-.84-1.19,3.82,3.82,0,0,1-.28-1.48,5.46,5.46,0,0,1,.21-1.45,6.65,6.65,0,0,1,.64-1.53l1.43.49a6.91,6.91,0,0,0-.43,1,3.3,3.3,0,0,0-.15,1,2.29,2.29,0,0,0,.17.87,1.89,1.89,0,0,0,.55.69,2.83,2.83,0,0,0,1,.47,4.83,4.83,0,0,0,1.4.17,6,6,0,0,0,1.24-.14,8.61,8.61,0,0,0,1.33-.38,5,5,0,0,0,1.06-.53c.29-.2.43-.4.43-.59s-.07-.18-.21-.23a3.8,3.8,0,0,0-.57-.1l-.85-.06c-.32,0-.66,0-1-.1a1.42,1.42,0,0,1-.92-.45,1.47,1.47,0,0,1-.29-.94,3.44,3.44,0,0,1,.35-1.54,4.4,4.4,0,0,1,.92-1.29,4.72,4.72,0,0,1,1.29-.87,3.48,3.48,0,0,1,1.46-.33,3.33,3.33,0,0,1,.78.1,2.81,2.81,0,0,1,.74.32Z"/><path class="cls-3" d="M261.46,13.31l-1.85.49V3.4l1.85-.73Z"/><path class="cls-3" d="M266,13.44a1.83,1.83,0,0,1-.35-.25,4.55,4.55,0,0,1-.6,1.45,7.25,7.25,0,0,1-1.07,1.3,11.48,11.48,0,0,1-1.39,1.15c-.51.36-1,.7-1.58,1l-1.54-1.19,1.4-.75a15.84,15.84,0,0,0,1.55-1A7.68,7.68,0,0,0,263.63,14a1.67,1.67,0,0,0,.52-1.11,1.14,1.14,0,0,0-.11-.46c-.07-.15-.16-.31-.25-.47l-.29-.43-.24-.32,1.39-1.5a6.62,6.62,0,0,1,.37.61,4.78,4.78,0,0,0,.37.55,2,2,0,0,0,.44.4,1,1,0,0,0,.56.15v2.1A1,1,0,0,1,266,13.44Z"/><path class="cls-3" d="M266,11.6s0-.09.14-.11a.86.86,0,0,1,.28,0h1.19c.61,0,.92-.14.92-.43a.63.63,0,0,0,0-.19,2.83,2.83,0,0,0-.15-.28,3.36,3.36,0,0,0-.31-.44l-.52-.68,1.17-1.66A3.07,3.07,0,0,1,269.54,9a4.28,4.28,0,0,1,.32,1.61,3.22,3.22,0,0,1-.25,1.29,2.38,2.38,0,0,1-.67.91,2.63,2.63,0,0,1-1,.55,4.15,4.15,0,0,1-1.25.18h-.3a.86.86,0,0,1-.28,0c-.09,0-.14,0-.14-.09Zm.4,4.75,1.08-1.45,1.5,1-1.1,1.47Z"/><path class="cls-3" d="M1.91,35.22H0V33.31H1.91Z"/><path class="cls-3" d="M11.34,35.22a2.92,2.92,0,0,1-2.53-1.44,2.81,2.81,0,0,1-2.9,1.68,3.13,3.13,0,0,1-2.55-1L4,32.84a2.4,2.4,0,0,0,.92.41,4.85,4.85,0,0,0,1.26.17,4.65,4.65,0,0,0,.75-.06,2.4,2.4,0,0,0,.64-.17,1.48,1.48,0,0,0,.45-.3.57.57,0,0,0,.14-.59c0-.06-.06-.22-.14-.46l-.38-1.1c-.18-.49-.41-1.18-.71-2.06l1.44-1.3c.37,1.21.67,2.18.89,2.93a14.62,14.62,0,0,0,.62,1.74,2.08,2.08,0,0,0,.59.85,1.46,1.46,0,0,0,.84.23h.38v2.09Z"/><path class="cls-3" d="M14.27,37.5l-.9,1.23L12.19,38l-.67.9L10.11,38l1-1.25,1.18.8.65-.92Zm-3-4.23c0-.05,0-.08.13-.11a1.33,1.33,0,0,1,.28,0h1.2c.61,0,.92-.15.92-.44a.72.72,0,0,0,0-.19,1.77,1.77,0,0,0-.14-.28l-.31-.44-.52-.68L14,29.44a3.14,3.14,0,0,1,.88,1.25,4.23,4.23,0,0,1,.31,1.61,3.23,3.23,0,0,1-.24,1.29,2.57,2.57,0,0,1-.67.91,2.84,2.84,0,0,1-1,.54,4.2,4.2,0,0,1-1.25.18H11.7a1.33,1.33,0,0,1-.28,0c-.09,0-.13-.06-.13-.09Z"/><path class="cls-3" d="M21.22,35.22a4.55,4.55,0,0,1-.67,1.34,8.36,8.36,0,0,1-1.05,1.2,11,11,0,0,1-1.34,1.07c-.49.34-1,.65-1.49.94l-1.53-1.19L16.31,38c.44-.25.89-.53,1.34-.82a13.45,13.45,0,0,0,1.22-.93,3.63,3.63,0,0,0,.8-1,8.49,8.49,0,0,1-1.17-.08,2.29,2.29,0,0,1-.91-.32,1.55,1.55,0,0,1-.59-.65,2.51,2.51,0,0,1-.2-1.08,4,4,0,0,1,.12-.92,3.71,3.71,0,0,1,.38-.94,2.62,2.62,0,0,1,.63-.73,1.3,1.3,0,0,1,.85-.3,1.83,1.83,0,0,1,1,.28,2.74,2.74,0,0,1,.74.7,3.94,3.94,0,0,1,.47.94,4.83,4.83,0,0,1,.22,1h.65v2.09Zm-1.39-2.09a2,2,0,0,0-.12-.41,2.18,2.18,0,0,0-.24-.42,1.56,1.56,0,0,0-.32-.31.56.56,0,0,0-.37-.13.64.64,0,0,0-.52.24.79.79,0,0,0-.2.52.6.6,0,0,0,.07.3.43.43,0,0,0,.27.14,2.9,2.9,0,0,0,.54.06Z"/><path class="cls-3" d="M21.87,35.22a1.33,1.33,0,0,1-.28,0c-.09,0-.13-.06-.13-.09V33.27c0-.05,0-.08.13-.11a1.33,1.33,0,0,1,.28,0h1.81v2.09Z"/><path class="cls-3" d="M23.68,35.22a1.27,1.27,0,0,1-.28,0c-.09,0-.14-.06-.14-.09V33.27c0-.05,0-.08.14-.11a1.27,1.27,0,0,1,.28,0h1.8v2.09Z"/><path class="cls-3" d="M25.48,35.22a1.33,1.33,0,0,1-.28,0c-.09,0-.13-.06-.13-.09V33.27c0-.05,0-.08.13-.11a1.33,1.33,0,0,1,.28,0h1.81v2.09Z"/><path class="cls-3" d="M27.29,35.22a1.27,1.27,0,0,1-.28,0c-.09,0-.13-.06-.13-.09V33.27c0-.05,0-.08.13-.11a1.27,1.27,0,0,1,.28,0H29.1v2.09Z"/><path class="cls-3" d="M29.1,35.22a1.27,1.27,0,0,1-.28,0c-.09,0-.14-.06-.14-.09V33.27c0-.05.05-.08.14-.11a1.27,1.27,0,0,1,.28,0h1.8v2.09Z"/><path class="cls-3" d="M30.9,35.22a1.33,1.33,0,0,1-.28,0c-.09,0-.13-.06-.13-.09V33.27c0-.05,0-.08.13-.11a1.33,1.33,0,0,1,.28,0h1.81v2.09Z"/><path class="cls-3" d="M32.29,33.27c0-.05.05-.08.14-.11a1.27,1.27,0,0,1,.28,0h.18a1.22,1.22,0,0,0,.81-.27,1,1,0,0,0,.33-.78v-.53l1.26-.43v.56a2,2,0,0,0,.24,1.06.76.76,0,0,0,.7.39c.84,0,1.27-.38,1.27-1.14V31.3l1.28-.38v.91a1.39,1.39,0,0,0,.36,1,1.18,1.18,0,0,0,.92.4.65.65,0,0,0,.76-.71,1.56,1.56,0,0,0-.18-.71,1.74,1.74,0,0,0-.42-.55l1.25-1.41A3.51,3.51,0,0,1,42.09,31a4.07,4.07,0,0,1,.21,1.3,4.3,4.3,0,0,1-.14,1.07,3.23,3.23,0,0,1-.43,1A2.42,2.42,0,0,1,41,35a1.88,1.88,0,0,1-1,.26A2.8,2.8,0,0,1,38.84,35a1.73,1.73,0,0,1-.79-.77,1.66,1.66,0,0,1-.68.73,1.89,1.89,0,0,1-.92.28,2.34,2.34,0,0,1-1-.23,1.72,1.72,0,0,1-.73-.71,1.71,1.71,0,0,1-.87.72,2.92,2.92,0,0,1-1.1.22,1.27,1.27,0,0,1-.28,0c-.09,0-.14-.06-.14-.09ZM36.05,29l.9-1.22,1.18.77.67-.92,1.37.92-.9,1.23L38.07,29l-.63.93Zm.67-2,.92-1.19,1.26.85L38,27.89Z"/><path class="cls-3" d="M50.68,32.71a3.08,3.08,0,0,1-.2,1.13,2.36,2.36,0,0,1-.57.83,2.65,2.65,0,0,1-.83.52,2.88,2.88,0,0,1-1,.18,2.48,2.48,0,0,1-1.61-.49,1.75,1.75,0,0,1-.59-1.41,5.63,5.63,0,0,1,1-2.71l-.38-.18,1-1.66a10.63,10.63,0,0,1,1.23.71,6.57,6.57,0,0,1,1,.85,3.81,3.81,0,0,1,.7,1A2.91,2.91,0,0,1,50.68,32.71Zm-1.41.13c0-.54-.44-1-1.33-1.48a3.45,3.45,0,0,0-.46.69,1.5,1.5,0,0,0-.21.7.66.66,0,0,0,.2.49.93.93,0,0,0,.67.19l.36,0a2.26,2.26,0,0,0,.37-.11,1,1,0,0,0,.29-.19A.4.4,0,0,0,49.27,32.84Z"/><path class="cls-3" d="M53.82,34.92a2.21,2.21,0,0,1-.89-.82,3.49,3.49,0,0,1-.43-1.24,10.92,10.92,0,0,1-.14-1.58c0-.26,0-.64,0-1.13s0-1,0-1.61,0-1.17,0-1.78,0-1.17,0-1.69L54,24.35V31.5a2,2,0,0,0,.32,1.22,1.28,1.28,0,0,0,1.05.41v2.09A3.26,3.26,0,0,1,53.82,34.92Z"/><path class="cls-3" d="M63.11,35.22A3.11,3.11,0,0,1,62,35a4.75,4.75,0,0,1-1-.52,6.32,6.32,0,0,1-.9-.74,7.14,7.14,0,0,1-.74-.85,2.25,2.25,0,0,1-1.18,1.73,5.56,5.56,0,0,1-2.78.58,1.33,1.33,0,0,1-.28,0c-.09,0-.13-.06-.13-.09V33.27c0-.05,0-.08.13-.11a1.33,1.33,0,0,1,.28,0h.73a6,6,0,0,0,1-.08,2.58,2.58,0,0,0,.81-.24.55.55,0,0,0,.35-.51,1.27,1.27,0,0,0-.31-.73,8.73,8.73,0,0,0-.73-.84c-.28-.28-.57-.55-.86-.81s-.52-.47-.69-.64l-.17-.19a.47.47,0,0,1-.06-.35,4.49,4.49,0,0,1,.06-.48c0-.18.07-.34.11-.5a1.75,1.75,0,0,1,.16-.42.49.49,0,0,1,.21-.25,30.7,30.7,0,0,1,3.21-1.36q2-.74,4.74-1.6l-.24,2c-1.31.3-2.5.62-3.58,1s-2.07.68-3,1c-.23.08-.26.19-.09.31.52.39,1,.81,1.51,1.24s1,.89,1.43,1.36c.27.26.53.52.79.76a6.16,6.16,0,0,0,.81.66,4,4,0,0,0,.89.47,3.13,3.13,0,0,0,1,.17h.83v2.09Zm.36-11.65-3.28,1.07L58,25.37l-1.29.48-.7.3.23-1c.59-.28,1.49-.63,2.7-1.06s2.75-1,4.62-1.58Z"/><path class="cls-3" d="M63.85,33.27c0-.05,0-.08.13-.11a1.33,1.33,0,0,1,.28,0h1.2c.61,0,.92-.15.92-.44a.46.46,0,0,0,0-.19,1.77,1.77,0,0,0-.14-.28l-.31-.44-.52-.68,1.17-1.66a3.14,3.14,0,0,1,.88,1.25,4.23,4.23,0,0,1,.31,1.61,3.23,3.23,0,0,1-.24,1.29,2.57,2.57,0,0,1-.67.91,2.84,2.84,0,0,1-1,.54,4.2,4.2,0,0,1-1.25.18h-.31a1.33,1.33,0,0,1-.28,0c-.09,0-.13-.06-.13-.09Zm3.29-6.07-1.09,1.45-1.5-1,1.11-1.47Z"/><path class="cls-3" d="M86.75,35.22A3.17,3.17,0,0,1,85.57,35a5.07,5.07,0,0,1-1.06-.55,5.81,5.81,0,0,1-.92-.79,10.17,10.17,0,0,1-.74-.91,2,2,0,0,1-.39,1.17,2.84,2.84,0,0,1-.88.81,5.33,5.33,0,0,1-1.21.53,10.8,10.8,0,0,1-1.37.3c-.47.06-.91.1-1.34.12l-1.13,0q-5.23,0-5.24-3.07A5.39,5.39,0,0,1,72,30.36l1.34.4A3.51,3.51,0,0,0,72.9,32a1.12,1.12,0,0,0,.24.74,1.88,1.88,0,0,0,.59.48,3.3,3.3,0,0,0,.82.28,7.48,7.48,0,0,0,.92.12l.86,0H77c.19,0,.44,0,.75,0l1-.06a9.65,9.65,0,0,0,1-.15,6.6,6.6,0,0,0,1-.26,2.57,2.57,0,0,0,.7-.39.78.78,0,0,0,.28-.56,1,1,0,0,0-.2-.58A3.78,3.78,0,0,0,81,31q-.31-.33-.69-.66l-.68-.64a5.55,5.55,0,0,1-.41-.49.75.75,0,0,1-.11-.56,4.16,4.16,0,0,1,.06-.44,4.46,4.46,0,0,1,.11-.46,2.08,2.08,0,0,1,.15-.4.55.55,0,0,1,.2-.24,29.66,29.66,0,0,1,3.23-1.38c1.33-.49,2.91-1,4.74-1.58l-.24,2c-1.13.27-2.24.57-3.33.89a33.19,33.19,0,0,0-3.22,1.13.24.24,0,0,0-.18.12s0,.11.1.19c.46.35.93.74,1.4,1.17s1,.91,1.53,1.43l.79.75a9.87,9.87,0,0,0,.82.66,4.13,4.13,0,0,0,.88.47,2.86,2.86,0,0,0,1,.18H88v2.09Z"/><path class="cls-3" d="M90.55,37.5l-.91,1.23L88.47,38l-.67.9L86.39,38l1-1.25,1.17.8.65-.92Zm-3-4.23c0-.05,0-.08.13-.11a1.33,1.33,0,0,1,.28,0h1.19c.62,0,.93-.15.93-.44a.72.72,0,0,0,0-.19,1.32,1.32,0,0,0-.15-.28c-.07-.12-.17-.26-.3-.44l-.53-.68,1.18-1.66a3.12,3.12,0,0,1,.87,1.25,4.24,4.24,0,0,1,.32,1.61,3.23,3.23,0,0,1-.24,1.29,2.69,2.69,0,0,1-.67.91,2.93,2.93,0,0,1-1,.54,4.24,4.24,0,0,1-1.25.18H88a1.33,1.33,0,0,1-.28,0c-.09,0-.13-.06-.13-.09Z"/><path class="cls-3" d="M111.45,35.22a2.25,2.25,0,0,1-1-.21,1.53,1.53,0,0,1-.71-.73A2.11,2.11,0,0,1,109,35a1.94,1.94,0,0,1-.9.23,1.69,1.69,0,0,1-.81-.21,1.85,1.85,0,0,1-.67-.71,2,2,0,0,1-1.79.92A1.5,1.5,0,0,1,104,35a4.79,4.79,0,0,1-.43,1.71,4.65,4.65,0,0,1-1,1.4,4.76,4.76,0,0,1-1.52.94,5.23,5.23,0,0,1-2,.36,5,5,0,0,1-1.81-.31,3.35,3.35,0,0,1-2-2.11A4.91,4.91,0,0,1,95,35.42,5.68,5.68,0,0,1,95.19,34a5.22,5.22,0,0,1,.56-1.34l1.34.47a5.28,5.28,0,0,0-.36.94,3.18,3.18,0,0,0-.13.91,2.66,2.66,0,0,0,.15.9,2,2,0,0,0,.47.72,2.17,2.17,0,0,0,.81.49,3.35,3.35,0,0,0,1.17.18,4.05,4.05,0,0,0,1.31-.2,2.66,2.66,0,0,0,.95-.54,2.35,2.35,0,0,0,.57-.8,2.72,2.72,0,0,0,.19-1,3.88,3.88,0,0,0-.19-1.13,4.39,4.39,0,0,0-.59-1.16L103,31.21a7.14,7.14,0,0,0,.4.71,6.46,6.46,0,0,0,.46.61,2.33,2.33,0,0,0,.48.43.91.91,0,0,0,.5.17,1.29,1.29,0,0,0,.83-.22.84.84,0,0,0,.25-.69v-.63l1.27-.45v.61a1.78,1.78,0,0,0,.24,1.06,1.28,1.28,0,0,0,1.61.07.87.87,0,0,0,.26-.66v-.63l1.28-.45v.76c0,.22,0,.4,0,.55a.85.85,0,0,0,.11.38.51.51,0,0,0,.29.22,1.62,1.62,0,0,0,.56.08h.27v2.09Z"/><path class="cls-3" d="M111.37,33.27c0-.05,0-.08.14-.11a1.27,1.27,0,0,1,.28,0h1.59l.94,0a3.9,3.9,0,0,0,.78-.12,9.59,9.59,0,0,0,1.05-.32l1.71-.65-1.59-.43c-.37-.09-.65-.17-.83-.23a.92.92,0,0,0-.66.06,1.85,1.85,0,0,0-.52.42L113,31a4.88,4.88,0,0,1,1.1-1.42,1.49,1.49,0,0,1,1.26-.32c.41.06.82.15,1.23.25l1.27.35,1.33.35c.46.11,1,.21,1.48.3l.72,0,.69,0-.56,2.06a7.32,7.32,0,0,0-.76,0,4,4,0,0,0-.61.05,3.59,3.59,0,0,0-.59.18,5.09,5.09,0,0,0-.67.33q-.93.52-1.53.9a8.64,8.64,0,0,1-1.18.64,6.62,6.62,0,0,1-1.28.38,10.85,10.85,0,0,1-1.79.12h-1.34a1.27,1.27,0,0,1-.28,0c-.09,0-.14-.06-.14-.09Z"/><path class="cls-3" d="M131.53,35.22a1.94,1.94,0,0,1-1.41-.43,2.45,2.45,0,0,1-.63-1.3,1.92,1.92,0,0,1-.81.45,3.77,3.77,0,0,1-1.17.18,3.11,3.11,0,0,1-.69-.07,1.93,1.93,0,0,1-.59-.24,1.31,1.31,0,0,1-.41-.4,1.09,1.09,0,0,1-.16-.61q0-1.9,2.93-3.65l-.16-.77L129.75,27l.95,4.8a2.14,2.14,0,0,0,.42,1,1.31,1.31,0,0,0,1,.29v2.09Zm-2.65-4.64a3.51,3.51,0,0,0-.71.35,2.84,2.84,0,0,0-.68.57c-.19.24-.25.42-.16.53a.76.76,0,0,0,.61.18,5.09,5.09,0,0,0,.69-.05,1.43,1.43,0,0,0,.56-.19Z"/><path class="cls-3" d="M131.68,33.27c0-.05,0-.08.13-.11a1.33,1.33,0,0,1,.28,0,3.11,3.11,0,0,0,1.24-.21,1.59,1.59,0,0,0,.73-.62c.15-.25.29-.5.44-.78a7.29,7.29,0,0,1,.5-.77,2.88,2.88,0,0,1,.62-.59,1.55,1.55,0,0,1,.84-.23,1.4,1.4,0,0,1,.9.3A2.21,2.21,0,0,1,138,31a3.69,3.69,0,0,1,.34.93,4.4,4.4,0,0,1,.11.89,3.79,3.79,0,0,1-.08.73,2.2,2.2,0,0,1-.25.72,1.61,1.61,0,0,1-.46.54,1,1,0,0,1-.68.22,2.6,2.6,0,0,1-1.2-.3,6.61,6.61,0,0,1-1-.66,3.26,3.26,0,0,1-1.08.89,3.43,3.43,0,0,1-1.52.3,1.33,1.33,0,0,1-.28,0c-.09,0-.13-.06-.13-.09Zm4.71-1.7c-.38-.06-.7.24-.95.91a2.37,2.37,0,0,0,.61.42,2.31,2.31,0,0,0,.65.23.29.29,0,0,0,.38-.26,1.75,1.75,0,0,0,0-.38,1.34,1.34,0,0,0-.13-.4,1.33,1.33,0,0,0-.22-.34A.68.68,0,0,0,136.39,31.57Z"/><path class="cls-3" d="M141.53,34.92a2.18,2.18,0,0,1-.88-.82,3.5,3.5,0,0,1-.44-1.24,11,11,0,0,1-.13-1.58c0-.26,0-.64,0-1.13s0-1,0-1.61,0-1.17,0-1.78,0-1.17-.05-1.69l1.77-.72V31.5a1.91,1.91,0,0,0,.33,1.22,1.28,1.28,0,0,0,1.05.41v2.09A3.3,3.3,0,0,1,141.53,34.92Z"/><path class="cls-3" d="M142.64,33.27c0-.05.05-.08.14-.11a1.27,1.27,0,0,1,.28,0h1.19c.61,0,.92-.15.92-.44a.46.46,0,0,0,0-.19,1.77,1.77,0,0,0-.14-.28c-.07-.12-.18-.26-.31-.44l-.52-.68,1.17-1.66a3,3,0,0,1,.88,1.25,4.23,4.23,0,0,1,.31,1.61,3.23,3.23,0,0,1-.24,1.29,2.45,2.45,0,0,1-.67.91,2.76,2.76,0,0,1-1,.54,4.2,4.2,0,0,1-1.25.18h-.3a1.27,1.27,0,0,1-.28,0c-.09,0-.14-.06-.14-.09Zm3.29-6.07-1.09,1.45-1.49-1,1.1-1.47Z"/><path class="cls-3" d="M151,35.11a1.16,1.16,0,0,1-.35-.25,4.28,4.28,0,0,1-.61,1.45A7.25,7.25,0,0,1,149,37.62a12.25,12.25,0,0,1-1.39,1.14c-.51.36-1,.7-1.58,1l-1.54-1.19c.39-.19.85-.44,1.39-.75a18,18,0,0,0,1.56-1,8.17,8.17,0,0,0,1.25-1.12,1.76,1.76,0,0,0,.52-1.12,1.1,1.1,0,0,0-.11-.45,3.67,3.67,0,0,0-.26-.47c-.09-.16-.19-.3-.28-.43l-.24-.33,1.39-1.5c.13.21.26.41.37.61a4.94,4.94,0,0,0,.37.56,1.79,1.79,0,0,0,.44.39.93.93,0,0,0,.56.16v2.09A.84.84,0,0,1,151,35.11Z"/><path class="cls-3" d="M155.39,35.22a1.61,1.61,0,0,1-1.66-.94,2.37,2.37,0,0,1-2.11.94h-.16a1.27,1.27,0,0,1-.28,0c-.1,0-.14-.06-.14-.09V33.27c0-.05,0-.08.14-.11a1.27,1.27,0,0,1,.28,0h.09c.9,0,1.35-.31,1.35-.92v-.73l1.48-.47v.45c0,1.11.36,1.67,1.08,1.67h.11v2.09Zm-3,2.8,1.09-1.44,1.5,1-1.11,1.46Z"/><path class="cls-3" d="M155.16,33.27c0-.05,0-.08.13-.11a1.33,1.33,0,0,1,.28,0h1.59l.94,0a4.11,4.11,0,0,0,.79-.12c.28-.07.63-.17,1.05-.32l1.7-.65-1.59-.43c-.37-.09-.65-.17-.83-.23a.92.92,0,0,0-.66.06,1.81,1.81,0,0,0-.51.42L156.8,31a4.88,4.88,0,0,1,1.1-1.42,1.51,1.51,0,0,1,1.27-.32c.41.06.82.15,1.23.25l1.26.35,1.34.35c.45.11.95.21,1.48.3l.71,0,.7,0-.56,2.06a7.45,7.45,0,0,0-.76,0,4.1,4.1,0,0,0-.62.05,3.49,3.49,0,0,0-.58.18,4.61,4.61,0,0,0-.68.33l-1.53.9a8.09,8.09,0,0,1-1.18.64,6.73,6.73,0,0,1-1.27.38,11.06,11.06,0,0,1-1.8.12h-1.34a1.33,1.33,0,0,1-.28,0c-.09,0-.13-.06-.13-.09Zm5.4-6.66-1.09,1.44L158,27l1.1-1.46Z"/><path class="cls-3" d="M174.23,35.22a4.32,4.32,0,0,1-.67,1.34,8.36,8.36,0,0,1-1.05,1.2,11,11,0,0,1-1.34,1.07c-.49.34-1,.65-1.49.94l-1.53-1.19c.33-.17.73-.38,1.17-.63s.89-.53,1.34-.82a13.45,13.45,0,0,0,1.22-.93,3.63,3.63,0,0,0,.8-1,8.23,8.23,0,0,1-1.16-.08,2.33,2.33,0,0,1-.92-.32,1.47,1.47,0,0,1-.58-.65,2.36,2.36,0,0,1-.21-1.08,4,4,0,0,1,.12-.92,4.11,4.11,0,0,1,.38-.94,2.62,2.62,0,0,1,.63-.73,1.3,1.3,0,0,1,.85-.3,1.83,1.83,0,0,1,1,.28,2.74,2.74,0,0,1,.74.7,3.94,3.94,0,0,1,.47.94,4.83,4.83,0,0,1,.22,1h.65v2.09Zm-1.39-2.09a2,2,0,0,0-.12-.41,1.76,1.76,0,0,0-.24-.42,1.82,1.82,0,0,0-.31-.31.6.6,0,0,0-.38-.13.64.64,0,0,0-.52.24.79.79,0,0,0-.2.52.6.6,0,0,0,.07.3.43.43,0,0,0,.27.14,2.9,2.9,0,0,0,.54.06Z"/><path class="cls-3" d="M186.35,35.22a2.51,2.51,0,0,1-1.16-.27,2.9,2.9,0,0,1-.93-.74,5.54,5.54,0,0,1-1.71.76,7.12,7.12,0,0,1-1.83.25h-2.28a2,2,0,0,1-.92-.22,1.19,1.19,0,0,1-.63-.72,1.88,1.88,0,0,1-1.68.94h-.33a1.33,1.33,0,0,1-.28,0c-.09,0-.13-.06-.13-.09V33.27c0-.05,0-.08.13-.11a1.33,1.33,0,0,1,.28,0h.47c.51,0,.76-.3.76-.91v-.68l1.39-.4v.4a4.42,4.42,0,0,0,.06.8,1.34,1.34,0,0,0,.16.49.53.53,0,0,0,.28.23,1,1,0,0,0,.42.07h.11c.36-.41.75-.85,1.17-1.31A14.19,14.19,0,0,1,181,30.53a7.82,7.82,0,0,1,1.34-1,2.74,2.74,0,0,1,1.36-.39,2.35,2.35,0,0,1,.89.17,2.06,2.06,0,0,1,1.17,1.12,2,2,0,0,1,.16.83,3.16,3.16,0,0,1-.13.95,2.66,2.66,0,0,1-.32.74c.06.11.4.17,1,.17h.23v2.09Zm-6-7.68L179.22,29l-1.5-1,1.1-1.46Zm2.89,3.58a2.32,2.32,0,0,0-1.43.56,18.67,18.67,0,0,0-1.62,1.45h.51l.51,0c.23,0,.49,0,.78-.07a6.63,6.63,0,0,0,.86-.13,5.7,5.7,0,0,0,.82-.23,1.92,1.92,0,0,0,.6-.34.63.63,0,0,0,.24-.5.48.48,0,0,0-.14-.35.93.93,0,0,0-.33-.21,1.55,1.55,0,0,0-.42-.12A1.82,1.82,0,0,0,183.19,31.12Z"/><path class="cls-3" d="M186.3,33.27c0-.05,0-.08.13-.11a1.33,1.33,0,0,1,.28,0h1.61a4.55,4.55,0,0,1-.28-.78,3.55,3.55,0,0,1-.1-.78,2.37,2.37,0,0,1,.22-1,2.54,2.54,0,0,1,.58-.82,2.59,2.59,0,0,1,.83-.54,2.54,2.54,0,0,1,1-.2,3,3,0,0,1,2.29,1.07l-.54,1.12a3.93,3.93,0,0,0-.85-.32,3.6,3.6,0,0,0-.9-.12,2.19,2.19,0,0,0-1,.2.68.68,0,0,0-.39.65.83.83,0,0,0,.2.53,1.91,1.91,0,0,0,.51.42,3.52,3.52,0,0,0,.63.27,2,2,0,0,0,.59.1,7.26,7.26,0,0,0,1.09-.11c.44-.07,1-.17,1.6-.31l-.22,1.83c-1.36.31-2.55.54-3.58.68a18.51,18.51,0,0,1-2.61.22h-.71a1.33,1.33,0,0,1-.28,0c-.09,0-.13-.06-.13-.09Z"/><path class="cls-3" d="M199.23,35.22h-1.84V33.9a3.65,3.65,0,0,1,.16-1.24,1.75,1.75,0,0,1,.49-.81,2.63,2.63,0,0,1,.87-.51l.25.65a1.41,1.41,0,0,0-1.06,1.39h1.13Z"/><path class="cls-3" d="M206,35.71a7.53,7.53,0,0,1-3.88-.79,2.44,2.44,0,0,1-1.28-2.19,3.78,3.78,0,0,1,.18-1.11,9.94,9.94,0,0,1,.5-1.26l1.34.4a5.92,5.92,0,0,0-.25.66,2.25,2.25,0,0,0-.11.68,1,1,0,0,0,.41.88,2.53,2.53,0,0,0,1,.45,8,8,0,0,0,1.48.18l1.63,0a13.73,13.73,0,0,0,1.73-.11,17.19,17.19,0,0,0,1.79-.29,7.38,7.38,0,0,0,1.39-.44c.38-.16.56-.33.56-.49a1,1,0,0,0-.22-.5c-.15-.22-.38-.53-.68-.93l1.16-1.74a4.39,4.39,0,0,1,.86,1.3A3.67,3.67,0,0,1,214,32a2.63,2.63,0,0,1-.41,1.48,3.51,3.51,0,0,1-1.07,1,5.89,5.89,0,0,1-1.53.66,12.82,12.82,0,0,1-1.74.37c-.59.08-1.17.14-1.74.16S206.46,35.71,206,35.71ZM205,29.13l.9-1.22,1.18.77.66-.92,1.39.92-.92,1.23L207,29.13l-.61.93Z"/><path class="cls-3" d="M217.48,35l-1.85.48V25.07l1.85-.72Z"/><path class="cls-3" d="M225.24,32.37a3.33,3.33,0,0,1-.27,1.4,2.63,2.63,0,0,1-.74,1,3,3,0,0,1-1.09.56,4.71,4.71,0,0,1-1.31.18,4.55,4.55,0,0,1-1.74-.3,3,3,0,0,1-1.17-.87l.87-1.57a2.6,2.6,0,0,0,1.75.63c.22,0,.46,0,.73,0a4.62,4.62,0,0,0,.77-.1,1.82,1.82,0,0,0,.61-.29.68.68,0,0,0,.26-.56,1.23,1.23,0,0,0-.33-.74,5.33,5.33,0,0,0-.78-.8c-.3-.25-.6-.48-.91-.69a8.05,8.05,0,0,0-.73-.47l.81-2C224.15,29,225.24,30.6,225.24,32.37Z"/><path class="cls-3" d="M228.38,34.92a2.21,2.21,0,0,1-.89-.82,3.49,3.49,0,0,1-.43-1.24,10.92,10.92,0,0,1-.14-1.58c0-.26,0-.64,0-1.13s0-1,0-1.61,0-1.17,0-1.78,0-1.17,0-1.69l1.77-.72V31.5a2,2,0,0,0,.32,1.22,1.28,1.28,0,0,0,1.05.41v2.09A3.23,3.23,0,0,1,228.38,34.92Z"/><path class="cls-3" d="M236.06,35.22a1.36,1.36,0,0,0-.83.22,1,1,0,0,0-.4.5.77.77,0,0,0,.06.59,1,1,0,0,0,.52.48l-.61,2a6.75,6.75,0,0,1-2.37-1.53,4.66,4.66,0,0,1-1.16-2.21H229.9a1.33,1.33,0,0,1-.28,0c-.09,0-.13-.06-.13-.09V33.27c0-.05,0-.08.13-.11a1.33,1.33,0,0,1,.28,0h1.21a6.7,6.7,0,0,1,.29-1.58,8.37,8.37,0,0,1,.53-1.33,3.61,3.61,0,0,1,.64-.92.9.9,0,0,1,.58-.35.82.82,0,0,1,.59.37,4,4,0,0,1,.53.89,5.67,5.67,0,0,1,.38,1.07,3.56,3.56,0,0,1,.15.93,3.1,3.1,0,0,1-.18,1,3.55,3.55,0,0,1-.45.94,2.75,2.75,0,0,1-.64.71,1.56,1.56,0,0,1-.76.33,2.14,2.14,0,0,0,1,1.1,3,3,0,0,1,.16-1.19,3.61,3.61,0,0,1,.54-1,2.68,2.68,0,0,1,.8-.71,1.93,1.93,0,0,1,1-.26h.58v2.09Zm-3-4.3c-.08,0-.15.06-.22.18a2.83,2.83,0,0,0-.21.48,7,7,0,0,0-.17.69,4.32,4.32,0,0,0-.07.82c.14,0,.29-.06.45-.1a2.05,2.05,0,0,0,.42-.15.93.93,0,0,0,.31-.23.48.48,0,0,0,.12-.33,1.54,1.54,0,0,0-.06-.38,3,3,0,0,0-.17-.45,1.44,1.44,0,0,0-.21-.37C233.15,31,233.09,30.92,233,30.92Z"/><path class="cls-3" d="M240.77,35.22a1.61,1.61,0,0,1-1.66-.94,2.36,2.36,0,0,1-2.11.94h-.16a1.27,1.27,0,0,1-.28,0c-.09,0-.14-.06-.14-.09V33.27c0-.05.05-.08.14-.11a1.27,1.27,0,0,1,.28,0h.09c.9,0,1.35-.31,1.35-.92v-.73l1.48-.47v.45c0,1.11.36,1.67,1.09,1.67H241v2.09Zm-.79-6.7L238.9,30l-1.5-1,1.1-1.46Z"/><path class="cls-3" d="M251.16,35.22a2.26,2.26,0,0,1-1-.21,1.55,1.55,0,0,1-.7-.73,2.11,2.11,0,0,1-.74.69,1.94,1.94,0,0,1-.9.23A1.58,1.58,0,0,1,247,35a1.85,1.85,0,0,1-.67-.71,2.11,2.11,0,0,1-1.81.92,1.65,1.65,0,0,1-.8-.21,1.87,1.87,0,0,1-.68-.71,1.81,1.81,0,0,1-1.66.94H241a1.27,1.27,0,0,1-.28,0c-.1,0-.14-.06-.14-.09V33.27c0-.05,0-.08.14-.11a1.27,1.27,0,0,1,.28,0h.46c.51,0,.76-.3.76-.91v-.63l1.29-.45v.4a2,2,0,0,0,.27,1.19,1,1,0,0,0,.77.4c.71,0,1.07-.3,1.07-.91v-.63l1.28-.45v.61a1.7,1.7,0,0,0,.25,1.06,1.27,1.27,0,0,0,1.6.07.83.83,0,0,0,.26-.66v-.63l1.27-.45v.76a4.45,4.45,0,0,0,0,.55.74.74,0,0,0,.11.38.48.48,0,0,0,.28.22,1.66,1.66,0,0,0,.56.08h.22v2.09Zm-7-6L245,28l1.17.78.67-.93,1.37.93-.9,1.22-1.19-.77-.63.92Zm.66-2,.93-1.19,1.26.85-.89,1.19Z"/><path class="cls-3" d="M255.37,35.22a1.6,1.6,0,0,1-1.66-.94,2.39,2.39,0,0,1-2.12.94h-.16a1.27,1.27,0,0,1-.28,0c-.09,0-.13-.06-.13-.09V33.27c0-.05,0-.08.13-.11a1.27,1.27,0,0,1,.28,0h.09c.9,0,1.36-.31,1.36-.92v-.73l1.48-.47v.45c0,1.11.36,1.67,1.08,1.67h1.43v2.09Zm.2,2.28-.91,1.23L253.49,38l-.67.9-1.41-.9,1-1.25,1.17.8.65-.92Z"/><path class="cls-3" d="M260.44,37.5l-.9,1.23L258.37,38l-.67.9-1.39-.9.94-1.25,1.17.8.65-.92Zm-4-4.23c0-.05,0-.08.14-.11a1.27,1.27,0,0,1,.28,0h2.16c.63,0,.94-.15.94-.44a.68.68,0,0,0,0-.19c0-.06-.08-.16-.15-.28a4.2,4.2,0,0,0-.31-.44L259,31.1l1.18-1.66a3.24,3.24,0,0,1,.88,1.25,4.07,4.07,0,0,1,.33,1.61,3.06,3.06,0,0,1-.25,1.29,2.45,2.45,0,0,1-.67.91,2.76,2.76,0,0,1-1,.54,4.13,4.13,0,0,1-1.24.18h-1.3a1.27,1.27,0,0,1-.28,0c-.09,0-.14-.06-.14-.09Zm3.32,6.21-.92,1.21-1.28-.86.88-1.19Z"/><path class="cls-3" d="M263.75,38.58c.39-.19.84-.44,1.36-.74s1-.63,1.52-1a8.14,8.14,0,0,0,1.26-1.1,1.88,1.88,0,0,0,.56-1.09,2.54,2.54,0,0,1-.56.21,3.14,3.14,0,0,1-.67.08,1.67,1.67,0,0,1-2-1.81,4.06,4.06,0,0,1,.13-1,3.44,3.44,0,0,1,.41-1,2.56,2.56,0,0,1,.67-.72,1.57,1.57,0,0,1,.94-.29,1.71,1.71,0,0,1,1.19.42,3.11,3.11,0,0,1,.75,1,4.68,4.68,0,0,1,.39,1.27,7.84,7.84,0,0,1,.11,1.18,4.45,4.45,0,0,1-.37,1.82,5.68,5.68,0,0,1-1,1.49A9.44,9.44,0,0,1,267,38.64c-.55.4-1.13.77-1.74,1.13Zm4.53-5.49a2.16,2.16,0,0,0-.36-.83.75.75,0,0,0-.63-.34.73.73,0,0,0-.52.23.78.78,0,0,0-.24.58.44.44,0,0,0,.27.43,1.32,1.32,0,0,0,.6.13,2.14,2.14,0,0,0,.5-.06A2.23,2.23,0,0,0,268.28,33.09Z"/><path class="cls-4" d="M31.31,73.85a5.82,5.82,0,0,1-.8,1.9A4.12,4.12,0,0,1,29.08,77a4.25,4.25,0,0,1-2.13.49,5.11,5.11,0,0,1-2-.34,3.66,3.66,0,0,1-1.38-.91,3.77,3.77,0,0,1-.81-1.37,5.39,5.39,0,0,1-.26-1.69,5.7,5.7,0,0,1,.2-1.51,5.83,5.83,0,0,1,.6-1.47l1.46.53a5.51,5.51,0,0,0-.39,1,3.38,3.38,0,0,0-.14,1,2.82,2.82,0,0,0,.16,1,2.17,2.17,0,0,0,.52.8,2.51,2.51,0,0,0,.87.53,3.7,3.7,0,0,0,1.28.2A3,3,0,0,0,28.45,75a2.58,2.58,0,0,0,.91-.74,3,3,0,0,0,.49-1A3.74,3.74,0,0,0,30,72.12l-.4-7.91,2-.79v8.15A9.89,9.89,0,0,1,31.31,73.85Z"/><path class="cls-4" d="M34.91,74.92A2.36,2.36,0,0,1,34,74a3.65,3.65,0,0,1-.47-1.36A11.11,11.11,0,0,1,33.33,71c0-.28,0-.7,0-1.23s0-1.12,0-1.75,0-1.28,0-1.94,0-1.27-.05-1.83l1.93-.79V71.2a2.09,2.09,0,0,0,.35,1.33,1.4,1.4,0,0,0,1.14.44v2.28A3.55,3.55,0,0,1,34.91,74.92Z"/><path class="cls-4" d="M36.12,73.12c0-.05.05-.09.14-.11a1.06,1.06,0,0,1,.31,0h.2a1.32,1.32,0,0,0,.88-.3,1,1,0,0,0,.35-.84v-.57l1.38-.47v.61a2.25,2.25,0,0,0,.25,1.15.84.84,0,0,0,.77.42c.92,0,1.38-.41,1.38-1.24V71l1.39-.41v1a1.51,1.51,0,0,0,.39,1.06,1.32,1.32,0,0,0,1,.44.8.8,0,0,0,.63-.22.78.78,0,0,0,.19-.55,1.74,1.74,0,0,0-.2-.78,1.87,1.87,0,0,0-.45-.59l1.36-1.54a4,4,0,0,1,.68,1.24A4.53,4.53,0,0,1,47,72a4.16,4.16,0,0,1-.16,1.16,3.32,3.32,0,0,1-.46,1,2.55,2.55,0,0,1-.76.74,2,2,0,0,1-1,.29A3,3,0,0,1,43.24,75a1.87,1.87,0,0,1-.86-.83,1.82,1.82,0,0,1-.74.79,2.24,2.24,0,0,1-1,.31A2.44,2.44,0,0,1,39.51,75a1.89,1.89,0,0,1-.8-.76,1.9,1.9,0,0,1-.94.78,3.29,3.29,0,0,1-1.2.24,1.55,1.55,0,0,1-.31,0c-.09,0-.14-.06-.14-.1Z"/><path class="cls-4" d="M50.41,71.08a7.34,7.34,0,0,1,.82,1.41,4.14,4.14,0,0,1,.3,1.66A3.78,3.78,0,0,1,51.07,76a7.19,7.19,0,0,1-1.2,1.64A11.45,11.45,0,0,1,48.22,79c-.61.44-1.22.83-1.83,1.19L44.72,78.9c.43-.21.94-.48,1.52-.82A17.36,17.36,0,0,0,47.91,77a9.73,9.73,0,0,0,1.35-1.25,1.87,1.87,0,0,0,.56-1.21,1.71,1.71,0,0,0-.3-.88c-.2-.33-.41-.63-.62-.91Z"/><path class="cls-4" d="M55.24,75l-2,.53V64.21l2-.79Z"/><path class="cls-5" d="M203.51,75.61a2.45,2.45,0,0,1-1-.9,3.85,3.85,0,0,1-.47-1.35,14.52,14.52,0,0,1-.15-1.71c0-.29,0-.7,0-1.24s0-1.12,0-1.75,0-1.27,0-1.93,0-1.27-.05-1.84l1.92-.78v7.78a2.06,2.06,0,0,0,.36,1.32,1.33,1.33,0,0,0,1.13.44v2.28A3.71,3.71,0,0,1,203.51,75.61Z"/><path class="cls-5" d="M213.27,75.93a3,3,0,0,1-1-.18,2.3,2.3,0,0,1-.85-.54c-.05.18-.1.35-.15.5a1.13,1.13,0,0,1-.19.38.81.81,0,0,1-.33.24,1.34,1.34,0,0,1-.55.09,3.22,3.22,0,0,1-.72-.09,5,5,0,0,1-.79-.28,6.72,6.72,0,0,1-.75-.4,4.16,4.16,0,0,1-.62-.46,3.12,3.12,0,0,1-.91.55,3.4,3.4,0,0,1-1.22.19,1,1,0,0,1-.3,0c-.1,0-.15-.06-.15-.1v-2s.05-.09.15-.12a1.54,1.54,0,0,1,.3,0c.27,0,.5,0,.7,0a1.69,1.69,0,0,0,.56-.12,1.62,1.62,0,0,0,.46-.31,2.12,2.12,0,0,0,.41-.55c.13-.22.26-.44.41-.65a3.67,3.67,0,0,1,.47-.56,2.35,2.35,0,0,1,.56-.39,1.57,1.57,0,0,1,.7-.15,1.22,1.22,0,0,1,.95.48,8.32,8.32,0,0,1,.78,1.06q.26.45.42.69a1.16,1.16,0,0,0,.36.37,1,1,0,0,0,.47.13c.19,0,.44,0,.77,0h.18v2.28Zm-4.78-2.63a1.08,1.08,0,0,1-.08.19.76.76,0,0,0-.09.18,3.13,3.13,0,0,0,.87.5,2.13,2.13,0,0,0,.76.19c.16,0,.24,0,.26-.17a.86.86,0,0,0,0-.38,2.31,2.31,0,0,0-.35-.75.76.76,0,0,0-.63-.37C208.91,72.69,208.68,72.89,208.49,73.3Z"/><path class="cls-5" d="M212.92,73.81s0-.09.14-.12a1.55,1.55,0,0,1,.31,0h.19a1.33,1.33,0,0,0,.89-.29,1.06,1.06,0,0,0,.35-.85v-.57l1.38-.47v.61a2.21,2.21,0,0,0,.25,1.15.84.84,0,0,0,.77.42c.91,0,1.37-.41,1.37-1.23v-.75l1.4-.41v1a1.53,1.53,0,0,0,.39,1.06,1.29,1.29,0,0,0,1,.43.82.82,0,0,0,.64-.21.8.8,0,0,0,.19-.55,1.71,1.71,0,0,0-.2-.78,1.92,1.92,0,0,0-.45-.6l1.36-1.53a3.72,3.72,0,0,1,.67,1.24,4.48,4.48,0,0,1,.23,1.41,4.29,4.29,0,0,1-.16,1.17,3.5,3.5,0,0,1-.46,1,2.4,2.4,0,0,1-.77.75,1.92,1.92,0,0,1-1,.28,2.91,2.91,0,0,1-1.32-.28,1.84,1.84,0,0,1-.86-.84,1.91,1.91,0,0,1-.74.8,2.14,2.14,0,0,1-1,.3,2.47,2.47,0,0,1-1.13-.25,1.89,1.89,0,0,1-.79-.77,1.87,1.87,0,0,1-.94.79,3.49,3.49,0,0,1-1.2.23,1.06,1.06,0,0,1-.31,0c-.1,0-.14-.06-.14-.1Zm4.08-4.6,1-1.33,1.28.84.73-1,1.49,1-1,1.34-1.3-.85-.69,1Zm.73-2.18,1-1.29,1.38.92-1,1.3Z"/><path class="cls-5" d="M236.53,75.64a9.39,9.39,0,0,1-.4,2,4.71,4.71,0,0,1-.88,1.59,3.7,3.7,0,0,1-1.42,1,5.06,5.06,0,0,1-2,.37,5.18,5.18,0,0,1-2-.34,3.76,3.76,0,0,1-1.38-.9,3.58,3.58,0,0,1-.82-1.33,5.21,5.21,0,0,1-.29-1.59,6.87,6.87,0,0,1,.2-1.71,7.1,7.1,0,0,1,.67-1.68l1.47.55a4.55,4.55,0,0,0-.55,1.55,3.21,3.21,0,0,0,.1,1.55,2.42,2.42,0,0,0,.89,1.19,3.12,3.12,0,0,0,1.82.47,3,3,0,0,0,2.26-.8A3.73,3.73,0,0,0,235,75s0-.15,0-.34,0-.44,0-.73,0-.64,0-1,0-.8,0-1.23,0-.7,0-1.24,0-1.12,0-1.75,0-1.27-.05-1.93,0-1.27,0-1.84l1.93-.78v7.78a2.12,2.12,0,0,0,.35,1.32,1.17,1.17,0,0,0,1,.44v2.28A3.32,3.32,0,0,1,236.53,75.64Z"/><path class="cls-5" d="M242.23,75.93a1.76,1.76,0,0,1-1.81-1,2.6,2.6,0,0,1-2.3,1h-.18a1,1,0,0,1-.3,0c-.1,0-.15-.06-.15-.1v-2s0-.09.15-.12a1.54,1.54,0,0,1,.3,0h.1c1,0,1.48-.33,1.48-1v-.78l1.61-.51v.49c0,1.2.39,1.8,1.18,1.8h.11v2.28Zm.19,2.48-1,1.33-1.28-.84-.72,1-1.54-1,1-1.36,1.27.87.71-1Z"/><path class="cls-5" d="M250.52,75.93a3,3,0,0,1-1-.18,2.3,2.3,0,0,1-.85-.54c-.05.18-.1.35-.15.5a1.13,1.13,0,0,1-.19.38.88.88,0,0,1-.33.24,1.34,1.34,0,0,1-.55.09,3.22,3.22,0,0,1-.72-.09,4.65,4.65,0,0,1-.79-.28,7.88,7.88,0,0,1-.76-.4,5.55,5.55,0,0,1-.62-.46,2.94,2.94,0,0,1-.9.55,3.44,3.44,0,0,1-1.22.19,1,1,0,0,1-.3,0c-.1,0-.15-.06-.15-.1v-2s.05-.09.15-.12a1.54,1.54,0,0,1,.3,0c.27,0,.5,0,.7,0a1.69,1.69,0,0,0,.56-.12,1.77,1.77,0,0,0,.46-.31,2.11,2.11,0,0,0,.4-.55c.14-.22.27-.44.42-.65a3.67,3.67,0,0,1,.47-.56,2.35,2.35,0,0,1,.56-.39,1.54,1.54,0,0,1,.7-.15,1.22,1.22,0,0,1,.95.48,8.32,8.32,0,0,1,.78,1.06q.26.45.42.69a1.16,1.16,0,0,0,.36.37,1,1,0,0,0,.47.13c.19,0,.44,0,.77,0h.18v2.28Zm-4.78-2.63a1.08,1.08,0,0,1-.08.19.76.76,0,0,0-.09.18,3.13,3.13,0,0,0,.87.5,2.13,2.13,0,0,0,.76.19c.15,0,.24,0,.26-.17a.86.86,0,0,0,0-.38,2.31,2.31,0,0,0-.35-.75.76.76,0,0,0-.63-.37C246.16,72.69,245.93,72.89,245.74,73.3Z"/><path class="cls-5" d="M253.41,78.41l-1,1.33-1.27-.84-.73,1-1.53-1,1-1.36,1.27.87.71-1Zm-3.25-4.6s.05-.09.15-.12a1.55,1.55,0,0,1,.31,0h1.29c.67,0,1-.15,1-.47a.51.51,0,0,0,0-.2,1.2,1.2,0,0,0-.15-.31,5.08,5.08,0,0,0-.34-.48c-.14-.19-.33-.44-.57-.74l1.28-1.8A3.36,3.36,0,0,1,254,71a4.59,4.59,0,0,1,.35,1.75,3.36,3.36,0,0,1-.27,1.4,2.82,2.82,0,0,1-.72,1,3.19,3.19,0,0,1-1.09.59,4.61,4.61,0,0,1-1.36.19h-.33a1.06,1.06,0,0,1-.31,0c-.1,0-.15-.06-.15-.1Z"/><path class="cls-5" d="M258.16,75.68l-2,.53V64.89l2-.78Z"/></svg>