<svg id="Layer_1" data-name="Layer 1" xmlns="http://www.w3.org/2000/svg" viewBox="0 0 20.28 20.28"><defs><style>.cls-1{fill:#f48120;}.cls-2{fill:#fff;}</style></defs><circle class="cls-1" cx="10.14" cy="10.14" r="10.14"/><path class="cls-2" d="M10.14,5.73c1.44,0,1.61,0,2.18,0a3,3,0,0,1,1,.18,1.72,1.72,0,0,1,.62.41,1.74,1.74,0,0,1,.4.62,3,3,0,0,1,.18,1c0,.56,0,.73,0,2.17s0,1.61,0,2.18a3,3,0,0,1-.18,1,1.75,1.75,0,0,1-1,1,3,3,0,0,1-1,.18c-.57,0-.74,0-2.18,0s-1.61,0-2.17,0a3,3,0,0,1-1-.18,1.74,1.74,0,0,1-.62-.4,1.72,1.72,0,0,1-.41-.62,3,3,0,0,1-.18-1c0-.57,0-.74,0-2.18s0-1.61,0-2.17a3,3,0,0,1,.18-1,1.86,1.86,0,0,1,1-1,3,3,0,0,1,1-.18c.56,0,.73,0,2.17,0m0-1c-1.46,0-1.64,0-2.22,0A4.23,4.23,0,0,0,6.61,5,2.76,2.76,0,0,0,5,6.61a4.23,4.23,0,0,0-.25,1.31c0,.58,0,.76,0,2.22s0,1.65,0,2.22A4.16,4.16,0,0,0,5,13.67a2.69,2.69,0,0,0,.62.95,2.56,2.56,0,0,0,1,.62,3.71,3.71,0,0,0,1.31.25c.58,0,.76,0,2.22,0s1.65,0,2.22,0a3.67,3.67,0,0,0,1.31-.25,2.76,2.76,0,0,0,1.57-1.57,3.67,3.67,0,0,0,.25-1.31c0-.57,0-.76,0-2.22s0-1.64,0-2.22a3.71,3.71,0,0,0-.25-1.31,2.56,2.56,0,0,0-.62-1A2.69,2.69,0,0,0,13.67,5a4.16,4.16,0,0,0-1.31-.25c-.57,0-.76,0-2.22,0Z"/><path class="cls-2" d="M10.14,7.38a2.77,2.77,0,1,0,2.77,2.76A2.75,2.75,0,0,0,10.14,7.38Zm0,4.56a1.8,1.8,0,1,1,1.8-1.8A1.8,1.8,0,0,1,10.14,11.94Z"/><circle class="cls-2" cx="13.02" cy="7.27" r="0.65"/></svg>