<svg id="Layer_1" data-name="Layer 1" xmlns="http://www.w3.org/2000/svg" viewBox="0 0 130.57 128.61"><defs><style>.cls-1{fill:#005879;}.cls-1,.cls-2{fill-rule:evenodd;}.cls-2{fill:#f48120;}.cls-3{fill:#231f20;}</style></defs><path class="cls-1" d="M52.05,10.29c24.8,29.25-21.9,47.27-42.86,43.28C-18,47.23,20.73-26.64,52.05,10.29"/><path class="cls-2" d="M72.77,31.45c0,14.18,3.35,23,12.36,22.49C192.85,47.88,72.77-8.71,72.77,31.45"/><path d="M0,84.43a6.63,6.63,0,0,1,.67-3c.45-.89,1-1.78,1.5-2.68a1.74,1.74,0,0,1-.5-.39l1.38-2.63C6.53,78.42,8.28,81,8.28,83.4A6.29,6.29,0,0,1,8,85.3a4.54,4.54,0,0,1-.85,1.58A4.19,4.19,0,0,1,5.73,88a4.37,4.37,0,0,1-1.89.39A3.6,3.6,0,0,1,1,87.23,4,4,0,0,1,0,84.43Zm6-1a3,3,0,0,0-.78-2,13.73,13.73,0,0,0-1.71-1.7,15.1,15.1,0,0,0-1,2,5,5,0,0,0-.48,2,1.33,1.33,0,0,0,.62,1.21A2.38,2.38,0,0,0,4,85.26a2.33,2.33,0,0,0,1.38-.48A1.6,1.6,0,0,0,6,83.4Z"/><path d="M11.67,87.64a4.37,4.37,0,0,1-1.54-1.79,7.35,7.35,0,0,1-.64-2.49Q9.37,82,9.37,80.63V67l2.23-1.49,0,16.27a14,14,0,0,0,.07,1.46A3.24,3.24,0,0,0,12,84.46a2.16,2.16,0,0,0,.91.91,3.27,3.27,0,0,0,1.63.34v2.63A5.07,5.07,0,0,1,11.67,87.64Z"/><path d="M28.44,88.34A4.52,4.52,0,0,1,26.71,88a7,7,0,0,1-1.58-1,22.56,22.56,0,0,1-1.79-1.65C22.69,84.73,21.9,84,21,83.08a5.76,5.76,0,0,1-.48,2.49,4.26,4.26,0,0,1-1.32,1.61,5.13,5.13,0,0,1-2,.89,11,11,0,0,1-2.51.27h-.14a2.51,2.51,0,0,1-.55-.07q-.27-.08-.27-.18V86c0-.1.09-.16.27-.2a3.31,3.31,0,0,1,.55-.05q4.83,0,4.83-2.84a3.45,3.45,0,0,0-.6-1.89,12.15,12.15,0,0,0-1.41-1.75,20.1,20.1,0,0,0-1.59-1.51,9.61,9.61,0,0,1-1.19-1.14c0-.85.05-1.49.1-1.9A1.34,1.34,0,0,1,14.9,74a68.66,68.66,0,0,1,7.2-4.33,76.36,76.36,0,0,1,7.16-3.3L28.86,69l-1.56.71-2.2,1c-.81.39-1.64.81-2.5,1.25s-1.7.86-2.49,1.27-1.5.81-2.11,1.18a15.06,15.06,0,0,0-1.39.9q2.78,2.59,4.6,4.53t3.16,3.23a13.13,13.13,0,0,0,2.43,1.94,4.88,4.88,0,0,0,2.46.64h1v2.63Zm-1-22.88q-1.38.65-4.51,2.22t-8.06,4.21L15,70.33q3.66-2.06,6.77-3.71t5.77-3Z"/><path d="M29.43,86c0-.1.09-.16.27-.2a3.31,3.31,0,0,1,.55-.05H31a5.14,5.14,0,0,0,2.22-.41A1.36,1.36,0,0,0,34,84a2.63,2.63,0,0,0-.51-1.44c-.35-.5-.67-1-1-1.36l1.81-2a8.18,8.18,0,0,1,1.32,2.1,6.81,6.81,0,0,1,.49,2.45q0,4.54-5.32,4.55h-.57a2.51,2.51,0,0,1-.55-.07q-.27-.08-.27-.18Z"/><path d="M69.27,88.34A4.47,4.47,0,0,1,67.55,88,6.7,6.7,0,0,1,66,87q-.8-.66-1.77-1.65c-.65-.66-1.44-1.43-2.36-2.31v.18a3.36,3.36,0,0,1-.61,2,5.4,5.4,0,0,1-1.6,1.51,9.93,9.93,0,0,1-2.27,1.07,22.19,22.19,0,0,1-2.64.69,23.92,23.92,0,0,1-2.7.37c-.89.08-1.69.11-2.4.11-1,0-2-.08-3.13-.18a10.88,10.88,0,0,1-3-.67,5.44,5.44,0,0,1-2.24-1.58,4.34,4.34,0,0,1-.86-2.86,5,5,0,0,1,.3-1.79,5.59,5.59,0,0,1,.8-1.51l1.67.49a5.45,5.45,0,0,0-.54,1.28,4.7,4.7,0,0,0-.14,1.07A2.14,2.14,0,0,0,43.25,85a5.06,5.06,0,0,0,1.89.92,10.7,10.7,0,0,0,2.43.35c.88,0,1.67.06,2.38.06s1.26-.07,2-.13,1.49-.14,2.25-.26,1.49-.27,2.2-.45a10.52,10.52,0,0,0,1.92-.67,4.69,4.69,0,0,0,1.37-.93,1.67,1.67,0,0,0,.51-1.22,3.73,3.73,0,0,0-.67-1.83,12.38,12.38,0,0,0-1.39-1.71c-.52-.53-1-1-1.54-1.47s-.9-.82-1.16-1.1c0-.85.06-1.49.11-1.9s.13-.66.25-.73A62.17,62.17,0,0,1,63,69.62q3.76-2,7.14-3.3L69.73,69l-1.54.71q-1,.47-2.22,1c-.81.39-1.65.81-2.52,1.25s-1.71.86-2.49,1.27-1.49.81-2.11,1.18a10.44,10.44,0,0,0-1.37.9c1.85,1.73,3.37,3.24,4.58,4.53s2.26,2.37,3.16,3.23a13.51,13.51,0,0,0,2.45,1.94,4.78,4.78,0,0,0,2.42.64h1v2.63Z"/><path d="M70.26,86c0-.1.09-.16.27-.2a3.31,3.31,0,0,1,.55-.05h.71A5.14,5.14,0,0,0,74,85.3a1.35,1.35,0,0,0,.84-1.3,2.65,2.65,0,0,0-.52-1.44c-.34-.5-.67-1-1-1.36l1.81-2a8.18,8.18,0,0,1,1.32,2.1,6.81,6.81,0,0,1,.5,2.45q0,4.54-5.33,4.55h-.57a2.51,2.51,0,0,1-.55-.07q-.27-.08-.27-.18Z"/><path d="M111.46,88.35a3.79,3.79,0,0,1-2.08-.48,2.5,2.5,0,0,1-1-1.33A2.88,2.88,0,0,1,107,88a4.44,4.44,0,0,1-1.9.41,4.3,4.3,0,0,1-2-.46,3.38,3.38,0,0,1-1.44-1.39,3,3,0,0,1-1.37,1.37,4.28,4.28,0,0,1-2,.48,4.93,4.93,0,0,1-1-.11,3.15,3.15,0,0,1-1-.42,9,9,0,0,1-.47,3.55,8.93,8.93,0,0,1-1.76,3,8.67,8.67,0,0,1-2.91,2.14,9.52,9.52,0,0,1-4,.8,7.87,7.87,0,0,1-4.5-1.18,6.56,6.56,0,0,1-2.46-3,8.09,8.09,0,0,1-.5-4,11.3,11.3,0,0,1,1.42-4.3l1.7.78a14.27,14.27,0,0,0-.74,2.43,7.88,7.88,0,0,0-.18,2.22,4.38,4.38,0,0,0,.94,2.54,5,5,0,0,0,2,1.49,6.71,6.71,0,0,0,2.63.46,7,7,0,0,0,2.7-.55,6.51,6.51,0,0,0,2.24-1.54,5.2,5.2,0,0,0,1.28-2.5A7.5,7.5,0,0,0,93.63,87a9.14,9.14,0,0,0-1.42-3.14l2.06-1.49a11.28,11.28,0,0,0,1.6,2.38,3.09,3.09,0,0,0,2.2,1h.43a2.17,2.17,0,0,0,1.72-.64,3.83,3.83,0,0,0,.55-2.42v-.28l1.81-.68a12.12,12.12,0,0,0,.09,1.48,4.22,4.22,0,0,0,.36,1.29,2.34,2.34,0,0,0,.74.93,2.18,2.18,0,0,0,1.3.35,2.56,2.56,0,0,0,1.28-.28,2,2,0,0,0,.76-.77,3.36,3.36,0,0,0,.37-1.08,7.24,7.24,0,0,0,.11-1.24l1.67-.64a15.79,15.79,0,0,0,.07,1.61,3.52,3.52,0,0,0,.34,1.26,1.77,1.77,0,0,0,.8.82,3.08,3.08,0,0,0,1.45.29h.29v2.62Z"/><path d="M111.39,86c0-.09.09-.16.27-.19a2.45,2.45,0,0,1,.55,0h2.3a12.6,12.6,0,0,0,3-.31,14.12,14.12,0,0,0,2.38-.78c.73-.32,1.45-.67,2.15-1.06a24.82,24.82,0,0,1,2.25-1.12l-2.16-.93-1.57-.65c-.42-.18-.78-.32-1.06-.41a2.14,2.14,0,0,0-.68-.14,3.07,3.07,0,0,0-1.24.3,3.68,3.68,0,0,0-1.28,1l-1.6-.71a6.94,6.94,0,0,1,1.94-2.47,3.43,3.43,0,0,1,1.93-.8,5.47,5.47,0,0,1,2.45.66c.88.44,1.89.88,3,1.33.52.24,1,.43,1.42.59a10.09,10.09,0,0,0,1.3.37,9.87,9.87,0,0,0,1.42.21c.51.05,1.12.08,1.83.08l-.6,2.55a12.77,12.77,0,0,0-1.3.06q-.59,0-1.08.12a7.18,7.18,0,0,0-2.74,1c-.85.53-1.74,1.06-2.68,1.6a21.6,21.6,0,0,1-3.09,1.48,11,11,0,0,1-4,.65h-2.3a2,2,0,0,1-.55-.07c-.18,0-.27-.1-.27-.17Z"/><rect x="69.05" y="91.01" width="2.34" height="2.34" transform="translate(85.74 -22.66) rotate(45)"/><rect x="71.96" y="91.01" width="2.34" height="2.34" transform="translate(86.6 -24.71) rotate(45)"/><rect x="28.26" y="75.73" width="2.34" height="2.34" transform="translate(63 1.71) rotate(45)"/><path d="M85.51,101.31l-5.65,1.58-.21-1,5.62-1.69Z"/><path class="cls-3" d="M8,115.09a4.15,4.15,0,0,1-1.53-.26,2.91,2.91,0,0,1-1.07-.71,3.16,3.16,0,0,1-.62-1.07,4,4,0,0,1-.2-1.29,4.85,4.85,0,0,1,.15-1.19,4.29,4.29,0,0,1,.47-1.13l1.13.4a4.15,4.15,0,0,0-.31.79,2.85,2.85,0,0,0-.11.76,2.28,2.28,0,0,0,.13.76,1.58,1.58,0,0,0,.4.61,1.75,1.75,0,0,0,.68.4,2.87,2.87,0,0,0,1,.15,3.39,3.39,0,0,0,1.1-.17,2.29,2.29,0,0,0,.8-.45,1.79,1.79,0,0,0,.48-.67,2.32,2.32,0,0,0,.16-.84,3.42,3.42,0,0,0-.66-1.92l1.28-1.05a5.81,5.81,0,0,1,.68,1.43,4.73,4.73,0,0,1,.22,1.43,4.19,4.19,0,0,1-.29,1.55A3.68,3.68,0,0,1,11,113.9a3.85,3.85,0,0,1-1.31.87A4.54,4.54,0,0,1,8,115.09Zm1-7.61-.91,1.22-1.27-.85.93-1.24Z"/><path class="cls-3" d="M13.8,111.9a1.92,1.92,0,0,1-.75-.69,3.25,3.25,0,0,1-.36-1,9.05,9.05,0,0,1-.11-1.33c0-.22,0-.54,0-1s0-.87,0-1.36,0-1,0-1.5,0-1,0-1.42l1.49-.61v6a1.61,1.61,0,0,0,.27,1,1.08,1.08,0,0,0,.89.35v1.76A2.77,2.77,0,0,1,13.8,111.9Z"/><path class="cls-3" d="M21.36,112.15a2.39,2.39,0,0,1-.79-.14,1.7,1.7,0,0,1-.66-.42c0,.14-.08.27-.11.39a.9.9,0,0,1-.16.29.53.53,0,0,1-.25.19,1,1,0,0,1-.42.07,2.39,2.39,0,0,1-.57-.07,3.63,3.63,0,0,1-.6-.22,4.14,4.14,0,0,1-.59-.31,2.73,2.73,0,0,1-.48-.36,2.1,2.1,0,0,1-.7.43,2.65,2.65,0,0,1-.94.15,1,1,0,0,1-.24,0c-.08,0-.11,0-.11-.07v-1.54s0-.07.11-.09a1,1,0,0,1,.24,0l.54,0a1.23,1.23,0,0,0,.43-.1,1.16,1.16,0,0,0,.36-.23,2,2,0,0,0,.31-.43c.1-.17.21-.34.32-.5a3.13,3.13,0,0,1,.36-.44,2.14,2.14,0,0,1,.44-.3,1.19,1.19,0,0,1,.54-.11,1,1,0,0,1,.74.36,9.15,9.15,0,0,1,.6.82,4.6,4.6,0,0,0,.33.54,1,1,0,0,0,.28.29.8.8,0,0,0,.36.1l.6,0h.13v1.76Zm-3.7-2-.07.15a.61.61,0,0,0-.07.14,2.68,2.68,0,0,0,.68.39,1.69,1.69,0,0,0,.58.15c.13,0,.19,0,.21-.13a.63.63,0,0,0,0-.3,1.93,1.93,0,0,0-.28-.58.58.58,0,0,0-.48-.29C18,109.64,17.8,109.8,17.66,110.11Z"/><path class="cls-3" d="M24.75,112.15a1.35,1.35,0,0,1-1.4-.79,2,2,0,0,1-1.78.79h-.14a.85.85,0,0,1-.23,0c-.08,0-.12,0-.12-.07v-1.54s0-.07.12-.09a.85.85,0,0,1,.23,0h.08q1.14,0,1.14-.78V109l1.25-.39V109c0,.93.3,1.4.91,1.4h.09v1.76ZM21.42,107l.76-1,1,.66.56-.78,1.17.78-.77,1-1-.65-.52.77Z"/><path class="cls-3" d="M24.55,110.51s0-.07.12-.09a.85.85,0,0,1,.23,0h1.34l.79,0a3.4,3.4,0,0,0,.67-.1,6.76,6.76,0,0,0,.88-.27l1.44-.54-1.34-.37-.7-.19a.75.75,0,0,0-.56,0,1.31,1.31,0,0,0-.43.36l-1-.72a4.09,4.09,0,0,1,.93-1.19,1.25,1.25,0,0,1,1.06-.27,9.58,9.58,0,0,1,1,.21l1.06.29,1.13.3a12.55,12.55,0,0,0,1.25.25l.6,0c.19,0-.61,0-.42,0l.53,1.73-.64,0A3,3,0,0,0,32,110a3.32,3.32,0,0,0-.49.14,4.92,4.92,0,0,0-.57.28l-1.29.76a8.17,8.17,0,0,1-1,.54,5.68,5.68,0,0,1-1.08.32,8.88,8.88,0,0,1-1.51.1H24.9a.85.85,0,0,1-.23,0c-.08,0-.12,0-.12-.07Zm4.55-5.62-.91,1.22-1.26-.85.93-1.24Z"/><path class="cls-3" d="M35.23,111.9a1.83,1.83,0,0,1-.74-.69,3,3,0,0,1-.37-1,10.67,10.67,0,0,1-.11-1.33c0-.22,0-.54,0-1s0-.87,0-1.36,0-1,0-1.5,0-1,0-1.42l1.49-.61v6a1.55,1.55,0,0,0,.28,1,1,1,0,0,0,.88.35v1.76A2.77,2.77,0,0,1,35.23,111.9Z"/><path class="cls-3" d="M36.17,110.51s0-.07.11-.09a1,1,0,0,1,.24,0h.15a1.08,1.08,0,0,0,.69-.23.81.81,0,0,0,.27-.66v-.44l1.07-.36v.47a1.76,1.76,0,0,0,.19.89.65.65,0,0,0,.6.33c.71,0,1.06-.32,1.06-1v-.58l1.08-.32v.76a1.13,1.13,0,0,0,.31.82,1,1,0,0,0,.77.34.64.64,0,0,0,.5-.17.65.65,0,0,0,.14-.43,1.33,1.33,0,0,0-.15-.6,1.43,1.43,0,0,0-.35-.46l1-1.19a3.22,3.22,0,0,1,.53,1,3.72,3.72,0,0,1,.17,1.1,3.48,3.48,0,0,1-.12.9,2.7,2.7,0,0,1-.36.81,1.92,1.92,0,0,1-.59.58,1.59,1.59,0,0,1-.82.22,2.35,2.35,0,0,1-1-.22,1.51,1.51,0,0,1-.67-.65,1.48,1.48,0,0,1-.57.62,1.79,1.79,0,0,1-.78.23,1.81,1.81,0,0,1-.88-.2,1.5,1.5,0,0,1-.61-.59,1.46,1.46,0,0,1-.73.61,2.64,2.64,0,0,1-.93.18,1,1,0,0,1-.24,0c-.07,0-.11,0-.11-.07Z"/><path class="cls-3" d="M58.93,112.15a1.56,1.56,0,0,1-1.56-.88,3.13,3.13,0,0,1-1.87,1,16,16,0,0,1-3.6.33,6.42,6.42,0,0,1-3.28-.66,2.08,2.08,0,0,1-1.08-1.85,3.23,3.23,0,0,1,.15-.94,9.45,9.45,0,0,1,.43-1.06l1.13.34c-.08.18-.16.37-.22.55a1.88,1.88,0,0,0-.09.57.92.92,0,0,0,.32.74,2.11,2.11,0,0,0,.84.38,5.71,5.71,0,0,0,1.18.16l1.33,0,1.28,0a9.72,9.72,0,0,0,1.38-.15,3.81,3.81,0,0,0,1.11-.36.77.77,0,0,0,.45-.69v-.39l1.24-.4c0,.33,0,.6,0,.81a1.08,1.08,0,0,0,.16.47.63.63,0,0,0,.34.23,2.38,2.38,0,0,0,.59.06h0v1.76ZM51,107l.76-1,1,.65.56-.77,1.17.77-.77,1-1-.66-.52.78Z"/><path class="cls-3" d="M64.1,112.15A2.33,2.33,0,0,1,63,111.9a1.91,1.91,0,0,1-.79-.78,3.6,3.6,0,0,1-1.23.77,4.24,4.24,0,0,1-1.53.26h-.22a.93.93,0,0,1-.24,0c-.08,0-.11,0-.11-.07v-1.54s0-.07.11-.09a.93.93,0,0,1,.24,0h.24c1.08,0,1.75-.2,2-.58a1.18,1.18,0,0,0-.46-.37,1.76,1.76,0,0,0-.76-.13,2,2,0,0,1,.2-.92,1.73,1.73,0,0,1,.52-.64,2.24,2.24,0,0,1,.76-.37,3.91,3.91,0,0,1,.91-.11,2.46,2.46,0,0,1,.6.07,1.55,1.55,0,0,1,.53.21,1.16,1.16,0,0,1,.36.37,1.08,1.08,0,0,1,.14.56,1.14,1.14,0,0,1-.09.43,2.6,2.6,0,0,1-.25.46,3.79,3.79,0,0,1-.8.8c.1.15.48.22,1.14.22H65v1.76Z"/><path class="cls-3" d="M68.29,112.15a1.35,1.35,0,0,1-1.4-.79,2,2,0,0,1-1.78.79H65a1,1,0,0,1-.24,0c-.07,0-.11,0-.11-.07v-1.54s0-.07.11-.09a1,1,0,0,1,.24,0H65c.77,0,1.15-.26,1.15-.78V109l1.24-.39V109c0,.93.31,1.4.92,1.4h.09v1.76Zm-.67-5.64-.92,1.21-1.26-.85.93-1.23Z"/><path class="cls-3" d="M68.09,110.51s0-.07.11-.09a1,1,0,0,1,.24,0h.39c.43,0,.64-.26.64-.76v-.58l1.17-.34v.34a4,4,0,0,0,0,.67,1.21,1.21,0,0,0,.14.42.47.47,0,0,0,.23.19,1,1,0,0,0,.36.06h.09l1-1.11a13.75,13.75,0,0,1,1.08-1.08,5.69,5.69,0,0,1,1.14-.83,2.26,2.26,0,0,1,1.14-.33,1.86,1.86,0,0,1,.75.14,1.71,1.71,0,0,1,.6.38,1.79,1.79,0,0,1,.38.56,1.62,1.62,0,0,1,.14.7,2.64,2.64,0,0,1-.44,1.54,3.52,3.52,0,0,1-1.1,1,4.61,4.61,0,0,1-1.41.58,6.76,6.76,0,0,1-1.42.17H71.44a1.78,1.78,0,0,1-.78-.18,1,1,0,0,1-.53-.61,1.59,1.59,0,0,1-1.42.79h-.27a1,1,0,0,1-.24,0c-.07,0-.11,0-.11-.07Zm7.35-1.81a1.91,1.91,0,0,0-1.21.47,14.82,14.82,0,0,0-1.36,1.22h.42l.44,0,.65-.05a6.52,6.52,0,0,0,.73-.12,4.32,4.32,0,0,0,.69-.19,1.58,1.58,0,0,0,.51-.29.52.52,0,0,0,.19-.41.39.39,0,0,0-.11-.3.75.75,0,0,0-.28-.18,1.4,1.4,0,0,0-.35-.1Z"/><path class="cls-3" d="M81.51,108.93a6,6,0,0,1,.63,1.08,3.16,3.16,0,0,1,.24,1.29,3,3,0,0,1-.36,1.41,5.82,5.82,0,0,1-.93,1.27,9.85,9.85,0,0,1-1.28,1.1,14.88,14.88,0,0,1-1.42.92l-1.29-1c.33-.16.72-.37,1.18-.64a12.57,12.57,0,0,0,1.29-.86,7.68,7.68,0,0,0,1.05-1,1.45,1.45,0,0,0,.43-.94,1.37,1.37,0,0,0-.23-.68c-.16-.25-.32-.49-.48-.7Z"/><path class="cls-3" d="M88.92,109.75a2.7,2.7,0,0,1-.23,1.18,2.19,2.19,0,0,1-.62.81,2.59,2.59,0,0,1-.92.47,4,4,0,0,1-1.1.15,3.83,3.83,0,0,1-1.47-.25,2.72,2.72,0,0,1-1-.73l.74-1.33a2.14,2.14,0,0,0,1.47.53h.62a3.19,3.19,0,0,0,.64-.09,1.2,1.2,0,0,0,.52-.25.56.56,0,0,0,.22-.47,1.08,1.08,0,0,0-.28-.62,4.54,4.54,0,0,0-.65-.67c-.26-.21-.51-.41-.77-.59s-.47-.3-.62-.38l.69-1.68Q88.92,107.52,88.92,109.75Z"/><path class="cls-3" d="M104.89,112.15a2.85,2.85,0,0,1-1-.18,4.21,4.21,0,0,1-.89-.47,4.88,4.88,0,0,1-.77-.66,7.33,7.33,0,0,1-.63-.77,1.91,1.91,0,0,1-.32,1,2.58,2.58,0,0,1-.75.68,4.3,4.3,0,0,1-1,.44,7.74,7.74,0,0,1-1.16.25,9,9,0,0,1-1.12.11c-.36,0-.68,0-1,0q-4.43,0-4.42-2.58a4.43,4.43,0,0,1,.57-1.92l1.12.33a3.1,3.1,0,0,0-.33,1,.91.91,0,0,0,.2.62,1.69,1.69,0,0,0,.5.41,2.66,2.66,0,0,0,.69.23,6.93,6.93,0,0,0,.78.1c.26,0,.5,0,.72,0H97.3l.83-.06a6.87,6.87,0,0,0,.88-.12,6.63,6.63,0,0,0,.81-.23,1.79,1.79,0,0,0,.58-.32.71.71,0,0,0,.25-.47.78.78,0,0,0-.15-.38l-.36-.51c-.15-.18-.32-.36-.5-.55l-.52-.54-.45-.46a1.39,1.39,0,0,1-.26-.3,3.18,3.18,0,0,1,0-.36,4,4,0,0,1,.09-.48c0-.16.09-.31.14-.45a.45.45,0,0,1,.19-.27,24.57,24.57,0,0,1,2.73-1.16c1.11-.41,2.44-.86,4-1.33l-.2,1.69c-1,.23-1.89.48-2.81.75s-1.82.59-2.72,1a.22.22,0,0,0-.14.1s0,.1.08.16c.39.3.78.62,1.18,1s.83.77,1.29,1.2c.22.22.44.43.67.63a5.76,5.76,0,0,0,.68.56,3.56,3.56,0,0,0,.75.39,2.21,2.21,0,0,0,.87.16h.7v1.76Zm.35-9.81-2.76.89c-.74.25-1.34.45-1.8.62l-1.09.4c-.25.1-.45.19-.59.26l.17-.83c.51-.24,1.27-.54,2.29-.9s2.31-.81,3.89-1.33Z"/><path class="cls-3" d="M109.24,112.15a1.36,1.36,0,0,1-1.4-.79,2,2,0,0,1-1.78.79h-.13a1,1,0,0,1-.24,0c-.08,0-.11,0-.11-.07v-1.54s0-.07.11-.09a1,1,0,0,1,.24,0H106q1.14,0,1.14-.78V109l1.25-.39V109c0,.93.31,1.4.91,1.4h.1v1.76Zm-.67-5.64-.91,1.21-1.26-.85.93-1.23Z"/><path class="cls-3" d="M111.56,114.07l-.76,1-1-.65-.57.76-1.18-.76.8-1,1,.67.55-.78Zm-2.51-3.56s0-.07.11-.09a.93.93,0,0,1,.24,0h1c.52,0,.78-.12.78-.37a.5.5,0,0,0,0-.16,1.19,1.19,0,0,0-.13-.23,3.45,3.45,0,0,0-.25-.38c-.12-.14-.26-.33-.45-.57l1-1.4a2.7,2.7,0,0,1,.74,1,3.55,3.55,0,0,1,.27,1.36,2.57,2.57,0,0,1-.21,1.08,2,2,0,0,1-.56.77,2.26,2.26,0,0,1-.85.46,3.51,3.51,0,0,1-1,.15h-.25a.93.93,0,0,1-.24,0c-.08,0-.11,0-.11-.07Z"/><path class="cls-3" d="M120.26,112.15a2.54,2.54,0,0,1-1.24-.32,2.38,2.38,0,0,1-.89-.89,2.37,2.37,0,0,1-2.45,1.41,2.61,2.61,0,0,1-2.14-.81l.54-1.4a2,2,0,0,0,.78.35,4.17,4.17,0,0,0,1.06.14,3.22,3.22,0,0,0,.63,0,2.13,2.13,0,0,0,.54-.14,1.2,1.2,0,0,0,.38-.25.49.49,0,0,0,.14-.37.37.37,0,0,0,0-.13s0-.18-.12-.38-.17-.52-.32-.93-.35-1-.6-1.74l1.22-1.09.75,2.46a12.25,12.25,0,0,0,.52,1.47,1.7,1.7,0,0,0,.5.72,1.24,1.24,0,0,0,.71.19h.32v1.76Z"/><path class="cls-3" d="M120.22,110.51s0-.07.11-.09a1,1,0,0,1,.24,0h1c.52,0,.78-.12.78-.37a.5.5,0,0,0,0-.16,1.76,1.76,0,0,0-.12-.23c-.07-.11-.15-.23-.26-.38s-.26-.33-.44-.57l1-1.4a2.7,2.7,0,0,1,.74,1,3.55,3.55,0,0,1,.27,1.36,2.57,2.57,0,0,1-.21,1.08,2,2,0,0,1-.56.77,2.29,2.29,0,0,1-.84.46,3.6,3.6,0,0,1-1,.15h-.26a1,1,0,0,1-.24,0c-.08,0-.11,0-.11-.07Zm2.77-5.12-.92,1.22-1.26-.85.93-1.23Z"/><path class="cls-3" d="M127.29,112.06a1.14,1.14,0,0,1-.3-.21,3.69,3.69,0,0,1-.51,1.22,6.19,6.19,0,0,1-.9,1.1,10.39,10.39,0,0,1-1.17,1c-.43.3-.88.58-1.33.85l-1.3-1c.33-.16.72-.37,1.18-.63a14.45,14.45,0,0,0,1.3-.84,6.65,6.65,0,0,0,1.06-1,1.45,1.45,0,0,0,.44-.94.92.92,0,0,0-.09-.38l-.22-.4q-.12-.2-.24-.36l-.2-.28,1.17-1.26c.11.17.22.35.31.52a2.67,2.67,0,0,0,.32.46,1.64,1.64,0,0,0,.36.34.89.89,0,0,0,.47.13v1.76A.73.73,0,0,1,127.29,112.06Z"/><path class="cls-3" d="M127.29,110.51s0-.07.12-.09a.85.85,0,0,1,.23,0h1c.52,0,.77-.12.77-.37a.5.5,0,0,0,0-.16,1.76,1.76,0,0,0-.12-.23,3.75,3.75,0,0,0-.26-.38l-.44-.57,1-1.4a2.7,2.7,0,0,1,.74,1,3.55,3.55,0,0,1,.27,1.36,2.57,2.57,0,0,1-.21,1.08,2.1,2.1,0,0,1-.56.77,2.26,2.26,0,0,1-.85.46,3.51,3.51,0,0,1-1,.15h-.26a.85.85,0,0,1-.23,0c-.08,0-.12,0-.12-.07Zm.34,4,.91-1.22,1.26.86-.92,1.23Z"/><path class="cls-3" d="M52.63,121.46a3.29,3.29,0,0,0-1.26-.18,1.73,1.73,0,0,0-.58.1,2.2,2.2,0,0,0-.56.26,2.06,2.06,0,0,0-.42.35.56.56,0,0,0-.16.38c0,.14.07.22.23.27a2.13,2.13,0,0,0,.57.09l.75,0a3.7,3.7,0,0,1,.75.16,1.25,1.25,0,0,1,.57.38,1,1,0,0,1,.23.73,2.81,2.81,0,0,1-.45,1.58,3.94,3.94,0,0,1-1.16,1.14,5.17,5.17,0,0,1-1.55.69,5.9,5.9,0,0,1-1.63.24,5.32,5.32,0,0,1-1.68-.24,3.21,3.21,0,0,1-1.2-.65,2.73,2.73,0,0,1-.71-1,3.37,3.37,0,0,1-.23-1.24,5,5,0,0,1,.17-1.23,5.91,5.91,0,0,1,.54-1.29l1.21.42a3.94,3.94,0,0,0-.36.83,2.59,2.59,0,0,0-.13.81,1.94,1.94,0,0,0,.14.73,1.54,1.54,0,0,0,.47.59,2.55,2.55,0,0,0,.81.39,4.08,4.08,0,0,0,1.18.15,4.69,4.69,0,0,0,1-.13,6.34,6.34,0,0,0,1.12-.32,4.34,4.34,0,0,0,.89-.44c.24-.17.37-.34.37-.5s-.06-.15-.18-.19a3.32,3.32,0,0,0-.49-.08l-.71-.06c-.27,0-.56,0-.86-.08a1.08,1.08,0,0,1-1-1.17,2.92,2.92,0,0,1,.3-1.3,3.61,3.61,0,0,1,.77-1.08,3.69,3.69,0,0,1,1.09-.74,3.05,3.05,0,0,1,1.23-.28,2.44,2.44,0,0,1,.66.09A2.21,2.21,0,0,1,53,120Z"/><path class="cls-3" d="M55.64,121.54a5.88,5.88,0,0,1,.64,1.08,3.38,3.38,0,0,1,.23,1.29,3.65,3.65,0,0,1-.23,1.23,5.35,5.35,0,0,1-.64,1.26,7.18,7.18,0,0,1-1,1.19,8.12,8.12,0,0,1-1.3,1l-1.28-1c.33-.19.68-.41,1-.67a10.38,10.38,0,0,0,1-.83,4.88,4.88,0,0,0,.76-.92,1.84,1.84,0,0,0,.3-1,1.3,1.3,0,0,0-.24-.69c-.16-.25-.32-.49-.48-.7Zm.63-2-.92,1.22L54.09,120l.93-1.23Z"/><path class="cls-3" d="M59.15,124.51a1.83,1.83,0,0,1-.74-.69,2.9,2.9,0,0,1-.37-1,9,9,0,0,1-.11-1.32q0-.35,0-1c0-.42,0-.87,0-1.36s0-1,0-1.5,0-1,0-1.42l1.49-.61v6a1.67,1.67,0,0,0,.27,1,1.11,1.11,0,0,0,.89.34v1.76A2.77,2.77,0,0,1,59.15,124.51Z"/><path class="cls-3" d="M60.09,123.12s0-.07.11-.09a1,1,0,0,1,.24,0h.15a1,1,0,0,0,.68-.23.78.78,0,0,0,.28-.65v-.45l1.06-.36v.47a1.73,1.73,0,0,0,.2.89.64.64,0,0,0,.59.33c.71,0,1.07-.32,1.07-1v-.58l1.08-.32v.76a1.13,1.13,0,0,0,.31.82,1,1,0,0,0,.77.34.66.66,0,0,0,.5-.17.64.64,0,0,0,.14-.42,1.34,1.34,0,0,0-.15-.61,1.55,1.55,0,0,0-.35-.46l1-1.19a3,3,0,0,1,.52,1,3.43,3.43,0,0,1,.18,1.1,3.48,3.48,0,0,1-.12.9A2.7,2.7,0,0,1,68,124a2,2,0,0,1-.59.58,1.5,1.5,0,0,1-.82.22,2.29,2.29,0,0,1-1-.22,1.43,1.43,0,0,1-.66-.65,1.44,1.44,0,0,1-.58.62,1.71,1.71,0,0,1-.77.23,1.93,1.93,0,0,1-.88-.19,1.47,1.47,0,0,1-.61-.6,1.45,1.45,0,0,1-.73.61,2.64,2.64,0,0,1-.93.18,1,1,0,0,1-.24,0c-.07,0-.11,0-.11-.07Z"/><path class="cls-3" d="M72.32,124.67a1.14,1.14,0,0,1-.3-.21,3.6,3.6,0,0,1-.51,1.22,6.19,6.19,0,0,1-.9,1.1,10.39,10.39,0,0,1-1.17,1c-.43.3-.88.58-1.33.85l-1.3-1c.33-.16.72-.37,1.18-.63a14.45,14.45,0,0,0,1.3-.84,6.65,6.65,0,0,0,1.06-1,1.43,1.43,0,0,0,.44-.94.8.8,0,0,0-.1-.38c-.06-.13-.13-.26-.21-.4s-.16-.25-.24-.36l-.2-.27,1.17-1.27c.11.17.22.35.31.52a2.67,2.67,0,0,0,.32.46,1.64,1.64,0,0,0,.36.34.89.89,0,0,0,.47.13v1.76A.73.73,0,0,1,72.32,124.67Z"/><path class="cls-3" d="M77.86,124.76a1.16,1.16,0,0,0-.7.19.82.82,0,0,0-.33.42.67.67,0,0,0,0,.5.9.9,0,0,0,.45.4l-.52,1.64a5.8,5.8,0,0,1-2-1.28,4,4,0,0,1-1-1.87H72.67a.85.85,0,0,1-.23,0c-.08,0-.12,0-.12-.07v-1.54s0-.07.12-.09a.85.85,0,0,1,.23,0h1a5.22,5.22,0,0,1,.25-1.33,6.53,6.53,0,0,1,.45-1.12,2.87,2.87,0,0,1,.53-.78.78.78,0,0,1,.49-.29.72.72,0,0,1,.5.31,4.37,4.37,0,0,1,.45.75,6.86,6.86,0,0,1,.32.9,3.23,3.23,0,0,1,.12.78,2.67,2.67,0,0,1-.15.88,3,3,0,0,1-.38.79,2.19,2.19,0,0,1-.54.59,1.26,1.26,0,0,1-.64.28,1.85,1.85,0,0,0,.84.93,2.61,2.61,0,0,1,.14-1,3,3,0,0,1,.45-.87,2.41,2.41,0,0,1,.68-.6A1.64,1.64,0,0,1,78,123h.49v1.76Zm-2.55-3.62c-.06,0-.13,0-.19.15a2,2,0,0,0-.17.41,3.61,3.61,0,0,0-.15.57,3.88,3.88,0,0,0-.06.7l.38-.09a1.28,1.28,0,0,0,.36-.13.73.73,0,0,0,.26-.19.39.39,0,0,0,.1-.28,1.68,1.68,0,0,0,0-.32c0-.13-.09-.26-.14-.38a2.84,2.84,0,0,0-.18-.31C75.41,121.18,75.36,121.14,75.31,121.14Z"/><path class="cls-3" d="M78.17,123.12s0-.07.11-.09a1,1,0,0,1,.24,0h.15a1,1,0,0,0,.68-.23.78.78,0,0,0,.28-.65v-.45l1.06-.36v.47a1.73,1.73,0,0,0,.2.89.64.64,0,0,0,.59.33c.71,0,1.07-.32,1.07-1v-.58l1.08-.32v.76a1.13,1.13,0,0,0,.31.82,1,1,0,0,0,.77.34.66.66,0,0,0,.5-.17.64.64,0,0,0,.14-.42,1.34,1.34,0,0,0-.15-.61,1.55,1.55,0,0,0-.35-.46l1.05-1.19a3,3,0,0,1,.52,1,3.43,3.43,0,0,1,.18,1.1,3.48,3.48,0,0,1-.12.9,2.7,2.7,0,0,1-.36.81,2,2,0,0,1-.59.58,1.5,1.5,0,0,1-.82.22,2.29,2.29,0,0,1-1-.22,1.43,1.43,0,0,1-.66-.65,1.44,1.44,0,0,1-.58.62,1.71,1.71,0,0,1-.77.23,1.93,1.93,0,0,1-.88-.19,1.47,1.47,0,0,1-.61-.6,1.45,1.45,0,0,1-.73.61,2.64,2.64,0,0,1-.93.18,1,1,0,0,1-.24,0c-.07,0-.11,0-.11-.07Zm3.16-3.56.76-1,1,.66.57-.78,1.15.78-.76,1-1-.65-.54.77Zm.57-1.69.77-1,1.07.72-.75,1Z"/><path class="cls-3" d="M88.67,127.59c.32-.16.71-.37,1.15-.62s.86-.53,1.28-.82a6.91,6.91,0,0,0,1.05-.92,1.54,1.54,0,0,0,.47-.92,1.5,1.5,0,0,1-.47.17,2.2,2.2,0,0,1-.56.07A1.41,1.41,0,0,1,90,123a3.15,3.15,0,0,1,.11-.85,3,3,0,0,1,.34-.81,2.22,2.22,0,0,1,.57-.61,1.3,1.3,0,0,1,.79-.24,1.42,1.42,0,0,1,1,.35,2.37,2.37,0,0,1,.63.86,3.91,3.91,0,0,1,.33,1.07,6.47,6.47,0,0,1,.09,1,3.65,3.65,0,0,1-.31,1.54,4.9,4.9,0,0,1-.84,1.25,8.59,8.59,0,0,1-1.23,1.07c-.46.33-1,.64-1.47.95ZM92.49,123a1.66,1.66,0,0,0-.31-.7.62.62,0,0,0-.53-.29.58.58,0,0,0-.44.2.66.66,0,0,0-.2.48.38.38,0,0,0,.23.37,1.18,1.18,0,0,0,.5.1,1.51,1.51,0,0,0,.42,0A1.4,1.4,0,0,0,92.49,123Z"/><path class="cls-3" d="M105.35,121.46a3.38,3.38,0,0,0-1.27-.18,1.71,1.71,0,0,0-.57.1,2.05,2.05,0,0,0-.56.26,1.63,1.63,0,0,0-.42.35.56.56,0,0,0-.16.38.27.27,0,0,0,.22.27,2.28,2.28,0,0,0,.58.09l.75,0a3.47,3.47,0,0,1,.74.16,1.23,1.23,0,0,1,.58.38,1.06,1.06,0,0,1,.23.73,2.74,2.74,0,0,1-.46,1.58,3.91,3.91,0,0,1-1.15,1.14,5.28,5.28,0,0,1-1.55.69,6,6,0,0,1-1.63.24,5.43,5.43,0,0,1-1.69-.24,3.16,3.16,0,0,1-1.19-.65,2.62,2.62,0,0,1-.71-1,3.18,3.18,0,0,1-.23-1.24,4.55,4.55,0,0,1,.17-1.23,5.91,5.91,0,0,1,.54-1.29l1.2.42a4.47,4.47,0,0,0-.35.83,2.59,2.59,0,0,0-.13.81,1.76,1.76,0,0,0,.14.73,1.54,1.54,0,0,0,.47.59,2.55,2.55,0,0,0,.81.39,4.08,4.08,0,0,0,1.18.15,4.83,4.83,0,0,0,1-.13,6.6,6.6,0,0,0,1.12-.32,4.61,4.61,0,0,0,.89-.44c.24-.17.36-.34.36-.5s-.06-.15-.17-.19a3.32,3.32,0,0,0-.49-.08l-.71-.06c-.27,0-.56,0-.86-.08a1.16,1.16,0,0,1-.77-.38,1.19,1.19,0,0,1-.25-.79,3,3,0,0,1,.29-1.3,3.83,3.83,0,0,1,.78-1.08,3.69,3.69,0,0,1,1.09-.74,3,3,0,0,1,1.23-.28,2.37,2.37,0,0,1,.65.09,2.15,2.15,0,0,1,.63.26Z"/><path class="cls-3" d="M108.36,121.54a5.8,5.8,0,0,1,.63,1.08,3.19,3.19,0,0,1,.24,1.29,3.65,3.65,0,0,1-.23,1.23,5.35,5.35,0,0,1-.64,1.26,7.26,7.26,0,0,1-1,1.19,7.7,7.7,0,0,1-1.3,1l-1.28-1a10.71,10.71,0,0,0,1-.67,9.44,9.44,0,0,0,1-.83,4.88,4.88,0,0,0,.76-.92,1.82,1.82,0,0,0,.29-1,1.28,1.28,0,0,0-.23-.69c-.16-.25-.32-.49-.48-.7Z"/><path class="cls-3" d="M111.87,124.51a1.92,1.92,0,0,1-.75-.69,2.89,2.89,0,0,1-.36-1,9,9,0,0,1-.12-1.32q0-.35,0-1c0-.42,0-.87,0-1.36s0-1,0-1.5,0-1,0-1.42l1.49-.61v6a1.67,1.67,0,0,0,.27,1,1.11,1.11,0,0,0,.89.34v1.76A2.77,2.77,0,0,1,111.87,124.51Z"/><path class="cls-3" d="M119.43,124.76a2.5,2.5,0,0,1-.8-.14,1.74,1.74,0,0,1-.65-.42c0,.14-.08.27-.11.39a1,1,0,0,1-.16.3.69.69,0,0,1-.25.19,1.17,1.17,0,0,1-.42.06,2.39,2.39,0,0,1-.57-.07,3.22,3.22,0,0,1-.61-.22,4.63,4.63,0,0,1-.58-.31,2.71,2.71,0,0,1-.48-.35,2.25,2.25,0,0,1-.7.42,2.71,2.71,0,0,1-.95.15.91.91,0,0,1-.23,0c-.08,0-.12,0-.12-.07v-1.54s0-.07.12-.09a.91.91,0,0,1,.23,0l.55,0a1.23,1.23,0,0,0,.43-.1,1.16,1.16,0,0,0,.36-.23,2,2,0,0,0,.31-.43c.1-.17.21-.34.32-.5a2.56,2.56,0,0,1,.36-.43,1.85,1.85,0,0,1,.44-.31,1.27,1.27,0,0,1,.54-.11,1,1,0,0,1,.74.36c.2.25.4.52.6.82s.24.42.32.54a.89.89,0,0,0,.29.29.8.8,0,0,0,.36.1l.59,0h.14v1.76Zm-3.7-2-.07.15a.61.61,0,0,0-.07.14,2.41,2.41,0,0,0,.68.39,1.69,1.69,0,0,0,.58.15c.12,0,.19,0,.21-.13a.79.79,0,0,0,0-.3,2.2,2.2,0,0,0-.28-.58.58.58,0,0,0-.49-.29C116.05,122.25,115.87,122.41,115.73,122.72Z"/><path class="cls-3" d="M124.39,124.76a2.33,2.33,0,0,1-1.11-.25,2,2,0,0,1-.8-.78,3.42,3.42,0,0,1-1.23.77,4.19,4.19,0,0,1-1.52.26h-.23a.85.85,0,0,1-.23,0c-.08,0-.12,0-.12-.07v-1.54s0-.07.12-.09a.85.85,0,0,1,.23,0h.24c1.09,0,1.76-.19,2-.58a1.15,1.15,0,0,0-.45-.37,1.79,1.79,0,0,0-.76-.13,2,2,0,0,1,.19-.92,2,2,0,0,1,.53-.64A2.15,2.15,0,0,1,122,120a3.84,3.84,0,0,1,.91-.11,2.46,2.46,0,0,1,.6.07,1.5,1.5,0,0,1,.52.21,1.19,1.19,0,0,1,.37.37,1.09,1.09,0,0,1,.13.57,1.14,1.14,0,0,1-.09.42,2.09,2.09,0,0,1-.25.46,4.82,4.82,0,0,1-.36.43,3.75,3.75,0,0,1-.44.37c.1.15.48.22,1.14.22h.7v1.76Z"/><path class="cls-3" d="M124.9,123.12s0-.07.12-.09a.85.85,0,0,1,.23,0,2.61,2.61,0,0,0,1-.18,1.25,1.25,0,0,0,.61-.52c.12-.2.25-.42.38-.66a4.12,4.12,0,0,1,.41-.64,2.27,2.27,0,0,1,.53-.5,1.26,1.26,0,0,1,.71-.2,1.16,1.16,0,0,1,.75.26,1.75,1.75,0,0,1,.5.61,3.74,3.74,0,0,1,.38,1.54,2.66,2.66,0,0,1-.07.61,2.1,2.1,0,0,1-.21.61,1.41,1.41,0,0,1-.39.45.89.89,0,0,1-.57.19,2.2,2.2,0,0,1-1-.26,4.62,4.62,0,0,1-.87-.55,2.81,2.81,0,0,1-.92.74,2.73,2.73,0,0,1-1.28.26.85.85,0,0,1-.23,0c-.08,0-.12,0-.12-.07Zm4-1.43c-.33,0-.6.2-.81.76a2.26,2.26,0,0,0,1.06.55c.19,0,.29,0,.32-.22a1.1,1.1,0,0,0,0-.31,1.3,1.3,0,0,0-.11-.35,1.07,1.07,0,0,0-.19-.28A.46.46,0,0,0,128.88,121.69Z"/><path class="cls-3" d="M2.49,111.83H.64v-1.32a3.67,3.67,0,0,1,.17-1.25,1.76,1.76,0,0,1,.48-.8,2.83,2.83,0,0,1,.87-.52l.25.65A1.43,1.43,0,0,0,1.35,110H2.49Z"/></svg>