<svg id="Layer_1" data-name="Layer 1" xmlns="http://www.w3.org/2000/svg" viewBox="0 0 350 431.23"><defs><style>.cls-1,.cls-2{fill:#868686;}.cls-2{fill-rule:evenodd;}</style></defs><path class="cls-1" d="M16.58,389.26a2.33,2.33,0,0,1,.12,1.17,4.61,4.61,0,0,1-.35,1.21,6.67,6.67,0,0,1-2.23,2.54,10.38,10.38,0,0,1-3.3,1.53,11.93,11.93,0,0,1-3.73.37,9.45,9.45,0,0,1-3.51-.87A6.65,6.65,0,0,1,1,393a6.1,6.1,0,0,1-1-3.6,9.07,9.07,0,0,1,.44-2.87A13.91,13.91,0,0,1,1.54,384l2.55.9c-.27.59-.53,1.22-.77,1.91a5.88,5.88,0,0,0-.37,2,3.8,3.8,0,0,0,.5,2,3.3,3.3,0,0,0,1.34,1.23,5.39,5.39,0,0,0,1.89.52,10.12,10.12,0,0,0,2.13,0,12.35,12.35,0,0,0,2.09-.45,10.53,10.53,0,0,0,1.8-.72c.42-.22.64-.41.67-.55s-.07-.25-.27-.32l-3.65-1.24a4.34,4.34,0,0,1,.21-.65c.11-.26.21-.53.32-.81s.23-.54.34-.8a3.16,3.16,0,0,1,.33-.62,2.62,2.62,0,0,1,.77-.81,2.56,2.56,0,0,1,1.14-.2h4.19v3.89Z"/><path class="cls-1" d="M16,385.64c0-.09.08-.15.25-.2a2.25,2.25,0,0,1,.52-.07h.87c.94,0,1.41-.55,1.41-1.67v-1.27l2.58-.74v.74a8.78,8.78,0,0,0,.1,1.49,2.42,2.42,0,0,0,.3.9,1.05,1.05,0,0,0,.52.44,2.5,2.5,0,0,0,.79.11h.2l2.16-2.43a33.56,33.56,0,0,1,2.38-2.39,13.68,13.68,0,0,1,2.49-1.83,5.09,5.09,0,0,1,2.51-.72,4.42,4.42,0,0,1,1.66.3,4.33,4.33,0,0,1,1.31.84,3.76,3.76,0,0,1,.85,1.24,3.88,3.88,0,0,1,.3,1.54,5.76,5.76,0,0,1-1,3.4,8.06,8.06,0,0,1-2.41,2.28,10.2,10.2,0,0,1-3.11,1.27,13.85,13.85,0,0,1-3.12.39H23.35a3.89,3.89,0,0,1-1.71-.4,2.26,2.26,0,0,1-1.17-1.34,3.5,3.5,0,0,1-3.12,1.74h-.6a1.81,1.81,0,0,1-.52-.07c-.17,0-.25-.1-.25-.17Zm16.18-4a4.31,4.31,0,0,0-2.66,1,37.18,37.18,0,0,0-3,2.68h.94l.95,0q.66,0,1.44-.12a15.75,15.75,0,0,0,1.61-.25,10,10,0,0,0,1.51-.42,3.53,3.53,0,0,0,1.12-.63,1.2,1.2,0,0,0,.43-.93.88.88,0,0,0-.25-.65,1.7,1.7,0,0,0-.62-.4,3.81,3.81,0,0,0-.77-.22A4.86,4.86,0,0,0,32.16,381.65Z"/><path class="cls-1" d="M43,388.71a4.13,4.13,0,0,1-1.65-1.53,6.57,6.57,0,0,1-.8-2.31A21.33,21.33,0,0,1,40.3,382c0-.49,0-1.2-.07-2.11s0-1.91-.06-3-.05-2.17-.09-3.3-.06-2.17-.08-3.13l3.28-1.34v13.27a3.59,3.59,0,0,0,.6,2.26,2.36,2.36,0,0,0,1.95.75v3.89A6.21,6.21,0,0,1,43,388.71Z"/><path class="cls-1" d="M67.1,389.26a4.77,4.77,0,0,1-2.16-.5,5.61,5.61,0,0,1-1.73-1.38,9.89,9.89,0,0,1-3.16,1.41,13.61,13.61,0,0,1-3.4.47H52.43a3.89,3.89,0,0,1-1.71-.4,2.26,2.26,0,0,1-1.17-1.34,3.5,3.5,0,0,1-3.12,1.74h-.6a1.77,1.77,0,0,1-.52-.07c-.17,0-.25-.1-.25-.17v-3.38c0-.09.08-.15.25-.2a2.18,2.18,0,0,1,.52-.07h.87c.94,0,1.4-.55,1.4-1.67v-1.27l2.58-.74v.74a10,10,0,0,0,.1,1.49,2.41,2.41,0,0,0,.31.9,1,1,0,0,0,.52.44,2.48,2.48,0,0,0,.78.11h.2l2.16-2.43c.77-.85,1.57-1.65,2.38-2.39a14.09,14.09,0,0,1,2.5-1.83,5.06,5.06,0,0,1,2.51-.72,4.46,4.46,0,0,1,1.66.3,4.33,4.33,0,0,1,1.31.84,3.79,3.79,0,0,1,1.15,2.78A6.61,6.61,0,0,1,66,383.7a5.25,5.25,0,0,1-.61,1.37c.12.2.75.3,1.91.3h.44v3.89Zm-5.86-7.61a4.34,4.34,0,0,0-2.67,1,39,39,0,0,0-3,2.68h.93l1,0q.64,0,1.44-.12a16.19,16.19,0,0,0,1.61-.25,9.86,9.86,0,0,0,1.5-.42,3.47,3.47,0,0,0,1.13-.63,1.2,1.2,0,0,0,.43-.93.88.88,0,0,0-.25-.65,1.79,1.79,0,0,0-.62-.4,4,4,0,0,0-.77-.22A5,5,0,0,0,61.24,381.65Z"/><path class="cls-1" d="M75.07,389.26A3,3,0,0,1,72,387.52a4.42,4.42,0,0,1-3.92,1.74h-.3a1.81,1.81,0,0,1-.52-.07c-.17,0-.25-.1-.25-.17v-3.38c0-.09.08-.15.25-.2a2.25,2.25,0,0,1,.52-.07h.17c1.67,0,2.51-.57,2.51-1.71v-1.34l2.75-.87v.84c0,2.06.67,3.08,2,3.08h.2v3.89ZM67.74,377.8l1.67-2.28L71.59,377l1.24-1.7,2.58,1.7-1.71,2.28-2.21-1.44-1.14,1.71Z"/><path class="cls-1" d="M74.64,385.64c0-.09.08-.15.25-.2a2.25,2.25,0,0,1,.52-.07h2.94c.72,0,1.3,0,1.75,0a8.25,8.25,0,0,0,1.45-.22,16.69,16.69,0,0,0,2-.6l3.16-1.19c-1.27-.36-2.25-.63-2.94-.8s-1.21-.33-1.55-.44a1.67,1.67,0,0,0-1.22.12,3.47,3.47,0,0,0-1,.78l-2.31-1.57a9.44,9.44,0,0,1,2-2.63,2.79,2.79,0,0,1,2.34-.59,23.07,23.07,0,0,1,2.28.47l2.35.64c.8.22,1.63.44,2.48.65s1.76.4,2.74.56l1.33.1,1.29.06-1,3.82q-.81-.06-1.41-.06a6,6,0,0,0-1.14.1,5.78,5.78,0,0,0-1.09.31,11,11,0,0,0-1.25.62c-1.14.65-2.09,1.21-2.83,1.68a16.28,16.28,0,0,1-2.2,1.17,10.33,10.33,0,0,1-2.36.7,18.81,18.81,0,0,1-3.33.24H75.41a1.81,1.81,0,0,1-.52-.07c-.17,0-.25-.1-.25-.17Zm10-12.36-2,2.68-2.78-1.88,2-2.71Z"/><path class="cls-1" d="M101,388.82l-3.42.91v-19.3l3.42-1.34Z"/><path class="cls-1" d="M105.35,395.49c.72-.36,1.56-.82,2.53-1.37a33,33,0,0,0,2.82-1.81,15.78,15.78,0,0,0,2.33-2,3.43,3.43,0,0,0,1-2,3.58,3.58,0,0,1-1,.39,5.45,5.45,0,0,1-1.24.15,3.55,3.55,0,0,1-2.8-.94,3.51,3.51,0,0,1-.82-2.41,7.43,7.43,0,0,1,.25-1.88,6.51,6.51,0,0,1,.75-1.77,4.82,4.82,0,0,1,1.24-1.34,2.89,2.89,0,0,1,1.75-.54,3.23,3.23,0,0,1,2.21.77,5.81,5.81,0,0,1,1.39,1.9,9.37,9.37,0,0,1,.72,2.36,14.2,14.2,0,0,1,.2,2.18,8,8,0,0,1-.69,3.38,10.31,10.31,0,0,1-1.86,2.76,17.79,17.79,0,0,1-2.7,2.35c-1,.72-2.09,1.42-3.23,2.09Zm8.41-10.18a3.8,3.8,0,0,0-.67-1.54,1.39,1.39,0,0,0-1.17-.64,1.33,1.33,0,0,0-1,.43,1.47,1.47,0,0,0-.44,1.08.82.82,0,0,0,.51.8,2.49,2.49,0,0,0,1.1.23,3.56,3.56,0,0,0,.92-.11A3.93,3.93,0,0,0,113.76,385.31Z"/><path class="cls-1" d="M139.79,389.26a2.45,2.45,0,0,1,.12,1.17,4.61,4.61,0,0,1-.35,1.21,6.67,6.67,0,0,1-2.23,2.54,10.38,10.38,0,0,1-3.3,1.53,12,12,0,0,1-3.74.37,9.44,9.44,0,0,1-3.5-.87,6.65,6.65,0,0,1-2.58-2.18,6.1,6.1,0,0,1-1-3.6,9.07,9.07,0,0,1,.44-2.87,13.91,13.91,0,0,1,1.1-2.56l2.55.9c-.27.59-.53,1.22-.77,1.91a5.88,5.88,0,0,0-.37,2,3.8,3.8,0,0,0,.5,2,3.3,3.3,0,0,0,1.34,1.23,5.39,5.39,0,0,0,1.89.52,10.12,10.12,0,0,0,2.13,0,12.35,12.35,0,0,0,2.09-.45,10.88,10.88,0,0,0,1.8-.72c.42-.22.64-.41.67-.55s-.07-.25-.27-.32l-3.65-1.24a4.34,4.34,0,0,1,.21-.65l.32-.81c.11-.28.23-.54.34-.8a3.16,3.16,0,0,1,.33-.62,2.62,2.62,0,0,1,.77-.81,2.56,2.56,0,0,1,1.14-.2H140v3.89Z"/><path class="cls-1" d="M161.23,389.26a4.77,4.77,0,0,1-2.16-.5,5.58,5.58,0,0,1-1.72-1.38,10,10,0,0,1-3.17,1.41,13.61,13.61,0,0,1-3.4.47h-4.22a3.89,3.89,0,0,1-1.71-.4,2.26,2.26,0,0,1-1.17-1.34,3.5,3.5,0,0,1-3.12,1.74H140a1.81,1.81,0,0,1-.52-.07c-.17,0-.25-.1-.25-.17v-3.38c0-.09.08-.15.25-.2a2.25,2.25,0,0,1,.52-.07h.87c.94,0,1.41-.55,1.41-1.67v-1.27l2.58-.74v.74a8.78,8.78,0,0,0,.1,1.49,2.25,2.25,0,0,0,.3.9,1.05,1.05,0,0,0,.52.44,2.5,2.5,0,0,0,.79.11h.2l2.16-2.43a33.56,33.56,0,0,1,2.38-2.39,13.68,13.68,0,0,1,2.49-1.83,5.09,5.09,0,0,1,2.51-.72,4.42,4.42,0,0,1,1.66.3,4.33,4.33,0,0,1,1.31.84,3.76,3.76,0,0,1,.85,1.24,3.88,3.88,0,0,1,.3,1.54,6.24,6.24,0,0,1-.23,1.78,5.6,5.6,0,0,1-.6,1.37c.11.2.74.3,1.91.3h.43v3.89Zm-5.86-7.61a4.31,4.31,0,0,0-2.66,1,37.18,37.18,0,0,0-3,2.68h.94l.95,0q.66,0,1.44-.12a15.75,15.75,0,0,0,1.61-.25,10,10,0,0,0,1.51-.42,3.53,3.53,0,0,0,1.12-.63,1.2,1.2,0,0,0,.43-.93.88.88,0,0,0-.25-.65,1.7,1.7,0,0,0-.62-.4,3.81,3.81,0,0,0-.77-.22A5,5,0,0,0,155.37,381.65Z"/><path class="cls-1" d="M183.17,389.26a4.77,4.77,0,0,1-2.16-.5,5.58,5.58,0,0,1-1.72-1.38,10,10,0,0,1-3.17,1.41,13.55,13.55,0,0,1-3.4.47H168.5a3.89,3.89,0,0,1-1.71-.4,2.26,2.26,0,0,1-1.17-1.34,3.5,3.5,0,0,1-3.12,1.74h-.6a1.81,1.81,0,0,1-.52-.07c-.17,0-.25-.1-.25-.17v-3.38c0-.09.08-.15.25-.2a2.25,2.25,0,0,1,.52-.07h.87c.94,0,1.41-.55,1.41-1.67v-1.27l2.58-.74v.74a8.78,8.78,0,0,0,.1,1.49,2.62,2.62,0,0,0,.3.9,1.1,1.1,0,0,0,.52.44,2.5,2.5,0,0,0,.79.11h.2l2.16-2.43a33.56,33.56,0,0,1,2.38-2.39,13.68,13.68,0,0,1,2.49-1.83,5.1,5.1,0,0,1,2.52-.72,4.4,4.4,0,0,1,1.65.3,4.21,4.21,0,0,1,1.31.84,4,4,0,0,1,.86,1.24,3.88,3.88,0,0,1,.3,1.54,6.23,6.23,0,0,1-.24,1.78,5.24,5.24,0,0,1-.6,1.37c.11.2.75.3,1.91.3h.43v3.89Zm-5.86-7.61a4.31,4.31,0,0,0-2.66,1c-.88.7-1.88,1.59-3,2.68h.94l.95,0q.66,0,1.44-.12a15.75,15.75,0,0,0,1.61-.25,10,10,0,0,0,1.51-.42,3.42,3.42,0,0,0,1.12-.63,1.21,1.21,0,0,0,.44-.93.92.92,0,0,0-.25-.65,1.89,1.89,0,0,0-.62-.4,4.22,4.22,0,0,0-.77-.22A5.13,5.13,0,0,0,177.31,381.65Z"/><path class="cls-1" d="M201.13,389.26c-2.55,0-3.85-1.6-3.92-4.79a15.77,15.77,0,0,0-2.13,1.46c-.68.54-1.39,1.06-2.14,1.55a12.85,12.85,0,0,1-2.45,1.26,8.15,8.15,0,0,1-3,.52h-3.62a1.86,1.86,0,0,1-.52-.07c-.16,0-.25-.1-.25-.17v-3.38c0-.09.09-.15.25-.2a2.32,2.32,0,0,1,.52-.07H187a10.43,10.43,0,0,0,2.14-.21,12.91,12.91,0,0,0,2-.59,19.41,19.41,0,0,0,1.86-.87q.92-.51,1.89-1.11c-.4-.06-.84-.14-1.31-.23l-1.35-.24-1.18-.18a4.52,4.52,0,0,0-.75-.08,1.15,1.15,0,0,0-.79.35,4.55,4.55,0,0,0-.79,1L186.16,382c1-2.59,2.22-3.88,3.58-3.88a11,11,0,0,1,2.14.27c.88.17,1.82.38,2.85.6s2.1.42,3.2.6a20.11,20.11,0,0,0,3.23.27,11.59,11.59,0,0,0,1.51-.1l-.43,3.72a9,9,0,0,0-3,.43,1.51,1.51,0,0,0,.77,1.21,4.56,4.56,0,0,0,1.68.23h2.54v3.89Zm-5.83-15.78-2,2.68-2.78-1.88,2-2.71Z"/><path class="cls-1" d="M203.44,385.64c0-.09.08-.15.25-.2a2.25,2.25,0,0,1,.52-.07h2.21c1.14,0,1.71-.26,1.71-.8a.91.91,0,0,0-.07-.35,3.07,3.07,0,0,0-.26-.52c-.14-.22-.33-.5-.57-.82l-1-1.26,2.17-3.08a5.82,5.82,0,0,1,1.63,2.31,7.87,7.87,0,0,1,.58,3,5.91,5.91,0,0,1-.45,2.4,4.61,4.61,0,0,1-1.24,1.69,5.05,5.05,0,0,1-1.86,1,7.46,7.46,0,0,1-2.31.34h-.57a1.81,1.81,0,0,1-.52-.07c-.17,0-.25-.1-.25-.17Zm.24-10.28,1.67-2.28,2.18,1.44,1.24-1.71,2.58,1.71-1.71,2.28-2.21-1.44-1.14,1.71Z"/><path class="cls-1" d="M235.87,382a7.19,7.19,0,0,0-2.78-.4,4.05,4.05,0,0,0-1.28.22,5,5,0,0,0-1.22.57,4.17,4.17,0,0,0-.92.77,1.27,1.27,0,0,0-.37.85.6.6,0,0,0,.5.59,6.38,6.38,0,0,0,1.28.2l1.64.11a6.63,6.63,0,0,1,1.64.34,3,3,0,0,1,1.27.84,2.31,2.31,0,0,1,.51,1.6,6.16,6.16,0,0,1-1,3.49,8.93,8.93,0,0,1-2.54,2.51,12.46,12.46,0,0,1-3.4,1.53,13.67,13.67,0,0,1-3.61.51,12.16,12.16,0,0,1-3.7-.51,7.3,7.3,0,0,1-2.63-1.45,5.87,5.87,0,0,1-1.56-2.19,7.31,7.31,0,0,1-.51-2.75,10.19,10.19,0,0,1,.38-2.69,11.86,11.86,0,0,1,1.19-2.83l2.65.9a10.62,10.62,0,0,0-.79,1.84,6,6,0,0,0-.29,1.78,4.06,4.06,0,0,0,.32,1.61,3.38,3.38,0,0,0,1,1.29,5.21,5.21,0,0,0,1.8.87,9.35,9.35,0,0,0,2.59.32,11.56,11.56,0,0,0,2.31-.27,16.19,16.19,0,0,0,2.47-.71,9.67,9.67,0,0,0,2-1c.53-.37.8-.74.8-1.09s-.13-.34-.38-.42a6.15,6.15,0,0,0-1.08-.19c-.45,0-1-.08-1.57-.11s-1.22-.1-1.89-.19a2.62,2.62,0,0,1-1.7-.83,2.71,2.71,0,0,1-.55-1.75,6.58,6.58,0,0,1,.65-2.86,8.27,8.27,0,0,1,4.11-4,6.43,6.43,0,0,1,2.71-.61,5.37,5.37,0,0,1,1.44.19,5.48,5.48,0,0,1,1.38.58Z"/><path class="cls-1" d="M243,388.82l-3.41.91v-19.3l3.41-1.34Z"/><path class="cls-1" d="M254.23,389.26a8.87,8.87,0,0,1-1.24,2.48,16.23,16.23,0,0,1-2,2.23,22.72,22.72,0,0,1-2.48,2c-.91.62-1.83,1.21-2.77,1.74l-2.84-2.21c.62-.31,1.35-.7,2.17-1.17s1.66-1,2.48-1.53a19.42,19.42,0,0,0,2.26-1.72,6.26,6.26,0,0,0,1.49-1.81,14.46,14.46,0,0,1-2.16-.15,4.51,4.51,0,0,1-1.69-.59,2.94,2.94,0,0,1-1.09-1.2,4.65,4.65,0,0,1-.38-2,7.34,7.34,0,0,1,.23-1.71,6.37,6.37,0,0,1,.71-1.74,4.76,4.76,0,0,1,1.15-1.36,2.46,2.46,0,0,1,1.59-.55,3.34,3.34,0,0,1,1.86.52,4.76,4.76,0,0,1,1.38,1.3,7.45,7.45,0,0,1,.87,1.74,9.5,9.5,0,0,1,.42,1.86h1.2v3.89Zm-2.58-3.89a5.3,5.3,0,0,0-.24-.75,3.39,3.39,0,0,0-.43-.77,3,3,0,0,0-.59-.59,1.17,1.17,0,0,0-.69-.23,1.21,1.21,0,0,0-1,.43,1.51,1.51,0,0,0-.37,1,.93.93,0,0,0,.14.55.85.85,0,0,0,.48.27,5.66,5.66,0,0,0,1,.1Z"/><path class="cls-1" d="M262.73,389.26a3,3,0,0,1-3.08-1.74,4.42,4.42,0,0,1-3.92,1.74h-.3a1.81,1.81,0,0,1-.52-.07c-.17,0-.25-.1-.25-.17v-3.38c0-.09.08-.15.25-.2a2.25,2.25,0,0,1,.52-.07h.17c1.67,0,2.51-.57,2.51-1.71v-1.34l2.75-.87v.84c0,2.06.67,3.08,2,3.08h.2v3.89ZM255.4,377.8l1.67-2.28,2.18,1.44,1.24-1.7,2.58,1.7-1.71,2.28-2.21-1.44L258,379.51Z"/><path class="cls-1" d="M280.36,389.26q-3.83,0-3.92-4.79a15.77,15.77,0,0,0-2.13,1.46c-.68.54-1.4,1.06-2.15,1.55a12.76,12.76,0,0,1-2.44,1.26,8.15,8.15,0,0,1-3,.52h-3.62a1.81,1.81,0,0,1-.52-.07c-.17,0-.25-.1-.25-.17v-3.38c0-.09.08-.15.25-.2a2.25,2.25,0,0,1,.52-.07h3.11a10.52,10.52,0,0,0,2.15-.21,12.45,12.45,0,0,0,1.94-.59,17.38,17.38,0,0,0,1.86-.87q.93-.51,1.89-1.11c-.4-.06-.83-.14-1.3-.23l-1.36-.24-1.17-.18a4.72,4.72,0,0,0-.76-.08,1.13,1.13,0,0,0-.78.35,4.55,4.55,0,0,0-.79,1L265.38,382c1-2.59,2.22-3.88,3.59-3.88a11.07,11.07,0,0,1,2.14.27c.87.17,1.82.38,2.85.6s2.09.42,3.2.6a20,20,0,0,0,3.23.27,11.7,11.7,0,0,0,1.51-.1l-.44,3.72a8.92,8.92,0,0,0-3,.43,1.51,1.51,0,0,0,.77,1.21,4.5,4.5,0,0,0,1.67.23h2.55v3.89Z"/><path class="cls-1" d="M282.67,385.64c0-.09.08-.15.25-.2a2.25,2.25,0,0,1,.52-.07,6,6,0,0,0,2.29-.38,2.88,2.88,0,0,0,1.36-1.16c.27-.44.54-.92.82-1.44a11.18,11.18,0,0,1,.92-1.42,4.78,4.78,0,0,1,1.16-1.09,2.72,2.72,0,0,1,1.55-.44,2.56,2.56,0,0,1,1.66.56,4.17,4.17,0,0,1,1.11,1.35,7.12,7.12,0,0,1,.62,1.73,8.12,8.12,0,0,1,.2,1.66,7.37,7.37,0,0,1-.14,1.35,4.56,4.56,0,0,1-.46,1.33,3.33,3.33,0,0,1-.86,1,2,2,0,0,1-1.26.4,4.83,4.83,0,0,1-2.22-.55,11,11,0,0,1-1.93-1.22,6.14,6.14,0,0,1-2,1.64,6.25,6.25,0,0,1-2.81.57,1.81,1.81,0,0,1-.52-.07c-.17,0-.25-.1-.25-.17Zm8.74-3.15c-.72-.11-1.31.45-1.78,1.68a5,5,0,0,0,1.14.78,4.07,4.07,0,0,0,1.21.42.53.53,0,0,0,.7-.47,2.87,2.87,0,0,0,0-.7,2.64,2.64,0,0,0-.24-.75,2.47,2.47,0,0,0-.41-.62A1.15,1.15,0,0,0,291.41,382.49Z"/><path class="cls-1" d="M312,393.18l-7.57,2-.24-1.21,7.51-2.11Z"/><path class="cls-1" d="M316.13,389.26a5.41,5.41,0,0,1-2.73-.72,5.13,5.13,0,0,1-2-2c-.87,2.08-2.67,3.11-5.39,3.11q-3.26,0-4.72-1.77l1.2-3.08a4.56,4.56,0,0,0,1.71.77,9.16,9.16,0,0,0,2.34.3,9,9,0,0,0,1.38-.1,5,5,0,0,0,1.19-.32,2.55,2.55,0,0,0,.84-.55,1.14,1.14,0,0,0,.31-.81.91.91,0,0,0-.05-.28c0-.12-.12-.41-.26-.86l-.71-2c-.32-.91-.76-2.19-1.32-3.82l2.68-2.41q1,3.34,1.66,5.43a26.28,26.28,0,0,0,1.14,3.23,3.72,3.72,0,0,0,1.1,1.57,2.62,2.62,0,0,0,1.56.42h.7v3.89Z"/><path class="cls-1" d="M324.11,389.26a3,3,0,0,1-3.09-1.74,4.42,4.42,0,0,1-3.92,1.74h-.3a1.81,1.81,0,0,1-.52-.07c-.16,0-.25-.1-.25-.17v-3.38c0-.09.09-.15.25-.2a2.25,2.25,0,0,1,.52-.07H317c1.67,0,2.51-.57,2.51-1.71v-1.34l2.75-.87v.84c0,2.06.67,3.08,2,3.08h.2v3.89Zm.33,4.22-1.67,2.28-2.18-1.44L319.35,396l-2.61-1.67,1.77-2.31,2.18,1.47,1.2-1.71Z"/><path class="cls-1" d="M323.67,385.64c0-.09.08-.15.25-.2a2.25,2.25,0,0,1,.52-.07h.5a4.13,4.13,0,0,0,1.39-.18,1.31,1.31,0,0,0,.72-.57,2,2,0,0,0,.27-.94q0-.56,0-1.32V370.43l3.35-1.34c0,1.3-.08,2.62-.11,4s-.07,2.63-.1,3.84-.06,2.28-.09,3.23,0,1.68,0,2.19c0,1.17,0,2.18-.08,3.05a4.7,4.7,0,0,1-.61,2.16,3.15,3.15,0,0,1-1.64,1.29,9,9,0,0,1-3.16.44h-.44a1.81,1.81,0,0,1-.52-.07c-.17,0-.25-.1-.25-.17Z"/><path class="cls-1" d="M341.66,389.26a8.61,8.61,0,0,1-1.24,2.48,15.58,15.58,0,0,1-2,2.23,22.72,22.72,0,0,1-2.48,2c-.9.62-1.83,1.21-2.76,1.74l-2.85-2.21c.62-.31,1.35-.7,2.18-1.17s1.65-1,2.48-1.53a20.3,20.3,0,0,0,2.26-1.72,6.61,6.61,0,0,0,1.49-1.81,14.46,14.46,0,0,1-2.16-.15,4.39,4.39,0,0,1-1.69-.59,2.88,2.88,0,0,1-1.09-1.2,4.5,4.5,0,0,1-.39-2,6.88,6.88,0,0,1,.24-1.71,6.35,6.35,0,0,1,.7-1.74,4.79,4.79,0,0,1,1.16-1.36,2.42,2.42,0,0,1,1.59-.55,3.39,3.39,0,0,1,1.86.52,4.85,4.85,0,0,1,1.37,1.3,6.75,6.75,0,0,1,.87,1.74,9.5,9.5,0,0,1,.42,1.86h1.2v3.89Zm-2.58-3.89a4.26,4.26,0,0,0-.24-.75,3,3,0,0,0-.43-.77,3,3,0,0,0-.59-.59,1.16,1.16,0,0,0-.68-.23,1.22,1.22,0,0,0-1,.43,1.5,1.5,0,0,0-.36,1,.93.93,0,0,0,.13.55.84.84,0,0,0,.49.27,5.53,5.53,0,0,0,1,.1Z"/><path class="cls-1" d="M342.09,385.64c0-.09.09-.15.26-.2a2.16,2.16,0,0,1,.51-.07h2.22c1.13,0,1.7-.26,1.7-.8a1.12,1.12,0,0,0-.06-.35,4.48,4.48,0,0,0-.27-.52,9.89,9.89,0,0,0-.57-.82l-1-1.26,2.18-3.08a5.8,5.8,0,0,1,1.62,2.31,7.88,7.88,0,0,1,.59,3,5.74,5.74,0,0,1-.46,2.4,4.61,4.61,0,0,1-1.24,1.69,5.09,5.09,0,0,1-1.85,1,7.57,7.57,0,0,1-2.32.34h-.57a1.75,1.75,0,0,1-.51-.07c-.17,0-.26-.1-.26-.17Zm.24-10.28,1.67-2.28,2.18,1.44,1.24-1.71,2.58,1.71-1.71,2.28-2.21-1.44-1.14,1.71Z"/><path class="cls-1" d="M75.61,415.49a7.19,7.19,0,0,0-2.78-.4,4,4,0,0,0-1.27.22,5,5,0,0,0-1.23.57,4.42,4.42,0,0,0-.92.77,1.31,1.31,0,0,0-.37.85.6.6,0,0,0,.51.59,6.27,6.27,0,0,0,1.27.2l1.64.11a6.63,6.63,0,0,1,1.64.34,3,3,0,0,1,1.28.84,2.36,2.36,0,0,1,.5,1.6,6.16,6.16,0,0,1-1,3.49,8.93,8.93,0,0,1-2.54,2.51,12.33,12.33,0,0,1-3.4,1.53,13.59,13.59,0,0,1-3.6.51,12.19,12.19,0,0,1-3.71-.51A7.39,7.39,0,0,1,59,427.26a5.73,5.73,0,0,1-1.55-2.19,7.12,7.12,0,0,1-.52-2.75,10.62,10.62,0,0,1,.38-2.69,12.28,12.28,0,0,1,1.19-2.83l2.65.9a10.62,10.62,0,0,0-.79,1.84,5.94,5.94,0,0,0-.28,1.78,4.05,4.05,0,0,0,.31,1.61,3.41,3.41,0,0,0,1,1.29,5.07,5.07,0,0,0,1.79.87,9.35,9.35,0,0,0,2.59.32,11.73,11.73,0,0,0,2.32-.27,16.4,16.4,0,0,0,2.46-.71,9.67,9.67,0,0,0,2-1c.53-.37.8-.74.8-1.09s-.13-.34-.38-.42a6.15,6.15,0,0,0-1.08-.19c-.45,0-1-.08-1.57-.11s-1.22-.1-1.89-.19a2.57,2.57,0,0,1-1.69-.83,2.66,2.66,0,0,1-.56-1.75,6.45,6.45,0,0,1,.66-2.86,8.13,8.13,0,0,1,1.7-2.38,8.46,8.46,0,0,1,2.4-1.62,6.43,6.43,0,0,1,2.71-.61,5.37,5.37,0,0,1,1.44.19,5.48,5.48,0,0,1,1.38.58Z"/><path class="cls-1" d="M82.24,415.66a12.61,12.61,0,0,1,1.39,2.39,7,7,0,0,1,.52,2.83,8.22,8.22,0,0,1-.5,2.72,12.64,12.64,0,0,1-1.41,2.76A15.88,15.88,0,0,1,80.05,429a17.76,17.76,0,0,1-2.87,2.26L74.37,429a26.91,26.91,0,0,0,2.31-1.49,19.25,19.25,0,0,0,2.23-1.83,10,10,0,0,0,1.67-2,4.06,4.06,0,0,0,.66-2.16,3,3,0,0,0-.52-1.51c-.35-.56-.7-1.07-1.06-1.54Z"/><path class="cls-1" d="M90,422.21a4.11,4.11,0,0,1-1.64-1.53,6.38,6.38,0,0,1-.8-2.31,19.85,19.85,0,0,1-.25-2.91c0-.49,0-1.2-.07-2.11s0-1.91-.07-3,0-2.17-.08-3.3-.06-2.17-.08-3.13l3.28-1.34v13.27a3.59,3.59,0,0,0,.6,2.26,2.34,2.34,0,0,0,1.94.75v3.89A6.27,6.27,0,0,1,90,422.21Z"/><path class="cls-1" d="M106.6,422.76a5.1,5.1,0,0,1-1.75-.32,3.68,3.68,0,0,1-1.44-.92c-.09.31-.17.6-.25.85a2,2,0,0,1-.33.66,1.48,1.48,0,0,1-.56.42,2.31,2.31,0,0,1-.93.15,5.19,5.19,0,0,1-1.24-.17,7.63,7.63,0,0,1-1.34-.47,10,10,0,0,1-1.29-.69,6.78,6.78,0,0,1-1.06-.78,4.92,4.92,0,0,1-1.54.93,5.63,5.63,0,0,1-2.08.34,1.86,1.86,0,0,1-.52-.07c-.16,0-.25-.1-.25-.17v-3.38c0-.09.09-.15.25-.2a2.32,2.32,0,0,1,.52-.07c.45,0,.85,0,1.19,0a2.93,2.93,0,0,0,1-.22,2.52,2.52,0,0,0,.79-.52,3.74,3.74,0,0,0,.68-.94c.22-.37.46-.74.71-1.1a5.82,5.82,0,0,1,.8-1,4.1,4.1,0,0,1,1-.67,2.84,2.84,0,0,1,1.19-.25,2.08,2.08,0,0,1,1.63.81A14.58,14.58,0,0,1,103,416.8c.29.51.53.91.72,1.19a2.28,2.28,0,0,0,.62.62,1.79,1.79,0,0,0,.81.23c.31,0,.74,0,1.3,0h.3v3.89Zm-8.14-4.49a3.18,3.18,0,0,1-.16.32l-.15.32a5.93,5.93,0,0,0,1.49.85,4,4,0,0,0,1.29.32c.27,0,.42-.1.46-.29a1.67,1.67,0,0,0,0-.65,4.34,4.34,0,0,0-.61-1.27,1.25,1.25,0,0,0-1.07-.64C99.17,417.23,98.77,417.58,98.46,418.27Z"/><path class="cls-1" d="M117.52,422.76a5.39,5.39,0,0,1-2.45-.55,4.32,4.32,0,0,1-1.74-1.73,7.7,7.7,0,0,1-2.71,1.71,9.62,9.62,0,0,1-3.35.57h-.51a1.81,1.81,0,0,1-.52-.07c-.16,0-.25-.1-.25-.17v-3.38c0-.09.09-.15.25-.2a2.25,2.25,0,0,1,.52-.07h.54c2.39,0,3.86-.42,4.42-1.27a2.65,2.65,0,0,0-1-.82,4,4,0,0,0-1.68-.29,4.39,4.39,0,0,1,.44-2,4.08,4.08,0,0,1,1.15-1.41,4.51,4.51,0,0,1,1.68-.8,7.64,7.64,0,0,1,2-.25,5.81,5.81,0,0,1,1.32.15,3.53,3.53,0,0,1,1.16.47,2.41,2.41,0,0,1,.8.82,2.35,2.35,0,0,1,.31,1.24,2.39,2.39,0,0,1-.21.93,4.58,4.58,0,0,1-.55,1,7.07,7.07,0,0,1-.8.95,7.43,7.43,0,0,1-1,.82c.23.32,1.06.47,2.52.47h1.54v3.89Z"/><path class="cls-1" d="M118.66,419.14c0-.09.08-.15.25-.2a2.18,2.18,0,0,1,.52-.07,6,6,0,0,0,2.29-.38,2.92,2.92,0,0,0,1.36-1.16c.27-.44.54-.92.82-1.44a10.18,10.18,0,0,1,.92-1.42,4.61,4.61,0,0,1,1.16-1.09,2.72,2.72,0,0,1,1.55-.44,2.56,2.56,0,0,1,1.66.56,4.17,4.17,0,0,1,1.11,1.35,7.12,7.12,0,0,1,.62,1.73,8.12,8.12,0,0,1,.2,1.66,7.37,7.37,0,0,1-.14,1.35,4.3,4.3,0,0,1-.47,1.33,3.17,3.17,0,0,1-.85,1,2,2,0,0,1-1.26.4,4.8,4.8,0,0,1-2.22-.55,11,11,0,0,1-1.93-1.22,6.14,6.14,0,0,1-2,1.64,6.25,6.25,0,0,1-2.81.57,1.77,1.77,0,0,1-.52-.07c-.17,0-.25-.1-.25-.17ZM127.4,416c-.72-.11-1.31.45-1.78,1.68a5,5,0,0,0,1.14.78,4.07,4.07,0,0,0,1.21.42.53.53,0,0,0,.7-.47,2.87,2.87,0,0,0,0-.7,2.64,2.64,0,0,0-.24-.75,2.47,2.47,0,0,0-.41-.62A1.15,1.15,0,0,0,127.4,416Z"/><path class="cls-1" d="M135.84,429c.71-.36,1.56-.82,2.53-1.37a32.81,32.81,0,0,0,2.81-1.81,15.28,15.28,0,0,0,2.33-2,3.45,3.45,0,0,0,1-2,3.65,3.65,0,0,1-1,.39,5.38,5.38,0,0,1-1.24.15,3.1,3.1,0,0,1-3.62-3.35,7.46,7.46,0,0,1,.26-1.88,5.94,5.94,0,0,1,.75-1.77A4.68,4.68,0,0,1,140.9,414a2.86,2.86,0,0,1,1.74-.54,3.23,3.23,0,0,1,2.21.77,5.67,5.67,0,0,1,1.39,1.9,8.62,8.62,0,0,1,.72,2.36,13,13,0,0,1,.2,2.18,8.19,8.19,0,0,1-.68,3.38,10.47,10.47,0,0,1-1.86,2.76,18.29,18.29,0,0,1-2.7,2.35c-1,.72-2.09,1.42-3.23,2.09Zm8.41-10.18a4.09,4.09,0,0,0-.67-1.54,1.4,1.4,0,0,0-1.17-.64,1.35,1.35,0,0,0-1,.43,1.46,1.46,0,0,0-.43,1.08.82.82,0,0,0,.5.8,2.54,2.54,0,0,0,1.11.23,3.56,3.56,0,0,0,.92-.11A3.93,3.93,0,0,0,144.25,418.81Z"/><path class="cls-1" d="M161.57,429.22a9.25,9.25,0,0,1-3.37-.56,6.25,6.25,0,0,1-2.34-1.58,6.42,6.42,0,0,1-1.38-2.34,9,9,0,0,1-.45-2.85,10.61,10.61,0,0,1,.33-2.61,9.32,9.32,0,0,1,1-2.48l2.48.87a10.84,10.84,0,0,0-.67,1.74,6.46,6.46,0,0,0-.23,1.67,4.78,4.78,0,0,0,.28,1.68,3.61,3.61,0,0,0,.87,1.34,4.14,4.14,0,0,0,1.49.89,6.68,6.68,0,0,0,2.18.32,7.48,7.48,0,0,0,2.43-.37,5.43,5.43,0,0,0,1.76-1,3.94,3.94,0,0,0,1-1.48,4.69,4.69,0,0,0,.36-1.85,7.57,7.57,0,0,0-1.44-4.23l2.81-2.31a12.84,12.84,0,0,1,1.49,3.15,10.77,10.77,0,0,1,.49,3.15,9.28,9.28,0,0,1-.64,3.42,8.13,8.13,0,0,1-1.83,2.81,8.53,8.53,0,0,1-2.88,1.91A9.87,9.87,0,0,1,161.57,429.22Zm2.17-16.75-2,2.68L159,413.28l2.05-2.71Z"/><path class="cls-1" d="M176.56,422.21a4,4,0,0,1-1.64-1.53,6.57,6.57,0,0,1-.81-2.31,21.33,21.33,0,0,1-.25-2.91c0-.49,0-1.2-.07-2.11s0-1.91-.06-3,0-2.17-.09-3.3-.06-2.17-.08-3.13l3.28-1.34v13.27a3.52,3.52,0,0,0,.61,2.26,2.34,2.34,0,0,0,1.94.75v3.89A6.24,6.24,0,0,1,176.56,422.21Z"/><path class="cls-1" d="M193.19,422.76a5.09,5.09,0,0,1-1.74-.32,3.68,3.68,0,0,1-1.44-.92c-.09.31-.18.6-.25.85a1.87,1.87,0,0,1-.34.66,1.44,1.44,0,0,1-.55.42,2.36,2.36,0,0,1-.94.15,5.25,5.25,0,0,1-1.24-.17,7.93,7.93,0,0,1-1.34-.47,10,10,0,0,1-1.29-.69,7.16,7.16,0,0,1-1.05-.78,4.92,4.92,0,0,1-1.54.93,5.7,5.7,0,0,1-2.08.34,1.81,1.81,0,0,1-.52-.07c-.17,0-.25-.1-.25-.17v-3.38c0-.09.08-.15.25-.2a2.25,2.25,0,0,1,.52-.07c.45,0,.84,0,1.19,0a2.94,2.94,0,0,0,.95-.22,2.41,2.41,0,0,0,.79-.52,4,4,0,0,0,.69-.94c.22-.37.45-.74.7-1.1a6.36,6.36,0,0,1,.8-1,4,4,0,0,1,1-.67,2.78,2.78,0,0,1,1.19-.25,2.07,2.07,0,0,1,1.62.81,15.71,15.71,0,0,1,1.33,1.81c.29.51.53.91.72,1.19a2.15,2.15,0,0,0,.62.62,1.79,1.79,0,0,0,.8.23c.31,0,.75,0,1.31,0h.3v3.89Zm-8.14-4.49a3.13,3.13,0,0,1-.15.32,1.87,1.87,0,0,0-.15.32,5.76,5.76,0,0,0,1.49.85,4,4,0,0,0,1.29.32c.27,0,.42-.1.45-.29a1.5,1.5,0,0,0,0-.65,4.06,4.06,0,0,0-.6-1.27,1.27,1.27,0,0,0-1.07-.64C185.76,417.23,185.36,417.58,185.05,418.27Z"/><path class="cls-1" d="M200.66,422.76a3,3,0,0,1-3.08-1.74,4.44,4.44,0,0,1-3.92,1.74h-.3a1.81,1.81,0,0,1-.52-.07c-.17,0-.25-.1-.25-.17v-3.38c0-.09.08-.15.25-.2a2.25,2.25,0,0,1,.52-.07h.17c1.67,0,2.51-.57,2.51-1.71v-1.34l2.74-.87v.84c0,2.06.67,3.08,2,3.08H201v3.89Zm-7.34-11.46L195,409l2.18,1.44,1.24-1.7,2.58,1.7-1.71,2.28-2.21-1.44L195.94,413Z"/><path class="cls-1" d="M200.23,419.14c0-.09.08-.15.25-.2a2.18,2.18,0,0,1,.52-.07h2.94c.72,0,1.3,0,1.75,0a8.25,8.25,0,0,0,1.45-.22,16.69,16.69,0,0,0,2-.6l3.16-1.19c-1.27-.36-2.25-.63-2.95-.8s-1.2-.33-1.54-.44a1.67,1.67,0,0,0-1.22.12,3.47,3.47,0,0,0-.95.78l-2.32-1.57a9.63,9.63,0,0,1,2-2.63,2.79,2.79,0,0,1,2.34-.59,23.07,23.07,0,0,1,2.28.47l2.35.64c.8.22,1.63.44,2.47.65s1.77.4,2.75.56l1.32.1,1.29.06-1,3.82q-.81-.06-1.41-.06a6,6,0,0,0-1.14.1,5.78,5.78,0,0,0-1.09.31,12,12,0,0,0-1.26.62c-1.13.65-2.08,1.21-2.83,1.68a16.19,16.19,0,0,1-2.19,1.17,10.48,10.48,0,0,1-2.36.7,18.86,18.86,0,0,1-3.34.24H201a1.77,1.77,0,0,1-.52-.07c-.17,0-.25-.1-.25-.17Zm10-12.36-2,2.68-2.78-1.88,2-2.71Z"/><path class="cls-1" d="M225.94,422.21a4.07,4.07,0,0,1-1.65-1.53,6.57,6.57,0,0,1-.8-2.31,21.33,21.33,0,0,1-.25-2.91c0-.49-.05-1.2-.07-2.11s0-1.91-.06-3-.05-2.17-.09-3.3-.06-2.17-.08-3.13l3.28-1.34v13.27a3.59,3.59,0,0,0,.6,2.26,2.36,2.36,0,0,0,2,.75v3.89A6.21,6.21,0,0,1,225.94,422.21Z"/><path class="cls-1" d="M228,419.14c0-.09.08-.15.25-.2a2.18,2.18,0,0,1,.52-.07h.33a2.26,2.26,0,0,0,1.51-.5,1.76,1.76,0,0,0,.6-1.44v-1l2.35-.81v1a3.77,3.77,0,0,0,.43,2,1.43,1.43,0,0,0,1.31.72c1.56,0,2.34-.7,2.34-2.11v-1.27l2.38-.7v1.67a2.61,2.61,0,0,0,.67,1.81,2.23,2.23,0,0,0,1.71.74,1.21,1.21,0,0,0,1.41-1.31,2.76,2.76,0,0,0-.34-1.32,3.11,3.11,0,0,0-.77-1l2.31-2.62a6.5,6.5,0,0,1,1.16,2.11,7.65,7.65,0,0,1,.38,2.42,7.5,7.5,0,0,1-.26,2,5.94,5.94,0,0,1-.79,1.77,4.21,4.21,0,0,1-1.31,1.28,3.35,3.35,0,0,1-1.79.48,5.11,5.11,0,0,1-2.26-.48,3.12,3.12,0,0,1-1.46-1.43,3.15,3.15,0,0,1-1.27,1.36,3.69,3.69,0,0,1-1.71.52,4.22,4.22,0,0,1-1.93-.44,3.25,3.25,0,0,1-1.35-1.3,3.22,3.22,0,0,1-1.61,1.34,5.56,5.56,0,0,1-2,.4,1.77,1.77,0,0,1-.52-.07c-.17,0-.25-.1-.25-.17Z"/><path class="cls-1" d="M268.66,426.75l-7.57,2-.23-1.2,7.5-2.11Z"/><path class="cls-1" d="M278.48,422.76a3.42,3.42,0,0,1-3.42-1.94c-.71,1-2.09,1.68-4.12,2.16a35.63,35.63,0,0,1-7.94.72q-4.81,0-7.2-1.46a4.54,4.54,0,0,1-2.38-4.07,6.82,6.82,0,0,1,.34-2.06,16.11,16.11,0,0,1,.93-2.33l2.48.74c-.18.4-.33.81-.47,1.22a4.15,4.15,0,0,0-.2,1.26,2,2,0,0,0,.71,1.61,4.69,4.69,0,0,0,1.84.85,12.28,12.28,0,0,0,2.6.33c1,0,1.94,0,2.93,0,.8,0,1.74,0,2.81,0a19.56,19.56,0,0,0,3.05-.31,8.25,8.25,0,0,0,2.43-.81,1.65,1.65,0,0,0,1-1.51v-.87l2.74-.87a14,14,0,0,0,.09,1.78,2.16,2.16,0,0,0,.35,1,1.37,1.37,0,0,0,.75.5,5.07,5.07,0,0,0,1.29.13h0v3.89ZM261,411.47l1.67-2.28,2.18,1.44,1.24-1.71,2.58,1.71L267,412.91l-2.21-1.44-1.14,1.71Z"/><path class="cls-1" d="M289.87,422.76a5.39,5.39,0,0,1-2.45-.55,4.32,4.32,0,0,1-1.74-1.73,7.61,7.61,0,0,1-2.71,1.71,9.62,9.62,0,0,1-3.35.57h-.5a1.77,1.77,0,0,1-.52-.07c-.17,0-.25-.1-.25-.17v-3.38c0-.09.08-.15.25-.2a2.18,2.18,0,0,1,.52-.07h.53c2.39,0,3.87-.42,4.42-1.27a2.57,2.57,0,0,0-1-.82,4,4,0,0,0-1.68-.29,4.39,4.39,0,0,1,.44-2,4,4,0,0,1,1.16-1.41,4.47,4.47,0,0,1,1.67-.8,7.7,7.7,0,0,1,2-.25,6,6,0,0,1,1.33.15,3.48,3.48,0,0,1,1.15.47,2.27,2.27,0,0,1,1.11,2.06,2.56,2.56,0,0,1-.2.93,5.09,5.09,0,0,1-.56,1,7.07,7.07,0,0,1-.8.95,8.09,8.09,0,0,1-.95.82c.22.32,1.06.47,2.51.47h1.54v3.89Z"/><path class="cls-1" d="M299.08,422.76A3,3,0,0,1,296,421a4.42,4.42,0,0,1-3.92,1.74h-.3a1.81,1.81,0,0,1-.52-.07c-.17,0-.25-.1-.25-.17v-3.38c0-.09.08-.15.25-.2a2.25,2.25,0,0,1,.52-.07H292c1.67,0,2.51-.57,2.51-1.71v-1.34l2.75-.87v.84c0,2.06.67,3.08,2,3.08h.2v3.89Zm-1.47-12.43-2,2.68-2.78-1.88,2-2.71Z"/><path class="cls-1" d="M298.65,419.14c0-.09.08-.15.25-.2a2.18,2.18,0,0,1,.52-.07h.87c.94,0,1.4-.55,1.4-1.67v-1.27l2.58-.74v.74a10,10,0,0,0,.1,1.49,2.41,2.41,0,0,0,.31.9,1,1,0,0,0,.52.44,2.48,2.48,0,0,0,.78.11h.2l2.16-2.43c.77-.85,1.57-1.65,2.38-2.39a14.09,14.09,0,0,1,2.5-1.83,5.06,5.06,0,0,1,2.51-.72,4.46,4.46,0,0,1,1.66.3,4.33,4.33,0,0,1,1.31.84,3.79,3.79,0,0,1,1.15,2.78,5.76,5.76,0,0,1-1,3.4,8.06,8.06,0,0,1-2.41,2.28,10.15,10.15,0,0,1-3.12,1.27,13.7,13.7,0,0,1-3.11.39H306a3.86,3.86,0,0,1-1.71-.4,2.31,2.31,0,0,1-1.18-1.34,3.48,3.48,0,0,1-3.11,1.74h-.6a1.77,1.77,0,0,1-.52-.07c-.17,0-.25-.1-.25-.17Zm16.18-4a4.34,4.34,0,0,0-2.67,1c-.88.7-1.88,1.59-3,2.68h.94l1,0q.65,0,1.44-.12a16.19,16.19,0,0,0,1.61-.25,9.86,9.86,0,0,0,1.5-.42,3.67,3.67,0,0,0,1.13-.63,1.2,1.2,0,0,0,.43-.93.88.88,0,0,0-.25-.65,1.79,1.79,0,0,0-.62-.4,4,4,0,0,0-.77-.22A5,5,0,0,0,314.83,415.15Z"/><path class="cls-1" d="M333,415.66a12.61,12.61,0,0,1,1.39,2.39,7,7,0,0,1,.52,2.83,6.47,6.47,0,0,1-.79,3.1,12,12,0,0,1-2,2.8,20.8,20.8,0,0,1-2.81,2.43,35.34,35.34,0,0,1-3.14,2L323.27,429c.73-.36,1.6-.83,2.59-1.41a25.28,25.28,0,0,0,2.85-1.91,15.51,15.51,0,0,0,2.31-2.12,3.24,3.24,0,0,0,1-2.06,3,3,0,0,0-.52-1.51c-.35-.56-.7-1.07-1.06-1.54Z"/><path class="cls-1" d="M349.3,417.47a6,6,0,0,1-.51,2.59,4.74,4.74,0,0,1-1.37,1.79,5.67,5.67,0,0,1-2,1,8.43,8.43,0,0,1-2.42.34,8.17,8.17,0,0,1-3.22-.57,5.58,5.58,0,0,1-2.18-1.61l1.61-2.91a4.86,4.86,0,0,0,3.25,1.17l1.36,0a7.14,7.14,0,0,0,1.42-.21,3,3,0,0,0,1.14-.53,1.26,1.26,0,0,0,.47-1,2.3,2.3,0,0,0-.61-1.37,9.53,9.53,0,0,0-1.44-1.48,19.91,19.91,0,0,0-1.69-1.29c-.57-.39-1-.67-1.35-.85l1.5-3.69Q349.3,412.54,349.3,417.47Z"/><path class="cls-2" d="M0,348.4c101.87,8.07,233.7-14.61,350-63V0H0Z"/></svg>