<svg id="Layer_1" data-name="Layer 1" xmlns="http://www.w3.org/2000/svg" viewBox="0 0 130 130.07"><defs><style>.cls-1{fill:#231f20;}.cls-2{fill:#58595b;}.cls-2,.cls-3{fill-rule:evenodd;}.cls-3{fill:#a6a8ab;}</style></defs><path class="cls-1" d="M7.42,116.55a4.23,4.23,0,0,1-1.53-.26,2.78,2.78,0,0,1-1.68-1.78A3.92,3.92,0,0,1,4,113.22,4.85,4.85,0,0,1,4.15,112a4.29,4.29,0,0,1,.47-1.13l1.13.4a4.86,4.86,0,0,0-.3.79,2.5,2.5,0,0,0-.11.76,2.06,2.06,0,0,0,.13.76,1.56,1.56,0,0,0,.39.61,2,2,0,0,0,.68.41,3.24,3.24,0,0,0,1,.14,3.34,3.34,0,0,0,1.1-.17,2.29,2.29,0,0,0,.8-.45,1.6,1.6,0,0,0,.48-.67,2.1,2.1,0,0,0,.16-.84,3.48,3.48,0,0,0-.65-1.92l1.28-1a5.76,5.76,0,0,1,.67,1.43,4.78,4.78,0,0,1,.22,1.43,4.18,4.18,0,0,1-.28,1.55,3.81,3.81,0,0,1-2.14,2.15A4.62,4.62,0,0,1,7.42,116.55Zm1-7.61-.91,1.22-1.26-.85.93-1.24Z"/><path class="cls-1" d="M13.23,113.36a2,2,0,0,1-.74-.69,2.9,2.9,0,0,1-.37-1A10.67,10.67,0,0,1,12,110.3q0-.35,0-1c0-.42,0-.87,0-1.36s0-1,0-1.5,0-1,0-1.42l1.49-.61v6a1.66,1.66,0,0,0,.28,1,1.07,1.07,0,0,0,.88.34v1.76A2.77,2.77,0,0,1,13.23,113.36Z"/><path class="cls-1" d="M20.79,113.61a2.44,2.44,0,0,1-.79-.14,1.74,1.74,0,0,1-.65-.42c-.05.14-.08.27-.12.39a.89.89,0,0,1-.15.29.69.69,0,0,1-.25.2,1.23,1.23,0,0,1-.43.06,2.32,2.32,0,0,1-.56-.07,3,3,0,0,1-.61-.22,4.75,4.75,0,0,1-.59-.31,3,3,0,0,1-.48-.36,2,2,0,0,1-.7.43,2.61,2.61,0,0,1-.94.15,1,1,0,0,1-.24,0c-.07,0-.11,0-.11-.07V112s0-.07.11-.09a1,1,0,0,1,.24,0l.54,0a1.18,1.18,0,0,0,.43-.1,1,1,0,0,0,.36-.23,1.7,1.7,0,0,0,.31-.43c.11-.17.21-.34.32-.5a3.19,3.19,0,0,1,.37-.43,1.8,1.8,0,0,1,.43-.31,1.19,1.19,0,0,1,.54-.11,1,1,0,0,1,.74.36,7.54,7.54,0,0,1,.6.82,4.6,4.6,0,0,0,.33.54,1,1,0,0,0,.28.29.81.81,0,0,0,.37.1l.59,0h.14v1.76Zm-3.7-2a1,1,0,0,1-.07.15l-.06.14a2.35,2.35,0,0,0,.67.39,1.74,1.74,0,0,0,.59.15c.12,0,.19-.05.2-.13a.63.63,0,0,0,0-.3,1.89,1.89,0,0,0-.27-.58.59.59,0,0,0-.49-.29C17.42,111.1,17.23,111.26,17.09,111.57Z"/><path class="cls-1" d="M24.18,113.61a1.36,1.36,0,0,1-1.4-.79,2,2,0,0,1-1.78.79h-.13a1,1,0,0,1-.24,0c-.07,0-.11,0-.11-.07V112s0-.07.11-.09a1,1,0,0,1,.24,0h.07q1.14,0,1.14-.78v-.61l1.25-.39v.38c0,.93.31,1.4.92,1.4h.09v1.76Zm-3.33-5.2.76-1,1,.66.57-.78,1.17.78-.78,1-1-.65-.52.77Z"/><path class="cls-1" d="M24,112s0-.07.11-.09a1,1,0,0,1,.24,0h1.34l.79,0a3.42,3.42,0,0,0,.66-.1,6.33,6.33,0,0,0,.88-.27l1.44-.54-1.34-.37-.7-.19a.73.73,0,0,0-.55,0,1.66,1.66,0,0,0-.44.36l-1.05-.72a4.46,4.46,0,0,1,.93-1.19,1.27,1.27,0,0,1,1.07-.27,9.4,9.4,0,0,1,1,.21l1.07.29,1.12.3c.39.1.8.18,1.25.25l.6,0c.2,0-.61,0-.41,0l.53,1.73-.64,0a2.78,2.78,0,0,0-.52,0,3.43,3.43,0,0,0-.5.14c-.16.07-.35.16-.57.28l-1.28.76a7.58,7.58,0,0,1-1,.54,4.78,4.78,0,0,1-1.07.32,9,9,0,0,1-1.52.1H24.34a1,1,0,0,1-.24,0c-.08,0-.11,0-.11-.07Zm4.55-5.62-.92,1.22-1.26-.85.93-1.23Z"/><path class="cls-1" d="M34.67,113.36a1.92,1.92,0,0,1-.75-.69,2.72,2.72,0,0,1-.36-1,9,9,0,0,1-.12-1.32q0-.35,0-1c0-.42,0-.87,0-1.36s0-1,0-1.5,0-1,0-1.42l1.49-.61v6a1.67,1.67,0,0,0,.27,1,1.09,1.09,0,0,0,.88.34v1.76A2.75,2.75,0,0,1,34.67,113.36Z"/><path class="cls-1" d="M35.6,112s0-.07.12-.09a.85.85,0,0,1,.23,0h.16a1,1,0,0,0,.68-.23.8.8,0,0,0,.27-.65v-.45l1.07-.36v.47a1.73,1.73,0,0,0,.2.89.64.64,0,0,0,.59.33c.71,0,1.07-.32,1.07-1v-.58l1.08-.32v.76a1.17,1.17,0,0,0,.3.82,1,1,0,0,0,.78.34.62.62,0,0,0,.49-.17.6.6,0,0,0,.15-.42,1.24,1.24,0,0,0-.16-.61,1.4,1.4,0,0,0-.35-.46l1-1.19a3,3,0,0,1,.53,1,3.42,3.42,0,0,1,.17,1.1,3.48,3.48,0,0,1-.12.9,3,3,0,0,1-.35.81,2,2,0,0,1-.6.58,1.58,1.58,0,0,1-.81.22,2.4,2.4,0,0,1-1-.22,1.43,1.43,0,0,1-.66-.65,1.51,1.51,0,0,1-.58.62,1.72,1.72,0,0,1-.78.23,1.8,1.8,0,0,1-.87-.2,1.41,1.41,0,0,1-.62-.59,1.37,1.37,0,0,1-.73.61,2.56,2.56,0,0,1-.93.18.85.85,0,0,1-.23,0c-.08,0-.12,0-.12-.07Z"/><path class="cls-1" d="M58.36,113.61a1.54,1.54,0,0,1-1.55-.88,3.19,3.19,0,0,1-1.87,1,16.13,16.13,0,0,1-3.61.33,6.4,6.4,0,0,1-3.27-.66A2.07,2.07,0,0,1,47,111.53a3.23,3.23,0,0,1,.15-.94,6.74,6.74,0,0,1,.43-1.06l1.12.34c-.08.18-.15.37-.21.55a1.9,1.9,0,0,0-.09.58.88.88,0,0,0,.32.73,2.06,2.06,0,0,0,.83.38,5.8,5.8,0,0,0,1.18.16l1.33,0,1.28,0a10,10,0,0,0,1.39-.15,3.84,3.84,0,0,0,1.1-.36.76.76,0,0,0,.45-.69v-.39l1.25-.4a6,6,0,0,0,0,.81,1,1,0,0,0,.16.47.6.6,0,0,0,.34.23,2.29,2.29,0,0,0,.58.06h0v1.76Zm-7.93-5.13.76-1,1,.65.57-.77,1.17.77-.78,1-1-.66-.52.78Z"/><path class="cls-1" d="M63.54,113.61a2.4,2.4,0,0,1-1.12-.25,2,2,0,0,1-.79-.78,3.42,3.42,0,0,1-1.23.77,4.19,4.19,0,0,1-1.52.26h-.23a1,1,0,0,1-.24,0c-.07,0-.11,0-.11-.07V112s0-.07.11-.09a1,1,0,0,1,.24,0h.24c1.09,0,1.76-.19,2-.58a1.15,1.15,0,0,0-.45-.37,1.81,1.81,0,0,0-.77-.13,2,2,0,0,1,.2-.92,1.75,1.75,0,0,1,.53-.64,2.15,2.15,0,0,1,.76-.37,3.82,3.82,0,0,1,.9-.11,2.48,2.48,0,0,1,.61.07,1.5,1.5,0,0,1,.52.21,1.3,1.3,0,0,1,.37.37,1.09,1.09,0,0,1,.13.57,1.14,1.14,0,0,1-.09.42,2.09,2.09,0,0,1-.25.46,4.82,4.82,0,0,1-.36.43,3.75,3.75,0,0,1-.44.37c.1.15.48.22,1.14.22h.7v1.76Z"/><path class="cls-1" d="M67.72,113.61a1.35,1.35,0,0,1-1.4-.79,2,2,0,0,1-1.78.79H64.4a.85.85,0,0,1-.23,0c-.08,0-.12,0-.12-.07V112s0-.07.12-.09a.85.85,0,0,1,.23,0h.08q1.14,0,1.14-.78v-.61l1.25-.39v.38c0,.93.3,1.4.91,1.4h.09v1.76ZM67.05,108l-.91,1.21-1.27-.85.93-1.23Z"/><path class="cls-1" d="M67.52,112s0-.07.12-.09a.85.85,0,0,1,.23,0h.4c.42,0,.64-.26.64-.76v-.58l1.17-.34v.34a3.31,3.31,0,0,0,0,.68,1.24,1.24,0,0,0,.13.41.45.45,0,0,0,.24.19.9.9,0,0,0,.36.06H71c.3-.35.63-.71,1-1.11A13.75,13.75,0,0,1,73,109.66a6.4,6.4,0,0,1,1.13-.83,2.31,2.31,0,0,1,1.14-.33,2.06,2.06,0,0,1,.76.14,1.78,1.78,0,0,1,1,.94,1.78,1.78,0,0,1,.14.7,2.64,2.64,0,0,1-.44,1.54,3.64,3.64,0,0,1-1.1,1,4.77,4.77,0,0,1-1.42.58,6.67,6.67,0,0,1-1.41.17H70.87a1.85,1.85,0,0,1-.78-.18,1,1,0,0,1-.53-.61,1.57,1.57,0,0,1-1.41.79h-.28a.85.85,0,0,1-.23,0c-.08,0-.12,0-.12-.07Zm7.35-1.81a2,2,0,0,0-1.21.47,16.26,16.26,0,0,0-1.36,1.22h.43l.43,0,.66,0c.23,0,.48-.06.73-.11a6.06,6.06,0,0,0,.68-.2,1.54,1.54,0,0,0,.51-.28.56.56,0,0,0,.2-.42.41.41,0,0,0-.12-.3.68.68,0,0,0-.28-.18,1.4,1.4,0,0,0-.35-.1Z"/><path class="cls-1" d="M80.94,110.39a5.56,5.56,0,0,1,.64,1.08,3.38,3.38,0,0,1,.23,1.29,3,3,0,0,1-.36,1.41,5.46,5.46,0,0,1-.92,1.27,9.85,9.85,0,0,1-1.28,1.1,15,15,0,0,1-1.43.92l-1.29-1c.34-.16.73-.37,1.18-.64a12.57,12.57,0,0,0,1.29-.86,7.68,7.68,0,0,0,1-1,1.47,1.47,0,0,0,.44-.94,1.3,1.3,0,0,0-.24-.68c-.16-.25-.32-.49-.48-.7Z"/><path class="cls-1" d="M88.36,111.21a2.82,2.82,0,0,1-.23,1.18,2.12,2.12,0,0,1-.63.81,2.59,2.59,0,0,1-.92.47,3.61,3.61,0,0,1-1.1.16,3.74,3.74,0,0,1-1.46-.26,2.56,2.56,0,0,1-1-.73l.73-1.33a2.19,2.19,0,0,0,1.48.53h.61a3.29,3.29,0,0,0,.65-.09,1.32,1.32,0,0,0,.52-.25.55.55,0,0,0,.21-.47,1.06,1.06,0,0,0-.27-.62,5.2,5.2,0,0,0-.66-.67c-.25-.21-.51-.41-.77-.59s-.46-.3-.61-.38l.68-1.68Q88.36,109,88.36,111.21Z"/><path class="cls-1" d="M104.33,113.61a2.81,2.81,0,0,1-1-.18,4.28,4.28,0,0,1-.9-.47,4.8,4.8,0,0,1-.77-.66,7.21,7.21,0,0,1-.62-.77,1.83,1.83,0,0,1-.33,1,2.67,2.67,0,0,1-.74.68,4.3,4.3,0,0,1-1,.44,6.67,6.67,0,0,1-1.16.25,9.17,9.17,0,0,1-1.13.11c-.36,0-.67,0-1,0q-4.41,0-4.41-2.58a4.53,4.53,0,0,1,.56-1.92l1.13.33a3,3,0,0,0-.34,1,1,1,0,0,0,.2.62,1.69,1.69,0,0,0,.5.41,2.88,2.88,0,0,0,.7.23,4.91,4.91,0,0,0,.77.1c.26,0,.5,0,.72,0h1.2l.82-.05c.29,0,.58-.07.88-.13s.57-.14.81-.22a2.07,2.07,0,0,0,.59-.33.66.66,0,0,0,.24-.47.81.81,0,0,0-.15-.38,5,5,0,0,0-.36-.51c-.15-.18-.31-.36-.49-.55l-.53-.54-.45-.46a1.76,1.76,0,0,1-.26-.3,3.18,3.18,0,0,1,0-.36,4,4,0,0,1,.09-.48c0-.16.09-.31.14-.45a.49.49,0,0,1,.2-.27A25.14,25.14,0,0,1,101,105.6c1.12-.41,2.45-.85,4-1.33l-.2,1.69c-1,.23-1.89.48-2.81.75s-1.82.59-2.71,1a.28.28,0,0,0-.15.1s0,.1.09.16c.38.3.78.63,1.18,1l1.28,1.2.67.63a5.84,5.84,0,0,0,.69.56,3.49,3.49,0,0,0,.74.39,2.28,2.28,0,0,0,.87.16h.7v1.76Zm.35-9.81-2.77.89-1.8.62-1.08.4-.59.26.16-.83c.51-.24,1.27-.54,2.29-.9s2.32-.81,3.89-1.33Z"/><path class="cls-1" d="M108.68,113.61a1.35,1.35,0,0,1-1.4-.79,2,2,0,0,1-1.78.79h-.14a1,1,0,0,1-.24,0c-.07,0-.11,0-.11-.07V112s0-.07.11-.09a1,1,0,0,1,.24,0h.08q1.14,0,1.14-.78v-.61l1.25-.39v.38c0,.93.3,1.4.91,1.4h.09v1.76ZM108,108l-.91,1.21-1.27-.85.93-1.23Z"/><path class="cls-1" d="M111,115.53l-.76,1-1-.66-.56.76-1.19-.76.81-1,1,.67.55-.78ZM108.48,112s0-.07.11-.09a1,1,0,0,1,.24,0h1c.51,0,.77-.12.77-.37a.5.5,0,0,0,0-.16,1.76,1.76,0,0,0-.12-.23c-.06-.1-.15-.23-.26-.38l-.44-.57,1-1.4a2.81,2.81,0,0,1,.74,1.05,3.73,3.73,0,0,1,.26,1.36,2.83,2.83,0,0,1-.2,1.09,2.09,2.09,0,0,1-.57.76,2.21,2.21,0,0,1-.84.46,3.6,3.6,0,0,1-1,.15h-.26a1,1,0,0,1-.24,0c-.07,0-.11,0-.11-.07Z"/><path class="cls-1" d="M119.7,113.61a2.52,2.52,0,0,1-1.24-.32,2.38,2.38,0,0,1-.89-.89,2.39,2.39,0,0,1-2.45,1.41A2.64,2.64,0,0,1,113,113l.55-1.4a1.91,1.91,0,0,0,.77.35,4.24,4.24,0,0,0,1.07.14,3.18,3.18,0,0,0,.62,0,1.93,1.93,0,0,0,.54-.14,1,1,0,0,0,.38-.25.5.5,0,0,0,.15-.37,1.05,1.05,0,0,0,0-.13l-.13-.38c-.06-.21-.17-.52-.32-.93s-.34-1-.6-1.74L117.2,107q.48,1.51.75,2.46a12.25,12.25,0,0,0,.52,1.47,1.9,1.9,0,0,0,.5.72,1.27,1.27,0,0,0,.71.19H120v1.76Z"/><path class="cls-1" d="M119.65,112s0-.07.12-.09a.85.85,0,0,1,.23,0h1c.51,0,.77-.12.77-.37a.5.5,0,0,0,0-.16,1.76,1.76,0,0,0-.12-.23c-.06-.1-.15-.23-.26-.38l-.44-.57,1-1.4a2.81,2.81,0,0,1,.74,1.05,3.73,3.73,0,0,1,.26,1.36,2.83,2.83,0,0,1-.2,1.09,2.09,2.09,0,0,1-.57.76,2.21,2.21,0,0,1-.84.46,3.51,3.51,0,0,1-1,.15H120a.85.85,0,0,1-.23,0c-.08,0-.12,0-.12-.07Zm2.77-5.11-.91,1.21-1.27-.85.93-1.23Z"/><path class="cls-1" d="M126.72,113.52a1.14,1.14,0,0,1-.3-.21,3.69,3.69,0,0,1-.51,1.22,5.73,5.73,0,0,1-.89,1.1,9.69,9.69,0,0,1-1.18,1c-.43.3-.87.58-1.33.85l-1.29-1q.48-.24,1.17-.63a14.62,14.62,0,0,0,1.31-.84,6.65,6.65,0,0,0,1.06-1,1.43,1.43,0,0,0,.43-.94.92.92,0,0,0-.09-.38c-.06-.13-.13-.26-.21-.4s-.17-.25-.25-.36l-.19-.27,1.17-1.27c.11.17.21.35.31.52a3.35,3.35,0,0,0,.31.46,1.48,1.48,0,0,0,.37.34.89.89,0,0,0,.47.13v1.76A.8.8,0,0,1,126.72,113.52Z"/><path class="cls-1" d="M126.73,112s0-.07.11-.09a1,1,0,0,1,.24,0h1c.52,0,.78-.12.78-.37a.5.5,0,0,0,0-.16,1.76,1.76,0,0,0-.12-.23c-.06-.1-.15-.23-.26-.38l-.44-.57,1-1.4a2.68,2.68,0,0,1,.73,1.05,3.55,3.55,0,0,1,.27,1.36,2.65,2.65,0,0,1-.21,1.09,2,2,0,0,1-.56.76,2.29,2.29,0,0,1-.84.46,3.6,3.6,0,0,1-1,.15h-.26a1,1,0,0,1-.24,0c-.07,0-.11,0-.11-.07Zm.33,4,.92-1.22,1.26.86-.93,1.23Z"/><path class="cls-1" d="M52.06,122.92a3.29,3.29,0,0,0-1.26-.18,1.81,1.81,0,0,0-.58.1,2.14,2.14,0,0,0-.55.26,1.63,1.63,0,0,0-.42.35.57.57,0,0,0-.17.38.27.27,0,0,0,.23.27,2.14,2.14,0,0,0,.58.09l.74.06a2.93,2.93,0,0,1,.75.15,1.37,1.37,0,0,1,.58.38,1.06,1.06,0,0,1,.23.73,2.82,2.82,0,0,1-.46,1.58,3.82,3.82,0,0,1-1.16,1.14,5.11,5.11,0,0,1-1.54.69,6,6,0,0,1-1.64.24,5.32,5.32,0,0,1-1.68-.24,3.16,3.16,0,0,1-1.19-.65,2.62,2.62,0,0,1-.71-1,3.19,3.19,0,0,1-.24-1.24,4.58,4.58,0,0,1,.18-1.23,4.86,4.86,0,0,1,.54-1.28l1.2.41a5.35,5.35,0,0,0-.36.83,3,3,0,0,0-.13.81,1.77,1.77,0,0,0,.15.73,1.51,1.51,0,0,0,.46.59,2.61,2.61,0,0,0,.82.39,4.08,4.08,0,0,0,1.18.15,4.83,4.83,0,0,0,1-.13,6.48,6.48,0,0,0,1.11-.32,4.34,4.34,0,0,0,.89-.44c.25-.17.37-.34.37-.5s-.06-.15-.18-.19a2.94,2.94,0,0,0-.48-.08l-.72-.06c-.27,0-.55,0-.86-.08a1.2,1.2,0,0,1-.77-.38,1.24,1.24,0,0,1-.25-.79,2.92,2.92,0,0,1,.3-1.3,3.83,3.83,0,0,1,.78-1.08,3.78,3.78,0,0,1,1.08-.74,3.06,3.06,0,0,1,1.24-.28,2.37,2.37,0,0,1,.65.09,2.4,2.4,0,0,1,.63.26Z"/><path class="cls-1" d="M55.08,123a6.11,6.11,0,0,1,.63,1.09,3.11,3.11,0,0,1,.24,1.28,3.65,3.65,0,0,1-.23,1.23,6.23,6.23,0,0,1-.64,1.26,7.8,7.8,0,0,1-1,1.19,7.7,7.7,0,0,1-1.3,1l-1.28-1a10.71,10.71,0,0,0,1-.67,9.31,9.31,0,0,0,1-.83,4.52,4.52,0,0,0,.76-.92,1.84,1.84,0,0,0,.3-1,1.37,1.37,0,0,0-.23-.69c-.16-.25-.32-.49-.48-.7Zm.62-2-.91,1.22-1.26-.86.92-1.23Z"/><path class="cls-1" d="M58.59,126a1.85,1.85,0,0,1-.75-.69,2.9,2.9,0,0,1-.37-1,10.67,10.67,0,0,1-.11-1.32q0-.34,0-1c0-.42,0-.87,0-1.36s0-1,0-1.5,0-1,0-1.42l1.5-.61v6a1.65,1.65,0,0,0,.27,1,1.09,1.09,0,0,0,.88.34v1.76A2.72,2.72,0,0,1,58.59,126Z"/><path class="cls-1" d="M59.52,124.58s0-.07.12-.09a.85.85,0,0,1,.23,0H60a1,1,0,0,0,.69-.23.8.8,0,0,0,.27-.65v-.45l1.07-.36v.47a1.63,1.63,0,0,0,.2.89.64.64,0,0,0,.59.33c.71,0,1.06-.32,1.06-1v-.58L65,122.6v.76a1.17,1.17,0,0,0,.3.82,1,1,0,0,0,.78.34.63.63,0,0,0,.49-.17.6.6,0,0,0,.15-.42,1.35,1.35,0,0,0-.16-.61,1.55,1.55,0,0,0-.35-.46l1-1.19a3,3,0,0,1,.53,1,3.72,3.72,0,0,1,.17,1.1,3.48,3.48,0,0,1-.12.9,2.7,2.7,0,0,1-.36.81,1.82,1.82,0,0,1-.59.58,1.49,1.49,0,0,1-.81.22,2.26,2.26,0,0,1-1-.22,1.39,1.39,0,0,1-.66-.65,1.51,1.51,0,0,1-.58.62,1.63,1.63,0,0,1-.78.23,1.92,1.92,0,0,1-.87-.19,1.49,1.49,0,0,1-.62-.6,1.41,1.41,0,0,1-.73.61,2.56,2.56,0,0,1-.93.18.85.85,0,0,1-.23,0c-.08,0-.12,0-.12-.07Z"/><path class="cls-1" d="M71.75,126.13a1.14,1.14,0,0,1-.3-.21,3.6,3.6,0,0,1-.51,1.22,6.13,6.13,0,0,1-.89,1.1,10.52,10.52,0,0,1-1.18,1c-.43.3-.87.59-1.33.85l-1.29-1q.48-.24,1.17-.63a14.62,14.62,0,0,0,1.31-.84,6.65,6.65,0,0,0,1.06-1,1.41,1.41,0,0,0,.43-.94.92.92,0,0,0-.09-.38c-.06-.13-.13-.26-.21-.4l-.25-.36c-.08-.11-.14-.2-.2-.27L70.65,123l.31.52a3.35,3.35,0,0,0,.31.46,1.48,1.48,0,0,0,.37.34.81.81,0,0,0,.47.13v1.76A.8.8,0,0,1,71.75,126.13Z"/><path class="cls-1" d="M77.3,126.22a1.12,1.12,0,0,0-.7.19.79.79,0,0,0-.34.42.68.68,0,0,0,0,.5.87.87,0,0,0,.44.4l-.52,1.64a5.75,5.75,0,0,1-2-1.28,4,4,0,0,1-1-1.87H72.11a1,1,0,0,1-.24,0c-.07,0-.11,0-.11-.07v-1.54s0-.07.11-.09a1,1,0,0,1,.24,0h1a5.69,5.69,0,0,1,.24-1.33,6.53,6.53,0,0,1,.45-1.12,3.31,3.31,0,0,1,.53-.78.78.78,0,0,1,.5-.29.7.7,0,0,1,.49.31,3.39,3.39,0,0,1,.45.75,5.66,5.66,0,0,1,.32.9,3.23,3.23,0,0,1,.12.78,2.94,2.94,0,0,1-.14.88,3.85,3.85,0,0,1-.38.79,2.38,2.38,0,0,1-.54.59,1.34,1.34,0,0,1-.64.28,1.8,1.8,0,0,0,.83.93,2.61,2.61,0,0,1,.14-1,3,3,0,0,1,.46-.87,2.28,2.28,0,0,1,.68-.6,1.58,1.58,0,0,1,.82-.22H78v1.76Zm-2.56-3.62q-.09,0-.18.15a2.75,2.75,0,0,0-.18.41,5,5,0,0,0-.14.58,3.69,3.69,0,0,0-.06.69l.38-.09a1.9,1.9,0,0,0,.36-.12.85.85,0,0,0,.25-.2.39.39,0,0,0,.1-.28,1.14,1.14,0,0,0,0-.32,2.92,2.92,0,0,0-.14-.38,1.8,1.8,0,0,0-.17-.31C74.85,122.65,74.79,122.6,74.74,122.6Z"/><path class="cls-1" d="M77.6,124.58s0-.07.12-.09a.85.85,0,0,1,.23,0h.15a1,1,0,0,0,.69-.23.8.8,0,0,0,.27-.65v-.45l1.07-.36v.47a1.63,1.63,0,0,0,.2.89.64.64,0,0,0,.59.33c.71,0,1.06-.32,1.06-1v-.58l1.09-.32v.76a1.17,1.17,0,0,0,.3.82,1,1,0,0,0,.78.34.63.63,0,0,0,.49-.17.6.6,0,0,0,.15-.42,1.35,1.35,0,0,0-.16-.61,1.55,1.55,0,0,0-.35-.46l1-1.19a3,3,0,0,1,.53,1,3.72,3.72,0,0,1,.17,1.1,3.48,3.48,0,0,1-.12.9,2.7,2.7,0,0,1-.36.81A1.82,1.82,0,0,1,85,126a1.49,1.49,0,0,1-.81.22,2.26,2.26,0,0,1-1-.22,1.39,1.39,0,0,1-.66-.65,1.51,1.51,0,0,1-.58.62,1.63,1.63,0,0,1-.78.23,1.92,1.92,0,0,1-.87-.19,1.49,1.49,0,0,1-.62-.6,1.41,1.41,0,0,1-.73.61,2.56,2.56,0,0,1-.93.18.85.85,0,0,1-.23,0c-.08,0-.12,0-.12-.07ZM80.77,121l.76-1,1,.66.56-.78,1.16.78-.76,1-1-.65-.53.78Zm.56-1.69.78-1,1.06.72-.74,1Z"/><path class="cls-1" d="M88.1,129.05c.33-.16.71-.37,1.15-.62s.87-.53,1.28-.82a7.54,7.54,0,0,0,1.06-.92,1.59,1.59,0,0,0,.47-.92,1.6,1.6,0,0,1-.47.17A2.28,2.28,0,0,1,91,126a1.41,1.41,0,0,1-1.64-1.52,3.23,3.23,0,0,1,.12-.85,2.67,2.67,0,0,1,.34-.81,2.18,2.18,0,0,1,.56-.61,1.32,1.32,0,0,1,.79-.24,1.45,1.45,0,0,1,1,.35,2.63,2.63,0,0,1,.63.86,4.42,4.42,0,0,1,.33,1.07,6.47,6.47,0,0,1,.09,1,3.66,3.66,0,0,1-.32,1.54,4.43,4.43,0,0,1-.84,1.25,8.08,8.08,0,0,1-1.23,1.07c-.46.33-1,.64-1.46.95Zm3.82-4.62a1.79,1.79,0,0,0-.3-.7.64.64,0,0,0-.53-.29.6.6,0,0,0-.45.2.65.65,0,0,0-.19.48.37.37,0,0,0,.22.37,1.23,1.23,0,0,0,.51.11,1.52,1.52,0,0,0,.42-.06A1.48,1.48,0,0,0,91.92,124.43Z"/><path class="cls-1" d="M104.78,122.92a3.29,3.29,0,0,0-1.26-.18,1.77,1.77,0,0,0-.58.1,2,2,0,0,0-.55.26,1.63,1.63,0,0,0-.42.35.57.57,0,0,0-.17.38.27.27,0,0,0,.23.27,2.14,2.14,0,0,0,.58.09l.74.06a3,3,0,0,1,.75.15,1.43,1.43,0,0,1,.58.38,1.06,1.06,0,0,1,.22.73,2.81,2.81,0,0,1-.45,1.58,3.94,3.94,0,0,1-1.16,1.14,5.23,5.23,0,0,1-1.54.69,6,6,0,0,1-1.64.24,5.32,5.32,0,0,1-1.68-.24,3.29,3.29,0,0,1-1.2-.65,2.59,2.59,0,0,1-.7-1,3.19,3.19,0,0,1-.24-1.24,4.58,4.58,0,0,1,.18-1.23,4.86,4.86,0,0,1,.54-1.28l1.2.41a5.35,5.35,0,0,0-.36.83,2.63,2.63,0,0,0-.13.81,1.77,1.77,0,0,0,.15.73,1.51,1.51,0,0,0,.46.59,2.55,2.55,0,0,0,.81.39,4.13,4.13,0,0,0,1.18.15,4.69,4.69,0,0,0,1.05-.13,6.34,6.34,0,0,0,1.12-.32,4.34,4.34,0,0,0,.89-.44c.25-.17.37-.34.37-.5s-.06-.15-.18-.19a3.15,3.15,0,0,0-.48-.08l-.72-.06c-.27,0-.56,0-.86-.08a1.2,1.2,0,0,1-.77-.38,1.19,1.19,0,0,1-.25-.79,2.92,2.92,0,0,1,.3-1.3,3.74,3.74,0,0,1,1.86-1.82,3.05,3.05,0,0,1,1.23-.28,2.39,2.39,0,0,1,.66.09,2.21,2.21,0,0,1,.62.26Z"/><path class="cls-1" d="M107.8,123a6.11,6.11,0,0,1,.63,1.09,3.29,3.29,0,0,1,.23,1.28,3.42,3.42,0,0,1-.23,1.23,5.71,5.71,0,0,1-.63,1.26,7.8,7.8,0,0,1-1,1.19,8.12,8.12,0,0,1-1.3,1l-1.28-1c.33-.19.68-.41,1-.67a10.38,10.38,0,0,0,1-.83,4.88,4.88,0,0,0,.76-.92,1.84,1.84,0,0,0,.3-1,1.3,1.3,0,0,0-.24-.69,6.14,6.14,0,0,0-.48-.7Z"/><path class="cls-1" d="M111.3,126a1.83,1.83,0,0,1-.74-.69,2.9,2.9,0,0,1-.37-1,10.67,10.67,0,0,1-.11-1.32q0-.34,0-1c0-.42,0-.87,0-1.36s0-1,0-1.5,0-1,0-1.42l1.49-.61v6a1.58,1.58,0,0,0,.28,1,1.07,1.07,0,0,0,.88.34v1.76A2.77,2.77,0,0,1,111.3,126Z"/><path class="cls-1" d="M118.86,126.22a2.2,2.2,0,0,1-.79-.14,1.78,1.78,0,0,1-.66-.42c0,.14-.07.27-.11.39a1.2,1.2,0,0,1-.15.3.79.79,0,0,1-.25.19,1.27,1.27,0,0,1-.43.06,2.32,2.32,0,0,1-.56-.07,2.79,2.79,0,0,1-.61-.22,4.75,4.75,0,0,1-.59-.31,2.71,2.71,0,0,1-.48-.35,2.14,2.14,0,0,1-.7.42,2.65,2.65,0,0,1-.94.15,1,1,0,0,1-.24,0c-.07,0-.11,0-.11-.07v-1.54s0-.07.11-.09a1,1,0,0,1,.24,0l.54,0a1.18,1.18,0,0,0,.43-.1,1.05,1.05,0,0,0,.36-.23,1.54,1.54,0,0,0,.31-.43c.1-.17.21-.34.32-.5a2.61,2.61,0,0,1,.37-.43,1.62,1.62,0,0,1,.43-.31,1.33,1.33,0,0,1,.54-.11,1,1,0,0,1,.74.36,6.81,6.81,0,0,1,.6.83q.19.35.33.54a.93.93,0,0,0,.28.28.81.81,0,0,0,.37.1l.59,0h.14v1.76Zm-3.7-2a.69.69,0,0,1-.07.15l-.07.14a2.31,2.31,0,0,0,.68.39,1.74,1.74,0,0,0,.59.15c.12,0,.19-.05.2-.13a.63.63,0,0,0,0-.3,1.89,1.89,0,0,0-.27-.58.6.6,0,0,0-.49-.29C115.49,123.71,115.3,123.87,115.16,124.18Z"/><path class="cls-1" d="M123.82,126.22a2.33,2.33,0,0,1-1.11-.25,1.91,1.91,0,0,1-.79-.78,3.6,3.6,0,0,1-1.23.77,4.24,4.24,0,0,1-1.53.26h-.22a.93.93,0,0,1-.24,0c-.08,0-.11,0-.11-.07v-1.54s0-.07.11-.09a.93.93,0,0,1,.24,0h.24c1.08,0,1.75-.19,2-.58a1.18,1.18,0,0,0-.46-.37,1.73,1.73,0,0,0-.76-.13,2,2,0,0,1,.2-.92,1.93,1.93,0,0,1,.52-.64,2.24,2.24,0,0,1,.76-.37,3.91,3.91,0,0,1,.91-.11,2.46,2.46,0,0,1,.6.07,1.55,1.55,0,0,1,.53.21,1.16,1.16,0,0,1,.36.37,1.12,1.12,0,0,1,.14.57,1.14,1.14,0,0,1-.09.42,2.6,2.6,0,0,1-.25.46,3,3,0,0,1-.37.43,5.08,5.08,0,0,1-.43.38q.15.21,1.14.21h.7v1.76Z"/><path class="cls-1" d="M124.34,124.58s0-.07.11-.09a1,1,0,0,1,.24,0,2.59,2.59,0,0,0,1-.18,1.28,1.28,0,0,0,.62-.52c.12-.2.24-.42.37-.66a5.06,5.06,0,0,1,.42-.64,2.23,2.23,0,0,1,.52-.5,1.28,1.28,0,0,1,.71-.2,1.12,1.12,0,0,1,.75.26,1.89,1.89,0,0,1,.51.61,3.34,3.34,0,0,1,.31,2.16,2.14,2.14,0,0,1-.21.6,1.55,1.55,0,0,1-.39.45.93.93,0,0,1-.57.19,2.25,2.25,0,0,1-1-.25,5.32,5.32,0,0,1-.88-.56,2.6,2.6,0,0,1-2.19,1,1,1,0,0,1-.24,0c-.07,0-.11,0-.11-.07Zm4-1.43c-.32-.05-.59.2-.81.76a2.68,2.68,0,0,0,.52.36,2.25,2.25,0,0,0,.55.19.24.24,0,0,0,.32-.21,1.2,1.2,0,0,0,0-.32,1.29,1.29,0,0,0-.1-.35,1.38,1.38,0,0,0-.19-.28A.52.52,0,0,0,128.31,123.15Z"/><path class="cls-2" d="M52.05,10.29c24.8,29.25-21.9,47.27-42.86,43.28C-18,47.23,20.73-26.64,52.05,10.29"/><path class="cls-3" d="M72.77,31.45c0,14.18,3.35,23,12.36,22.49C192.85,47.88,72.77-8.71,72.77,31.45"/><path d="M0,84.43a6.63,6.63,0,0,1,.67-3c.45-.89,1-1.78,1.5-2.68a1.74,1.74,0,0,1-.5-.39l1.38-2.63C6.53,78.42,8.28,81,8.28,83.4A6.29,6.29,0,0,1,8,85.3a4.54,4.54,0,0,1-.85,1.58A4.19,4.19,0,0,1,5.73,88a4.37,4.37,0,0,1-1.89.39A3.6,3.6,0,0,1,1,87.23,4,4,0,0,1,0,84.43Zm6-1a3,3,0,0,0-.78-2,13.73,13.73,0,0,0-1.71-1.7,15.1,15.1,0,0,0-1,2,5,5,0,0,0-.48,2,1.33,1.33,0,0,0,.62,1.21A2.38,2.38,0,0,0,4,85.26a2.33,2.33,0,0,0,1.38-.48A1.6,1.6,0,0,0,6,83.4Z"/><path d="M11.67,87.64a4.37,4.37,0,0,1-1.54-1.79,7.35,7.35,0,0,1-.64-2.49Q9.37,82,9.37,80.63V67l2.23-1.49,0,16.27a14,14,0,0,0,.07,1.46A3.24,3.24,0,0,0,12,84.46a2.16,2.16,0,0,0,.91.91,3.27,3.27,0,0,0,1.63.34v2.63A5.07,5.07,0,0,1,11.67,87.64Z"/><path d="M28.44,88.34A4.52,4.52,0,0,1,26.71,88a7,7,0,0,1-1.58-1,22.56,22.56,0,0,1-1.79-1.65C22.69,84.73,21.9,84,21,83.08a5.76,5.76,0,0,1-.48,2.49,4.26,4.26,0,0,1-1.32,1.61,5.13,5.13,0,0,1-2,.89,11,11,0,0,1-2.51.27h-.14a2.51,2.51,0,0,1-.55-.07q-.27-.08-.27-.18V86c0-.1.09-.16.27-.2a3.31,3.31,0,0,1,.55-.05q4.83,0,4.83-2.84a3.45,3.45,0,0,0-.6-1.89,12.15,12.15,0,0,0-1.41-1.75,20.1,20.1,0,0,0-1.59-1.51,9.61,9.61,0,0,1-1.19-1.14c0-.85.05-1.49.1-1.9A1.34,1.34,0,0,1,14.9,74a68.66,68.66,0,0,1,7.2-4.33,76.36,76.36,0,0,1,7.16-3.3L28.86,69l-1.56.71-2.2,1c-.81.39-1.64.81-2.5,1.25s-1.7.86-2.49,1.27-1.5.81-2.11,1.18a15.06,15.06,0,0,0-1.39.9q2.78,2.59,4.6,4.53t3.16,3.23a13.13,13.13,0,0,0,2.43,1.94,4.88,4.88,0,0,0,2.46.64h1v2.63Zm-1-22.88q-1.38.65-4.51,2.22t-8.06,4.21L15,70.33q3.66-2.06,6.77-3.71t5.77-3Z"/><path d="M29.43,86c0-.1.09-.16.27-.2a3.31,3.31,0,0,1,.55-.05H31a5.14,5.14,0,0,0,2.22-.41A1.36,1.36,0,0,0,34,84a2.63,2.63,0,0,0-.51-1.44c-.35-.5-.67-1-1-1.36l1.81-2a8.18,8.18,0,0,1,1.32,2.1,6.81,6.81,0,0,1,.49,2.45q0,4.54-5.32,4.55h-.57a2.51,2.51,0,0,1-.55-.07q-.27-.08-.27-.18Z"/><path d="M69.27,88.34A4.47,4.47,0,0,1,67.55,88,6.7,6.7,0,0,1,66,87q-.8-.66-1.77-1.65c-.65-.66-1.44-1.43-2.36-2.31v.18a3.36,3.36,0,0,1-.61,2,5.4,5.4,0,0,1-1.6,1.51,9.93,9.93,0,0,1-2.27,1.07,22.19,22.19,0,0,1-2.64.69,23.92,23.92,0,0,1-2.7.37c-.89.08-1.69.11-2.4.11-1,0-2-.08-3.13-.18a10.88,10.88,0,0,1-3-.67,5.44,5.44,0,0,1-2.24-1.58,4.34,4.34,0,0,1-.86-2.86,5,5,0,0,1,.3-1.79,5.59,5.59,0,0,1,.8-1.51l1.67.49a5.45,5.45,0,0,0-.54,1.28,4.7,4.7,0,0,0-.14,1.07A2.14,2.14,0,0,0,43.25,85a5.06,5.06,0,0,0,1.89.92,10.7,10.7,0,0,0,2.43.35c.88,0,1.67.06,2.38.06s1.26-.07,2-.13,1.49-.14,2.25-.26,1.49-.27,2.2-.45a10.52,10.52,0,0,0,1.92-.67,4.69,4.69,0,0,0,1.37-.93,1.67,1.67,0,0,0,.51-1.22,3.73,3.73,0,0,0-.67-1.83,12.38,12.38,0,0,0-1.39-1.71c-.52-.53-1-1-1.54-1.47s-.9-.82-1.16-1.1c0-.85.06-1.49.11-1.9s.13-.66.25-.73A62.17,62.17,0,0,1,63,69.62q3.76-2,7.14-3.3L69.73,69l-1.54.71q-1,.47-2.22,1c-.81.39-1.65.81-2.52,1.25s-1.71.86-2.49,1.27-1.49.81-2.11,1.18a10.44,10.44,0,0,0-1.37.9c1.85,1.73,3.37,3.24,4.58,4.53s2.26,2.37,3.16,3.23a13.51,13.51,0,0,0,2.45,1.94,4.78,4.78,0,0,0,2.42.64h1v2.63Z"/><path d="M70.26,86c0-.1.09-.16.27-.2a3.31,3.31,0,0,1,.55-.05h.71A5.14,5.14,0,0,0,74,85.3a1.35,1.35,0,0,0,.84-1.3,2.65,2.65,0,0,0-.52-1.44c-.34-.5-.67-1-1-1.36l1.81-2a8.18,8.18,0,0,1,1.32,2.1,6.81,6.81,0,0,1,.5,2.45q0,4.54-5.33,4.55h-.57a2.51,2.51,0,0,1-.55-.07q-.27-.08-.27-.18Z"/><path d="M111.46,88.35a3.79,3.79,0,0,1-2.08-.48,2.5,2.5,0,0,1-1-1.33A2.88,2.88,0,0,1,107,88a4.44,4.44,0,0,1-1.9.41,4.3,4.3,0,0,1-2-.46,3.38,3.38,0,0,1-1.44-1.39,3,3,0,0,1-1.37,1.37,4.28,4.28,0,0,1-2,.48,4.93,4.93,0,0,1-1-.11,3.15,3.15,0,0,1-1-.42,9,9,0,0,1-.47,3.55,8.93,8.93,0,0,1-1.76,3,8.67,8.67,0,0,1-2.91,2.14,9.52,9.52,0,0,1-4,.8,7.87,7.87,0,0,1-4.5-1.18,6.56,6.56,0,0,1-2.46-3,8.09,8.09,0,0,1-.5-4,11.3,11.3,0,0,1,1.42-4.3l1.7.78a14.27,14.27,0,0,0-.74,2.43,7.88,7.88,0,0,0-.18,2.22,4.38,4.38,0,0,0,.94,2.54,5,5,0,0,0,2,1.49,6.71,6.71,0,0,0,2.63.46,7,7,0,0,0,2.7-.55,6.51,6.51,0,0,0,2.24-1.54,5.2,5.2,0,0,0,1.28-2.5A7.5,7.5,0,0,0,93.63,87a9.14,9.14,0,0,0-1.42-3.14l2.06-1.49a11.28,11.28,0,0,0,1.6,2.38,3.09,3.09,0,0,0,2.2,1h.43a2.17,2.17,0,0,0,1.72-.64,3.83,3.83,0,0,0,.55-2.42v-.28l1.81-.68a12.12,12.12,0,0,0,.09,1.48,4.22,4.22,0,0,0,.36,1.29,2.34,2.34,0,0,0,.74.93,2.18,2.18,0,0,0,1.3.35,2.56,2.56,0,0,0,1.28-.28,2,2,0,0,0,.76-.77,3.36,3.36,0,0,0,.37-1.08,7.24,7.24,0,0,0,.11-1.24l1.67-.64a15.79,15.79,0,0,0,.07,1.61,3.52,3.52,0,0,0,.34,1.26,1.77,1.77,0,0,0,.8.82,3.08,3.08,0,0,0,1.45.29h.29v2.62Z"/><path d="M111.39,86c0-.09.09-.16.27-.19a2.45,2.45,0,0,1,.55,0h2.3a12.6,12.6,0,0,0,3-.31,14.12,14.12,0,0,0,2.38-.78c.73-.32,1.45-.67,2.15-1.06a24.82,24.82,0,0,1,2.25-1.12l-2.16-.93-1.57-.65c-.42-.18-.78-.32-1.06-.41a2.14,2.14,0,0,0-.68-.14,3.07,3.07,0,0,0-1.24.3,3.68,3.68,0,0,0-1.28,1l-1.6-.71a6.94,6.94,0,0,1,1.94-2.47,3.43,3.43,0,0,1,1.93-.8,5.47,5.47,0,0,1,2.45.66c.88.44,1.89.88,3,1.33.52.24,1,.43,1.42.59a10.09,10.09,0,0,0,1.3.37,9.87,9.87,0,0,0,1.42.21c.51.05,1.12.08,1.83.08l-.6,2.55a12.77,12.77,0,0,0-1.3.06q-.59,0-1.08.12a7.18,7.18,0,0,0-2.74,1c-.85.53-1.74,1.06-2.68,1.6a21.6,21.6,0,0,1-3.09,1.48,11,11,0,0,1-4,.65h-2.3a2,2,0,0,1-.55-.07c-.18,0-.27-.1-.27-.17Z"/><rect x="69.05" y="91.01" width="2.34" height="2.34" transform="translate(85.74 -22.66) rotate(45)"/><rect x="71.96" y="91.01" width="2.34" height="2.34" transform="translate(86.6 -24.71) rotate(45)"/><rect x="28.26" y="75.73" width="2.34" height="2.34" transform="translate(63 1.71) rotate(45)"/><path d="M85.51,101.31l-5.65,1.58-.21-1,5.62-1.69Z"/><path class="cls-1" d="M1.92,113.29H.08V112a3.71,3.71,0,0,1,.16-1.25,1.77,1.77,0,0,1,.49-.8,2.83,2.83,0,0,1,.87-.52l.25.65a1.44,1.44,0,0,0-1.07,1.39H1.92Z"/></svg>