<svg id="Layer_1" data-name="Layer 1" xmlns="http://www.w3.org/2000/svg" viewBox="0 0 140 61.67"><defs><style>.cls-1{fill:#fff;}</style></defs><path class="cls-1" d="M0,22.38a7,7,0,0,1,.73-3.27c.48-1,1-1.92,1.6-2.89a1.82,1.82,0,0,1-.53-.42L3.29,13q5.62,4.4,5.62,8.3a6.9,6.9,0,0,1-.3,2A5,5,0,0,1,7.69,25a4.4,4.4,0,0,1-1.51,1.14,4.78,4.78,0,0,1-2,.42A3.9,3.9,0,0,1,1.05,25.4,4.39,4.39,0,0,1,0,22.38Zm6.46-1.11a3.28,3.28,0,0,0-.84-2.15,15.81,15.81,0,0,0-1.83-1.83,15.09,15.09,0,0,0-1.13,2.12,5.31,5.31,0,0,0-.52,2.16,1.42,1.42,0,0,0,.67,1.3,2.57,2.57,0,0,0,1.49.4,2.51,2.51,0,0,0,1.49-.51A1.73,1.73,0,0,0,6.46,21.27Z"/><path class="cls-1" d="M12.57,25.84a4.69,4.69,0,0,1-1.66-1.93,8,8,0,0,1-.69-2.68c-.09-1-.13-2-.13-2.95V3.56L12.49,2l0,17.52c0,.53,0,1.06.07,1.57a3.71,3.71,0,0,0,.4,1.37,2.43,2.43,0,0,0,1,1,3.63,3.63,0,0,0,1.76.36v2.83A5.57,5.57,0,0,1,12.57,25.84Z"/><path class="cls-1" d="M30.63,26.58a4.78,4.78,0,0,1-1.86-.34,7.08,7.08,0,0,1-1.7-1,22.47,22.47,0,0,1-1.93-1.78q-1-1.07-2.55-2.49a6.22,6.22,0,0,1-.51,2.68,4.76,4.76,0,0,1-1.42,1.74,5.59,5.59,0,0,1-2.14,1,12.1,12.1,0,0,1-2.7.28h-.15a2.32,2.32,0,0,1-.59-.07c-.2-.05-.29-.12-.29-.19V24c0-.1.09-.17.29-.21a2.88,2.88,0,0,1,.59-.06q5.21,0,5.2-3.06a3.66,3.66,0,0,0-.65-2,12.85,12.85,0,0,0-1.51-1.9A21.31,21.31,0,0,0,17,15.15a12.07,12.07,0,0,1-1.28-1.23c0-.92.06-1.6.11-2s.13-.71.23-.79A72,72,0,0,1,23.8,6.43a80.39,80.39,0,0,1,7.71-3.56l-.43,2.91c-.41.17-1,.43-1.68.76L27,7.67c-.87.42-1.77.87-2.7,1.34l-2.67,1.37c-.86.45-1.62.87-2.28,1.27a16.44,16.44,0,0,0-1.49,1q3,2.79,4.95,4.88T26.25,21a13.4,13.4,0,0,0,2.61,2.08,5.21,5.21,0,0,0,2.65.69h1.06v2.83ZM29.55,2q-1.49.69-4.85,2.39T16,8.87l.16-1.68q3.93-2.22,7.28-4C25.68,2,27.76.94,29.67,0Z"/><path class="cls-1" d="M31.7,24c0-.1.09-.17.28-.21a2.88,2.88,0,0,1,.59-.06h.77a5.4,5.4,0,0,0,2.39-.44,1.46,1.46,0,0,0,.9-1.39,2.81,2.81,0,0,0-.56-1.55q-.55-.82-1-1.47L37,16.79a8.7,8.7,0,0,1,1.42,2.26,7.18,7.18,0,0,1,.53,2.64q0,4.89-5.73,4.89h-.62a2.32,2.32,0,0,1-.59-.07c-.19-.05-.28-.12-.28-.19Z"/><path class="cls-1" d="M74.6,26.58a4.78,4.78,0,0,1-1.86-.34,7,7,0,0,1-1.68-1,26,26,0,0,1-1.91-1.78q-1.05-1.07-2.55-2.49v.19A3.63,3.63,0,0,1,66,23.27a5.85,5.85,0,0,1-1.72,1.63,11,11,0,0,1-2.44,1.15,23.8,23.8,0,0,1-2.85.74A27.87,27.87,0,0,1,56,27.2c-1,.07-1.82.11-2.58.11-1.07,0-2.2-.09-3.37-.19a11.65,11.65,0,0,1-3.23-.73,5.78,5.78,0,0,1-2.41-1.7,4.65,4.65,0,0,1-.94-3.08,5.55,5.55,0,0,1,.33-1.93,6.19,6.19,0,0,1,.86-1.63l1.8.54A5.46,5.46,0,0,0,45.91,20a4.77,4.77,0,0,0-.15,1.14,2.31,2.31,0,0,0,.82,1.9,5.43,5.43,0,0,0,2,1,11.17,11.17,0,0,0,2.62.38c.94,0,1.8.06,2.56.06s1.36-.07,2.16-.13,1.62-.16,2.43-.29,1.61-.29,2.37-.48a10.9,10.9,0,0,0,2.07-.72,5.47,5.47,0,0,0,1.47-1,1.8,1.8,0,0,0,.55-1.32,4.13,4.13,0,0,0-.72-2,12.3,12.3,0,0,0-1.49-1.83c-.57-.58-1.12-1.11-1.67-1.59a16.92,16.92,0,0,1-1.24-1.19c0-.92.06-1.6.11-2s.14-.71.27-.79a65.77,65.77,0,0,1,7.69-4.66c2.7-1.41,5.27-2.59,7.69-3.56L75.1,5.78l-1.67.76c-.73.33-1.52.71-2.39,1.13L68.33,9c-1,.47-1.84.93-2.68,1.37s-1.6.87-2.28,1.27a12.39,12.39,0,0,0-1.47,1q3,2.79,4.93,4.88T70.24,21a14.09,14.09,0,0,0,2.64,2.08,5.06,5.06,0,0,0,2.6.69h1.07v2.83Z"/><path class="cls-1" d="M75.67,24c0-.1.09-.17.29-.21a2.81,2.81,0,0,1,.59-.06h.76a5.37,5.37,0,0,0,2.39-.44,1.46,1.46,0,0,0,.9-1.39,2.79,2.79,0,0,0-.55-1.55q-.55-.82-1-1.47l2-2.11a8.66,8.66,0,0,1,1.41,2.26,7.39,7.39,0,0,1,.54,2.64c0,3.26-1.92,4.89-5.74,4.89h-.61a2.27,2.27,0,0,1-.59-.07c-.2-.05-.29-.12-.29-.19Z"/><path class="cls-1" d="M120,26.6a4.1,4.1,0,0,1-2.24-.51,2.67,2.67,0,0,1-1.09-1.44,3.11,3.11,0,0,1-1.48,1.55,4.76,4.76,0,0,1-2,.44,4.58,4.58,0,0,1-2.16-.5,3.7,3.7,0,0,1-1.55-1.49A3.15,3.15,0,0,1,108,26.12a4.52,4.52,0,0,1-2.12.52,5.8,5.8,0,0,1-1.11-.11,3.4,3.4,0,0,1-1.07-.46,9.82,9.82,0,0,1-.51,3.82,9.56,9.56,0,0,1-1.9,3.27,9.26,9.26,0,0,1-3.13,2.3,10.24,10.24,0,0,1-4.29.86A8.46,8.46,0,0,1,89,35.06a7.11,7.11,0,0,1-2.65-3.26,8.75,8.75,0,0,1-.54-4.36,12.23,12.23,0,0,1,1.53-4.62l1.84.84a15.39,15.39,0,0,0-.81,2.62,8.71,8.71,0,0,0-.19,2.39,4.7,4.7,0,0,0,1,2.73A5.37,5.37,0,0,0,91.42,33a7.51,7.51,0,0,0,2.84.5,7.75,7.75,0,0,0,2.9-.6,6.9,6.9,0,0,0,2.41-1.66,5.53,5.53,0,0,0,1.38-2.7,8.1,8.1,0,0,0-.12-3.38,9.92,9.92,0,0,0-1.53-3.39l2.22-1.6a12.33,12.33,0,0,0,1.72,2.56,3.31,3.31,0,0,0,2.38,1h.45a2.32,2.32,0,0,0,1.86-.69,4.1,4.1,0,0,0,.59-2.6v-.3l2-.73a12,12,0,0,0,.1,1.59,4.43,4.43,0,0,0,.38,1.39,2.63,2.63,0,0,0,.8,1,2.35,2.35,0,0,0,1.4.38,2.71,2.71,0,0,0,1.38-.31,2.09,2.09,0,0,0,.82-.82,3.79,3.79,0,0,0,.4-1.16,7.42,7.42,0,0,0,.12-1.34l1.79-.69c0,.64,0,1.22.08,1.74a3.94,3.94,0,0,0,.36,1.36,2,2,0,0,0,.86.88,3.45,3.45,0,0,0,1.57.3h.31V26.6Z"/><path class="cls-1" d="M120,24c0-.1.09-.17.28-.21a3,3,0,0,1,.6-.06h2.48a14.55,14.55,0,0,0,3.22-.32,15.68,15.68,0,0,0,2.56-.84c.79-.35,1.56-.73,2.31-1.15s1.57-.82,2.43-1.21l-2.33-1-1.68-.71c-.46-.19-.85-.34-1.15-.44A2.54,2.54,0,0,0,128,18a3.43,3.43,0,0,0-1.34.32,4,4,0,0,0-1.37,1.09l-1.72-.76A7.33,7.33,0,0,1,125.6,16a3.69,3.69,0,0,1,2.08-.86,6,6,0,0,1,2.64.71c1,.47,2,.95,3.25,1.43.56.26,1.08.47,1.53.63a10.1,10.1,0,0,0,1.4.4,11.2,11.2,0,0,0,1.53.23c.55.05,1.2.08,2,.08l-.65,2.75c-.51,0-1,0-1.4.06s-.8.08-1.16.14a7.72,7.72,0,0,0-2.95,1.07c-.92.56-1.88,1.13-2.89,1.72a23.79,23.79,0,0,1-3.32,1.58,11.69,11.69,0,0,1-4.31.71h-2.48a2.4,2.4,0,0,1-.6-.07c-.19-.05-.28-.12-.28-.2Z"/><rect class="cls-1" x="74.36" y="29.46" width="2.52" height="2.52" transform="translate(43.87 -44.47) rotate(45)"/><rect class="cls-1" x="77.5" y="29.46" width="2.52" height="2.52" transform="translate(44.79 -46.69) rotate(45)"/><rect class="cls-1" x="30.44" y="13.01" width="2.52" height="2.52" transform="translate(19.37 -18.23) rotate(45)"/><path class="cls-1" d="M92.09,40.55,86,42.25l-.23-1.06,6.06-1.82Z"/><path class="cls-1" d="M1.79,55.08H0V53.29H1.79Z"/><path class="cls-1" d="M10.53,55.08a2.73,2.73,0,0,1-1.38-.36,2.61,2.61,0,0,1-1-1A2.65,2.65,0,0,1,5.43,55.3a2.94,2.94,0,0,1-2.38-.89l.61-1.56a2.23,2.23,0,0,0,.86.39,4.68,4.68,0,0,0,1.19.15,5.34,5.34,0,0,0,.69,0,2.38,2.38,0,0,0,.6-.16,1.1,1.1,0,0,0,.42-.28.56.56,0,0,0,.16-.41.42.42,0,0,0,0-.14c0-.06-.06-.21-.14-.43s-.19-.57-.35-1S6.68,49.78,6.4,49l1.35-1.21c.35,1.12.63,2,.84,2.74a13,13,0,0,0,.58,1.63,1.89,1.89,0,0,0,.56.8,1.31,1.31,0,0,0,.78.21h.36v2Z"/><path class="cls-1" d="M14.56,55.08A1.51,1.51,0,0,1,13,54.2a2.21,2.21,0,0,1-2,.88h-.15a1.09,1.09,0,0,1-.26,0c-.09,0-.13,0-.13-.08V53.25s0-.07.13-.1a1.09,1.09,0,0,1,.26,0H11c.85,0,1.27-.29,1.27-.86v-.68l1.39-.44v.42q0,1.56,1,1.56h.1v2Zm-.74-6.28-1,1.36-1.41-.95,1-1.37Z"/><path class="cls-1" d="M14.34,53.25s0-.07.13-.1a1.09,1.09,0,0,1,.26,0h.51c1.88,0,2.83-.23,2.83-.69a1.08,1.08,0,0,0-.29-.6,6.82,6.82,0,0,0-.71-.73c-.29-.26-.59-.51-.91-.75l-.87-.65a2.64,2.64,0,0,1-.32-.24.63.63,0,0,1-.17-.21.51.51,0,0,1-.05-.25,3,3,0,0,1,0-.38c0-.11,0-.23.05-.39a4.14,4.14,0,0,1,.09-.46,2.41,2.41,0,0,1,.16-.43.5.5,0,0,1,.23-.26,24.4,24.4,0,0,1,2.82-1.22c1.18-.43,2.59-.89,4.24-1.38l-.22,2c-1,.21-2,.44-2.92.7a24.93,24.93,0,0,0-2.81.92c-.2.08-.23.17-.1.27l1.12.81a8.73,8.73,0,0,1,1,.88,4,4,0,0,1,.74,1,2.7,2.7,0,0,1,.28,1.25,2.33,2.33,0,0,1-.41,1.45,2.52,2.52,0,0,1-1,.84,4.67,4.67,0,0,1-1.39.38,12.1,12.1,0,0,1-1.44.09h-.46a1.09,1.09,0,0,1-.26,0c-.09,0-.13,0-.13-.08Z"/><path class="cls-1" d="M29.27,55.08a1.22,1.22,0,0,1,.06.6,2.11,2.11,0,0,1-.18.61A3.33,3.33,0,0,1,28,57.57a5.2,5.2,0,0,1-1.67.77,5.69,5.69,0,0,1-1.89.19,4.8,4.8,0,0,1-1.77-.44A3.38,3.38,0,0,1,21.4,57a3.08,3.08,0,0,1-.51-1.82,4.94,4.94,0,0,1,.22-1.45,7.5,7.5,0,0,1,.56-1.29l1.29.45a9.79,9.79,0,0,0-.39,1,2.85,2.85,0,0,0-.19,1,1.92,1.92,0,0,0,.26,1,1.66,1.66,0,0,0,.67.62,2.67,2.67,0,0,0,1,.26,4.89,4.89,0,0,0,1.08,0,5.31,5.31,0,0,0,1-.23,4.54,4.54,0,0,0,.91-.36c.21-.11.33-.21.34-.28s0-.13-.14-.16l-1.84-.63a2.53,2.53,0,0,1,.11-.33c0-.13.1-.26.16-.4s.11-.28.17-.41a1.27,1.27,0,0,1,.17-.31,1.1,1.1,0,0,1,.39-.41,1.19,1.19,0,0,1,.57-.1h2.12v2Z"/><path class="cls-1" d="M29,53.25s0-.07.13-.1a1.09,1.09,0,0,1,.26,0,3,3,0,0,0,1.16-.2,1.34,1.34,0,0,0,.68-.58c.14-.22.28-.47.42-.73a5.21,5.21,0,0,1,.46-.72,2.56,2.56,0,0,1,.59-.55,1.44,1.44,0,0,1,.79-.22,1.32,1.32,0,0,1,.83.28,2.21,2.21,0,0,1,.56.69,3.62,3.62,0,0,1,.32.87,4.54,4.54,0,0,1,.1.84,4.24,4.24,0,0,1-.07.68,2.31,2.31,0,0,1-.24.67,1.52,1.52,0,0,1-.43.51,1,1,0,0,1-.63.2,2.42,2.42,0,0,1-1.13-.28,5.36,5.36,0,0,1-1-.61,3.33,3.33,0,0,1-1,.83,3.18,3.18,0,0,1-1.42.28,1.09,1.09,0,0,1-.26,0C29,55,29,55,29,55Zm4.42-1.59c-.36,0-.66.23-.9.85a2.39,2.39,0,0,0,.58.4,1.93,1.93,0,0,0,.61.21.27.27,0,0,0,.35-.24,1.07,1.07,0,0,0,0-.35,1.41,1.41,0,0,0-.11-.38,1.21,1.21,0,0,0-.22-.32A.58.58,0,0,0,33.39,51.66Z"/><path class="cls-1" d="M46.45,55.08A4.09,4.09,0,0,1,46,56.67a4.2,4.2,0,0,1-1,1.2,4.08,4.08,0,0,1-1.33.76,4.54,4.54,0,0,1-1.57.26,4.29,4.29,0,0,1-1.43-.23,3.36,3.36,0,0,1-1.2-.67,3.15,3.15,0,0,1-.82-1.11,3.51,3.51,0,0,1-.31-1.53,5.7,5.7,0,0,1,.21-1.53,11.34,11.34,0,0,1,.55-1.5l1.29.46A7.89,7.89,0,0,0,40,53.87a3.88,3.88,0,0,0-.18,1.18,3.15,3.15,0,0,0,.12.87,1.85,1.85,0,0,0,1.11,1.21,2.66,2.66,0,0,0,1.07.19,4.33,4.33,0,0,0,1.13-.15,3,3,0,0,0,1-.42,2.26,2.26,0,0,0,.71-.7,2,2,0,0,0,.29-1H45.1A10.13,10.13,0,0,1,44,55a2.57,2.57,0,0,1-.9-.28,1.4,1.4,0,0,1-.57-.61,2.26,2.26,0,0,1-.21-1,3.62,3.62,0,0,1,.12-.87,3.4,3.4,0,0,1,.36-.88,2.25,2.25,0,0,1,.58-.68,1.22,1.22,0,0,1,.8-.28,1.6,1.6,0,0,1,.94.28,2.52,2.52,0,0,1,.7.68,3.91,3.91,0,0,1,.45.89,5,5,0,0,1,.22.89h.93v2ZM42.19,48.6,43,47.45l1.1.73.63-.87,1.3.87-.86,1.15-1.12-.73-.57.86Zm2.93,4.52a1.62,1.62,0,0,0-.33-.86.85.85,0,0,0-.66-.33.6.6,0,0,0-.47.22.8.8,0,0,0-.19.5.48.48,0,0,0,.07.27.4.4,0,0,0,.25.14,2.08,2.08,0,0,0,.5,0Z"/><path class="cls-1" d="M50.31,54.86a1.9,1.9,0,0,1-.81-.64,1.84,1.84,0,0,1-.81.64,3.3,3.3,0,0,1-1.32.22,1.09,1.09,0,0,1-.26,0C47,55,47,55,47,55V53.25s0-.07.13-.1a1.09,1.09,0,0,1,.26,0h.22a3.1,3.1,0,0,0,.68-.06.66.66,0,0,0,.57-.61,3.94,3.94,0,0,0,0-.63c0-.13,0-.42,0-.88s0-1,0-1.61,0-1.25-.06-1.92,0-1.29-.05-1.84l1.68-.68V51.6a1.85,1.85,0,0,0,.29,1.14,1.18,1.18,0,0,0,1,.38v2A3.32,3.32,0,0,1,50.31,54.86Z"/><path class="cls-1" d="M51.25,53.25s0-.07.12-.1l.27,0h1.49l.88,0a4.18,4.18,0,0,0,.73-.11,8.38,8.38,0,0,0,1-.3l1.6-.6-1.49-.41c-.35-.09-.61-.16-.77-.22a.81.81,0,0,0-.62.06,1.65,1.65,0,0,0-.48.4l-1.17-.8a4.83,4.83,0,0,1,1-1.33A1.41,1.41,0,0,1,55,49.5a9.51,9.51,0,0,1,1.16.23l1.18.33,1.25.33c.43.1.9.2,1.39.27l.67.06.65,0-.52,1.93-.71,0a2.67,2.67,0,0,0-.58.05,2.42,2.42,0,0,0-.55.16,4,4,0,0,0-.63.31c-.58.33-1.06.61-1.43.85a10,10,0,0,1-1.11.59,5.27,5.27,0,0,1-1.2.36,10.76,10.76,0,0,1-1.68.11H51.64a1.24,1.24,0,0,1-.27,0c-.08,0-.12,0-.12-.08ZM56.31,47l-1,1.35-1.4-1,1-1.37Z"/><path class="cls-1" d="M71.71,55.08a2.79,2.79,0,0,1-1.38-.36,2.61,2.61,0,0,1-1-1,2.64,2.64,0,0,1-2.72,1.57,3,3,0,0,1-2.39-.89l.61-1.56a2.23,2.23,0,0,0,.86.39,4.68,4.68,0,0,0,1.19.15,5.34,5.34,0,0,0,.69,0,2.38,2.38,0,0,0,.6-.16,1.1,1.1,0,0,0,.42-.28.57.57,0,0,0,.17-.41.5.5,0,0,0,0-.14c0-.06-.06-.21-.14-.43s-.19-.57-.35-1-.39-1.1-.67-1.93l1.36-1.21.83,2.74a13,13,0,0,0,.58,1.63,1.89,1.89,0,0,0,.56.8,1.31,1.31,0,0,0,.78.21h.36v2Z"/><path class="cls-1" d="M71.49,57.71l1-1.36,1.4.95-1,1.37Zm.17-4.46s0-.07.13-.1a1.09,1.09,0,0,1,.26,0h1.12c.57,0,.86-.14.86-.41a.55.55,0,0,0,0-.17,2.41,2.41,0,0,0-.14-.27,4.13,4.13,0,0,0-.29-.41c-.12-.17-.28-.38-.49-.64l1.1-1.55A2.84,2.84,0,0,1,75,50.83a4,4,0,0,1,.3,1.51,3,3,0,0,1-.23,1.21,2.38,2.38,0,0,1-.62.86,2.74,2.74,0,0,1-.94.5,3.68,3.68,0,0,1-1.17.17h-.29a1.09,1.09,0,0,1-.26,0c-.09,0-.13,0-.13-.08Z"/><path class="cls-1" d="M78.45,54.86l-1.73.46V45.57l1.73-.68Z"/><path class="cls-1" d="M83,54.8a2,2,0,0,1-.83-.77,3.25,3.25,0,0,1-.41-1.16,11.23,11.23,0,0,1-.12-1.48c0-.25,0-.6,0-1.06s0-1,0-1.51,0-1.1,0-1.67,0-1.1,0-1.58l1.66-.68V51.6a1.78,1.78,0,0,0,.31,1.14,1.19,1.19,0,0,0,1,.38v2A3,3,0,0,1,83,54.8Z"/><path class="cls-1" d="M84,53.25s0-.07.13-.1a1.09,1.09,0,0,1,.26,0h1.12c.57,0,.86-.14.86-.41a.55.55,0,0,0,0-.17,2.41,2.41,0,0,0-.14-.27,4.13,4.13,0,0,0-.29-.41c-.12-.17-.28-.38-.49-.64l1.1-1.55a2.84,2.84,0,0,1,.82,1.16,4,4,0,0,1,.3,1.51,3,3,0,0,1-.23,1.21,2.38,2.38,0,0,1-.62.86,2.74,2.74,0,0,1-.94.5,3.76,3.76,0,0,1-1.17.17h-.29a1.09,1.09,0,0,1-.26,0C84,55,84,55,84,55Zm.12-5.19L85,46.91l1.1.72.62-.86,1.31.86-.87,1.16L86,48.06l-.57.86Z"/><path class="cls-1" d="M96.24,55.08a1.86,1.86,0,0,1-1.33-.4,2.37,2.37,0,0,1-.59-1.22,1.69,1.69,0,0,1-.76.42,3.62,3.62,0,0,1-1.1.17,2.67,2.67,0,0,1-.64-.07,1.67,1.67,0,0,1-.55-.22,1.09,1.09,0,0,1-.39-.38,1,1,0,0,1-.15-.57q0-1.79,2.75-3.42l-.15-.72,1.23-1.26.9,4.51a1.93,1.93,0,0,0,.39.93,1.22,1.22,0,0,0,.91.27v2Zm-2.49-4.35a3.38,3.38,0,0,0-.67.33,2.5,2.5,0,0,0-.64.54c-.18.22-.22.39-.14.5a.76.76,0,0,0,.57.16,4.37,4.37,0,0,0,.64,0A1.27,1.27,0,0,0,94,52Z"/><path class="cls-1" d="M105.5,55.08c-1.29,0-2-.8-2-2.42a9.41,9.41,0,0,0-1.08.74,12.49,12.49,0,0,1-1.08.79,6.87,6.87,0,0,1-1.24.63,4,4,0,0,1-1.53.26H96.76a1.09,1.09,0,0,1-.26,0c-.08,0-.13,0-.13-.08V53.25s0-.07.13-.1a1.09,1.09,0,0,1,.26,0h1.58a5.4,5.4,0,0,0,2.06-.41,7.26,7.26,0,0,0,.94-.44c.31-.17.63-.35,1-.56l-.66-.11-.69-.12-.59-.1-.38,0a.58.58,0,0,0-.4.18,2.49,2.49,0,0,0-.4.5l-1.25-.59c.52-1.31,1.12-2,1.81-2a5.78,5.78,0,0,1,1.09.14l1.44.3c.51.12,1,.22,1.61.31a10.25,10.25,0,0,0,1.64.13,5.18,5.18,0,0,0,.76-.05l-.22,1.88a4.5,4.5,0,0,0-1.53.22.77.77,0,0,0,.39.61,2.32,2.32,0,0,0,.85.12h1.29v2Zm-1.37,2.14-.85,1.15-1.1-.73-.63.85-1.3-.85.88-1.17,1.1.75.61-.87Zm-.61,1.86-.87,1.13-1.2-.81.83-1.12Z"/><path class="cls-1" d="M106.67,53.25s0-.07.12-.1l.27,0h1.11c.58,0,.87-.14.87-.41a.38.38,0,0,0,0-.17,1.25,1.25,0,0,0-.13-.27c-.07-.11-.17-.25-.29-.41s-.29-.38-.49-.64l1.1-1.55a2.94,2.94,0,0,1,.82,1.16,4,4,0,0,1,.3,1.51,3,3,0,0,1-.23,1.21,2.29,2.29,0,0,1-.63.86,2.65,2.65,0,0,1-.94.5,3.68,3.68,0,0,1-1.17.17h-.28a1.24,1.24,0,0,1-.27,0c-.08,0-.12,0-.12-.08Zm3.08-5.68-1,1.35-1.4-1,1-1.37Z"/><path class="cls-1" d="M115.39,43.16a2.89,2.89,0,0,1-.84.83,2.12,2.12,0,0,1-1.09.31,3.35,3.35,0,0,1-.76-.09,5.07,5.07,0,0,0-.76-.14,2.29,2.29,0,0,0-.74,0,1.28,1.28,0,0,0-.66.42l-.57-.78a2.06,2.06,0,0,1,.79-.63,1.88,1.88,0,0,1,.77-.14,4.71,4.71,0,0,1,.81.1,5,5,0,0,0,.9.11,2,2,0,0,0,1.74-.79Zm-1.93,11.7-1.73.46V45.57l1.73-.68Z"/><path class="cls-1" d="M123.24,60.67l-3.83,1-.12-.61,3.8-1.07Z"/><path class="cls-1" d="M125.15,55.08a4.27,4.27,0,0,1-.46,1.59,4.37,4.37,0,0,1-1,1.2,4.08,4.08,0,0,1-1.33.76,4.58,4.58,0,0,1-1.57.26,4.25,4.25,0,0,1-1.43-.23,3.49,3.49,0,0,1-1.21-.67,3.42,3.42,0,0,1-.82-1.11,3.66,3.66,0,0,1-.3-1.53,5.7,5.7,0,0,1,.21-1.53,10.08,10.08,0,0,1,.55-1.5l1.29.46a9.46,9.46,0,0,0-.42,1.09,3.88,3.88,0,0,0-.18,1.18,3.16,3.16,0,0,0,.13.87,1.85,1.85,0,0,0,1.11,1.21,2.63,2.63,0,0,0,1.07.19,4.33,4.33,0,0,0,1.13-.15,3.15,3.15,0,0,0,1-.42,2.23,2.23,0,0,0,.7-.7,1.87,1.87,0,0,0,.29-1h-.13a10.13,10.13,0,0,1-1.15-.06,2.57,2.57,0,0,1-.9-.28,1.48,1.48,0,0,1-.58-.61,2.41,2.41,0,0,1-.2-1,3.62,3.62,0,0,1,.12-.87,3.76,3.76,0,0,1,.35-.88,2.44,2.44,0,0,1,.59-.68,1.22,1.22,0,0,1,.8-.28,1.6,1.6,0,0,1,.94.28,2.52,2.52,0,0,1,.7.68,3.89,3.89,0,0,1,.44.89,3.72,3.72,0,0,1,.22.89h.94v2Zm-4.26-6.48.84-1.15,1.1.73.63-.87,1.3.87-.86,1.15-1.12-.73-.57.86Zm2.92,4.52a1.48,1.48,0,0,0-.33-.86.82.82,0,0,0-.65-.33.6.6,0,0,0-.47.22.75.75,0,0,0-.19.5.41.41,0,0,0,.07.27.38.38,0,0,0,.24.14,2.14,2.14,0,0,0,.5,0Z"/><path class="cls-1" d="M129,54.86a1.84,1.84,0,0,1-.81-.64,1.9,1.9,0,0,1-.81.64,3.3,3.3,0,0,1-1.32.22,1.24,1.24,0,0,1-.27,0c-.08,0-.12,0-.12-.08V53.25s0-.07.12-.1l.27,0h.22a3.1,3.1,0,0,0,.68-.06.66.66,0,0,0,.57-.61,3.94,3.94,0,0,0,0-.63c0-.13,0-.42,0-.88s0-1,0-1.61,0-1.25-.06-1.92,0-1.29,0-1.84l1.67-.68V51.6a1.84,1.84,0,0,0,.3,1.14,1.17,1.17,0,0,0,1,.38v2A3.3,3.3,0,0,1,129,54.86Z"/><path class="cls-1" d="M129.94,53.25s.05-.07.13-.1a1.09,1.09,0,0,1,.26,0h1.49l.88,0a4.28,4.28,0,0,0,.74-.11,9,9,0,0,0,1-.3l1.6-.6-1.49-.41c-.35-.09-.61-.16-.78-.22a.82.82,0,0,0-.62.06,2,2,0,0,0-.48.4l-1.17-.8a4.83,4.83,0,0,1,1-1.33,1.41,1.41,0,0,1,1.18-.29,9,9,0,0,1,1.15.23l1.19.33,1.25.33c.43.1.89.2,1.39.27l.67.06.65,0-.52,1.93-.72,0a2.63,2.63,0,0,0-.57.05,2.29,2.29,0,0,0-.55.16,4.07,4.07,0,0,0-.64.31c-.57.33-1.05.61-1.43.85a10,10,0,0,1-1.11.59,5.33,5.33,0,0,1-1.19.36,10.85,10.85,0,0,1-1.68.11h-1.26a1.09,1.09,0,0,1-.26,0c-.08,0-.13,0-.13-.08ZM135,47l-1,1.35-1.41-1,1-1.37Z"/></svg>