<svg id="Layer_1" data-name="Layer 1" xmlns="http://www.w3.org/2000/svg" viewBox="0 0 20.28 20.28"><defs><style>.cls-1{fill:#f48120;}.cls-2{fill:#fff;}</style></defs><circle class="cls-1" cx="10.14" cy="10.14" r="10.14"/><path class="cls-2" d="M10.67,9.36c.14-.16.26-.32.4-.46a2.18,2.18,0,0,1,1.58-.62,3.75,3.75,0,0,1,1,.12A2,2,0,0,1,15,9.85a6.17,6.17,0,0,1,.18,1.66v3.55c0,.11,0,.14-.14.13H13.24c-.1,0-.13,0-.13-.13,0-1.12,0-2.25,0-3.37a3.43,3.43,0,0,0-.09-.84,1,1,0,0,0-1-.73,1.13,1.13,0,0,0-1.19,1.13,4.58,4.58,0,0,0,0,.53v3.27c0,.11,0,.15-.14.14H8.78c-.09,0-.12,0-.12-.12V8.58c0-.11,0-.14.13-.13h1.75c.11,0,.14,0,.13.14Z"/><path class="cls-2" d="M7.34,11.83c0,1.07,0,2.14,0,3.21,0,.12,0,.16-.15.16H5.36c-.1,0-.12,0-.12-.12V8.57c0-.09,0-.13.11-.12H7.2c.12,0,.14.05.14.15Z"/><path class="cls-2" d="M7.5,6.3A1.21,1.21,0,0,1,6.29,7.52a1.22,1.22,0,1,1,0-2.43A1.21,1.21,0,0,1,7.5,6.3Z"/></svg>