<svg id="Layer_1" data-name="Layer 1" xmlns="http://www.w3.org/2000/svg" viewBox="0 0 350 406.44"><defs><style>.cls-1{fill:#f48120;}</style></defs><path class="cls-1" d="M28.88,394.4a6.18,6.18,0,0,1-2.21-.41,9.66,9.66,0,0,1-2-1,10.38,10.38,0,0,1-1.7-1.47,14.66,14.66,0,0,1-1.39-1.71,4,4,0,0,1-.72,2.2,5.77,5.77,0,0,1-1.66,1.52,9.11,9.11,0,0,1-2.26,1,17.18,17.18,0,0,1-2.56.56c-.87.12-1.7.2-2.5.24s-1.5.05-2.11.05Q0,395.31,0,389.57a10,10,0,0,1,1.25-4.25l2.5.74a6.64,6.64,0,0,0-.75,2.3,2.13,2.13,0,0,0,.44,1.38,3.38,3.38,0,0,0,1.11.89,5.48,5.48,0,0,0,1.54.53,14.45,14.45,0,0,0,1.72.22c.57,0,1.11.05,1.6.05h1.25c.36,0,.83,0,1.4,0s1.18-.06,1.82-.11a19.74,19.74,0,0,0,2-.29,13.89,13.89,0,0,0,1.79-.49,3.94,3.94,0,0,0,1.3-.73,1.46,1.46,0,0,0,.54-1,1.82,1.82,0,0,0-.32-.83,13.87,13.87,0,0,0-.81-1.13c-.33-.4-.69-.81-1.1-1.23l-1.16-1.2-1-1a4,4,0,0,1-.57-.67,6,6,0,0,1,.07-.8,8.21,8.21,0,0,1,.2-1.06c.09-.36.19-.69.3-1a1,1,0,0,1,.44-.59,52.11,52.11,0,0,1,6-2.58q3.71-1.36,8.84-2.95L30,377.43c-2.11.51-4.19,1.07-6.22,1.67a59.78,59.78,0,0,0-6,2.1.56.56,0,0,0-.32.22c-.05.11,0,.22.19.36q1.28,1,2.61,2.19T23,386.64l1.49,1.4a13.21,13.21,0,0,0,1.52,1.23,7.68,7.68,0,0,0,1.65.88,5.41,5.41,0,0,0,1.92.33h1.55v3.92Zm.78-21.77q-3.69,1.19-6.13,2c-1.63.54-3,1-4,1.36s-1.83.67-2.39.9-1,.41-1.32.57l.37-1.86c1.13-.51,2.82-1.18,5.08-2s5.14-1.78,8.62-2.93Z"/><path class="cls-1" d="M38.53,394.4a3,3,0,0,1-3.1-1.76,4.47,4.47,0,0,1-3.95,1.76h-.31a2.32,2.32,0,0,1-.52-.07c-.17-.05-.25-.1-.25-.17v-3.41c0-.09.08-.15.25-.2a2.32,2.32,0,0,1,.52-.07h.17c1.69,0,2.53-.57,2.53-1.72v-1.35l2.77-.87v.84c0,2.07.68,3.1,2,3.1h.2v3.92Zm-1.48-12.52-2,2.7-2.8-1.89L34.28,380Z"/><path class="cls-1" d="M43.66,398.65,42,400.94l-2.19-1.45-1.25,1.69-2.63-1.69,1.79-2.33,2.19,1.49,1.21-1.72Zm-5.57-7.9c0-.09.09-.15.25-.2a2.33,2.33,0,0,1,.53-.07h2.22c1.15,0,1.72-.27,1.72-.81a1.12,1.12,0,0,0-.06-.35,4.48,4.48,0,0,0-.27-.52c-.14-.23-.33-.5-.58-.83s-.57-.75-1-1.27l2.19-3.1a5.79,5.79,0,0,1,1.63,2.33,7.8,7.8,0,0,1,.6,3,6,6,0,0,1-.46,2.41,4.63,4.63,0,0,1-1.25,1.71,5.35,5.35,0,0,1-1.87,1,8,8,0,0,1-2.33.34h-.57a2.33,2.33,0,0,1-.53-.07c-.16-.05-.25-.1-.25-.17Z"/><path class="cls-1" d="M63.29,394.4a5.39,5.39,0,0,1-2.75-.73,5.18,5.18,0,0,1-2-2q-1.32,3.14-5.43,3.14-3.27,0-4.76-1.79l1.22-3.11a4.39,4.39,0,0,0,1.72.78,9.25,9.25,0,0,0,2.36.3,9,9,0,0,0,1.38-.1,5,5,0,0,0,1.2-.32,2.38,2.38,0,0,0,.84-.56,1.09,1.09,0,0,0,.32-.81.91.91,0,0,0-.05-.28c0-.13-.12-.41-.27-.86s-.38-1.14-.71-2.06-.77-2.2-1.33-3.85l2.7-2.43c.7,2.25,1.25,4.08,1.67,5.47a28.63,28.63,0,0,0,1.15,3.26,3.93,3.93,0,0,0,1.11,1.58,2.65,2.65,0,0,0,1.57.42H64v3.92Z"/><path class="cls-1" d="M63.19,390.75c0-.09.09-.15.26-.2a2.18,2.18,0,0,1,.52-.07H66.2c1.14,0,1.72-.27,1.72-.81a1.15,1.15,0,0,0-.07-.35,4.48,4.48,0,0,0-.27-.52c-.14-.23-.33-.5-.57-.83l-1-1.27,2.19-3.1a5.91,5.91,0,0,1,1.64,2.33,8,8,0,0,1,.59,3,5.79,5.79,0,0,1-.46,2.41,4.63,4.63,0,0,1-1.25,1.71,5.35,5.35,0,0,1-1.87,1,8,8,0,0,1-2.33.34H64a2.18,2.18,0,0,1-.52-.07c-.17-.05-.26-.1-.26-.17Zm6.14-11.33-2,2.7-2.8-1.89,2.06-2.74Z"/><path class="cls-1" d="M79.2,394.19a2.53,2.53,0,0,1-.66-.47,8.24,8.24,0,0,1-1.13,2.72,13.67,13.67,0,0,1-2,2.43A22.34,22.34,0,0,1,72.83,401c-1,.67-1.94,1.3-3,1.89L67,400.67c.72-.36,1.58-.82,2.59-1.4a28.74,28.74,0,0,0,2.9-1.87,14.82,14.82,0,0,0,2.35-2.09,3.22,3.22,0,0,0,1-2.09,2.1,2.1,0,0,0-.2-.85,9.27,9.27,0,0,0-.47-.87,9.48,9.48,0,0,0-.54-.81l-.44-.61,2.6-2.8q.36.57.69,1.14a6.16,6.16,0,0,0,.69,1,3.54,3.54,0,0,0,.81.75,1.86,1.86,0,0,0,1,.28v3.92A1.64,1.64,0,0,1,79.2,394.19Z"/><path class="cls-1" d="M79.22,390.75c0-.09.08-.15.25-.2a2.25,2.25,0,0,1,.52-.07h2.23c1.15,0,1.72-.27,1.72-.81a.91.91,0,0,0-.07-.35,2.61,2.61,0,0,0-.27-.52A7.9,7.9,0,0,0,83,388c-.25-.33-.57-.75-1-1.27l2.2-3.1a5.89,5.89,0,0,1,1.63,2.33,8,8,0,0,1,.59,3,6,6,0,0,1-.45,2.41,4.74,4.74,0,0,1-1.25,1.71,5.35,5.35,0,0,1-1.87,1,8,8,0,0,1-2.33.34H80a2.25,2.25,0,0,1-.52-.07c-.17-.05-.25-.1-.25-.17Zm.74,8.88,2-2.7,2.81,1.89-2.06,2.73Z"/><path class="cls-1" d="M105.3,398.34l-7.63,2-.23-1.21L105,397Z"/><path class="cls-1" d="M109.48,394.4a5.39,5.39,0,0,1-2.75-.73,5.18,5.18,0,0,1-2-2q-1.32,3.14-5.43,3.14c-2.19,0-3.77-.6-4.76-1.79l1.21-3.11a4.53,4.53,0,0,0,1.72.78,9.39,9.39,0,0,0,2.37.3,9,9,0,0,0,1.38-.1,5,5,0,0,0,1.2-.32,2.38,2.38,0,0,0,.84-.56,1.13,1.13,0,0,0,.32-.81,1.38,1.38,0,0,0,0-.28c0-.13-.12-.41-.27-.86s-.38-1.14-.71-2.06-.77-2.2-1.33-3.85l2.7-2.43c.7,2.25,1.25,4.08,1.67,5.47a26.79,26.79,0,0,0,1.15,3.26,3.84,3.84,0,0,0,1.11,1.58,2.65,2.65,0,0,0,1.57.42h.71v3.92Z"/><path class="cls-1" d="M117.51,394.4a3,3,0,0,1-3.1-1.76,4.47,4.47,0,0,1-4,1.76h-.3a2.33,2.33,0,0,1-.53-.07c-.17-.05-.25-.1-.25-.17v-3.41c0-.09.08-.15.25-.2a2.33,2.33,0,0,1,.53-.07h.17c1.68,0,2.53-.57,2.53-1.72v-1.35l2.76-.87v.84c0,2.07.68,3.1,2,3.1h.2v3.92ZM116,381.88l-2,2.7-2.8-1.89,2.06-2.73Z"/><path class="cls-1" d="M122.64,398.65,121,400.94l-2.19-1.45-1.25,1.69-2.63-1.69,1.79-2.33,2.19,1.49,1.22-1.72Zm-5.57-7.9c0-.09.09-.15.26-.2a2.18,2.18,0,0,1,.52-.07h2.23c1.14,0,1.72-.27,1.72-.81a1.15,1.15,0,0,0-.07-.35,4.48,4.48,0,0,0-.27-.52c-.14-.23-.33-.5-.57-.83l-1-1.27,2.19-3.1a5.91,5.91,0,0,1,1.64,2.33,8,8,0,0,1,.59,3,6,6,0,0,1-.46,2.41,4.63,4.63,0,0,1-1.25,1.71,5.35,5.35,0,0,1-1.87,1,8,8,0,0,1-2.33.34h-.57a2.18,2.18,0,0,1-.52-.07c-.17-.05-.26-.1-.26-.17Z"/><path class="cls-1" d="M135,370.64a5.55,5.55,0,0,1-1.67,1.64,4,4,0,0,1-2.18.62,6.54,6.54,0,0,1-1.5-.18,13.46,13.46,0,0,0-1.52-.27,4.52,4.52,0,0,0-1.47.07,2.44,2.44,0,0,0-1.31.82l-1.15-1.55a4.34,4.34,0,0,1,1.57-1.25,4,4,0,0,1,1.54-.28,8.53,8.53,0,0,1,1.61.2,10.19,10.19,0,0,0,1.79.22,4,4,0,0,0,3.48-1.59ZM131.14,394l-3.44.91V375.44l3.44-1.35Z"/><path class="cls-1" d="M139.9,394.19a2.53,2.53,0,0,1-.66-.47,8.24,8.24,0,0,1-1.13,2.72,14.12,14.12,0,0,1-2,2.43,22.46,22.46,0,0,1-2.6,2.14c-1,.67-1.94,1.3-3,1.89l-2.87-2.23c.72-.36,1.59-.82,2.6-1.4a29.91,29.91,0,0,0,2.9-1.87,15.18,15.18,0,0,0,2.34-2.09,3.19,3.19,0,0,0,1-2.09,2,2,0,0,0-.21-.85,7.41,7.41,0,0,0-.47-.87,9.48,9.48,0,0,0-.54-.81l-.44-.61,2.6-2.8q.38.57.69,1.14a7.68,7.68,0,0,0,.69,1,3.54,3.54,0,0,0,.81.75,1.89,1.89,0,0,0,1.05.28v3.92A1.64,1.64,0,0,1,139.9,394.19Z"/><path class="cls-1" d="M139.91,390.75c0-.09.09-.15.26-.2a2.25,2.25,0,0,1,.52-.07h4.82a8.68,8.68,0,0,0,1.69-.19,2.61,2.61,0,0,0,1.11-.52,1.44,1.44,0,0,0,.44-1.07,4.22,4.22,0,0,1-1.19.49,5,5,0,0,1-1.27.16,3.68,3.68,0,0,1-2.36-.75,2.77,2.77,0,0,1-1-2.32,7.2,7.2,0,0,1,.24-1.76,6.37,6.37,0,0,1,.71-1.74,4.5,4.5,0,0,1,1.18-1.31,2.69,2.69,0,0,1,1.65-.53,3,3,0,0,1,2.18.85,6.58,6.58,0,0,1,1.38,2,10,10,0,0,1,.73,2.52,16,16,0,0,1,.2,2.27,5.89,5.89,0,0,1-.66,3,4.75,4.75,0,0,1-1.7,1.77,6.73,6.73,0,0,1-2.35.85,16,16,0,0,1-2.58.22h-3.27a2.25,2.25,0,0,1-.52-.07c-.17-.05-.26-.1-.26-.17Zm8.88-14.4-2,2.7-2.8-1.89,2.06-2.74Zm-2.3,10.08a2,2,0,0,0,.95-.25,4.22,4.22,0,0,0,.84-.59,3.93,3.93,0,0,0-.71-1.2,1.44,1.44,0,0,0-1.11-.49,1.15,1.15,0,0,0-.9.49,1.61,1.61,0,0,0-.38,1,.89.89,0,0,0,.42.83A1.69,1.69,0,0,0,146.49,386.43Z"/><path class="cls-1" d="M174.26,394.4a5.37,5.37,0,0,1-2.75-.73,5.18,5.18,0,0,1-2-2q-1.32,3.14-5.44,3.14-3.27,0-4.75-1.79l1.21-3.11a4.46,4.46,0,0,0,1.72.78,9.31,9.31,0,0,0,2.36.3,9,9,0,0,0,1.39-.1,4.79,4.79,0,0,0,1.19-.32,2.52,2.52,0,0,0,.85-.56,1.13,1.13,0,0,0,.32-.81,1.38,1.38,0,0,0,0-.28l-.27-.86c-.15-.45-.38-1.14-.71-2.06s-.77-2.2-1.33-3.85l2.7-2.43c.69,2.25,1.25,4.08,1.67,5.47a27,27,0,0,0,1.14,3.26,3.84,3.84,0,0,0,1.12,1.58,2.63,2.63,0,0,0,1.57.42h.7v3.92Z"/><path class="cls-1" d="M174.93,394.4a2.25,2.25,0,0,1-.52-.07c-.17-.05-.25-.1-.25-.17v-3.41c0-.09.08-.15.25-.2a2.25,2.25,0,0,1,.52-.07h3.38v3.92Z"/><path class="cls-1" d="M178.31,394.4a2.33,2.33,0,0,1-.53-.07c-.16-.05-.25-.1-.25-.17v-3.41c0-.09.09-.15.25-.2a2.33,2.33,0,0,1,.53-.07h3.37v3.92Z"/><path class="cls-1" d="M181.68,394.4a2.25,2.25,0,0,1-.52-.07c-.17-.05-.25-.1-.25-.17v-3.41c0-.09.08-.15.25-.2a2.25,2.25,0,0,1,.52-.07h3.38v3.92Z"/><path class="cls-1" d="M185.05,394.4a2.32,2.32,0,0,1-.52-.07c-.17-.05-.25-.1-.25-.17v-3.41c0-.09.08-.15.25-.2a2.32,2.32,0,0,1,.52-.07h3.38v3.92Z"/><path class="cls-1" d="M188.43,394.4a2.18,2.18,0,0,1-.52-.07c-.17-.05-.26-.1-.26-.17v-3.41c0-.09.09-.15.26-.2a2.18,2.18,0,0,1,.52-.07h3.37v3.92Z"/><path class="cls-1" d="M191.8,394.4a2.25,2.25,0,0,1-.52-.07c-.17-.05-.25-.1-.25-.17v-3.41c0-.09.08-.15.25-.2a2.25,2.25,0,0,1,.52-.07h3.38v3.92Z"/><path class="cls-1" d="M195.18,394.4a2.33,2.33,0,0,1-.53-.07c-.17-.05-.25-.1-.25-.17v-3.41c0-.09.08-.15.25-.2a2.33,2.33,0,0,1,.53-.07h3.37v3.92Z"/><path class="cls-1" d="M197.77,390.75c0-.09.09-.15.26-.2a2.18,2.18,0,0,1,.52-.07h.88q1.41,0,1.41-1.68v-1.29l2.6-.74v.74a10.26,10.26,0,0,0,.1,1.51,2.54,2.54,0,0,0,.31.91,1,1,0,0,0,.52.43,2.26,2.26,0,0,0,.79.12h.2c.68-.76,1.4-1.58,2.18-2.44a32.29,32.29,0,0,1,2.4-2.42,13.8,13.8,0,0,1,2.51-1.83,5,5,0,0,1,2.53-.73,4.51,4.51,0,0,1,1.67.3,4.11,4.11,0,0,1,1.32.85,3.88,3.88,0,0,1,.86,1.25,3.93,3.93,0,0,1,.3,1.55,5.82,5.82,0,0,1-1,3.42,8.08,8.08,0,0,1-2.43,2.3,10.43,10.43,0,0,1-3.14,1.28,13.94,13.94,0,0,1-3.13.39H205.2a3.92,3.92,0,0,1-1.72-.41,2.28,2.28,0,0,1-1.19-1.35,3.51,3.51,0,0,1-3.13,1.76h-.61a2.18,2.18,0,0,1-.52-.07c-.17-.05-.26-.1-.26-.17Zm16.3-4a4.36,4.36,0,0,0-2.68,1,37.53,37.53,0,0,0-3,2.7h.94l1,0c.44,0,.93-.06,1.45-.12a15.93,15.93,0,0,0,1.62-.25,10.14,10.14,0,0,0,1.52-.42A3.68,3.68,0,0,0,216,389a1.21,1.21,0,0,0,.44-.93.89.89,0,0,0-.25-.66,2,2,0,0,0-.63-.41,3.24,3.24,0,0,0-.77-.21A3.94,3.94,0,0,0,214.07,386.74Z"/><path class="cls-1" d="M225.32,393.84a4,4,0,0,1-1.65-1.54,6.19,6.19,0,0,1-.81-2.32,21.72,21.72,0,0,1-.26-2.94c0-.49,0-1.2-.06-2.12s0-1.93-.07-3-.05-2.18-.08-3.32-.07-2.19-.09-3.15l3.31-1.35v13.36a3.54,3.54,0,0,0,.61,2.27,2.33,2.33,0,0,0,1.95.76v3.92A6.19,6.19,0,0,1,225.32,393.84Z"/><path class="cls-1" d="M227.4,390.75c0-.09.08-.15.25-.2a2.25,2.25,0,0,1,.52-.07h2.23c1.15,0,1.72-.27,1.72-.81a.91.91,0,0,0-.07-.35,2.61,2.61,0,0,0-.27-.52,7.9,7.9,0,0,0-.57-.83l-1-1.27,2.19-3.1a5.81,5.81,0,0,1,1.64,2.33,8,8,0,0,1,.59,3,5.79,5.79,0,0,1-.46,2.41,4.72,4.72,0,0,1-1.24,1.71,5.4,5.4,0,0,1-1.88,1,7.88,7.88,0,0,1-2.32.34h-.58a2.25,2.25,0,0,1-.52-.07c-.17-.05-.25-.1-.25-.17Zm.23-10.36,1.69-2.29,2.19,1.45,1.25-1.72,2.6,1.72-1.72,2.3-2.23-1.46-1.15,1.73Z"/><path class="cls-1" d="M246.78,394.19a2.53,2.53,0,0,1-.66-.47,8.24,8.24,0,0,1-1.13,2.72,13.67,13.67,0,0,1-2,2.43,22.46,22.46,0,0,1-2.6,2.14c-1,.67-1.94,1.3-3,1.89l-2.87-2.23c.72-.36,1.59-.82,2.6-1.4a29.91,29.91,0,0,0,2.9-1.87,15.76,15.76,0,0,0,2.35-2.09,3.22,3.22,0,0,0,1-2.09,2,2,0,0,0-.21-.85,7.41,7.41,0,0,0-.47-.87,9.48,9.48,0,0,0-.54-.81l-.44-.61,2.6-2.8q.38.57.69,1.14a6.86,6.86,0,0,0,.7,1,3.31,3.31,0,0,0,.8.75,1.92,1.92,0,0,0,1,.28v3.92A1.64,1.64,0,0,1,246.78,394.19Z"/><path class="cls-1" d="M258,394.4a8,8,0,0,1-2.38-.36,10.77,10.77,0,0,1-2.21-.93,9.18,9.18,0,0,1-2,.93,6.72,6.72,0,0,1-2.17.36h-1.69a2.25,2.25,0,0,1-.52-.07c-.17-.05-.26-.1-.26-.17v-3.41c0-.09.09-.15.26-.2a2.25,2.25,0,0,1,.52-.07h3a7.39,7.39,0,0,1-.49-1,3.14,3.14,0,0,1-.19-1.05,4.37,4.37,0,0,1,.43-1.85,6.2,6.2,0,0,1,1.09-1.69,6.33,6.33,0,0,1,1.49-1.22,3.24,3.24,0,0,1,1.62-.47,2,2,0,0,1,1.36.46,3.75,3.75,0,0,1,.93,1.14,5.66,5.66,0,0,1,.54,1.45,6.63,6.63,0,0,1,.17,1.37,3.66,3.66,0,0,1-.3,1.38,7.25,7.25,0,0,1-.88,1.52H259v3.92Zm-1.89-15.89-2,2.69-2.8-1.88,2.05-2.74Zm-4,9.71a1.16,1.16,0,0,0,.37.8,4,4,0,0,0,1,.72,5,5,0,0,0,1.25-.81,1.26,1.26,0,0,0,.47-.94,1.16,1.16,0,0,0-.42-.91,1.44,1.44,0,0,0-1-.38,1.71,1.71,0,0,0-1.15.49A1.41,1.41,0,0,0,252.16,388.22Z"/><path class="cls-1" d="M258.23,390.75c0-.09.09-.15.25-.2a2.33,2.33,0,0,1,.53-.07h.87c.95,0,1.42-.56,1.42-1.68v-1.29l2.6-.74v.74A9,9,0,0,0,264,389a2.76,2.76,0,0,0,.3.91,1,1,0,0,0,.53.43,2.26,2.26,0,0,0,.79.12h.2c.68-.76,1.4-1.58,2.18-2.44s1.57-1.67,2.39-2.42a14.21,14.21,0,0,1,2.52-1.83,5,5,0,0,1,2.53-.73,4.51,4.51,0,0,1,1.67.3,4.17,4.17,0,0,1,1.31.85,3.59,3.59,0,0,1,.86,1.25,3.77,3.77,0,0,1,.31,1.55,5.82,5.82,0,0,1-1,3.42,8.08,8.08,0,0,1-2.43,2.3A10.54,10.54,0,0,1,273,394a13.94,13.94,0,0,1-3.13.39h-4.26a4,4,0,0,1-1.72-.41,2.3,2.3,0,0,1-1.18-1.35,3.52,3.52,0,0,1-3.14,1.76H259a2.33,2.33,0,0,1-.53-.07c-.16-.05-.25-.1-.25-.17Zm16.3-4a4.34,4.34,0,0,0-2.68,1,37.53,37.53,0,0,0-3,2.7h.94l1,0c.44,0,.92-.06,1.45-.12a15.93,15.93,0,0,0,1.62-.25,10.14,10.14,0,0,0,1.52-.42,3.68,3.68,0,0,0,1.13-.64,1.21,1.21,0,0,0,.44-.93.93.93,0,0,0-.25-.66A2,2,0,0,0,276,387a3.37,3.37,0,0,0-.77-.21A3.94,3.94,0,0,0,274.53,386.74Z"/><path class="cls-1" d="M301.28,404.45l-7.62,2-.24-1.21L301,403.1Z"/><path class="cls-1" d="M306.85,387.08a7.27,7.27,0,0,0-2.8-.41,4,4,0,0,0-1.28.22,5.78,5.78,0,0,0-1.23.57,4.08,4.08,0,0,0-.93.78,1.29,1.29,0,0,0-.37.86.59.59,0,0,0,.5.59,5.83,5.83,0,0,0,1.28.2l1.66.12a6.81,6.81,0,0,1,1.65.34,2.93,2.93,0,0,1,1.28.84,2.35,2.35,0,0,1,.51,1.62,6.21,6.21,0,0,1-1,3.51,8.85,8.85,0,0,1-2.57,2.53,12.34,12.34,0,0,1-3.42,1.54,13.83,13.83,0,0,1-3.63.52,12.31,12.31,0,0,1-3.73-.52,7.41,7.41,0,0,1-2.65-1.46,5.75,5.75,0,0,1-1.56-2.21A7.18,7.18,0,0,1,288,394a10.38,10.38,0,0,1,.39-2.72,12.39,12.39,0,0,1,1.2-2.85l2.66.91a11.26,11.26,0,0,0-.79,1.86,5.93,5.93,0,0,0-.29,1.79,4.14,4.14,0,0,0,.32,1.62,3.41,3.41,0,0,0,1,1.29,5.18,5.18,0,0,0,1.81.88,9.5,9.5,0,0,0,2.61.32,11.74,11.74,0,0,0,2.33-.27,15.25,15.25,0,0,0,2.48-.71,9.13,9.13,0,0,0,2-1c.53-.37.8-.74.8-1.1,0-.2-.12-.34-.38-.42a6.15,6.15,0,0,0-1.08-.19c-.46,0-1-.08-1.59-.11s-1.23-.1-1.9-.19a2.59,2.59,0,0,1-1.71-.84,2.69,2.69,0,0,1-.56-1.76,6.53,6.53,0,0,1,.66-2.88,8.28,8.28,0,0,1,4.14-4,6.52,6.52,0,0,1,2.73-.61,5.88,5.88,0,0,1,1.45.18,5.56,5.56,0,0,1,1.38.6Z"/><path class="cls-1" d="M314.37,394l-3.44.91V375.44l3.44-1.35Z"/><path class="cls-1" d="M323.13,394.19a2.53,2.53,0,0,1-.66-.47,8.24,8.24,0,0,1-1.13,2.72,14.12,14.12,0,0,1-2,2.43,22.46,22.46,0,0,1-2.6,2.14c-.95.67-1.94,1.3-2.95,1.89l-2.87-2.23c.72-.36,1.59-.82,2.6-1.4a29.91,29.91,0,0,0,2.9-1.87,15.76,15.76,0,0,0,2.35-2.09,3.22,3.22,0,0,0,1-2.09,2,2,0,0,0-.21-.85,7.41,7.41,0,0,0-.47-.87,9.48,9.48,0,0,0-.54-.81l-.44-.61,2.6-2.8q.38.57.69,1.14a7.68,7.68,0,0,0,.69,1,3.54,3.54,0,0,0,.81.75,1.92,1.92,0,0,0,1.05.28v3.92A1.64,1.64,0,0,1,323.13,394.19Z"/><path class="cls-1" d="M323.14,390.75c0-.09.09-.15.26-.2a2.25,2.25,0,0,1,.52-.07h3c.72,0,1.3,0,1.75,0a8.46,8.46,0,0,0,1.47-.22,17.72,17.72,0,0,0,2-.61c.77-.28,1.84-.68,3.19-1.2l-3-.8c-.7-.18-1.22-.33-1.55-.44a1.67,1.67,0,0,0-1.24.11,3.59,3.59,0,0,0-1,.8l-2.33-1.59a9.78,9.78,0,0,1,2.06-2.65,2.83,2.83,0,0,1,2.36-.59,20.9,20.9,0,0,1,2.3.48c.76.2,1.55.41,2.36.64s1.64.44,2.5.65,1.77.4,2.76.56c.45.05.9.08,1.34.1l1.3.07-1.05,3.85c-.54-.05-1-.07-1.42-.07a5.9,5.9,0,0,0-1.14.1,5.71,5.71,0,0,0-1.1.32,11.11,11.11,0,0,0-1.27.62c-1.14.66-2.09,1.22-2.85,1.69a16.48,16.48,0,0,1-2.21,1.18,10.51,10.51,0,0,1-2.38.71,19,19,0,0,1-3.35.24h-2.5a2.25,2.25,0,0,1-.52-.07c-.17-.05-.26-.1-.26-.17Zm7,8.88,2-2.7,2.8,1.89-2.06,2.73Z"/><path class="cls-1" d="M350,394l-3.44.91V375.44l3.44-1.35Z"/><path class="cls-1" d="M0,350H309.34c44.57-74.83,41.55-167.81-48.94-274.52C232.52,42.6,204.1,17.8,175.58,0H0Z"/></svg>