<svg id="Layer_1" data-name="Layer 1" xmlns="http://www.w3.org/2000/svg" viewBox="0 0 350 38.08"><defs><style>.cls-1{fill:#231f20;}</style></defs><path class="cls-1" d="M15,20.36a5.43,5.43,0,0,1-2.76-.73,5.23,5.23,0,0,1-2-2Q8.89,20.8,4.77,20.8,1.49,20.8,0,19L1.22,15.9a4.61,4.61,0,0,0,1.72.77A9,9,0,0,0,5.31,17a10.57,10.57,0,0,0,1.39-.1,5.51,5.51,0,0,0,1.2-.32A2.52,2.52,0,0,0,8.74,16a1.12,1.12,0,0,0,.32-.81A.92.92,0,0,0,9,14.9c0-.13-.12-.41-.27-.86S8.36,12.9,8,12,7.26,9.76,6.7,8.12L9.4,5.68c.7,2.26,1.26,4.08,1.68,5.48a25.6,25.6,0,0,0,1.15,3.26A3.9,3.9,0,0,0,13.34,16a2.61,2.61,0,0,0,1.57.43h.71v3.92Z"/><path class="cls-1" d="M14.85,16.71c0-.09.08-.16.25-.21a2.24,2.24,0,0,1,.52-.06h2.24c1.15,0,1.72-.27,1.72-.82a.91.91,0,0,0-.07-.35,2.61,2.61,0,0,0-.27-.52,7,7,0,0,0-.57-.83l-1-1.27,2.2-3.11a5.94,5.94,0,0,1,1.64,2.33,8,8,0,0,1,.59,3,5.84,5.84,0,0,1-.46,2.42A4.63,4.63,0,0,1,20.41,19a5.24,5.24,0,0,1-1.88,1,7.63,7.63,0,0,1-2.33.34h-.58a1.81,1.81,0,0,1-.52-.07c-.17,0-.25-.1-.25-.17ZM21,5.34,19,8.05l-2.8-1.89,2.06-2.74Z"/><path class="cls-1" d="M30.89,20.16a3,3,0,0,1-.65-.48,8.53,8.53,0,0,1-1.14,2.73,13.75,13.75,0,0,1-2,2.43A21.66,21.66,0,0,1,24.5,27c-1,.68-1.94,1.31-3,1.89l-2.87-2.23c.72-.36,1.59-.83,2.6-1.4a29,29,0,0,0,2.91-1.88,14.85,14.85,0,0,0,2.35-2.1,3.24,3.24,0,0,0,1-2.09,2,2,0,0,0-.21-.85,7.53,7.53,0,0,0-.47-.88q-.27-.43-.54-.81L25.84,16l2.6-2.81c.25.39.48.77.7,1.15a6.7,6.7,0,0,0,.69,1,3.73,3.73,0,0,0,.81.74,1.88,1.88,0,0,0,1.05.29v3.92A1.79,1.79,0,0,1,30.89,20.16Z"/><path class="cls-1" d="M30.91,16.71c0-.09.09-.16.25-.21a2.33,2.33,0,0,1,.53-.06h2.23c1.15,0,1.73-.27,1.73-.82a1.15,1.15,0,0,0-.07-.35,4.48,4.48,0,0,0-.27-.52,8.77,8.77,0,0,0-.58-.83c-.25-.33-.57-.75-1-1.27L36,9.54a5.74,5.74,0,0,1,1.64,2.33,8,8,0,0,1,.59,3,6,6,0,0,1-.45,2.42A4.76,4.76,0,0,1,36.47,19a5.2,5.2,0,0,1-1.87,1,7.65,7.65,0,0,1-2.34.34h-.57a1.88,1.88,0,0,1-.53-.07c-.16,0-.25-.1-.25-.17Zm.75,8.89,2-2.7,2.81,1.89-2.06,2.74Z"/><path class="cls-1" d="M58.91,36.09l-7.64,2L51,36.86l7.58-2.13Z"/><path class="cls-1" d="M57.59,20.36a5.31,5.31,0,0,1-2.46-.56,4.21,4.21,0,0,1-1.76-1.74L53,17.42a10.53,10.53,0,0,0-3,3.06,6,6,0,0,0-1,3.16A4.2,4.2,0,0,0,49.61,26a4.79,4.79,0,0,0,2.15,1.71,11.06,11.06,0,0,0,3.77.81A22.93,22.93,0,0,0,61,28.07l1.15,3.38a18.49,18.49,0,0,1-3.41.87,16.7,16.7,0,0,1-3.67.16,15.25,15.25,0,0,1-3.54-.62,9.46,9.46,0,0,1-3-1.51,7.36,7.36,0,0,1-2.09-2.5,7.64,7.64,0,0,1-.78-3.57,8.28,8.28,0,0,1,.49-2.87,9.65,9.65,0,0,1,1.34-2.49,13.46,13.46,0,0,1,1.92-2.08,20.24,20.24,0,0,1,2.3-1.72,3.12,3.12,0,0,0-1-.8A4,4,0,0,0,49,14a4.37,4.37,0,0,1,.44-2,4.05,4.05,0,0,1,1.16-1.42,4.86,4.86,0,0,1,1.68-.81,7.59,7.59,0,0,1,2-.26,5.59,5.59,0,0,1,1.37.16,3.83,3.83,0,0,1,1.17.47,2.38,2.38,0,0,1,.81.83A2.32,2.32,0,0,1,58,12.21a2.52,2.52,0,0,1-.21.95,5.32,5.32,0,0,1-.55,1,6.72,6.72,0,0,1-.82,1,6.8,6.8,0,0,1-1,.83c.23.32,1.07.48,2.54.48h2.7v3.92Z"/><path class="cls-1" d="M59.89,16.71c0-.09.09-.16.26-.21a2.24,2.24,0,0,1,.52-.06A5.87,5.87,0,0,0,63,16.05a2.92,2.92,0,0,0,1.37-1.17c.27-.45.55-.93.83-1.45A10.46,10.46,0,0,1,66.12,12a4.83,4.83,0,0,1,1.16-1.1,2.82,2.82,0,0,1,1.58-.44,2.59,2.59,0,0,1,1.67.56,4.41,4.41,0,0,1,1.12,1.37,6.79,6.79,0,0,1,.62,1.74,7.69,7.69,0,0,1,.21,1.67,7.49,7.49,0,0,1-.14,1.37,4.53,4.53,0,0,1-.47,1.34,3.28,3.28,0,0,1-.87,1,2,2,0,0,1-1.26.41,4.93,4.93,0,0,1-2.25-.56,11.21,11.21,0,0,1-1.95-1.23,6.17,6.17,0,0,1-2,1.66,6.33,6.33,0,0,1-2.84.57,1.81,1.81,0,0,1-.52-.07c-.17,0-.26-.1-.26-.17Zm8.83-3.18c-.72-.11-1.32.45-1.79,1.69a4.61,4.61,0,0,0,1.15.79,4.36,4.36,0,0,0,1.22.43A.54.54,0,0,0,70,16a2.55,2.55,0,0,0,0-.71,2.79,2.79,0,0,0-.23-.76,2.74,2.74,0,0,0-.43-.62A1,1,0,0,0,68.72,13.53Z"/><path class="cls-1" d="M78.68,19.8A4.12,4.12,0,0,1,77,18.26a6.61,6.61,0,0,1-.81-2.33A21.79,21.79,0,0,1,76,13c0-.5,0-1.21-.07-2.13s0-1.93-.07-3,0-2.2-.08-3.33-.06-2.2-.09-3.17L79,0V13.39a3.6,3.6,0,0,0,.61,2.29,2.38,2.38,0,0,0,2,.76v3.92A6.21,6.21,0,0,1,78.68,19.8Z"/><path class="cls-1" d="M80.76,16.71c0-.09.09-.16.25-.21a2.33,2.33,0,0,1,.53-.06h3c.73,0,1.31,0,1.76,0a7.6,7.6,0,0,0,1.47-.22,15.87,15.87,0,0,0,2-.61c.77-.28,1.84-.68,3.19-1.2-1.28-.36-2.28-.63-3-.81s-1.22-.32-1.56-.44a1.69,1.69,0,0,0-1.23.12,3.45,3.45,0,0,0-1,.8l-2.33-1.59A9.69,9.69,0,0,1,85.9,9.79a2.82,2.82,0,0,1,2.37-.59,20.85,20.85,0,0,1,2.3.47l2.37.65c.81.22,1.64.44,2.5.65a28.2,28.2,0,0,0,2.77.56c.45.05.9.08,1.34.1l1.3.07-1,3.86c-.54-.05-1-.07-1.42-.07a6.08,6.08,0,0,0-1.15.1,6.8,6.8,0,0,0-1.1.32,11.37,11.37,0,0,0-1.27.63c-1.15.65-2.1,1.22-2.85,1.69a17.2,17.2,0,0,1-2.22,1.18,10.16,10.16,0,0,1-2.38.71,19.23,19.23,0,0,1-3.37.24h-2.5a1.88,1.88,0,0,1-.53-.07c-.16,0-.25-.1-.25-.17Zm7,8.89,2-2.7,2.81,1.89-2.06,2.74Z"/><path class="cls-1" d="M128.18,13a7.33,7.33,0,0,0-2.81-.41,4.37,4.37,0,0,0-1.29.22,5.36,5.36,0,0,0-1.23.58,4.57,4.57,0,0,0-.93.78,1.29,1.29,0,0,0-.37.86.6.6,0,0,0,.5.59,5.84,5.84,0,0,0,1.29.2L125,16a6.71,6.71,0,0,1,1.65.34,3,3,0,0,1,1.29.85,2.35,2.35,0,0,1,.51,1.62,6.19,6.19,0,0,1-1,3.52,8.73,8.73,0,0,1-2.57,2.53,12.25,12.25,0,0,1-3.43,1.54,13.47,13.47,0,0,1-3.64.53,12,12,0,0,1-3.73-.53,7.45,7.45,0,0,1-2.66-1.45,5.89,5.89,0,0,1-1.57-2.22,7.23,7.23,0,0,1-.53-2.77,10.38,10.38,0,0,1,.39-2.72,12.28,12.28,0,0,1,1.2-2.86l2.68.91a10.54,10.54,0,0,0-.8,1.86,6,6,0,0,0-.29,1.8,4.14,4.14,0,0,0,.32,1.62,3.37,3.37,0,0,0,1,1.3,5.18,5.18,0,0,0,1.81.88,9.53,9.53,0,0,0,2.62.32,11.83,11.83,0,0,0,2.33-.27,16.8,16.8,0,0,0,2.49-.71,8.83,8.83,0,0,0,2-1c.55-.37.82-.74.82-1.1q0-.3-.39-.42a5.44,5.44,0,0,0-1.08-.18q-.7-.08-1.59-.12c-.6,0-1.24-.1-1.92-.19a2.58,2.58,0,0,1-1.7-.84,2.65,2.65,0,0,1-.56-1.76,6.54,6.54,0,0,1,.66-2.89A8.33,8.33,0,0,1,121,11.14a8.69,8.69,0,0,1,2.42-1.64,6.73,6.73,0,0,1,2.74-.61,6,6,0,0,1,1.46.19,5.52,5.52,0,0,1,1.38.59Z"/><path class="cls-1" d="M135.09,19.8a4.12,4.12,0,0,1-1.66-1.54,6.61,6.61,0,0,1-.81-2.33,21.79,21.79,0,0,1-.25-2.94c0-.5-.05-1.21-.07-2.13s0-1.93-.07-3,0-2.2-.08-3.33-.06-2.2-.08-3.17L135.38,0V13.39a3.6,3.6,0,0,0,.61,2.29,2.38,2.38,0,0,0,2,.76v3.92A6.21,6.21,0,0,1,135.09,19.8Z"/><path class="cls-1" d="M151.88,20.36a5.24,5.24,0,0,1-1.76-.32,3.86,3.86,0,0,1-1.45-.93c-.09.31-.17.6-.25.86a1.87,1.87,0,0,1-.34.66,1.48,1.48,0,0,1-.56.42,2.36,2.36,0,0,1-1,.16,5.33,5.33,0,0,1-1.25-.17,8.08,8.08,0,0,1-1.35-.48,10.08,10.08,0,0,1-1.3-.69,6.34,6.34,0,0,1-1.07-.8,4.83,4.83,0,0,1-1.55.95,5.78,5.78,0,0,1-2.1.34,1.77,1.77,0,0,1-.52-.07c-.17,0-.26-.1-.26-.17V16.71c0-.09.09-.16.26-.21a2.18,2.18,0,0,1,.52-.06c.45,0,.85,0,1.2,0a2.7,2.7,0,0,0,1-.22,2.63,2.63,0,0,0,.8-.52,3.76,3.76,0,0,0,.69-.95c.23-.38.46-.75.71-1.11a6.51,6.51,0,0,1,.81-1,3.67,3.67,0,0,1,1-.67,2.71,2.71,0,0,1,1.2-.26,2.1,2.1,0,0,1,1.64.81,14.89,14.89,0,0,1,1.33,1.83c.3.52.54.92.73,1.2a2.1,2.1,0,0,0,.63.63,1.79,1.79,0,0,0,.81.23c.31,0,.75,0,1.32,0h.3v3.92Zm-8.21-4.53a3.18,3.18,0,0,1-.16.32l-.15.32a5.48,5.48,0,0,0,1.51.86,3.71,3.71,0,0,0,1.3.32c.27,0,.42-.09.45-.28a1.4,1.4,0,0,0-.05-.66,4,4,0,0,0-.61-1.29,1.27,1.27,0,0,0-1.08-.64C144.39,14.78,144,15.13,143.67,15.83Z"/><path class="cls-1" d="M159.43,20.36a3,3,0,0,1-3.12-1.76,4.47,4.47,0,0,1-3.95,1.76h-.31a1.81,1.81,0,0,1-.52-.07c-.17,0-.26-.1-.26-.17V16.71c0-.09.09-.16.26-.21a2.24,2.24,0,0,1,.52-.06h.17c1.69,0,2.54-.58,2.54-1.73V13.36l2.77-.88v.85c0,2.07.68,3.11,2,3.11h.2v3.92ZM157.94,7.81l-2,2.71-2.81-1.9,2.06-2.74Z"/><path class="cls-1" d="M159,16.71c0-.09.08-.16.25-.21a2.24,2.24,0,0,1,.52-.06h2.91a3.09,3.09,0,0,1-.61-1.73,4.23,4.23,0,0,1,.73-2.28,7,7,0,0,1,1.71-1.88l-.75-.47,1.63-3.52q1,.71,2.55,1.86a30.72,30.72,0,0,1,3,2.55,18.68,18.68,0,0,1,2.47,2.95,5.67,5.67,0,0,1,1.06,3,8.18,8.18,0,0,1-.24,2,4.85,4.85,0,0,1-.65,1.56,2.74,2.74,0,0,1-1,.91,1.42,1.42,0,0,1-1.16.08,17.4,17.4,0,0,1-2.35-.81c-.87-.36-1.73-.76-2.59-1.22a8.45,8.45,0,0,1-2.13.66,10.63,10.63,0,0,1-1.86.19h-2.71a1.81,1.81,0,0,1-.52-.07c-.17,0-.25-.1-.25-.17Zm6.25-1.19a9.72,9.72,0,0,0,1,.61A2.25,2.25,0,0,0,167.85,14a1.18,1.18,0,0,0-.17-.59,2.61,2.61,0,0,0-.41-.52,1.88,1.88,0,0,0-.52-.38,1.19,1.19,0,0,0-.49-.13,1.16,1.16,0,0,0-.61.18,3.21,3.21,0,0,0-.58.48,2.86,2.86,0,0,0-.44.61,1.26,1.26,0,0,0-.17.55,2.51,2.51,0,0,0,.11.56A1.37,1.37,0,0,0,165.24,15.52Zm4.94,0a4.68,4.68,0,0,1-.46,1.18,7,7,0,0,1-.66,1,8.75,8.75,0,0,0,.83.37l.8.34a7.47,7.47,0,0,0,.74.24c.18,0,.34-.09.47-.41a2.12,2.12,0,0,0-.23-1.91,8.12,8.12,0,0,0-1.42-1.64A2.65,2.65,0,0,1,170.18,15.56Z"/><path class="cls-1" d="M181.27,19.92l-3.45.91V1.35L181.27,0Z"/><path class="cls-1" d="M187.6,13.19a13.45,13.45,0,0,1,1.4,2.42,7.09,7.09,0,0,1,.52,2.86,6.57,6.57,0,0,1-.79,3.12,12.54,12.54,0,0,1-2.06,2.83,21.85,21.85,0,0,1-2.84,2.45,36.17,36.17,0,0,1-3.17,2.05l-2.87-2.27c.74-.36,1.62-.83,2.62-1.42a29.5,29.5,0,0,0,2.88-1.93,15.78,15.78,0,0,0,2.33-2.15,3.24,3.24,0,0,0,1-2.08,3,3,0,0,0-.52-1.52c-.35-.56-.71-1.08-1.07-1.55Z"/><path class="cls-1" d="M214.72,20.36a2.49,2.49,0,0,1,.12,1.18,4.59,4.59,0,0,1-.36,1.22,6.57,6.57,0,0,1-2.25,2.57,10.56,10.56,0,0,1-3.33,1.54,11.55,11.55,0,0,1-3.77.37,9.41,9.41,0,0,1-3.53-.88,6.62,6.62,0,0,1-2.61-2.2,6.17,6.17,0,0,1-1-3.63,9.45,9.45,0,0,1,.44-2.89,13.33,13.33,0,0,1,1.12-2.59l2.57.91c-.28.59-.53,1.23-.78,1.93a6,6,0,0,0-.37,2,3.81,3.81,0,0,0,.5,2.06,3.29,3.29,0,0,0,1.36,1.23,5.24,5.24,0,0,0,1.91.53,9.59,9.59,0,0,0,2.14,0,12.48,12.48,0,0,0,2.12-.45,11.53,11.53,0,0,0,1.81-.73c.43-.23.65-.41.67-.56s-.06-.25-.27-.32l-3.68-1.25a5.05,5.05,0,0,1,.22-.66c.1-.26.2-.53.32-.81s.22-.55.34-.81a3.61,3.61,0,0,1,.33-.63,2.53,2.53,0,0,1,.78-.81,2.44,2.44,0,0,1,1.15-.2h4.23v3.92Z"/><path class="cls-1" d="M214.11,16.71c0-.09.09-.16.26-.21a2.18,2.18,0,0,1,.52-.06h.88c.95,0,1.42-.57,1.42-1.69V13.46l2.6-.74v.74a10.26,10.26,0,0,0,.1,1.51,2.54,2.54,0,0,0,.31.91,1.05,1.05,0,0,0,.52.44,2.32,2.32,0,0,0,.8.12h.2c.68-.77,1.4-1.59,2.18-2.46s1.58-1.67,2.4-2.41a14.74,14.74,0,0,1,2.52-1.85A5.2,5.2,0,0,1,231.36,9a4.47,4.47,0,0,1,1.67.3,4,4,0,0,1,1.32.85,3.75,3.75,0,0,1,1.17,2.8,5.89,5.89,0,0,1-1,3.44,8.36,8.36,0,0,1-2.44,2.3A10.54,10.54,0,0,1,229,20a14.1,14.1,0,0,1-3.15.39h-4.26a4,4,0,0,1-1.72-.41,2.28,2.28,0,0,1-1.19-1.35,3.52,3.52,0,0,1-3.14,1.76h-.61a1.77,1.77,0,0,1-.52-.07c-.17,0-.26-.1-.26-.17Zm16.34-4a4.32,4.32,0,0,0-2.69,1.05,37.59,37.59,0,0,0-3,2.71h1c.2,0,.52,0,1,0s.93-.06,1.46-.12a15.93,15.93,0,0,0,1.62-.25,10.14,10.14,0,0,0,1.52-.42,3.49,3.49,0,0,0,1.13-.64,1.18,1.18,0,0,0,.44-.93.89.89,0,0,0-.25-.66,1.86,1.86,0,0,0-.63-.41,3.81,3.81,0,0,0-.77-.22A5.13,5.13,0,0,0,230.45,12.68Z"/><path class="cls-1" d="M241.73,19.8a4.05,4.05,0,0,1-1.66-1.54,6.24,6.24,0,0,1-.81-2.33A20.22,20.22,0,0,1,239,13q0-.75-.06-2.13c0-.93-.05-1.93-.07-3s-.05-2.2-.09-3.33-.06-2.2-.08-3.17L242,0V13.39a3.66,3.66,0,0,0,.61,2.29,2.39,2.39,0,0,0,2,.76v3.92A6.19,6.19,0,0,1,241.73,19.8Z"/><path class="cls-1" d="M266.06,20.36a4.7,4.7,0,0,1-2.18-.51,5.54,5.54,0,0,1-1.74-1.38,10.36,10.36,0,0,1-3.2,1.42,13.84,13.84,0,0,1-3.43.47h-4.26a4,4,0,0,1-1.73-.41,2.27,2.27,0,0,1-1.18-1.35,3.55,3.55,0,0,1-3.15,1.76h-.61a1.81,1.81,0,0,1-.52-.07c-.17,0-.26-.1-.26-.17V16.71c0-.09.09-.16.26-.21a2.24,2.24,0,0,1,.52-.06h.88c.95,0,1.42-.57,1.42-1.69V13.46l2.61-.74v.74a9,9,0,0,0,.1,1.51,2.76,2.76,0,0,0,.3.91,1.07,1.07,0,0,0,.53.44,2.26,2.26,0,0,0,.79.12h.2L253.6,14a30.34,30.34,0,0,1,2.4-2.41,14,14,0,0,1,2.52-1.85A5.13,5.13,0,0,1,261.05,9a4.56,4.56,0,0,1,1.68.3,4.16,4.16,0,0,1,1.32.85,3.73,3.73,0,0,1,.86,1.25,3.93,3.93,0,0,1,.3,1.55,6.77,6.77,0,0,1-.23,1.8,5.17,5.17,0,0,1-.61,1.38c.11.21.75.31,1.93.31h.44v3.92Zm-5.92-7.68a4.35,4.35,0,0,0-2.69,1.05,37.59,37.59,0,0,0-3,2.71h1c.2,0,.53,0,1,0s.92-.06,1.45-.12a15.93,15.93,0,0,0,1.62-.25,9.82,9.82,0,0,0,1.52-.42,3.54,3.54,0,0,0,1.14-.64,1.21,1.21,0,0,0,.44-.93.9.9,0,0,0-.26-.66,1.81,1.81,0,0,0-.62-.41,4.1,4.1,0,0,0-.78-.22A5.13,5.13,0,0,0,260.14,12.68Z"/><path class="cls-1" d="M274.11,20.36A3,3,0,0,1,271,18.6a4.49,4.49,0,0,1-4,1.76h-.3a1.83,1.83,0,0,1-.53-.07c-.17,0-.25-.1-.25-.17V16.71c0-.09.08-.16.25-.21a2.26,2.26,0,0,1,.53-.06h.16c1.7,0,2.54-.58,2.54-1.73V13.36l2.77-.88v.85c0,2.07.68,3.11,2,3.11h.21v3.92ZM266.7,8.79l1.69-2.3L270.59,8l1.25-1.73L274.45,8l-1.73,2.3-2.23-1.46-1.15,1.73Z"/><path class="cls-1" d="M273.67,16.71c0-.09.08-.16.25-.21a2.33,2.33,0,0,1,.53-.06h3c.72,0,1.31,0,1.76,0a7.6,7.6,0,0,0,1.47-.22,15.29,15.29,0,0,0,2-.61c.78-.28,1.85-.68,3.2-1.2-1.29-.36-2.28-.63-3-.81s-1.21-.32-1.55-.44a1.72,1.72,0,0,0-1.24.12,3.41,3.41,0,0,0-1,.8l-2.33-1.59a9.32,9.32,0,0,1,2.06-2.66,2.81,2.81,0,0,1,2.37-.59,21.33,21.33,0,0,1,2.3.47l2.36.65c.82.22,1.65.44,2.51.65a27.62,27.62,0,0,0,2.77.56c.45.05.9.08,1.34.1l1.3.07-1.05,3.86c-.54-.05-1-.07-1.42-.07a6,6,0,0,0-1.15.1,6.8,6.8,0,0,0-1.1.32,10.57,10.57,0,0,0-1.27.63c-1.15.65-2.1,1.22-2.86,1.69a16.48,16.48,0,0,1-2.21,1.18,10.1,10.1,0,0,1-2.39.71,19.11,19.11,0,0,1-3.36.24h-2.5a1.88,1.88,0,0,1-.53-.07c-.17,0-.25-.1-.25-.17ZM283.78,4.23l-2,2.7L278.94,5,281,2.3Z"/><path class="cls-1" d="M300.59,19.92l-3.45.91V1.35L300.59,0Z"/><path class="cls-1" d="M319.46,24.32l-7.64,2-.24-1.22L319.16,23Z"/><path class="cls-1" d="M323.65,20.36a5.37,5.37,0,0,1-2.75-.73,5.09,5.09,0,0,1-2-2q-1.32,3.15-5.45,3.15-3.27,0-4.76-1.79l1.21-3.11a4.67,4.67,0,0,0,1.73.77A8.86,8.86,0,0,0,314,17a10.42,10.42,0,0,0,1.38-.1,5.51,5.51,0,0,0,1.2-.32,2.67,2.67,0,0,0,.85-.56,1.17,1.17,0,0,0,.32-.81,1.35,1.35,0,0,0,0-.29l-.27-.86c-.15-.46-.39-1.14-.71-2.07S316,9.76,315.4,8.12l2.71-2.44c.7,2.26,1.25,4.08,1.67,5.48a27.28,27.28,0,0,0,1.15,3.26A3.82,3.82,0,0,0,322.05,16a2.59,2.59,0,0,0,1.57.43h.71v3.92Z"/><path class="cls-1" d="M331.7,20.36a3,3,0,0,1-3.11-1.76,4.47,4.47,0,0,1-4,1.76h-.3a1.81,1.81,0,0,1-.52-.07c-.17,0-.26-.1-.26-.17V16.71c0-.09.09-.16.26-.21a2.24,2.24,0,0,1,.52-.06h.17c1.69,0,2.54-.58,2.54-1.73V13.36l2.77-.88v.85c0,2.07.68,3.11,2,3.11h.2v3.92ZM330.22,7.81l-2,2.71-2.81-1.9,2.06-2.74Z"/><path class="cls-1" d="M331.26,16.71c0-.09.09-.16.26-.21a2.24,2.24,0,0,1,.52-.06h.34a2.27,2.27,0,0,0,1.52-.51,1.77,1.77,0,0,0,.61-1.45v-1l2.37-.81v1.05a3.73,3.73,0,0,0,.44,2,1.45,1.45,0,0,0,1.32.73c1.57,0,2.36-.71,2.36-2.13V13l2.41-.71V14a2.63,2.63,0,0,0,.67,1.83,2.25,2.25,0,0,0,1.73.74,1.22,1.22,0,0,0,1.42-1.32,3,3,0,0,0-.34-1.33,3.32,3.32,0,0,0-.78-1l2.33-2.64a6.51,6.51,0,0,1,1.17,2.13,7.73,7.73,0,0,1,.12,4.45,6.19,6.19,0,0,1-.8,1.79,4.1,4.1,0,0,1-1.31,1.28,3.37,3.37,0,0,1-1.81.49,5.1,5.1,0,0,1-2.29-.49,3.14,3.14,0,0,1-1.47-1.43,3.25,3.25,0,0,1-1.28,1.37,3.76,3.76,0,0,1-1.73.52,4.23,4.23,0,0,1-1.94-.44,3.22,3.22,0,0,1-1.37-1.32A3.23,3.23,0,0,1,334.1,20a5.64,5.64,0,0,1-2.06.41,1.81,1.81,0,0,1-.52-.07c-.17,0-.26-.1-.26-.17Z"/></svg>