<svg id="Layer_1" data-name="Layer 1" xmlns="http://www.w3.org/2000/svg" viewBox="0 0 350 407.17"><defs><style>.cls-1,.cls-2{fill:#f48120;}.cls-2{fill-rule:evenodd;}</style></defs><path class="cls-1" d="M15,389.45a5.43,5.43,0,0,1-2.76-.73,5.27,5.27,0,0,1-2-2q-1.32,3.13-5.44,3.14-3.28,0-4.77-1.79L1.22,385a4.77,4.77,0,0,0,1.72.78,9.39,9.39,0,0,0,2.37.3A9.1,9.1,0,0,0,6.7,386a5.51,5.51,0,0,0,1.2-.32,2.38,2.38,0,0,0,.84-.56,1.12,1.12,0,0,0,.32-.81A.92.92,0,0,0,9,384c0-.12-.12-.41-.27-.86S8.36,382,8,381.06s-.77-2.2-1.33-3.85l2.7-2.44q1,3.39,1.68,5.48a26.43,26.43,0,0,0,1.15,3.27,4.05,4.05,0,0,0,1.11,1.59,2.67,2.67,0,0,0,1.57.42h.71v3.92Z"/><path class="cls-1" d="M14.85,385.8c0-.09.08-.16.25-.2a1.81,1.81,0,0,1,.52-.07h2.24c1.15,0,1.72-.27,1.72-.81a1,1,0,0,0-.07-.36,2.61,2.61,0,0,0-.27-.52,7.9,7.9,0,0,0-.57-.83l-1-1.27,2.2-3.11A6,6,0,0,1,21.53,381a8,8,0,0,1,.59,3,5.84,5.84,0,0,1-.46,2.42,4.63,4.63,0,0,1-1.25,1.71,5.24,5.24,0,0,1-1.88,1,7.63,7.63,0,0,1-2.33.34h-.58a1.81,1.81,0,0,1-.52-.07c-.17,0-.25-.1-.25-.16ZM21,374.44l-2,2.7-2.8-1.89,2.06-2.74Z"/><path class="cls-1" d="M30.89,389.25a2.93,2.93,0,0,1-.65-.47,8.57,8.57,0,0,1-1.14,2.72,13.4,13.4,0,0,1-2,2.43,21.66,21.66,0,0,1-2.61,2.15c-1,.68-1.94,1.31-3,1.9l-2.87-2.24c.72-.36,1.59-.83,2.6-1.4a29,29,0,0,0,2.91-1.88,14.34,14.34,0,0,0,2.35-2.09,3.28,3.28,0,0,0,1-2.1,2,2,0,0,0-.21-.85,8.42,8.42,0,0,0-.47-.88q-.27-.44-.54-.81l-.44-.61,2.6-2.8c.25.38.48.76.7,1.15a7.11,7.11,0,0,0,.69,1,3.73,3.73,0,0,0,.81.74,1.88,1.88,0,0,0,1.05.29v3.92A1.79,1.79,0,0,1,30.89,389.25Z"/><path class="cls-1" d="M30.91,385.8c0-.09.09-.16.25-.2a1.88,1.88,0,0,1,.53-.07h2.23c1.15,0,1.73-.27,1.73-.81a1.21,1.21,0,0,0-.07-.36,4.48,4.48,0,0,0-.27-.52c-.14-.23-.33-.5-.58-.83s-.57-.75-1-1.27l2.2-3.11A5.81,5.81,0,0,1,37.59,381a8,8,0,0,1,.59,3,6,6,0,0,1-.45,2.42,4.76,4.76,0,0,1-1.26,1.71,5.2,5.2,0,0,1-1.87,1,7.65,7.65,0,0,1-2.34.34h-.57a1.88,1.88,0,0,1-.53-.07c-.16,0-.25-.1-.25-.16Zm.75,8.89,2-2.7,2.81,1.89-2.06,2.74Z"/><path class="cls-1" d="M58.91,405.18l-7.64,2L51,406l7.58-2.13Z"/><path class="cls-1" d="M57.59,389.45a5.19,5.19,0,0,1-2.46-.56,4.21,4.21,0,0,1-1.76-1.74l-.37-.64a10.78,10.78,0,0,0-3,3.06,6,6,0,0,0-1,3.16,4.23,4.23,0,0,0,.67,2.34,4.85,4.85,0,0,0,2.15,1.7,11.28,11.28,0,0,0,3.77.82,23,23,0,0,0,5.51-.43l1.15,3.39a18.49,18.49,0,0,1-3.41.86,16.7,16.7,0,0,1-3.67.17,15.81,15.81,0,0,1-3.54-.63,9.65,9.65,0,0,1-3-1.5,7.4,7.4,0,0,1-2.09-2.51,7.63,7.63,0,0,1-.78-3.56,8.3,8.3,0,0,1,.49-2.88A9.65,9.65,0,0,1,47.52,388a13.93,13.93,0,0,1,1.92-2.08,20.24,20.24,0,0,1,2.3-1.72,3.09,3.09,0,0,0-1-.79,3.83,3.83,0,0,0-1.66-.29,4.4,4.4,0,0,1,.44-2.05,4.15,4.15,0,0,1,1.16-1.42,4.86,4.86,0,0,1,1.68-.81,7.59,7.59,0,0,1,2-.25,6.12,6.12,0,0,1,1.37.15,3.83,3.83,0,0,1,1.17.47,2.47,2.47,0,0,1,.81.83A2.34,2.34,0,0,1,58,381.3a2.52,2.52,0,0,1-.21.95,5,5,0,0,1-.55,1,7.4,7.4,0,0,1-.82,1,8.4,8.4,0,0,1-1,.83c.23.31,1.07.47,2.54.47h2.7v3.92Z"/><path class="cls-1" d="M59.89,385.8c0-.09.09-.16.26-.2a1.81,1.81,0,0,1,.52-.07,5.87,5.87,0,0,0,2.32-.39A2.92,2.92,0,0,0,64.36,384c.27-.45.55-.93.83-1.45a10.46,10.46,0,0,1,.93-1.44,5,5,0,0,1,1.16-1.1,2.82,2.82,0,0,1,1.58-.44,2.59,2.59,0,0,1,1.67.56,4.41,4.41,0,0,1,1.12,1.37,6.79,6.79,0,0,1,.62,1.74,7.7,7.7,0,0,1,.21,1.68,7.58,7.58,0,0,1-.14,1.37,4.47,4.47,0,0,1-.47,1.33,3.32,3.32,0,0,1-.87,1,2,2,0,0,1-1.26.4,4.81,4.81,0,0,1-2.25-.56,11.21,11.21,0,0,1-1.95-1.23,6.17,6.17,0,0,1-2,1.66,6.33,6.33,0,0,1-2.84.57,1.81,1.81,0,0,1-.52-.07c-.17,0-.26-.1-.26-.16Zm8.83-3.18c-.72-.11-1.32.45-1.79,1.69a4.93,4.93,0,0,0,1.15.8,4.66,4.66,0,0,0,1.22.42.54.54,0,0,0,.71-.47,2.54,2.54,0,0,0,0-.71,2.47,2.47,0,0,0-.66-1.39A1.11,1.11,0,0,0,68.72,382.62Z"/><path class="cls-1" d="M78.68,388.89A4.16,4.16,0,0,1,77,387.36a6.74,6.74,0,0,1-.81-2.34,21.79,21.79,0,0,1-.25-2.94c0-.5,0-1.21-.07-2.13s0-1.93-.07-3,0-2.19-.08-3.33-.06-2.2-.09-3.16L79,369.09v13.4a3.59,3.59,0,0,0,.61,2.28,2.35,2.35,0,0,0,2,.76v3.92A6.08,6.08,0,0,1,78.68,388.89Z"/><path class="cls-1" d="M80.76,385.8c0-.09.09-.16.25-.2a1.88,1.88,0,0,1,.53-.07h3c.73,0,1.31,0,1.76,0a9.54,9.54,0,0,0,1.47-.22,20.24,20.24,0,0,0,2-.61c.77-.29,1.84-.68,3.19-1.2-1.28-.36-2.28-.64-3-.82s-1.22-.32-1.56-.44a1.69,1.69,0,0,0-1.23.12,3.45,3.45,0,0,0-1,.8l-2.33-1.59a9.85,9.85,0,0,1,2.06-2.66,2.82,2.82,0,0,1,2.37-.59,20.85,20.85,0,0,1,2.3.47l2.37.65,2.5.66c.86.21,1.78.4,2.77.56l1.34.1,1.3.06-1,3.86c-.54,0-1-.07-1.42-.07a7,7,0,0,0-1.15.1,6.8,6.8,0,0,0-1.1.32,11.37,11.37,0,0,0-1.27.63c-1.15.65-2.1,1.22-2.85,1.69a18.67,18.67,0,0,1-2.22,1.19,11.22,11.22,0,0,1-2.38.71,20.41,20.41,0,0,1-3.37.23h-2.5a1.88,1.88,0,0,1-.53-.07c-.16,0-.25-.1-.25-.16Zm7,8.89,2-2.7,2.81,1.89-2.06,2.74Z"/><path class="cls-1" d="M128.18,382.11a7.36,7.36,0,0,0-2.81-.4,4.07,4.07,0,0,0-1.29.22,5.33,5.33,0,0,0-1.23.57,4.57,4.57,0,0,0-.93.78,1.29,1.29,0,0,0-.37.86.59.59,0,0,0,.5.59,5.78,5.78,0,0,0,1.29.21l1.66.12a6.28,6.28,0,0,1,1.65.33,3,3,0,0,1,1.29.85,2.35,2.35,0,0,1,.51,1.62,6.17,6.17,0,0,1-1,3.52,8.89,8.89,0,0,1-2.57,2.54,12.54,12.54,0,0,1-3.43,1.54,13.85,13.85,0,0,1-3.64.52,12.31,12.31,0,0,1-3.73-.52A7.46,7.46,0,0,1,111.4,394a5.93,5.93,0,0,1-1.57-2.21,7.32,7.32,0,0,1-.53-2.78,10.44,10.44,0,0,1,.39-2.72,12.28,12.28,0,0,1,1.2-2.86l2.68.92a10.54,10.54,0,0,0-.8,1.86,5.93,5.93,0,0,0-.29,1.79,4.11,4.11,0,0,0,.32,1.62,3.3,3.3,0,0,0,1,1.3,5,5,0,0,0,1.81.88,9.16,9.16,0,0,0,2.62.32,11.83,11.83,0,0,0,2.33-.27,15.67,15.67,0,0,0,2.49-.71,9.27,9.27,0,0,0,2-1c.55-.38.82-.74.82-1.1s-.13-.35-.39-.43a5.44,5.44,0,0,0-1.08-.18q-.7-.07-1.59-.12c-.6,0-1.24-.1-1.92-.19a2.58,2.58,0,0,1-1.7-.84,2.64,2.64,0,0,1-.56-1.76,6.54,6.54,0,0,1,.66-2.89,8.16,8.16,0,0,1,1.72-2.4,8.28,8.28,0,0,1,2.42-1.64,6.57,6.57,0,0,1,2.74-.61,6,6,0,0,1,1.46.18,5.52,5.52,0,0,1,1.38.59Z"/><path class="cls-1" d="M135.09,388.89a4.16,4.16,0,0,1-1.66-1.53,6.74,6.74,0,0,1-.81-2.34,21.79,21.79,0,0,1-.25-2.94c0-.5-.05-1.21-.07-2.13s0-1.93-.07-3,0-2.19-.08-3.33-.06-2.2-.08-3.16l3.31-1.36v13.4a3.59,3.59,0,0,0,.61,2.28,2.35,2.35,0,0,0,2,.76v3.92A6.08,6.08,0,0,1,135.09,388.89Z"/><path class="cls-1" d="M151.88,389.45a5,5,0,0,1-1.76-.32,3.63,3.63,0,0,1-1.45-.93c-.09.32-.17.6-.25.86a1.87,1.87,0,0,1-.34.66,1.61,1.61,0,0,1-.56.43,2.38,2.38,0,0,1-1,.15,5.33,5.33,0,0,1-1.25-.17,8,8,0,0,1-1.35-.47,11.55,11.55,0,0,1-1.3-.7,6.91,6.91,0,0,1-1.07-.79,5,5,0,0,1-1.55.94,5.78,5.78,0,0,1-2.1.34,1.77,1.77,0,0,1-.52-.07c-.17,0-.26-.1-.26-.16V385.8c0-.09.09-.16.26-.2a1.77,1.77,0,0,1,.52-.07q.68,0,1.2,0a3.21,3.21,0,0,0,1-.22,2.66,2.66,0,0,0,.8-.53,3.59,3.59,0,0,0,.69-.95c.23-.38.46-.75.71-1.11a7.06,7.06,0,0,1,.81-1,3.92,3.92,0,0,1,1-.67,2.71,2.71,0,0,1,1.2-.26,2.08,2.08,0,0,1,1.64.82,15.55,15.55,0,0,1,1.33,1.82c.3.52.54.92.73,1.2a2.1,2.1,0,0,0,.63.63,1.93,1.93,0,0,0,.81.24q.47,0,1.32,0h.3v3.92Zm-8.21-4.53a3.18,3.18,0,0,1-.16.32l-.15.32a5.78,5.78,0,0,0,1.51.87,4,4,0,0,0,1.3.32c.27,0,.42-.1.45-.29a1.4,1.4,0,0,0-.05-.66,4,4,0,0,0-.61-1.29,1.29,1.29,0,0,0-1.08-.64C144.39,383.87,144,384.22,143.67,384.92Z"/><path class="cls-1" d="M159.43,389.45a3,3,0,0,1-3.12-1.76,4.44,4.44,0,0,1-3.95,1.76h-.31a1.81,1.81,0,0,1-.52-.07c-.17,0-.26-.1-.26-.16V385.8c0-.09.09-.16.26-.2a1.81,1.81,0,0,1,.52-.07h.17c1.69,0,2.54-.58,2.54-1.73v-1.35l2.77-.88v.85c0,2.07.68,3.11,2,3.11h.2v3.92Zm-1.49-12.55-2,2.71-2.81-1.89,2.06-2.74Z"/><path class="cls-1" d="M159,385.8c0-.09.08-.16.25-.2a1.81,1.81,0,0,1,.52-.07h2.91a3.09,3.09,0,0,1-.61-1.73,4.26,4.26,0,0,1,.73-2.28,7.2,7.2,0,0,1,1.71-1.88l-.75-.47,1.63-3.52,2.55,1.86a29.5,29.5,0,0,1,3,2.56,18.18,18.18,0,0,1,2.47,2.94,5.7,5.7,0,0,1,1.06,3,8.15,8.15,0,0,1-.24,2,4.85,4.85,0,0,1-.65,1.56,2.65,2.65,0,0,1-1,.91,1.46,1.46,0,0,1-1.16.09,17.56,17.56,0,0,1-2.35-.82c-.87-.36-1.73-.76-2.59-1.21a9.35,9.35,0,0,1-2.13.66,11.56,11.56,0,0,1-1.86.18h-2.71a1.81,1.81,0,0,1-.52-.07c-.17,0-.25-.1-.25-.16Zm6.25-1.18a9.87,9.87,0,0,0,1,.6,2.25,2.25,0,0,0,1.63-2.13,1.18,1.18,0,0,0-.17-.59,2.93,2.93,0,0,0-.41-.52,1.84,1.84,0,0,0-.52-.37,1.23,1.23,0,0,0-.49-.14,1.09,1.09,0,0,0-.61.19,2.78,2.78,0,0,0-.58.47,2.86,2.86,0,0,0-.44.61,1.26,1.26,0,0,0-.17.56,2.45,2.45,0,0,0,.11.55A1.42,1.42,0,0,0,165.24,384.62Zm4.94,0a4.54,4.54,0,0,1-.46,1.18,7,7,0,0,1-.66,1c.27.14.55.26.83.38l.8.33a5.5,5.5,0,0,0,.74.24c.18.05.34-.09.47-.4a2.14,2.14,0,0,0-.23-1.92,8.4,8.4,0,0,0-1.42-1.64A2.65,2.65,0,0,1,170.18,384.65Z"/><path class="cls-1" d="M181.27,389l-3.45.92V370.45l3.45-1.36Z"/><path class="cls-1" d="M187.6,382.28a13.45,13.45,0,0,1,1.4,2.42,7.09,7.09,0,0,1,.52,2.86,6.64,6.64,0,0,1-.79,3.13,12.72,12.72,0,0,1-2.06,2.82,21.11,21.11,0,0,1-2.84,2.45,36.17,36.17,0,0,1-3.17,2.05l-2.87-2.27c.74-.36,1.62-.83,2.62-1.42a27.81,27.81,0,0,0,2.88-1.93,15.74,15.74,0,0,0,2.33-2.14,3.28,3.28,0,0,0,1-2.08,2.94,2.94,0,0,0-.52-1.52,18.4,18.4,0,0,0-1.07-1.56Z"/><path class="cls-1" d="M214.72,389.45a2.53,2.53,0,0,1,.12,1.19,4.64,4.64,0,0,1-.36,1.21,6.57,6.57,0,0,1-2.25,2.57A10.34,10.34,0,0,1,208.9,396a11.55,11.55,0,0,1-3.77.37,9.41,9.41,0,0,1-3.53-.87,6.7,6.7,0,0,1-2.61-2.2,6.21,6.21,0,0,1-1-3.64,9.49,9.49,0,0,1,.44-2.89,13.6,13.6,0,0,1,1.12-2.59l2.57.92a19.61,19.61,0,0,0-.78,1.92,6,6,0,0,0-.37,2,3.81,3.81,0,0,0,.5,2.06,3.39,3.39,0,0,0,1.36,1.24,5.44,5.44,0,0,0,1.91.52,9.58,9.58,0,0,0,2.14,0,12.5,12.5,0,0,0,2.12-.46,10.64,10.64,0,0,0,1.81-.73c.43-.22.65-.41.67-.56s-.06-.25-.27-.32l-3.68-1.25a5.05,5.05,0,0,1,.22-.66c.1-.26.2-.53.32-.81s.22-.55.34-.81a3.61,3.61,0,0,1,.33-.63,2.53,2.53,0,0,1,.78-.81,2.58,2.58,0,0,1,1.15-.2h4.23v3.92Z"/><path class="cls-1" d="M214.11,385.8c0-.09.09-.16.26-.2a1.77,1.77,0,0,1,.52-.07h.88c.95,0,1.42-.56,1.42-1.69v-1.29l2.6-.74v.74a10.26,10.26,0,0,0,.1,1.51,2.47,2.47,0,0,0,.31.91,1,1,0,0,0,.52.44,2.32,2.32,0,0,0,.8.12h.2l2.18-2.45a32.3,32.3,0,0,1,2.4-2.42,14.15,14.15,0,0,1,2.52-1.84,5.11,5.11,0,0,1,2.54-.73,4.47,4.47,0,0,1,1.67.3,4.11,4.11,0,0,1,1.32.85,4,4,0,0,1,.87,1.25,3.94,3.94,0,0,1,.3,1.56,5.88,5.88,0,0,1-1,3.43,8.36,8.36,0,0,1-2.44,2.3,10.28,10.28,0,0,1-3.14,1.28,14.1,14.1,0,0,1-3.15.39h-4.26a3.93,3.93,0,0,1-1.72-.4,2.27,2.27,0,0,1-1.19-1.36,3.5,3.5,0,0,1-3.14,1.76h-.61a1.77,1.77,0,0,1-.52-.07c-.17,0-.26-.1-.26-.16Zm16.34-4a4.32,4.32,0,0,0-2.69,1.05,37.59,37.59,0,0,0-3,2.71h1l1,0,1.46-.12a16,16,0,0,0,1.62-.26,10.14,10.14,0,0,0,1.52-.42,3.49,3.49,0,0,0,1.13-.64,1.18,1.18,0,0,0,.44-.93.89.89,0,0,0-.25-.66,1.86,1.86,0,0,0-.63-.41,3.81,3.81,0,0,0-.77-.22A5.13,5.13,0,0,0,230.45,381.77Z"/><path class="cls-1" d="M241.73,388.89a4.1,4.1,0,0,1-1.66-1.53,6.35,6.35,0,0,1-.81-2.34,20.22,20.22,0,0,1-.26-2.94q0-.75-.06-2.13c0-.93-.05-1.93-.07-3s-.05-2.19-.09-3.33-.06-2.2-.08-3.16l3.31-1.36v13.4a3.65,3.65,0,0,0,.61,2.28,2.36,2.36,0,0,0,2,.76v3.92A6.07,6.07,0,0,1,241.73,388.89Z"/><path class="cls-1" d="M266.06,389.45a4.7,4.7,0,0,1-2.18-.51,5.4,5.4,0,0,1-1.74-1.38,10.36,10.36,0,0,1-3.2,1.42,13.84,13.84,0,0,1-3.43.47h-4.26a4,4,0,0,1-1.73-.4,2.26,2.26,0,0,1-1.18-1.36,3.53,3.53,0,0,1-3.15,1.76h-.61a1.81,1.81,0,0,1-.52-.07c-.17,0-.26-.1-.26-.16V385.8c0-.09.09-.16.26-.2a1.81,1.81,0,0,1,.52-.07h.88c.95,0,1.42-.56,1.42-1.69v-1.29l2.61-.74v.74a9,9,0,0,0,.1,1.51,2.68,2.68,0,0,0,.3.91,1,1,0,0,0,.53.44,2.26,2.26,0,0,0,.79.12h.2l2.19-2.45a28.89,28.89,0,0,1,2.4-2.42,13.46,13.46,0,0,1,2.52-1.84,5,5,0,0,1,2.53-.73,4.56,4.56,0,0,1,1.68.3,4.34,4.34,0,0,1,1.32.85,3.83,3.83,0,0,1,.86,1.25,3.94,3.94,0,0,1,.3,1.56,6.69,6.69,0,0,1-.23,1.79,5.17,5.17,0,0,1-.61,1.38c.11.21.75.31,1.93.31h.44v3.92Zm-5.92-7.68a4.35,4.35,0,0,0-2.69,1.05,37.59,37.59,0,0,0-3,2.71h1l1,0,1.45-.12a16,16,0,0,0,1.62-.26,9.82,9.82,0,0,0,1.52-.42,3.54,3.54,0,0,0,1.14-.64,1.21,1.21,0,0,0,.44-.93.9.9,0,0,0-.26-.66,1.81,1.81,0,0,0-.62-.41,4.1,4.1,0,0,0-.78-.22A5.13,5.13,0,0,0,260.14,381.77Z"/><path class="cls-1" d="M274.11,389.45a3,3,0,0,1-3.11-1.76,4.46,4.46,0,0,1-4,1.76h-.3a1.83,1.83,0,0,1-.53-.07c-.17,0-.25-.1-.25-.16V385.8c0-.09.08-.16.25-.2a1.83,1.83,0,0,1,.53-.07h.16c1.7,0,2.54-.58,2.54-1.73v-1.35l2.77-.88v.85c0,2.07.68,3.11,2,3.11h.21v3.92Zm-7.41-11.56,1.69-2.3,2.2,1.45,1.25-1.72,2.61,1.72-1.73,2.3-2.23-1.45-1.15,1.72Z"/><path class="cls-1" d="M273.67,385.8c0-.09.08-.16.25-.2a1.88,1.88,0,0,1,.53-.07h3c.72,0,1.31,0,1.76,0a9.54,9.54,0,0,0,1.47-.22,19.35,19.35,0,0,0,2-.61c.78-.29,1.85-.68,3.2-1.2-1.29-.36-2.28-.64-3-.82s-1.21-.32-1.55-.44a1.72,1.72,0,0,0-1.24.12,3.41,3.41,0,0,0-1,.8l-2.33-1.59a9.47,9.47,0,0,1,2.06-2.66,2.81,2.81,0,0,1,2.37-.59,21.33,21.33,0,0,1,2.3.47l2.36.65,2.51.66c.85.21,1.78.4,2.77.56l1.34.1,1.3.06-1.05,3.86c-.54,0-1-.07-1.42-.07a6.93,6.93,0,0,0-1.15.1,6.8,6.8,0,0,0-1.1.32,10.57,10.57,0,0,0-1.27.63c-1.15.65-2.1,1.22-2.86,1.69a17.83,17.83,0,0,1-2.21,1.19,11.13,11.13,0,0,1-2.39.71,20.28,20.28,0,0,1-3.36.23h-2.5a1.88,1.88,0,0,1-.53-.07c-.17,0-.25-.1-.25-.16Zm10.11-12.48-2,2.71-2.81-1.9,2.07-2.74Z"/><path class="cls-1" d="M300.59,389l-3.45.92V370.45l3.45-1.36Z"/><path class="cls-1" d="M319.46,393.41l-7.64,2-.24-1.21,7.58-2.13Z"/><path class="cls-1" d="M323.65,389.45a5.37,5.37,0,0,1-2.75-.73,5.13,5.13,0,0,1-2-2q-1.32,3.13-5.45,3.14-3.27,0-4.76-1.79l1.21-3.11a4.83,4.83,0,0,0,1.73.78,9.27,9.27,0,0,0,2.37.3,9,9,0,0,0,1.38-.1,5.51,5.51,0,0,0,1.2-.32,2.52,2.52,0,0,0,.85-.56,1.17,1.17,0,0,0,.32-.81,1.35,1.35,0,0,0,0-.29l-.27-.86c-.15-.45-.39-1.14-.71-2.07s-.77-2.2-1.34-3.85l2.71-2.44c.7,2.26,1.25,4.09,1.67,5.48a28.21,28.21,0,0,0,1.15,3.27,4,4,0,0,0,1.12,1.59,2.65,2.65,0,0,0,1.57.42h.71v3.92Z"/><path class="cls-1" d="M331.7,389.45a3,3,0,0,1-3.11-1.76,4.45,4.45,0,0,1-4,1.76h-.3a1.81,1.81,0,0,1-.52-.07c-.17,0-.26-.1-.26-.16V385.8c0-.09.09-.16.26-.2a1.81,1.81,0,0,1,.52-.07h.17c1.69,0,2.54-.58,2.54-1.73v-1.35l2.77-.88v.85c0,2.07.68,3.11,2,3.11h.2v3.92Zm-1.48-12.55-2,2.71-2.81-1.89,2.06-2.74Z"/><path class="cls-1" d="M331.26,385.8c0-.09.09-.16.26-.2a1.81,1.81,0,0,1,.52-.07h.34a2.27,2.27,0,0,0,1.52-.51,1.77,1.77,0,0,0,.61-1.45v-1l2.37-.82v1.05a3.73,3.73,0,0,0,.44,2,1.43,1.43,0,0,0,1.32.73c1.57,0,2.36-.71,2.36-2.13v-1.29l2.41-.71v1.69a2.62,2.62,0,0,0,.67,1.83,2.22,2.22,0,0,0,1.73.74,1.22,1.22,0,0,0,1.42-1.31,3,3,0,0,0-.34-1.34,3.44,3.44,0,0,0-.78-1l2.33-2.64a6.51,6.51,0,0,1,1.17,2.13,7.73,7.73,0,0,1,.12,4.45,6.19,6.19,0,0,1-.8,1.79,4.24,4.24,0,0,1-1.31,1.29,3.46,3.46,0,0,1-1.81.49,5.24,5.24,0,0,1-2.29-.49,3.21,3.21,0,0,1-1.47-1.44,3.25,3.25,0,0,1-1.28,1.37,3.65,3.65,0,0,1-1.73.52,4.11,4.11,0,0,1-1.94-.44,3.22,3.22,0,0,1-1.37-1.32,3.2,3.2,0,0,1-1.63,1.36,5.62,5.62,0,0,1-2.06.4,1.81,1.81,0,0,1-.52-.07c-.17,0-.26-.1-.26-.16Z"/><path class="cls-2" d="M350,0H4.55C22.78,224.55,97.47,358.18,258.8,349.1q47-2.64,91.2-5.89Z"/></svg>