<svg id="Layer_1" data-name="Layer 1" xmlns="http://www.w3.org/2000/svg" viewBox="0 0 661.31 115.2"><defs><style>.cls-1{fill:#007199;}</style></defs><path class="cls-1" d="M601.08,49a294.37,294.37,0,0,1,60.23-45.8V0h-2.24a298.13,298.13,0,0,0-60.7,46.22,463.8,463.8,0,0,0-58,69h4.73A459.13,459.13,0,0,1,601.08,49Z"/><path class="cls-1" d="M510.72,49a294.31,294.31,0,0,1,60.22-45.8V0h-2.23A298.13,298.13,0,0,0,508,46.22a463.8,463.8,0,0,0-58.05,69h4.72A459.84,459.84,0,0,1,510.72,49Z"/><path class="cls-1" d="M420.36,49a294,294,0,0,1,60.22-45.8V0h-2.24a298.68,298.68,0,0,0-60.7,46.22,463.8,463.8,0,0,0-58.05,69h4.73A459.2,459.2,0,0,1,420.36,49Z"/><path class="cls-1" d="M330,49a294.37,294.37,0,0,1,60.23-45.8V0H388a298.13,298.13,0,0,0-60.7,46.22,463.8,463.8,0,0,0-58,69H274A459.13,459.13,0,0,1,330,49Z"/><path class="cls-1" d="M239.63,49a294.31,294.31,0,0,1,60.22-45.8V0h-2.23a298.13,298.13,0,0,0-60.7,46.22,463.8,463.8,0,0,0-58,69h4.72A459.84,459.84,0,0,1,239.63,49Z"/><path class="cls-1" d="M151.13,49a294,294,0,0,1,60.22-45.8V0h-2.24a298.68,298.68,0,0,0-60.7,46.22,463.8,463.8,0,0,0-58,69h4.73A459.2,459.2,0,0,1,151.13,49Z"/><path class="cls-1" d="M60.76,49A294.37,294.37,0,0,1,121,3.19V0h-2.24a298.13,298.13,0,0,0-60.7,46.22,463.8,463.8,0,0,0-58,69H4.73A459.13,459.13,0,0,1,60.76,49Z"/></svg>