<svg id="Layer_1" data-name="Layer 1" xmlns="http://www.w3.org/2000/svg" viewBox="0 0 614.71 187.38"><defs><style>.cls-1{fill:#231f20;}.cls-2{fill:#f9a64a;}</style></defs><path class="cls-1" d="M484.86,25.6a3.82,3.82,0,0,1,.11.57,5.46,5.46,0,0,1,0,.57,4.23,4.23,0,0,1-.72,2.42,6.92,6.92,0,0,1-1.92,1.89,11.38,11.38,0,0,1-1.67.92,18.83,18.83,0,0,1-1.95.77,16.32,16.32,0,0,1-2.14.53,12.61,12.61,0,0,1-2.21.2,11.1,11.1,0,0,1-3.91-.63,7.58,7.58,0,0,1-2.77-1.72,7.06,7.06,0,0,1-1.66-2.63,9.77,9.77,0,0,1-.55-3.35,11.65,11.65,0,0,1,.41-2.86,20,20,0,0,1,.94-2.83l3.28,1.49c-.15.34-.28.7-.41,1.09s-.25.78-.34,1.16-.17.74-.23,1.08a5.13,5.13,0,0,0-.09.87,3.26,3.26,0,0,0,1.31,2.65,6.4,6.4,0,0,0,4,1.05,11.24,11.24,0,0,0,3.4-.5,9.48,9.48,0,0,0,2.65-1.21.93.93,0,0,1,.15-.1l-1-.43q-.57-.26-1.14-.48l-1.08-.44c-.35-.15-.63-.25-.84-.32l.85-4.38H485V25.6Z"/><path class="cls-1" d="M493,25.6a5.19,5.19,0,0,1-4-1.42,5.25,5.25,0,0,1-2,1.1,6.75,6.75,0,0,1-2,.32,2.1,2.1,0,0,1-.56-.07c-.17,0-.26-.1-.26-.17v-4.1c0-.09.09-.16.26-.21A2.1,2.1,0,0,1,485,21a3.56,3.56,0,0,0,.76-.09,2.68,2.68,0,0,0,.77-.3,1.9,1.9,0,0,0,.58-.55,1.5,1.5,0,0,0,.23-.88v-.88l3.56-1.18v1.53a3,3,0,0,0,.55,1.8A1.91,1.91,0,0,0,493,21h.49V25.6ZM493.51,13c-.33.47-.67.91-1,1.33s-.66.86-1,1.33L489.35,14l-1.53,1.81-1.39-1-1.39-1c.33-.45.68-.9,1-1.33s.7-.88,1-1.3l2.27,1.78,1.35-2Z"/><path class="cls-1" d="M513.08,25.43a3,3,0,0,1-1.71-1,4.69,4.69,0,0,1-1.46.91,5.64,5.64,0,0,1-2,.34,7.36,7.36,0,0,1-1.85-.25,3.55,3.55,0,0,1-1.67-1.07,5.24,5.24,0,0,1-1.42.94,4.79,4.79,0,0,1-2,.38,7.42,7.42,0,0,1-1.85-.25,3.6,3.6,0,0,1-1.67-1.07,4.58,4.58,0,0,1-1.46.91,5.59,5.59,0,0,1-2,.33h-.47a2,2,0,0,1-.55-.07c-.18,0-.27-.1-.27-.17v-4.1q0-.14.27-.21a2,2,0,0,1,.55-.07h.47a2.09,2.09,0,0,0,1-.2,1.58,1.58,0,0,0,.57-.46,1.66,1.66,0,0,0,.27-.53,1.71,1.71,0,0,0,.07-.45v-.26c0-.13,0-.27,0-.41s0-.28,0-.41V18l3.09-.89a8.19,8.19,0,0,1,.07,1.19,5.53,5.53,0,0,0,.16,1.31,2.33,2.33,0,0,0,.57,1.05,1.64,1.64,0,0,0,1.26.43,1.85,1.85,0,0,0,1-.21,2.1,2.1,0,0,0,.56-.48,1.27,1.27,0,0,0,.24-.55,2.4,2.4,0,0,0,.06-.47v-.26c0-.13,0-.27,0-.41s0-.28,0-.41V18l3.1-.89a8.19,8.19,0,0,1,.07,1.19,5.06,5.06,0,0,0,.16,1.31,2.33,2.33,0,0,0,.57,1.05,1.64,1.64,0,0,0,1.26.43,2.14,2.14,0,0,0,1-.19,1.6,1.6,0,0,0,.57-.47,1.66,1.66,0,0,0,.27-.53,2.26,2.26,0,0,0,.07-.45v-.26c0-.13,0-.27,0-.41s0-.28,0-.41V18l3.1-.89a9.9,9.9,0,0,1,.07,1.19,5.46,5.46,0,0,0,.14,1.3,2.24,2.24,0,0,0,.5,1,1.31,1.31,0,0,0,1.17.34H515V25.6A10.38,10.38,0,0,1,513.08,25.43Z"/><path class="cls-1" d="M523,25.6a5.19,5.19,0,0,1-4-1.42,5.25,5.25,0,0,1-2,1.1,6.75,6.75,0,0,1-2,.32,2.1,2.1,0,0,1-.56-.07c-.17,0-.26-.1-.26-.17v-4.1c0-.09.09-.16.26-.21A2.1,2.1,0,0,1,515,21a3.56,3.56,0,0,0,.76-.09,2.68,2.68,0,0,0,.77-.3,1.9,1.9,0,0,0,.58-.55,1.5,1.5,0,0,0,.23-.88v-.88l3.56-1.18v1.53a3,3,0,0,0,.55,1.8A1.91,1.91,0,0,0,523,21h.49V25.6Zm.56,4.38c-.33.47-.66.92-1,1.33s-.67.86-1,1.34L519.37,31l-1.53,1.82c-.47-.34-.93-.66-1.39-1l-1.38-1c.33-.45.67-.88,1-1.31s.7-.87,1-1.32l2.28,1.78,1.35-2Z"/><path class="cls-1" d="M526.2,21a11.59,11.59,0,0,0,2.07-.2,20.57,20.57,0,0,0,2.13-.51,20.53,20.53,0,0,0,2.08-.75,13,13,0,0,0,1.83-.92c-.35-.17-.74-.34-1.15-.52s-.81-.34-1.18-.48-.7-.26-1-.36a2.87,2.87,0,0,0-.71-.14,2.16,2.16,0,0,0-1.18.41,5.36,5.36,0,0,0-1,.91l-2.84-1.75c.21-.3.5-.68.87-1.13a9.81,9.81,0,0,1,1.23-1.27,8.31,8.31,0,0,1,1.44-1,3.13,3.13,0,0,1,1.51-.43,5.42,5.42,0,0,1,2,.41c.68.27,1.4.59,2.16.94l1,.5a8.34,8.34,0,0,0,1.48.55,14.78,14.78,0,0,0,2.28.45,22.66,22.66,0,0,0,3.39.14l-1.35,4.84a18.25,18.25,0,0,0-2.1.3,11.43,11.43,0,0,0-1.67.48,12.5,12.5,0,0,0-1.37.62l-1.23.7-1.86,1a17.45,17.45,0,0,1-2,.93,14.65,14.65,0,0,1-2.24.66,13,13,0,0,1-2.58.24h-2.74a2,2,0,0,1-.55-.07c-.18,0-.27-.1-.27-.17v-4.1q0-.14.27-.21a2,2,0,0,1,.55-.07Zm1.89,10.14c.33-.48.66-.92,1-1.34s.67-.86,1-1.33l2.17,1.64,1.53-1.85,1.39,1,1.38,1c-.33.45-.67.9-1,1.34s-.7.87-1,1.3l-2.13-1.64L530.83,33Zm2.56,3.66q.5-.57,1-1.14l.92-1.1,1.2,1c.39.31.78.62,1.19.93-.33.4-.65.81-1,1.22s-.63.83-1,1.23Z"/><path class="cls-1" d="M564.52,25.6a8.67,8.67,0,0,1-2.17-.24,4.83,4.83,0,0,1-1.6-.75,4.42,4.42,0,0,1-1.14-1.25,7.83,7.83,0,0,1-.78-1.7,10.75,10.75,0,0,1-1.93.67,7.16,7.16,0,0,1-1.77.25,3.16,3.16,0,0,1-2.76-1.21,4.88,4.88,0,0,1-.87-2.92,4.5,4.5,0,0,1,.53-2.17,8.73,8.73,0,0,1,1.33-1.83A10.58,10.58,0,0,1,555.11,13a16.3,16.3,0,0,1,1.76-1.07l-.21-1.32,3.27-2.42,1.88,10.53a3.44,3.44,0,0,0,.75,1.73,2.7,2.7,0,0,0,2,.55Zm-6.62-7.72a3.73,3.73,0,0,0,0-.4c0-.21-.08-.43-.13-.68s-.09-.48-.12-.68-.07-.33-.09-.41l-.68.4a6.82,6.82,0,0,0-.9.65,4.76,4.76,0,0,0-.77.79.93.93,0,0,0-.25.76c0,.21.17.33.45.34a3.15,3.15,0,0,0,.92-.11,5.92,5.92,0,0,0,1-.32A2.71,2.71,0,0,0,557.9,17.88Z"/><path class="cls-1" d="M565.9,32.9c-.47-.34-.94-.66-1.4-1l-1.41-1c.38-.47.73-.92,1-1.33s.69-.86,1.09-1.34l1.37,1c.44.32.89.65,1.37,1ZM565.66,21c1.51,0,2.27-.27,2.27-.82a1,1,0,0,0-.16-.39,6.77,6.77,0,0,0-.39-.62c-.15-.23-.31-.46-.48-.7s-.3-.42-.39-.57l2.63-3.66a10.61,10.61,0,0,1,.64.93,12.37,12.37,0,0,1,.77,1.38,12.18,12.18,0,0,1,.66,1.71,6.86,6.86,0,0,1,.28,1.92A5.3,5.3,0,0,1,570,24.22a6.2,6.2,0,0,1-4.34,1.38h-1.14a2,2,0,0,1-.55-.07c-.18,0-.27-.1-.27-.17v-4.1q0-.14.27-.21a2,2,0,0,1,.55-.07Z"/><path class="cls-1" d="M484.86,61.6a3.82,3.82,0,0,1,.11.57,5.46,5.46,0,0,1,0,.57,4.23,4.23,0,0,1-.72,2.42,6.92,6.92,0,0,1-1.92,1.89,11.38,11.38,0,0,1-1.67.92,18.83,18.83,0,0,1-1.95.77,16.32,16.32,0,0,1-2.14.53,12.61,12.61,0,0,1-2.21.2,11.1,11.1,0,0,1-3.91-.63,7.58,7.58,0,0,1-2.77-1.72,7.06,7.06,0,0,1-1.66-2.63,9.77,9.77,0,0,1-.55-3.35,11.65,11.65,0,0,1,.41-2.86,20,20,0,0,1,.94-2.83l3.28,1.49c-.15.34-.28.7-.41,1.09s-.25.78-.34,1.16-.17.74-.23,1.08a5.13,5.13,0,0,0-.09.87,3.26,3.26,0,0,0,1.31,2.65,6.4,6.4,0,0,0,4,1.05,11.24,11.24,0,0,0,3.4-.5,9.48,9.48,0,0,0,2.65-1.21.93.93,0,0,1,.15-.1l-1-.43q-.57-.26-1.14-.48l-1.08-.44c-.35-.15-.63-.25-.84-.32l.85-4.38H485V61.6Z"/><path class="cls-1" d="M493,61.6a5.19,5.19,0,0,1-4-1.42,5.25,5.25,0,0,1-2,1.1,6.75,6.75,0,0,1-2,.32,2.1,2.1,0,0,1-.56-.07c-.17,0-.26-.1-.26-.17v-4.1c0-.09.09-.16.26-.21A2.1,2.1,0,0,1,485,57a3.56,3.56,0,0,0,.76-.09,2.68,2.68,0,0,0,.77-.3,1.9,1.9,0,0,0,.58-.55,1.5,1.5,0,0,0,.23-.88v-.88l3.56-1.18v1.53a3,3,0,0,0,.55,1.8A1.91,1.91,0,0,0,493,57h.49V61.6ZM493.51,49c-.33.47-.67.91-1,1.33s-.66.86-1,1.33L489.35,50l-1.53,1.81-1.39-1-1.39-1c.33-.45.68-.9,1-1.33s.7-.88,1-1.3l2.27,1.78,1.35-2Z"/><path class="cls-1" d="M493.47,61.6a2,2,0,0,1-.55-.07c-.18,0-.27-.1-.27-.17v-4.1q0-.13.27-.21a2,2,0,0,1,.55-.07H497V61.6Z"/><path class="cls-1" d="M497,61.6a2,2,0,0,1-.55-.07c-.18,0-.27-.1-.27-.17v-4.1q0-.13.27-.21A2,2,0,0,1,497,57h3.56V61.6Z"/><path class="cls-1" d="M520.19,61.43a3,3,0,0,1-1.71-1,4.58,4.58,0,0,1-1.46.91,5.58,5.58,0,0,1-2,.34,7.29,7.29,0,0,1-1.85-.25,3.58,3.58,0,0,1-1.68-1.07,5.09,5.09,0,0,1-1.42.94,4.77,4.77,0,0,1-2,.38,7.29,7.29,0,0,1-1.85-.25,3.5,3.5,0,0,1-1.67-1.07,4.69,4.69,0,0,1-1.46.91,5.65,5.65,0,0,1-2,.33h-.46a2,2,0,0,1-.55-.07c-.18,0-.27-.1-.27-.17v-4.1q0-.13.27-.21a2,2,0,0,1,.55-.07h.46a2.13,2.13,0,0,0,1-.2,1.58,1.58,0,0,0,.57-.46,1.45,1.45,0,0,0,.26-.53,1.78,1.78,0,0,0,.08-.45v-.26c0-.13,0-.27,0-.41s0-.28,0-.41V54l3.1-.89a9.9,9.9,0,0,1,.07,1.19,5.06,5.06,0,0,0,.16,1.31,2.16,2.16,0,0,0,.57,1,1.64,1.64,0,0,0,1.26.43,1.9,1.9,0,0,0,1-.21,2,2,0,0,0,.55-.48,1.43,1.43,0,0,0,.25-.55,2.28,2.28,0,0,0,.05-.47v-.26c0-.13,0-.27,0-.41a3,3,0,0,1,0-.41V54l3.09-.89a8.19,8.19,0,0,1,.07,1.19,5.53,5.53,0,0,0,.16,1.31,2.33,2.33,0,0,0,.57,1,1.68,1.68,0,0,0,1.27.43,2.07,2.07,0,0,0,1-.19,1.6,1.6,0,0,0,.57-.47,1.66,1.66,0,0,0,.27-.53,1.71,1.71,0,0,0,.07-.45v-.26a2.88,2.88,0,0,0,0-.41c0-.14,0-.28,0-.41V54l3.09-.89a8.19,8.19,0,0,1,.07,1.19,6,6,0,0,0,.14,1.3,2.34,2.34,0,0,0,.5,1,1.33,1.33,0,0,0,1.18.34h.28V61.6A10.38,10.38,0,0,1,520.19,61.43Z"/><path class="cls-1" d="M530.08,61.6a5.22,5.22,0,0,1-4-1.42,5.18,5.18,0,0,1-2,1.1,6.7,6.7,0,0,1-2,.32,2,2,0,0,1-.55-.07c-.18,0-.27-.1-.27-.17v-4.1q0-.13.27-.21a2,2,0,0,1,.55-.07,3.65,3.65,0,0,0,.77-.09,2.62,2.62,0,0,0,.76-.3,1.94,1.94,0,0,0,.59-.55,1.57,1.57,0,0,0,.23-.88v-.88L528,53.1v1.53a3,3,0,0,0,.55,1.8,1.89,1.89,0,0,0,1.51.55h.5V61.6Zm.57,4.38c-.33.47-.67.92-1,1.33s-.66.86-1,1.34L526.49,67,525,68.83c-.48-.34-.94-.66-1.39-1l-1.39-1c.33-.45.68-.88,1-1.31s.7-.87,1-1.32l2.27,1.78,1.35-2Z"/><path class="cls-1" d="M530.58,57a20.16,20.16,0,0,0,2.93-.16,5.43,5.43,0,0,0,1.57-.43,1.26,1.26,0,0,0,.64-.6,2,2,0,0,0,.12-.66,2.46,2.46,0,0,0-.6-1.46,18.37,18.37,0,0,0-1.44-1.6c-.56-.55-1.14-1.08-1.75-1.6A13.52,13.52,0,0,1,530.58,49l.07-1.92a4.21,4.21,0,0,1,.51-1.6,5.85,5.85,0,0,1,.63-.78,13.05,13.05,0,0,1,1.14-.79c.52-.33,1.13-.71,1.85-1.14s1.49-.87,2.34-1.33l2.6-1.39c.88-.46,1.73-.89,2.56-1.3s1.59-.75,2.28-1.06v5.16c-.83.35-1.68.74-2.54,1.15l-2.55,1.23c-.83.4-1.62.81-2.36,1.23s-1.43.8-2.05,1.15c.45.41.93.87,1.44,1.39a13.09,13.09,0,0,1,1.41,1.71,9.76,9.76,0,0,1,1.06,2,6.41,6.41,0,0,1,.43,2.38,13.51,13.51,0,0,1-.2,2.28,4,4,0,0,1-1.06,2.08A6.18,6.18,0,0,1,535.49,61a16.4,16.4,0,0,1-4.91.58,2,2,0,0,1-.55-.07c-.18,0-.27-.1-.27-.17v-4.1q0-.13.27-.21A2,2,0,0,1,530.58,57Z"/><path class="cls-1" d="M553.61,61.05a5,5,0,0,1-1.81-1.47,6.41,6.41,0,0,1-1-2.1,9.35,9.35,0,0,1-.32-2.42l0-13.59L554,40.15l0,14.91a2,2,0,0,0,.52,1.31,2.18,2.18,0,0,0,1.76.61V61.6A6,6,0,0,1,553.61,61.05Z"/><path class="cls-1" d="M561.53,66c-.33.47-.67.92-1,1.33s-.66.86-1,1.34L557.37,67l-1.53,1.82c-.48-.34-.94-.66-1.39-1l-1.39-1c.33-.45.68-.88,1-1.31s.7-.87,1-1.32l2.28,1.78,1.35-2Zm-4.09-9c1.51,0,2.27-.27,2.27-.82a1,1,0,0,0-.16-.39,5.13,5.13,0,0,0-.39-.62c-.15-.23-.31-.46-.48-.7l-.39-.57,2.63-3.66a10.61,10.61,0,0,1,.64.93,12.37,12.37,0,0,1,.77,1.38,12.18,12.18,0,0,1,.66,1.71,6.51,6.51,0,0,1,.28,1.92,5.3,5.3,0,0,1-1.49,4.06,6.2,6.2,0,0,1-4.34,1.38H556.3a2,2,0,0,1-.55-.07c-.18,0-.27-.1-.27-.17v-4.1q0-.13.27-.21a2,2,0,0,1,.55-.07Z"/><path class="cls-1" d="M475.19,102.44l-7.51,2.1-.28-1.31,7.47-2.25Z"/><path class="cls-1" d="M470.6,97.6a11.25,11.25,0,0,1-2.72-.32,6.86,6.86,0,0,1-2.37-1L466.86,94a4.06,4.06,0,0,0,1.85.81,12.06,12.06,0,0,0,2.07.18c.42,0,.89,0,1.4-.07a5.27,5.27,0,0,0,1.42-.32,3.2,3.2,0,0,0,1.13-.71,1.72,1.72,0,0,0,.46-1.25,3.23,3.23,0,0,0-.55-1.76,8.36,8.36,0,0,0-1.34-1.53,13.78,13.78,0,0,0-1.67-1.26l-1.53-1,1.07-2.7a26.16,26.16,0,0,1,2.19,1.65,13.65,13.65,0,0,1,1.92,2,10.17,10.17,0,0,1,1.35,2.26,6.58,6.58,0,0,1,.51,2.59,3.77,3.77,0,0,1-.62,2.24,4.92,4.92,0,0,1-1.58,1.46,6.6,6.6,0,0,1-2.12.8A10.88,10.88,0,0,1,470.6,97.6Z"/><path class="cls-1" d="M485.5,97.11a7.46,7.46,0,0,1-.88,3.27,13.33,13.33,0,0,1-2.05,2.83,17.45,17.45,0,0,1-2.69,2.31,22.25,22.25,0,0,1-2.81,1.69l-1.63-1.85a28.18,28.18,0,0,0,2.75-1.51,16.81,16.81,0,0,0,2.42-1.82,10.65,10.65,0,0,0,1.82-2.08,5.61,5.61,0,0,0,.9-2.35,4.58,4.58,0,0,0-.48-2.13,12.71,12.71,0,0,0-1.08-1.74l1.78-2c.31.43.58.83.82,1.23a7,7,0,0,0,.74,1,3.93,3.93,0,0,0,.86.73,2.09,2.09,0,0,0,1.14.28V97.6A3,3,0,0,1,485.5,97.11Z"/><path class="cls-1" d="M486.29,95.22c0-.09.09-.16.26-.2a3.41,3.41,0,0,1,.55,0h3.28a10.6,10.6,0,0,0,1.56-.11,6.59,6.59,0,0,0,1.53-.37,3.15,3.15,0,0,0,1.18-.75,1.77,1.77,0,0,0,.46-1.26v-.23a.59.59,0,0,0,0-.23,8.77,8.77,0,0,1-1.49.57,5.37,5.37,0,0,1-1.46.21,2.6,2.6,0,0,1-1.8-.66,2.9,2.9,0,0,1-.72-2.22,6.56,6.56,0,0,1,.28-1.76,8.55,8.55,0,0,1,.8-1.92,6.5,6.5,0,0,1,1.19-1.55,2.08,2.08,0,0,1,1.46-.64,2.11,2.11,0,0,1,1.67.85,7.32,7.32,0,0,1,1.18,2,13.39,13.39,0,0,1,.69,2.42,12,12,0,0,1,.23,2q0,6.23-6.4,6.22h-3.6a2.08,2.08,0,0,1-.55-.07c-.17,0-.26-.1-.26-.17Zm6.9-13.8-2.35-1.64,1.78-2.17,2.31,1.64Zm-.61,8.89a3.27,3.27,0,0,0,1.07-.19,5.46,5.46,0,0,0,1-.45c-.07-.31-.16-.64-.27-1a7.27,7.27,0,0,0-.37-1,2.75,2.75,0,0,0-.5-.73.9.9,0,0,0-.64-.29.84.84,0,0,0-.55.23,2.38,2.38,0,0,0-.48.59,4,4,0,0,0-.36.78,2.77,2.77,0,0,0-.14.82,1.35,1.35,0,0,0,.28.86A1.18,1.18,0,0,0,492.58,90.31Z"/><path class="cls-1" d="M518.87,97.6a5,5,0,0,1-3.54-1,5.86,5.86,0,0,1-1.51-3.16l0-.15a7,7,0,0,1-1.94.95,7.42,7.42,0,0,1-2.3.37,3,3,0,0,1-1.79-.48,2.44,2.44,0,0,1-.91-1.19,3.22,3.22,0,0,1-.11-1.59,4.91,4.91,0,0,1,.57-1.61,11.62,11.62,0,0,1,4.95-4.2l-.36-2,2-1.49,1.71,8.75c.14.66.28,1.26.42,1.78a4.83,4.83,0,0,0,.55,1.31,2.15,2.15,0,0,0,.87.8,3.1,3.1,0,0,0,1.39.27h.25V97.6Zm-6.19-9.89a8.78,8.78,0,0,0-1.51.82,8.16,8.16,0,0,0-1.4,1.18c-.72.71-1,1.27-.8,1.69s.7.56,1.58.44a6.74,6.74,0,0,0,1.64-.43,3.88,3.88,0,0,0,1.13-.6Z"/><path class="cls-1" d="M520.12,104.72l-2.31-1.64,1.74-2.17,2.35,1.64Zm-1.89-9.5c0-.09.09-.16.27-.2a3.31,3.31,0,0,1,.55,0h.71a5,5,0,0,0,2.23-.41,1.36,1.36,0,0,0,.83-1.3,2.63,2.63,0,0,0-.51-1.44c-.35-.51-.67-1-1-1.37l1.81-2a7.85,7.85,0,0,1,1.32,2.1,6.81,6.81,0,0,1,.5,2.45c0,3-1.78,4.55-5.34,4.55h-.57a2,2,0,0,1-.55-.07c-.18,0-.27-.1-.27-.17Z"/><path class="cls-1" d="M541.14,97.11a7.34,7.34,0,0,1-.89,3.27,12.94,12.94,0,0,1-2,2.83,17.93,17.93,0,0,1-2.69,2.31,22.25,22.25,0,0,1-2.81,1.69l-1.63-1.85a29.39,29.39,0,0,0,2.75-1.51,16.81,16.81,0,0,0,2.42-1.82,11,11,0,0,0,1.82-2.08,5.74,5.74,0,0,0,.9-2.35,4.58,4.58,0,0,0-.48-2.13,12.71,12.71,0,0,0-1.08-1.74l1.78-2c.3.43.58.83.82,1.23a7,7,0,0,0,.74,1,3.93,3.93,0,0,0,.86.73,2.08,2.08,0,0,0,1.13.28V97.6A3,3,0,0,1,541.14,97.11Z"/><path class="cls-1" d="M565.65,97.6A3.72,3.72,0,0,1,562.2,96l0,0a9,9,0,0,1-2.1.91,18.39,18.39,0,0,1-2.31.53,18.63,18.63,0,0,1-2.33.25c-.77,0-1.49.06-2.15.06-.91,0-1.73,0-2.48,0a11.47,11.47,0,0,1-2-.21,5.27,5.27,0,0,1-1.51-.55,2.52,2.52,0,0,1-1-1.09,3,3,0,0,1-2.91,1.74h-.72a2,2,0,0,1-.55-.07c-.18,0-.26-.1-.26-.17V95.22c0-.09.08-.16.26-.2a3.31,3.31,0,0,1,.55,0h.18a2.29,2.29,0,0,0,2-.75,4.94,4.94,0,0,0,.54-2.74l2.1-.71a13.51,13.51,0,0,0,.17,2.21,2.36,2.36,0,0,0,.93,1.65,4,4,0,0,0,1.89.48q1.49-1.81,2.82-3.27A24.36,24.36,0,0,1,556,89.33a11.29,11.29,0,0,1,2.64-1.6,7,7,0,0,1,2.77-.55,3.45,3.45,0,0,1,1.42.3,4.55,4.55,0,0,1,1.21.8,3.64,3.64,0,0,1,.84,1.18,3.45,3.45,0,0,1,.3,1.42,5.65,5.65,0,0,1-.32,2,6.39,6.39,0,0,1-.82,1.58,3,3,0,0,0,1.85.5h.93V97.6Zm-5.54-7.79a3.91,3.91,0,0,0-1.93.57,12.27,12.27,0,0,0-1.95,1.41c-.64.56-1.25,1.14-1.82,1.74l-1.49,1.58h2c.66,0,1.36,0,2.08-.11s1.44-.15,2.15-.27a8.28,8.28,0,0,0,1.91-.53,4,4,0,0,0,1.35-.91,1.9,1.9,0,0,0,.52-1.33,2,2,0,0,0-.25-1,1.84,1.84,0,0,0-.66-.64,3,3,0,0,0-.91-.34A4.77,4.77,0,0,0,560.11,89.81Z"/><path class="cls-1" d="M566.83,97.6a2,2,0,0,1-.55-.07c-.18,0-.27-.1-.27-.17V95.22c0-.09.09-.16.27-.2a3.21,3.21,0,0,1,.55,0h3.31V97.6Z"/><path class="cls-1" d="M570.14,97.6a2,2,0,0,1-.55-.07c-.18,0-.27-.1-.27-.17V95.22c0-.09.09-.16.27-.2a3.21,3.21,0,0,1,.55,0h3.31V97.6Z"/><path class="cls-1" d="M591.55,97.6a5,5,0,0,1-2-.32,3.28,3.28,0,0,1-1.25-.88,4.06,4.06,0,0,1-.74-1.34,16.2,16.2,0,0,1-.48-1.65l-2.73,1.44q-1.36.72-2.79,1.35a21,21,0,0,1-2.88,1,11.38,11.38,0,0,1-3,.39h-2.32a2.08,2.08,0,0,1-.55-.07c-.17,0-.26-.1-.26-.17V95.22c0-.09.09-.16.26-.2a3.41,3.41,0,0,1,.55,0h2.28a13,13,0,0,0,2.95-.32,17.94,17.94,0,0,0,2.57-.8c.8-.32,1.59-.67,2.36-1.07s1.57-.77,2.4-1.15c-1.7-.71-3.1-1.27-4.18-1.67a8,8,0,0,0-2.11-.61,1.88,1.88,0,0,0-1.05.32,5.1,5.1,0,0,0-1.09,1.07l-1.64-.82c1.19-2.23,2.36-3.34,3.53-3.34a6.21,6.21,0,0,1,2.31.53c.88.36,1.8.75,2.77,1.19a32.32,32.32,0,0,0,3,1.19,9.4,9.4,0,0,0,3.09.54,6.17,6.17,0,0,0,1.64-.22l-.57,2.53a7.69,7.69,0,0,0-3.34.57,2.38,2.38,0,0,0,1.31,1.71,7.32,7.32,0,0,0,2.49.35H594V97.6Z"/><path class="cls-1" d="M602,97.6a5.57,5.57,0,0,1-2.76-.53,3.17,3.17,0,0,1-1.33-1.6,4.09,4.09,0,0,1-1.69,1.64,4.77,4.77,0,0,1-2.12.49H594a2,2,0,0,1-.55-.07c-.18,0-.27-.1-.27-.17V95.22c0-.09.09-.16.27-.2a3.31,3.31,0,0,1,.55,0,4.21,4.21,0,0,0,2.26-.59,2.16,2.16,0,0,0,1-2V91.24l1.85-.68a12.82,12.82,0,0,0,.14,2,3.41,3.41,0,0,0,.52,1.37,2.08,2.08,0,0,0,1,.78,4.75,4.75,0,0,0,1.69.25V97.6Zm-3.91-9.25-2.35-1.63,1.78-2.17,2.31,1.63Z"/><path class="cls-1" d="M601.62,95.22c0-.09.09-.16.27-.2a3.31,3.31,0,0,1,.55,0H603a3.31,3.31,0,0,0,.77-.09,4,4,0,0,0,.55-.16,2.49,2.49,0,0,0,1.1-.85,7.94,7.94,0,0,0,.84-1.37c.25-.51.48-1,.69-1.58a9.5,9.5,0,0,1,.73-1.5,4.07,4.07,0,0,1,.93-1.1,1.87,1.87,0,0,1,1.26-.43,2.32,2.32,0,0,1,1.63.66,5.32,5.32,0,0,1,1.18,1.6,8.53,8.53,0,0,1,.69,2,8.3,8.3,0,0,1,.23,1.84,5.42,5.42,0,0,1-.14,1.24A4.48,4.48,0,0,1,613,96.4a2.55,2.55,0,0,1-.76.87,1.92,1.92,0,0,1-1.12.33,3.37,3.37,0,0,1-1.1-.21,8.44,8.44,0,0,1-1.2-.53c-.39-.22-.76-.44-1.12-.68a9.76,9.76,0,0,1-.89-.67,4.15,4.15,0,0,1-1.42,1.56,4.38,4.38,0,0,1-2.35.53h-.6a2,2,0,0,1-.55-.07c-.18,0-.27-.1-.27-.17Zm6.19-1.81a15.93,15.93,0,0,0,1.48.92,2.71,2.71,0,0,0,1.26.43.6.6,0,0,0,.57-.39,2.11,2.11,0,0,0,.18-.89,4.64,4.64,0,0,0-.11-1,3.62,3.62,0,0,0-.32-.91,2.55,2.55,0,0,0-.5-.68.9.9,0,0,0-.6-.26c-.24,0-.54.19-.91.57A5.62,5.62,0,0,0,607.81,93.41Z"/><path class="cls-1" d="M468.18,132.91a4.28,4.28,0,0,1-1.55-1.8,7.35,7.35,0,0,1-.64-2.49c-.08-.92-.12-1.83-.12-2.74V112.19l2.24-1.5,0,16.3c0,.49,0,1,.07,1.46a3.54,3.54,0,0,0,.38,1.28,2.17,2.17,0,0,0,.9.9,3.33,3.33,0,0,0,1.64.34v2.63A5.15,5.15,0,0,1,468.18,132.91Z"/><path class="cls-1" d="M470.24,131.22c0-.09.09-.16.27-.2a3.31,3.31,0,0,1,.55-.05h3.79a2.54,2.54,0,0,0,.41,0,5.06,5.06,0,0,1-1.26-1.28,2.87,2.87,0,0,1-.45-1.61,3.37,3.37,0,0,1,.34-1.44,6.08,6.08,0,0,1,.87-1.37,7.21,7.21,0,0,1,1.21-1.13,8.06,8.06,0,0,1,1.32-.82c-.17-.14-.34-.27-.5-.38a4.17,4.17,0,0,1-.46-.33l1.06-2.49c.79.59,1.6,1.23,2.44,1.93a25.32,25.32,0,0,1,2.38,2.25,21.46,21.46,0,0,1,2,2.45,9.06,9.06,0,0,1,1.26,2.58,7.09,7.09,0,0,1,.34,2.24,4.09,4.09,0,0,1-.45,1.89,2.13,2.13,0,0,1-1.28,1,3.4,3.4,0,0,1-2.17-.24c-.59-.23-1.23-.51-1.92-.83s-1.32-.62-1.89-.91a7,7,0,0,1-2,.84,8.16,8.16,0,0,1-2.07.26h-3a2,2,0,0,1-.55-.07c-.18,0-.27-.1-.27-.17Zm7-2a4,4,0,0,1,.4.21c.16.1.33.19.52.29l.3-.25a1.07,1.07,0,0,1,.2-.14,2.07,2.07,0,0,0,.59-.88,3,3,0,0,0,.19-1,3.49,3.49,0,0,0-.09-.76,2.48,2.48,0,0,0-.28-.75,1.72,1.72,0,0,0-.48-.55,1,1,0,0,0-.64-.22,1.64,1.64,0,0,0-.8.22,2.57,2.57,0,0,0-.75.57,3.43,3.43,0,0,0-.57.76,1.61,1.61,0,0,0-.23.76,1.27,1.27,0,0,0,.51,1A6.16,6.16,0,0,0,477.22,129.23Zm4-2.46a6.77,6.77,0,0,1-.27,2.16,6.36,6.36,0,0,1-.84,1.76l1.48.69c.44.2.75.34.94.41.67.21,1.06.1,1.19-.36a2.35,2.35,0,0,0-.26-1.63,9.37,9.37,0,0,0-1-1.48C482.14,127.81,481.71,127.3,481.24,126.77Z"/><path class="cls-1" d="M504.75,124.82a10.93,10.93,0,0,1,1.62,3.38,10.63,10.63,0,0,1,.39,3.41,9,9,0,0,1-.75,3.17,8.11,8.11,0,0,1-1.83,2.61,8.58,8.58,0,0,1-2.83,1.78,9.93,9.93,0,0,1-3.71.66,8,8,0,0,1-4.52-1.17,6.5,6.5,0,0,1-2.48-3,8.47,8.47,0,0,1-.49-4,11.14,11.14,0,0,1,1.4-4.31l1.75.78a10.83,10.83,0,0,0-.93,4.67,4.43,4.43,0,0,0,.94,2.54,5.06,5.06,0,0,0,2.05,1.49,6.84,6.84,0,0,0,2.63.47,7.64,7.64,0,0,0,2.7-.54,6.17,6.17,0,0,0,2.25-1.53,4.85,4.85,0,0,0,1.24-2.51,7.38,7.38,0,0,0-.07-3.2,9.33,9.33,0,0,0-1.42-3.16Zm-6.76.53-2.35-1.64,1.78-2.17,2.31,1.64Z"/><path class="cls-1" d="M513.36,132.91a4.35,4.35,0,0,1-1.55-1.8,7.35,7.35,0,0,1-.64-2.49c-.08-.92-.12-1.83-.12-2.74V112.19l2.24-1.5,0,16.3c0,.49,0,1,.07,1.46a3.54,3.54,0,0,0,.38,1.28,2.17,2.17,0,0,0,.9.9,3.33,3.33,0,0,0,1.64.34v2.63A5.15,5.15,0,0,1,513.36,132.91Z"/><path class="cls-1" d="M516.24,133.6a2,2,0,0,1-.55-.07c-.18,0-.27-.1-.27-.17v-2.14c0-.09.09-.16.27-.2a3.31,3.31,0,0,1,.55-.05h3.31v2.63Z"/><path class="cls-1" d="M540.11,133.6a3.67,3.67,0,0,1-2.06-.48,2.49,2.49,0,0,1-1-1.33,2.88,2.88,0,0,1-1.37,1.44,4.44,4.44,0,0,1-1.9.41,4.31,4.31,0,0,1-2-.46,3.45,3.45,0,0,1-1.42-1.39,3.14,3.14,0,0,1-1.64,1.46,5.78,5.78,0,0,1-2.06.39,4,4,0,0,1-1.87-.45,2.88,2.88,0,0,1-1.33-1.4,3.49,3.49,0,0,1-3.38,1.81h-.5a2,2,0,0,1-.55-.07c-.18,0-.27-.1-.27-.17v-2.14c0-.09.09-.16.27-.2a3.31,3.31,0,0,1,.55-.05h.07q3,0,3-3.34l1.78-.64a12.51,12.51,0,0,0,.09,1.54,4.81,4.81,0,0,0,.32,1.27,2,2,0,0,0,.69.85,2.2,2.2,0,0,0,1.25.32,2.93,2.93,0,0,0,2-.64,3.22,3.22,0,0,0,.71-2.42v-.28l1.78-.68c0,.5.06,1,.12,1.48a4.28,4.28,0,0,0,.36,1.3,2.42,2.42,0,0,0,.75.92,2.1,2.1,0,0,0,1.29.36,2.53,2.53,0,0,0,1.28-.29,1.94,1.94,0,0,0,.77-.76,3.34,3.34,0,0,0,.37-1.09,7.24,7.24,0,0,0,.11-1.24l1.64-.64c0,.59.06,1.13.1,1.62a3.64,3.64,0,0,0,.34,1.26,1.93,1.93,0,0,0,.78.82,3,3,0,0,0,1.44.28h.5v2.63Z"/><path class="cls-1" d="M540.25,131.22c0-.09.09-.16.27-.2a3.31,3.31,0,0,1,.55-.05h.71a5,5,0,0,0,2.23-.41,1.36,1.36,0,0,0,.83-1.3,2.63,2.63,0,0,0-.51-1.44c-.35-.51-.67-1-1-1.37l1.81-2a7.85,7.85,0,0,1,1.32,2.1,6.81,6.81,0,0,1,.5,2.45c0,3-1.78,4.55-5.34,4.55h-.57a2,2,0,0,1-.55-.07c-.18,0-.27-.1-.27-.17Zm4.2-8.64-2.35-1.64,1.78-2.17,2.32,1.64Z"/><path class="cls-1" d="M553.31,133.11l-1.81.49c0-1.28-.09-2.79-.13-4.53s-.07-3.59-.11-5.53-.07-3.92-.12-5.93-.09-3.92-.14-5.74l2.31-.93Z"/><path class="cls-1" d="M580.21,133.6a2.5,2.5,0,0,1,.8,1.89,3.72,3.72,0,0,1-.66,2,6.49,6.49,0,0,1-1.5,1.44,12.19,12.19,0,0,1-2.17,1.24,13.84,13.84,0,0,1-2.59.88,12.75,12.75,0,0,1-2.81.32,10.08,10.08,0,0,1-4.77-1,6.46,6.46,0,0,1-2.83-2.76,7.52,7.52,0,0,1-.76-4,12.15,12.15,0,0,1,1.45-4.8l1.82.68a10.94,10.94,0,0,0-1,3.48,5.5,5.5,0,0,0,.41,3,4.28,4.28,0,0,0,2,2,7.87,7.87,0,0,0,3.72.75,13.21,13.21,0,0,0,5.94-1.46,5.84,5.84,0,0,0,.8-.48,3.22,3.22,0,0,0,.6-.53,1,1,0,0,0,.27-.5c0-.15-.06-.27-.25-.34l-4.55-1.78c.16-.59.29-1.06.37-1.42a3.19,3.19,0,0,1,.27-.8.64.64,0,0,1,.33-.34,2,2,0,0,1,.56-.07H581v2.63Z"/><path class="cls-1" d="M580.21,131.22c0-.09.08-.16.26-.2A3.31,3.31,0,0,1,581,131h2.32a13.16,13.16,0,0,0,3-.3,14,14,0,0,0,2.39-.78c.73-.32,1.45-.68,2.15-1.07a25,25,0,0,1,2.26-1.12l-2.17-.93-1.57-.65c-.42-.18-.78-.32-1.06-.41a2.21,2.21,0,0,0-.68-.15,3.09,3.09,0,0,0-1.24.31,3.71,3.71,0,0,0-1.29,1l-1.6-.71a6.85,6.85,0,0,1,1.94-2.47,3.38,3.38,0,0,1,1.94-.8,5.65,5.65,0,0,1,2.46.65c.87.44,1.88.89,3,1.34.52.24,1,.43,1.42.59a12,12,0,0,0,1.3.37,11.5,11.5,0,0,0,1.42.21c.51,0,1.13.07,1.84.07l-.61,2.56c-.47,0-.9,0-1.3.06s-.75.08-1.08.12a7.37,7.37,0,0,0-2.74,1c-.85.52-1.75,1-2.69,1.6a21.6,21.6,0,0,1-3.09,1.48,11,11,0,0,1-4,.65H581a2,2,0,0,1-.55-.07c-.18,0-.26-.1-.26-.17Zm8.25-10.85-2.35-1.64,1.78-2.17,2.31,1.64Z"/><path class="cls-1" d="M607.21,133.11a7.61,7.61,0,0,1-.89,3.27,13.33,13.33,0,0,1-2.05,2.83,17.86,17.86,0,0,1-2.68,2.31,23,23,0,0,1-2.81,1.69l-1.64-1.85a28.33,28.33,0,0,0,2.76-1.51,17.38,17.38,0,0,0,2.42-1.82,10.93,10.93,0,0,0,1.81-2.08,5.62,5.62,0,0,0,.91-2.35,4.58,4.58,0,0,0-.48-2.13,12.76,12.76,0,0,0-1.09-1.74l1.78-2c.31.43.58.83.82,1.23a7,7,0,0,0,.75,1,3.88,3.88,0,0,0,.85.73,2.14,2.14,0,0,0,1.14.28v2.63A2.94,2.94,0,0,1,607.21,133.11Z"/><path class="cls-1" d="M608,131.22c0-.09.09-.16.27-.2a3.21,3.21,0,0,1,.55-.05h.71a5,5,0,0,0,2.22-.41,1.35,1.35,0,0,0,.84-1.3,2.57,2.57,0,0,0-.52-1.44c-.34-.51-.67-1-1-1.37l1.82-2a7.57,7.57,0,0,1,1.31,2.1,6.6,6.6,0,0,1,.5,2.45c0,3-1.78,4.55-5.33,4.55h-.57a2,2,0,0,1-.55-.07c-.18,0-.27-.1-.27-.17Zm3.17,9.5-2.32-1.64,1.75-2.17,2.34,1.64Z"/><path class="cls-1" d="M468.18,168.91a4.28,4.28,0,0,1-1.55-1.8,7.35,7.35,0,0,1-.64-2.49c-.08-.92-.12-1.83-.12-2.74V148.19l2.24-1.5,0,16.3c0,.49,0,1,.07,1.46a3.54,3.54,0,0,0,.38,1.28,2.17,2.17,0,0,0,.9.9,3.33,3.33,0,0,0,1.64.34v2.63A5.15,5.15,0,0,1,468.18,168.91Z"/><path class="cls-1" d="M470.24,167.22c0-.09.09-.16.27-.2a3.31,3.31,0,0,1,.55-.05h3.79a2.54,2.54,0,0,0,.41,0,5.06,5.06,0,0,1-1.26-1.28,2.87,2.87,0,0,1-.45-1.61,3.37,3.37,0,0,1,.34-1.44,6.08,6.08,0,0,1,.87-1.37,7.21,7.21,0,0,1,1.21-1.13,8.06,8.06,0,0,1,1.32-.82c-.17-.14-.34-.27-.5-.38a4.17,4.17,0,0,1-.46-.33l1.06-2.49c.79.59,1.6,1.23,2.44,1.93a25.32,25.32,0,0,1,2.38,2.25,21.46,21.46,0,0,1,2,2.45,9.06,9.06,0,0,1,1.26,2.58,7.09,7.09,0,0,1,.34,2.24,4.09,4.09,0,0,1-.45,1.89,2.13,2.13,0,0,1-1.28,1,3.4,3.4,0,0,1-2.17-.24c-.59-.23-1.23-.51-1.92-.83s-1.32-.62-1.89-.91a7,7,0,0,1-2,.84,8.16,8.16,0,0,1-2.07.26h-3a2,2,0,0,1-.55-.07c-.18,0-.27-.1-.27-.17Zm7-2a4,4,0,0,1,.4.21c.16.1.33.19.52.29l.3-.25a1.07,1.07,0,0,1,.2-.14,2.07,2.07,0,0,0,.59-.88,3,3,0,0,0,.19-1,3.49,3.49,0,0,0-.09-.76,2.48,2.48,0,0,0-.28-.75,1.72,1.72,0,0,0-.48-.55,1,1,0,0,0-.64-.22,1.64,1.64,0,0,0-.8.22,2.57,2.57,0,0,0-.75.57,3.43,3.43,0,0,0-.57.76,1.61,1.61,0,0,0-.23.76,1.27,1.27,0,0,0,.51,1A6.16,6.16,0,0,0,477.22,165.23Zm4-2.46a6.77,6.77,0,0,1-.27,2.16,6.36,6.36,0,0,1-.84,1.76l1.48.69c.44.2.75.34.94.41.67.21,1.06.1,1.19-.36a2.35,2.35,0,0,0-.26-1.63,9.37,9.37,0,0,0-1-1.48C482.14,163.81,481.71,163.3,481.24,162.77Z"/><path class="cls-1" d="M494.22,169.11a6.66,6.66,0,0,1-.82,3.2,12.77,12.77,0,0,1-2.06,2.84,17.85,17.85,0,0,1-2.72,2.35,22.92,22.92,0,0,1-2.83,1.71l-1.64-1.85a25.69,25.69,0,0,0,2.83-1.57,17.3,17.3,0,0,0,2.54-1.93,9.88,9.88,0,0,0,1.85-2.25,4.76,4.76,0,0,0,.72-2.5,4,4,0,0,0-.54-2,18.5,18.5,0,0,0-1.1-1.77l1.88-1.89a12.17,12.17,0,0,1,1.45,2.81A9.05,9.05,0,0,1,494.22,169.11Z"/><path class="cls-1" d="M500.8,168.91a4.35,4.35,0,0,1-1.55-1.8,7.59,7.59,0,0,1-.64-2.49c-.08-.92-.12-1.83-.12-2.74V148.19l2.24-1.5,0,16.3a14.13,14.13,0,0,0,.08,1.46,3.34,3.34,0,0,0,.37,1.28,2.14,2.14,0,0,0,.91.9,3.27,3.27,0,0,0,1.63.34v2.63A5.15,5.15,0,0,1,500.8,168.91Z"/><path class="cls-1" d="M502.86,167.22c0-.09.09-.16.27-.2a3.31,3.31,0,0,1,.55-.05h1.43q3.87,0,3.87-2.74a3.35,3.35,0,0,0-.65-1.85,14.42,14.42,0,0,0-1.53-1.85c-.59-.59-1.18-1.14-1.78-1.65s-1.08-.93-1.41-1.27c.07-1.54.29-2.45.64-2.73a53.69,53.69,0,0,1,5.89-3.54c2.31-1.23,4.87-2.45,7.67-3.69l-.36,2.81c-.28.1-.73.29-1.33.57l-2.07,1-2.43,1.19c-.86.43-1.66.85-2.42,1.25s-1.43.77-2,1.1-1,.6-1.27.78q5.13,4.28,5.13,7.69a5.05,5.05,0,0,1-.57,2.44A5.29,5.29,0,0,1,509,168.2a7,7,0,0,1-2.16,1.05,8.77,8.77,0,0,1-2.52.35h-.61a2,2,0,0,1-.55-.07c-.18,0-.27-.1-.27-.17Z"/><path class="cls-1" d="M513.11,177.36c.93-.47,1.84-1,2.74-1.55A17.17,17.17,0,0,0,518.3,174a9.79,9.79,0,0,0,1.85-2.19,6.36,6.36,0,0,0,.93-2.65,6.66,6.66,0,0,1-1.16.46,4.26,4.26,0,0,1-1.26.18,3.72,3.72,0,0,1-2.35-.78,2.94,2.94,0,0,1-1-2.46,7,7,0,0,1,.26-1.77,7.1,7.1,0,0,1,.77-1.78,4.74,4.74,0,0,1,1.19-1.35,2.5,2.5,0,0,1,1.58-.54,2.86,2.86,0,0,1,2,.73,5.52,5.52,0,0,1,1.28,1.78,8.89,8.89,0,0,1,.67,2.2,12.34,12.34,0,0,1,.2,2,9.91,9.91,0,0,1-.71,3.79,12,12,0,0,1-1.89,3.13,14.73,14.73,0,0,1-2.7,2.52,24.57,24.57,0,0,1-3.17,2Zm5.8-10.17a4.24,4.24,0,0,0,1.14-.15,2.46,2.46,0,0,0,1-.5,6.36,6.36,0,0,0-.62-1.86,1.57,1.57,0,0,0-2.64-.22,2.23,2.23,0,0,0-.51,1.44,1,1,0,0,0,.51,1A2.74,2.74,0,0,0,518.91,167.19Z"/><path class="cls-1" d="M554.52,169.6c-2.06,0-3.28-.88-3.66-2.66a8.87,8.87,0,0,1-4.9,2.52,41.27,41.27,0,0,1-8.94.86c-1,0-2.09,0-3.2-.13a11.29,11.29,0,0,1-3.08-.64,5.39,5.39,0,0,1-2.31-1.56,4.22,4.22,0,0,1-.91-2.87,5.9,5.9,0,0,1,.28-1.81,5.38,5.38,0,0,1,.82-1.6l1.67.46a4.67,4.67,0,0,0-.53,1.26,4.78,4.78,0,0,0-.14,1.19,2.09,2.09,0,0,0,.78,1.75,5.17,5.17,0,0,0,1.92.89,11.69,11.69,0,0,0,2.44.33c.86,0,1.65.06,2.36.06s1.57,0,2.49-.06,1.87-.09,2.83-.17,1.91-.2,2.83-.36a14.86,14.86,0,0,0,2.51-.62,6.94,6.94,0,0,0,1.85-.93,2.23,2.23,0,0,0,.91-1.31l.17-1,1.46-.5a7.29,7.29,0,0,0,.55,3.15A2.29,2.29,0,0,0,555,167h.11v2.63ZM540,176.72l-2.31-1.64,1.74-2.17,2.35,1.64Z"/><path class="cls-1" d="M555.09,169.6a2,2,0,0,1-.55-.07c-.18,0-.27-.1-.27-.17v-2.14c0-.09.09-.16.27-.2a3.31,3.31,0,0,1,.55-.05h3.31v2.63Z"/><path class="cls-1" d="M558.4,169.6a2,2,0,0,1-.55-.07c-.18,0-.27-.1-.27-.17v-2.14c0-.09.09-.16.27-.2a3.21,3.21,0,0,1,.55-.05h3.31v2.63Z"/><path class="cls-1" d="M582.27,169.6a3.67,3.67,0,0,1-2.06-.48,2.49,2.49,0,0,1-1-1.33,2.88,2.88,0,0,1-1.37,1.44,4.47,4.47,0,0,1-1.9.41,4.31,4.31,0,0,1-2-.46,3.45,3.45,0,0,1-1.42-1.39,3.17,3.17,0,0,1-1.64,1.46,5.82,5.82,0,0,1-2.06.39,4,4,0,0,1-1.87-.45,2.94,2.94,0,0,1-1.34-1.4,3.48,3.48,0,0,1-3.38,1.81h-.49a2.1,2.1,0,0,1-.56-.07c-.17,0-.26-.1-.26-.17v-2.14c0-.09.09-.16.26-.2a3.43,3.43,0,0,1,.56-.05h.07q3,0,3-3.34l1.78-.64a12.51,12.51,0,0,0,.09,1.54,4.45,4.45,0,0,0,.32,1.27,1.92,1.92,0,0,0,.69.85,2.18,2.18,0,0,0,1.25.32,2.9,2.9,0,0,0,2-.64,3.18,3.18,0,0,0,.72-2.42v-.28l1.77-.68c0,.5.07,1,.13,1.48a4.59,4.59,0,0,0,.35,1.3,2.42,2.42,0,0,0,.75.92,2.11,2.11,0,0,0,1.3.36,2.55,2.55,0,0,0,1.28-.29A2,2,0,0,0,578,166a3.59,3.59,0,0,0,.37-1.09,7.24,7.24,0,0,0,.11-1.24l1.63-.64c0,.59.06,1.13.11,1.62a3.64,3.64,0,0,0,.34,1.26,1.93,1.93,0,0,0,.78.82,3,3,0,0,0,1.44.28h.5v2.63Z"/><path class="cls-1" d="M582.41,167.22c0-.09.09-.16.27-.2a3.31,3.31,0,0,1,.55-.05h1.42q3.89,0,3.88-2.74a3.29,3.29,0,0,0-.66-1.85,14.42,14.42,0,0,0-1.53-1.85c-.58-.59-1.17-1.14-1.78-1.65s-1.07-.93-1.4-1.27c.07-1.54.28-2.45.64-2.73a52.76,52.76,0,0,1,5.89-3.54c2.31-1.23,4.86-2.45,7.66-3.69l-.35,2.81c-.29.1-.73.29-1.34.57l-2.06,1-2.44,1.19-2.42,1.25c-.76.4-1.43.77-2,1.1s-1,.6-1.26.78q5.13,4.28,5.12,7.69a5.05,5.05,0,0,1-.57,2.44,5.18,5.18,0,0,1-1.51,1.74,7,7,0,0,1-2.15,1.05,8.84,8.84,0,0,1-2.53.35h-.6a2,2,0,0,1-.55-.07c-.18,0-.27-.1-.27-.17Z"/><path class="cls-1" d="M605.36,168.91a4.28,4.28,0,0,1-1.55-1.8,7.13,7.13,0,0,1-.64-2.49c-.08-.92-.13-1.83-.13-2.74V148.19l2.25-1.5,0,16.3a14.13,14.13,0,0,0,.07,1.46,3.53,3.53,0,0,0,.37,1.28,2.25,2.25,0,0,0,.91.9,3.31,3.31,0,0,0,1.64.34v2.63A5.11,5.11,0,0,1,605.36,168.91Z"/><path class="cls-1" d="M605.11,175.12l1.53-2,2.1,1.53,1.49-1.78,2.1,1.53-1.6,1.92-2-1.56-1.46,1.81Zm2.31-7.9c0-.09.09-.16.27-.2a3.21,3.21,0,0,1,.55-.05H609a5,5,0,0,0,2.22-.41,1.35,1.35,0,0,0,.84-1.3,2.57,2.57,0,0,0-.52-1.44c-.34-.51-.67-1-1-1.37l1.82-1.95a7.85,7.85,0,0,1,1.32,2.1,6.81,6.81,0,0,1,.49,2.45c0,3-1.78,4.55-5.33,4.55h-.57a2,2,0,0,1-.55-.07c-.18,0-.27-.1-.27-.17Z"/><path class="cls-2" d="M292.75,148.22a17.58,17.58,0,0,1-6.91-5.23,29.12,29.12,0,0,1-10.12,6.57,31.7,31.7,0,0,1-11.6,2.28A35.7,35.7,0,0,1,252.39,150a27.65,27.65,0,0,1-8.65-4.56L252.32,132a10,10,0,0,0,4.29,1.74,35.78,35.78,0,0,0,7.51.67,28.46,28.46,0,0,0,5.16-.47A23.55,23.55,0,0,0,274,132.6a15.12,15.12,0,0,0,3.69-2.08,5.16,5.16,0,0,0,1.95-2.68q-1.49-7.64-2.95-14.28t-3-14.41l12.47-8.85,6.83,35.13a8.52,8.52,0,0,0,2.95,5.29q2.28,1.82,6.57,1.81V150A25.07,25.07,0,0,1,292.75,148.22Z"/><path class="cls-2" d="M306.89,132.53c5.72,0,8.58-1,8.58-3.08a3.88,3.88,0,0,0-.6-1.47c-.4-.72-.89-1.5-1.47-2.35L311.59,123c-.63-.89-1.12-1.6-1.48-2.14L320,107.06c.63.8,1.43,2,2.42,3.48a49,49,0,0,1,2.88,5.23,48,48,0,0,1,2.48,6.44,24.69,24.69,0,0,1,1.07,7.24q0,10.05-5.63,15.29T306.89,150H302.6a8,8,0,0,1-2.08-.27c-.67-.18-1-.41-1-.67V133.61c0-.36.33-.63,1-.81a8,8,0,0,1,2.08-.27Zm10.46-30.84L312.06,98l-5.3-3.69c1.43-1.79,2.75-3.46,3.95-5s2.57-3.24,4.09-5c1.79,1.26,3.51,2.48,5.17,3.69s3.37,2.44,5.16,3.69Z"/><path class="cls-2" d="M353.1,149.56a42.35,42.35,0,0,1-4.63,12,49,49,0,0,1-7.51,9.86,66.44,66.44,0,0,1-9.58,8A108.59,108.59,0,0,1,320.65,186l-12.87-10.45q3.62-1.89,9.18-4.9a74.1,74.1,0,0,0,10.66-7,47.81,47.81,0,0,0,8.79-9,17.67,17.67,0,0,0,3.68-10.73,7.22,7.22,0,0,0-.67-2.88,22,22,0,0,0-1.61-3c-.62-1-1.27-1.94-1.94-2.88s-1.23-1.77-1.68-2.48l11.27-11.4c.62,1.07,1.34,2.28,2.14,3.62a29.29,29.29,0,0,0,2.62,3.69,15.88,15.88,0,0,0,3,2.82,6.12,6.12,0,0,0,3.62,1.13V150A16.51,16.51,0,0,1,353.1,149.56Z"/><path class="cls-2" d="M422.34,178.8l-28.16,8.58L392.31,181l28.15-8.59Z"/><path class="cls-2" d="M356.85,150a8,8,0,0,1-2.08-.27c-.67-.18-1-.41-1-.67V133.61c0-.36.33-.63,1-.81a8,8,0,0,1,2.08-.27h13.41V150Z"/><path class="cls-2" d="M370.26,150a8,8,0,0,1-2.08-.27c-.67-.18-1-.41-1-.67V133.61c0-.36.34-.63,1-.81a8,8,0,0,1,2.08-.27h13.41V150Z"/><path class="cls-2" d="M383.67,150a8,8,0,0,1-2.08-.27c-.67-.18-1-.41-1-.67V133.61c0-.36.34-.63,1-.81a8,8,0,0,1,2.08-.27h13.4V150Z"/><path class="cls-2" d="M407.69,172.06l-5.29-3.69q-2.61-1.8-5.3-3.69c1.43-1.78,2.75-3.46,4-5s2.57-3.24,4.09-5q2.67,1.88,5.16,3.69t5.16,3.68Zm-6.33-39.53c5.72,0,8.58-1,8.58-3.08a3.88,3.88,0,0,0-.6-1.47c-.4-.72-.89-1.5-1.47-2.35L406.06,123c-.63-.89-1.12-1.6-1.48-2.14l9.92-13.81c.63.8,1.43,2,2.42,3.48a49,49,0,0,1,2.88,5.23,48,48,0,0,1,2.48,6.44,24.69,24.69,0,0,1,1.07,7.24q0,10.05-5.63,15.29T401.36,150h-4.29a8,8,0,0,1-2.08-.27c-.67-.18-1-.41-1-.67V133.61c0-.36.33-.63,1-.81a8,8,0,0,1,2.08-.27Z"/><path class="cls-2" d="M266.48,98.35l-21.32,6.49L243.74,100l21.32-6.49Z"/><path class="cls-2" d="M298.14,61.2a30.58,30.58,0,0,1-3.85,11.72,27.93,27.93,0,0,1-16.14,12.74,33.68,33.68,0,0,1-9.95,1.52,27.52,27.52,0,0,1-9.08-1.52A22.09,22.09,0,0,1,251.3,81a23.08,23.08,0,0,1-5.48-7.76,26.69,26.69,0,0,1-2.08-11c0-1.08.07-2.3.2-3.66s.32-2.75.56-4.21a42.37,42.37,0,0,1,.92-4.26,21.83,21.83,0,0,1,1.37-3.81l9.33,5.48a23.31,23.31,0,0,0-1.67,5.48,29,29,0,0,0-.56,5,10.65,10.65,0,0,0,1.22,5.17,10.79,10.79,0,0,0,3.2,3.66,14.29,14.29,0,0,0,4.56,2.13,20.21,20.21,0,0,0,5.33.71,24.9,24.9,0,0,0,6.09-.76A21.89,21.89,0,0,0,280,70.94a16.9,16.9,0,0,0,4.62-3.9,16.25,16.25,0,0,0,3-5.74h-4.27a16.91,16.91,0,0,1-4.51-.66,12.65,12.65,0,0,1-4.32-2.13,11.33,11.33,0,0,1-3.19-4A13.32,13.32,0,0,1,270,48.41a23.37,23.37,0,0,1,.91-6.24A22.31,22.31,0,0,1,273.68,36a15.9,15.9,0,0,1,4.57-4.67,11.05,11.05,0,0,1,6.29-1.82,9.1,9.1,0,0,1,5.58,1.72A14.43,14.43,0,0,1,294,35.68a25.21,25.21,0,0,1,2.49,5.93,57.7,57.7,0,0,1,1.42,6.4h2.94V61.3Zm-1.93-45.57c-.94,1.36-1.89,2.62-2.84,3.81s-1.89,2.45-2.84,3.8l-6.19-4.67L280,23.75q-2-1.42-4-2.74t-4-2.74C273,17,274,15.72,275,14.46s2-2.48,2.94-3.7l6.5,5.07,3.86-5.68Zm-8.62,32.48a8.44,8.44,0,0,0-1.12-4.77c-.75-1.08-1.49-1.63-2.23-1.63a3.52,3.52,0,0,0-2.69,1A5.9,5.9,0,0,0,280.18,45a2.93,2.93,0,0,0,0,2.44,1.87,1.87,0,0,0,1.62.71Z"/><path class="cls-2" d="M315.28,60.44a12.91,12.91,0,0,1-5-2.79,10.58,10.58,0,0,1-3.3,2.13,21.17,21.17,0,0,1-3.5,1.07,19.54,19.54,0,0,1-3.2.4c-1,0-1.78,0-2.38,0a6,6,0,0,1-1.58-.2c-.5-.14-.76-.3-.76-.51V48.92c0-.27.26-.47.76-.61a6.39,6.39,0,0,1,1.58-.2c.4,0,1,0,1.82,0a9.73,9.73,0,0,0,2.39-.41,5.87,5.87,0,0,0,2-1.06,2.64,2.64,0,0,0,.86-2.14V24.51q0-10.31-.2-20.65L315,0c.06,3.32.11,6.78.15,10.4s.05,7.28.05,11V42.53c0,2,.59,3.46,1.78,4.31a7.54,7.54,0,0,0,4.51,1.27V61.3A21.05,21.05,0,0,1,315.28,60.44Z"/><path class="cls-2" d="M378.78,48.11a32.83,32.83,0,0,0,5.89-.56,56.12,56.12,0,0,0,6.09-1.47A59.83,59.83,0,0,0,396.7,44a40.31,40.31,0,0,0,5.22-2.64c-1-.47-2.11-1-3.3-1.47s-2.3-1-3.35-1.37-2-.75-2.89-1a7.45,7.45,0,0,0-2-.4A6.05,6.05,0,0,0,387,38.21a14.58,14.58,0,0,0-2.94,2.59l-8.12-5c.61-.88,1.44-2,2.49-3.25a29,29,0,0,1,3.5-3.6,24.24,24.24,0,0,1,4.11-2.9,8.79,8.79,0,0,1,4.31-1.21A15.67,15.67,0,0,1,396.19,26c1.93.78,4,1.68,6.14,2.69l2.84,1.42a25.5,25.5,0,0,0,4.21,1.58,44.54,44.54,0,0,0,6.5,1.27,68.87,68.87,0,0,0,9.69.4L421.71,47.2a51.31,51.31,0,0,0-6,.86,31.85,31.85,0,0,0-8.68,3.14c-1.19.65-2.35,1.31-3.5,2l-5.33,2.9a47.75,47.75,0,0,1-5.69,2.63,39.34,39.34,0,0,1-6.39,1.88,35.56,35.56,0,0,1-7.36.71h-62.6a6,6,0,0,1-1.58-.2c-.5-.14-.76-.3-.76-.51V48.92c0-.27.26-.47.76-.61a6.39,6.39,0,0,1,1.58-.2Zm18.58-29.74-4-2.79q-2-1.37-4-2.79,1.62-2,3-3.81t3.1-3.8c1.35,1,2.65,1.87,3.9,2.79s2.56,1.84,3.91,2.79Z"/><path class="cls-1" d="M15.72,78.43a5.27,5.27,0,0,1-2.67-.7,4.92,4.92,0,0,1-1.92-1.92q-1.29,3-5.29,3a5.7,5.7,0,0,1-4.63-1.74l1.19-3a4.34,4.34,0,0,0,1.67.76,9.23,9.23,0,0,0,2.3.29,8.45,8.45,0,0,0,1.34-.1,4.75,4.75,0,0,0,1.17-.31,2.34,2.34,0,0,0,.82-.54,1.09,1.09,0,0,0,.31-.79,1.38,1.38,0,0,0,0-.28c0-.12-.12-.39-.26-.83s-.37-1.11-.69-2-.75-2.14-1.3-3.74l2.63-2.36q1,3.28,1.62,5.32a27.41,27.41,0,0,0,1.12,3.16,3.85,3.85,0,0,0,1.08,1.55,2.59,2.59,0,0,0,1.53.41h.69v3.8Z"/><path class="cls-1" d="M15.62,74.89c0-.09.08-.15.25-.2a2.1,2.1,0,0,1,.51-.06h2.16c1.12,0,1.68-.27,1.68-.79a1.09,1.09,0,0,0-.07-.34,3.06,3.06,0,0,0-.26-.51,9.51,9.51,0,0,0-.56-.81L18.38,71l2.13-3A5.67,5.67,0,0,1,22.1,70.2a7.53,7.53,0,0,1,.58,2.92,5.78,5.78,0,0,1-.44,2.34A4.69,4.69,0,0,1,21,77.12a5.09,5.09,0,0,1-1.82,1,7.55,7.55,0,0,1-2.27.32h-.55a2.1,2.1,0,0,1-.51-.06c-.17,0-.25-.1-.25-.17Zm6-11-2,2.63L16.9,64.65l2-2.66Z"/><path class="cls-1" d="M31.19,78.24a2.83,2.83,0,0,1-.64-.46,8,8,0,0,1-1.09,2.64,13.45,13.45,0,0,1-1.94,2.36A21.15,21.15,0,0,1,25,84.87c-.93.65-1.89,1.27-2.87,1.84l-2.79-2.17c.7-.35,1.54-.81,2.53-1.36a31.58,31.58,0,0,0,2.82-1.82,14.42,14.42,0,0,0,2.28-2,3.15,3.15,0,0,0,.94-2,1.94,1.94,0,0,0-.2-.82,9,9,0,0,0-.46-.86c-.18-.28-.35-.54-.53-.79l-.42-.59,2.53-2.72c.24.37.46.74.67,1.12a7.57,7.57,0,0,0,.67,1,3.56,3.56,0,0,0,.79.72,1.85,1.85,0,0,0,1,.28v3.8A1.69,1.69,0,0,1,31.19,78.24Z"/><path class="cls-1" d="M31.21,74.89c0-.09.08-.15.25-.2a2.1,2.1,0,0,1,.51-.06h2.16c1.12,0,1.68-.27,1.68-.79a1.09,1.09,0,0,0-.07-.34,3.06,3.06,0,0,0-.26-.51,9.51,9.51,0,0,0-.56-.81L34,71l2.13-3a5.67,5.67,0,0,1,1.59,2.27,7.53,7.53,0,0,1,.58,2.92,5.61,5.61,0,0,1-.45,2.34,4.55,4.55,0,0,1-1.21,1.66,5.09,5.09,0,0,1-1.82,1,7.55,7.55,0,0,1-2.27.32H32a2.1,2.1,0,0,1-.51-.06c-.17,0-.25-.1-.25-.17Zm.72,8.63,2-2.62,2.73,1.83-2,2.66Z"/><path class="cls-1" d="M64.79,71.31a7.2,7.2,0,0,0-2.73-.39,4.14,4.14,0,0,0-1.25.21,5.2,5.2,0,0,0-1.19.56,4.34,4.34,0,0,0-.91.75,1.3,1.3,0,0,0-.36.84.59.59,0,0,0,.49.58,6.24,6.24,0,0,0,1.25.19l1.61.12a6.06,6.06,0,0,1,1.61.33,2.82,2.82,0,0,1,1.25.82,2.32,2.32,0,0,1,.49,1.57,6,6,0,0,1-1,3.42,8.71,8.71,0,0,1-2.49,2.46,12.23,12.23,0,0,1-3.33,1.49,13.1,13.1,0,0,1-3.53.51,11.7,11.7,0,0,1-3.63-.51,7.11,7.11,0,0,1-2.57-1.41A5.73,5.73,0,0,1,47,80.7,7,7,0,0,1,46.47,78a10.2,10.2,0,0,1,.38-2.64A12,12,0,0,1,48,72.59l2.6.89a9.84,9.84,0,0,0-.77,1.8A5.65,5.65,0,0,0,49.56,77a3.91,3.91,0,0,0,.31,1.58,3.24,3.24,0,0,0,1,1.26,5.16,5.16,0,0,0,1.76.86,9.38,9.38,0,0,0,2.54.31,11,11,0,0,0,2.26-.27,15.86,15.86,0,0,0,2.42-.68,9.54,9.54,0,0,0,1.92-1c.52-.36.78-.72.78-1.07s-.12-.33-.37-.41a5.35,5.35,0,0,0-1-.18l-1.55-.12c-.58,0-1.19-.09-1.85-.18a2.47,2.47,0,0,1-1.66-.82,2.57,2.57,0,0,1-.54-1.7,6.35,6.35,0,0,1,.64-2.81,8.27,8.27,0,0,1,1.67-2.33,8,8,0,0,1,2.35-1.59,6.5,6.5,0,0,1,2.66-.59,5.56,5.56,0,0,1,1.41.18,5.26,5.26,0,0,1,1.35.57Z"/><path class="cls-1" d="M74.76,78.43a1.65,1.65,0,0,1-.77-.19,2.83,2.83,0,0,1-.64-.46A10.52,10.52,0,0,1,72.66,80a14.36,14.36,0,0,1-1.26,2.33,16,16,0,0,1-1.86,2.3,15.13,15.13,0,0,1-2.49,2.09l-3-2.1a16.56,16.56,0,0,0,2.25-1.37,15.14,15.14,0,0,0,2.13-1.84,10.78,10.78,0,0,0,1.61-2.06,4,4,0,0,0,.64-2,1.92,1.92,0,0,0-.19-.82c-.14-.29-.29-.57-.46-.86s-.35-.54-.53-.79l-.43-.59,2.53-2.72c.24.37.47.74.67,1.12a7.6,7.6,0,0,0,.68,1,3.75,3.75,0,0,0,.78.72,1.9,1.9,0,0,0,1,.28Zm-7.38-10.2L69,66l2.13,1.41,1.22-1.68,2.49,1.68-1.64,2.23-2.17-1.41L69.9,69.9Zm1.21-3.65,1.68-2.16L72.56,64,71,66.13Z"/><path class="cls-1" d="M74,74.89c0-.09.08-.15.24-.2a2.22,2.22,0,0,1,.51-.06h2.17c1.11,0,1.67-.27,1.67-.79a1.06,1.06,0,0,0-.06-.34,4.52,4.52,0,0,0-.27-.51,9.07,9.07,0,0,0-.55-.81c-.25-.31-.56-.72-1-1.23l2.14-3a5.67,5.67,0,0,1,1.59,2.27,7.71,7.71,0,0,1,.57,2.92,5.62,5.62,0,0,1-.44,2.34,4.66,4.66,0,0,1-1.21,1.66,5.22,5.22,0,0,1-1.83,1,7.48,7.48,0,0,1-2.26.32h-.56a2.22,2.22,0,0,1-.51-.06c-.16,0-.24-.1-.24-.17Zm.23-10.08,1.64-2.23L78,64l1.22-1.67L81.75,64l-1.67,2.24-2.17-1.42L76.8,66.49Z"/><path class="cls-1" d="M87.69,78l-3.35.88V60l3.35-1.31Z"/><path class="cls-1" d="M96.21,78.24a2.63,2.63,0,0,1-.64-.46,8,8,0,0,1-1.1,2.64,13,13,0,0,1-1.94,2.36A20.27,20.27,0,0,1,90,84.87c-.93.65-1.89,1.27-2.88,1.84l-2.79-2.17c.71-.35,1.55-.81,2.53-1.36a28.94,28.94,0,0,0,2.82-1.82,15,15,0,0,0,2.29-2,3.13,3.13,0,0,0,.93-2,1.8,1.8,0,0,0-.2-.82,7.2,7.2,0,0,0-.46-.86c-.17-.28-.35-.54-.52-.79l-.43-.59,2.53-2.72c.24.37.46.74.67,1.12a6.74,6.74,0,0,0,.68,1,3.75,3.75,0,0,0,.78.72,1.9,1.9,0,0,0,1,.28v3.8A1.65,1.65,0,0,1,96.21,78.24Z"/><path class="cls-1" d="M104.13,78.43a2.91,2.91,0,0,1-3-1.7,4.33,4.33,0,0,1-3.84,1.7H97a2.22,2.22,0,0,1-.51-.06c-.16,0-.24-.1-.24-.17V74.89c0-.09.08-.15.24-.2a2.22,2.22,0,0,1,.51-.06h.16c1.65,0,2.47-.56,2.47-1.68V71.64l2.69-.85v.82c0,2,.65,3,2,3h.19v3.8ZM97,67.21,98.59,65l2.13,1.41,1.22-1.67,2.52,1.67-1.67,2.23-2.17-1.41-1.11,1.67Z"/><path class="cls-1" d="M103.71,74.89c0-.09.08-.15.24-.2a2.22,2.22,0,0,1,.51-.06h.33a2.29,2.29,0,0,0,1.48-.49,1.76,1.76,0,0,0,.59-1.42v-1l2.3-.79v1a3.75,3.75,0,0,0,.42,1.92,1.41,1.41,0,0,0,1.28.71c1.53,0,2.3-.69,2.3-2.07V71.31l2.33-.69v1.64a2.55,2.55,0,0,0,.66,1.78,2.14,2.14,0,0,0,1.67.72,1.37,1.37,0,0,0,1.07-.36,1.35,1.35,0,0,0,.31-.92,2.82,2.82,0,0,0-.33-1.3,3.35,3.35,0,0,0-.75-1l2.26-2.56a6.32,6.32,0,0,1,1.13,2.07,7.48,7.48,0,0,1,.12,4.31,6,6,0,0,1-.77,1.74A4.12,4.12,0,0,1,119.58,78a3.27,3.27,0,0,1-1.76.48,4.89,4.89,0,0,1-2.21-.48,3,3,0,0,1-1.43-1.39,3.15,3.15,0,0,1-1.25,1.33,3.62,3.62,0,0,1-1.67.5,4.17,4.17,0,0,1-1.89-.42A3.21,3.21,0,0,1,108,76.73,3.11,3.11,0,0,1,106.47,78a5.6,5.6,0,0,1-2,.39,2.22,2.22,0,0,1-.51-.06c-.16,0-.24-.1-.24-.17Z"/><path class="cls-1" d="M128.52,78l-3.35.88V60l3.35-1.31Z"/><path class="cls-1" d="M153,78.43a2.51,2.51,0,0,1,.12,1.15,4.3,4.3,0,0,1-.35,1.18,6.5,6.5,0,0,1-2.18,2.5,10.13,10.13,0,0,1-3.23,1.49,11.24,11.24,0,0,1-3.66.36,9,9,0,0,1-3.43-.85,6.45,6.45,0,0,1-2.53-2.13,6,6,0,0,1-1-3.53,9.28,9.28,0,0,1,.43-2.81,15.19,15.19,0,0,1,1.08-2.51l2.5.89c-.26.57-.52,1.19-.76,1.87a5.8,5.8,0,0,0-.36,1.94,3.73,3.73,0,0,0,.5,2,3.23,3.23,0,0,0,1.31,1.2,5.1,5.1,0,0,0,1.85.5,9.14,9.14,0,0,0,2.09,0,11.88,11.88,0,0,0,2-.44,10.77,10.77,0,0,0,1.75-.71q.63-.33.66-.54c0-.14-.07-.25-.26-.31L146,78.43c0-.17.12-.38.21-.64l.32-.78c.1-.28.21-.54.32-.79a3.72,3.72,0,0,1,.33-.61,2.51,2.51,0,0,1,.76-.79,2.43,2.43,0,0,1,1.11-.19h4.1v3.8Z"/><path class="cls-1" d="M152.38,74.89c0-.09.08-.15.25-.2a2.07,2.07,0,0,1,.5-.06H156c.7,0,1.27,0,1.71,0a8,8,0,0,0,1.43-.21,18.12,18.12,0,0,0,1.9-.59c.76-.27,1.79-.66,3.1-1.16-1.25-.35-2.21-.62-2.89-.79s-1.18-.32-1.51-.43a1.59,1.59,0,0,0-1.19.12,3.22,3.22,0,0,0-.94.77l-2.26-1.55a9,9,0,0,1,2-2.57,2.72,2.72,0,0,1,2.3-.58,22.65,22.65,0,0,1,2.23.46l2.3.63c.78.22,1.59.43,2.42.64s1.73.39,2.69.54c.44,0,.87.08,1.3.1l1.26.06-1,3.74q-.8-.06-1.38-.06a5.76,5.76,0,0,0-1.12.1,5.51,5.51,0,0,0-1.06.31,8.68,8.68,0,0,0-1.23.61c-1.12.63-2,1.18-2.78,1.64a16.78,16.78,0,0,1-2.15,1.15,10.56,10.56,0,0,1-2.31.68,18.21,18.21,0,0,1-3.27.23h-2.43a2.07,2.07,0,0,1-.5-.06c-.17,0-.25-.1-.25-.17Z"/><path class="cls-1" d="M178.5,78l-3.34.88V60l3.34-1.31Z"/><path class="cls-1" d="M187,78.24a2.83,2.83,0,0,1-.64-.46,8,8,0,0,1-1.1,2.64,13,13,0,0,1-1.93,2.36,21.15,21.15,0,0,1-2.53,2.09c-.93.65-1.89,1.27-2.87,1.84l-2.79-2.17c.7-.35,1.54-.81,2.52-1.36a30.36,30.36,0,0,0,2.83-1.82,15.37,15.37,0,0,0,2.28-2,3.13,3.13,0,0,0,.93-2,1.92,1.92,0,0,0-.19-.82c-.14-.29-.29-.57-.46-.86s-.35-.54-.53-.79l-.43-.59,2.53-2.72c.24.37.47.74.67,1.12a7.6,7.6,0,0,0,.68,1,3.75,3.75,0,0,0,.78.72,1.9,1.9,0,0,0,1,.28v3.8A1.65,1.65,0,0,1,187,78.24Z"/><path class="cls-1" d="M187,74.89c0-.09.08-.15.24-.2a2.22,2.22,0,0,1,.51-.06h1.15l.61-.72c.21-.24.43-.49.67-.73q.1-1,.15-2.1c0-.74,0-1.44,0-2.1,0-1.33,0-2.72-.13-4.15s-.22-3-.4-4.84l3.42-1.31V70a15.05,15.05,0,0,1,2.47-1.82,4.9,4.9,0,0,1,2.51-.74,3.9,3.9,0,0,1,2.89,1.1,3.66,3.66,0,0,1,1.12,2.74,5.71,5.71,0,0,1-1,3.33A8.05,8.05,0,0,1,199,76.81a9.81,9.81,0,0,1-3,1.25,13.58,13.58,0,0,1-3,.37h-5.15a2.22,2.22,0,0,1-.51-.06c-.16,0-.24-.1-.24-.17ZM197.41,71a4.2,4.2,0,0,0-2.63,1,37.85,37.85,0,0,0-2.89,2.63h.89c.2,0,.5,0,.92,0s.88-.06,1.39-.11a15.2,15.2,0,0,0,1.58-.25,9.61,9.61,0,0,0,1.48-.41,3.51,3.51,0,0,0,1.1-.62,1.17,1.17,0,0,0,.42-.9.86.86,0,0,0-.24-.64,1.85,1.85,0,0,0-.61-.4,3.89,3.89,0,0,0-.74-.21A4.49,4.49,0,0,0,197.41,71Z"/><path class="cls-1" d="M103.15,98.94h-2.43V95H96.88V92.51h3.84V88.64h2.43v3.87H107V95h-3.84Z"/><path class="cls-1" d="M14.51,120.43a5.28,5.28,0,0,1-2.68-.7,5.06,5.06,0,0,1-1.92-1.92q-1.27,3-5.28,3c-2.12,0-3.67-.58-4.63-1.74l1.18-3a4.4,4.4,0,0,0,1.68.76,9.15,9.15,0,0,0,2.29.29,8.58,8.58,0,0,0,1.35-.1,4.67,4.67,0,0,0,1.16-.31,2.25,2.25,0,0,0,.82-.54,1.1,1.1,0,0,0,.32-.79,1.38,1.38,0,0,0-.05-.28c0-.12-.12-.39-.27-.83s-.37-1.11-.69-2L6.5,108.55l2.62-2.36q1,3.28,1.63,5.32a27.69,27.69,0,0,0,1.11,3.16A3.76,3.76,0,0,0,13,116.22a2.58,2.58,0,0,0,1.52.41h.69v3.8Z"/><path class="cls-1" d="M14.41,116.89c0-.09.08-.15.24-.2a2.22,2.22,0,0,1,.51-.06h2.17c1.11,0,1.67-.27,1.67-.79a1.06,1.06,0,0,0-.06-.34,3.3,3.3,0,0,0-.27-.51,9.07,9.07,0,0,0-.55-.81l-1-1.23,2.14-3a5.67,5.67,0,0,1,1.59,2.27,7.71,7.71,0,0,1,.57,2.92,5.62,5.62,0,0,1-.44,2.34,4.55,4.55,0,0,1-1.21,1.66,5.17,5.17,0,0,1-1.82,1,7.6,7.6,0,0,1-2.27.32h-.56a2.22,2.22,0,0,1-.51-.06c-.16,0-.24-.1-.24-.17Zm6-11-2,2.63-2.72-1.84,2-2.66Z"/><path class="cls-1" d="M30,120.24a2.83,2.83,0,0,1-.64-.46,8,8,0,0,1-1.1,2.64,13,13,0,0,1-1.93,2.36,21.15,21.15,0,0,1-2.53,2.09c-.93.65-1.89,1.27-2.87,1.84l-2.79-2.17c.7-.35,1.54-.81,2.52-1.36a30.36,30.36,0,0,0,2.83-1.82,15.37,15.37,0,0,0,2.28-2,3.13,3.13,0,0,0,.93-2,1.92,1.92,0,0,0-.19-.82c-.14-.29-.29-.57-.46-.86s-.35-.54-.53-.79l-.43-.59,2.53-2.72c.24.37.47.74.67,1.12a7.6,7.6,0,0,0,.68,1,3.75,3.75,0,0,0,.78.72,1.9,1.9,0,0,0,1,.28v3.8A1.65,1.65,0,0,1,30,120.24Z"/><path class="cls-1" d="M30,116.89c0-.09.08-.15.24-.2a2.22,2.22,0,0,1,.51-.06h2.17c1.11,0,1.67-.27,1.67-.79a1.06,1.06,0,0,0-.06-.34,4.52,4.52,0,0,0-.27-.51,9.07,9.07,0,0,0-.55-.81c-.25-.31-.56-.72-1-1.23l2.14-3a5.67,5.67,0,0,1,1.59,2.27,7.71,7.71,0,0,1,.57,2.92,5.62,5.62,0,0,1-.44,2.34,4.66,4.66,0,0,1-1.21,1.66,5.22,5.22,0,0,1-1.83,1,7.48,7.48,0,0,1-2.26.32h-.56a2.22,2.22,0,0,1-.51-.06c-.16,0-.24-.1-.24-.17Zm.72,8.63,2-2.62,2.72,1.83-2,2.66Z"/><path class="cls-1" d="M69.81,120.43a3.34,3.34,0,0,1-3.35-1.9,6.87,6.87,0,0,1-4,2.12,35,35,0,0,1-7.78.7q-4.72,0-7-1.42a4.45,4.45,0,0,1-2.33-4,6.81,6.81,0,0,1,.33-2,15.43,15.43,0,0,1,.91-2.28l2.43.72c-.17.39-.32.79-.46,1.2a4,4,0,0,0-.19,1.23,1.9,1.9,0,0,0,.69,1.57,4.43,4.43,0,0,0,1.8.84,11.87,11.87,0,0,0,2.55.33c1,0,1.9,0,2.87,0,.78,0,1.7,0,2.75,0a20,20,0,0,0,3-.31,8.31,8.31,0,0,0,2.38-.79,1.61,1.61,0,0,0,1-1.48v-.85l2.69-.85a15.88,15.88,0,0,0,.08,1.74,2.18,2.18,0,0,0,.35,1,1.32,1.32,0,0,0,.73.5,5.33,5.33,0,0,0,1.27.13h0v3.8Zm-17.1-11.06,1.64-2.23,2.13,1.41,1.22-1.67,2.52,1.67-1.67,2.24-2.17-1.42-1.11,1.68Z"/><path class="cls-1" d="M75.09,124.57l-1.64,2.23-2.13-1.41L70.1,127l-2.56-1.64,1.74-2.26,2.13,1.44,1.19-1.67Zm-5.41-7.68c0-.09.08-.15.24-.2a2.22,2.22,0,0,1,.51-.06H72.6c1.11,0,1.67-.27,1.67-.79a.86.86,0,0,0-.07-.34,3.06,3.06,0,0,0-.26-.51,9.51,9.51,0,0,0-.56-.81L72.43,113l2.14-3a5.87,5.87,0,0,1,1.59,2.27,7.71,7.71,0,0,1,.57,2.92,5.78,5.78,0,0,1-.44,2.34,4.57,4.57,0,0,1-1.22,1.66,5.09,5.09,0,0,1-1.82,1,7.48,7.48,0,0,1-2.26.32h-.56a2.22,2.22,0,0,1-.51-.06c-.16,0-.24-.1-.24-.17Z"/><path class="cls-1" d="M88.05,120.43a8.13,8.13,0,0,1-1.21,2.43,15.06,15.06,0,0,1-1.92,2.19,20.93,20.93,0,0,1-2.43,2c-.88.61-1.79,1.18-2.71,1.71L77,126.54c.62-.31,1.33-.69,2.14-1.15s1.62-1,2.43-1.49a20.69,20.69,0,0,0,2.21-1.69,6.06,6.06,0,0,0,1.46-1.78,13.83,13.83,0,0,1-2.11-.14,4.29,4.29,0,0,1-1.66-.58,2.84,2.84,0,0,1-1.07-1.18,4.43,4.43,0,0,1-.38-2,7.17,7.17,0,0,1,.92-3.38,5,5,0,0,1,1.13-1.33,2.43,2.43,0,0,1,1.56-.54,3.36,3.36,0,0,1,1.83.51,4.81,4.81,0,0,1,1.34,1.28,6.22,6.22,0,0,1,.85,1.71,8.32,8.32,0,0,1,.41,1.82h1.19v3.8Zm-2.52-3.8a4.7,4.7,0,0,0-.23-.74,3.17,3.17,0,0,0-.43-.76,2.8,2.8,0,0,0-.57-.57,1.16,1.16,0,0,0-.68-.23,1.17,1.17,0,0,0-1,.43,1.43,1.43,0,0,0-.36.95.9.9,0,0,0,.13.54.79.79,0,0,0,.48.26,4.61,4.61,0,0,0,1,.1Z"/><path class="cls-1" d="M88.48,116.89c0-.09.08-.15.25-.2a2.1,2.1,0,0,1,.51-.06h2.82a2.91,2.91,0,0,1-.59-1.68,4,4,0,0,1,.7-2.21,7.11,7.11,0,0,1,1.66-1.82l-.72-.46L94.68,107c.66.46,1.49,1.07,2.48,1.81a27.72,27.72,0,0,1,2.89,2.48,18.52,18.52,0,0,1,2.4,2.85,5.57,5.57,0,0,1,1,2.94,8.3,8.3,0,0,1-.23,2,4.87,4.87,0,0,1-.64,1.51,2.63,2.63,0,0,1-1,.88,1.39,1.39,0,0,1-1.13.08,16.28,16.28,0,0,1-2.28-.78c-.85-.35-1.68-.75-2.52-1.19a8.18,8.18,0,0,1-2.06.64,11,11,0,0,1-1.81.18H89.24a2.1,2.1,0,0,1-.51-.06c-.17,0-.25-.1-.25-.17Zm6.07-1.15a9.15,9.15,0,0,0,1,.59,2.17,2.17,0,0,0,1.58-2.07,1.12,1.12,0,0,0-.16-.57,2.5,2.5,0,0,0-.4-.51,1.82,1.82,0,0,0-.51-.36,1.08,1.08,0,0,0-.47-.13,1.1,1.1,0,0,0-.59.18,2.41,2.41,0,0,0-.56.46,2.61,2.61,0,0,0-.43.59,1.2,1.2,0,0,0-.16.54,2.23,2.23,0,0,0,.1.54A1.37,1.37,0,0,0,94.55,115.74Zm4.79,0a4.44,4.44,0,0,1-.44,1.15,6.59,6.59,0,0,1-.64,1,7.43,7.43,0,0,0,.81.37c.27.11.53.21.77.32a6.2,6.2,0,0,0,.72.23c.17,0,.33-.08.46-.39a2.06,2.06,0,0,0-.23-1.85,7.66,7.66,0,0,0-1.38-1.6A2.46,2.46,0,0,1,99.34,115.77Z"/><path class="cls-1" d="M127.93,120.43a2.51,2.51,0,0,1,.12,1.15,4.3,4.3,0,0,1-.35,1.18,6.5,6.5,0,0,1-2.18,2.5,10.13,10.13,0,0,1-3.23,1.49,11.24,11.24,0,0,1-3.66.36,9,9,0,0,1-3.43-.85,6.45,6.45,0,0,1-2.53-2.13,6,6,0,0,1-1-3.53,9.28,9.28,0,0,1,.43-2.81,15.19,15.19,0,0,1,1.08-2.51l2.5.89c-.26.57-.52,1.19-.76,1.87a5.8,5.8,0,0,0-.36,1.94,3.73,3.73,0,0,0,.5,2,3.23,3.23,0,0,0,1.31,1.2,5.1,5.1,0,0,0,1.85.5,9.14,9.14,0,0,0,2.09,0,11.88,11.88,0,0,0,2.05-.44,11.16,11.16,0,0,0,1.75-.71q.63-.33.66-.54c0-.14-.07-.25-.26-.31l-3.58-1.22a5.16,5.16,0,0,1,.21-.64l.32-.78c.1-.28.21-.54.32-.79a3.72,3.72,0,0,1,.33-.61,2.51,2.51,0,0,1,.76-.79,2.43,2.43,0,0,1,1.11-.19h4.1v3.8Z"/><path class="cls-1" d="M128.09,120.43a2.07,2.07,0,0,1-.5-.06c-.17,0-.25-.1-.25-.17v-3.31c0-.09.08-.15.25-.2a2.07,2.07,0,0,1,.5-.06h3.29v3.8Z"/><path class="cls-1" d="M131.38,120.43a2.1,2.1,0,0,1-.51-.06c-.17,0-.25-.1-.25-.17v-3.31c0-.09.08-.15.25-.2a2.1,2.1,0,0,1,.51-.06h3.28v3.8Z"/><path class="cls-1" d="M134.66,120.43a2.1,2.1,0,0,1-.51-.06c-.16,0-.25-.1-.25-.17v-3.31c0-.09.09-.15.25-.2a2.1,2.1,0,0,1,.51-.06h3.28v3.8Z"/><path class="cls-1" d="M137.94,120.43a2.1,2.1,0,0,1-.51-.06c-.16,0-.25-.1-.25-.17v-3.31c0-.09.09-.15.25-.2a2.1,2.1,0,0,1,.51-.06h3.28v3.8Z"/><path class="cls-1" d="M141.22,120.43a2.22,2.22,0,0,1-.51-.06c-.16,0-.24-.1-.24-.17v-3.31c0-.09.08-.15.24-.2a2.22,2.22,0,0,1,.51-.06h3.28v3.8Z"/><path class="cls-1" d="M144.5,120.43a2.22,2.22,0,0,1-.51-.06c-.16,0-.24-.1-.24-.17v-3.31c0-.09.08-.15.24-.2a2.22,2.22,0,0,1,.51-.06h3.29v3.8Z"/><path class="cls-1" d="M147.78,120.43a2.07,2.07,0,0,1-.5-.06c-.17,0-.25-.1-.25-.17v-3.31c0-.09.08-.15.25-.2a2.07,2.07,0,0,1,.5-.06h3.29v3.8Z"/><path class="cls-1" d="M151.07,120.43a2.1,2.1,0,0,1-.51-.06c-.17,0-.25-.1-.25-.17v-3.31c0-.09.08-.15.25-.2a2.1,2.1,0,0,1,.51-.06h3.28v3.8Z"/><path class="cls-1" d="M153.59,116.89c0-.09.09-.15.25-.2a2.1,2.1,0,0,1,.51-.06h2.89c.7,0,1.27,0,1.7,0a7.85,7.85,0,0,0,1.43-.21,18.12,18.12,0,0,0,1.9-.59c.76-.27,1.79-.66,3.11-1.16-1.25-.35-2.21-.62-2.89-.79s-1.18-.32-1.51-.43a1.62,1.62,0,0,0-1.2.12,3.36,3.36,0,0,0-.94.77l-2.26-1.55a9.34,9.34,0,0,1,2-2.57,2.73,2.73,0,0,1,2.3-.58,22.07,22.07,0,0,1,2.23.46l2.3.63c.79.22,1.6.43,2.43.64s1.73.39,2.69.54c.44,0,.87.08,1.29.1l1.27.06-1,3.74q-.78-.06-1.38-.06a5.66,5.66,0,0,0-1.11.1,5.6,5.6,0,0,0-1.07.31,8.68,8.68,0,0,0-1.23.61c-1.12.63-2,1.18-2.77,1.64a17.48,17.48,0,0,1-2.15,1.15,10.65,10.65,0,0,1-2.32.68,18.16,18.16,0,0,1-3.26.23h-2.43a2.1,2.1,0,0,1-.51-.06c-.16,0-.25-.1-.25-.17Z"/><path class="cls-1" d="M179.72,120l-3.35.88V102l3.35-1.31Z"/><path class="cls-1" d="M188.23,120.24a2.83,2.83,0,0,1-.64-.46,8,8,0,0,1-1.09,2.64,13.45,13.45,0,0,1-1.94,2.36,21.15,21.15,0,0,1-2.53,2.09c-.93.65-1.89,1.27-2.87,1.84l-2.79-2.17c.7-.35,1.54-.81,2.53-1.36a31.58,31.58,0,0,0,2.82-1.82,14.42,14.42,0,0,0,2.28-2,3.15,3.15,0,0,0,.94-2,1.94,1.94,0,0,0-.2-.82,9,9,0,0,0-.46-.86c-.18-.28-.35-.54-.53-.79l-.42-.59,2.53-2.72c.24.37.46.74.67,1.12a7.57,7.57,0,0,0,.67,1,3.56,3.56,0,0,0,.79.72,1.85,1.85,0,0,0,1,.28v3.8A1.69,1.69,0,0,1,188.23,120.24Z"/><path class="cls-1" d="M188.25,116.89c0-.09.08-.15.25-.2a2.1,2.1,0,0,1,.51-.06h1.14l.61-.72c.21-.24.43-.49.67-.73q.1-1,.15-2.1c0-.74,0-1.44,0-2.1,0-1.33,0-2.72-.13-4.15s-.22-3-.39-4.84l3.41-1.31V112a15.12,15.12,0,0,1,2.48-1.82,4.87,4.87,0,0,1,2.51-.74,3.93,3.93,0,0,1,2.89,1.1,3.69,3.69,0,0,1,1.11,2.74,5.71,5.71,0,0,1-.95,3.33,7.93,7.93,0,0,1-2.35,2.23,9.85,9.85,0,0,1-3,1.25,13.64,13.64,0,0,1-3,.37H189a2.1,2.1,0,0,1-.51-.06c-.17,0-.25-.1-.25-.17ZM198.62,113a4.15,4.15,0,0,0-2.62,1,34.41,34.41,0,0,0-2.89,2.63H194c.2,0,.51,0,.92,0s.88-.06,1.4-.11a15,15,0,0,0,1.57-.25,9.61,9.61,0,0,0,1.48-.41,3.4,3.4,0,0,0,1.1-.62,1.18,1.18,0,0,0,.43-.9.87.87,0,0,0-.25-.64,1.75,1.75,0,0,0-.61-.4,3.69,3.69,0,0,0-.74-.21A4.36,4.36,0,0,0,198.62,113Z"/></svg>