<svg id="Layer_1" data-name="Layer 1" xmlns="http://www.w3.org/2000/svg" viewBox="0 0 350 418.83"><defs><style>.cls-1,.cls-2{fill:#007199;}.cls-1{fill-rule:evenodd;}</style></defs><path class="cls-1" d="M350,135.73q-9.11-12.37-19.81-25C219.39-20,100-21.7,0,37.24V350H350Z"/><path class="cls-2" d="M8.69,401.49a5.21,5.21,0,0,1-.38,2,4.24,4.24,0,0,1-1,1.5,4.53,4.53,0,0,1-1.5.92,5,5,0,0,1-1.82.33,4.38,4.38,0,0,1-2.91-.88A3.09,3.09,0,0,1,0,402.85,10.1,10.1,0,0,1,1.82,398l-.68-.32,1.72-3a20.11,20.11,0,0,1,2.22,1.29,10.61,10.61,0,0,1,1.83,1.53,6.57,6.57,0,0,1,1.27,1.82A5.27,5.27,0,0,1,8.69,401.49Zm-2.54.22c0-1-.8-1.86-2.41-2.66a7.33,7.33,0,0,0-.83,1.25,2.7,2.7,0,0,0-.37,1.25,1.19,1.19,0,0,0,.36.88,1.64,1.64,0,0,0,1.2.36,3.14,3.14,0,0,0,.65-.07,3.47,3.47,0,0,0,.67-.19,1.74,1.74,0,0,0,.52-.34A.66.66,0,0,0,6.15,401.71Z"/><path class="cls-2" d="M14.66,405.47a4,4,0,0,1-1.6-1.48,6.25,6.25,0,0,1-.78-2.24,20.33,20.33,0,0,1-.24-2.83c0-.48,0-1.16-.07-2.05s0-1.86-.06-2.9-.05-2.11-.08-3.21-.06-2.11-.08-3l3.19-1.3v12.89a3.47,3.47,0,0,0,.58,2.19,2.27,2.27,0,0,0,1.89.73V406A5.92,5.92,0,0,1,14.66,405.47Z"/><path class="cls-2" d="M31.4,406a5.9,5.9,0,0,1-2-.36,8.71,8.71,0,0,1-1.85-.94,10.47,10.47,0,0,1-1.63-1.34,13.35,13.35,0,0,1-1.33-1.53A4.12,4.12,0,0,1,22.42,405a10.21,10.21,0,0,1-5,1,1.79,1.79,0,0,1-.51-.07c-.16,0-.24-.09-.24-.16v-3.29c0-.08.08-.15.24-.19a2.24,2.24,0,0,1,.51-.07h1.32a10.72,10.72,0,0,0,1.7-.13,4.9,4.9,0,0,0,1.47-.43,1,1,0,0,0,.62-.93,2.33,2.33,0,0,0-.56-1.3,12.53,12.53,0,0,0-1.31-1.52c-.51-.51-1-1-1.55-1.46s-.93-.85-1.24-1.16a3.94,3.94,0,0,1-.3-.34.77.77,0,0,1-.12-.63,8.16,8.16,0,0,1,.12-.87,7.76,7.76,0,0,1,.19-.89,4.47,4.47,0,0,1,.28-.76.82.82,0,0,1,.39-.44,53.52,53.52,0,0,1,5.77-2.46q3.57-1.32,8.55-2.88l-.43,3.68c-2.36.54-4.52,1.11-6.46,1.72s-3.72,1.23-5.35,1.86c-.41.15-.47.33-.16.55.93.72,1.84,1.46,2.71,2.24s1.75,1.6,2.59,2.45l1.42,1.38a11.69,11.69,0,0,0,1.46,1.19,7.92,7.92,0,0,0,1.61.83,5.54,5.54,0,0,0,1.86.3h1.49V406Zm.65-21-5.9,1.92c-1.58.52-2.87,1-3.88,1.32s-1.78.64-2.32.86-1,.4-1.27.55l.42-1.79c1.06-.49,2.69-1.13,4.87-1.92s5-1.72,8.31-2.83Z"/><path class="cls-2" d="M32.74,402.49c0-.08.08-.15.24-.19a2.08,2.08,0,0,1,.5-.07h2.15c1.11,0,1.66-.26,1.66-.78a1.11,1.11,0,0,0-.06-.34,3.51,3.51,0,0,0-.26-.5,9.59,9.59,0,0,0-.56-.8l-.94-1.22,2.11-3a5.54,5.54,0,0,1,1.58,2.24,7.61,7.61,0,0,1,.57,2.9,5.72,5.72,0,0,1-.44,2.32,4.49,4.49,0,0,1-1.2,1.65,5,5,0,0,1-1.81,1A7.35,7.35,0,0,1,34,406h-.56a1.68,1.68,0,0,1-.5-.07c-.16,0-.24-.09-.24-.16Zm5.92-10.93-2,2.6L34,392.34l2-2.63Z"/><path class="cls-2" d="M75.72,406a5.91,5.91,0,0,1-2.13-.39,9.26,9.26,0,0,1-1.92-1A9.61,9.61,0,0,1,70,403.19a13.55,13.55,0,0,1-1.34-1.64,3.81,3.81,0,0,1-.7,2.12,5.43,5.43,0,0,1-1.59,1.46,8.8,8.8,0,0,1-2.18.94,17.7,17.7,0,0,1-2.48.54,23.11,23.11,0,0,1-2.4.23c-.77,0-1.45.05-2,.05q-9.44,0-9.43-5.53a9.56,9.56,0,0,1,1.2-4.1l2.41.71a6.42,6.42,0,0,0-.72,2.21,2,2,0,0,0,.43,1.34,3.28,3.28,0,0,0,1.07.86,5.38,5.38,0,0,0,1.48.51,15.69,15.69,0,0,0,1.66.21c.55,0,1.07,0,1.54,0h1.21c.35,0,.8,0,1.35,0s1.14-.06,1.76-.11a16.13,16.13,0,0,0,1.88-.28,11.64,11.64,0,0,0,1.73-.47,3.82,3.82,0,0,0,1.25-.7,1.38,1.38,0,0,0,.52-1,1.88,1.88,0,0,0-.37-1,7.86,7.86,0,0,0-1-1.14c-.39-.39-.81-.78-1.25-1.19s-.86-.78-1.23-1.15a9.88,9.88,0,0,1-.74-.88,1.42,1.42,0,0,1-.2-1,7.1,7.1,0,0,1,.12-.8,6.56,6.56,0,0,1,.19-.82,4.32,4.32,0,0,1,.28-.72.85.85,0,0,1,.35-.42,51.52,51.52,0,0,1,5.83-2.49q3.59-1.32,8.53-2.85l-.43,3.61q-3.06.75-6,1.61a60.63,60.63,0,0,0-5.81,2,.46.46,0,0,0-.31.21c0,.1,0,.21.18.34.82.63,1.66,1.33,2.52,2.11s1.78,1.64,2.75,2.58l1.43,1.35A13.1,13.1,0,0,0,73,401.06a7.61,7.61,0,0,0,1.59.85,5.08,5.08,0,0,0,1.86.32h1.49V406Z"/><path class="cls-2" d="M82.55,410.11l-1.62,2.21-2.12-1.4-1.2,1.63-2.54-1.63,1.72-2.24,2.12,1.43,1.17-1.66Zm-5.36-7.62c0-.08.08-.15.24-.19a2.08,2.08,0,0,1,.5-.07h2.15c1.11,0,1.66-.26,1.66-.78a1.11,1.11,0,0,0-.06-.34,3.51,3.51,0,0,0-.26-.5,9.59,9.59,0,0,0-.56-.8l-.94-1.22,2.11-3a5.54,5.54,0,0,1,1.58,2.24,7.61,7.61,0,0,1,.57,2.9,5.55,5.55,0,0,1-.44,2.32,4.49,4.49,0,0,1-1.2,1.65,5,5,0,0,1-1.81,1,7.35,7.35,0,0,1-2.24.33h-.56a1.68,1.68,0,0,1-.5-.07c-.16,0-.24-.09-.24-.16Z"/><path class="cls-2" d="M104.29,416.91l-7.35,1.92-.23-1.17,7.29-2.05Z"/><path class="cls-2" d="M121.93,406a4.14,4.14,0,0,1-1.82-.37,2.81,2.81,0,0,1-1.27-1.32,3.82,3.82,0,0,1-1.34,1.23,3.28,3.28,0,0,1-1.62.43,2.92,2.92,0,0,1-1.45-.39,3.33,3.33,0,0,1-1.22-1.27A3.64,3.64,0,0,1,110,406a2.59,2.59,0,0,1-1.47-.43,8.51,8.51,0,0,1-.76,3.08,8.26,8.26,0,0,1-1.81,2.52,8.44,8.44,0,0,1-2.73,1.71,9.71,9.71,0,0,1-3.58.63,8.75,8.75,0,0,1-3.27-.55,6,6,0,0,1-3.61-3.81,8.36,8.36,0,0,1-.44-2.76,10,10,0,0,1,.32-2.54,8.93,8.93,0,0,1,1-2.41l2.41.85a10.22,10.22,0,0,0-.65,1.69,6.05,6.05,0,0,0-.23,1.63,4.52,4.52,0,0,0,.28,1.62,3.32,3.32,0,0,0,.84,1.3,3.94,3.94,0,0,0,1.45.88,6.05,6.05,0,0,0,2.12.33,7.14,7.14,0,0,0,2.36-.36,4.78,4.78,0,0,0,1.7-1,3.94,3.94,0,0,0,1-1.44,4.62,4.62,0,0,0,.34-1.78,6.5,6.5,0,0,0-.34-2,8.14,8.14,0,0,0-1.06-2.1l2.73-2.24a13.38,13.38,0,0,0,.74,1.26,8.44,8.44,0,0,0,.83,1.11,4.08,4.08,0,0,0,.86.78,1.54,1.54,0,0,0,.89.29,2.29,2.29,0,0,0,1.5-.39,1.55,1.55,0,0,0,.46-1.23v-1.14l2.27-.81v1.1a3.22,3.22,0,0,0,.44,1.91,1.9,1.9,0,0,0,1.58.56,1.87,1.87,0,0,0,1.32-.43,1.57,1.57,0,0,0,.47-1.19v-1.14l2.31-.81V400q0,.59,0,1a1.7,1.7,0,0,0,.2.69.93.93,0,0,0,.52.4,3,3,0,0,0,1,.13h.49V406Z"/><path class="cls-2" d="M121.8,402.49c0-.08.08-.15.24-.19a2.09,2.09,0,0,1,.51-.07h2.86c.69,0,1.26,0,1.69,0a7.75,7.75,0,0,0,1.42-.21,15.93,15.93,0,0,0,1.89-.59c.74-.27,1.77-.65,3.07-1.15-1.24-.35-2.19-.61-2.86-.78s-1.17-.32-1.5-.42a1.64,1.64,0,0,0-1.19.11,3.62,3.62,0,0,0-.93.76l-2.24-1.53a9.16,9.16,0,0,1,2-2.55,2.72,2.72,0,0,1,2.28-.57,18.86,18.86,0,0,1,2.21.46l2.28.61c.78.22,1.59.43,2.41.64s1.71.38,2.67.54l1.28.09,1.26.07-1,3.71c-.52,0-1-.07-1.37-.07a5.71,5.71,0,0,0-2.16.41,9,9,0,0,0-1.22.6c-1.11.63-2,1.17-2.75,1.63a18.61,18.61,0,0,1-2.13,1.14,10.47,10.47,0,0,1-2.3.68A18.8,18.8,0,0,1,125,406h-2.4a1.7,1.7,0,0,1-.51-.07c-.16,0-.24-.09-.24-.16Z"/><path class="cls-2" d="M161.27,416.26l-7.35,1.92-.23-1.17L161,415Z"/><path class="cls-2" d="M157.17,409.07a9.89,9.89,0,0,0,2.57-.31,6.21,6.21,0,0,0,2-.93,4.3,4.3,0,0,0,1.34-1.54,4.78,4.78,0,0,0,.47-2.17V404a4.46,4.46,0,0,1-2.6.85,4.16,4.16,0,0,1-1.27-.2,3.15,3.15,0,0,1-1.08-.59,3,3,0,0,1-.73-1,3.18,3.18,0,0,1-.27-1.34,6.76,6.76,0,0,1,.26-1.77,7.42,7.42,0,0,1,.76-1.87,5.4,5.4,0,0,1,1.22-1.48,2.47,2.47,0,0,1,1.63-.6,2.93,2.93,0,0,1,2.11.81,5.75,5.75,0,0,1,1.35,2,10.31,10.31,0,0,1,.72,2.45,14,14,0,0,1,.21,2.2,11.53,11.53,0,0,1-.65,4,7.93,7.93,0,0,1-1.87,2.93,8,8,0,0,1-2.93,1.79,11.37,11.37,0,0,1-3.79.6,8.56,8.56,0,0,1-3.32-.59,6.37,6.37,0,0,1-2.29-1.56,6.23,6.23,0,0,1-1.34-2.28,8.67,8.67,0,0,1-.44-2.76,10.45,10.45,0,0,1,.36-2.67,13.54,13.54,0,0,1,1-2.67l2.44.91a8.79,8.79,0,0,0-.88,3.68,4.13,4.13,0,0,0,1.19,3A5.1,5.1,0,0,0,157.17,409.07Zm.19-16.56,1.63-2.22,2.12,1.4,1.2-1.66,2.51,1.66-1.66,2.21L161,392.51l-1.11,1.65Zm3.84,9.17a3.23,3.23,0,0,0,1-.16,1.86,1.86,0,0,0,.81-.46,4.43,4.43,0,0,0-.74-1.28,1.39,1.39,0,0,0-1.08-.54,1.1,1.1,0,0,0-.86.47,1.49,1.49,0,0,0-.37.9.88.88,0,0,0,.4.81A1.6,1.6,0,0,0,161.2,401.68Z"/><path class="cls-2" d="M182.1,405.64a4,4,0,0,1-1.55-1.05,4.31,4.31,0,0,1-.91-1.61,10.45,10.45,0,0,1-.44-2.08,8.63,8.63,0,0,1-2.93,4,9.15,9.15,0,0,1-4.69,1.75L169.14,404c.66-.11,1.39-.27,2.22-.49a17.66,17.66,0,0,0,2.36-.79,8.16,8.16,0,0,0,1.88-1.09,1.78,1.78,0,0,0,.77-1.37,4.24,4.24,0,0,0-.62-1.94,11.85,11.85,0,0,0-1.66-2.24,16.37,16.37,0,0,0-2.42-2.13,13.38,13.38,0,0,0-2.92-1.63l.69-4.13c1.12.76,2.13,1.5,3,2.23a18.26,18.26,0,0,1,2.36,2.27,15.49,15.49,0,0,1,1.79,2.56,17.74,17.74,0,0,1,1.32,3,9.81,9.81,0,0,0,.63-1.75,12,12,0,0,0,.38-2c0-1.1-.08-2.26-.1-3.46s0-2.32-.06-3.34l3.22-1.3v12.89a3.47,3.47,0,0,0,.58,2.19,2.23,2.23,0,0,0,1.86.73V406A6.35,6.35,0,0,1,182.1,405.64Z"/><path class="cls-2" d="M184.44,406a1.75,1.75,0,0,1-.51-.07c-.16,0-.24-.09-.24-.16v-3.29c0-.08.08-.15.24-.19a2.16,2.16,0,0,1,.51-.07h3.25V406Z"/><path class="cls-2" d="M187.69,406a1.68,1.68,0,0,1-.5-.07c-.17,0-.25-.09-.25-.16v-3.29c0-.08.08-.15.25-.19a2.08,2.08,0,0,1,.5-.07H191V406Z"/><path class="cls-2" d="M191,406a1.7,1.7,0,0,1-.51-.07c-.16,0-.24-.09-.24-.16v-3.29c0-.08.08-.15.24-.19a2.09,2.09,0,0,1,.51-.07h3.25V406Z"/><path class="cls-2" d="M194.2,406a1.68,1.68,0,0,1-.5-.07c-.17,0-.25-.09-.25-.16v-3.29c0-.08.08-.15.25-.19a2.08,2.08,0,0,1,.5-.07h3.25V406Z"/><path class="cls-2" d="M197.45,406a1.68,1.68,0,0,1-.5-.07c-.16,0-.25-.09-.25-.16v-3.29c0-.08.09-.15.25-.19a2.08,2.08,0,0,1,.5-.07h3.26V406Z"/><path class="cls-2" d="M200.71,406a1.75,1.75,0,0,1-.51-.07c-.16,0-.24-.09-.24-.16v-3.29c0-.08.08-.15.24-.19a2.16,2.16,0,0,1,.51-.07H204V406Z"/><path class="cls-2" d="M203.21,402.49c0-.08.08-.15.25-.19a2.08,2.08,0,0,1,.5-.07h2.86c.7,0,1.26,0,1.7,0a7.77,7.77,0,0,0,1.41-.21,15.93,15.93,0,0,0,1.89-.59c.75-.27,1.77-.65,3.07-1.15-1.23-.35-2.19-.61-2.86-.78s-1.17-.32-1.5-.42a1.61,1.61,0,0,0-1.18.11,3.31,3.31,0,0,0-.93.76l-2.25-1.53a9.36,9.36,0,0,1,2-2.55,2.72,2.72,0,0,1,2.28-.57,19.75,19.75,0,0,1,2.21.46l2.28.61c.78.22,1.58.43,2.41.64s1.71.38,2.66.54l1.29.09,1.25.07-1,3.71c-.52,0-1-.07-1.36-.07a6.54,6.54,0,0,0-1.11.1,6.32,6.32,0,0,0-1.06.31,9.65,9.65,0,0,0-1.22.6c-1.1.63-2,1.17-2.75,1.63a17.81,17.81,0,0,1-2.13,1.14,10.38,10.38,0,0,1-2.29.68,19,19,0,0,1-3.24.23H204a1.68,1.68,0,0,1-.5-.07c-.17,0-.25-.09-.25-.16Zm9.73-12-1.95,2.6-2.7-1.82,2-2.64Z"/><path class="cls-2" d="M248.83,399a7,7,0,0,0-2.7-.39,4,4,0,0,0-1.23.21,5,5,0,0,0-1.19.55,4.27,4.27,0,0,0-.9.75,1.29,1.29,0,0,0-.35.83.58.58,0,0,0,.48.57,6.06,6.06,0,0,0,1.24.2l1.6.11a6.32,6.32,0,0,1,1.59.32,3,3,0,0,1,1.24.82,2.31,2.31,0,0,1,.48,1.56,5.93,5.93,0,0,1-1,3.38,8.57,8.57,0,0,1-2.47,2.44,11.69,11.69,0,0,1-3.31,1.49,13.2,13.2,0,0,1-3.5.5,11.79,11.79,0,0,1-3.59-.5,7.38,7.38,0,0,1-2.56-1.4,5.76,5.76,0,0,1-1.51-2.14,6.88,6.88,0,0,1-.5-2.66,10,10,0,0,1,.37-2.62,11.79,11.79,0,0,1,1.16-2.75l2.57.88a10.17,10.17,0,0,0-.77,1.79,5.81,5.81,0,0,0-.27,1.72,4,4,0,0,0,.3,1.56,3.14,3.14,0,0,0,1,1.25,5,5,0,0,0,1.74.85,8.85,8.85,0,0,0,2.52.31,11.69,11.69,0,0,0,2.25-.26,15.8,15.8,0,0,0,2.39-.68,9.6,9.6,0,0,0,1.9-1c.52-.36.78-.71.78-1.06,0-.2-.12-.33-.37-.41a7,7,0,0,0-1-.18c-.45,0-1-.08-1.53-.11s-1.19-.09-1.84-.18a2.55,2.55,0,0,1-1.65-.81,2.64,2.64,0,0,1-.53-1.7,6.39,6.39,0,0,1,.63-2.78,8.09,8.09,0,0,1,4-3.89,6.35,6.35,0,0,1,2.63-.58,5.43,5.43,0,0,1,1.4.18,5.2,5.2,0,0,1,1.34.57Z"/><path class="cls-2" d="M255.49,405.47a4,4,0,0,1-1.6-1.48,6.25,6.25,0,0,1-.78-2.24,20.33,20.33,0,0,1-.24-2.83c0-.48,0-1.16-.07-2.05s0-1.86-.06-2.9-.05-2.11-.08-3.21-.06-2.11-.08-3l3.19-1.3v12.89a3.47,3.47,0,0,0,.58,2.19,2.27,2.27,0,0,0,1.89.73V406A5.92,5.92,0,0,1,255.49,405.47Z"/><path class="cls-2" d="M258.24,406a1.75,1.75,0,0,1-.51-.07c-.16,0-.24-.09-.24-.16v-3.29c0-.08.08-.15.24-.19a2.16,2.16,0,0,1,.51-.07h3.25V406Z"/><path class="cls-2" d="M261.49,406a1.68,1.68,0,0,1-.5-.07c-.17,0-.25-.09-.25-.16v-3.29c0-.08.08-.15.25-.19a2.08,2.08,0,0,1,.5-.07h3.26V406Z"/><path class="cls-2" d="M264.75,406a1.7,1.7,0,0,1-.51-.07c-.16,0-.24-.09-.24-.16v-3.29c0-.08.08-.15.24-.19a2.09,2.09,0,0,1,.51-.07H268V406Z"/><path class="cls-2" d="M268,406a1.79,1.79,0,0,1-.51-.07c-.16,0-.24-.09-.24-.16v-3.29c0-.08.08-.15.24-.19a2.24,2.24,0,0,1,.51-.07h3.25V406Z"/><path class="cls-2" d="M271.25,406a1.68,1.68,0,0,1-.5-.07c-.16,0-.25-.09-.25-.16v-3.29c0-.08.09-.15.25-.19a2.08,2.08,0,0,1,.5-.07h3.26V406Z"/><path class="cls-2" d="M273.76,402.49c0-.08.08-.15.24-.19a2.16,2.16,0,0,1,.51-.07h2.8a2.82,2.82,0,0,1-.59-1.65,4,4,0,0,1,.7-2.2,7,7,0,0,1,1.64-1.81l-.71-.45,1.56-3.39c.65.46,1.47,1.06,2.46,1.79a29.6,29.6,0,0,1,2.86,2.46,17.71,17.71,0,0,1,2.37,2.83,5.39,5.39,0,0,1,1,2.91,8,8,0,0,1-.23,2,4.71,4.71,0,0,1-.63,1.5,2.63,2.63,0,0,1-.95.88,1.41,1.41,0,0,1-1.12.08,19.18,19.18,0,0,1-2.26-.78q-1.26-.53-2.49-1.17a8.65,8.65,0,0,1-2.05.63,10.69,10.69,0,0,1-1.79.18h-2.6a1.75,1.75,0,0,1-.51-.07c-.16,0-.24-.09-.24-.16Zm6-1.13a9,9,0,0,0,.94.58,2.2,2.2,0,0,0,1.22-.91,2.23,2.23,0,0,0,.34-1.14,1.12,1.12,0,0,0-.16-.57,2.69,2.69,0,0,0-.39-.5,1.92,1.92,0,0,0-.5-.36,1.15,1.15,0,0,0-.48-.13,1.09,1.09,0,0,0-.58.18,2.58,2.58,0,0,0-.55.45,2.61,2.61,0,0,0-.43.59,1.2,1.2,0,0,0-.16.54,2.17,2.17,0,0,0,.1.53A1.37,1.37,0,0,0,279.78,401.36Zm4.75,0a4.92,4.92,0,0,1-.44,1.14,8.11,8.11,0,0,1-.63.94c.26.13.52.25.79.36l.77.32a6.85,6.85,0,0,0,.71.23c.18.05.33-.08.46-.39a2,2,0,0,0-.23-1.84,7.22,7.22,0,0,0-1.37-1.57A2.43,2.43,0,0,1,284.53,401.39Z"/><path class="cls-2" d="M294.71,399.11a12,12,0,0,1,1.35,2.33,6.75,6.75,0,0,1,.51,2.75,6.39,6.39,0,0,1-.77,3,12.05,12.05,0,0,1-2,2.71,19.54,19.54,0,0,1-2.73,2.36,33.45,33.45,0,0,1-3,2l-2.76-2.18c.71-.35,1.55-.8,2.52-1.36a27.89,27.89,0,0,0,2.77-1.86,15.59,15.59,0,0,0,2.24-2.07,3.11,3.11,0,0,0,.93-2,2.82,2.82,0,0,0-.51-1.46,17.83,17.83,0,0,0-1-1.5Z"/><path class="cls-2" d="M302.54,405.47A3.92,3.92,0,0,1,301,404a6.45,6.45,0,0,1-.79-2.24,20.33,20.33,0,0,1-.24-2.83c0-.48,0-1.16-.06-2.05s-.05-1.86-.07-2.9-.05-2.11-.08-3.21-.06-2.11-.08-3l3.19-1.3v12.89a3.47,3.47,0,0,0,.58,2.19,2.27,2.27,0,0,0,1.89.73V406A5.92,5.92,0,0,1,302.54,405.47Z"/><path class="cls-2" d="M319.28,406a5.9,5.9,0,0,1-2-.36,8.71,8.71,0,0,1-1.85-.94,10.47,10.47,0,0,1-1.63-1.34,13.35,13.35,0,0,1-1.33-1.53A4.1,4.1,0,0,1,310.3,405a10.16,10.16,0,0,1-5,1,1.68,1.68,0,0,1-.5-.07c-.17,0-.25-.09-.25-.16v-3.29c0-.08.08-.15.25-.19a2.08,2.08,0,0,1,.5-.07h1.32a10.94,10.94,0,0,0,1.71-.13,4.92,4.92,0,0,0,1.46-.43,1,1,0,0,0,.62-.93,2.37,2.37,0,0,0-.55-1.3,13.63,13.63,0,0,0-1.32-1.52c-.51-.51-1-1-1.55-1.46s-.93-.85-1.23-1.16a2.73,2.73,0,0,1-.31-.34.77.77,0,0,1-.12-.63,8.16,8.16,0,0,1,.12-.87,7.76,7.76,0,0,1,.19-.89,4.47,4.47,0,0,1,.28-.76.82.82,0,0,1,.39-.44,53.52,53.52,0,0,1,5.77-2.46q3.57-1.32,8.55-2.88l-.43,3.68q-3.54.81-6.46,1.7t-5.35,1.88c-.41.15-.47.33-.16.55.93.72,1.84,1.46,2.72,2.24s1.74,1.6,2.58,2.45l1.42,1.38a11.69,11.69,0,0,0,1.46,1.19,7.92,7.92,0,0,0,1.61.83,5.58,5.58,0,0,0,1.86.3h1.49V406Z"/><path class="cls-2" d="M320.62,402.49c0-.08.08-.15.24-.19a2.08,2.08,0,0,1,.5-.07h2.8a2.88,2.88,0,0,1-.58-1.65,4,4,0,0,1,.7-2.2,6.82,6.82,0,0,1,1.64-1.81l-.72-.45,1.57-3.39c.65.46,1.47,1.06,2.45,1.79a29.7,29.7,0,0,1,2.87,2.46,17.71,17.71,0,0,1,2.37,2.83,5.48,5.48,0,0,1,1,2.91,8,8,0,0,1-.23,2,4.5,4.5,0,0,1-.64,1.5,2.61,2.61,0,0,1-.94.88,1.41,1.41,0,0,1-1.12.08,19.18,19.18,0,0,1-2.26-.78q-1.26-.53-2.49-1.17a8.79,8.79,0,0,1-2.05.63A10.79,10.79,0,0,1,324,406h-2.61a1.68,1.68,0,0,1-.5-.07c-.16,0-.24-.09-.24-.16Zm6-1.13a8.05,8.05,0,0,0,.94.58,2.2,2.2,0,0,0,1.22-.91,2.23,2.23,0,0,0,.34-1.14,1.12,1.12,0,0,0-.16-.57,2.69,2.69,0,0,0-.39-.5,1.82,1.82,0,0,0-.51-.36,1.08,1.08,0,0,0-.47-.13,1.09,1.09,0,0,0-.58.18,2.63,2.63,0,0,0-1,1,1.2,1.2,0,0,0-.16.54,2.17,2.17,0,0,0,.1.53A1.37,1.37,0,0,0,326.64,401.36Zm4.75,0a4.92,4.92,0,0,1-.44,1.14,8.21,8.21,0,0,1-.64.94c.26.13.53.25.8.36l.77.32a6.85,6.85,0,0,0,.71.23c.17.05.33-.08.46-.39a2.07,2.07,0,0,0-.23-1.84,7.5,7.5,0,0,0-1.37-1.57A2.72,2.72,0,0,1,331.39,401.39Z"/><path class="cls-2" d="M342.06,405.59l-3.32.87V387.72l3.32-1.3Z"/><path class="cls-2" d="M348.15,399.11a13.06,13.06,0,0,1,1.35,2.33,6.93,6.93,0,0,1,.5,2.75,6.49,6.49,0,0,1-.76,3,12.1,12.1,0,0,1-2,2.71,19,19,0,0,1-2.73,2.36,33.45,33.45,0,0,1-3,2l-2.76-2.18c.71-.35,1.56-.8,2.52-1.36a27.89,27.89,0,0,0,2.77-1.86,15.59,15.59,0,0,0,2.24-2.07,3.11,3.11,0,0,0,.93-2,2.82,2.82,0,0,0-.51-1.46,17.83,17.83,0,0,0-1-1.5Z"/></svg>