<svg id="Layer_1" data-name="Layer 1" xmlns="http://www.w3.org/2000/svg" viewBox="0 0 1306.57 43.2"><defs><style>.cls-1{fill:#f48120;}</style></defs><path class="cls-1" d="M172.09,38.41c-11.68-2.37-20-9.06-24.75-19.89A49.14,49.14,0,0,1,143.58,3c0-.24,0-.48-.05-.71h-1.35l.06.82a50,50,0,0,0,3.87,16c4.92,11.25,13.58,18.21,25.72,20.67a77.29,77.29,0,0,0,9.1,1.23V39.61A72.69,72.69,0,0,1,172.09,38.41Z"/><path class="cls-1" d="M231.63,18.61A102.08,102.08,0,0,1,252.51,2.73V1.62h-.77a103.58,103.58,0,0,0-21.05,16,160.35,160.35,0,0,0-20.13,23.93h1.64A159.67,159.67,0,0,1,231.63,18.61Z"/><path class="cls-1" d="M113.09,25.66V24.27c-1.42-.34-2.85-.68-4.28-1a240.18,240.18,0,0,0-38.75-5.73v1.35a238.55,238.55,0,0,1,38.45,5.69C110,24.93,111.57,25.29,113.09,25.66Z"/><path class="cls-1" d="M21,18.42a110.9,110.9,0,0,1,22.22-17V0h-.41A112.23,112.23,0,0,0,20,17.38q-4.34,4.23-8.32,8.71h0A40.67,40.67,0,0,1,7.2,18.32,53.14,53.14,0,0,1,3.13,1.43L3.07.66H1.61c0,.3,0,.6.07.9A54.28,54.28,0,0,0,5.87,18.9a41.48,41.48,0,0,0,4.79,8.31A171.51,171.51,0,0,0,0,40.67V43.2A173.49,173.49,0,0,1,11.57,28.38l.19-.21-.19.21c5.44,6.71,12.87,11,22.19,12.93a80.47,80.47,0,0,0,9.44,1.3V41.15A80,80,0,0,1,34,39.88c-9-1.83-16.24-6.06-21.49-12.61h0l0-.06,0,.06Q16.6,22.71,21,18.42Z"/><path class="cls-1" d="M452.4,38.41c-11.68-2.37-20-9.06-24.75-19.89A49.14,49.14,0,0,1,423.89,3c0-.24,0-.48-.05-.71h-1.35l.06.82a50.3,50.3,0,0,0,3.87,16c4.92,11.25,13.58,18.21,25.72,20.67a77.29,77.29,0,0,0,9.1,1.23V39.61A72.69,72.69,0,0,1,452.4,38.41Z"/><path class="cls-1" d="M511.94,18.61A101.86,101.86,0,0,1,532.83,2.73V1.62h-.78a103.58,103.58,0,0,0-21,16,160.35,160.35,0,0,0-20.13,23.93h1.64A159.67,159.67,0,0,1,511.94,18.61Z"/><path class="cls-1" d="M393.4,25.66V24.27c-1.42-.34-2.85-.68-4.28-1a240.18,240.18,0,0,0-38.75-5.73v1.35a238.55,238.55,0,0,1,38.45,5.69C390.35,24.93,391.88,25.29,393.4,25.66Z"/><path class="cls-1" d="M301.3,18.42a110.56,110.56,0,0,1,22.21-17V0h-.41a112.23,112.23,0,0,0-22.82,17.38q-4.33,4.23-8.32,8.71h0a40.11,40.11,0,0,1-4.44-7.77,53.14,53.14,0,0,1-4.08-16.89c0-.25,0-.51-.05-.77h-1.47c0,.3.05.6.07.9a54.82,54.82,0,0,0,4.19,17.34A41.48,41.48,0,0,0,291,27.21a171.51,171.51,0,0,0-10.66,13.46V43.2a171.62,171.62,0,0,1,11.58-14.82l.18-.21-.19.21c5.44,6.71,12.87,11,22.19,12.93a80.76,80.76,0,0,0,9.44,1.3V41.15a80.32,80.32,0,0,1-9.16-1.27c-9.05-1.83-16.24-6.06-21.49-12.61h0l0-.06,0,.06Q296.91,22.71,301.3,18.42Z"/><path class="cls-1" d="M738.53,38.41c-11.69-2.37-20-9.06-24.76-19.89A49.14,49.14,0,0,1,710,3c0-.24,0-.48,0-.71h-1.35l.06.82a50.3,50.3,0,0,0,3.87,16c4.92,11.25,13.58,18.21,25.72,20.67A77.17,77.17,0,0,0,747.37,41V39.61A72.42,72.42,0,0,1,738.53,38.41Z"/><path class="cls-1" d="M798.06,18.61A101.86,101.86,0,0,1,819,2.73V1.62h-.78a103.58,103.58,0,0,0-21,16A160.35,160.35,0,0,0,777,41.58h1.64A159.67,159.67,0,0,1,798.06,18.61Z"/><path class="cls-1" d="M679.52,25.66V24.27c-1.42-.34-2.85-.68-4.28-1a240.18,240.18,0,0,0-38.75-5.73v1.35a238.55,238.55,0,0,1,38.45,5.69C676.48,24.93,678,25.29,679.52,25.66Z"/><path class="cls-1" d="M587.42,18.42a110.56,110.56,0,0,1,22.21-17V0h-.41A112.23,112.23,0,0,0,586.4,17.38q-4.33,4.23-8.32,8.71h0a40.11,40.11,0,0,1-4.44-7.77,53.14,53.14,0,0,1-4.08-16.89c0-.25,0-.51,0-.77H568c0,.3.05.6.07.9A54.82,54.82,0,0,0,572.3,18.9a41.48,41.48,0,0,0,4.79,8.31,171.51,171.51,0,0,0-10.66,13.46V43.2A171.62,171.62,0,0,1,578,28.38l.18-.21-.18.21c5.43,6.71,12.86,11,22.18,12.93a80.76,80.76,0,0,0,9.44,1.3V41.15a80.32,80.32,0,0,1-9.16-1.27c-9.05-1.83-16.24-6.06-21.49-12.61h0l0-.06,0,.06Q583,22.71,587.42,18.42Z"/><path class="cls-1" d="M1018.84,38.41c-11.69-2.37-20-9.06-24.76-19.89A49.14,49.14,0,0,1,990.32,3c0-.24,0-.48-.05-.71h-1.35l.06.82a50.3,50.3,0,0,0,3.87,16c4.92,11.25,13.58,18.21,25.72,20.67a77.17,77.17,0,0,0,9.11,1.23V39.61A72.42,72.42,0,0,1,1018.84,38.41Z"/><path class="cls-1" d="M1078.37,18.61a101.86,101.86,0,0,1,20.89-15.88V1.62h-.78a103.58,103.58,0,0,0-21,16,160.35,160.35,0,0,0-20.13,23.93h1.64A159.67,159.67,0,0,1,1078.37,18.61Z"/><path class="cls-1" d="M959.84,25.66V24.27c-1.43-.34-2.86-.68-4.29-1a240,240,0,0,0-38.75-5.73v1.35a238.55,238.55,0,0,1,38.45,5.69C956.79,24.93,958.31,25.29,959.84,25.66Z"/><path class="cls-1" d="M867.73,18.42a110.84,110.84,0,0,1,22.21-17V0h-.41a112.23,112.23,0,0,0-22.82,17.38q-4.34,4.23-8.32,8.71h0A40.11,40.11,0,0,1,854,18.32a53.14,53.14,0,0,1-4.08-16.89c0-.25,0-.51,0-.77h-1.46l.06.9a54.82,54.82,0,0,0,4.19,17.34,41.48,41.48,0,0,0,4.79,8.31q-5.67,6.48-10.66,13.46V43.2a171.62,171.62,0,0,1,11.58-14.82l.18-.21-.18.21c5.43,6.71,12.86,11,22.18,12.93a80.76,80.76,0,0,0,9.44,1.3V41.15a79.84,79.84,0,0,1-9.15-1.27c-9.06-1.83-16.25-6.06-21.49-12.61h0a.21.21,0,0,0,0-.06l0,.06Q863.34,22.71,867.73,18.42Z"/><path class="cls-1" d="M1297.73,38.41c-11.68-2.37-20-9.06-24.75-19.89A48.88,48.88,0,0,1,1269.22,3c0-.24,0-.48,0-.71h-1.35l.06.82a50.3,50.3,0,0,0,3.86,16c4.93,11.25,13.59,18.21,25.73,20.67a77,77,0,0,0,9.1,1.23V39.61A72.69,72.69,0,0,1,1297.73,38.41Z"/><path class="cls-1" d="M1238.73,25.66V24.27c-1.42-.34-2.85-.68-4.28-1a240.18,240.18,0,0,0-38.75-5.73v1.35a238.55,238.55,0,0,1,38.45,5.69C1235.68,24.93,1237.21,25.29,1238.73,25.66Z"/><path class="cls-1" d="M1146.62,18.42a110.9,110.9,0,0,1,22.22-17V0h-.41a112.23,112.23,0,0,0-22.82,17.38q-4.33,4.23-8.32,8.71h0a40.67,40.67,0,0,1-4.45-7.77,53.14,53.14,0,0,1-4.07-16.89l-.06-.77h-1.46c0,.3,0,.6.07.9a54.28,54.28,0,0,0,4.19,17.34,41.48,41.48,0,0,0,4.79,8.31,171.51,171.51,0,0,0-10.66,13.46V43.2a169.56,169.56,0,0,1,11.57-14.82l.19-.21-.19.21c5.44,6.71,12.86,11,22.18,12.93a80.93,80.93,0,0,0,9.45,1.3V41.15a80,80,0,0,1-9.16-1.27c-9-1.83-16.24-6.06-21.49-12.61h0l0-.06,0,.06Q1142.24,22.71,1146.62,18.42Z"/></svg>