<svg id="Layer_1" data-name="Layer 1" xmlns="http://www.w3.org/2000/svg" viewBox="0 0 37.93 36.12"><defs><style>.cls-1{fill:#231f20;}</style></defs><path class="cls-1" d="M35.41,48.11a32.83,32.83,0,0,0,5.89-.56,56.12,56.12,0,0,0,6.09-1.47A59.83,59.83,0,0,0,53.33,44a39.67,39.67,0,0,0,5.22-2.64c-1-.47-2.11-1-3.29-1.47s-2.31-1-3.35-1.37-2-.75-2.9-1a7.45,7.45,0,0,0-2-.4,6.05,6.05,0,0,0-3.35,1.16,14.58,14.58,0,0,0-2.94,2.59l-8.12-5c.61-.88,1.44-2,2.49-3.25a29,29,0,0,1,3.5-3.6,24.24,24.24,0,0,1,4.11-2.9A8.79,8.79,0,0,1,47,24.87,15.63,15.63,0,0,1,52.82,26c1.93.78,4,1.68,6.14,2.69l2.84,1.42A25.5,25.5,0,0,0,66,31.72,44.54,44.54,0,0,0,72.51,33a68.94,68.94,0,0,0,9.69.4L78.35,47.2a51.5,51.5,0,0,0-6,.86,31.91,31.91,0,0,0-4.77,1.37,32.31,32.31,0,0,0-3.91,1.77c-1.19.65-2.35,1.31-3.5,2l-5.33,2.9a47.61,47.61,0,0,1-5.68,2.63,39.76,39.76,0,0,1-6.4,1.88,35.56,35.56,0,0,1-7.36.71h-62.6a6,6,0,0,1-1.58-.2c-.5-.14-.76-.3-.76-.51V48.92c0-.27.26-.47.76-.61a6.39,6.39,0,0,1,1.58-.2ZM54,18.37l-4-2.79q-2-1.37-4-2.79,1.62-2,3-3.81t3.1-3.8C53.41,6.13,54.71,7.05,56,8s2.55,1.84,3.9,2.79Z"/><path class="cls-1" d="M19.05,15.36A92.55,92.55,0,0,1,37.93,1V0h-.7a93.56,93.56,0,0,0-19,14.49A144.77,144.77,0,0,0,0,36.12H1.48A143.48,143.48,0,0,1,19.05,15.36Z"/></svg>