<svg id="Layer_1" data-name="Layer 1" xmlns="http://www.w3.org/2000/svg" viewBox="0 0 66.35 64.29"><defs><style>.cls-1{fill:#f48120;}</style></defs><path class="cls-1" d="M59.21,34.93c-6.65-1.51-13.18-2.85-19.63-4a78.77,78.77,0,0,0-10-23.14C27.94,5.14,26.19,2.56,24.31,0H21.52c2.22,3,4.26,5.92,6.14,8.94a78,78,0,0,1,9.52,21.54c-12.69-2.22-25-3.79-37.18-4.72V28c12.35.95,24.85,2.55,37.74,4.84.35,1.62.64,3.23.86,4.85a50.6,50.6,0,0,1-3.51,26.59H37.5A52.77,52.77,0,0,0,40.82,37.4c-.19-1.37-.43-2.74-.7-4.11q9.15,1.68,18.6,3.82,3.83.87,7.63,1.79V36.6Q62.8,35.75,59.21,34.93Z"/></svg>