<svg id="Layer_1" data-name="Layer 1" xmlns="http://www.w3.org/2000/svg" viewBox="0 0 66.47 29.28"><defs><style>.cls-1{fill:#fff;}</style></defs><path class="cls-1" d="M0,10.62A3.4,3.4,0,0,1,.34,9.07c.23-.45.49-.91.77-1.37a.94.94,0,0,1-.26-.2l.71-1.34Q4.23,8.24,4.23,10.1a3.45,3.45,0,0,1-.14,1,2.44,2.44,0,0,1-.44.81,2,2,0,0,1-.72.54,2.3,2.3,0,0,1-1,.2A1.86,1.86,0,0,1,.5,12.06,2.1,2.1,0,0,1,0,10.62Zm3.07-.52a1.53,1.53,0,0,0-.4-1,7.94,7.94,0,0,0-.87-.87,6.41,6.41,0,0,0-.54,1,2.59,2.59,0,0,0-.24,1,.68.68,0,0,0,.31.62,1.26,1.26,0,0,0,.71.19,1.29,1.29,0,0,0,.71-.24A.84.84,0,0,0,3.07,10.1Z"/><path class="cls-1" d="M6,12.27a2.19,2.19,0,0,1-.79-.92,3.6,3.6,0,0,1-.33-1.27c0-.47-.06-.94-.06-1.4v-7L5.93.93l0,8.31c0,.26,0,.51,0,.75a1.7,1.7,0,0,0,.19.65,1.16,1.16,0,0,0,.46.47,1.81,1.81,0,0,0,.84.17v1.34A2.66,2.66,0,0,1,6,12.27Z"/><path class="cls-1" d="M14.54,12.62a2.23,2.23,0,0,1-.88-.16,3.64,3.64,0,0,1-.81-.5c-.28-.23-.58-.51-.92-.85s-.73-.73-1.2-1.18a2.86,2.86,0,0,1-.25,1.28,2.24,2.24,0,0,1-.67.82,2.81,2.81,0,0,1-1,.46,5.72,5.72,0,0,1-1.28.13H7.44a1.27,1.27,0,0,1-.28,0c-.09,0-.14-.06-.14-.1V11.4s.05-.08.14-.1l.28,0c1.65,0,2.47-.49,2.47-1.46a1.73,1.73,0,0,0-.31-1A6.6,6.6,0,0,0,8.88,8c-.27-.28-.54-.54-.81-.77a4.41,4.41,0,0,1-.61-.58c0-.44,0-.76,0-1s.06-.34.11-.37A35.93,35.93,0,0,1,11.3,3.05c1.28-.66,2.5-1.23,3.66-1.69l-.2,1.38-.8.37-1.13.53-1.28.64-1.27.65q-.6.31-1.08.6c-.31.19-.55.34-.71.46.95.89,1.73,1.66,2.35,2.32S12,9.52,12.46,10a7.2,7.2,0,0,0,1.24,1,2.47,2.47,0,0,0,1.26.33h.51v1.34ZM14,.93c-.47.21-1.24.59-2.3,1.13S9.29,3.32,7.6,4.21l.08-.8c1.24-.7,2.4-1.33,3.46-1.89S13.18.45,14.09,0Z"/><path class="cls-1" d="M15.05,11.4s0-.08.13-.1l.29,0h.36A2.56,2.56,0,0,0,17,11.07a.69.69,0,0,0,.43-.66,1.38,1.38,0,0,0-.26-.74c-.18-.26-.34-.49-.5-.7l.92-1A4.28,4.28,0,0,1,18.23,9a3.62,3.62,0,0,1,.25,1.26c0,1.55-.91,2.32-2.72,2.32h-.29a1.43,1.43,0,0,1-.29,0c-.09,0-.13-.06-.13-.1Z"/><path class="cls-1" d="M35.42,12.62a2.23,2.23,0,0,1-.88-.16,3.38,3.38,0,0,1-.8-.5c-.27-.23-.58-.51-.91-.85s-.73-.73-1.21-1.18V10a1.74,1.74,0,0,1-.31,1,2.72,2.72,0,0,1-.81.77,5.41,5.41,0,0,1-1.16.55,11.77,11.77,0,0,1-1.36.35,10.89,10.89,0,0,1-1.38.19c-.45,0-.86.06-1.22.06l-1.6-.09a5.69,5.69,0,0,1-1.54-.35,2.77,2.77,0,0,1-1.14-.81,2.18,2.18,0,0,1-.45-1.46,2.78,2.78,0,0,1,.16-.92,3,3,0,0,1,.41-.77l.85.26a3,3,0,0,0-.27.65,2.16,2.16,0,0,0-.07.54,1.09,1.09,0,0,0,.39.9,2.55,2.55,0,0,0,1,.48,5.88,5.88,0,0,0,1.24.18c.45,0,.86,0,1.22,0l1-.06c.38,0,.76-.07,1.15-.14s.76-.13,1.13-.22a5.37,5.37,0,0,0,1-.35,2.32,2.32,0,0,0,.69-.47.83.83,0,0,0,.27-.63,2,2,0,0,0-.35-.93,5.3,5.3,0,0,0-.71-.87c-.26-.28-.53-.53-.79-.76s-.45-.41-.59-.56c0-.44,0-.76.06-1s.06-.34.13-.37a31.66,31.66,0,0,1,3.65-2.22c1.28-.66,2.5-1.23,3.65-1.69l-.19,1.38-.78.37c-.35.15-.73.33-1.14.53l-1.29.64c-.45.22-.87.44-1.27.65s-.76.41-1.08.6a5.64,5.64,0,0,0-.7.46c.94.89,1.73,1.66,2.34,2.32S32.89,9.52,33.35,10a7.22,7.22,0,0,0,1.25,1,2.42,2.42,0,0,0,1.24.33h.51v1.34Z"/><path class="cls-1" d="M35.93,11.4s0-.08.13-.1l.28,0h.37a2.56,2.56,0,0,0,1.13-.21.69.69,0,0,0,.43-.66A1.38,1.38,0,0,0,38,9.67l-.5-.7.92-1A4,4,0,0,1,39.1,9a3.41,3.41,0,0,1,.26,1.26c0,1.55-.91,2.32-2.72,2.32h-.3a1.33,1.33,0,0,1-.28,0c-.09,0-.13-.06-.13-.1Z"/><path class="cls-1" d="M57,12.63a2,2,0,0,1-1.06-.24,1.33,1.33,0,0,1-.52-.69,1.45,1.45,0,0,1-.7.74,2.34,2.34,0,0,1-2,0A1.72,1.72,0,0,1,52,11.7a1.49,1.49,0,0,1-.7.7,2.13,2.13,0,0,1-1,.25,2.18,2.18,0,0,1-.52-.06,1.38,1.38,0,0,1-.51-.21A4.79,4.79,0,0,1,49,14.19a4.68,4.68,0,0,1-.9,1.56,4.34,4.34,0,0,1-1.49,1.08,4.69,4.69,0,0,1-2,.41,4,4,0,0,1-2.3-.6A3.37,3.37,0,0,1,41,15.1,4.18,4.18,0,0,1,40.76,13a5.75,5.75,0,0,1,.72-2.2l.87.4A8.05,8.05,0,0,0,42,12.48a4.49,4.49,0,0,0-.09,1.13,2.3,2.3,0,0,0,.48,1.3,2.63,2.63,0,0,0,1,.76,3.47,3.47,0,0,0,1.34.24,3.78,3.78,0,0,0,1.38-.28,3.38,3.38,0,0,0,1.15-.79,2.69,2.69,0,0,0,.65-1.28,3.83,3.83,0,0,0,0-1.61,5,5,0,0,0-.73-1.61l1.05-.76A6,6,0,0,0,49,10.8a1.6,1.6,0,0,0,1.13.49h.21a1.08,1.08,0,0,0,.88-.33,2,2,0,0,0,.29-1.24V9.58l.92-.35a6.33,6.33,0,0,0,0,.76,2.13,2.13,0,0,0,.18.66,1.26,1.26,0,0,0,.38.47,1.08,1.08,0,0,0,.66.18,1.29,1.29,0,0,0,.66-.14,1,1,0,0,0,.39-.39,1.88,1.88,0,0,0,.19-.55,4.48,4.48,0,0,0,0-.64l.86-.33c0,.31,0,.58,0,.83a1.72,1.72,0,0,0,.18.64.91.91,0,0,0,.4.42,1.56,1.56,0,0,0,.75.15h.14v1.34Z"/><path class="cls-1" d="M57,11.41s0-.08.13-.1l.28,0h1.18a6.36,6.36,0,0,0,1.53-.16,6.13,6.13,0,0,0,1.21-.4,10.2,10.2,0,0,0,1.1-.54c.36-.2.75-.39,1.16-.57l-1.11-.48-.8-.33L61.1,8.6a1.12,1.12,0,0,0-.35-.07,1.64,1.64,0,0,0-.64.15,2,2,0,0,0-.65.52l-.82-.36a3.6,3.6,0,0,1,1-1.27,1.76,1.76,0,0,1,1-.41,2.91,2.91,0,0,1,1.26.34c.44.22,1,.45,1.54.68.27.12.51.22.73.3a4.58,4.58,0,0,0,.66.19,5.1,5.1,0,0,0,.73.11c.26,0,.57,0,.93,0l-.31,1.3q-.36,0-.66,0l-.55.07a3.68,3.68,0,0,0-1.4.5l-1.37.82a11,11,0,0,1-1.58.75,5.54,5.54,0,0,1-2.05.34H57.37a.9.9,0,0,1-.28,0c-.09,0-.13-.05-.13-.09Z"/><rect class="cls-1" x="35.31" y="13.99" width="1.19" height="1.19" transform="translate(20.83 -21.12) rotate(45)"/><rect class="cls-1" x="36.79" y="13.99" width="1.19" height="1.19" transform="translate(21.26 -22.17) rotate(45)"/><rect class="cls-1" x="14.45" y="6.18" width="1.19" height="1.19" transform="translate(9.2 -8.66) rotate(45)"/><path class="cls-1" d="M43.72,19.25l-2.89.81-.11-.51,2.88-.86Z"/><path class="cls-1" d="M.85,26.15H0V25.3H.85Z"/><path class="cls-1" d="M5,26.15A1.27,1.27,0,0,1,4.34,26a1.25,1.25,0,0,1-.47-.47,1.25,1.25,0,0,1-1.29.75,1.36,1.36,0,0,1-1.13-.43l.29-.74a1,1,0,0,0,.41.19,2.1,2.1,0,0,0,.56.07l.33,0a1.58,1.58,0,0,0,.28-.08.84.84,0,0,0,.21-.13.29.29,0,0,0,.07-.2.15.15,0,0,0,0-.06l-.06-.21c0-.11-.1-.27-.17-.49s-.19-.53-.32-.92l.64-.58c.17.54.3,1,.4,1.31a7.09,7.09,0,0,0,.27.77.93.93,0,0,0,.27.38.6.6,0,0,0,.37.1h.17v.93Z"/><path class="cls-1" d="M6.91,26.15a.73.73,0,0,1-.74-.41,1.07,1.07,0,0,1-.94.41H5s-.06,0-.06,0v-.81s0,0,.06-.05l.12,0h0c.4,0,.6-.14.6-.41v-.32l.66-.21v.2c0,.49.16.74.49.74H7v.93Zm-.35-3-.48.64-.67-.45.49-.65Z"/><path class="cls-1" d="M6.81,25.29s0,0,.06-.05l.12,0h.24q1.35,0,1.35-.33a.52.52,0,0,0-.14-.28,2.74,2.74,0,0,0-.34-.35,3.84,3.84,0,0,0-.43-.35l-.41-.31a.7.7,0,0,1-.15-.12.19.19,0,0,1-.08-.1.21.21,0,0,1,0-.12s0-.1,0-.18a1.41,1.41,0,0,1,0-.18,2.25,2.25,0,0,1,0-.22.68.68,0,0,1,.07-.2.21.21,0,0,1,.11-.13,9.76,9.76,0,0,1,1.34-.57q.84-.32,2-.66l-.11.94c-.47.1-.93.21-1.38.34a12.13,12.13,0,0,0-1.33.43c-.1,0-.12.08,0,.13l.53.39a3.23,3.23,0,0,1,.48.41,1.84,1.84,0,0,1,.35.49,1.25,1.25,0,0,1,.13.59,1.11,1.11,0,0,1-.19.69,1.28,1.28,0,0,1-.49.4,2.29,2.29,0,0,1-.66.18,5.53,5.53,0,0,1-.69,0H6.87s-.06,0-.06,0Z"/><path class="cls-1" d="M13.9,26.15a.67.67,0,0,1,0,.28,1,1,0,0,1-.09.29,1.48,1.48,0,0,1-.53.61,2.49,2.49,0,0,1-.79.37,2.71,2.71,0,0,1-.9.09,2.26,2.26,0,0,1-.84-.21,1.56,1.56,0,0,1-.62-.52,1.49,1.49,0,0,1-.24-.87,2.15,2.15,0,0,1,.1-.68,3.14,3.14,0,0,1,.27-.62l.61.22a4,4,0,0,0-.18.46,1.35,1.35,0,0,0-.09.47.91.91,0,0,0,.12.49.74.74,0,0,0,.32.29,1.25,1.25,0,0,0,.45.13,2.18,2.18,0,0,0,.51,0,2.89,2.89,0,0,0,.51-.11,3.5,3.5,0,0,0,.43-.17.32.32,0,0,0,.16-.13s0-.06-.07-.08l-.87-.3a.65.65,0,0,1,.05-.15,1.67,1.67,0,0,1,.08-.2,1.54,1.54,0,0,1,.08-.19.53.53,0,0,1,.08-.15.55.55,0,0,1,.18-.19.62.62,0,0,1,.27-.05h1v.93Z"/><path class="cls-1" d="M13.75,25.29s0,0,.06-.05l.13,0a1.44,1.44,0,0,0,.55-.09.75.75,0,0,0,.33-.28l.19-.34a3,3,0,0,1,.22-.35,1.37,1.37,0,0,1,.28-.26.64.64,0,0,1,.37-.1.6.6,0,0,1,.4.13,1.09,1.09,0,0,1,.27.33,2.19,2.19,0,0,1,.15.41,2,2,0,0,1,0,.4,1.82,1.82,0,0,1,0,.32,1.1,1.1,0,0,1-.11.32.61.61,0,0,1-.21.24.44.44,0,0,1-.3.1,1.25,1.25,0,0,1-.53-.13,2.29,2.29,0,0,1-.46-.3,1.44,1.44,0,0,1-.49.4,1.48,1.48,0,0,1-.67.13h-.13s-.06,0-.06,0Zm2.1-.76c-.17,0-.31.11-.42.4a1,1,0,0,0,.27.19,1.25,1.25,0,0,0,.29.1.13.13,0,0,0,.17-.11,1,1,0,0,0,0-.17.55.55,0,0,0-.06-.18.4.4,0,0,0-.1-.15A.25.25,0,0,0,15.85,24.53Z"/><path class="cls-1" d="M22.06,26.15a2,2,0,0,1-.22.75,2.22,2.22,0,0,1-.46.58,2.45,2.45,0,0,1-.63.36A2.36,2.36,0,0,1,20,28a1.94,1.94,0,0,1-.68-.11,1.59,1.59,0,0,1-.57-.32,1.43,1.43,0,0,1-.39-.52,1.67,1.67,0,0,1-.15-.73,3.06,3.06,0,0,1,.1-.73,5.69,5.69,0,0,1,.27-.71l.61.22a4.65,4.65,0,0,0-.2.52,1.73,1.73,0,0,0-.08.56,1.4,1.4,0,0,0,.06.41.92.92,0,0,0,.18.34,1,1,0,0,0,.34.24,1.52,1.52,0,0,0,.51.08,2.48,2.48,0,0,0,.54-.06A2.22,2.22,0,0,0,21,27a1.07,1.07,0,0,0,.33-.34.89.89,0,0,0,.14-.46h-.07a4.39,4.39,0,0,1-.54,0,1.09,1.09,0,0,1-.43-.13.63.63,0,0,1-.27-.29,1,1,0,0,1-.1-.5,1.62,1.62,0,0,1,.06-.41,1.23,1.23,0,0,1,.17-.41,1.09,1.09,0,0,1,.27-.33.58.58,0,0,1,.38-.13.77.77,0,0,1,.45.13,1.29,1.29,0,0,1,.33.33,1.65,1.65,0,0,1,.21.42,1.87,1.87,0,0,1,.11.42h.44v.93Zm-2-3.08.4-.54.52.34.3-.41.62.41-.41.55-.53-.35-.27.41Zm1.39,2.15a.76.76,0,0,0-.16-.41.39.39,0,0,0-.31-.15.27.27,0,0,0-.22.1.36.36,0,0,0-.09.24.25.25,0,0,0,0,.13.17.17,0,0,0,.12.06,1.29,1.29,0,0,0,.24,0Z"/><path class="cls-1" d="M23.89,26.05a.92.92,0,0,1-.39-.31.83.83,0,0,1-.38.31,1.6,1.6,0,0,1-.63.1h-.12s-.06,0-.06,0v-.81s0,0,.06-.05l.12,0h.1a1.42,1.42,0,0,0,.33,0,.35.35,0,0,0,.19-.1.37.37,0,0,0,.08-.19,2.45,2.45,0,0,0,0-.3c0-.06,0-.2,0-.42s0-.47,0-.76,0-.59,0-.91,0-.61,0-.87l.79-.33V24.5a.89.89,0,0,0,.14.54.57.57,0,0,0,.47.18v.93A1.6,1.6,0,0,1,23.89,26.05Z"/><path class="cls-1" d="M24.33,25.29s0,0,.06-.05l.13,0h1.12a1.48,1.48,0,0,0,.35-.05l.47-.14.76-.29-.71-.19-.37-.11a.46.46,0,0,0-.29,0,.83.83,0,0,0-.23.19l-.56-.38a2.33,2.33,0,0,1,.49-.63.67.67,0,0,1,.57-.14,5.17,5.17,0,0,1,.54.11l.57.16.59.15c.2,0,.42.1.66.14l.32,0,.31,0-.25.91h-.34a1.14,1.14,0,0,0-.27,0,1.38,1.38,0,0,0-.27.08l-.3.14c-.27.16-.5.29-.68.41a5.36,5.36,0,0,1-.52.28,2.94,2.94,0,0,1-.57.17,5.66,5.66,0,0,1-.8,0h-.72s-.06,0-.06,0Zm2.4-3-.48.64-.66-.45.49-.65Z"/><path class="cls-1" d="M34.05,26.15a1.28,1.28,0,0,1-1.13-.64,1.25,1.25,0,0,1-1.29.75,1.36,1.36,0,0,1-1.13-.43l.28-.74a1.12,1.12,0,0,0,.41.19,2.17,2.17,0,0,0,.57.07l.33,0,.28-.08a.63.63,0,0,0,.2-.13.3.3,0,0,0,.08-.2.15.15,0,0,0,0-.06l-.07-.21c0-.11-.09-.27-.17-.49s-.18-.53-.31-.92l.64-.58c.17.54.3,1,.4,1.31a7.09,7.09,0,0,0,.27.77.84.84,0,0,0,.27.38.58.58,0,0,0,.37.1h.17v.93Z"/><path class="cls-1" d="M33.94,27.4l.49-.64.66.45-.49.65ZM34,25.29s0,0,.06-.05l.13,0h.53c.27,0,.41-.06.41-.19a.29.29,0,0,0,0-.09.66.66,0,0,0-.06-.12l-.14-.2c-.06-.08-.13-.18-.23-.3l.52-.74a1.35,1.35,0,0,1,.39.56,1.73,1.73,0,0,1,.14.71,1.34,1.34,0,0,1-.11.58,1.18,1.18,0,0,1-.29.4,1.22,1.22,0,0,1-.45.24,1.67,1.67,0,0,1-.55.08h-.27s-.06,0-.06,0Z"/><path class="cls-1" d="M37.25,26.05l-.82.22V21.64l.82-.33Z"/><path class="cls-1" d="M39.39,26a1,1,0,0,1-.4-.37,1.7,1.7,0,0,1-.19-.55c0-.21,0-.45-.06-.7s0-.29,0-.51,0-.45,0-.71,0-.52,0-.79,0-.52,0-.75l.79-.33V24.5a.83.83,0,0,0,.14.54.57.57,0,0,0,.47.18v.93A1.44,1.44,0,0,1,39.39,26Z"/><path class="cls-1" d="M39.88,25.29s0,0,.06-.05l.13,0h.53c.27,0,.41-.06.41-.19a.29.29,0,0,0,0-.09.66.66,0,0,0-.06-.12l-.14-.2-.23-.3.52-.74a1.35,1.35,0,0,1,.39.56,1.91,1.91,0,0,1,.14.71,1.5,1.5,0,0,1-.11.58,1.08,1.08,0,0,1-.3.4,1.11,1.11,0,0,1-.44.24,1.69,1.69,0,0,1-.56.08h-.26s-.06,0-.06,0Zm.06-2.47.4-.55.52.35.3-.41.62.41-.41.54-.53-.34-.27.41Z"/><path class="cls-1" d="M45.69,26.15a.86.86,0,0,1-.63-.19,1.17,1.17,0,0,1-.28-.58.76.76,0,0,1-.36.2,1.49,1.49,0,0,1-.52.08,1.55,1.55,0,0,1-.31,0,1.17,1.17,0,0,1-.26-.1.62.62,0,0,1-.18-.18.5.5,0,0,1-.07-.27c0-.57.43-1.11,1.3-1.63l-.07-.34.59-.6.42,2.14a1,1,0,0,0,.19.44.55.55,0,0,0,.43.13v.93Zm-1.18-2.06a1.7,1.7,0,0,0-.32.15,1.56,1.56,0,0,0-.3.26c-.08.1-.11.18-.07.23s.13.08.27.08l.31,0a.61.61,0,0,0,.25-.08Z"/><path class="cls-1" d="M50.09,26.15c-.61,0-.92-.38-.94-1.15a4.59,4.59,0,0,0-.51.35c-.16.13-.34.26-.52.38a2.89,2.89,0,0,1-.58.3,2.07,2.07,0,0,1-.73.12h-1s-.06,0-.06,0v-.81s0,0,.06-.05l.12,0h.75a2.76,2.76,0,0,0,.51,0,3.64,3.64,0,0,0,.47-.14l.45-.21.45-.27-.31-.05-.33-.06-.28,0a.69.69,0,0,0-.18,0,.26.26,0,0,0-.19.08,1.83,1.83,0,0,0-.19.24l-.59-.28c.24-.62.53-.94.86-.94a3,3,0,0,1,.51.07l.68.14c.25.06.51.11.77.15a5.32,5.32,0,0,0,.78.06l.36,0-.1.89a2.16,2.16,0,0,0-.73.11.34.34,0,0,0,.19.28,1,1,0,0,0,.4.06h.61v.93Zm-.65,1-.4.54-.53-.34-.29.4-.62-.4.42-.56.52.36.29-.41Zm-.29.88-.41.54-.57-.39.39-.53Z"/><path class="cls-1" d="M50.64,25.29s0,0,.06-.05l.13,0h.53c.27,0,.41-.06.41-.19a.29.29,0,0,0,0-.09.66.66,0,0,0-.06-.12l-.14-.2c-.06-.08-.13-.18-.23-.3l.52-.74a1.35,1.35,0,0,1,.39.56,1.73,1.73,0,0,1,.14.71,1.34,1.34,0,0,1-.11.58,1.18,1.18,0,0,1-.29.4,1.22,1.22,0,0,1-.45.24,1.67,1.67,0,0,1-.55.08H50.7s-.06,0-.06,0Zm1.47-2.71-.48.65L51,22.78l.49-.65Z"/><path class="cls-1" d="M54.78,20.49a1.32,1.32,0,0,1-.39.39,1,1,0,0,1-.52.15,1.47,1.47,0,0,1-.36,0l-.36-.07a1.35,1.35,0,0,0-.35,0,.54.54,0,0,0-.31.2l-.28-.37a1.08,1.08,0,0,1,.38-.3A.92.92,0,0,1,53,20.4a1.89,1.89,0,0,1,.39.05,1.86,1.86,0,0,0,.42.05.93.93,0,0,0,.83-.38Zm-.91,5.56-.82.22V21.64l.82-.33Z"/><path class="cls-1" d="M58.51,28.81l-1.81.47L56.64,29l1.8-.51Z"/><path class="cls-1" d="M59.42,26.15a2,2,0,0,1-.22.75,1.88,1.88,0,0,1-.46.58,2.16,2.16,0,0,1-.63.36,2.31,2.31,0,0,1-.75.12,2,2,0,0,1-.68-.11,1.78,1.78,0,0,1-.57-.32,1.69,1.69,0,0,1-.39-.52,1.83,1.83,0,0,1-.14-.73,2.62,2.62,0,0,1,.1-.73,5.59,5.59,0,0,1,.26-.71l.61.22c-.07.17-.14.34-.2.52a2,2,0,0,0-.08.56,1.4,1.4,0,0,0,.06.41.81.81,0,0,0,.19.34.87.87,0,0,0,.34.24,1.46,1.46,0,0,0,.5.08,2.42,2.42,0,0,0,.54-.06,1.85,1.85,0,0,0,.47-.2,1.1,1.1,0,0,0,.34-.34.88.88,0,0,0,.13-.46h-.06a4.68,4.68,0,0,1-.55,0,1,1,0,0,1-.42-.13.71.71,0,0,1-.28-.29,1.18,1.18,0,0,1-.09-.5,1.58,1.58,0,0,1,.05-.41,1.86,1.86,0,0,1,.17-.41,1.29,1.29,0,0,1,.28-.33.57.57,0,0,1,.38-.13.79.79,0,0,1,.45.13,1.29,1.29,0,0,1,.33.33,2.74,2.74,0,0,1,.21.42,1.81,1.81,0,0,1,.1.42h.45v.93Zm-2-3.08.4-.54.52.34.3-.41.62.41-.41.55-.53-.35-.28.41Zm1.39,2.15a.76.76,0,0,0-.16-.41.4.4,0,0,0-.31-.15.29.29,0,0,0-.23.1A.41.41,0,0,0,58,25a.25.25,0,0,0,0,.13.17.17,0,0,0,.11.06,1.29,1.29,0,0,0,.24,0Z"/><path class="cls-1" d="M61.25,26.05a.83.83,0,0,1-.38-.31.92.92,0,0,1-.39.31,1.58,1.58,0,0,1-.62.1h-.13s-.06,0-.06,0v-.81s0,0,.06-.05l.13,0H60a1.55,1.55,0,0,0,.33,0,.32.32,0,0,0,.18-.1.3.3,0,0,0,.08-.19.92.92,0,0,0,0-.3c0-.06,0-.2,0-.42s0-.47,0-.76,0-.59,0-.91,0-.61,0-.87l.8-.33V24.5a.83.83,0,0,0,.14.54.55.55,0,0,0,.46.18v.93A1.6,1.6,0,0,1,61.25,26.05Z"/><path class="cls-1" d="M61.7,25.29s0,0,.06-.05l.12,0H63a1.63,1.63,0,0,0,.35-.05l.46-.14.76-.29-.71-.19-.37-.11a.46.46,0,0,0-.29,0,1,1,0,0,0-.23.19l-.55-.38a2.15,2.15,0,0,1,.49-.63.66.66,0,0,1,.56-.14c.18,0,.36.06.55.11l.56.16.59.15.66.14.32,0,.31,0-.25.91h-.34a1.23,1.23,0,0,0-.27,0,1.53,1.53,0,0,0-.26.08,1.94,1.94,0,0,0-.3.14c-.28.16-.5.29-.68.41a5.48,5.48,0,0,1-.53.28,3.06,3.06,0,0,1-.56.17,5.77,5.77,0,0,1-.8,0h-.72s-.06,0-.06,0Zm2.4-3-.48.64L63,22.51l.49-.65Z"/></svg>