<svg id="Layer_1" data-name="Layer 1" xmlns="http://www.w3.org/2000/svg" viewBox="0 0 146.94 74.92"><defs><style>.cls-1{fill:#231f20;}.cls-2{fill:#fcba63;}</style></defs><path class="cls-1" d="M94.59,18.54a1.52,1.52,0,0,1,0,.21,1.23,1.23,0,0,1,0,.2,1.58,1.58,0,0,1-.26.89,2.49,2.49,0,0,1-.71.7,5.08,5.08,0,0,1-.62.34,6,6,0,0,1-.72.28,6.36,6.36,0,0,1-.78.2,5.54,5.54,0,0,1-.81.07,4.18,4.18,0,0,1-1.44-.23,2.78,2.78,0,0,1-1-.64,2.54,2.54,0,0,1-.61-1,3.53,3.53,0,0,1-.2-1.23,4.28,4.28,0,0,1,.15-1.06,7.47,7.47,0,0,1,.34-1l1.21.68a6.92,6.92,0,0,0-.28.76,2.32,2.32,0,0,0-.12.66,1.21,1.21,0,0,0,.49,1,2.32,2.32,0,0,0,1.48.39A4,4,0,0,0,92,19.54a3.66,3.66,0,0,0,1-.44h0l.06-.05-.36-.16-.42-.17-.4-.17-.31-.12.32-1.61H95.3v1.71Z"/><path class="cls-1" d="M96.93,16.83q.84,0,.84-.3a.42.42,0,0,0-.06-.14,2.22,2.22,0,0,0-.15-.23l-.17-.25-.15-.21,1-1.35.24.31a3.89,3.89,0,0,1,.28.47,3.65,3.65,0,0,1,.24.62,2.73,2.73,0,0,1,.1.78,1.93,1.93,0,0,1-.55,1.5,2.23,2.23,0,0,1-1.59.51H95.3a.69.69,0,0,1-.2,0c-.06,0-.1,0-.1-.07v-1.5s0-.06.1-.08a.69.69,0,0,1,.2,0Zm1.5,3.32-.36.49a4.83,4.83,0,0,0-.37.49l-.8-.6-.56.66-.51-.35-.51-.35c.12-.17.25-.33.38-.49l.38-.48.83.65.5-.73Z"/><path class="cls-1" d="M101.65,10.63c0,.58,0,1.22,0,1.92s0,1.42,0,2.12v2c0,.62,0,1.14,0,1.55l-1.31.48c0-.46,0-1,0-1.67s0-1.32,0-2,0-1.38,0-2.06,0-1.29,0-1.82Z"/><path class="cls-1" d="M105,18.5a4.26,4.26,0,0,1-.46,1.17,4.87,4.87,0,0,1-.73,1,6.46,6.46,0,0,1-.93.79c-.34.23-.69.44-1.05.64l-1.26-1,.9-.48a7.81,7.81,0,0,0,1-.69,4.48,4.48,0,0,0,.86-.88,1.71,1.71,0,0,0,.36-1,.77.77,0,0,0-.07-.28,2.19,2.19,0,0,0-.16-.3c-.06-.09-.12-.19-.19-.28s-.12-.17-.16-.24l1.1-1.12.21.36a3.27,3.27,0,0,0,.25.36,1.5,1.5,0,0,0,.3.27.54.54,0,0,0,.35.11v1.71A2,2,0,0,1,105,18.5Z"/><path class="cls-1" d="M106.39,16.83a4.06,4.06,0,0,0,.76-.07,7.38,7.38,0,0,0,.78-.19c.27-.08.52-.17.77-.27a6,6,0,0,0,.67-.34l-.42-.19-.43-.18c-.14-.05-.26-.1-.38-.13a1.14,1.14,0,0,0-.26-.05.77.77,0,0,0-.43.15,2,2,0,0,0-.38.33l-1-.64.32-.42a4,4,0,0,1,.46-.46,2.85,2.85,0,0,1,.53-.38,1.14,1.14,0,0,1,.55-.15,1.93,1.93,0,0,1,.75.15c.25.1.52.21.8.34l.36.19a2.82,2.82,0,0,0,.55.2,4.71,4.71,0,0,0,.83.16,7.73,7.73,0,0,0,1.25.06l-.49,1.78a5.42,5.42,0,0,0-.78.11,4.45,4.45,0,0,0-.61.17,4.67,4.67,0,0,0-.5.23l-.46.26-.68.37a5.56,5.56,0,0,1-.74.34,4.91,4.91,0,0,1-.82.24,4.07,4.07,0,0,1-1,.1h-1a.64.64,0,0,1-.2,0c-.07,0-.1,0-.1-.07v-1.5s0-.06.1-.08a.64.64,0,0,1,.2,0Zm.69,3.73.37-.49.37-.49.8.6.56-.68q.25.2.51.36l.51.36c-.12.17-.25.33-.38.5l-.38.47-.79-.6-.56.68Zm1,1.35.35-.42c.11-.14.23-.27.34-.4l.44.35.44.34c-.13.15-.24.3-.36.45a5.37,5.37,0,0,1-.35.45Z"/><path class="cls-1" d="M122.12,20.11l-2.75.83-.18-.62,2.75-.84Z"/><path class="cls-1" d="M126.62,18.54a6.22,6.22,0,0,1-1.25-.13,5.89,5.89,0,0,1-1.05-.32,7.82,7.82,0,0,1-1.13.34,12.23,12.23,0,0,1-1.21.21c-.4.05-.8.09-1.19.11l-1.08,0h-.38a10.67,10.67,0,0,1-1.24-.07,3.89,3.89,0,0,1-1.17-.34,2.3,2.3,0,0,1-.88-.73,2.13,2.13,0,0,1-.34-1.28,2.22,2.22,0,0,1,.14-.74,4.41,4.41,0,0,1,.31-.71l1.19.34a4,4,0,0,0-.21.42,1.7,1.7,0,0,0-.13.69.43.43,0,0,0,.23.38,1.8,1.8,0,0,0,.58.22,5.45,5.45,0,0,0,.75.1l.77,0h.37c.45,0,1,0,1.53,0a13.81,13.81,0,0,0,1.62-.19,2.23,2.23,0,0,1-.27-1.09,1.83,1.83,0,0,1,.23-.87,3.25,3.25,0,0,1,.56-.76,2.79,2.79,0,0,1,.68-.53,1.35,1.35,0,0,1,.64-.19,1.26,1.26,0,0,1,.74.24,2.89,2.89,0,0,1,.57.59,3.46,3.46,0,0,1,.36.72,1.7,1.7,0,0,1,.11.6,2.82,2.82,0,0,1-.14.68,3,3,0,0,1-.28.57l.21,0h.85v1.71Zm-2-5.89-.52-.36-.52-.36.39-.49.4-.5.5.36.51.36ZM124,15.76a.68.68,0,0,0,.39.59,1.08,1.08,0,0,0,.62-.88c0-.05,0-.12-.09-.22a.28.28,0,0,0-.25-.14.42.42,0,0,0-.2.05.74.74,0,0,0-.22.14.91.91,0,0,0-.18.21A.45.45,0,0,0,124,15.76Z"/><path class="cls-1" d="M135,18.54a4.27,4.27,0,0,1-.71-.07,1.12,1.12,0,0,1-.63-.37,1.93,1.93,0,0,1-.53.34,2.11,2.11,0,0,1-.75.12,2.65,2.65,0,0,1-.68-.09,1.3,1.3,0,0,1-.62-.39,1.87,1.87,0,0,1-.52.34,1.64,1.64,0,0,1-.73.14,2.59,2.59,0,0,1-.68-.09,1.26,1.26,0,0,1-.62-.39,1.63,1.63,0,0,1-.54.33,2,2,0,0,1-.74.13h-.17a.64.64,0,0,1-.2,0c-.07,0-.1,0-.1-.07v-1.5s0-.06.1-.08a.64.64,0,0,1,.2,0h.17a.74.74,0,0,0,.36-.07.6.6,0,0,0,.21-.17.58.58,0,0,0,.1-.19,1.28,1.28,0,0,0,0-.17V16a.76.76,0,0,1,0-.15v-.11l1.14-.33a3,3,0,0,1,0,.44,2,2,0,0,0,.06.49.83.83,0,0,0,.21.38.61.61,0,0,0,.47.16.7.7,0,0,0,.35-.08.58.58,0,0,0,.2-.17.48.48,0,0,0,.09-.21.56.56,0,0,0,0-.17V16a.76.76,0,0,1,0-.15v-.11l1.14-.33a2.85,2.85,0,0,1,0,.44,2,2,0,0,0,.06.49.74.74,0,0,0,.2.38.61.61,0,0,0,.47.16.66.66,0,0,0,.57-.24.62.62,0,0,0,.1-.2,1.15,1.15,0,0,0,0-.16V16a.76.76,0,0,1,0-.15v-.11l1.14-.33a2.89,2.89,0,0,1,0,.44,1.86,1.86,0,0,0,.06.48.76.76,0,0,0,.18.37.48.48,0,0,0,.43.12H135Zm-2.31-4.82c-.12.17-.24.34-.36.49s-.25.32-.37.49l-.8-.6-.56.67-.51-.36-.51-.35c.12-.17.25-.33.38-.49l.38-.48.78.6.57-.68Zm-.94-1.35-.35.43c-.12.13-.23.26-.34.4-.15-.13-.3-.24-.45-.35l-.44-.35.36-.44.36-.46Z"/><path class="cls-1" d="M135,16.83a9.75,9.75,0,0,0,1.08,0,2.11,2.11,0,0,0,.57-.16.47.47,0,0,0,.24-.22.77.77,0,0,0,0-.25.88.88,0,0,0-.22-.53,5.52,5.52,0,0,0-.53-.59c-.2-.2-.42-.4-.64-.59a4.57,4.57,0,0,1-.54-.54l0-.7a1.69,1.69,0,0,1,.19-.59,2.09,2.09,0,0,1,.23-.29c.09-.07.23-.17.42-.29l.68-.42.86-.49,1-.51.94-.48.84-.39v1.9l-.94.42-.93.46a8.85,8.85,0,0,0-.87.45l-.75.42.53.51a4.53,4.53,0,0,1,.51.63,3.84,3.84,0,0,1,.4.75,2.49,2.49,0,0,1,.15.87,4.76,4.76,0,0,1-.07.84,1.53,1.53,0,0,1-.39.77,2.28,2.28,0,0,1-1,.56,6.06,6.06,0,0,1-1.8.22.76.76,0,0,1-.21,0c-.06,0-.09,0-.09-.07v-1.5s0-.06.09-.08A.76.76,0,0,1,135,16.83Z"/><path class="cls-1" d="M144.37,18.54a2.78,2.78,0,0,1-.8-.1,1.88,1.88,0,0,1-.59-.27,1.65,1.65,0,0,1-.41-.46,2.62,2.62,0,0,1-.29-.63,3.75,3.75,0,0,1-.71.25,2.73,2.73,0,0,1-.65.09,1.16,1.16,0,0,1-1-.44,1.83,1.83,0,0,1-.32-1.07,1.67,1.67,0,0,1,.2-.8,2.94,2.94,0,0,1,.49-.68,4.16,4.16,0,0,1,.64-.54,5.31,5.31,0,0,1,.65-.39l-.08-.49,1.2-.89.7,3.88a1.19,1.19,0,0,0,.27.63,1,1,0,0,0,.72.2Zm-2.43-2.84s0-.08,0-.15,0-.16,0-.25,0-.18,0-.25a1.27,1.27,0,0,0,0-.15l-.25.14a3.43,3.43,0,0,0-.33.24,1.9,1.9,0,0,0-.28.29.34.34,0,0,0-.09.28c0,.08.06.12.16.13a1.48,1.48,0,0,0,.34,0,1.9,1.9,0,0,0,.36-.12Z"/><path class="cls-1" d="M144.88,21.22l-.52-.36-.51-.36.38-.49c.12-.15.25-.32.4-.49l.51.36.5.36Zm-.09-4.39q.84,0,.84-.3a.42.42,0,0,0-.06-.14,2.22,2.22,0,0,0-.15-.23l-.17-.25-.15-.21,1-1.35.24.34c.09.15.19.32.28.51a4.6,4.6,0,0,1,.24.63,2.33,2.33,0,0,1,.11.7,2,2,0,0,1-.55,1.5,2.28,2.28,0,0,1-1.6.51h-.42a.64.64,0,0,1-.2,0c-.07,0-.1,0-.1-.07v-1.5s0-.06.1-.08a.64.64,0,0,1,.2,0Z"/><path class="cls-1" d="M91.35,34.73l-3,.84L88.26,35l3-.89Z"/><path class="cls-1" d="M89.53,32.81a5,5,0,0,1-1.08-.12,2.8,2.8,0,0,1-.93-.41l.53-.91a1.66,1.66,0,0,0,.74.33,4.43,4.43,0,0,0,.81.07l.56,0a2.15,2.15,0,0,0,.57-.13,1.18,1.18,0,0,0,.44-.28.66.66,0,0,0,.18-.49,1.27,1.27,0,0,0-.21-.7,3.8,3.8,0,0,0-.53-.61,5.56,5.56,0,0,0-.67-.5l-.6-.38.42-1.07q.43.3.87.66a5.52,5.52,0,0,1,.76.77,4.13,4.13,0,0,1,.54.9,2.7,2.7,0,0,1,.2,1,1.51,1.51,0,0,1-.25.89,2,2,0,0,1-.62.57,2.52,2.52,0,0,1-.84.32A4.63,4.63,0,0,1,89.53,32.81Z"/><path class="cls-1" d="M95.45,32.62a2.9,2.9,0,0,1-.36,1.29A4.89,4.89,0,0,1,94.28,35a6.54,6.54,0,0,1-1.06.91,9.18,9.18,0,0,1-1.12.67l-.65-.73a11.72,11.72,0,0,0,1.1-.6,7.07,7.07,0,0,0,1-.72,5,5,0,0,0,.72-.82,2.41,2.41,0,0,0,.36-.94,1.74,1.74,0,0,0-.2-.84,4,4,0,0,0-.43-.69l.71-.81A5.81,5.81,0,0,1,95,31a4.85,4.85,0,0,0,.3.41,1.54,1.54,0,0,0,.34.29.88.88,0,0,0,.45.11v1A1.13,1.13,0,0,1,95.45,32.62Z"/><path class="cls-1" d="M95.76,31.87s0-.06.1-.08l.22,0h1.3a4.49,4.49,0,0,0,.62,0,2.87,2.87,0,0,0,.61-.15,1.23,1.23,0,0,0,.46-.3.69.69,0,0,0,.19-.5v-.09a.29.29,0,0,0,0-.09,3.53,3.53,0,0,1-.59.22,2,2,0,0,1-.58.09,1,1,0,0,1-.71-.26,1.13,1.13,0,0,1-.29-.88,2.86,2.86,0,0,1,.11-.7,3.4,3.4,0,0,1,.32-.76,2.47,2.47,0,0,1,.47-.62.82.82,0,0,1,.58-.25.83.83,0,0,1,.66.34,2.73,2.73,0,0,1,.47.8,5.26,5.26,0,0,1,.27,1,4.92,4.92,0,0,1,.1.8,2.21,2.21,0,0,1-2.54,2.47H96.08l-.22,0c-.07,0-.1,0-.1-.07Zm2.73-5.48-.93-.65.71-.86.91.65Zm-.24,3.53a1.12,1.12,0,0,0,.43-.08,2.4,2.4,0,0,0,.39-.17c0-.12-.06-.26-.1-.4s-.1-.27-.15-.39a1.24,1.24,0,0,0-.2-.29.38.38,0,0,0-.25-.11.33.33,0,0,0-.22.09.92.92,0,0,0-.19.24,1,1,0,0,0-.14.31,1,1,0,0,0-.06.32.55.55,0,0,0,.11.34A.48.48,0,0,0,98.25,29.92Z"/><path class="cls-1" d="M108.68,32.81a1.94,1.94,0,0,1-1.4-.41,2.26,2.26,0,0,1-.6-1.25l0-.06a2.63,2.63,0,0,1-.77.38,2.88,2.88,0,0,1-.91.14,1.17,1.17,0,0,1-.71-.19,1,1,0,0,1-.36-.47,1.32,1.32,0,0,1,0-.63,2,2,0,0,1,.22-.64,4.67,4.67,0,0,1,2-1.66l-.15-.78.78-.59.68,3.47c0,.26.11.5.17.7a1.73,1.73,0,0,0,.22.53.84.84,0,0,0,.34.31,1.25,1.25,0,0,0,.55.11h.1v1Zm-2.45-3.92a3,3,0,0,0-.6.33,2.87,2.87,0,0,0-.56.46c-.28.28-.39.51-.32.67s.28.23.63.18a3.29,3.29,0,0,0,.65-.17,2.18,2.18,0,0,0,.45-.24Z"/><path class="cls-1" d="M109.17,35.64l-.91-.65.69-.86.93.65Zm-.74-3.77s0-.06.1-.08l.22,0H109a2,2,0,0,0,.88-.16.54.54,0,0,0,.34-.52,1,1,0,0,0-.21-.57,6.31,6.31,0,0,0-.39-.54l.72-.78a3.42,3.42,0,0,1,.53.83,2.8,2.8,0,0,1,.19,1c0,1.2-.7,1.8-2.11,1.8h-.23l-.22,0c-.07,0-.1,0-.1-.07Z"/><path class="cls-1" d="M117.51,32.62a2.89,2.89,0,0,1-.35,1.29,5.57,5.57,0,0,1-.81,1.13,6.61,6.61,0,0,1-1.07.91,8.4,8.4,0,0,1-1.11.67l-.65-.73a10.43,10.43,0,0,0,1.09-.6,6,6,0,0,0,1-.72,4.2,4.2,0,0,0,.72-.82,2.14,2.14,0,0,0,.36-.94,1.74,1.74,0,0,0-.19-.84,4.73,4.73,0,0,0-.43-.69l.71-.81a5.81,5.81,0,0,1,.32.49,3.34,3.34,0,0,0,.3.41,1.34,1.34,0,0,0,.34.29.88.88,0,0,0,.45.11v1A1.19,1.19,0,0,1,117.51,32.62Z"/><path class="cls-1" d="M127.23,32.81a1.45,1.45,0,0,1-1.36-.62h0a3.65,3.65,0,0,1-.83.36,7.21,7.21,0,0,1-.92.21c-.31,0-.62.08-.92.1l-.86,0h-1a4.53,4.53,0,0,1-.79-.09,2,2,0,0,1-.6-.22,1,1,0,0,1-.39-.43,1.19,1.19,0,0,1-1.16.69h-.28l-.22,0c-.07,0-.11,0-.11-.07v-.85s0-.06.11-.08l.22,0h.07a.91.91,0,0,0,.79-.3,2,2,0,0,0,.21-1.08l.83-.29a5.82,5.82,0,0,0,.07.88,1,1,0,0,0,.37.66,1.78,1.78,0,0,0,.75.19c.39-.48.77-.92,1.12-1.3a8.8,8.8,0,0,1,1-1,4.66,4.66,0,0,1,1-.63,2.78,2.78,0,0,1,1.11-.22,1.38,1.38,0,0,1,.56.12,1.75,1.75,0,0,1,.48.32,1.39,1.39,0,0,1,.45,1,2.15,2.15,0,0,1-.13.79,2.67,2.67,0,0,1-.32.63,1.22,1.22,0,0,0,.73.2h.37v1ZM125,29.72a1.55,1.55,0,0,0-.76.23,4.84,4.84,0,0,0-.77.56,7.88,7.88,0,0,0-.72.69l-.6.63H123l.83,0c.29,0,.57-.06.85-.11a3.8,3.8,0,0,0,.76-.21,1.38,1.38,0,0,0,.53-.36.74.74,0,0,0,.21-.53.87.87,0,0,0-.1-.42.78.78,0,0,0-.26-.25,1.11,1.11,0,0,0-.36-.13A1.83,1.83,0,0,0,125,29.72Z"/><path class="cls-1" d="M127.7,32.81l-.22,0c-.07,0-.1,0-.1-.07v-.85s0-.06.1-.08l.22,0H129v1Z"/><path class="cls-1" d="M129,32.81l-.22,0c-.07,0-.1,0-.1-.07v-.85s0-.06.1-.08l.22,0h1.31v1Z"/><path class="cls-1" d="M137.51,32.81a2.19,2.19,0,0,1-.79-.12,1.39,1.39,0,0,1-.49-.36,1.58,1.58,0,0,1-.3-.52c-.07-.21-.13-.43-.19-.66l-1.08.57c-.36.19-.73.37-1.1.54a8.25,8.25,0,0,1-1.15.4,4.58,4.58,0,0,1-1.17.15h-.92l-.21,0c-.08,0-.11,0-.11-.07v-.85s0-.06.11-.08l.21,0h.91a4.82,4.82,0,0,0,1.17-.13,7.45,7.45,0,0,0,1-.31,10,10,0,0,0,.94-.43l1-.46c-.67-.28-1.23-.5-1.65-.66a3.29,3.29,0,0,0-.84-.24.72.72,0,0,0-.42.13,1.84,1.84,0,0,0-.43.42l-.65-.32c.47-.89.94-1.33,1.4-1.33a2.55,2.55,0,0,1,.92.21l1.1.47a10.72,10.72,0,0,0,1.2.48,3.77,3.77,0,0,0,1.22.21,2.37,2.37,0,0,0,.65-.09l-.22,1a3.07,3.07,0,0,0-1.33.22,1,1,0,0,0,.52.68,3,3,0,0,0,1,.14h.71v1Z"/><path class="cls-1" d="M141.65,32.81a2.21,2.21,0,0,1-1.09-.21A1.23,1.23,0,0,1,140,32a1.67,1.67,0,0,1-.67.65,1.91,1.91,0,0,1-.84.19h-.05l-.22,0c-.07,0-.11,0-.11-.07v-.85s0-.06.11-.08l.22,0a1.76,1.76,0,0,0,.89-.23.86.86,0,0,0,.39-.8v-.45l.73-.27a4.58,4.58,0,0,0,.06.8,1.49,1.49,0,0,0,.2.54.85.85,0,0,0,.41.31,1.86,1.86,0,0,0,.67.1v1Zm-1.55-3.66-.93-.65.71-.86.91.64Z"/><path class="cls-1" d="M141.5,31.87s0-.06.1-.08l.22,0H142a1.06,1.06,0,0,0,.31,0l.22-.06a.93.93,0,0,0,.43-.34,2.91,2.91,0,0,0,.34-.54c.09-.2.19-.41.27-.63a4.05,4.05,0,0,1,.29-.59,1.63,1.63,0,0,1,.37-.44.76.76,0,0,1,.5-.17,1,1,0,0,1,.65.26,2.14,2.14,0,0,1,.46.64,3.62,3.62,0,0,1,.37,1.51,2.2,2.2,0,0,1-.06.5,1.41,1.41,0,0,1-.17.46.85.85,0,0,1-.3.35.74.74,0,0,1-.44.13,1.21,1.21,0,0,1-.44-.08,4,4,0,0,1-.47-.21l-.45-.27a2.13,2.13,0,0,1-.35-.27,1.64,1.64,0,0,1-.57.62,1.73,1.73,0,0,1-.93.21h-.24l-.22,0c-.07,0-.1,0-.1-.07Zm2.45-.72c.19.13.39.25.59.37a1.09,1.09,0,0,0,.5.16.25.25,0,0,0,.23-.15,1,1,0,0,0,.07-.35,1.65,1.65,0,0,0-.05-.38,1.17,1.17,0,0,0-.12-.36,1.18,1.18,0,0,0-.2-.27.37.37,0,0,0-.24-.11c-.09,0-.21.08-.36.23A2.34,2.34,0,0,0,144,31.15Z"/><path class="cls-1" d="M88.57,46.82A1.77,1.77,0,0,1,88,46.1a2.77,2.77,0,0,1-.25-1,10.05,10.05,0,0,1,0-1.09V38.6l.89-.6,0,6.47a5.63,5.63,0,0,0,0,.58,1.39,1.39,0,0,0,.15.5.89.89,0,0,0,.36.36,1.31,1.31,0,0,0,.65.14v1A2.1,2.1,0,0,1,88.57,46.82Z"/><path class="cls-1" d="M89.39,46.15s0-.07.11-.08a.78.78,0,0,1,.22,0h1.5l.16,0a2.36,2.36,0,0,1-.5-.5,1.12,1.12,0,0,1-.18-.64,1.33,1.33,0,0,1,.14-.57,2.57,2.57,0,0,1,.34-.54,4.16,4.16,0,0,1,.48-.46,3.4,3.4,0,0,1,.53-.32l-.2-.15a1.4,1.4,0,0,1-.18-.13l.42-1c.31.24.63.49,1,.77a11.25,11.25,0,0,1,.94.89,7.81,7.81,0,0,1,.79,1,3.7,3.7,0,0,1,.5,1,2.84,2.84,0,0,1,.14.89,1.69,1.69,0,0,1-.18.75.82.82,0,0,1-.51.42,1.36,1.36,0,0,1-.86-.09L93.26,47l-.75-.36a2.72,2.72,0,0,1-.78.34,3.21,3.21,0,0,1-.81.1h-1.2a.78.78,0,0,1-.22,0c-.07,0-.11,0-.11-.07Zm2.77-.79a.79.79,0,0,1,.16.08,1,1,0,0,0,.21.11l.12-.1.07-.05a.81.81,0,0,0,.24-.35,1.21,1.21,0,0,0,.07-.4,1.69,1.69,0,0,0,0-.3,1,1,0,0,0-.12-.3.67.67,0,0,0-.19-.22.44.44,0,0,0-.25-.08.79.79,0,0,0-.32.08,1.05,1.05,0,0,0-.29.23,1.33,1.33,0,0,0-.23.3.64.64,0,0,0-.09.3.51.51,0,0,0,.2.4A3.52,3.52,0,0,0,92.16,45.36Zm1.59-1a2.64,2.64,0,0,1-.1.86,2.45,2.45,0,0,1-.33.69l.58.28.37.16c.27.09.43,0,.48-.14a1,1,0,0,0-.11-.65,3.49,3.49,0,0,0-.37-.58C94.11,44.79,93.94,44.59,93.75,44.38Z"/><path class="cls-1" d="M103.08,43.61a4.45,4.45,0,0,1,.64,1.34,4.23,4.23,0,0,1,.16,1.35,3.87,3.87,0,0,1-.3,1.26,3.12,3.12,0,0,1-.73,1,3.3,3.3,0,0,1-1.12.71,4,4,0,0,1-1.47.26,3.13,3.13,0,0,1-1.79-.46,2.61,2.61,0,0,1-1-1.2,3.43,3.43,0,0,1-.19-1.61,4.4,4.4,0,0,1,.55-1.71l.7.31a4.18,4.18,0,0,0-.37,1.85,1.77,1.77,0,0,0,.37,1,2,2,0,0,0,.81.59,2.58,2.58,0,0,0,1.05.18,2.8,2.8,0,0,0,1.07-.21,2.46,2.46,0,0,0,.89-.6,1.93,1.93,0,0,0,.49-1,2.87,2.87,0,0,0,0-1.27,3.81,3.81,0,0,0-.57-1.25Zm-2.68.21-.93-.65.7-.86.92.65Z"/><path class="cls-1" d="M106.49,46.82a1.77,1.77,0,0,1-.61-.72,2.77,2.77,0,0,1-.25-1,10.05,10.05,0,0,1,0-1.09V38.6l.89-.6,0,6.47a5.63,5.63,0,0,0,0,.58,1.39,1.39,0,0,0,.15.5.89.89,0,0,0,.36.36,1.31,1.31,0,0,0,.65.14v1A2.1,2.1,0,0,1,106.49,46.82Z"/><path class="cls-1" d="M107.64,47.09a.78.78,0,0,1-.22,0c-.07,0-.11,0-.11-.07v-.84s0-.07.11-.08a.78.78,0,0,1,.22,0H109v1Z"/><path class="cls-1" d="M117.1,47.09a1.41,1.41,0,0,1-.81-.19,1,1,0,0,1-.4-.53,1.08,1.08,0,0,1-.54.57,1.76,1.76,0,0,1-.76.17,1.72,1.72,0,0,1-.8-.19,1.31,1.31,0,0,1-.57-.55,1.22,1.22,0,0,1-.65.58,2.33,2.33,0,0,1-.81.16,1.56,1.56,0,0,1-.74-.18,1.11,1.11,0,0,1-.53-.56,1.39,1.39,0,0,1-1.34.72H109a.78.78,0,0,1-.22,0c-.07,0-.11,0-.11-.07v-.84s0-.07.11-.08a.78.78,0,0,1,.22,0h0c.78,0,1.17-.44,1.17-1.33l.7-.25a4,4,0,0,0,0,.61,1.47,1.47,0,0,0,.13.5.76.76,0,0,0,.27.34.81.81,0,0,0,.49.13,1.18,1.18,0,0,0,.81-.26,1.27,1.27,0,0,0,.28-1v-.11l.71-.27a5.63,5.63,0,0,0,0,.59,1.59,1.59,0,0,0,.14.51,1,1,0,0,0,.29.37.89.89,0,0,0,.52.14,1.1,1.1,0,0,0,.51-.11.86.86,0,0,0,.3-.3,1.46,1.46,0,0,0,.15-.43,2.74,2.74,0,0,0,0-.5l.65-.25c0,.23,0,.45,0,.64a1.27,1.27,0,0,0,.14.5.69.69,0,0,0,.31.32,1.1,1.1,0,0,0,.57.12h.19v1Z"/><path class="cls-1" d="M117.16,46.15s0-.07.11-.08a.75.75,0,0,1,.21,0h.29a2.16,2.16,0,0,0,.88-.16.54.54,0,0,0,.33-.52,1.06,1.06,0,0,0-.2-.57l-.39-.54.72-.78a3.19,3.19,0,0,1,.52.83,2.76,2.76,0,0,1,.2,1c0,1.2-.71,1.8-2.12,1.8h-.23l-.21,0c-.07,0-.11,0-.11-.07Zm1.67-3.43-.94-.65.71-.86.92.65Z"/><path class="cls-1" d="M122.34,46.89l-.72.2c0-.51,0-1.11-.05-1.8s0-1.42,0-2.19,0-1.56,0-2.35,0-1.55-.06-2.28l.92-.37Z"/><path class="cls-1" d="M133,47.09a1,1,0,0,1,.31.75,1.36,1.36,0,0,1-.26.8,2.71,2.71,0,0,1-.59.58,5.22,5.22,0,0,1-1.89.83,4.7,4.7,0,0,1-1.12.13,4,4,0,0,1-1.89-.4,2.62,2.62,0,0,1-1.12-1.09,3,3,0,0,1-.3-1.6,4.75,4.75,0,0,1,.58-1.9l.72.26a4.12,4.12,0,0,0-.41,1.39A2.14,2.14,0,0,0,127.2,48a1.66,1.66,0,0,0,.79.8,3.09,3.09,0,0,0,1.47.3,5.23,5.23,0,0,0,2.36-.58,3.37,3.37,0,0,0,.32-.19,1.29,1.29,0,0,0,.24-.21.42.42,0,0,0,.1-.2c0-.06,0-.1-.1-.13l-1.8-.71.15-.56a1.21,1.21,0,0,1,.1-.32c0-.07.08-.12.14-.13a.61.61,0,0,1,.22,0h2.14v1Z"/><path class="cls-1" d="M133,46.15s0-.07.1-.08a.78.78,0,0,1,.22,0h.92a5.17,5.17,0,0,0,1.18-.12,6.22,6.22,0,0,0,.95-.31c.29-.13.57-.27.85-.43s.58-.3.9-.44l-.86-.37-.62-.26-.43-.16a.83.83,0,0,0-.27-.06,1.21,1.21,0,0,0-.49.12,1.47,1.47,0,0,0-.51.41l-.63-.29a2.65,2.65,0,0,1,.77-1,1.34,1.34,0,0,1,.77-.32,2.13,2.13,0,0,1,1,.27c.35.17.75.35,1.2.52a5.87,5.87,0,0,0,.56.24,4.44,4.44,0,0,0,.52.15l.56.08c.2,0,.45,0,.73,0l-.24,1a4.17,4.17,0,0,0-.52,0l-.43,0a2.71,2.71,0,0,0-1.08.39l-1.07.64a8.77,8.77,0,0,1-1.23.58,4.39,4.39,0,0,1-1.58.26h-.92a.78.78,0,0,1-.22,0c-.07,0-.1,0-.1-.07Zm3.27-4.31-.93-.65.7-.86L137,41Z"/><path class="cls-1" d="M143.71,46.89a2.81,2.81,0,0,1-.35,1.3,4.92,4.92,0,0,1-.81,1.12,6.26,6.26,0,0,1-1.07.92,8.4,8.4,0,0,1-1.11.67l-.65-.73a10.43,10.43,0,0,0,1.09-.6,6,6,0,0,0,1-.72,4.24,4.24,0,0,0,.72-.83,2.06,2.06,0,0,0,.36-.93,1.74,1.74,0,0,0-.19-.84,4.53,4.53,0,0,0-.43-.7l.71-.8a5.81,5.81,0,0,1,.32.49,4.85,4.85,0,0,0,.3.41,1.49,1.49,0,0,0,.34.28.79.79,0,0,0,.45.12v1A1.12,1.12,0,0,1,143.71,46.89Z"/><path class="cls-1" d="M144,46.15s0-.07.11-.08a.78.78,0,0,1,.22,0h.28a2.13,2.13,0,0,0,.88-.16.54.54,0,0,0,.33-.52,1,1,0,0,0-.2-.57l-.39-.54.72-.78a3,3,0,0,1,.52.83,2.56,2.56,0,0,1,.2,1c0,1.2-.7,1.8-2.12,1.8h-.22a.78.78,0,0,1-.22,0c-.07,0-.11,0-.11-.07Zm1.26,3.76-.92-.65.69-.86.94.65Z"/><path class="cls-1" d="M88.57,61.09a1.75,1.75,0,0,1-.61-.71,2.77,2.77,0,0,1-.25-1,9.76,9.76,0,0,1,0-1.08V52.88l.89-.6,0,6.47a5.3,5.3,0,0,0,0,.57,1.38,1.38,0,0,0,.15.51.89.89,0,0,0,.36.36,1.31,1.31,0,0,0,.65.14v1A2,2,0,0,1,88.57,61.09Z"/><path class="cls-1" d="M89.39,60.42s0-.06.11-.07a.78.78,0,0,1,.22,0h1.5l.16,0a2.18,2.18,0,0,1-.5-.51,1.11,1.11,0,0,1-.18-.63,1.33,1.33,0,0,1,.14-.57,2.4,2.4,0,0,1,.34-.55,3,3,0,0,1,1-.77l-.2-.15a1.4,1.4,0,0,1-.18-.13l.42-1c.31.23.63.49,1,.77a9.82,9.82,0,0,1,.94.89,7.81,7.81,0,0,1,.79,1,3.45,3.45,0,0,1,.5,1,2.8,2.8,0,0,1,.14.89,1.73,1.73,0,0,1-.18.75.86.86,0,0,1-.51.42,1.31,1.31,0,0,1-.86-.1c-.23-.09-.49-.2-.76-.33l-.75-.36a2.7,2.7,0,0,1-.78.33,3.22,3.22,0,0,1-.81.11h-1.2a.78.78,0,0,1-.22,0c-.07,0-.11,0-.11-.07Zm2.77-.79.16.09.21.11.12-.1.07,0a.81.81,0,0,0,.24-.35,1.21,1.21,0,0,0,.07-.4,1.53,1.53,0,0,0,0-.3,1,1,0,0,0-.12-.3.67.67,0,0,0-.19-.22.38.38,0,0,0-.25-.08.66.66,0,0,0-.32.08,1.05,1.05,0,0,0-.29.23,1.33,1.33,0,0,0-.23.3.64.64,0,0,0-.09.3.54.54,0,0,0,.2.4A2.66,2.66,0,0,0,92.16,59.63Zm1.59-1a2.55,2.55,0,0,1-.1.85,2.51,2.51,0,0,1-.33.7l.58.28.37.16c.27.08.43,0,.48-.14a1,1,0,0,0-.11-.65,4,4,0,0,0-.37-.59C94.11,59.07,93.94,58.87,93.75,58.66Z"/><path class="cls-1" d="M98.9,61.17a2.72,2.72,0,0,1-.32,1.27,5.25,5.25,0,0,1-.82,1.13,6.81,6.81,0,0,1-1.08.93,9.32,9.32,0,0,1-1.12.68l-.65-.73A9.63,9.63,0,0,0,96,63.82a7.2,7.2,0,0,0,1-.76,4,4,0,0,0,.73-.89,1.93,1.93,0,0,0,.29-1,1.55,1.55,0,0,0-.22-.79,7.64,7.64,0,0,0-.43-.7l.74-.75A4.76,4.76,0,0,1,98.73,60,3.77,3.77,0,0,1,98.9,61.17Z"/><path class="cls-1" d="M101.51,61.09a1.75,1.75,0,0,1-.61-.71,2.77,2.77,0,0,1-.25-1,9.76,9.76,0,0,1-.05-1.08V52.88l.88-.6v6.47a5.3,5.3,0,0,0,0,.57,1.38,1.38,0,0,0,.15.51.89.89,0,0,0,.36.36,1.31,1.31,0,0,0,.65.14v1A2,2,0,0,1,101.51,61.09Z"/><path class="cls-1" d="M102.33,60.42s0-.06.11-.07a.78.78,0,0,1,.22,0h.56c1,0,1.54-.37,1.54-1.09a1.3,1.3,0,0,0-.26-.73,6,6,0,0,0-.61-.74c-.23-.23-.47-.45-.71-.65s-.42-.37-.55-.51c0-.61.11-1,.25-1.08a22.47,22.47,0,0,1,2.34-1.41c.91-.48,1.93-1,3-1.46l-.14,1.12a5.7,5.7,0,0,0-.53.22l-.82.39-1,.48c-.34.16-.66.33-1,.49s-.56.3-.79.44a4.65,4.65,0,0,0-.51.31c1.36,1.13,2,2.14,2,3a2,2,0,0,1-.83,1.66,2.7,2.7,0,0,1-.85.42,3.72,3.72,0,0,1-1,.14h-.24a.78.78,0,0,1-.22,0c-.07,0-.11,0-.11-.07Z"/><path class="cls-1" d="M106.39,64.45c.37-.19.73-.4,1.09-.62a6.6,6.6,0,0,0,1-.72,4.28,4.28,0,0,0,.74-.87,2.59,2.59,0,0,0,.37-1.05l-.46.18a1.68,1.68,0,0,1-.5.07,1.48,1.48,0,0,1-.94-.31,1.17,1.17,0,0,1-.39-1,2.32,2.32,0,0,1,.11-.71,2.74,2.74,0,0,1,.3-.7,1.91,1.91,0,0,1,.47-.54,1,1,0,0,1,.63-.21,1.08,1.08,0,0,1,.78.29,2.15,2.15,0,0,1,.51.7,3.33,3.33,0,0,1,.27.88,4.9,4.9,0,0,1,.08.78,3.82,3.82,0,0,1-.29,1.5,4.44,4.44,0,0,1-.74,1.24,5.77,5.77,0,0,1-1.08,1,10.85,10.85,0,0,1-1.25.78Zm2.3-4a1.7,1.7,0,0,0,.46-.06,1,1,0,0,0,.38-.19,2.39,2.39,0,0,0-.25-.74.6.6,0,0,0-.57-.34.6.6,0,0,0-.47.25.87.87,0,0,0-.21.57.4.4,0,0,0,.21.41A1,1,0,0,0,108.69,60.41Z"/><path class="cls-1" d="M122.82,61.37a1.29,1.29,0,0,1-1.45-1.06,3.51,3.51,0,0,1-2,1,16.1,16.1,0,0,1-3.54.34c-.41,0-.83,0-1.27,0a4.55,4.55,0,0,1-1.22-.25,2.15,2.15,0,0,1-.92-.62,1.69,1.69,0,0,1-.36-1.14,2.57,2.57,0,0,1,.11-.72,2.36,2.36,0,0,1,.33-.63l.66.18a2.24,2.24,0,0,0-.21.5,1.89,1.89,0,0,0-.06.47.82.82,0,0,0,.31.7,2.13,2.13,0,0,0,.76.35,4.94,4.94,0,0,0,1,.13c.34,0,.66,0,.94,0s.62,0,1,0,.74,0,1.12-.07.75-.08,1.12-.14a5.11,5.11,0,0,0,1-.25,2.69,2.69,0,0,0,.74-.36.91.91,0,0,0,.36-.53l.07-.38.58-.19a2.8,2.8,0,0,0,.22,1.25.9.9,0,0,0,.89.43h0v1Zm-5.77,2.82-.92-.65.69-.86.93.65Z"/><path class="cls-1" d="M123,61.37l-.21,0c-.08,0-.11,0-.11-.07v-.85s0-.06.11-.07a.75.75,0,0,1,.21,0h1.32v1Z"/><path class="cls-1" d="M124.36,61.37a.78.78,0,0,1-.22,0c-.07,0-.11,0-.11-.07v-.85s0-.06.11-.07a.78.78,0,0,1,.22,0h1.31v1Z"/><path class="cls-1" d="M133.82,61.37a1.41,1.41,0,0,1-.81-.19,1,1,0,0,1-.4-.53,1.16,1.16,0,0,1-.54.57,1.76,1.76,0,0,1-.76.16,1.71,1.71,0,0,1-.8-.18,1.37,1.37,0,0,1-.57-.55,1.22,1.22,0,0,1-.65.58,2.32,2.32,0,0,1-.81.15,1.55,1.55,0,0,1-.74-.17,1.16,1.16,0,0,1-.53-.56,1.39,1.39,0,0,1-1.34.72h-.2a.78.78,0,0,1-.22,0c-.07,0-.11,0-.11-.07v-.85s0-.06.11-.07a.78.78,0,0,1,.22,0h0c.78,0,1.17-.45,1.17-1.33l.7-.25a4,4,0,0,0,0,.61,1.47,1.47,0,0,0,.13.5.82.82,0,0,0,.27.34.89.89,0,0,0,.49.13,1.18,1.18,0,0,0,.81-.26,1.27,1.27,0,0,0,.28-1V59l.71-.27a5.87,5.87,0,0,0,0,.59,1.59,1.59,0,0,0,.14.51,1.06,1.06,0,0,0,.29.37.89.89,0,0,0,.52.14,1.13,1.13,0,0,0,.51-.11.81.81,0,0,0,.3-.31,1.36,1.36,0,0,0,.15-.43,2.63,2.63,0,0,0,0-.49l.65-.25c0,.23,0,.44,0,.64a1.27,1.27,0,0,0,.14.5.69.69,0,0,0,.31.32,1.1,1.1,0,0,0,.57.12h.19v1Z"/><path class="cls-1" d="M133.88,60.42s0-.06.11-.07a.75.75,0,0,1,.21,0h.57c1,0,1.54-.37,1.54-1.09a1.3,1.3,0,0,0-.26-.73,6,6,0,0,0-.61-.74c-.23-.23-.47-.45-.71-.65s-.42-.37-.55-.51c0-.61.11-1,.25-1.08a22.47,22.47,0,0,1,2.34-1.41c.91-.48,1.93-1,3-1.46l-.15,1.12-.52.22-.82.39-1,.48c-.34.16-.66.33-1,.49s-.57.3-.8.44a5.42,5.42,0,0,0-.5.31c1.36,1.13,2,2.14,2,3a2,2,0,0,1-.83,1.66,2.7,2.7,0,0,1-.85.42,3.73,3.73,0,0,1-1,.14h-.24l-.21,0c-.07,0-.11,0-.11-.07Z"/><path class="cls-1" d="M143,61.09a1.68,1.68,0,0,1-.61-.71,3,3,0,0,1-.26-1c0-.36-.05-.72-.05-1.08V52.88l.89-.6v6.47a5.3,5.3,0,0,0,0,.57,1.37,1.37,0,0,0,.14.51.89.89,0,0,0,.36.36,1.33,1.33,0,0,0,.65.14v1A2,2,0,0,1,143,61.09Z"/><path class="cls-1" d="M142.88,63.56l.61-.78.83.61.59-.71.84.61-.64.76-.8-.62-.58.72Zm.92-3.14s0-.06.1-.07a.86.86,0,0,1,.22,0h.29a2,2,0,0,0,.88-.17.53.53,0,0,0,.33-.51,1,1,0,0,0-.21-.57c-.13-.21-.26-.39-.38-.55l.72-.77a3.19,3.19,0,0,1,.52.83,2.75,2.75,0,0,1,.2,1c0,1.21-.71,1.81-2.12,1.81h-.23l-.22,0c-.07,0-.1,0-.1-.07Z"/><path class="cls-2" d="M18.7,30.17l-8,2.44-.53-1.83,8-2.44Z"/><path class="cls-2" d="M31.81,25.6a17.48,17.48,0,0,1-3.64-.36,16.79,16.79,0,0,1-3.07-.94,21.31,21.31,0,0,1-3.29,1c-1.16.26-2.32.46-3.51.61s-2.33.26-3.46.31-2.18.09-3.15.11h-1.1A28.39,28.39,0,0,1,7,26.09a10.7,10.7,0,0,1-3.41-1A6.58,6.58,0,0,1,1,23a6.2,6.2,0,0,1-1-3.71A6.82,6.82,0,0,1,.42,17.1a11.37,11.37,0,0,1,.91-2.05L4.8,16a9.35,9.35,0,0,0-.63,1.22,4.9,4.9,0,0,0-.36,2,1.26,1.26,0,0,0,.67,1.1A5,5,0,0,0,6.15,21a15.74,15.74,0,0,0,2.19.28c.79.06,1.54.08,2.25.08h1.07c1.32,0,2.8,0,4.43-.13a37.88,37.88,0,0,0,4.75-.55,6.25,6.25,0,0,1-.8-3.17A5.34,5.34,0,0,1,20.7,15a10.23,10.23,0,0,1,1.62-2.21,8.51,8.51,0,0,1,2-1.54,4,4,0,0,1,1.85-.57,3.5,3.5,0,0,1,2.15.72A7.28,7.28,0,0,1,30,13.1,8.3,8.3,0,0,1,31,15.18,4.88,4.88,0,0,1,31.35,17a7,7,0,0,1-.4,2,7.78,7.78,0,0,1-.82,1.66,4.16,4.16,0,0,0,.61.06l.84,0h1.64v5ZM26.06,8.46,24.55,7.41l-1.5-1c.4-.51.78-1,1.12-1.43S24.9,4,25.33,3.5l1.47,1c.47.35,1,.69,1.47,1Zm-1.83,9.06a2,2,0,0,0,1.14,1.72,3.16,3.16,0,0,0,1.79-2.55,1,1,0,0,0-.25-.65.85.85,0,0,0-.74-.42,1.51,1.51,0,0,0-.57.15,2.41,2.41,0,0,0-.65.42,2.71,2.71,0,0,0-.51.61A1.37,1.37,0,0,0,24.23,17.52Z"/><path class="cls-2" d="M56.26,25.6a10.94,10.94,0,0,1-2-.19,3.22,3.22,0,0,1-1.83-1.07,4.74,4.74,0,0,1-1.56,1,5.73,5.73,0,0,1-2.17.37,7.5,7.5,0,0,1-2-.27,3.79,3.79,0,0,1-1.8-1.14,5.84,5.84,0,0,1-1.52,1,5.19,5.19,0,0,1-2.13.4,7.5,7.5,0,0,1-2-.27,3.76,3.76,0,0,1-1.79-1.14,5.07,5.07,0,0,1-1.57,1,5.87,5.87,0,0,1-2.17.36h-.49a2.27,2.27,0,0,1-.59-.08c-.19-.05-.29-.11-.29-.19V21c0-.1.1-.18.29-.23a2.27,2.27,0,0,1,.59-.07h.49a2.28,2.28,0,0,0,1-.21,1.73,1.73,0,0,0,.61-.5,1.73,1.73,0,0,0,.36-1.05v-.28a3.31,3.31,0,0,0,0-.44c0-.15,0-.3,0-.44v-.32L39,16.46a9.31,9.31,0,0,1,.07,1.27,5.34,5.34,0,0,0,.18,1.41,2.4,2.4,0,0,0,.61,1.13,1.8,1.8,0,0,0,1.35.45,1.94,1.94,0,0,0,1-.23,2,2,0,0,0,.59-.51,1.34,1.34,0,0,0,.26-.59,2.67,2.67,0,0,0,.06-.5v-.28c0-.14,0-.29,0-.44s0-.3,0-.44v-.32l3.32-.95a9.31,9.31,0,0,1,.07,1.27,5.79,5.79,0,0,0,.17,1.41,2.58,2.58,0,0,0,.61,1.13,1.84,1.84,0,0,0,1.36.45,2.21,2.21,0,0,0,1-.21,1.69,1.69,0,0,0,.9-1.06,2,2,0,0,0,.08-.48v-.28c0-.14,0-.29,0-.44a3.39,3.39,0,0,1,0-.44v-.32l3.31-1A9.3,9.3,0,0,1,54,17.81a6.17,6.17,0,0,0,.15,1.39,2.59,2.59,0,0,0,.53,1.09,1.44,1.44,0,0,0,1.26.36h.3Zm-6.7-14c-.36.51-.71,1-1.07,1.43s-.71.92-1.06,1.43L45.1,12.69l-1.63,1.94L42,13.6l-1.49-1c.36-.48.73-1,1.11-1.43s.75-.93,1.1-1.39L45,11.5l1.64-2ZM46.82,7.66l-1,1.23q-.49.6-1,1.17c-.43-.36-.87-.69-1.3-1s-.86-.66-1.29-1l1-1.3c.34-.43.69-.87,1-1.33Z"/><path class="cls-2" d="M56.26,20.65a22.9,22.9,0,0,0,3.15-.17A5.74,5.74,0,0,0,61.08,20a1.33,1.33,0,0,0,.69-.65,2,2,0,0,0,.13-.7,2.62,2.62,0,0,0-.64-1.57,18,18,0,0,0-1.55-1.71c-.59-.58-1.22-1.16-1.86-1.71a14,14,0,0,1-1.59-1.57l.08-2a4.54,4.54,0,0,1,.55-1.72,6.82,6.82,0,0,1,.67-.84,14,14,0,0,1,1.22-.83c.56-.36,1.22-.77,2-1.22s1.6-.94,2.51-1.43l2.78-1.49C67,2,67.91,1.58,68.8,1.14S70.5.33,71.24,0V5.52c-.89.38-1.8.8-2.73,1.24L65.79,8.08c-.89.43-1.74.87-2.53,1.31s-1.54.86-2.2,1.24c.49.43,1,.93,1.55,1.48a14.92,14.92,0,0,1,1.5,1.83,10.18,10.18,0,0,1,1.14,2.17,6.93,6.93,0,0,1,.46,2.56,14.24,14.24,0,0,1-.21,2.43,4.31,4.31,0,0,1-1.14,2.23A6.56,6.56,0,0,1,61.52,25a17.38,17.38,0,0,1-5.26.63,2.33,2.33,0,0,1-.59-.08c-.19-.05-.28-.11-.28-.19V21c0-.1.09-.18.28-.23A2.32,2.32,0,0,1,56.26,20.65Z"/><path class="cls-2" d="M19.44,59.39a6.84,6.84,0,0,1-2.74-2.08,11.45,11.45,0,0,1-4,2.61,12.58,12.58,0,0,1-4.6.9,14.08,14.08,0,0,1-4.65-.74A10.89,10.89,0,0,1,0,58.27L3.4,53a3.85,3.85,0,0,0,1.71.7,14.69,14.69,0,0,0,3,.26,11.92,11.92,0,0,0,2.05-.18A10,10,0,0,0,12,53.19a6,6,0,0,0,1.46-.82,2,2,0,0,0,.77-1.06c-.39-2-.78-3.91-1.17-5.67S12.3,42,11.91,39.93l4.95-3.51,2.71,13.93a3.41,3.41,0,0,0,1.17,2.1,4.1,4.1,0,0,0,2.61.72v6.91A10,10,0,0,1,19.44,59.39Z"/><path class="cls-2" d="M25.05,53.17c2.26,0,3.4-.41,3.4-1.23a1.56,1.56,0,0,0-.24-.58c-.16-.28-.35-.59-.58-.93l-.72-1c-.25-.35-.45-.64-.59-.85l3.94-5.48c.25.32.56.78,1,1.39a17.82,17.82,0,0,1,1.14,2.07,18.54,18.54,0,0,1,1,2.55,9.5,9.5,0,0,1,.43,2.87A7.9,7.9,0,0,1,31.53,58c-1.48,1.38-3.65,2.07-6.48,2.07H23.34a2.85,2.85,0,0,1-.82-.11c-.27-.07-.4-.16-.4-.26V53.59c0-.14.13-.25.4-.32a3.23,3.23,0,0,1,.82-.1Zm4.14-12.23-2.1-1.47L25,38c.57-.71,1.09-1.37,1.57-2s1-1.29,1.62-2l2.05,1.46L32.28,37Z"/><path class="cls-2" d="M43.37,59.92a16.82,16.82,0,0,1-1.83,4.76,19.72,19.72,0,0,1-3,3.91,26.64,26.64,0,0,1-3.8,3.19,43.81,43.81,0,0,1-4.26,2.61l-5.1-4.15L29,68.3a29.49,29.49,0,0,0,4.23-2.8,18.58,18.58,0,0,0,3.48-3.56,7,7,0,0,0,1.46-4.25A3,3,0,0,0,38,56.54a9.18,9.18,0,0,0-.64-1.19c-.25-.39-.51-.77-.77-1.15s-.49-.7-.67-1l4.47-4.52.85,1.44a11.54,11.54,0,0,0,1,1.46,6.63,6.63,0,0,0,1.2,1.12,2.41,2.41,0,0,0,1.43.45v6.91A6.42,6.42,0,0,1,43.37,59.92Z"/><path class="cls-2" d="M70.83,71.52l-11.16,3.4-.75-2.55L70.09,69Z"/><path class="cls-2" d="M44.86,60.08A2.8,2.8,0,0,1,44,60c-.27-.07-.4-.16-.4-.26V53.59c0-.14.13-.25.4-.32a3.18,3.18,0,0,1,.82-.1h5.32v6.91Z"/><path class="cls-2" d="M50.18,60.08a2.87,2.87,0,0,1-.83-.11c-.26-.07-.4-.16-.4-.26V53.59c0-.14.14-.25.4-.32a3.25,3.25,0,0,1,.83-.1H55.5v6.91Z"/><path class="cls-2" d="M55.5,60.08a2.87,2.87,0,0,1-.83-.11c-.26-.07-.4-.16-.4-.26V53.59c0-.14.14-.25.4-.32a3.25,3.25,0,0,1,.83-.1h5.31v6.91Z"/><path class="cls-2" d="M65,68.84l-2.11-1.46-2.1-1.46c.57-.71,1.09-1.38,1.57-2s1-1.28,1.63-2c.7.5,1.39,1,2,1.46s1.34,1,2,1.46ZM62.51,53.17c2.27,0,3.41-.41,3.41-1.23a1.56,1.56,0,0,0-.24-.58c-.16-.28-.36-.59-.59-.93l-.71-1c-.25-.35-.45-.64-.59-.85l3.94-5.48c.24.32.56.78,1,1.39a19.41,19.41,0,0,1,1.15,2.07,18.54,18.54,0,0,1,1,2.55,9.83,9.83,0,0,1,.43,2.87A7.9,7.9,0,0,1,69,58q-2.23,2.07-6.49,2.07h-1.7A2.8,2.8,0,0,1,60,60c-.27-.07-.4-.16-.4-.26V53.59c0-.14.13-.25.4-.32a3.18,3.18,0,0,1,.82-.1Z"/></svg>