<svg id="Layer_1" data-name="Layer 1" xmlns="http://www.w3.org/2000/svg" viewBox="0 0 150 169.23"><defs><style>.cls-1{fill-rule:evenodd;}.cls-2{fill:#231f20;}</style></defs><path class="cls-1" d="M150,38.12C102.31,18.71,49.67,4.88,0,0V148.06H150Z"/><path class="cls-2" d="M45.73,165.19a2.56,2.56,0,0,1-1.3-.35,2.47,2.47,0,0,1-.94-.93,2.49,2.49,0,0,1-2.57,1.49,2.78,2.78,0,0,1-2.25-.85l.57-1.47a2.17,2.17,0,0,0,.82.37,4.44,4.44,0,0,0,1.77.09,2.38,2.38,0,0,0,.57-.15,1.32,1.32,0,0,0,.4-.26.56.56,0,0,0,.15-.39,1.05,1.05,0,0,0,0-.13c0-.06-.06-.2-.13-.41s-.18-.54-.34-1l-.63-1.83,1.28-1.15c.33,1.07.59,1.93.79,2.59a14.17,14.17,0,0,0,.54,1.54,1.92,1.92,0,0,0,.53.76,1.27,1.27,0,0,0,.74.19h.34v1.86Z"/><path class="cls-2" d="M45.68,163.46s0-.07.12-.09a1,1,0,0,1,.25,0H47.1c.55,0,.82-.12.82-.38a.55.55,0,0,0,0-.17c0-.05-.07-.14-.13-.24l-.27-.4c-.12-.15-.27-.35-.47-.59l1-1.47a2.74,2.74,0,0,1,.78,1.1,3.86,3.86,0,0,1,.28,1.42,2.83,2.83,0,0,1-.22,1.14,2.13,2.13,0,0,1-.59.81,2.63,2.63,0,0,1-.89.48,3.57,3.57,0,0,1-1.1.16h-.27a1,1,0,0,1-.25,0c-.08,0-.12,0-.12-.08Zm2.91-5.37-1,1.28-1.33-.89,1-1.3Z"/><path class="cls-2" d="M53.26,165.09a1.44,1.44,0,0,1-.31-.22,3.74,3.74,0,0,1-.53,1.28,6.52,6.52,0,0,1-1,1.16,9.75,9.75,0,0,1-1.23,1,15.75,15.75,0,0,1-1.4.89l-1.35-1.05q.51-.25,1.23-.66a14,14,0,0,0,1.37-.89,6.83,6.83,0,0,0,1.11-1,1.49,1.49,0,0,0,.46-1,1,1,0,0,0-.1-.4,4.23,4.23,0,0,0-.22-.42c-.09-.13-.17-.26-.26-.38l-.21-.29,1.23-1.32q.18.27.33.54a3.49,3.49,0,0,0,.33.49,1.78,1.78,0,0,0,.38.35.91.91,0,0,0,.5.13v1.86A.75.75,0,0,1,53.26,165.09Z"/><path class="cls-2" d="M53.27,163.46s0-.07.12-.09a1,1,0,0,1,.25,0h1c.55,0,.82-.12.82-.38a.55.55,0,0,0,0-.17c0-.05-.07-.14-.13-.24l-.27-.4-.47-.59,1-1.47a2.74,2.74,0,0,1,.78,1.1,3.86,3.86,0,0,1,.28,1.42,2.83,2.83,0,0,1-.22,1.14,2.13,2.13,0,0,1-.59.81A2.63,2.63,0,0,1,55,165a3.57,3.57,0,0,1-1.1.16h-.27a1,1,0,0,1-.25,0c-.08,0-.12,0-.12-.08Zm.35,4.2,1-1.27,1.33.89-1,1.3Z"/><path class="cls-2" d="M68.61,165.19a1.33,1.33,0,0,1,.06.56,2.47,2.47,0,0,1-.17.57,3.19,3.19,0,0,1-1.07,1.22,4.79,4.79,0,0,1-1.57.72,5.29,5.29,0,0,1-1.78.18,4.52,4.52,0,0,1-1.67-.42,3.15,3.15,0,0,1-1.23-1,2.93,2.93,0,0,1-.48-1.72,4.41,4.41,0,0,1,.21-1.37,7,7,0,0,1,.52-1.22l1.22.43c-.13.28-.25.58-.37.91a2.76,2.76,0,0,0-.17.94,1.82,1.82,0,0,0,.24,1,1.6,1.6,0,0,0,.63.58,2.4,2.4,0,0,0,.91.25,4.28,4.28,0,0,0,1,0,5.55,5.55,0,0,0,1-.21,5,5,0,0,0,.86-.35c.2-.1.3-.19.32-.26s0-.12-.13-.15l-1.74-.59a1.82,1.82,0,0,1,.1-.31l.15-.39c.05-.13.11-.26.16-.38a2,2,0,0,1,.16-.3,1.07,1.07,0,0,1,.37-.37,1.25,1.25,0,0,1,.54-.09l2.72,0v1.86Z"/><path class="cls-2" d="M69,163.46s0-.07.12-.09a1,1,0,0,1,.25,0h1c.55,0,.82-.12.82-.38a.55.55,0,0,0,0-.17c0-.05-.07-.14-.13-.24l-.27-.4-.47-.59,1-1.47a2.74,2.74,0,0,1,.78,1.1,3.86,3.86,0,0,1,.28,1.42,2.83,2.83,0,0,1-.22,1.14,2.13,2.13,0,0,1-.59.81,2.63,2.63,0,0,1-.89.48,3.57,3.57,0,0,1-1.1.16h-.27a1,1,0,0,1-.25,0c-.08,0-.12,0-.12-.08Zm.35,4.2,1-1.27,1.33.89-1,1.3Z"/><path class="cls-2" d="M75.41,164.92a1.9,1.9,0,0,1-.79-.72,3.25,3.25,0,0,1-.38-1.1,9.86,9.86,0,0,1-.12-1.39c0-.24,0-.57,0-1s0-.91,0-1.42,0-1,0-1.58,0-1,0-1.49l1.56-.64v6.33a1.72,1.72,0,0,0,.29,1.08,1.14,1.14,0,0,0,.93.35v1.86A2.84,2.84,0,0,1,75.41,164.92Z"/><path class="cls-2" d="M79,167.2l-.8,1.09-1-.69-.59.8-1.25-.8.85-1.1,1,.7.57-.81Zm-2.64-3.74s0-.07.12-.09a1,1,0,0,1,.25,0h1c.55,0,.82-.12.82-.38a.38.38,0,0,0,0-.17,1.74,1.74,0,0,0-.12-.24l-.27-.4-.47-.59,1-1.47a2.74,2.74,0,0,1,.78,1.1,3.86,3.86,0,0,1,.28,1.42,2.83,2.83,0,0,1-.22,1.14,2.13,2.13,0,0,1-.59.81,2.63,2.63,0,0,1-.89.48,3.57,3.57,0,0,1-1.1.16h-.27a1,1,0,0,1-.25,0c-.08,0-.12,0-.12-.08Z"/><path class="cls-2" d="M86.62,165.19a1.73,1.73,0,0,1-1.26-.39,2.18,2.18,0,0,1-.55-1.15,1.62,1.62,0,0,1-.72.4,3.28,3.28,0,0,1-1,.16,2.91,2.91,0,0,1-.6-.06,1.42,1.42,0,0,1-.52-.21,1,1,0,0,1-.37-.36,1,1,0,0,1-.14-.53c0-1.13.87-2.21,2.59-3.23l-.14-.69L85,158l.85,4.25a1.87,1.87,0,0,0,.37.88,1.16,1.16,0,0,0,.86.25v1.86Zm-2.35-4.11a3.57,3.57,0,0,0-.63.31,2.59,2.59,0,0,0-.6.51c-.17.21-.22.37-.14.47s.26.15.54.15a3.86,3.86,0,0,0,.6,0,1.29,1.29,0,0,0,.5-.17Z"/><path class="cls-2" d="M86.74,163.46s0-.07.12-.09a1.09,1.09,0,0,1,.25,0h.42c.44,0,.67-.26.67-.79v-.61l1.23-.35v.35a3.57,3.57,0,0,0,0,.71,1.2,1.2,0,0,0,.14.43.51.51,0,0,0,.25.21,1,1,0,0,0,.37.05h.1l1-1.15c.37-.41.74-.79,1.13-1.15a7.06,7.06,0,0,1,1.19-.87,2.44,2.44,0,0,1,1.2-.34,2.22,2.22,0,0,1,.79.14,2.05,2.05,0,0,1,.63.4,1.87,1.87,0,0,1,.55,1.33,2.74,2.74,0,0,1-.47,1.62,3.74,3.74,0,0,1-1.15,1.09,4.8,4.8,0,0,1-1.48.6,6.34,6.34,0,0,1-1.49.19h-2a2,2,0,0,1-.82-.19,1.11,1.11,0,0,1-.56-.64,1.66,1.66,0,0,1-1.48.83h-.29a1.07,1.07,0,0,1-.25,0c-.08,0-.12,0-.12-.08Zm5.16-5.06-1,1.28-1.33-.9,1-1.29Zm2.56,3.16a2,2,0,0,0-1.27.5,17.56,17.56,0,0,0-1.43,1.27h.9l.69-.06a5.34,5.34,0,0,0,.77-.12,4.7,4.7,0,0,0,.72-.2,1.79,1.79,0,0,0,.53-.3.56.56,0,0,0,.21-.44.41.41,0,0,0-.12-.31.77.77,0,0,0-.3-.19,1.5,1.5,0,0,0-.36-.11Z"/><path class="cls-2" d="M99.85,161.8a7.1,7.1,0,0,1,.66,1.14,3.46,3.46,0,0,1,.25,1.35,3.13,3.13,0,0,1-.38,1.48,5.85,5.85,0,0,1-1,1.34,9.5,9.5,0,0,1-1.35,1.15,16.44,16.44,0,0,1-1.49,1l-1.36-1.07c.35-.17.77-.39,1.24-.67a14,14,0,0,0,1.36-.91,7.29,7.29,0,0,0,1.1-1,1.54,1.54,0,0,0,.46-1,1.48,1.48,0,0,0-.25-.72,8.5,8.5,0,0,0-.51-.73Z"/><path class="cls-2" d="M103.69,164.92a1.9,1.9,0,0,1-.79-.72,3.25,3.25,0,0,1-.38-1.1,9.86,9.86,0,0,1-.12-1.39c0-.24,0-.57,0-1s0-.91,0-1.42,0-1,0-1.58,0-1,0-1.49l1.56-.64v6.33a1.72,1.72,0,0,0,.29,1.08,1.14,1.14,0,0,0,.93.35v1.86A2.84,2.84,0,0,1,103.69,164.92Z"/><path class="cls-2" d="M104.67,163.46s0-.07.12-.09a1,1,0,0,1,.25,0h1.42a3.48,3.48,0,0,1-.25-.68,2.84,2.84,0,0,1-.09-.69,2.12,2.12,0,0,1,.2-.9,2.09,2.09,0,0,1,.51-.73,2.57,2.57,0,0,1,.73-.48,2.19,2.19,0,0,1,.88-.17,2.71,2.71,0,0,1,1.11.24,2.75,2.75,0,0,1,.92.7l-.48,1a3.61,3.61,0,0,0-.76-.28,3.11,3.11,0,0,0-.79-.1,1.87,1.87,0,0,0-.85.17.61.61,0,0,0-.35.58.69.69,0,0,0,.19.47,2,2,0,0,0,.44.37,3,3,0,0,0,.56.24,2.2,2.2,0,0,0,.52.08,6.56,6.56,0,0,0,1-.09l1.41-.27-.19,1.61c-1.2.28-2.26.48-3.17.61a18.39,18.39,0,0,1-2.31.19H105a1,1,0,0,1-.25,0c-.08,0-.12,0-.12-.08Z"/></svg>