<svg id="Layer_1" data-name="Layer 1" xmlns="http://www.w3.org/2000/svg" viewBox="0 0 12.62 12.62"><defs><style>.cls-1{fill:#231f20;}.cls-2{fill:#fff;}</style></defs><circle class="cls-1" cx="6.31" cy="6.31" r="6.31"/><path class="cls-2" d="M6.64,5.82a2.26,2.26,0,0,1,.25-.28,1.37,1.37,0,0,1,1-.39,2.56,2.56,0,0,1,.62.07,1.24,1.24,0,0,1,.86.91,3.92,3.92,0,0,1,.11,1v2.2c0,.07,0,.09-.09.09H8.24c-.07,0-.08,0-.08-.08V7.27a2.31,2.31,0,0,0-.06-.52.61.61,0,0,0-.65-.46A.71.71,0,0,0,6.71,7c0,.11,0,.21,0,.32v2c0,.07,0,.09-.08.09H5.46c-.06,0-.07,0-.07-.08v-4c0-.06,0-.08.08-.08H6.56c.06,0,.08,0,.08.09S6.64,5.66,6.64,5.82Z"/><path class="cls-2" d="M4.56,7.36v2c0,.07,0,.09-.09.09H3.34c-.07,0-.08,0-.08-.08v-4c0-.06,0-.08.07-.08H4.48c.07,0,.08,0,.08.09Z"/><path class="cls-2" d="M4.67,3.92a.76.76,0,1,1-1.51,0,.76.76,0,0,1,.75-.76A.77.77,0,0,1,4.67,3.92Z"/></svg>