<svg id="Layer_1" data-name="Layer 1" xmlns="http://www.w3.org/2000/svg" viewBox="0 0 16.63 84.57"><path d="M16.63,84.57V84L15,83.65A92.94,92.94,0,0,0,0,81.44V82a92.9,92.9,0,0,1,14.86,2.2Z"/><path d="M8.35,58.09A39.57,39.57,0,0,1,16.42,52v-.43h-.3A40,40,0,0,0,8,57.72,61.51,61.51,0,0,0,.21,67H.84A62,62,0,0,1,8.35,58.09Z"/><path d="M16.63,35.05v-.53c-.55-.14-1.1-.27-1.66-.39A91.84,91.84,0,0,0,0,31.92v.52a91.78,91.78,0,0,1,14.86,2.2Z"/><path d="M8.35,6.57A39.26,39.26,0,0,1,16.42.43V0h-.3A40,40,0,0,0,8,6.19,62,62,0,0,0,.21,15.44H.84A61.33,61.33,0,0,1,8.35,6.57Z"/></svg>