<svg id="Layer_1" data-name="Layer 1" xmlns="http://www.w3.org/2000/svg" viewBox="0 0 150 184.35"><defs><style>.cls-1,.cls-2{fill:#868686;}.cls-1{fill-rule:evenodd;}</style></defs><path class="cls-1" d="M0,149.31c43.66,3.46,100.16-6.26,150-27V0H0Z"/><path class="cls-2" d="M7.11,166.36a1.27,1.27,0,0,1,0,.51,2.46,2.46,0,0,1-.15.51,2.8,2.8,0,0,1-1,1.1,4.65,4.65,0,0,1-1.41.65,5,5,0,0,1-1.6.16,4,4,0,0,1-1.5-.38A2.78,2.78,0,0,1,.43,168,2.59,2.59,0,0,1,0,166.44a3.86,3.86,0,0,1,.19-1.23,6,6,0,0,1,.47-1.1l1.09.39c-.11.25-.22.52-.33.82a2.64,2.64,0,0,0-.16.84,1.66,1.66,0,0,0,.22.88,1.36,1.36,0,0,0,.57.52,2.31,2.31,0,0,0,.81.23,4,4,0,0,0,.92,0,5.42,5.42,0,0,0,.89-.19,4.73,4.73,0,0,0,.77-.31c.18-.1.28-.18.29-.24s0-.11-.12-.13l-1.56-.54.09-.28c.05-.11.09-.22.14-.34s.09-.23.14-.34a1.63,1.63,0,0,1,.15-.27.9.9,0,0,1,.33-.34,1,1,0,0,1,.48-.09h1.8v1.66Z"/><path class="cls-2" d="M6.85,164.81s0-.06.11-.08a.78.78,0,0,1,.22,0h.37q.6,0,.6-.72v-.54l1.11-.32v.32a3.9,3.9,0,0,0,0,.64,1.28,1.28,0,0,0,.13.38.44.44,0,0,0,.22.19,1.16,1.16,0,0,0,.34,0h.09l.92-1a14.19,14.19,0,0,1,1-1,6.75,6.75,0,0,1,1.07-.78,2.17,2.17,0,0,1,1.08-.31,1.79,1.79,0,0,1,1.27.49,1.64,1.64,0,0,1,.37.53,1.76,1.76,0,0,1,.13.66,2.47,2.47,0,0,1-.42,1.46,3.4,3.4,0,0,1-1,1,4.36,4.36,0,0,1-1.34.55,5.94,5.94,0,0,1-1.33.16H10a1.63,1.63,0,0,1-.74-.17,1,1,0,0,1-.5-.57,1.48,1.48,0,0,1-1.33.74H7.18a.78.78,0,0,1-.22,0c-.08,0-.11-.05-.11-.08Zm6.93-1.7a1.82,1.82,0,0,0-1.14.44,14.8,14.8,0,0,0-1.28,1.15h.81l.61-.06a5.46,5.46,0,0,0,.69-.1,5.06,5.06,0,0,0,.65-.18,1.37,1.37,0,0,0,.48-.27.51.51,0,0,0,.19-.4.39.39,0,0,0-.11-.28.73.73,0,0,0-.27-.17,1.15,1.15,0,0,0-.33-.1Z"/><path class="cls-2" d="M18.43,166.13a1.81,1.81,0,0,1-.71-.66,2.75,2.75,0,0,1-.34-1,9.22,9.22,0,0,1-.11-1.24c0-.22,0-.52,0-.91s0-.82,0-1.28,0-.93,0-1.41,0-.93,0-1.34l1.41-.58v5.69a1.56,1.56,0,0,0,.26,1,1,1,0,0,0,.83.32v1.66A2.58,2.58,0,0,1,18.43,166.13Z"/><path class="cls-2" d="M28.76,166.36a2.05,2.05,0,0,1-.93-.21,2.33,2.33,0,0,1-.74-.59,4.11,4.11,0,0,1-1.36.6,5.43,5.43,0,0,1-1.45.2H22.47a1.59,1.59,0,0,1-.73-.17,1,1,0,0,1-.51-.57,1.48,1.48,0,0,1-1.33.74h-.26a.78.78,0,0,1-.22,0c-.07,0-.11-.05-.11-.08v-1.45s0-.06.11-.08a.78.78,0,0,1,.22,0H20c.41,0,.61-.24.61-.72v-.54l1.1-.32v.32a5.45,5.45,0,0,0,0,.64,1.28,1.28,0,0,0,.13.38.47.47,0,0,0,.23.19,1,1,0,0,0,.33,0h.09l.93-1a14.19,14.19,0,0,1,1-1,6,6,0,0,1,1.07-.78,2.11,2.11,0,0,1,1.07-.31,1.79,1.79,0,0,1,1.27.49,1.64,1.64,0,0,1,.37.53,1.76,1.76,0,0,1,.13.66,3,3,0,0,1-.1.76,2.49,2.49,0,0,1-.26.59c.05.09.32.13.82.13H29v1.66Zm-2.52-3.25a1.82,1.82,0,0,0-1.14.44,16.45,16.45,0,0,0-1.28,1.15h.81l.62-.06a6,6,0,0,0,.69-.1,4.9,4.9,0,0,0,.64-.18,1.37,1.37,0,0,0,.48-.27.51.51,0,0,0,.19-.4.39.39,0,0,0-.11-.28.78.78,0,0,0-.26-.17,1.39,1.39,0,0,0-.33-.1Z"/><path class="cls-2" d="M32.17,166.36a1.27,1.27,0,0,1-1.32-.74,1.88,1.88,0,0,1-1.68.74H29a.82.82,0,0,1-.22,0c-.07,0-.11-.05-.11-.08v-1.45s0-.06.11-.08a.83.83,0,0,1,.22,0h.08c.71,0,1.07-.24,1.07-.73v-.58l1.18-.37v.36c0,.88.29,1.32.86,1.32h.09v1.66ZM29,161.45l.72-1,.93.62.53-.74,1.11.74-.73,1-.95-.62-.49.74Z"/><path class="cls-2" d="M32,164.81s0-.06.1-.08a.91.91,0,0,1,.23,0h2a3.79,3.79,0,0,0,.62-.1,6.77,6.77,0,0,0,.83-.26l1.36-.51-1.26-.34-.66-.19a.73.73,0,0,0-.53.05,1.61,1.61,0,0,0-.41.34l-1-.67a4,4,0,0,1,.88-1.13,1.16,1.16,0,0,1,1-.25,8.1,8.1,0,0,1,1,.2l1,.27c.34.1.69.19,1.06.28s.75.17,1.18.24l.56,0,.56,0-.45,1.64-.6,0a2.49,2.49,0,0,0-.49,0,2.26,2.26,0,0,0-.47.14,4.31,4.31,0,0,0-.54.26l-1.21.72a6.62,6.62,0,0,1-.94.5,4,4,0,0,1-1,.3,8,8,0,0,1-1.43.1H32.32a.9.9,0,0,1-.23,0c-.07,0-.1-.05-.1-.08Zm4.29-5.29-.86,1.15-1.19-.81.87-1.16Z"/><path class="cls-2" d="M43.27,166.18l-1.46.39V158.3l1.46-.58Z"/><path class="cls-2" d="M45.15,169c.31-.16.67-.35,1.09-.59s.81-.5,1.2-.78a6.72,6.72,0,0,0,1-.87,1.39,1.39,0,0,0,.44-.87,1.39,1.39,0,0,1-.44.17,2.46,2.46,0,0,1-.53.06,1.51,1.51,0,0,1-1.2-.4,1.53,1.53,0,0,1-.35-1,2.92,2.92,0,0,1,.11-.81,2.85,2.85,0,0,1,.32-.76,1.93,1.93,0,0,1,.53-.57,1.26,1.26,0,0,1,.75-.23,1.35,1.35,0,0,1,.94.33,2.45,2.45,0,0,1,.6.81,3.94,3.94,0,0,1,.31,1,5.67,5.67,0,0,1,.08.94,3.42,3.42,0,0,1-.29,1.45,4.39,4.39,0,0,1-.8,1.18,8.14,8.14,0,0,1-1.15,1c-.44.31-.9.61-1.39.89Zm3.61-4.37a1.81,1.81,0,0,0-.29-.66.61.61,0,0,0-.5-.27.58.58,0,0,0-.42.18.66.66,0,0,0-.19.46.35.35,0,0,0,.22.35,1,1,0,0,0,.47.1,1.75,1.75,0,0,0,.4-.05A1.37,1.37,0,0,0,48.76,164.67Z"/><path class="cls-2" d="M59.91,166.36a1.11,1.11,0,0,1,.05.51,1.65,1.65,0,0,1-.15.51,2.86,2.86,0,0,1-1,1.1,4.71,4.71,0,0,1-1.42.65,5,5,0,0,1-1.6.16,4,4,0,0,1-1.5-.38,2.78,2.78,0,0,1-1.11-.93,2.67,2.67,0,0,1-.43-1.54,4.16,4.16,0,0,1,.19-1.23,6.74,6.74,0,0,1,.47-1.1l1.1.39a7,7,0,0,0-.33.82,2.39,2.39,0,0,0-.16.84,1.66,1.66,0,0,0,.21.88,1.45,1.45,0,0,0,.58.52,2.31,2.31,0,0,0,.81.23,4,4,0,0,0,.91,0,5.33,5.33,0,0,0,.9-.19,5.13,5.13,0,0,0,.77-.31c.18-.1.27-.18.28-.24s0-.11-.11-.13l-1.57-.54a2.53,2.53,0,0,1,.1-.28c0-.11.08-.22.13-.34l.15-.34a1.13,1.13,0,0,1,.14-.27.9.9,0,0,1,.33-.34,1,1,0,0,1,.49-.09H60v1.66Z"/><path class="cls-2" d="M69.1,166.36a2.08,2.08,0,0,1-.93-.21,2.33,2.33,0,0,1-.74-.59,4.15,4.15,0,0,1-1.35.6,5.56,5.56,0,0,1-1.46.2H62.81a1.59,1.59,0,0,1-.73-.17.92.92,0,0,1-.5-.57,1.49,1.49,0,0,1-1.34.74H60a.82.82,0,0,1-.22,0c-.07,0-.11-.05-.11-.08v-1.45s0-.06.11-.08a.83.83,0,0,1,.22,0h.38q.6,0,.6-.72v-.54l1.1-.32v.32a3.78,3.78,0,0,0,0,.64,1.05,1.05,0,0,0,.13.38.41.41,0,0,0,.22.19,1.06,1.06,0,0,0,.34,0h.08l.93-1a14.19,14.19,0,0,1,1-1,6.33,6.33,0,0,1,1.07-.78,2.11,2.11,0,0,1,1.07-.31,1.88,1.88,0,0,1,.72.13,1.92,1.92,0,0,1,.56.36,1.77,1.77,0,0,1,.36.53,1.59,1.59,0,0,1,.13.66,2.59,2.59,0,0,1-.1.76,2.14,2.14,0,0,1-.26.59c.05.09.32.13.82.13h.19v1.66Zm-2.51-3.25a1.78,1.78,0,0,0-1.14.44,16.4,16.4,0,0,0-1.29,1.15H65l.62-.06a6,6,0,0,0,.69-.1,4.9,4.9,0,0,0,.64-.18,1.52,1.52,0,0,0,.49-.27.53.53,0,0,0,.18-.4.36.36,0,0,0-.11-.28.78.78,0,0,0-.26-.17,1.39,1.39,0,0,0-.33-.1Z"/><path class="cls-2" d="M78.5,166.36a2,2,0,0,1-.92-.21,2.22,2.22,0,0,1-.74-.59,4.2,4.2,0,0,1-1.36.6,5.51,5.51,0,0,1-1.46.2H72.21a1.62,1.62,0,0,1-.73-.17,1,1,0,0,1-.5-.57,1.49,1.49,0,0,1-1.34.74h-.25a.9.9,0,0,1-.23,0c-.07,0-.1-.05-.1-.08v-1.45s0-.06.1-.08a.91.91,0,0,1,.23,0h.37q.6,0,.6-.72v-.54l1.11-.32v.32a3.9,3.9,0,0,0,0,.64,1.05,1.05,0,0,0,.13.38.44.44,0,0,0,.22.19,1.11,1.11,0,0,0,.34,0h.09c.28-.33.59-.67.92-1a14.19,14.19,0,0,1,1-1,6.75,6.75,0,0,1,1.07-.78,2.15,2.15,0,0,1,1.08-.31,1.83,1.83,0,0,1,.71.13,1.92,1.92,0,0,1,.56.36,1.64,1.64,0,0,1,.37.53,1.76,1.76,0,0,1,.12.66,2.59,2.59,0,0,1-.1.76,2.14,2.14,0,0,1-.25.59c0,.09.32.13.81.13h.19v1.66ZM76,163.11a1.82,1.82,0,0,0-1.14.44,16.4,16.4,0,0,0-1.29,1.15h.82l.61-.06a5.46,5.46,0,0,0,.69-.1,5.06,5.06,0,0,0,.65-.18,1.58,1.58,0,0,0,.48-.27.54.54,0,0,0,.19-.4.39.39,0,0,0-.11-.28.73.73,0,0,0-.27-.17,1.15,1.15,0,0,0-.33-.1Z"/><path class="cls-2" d="M86.2,166.36c-1.09,0-1.65-.68-1.68-2.05a6.16,6.16,0,0,0-.91.63c-.3.23-.6.45-.92.66a5.76,5.76,0,0,1-1,.54,3.51,3.51,0,0,1-1.3.22H78.79a.78.78,0,0,1-.22,0c-.07,0-.11-.05-.11-.08v-1.45s0-.06.11-.08a.78.78,0,0,1,.22,0h1.34a4.39,4.39,0,0,0,.91-.09,5.85,5.85,0,0,0,.84-.26,5.61,5.61,0,0,0,.79-.37c.27-.14.54-.3.82-.47l-.56-.1-.59-.1-.5-.08a1.78,1.78,0,0,0-.32,0,.5.5,0,0,0-.34.15,2.07,2.07,0,0,0-.34.43l-1.06-.51c.44-1.11,1-1.66,1.54-1.66a5.34,5.34,0,0,1,.92.11l1.22.26c.44.1.89.18,1.37.26a8.19,8.19,0,0,0,1.38.11,5,5,0,0,0,.65,0l-.19,1.6a4,4,0,0,0-1.29.18.67.67,0,0,0,.33.52,1.9,1.9,0,0,0,.72.1h1.09v1.66Zm-2.5-6.76-.86,1.15-1.19-.8.87-1.17Z"/><path class="cls-2" d="M87.19,164.81s0-.06.11-.08a.78.78,0,0,1,.22,0h1c.48,0,.73-.12.73-.35a.49.49,0,0,0,0-.15l-.11-.22c-.06-.09-.14-.21-.25-.35s-.24-.32-.42-.54l.94-1.32a2.48,2.48,0,0,1,.69,1,3.33,3.33,0,0,1,.26,1.28,2.56,2.56,0,0,1-.2,1,1.93,1.93,0,0,1-.53.72,2.13,2.13,0,0,1-.8.43,3.12,3.12,0,0,1-1,.14h-.24a.78.78,0,0,1-.22,0c-.08,0-.11-.05-.11-.08Zm.1-4.4.72-1,.93.62.53-.73,1.11.73-.73,1-.95-.61-.49.73Z"/><path class="cls-2" d="M101.09,163.25a3,3,0,0,0-1.2-.17,1.79,1.79,0,0,0-.54.09,2.07,2.07,0,0,0-.52.24,2.81,2.81,0,0,0-.4.33.55.55,0,0,0-.16.37c0,.13.07.21.22.25a2.32,2.32,0,0,0,.54.09l.71.05a3.1,3.1,0,0,1,.7.14,1.39,1.39,0,0,1,.55.36,1,1,0,0,1,.21.69,2.61,2.61,0,0,1-.43,1.49,3.87,3.87,0,0,1-1.09,1.08,5.21,5.21,0,0,1-1.46.65,5.64,5.64,0,0,1-1.54.23,5.12,5.12,0,0,1-1.59-.23A3.16,3.16,0,0,1,94,168.3a2.58,2.58,0,0,1-.67-.94,3.1,3.1,0,0,1-.22-1.18,4.43,4.43,0,0,1,.16-1.16,5.21,5.21,0,0,1,.51-1.21l1.13.39a4.75,4.75,0,0,0-.33.79,2.58,2.58,0,0,0-.13.76,1.74,1.74,0,0,0,.14.69A1.43,1.43,0,0,0,95,167a2.21,2.21,0,0,0,.77.37,4,4,0,0,0,1.11.14,4.74,4.74,0,0,0,1-.12,5.91,5.91,0,0,0,1.06-.3,3.66,3.66,0,0,0,.84-.42c.23-.16.34-.31.34-.47s-.06-.14-.16-.18a3.29,3.29,0,0,0-.46-.08l-.68-.05c-.25,0-.52,0-.81-.08a1.08,1.08,0,0,1-.73-.35,1.2,1.2,0,0,1-.23-.75,2.77,2.77,0,0,1,.28-1.23,3.4,3.4,0,0,1,.73-1,3.45,3.45,0,0,1,1-.69,2.68,2.68,0,0,1,1.16-.26,2.33,2.33,0,0,1,1.21.33Z"/><path class="cls-2" d="M104.14,166.18l-1.46.39V158.3l1.46-.58Z"/><path class="cls-2" d="M109,166.36a3.56,3.56,0,0,1-.53,1.07,6.73,6.73,0,0,1-.84.95,9.22,9.22,0,0,1-1.06.86c-.39.26-.78.51-1.18.74l-1.22-.94.93-.51c.35-.2.71-.42,1.06-.65a8.51,8.51,0,0,0,1-.74,2.93,2.93,0,0,0,.64-.78,6.71,6.71,0,0,1-.93-.06,1.92,1.92,0,0,1-.72-.25,1.31,1.31,0,0,1-.47-.52,1.94,1.94,0,0,1-.16-.86,2.89,2.89,0,0,1,.1-.73,2.46,2.46,0,0,1,.3-.75,2.13,2.13,0,0,1,.49-.58,1.07,1.07,0,0,1,.69-.24,1.43,1.43,0,0,1,.79.23,1.86,1.86,0,0,1,.59.56,2.7,2.7,0,0,1,.37.74,3.05,3.05,0,0,1,.18.8h.52v1.66Zm-1.1-1.66a1.65,1.65,0,0,0-.1-.32,1.35,1.35,0,0,0-.19-.33,1.18,1.18,0,0,0-.25-.25.48.48,0,0,0-.29-.11.52.52,0,0,0-.42.19.61.61,0,0,0-.16.42.37.37,0,0,0,.06.23.31.31,0,0,0,.21.12,2.16,2.16,0,0,0,.43,0Z"/><path class="cls-2" d="M112.6,166.36a1.27,1.27,0,0,1-1.32-.74,1.88,1.88,0,0,1-1.68.74h-.13a.78.78,0,0,1-.22,0c-.07,0-.11-.05-.11-.08v-1.45s0-.06.11-.08a.78.78,0,0,1,.22,0h.07c.72,0,1.08-.24,1.08-.73v-.58l1.18-.37v.36c0,.88.28,1.32.86,1.32h.08v1.66Zm-3.14-4.91.71-1,.94.62.53-.74,1.1.74-.73,1-1-.62-.48.74Z"/><path class="cls-2" d="M120.15,166.36c-1.09,0-1.65-.68-1.68-2.05a6.74,6.74,0,0,0-.91.63c-.29.23-.6.45-.92.66a5.76,5.76,0,0,1-1,.54,3.47,3.47,0,0,1-1.3.22h-1.55a.82.82,0,0,1-.22,0c-.07,0-.11-.05-.11-.08v-1.45s0-.06.11-.08a.83.83,0,0,1,.22,0h1.34a4.56,4.56,0,0,0,.92-.09,6.76,6.76,0,0,0,1.63-.63c.26-.14.53-.3.81-.47l-.56-.1-.58-.1-.51-.08a1.6,1.6,0,0,0-.32,0,.52.52,0,0,0-.34.15,1.78,1.78,0,0,0-.33.43l-1.07-.51c.44-1.11,1-1.66,1.54-1.66a5.24,5.24,0,0,1,.92.11l1.22.26c.44.1.9.18,1.37.26a8.3,8.3,0,0,0,1.39.11,4.88,4.88,0,0,0,.64,0l-.18,1.6a4,4,0,0,0-1.3.18.67.67,0,0,0,.33.52,2,2,0,0,0,.72.1h1.09v1.66Z"/><path class="cls-2" d="M121.14,164.81s0-.06.11-.08a.83.83,0,0,1,.22,0,2.55,2.55,0,0,0,1-.17A1.27,1.27,0,0,0,123,164l.35-.62a5.3,5.3,0,0,1,.39-.61,2.22,2.22,0,0,1,.5-.47,1.22,1.22,0,0,1,.67-.18,1.11,1.11,0,0,1,.71.24,1.79,1.79,0,0,1,.47.58,3,3,0,0,1,.27.74,3.86,3.86,0,0,1,.08.71,4.13,4.13,0,0,1,0,.58,2.27,2.27,0,0,1-.2.57,1.53,1.53,0,0,1-.37.43.89.89,0,0,1-.54.17,2.06,2.06,0,0,1-.95-.24,4.71,4.71,0,0,1-.83-.52,2.71,2.71,0,0,1-.86.7,2.75,2.75,0,0,1-1.21.24.82.82,0,0,1-.22,0c-.07,0-.11-.05-.11-.08Zm3.75-1.35c-.31,0-.56.2-.76.72a1.87,1.87,0,0,0,.49.34,2,2,0,0,0,.51.18c.18,0,.28,0,.31-.2a1.62,1.62,0,0,0,0-.3,1.15,1.15,0,0,0-.1-.33,1.2,1.2,0,0,0-.18-.26A.44.44,0,0,0,124.89,163.46Z"/><path class="cls-2" d="M133.7,168l-3.24.85-.1-.52,3.22-.9Z"/><path class="cls-2" d="M135.49,166.36a2.32,2.32,0,0,1-1.17-.3,2.26,2.26,0,0,1-.84-.84,2.26,2.26,0,0,1-2.32,1.33,2.48,2.48,0,0,1-2-.76l.52-1.32a2,2,0,0,0,.73.33,3.71,3.71,0,0,0,1,.13,5.65,5.65,0,0,0,.59,0,2.36,2.36,0,0,0,.51-.14,1,1,0,0,0,.36-.24.48.48,0,0,0,.14-.34.74.74,0,0,0,0-.12l-.12-.37c-.06-.19-.16-.48-.3-.88s-.33-.93-.57-1.63l1.15-1c.3,1,.53,1.74.71,2.33a12.25,12.25,0,0,0,.49,1.39,1.72,1.72,0,0,0,.47.67,1.13,1.13,0,0,0,.67.18h.3v1.66Z"/><path class="cls-2" d="M138.9,166.36a1.27,1.27,0,0,1-1.32-.74,1.88,1.88,0,0,1-1.68.74h-.13a.82.82,0,0,1-.22,0c-.07,0-.11-.05-.11-.08v-1.45s0-.06.11-.08a.83.83,0,0,1,.22,0h.07c.72,0,1.08-.24,1.08-.73v-.58l1.18-.37v.36c0,.88.29,1.32.86,1.32h.09v1.66Zm.15,1.81-.72,1-.94-.62-.53.72-1.12-.72.76-1,.94.63.51-.73Z"/><path class="cls-2" d="M138.72,164.81s0-.06.1-.08a.85.85,0,0,1,.23,0h.21a1.84,1.84,0,0,0,.6-.08.58.58,0,0,0,.31-.24,1,1,0,0,0,.11-.41c0-.15,0-.34,0-.56V158.3l1.44-.58c0,.56,0,1.12,0,1.7s0,1.13,0,1.65,0,1,0,1.38,0,.72,0,.94c0,.5,0,.94,0,1.31a2,2,0,0,1-.26.93,1.41,1.41,0,0,1-.7.55,4,4,0,0,1-1.36.18h-.18a.86.86,0,0,1-.23,0c-.07,0-.1-.05-.1-.08Z"/><path class="cls-2" d="M146.43,166.36a3.85,3.85,0,0,1-.54,1.07,6.73,6.73,0,0,1-.84.95,9.22,9.22,0,0,1-1.06.86c-.39.26-.78.51-1.18.74l-1.22-.94.93-.51c.35-.2.71-.42,1.06-.65a8.51,8.51,0,0,0,1-.74,2.75,2.75,0,0,0,.64-.78,6.81,6.81,0,0,1-.93-.06,1.92,1.92,0,0,1-.72-.25,1.31,1.31,0,0,1-.47-.52,1.94,1.94,0,0,1-.16-.86,2.89,2.89,0,0,1,.1-.73,2.74,2.74,0,0,1,.3-.75,2.13,2.13,0,0,1,.49-.58,1.07,1.07,0,0,1,.69-.24,1.43,1.43,0,0,1,.79.23,1.86,1.86,0,0,1,.59.56,3,3,0,0,1,.38.74,4.15,4.15,0,0,1,.18.8h.51v1.66Zm-1.11-1.66a1.65,1.65,0,0,0-.1-.32,1.35,1.35,0,0,0-.19-.33,1,1,0,0,0-.25-.25.48.48,0,0,0-.29-.11.54.54,0,0,0-.42.19.67.67,0,0,0-.16.42.37.37,0,0,0,.06.23.31.31,0,0,0,.21.12,2.16,2.16,0,0,0,.43,0Z"/><path class="cls-2" d="M146.61,164.81s0-.06.11-.08a.83.83,0,0,1,.22,0h.95c.49,0,.73-.12.73-.35a.49.49,0,0,0,0-.15,1.45,1.45,0,0,0-.11-.22c-.06-.09-.14-.21-.25-.35l-.41-.54.93-1.32a2.5,2.5,0,0,1,.7,1,3.51,3.51,0,0,1,.25,1.28,2.56,2.56,0,0,1-.2,1,1.83,1.83,0,0,1-.53.72,2.16,2.16,0,0,1-.79.43,3.2,3.2,0,0,1-1,.14h-.25a.82.82,0,0,1-.22,0c-.07,0-.11-.05-.11-.08Zm.1-4.4.72-1,.93.62.53-.73,1.11.73-.73,1-1-.61-.49.73Z"/><path class="cls-2" d="M32.4,177.61a2.93,2.93,0,0,0-1.19-.18,1.82,1.82,0,0,0-.54.1,2.32,2.32,0,0,0-.53.24,1.62,1.62,0,0,0-.39.33.53.53,0,0,0-.16.37.25.25,0,0,0,.22.25,3,3,0,0,0,.54.09l.7.05a2.36,2.36,0,0,1,.71.14,1.29,1.29,0,0,1,.54.36,1,1,0,0,1,.22.69,2.61,2.61,0,0,1-.43,1.49A3.87,3.87,0,0,1,31,182.62a5.51,5.51,0,0,1-1.46.65,5.67,5.67,0,0,1-1.54.22,5,5,0,0,1-1.59-.22,3.15,3.15,0,0,1-1.13-.62,2.4,2.4,0,0,1-.66-.94,3,3,0,0,1-.23-1.17,4.46,4.46,0,0,1,.17-1.16,5,5,0,0,1,.51-1.21l1.13.38a6.49,6.49,0,0,0-.34.79,2.61,2.61,0,0,0-.12.76,1.74,1.74,0,0,0,.14.69,1.46,1.46,0,0,0,.44.56,2.34,2.34,0,0,0,.76.37,4.13,4.13,0,0,0,1.12.14,4.9,4.9,0,0,0,1-.12,8,8,0,0,0,1-.3,4.11,4.11,0,0,0,.84-.42c.23-.16.35-.32.35-.47s-.06-.15-.17-.18a2.82,2.82,0,0,0-.46-.08l-.67,0a7.92,7.92,0,0,1-.81-.08,1.13,1.13,0,0,1-.73-.36,1.11,1.11,0,0,1-.23-.74,2.77,2.77,0,0,1,.28-1.23,3.4,3.4,0,0,1,.73-1,3.78,3.78,0,0,1,1-.7,2.88,2.88,0,0,1,1.17-.26,2.49,2.49,0,0,1,.61.08,2.21,2.21,0,0,1,.59.26Z"/><path class="cls-2" d="M35.25,177.68a5.68,5.68,0,0,1,.59,1,3,3,0,0,1,.23,1.22,3.54,3.54,0,0,1-.22,1.16,5.32,5.32,0,0,1-.6,1.19,8,8,0,0,1-.94,1.12,7.79,7.79,0,0,1-1.23,1l-1.21-1a9.66,9.66,0,0,0,1-.64,7.42,7.42,0,0,0,1-.78,4.75,4.75,0,0,0,.72-.87,1.79,1.79,0,0,0,.28-.92,1.28,1.28,0,0,0-.23-.65q-.23-.36-.45-.66Z"/><path class="cls-2" d="M38.56,180.49a1.74,1.74,0,0,1-.71-.66,2.7,2.7,0,0,1-.34-1,9.38,9.38,0,0,1-.11-1.25q0-.32,0-.9c0-.39,0-.82,0-1.28s0-.93,0-1.41,0-.93,0-1.35l1.41-.57v5.68a1.46,1.46,0,0,0,.26,1,1,1,0,0,0,.83.33v1.66A2.71,2.71,0,0,1,38.56,180.49Z"/><path class="cls-2" d="M45.68,180.72a2.14,2.14,0,0,1-.74-.13,1.7,1.7,0,0,1-.62-.4c0,.13-.07.26-.11.37a.82.82,0,0,1-.14.28.76.76,0,0,1-.24.18,1.05,1.05,0,0,1-.4.06,2.09,2.09,0,0,1-.53-.07,5,5,0,0,1-.58-.2,5.86,5.86,0,0,1-.55-.3,2.92,2.92,0,0,1-.45-.33,2.2,2.2,0,0,1-.66.4,2.64,2.64,0,0,1-.89.14.78.78,0,0,1-.22,0c-.08,0-.11,0-.11-.07v-1.45s0-.07.11-.08a.78.78,0,0,1,.22,0l.51,0a1.36,1.36,0,0,0,.41-.09,1.41,1.41,0,0,0,.34-.22,1.81,1.81,0,0,0,.29-.41c.09-.16.2-.32.3-.47a2.8,2.8,0,0,1,.35-.41,1.85,1.85,0,0,1,.4-.29,1.19,1.19,0,0,1,.51-.1.89.89,0,0,1,.7.34,6,6,0,0,1,.57.78,4.45,4.45,0,0,0,.31.51.92.92,0,0,0,.26.26.76.76,0,0,0,.35.1l.56,0h.13v1.66ZM42.2,178.8s-.05.09-.07.13l-.06.14a2.48,2.48,0,0,0,.63.37,1.67,1.67,0,0,0,.56.13c.11,0,.18,0,.19-.12a.55.55,0,0,0,0-.28,1.67,1.67,0,0,0-.26-.54.53.53,0,0,0-.46-.28Q42.4,178.35,42.2,178.8Z"/><path class="cls-2" d="M50.36,180.72a2.31,2.31,0,0,1-1-.23,1.84,1.84,0,0,1-.75-.74,3.35,3.35,0,0,1-1.16.73,4.18,4.18,0,0,1-1.44.24h-.21a.85.85,0,0,1-.23,0c-.07,0-.1,0-.1-.07v-1.45s0-.07.1-.08a.85.85,0,0,1,.23,0H46c1,0,1.65-.19,1.89-.55a1.13,1.13,0,0,0-.43-.35,1.73,1.73,0,0,0-.72-.12,1.8,1.8,0,0,1,.19-.87,1.62,1.62,0,0,1,.49-.6,2,2,0,0,1,.72-.35,3.43,3.43,0,0,1,.86-.11,2.1,2.1,0,0,1,.56.07,1.59,1.59,0,0,1,.5.2,1,1,0,0,1,.34.35,1,1,0,0,1,.13.53,1.19,1.19,0,0,1-.08.4,2,2,0,0,1-.24.43,2.71,2.71,0,0,1-.35.41,3.42,3.42,0,0,1-.4.36c.09.13.45.2,1.07.2h.66v1.66Z"/><path class="cls-2" d="M50.85,179.17s0-.07.11-.08a.83.83,0,0,1,.22,0,2.55,2.55,0,0,0,1-.17,1.27,1.27,0,0,0,.58-.49l.35-.62a5.3,5.3,0,0,1,.39-.61,2.22,2.22,0,0,1,.5-.47,1.22,1.22,0,0,1,.67-.18,1.1,1.1,0,0,1,.71.23,1.91,1.91,0,0,1,.47.58,3.12,3.12,0,0,1,.27.74,4,4,0,0,1,.08.71,4.15,4.15,0,0,1,0,.59,1.8,1.8,0,0,1-.21.56,1.26,1.26,0,0,1-.36.43.84.84,0,0,1-.54.18,2,2,0,0,1-1-.24,4.22,4.22,0,0,1-.83-.53,2.62,2.62,0,0,1-.86.71,2.75,2.75,0,0,1-1.21.24.83.83,0,0,1-.22,0c-.07,0-.11,0-.11-.07Zm3.75-1.35c-.31,0-.56.19-.76.72a2.13,2.13,0,0,0,1,.52c.18,0,.28,0,.31-.2a1.78,1.78,0,0,0,0-.31,1.19,1.19,0,0,0-.1-.32,1,1,0,0,0-.18-.26A.44.44,0,0,0,54.6,177.82Z"/><path class="cls-2" d="M58.22,183.39c.3-.15.66-.35,1.08-.59a13.76,13.76,0,0,0,1.21-.77,6.61,6.61,0,0,0,1-.87,1.47,1.47,0,0,0,.45-.87,1.77,1.77,0,0,1-.45.17,2.39,2.39,0,0,1-.53.06,1.32,1.32,0,0,1-1.55-1.43,3.35,3.35,0,0,1,.11-.81,2.72,2.72,0,0,1,.32-.76,2.07,2.07,0,0,1,.53-.57,1.21,1.21,0,0,1,.75-.23,1.39,1.39,0,0,1,.95.33,2.29,2.29,0,0,1,.59.81,3.58,3.58,0,0,1,.31,1,5.68,5.68,0,0,1,.09.93,3.54,3.54,0,0,1-.29,1.45,4.69,4.69,0,0,1-.8,1.19,7.59,7.59,0,0,1-1.16,1q-.65.47-1.38.9Zm3.6-4.36a1.66,1.66,0,0,0-.29-.66.61.61,0,0,0-.5-.28.62.62,0,0,0-.42.19.65.65,0,0,0-.18.46.36.36,0,0,0,.21.35,1.25,1.25,0,0,0,.48.1,1.74,1.74,0,0,0,.39-.05A2.14,2.14,0,0,0,61.82,179Z"/><path class="cls-2" d="M69.24,183.49a4,4,0,0,1-1.44-.24,2.57,2.57,0,0,1-1-.68,2.65,2.65,0,0,1-.59-1,3.76,3.76,0,0,1-.2-1.22,4.31,4.31,0,0,1,.15-1.12,3.78,3.78,0,0,1,.44-1.06l1.06.37a4.34,4.34,0,0,0-.28.75,2.48,2.48,0,0,0-.1.71,2.09,2.09,0,0,0,.12.72,1.55,1.55,0,0,0,.37.58,1.76,1.76,0,0,0,.64.38,2.86,2.86,0,0,0,.93.13,3.26,3.26,0,0,0,1-.15,2.22,2.22,0,0,0,.76-.43,1.74,1.74,0,0,0,.45-.63,2.07,2.07,0,0,0,.15-.8,3.21,3.21,0,0,0-.62-1.81l1.21-1a5.51,5.51,0,0,1,.64,1.35,4.52,4.52,0,0,1,.21,1.35,3.81,3.81,0,0,1-.28,1.47,3.46,3.46,0,0,1-.78,1.2,3.63,3.63,0,0,1-1.23.82A4.29,4.29,0,0,1,69.24,183.49Zm.94-7.18-.87,1.15-1.19-.8L69,175.5Z"/><path class="cls-2" d="M75.67,180.49a1.81,1.81,0,0,1-.71-.66,2.89,2.89,0,0,1-.34-1,9.38,9.38,0,0,1-.11-1.25q0-.32,0-.9c0-.39,0-.82,0-1.28s0-.93,0-1.41,0-.93,0-1.35l1.41-.57v5.68a1.52,1.52,0,0,0,.26,1,1,1,0,0,0,.83.33v1.66A2.71,2.71,0,0,1,75.67,180.49Z"/><path class="cls-2" d="M82.8,180.72a2.19,2.19,0,0,1-.75-.13,1.7,1.7,0,0,1-.62-.4c0,.13-.07.26-.11.37a.82.82,0,0,1-.14.28.76.76,0,0,1-.24.18,1.05,1.05,0,0,1-.4.06A2.09,2.09,0,0,1,80,181a4.3,4.3,0,0,1-.57-.2,5,5,0,0,1-.56-.3,4.38,4.38,0,0,1-.45-.33,2.2,2.2,0,0,1-.66.4,2.6,2.6,0,0,1-.89.14.78.78,0,0,1-.22,0c-.07,0-.11,0-.11-.07v-1.45s0-.07.11-.08a.78.78,0,0,1,.22,0l.51,0a1.3,1.3,0,0,0,.41-.09,1.24,1.24,0,0,0,.34-.22,1.54,1.54,0,0,0,.29-.41l.3-.47a2.8,2.8,0,0,1,.35-.41,1.69,1.69,0,0,1,.41-.29,1.13,1.13,0,0,1,.51-.1.87.87,0,0,1,.69.34,6,6,0,0,1,.57.78c.12.22.23.39.31.51a.92.92,0,0,0,.26.26.76.76,0,0,0,.35.1l.56,0h.13v1.66Zm-3.49-1.92a.54.54,0,0,1-.07.13l-.06.14a2.38,2.38,0,0,0,.64.37,1.62,1.62,0,0,0,.55.13c.11,0,.18,0,.19-.12a.55.55,0,0,0,0-.28,1.67,1.67,0,0,0-.26-.54.52.52,0,0,0-.46-.28Q79.51,178.35,79.31,178.8Z"/><path class="cls-2" d="M86,180.72a1.29,1.29,0,0,1-1.32-.74,1.92,1.92,0,0,1-1.68.74h-.13a.78.78,0,0,1-.22,0c-.08,0-.11,0-.11-.07v-1.45s0-.07.11-.08a.78.78,0,0,1,.22,0h.07c.72,0,1.08-.25,1.08-.74v-.57l1.17-.37v.36c0,.88.29,1.32.86,1.32h.09v1.66Zm-3.15-4.91.72-1,.93.61.54-.73,1.1.73-.73,1-1-.62-.49.73Z"/><path class="cls-2" d="M85.81,179.17s0-.07.11-.08a.78.78,0,0,1,.22,0H87.4l.75,0a4,4,0,0,0,.63-.09,7.35,7.35,0,0,0,.83-.26l1.35-.51c-.54-.15-1-.27-1.26-.34l-.66-.19a.7.7,0,0,0-.52,0,1.31,1.31,0,0,0-.41.34l-1-.68a4.06,4.06,0,0,1,.87-1.12,1.22,1.22,0,0,1,1-.26,8.41,8.41,0,0,1,1,.21l1,.27,1.06.28c.37.09.76.17,1.18.23l.57.05.55,0-.45,1.63-.6,0a2.8,2.8,0,0,0-1,.18,4.51,4.51,0,0,0-.54.27l-1.22.72a6.62,6.62,0,0,1-.94.5,4.79,4.79,0,0,1-1,.3,8,8,0,0,1-1.43.1H86.14a.78.78,0,0,1-.22,0c-.07,0-.11,0-.11-.07Zm4.29-5.3L89.24,175l-1.19-.8.88-1.16Z"/><path class="cls-2" d="M96.83,180.49a1.72,1.72,0,0,1-.7-.66,2.7,2.7,0,0,1-.35-1,9.38,9.38,0,0,1-.11-1.25c0-.21,0-.51,0-.9s0-.82,0-1.28,0-.93,0-1.41,0-.93,0-1.35l1.41-.57v5.68a1.52,1.52,0,0,0,.26,1,1,1,0,0,0,.83.33v1.66A2.74,2.74,0,0,1,96.83,180.49Z"/><path class="cls-2" d="M97.71,179.17s0-.07.11-.08a.83.83,0,0,1,.22,0h.15a1,1,0,0,0,.64-.22.76.76,0,0,0,.26-.62v-.41l1-.35v.45a1.69,1.69,0,0,0,.18.84.63.63,0,0,0,.56.31c.67,0,1-.3,1-.91v-.54l1-.3V178a1.12,1.12,0,0,0,.28.78,1,1,0,0,0,.74.31.59.59,0,0,0,.46-.15.62.62,0,0,0,.14-.41,1.25,1.25,0,0,0-.14-.56,1.44,1.44,0,0,0-.33-.44l1-1.12a2.82,2.82,0,0,1,.49.9,3.33,3.33,0,0,1,.17,1,3.12,3.12,0,0,1-.12.85,2.63,2.63,0,0,1-.34.76,1.64,1.64,0,0,1-.56.55,1.4,1.4,0,0,1-.76.21,2.13,2.13,0,0,1-1-.21,1.33,1.33,0,0,1-.63-.61,1.32,1.32,0,0,1-.54.58,1.58,1.58,0,0,1-.74.22,1.83,1.83,0,0,1-.82-.18,1.42,1.42,0,0,1-.58-.56,1.44,1.44,0,0,1-.69.57,2.54,2.54,0,0,1-.88.17.83.83,0,0,1-.22,0c-.07,0-.11,0-.11-.07Z"/><path class="cls-2" d="M115.14,182.43l-3.24.85-.1-.52,3.21-.9Z"/><path class="cls-2" d="M119.35,180.72a1.48,1.48,0,0,1-1.47-.83,3,3,0,0,1-1.76.93,15.71,15.71,0,0,1-3.4.3,6,6,0,0,1-3.09-.62,2,2,0,0,1-1-1.74,3.22,3.22,0,0,1,.14-.89,8.32,8.32,0,0,1,.4-1l1.07.32a3.7,3.7,0,0,0-.2.52,1.7,1.7,0,0,0-.09.54.83.83,0,0,0,.3.69,2.07,2.07,0,0,0,.79.37,5.25,5.25,0,0,0,1.11.14c.42,0,.84,0,1.26,0s.75,0,1.21,0a7.61,7.61,0,0,0,1.3-.14,3.43,3.43,0,0,0,1-.34.7.7,0,0,0,.43-.65V178l1.17-.37a7.25,7.25,0,0,0,0,.76.85.85,0,0,0,.15.44.6.6,0,0,0,.32.22,2.12,2.12,0,0,0,.56.06h0v1.66Zm-7.48-4.84.72-1,.93.61.53-.73,1.11.73-.74,1-.94-.62-.49.74Z"/><path class="cls-2" d="M124.23,180.72a2.38,2.38,0,0,1-1-.23,1.88,1.88,0,0,1-.74-.74,3.4,3.4,0,0,1-1.17.73,4.17,4.17,0,0,1-1.43.24h-.22a.78.78,0,0,1-.22,0c-.07,0-.11,0-.11-.07v-1.45s0-.07.11-.08a.78.78,0,0,1,.22,0h.23c1,0,1.66-.19,1.9-.55a1.21,1.21,0,0,0-.43-.35,1.8,1.8,0,0,0-.72-.12,1.93,1.93,0,0,1,.18-.87,1.64,1.64,0,0,1,.5-.6,1.86,1.86,0,0,1,.72-.35,3.35,3.35,0,0,1,.85-.11,2.22,2.22,0,0,1,.57.07,1.44,1.44,0,0,1,.49.2,1,1,0,0,1,.48.88,1,1,0,0,1-.09.4,1.67,1.67,0,0,1-.24.43,2.64,2.64,0,0,1-.34.41,4.59,4.59,0,0,1-.41.36c.1.13.46.2,1.08.2h.66v1.66Z"/><path class="cls-2" d="M128.18,180.72a1.29,1.29,0,0,1-1.32-.74,1.92,1.92,0,0,1-1.68.74h-.13a.78.78,0,0,1-.22,0c-.08,0-.11,0-.11-.07v-1.45s0-.07.11-.08a.78.78,0,0,1,.22,0h.07c.72,0,1.08-.25,1.08-.74v-.57l1.17-.37v.36q0,1.32.87,1.32h.08v1.66Zm-.63-5.32-.87,1.14-1.19-.8.88-1.16Z"/><path class="cls-2" d="M128,179.17s0-.07.11-.08a.78.78,0,0,1,.22,0h.37c.41,0,.61-.24.61-.72v-.55l1.1-.31v.31a3.69,3.69,0,0,0,0,.64.89.89,0,0,0,.13.39.45.45,0,0,0,.22.19,1.06,1.06,0,0,0,.34.05h.08l.93-1a14.19,14.19,0,0,1,1-1,5.39,5.39,0,0,1,1.07-.78,2.11,2.11,0,0,1,1.07-.31,1.8,1.8,0,0,1,.71.13,1.42,1.42,0,0,1,.56.36,1.64,1.64,0,0,1,.37.53,1.59,1.59,0,0,1,.13.66,2.49,2.49,0,0,1-.42,1.46,3.41,3.41,0,0,1-1,1,4.26,4.26,0,0,1-1.34.55,5.87,5.87,0,0,1-1.33.16h-1.81a1.73,1.73,0,0,1-.73-.17,1,1,0,0,1-.51-.57,1.5,1.5,0,0,1-1.33.74h-.26a.78.78,0,0,1-.22,0c-.07,0-.11,0-.11-.07Zm6.94-1.71a1.84,1.84,0,0,0-1.15.45,16.23,16.23,0,0,0-1.28,1.15h.4l.41,0c.19,0,.39,0,.62,0a6.15,6.15,0,0,0,.69-.11,3,3,0,0,0,.64-.18,1.37,1.37,0,0,0,.48-.27.49.49,0,0,0,.19-.39.38.38,0,0,0-.11-.28.78.78,0,0,0-.26-.17,1.39,1.39,0,0,0-.33-.1Z"/><path class="cls-2" d="M142.71,177.68a5.68,5.68,0,0,1,.59,1,3,3,0,0,1,.23,1.22,2.89,2.89,0,0,1-.34,1.33,5.46,5.46,0,0,1-.88,1.19,9.4,9.4,0,0,1-1.2,1.05,14.47,14.47,0,0,1-1.35.86l-1.22-1c.32-.15.69-.35,1.12-.6a12.38,12.38,0,0,0,1.22-.82,8,8,0,0,0,1-.91,1.4,1.4,0,0,0,.41-.88,1.28,1.28,0,0,0-.23-.65q-.23-.36-.45-.66Z"/><path class="cls-2" d="M149.7,178.45a2.57,2.57,0,0,1-.22,1.12,2,2,0,0,1-.59.76,2.28,2.28,0,0,1-.86.45,3.6,3.6,0,0,1-1.05.14,3.53,3.53,0,0,1-1.37-.24,2.28,2.28,0,0,1-.94-.69l.69-1.25a2.06,2.06,0,0,0,1.4.5h.58a3,3,0,0,0,.61-.09,1.19,1.19,0,0,0,.48-.23.51.51,0,0,0,.21-.44,1,1,0,0,0-.26-.59,4.08,4.08,0,0,0-.62-.63c-.24-.2-.48-.39-.72-.56s-.44-.28-.59-.36l.65-1.58C148.83,175.81,149.7,177.05,149.7,178.45Z"/></svg>