<svg id="Layer_1" data-name="Layer 1" xmlns="http://www.w3.org/2000/svg" viewBox="0 0 341.13 191.9"><defs><style>.cls-1{fill:#cccbcb;}.cls-2{fill:#0b0c0c;}</style></defs><path class="cls-1" d="M71.72,16A13.68,13.68,0,0,1,61.4,7.72a20.27,20.27,0,0,1-1.56-6.49c0-.1,0-.2,0-.3h-.57l0,.35a21,21,0,0,0,1.61,6.66,14.2,14.2,0,0,0,10.72,8.62,33.11,33.11,0,0,0,3.79.51v-.56A31.24,31.24,0,0,1,71.72,16Z"/><path class="cls-1" d="M96.53,7.76a42.15,42.15,0,0,1,8.71-6.62V.68h-.33a42.81,42.81,0,0,0-8.77,6.68,66.75,66.75,0,0,0-8.39,10h.68A66.29,66.29,0,0,1,96.53,7.76Z"/><path class="cls-1" d="M47.13,10.69v-.57c-.59-.15-1.19-.29-1.78-.42A99.35,99.35,0,0,0,29.2,7.31v.56a100,100,0,0,1,16,2.37Z"/><path class="cls-2" d="M8.75,7.68A46.07,46.07,0,0,1,18,.6V0h-.17A47,47,0,0,0,8.32,7.24C7.12,8.42,6,9.63,4.86,10.87h0A16.49,16.49,0,0,1,3,7.63,21.92,21.92,0,0,1,1.31.6l0-.32H.67L.7.65A22.63,22.63,0,0,0,2.45,7.88a17.65,17.65,0,0,0,2,3.46A70.05,70.05,0,0,0,0,17V18a71.52,71.52,0,0,1,4.82-6.17l.08-.09-.08.09a15.49,15.49,0,0,0,9.25,5.39,35.65,35.65,0,0,0,3.93.54v-.61a33.23,33.23,0,0,1-3.81-.53,14.86,14.86,0,0,1-9-5.26h0l0,0,0,0Q6.93,9.47,8.75,7.68Z"/><path class="cls-1" d="M8.06,32.11a18.09,18.09,0,0,1,2.74,7.2A12.68,12.68,0,0,1,9.92,46h.6a13,13,0,0,0,.83-6.73,18.59,18.59,0,0,0-2.81-7.42c-.41-.66-.85-1.3-1.32-1.95h-.7C7.08,30.61,7.59,31.36,8.06,32.11Z"/><path class="cls-1" d="M38.2,36.67a42.72,42.72,0,0,1,8.71-6.61v-.47h-.32a43.59,43.59,0,0,0-8.78,6.68,67.34,67.34,0,0,0-8.39,10h.69A66.2,66.2,0,0,1,38.2,36.67Z"/><path class="cls-1" d="M74.39,38.67q-2.7-.62-5.32-1.08a21.35,21.35,0,0,0-2.72-6.29c-.44-.71-.92-1.41-1.43-2.1h-.75c.6.8,1.15,1.6,1.66,2.42a21,21,0,0,1,2.58,5.85c-3.44-.6-6.78-1-10.08-1.28v.61a102.13,102.13,0,0,1,10.24,1.31c.09.44.17.88.23,1.32a13.82,13.82,0,0,1-1,7.21h.65a14.2,14.2,0,0,0,.9-7.29c-.05-.38-.11-.75-.19-1.12q2.49.45,5.05,1l2.07.48v-.62Z"/><path class="cls-1" d="M105.46,39.61V39l-1.79-.41a99.24,99.24,0,0,0-16.14-2.39v.56a100,100,0,0,1,16,2.37Z"/><path class="cls-1" d="M71.72,73.84A13.64,13.64,0,0,1,61.4,65.55a20.14,20.14,0,0,1-1.56-6.49,2.64,2.64,0,0,1,0-.29h-.57l0,.34a21,21,0,0,0,1.61,6.67,14.17,14.17,0,0,0,10.72,8.61,31.07,31.07,0,0,0,3.79.52v-.56A31.28,31.28,0,0,1,71.72,73.84Z"/><path class="cls-1" d="M96.53,65.59A42.86,42.86,0,0,1,105.24,59v-.46h-.33a43.53,43.53,0,0,0-8.77,6.68,67.78,67.78,0,0,0-8.39,10h.68A67.39,67.39,0,0,1,96.53,65.59Z"/><path class="cls-1" d="M47.13,68.53V68l-1.78-.42A100.4,100.4,0,0,0,29.2,65.15v.56a100,100,0,0,1,16,2.37Z"/><path class="cls-1" d="M8.75,65.51A46.39,46.39,0,0,1,18,58.44v-.6h-.17a46.68,46.68,0,0,0-9.51,7.24C7.12,66.25,6,67.47,4.86,68.71h0A16.49,16.49,0,0,1,3,65.47a22,22,0,0,1-1.69-7l0-.32H.67l0,.38a22.57,22.57,0,0,0,1.75,7.22,17.45,17.45,0,0,0,2,3.47Q2.07,71.88,0,74.78v1.06a71.52,71.52,0,0,1,4.82-6.17l.08-.09-.08.09a15.42,15.42,0,0,0,9.25,5.38A33.45,33.45,0,0,0,18,75.6V75a33.23,33.23,0,0,1-3.81-.53,14.91,14.91,0,0,1-9-5.26h0l0,0,0,0Q6.93,67.31,8.75,65.51Z"/><path class="cls-1" d="M8.06,90a18.09,18.09,0,0,1,2.74,7.2,12.64,12.64,0,0,1-.88,6.65h.6a13,13,0,0,0,.83-6.73,18.7,18.7,0,0,0-2.81-7.42c-.41-.65-.85-1.3-1.32-1.94h-.7C7.08,88.45,7.59,89.19,8.06,90Z"/><path class="cls-1" d="M38.2,94.51a43.14,43.14,0,0,1,8.71-6.62v-.46h-.32a43.59,43.59,0,0,0-8.78,6.68,67.78,67.78,0,0,0-8.39,10h.69A66.13,66.13,0,0,1,38.2,94.51Z"/><path class="cls-1" d="M74.39,96.51q-2.7-.62-5.32-1.09a21.41,21.41,0,0,0-2.72-6.28c-.44-.71-.92-1.41-1.43-2.11h-.75c.6.8,1.15,1.61,1.66,2.43a20.83,20.83,0,0,1,2.58,5.85c-3.44-.61-6.78-1-10.08-1.29v.61c3.35.26,6.74.7,10.24,1.32.09.44.17.87.23,1.31a13.84,13.84,0,0,1-1,7.22h.65a14.22,14.22,0,0,0,.9-7.3c-.05-.37-.11-.74-.19-1.11q2.49.45,5.05,1l2.07.49V97Z"/><path class="cls-1" d="M105.46,97.45v-.58l-1.79-.42a100.28,100.28,0,0,0-16.14-2.38v.56a100,100,0,0,1,16,2.37C104.19,97.14,104.83,97.29,105.46,97.45Z"/><path class="cls-1" d="M71.72,132.07a13.67,13.67,0,0,1-10.32-8.3,20.14,20.14,0,0,1-1.56-6.49,2.64,2.64,0,0,1,0-.29h-.57l0,.34A21,21,0,0,0,60.89,124a14.17,14.17,0,0,0,10.72,8.61,31.07,31.07,0,0,0,3.79.52v-.56A33.49,33.49,0,0,1,71.72,132.07Z"/><path class="cls-1" d="M96.53,123.81a42.86,42.86,0,0,1,8.71-6.62v-.46h-.33a43.53,43.53,0,0,0-8.77,6.68,67.78,67.78,0,0,0-8.39,10h.68A67.39,67.39,0,0,1,96.53,123.81Z"/><path class="cls-2" d="M47.13,126.75v-.58l-1.78-.42a100.4,100.4,0,0,0-16.15-2.38v.56a100,100,0,0,1,16,2.37Z"/><path class="cls-1" d="M8.75,123.73A46.39,46.39,0,0,1,18,116.66v-.6h-.17a46.68,46.68,0,0,0-9.51,7.24c-1.2,1.18-2.36,2.39-3.46,3.63h0A16.49,16.49,0,0,1,3,123.69a22,22,0,0,1-1.69-7l0-.33H.67l0,.38a22.57,22.57,0,0,0,1.75,7.22,17.45,17.45,0,0,0,2,3.47Q2.07,130.1,0,133v1.06a71.52,71.52,0,0,1,4.82-6.17l.08-.09-.08.09a15.42,15.42,0,0,0,9.25,5.38,33.45,33.45,0,0,0,3.93.55v-.61a33.23,33.23,0,0,1-3.81-.53,14.91,14.91,0,0,1-9-5.26h0l0,0,0,0Q6.93,125.53,8.75,123.73Z"/><path class="cls-1" d="M8.06,148.17a18.09,18.09,0,0,1,2.74,7.2A12.64,12.64,0,0,1,9.92,162h.6a13,13,0,0,0,.83-6.73,18.7,18.7,0,0,0-2.81-7.42c-.41-.65-.85-1.3-1.32-1.94h-.7C7.08,146.67,7.59,147.41,8.06,148.17Z"/><path class="cls-1" d="M38.2,152.73a43.14,43.14,0,0,1,8.71-6.62v-.46h-.32a43.59,43.59,0,0,0-8.78,6.68,67.78,67.78,0,0,0-8.39,10h.69A66.66,66.66,0,0,1,38.2,152.73Z"/><path class="cls-1" d="M74.39,154.73q-2.7-.61-5.32-1.09a21.41,21.41,0,0,0-2.72-6.28c-.44-.71-.92-1.41-1.43-2.11h-.75c.6.81,1.15,1.61,1.66,2.43a20.83,20.83,0,0,1,2.58,5.85c-3.44-.61-6.78-1-10.08-1.29v.61c3.35.26,6.74.7,10.24,1.32.09.44.17.88.23,1.32a13.82,13.82,0,0,1-1,7.21h.65a14.22,14.22,0,0,0,.9-7.3c-.05-.37-.11-.74-.19-1.11q2.49.45,5.05,1l2.07.49v-.62Z"/><path class="cls-1" d="M105.46,155.67v-.58l-1.79-.42a100.28,100.28,0,0,0-16.14-2.38v.56a100,100,0,0,1,16,2.37C104.19,155.36,104.83,155.51,105.46,155.67Z"/><path class="cls-1" d="M71.72,189.9a13.68,13.68,0,0,1-10.32-8.29,20.21,20.21,0,0,1-1.56-6.49c0-.1,0-.2,0-.29h-.57l0,.34a21.13,21.13,0,0,0,1.61,6.67,14.19,14.19,0,0,0,10.72,8.61,31.07,31.07,0,0,0,3.79.52v-.57A29.27,29.27,0,0,1,71.72,189.9Z"/><path class="cls-1" d="M96.53,181.65a42.5,42.5,0,0,1,8.71-6.62v-.46h-.33a43.17,43.17,0,0,0-8.77,6.68,67.26,67.26,0,0,0-8.39,10h.68A66.84,66.84,0,0,1,96.53,181.65Z"/><path class="cls-1" d="M47.13,184.59V184l-1.78-.42A101.59,101.59,0,0,0,29.2,181.2v.57a98.84,98.84,0,0,1,16,2.37C45.86,184.28,46.5,184.43,47.13,184.59Z"/><path class="cls-1" d="M8.75,181.57A45.65,45.65,0,0,1,18,174.5v-.61h-.17a47.1,47.1,0,0,0-9.51,7.25c-1.2,1.17-2.36,2.38-3.46,3.63h0A16.49,16.49,0,0,1,3,181.53a22,22,0,0,1-1.69-7l0-.32H.67l0,.38a22.64,22.64,0,0,0,1.75,7.22,17.74,17.74,0,0,0,2,3.47q-2.37,2.7-4.44,5.6v1.06a73.24,73.24,0,0,1,4.82-6.18l.08-.09-.08.09a15.44,15.44,0,0,0,9.25,5.39,31.43,31.43,0,0,0,3.93.54V191a33.19,33.19,0,0,1-3.81-.52,14.91,14.91,0,0,1-9-5.26h0l0,0,0,0Q6.93,183.36,8.75,181.57Z"/><path class="cls-1" d="M189.56,16a13.68,13.68,0,0,1-10.32-8.29,20.54,20.54,0,0,1-1.57-6.49c0-.1,0-.2,0-.3h-.56l0,.35a20.74,20.74,0,0,0,1.61,6.66,14.2,14.2,0,0,0,10.72,8.62,32.82,32.82,0,0,0,3.79.51v-.56A31,31,0,0,1,189.56,16Z"/><path class="cls-1" d="M214.37,7.76a42.09,42.09,0,0,1,8.7-6.62V.68h-.32A42.54,42.54,0,0,0,214,7.36a65.58,65.58,0,0,0-8.39,10h.68A65.66,65.66,0,0,1,214.37,7.76Z"/><path class="cls-1" d="M165,10.69v-.57c-.59-.15-1.19-.29-1.79-.42A99.24,99.24,0,0,0,147,7.31v.56a100,100,0,0,1,16,2.37Z"/><path class="cls-1" d="M126.58,7.68A46.13,46.13,0,0,1,135.84.6V0h-.17a46.77,46.77,0,0,0-9.51,7.24q-1.8,1.77-3.47,3.63h0a17,17,0,0,1-1.85-3.24,22.18,22.18,0,0,1-1.7-7c0-.11,0-.22,0-.32h-.61l0,.37a22.9,22.9,0,0,0,1.74,7.23,17.68,17.68,0,0,0,2,3.46A70.05,70.05,0,0,0,117.84,17V18a71.52,71.52,0,0,1,4.82-6.17l.08-.09-.08.09a15.49,15.49,0,0,0,9.24,5.39,35.83,35.83,0,0,0,3.94.54v-.61a33.4,33.4,0,0,1-3.82-.53,14.81,14.81,0,0,1-9-5.26h0l0,0,0,0Q124.75,9.47,126.58,7.68Z"/><path class="cls-1" d="M125.9,32.11a18.24,18.24,0,0,1,2.74,7.2,12.78,12.78,0,0,1-.88,6.66h.6a13.24,13.24,0,0,0,.83-6.73,18.62,18.62,0,0,0-2.82-7.42c-.4-.66-.84-1.3-1.31-1.95h-.7C124.92,30.61,125.43,31.36,125.9,32.11Z"/><path class="cls-1" d="M156,36.67a42.39,42.39,0,0,1,8.7-6.61v-.47h-.32a43.25,43.25,0,0,0-8.77,6.68,67.34,67.34,0,0,0-8.39,10h.68A66.92,66.92,0,0,1,156,36.67Z"/><path class="cls-2" d="M192.23,38.67c-1.81-.41-3.58-.77-5.33-1.08a21.31,21.31,0,0,0-2.71-6.29c-.45-.71-.92-1.41-1.43-2.1H182c.61.8,1.16,1.6,1.67,2.42a21.25,21.25,0,0,1,2.58,5.85c-3.44-.6-6.78-1-10.09-1.28v.61a101.77,101.77,0,0,1,10.24,1.31q.15.66.24,1.32a13.82,13.82,0,0,1-.95,7.21h.65a14.3,14.3,0,0,0,.9-7.29c-.05-.38-.12-.75-.19-1.12q2.49.45,5,1l2.07.48v-.62Z"/><path class="cls-1" d="M223.3,39.61V39l-1.79-.41a99.19,99.19,0,0,0-16.15-2.39v.56a100.07,100.07,0,0,1,16,2.37Z"/><path class="cls-1" d="M189.56,73.84a13.64,13.64,0,0,1-10.32-8.29,20.4,20.4,0,0,1-1.57-6.49c0-.09,0-.19,0-.29h-.56l0,.34a20.73,20.73,0,0,0,1.61,6.67,14.17,14.17,0,0,0,10.72,8.61,30.8,30.8,0,0,0,3.79.52v-.56A31,31,0,0,1,189.56,73.84Z"/><path class="cls-1" d="M214.37,65.59a42.8,42.8,0,0,1,8.7-6.62v-.46h-.32A43.25,43.25,0,0,0,214,65.19a66.56,66.56,0,0,0-8.39,10h.68A66.74,66.74,0,0,1,214.37,65.59Z"/><path class="cls-1" d="M165,68.53V68l-1.79-.42A100.28,100.28,0,0,0,147,65.15v.56a100,100,0,0,1,16,2.37Z"/><path class="cls-1" d="M126.58,65.51a46.44,46.44,0,0,1,9.26-7.07v-.6h-.17a46.41,46.41,0,0,0-9.51,7.24c-1.2,1.17-2.36,2.39-3.47,3.63h0a17,17,0,0,1-1.85-3.24,22.31,22.31,0,0,1-1.7-7c0-.1,0-.21,0-.32h-.61l0,.38a22.84,22.84,0,0,0,1.74,7.22,17.48,17.48,0,0,0,2,3.47q-2.37,2.7-4.44,5.6v1.06a71.52,71.52,0,0,1,4.82-6.17l.08-.09-.08.09a15.43,15.43,0,0,0,9.24,5.38,33.61,33.61,0,0,0,3.94.55V75a33.4,33.4,0,0,1-3.82-.53,14.85,14.85,0,0,1-9-5.26h0l0,0,0,0Q124.75,67.31,126.58,65.51Z"/><path class="cls-1" d="M125.9,90a18.24,18.24,0,0,1,2.74,7.2,12.74,12.74,0,0,1-.88,6.65h.6a13.22,13.22,0,0,0,.83-6.73,18.73,18.73,0,0,0-2.82-7.42c-.4-.65-.84-1.3-1.31-1.94h-.7C124.92,88.45,125.43,89.19,125.9,90Z"/><path class="cls-1" d="M156,94.51a42.8,42.8,0,0,1,8.7-6.62v-.46h-.32a43.25,43.25,0,0,0-8.77,6.68,67.78,67.78,0,0,0-8.39,10h.68A66.84,66.84,0,0,1,156,94.51Z"/><path class="cls-1" d="M192.23,96.51c-1.81-.41-3.58-.77-5.33-1.09a21.37,21.37,0,0,0-2.71-6.28c-.45-.71-.92-1.41-1.43-2.11H182c.61.8,1.16,1.61,1.67,2.43a21.12,21.12,0,0,1,2.58,5.85c-3.44-.61-6.78-1-10.09-1.29v.61c3.35.26,6.75.7,10.24,1.32.1.44.18.87.24,1.31a13.84,13.84,0,0,1-.95,7.22h.65a14.33,14.33,0,0,0,.9-7.3c-.05-.37-.12-.74-.19-1.11q2.49.45,5,1l2.07.49V97Z"/><path class="cls-1" d="M223.3,97.45v-.58l-1.79-.42a100.24,100.24,0,0,0-16.15-2.38v.56a100.07,100.07,0,0,1,16,2.37C222,97.14,222.66,97.29,223.3,97.45Z"/><path class="cls-1" d="M189.56,132.07a13.67,13.67,0,0,1-10.32-8.3,20.4,20.4,0,0,1-1.57-6.49c0-.09,0-.19,0-.29h-.56l0,.34a20.73,20.73,0,0,0,1.61,6.67,14.17,14.17,0,0,0,10.72,8.61,30.8,30.8,0,0,0,3.79.52v-.56A33.17,33.17,0,0,1,189.56,132.07Z"/><path class="cls-1" d="M214.37,123.81a42.8,42.8,0,0,1,8.7-6.62v-.46h-.32a43.25,43.25,0,0,0-8.77,6.68,66.56,66.56,0,0,0-8.39,10h.68A66.74,66.74,0,0,1,214.37,123.81Z"/><path class="cls-1" d="M165,126.75v-.58l-1.79-.42A100.28,100.28,0,0,0,147,123.37v.56a100,100,0,0,1,16,2.37Z"/><path class="cls-1" d="M126.58,123.73a46.44,46.44,0,0,1,9.26-7.07v-.6h-.17a46.41,46.41,0,0,0-9.51,7.24q-1.8,1.77-3.47,3.63h0a17,17,0,0,1-1.85-3.24,22.25,22.25,0,0,1-1.7-7c0-.11,0-.22,0-.33h-.61l0,.38a22.84,22.84,0,0,0,1.74,7.22,17.48,17.48,0,0,0,2,3.47q-2.37,2.7-4.44,5.6v1.06a71.52,71.52,0,0,1,4.82-6.17l.08-.09-.08.09a15.43,15.43,0,0,0,9.24,5.38,33.61,33.61,0,0,0,3.94.55v-.61a33.4,33.4,0,0,1-3.82-.53,14.85,14.85,0,0,1-9-5.26h0l0,0,0,0Q124.75,125.53,126.58,123.73Z"/><path class="cls-1" d="M125.9,148.17a18.24,18.24,0,0,1,2.74,7.2,12.74,12.74,0,0,1-.88,6.65h.6a13.22,13.22,0,0,0,.83-6.73,18.73,18.73,0,0,0-2.82-7.42c-.4-.65-.84-1.3-1.31-1.94h-.7C124.92,146.67,125.43,147.41,125.9,148.17Z"/><path class="cls-1" d="M156,152.73a42.8,42.8,0,0,1,8.7-6.62v-.46h-.32a43.25,43.25,0,0,0-8.77,6.68,67.78,67.78,0,0,0-8.39,10h.68A67.39,67.39,0,0,1,156,152.73Z"/><path class="cls-1" d="M192.23,154.73c-1.81-.41-3.58-.77-5.33-1.09a21.37,21.37,0,0,0-2.71-6.28c-.45-.71-.92-1.41-1.43-2.11H182c.61.81,1.16,1.61,1.67,2.43a21.12,21.12,0,0,1,2.58,5.85c-3.44-.61-6.78-1-10.09-1.29v.61c3.35.26,6.75.7,10.24,1.32q.15.66.24,1.32a13.82,13.82,0,0,1-.95,7.21h.65a14.33,14.33,0,0,0,.9-7.3c-.05-.37-.12-.74-.19-1.11q2.49.45,5,1l2.07.49v-.62Z"/><path class="cls-1" d="M223.3,155.67v-.58l-1.79-.42a100.24,100.24,0,0,0-16.15-2.38v.56a100.07,100.07,0,0,1,16,2.37C222,155.36,222.66,155.51,223.3,155.67Z"/><path class="cls-1" d="M189.56,189.9a13.68,13.68,0,0,1-10.32-8.29,20.47,20.47,0,0,1-1.57-6.49,2.64,2.64,0,0,0,0-.29h-.56l0,.34a20.86,20.86,0,0,0,1.61,6.67,14.19,14.19,0,0,0,10.72,8.61,30.8,30.8,0,0,0,3.79.52v-.57A29,29,0,0,1,189.56,189.9Z"/><path class="cls-1" d="M214.37,181.65a42.45,42.45,0,0,1,8.7-6.62v-.46h-.32a42.89,42.89,0,0,0-8.77,6.68,66.07,66.07,0,0,0-8.39,10h.68A66.2,66.2,0,0,1,214.37,181.65Z"/><path class="cls-1" d="M165,184.59V184l-1.79-.42A101.47,101.47,0,0,0,147,181.2v.57a98.84,98.84,0,0,1,16,2.37C163.7,184.28,164.33,184.43,165,184.59Z"/><path class="cls-1" d="M126.58,181.57a45.71,45.71,0,0,1,9.26-7.07v-.61h-.17a46.83,46.83,0,0,0-9.51,7.25q-1.8,1.76-3.47,3.63h0a17,17,0,0,1-1.85-3.24,22.31,22.31,0,0,1-1.7-7c0-.1,0-.21,0-.32h-.61l0,.38a22.91,22.91,0,0,0,1.74,7.22,17.77,17.77,0,0,0,2,3.47q-2.37,2.7-4.44,5.6v1.06a73.24,73.24,0,0,1,4.82-6.18l.08-.09-.08.09a15.44,15.44,0,0,0,9.24,5.39,31.58,31.58,0,0,0,3.94.54V191a33.36,33.36,0,0,1-3.82-.52,14.85,14.85,0,0,1-9-5.26h0l0,0,0,0Q124.75,183.36,126.58,181.57Z"/><path class="cls-1" d="M307.39,16a13.65,13.65,0,0,1-10.31-8.29,20.54,20.54,0,0,1-1.57-6.49c0-.1,0-.2,0-.3h-.56c0,.12,0,.23,0,.35a21,21,0,0,0,1.61,6.66,14.22,14.22,0,0,0,10.72,8.62,33.28,33.28,0,0,0,3.8.51v-.56A31.12,31.12,0,0,1,307.39,16Z"/><path class="cls-1" d="M332.2,7.76a42.41,42.41,0,0,1,8.71-6.62V.68h-.32a42.86,42.86,0,0,0-8.78,6.68,66.75,66.75,0,0,0-8.39,10h.69A65.59,65.59,0,0,1,332.2,7.76Z"/><path class="cls-1" d="M282.81,10.69v-.57c-.6-.15-1.19-.29-1.79-.42a99.35,99.35,0,0,0-16.15-2.39v.56a100.07,100.07,0,0,1,16,2.37Z"/><path class="cls-1" d="M244.42,7.68A46.13,46.13,0,0,1,253.68.6V0h-.18A47.32,47.32,0,0,0,244,7.24q-1.8,1.77-3.46,3.63h0a17,17,0,0,1-1.85-3.24,21.92,21.92,0,0,1-1.7-7l0-.32h-.6c0,.12,0,.25,0,.37a22.63,22.63,0,0,0,1.75,7.23,17.68,17.68,0,0,0,2,3.46Q237.75,14,235.67,17V18a69.72,69.72,0,0,1,4.83-6.17l.08-.09-.08.09a15.46,15.46,0,0,0,9.24,5.39,35.5,35.5,0,0,0,3.94.54v-.61a33.4,33.4,0,0,1-3.82-.53,14.86,14.86,0,0,1-9-5.26h0v0Q242.6,9.47,244.42,7.68Z"/><path class="cls-1" d="M243.74,32.11a18.22,18.22,0,0,1,2.73,7.2,12.58,12.58,0,0,1-.88,6.66h.61a13.24,13.24,0,0,0,.83-6.73,18.77,18.77,0,0,0-2.82-7.42c-.41-.66-.84-1.3-1.31-1.95h-.7C242.76,30.61,243.27,31.36,243.74,32.11Z"/><path class="cls-1" d="M273.88,36.67a42.39,42.39,0,0,1,8.7-6.61v-.47h-.32a43.25,43.25,0,0,0-8.77,6.68,66.14,66.14,0,0,0-8.39,10h.68A65.64,65.64,0,0,1,273.88,36.67Z"/><path class="cls-1" d="M310.07,38.67c-1.81-.41-3.58-.77-5.33-1.08A21.35,21.35,0,0,0,302,31.3c-.44-.71-.91-1.41-1.42-2.1h-.76c.6.8,1.16,1.6,1.67,2.42a21.25,21.25,0,0,1,2.58,5.85c-3.44-.6-6.79-1-10.09-1.28v.61a102.13,102.13,0,0,1,10.24,1.31c.1.44.17.88.23,1.32a13.62,13.62,0,0,1-1,7.21h.66a14.41,14.41,0,0,0,.9-7.29c-.05-.38-.12-.75-.19-1.12q2.48.45,5,1c.7.15,1.39.32,2.07.48v-.62Z"/><path class="cls-1" d="M341.13,39.61V39l-1.78-.41a99.35,99.35,0,0,0-16.15-2.39v.56a99.79,99.79,0,0,1,16,2.37Z"/><path class="cls-2" d="M307.39,73.84a13.61,13.61,0,0,1-10.31-8.29,20.4,20.4,0,0,1-1.57-6.49c0-.09,0-.19,0-.29h-.56c0,.11,0,.23,0,.34a21,21,0,0,0,1.61,6.67,14.18,14.18,0,0,0,10.72,8.61,31.23,31.23,0,0,0,3.8.52v-.56A31.16,31.16,0,0,1,307.39,73.84Z"/><path class="cls-1" d="M332.2,65.59A43.14,43.14,0,0,1,340.91,59v-.46h-.32a43.59,43.59,0,0,0-8.78,6.68,67.78,67.78,0,0,0-8.39,10h.69A66.66,66.66,0,0,1,332.2,65.59Z"/><path class="cls-1" d="M282.81,68.53V68L281,67.53a100.4,100.4,0,0,0-16.15-2.38v.56a100.07,100.07,0,0,1,16,2.37Z"/><path class="cls-1" d="M244.42,65.51a46.44,46.44,0,0,1,9.26-7.07v-.6h-.18A47,47,0,0,0,244,65.08c-1.2,1.17-2.35,2.39-3.46,3.63h0a17,17,0,0,1-1.85-3.24,22,22,0,0,1-1.7-7l0-.32h-.6c0,.13,0,.25,0,.38a22.57,22.57,0,0,0,1.75,7.22,17.48,17.48,0,0,0,2,3.47q-2.37,2.7-4.45,5.6v1.06a69.72,69.72,0,0,1,4.83-6.17l.08-.09-.08.09a15.4,15.4,0,0,0,9.24,5.38,33.32,33.32,0,0,0,3.94.55V75a33.4,33.4,0,0,1-3.82-.53,14.91,14.91,0,0,1-9-5.26h0v0Q242.6,67.31,244.42,65.51Z"/><path class="cls-1" d="M243.74,90a18.22,18.22,0,0,1,2.73,7.2,12.54,12.54,0,0,1-.88,6.65h.61a13.22,13.22,0,0,0,.83-6.73,18.88,18.88,0,0,0-2.82-7.42c-.41-.65-.84-1.3-1.31-1.94h-.7C242.76,88.45,243.27,89.19,243.74,90Z"/><path class="cls-1" d="M273.88,94.51a42.8,42.8,0,0,1,8.7-6.62v-.46h-.32a43.25,43.25,0,0,0-8.77,6.68,66.56,66.56,0,0,0-8.39,10h.68A65.57,65.57,0,0,1,273.88,94.51Z"/><path class="cls-1" d="M310.07,96.51c-1.81-.41-3.58-.77-5.33-1.09A21.41,21.41,0,0,0,302,89.14c-.44-.71-.91-1.41-1.42-2.11h-.76c.6.8,1.16,1.61,1.67,2.43a21.12,21.12,0,0,1,2.58,5.85c-3.44-.61-6.79-1-10.09-1.29v.61c3.35.26,6.74.7,10.24,1.32.1.44.17.87.23,1.31a13.64,13.64,0,0,1-1,7.22h.66a14.44,14.44,0,0,0,.9-7.3c-.05-.37-.12-.74-.19-1.11q2.48.45,5,1l2.07.49V97Z"/><path class="cls-1" d="M341.13,97.45v-.58l-1.78-.42a100.4,100.4,0,0,0-16.15-2.38v.56a99.79,99.79,0,0,1,16,2.37C339.86,97.14,340.5,97.29,341.13,97.45Z"/><path class="cls-1" d="M307.39,132.07a13.64,13.64,0,0,1-10.31-8.3,20.4,20.4,0,0,1-1.57-6.49c0-.09,0-.19,0-.29h-.56c0,.11,0,.23,0,.34a21,21,0,0,0,1.61,6.67,14.18,14.18,0,0,0,10.72,8.61,31.23,31.23,0,0,0,3.8.52v-.56A33.34,33.34,0,0,1,307.39,132.07Z"/><path class="cls-1" d="M332.2,123.81a43.14,43.14,0,0,1,8.71-6.62v-.46h-.32a43.59,43.59,0,0,0-8.78,6.68,67.78,67.78,0,0,0-8.39,10h.69A66.66,66.66,0,0,1,332.2,123.81Z"/><path class="cls-1" d="M282.81,126.75v-.58l-1.79-.42a100.4,100.4,0,0,0-16.15-2.38v.56a100.07,100.07,0,0,1,16,2.37Z"/><path class="cls-1" d="M244.42,123.73a46.44,46.44,0,0,1,9.26-7.07v-.6h-.18A47,47,0,0,0,244,123.3q-1.8,1.77-3.46,3.63h0a17,17,0,0,1-1.85-3.24,22,22,0,0,1-1.7-7l0-.33h-.6c0,.13,0,.25,0,.38a22.57,22.57,0,0,0,1.75,7.22,17.48,17.48,0,0,0,2,3.47q-2.37,2.7-4.45,5.6v1.06a69.72,69.72,0,0,1,4.83-6.17l.08-.09-.08.09a15.4,15.4,0,0,0,9.24,5.38,33.32,33.32,0,0,0,3.94.55v-.61a33.4,33.4,0,0,1-3.82-.53,14.91,14.91,0,0,1-9-5.26h0v0Q242.6,125.53,244.42,123.73Z"/><path class="cls-2" d="M243.74,148.17a18.22,18.22,0,0,1,2.73,7.2,12.54,12.54,0,0,1-.88,6.65h.61a13.22,13.22,0,0,0,.83-6.73,18.88,18.88,0,0,0-2.82-7.42c-.41-.65-.84-1.3-1.31-1.94h-.7C242.76,146.67,243.27,147.41,243.74,148.17Z"/><path class="cls-1" d="M273.88,152.73a42.8,42.8,0,0,1,8.7-6.62v-.46h-.32a43.25,43.25,0,0,0-8.77,6.68,66.56,66.56,0,0,0-8.39,10h.68A66.1,66.1,0,0,1,273.88,152.73Z"/><path class="cls-1" d="M310.07,154.73c-1.81-.41-3.58-.77-5.33-1.09a21.41,21.41,0,0,0-2.72-6.28c-.44-.71-.91-1.41-1.42-2.11h-.76c.6.81,1.16,1.61,1.67,2.43a21.12,21.12,0,0,1,2.58,5.85c-3.44-.61-6.79-1-10.09-1.29v.61c3.35.26,6.74.7,10.24,1.32.1.44.17.88.23,1.32a13.62,13.62,0,0,1-1,7.21h.66a14.44,14.44,0,0,0,.9-7.3c-.05-.37-.12-.74-.19-1.11q2.48.45,5,1l2.07.49v-.62Z"/><path class="cls-1" d="M341.13,155.67v-.58l-1.78-.42a100.4,100.4,0,0,0-16.15-2.38v.56a99.79,99.79,0,0,1,16,2.37C339.86,155.36,340.5,155.51,341.13,155.67Z"/><path class="cls-1" d="M307.39,189.9a13.65,13.65,0,0,1-10.31-8.29,20.47,20.47,0,0,1-1.57-6.49c0-.1,0-.2,0-.29h-.56c0,.11,0,.23,0,.34a21.13,21.13,0,0,0,1.61,6.67,14.2,14.2,0,0,0,10.72,8.61,31.23,31.23,0,0,0,3.8.52v-.57A29.18,29.18,0,0,1,307.39,189.9Z"/><path class="cls-1" d="M332.2,181.65a42.77,42.77,0,0,1,8.71-6.62v-.46h-.32a43.22,43.22,0,0,0-8.78,6.68,67.26,67.26,0,0,0-8.39,10h.69A66.13,66.13,0,0,1,332.2,181.65Z"/><path class="cls-1" d="M282.81,184.59V184l-1.79-.42a101.59,101.59,0,0,0-16.15-2.39v.57a99,99,0,0,1,16,2.37Z"/><path class="cls-1" d="M244.42,181.57a45.71,45.71,0,0,1,9.26-7.07v-.61h-.18a47.38,47.38,0,0,0-9.51,7.25q-1.8,1.76-3.46,3.63h0a17,17,0,0,1-1.85-3.24,22,22,0,0,1-1.7-7l0-.32h-.6c0,.13,0,.25,0,.38a22.64,22.64,0,0,0,1.75,7.22,17.77,17.77,0,0,0,2,3.47q-2.37,2.7-4.45,5.6v1.06a71.35,71.35,0,0,1,4.83-6.18l.08-.09-.08.09a15.41,15.41,0,0,0,9.24,5.39,31.33,31.33,0,0,0,3.94.54V191a33.36,33.36,0,0,1-3.82-.52,14.91,14.91,0,0,1-9-5.26h0v0Q242.6,183.36,244.42,181.57Z"/></svg>