<svg id="Layer_1" data-name="Layer 1" xmlns="http://www.w3.org/2000/svg" viewBox="0 0 150 179.5"><defs><style>.cls-1{fill:#f58641;}</style></defs><path class="cls-1" d="M51.48,175.83a1.61,1.61,0,0,1-1.15-.35,2,2,0,0,1-.5-1,1.57,1.57,0,0,1-.66.36,2.94,2.94,0,0,1-.94.15,2.53,2.53,0,0,1-.56-.06,1.5,1.5,0,0,1-.47-.19,1.19,1.19,0,0,1-.34-.33.9.9,0,0,1-.12-.48c0-1,.79-2,2.36-2.95l-.13-.62L50,169.23l.77,3.87a1.62,1.62,0,0,0,.34.8,1.05,1.05,0,0,0,.79.24v1.69Zm-2.15-3.75a3.06,3.06,0,0,0-.57.29,2.13,2.13,0,0,0-.55.46c-.15.19-.2.33-.12.43s.23.13.49.13a4.93,4.93,0,0,0,.55,0,1.27,1.27,0,0,0,.45-.16Z"/><path class="cls-1" d="M51.45,178.09l.87-1.17,1.21.82-.89,1.18Zm.14-3.84s0-.06.11-.08a.85.85,0,0,1,.23,0h1c.49,0,.74-.12.74-.35a.5.5,0,0,0,0-.16l-.11-.22a3.47,3.47,0,0,0-.25-.36l-.42-.54.94-1.34a2.49,2.49,0,0,1,.71,1,3.42,3.42,0,0,1,.25,1.3,2.57,2.57,0,0,1-.19,1,2,2,0,0,1-.54.74,2.25,2.25,0,0,1-.81.43,3.29,3.29,0,0,1-1,.15h-.24a.85.85,0,0,1-.23,0c-.07,0-.11,0-.11-.07Z"/><path class="cls-1" d="M58.51,175.74a1.34,1.34,0,0,1-.29-.2,5.18,5.18,0,0,1-.3,1,6.61,6.61,0,0,1-.57,1,7,7,0,0,1-1.93,1.95l-1.32-.93A7.38,7.38,0,0,0,56,177.15a5.37,5.37,0,0,0,.72-.92,1.77,1.77,0,0,0,.28-.91A.87.87,0,0,0,57,175a2.81,2.81,0,0,0-.2-.38l-.23-.35-.19-.26,1.12-1.21c.11.17.21.33.3.5a2.83,2.83,0,0,0,.3.44,1.32,1.32,0,0,0,.35.32.73.73,0,0,0,.45.13v1.69A.69.69,0,0,1,58.51,175.74Z"/><path class="cls-1" d="M66.37,175.83c-1.11,0-1.68-.7-1.71-2.09a7.21,7.21,0,0,0-.92.64c-.3.24-.61.46-.94.68a5.86,5.86,0,0,1-1.06.54,3.58,3.58,0,0,1-1.32.23H58.85a.85.85,0,0,1-.23,0c-.07,0-.11,0-.11-.07v-1.48s0-.06.11-.08a.85.85,0,0,1,.23,0H60.2a4.11,4.11,0,0,0,.94-.1,5.82,5.82,0,0,0,.84-.25c.27-.11.54-.24.81-.38l.82-.48-.57-.1-.59-.11-.51-.08-.32,0a.54.54,0,0,0-.35.15,2.38,2.38,0,0,0-.34.43l-1.08-.51c.45-1.13,1-1.69,1.56-1.69a4.71,4.71,0,0,1,.94.12l1.23.26c.45.1.91.18,1.4.26a8.45,8.45,0,0,0,1.4.12,5.28,5.28,0,0,0,.66-.05l-.19,1.62a3.78,3.78,0,0,0-1.31.19.66.66,0,0,0,.33.53,2.24,2.24,0,0,0,.73.1h1.11v1.69Zm-3.69,2.26.87-1.17,1.21.82-.88,1.18Z"/><path class="cls-1" d="M67.37,174.25s0-.06.11-.08a.85.85,0,0,1,.23,0h1c.49,0,.74-.12.74-.35a.5.5,0,0,0,0-.16l-.11-.22a3.47,3.47,0,0,0-.25-.36l-.42-.54.94-1.34a2.49,2.49,0,0,1,.71,1,3.42,3.42,0,0,1,.25,1.3,2.57,2.57,0,0,1-.19,1,2,2,0,0,1-.54.74,2.25,2.25,0,0,1-.81.43,3.29,3.29,0,0,1-1,.15h-.24a.85.85,0,0,1-.23,0c-.07,0-.11,0-.11-.07Zm.1-4.47.73-1,1,.63.54-.75,1.12.75-.74,1-1-.63-.5.74Z"/><path class="cls-1" d="M81.36,175.83a1,1,0,0,1,0,.51,1.7,1.7,0,0,1-.15.52,2.94,2.94,0,0,1-1,1.11,4.5,4.5,0,0,1-1.44.66,4.86,4.86,0,0,1-1.62.16,3.91,3.91,0,0,1-1.52-.38,2.86,2.86,0,0,1-1.13-.94,2.69,2.69,0,0,1-.43-1.57,4,4,0,0,1,.19-1.25,5.48,5.48,0,0,1,.48-1.11l1.11.39c-.12.26-.23.53-.34.83a2.54,2.54,0,0,0-.16.86,1.61,1.61,0,0,0,.22.89,1.35,1.35,0,0,0,.58.53,2.17,2.17,0,0,0,.82.23,4.82,4.82,0,0,0,.93,0,5.69,5.69,0,0,0,.91-.2,4.87,4.87,0,0,0,.78-.31c.18-.1.28-.18.29-.24s0-.11-.12-.14l-1.58-.54c0-.08,0-.17.09-.29l.14-.35.15-.35a1.36,1.36,0,0,1,.48-.62,1.18,1.18,0,0,1,.49-.08h1.82v1.69Z"/><path class="cls-1" d="M81.1,174.25s0-.06.11-.08a.83.83,0,0,1,.22,0h1.29l.75,0a3.93,3.93,0,0,0,.64-.09,7.42,7.42,0,0,0,.84-.26l1.38-.52-1.28-.35c-.3-.08-.53-.14-.67-.19a.75.75,0,0,0-.54,0,1.61,1.61,0,0,0-.41.34l-1-.68a4.13,4.13,0,0,1,.89-1.15,1.23,1.23,0,0,1,1-.25c.33,0,.66.12,1,.2l1,.28,1.08.28a9.79,9.79,0,0,0,1.2.24l.57,0,.56,0-.45,1.66-.61,0a2.67,2.67,0,0,0-.5,0,3.1,3.1,0,0,0-.47.14,5.44,5.44,0,0,0-.55.27c-.49.28-.9.53-1.23.73a8.05,8.05,0,0,1-1,.51,4.59,4.59,0,0,1-1,.31,9.29,9.29,0,0,1-1.45.1H81.43a.83.83,0,0,1-.22,0c-.08,0-.11,0-.11-.07Z"/><path class="cls-1" d="M92.7,175.64l-1.49.39v-8.39l1.49-.58Z"/><path class="cls-1" d="M96.48,175.74a1.64,1.64,0,0,1-.29-.2,3.58,3.58,0,0,1-.48,1.17,6.48,6.48,0,0,1-.86,1,9.6,9.6,0,0,1-1.13.92,13.08,13.08,0,0,1-1.27.82l-1.24-1c.31-.16.68-.36,1.12-.61a10.39,10.39,0,0,0,1.26-.81,6.93,6.93,0,0,0,1-.9,1.41,1.41,0,0,0,.41-.9,1,1,0,0,0-.08-.37c-.06-.12-.13-.25-.21-.38s-.15-.24-.23-.35L94.3,174l1.12-1.21c.11.17.21.33.3.5a2.83,2.83,0,0,0,.3.44,1.5,1.5,0,0,0,.35.32.75.75,0,0,0,.45.13v1.69A.69.69,0,0,1,96.48,175.74Z"/><path class="cls-1" d="M96.48,174.25s0-.06.11-.08a.91.91,0,0,1,.23,0h.51l.27-.32a3,3,0,0,1,.3-.32c0-.3,0-.61.06-.94s0-.64,0-.93c0-.59,0-1.21-.06-1.84s-.1-1.35-.18-2.15l1.52-.58v5a6.75,6.75,0,0,1,1.1-.81,2.16,2.16,0,0,1,1.11-.33,1.76,1.76,0,0,1,1.29.49,1.64,1.64,0,0,1,.49,1.22,2.55,2.55,0,0,1-.42,1.48,3.63,3.63,0,0,1-1,1,4.68,4.68,0,0,1-1.35.55,6.14,6.14,0,0,1-1.34.17H96.82a.91.91,0,0,1-.23,0c-.07,0-.11,0-.11-.07Zm4.61-1.73a1.87,1.87,0,0,0-1.17.45,15.23,15.23,0,0,0-1.28,1.17H99l.41,0c.19,0,.39,0,.62-.05a6,6,0,0,0,.7-.11,5.23,5.23,0,0,0,.66-.18,1.37,1.37,0,0,0,.49-.28.52.52,0,0,0,.18-.4.39.39,0,0,0-.1-.28,1.27,1.27,0,0,0-.27-.18,2,2,0,0,0-.33-.09Z"/><path class="cls-1" d="M150,7.1l-1.81-.43A261.5,261.5,0,0,0,103.05.28a169.88,169.88,0,0,0-40,2.24,98.91,98.91,0,0,0-28.66,9.63C13.24,23.53,2.36,41.52.34,65.23-.13,70.72,0,76.2,0,82.31.42,87.08.4,92.5.75,97.9a231.74,231.74,0,0,0,4.36,33.51A129.54,129.54,0,0,0,10.41,150H150Z"/></svg>