<svg id="Layer_1" data-name="Layer 1" xmlns="http://www.w3.org/2000/svg" viewBox="0 0 12.62 12.62"><defs><style>.cls-1{fill:#fff;}</style></defs><circle cx="6.31" cy="6.31" r="6.31"/><path class="cls-1" d="M9.38,3.75c0-.07-.05-.09-.1-.11a.45.45,0,0,0-.26,0S3.12,5.78,2.78,6a.29.29,0,0,0-.11.12c0,.16.13.24.13.24l1.52.49h.07c.35-.22,3.48-2.2,3.66-2.27,0,0,0,0,0,0C8,4.87,5.3,7.29,5.3,7.29a0,0,0,0,0,0,0h0L5.14,8.82s-.06.46.4,0,.65-.6.8-.73c.53.36,1.09.76,1.33,1A.45.45,0,0,0,8,9.18c.23,0,.29-.27.29-.27S9.35,4.59,9.38,4a.66.66,0,0,0,0-.13A.45.45,0,0,0,9.38,3.75Z"/></svg>