<svg id="Layer_1" data-name="Layer 1" xmlns="http://www.w3.org/2000/svg" viewBox="0 0 150 173.07"><defs><style>.cls-1,.cls-2{fill:#007199;}.cls-1{fill-rule:evenodd;}</style></defs><path class="cls-1" d="M150,58.17q-3.9-5.31-8.49-10.73C94-8.56,42.85-9.3,0,16V150H150Z"/><path class="cls-2" d="M3.72,165.64a2.21,2.21,0,0,1-.16.87,1.7,1.7,0,0,1-.44.64,2.1,2.1,0,0,1-.64.4,2.21,2.21,0,0,1-.78.14,1.92,1.92,0,0,1-1.25-.38A1.33,1.33,0,0,1,0,166.22a4.31,4.31,0,0,1,.78-2.09L.49,164l.74-1.28a9.81,9.81,0,0,1,1,.55,5.07,5.07,0,0,1,.78.65,3,3,0,0,1,.55.79A2.36,2.36,0,0,1,3.72,165.64Zm-1.08.09c0-.41-.35-.8-1-1.14a3,3,0,0,0-.35.54,1.13,1.13,0,0,0-.16.53.52.52,0,0,0,.15.38.73.73,0,0,0,.52.15,1.47,1.47,0,0,0,.28,0,1.31,1.31,0,0,0,.28-.09.68.68,0,0,0,.23-.14A.29.29,0,0,0,2.64,165.73Z"/><path class="cls-2" d="M6.28,167.35a1.75,1.75,0,0,1-.68-.64,2.73,2.73,0,0,1-.34-1,9,9,0,0,1-.1-1.21c0-.21,0-.5,0-.88s0-.8,0-1.24,0-.91,0-1.38,0-.9,0-1.3l1.37-.56v5.52a1.47,1.47,0,0,0,.25.94,1,1,0,0,0,.81.32v1.62A2.63,2.63,0,0,1,6.28,167.35Z"/><path class="cls-2" d="M13.46,167.58a2.59,2.59,0,0,1-.88-.16,4.27,4.27,0,0,1-.8-.4,4.75,4.75,0,0,1-.69-.57,5.58,5.58,0,0,1-.57-.66,1.77,1.77,0,0,1-.91,1.34,4.33,4.33,0,0,1-2.15.45.83.83,0,0,1-.22,0c-.07,0-.1,0-.1-.07v-1.41s0-.07.1-.08a.83.83,0,0,1,.22,0H8a4.49,4.49,0,0,0,.73-.06,2.22,2.22,0,0,0,.63-.19.42.42,0,0,0,.26-.39,1,1,0,0,0-.24-.56,4.63,4.63,0,0,0-.56-.65q-.33-.33-.66-.63c-.23-.2-.4-.36-.53-.49l-.14-.15a.37.37,0,0,1,0-.27c0-.11,0-.24,0-.37a3.54,3.54,0,0,1,.09-.38,1.61,1.61,0,0,1,.12-.33.35.35,0,0,1,.16-.19,21.51,21.51,0,0,1,2.48-1.05c1-.38,2.24-.79,3.66-1.24l-.18,1.58c-1,.23-1.94.48-2.77.74s-1.6.52-2.29.79c-.18.07-.2.15-.07.24.4.31.78.63,1.16,1s.75.69,1.11,1.05l.61.59a4.94,4.94,0,0,0,.62.51,3.24,3.24,0,0,0,.69.36,2.58,2.58,0,0,0,.8.13h.64v1.62Zm.28-9-2.53.82c-.68.23-1.23.41-1.66.57s-.77.27-1,.37l-.55.23.19-.76c.45-.22,1.15-.49,2.08-.83s2.12-.73,3.56-1.21Z"/><path class="cls-2" d="M14,166.07s0-.07.1-.08a.83.83,0,0,1,.22,0h.92c.47,0,.71-.11.71-.34a.39.39,0,0,0,0-.14.73.73,0,0,0-.11-.22,2.92,2.92,0,0,0-.23-.34l-.41-.52.91-1.29a2.41,2.41,0,0,1,.67,1,3.17,3.17,0,0,1,.25,1.25,2.5,2.5,0,0,1-.19,1,2,2,0,0,1-.52.71,2.38,2.38,0,0,1-.77.42,3.32,3.32,0,0,1-1,.14h-.24a.83.83,0,0,1-.22,0c-.07,0-.1,0-.1-.07Zm2.54-4.69-.84,1.12-1.16-.78.85-1.13Z"/><path class="cls-2" d="M32.45,167.58a2.58,2.58,0,0,1-.91-.17,4,4,0,0,1-.82-.43,4.58,4.58,0,0,1-.71-.61,6.33,6.33,0,0,1-.57-.71,1.67,1.67,0,0,1-.3.91,2.41,2.41,0,0,1-.68.63,3.8,3.8,0,0,1-.94.4,6.47,6.47,0,0,1-1.06.23,9.67,9.67,0,0,1-1,.1l-.87,0q-4.05,0-4-2.37a4.2,4.2,0,0,1,.52-1.76l1,.31a2.81,2.81,0,0,0-.3,1,.88.88,0,0,0,.18.57,1.42,1.42,0,0,0,.46.37,2.22,2.22,0,0,0,.63.22l.71.09.66,0h.52l.58,0c.24,0,.49,0,.75,0s.54-.07.81-.12a5.53,5.53,0,0,0,.74-.21,1.41,1.41,0,0,0,.54-.3.59.59,0,0,0,.22-.43.75.75,0,0,0-.16-.44,3.43,3.43,0,0,0-.41-.49l-.54-.51c-.19-.17-.36-.34-.52-.5a2.94,2.94,0,0,1-.32-.37.63.63,0,0,1-.09-.43c0-.11,0-.22.05-.35a3.58,3.58,0,0,1,.09-.35,1.43,1.43,0,0,1,.12-.31.35.35,0,0,1,.15-.18,20.92,20.92,0,0,1,2.5-1.07c1-.37,2.24-.78,3.65-1.22l-.18,1.55c-.88.21-1.73.44-2.57.69a26.16,26.16,0,0,0-2.49.87.24.24,0,0,0-.14.09s0,.09.08.15c.35.27.71.57,1.08.91s.76.7,1.18,1.1l.61.58a7,7,0,0,0,.63.51,3.4,3.4,0,0,0,.68.36,2.32,2.32,0,0,0,.8.14h.64v1.62Z"/><path class="cls-2" d="M35.38,169.33l-.7.95-.9-.6-.52.7-1.09-.7.74-1,.91.61.5-.71Zm-2.3-3.26s0-.07.1-.08a.83.83,0,0,1,.22,0h.92c.47,0,.71-.11.71-.34a.39.39,0,0,0,0-.14.73.73,0,0,0-.11-.22,2.92,2.92,0,0,0-.23-.34l-.41-.52.91-1.29a2.41,2.41,0,0,1,.67,1,3.17,3.17,0,0,1,.25,1.25,2.33,2.33,0,0,1-.19,1,2,2,0,0,1-.52.71,2.28,2.28,0,0,1-.77.42,3.32,3.32,0,0,1-1,.14H33.4a.83.83,0,0,1-.22,0c-.07,0-.1,0-.1-.07Z"/><path class="cls-2" d="M44.7,172.25l-3.16.82-.09-.5,3.12-.88Z"/><path class="cls-2" d="M52.26,167.58a2,2,0,0,1-.79-.16,1.25,1.25,0,0,1-.54-.57,1.68,1.68,0,0,1-.57.53,1.46,1.46,0,0,1-.7.18,1.19,1.19,0,0,1-.62-.17,1.43,1.43,0,0,1-.52-.54,1.57,1.57,0,0,1-1.38.71,1.13,1.13,0,0,1-.63-.18,3.77,3.77,0,0,1-.33,1.32,3.61,3.61,0,0,1-.77,1.08,3.68,3.68,0,0,1-1.17.73,4.18,4.18,0,0,1-1.54.27,4,4,0,0,1-1.4-.23,2.73,2.73,0,0,1-1-.66,2.81,2.81,0,0,1-.57-1,3.79,3.79,0,0,1-.19-1.18,4.53,4.53,0,0,1,.14-1.09,3.9,3.9,0,0,1,.44-1l1,.36a3.89,3.89,0,0,0-.28.73,2.35,2.35,0,0,0-.1.69,1.94,1.94,0,0,0,.12.7,1.5,1.5,0,0,0,.36.56,1.91,1.91,0,0,0,.62.38,2.72,2.72,0,0,0,.91.14,3.1,3.1,0,0,0,1-.16,2,2,0,0,0,.73-.42A1.6,1.6,0,0,0,45,168a1.91,1.91,0,0,0,.15-.76,2.75,2.75,0,0,0-.15-.87,3.79,3.79,0,0,0-.45-.9l1.17-1A4.74,4.74,0,0,0,46,165a5,5,0,0,0,.36.48,1.6,1.6,0,0,0,.37.33.62.62,0,0,0,.38.13,1,1,0,0,0,.64-.17.66.66,0,0,0,.2-.53v-.49l1-.35v.48a1.38,1.38,0,0,0,.18.81.81.81,0,0,0,.68.25.85.85,0,0,0,.57-.19.69.69,0,0,0,.2-.51v-.49l1-.35V165c0,.17,0,.31,0,.42a.66.66,0,0,0,.09.3.39.39,0,0,0,.22.17,1.19,1.19,0,0,0,.43.06h.21v1.62Z"/><path class="cls-2" d="M52.2,166.07s0-.07.1-.08a.83.83,0,0,1,.22,0h1.23l.72,0a3.6,3.6,0,0,0,.61-.09,6.34,6.34,0,0,0,.81-.25l1.32-.49L56,164.77c-.29-.07-.5-.13-.64-.18a.67.67,0,0,0-.51,0,1.38,1.38,0,0,0-.4.33l-1-.66a4,4,0,0,1,.85-1.09,1.17,1.17,0,0,1,1-.25,7.88,7.88,0,0,1,.94.2l1,.26c.33.1.68.19,1,.28s.74.16,1.15.23l.55,0,.53,0-.43,1.59-.58,0a2.45,2.45,0,0,0-.48,0,2.54,2.54,0,0,0-.45.13A4.24,4.24,0,0,0,58,166c-.47.27-.86.5-1.17.7a8.17,8.17,0,0,1-.92.48,4,4,0,0,1-1,.3,8.55,8.55,0,0,1-1.39.1h-1a.83.83,0,0,1-.22,0c-.07,0-.1,0-.1-.07Z"/><path class="cls-2" d="M69.12,172l-3.16.82-.09-.5,3.12-.88Z"/><path class="cls-2" d="M67.36,168.89a4.19,4.19,0,0,0,1.1-.14,2.57,2.57,0,0,0,.87-.39,1.75,1.75,0,0,0,.57-.67,1.92,1.92,0,0,0,.21-.92v-.07a1.94,1.94,0,0,1-1.12.36,1.91,1.91,0,0,1-.54-.08,1.23,1.23,0,0,1-.46-.26,1.3,1.3,0,0,1-.32-.41,1.34,1.34,0,0,1-.12-.58,2.89,2.89,0,0,1,.12-.76,3.26,3.26,0,0,1,.32-.8,2.34,2.34,0,0,1,.53-.63,1,1,0,0,1,.69-.26,1.26,1.26,0,0,1,.91.35,2.61,2.61,0,0,1,.58.85,5.3,5.3,0,0,1,.31,1.05,6,6,0,0,1,.09.94,5.1,5.1,0,0,1-.28,1.73,3.58,3.58,0,0,1-.8,1.25,3.37,3.37,0,0,1-1.26.77,4.91,4.91,0,0,1-1.62.26,3.85,3.85,0,0,1-1.43-.25,2.93,2.93,0,0,1-1-.67,2.61,2.61,0,0,1-.57-1,3.58,3.58,0,0,1-.19-1.19,4.58,4.58,0,0,1,.15-1.14,6.1,6.1,0,0,1,.44-1.14l1,.39a3.8,3.8,0,0,0-.38,1.57,1.77,1.77,0,0,0,.51,1.3A2.23,2.23,0,0,0,67.36,168.89Zm.08-7.1.7-.95.91.6.51-.71,1.08.71-.72.95-.92-.6-.47.71Zm1.65,3.93a1.32,1.32,0,0,0,.42-.07.92.92,0,0,0,.34-.19,1.91,1.91,0,0,0-.32-.56.59.59,0,0,0-.46-.23.47.47,0,0,0-.37.21.65.65,0,0,0-.16.38.39.39,0,0,0,.18.35A.7.7,0,0,0,69.09,165.72Z"/><path class="cls-2" d="M78,167.42a1.76,1.76,0,0,1-.66-.45,1.94,1.94,0,0,1-.39-.69,4.66,4.66,0,0,1-.19-.89,3.71,3.71,0,0,1-1.26,1.69,4,4,0,0,1-2,.75l-1.05-1.12c.28-.05.6-.12,1-.21a8,8,0,0,0,1-.34,3.14,3.14,0,0,0,.81-.47.74.74,0,0,0,.33-.58,1.74,1.74,0,0,0-.27-.83,5.3,5.3,0,0,0-.71-1,7.21,7.21,0,0,0-1-.91,5.7,5.7,0,0,0-1.25-.7l.3-1.77q.72.49,1.29,1a8.52,8.52,0,0,1,1,1,6.4,6.4,0,0,1,.77,1.1,7.38,7.38,0,0,1,.57,1.3,5.39,5.39,0,0,0,.43-1.61c0-.47,0-1,0-1.48s0-1,0-1.43l1.38-.56v5.52a1.47,1.47,0,0,0,.25.94,1,1,0,0,0,.8.32v1.62A2.93,2.93,0,0,1,78,167.42Z"/><path class="cls-2" d="M79,167.58l-.21,0c-.07,0-.11,0-.11-.07v-1.41s0-.07.11-.08a.76.76,0,0,1,.21,0h1.4v1.62Z"/><path class="cls-2" d="M80.44,167.58a.83.83,0,0,1-.22,0c-.07,0-.1,0-.1-.07v-1.41s0-.07.1-.08a.83.83,0,0,1,.22,0h1.39v1.62Z"/><path class="cls-2" d="M81.83,167.58l-.21,0c-.07,0-.11,0-.11-.07v-1.41s0-.07.11-.08a.76.76,0,0,1,.21,0h1.4v1.62Z"/><path class="cls-2" d="M83.23,167.58a.78.78,0,0,1-.22,0c-.07,0-.1,0-.1-.07v-1.41s0-.07.1-.08a.78.78,0,0,1,.22,0h1.39v1.62Z"/><path class="cls-2" d="M84.62,167.58l-.21,0c-.07,0-.11,0-.11-.07v-1.41s0-.07.11-.08a.76.76,0,0,1,.21,0H86v1.62Z"/><path class="cls-2" d="M86,167.58a.78.78,0,0,1-.22,0c-.07,0-.1,0-.1-.07v-1.41s0-.07.1-.08a.78.78,0,0,1,.22,0h1.39v1.62Z"/><path class="cls-2" d="M87.09,166.07s0-.07.11-.08a.76.76,0,0,1,.21,0h1.23l.72,0a3.6,3.6,0,0,0,.61-.09,6.34,6.34,0,0,0,.81-.25l1.32-.49-1.23-.34c-.29-.07-.5-.13-.64-.18a.67.67,0,0,0-.51,0,1.53,1.53,0,0,0-.4.33l-1-.66a4,4,0,0,1,.85-1.09,1.18,1.18,0,0,1,1-.25,8.48,8.48,0,0,1,1,.2l1,.26,1,.28c.36.08.74.16,1.15.23l.55,0,.54,0-.44,1.59-.58,0a2.45,2.45,0,0,0-.48,0,2.54,2.54,0,0,0-.45.13,4.18,4.18,0,0,0-.52.26c-.48.27-.87.5-1.18.7a7.39,7.39,0,0,1-.92.48,4,4,0,0,1-1,.3,8.55,8.55,0,0,1-1.39.1h-1l-.21,0c-.07,0-.11,0-.11-.07Zm4.17-5.15L90.42,162l-1.15-.78.85-1.13Z"/><path class="cls-2" d="M106.64,164.55a3,3,0,0,0-1.15-.17,1.69,1.69,0,0,0-.53.09,2,2,0,0,0-.51.24,1.8,1.8,0,0,0-.39.32.56.56,0,0,0-.15.36.24.24,0,0,0,.21.24,2.28,2.28,0,0,0,.53.08l.68,0a3.13,3.13,0,0,1,.69.14,1.3,1.3,0,0,1,.53.35,1,1,0,0,1,.2.67,2.54,2.54,0,0,1-.41,1.45,3.78,3.78,0,0,1-1.06,1,4.92,4.92,0,0,1-1.42.63,5.73,5.73,0,0,1-1.5.22,5.11,5.11,0,0,1-1.54-.22,2.86,2.86,0,0,1-1.09-.6,2.35,2.35,0,0,1-.65-.91,2.94,2.94,0,0,1-.22-1.15,4.2,4.2,0,0,1,.16-1.12,5,5,0,0,1,.5-1.18l1.1.38a4.57,4.57,0,0,0-.33.77,2.39,2.39,0,0,0-.12.74,1.86,1.86,0,0,0,.13.67,1.35,1.35,0,0,0,.43.53,1.94,1.94,0,0,0,.75.36,3.78,3.78,0,0,0,1.08.14,5.14,5.14,0,0,0,1-.11,7.59,7.59,0,0,0,1-.3,3.68,3.68,0,0,0,.82-.41q.33-.23.33-.45c0-.09,0-.14-.16-.18a2.7,2.7,0,0,0-.44-.07l-.66,0c-.24,0-.51,0-.79-.08a1,1,0,0,1-.7-.35,1.09,1.09,0,0,1-.23-.72,2.69,2.69,0,0,1,.27-1.19,3.38,3.38,0,0,1,.71-1,3.54,3.54,0,0,1,1-.68,2.69,2.69,0,0,1,1.13-.25,2.46,2.46,0,0,1,.6.07,2.41,2.41,0,0,1,.57.25Z"/><path class="cls-2" d="M109.49,167.35a1.75,1.75,0,0,1-.68-.64,2.72,2.72,0,0,1-.33-1,8.91,8.91,0,0,1-.11-1.21c0-.21,0-.5,0-.88s0-.8,0-1.24,0-.91,0-1.38,0-.9,0-1.3l1.36-.56v5.52a1.53,1.53,0,0,0,.25.94,1,1,0,0,0,.81.32v1.62A2.63,2.63,0,0,1,109.49,167.35Z"/><path class="cls-2" d="M110.67,167.58l-.21,0c-.07,0-.11,0-.11-.07v-1.41s0-.07.11-.08a.76.76,0,0,1,.21,0h1.4v1.62Z"/><path class="cls-2" d="M112.07,167.58a.78.78,0,0,1-.22,0c-.07,0-.1,0-.1-.07v-1.41s0-.07.1-.08a.78.78,0,0,1,.22,0h1.39v1.62Z"/><path class="cls-2" d="M113.46,167.58l-.21,0c-.07,0-.11,0-.11-.07v-1.41s0-.07.11-.08a.76.76,0,0,1,.21,0h1.4v1.62Z"/><path class="cls-2" d="M114.86,167.58a.78.78,0,0,1-.22,0c-.07,0-.1,0-.1-.07v-1.41s0-.07.1-.08a.78.78,0,0,1,.22,0h1.39v1.62Z"/><path class="cls-2" d="M116.25,167.58a.71.71,0,0,1-.21,0c-.07,0-.11,0-.11-.07v-1.41s0-.07.11-.08a.71.71,0,0,1,.21,0h1.4v1.62Z"/><path class="cls-2" d="M117.32,166.07s0-.07.11-.08a.78.78,0,0,1,.22,0h1.2a1.24,1.24,0,0,1-.26-.71,1.71,1.71,0,0,1,.3-.94,3,3,0,0,1,.71-.78l-.31-.19.67-1.45c.28.19.63.45,1.05.76a11.12,11.12,0,0,1,1.23,1.06,7.12,7.12,0,0,1,1,1.21,2.37,2.37,0,0,1,.44,1.25,3.17,3.17,0,0,1-.1.84,2,2,0,0,1-.27.64,1.13,1.13,0,0,1-.41.38.57.57,0,0,1-.48,0,6.56,6.56,0,0,1-1-.33c-.35-.15-.71-.32-1.06-.5a3.57,3.57,0,0,1-.88.27,4.79,4.79,0,0,1-.77.08h-1.11a.78.78,0,0,1-.22,0c-.07,0-.11,0-.11-.07Zm2.58-.49a3.36,3.36,0,0,0,.41.25.94.94,0,0,0,.52-.39A1,1,0,0,0,121,165a.44.44,0,0,0-.07-.24,1.18,1.18,0,0,0-.17-.22,1,1,0,0,0-.21-.15.48.48,0,0,0-.21-.06.52.52,0,0,0-.25.08,1.07,1.07,0,0,0-.23.2,1.1,1.1,0,0,0-.19.25.59.59,0,0,0-.07.23,1.21,1.21,0,0,0,0,.23A.58.58,0,0,0,119.9,165.58Zm2,0a2.09,2.09,0,0,1-.19.48,3.62,3.62,0,0,1-.27.41l.34.15.33.14.31.1c.07,0,.14,0,.19-.17a.86.86,0,0,0-.1-.79,3,3,0,0,0-.58-.67A1,1,0,0,1,121.94,165.6Z"/><path class="cls-2" d="M126.31,164.62a5.09,5.09,0,0,1,.57,1,2.81,2.81,0,0,1,.22,1.17,2.69,2.69,0,0,1-.33,1.29,5,5,0,0,1-.85,1.17,8.85,8.85,0,0,1-1.17,1c-.43.31-.87.59-1.3.84l-1.19-.93c.31-.15.67-.34,1.08-.59a10.67,10.67,0,0,0,1.19-.79,6.39,6.39,0,0,0,1-.89,1.3,1.3,0,0,0,.4-.85,1.17,1.17,0,0,0-.22-.63,6.51,6.51,0,0,0-.44-.64Z"/><path class="cls-2" d="M129.66,167.35a1.75,1.75,0,0,1-.68-.64,2.54,2.54,0,0,1-.34-1,9,9,0,0,1-.1-1.21c0-.21,0-.5,0-.88s0-.8,0-1.24l0-1.38c0-.47,0-.9,0-1.3l1.37-.56v5.52a1.47,1.47,0,0,0,.25.94,1,1,0,0,0,.81.32v1.62A2.6,2.6,0,0,1,129.66,167.35Z"/><path class="cls-2" d="M136.84,167.58a2.59,2.59,0,0,1-.88-.16,4,4,0,0,1-.8-.4,5.45,5.45,0,0,1-.7-.57,8.38,8.38,0,0,1-.57-.66,1.73,1.73,0,0,1-.9,1.34,4.33,4.33,0,0,1-2.15.45.78.78,0,0,1-.22,0c-.07,0-.1,0-.1-.07v-1.41s0-.07.1-.08a.78.78,0,0,1,.22,0h.56a4.62,4.62,0,0,0,.74-.06,2.06,2.06,0,0,0,.62-.19.41.41,0,0,0,.27-.39,1,1,0,0,0-.24-.56,6.48,6.48,0,0,0-.56-.65c-.22-.22-.44-.43-.67-.63L131,163l-.13-.15a.33.33,0,0,1-.05-.27c0-.11,0-.24.05-.37a3.61,3.61,0,0,1,.08-.38l.12-.33a.4.4,0,0,1,.17-.19,20.78,20.78,0,0,1,2.48-1.05c1-.38,2.23-.79,3.66-1.24l-.18,1.58c-1,.23-1.94.47-2.77.73s-1.6.52-2.3.8c-.17.07-.2.15-.07.24q.6.46,1.17,1t1.11,1.05l.6.59a5,5,0,0,0,.63.51,3.24,3.24,0,0,0,.69.36,2.53,2.53,0,0,0,.8.13h.64v1.62Z"/><path class="cls-2" d="M137.41,166.07s0-.07.1-.08a.78.78,0,0,1,.22,0h1.2a1.23,1.23,0,0,1-.25-.71,1.71,1.71,0,0,1,.3-.94,2.94,2.94,0,0,1,.7-.78l-.31-.19.67-1.45c.28.19.63.45,1.06.76a12,12,0,0,1,1.22,1.06,7.12,7.12,0,0,1,1,1.21,2.37,2.37,0,0,1,.44,1.25,3.17,3.17,0,0,1-.1.84,1.79,1.79,0,0,1-.27.64,1.19,1.19,0,0,1-.4.38.6.6,0,0,1-.49,0,6.47,6.47,0,0,1-1-.33c-.36-.15-.72-.32-1.07-.5a3.57,3.57,0,0,1-.88.27,4.79,4.79,0,0,1-.77.08h-1.11a.78.78,0,0,1-.22,0c-.07,0-.1,0-.1-.07Zm2.58-.49a2.57,2.57,0,0,0,.4.25.9.9,0,0,0,.52-.39,1,1,0,0,0,.15-.49.44.44,0,0,0-.07-.24,1.18,1.18,0,0,0-.17-.22.8.8,0,0,0-.21-.15.49.49,0,0,0-.2-.06.52.52,0,0,0-.26.08,1.07,1.07,0,0,0-.23.2.83.83,0,0,0-.18.25.46.46,0,0,0-.07.23,1,1,0,0,0,0,.23A.61.61,0,0,0,140,165.58Zm2,0a1.72,1.72,0,0,1-.19.48,2.63,2.63,0,0,1-.27.41l.34.15.33.14.31.1c.07,0,.14,0,.19-.17a.88.88,0,0,0-.09-.79,3.38,3.38,0,0,0-.59-.67A1,1,0,0,1,142,165.6Z"/><path class="cls-2" d="M146.6,167.39l-1.43.38v-8l1.43-.56Z"/><path class="cls-2" d="M149.2,164.62a4.69,4.69,0,0,1,.58,1,2.81,2.81,0,0,1,.22,1.17,2.69,2.69,0,0,1-.33,1.29,5,5,0,0,1-.85,1.17,8.85,8.85,0,0,1-1.17,1c-.43.31-.87.59-1.3.84l-1.19-.93c.31-.15.67-.34,1.08-.59a10.67,10.67,0,0,0,1.19-.79,6.92,6.92,0,0,0,1-.89,1.35,1.35,0,0,0,.4-.85,1.26,1.26,0,0,0-.22-.63,6.51,6.51,0,0,0-.44-.64Z"/></svg>