<svg id="Layer_1" data-name="Layer 1" xmlns="http://www.w3.org/2000/svg" xmlns:xlink="http://www.w3.org/1999/xlink" viewBox="0 0 150 173.73"><defs><style>.cls-1{fill:none;}.cls-2{clip-path:url(#clip-path);}.cls-3{fill:#f48120;}</style><clipPath id="clip-path"><path class="cls-1" d="M-118.58,11.47c-11.89,9.86-22.74,20.7-30.94,33.93-5,8.14-8.74,16.8-10,26.41a47.15,47.15,0,0,0,5.83,29.91c4.95,8.93,11.94,16.07,19.91,22.31,12.54,9.84,26.6,17,41.25,23q3.76,1.54,7.55,3h75V0h-93.6C-108.72,3.62-113.73,7.44-118.58,11.47Z"/></clipPath></defs><g class="cls-2"><image width="1233" height="1600" transform="translate(-323.12 -192.5) scale(0.29)" xlink:href="../attachments-2/-%20%D9%87%D9%85%DA%A9%D8%A7%D8%B1%DB%8C%20%D8%A8%D8%A7%20%D8%B3%D8%A7%D8%B2%D9%86%D8%AF%DA%AF%D8%A7%D9%86%20%D9%88%20%D8%B3%D8%B1%D9%85%D8%A7%DB%8C%D9%87%20%DA%AF%D8%B0%D8%A7%D8%B1%D8%A7%D9%86%20-%20%D8%A8%D8%B1%D9%86%D8%AF%DB%8C%D9%86%DA%AF%20%D8%B3%D8%A7%D8%AE%D8%AA%D9%85%D8%A7%D9%86%20place%20branding%20for%20real%20estate%20developers%20-%20branding%20for%20buildings%20and%20places.jpg"/></g><path class="cls-3" d="M12.38,168.57a2.55,2.55,0,0,1-1-.18,3.46,3.46,0,0,1-.85-.45,4.35,4.35,0,0,1-.73-.62,8,8,0,0,1-.6-.73,1.73,1.73,0,0,1-.31.94,2.34,2.34,0,0,1-.71.65,4.22,4.22,0,0,1-1,.42,8.61,8.61,0,0,1-1.1.23,10.5,10.5,0,0,1-1.07.11l-.91,0Q0,169,0,166.5a4.2,4.2,0,0,1,.54-1.82l1.07.32a2.7,2.7,0,0,0-.32,1,.92.92,0,0,0,.18.59A1.5,1.5,0,0,0,2,167a2.14,2.14,0,0,0,.66.23,4.67,4.67,0,0,0,.74.09c.24,0,.47,0,.68,0H5.17l.78-.05c.27,0,.55-.07.84-.12a6.54,6.54,0,0,0,.77-.21,2,2,0,0,0,.55-.31.62.62,0,0,0,.23-.45.75.75,0,0,0-.13-.36,5.72,5.72,0,0,0-.35-.48c-.14-.17-.3-.35-.47-.53l-.5-.51-.43-.44a1.54,1.54,0,0,1-.24-.29,2.92,2.92,0,0,1,0-.34,3.88,3.88,0,0,1,.08-.45c0-.15.09-.3.13-.43a.43.43,0,0,1,.19-.25A22.45,22.45,0,0,1,9.24,161c1.06-.39,2.32-.81,3.79-1.26l-.19,1.6c-.91.23-1.8.46-2.67.72a27.2,27.2,0,0,0-2.58.9.22.22,0,0,0-.14.1s0,.09.08.15c.37.28.74.59,1.12.94l1.23,1.14.63.6a6.29,6.29,0,0,0,.65.53,3.2,3.2,0,0,0,.71.37,2.23,2.23,0,0,0,.83.15h.66v1.68Zm.33-9.33-2.62.85c-.7.23-1.27.43-1.72.59l-1,.38-.57.25.16-.8c.48-.22,1.21-.5,2.18-.85s2.2-.77,3.69-1.26Z"/><path class="cls-3" d="M16.51,168.57a1.29,1.29,0,0,1-1.33-.76,1.88,1.88,0,0,1-1.69.76h-.13a.78.78,0,0,1-.22,0c-.08,0-.11,0-.11-.07V167s0-.06.11-.08a.78.78,0,0,1,.22,0h.07c.73,0,1.09-.25,1.09-.74v-.58l1.18-.37v.36c0,.89.29,1.33.87,1.33h.09v1.68Zm-.63-5.37L15,164.36l-1.2-.81.88-1.17Z"/><path class="cls-3" d="M18.71,170.39l-.72,1-.94-.62-.54.72-1.13-.72.77-1,.94.64.52-.74ZM16.32,167s0-.06.11-.08a.91.91,0,0,1,.23,0h.95c.49,0,.74-.12.74-.35a.4.4,0,0,0,0-.15,1.28,1.28,0,0,0-.12-.22,3.18,3.18,0,0,0-.24-.36l-.42-.54.94-1.33a2.47,2.47,0,0,1,.7,1,3.32,3.32,0,0,1,.25,1.28,2.57,2.57,0,0,1-.19,1,2,2,0,0,1-.54.73,2.13,2.13,0,0,1-.8.43,3.22,3.22,0,0,1-1,.15h-.24a.91.91,0,0,1-.23,0c-.07,0-.11,0-.11-.07Z"/><path class="cls-3" d="M27.13,168.57a2.39,2.39,0,0,1-1.18-.31,2.24,2.24,0,0,1-.85-.85,2.25,2.25,0,0,1-2.33,1.34,2.52,2.52,0,0,1-2-.76l.53-1.33A2.08,2.08,0,0,0,22,167a3.86,3.86,0,0,0,1,.13,3.9,3.9,0,0,0,.59,0,2.36,2.36,0,0,0,.51-.14,1,1,0,0,0,.36-.24.48.48,0,0,0,.14-.35,1,1,0,0,0,0-.12s-.05-.17-.12-.37-.16-.48-.3-.88-.33-.94-.57-1.65l1.15-1,.72,2.34A11.84,11.84,0,0,0,26,166a1.67,1.67,0,0,0,.48.68,1.13,1.13,0,0,0,.67.18h.31v1.68Z"/><path class="cls-3" d="M27.08,167s0-.06.11-.08a.85.85,0,0,1,.23,0h.95c.49,0,.74-.12.74-.35a.4.4,0,0,0,0-.15,1.28,1.28,0,0,0-.12-.22q-.09-.15-.24-.36l-.42-.54.94-1.33a2.47,2.47,0,0,1,.7,1,3.32,3.32,0,0,1,.25,1.28,2.57,2.57,0,0,1-.19,1,2,2,0,0,1-.54.73,2.21,2.21,0,0,1-.8.43,3.22,3.22,0,0,1-1,.15h-.24a.85.85,0,0,1-.23,0c-.07,0-.11,0-.11-.07Zm2.63-4.85-.86,1.15-1.2-.81.88-1.17Z"/><path class="cls-3" d="M33.94,168.48a1.55,1.55,0,0,1-.28-.2,3.76,3.76,0,0,1-.48,1.16,5.59,5.59,0,0,1-.86,1,8.48,8.48,0,0,1-1.11.92q-.62.43-1.26.81l-1.23-1,1.11-.6a13.22,13.22,0,0,0,1.24-.81,6.41,6.41,0,0,0,1-.89,1.41,1.41,0,0,0,.41-.9.8.8,0,0,0-.09-.36,2.32,2.32,0,0,0-.2-.38c-.08-.12-.15-.24-.23-.34l-.19-.26,1.12-1.2c.1.16.2.32.29.49a2.83,2.83,0,0,0,.3.44,1.52,1.52,0,0,0,.35.32.78.78,0,0,0,.44.12v1.68A.72.72,0,0,1,33.94,168.48Z"/><path class="cls-3" d="M34,167s0-.06.11-.08a.83.83,0,0,1,.22,0h1c.49,0,.73-.12.73-.35a.39.39,0,0,0,0-.15,1.28,1.28,0,0,0-.12-.22,3.47,3.47,0,0,0-.25-.36l-.41-.54.94-1.33a2.57,2.57,0,0,1,.7,1,3.51,3.51,0,0,1,.25,1.28,2.57,2.57,0,0,1-.2,1,2,2,0,0,1-.53.73,2.21,2.21,0,0,1-.8.43,3.22,3.22,0,0,1-1,.15h-.25a.83.83,0,0,1-.22,0c-.07,0-.11,0-.11-.07Zm.32,3.81.87-1.16,1.2.81-.89,1.17Z"/><path class="cls-3" d="M45.13,170.26l-3.27.85-.1-.52,3.24-.91Z"/><path class="cls-3" d="M46.92,168.57a2.42,2.42,0,0,1-1.18-.31,2.21,2.21,0,0,1-.84-.85,2.26,2.26,0,0,1-2.33,1.34,2.49,2.49,0,0,1-2-.76l.52-1.33a2.06,2.06,0,0,0,.74.33,4.12,4.12,0,0,0,1.6.09,2.3,2.3,0,0,0,.52-.14,1,1,0,0,0,.36-.24.48.48,0,0,0,.13-.35.32.32,0,0,0,0-.12s-.05-.17-.11-.37L44,165q-.21-.58-.57-1.65l1.16-1,.72,2.34a10.26,10.26,0,0,0,.49,1.4,1.77,1.77,0,0,0,.47.68,1.16,1.16,0,0,0,.68.18h.3v1.68Z"/><path class="cls-3" d="M50.36,168.57a1.29,1.29,0,0,1-1.33-.76,1.9,1.9,0,0,1-1.69.76h-.13a.78.78,0,0,1-.22,0c-.08,0-.11,0-.11-.07V167s0-.06.11-.08a.78.78,0,0,1,.22,0h.07c.73,0,1.09-.25,1.09-.74v-.58l1.18-.37v.36c0,.89.29,1.33.87,1.33h.09v1.68Zm-.63-5.37-.87,1.16-1.2-.81.88-1.17Z"/><path class="cls-3" d="M52.56,170.39l-.72,1-.94-.62-.54.72-1.13-.72.77-1,.94.64.52-.74ZM50.17,167s0-.06.11-.08a.85.85,0,0,1,.23,0h1c.49,0,.74-.12.74-.35a.4.4,0,0,0,0-.15,1.28,1.28,0,0,0-.12-.22,3.18,3.18,0,0,0-.24-.36l-.42-.54.94-1.33a2.47,2.47,0,0,1,.7,1,3.32,3.32,0,0,1,.25,1.28,2.57,2.57,0,0,1-.19,1,2,2,0,0,1-.54.73,2.13,2.13,0,0,1-.8.43,3.22,3.22,0,0,1-1,.15h-.24a.85.85,0,0,1-.23,0c-.07,0-.11,0-.11-.07Z"/><path class="cls-3" d="M57.85,158.39a2.37,2.37,0,0,1-.71.7,1.74,1.74,0,0,1-.94.27,2.87,2.87,0,0,1-.64-.08,3.71,3.71,0,0,0-.65-.12,2.19,2.19,0,0,0-.63,0,1,1,0,0,0-.56.35l-.5-.66a2,2,0,0,1,.68-.54,1.84,1.84,0,0,1,.66-.12,3.44,3.44,0,0,1,.69.09,4.64,4.64,0,0,0,.77.09,1.68,1.68,0,0,0,1.48-.68Zm-1.65,10-1.47.39v-8.33l1.47-.58Z"/><path class="cls-3" d="M60,168.48a1.34,1.34,0,0,1-.29-.2,3.33,3.33,0,0,1-.48,1.16,6,6,0,0,1-.85,1,9.31,9.31,0,0,1-1.12.92q-.61.43-1.26.81l-1.23-1,1.11-.6a13.38,13.38,0,0,0,1.25-.81,6.31,6.31,0,0,0,1-.89,1.36,1.36,0,0,0,.41-.9.94.94,0,0,0-.08-.36,3.59,3.59,0,0,0-.21-.38A2.88,2.88,0,0,0,58,167l-.19-.26,1.12-1.2c.1.16.2.32.29.49a3.76,3.76,0,0,0,.3.44,1.75,1.75,0,0,0,.35.32.79.79,0,0,0,.45.12v1.68A.69.69,0,0,1,60,168.48Z"/><path class="cls-3" d="M60,167s0-.06.11-.08a.85.85,0,0,1,.23,0h2.06a3.13,3.13,0,0,0,.73-.08,1.08,1.08,0,0,0,.47-.22.6.6,0,0,0,.19-.46,1.62,1.62,0,0,1-.51.21,2,2,0,0,1-.54.07,1.61,1.61,0,0,1-1-.32,1.18,1.18,0,0,1-.4-1,3,3,0,0,1,.1-.75,2.87,2.87,0,0,1,.3-.74,2,2,0,0,1,.51-.57,1.15,1.15,0,0,1,.71-.22,1.29,1.29,0,0,1,.93.36,2.68,2.68,0,0,1,.59.87,3.78,3.78,0,0,1,.31,1.07,6.46,6.46,0,0,1,.09,1,2.52,2.52,0,0,1-.28,1.27,2.05,2.05,0,0,1-.73.76,2.76,2.76,0,0,1-1,.36,5.92,5.92,0,0,1-1.1.1H60.3a.85.85,0,0,1-.23,0c-.07,0-.11,0-.11-.07Zm3.81-6.17L62.9,162l-1.2-.81.88-1.17Zm-1,4.32a.88.88,0,0,0,.41-.1,2.36,2.36,0,0,0,.36-.26,1.81,1.81,0,0,0-.3-.51.63.63,0,0,0-.48-.21.5.5,0,0,0-.39.21.67.67,0,0,0-.16.41.39.39,0,0,0,.18.36A.75.75,0,0,0,62.78,165.15Z"/><path class="cls-3" d="M74.68,168.57a2.45,2.45,0,0,1-1.18-.31,2.21,2.21,0,0,1-.84-.85,2.26,2.26,0,0,1-2.33,1.34,2.52,2.52,0,0,1-2-.76l.52-1.33a2.14,2.14,0,0,0,.74.33,4.12,4.12,0,0,0,1.6.09,2.3,2.3,0,0,0,.52-.14,1,1,0,0,0,.36-.24.48.48,0,0,0,.14-.35.41.41,0,0,0,0-.12s0-.17-.11-.37-.16-.48-.3-.88l-.58-1.65,1.16-1,.72,2.34a11.84,11.84,0,0,0,.49,1.4,1.67,1.67,0,0,0,.48.68,1.11,1.11,0,0,0,.67.18H75v1.68Z"/><path class="cls-3" d="M75,168.57a.78.78,0,0,1-.22,0c-.07,0-.11,0-.11-.07V167s0-.06.11-.08a.78.78,0,0,1,.22,0h1.45v1.68Z"/><path class="cls-3" d="M76.42,168.57a.91.91,0,0,1-.23,0c-.07,0-.11,0-.11-.07V167s0-.06.11-.08a.91.91,0,0,1,.23,0h1.44v1.68Z"/><path class="cls-3" d="M77.86,168.57a.83.83,0,0,1-.22,0c-.07,0-.11,0-.11-.07V167s0-.06.11-.08a.83.83,0,0,1,.22,0h1.45v1.68Z"/><path class="cls-3" d="M79.31,168.57a.78.78,0,0,1-.22,0c-.08,0-.11,0-.11-.07V167s0-.06.11-.08a.78.78,0,0,1,.22,0h1.45v1.68Z"/><path class="cls-3" d="M80.75,168.57a.83.83,0,0,1-.22,0c-.07,0-.11,0-.11-.07V167s0-.06.11-.08a.83.83,0,0,1,.22,0H82.2v1.68Z"/><path class="cls-3" d="M82.2,168.57a.78.78,0,0,1-.22,0c-.08,0-.11,0-.11-.07V167s0-.06.11-.08a.78.78,0,0,1,.22,0h1.45v1.68Z"/><path class="cls-3" d="M83.65,168.57a.85.85,0,0,1-.23,0c-.07,0-.11,0-.11-.07V167s0-.06.11-.08a.85.85,0,0,1,.23,0h1.44v1.68Z"/><path class="cls-3" d="M84.76,167s0-.06.11-.08a.83.83,0,0,1,.22,0h.38c.4,0,.61-.24.61-.72v-.55l1.11-.32v.32a3.82,3.82,0,0,0,0,.64,1,1,0,0,0,.13.39.47.47,0,0,0,.23.19,1.06,1.06,0,0,0,.34,0H88l.94-1a14.19,14.19,0,0,1,1-1,6,6,0,0,1,1.08-.79,2.17,2.17,0,0,1,1.08-.31,1.88,1.88,0,0,1,.72.13,1.8,1.8,0,0,1,.56.36,1.5,1.5,0,0,1,.37.53,1.67,1.67,0,0,1,.13.67,2.5,2.5,0,0,1-.42,1.47,3.36,3.36,0,0,1-1,1,4.26,4.26,0,0,1-1.34.55,6.08,6.08,0,0,1-1.35.17H87.94a1.65,1.65,0,0,1-.74-.18.94.94,0,0,1-.5-.58,1.51,1.51,0,0,1-1.35.76h-.26a.83.83,0,0,1-.22,0c-.07,0-.11,0-.11-.07Zm7-1.72a1.89,1.89,0,0,0-1.15.45,16.75,16.75,0,0,0-1.29,1.16h.41l.41,0a4.82,4.82,0,0,0,.62-.05c.23,0,.46-.06.69-.1a4.64,4.64,0,0,0,.65-.18,1.75,1.75,0,0,0,.49-.28.53.53,0,0,0,.19-.4.39.39,0,0,0-.11-.28.73.73,0,0,0-.27-.17,1.39,1.39,0,0,0-.33-.1Z"/><path class="cls-3" d="M96.57,168.33a1.74,1.74,0,0,1-.71-.66,2.69,2.69,0,0,1-.35-1,9.39,9.39,0,0,1-.11-1.26c0-.21,0-.51,0-.91s0-.82,0-1.28,0-.94,0-1.43,0-.94,0-1.35l1.42-.58v5.73a1.54,1.54,0,0,0,.26,1,1,1,0,0,0,.84.33v1.68A2.62,2.62,0,0,1,96.57,168.33Z"/><path class="cls-3" d="M97.46,167s0-.06.1-.08a.91.91,0,0,1,.23,0h.95c.49,0,.74-.12.74-.35a.4.4,0,0,0,0-.15,1.28,1.28,0,0,0-.12-.22,2.23,2.23,0,0,0-.24-.36l-.42-.54.94-1.33a2.47,2.47,0,0,1,.7,1,3.32,3.32,0,0,1,.25,1.28,2.57,2.57,0,0,1-.19,1,2,2,0,0,1-.54.73,2.13,2.13,0,0,1-.8.43,3.22,3.22,0,0,1-1,.15h-.24a.91.91,0,0,1-.23,0c-.07,0-.1,0-.1-.07Zm.1-4.43.72-1,.94.62.53-.73,1.12.73-.74,1-.95-.62-.5.73Z"/><path class="cls-3" d="M105.76,168.48a1.55,1.55,0,0,1-.28-.2,3.76,3.76,0,0,1-.48,1.16,5.59,5.59,0,0,1-.86,1,8.48,8.48,0,0,1-1.11.92c-.41.29-.83.56-1.27.81l-1.23-1,1.12-.6a13.22,13.22,0,0,0,1.24-.81,6.41,6.41,0,0,0,1-.89,1.41,1.41,0,0,0,.41-.9.8.8,0,0,0-.09-.36,3.48,3.48,0,0,0-.2-.38c-.08-.12-.15-.24-.23-.34l-.19-.26,1.11-1.2a4.94,4.94,0,0,1,.3.49,2.83,2.83,0,0,0,.3.44,1.7,1.7,0,0,0,.34.32.84.84,0,0,0,.45.12v1.68A.72.72,0,0,1,105.76,168.48Z"/><path class="cls-3" d="M110.58,168.57a3.29,3.29,0,0,1-1-.16,5.17,5.17,0,0,1-.94-.39,4.45,4.45,0,0,1-.86.39,2.77,2.77,0,0,1-.94.16h-.72a.78.78,0,0,1-.22,0c-.07,0-.11,0-.11-.07V167s0-.06.11-.08a.78.78,0,0,1,.22,0h1.27a4.54,4.54,0,0,1-.21-.45,1.33,1.33,0,0,1-.08-.45,1.79,1.79,0,0,1,.19-.79,2.68,2.68,0,0,1,.47-.73,2.81,2.81,0,0,1,.63-.52,1.41,1.41,0,0,1,.7-.2.89.89,0,0,1,.58.2,1.62,1.62,0,0,1,.4.49,2.72,2.72,0,0,1,.23.62,2.62,2.62,0,0,1,.07.59,1.5,1.5,0,0,1-.13.59,2.89,2.89,0,0,1-.37.65H111v1.68Zm-.81-6.81-.86,1.15-1.2-.81.88-1.17Zm-1.7,4.16a.47.47,0,0,0,.16.34,1.49,1.49,0,0,0,.43.31,2,2,0,0,0,.54-.35.55.55,0,0,0,.2-.4.51.51,0,0,0-.18-.39.62.62,0,0,0-.43-.16.72.72,0,0,0-.49.21A.62.62,0,0,0,108.07,165.92Z"/><path class="cls-3" d="M110.67,167s0-.06.11-.08a.83.83,0,0,1,.22,0h.38c.4,0,.61-.24.61-.72v-.55l1.11-.32v.32a3.82,3.82,0,0,0,0,.64,1.26,1.26,0,0,0,.13.39.47.47,0,0,0,.23.19,1.06,1.06,0,0,0,.34,0h.08l.94-1a14.19,14.19,0,0,1,1-1A6.31,6.31,0,0,1,117,164a2.18,2.18,0,0,1,1.09-.31,1.83,1.83,0,0,1,.71.13,1.69,1.69,0,0,1,.56.36,1.5,1.5,0,0,1,.37.53,1.67,1.67,0,0,1,.13.67,2.5,2.5,0,0,1-.42,1.47,3.36,3.36,0,0,1-1,1,4.26,4.26,0,0,1-1.34.55,6.08,6.08,0,0,1-1.35.17h-1.82a1.68,1.68,0,0,1-.74-.18.94.94,0,0,1-.5-.58,1.51,1.51,0,0,1-1.35.76H111a.83.83,0,0,1-.22,0c-.07,0-.11,0-.11-.07Zm7-1.72a1.84,1.84,0,0,0-1.14.45,15,15,0,0,0-1.3,1.16h.41l.41,0a4.82,4.82,0,0,0,.62-.05c.23,0,.46-.06.69-.1a4.64,4.64,0,0,0,.65-.18,1.75,1.75,0,0,0,.49-.28.53.53,0,0,0,.19-.4.39.39,0,0,0-.11-.28.73.73,0,0,0-.27-.17,1.39,1.39,0,0,0-.33-.1Z"/><path class="cls-3" d="M129.12,172.88l-3.27.85-.1-.52,3.24-.91Z"/><path class="cls-3" d="M131.51,165.43a3,3,0,0,0-1.2-.17,1.81,1.81,0,0,0-.55.09,1.85,1.85,0,0,0-.53.25,1.9,1.9,0,0,0-.4.33.58.58,0,0,0-.16.37.25.25,0,0,0,.22.25,3.14,3.14,0,0,0,.55.09l.71.05a2.79,2.79,0,0,1,.71.14,1.39,1.39,0,0,1,.55.36,1.06,1.06,0,0,1,.21.7,2.62,2.62,0,0,1-.43,1.5,3.94,3.94,0,0,1-1.1,1.09,5.43,5.43,0,0,1-1.47.65,5.71,5.71,0,0,1-1.55.23,5.14,5.14,0,0,1-1.6-.23,3.11,3.11,0,0,1-1.14-.62,2.57,2.57,0,0,1-.67-.95,3.06,3.06,0,0,1-.22-1.18,4.5,4.5,0,0,1,.16-1.17,6,6,0,0,1,.52-1.22l1.14.39a4.91,4.91,0,0,0-.34.8,2.56,2.56,0,0,0-.12.76,1.75,1.75,0,0,0,.13.7,1.49,1.49,0,0,0,.45.56,2.4,2.4,0,0,0,.77.37,4.07,4.07,0,0,0,1.12.14,4.91,4.91,0,0,0,1-.12,6.87,6.87,0,0,0,1.06-.3,4.2,4.2,0,0,0,.85-.43c.23-.16.34-.31.34-.47s-.05-.14-.16-.18a3,3,0,0,0-.47-.08l-.68,0c-.25,0-.52,0-.81-.08a1,1,0,0,1-1-1.11,2.81,2.81,0,0,1,.28-1.24,3.64,3.64,0,0,1,1.77-1.72,2.77,2.77,0,0,1,1.17-.27,2.65,2.65,0,0,1,.63.08,2.36,2.36,0,0,1,.59.26Z"/><path class="cls-3" d="M134.73,168.38l-1.47.39v-8.33l1.47-.58Z"/><path class="cls-3" d="M138.48,168.48a1.55,1.55,0,0,1-.28-.2,3.76,3.76,0,0,1-.48,1.16,5.59,5.59,0,0,1-.86,1,8.48,8.48,0,0,1-1.11.92q-.62.43-1.26.81l-1.23-1,1.11-.6a13.22,13.22,0,0,0,1.24-.81,6.41,6.41,0,0,0,1-.89,1.41,1.41,0,0,0,.41-.9.8.8,0,0,0-.09-.36,2.32,2.32,0,0,0-.2-.38c-.08-.12-.15-.24-.23-.34l-.19-.26,1.11-1.2a4.94,4.94,0,0,1,.3.49,2.83,2.83,0,0,0,.3.44,1.7,1.7,0,0,0,.34.32.84.84,0,0,0,.45.12v1.68A.72.72,0,0,1,138.48,168.48Z"/><path class="cls-3" d="M138.49,167s0-.06.11-.08a.83.83,0,0,1,.22,0h1.28l.75,0a3.08,3.08,0,0,0,.63-.09,7.35,7.35,0,0,0,.83-.26l1.37-.51-1.27-.35-.67-.19a.7.7,0,0,0-.52.05,1.65,1.65,0,0,0-.42.34l-1-.68a3.82,3.82,0,0,1,.88-1.13,1.17,1.17,0,0,1,1-.25,6.55,6.55,0,0,1,1,.2l1,.27c.34.1.7.19,1.07.28a9.45,9.45,0,0,0,1.18.24l.57.05.56,0-.45,1.65-.61,0a2.63,2.63,0,0,0-.49.05,2.26,2.26,0,0,0-.47.14,4.31,4.31,0,0,0-.54.26c-.49.28-.9.52-1.22.73a7.3,7.3,0,0,1-1,.5,4.5,4.5,0,0,1-1,.31,9.15,9.15,0,0,1-1.44.1h-1.07a.83.83,0,0,1-.22,0c-.07,0-.11,0-.11-.07Zm3,3.81.87-1.16,1.2.81-.89,1.17Z"/><path class="cls-3" d="M150,168.38l-1.47.39v-8.33l1.47-.58Z"/><path class="cls-3" d="M2.69,150H135.27c19.1-32.07,17.8-71.92-21-117.65C102.35,18.26,90.16,7.63,77.94,0H2.69Z"/></svg>