<svg id="Layer_1" data-name="Layer 1" xmlns="http://www.w3.org/2000/svg" xmlns:xlink="http://www.w3.org/1999/xlink" viewBox="0 0 150 15.19"><defs><style>.cls-1{fill:none;clip-rule:evenodd;}.cls-2{clip-path:url(#clip-path);}.cls-3{clip-path:url(#clip-path-2);}.cls-4{fill:#231f20;}</style><clipPath id="clip-path"><path class="cls-1" d="M309-156H161c7.81,96.24,39.82,153.51,109,149.61Q290.07-7.51,309-8.91Z"/></clipPath><clipPath id="clip-path-2"><path class="cls-1" d="M-160-6.69c43.66,3.46,100.16-6.26,150-27V-156H-160Z"/></clipPath></defs><g class="cls-2"><image width="548" height="707" transform="translate(113.83 -180.37) scale(0.43)" xlink:href="../attachments-2/beyond%20a%20brand%20book%20-%20%20%20%D9%81%D8%B1%D8%A7%D8%AA%D8%B2%20%D8%A7%D8%B2%20%D8%A8%D8%B1%D9%86%D8%AF%D8%A8%D9%88%DA%A9.png"/></g><g class="cls-3"><image width="700" height="720" transform="translate(-219.46 -164.33) scale(0.35)" xlink:href="../attachments-2/%D8%AA%D9%88%D9%84%DB%8C%D8%AF%20%D9%85%D8%AD%D8%AA%D9%88%D8%A7%DB%8C%20%D8%A7%D8%AE%D8%AA%D8%B5%D8%A7%D8%B5%DB%8C%20%20%D9%88%20%D8%AA%D8%AE%D8%B5%D8%B5%DB%8C.jpg"/></g><path class="cls-4" d="M7.05,10.07a1.22,1.22,0,0,1,0,.5,2.46,2.46,0,0,1-.15.51,2.9,2.9,0,0,1-1,1.09,4.35,4.35,0,0,1-1.4.64A5,5,0,0,1,3,13a4,4,0,0,1-1.49-.37,2.78,2.78,0,0,1-1.09-.92A2.58,2.58,0,0,1,0,10.15,3.76,3.76,0,0,1,.19,8.93,5.57,5.57,0,0,1,.65,7.84l1.09.38A7.59,7.59,0,0,0,1.41,9a2.44,2.44,0,0,0-.16.84,1.52,1.52,0,0,0,.22.87,1.36,1.36,0,0,0,.57.52,2.19,2.19,0,0,0,.8.22,3.87,3.87,0,0,0,.9,0,5.21,5.21,0,0,0,.89-.19A4.6,4.6,0,0,0,5.39,11c.19-.09.28-.17.29-.23s0-.11-.11-.14L4,10.07a1.91,1.91,0,0,1,.1-.27c0-.11.08-.23.13-.35s.1-.23.14-.34a1.5,1.5,0,0,1,.15-.26,1.06,1.06,0,0,1,.32-.34,1,1,0,0,1,.49-.09H7.12v1.65Z"/><path class="cls-4" d="M16.16,10.07a2,2,0,0,1-.92-.21,2.44,2.44,0,0,1-.74-.58,4.2,4.2,0,0,1-1.34.59,5.43,5.43,0,0,1-1.45.2H9.92A1.53,1.53,0,0,1,9.2,9.9a.92.92,0,0,1-.5-.57,1.49,1.49,0,0,1-1.33.74H7.12l-.22,0c-.07,0-.11-.05-.11-.08V8.54s0-.07.11-.09a.78.78,0,0,1,.22,0h.37c.4,0,.6-.23.6-.71V7.17l1.09-.31v.31a5,5,0,0,0,0,.63,1.26,1.26,0,0,0,.13.39.42.42,0,0,0,.22.18.84.84,0,0,0,.34.05H10l.92-1c.33-.36.66-.7,1-1A6,6,0,0,1,13,5.6a2.11,2.11,0,0,1,1.07-.31,1.75,1.75,0,0,1,.7.13,1.5,1.5,0,0,1,.56.36,1.43,1.43,0,0,1,.36.52A1.59,1.59,0,0,1,15.8,7a2.57,2.57,0,0,1-.1.75,2.07,2.07,0,0,1-.26.58c.05.09.32.13.82.13h.18v1.65ZM13.67,6.84a1.88,1.88,0,0,0-1.14.44c-.37.3-.8.68-1.27,1.14h.8l.62-.05a5.65,5.65,0,0,0,.68-.11A3.71,3.71,0,0,0,14,8.07a1.58,1.58,0,0,0,.48-.27.51.51,0,0,0,.18-.39.37.37,0,0,0-.11-.28A.84.84,0,0,0,14.29,7,1.59,1.59,0,0,0,14,6.87Z"/><path class="cls-4" d="M16.44,10.07l-.22,0c-.07,0-.11-.05-.11-.08V8.54s0-.07.11-.09a.83.83,0,0,1,.22,0h1.42v1.65Z"/><path class="cls-4" d="M17.86,10.07l-.22,0c-.07,0-.1-.05-.1-.08V8.54s0-.07.1-.09a.83.83,0,0,1,.22,0h1.43v1.65Z"/><path class="cls-4" d="M19.29,10.07l-.22,0C19,10,19,10,19,10V8.54s0-.07.11-.09a.78.78,0,0,1,.22,0h1.42v1.65Z"/><path class="cls-4" d="M20.71,10.07l-.22,0c-.07,0-.11-.05-.11-.08V8.54s0-.07.11-.09a.83.83,0,0,1,.22,0h1.42v1.65Z"/><path class="cls-4" d="M22.13,10.07l-.22,0c-.07,0-.1-.05-.1-.08V8.54s0-.07.1-.09a.83.83,0,0,1,.22,0h1.43v1.65Z"/><path class="cls-4" d="M23.56,10.07l-.22,0c-.07,0-.11-.05-.11-.08V8.54s0-.07.11-.09a.78.78,0,0,1,.22,0H25v1.65Z"/><path class="cls-4" d="M25,10.07l-.22,0c-.07,0-.11-.05-.11-.08V8.54s0-.07.11-.09a.83.83,0,0,1,.22,0H26.4v1.65Z"/><path class="cls-4" d="M26.4,10.07l-.22,0c-.07,0-.1-.05-.1-.08V8.54s0-.07.1-.09a.83.83,0,0,1,.22,0h1.43v1.65Z"/><path class="cls-4" d="M27.83,10.07l-.22,0c-.07,0-.11-.05-.11-.08V8.54s0-.07.11-.09a.78.78,0,0,1,.22,0h1.42v1.65Z"/><path class="cls-4" d="M38.29,10.07a2,2,0,0,1-.92-.21,2.4,2.4,0,0,1-.73-.58,4.36,4.36,0,0,1-1.35.59,5.36,5.36,0,0,1-1.44.2H32.06a1.59,1.59,0,0,1-.73-.17,1,1,0,0,1-.5-.57,1.46,1.46,0,0,1-1.32.74h-.26l-.22,0c-.07,0-.11-.05-.11-.08V8.54s0-.07.11-.09a.83.83,0,0,1,.22,0h.37c.4,0,.6-.23.6-.71V7.17l1.09-.31v.31a3.48,3.48,0,0,0,.05.63,1,1,0,0,0,.13.39.39.39,0,0,0,.22.18.82.82,0,0,0,.33.05h.09l.91-1q.49-.54,1-1a5.38,5.38,0,0,1,1.06-.77,2.08,2.08,0,0,1,1.06-.31,1.83,1.83,0,0,1,.71.13,1.46,1.46,0,0,1,.55.36,1.59,1.59,0,0,1,.37.52,1.76,1.76,0,0,1,.12.66,2.57,2.57,0,0,1-.1.75,2.07,2.07,0,0,1-.25.58c.05.09.32.13.81.13h.18v1.65ZM35.8,6.84a1.84,1.84,0,0,0-1.13.44c-.38.3-.8.68-1.28,1.14h.81l.61-.05a5.65,5.65,0,0,0,.68-.11,3.47,3.47,0,0,0,.64-.18,1.37,1.37,0,0,0,.48-.27.52.52,0,0,0,.19-.39.41.41,0,0,0-.11-.28A1,1,0,0,0,36.43,7a2,2,0,0,0-.33-.09Z"/><path class="cls-4" d="M45.92,10.07c-1.08,0-1.64-.67-1.67-2a7.59,7.59,0,0,0-.9.62c-.29.23-.59.45-.91.66a5.35,5.35,0,0,1-1,.53,3.42,3.42,0,0,1-1.29.22H38.57l-.22,0c-.07,0-.1-.05-.1-.08V8.54s0-.07.1-.09l.22,0H39.9a4.46,4.46,0,0,0,.91-.09,4.94,4.94,0,0,0,.83-.25,7.93,7.93,0,0,0,.79-.37c.26-.14.52-.3.8-.47l-.56-.1L42.1,7,41.6,7l-.32,0a.52.52,0,0,0-.34.15,2.27,2.27,0,0,0-.33.42l-1-.5c.43-1.1.94-1.65,1.52-1.65a5.14,5.14,0,0,1,.91.11l1.21.26c.44.09.89.18,1.36.25a8.19,8.19,0,0,0,1.37.12c.2,0,.42,0,.64,0l-.18,1.58a3.91,3.91,0,0,0-1.28.18c.06.28.16.45.33.51a1.84,1.84,0,0,0,.71.1h1.08v1.65Zm-2.48-6.7-.85,1.14-1.18-.8.87-1.15Z"/><path class="cls-4" d="M46.9,8.54s0-.07.11-.09a.78.78,0,0,1,.22,0h.94c.48,0,.72-.11.72-.34a.39.39,0,0,0,0-.15,1.81,1.81,0,0,0-.12-.22c0-.09-.14-.21-.24-.35s-.24-.31-.41-.53L49,5.52a2.35,2.35,0,0,1,.69,1A3.27,3.27,0,0,1,50,7.77a2.48,2.48,0,0,1-.19,1,1.9,1.9,0,0,1-.53.71,2.08,2.08,0,0,1-.79.43,3.1,3.1,0,0,1-1,.14h-.24l-.22,0c-.07,0-.11-.05-.11-.08ZM47,4.17l.71-1,.93.61.53-.73,1.09.73-.72,1-.94-.61-.49.72Z"/><path class="cls-4" d="M61.46,7a2.91,2.91,0,0,0-1.18-.18,1.82,1.82,0,0,0-.54.1,2.25,2.25,0,0,0-.52.24,1.84,1.84,0,0,0-.39.33.56.56,0,0,0-.16.36.25.25,0,0,0,.22.25,2.38,2.38,0,0,0,.54.08l.7.05a2.65,2.65,0,0,1,.69.15,1.18,1.18,0,0,1,.54.35,1,1,0,0,1,.22.68,2.61,2.61,0,0,1-.43,1.49A3.76,3.76,0,0,1,60.07,12a5.14,5.14,0,0,1-1.45.65,5.49,5.49,0,0,1-1.53.22,5,5,0,0,1-1.57-.22A3.25,3.25,0,0,1,54.4,12a2.55,2.55,0,0,1-.66-.93,3,3,0,0,1-.22-1.17,4.89,4.89,0,0,1,.16-1.15,5.15,5.15,0,0,1,.51-1.2l1.12.38a4.75,4.75,0,0,0-.33.79,2.5,2.5,0,0,0-.12.75,1.73,1.73,0,0,0,.13.69,1.4,1.4,0,0,0,.44.54,2.16,2.16,0,0,0,.76.37,4,4,0,0,0,1.1.14,4.82,4.82,0,0,0,1-.12,6.61,6.61,0,0,0,1-.29,4.26,4.26,0,0,0,.83-.42c.23-.16.35-.31.35-.47s-.06-.14-.17-.17a2,2,0,0,0-.45-.08l-.67-.05c-.25,0-.52,0-.81-.08a1.13,1.13,0,0,1-.72-.36,1.15,1.15,0,0,1-.23-.74,2.69,2.69,0,0,1,.28-1.21,3.37,3.37,0,0,1,.72-1,4,4,0,0,1,1-.69,2.77,2.77,0,0,1,1.15-.25,2.15,2.15,0,0,1,.62.08,2,2,0,0,1,.58.25Z"/><path class="cls-4" d="M64.37,9.84a1.73,1.73,0,0,1-.69-.65,2.58,2.58,0,0,1-.34-1A7.83,7.83,0,0,1,63.23,7q0-.32,0-.9c0-.38,0-.81,0-1.26l0-1.4c0-.48,0-.93,0-1.34l1.4-.57V7.14a1.51,1.51,0,0,0,.25,1,1,1,0,0,0,.83.32v1.65A2.58,2.58,0,0,1,64.37,9.84Z"/><path class="cls-4" d="M65.25,8.54s0-.07.11-.09a.78.78,0,0,1,.22,0H66.8a1.27,1.27,0,0,1-.26-.72,1.76,1.76,0,0,1,.31-1A2.75,2.75,0,0,1,67.57,6l-.31-.2.68-1.48L69,5.05a12.53,12.53,0,0,1,1.26,1.07,8.45,8.45,0,0,1,1,1.24,2.3,2.3,0,0,1,.44,1.28,3.85,3.85,0,0,1-.09.86,2.05,2.05,0,0,1-.28.65,1.11,1.11,0,0,1-.42.39.6.6,0,0,1-.49,0,7.32,7.32,0,0,1-1-.34q-.54-.23-1.08-.51a4.44,4.44,0,0,1-.9.28,5,5,0,0,1-.78.07H65.58l-.22,0c-.07,0-.11-.05-.11-.08ZM67.88,8c.11.07.25.16.42.25a1,1,0,0,0,.53-.39A1,1,0,0,0,69,7.4a.45.45,0,0,0-.07-.25,1.28,1.28,0,0,0-.17-.22.82.82,0,0,0-.22-.16.48.48,0,0,0-.21-.06.52.52,0,0,0-.26.08,2.12,2.12,0,0,0-.24.2,1.1,1.1,0,0,0-.18.26.49.49,0,0,0-.07.23,1,1,0,0,0,0,.24A.62.62,0,0,0,67.88,8Zm2.08,0a2.09,2.09,0,0,1-.19.5,2.71,2.71,0,0,1-.28.41l.35.16.33.14.32.1c.07,0,.14,0,.2-.17a.91.91,0,0,0-.1-.8A3.23,3.23,0,0,0,70,7.7,1,1,0,0,1,70,8.05Z"/><path class="cls-4" d="M79.6,10.07a1.37,1.37,0,0,1-1.2-.59A3.07,3.07,0,0,1,78,7.8a7.64,7.64,0,0,0-2.13,1.14,4.79,4.79,0,0,0-1.25,1.39,2.21,2.21,0,0,0-.3,1.38A1.61,1.61,0,0,0,75,12.84a3.59,3.59,0,0,0,1.74.62,9.28,9.28,0,0,0,2.85-.14l.48,1.42a7.68,7.68,0,0,1-1.45.37,7.58,7.58,0,0,1-1.58.07,7.2,7.2,0,0,1-1.54-.27,4.08,4.08,0,0,1-1.31-.63,3.18,3.18,0,0,1-.91-1,3.13,3.13,0,0,1-.34-1.5,3.44,3.44,0,0,1,.31-1.48A4.68,4.68,0,0,1,74.06,9a6.45,6.45,0,0,1,1.12-1,8.06,8.06,0,0,1,1.26-.73l-1-.11c-.25,0-.43-.05-.54-.05s-.42.18-.66.53l-1.07-.5A4.23,4.23,0,0,1,73.88,6a1.22,1.22,0,0,1,1-.41,7.06,7.06,0,0,1,.74.05l.93.12,1.16.11c.43,0,.91,0,1.44,0l.56,0,.55,0L80,7.48a10.69,10.69,0,0,0-1.17.09.84.84,0,0,0,.26.65,1.11,1.11,0,0,0,.74.2h1v1.65ZM77,3.57l-.85,1.14-1.18-.8.87-1.15Z"/><path class="cls-4" d="M80.88,10.07l-.22,0c-.07,0-.11-.05-.11-.08V8.54s0-.07.11-.09a.78.78,0,0,1,.22,0H82.3v1.65Z"/><path class="cls-4" d="M82.3,10.07l-.22,0C82,10,82,10,82,10V8.54s0-.07.11-.09a.83.83,0,0,1,.22,0h1.43v1.65Z"/><path class="cls-4" d="M83.73,10.07l-.22,0c-.08,0-.11-.05-.11-.08V8.54s0-.07.11-.09a.78.78,0,0,1,.22,0h1.42v1.65Z"/><path class="cls-4" d="M85.15,10.07l-.22,0c-.07,0-.11-.05-.11-.08V8.54s0-.07.11-.09a.78.78,0,0,1,.22,0h1.42v1.65Z"/><path class="cls-4" d="M86.57,10.07l-.22,0c-.07,0-.1-.05-.1-.08V8.54s0-.07.1-.09a.83.83,0,0,1,.22,0H88v1.65Z"/><path class="cls-4" d="M88,10.07l-.22,0c-.08,0-.11-.05-.11-.08V8.54s0-.07.11-.09a.78.78,0,0,1,.22,0h1.42v1.65Z"/><path class="cls-4" d="M89.09,8.54s0-.07.11-.09a.78.78,0,0,1,.22,0h.14a1,1,0,0,0,.64-.21.76.76,0,0,0,.26-.61V7.18l1-.34v.44a1.66,1.66,0,0,0,.19.84.61.61,0,0,0,.55.3c.67,0,1-.3,1-.89V7l1-.3V7.4a1.12,1.12,0,0,0,.29.77.92.92,0,0,0,.72.31.59.59,0,0,0,.47-.16.57.57,0,0,0,.13-.4,1.29,1.29,0,0,0-.14-.56,1.52,1.52,0,0,0-.33-.43l1-1.11a2.67,2.67,0,0,1,.49.89,3.32,3.32,0,0,1,.17,1,3.12,3.12,0,0,1-.12.85,2.32,2.32,0,0,1-.33.75,1.8,1.8,0,0,1-.56.54,1.38,1.38,0,0,1-.76.21,2.12,2.12,0,0,1-1-.21,1.39,1.39,0,0,1-.62-.6,1.29,1.29,0,0,1-.54.57,1.54,1.54,0,0,1-.72.22,1.8,1.8,0,0,1-.82-.18A1.36,1.36,0,0,1,91,9.33a1.31,1.31,0,0,1-.68.57,2.32,2.32,0,0,1-.87.17l-.22,0c-.07,0-.11-.05-.11-.08Z"/><path class="cls-4" d="M99.59,9.84a1.76,1.76,0,0,1-.7-.65,2.77,2.77,0,0,1-.34-1A9.22,9.22,0,0,1,98.44,7c0-.21,0-.51,0-.9s0-.81,0-1.26,0-.93,0-1.4,0-.93,0-1.34l1.39-.57V7.14a1.51,1.51,0,0,0,.26,1,1,1,0,0,0,.82.32v1.65A2.57,2.57,0,0,1,99.59,9.84Z"/><path class="cls-4" d="M102.77,11.87l-.71,1-.93-.62-.52.72-1.1-.72.74-1,.93.63.51-.73Zm-2.31-3.33s0-.07.11-.09a.83.83,0,0,1,.22,0h.94c.49,0,.73-.11.73-.34a.4.4,0,0,0,0-.15l-.11-.22c-.06-.09-.14-.21-.25-.35s-.24-.31-.41-.53l.93-1.31a2.55,2.55,0,0,1,.69,1,3.46,3.46,0,0,1,.25,1.27,2.47,2.47,0,0,1-.2,1,1.87,1.87,0,0,1-.52.71,2.25,2.25,0,0,1-.79.43,3.16,3.16,0,0,1-1,.14h-.24l-.22,0c-.07,0-.11-.05-.11-.08Zm1.8,4.89-.73,1-1-.69.7-.94Z"/><path class="cls-4" d="M106.17,12.72c.31-.15.66-.34,1.08-.58s.81-.5,1.19-.77a6.12,6.12,0,0,0,1-.86,1.45,1.45,0,0,0,.44-.86,1.7,1.7,0,0,1-.44.16,2.37,2.37,0,0,1-.52.06,1.53,1.53,0,0,1-1.19-.39,1.48,1.48,0,0,1-.35-1,2.9,2.9,0,0,1,.11-.8,2.5,2.5,0,0,1,.32-.75,1.9,1.9,0,0,1,.52-.57,1.25,1.25,0,0,1,.74-.23,1.37,1.37,0,0,1,.94.33,2.35,2.35,0,0,1,.59.8,3.94,3.94,0,0,1,.31,1,5.45,5.45,0,0,1,.08.92,3.37,3.37,0,0,1-.29,1.44,4.16,4.16,0,0,1-.79,1.17,7.42,7.42,0,0,1-1.14,1c-.44.31-.89.61-1.38.89Zm3.58-4.33a1.84,1.84,0,0,0-.29-.65.6.6,0,0,0-.5-.27.57.57,0,0,0-.41.18.66.66,0,0,0-.19.46.36.36,0,0,0,.22.34,1,1,0,0,0,.47.1,1.74,1.74,0,0,0,.39-.05A1.37,1.37,0,0,0,109.75,8.39Z"/><path class="cls-4" d="M127.5,10.07a1.81,1.81,0,0,1-.8-.16,1.26,1.26,0,0,1-.56-.58,1.57,1.57,0,0,1-.58.54,1.43,1.43,0,0,1-.71.19,1.36,1.36,0,0,1-.64-.17,1.44,1.44,0,0,1-.53-.56,1.57,1.57,0,0,1-1.41.73,1.1,1.1,0,0,1-.64-.19,3.83,3.83,0,0,1-.33,1.35,3.63,3.63,0,0,1-.79,1.1,3.59,3.59,0,0,1-1.2.75,4.09,4.09,0,0,1-1.56.28,3.91,3.91,0,0,1-1.44-.24,2.84,2.84,0,0,1-1-.67,2.88,2.88,0,0,1-.59-1,4,4,0,0,1-.19-1.21,4.69,4.69,0,0,1,.14-1.11,4.06,4.06,0,0,1,.45-1l1.05.37a4.91,4.91,0,0,0-.29.74,2.82,2.82,0,0,0-.09.71,2,2,0,0,0,.12.71,1.44,1.44,0,0,0,.37.57,1.63,1.63,0,0,0,.63.38,2.53,2.53,0,0,0,.92.15,3.29,3.29,0,0,0,1-.16,2.06,2.06,0,0,0,.74-.43,1.74,1.74,0,0,0,.45-.63,2,2,0,0,0,.15-.78,2.91,2.91,0,0,0-.15-.89,3.54,3.54,0,0,0-.46-.91l1.2-1a4.48,4.48,0,0,0,.32.56,3.75,3.75,0,0,0,.36.48,1.48,1.48,0,0,0,.38.34.63.63,0,0,0,.39.13,1,1,0,0,0,.65-.17.64.64,0,0,0,.2-.54v-.5l1-.35v.48a1.35,1.35,0,0,0,.19.83,1,1,0,0,0,1.27.06.7.7,0,0,0,.2-.52v-.5l1-.35v.59c0,.18,0,.32,0,.44a.82.82,0,0,0,.08.3.47.47,0,0,0,.23.18,1.66,1.66,0,0,0,.44.05h.22v1.65ZM122,5.33l.71-1,.93.61.53-.73,1.08.73-.71,1-.94-.62-.5.73Zm.53-1.58.73-.94,1,.67-.7.94Z"/><path class="cls-4" d="M127.77,10.07l-.22,0c-.08,0-.11-.05-.11-.08V8.54s0-.07.11-.09a.78.78,0,0,1,.22,0h1.42v1.65Z"/><path class="cls-4" d="M129.19,10.07l-.22,0c-.07,0-.11-.05-.11-.08V8.54s0-.07.11-.09a.78.78,0,0,1,.22,0h1.42v1.65Z"/><path class="cls-4" d="M130.61,10.07l-.22,0c-.07,0-.1-.05-.1-.08V8.54s0-.07.1-.09a.83.83,0,0,1,.22,0H132v1.65Z"/><path class="cls-4" d="M132,10.07l-.22,0c-.08,0-.11-.05-.11-.08V8.54s0-.07.11-.09a.78.78,0,0,1,.22,0h1.42v1.65Z"/><path class="cls-4" d="M133.46,10.07l-.22,0c-.07,0-.11-.05-.11-.08V8.54s0-.07.11-.09a.78.78,0,0,1,.22,0h1.42v1.65Z"/><path class="cls-4" d="M134.56,8.54s0-.07.1-.09a.83.83,0,0,1,.22,0H135a1,1,0,0,0,.64-.21.75.75,0,0,0,.25-.61V7.18l1-.34v.44a1.66,1.66,0,0,0,.18.84.62.62,0,0,0,.56.3c.66,0,1-.3,1-.89V7l1-.3V7.4a1.11,1.11,0,0,0,.28.77.93.93,0,0,0,.73.31.51.51,0,0,0,.59-.56,1.16,1.16,0,0,0-.14-.56,1.23,1.23,0,0,0-.33-.43l1-1.11a2.86,2.86,0,0,1,.49.89,3.31,3.31,0,0,1,.16,1,3.54,3.54,0,0,1-.11.85,2.57,2.57,0,0,1-.34.75,1.77,1.77,0,0,1-.55.54,1.43,1.43,0,0,1-.76.21,2.12,2.12,0,0,1-1-.21,1.34,1.34,0,0,1-.62-.6,1.41,1.41,0,0,1-.54.57,1.54,1.54,0,0,1-.73.22,1.83,1.83,0,0,1-.82-.18,1.42,1.42,0,0,1-.58-.56,1.27,1.27,0,0,1-.68.57,2.25,2.25,0,0,1-.87.17l-.22,0c-.07,0-.1-.05-.1-.08Z"/><path class="cls-4" d="M146.14,10a1,1,0,0,1-.28-.2,3.7,3.7,0,0,1-.48,1.15,5.69,5.69,0,0,1-.84,1,8.84,8.84,0,0,1-1.09.9c-.41.29-.82.55-1.25.8L141,12.72c.3-.15.67-.35,1.1-.59a12.09,12.09,0,0,0,1.22-.79,6.18,6.18,0,0,0,1-.88,1.36,1.36,0,0,0,.4-.88.78.78,0,0,0-.08-.36,3.35,3.35,0,0,0-.2-.37c-.08-.12-.15-.24-.23-.34s-.14-.19-.18-.26l1.09-1.18c.11.16.2.32.3.48a2.4,2.4,0,0,0,.29.44,1.41,1.41,0,0,0,.34.31.78.78,0,0,0,.44.12v1.65A.64.64,0,0,1,146.14,10Z"/><path class="cls-4" d="M149.29,11.87l-.71,1-.93-.62-.53.72L146,12.22l.74-1,.92.63.52-.73Zm-3.13-3.33s0-.07.1-.09a.83.83,0,0,1,.22,0h1.71c.5,0,.74-.11.74-.34a.4.4,0,0,0,0-.15,1.45,1.45,0,0,0-.11-.22l-.24-.35-.43-.53.93-1.31a2.55,2.55,0,0,1,.69,1A3.28,3.28,0,0,1,150,7.77a2.48,2.48,0,0,1-.19,1,2,2,0,0,1-.53.71,2.16,2.16,0,0,1-.79.43,3.1,3.1,0,0,1-1,.14h-1l-.22,0c-.07,0-.1-.05-.1-.08Zm2.62,4.89-.73,1-1-.69.7-.94Z"/></svg>