<svg id="Layer_1" data-name="Layer 1" xmlns="http://www.w3.org/2000/svg" viewBox="0 0 18 18"><defs><style>.cls-1{fill:#6d6e70;}.cls-2{fill:#fff;}</style></defs><circle class="cls-1" cx="9" cy="9" r="9"/><path class="cls-2" d="M9,5.08c1.28,0,1.43,0,1.93,0a2.47,2.47,0,0,1,.89.17,1.5,1.5,0,0,1,.9.9,2.47,2.47,0,0,1,.17.89c0,.5,0,.65,0,1.93s0,1.43,0,1.93a2.47,2.47,0,0,1-.17.89,1.5,1.5,0,0,1-.9.9,2.47,2.47,0,0,1-.89.17c-.5,0-.65,0-1.93,0s-1.43,0-1.93,0a2.47,2.47,0,0,1-.89-.17,1.5,1.5,0,0,1-.9-.9,2.47,2.47,0,0,1-.17-.89c0-.5,0-.65,0-1.93s0-1.43,0-1.93a2.47,2.47,0,0,1,.17-.89,1.5,1.5,0,0,1,.9-.9,2.47,2.47,0,0,1,.89-.17c.5,0,.65,0,1.93,0m0-.86c-1.3,0-1.46,0-2,0a3.36,3.36,0,0,0-1.16.22,2.42,2.42,0,0,0-1.4,1.4A3.36,3.36,0,0,0,4.25,7c0,.51,0,.67,0,2s0,1.46,0,2a3.36,3.36,0,0,0,.22,1.16,2.42,2.42,0,0,0,1.4,1.4A3.36,3.36,0,0,0,7,13.75c.51,0,.67,0,2,0s1.46,0,2,0a3.36,3.36,0,0,0,1.16-.22,2.42,2.42,0,0,0,1.4-1.4A3.36,3.36,0,0,0,13.75,11c0-.51,0-.67,0-2s0-1.46,0-2a3.36,3.36,0,0,0-.22-1.16,2.42,2.42,0,0,0-1.4-1.4A3.36,3.36,0,0,0,11,4.25c-.51,0-.67,0-2,0Z"/><path class="cls-2" d="M9,6.55A2.45,2.45,0,1,0,11.45,9,2.44,2.44,0,0,0,9,6.55Zm0,4A1.59,1.59,0,1,1,10.59,9,1.59,1.59,0,0,1,9,10.59Z"/><circle class="cls-2" cx="11.55" cy="6.45" r="0.57"/></svg>