<svg id="Layer_1" data-name="Layer 1" xmlns="http://www.w3.org/2000/svg" viewBox="0 0 12.62 12.62"><defs><style>.cls-1{fill:#231f20;}.cls-2{fill:#fff;}</style></defs><circle class="cls-1" cx="6.31" cy="6.31" r="6.31"/><path class="cls-2" d="M6.31,3.56c.89,0,1,0,1.35,0a1.76,1.76,0,0,1,.62.12A1,1,0,0,1,8.67,4a1,1,0,0,1,.25.38A2,2,0,0,1,9,5c0,.36,0,.46,0,1.36s0,1,0,1.35a1.84,1.84,0,0,1-.11.62,1.08,1.08,0,0,1-.64.64A1.84,1.84,0,0,1,7.66,9c-.35,0-.46,0-1.35,0s-1,0-1.36,0a2,2,0,0,1-.62-.11A1,1,0,0,1,4,8.67a1,1,0,0,1-.25-.39,1.76,1.76,0,0,1-.12-.62c0-.35,0-.46,0-1.35s0-1,0-1.36a1.88,1.88,0,0,1,.12-.62A1,1,0,0,1,4,4a1,1,0,0,1,.38-.25A1.88,1.88,0,0,1,5,3.58c.36,0,.46,0,1.36,0m0-.6c-.91,0-1,0-1.38,0a2.73,2.73,0,0,0-.82.15,1.77,1.77,0,0,0-1,1A2.73,2.73,0,0,0,3,4.93c0,.35,0,.47,0,1.38s0,1,0,1.38a2.6,2.6,0,0,0,.15.81,1.6,1.6,0,0,0,.39.59,1.56,1.56,0,0,0,.59.39,2.7,2.7,0,0,0,.82.16c.35,0,.47,0,1.38,0s1,0,1.38,0a2.56,2.56,0,0,0,.81-.16,1.49,1.49,0,0,0,.59-.39,1.49,1.49,0,0,0,.39-.59,2.56,2.56,0,0,0,.16-.81c0-.36,0-.47,0-1.38s0-1,0-1.38a2.7,2.7,0,0,0-.16-.82,1.56,1.56,0,0,0-.39-.59,1.6,1.6,0,0,0-.59-.39A2.6,2.6,0,0,0,7.69,3c-.36,0-.47,0-1.38,0Z"/><path class="cls-2" d="M6.31,4.59A1.72,1.72,0,1,0,8,6.31,1.72,1.72,0,0,0,6.31,4.59Zm0,2.83A1.12,1.12,0,1,1,7.42,6.31,1.12,1.12,0,0,1,6.31,7.42Z"/><circle class="cls-2" cx="8.1" cy="4.52" r="0.4"/></svg>