<svg id="Layer_1" data-name="Layer 1" xmlns="http://www.w3.org/2000/svg" viewBox="0 0 57.87 57"><defs><style>.cls-1{fill:#005879;}.cls-1,.cls-2{fill-rule:evenodd;}.cls-2{fill:#f48120;}.cls-3{fill:#231f20;}</style></defs><path class="cls-1" d="M23.07,4.56c11,13-9.71,21-19,19.18-12-2.81,5.12-35.55,19-19.18"/><path class="cls-2" d="M32.25,13.94c0,6.28,1.48,10.19,5.48,10,47.74-2.69-5.48-27.77-5.48-10"/><path d="M0,37.42a3,3,0,0,1,.3-1.35c.2-.39.42-.79.66-1.19a.67.67,0,0,1-.22-.17l.61-1.16C2.9,34.75,3.67,35.89,3.67,37a2.55,2.55,0,0,1-.13.84,1.94,1.94,0,0,1-.38.71,1.85,1.85,0,0,1-.62.47,2.07,2.07,0,0,1-.84.17,1.59,1.59,0,0,1-1.27-.49A1.78,1.78,0,0,1,0,37.42ZM2.66,37a1.35,1.35,0,0,0-.35-.88,6.64,6.64,0,0,0-.75-.75,5.94,5.94,0,0,0-.47.87,2.25,2.25,0,0,0-.21.89.57.57,0,0,0,.28.53,1.06,1.06,0,0,0,.61.17,1.09,1.09,0,0,0,.61-.21A.71.71,0,0,0,2.66,37Z"/><path d="M5.17,38.84a1.92,1.92,0,0,1-.68-.79A3.18,3.18,0,0,1,4.21,37c0-.41-.06-.82-.06-1.22V29.67l1-.66v7.21c0,.22,0,.44,0,.65a1.41,1.41,0,0,0,.16.56,1.05,1.05,0,0,0,.4.41,1.5,1.5,0,0,0,.73.15v1.16A2.24,2.24,0,0,1,5.17,38.84Z"/><path d="M12.6,39.15a2.06,2.06,0,0,1-.76-.14,3.15,3.15,0,0,1-.7-.43,10,10,0,0,1-.8-.74c-.28-.29-.63-.63-1-1a2.54,2.54,0,0,1-.21,1.1,1.91,1.91,0,0,1-.59.72,2.36,2.36,0,0,1-.88.39,4.84,4.84,0,0,1-1.11.12H6.45a1,1,0,0,1-.25,0c-.07,0-.11,0-.11-.08V38.1c0-.05,0-.08.11-.09a1,1,0,0,1,.25,0c1.43,0,2.14-.42,2.14-1.26a1.52,1.52,0,0,0-.27-.84,5.58,5.58,0,0,0-.62-.78c-.24-.24-.47-.47-.71-.67a5.48,5.48,0,0,1-.53-.5c0-.38,0-.66,0-.84s0-.29.1-.32a29.25,29.25,0,0,1,3.18-1.93C10.9,30.28,12,29.79,13,29.39l-.18,1.2-.69.31-1,.47L10,31.92l-1.1.56L8,33c-.28.17-.48.3-.62.4q1.23,1.16,2,2c.54.57,1,1.05,1.4,1.43a5.6,5.6,0,0,0,1.08.86A2.11,2.11,0,0,0,13,38h.44v1.16ZM12.16,29c-.41.19-1.07.52-2,1s-2.11,1.09-3.57,1.86l.06-.69q1.62-.92,3-1.65c.92-.48,1.77-.92,2.56-1.31Z"/><path d="M13,38.1q0-.08.12-.09a1,1,0,0,1,.25,0h.31a2.08,2.08,0,0,0,1-.19.59.59,0,0,0,.37-.57,1.17,1.17,0,0,0-.22-.64c-.16-.22-.3-.42-.44-.6l.81-.87a3.52,3.52,0,0,1,.58.93A3.11,3.11,0,0,1,16,37.14c0,1.34-.79,2-2.36,2h-.25a1,1,0,0,1-.25,0c-.08,0-.12,0-.12-.08Z"/><path d="M30.7,39.15a2,2,0,0,1-.76-.14,3.15,3.15,0,0,1-.7-.43c-.23-.2-.49-.44-.78-.74l-1.05-1v.08a1.51,1.51,0,0,1-.27.89,2.41,2.41,0,0,1-.71.67,4.41,4.41,0,0,1-1,.47,8.87,8.87,0,0,1-1.18.31,10,10,0,0,1-1.19.16c-.4,0-.75.05-1.06.05s-.91,0-1.39-.08a4.62,4.62,0,0,1-1.33-.3,2.45,2.45,0,0,1-1-.7,1.91,1.91,0,0,1-.39-1.27,2.3,2.3,0,0,1,.14-.79,2.51,2.51,0,0,1,.35-.67l.74.22a3.2,3.2,0,0,0-.24.57,2,2,0,0,0-.06.47.93.93,0,0,0,.34.78,2.31,2.31,0,0,0,.83.41,5.1,5.1,0,0,0,1.08.16l1.06,0,.89-.06c.33,0,.66-.06,1-.11s.66-.12,1-.2a4.44,4.44,0,0,0,.85-.3,2.24,2.24,0,0,0,.61-.41.74.74,0,0,0,.23-.54,1.61,1.61,0,0,0-.3-.81,5.57,5.57,0,0,0-.62-.76c-.23-.23-.46-.45-.68-.65a5,5,0,0,1-.51-.49c0-.38,0-.66,0-.84s.06-.29.11-.32a27.32,27.32,0,0,1,3.17-1.93c1.11-.57,2.17-1.06,3.16-1.46l-.16,1.2-.68.31c-.3.14-.63.29-1,.47l-1.12.55-1.1.56-.94.52a7.27,7.27,0,0,0-.61.4q1.23,1.16,2,2c.53.57,1,1.05,1.4,1.43A5.6,5.6,0,0,0,30,37.7a2.1,2.1,0,0,0,1.07.29h.44v1.16Z"/><path d="M31.14,38.1q0-.08.12-.09a1,1,0,0,1,.24,0h.32a2.11,2.11,0,0,0,1-.19.59.59,0,0,0,.37-.57,1.12,1.12,0,0,0-.23-.64c-.15-.22-.29-.42-.43-.6l.8-.87a3.56,3.56,0,0,1,.59.93,3.11,3.11,0,0,1,.22,1.09q0,2-2.37,2H31.5a1,1,0,0,1-.24,0c-.08,0-.12,0-.12-.08Z"/><path d="M49.4,39.16a1.67,1.67,0,0,1-.92-.21,1.1,1.1,0,0,1-.45-.59,1.29,1.29,0,0,1-.61.63,2.07,2.07,0,0,1-1.73,0,1.54,1.54,0,0,1-.63-.61,1.31,1.31,0,0,1-.61.6,1.92,1.92,0,0,1-.87.21,2.32,2.32,0,0,1-.46,0,1.31,1.31,0,0,1-.44-.19,4.15,4.15,0,0,1-.21,1.57,4.22,4.22,0,0,1-.78,1.35,3.84,3.84,0,0,1-1.29.94,4.18,4.18,0,0,1-1.77.36,3.52,3.52,0,0,1-2-.52,3,3,0,0,1-1.09-1.34,3.58,3.58,0,0,1-.22-1.8A4.9,4.9,0,0,1,36,37.6l.75.35A6.55,6.55,0,0,0,36.38,39a3.85,3.85,0,0,0-.08,1,1.89,1.89,0,0,0,.42,1.12,2.32,2.32,0,0,0,.91.67,3.11,3.11,0,0,0,1.16.2,3.47,3.47,0,0,0,1.2-.24,3.05,3.05,0,0,0,1-.69A2.26,2.26,0,0,0,41.54,40a3.28,3.28,0,0,0,0-1.39,4.38,4.38,0,0,0-.63-1.4l.91-.66a5,5,0,0,0,.71,1.06,1.37,1.37,0,0,0,1,.42h.18a1,1,0,0,0,.77-.28,1.73,1.73,0,0,0,.24-1.07v-.13l.8-.3c0,.23,0,.44,0,.66a2,2,0,0,0,.16.57,1,1,0,0,0,.33.41.91.91,0,0,0,.58.16,1,1,0,0,0,.56-.13.8.8,0,0,0,.34-.34,1.7,1.7,0,0,0,.17-.48,3.24,3.24,0,0,0,0-.55l.74-.28q0,.39,0,.72a2.18,2.18,0,0,0,.15.56.89.89,0,0,0,.36.36,1.43,1.43,0,0,0,.64.12h.13v1.17Z"/><path d="M49.37,38.1s0-.07.12-.08a.93.93,0,0,1,.24,0h1a5.82,5.82,0,0,0,1.33-.13,6.81,6.81,0,0,0,1.05-.35,10.48,10.48,0,0,0,.95-.47c.31-.17.65-.34,1-.49l-1-.41-.69-.3L53,35.66a1.11,1.11,0,0,0-.3-.06,1.51,1.51,0,0,0-.55.13,1.66,1.66,0,0,0-.57.45l-.71-.31a3.13,3.13,0,0,1,.86-1.1,1.55,1.55,0,0,1,.86-.35,2.47,2.47,0,0,1,1.08.29c.39.2.84.39,1.34.59.23.11.44.19.63.26a5.54,5.54,0,0,0,.58.17,5.43,5.43,0,0,0,.62.09c.23,0,.5,0,.82,0L57.35,37a5.34,5.34,0,0,0-.58,0l-.48.05a3.18,3.18,0,0,0-1.21.45l-1.19.7a9.17,9.17,0,0,1-1.37.66,4.93,4.93,0,0,1-1.77.29h-1a.93.93,0,0,1-.24,0c-.08,0-.12-.05-.12-.08Z"/><rect x="30.6" y="40.33" width="1.04" height="1.04" transform="translate(38 -10.04) rotate(45)"/><rect x="31.89" y="40.33" width="1.04" height="1.04" transform="translate(38.38 -10.95) rotate(45)"/><rect x="12.53" y="33.56" width="1.04" height="1.04" transform="translate(27.92 0.76) rotate(45)"/><path d="M37.9,44.9l-2.51.7-.09-.44,2.49-.75Z"/><path class="cls-3" d="M3.54,51a1.76,1.76,0,0,1-.68-.12,1.21,1.21,0,0,1-.47-.31,1.64,1.64,0,0,1-.28-.48A1.79,1.79,0,0,1,2,49.53,2.41,2.41,0,0,1,2.09,49a2.13,2.13,0,0,1,.21-.49l.5.17a3.19,3.19,0,0,0-.14.35,1.32,1.32,0,0,0,0,.34,1.27,1.27,0,0,0,0,.34.8.8,0,0,0,.18.27.87.87,0,0,0,.3.17,1.16,1.16,0,0,0,.44.07,1.48,1.48,0,0,0,.49-.08A1.06,1.06,0,0,0,4.43,50a.75.75,0,0,0,.21-.3,1,1,0,0,0,.07-.38,1.5,1.5,0,0,0-.29-.85L5,48a2.26,2.26,0,0,1,.3.63,2,2,0,0,1,.1.64,1.72,1.72,0,0,1-.13.68,1.56,1.56,0,0,1-.37.57,1.85,1.85,0,0,1-.58.39A2,2,0,0,1,3.54,51ZM4,47.64l-.41.53L3,47.8l.42-.55Z"/><path class="cls-3" d="M6.12,49.59a.69.69,0,0,1-.33-.3,1.31,1.31,0,0,1-.17-.47,5,5,0,0,1,0-.58c0-.1,0-.25,0-.43s0-.38,0-.6,0-.44,0-.66,0-.44,0-.64l.66-.26v2.67a.65.65,0,0,0,.13.45.47.47,0,0,0,.39.15v.79A1.15,1.15,0,0,1,6.12,49.59Z"/><path class="cls-3" d="M9.47,49.71a1.15,1.15,0,0,1-.36-.07.79.79,0,0,1-.29-.18.84.84,0,0,1-.05.17.31.31,0,0,1-.06.13.28.28,0,0,1-.11.08.5.5,0,0,1-.19,0l-.25,0-.27-.09-.26-.14a1.4,1.4,0,0,1-.22-.16,1.08,1.08,0,0,1-.31.19,1.21,1.21,0,0,1-.41.07l-.11,0s0,0,0,0V49s0,0,0,0l.11,0h.24a.59.59,0,0,0,.19-.05.54.54,0,0,0,.16-.1,1,1,0,0,0,.13-.19l.15-.22a1.56,1.56,0,0,1,.16-.2A.8.8,0,0,1,7.91,48,.6.6,0,0,1,8.15,48a.42.42,0,0,1,.33.16,2.68,2.68,0,0,1,.26.37,2.33,2.33,0,0,0,.15.23.51.51,0,0,0,.12.13.42.42,0,0,0,.17.05H9.5v.79ZM7.83,48.8l0,.07a.09.09,0,0,0,0,.06,1.11,1.11,0,0,0,.3.17.85.85,0,0,0,.26.07.08.08,0,0,0,.09-.06.62.62,0,0,0,0-.13,1.05,1.05,0,0,0-.13-.26.26.26,0,0,0-.21-.13Q7.92,48.59,7.83,48.8Z"/><path class="cls-3" d="M11,49.71a.6.6,0,0,1-.62-.36.89.89,0,0,1-.79.36H9.5l-.11,0s-.05,0-.05,0V49s0,0,.05,0l.11,0h0c.34,0,.51-.11.51-.34v-.27l.55-.18v.17c0,.42.14.62.41.62h0v.79ZM9.49,47.4l.34-.46.44.29.25-.34.52.34-.35.46-.44-.29-.23.34Z"/><path class="cls-3" d="M10.88,49s0,0,0,0l.11,0H12a1.6,1.6,0,0,0,.29-.05,2.4,2.4,0,0,0,.4-.12l.63-.24-.59-.16-.31-.09a.35.35,0,0,0-.25,0,.66.66,0,0,0-.19.15l-.46-.31a1.6,1.6,0,0,1,.41-.53.56.56,0,0,1,.47-.12l.46.09.47.13.5.13c.17.05.35.08.55.12l.27,0c.09,0-.27,0-.19,0l.24.77-.28,0-.23,0-.22.07-.26.12-.57.34a3.18,3.18,0,0,1-.44.24,2.15,2.15,0,0,1-.47.14,4.08,4.08,0,0,1-.67.05H11l-.11,0s0,0,0,0Zm2-2.49-.41.54-.56-.38.42-.55Z"/><path class="cls-3" d="M15.62,49.59a.77.77,0,0,1-.34-.3,1.53,1.53,0,0,1-.16-.47,5,5,0,0,1,0-.58c0-.1,0-.25,0-.43s0-.38,0-.6,0-.44,0-.66,0-.44,0-.64l.66-.26v2.67a.71.71,0,0,0,.12.45.49.49,0,0,0,.4.15v.79A1.15,1.15,0,0,1,15.62,49.59Z"/><path class="cls-3" d="M16,49s0,0,0,0l.11,0h.06a.46.46,0,0,0,.31-.1.36.36,0,0,0,.12-.29v-.19l.47-.17v.21a.76.76,0,0,0,.09.4.27.27,0,0,0,.26.14c.32,0,.47-.14.47-.42v-.26l.48-.14v.34a.52.52,0,0,0,.14.36.43.43,0,0,0,.34.15.28.28,0,0,0,.22-.07.31.31,0,0,0,.06-.19.66.66,0,0,0-.06-.27.56.56,0,0,0-.16-.2l.47-.53a1.44,1.44,0,0,1,.23.42,1.62,1.62,0,0,1,.08.49,1.39,1.39,0,0,1-.06.4,1.17,1.17,0,0,1-.16.36.78.78,0,0,1-.26.25.61.61,0,0,1-.36.1.93.93,0,0,1-.45-.1.59.59,0,0,1-.3-.28.65.65,0,0,1-.25.27.79.79,0,0,1-.35.11.86.86,0,0,1-.39-.09.7.7,0,0,1-.27-.27.6.6,0,0,1-.32.27,1,1,0,0,1-.41.09l-.11,0s0,0,0,0Z"/><path class="cls-3" d="M26.12,49.71a.68.68,0,0,1-.69-.4,1.41,1.41,0,0,1-.83.44,7,7,0,0,1-1.6.14,2.79,2.79,0,0,1-1.45-.29.91.91,0,0,1-.48-.82,1.22,1.22,0,0,1,.07-.41,2.57,2.57,0,0,1,.19-.47l.5.15a2.44,2.44,0,0,0-.1.24.78.78,0,0,0,0,.26.4.4,0,0,0,.14.32,1,1,0,0,0,.37.17,2.72,2.72,0,0,0,.53.07h1.15A4.05,4.05,0,0,0,24.5,49a1.66,1.66,0,0,0,.49-.16.33.33,0,0,0,.2-.3V48.4l.55-.17a1.84,1.84,0,0,0,0,.36.4.4,0,0,0,.07.21.28.28,0,0,0,.15.1l.26,0h0v.79ZM22.6,47.43l.34-.46.44.29.25-.34.52.34-.35.46-.44-.29-.23.35Z"/><path class="cls-3" d="M28.41,49.71a1,1,0,0,1-.49-.12.82.82,0,0,1-.35-.34,1.64,1.64,0,0,1-.55.34,1.85,1.85,0,0,1-.67.12h-.11l-.1,0s-.05,0-.05,0V49s0,0,.05,0l.1,0h.11c.48,0,.78-.08.89-.25a.55.55,0,0,0-.2-.17.77.77,0,0,0-.34-.06.84.84,0,0,1,.09-.4,1,1,0,0,1,.23-.29,1,1,0,0,1,.34-.16,1.75,1.75,0,0,1,.4-.05,1.24,1.24,0,0,1,.27,0,.6.6,0,0,1,.23.1.41.41,0,0,1,.16.16.49.49,0,0,1,.06.25.46.46,0,0,1,0,.19.66.66,0,0,1-.11.2,1.46,1.46,0,0,1-.16.19,1.54,1.54,0,0,1-.19.17c0,.06.21.09.5.09h.31v.79Z"/><path class="cls-3" d="M30.26,49.71a.6.6,0,0,1-.62-.36.88.88,0,0,1-.79.36h-.06l-.1,0s-.05,0-.05,0V49s0,0,.05,0l.1,0h0c.33,0,.5-.11.5-.34v-.27l.56-.18v.17c0,.42.13.62.4.62h0v.79ZM30,47.2l-.41.54L29,47.37l.41-.55Z"/><path class="cls-3" d="M30.18,49s0,0,.05,0l.1,0h.18c.19,0,.28-.11.28-.33v-.26l.52-.15v.15a2.36,2.36,0,0,0,0,.3.38.38,0,0,0,.06.18.24.24,0,0,0,.11.09.34.34,0,0,0,.15,0h0l.44-.49a5.44,5.44,0,0,1,.48-.48,2.8,2.8,0,0,1,.5-.37,1.09,1.09,0,0,1,.51-.14.88.88,0,0,1,.33.06.78.78,0,0,1,.26.17.64.64,0,0,1,.18.25.78.78,0,0,1,.06.31,1.14,1.14,0,0,1-.2.68,1.62,1.62,0,0,1-.48.46,2.15,2.15,0,0,1-.63.26,3,3,0,0,1-.63.08h-.85a.69.69,0,0,1-.34-.09.43.43,0,0,1-.24-.27.71.71,0,0,1-.63.36h-.12l-.1,0s-.05,0-.05,0Zm3.25-.81a.85.85,0,0,0-.53.21c-.18.14-.38.32-.61.54h.39l.29,0a1.92,1.92,0,0,0,.32,0l.3-.08a.82.82,0,0,0,.23-.13.23.23,0,0,0,.09-.19.21.21,0,0,0,0-.13.57.57,0,0,0-.13-.08l-.15,0Z"/><path class="cls-3" d="M36.13,48.28a2.33,2.33,0,0,1,.27.48,1.41,1.41,0,0,1,.11.57,1.27,1.27,0,0,1-.16.62,2.41,2.41,0,0,1-.41.57,4.51,4.51,0,0,1-.57.48,7.49,7.49,0,0,1-.63.41L34.17,51c.15-.07.32-.17.52-.28s.39-.25.58-.39a3.19,3.19,0,0,0,.46-.43.61.61,0,0,0,.19-.41.56.56,0,0,0-.1-.3,2.77,2.77,0,0,0-.21-.31Z"/><path class="cls-3" d="M39.41,48.64a1.18,1.18,0,0,1-.1.52.92.92,0,0,1-.28.36.94.94,0,0,1-.41.21,1.51,1.51,0,0,1-.48.07,1.76,1.76,0,0,1-.65-.11,1.14,1.14,0,0,1-.44-.33l.32-.59A1,1,0,0,0,38,49h.27a.92.92,0,0,0,.29,0,.6.6,0,0,0,.23-.1.26.26,0,0,0,.09-.21.48.48,0,0,0-.12-.28,2.69,2.69,0,0,0-.29-.3l-.34-.26-.27-.17.3-.74A2.11,2.11,0,0,1,39.41,48.64Z"/><path class="cls-3" d="M46.49,49.71a1.08,1.08,0,0,1-.44-.09,1.66,1.66,0,0,1-.4-.2,2,2,0,0,1-.34-.3,2.2,2.2,0,0,1-.28-.34.88.88,0,0,1-.14.44,1.18,1.18,0,0,1-.33.3,2.13,2.13,0,0,1-.46.2,3.1,3.1,0,0,1-.51.11,4.45,4.45,0,0,1-.5.05h-.42c-1.3,0-2-.38-2-1.15a2.08,2.08,0,0,1,.25-.85l.5.15a1.35,1.35,0,0,0-.15.46.4.4,0,0,0,.09.27.55.55,0,0,0,.22.18,1,1,0,0,0,.31.11,2.09,2.09,0,0,0,.35,0h.85l.36,0,.39-.06a3.15,3.15,0,0,0,.36-.09.93.93,0,0,0,.26-.15.31.31,0,0,0,.11-.21.4.4,0,0,0-.07-.16,2.44,2.44,0,0,0-.16-.23l-.22-.25-.23-.23-.2-.21-.12-.13a1.37,1.37,0,0,1,0-.16,1.55,1.55,0,0,1,0-.21l.06-.2a.19.19,0,0,1,.09-.12,12.82,12.82,0,0,1,1.2-.52c.5-.18,1.09-.37,1.77-.59l-.09.75-1.24.34a12.15,12.15,0,0,0-1.2.42s-.06,0-.07,0,0,0,0,.07.34.28.52.44l.57.53.3.28a2.21,2.21,0,0,0,.3.25,1.74,1.74,0,0,0,.33.18,1.23,1.23,0,0,0,.39.06H47v.79Zm.15-4.35-1.22.39-.8.28-.48.17-.26.12L44,46c.23-.1.56-.24,1-.4s1-.36,1.72-.59Z"/><path class="cls-3" d="M48.42,49.71a.6.6,0,0,1-.62-.36.9.9,0,0,1-.79.36H47l-.11,0s-.05,0-.05,0V49s0,0,.05,0l.11,0h0c.34,0,.51-.11.51-.34v-.27l.55-.18v.17c0,.42.13.62.4.62h0v.79Zm-.3-2.51-.4.54-.56-.37.41-.55Z"/><path class="cls-3" d="M49.44,50.56,49.1,51l-.43-.29-.25.34-.53-.34.36-.46.44.3.24-.35ZM48.33,49s0,0,.05,0l.1,0h.45c.23,0,.34-.05.34-.16a.2.2,0,0,0,0-.07l0-.1-.12-.17-.19-.25.43-.62a1.14,1.14,0,0,1,.33.46,1.61,1.61,0,0,1,.12.6,1.22,1.22,0,0,1-.09.49,1.07,1.07,0,0,1-.25.34,1.15,1.15,0,0,1-.38.2,1.64,1.64,0,0,1-.46.07h-.12l-.1,0s-.05,0-.05,0Z"/><path class="cls-3" d="M53.3,49.71a1.06,1.06,0,0,1-.55-.15,1,1,0,0,1-.39-.39,1.07,1.07,0,0,1-1.09.62,1.19,1.19,0,0,1-1-.35l.24-.62a1,1,0,0,0,.35.15,1.84,1.84,0,0,0,.47.06l.27,0a.84.84,0,0,0,.24-.06.56.56,0,0,0,.17-.11.22.22,0,0,0,.07-.17.43.43,0,0,1,0-.05l-.06-.18c0-.09-.07-.22-.14-.41s-.15-.44-.27-.77l.54-.48.34,1.09a4.59,4.59,0,0,0,.23.65.77.77,0,0,0,.22.32.49.49,0,0,0,.31.08h.15v.79Z"/><path class="cls-3" d="M53.28,49s0,0,0,0l.11,0h.44c.23,0,.34-.05.34-.16a.2.2,0,0,0,0-.07l-.05-.1L54,48.42l-.19-.25.43-.62a1.14,1.14,0,0,1,.33.46,1.61,1.61,0,0,1,.12.6,1.22,1.22,0,0,1-.09.49.94.94,0,0,1-.25.34,1.2,1.2,0,0,1-.37.2,1.78,1.78,0,0,1-.47.07h-.11l-.11,0s0,0,0,0Zm1.23-2.27-.41.54-.56-.38.41-.54Z"/><path class="cls-3" d="M56.41,49.67l-.13-.1a1.58,1.58,0,0,1-.22.54,2.68,2.68,0,0,1-.4.49,5.66,5.66,0,0,1-.52.43l-.59.38L54,51a5.68,5.68,0,0,0,.52-.28,4.79,4.79,0,0,0,.58-.37,3.31,3.31,0,0,0,.47-.42.67.67,0,0,0,.2-.42.41.41,0,0,0-.05-.17.56.56,0,0,0-.09-.17c0-.06-.07-.12-.11-.17a.62.62,0,0,0-.09-.12l.52-.56.14.23a1.1,1.1,0,0,0,.14.21.75.75,0,0,0,.16.15.46.46,0,0,0,.21.05v.79A.47.47,0,0,1,56.41,49.67Z"/><path class="cls-3" d="M56.42,49s0,0,0,0l.1,0H57c.23,0,.34-.05.34-.16a.2.2,0,0,0,0-.07l-.06-.1a.94.94,0,0,0-.11-.17l-.2-.25.44-.62a1.14,1.14,0,0,1,.33.46,1.61,1.61,0,0,1,.12.6,1.22,1.22,0,0,1-.09.49,1.25,1.25,0,0,1-.25.34,1.15,1.15,0,0,1-.38.2,1.7,1.7,0,0,1-.46.07h-.12l-.1,0s0,0,0,0Zm.14,1.77.41-.54.56.38-.41.55Z"/><path class="cls-3" d="M23.33,53.83a1.58,1.58,0,0,0-.56-.08.78.78,0,0,0-.26,0,1.15,1.15,0,0,0-.25.12l-.18.15a.29.29,0,0,0-.08.18.13.13,0,0,0,.1.11,1,1,0,0,0,.26,0l.33,0a1.14,1.14,0,0,1,.33.07.57.57,0,0,1,.26.16.48.48,0,0,1,.1.33,1.27,1.27,0,0,1-.2.7,1.94,1.94,0,0,1-.52.51,2.47,2.47,0,0,1-.68.3,2.69,2.69,0,0,1-.73.11,2.35,2.35,0,0,1-.74-.11A1.42,1.42,0,0,1,20,56.2a1.14,1.14,0,0,1-.31-.44,1.42,1.42,0,0,1-.11-.55,2.28,2.28,0,0,1,.08-.55,2.31,2.31,0,0,1,.24-.57l.53.19a2,2,0,0,0-.16.37,1.1,1.1,0,0,0-.05.35.88.88,0,0,0,.06.33.64.64,0,0,0,.21.26,1,1,0,0,0,.36.17,1.6,1.6,0,0,0,.52.07,2.08,2.08,0,0,0,.46-.06,2.44,2.44,0,0,0,.5-.14,1.66,1.66,0,0,0,.4-.2c.1-.07.16-.14.16-.22s0-.06-.08-.08a.87.87,0,0,0-.22,0l-.31,0-.38,0a.53.53,0,0,1-.35-.17.54.54,0,0,1-.11-.35,1.26,1.26,0,0,1,.14-.57,1.39,1.39,0,0,1,.34-.48,1.58,1.58,0,0,1,.48-.33,1.33,1.33,0,0,1,.55-.12,1,1,0,0,1,.29,0,1,1,0,0,1,.27.11Z"/><path class="cls-3" d="M24.66,53.86a2.76,2.76,0,0,1,.28.49,1.41,1.41,0,0,1,.11.57,1.58,1.58,0,0,1-.11.54,2.26,2.26,0,0,1-.28.56,3.53,3.53,0,0,1-.44.53,3.73,3.73,0,0,1-.58.45l-.56-.45.46-.3a5.54,5.54,0,0,0,.45-.37,1.85,1.85,0,0,0,.34-.41.86.86,0,0,0,.13-.43.65.65,0,0,0-.11-.31l-.21-.31Zm.28-.86-.41.54L24,53.16l.41-.54Z"/><path class="cls-3" d="M26.22,55.18a.69.69,0,0,1-.33-.3,1.31,1.31,0,0,1-.17-.47,5,5,0,0,1,0-.59c0-.09,0-.24,0-.42s0-.38,0-.6,0-.44,0-.67,0-.43,0-.63l.66-.27v2.68a.71.71,0,0,0,.12.45.51.51,0,0,0,.4.15v.78A1.16,1.16,0,0,1,26.22,55.18Z"/><path class="cls-3" d="M26.63,54.57a0,0,0,0,1,.05,0l.11,0h.06a.46.46,0,0,0,.31-.1.36.36,0,0,0,.12-.29v-.19l.47-.17V54a.76.76,0,0,0,.09.4.29.29,0,0,0,.26.14c.32,0,.47-.14.47-.42v-.26l.48-.14V54a.52.52,0,0,0,.14.36.43.43,0,0,0,.34.15.32.32,0,0,0,.22-.07.31.31,0,0,0,.06-.19.66.66,0,0,0-.06-.27.72.72,0,0,0-.16-.21l.47-.52a1.32,1.32,0,0,1,.23.42,1.62,1.62,0,0,1,.08.49,1.39,1.39,0,0,1-.06.4,1.17,1.17,0,0,1-.16.36.69.69,0,0,1-.26.25.61.61,0,0,1-.36.1.93.93,0,0,1-.45-.1.63.63,0,0,1-.3-.28.65.65,0,0,1-.25.27.67.67,0,0,1-.35.1.85.85,0,0,1-.39-.08.7.7,0,0,1-.27-.27.6.6,0,0,1-.32.27,1,1,0,0,1-.41.08h-.11l-.05,0Z"/><path class="cls-3" d="M32.05,55.25a.3.3,0,0,1-.13-.09,1.6,1.6,0,0,1-.23.54,2.32,2.32,0,0,1-.4.49,4.44,4.44,0,0,1-.51.43c-.2.13-.39.26-.59.37l-.58-.44c.15-.07.32-.17.52-.28s.4-.24.58-.37a3.31,3.31,0,0,0,.47-.42.66.66,0,0,0,.19-.42.35.35,0,0,0,0-.17l-.09-.18-.11-.16L31,54.43l.52-.56c.05.08.1.15.14.23a1.1,1.1,0,0,0,.14.21.75.75,0,0,0,.16.15.46.46,0,0,0,.21,0v.78A.29.29,0,0,1,32.05,55.25Z"/><path class="cls-3" d="M34.51,55.29a.48.48,0,0,0-.31.09.32.32,0,0,0-.15.18.28.28,0,0,0,0,.22.36.36,0,0,0,.2.18l-.23.73a2.63,2.63,0,0,1-.89-.57,1.78,1.78,0,0,1-.43-.83H32.1l-.05,0v-.68a0,0,0,0,1,.05,0l.11,0h.45a2.36,2.36,0,0,1,.11-.59,2.78,2.78,0,0,1,.2-.49,1.41,1.41,0,0,1,.23-.35c.09-.08.16-.13.22-.13a.31.31,0,0,1,.22.14,1.32,1.32,0,0,1,.2.33,1.9,1.9,0,0,1,.14.4,1.28,1.28,0,0,1,.06.35,1.07,1.07,0,0,1-.07.39,1.62,1.62,0,0,1-.17.35,1.2,1.2,0,0,1-.24.26.53.53,0,0,1-.28.12.82.82,0,0,0,.37.42,1.14,1.14,0,0,1,.06-.45,1.28,1.28,0,0,1,.21-.38.86.86,0,0,1,.3-.27.75.75,0,0,1,.36-.1h.22v.78Zm-1.13-1.6s-.06,0-.09.07a.84.84,0,0,0-.07.18,1.49,1.49,0,0,0-.07.25,1.56,1.56,0,0,0,0,.31l.16,0a.38.38,0,0,0,.16-.06.36.36,0,0,0,.12-.08.17.17,0,0,0,0-.12,1,1,0,0,0,0-.15l-.06-.16a.87.87,0,0,0-.08-.14S33.4,53.69,33.38,53.69Z"/><path class="cls-3" d="M34.64,54.57a0,0,0,0,1,0,0l.11,0h.07a.44.44,0,0,0,.3-.1.36.36,0,0,0,.12-.29v-.19l.47-.17V54a.76.76,0,0,0,.09.4.3.3,0,0,0,.26.14q.48,0,.48-.42v-.26l.48-.14V54a.52.52,0,0,0,.13.36.43.43,0,0,0,.34.15.3.3,0,0,0,.22-.07.26.26,0,0,0,.07-.19.68.68,0,0,0-.07-.27.72.72,0,0,0-.16-.21l.47-.52a1.32,1.32,0,0,1,.23.42,1.62,1.62,0,0,1,.08.49,1.83,1.83,0,0,1-.05.4,1.46,1.46,0,0,1-.16.36.81.81,0,0,1-.27.25.61.61,0,0,1-.36.1.93.93,0,0,1-.45-.1.61.61,0,0,1-.29-.28.68.68,0,0,1-.26.27.64.64,0,0,1-.35.1.79.79,0,0,1-.38-.08.66.66,0,0,1-.28-.27.57.57,0,0,1-.32.27,1,1,0,0,1-.41.08h-.11l0,0ZM36.05,53l.33-.46.44.29.25-.34.51.34-.33.46L36.8,53l-.23.34Zm.25-.75.34-.45.47.32-.33.45Z"/><path class="cls-3" d="M39.3,56.55c.14-.07.31-.16.51-.28a6.65,6.65,0,0,0,.56-.36,2.76,2.76,0,0,0,.47-.41.7.7,0,0,0,.21-.41.71.71,0,0,1-.21.08,1.07,1.07,0,0,1-.25,0,.63.63,0,0,1-.73-.67,1.65,1.65,0,0,1,0-.38,1.46,1.46,0,0,1,.16-.36.81.81,0,0,1,.25-.27.56.56,0,0,1,.35-.11.6.6,0,0,1,.44.16,1.08,1.08,0,0,1,.28.38,2,2,0,0,1,.15.47,4.2,4.2,0,0,1,0,.44,1.62,1.62,0,0,1-.14.68,1.91,1.91,0,0,1-.38.56,2.76,2.76,0,0,1-.54.47,6,6,0,0,1-.65.42Zm1.69-2a.88.88,0,0,0-.13-.31.3.3,0,0,0-.24-.13.28.28,0,0,0-.2.09.32.32,0,0,0-.08.21.18.18,0,0,0,.1.17.51.51,0,0,0,.22,0,.65.65,0,0,0,.19,0Z"/><path class="cls-3" d="M46.69,53.83a1.54,1.54,0,0,0-.56-.08.82.82,0,0,0-.26,0,.9.9,0,0,0-.24.12,1,1,0,0,0-.19.15.27.27,0,0,0-.07.18s0,.09.1.11a.89.89,0,0,0,.26,0l.33,0a1.3,1.3,0,0,1,.33.07.54.54,0,0,1,.25.16.48.48,0,0,1,.1.33,1.2,1.2,0,0,1-.2.7,1.77,1.77,0,0,1-.51.51,2.87,2.87,0,0,1-1.41.41,2.47,2.47,0,0,1-.75-.11,1.42,1.42,0,0,1-.53-.29,1.25,1.25,0,0,1-.31-.44,1.42,1.42,0,0,1-.1-.55,2.24,2.24,0,0,1,.07-.55,3.46,3.46,0,0,1,.24-.57l.54.19a2,2,0,0,0-.16.37,1.12,1.12,0,0,0-.06.35.88.88,0,0,0,.06.33.86.86,0,0,0,.21.26,1,1,0,0,0,.36.17,1.64,1.64,0,0,0,.52.07,2.16,2.16,0,0,0,.47-.06,2.85,2.85,0,0,0,.5-.14,1.78,1.78,0,0,0,.39-.2c.11-.07.16-.14.16-.22s0-.06-.08-.08a.87.87,0,0,0-.21,0l-.32,0-.38,0a.51.51,0,0,1-.34-.17.54.54,0,0,1-.11-.35,1.25,1.25,0,0,1,.13-.57,1.54,1.54,0,0,1,.34-.48,1.76,1.76,0,0,1,.49-.33,1.32,1.32,0,0,1,.54-.12.92.92,0,0,1,.29,0,1,1,0,0,1,.28.11Z"/><path class="cls-3" d="M48,53.86a3.57,3.57,0,0,1,.28.49,1.42,1.42,0,0,1,.1.57,1.55,1.55,0,0,1-.1.54A2.66,2.66,0,0,1,48,56a3.59,3.59,0,0,1-1,1l-.57-.45.47-.3a4.09,4.09,0,0,0,.44-.37,1.85,1.85,0,0,0,.34-.41.77.77,0,0,0,.13-.43.62.62,0,0,0-.1-.31l-.21-.31Z"/><path class="cls-3" d="M49.58,55.18a.8.8,0,0,1-.33-.3,1.3,1.3,0,0,1-.16-.47,3.51,3.51,0,0,1-.05-.59c0-.09,0-.24,0-.42s0-.38,0-.6,0-.44,0-.67,0-.43,0-.63l.66-.27v2.68a.71.71,0,0,0,.12.45.47.47,0,0,0,.39.15v.78A1.16,1.16,0,0,1,49.58,55.18Z"/><path class="cls-3" d="M52.93,55.29a1.07,1.07,0,0,1-.35-.06.65.65,0,0,1-.29-.18,1.54,1.54,0,0,0,0,.17.54.54,0,0,1-.07.13l-.11.08a.5.5,0,0,1-.19,0l-.25,0-.27-.09-.26-.14a1.92,1.92,0,0,1-.21-.16,1.08,1.08,0,0,1-.31.19,1.33,1.33,0,0,1-.42.06h-.1s0,0,0,0v-.68s0,0,0,0l.1,0h.24a.59.59,0,0,0,.19,0,.54.54,0,0,0,.16-.1,1,1,0,0,0,.14-.19A1.64,1.64,0,0,1,51,54a1.08,1.08,0,0,1,.16-.2.8.8,0,0,1,.19-.13.47.47,0,0,1,.24,0,.41.41,0,0,1,.33.16l.27.36a1.93,1.93,0,0,0,.14.24.4.4,0,0,0,.13.13.38.38,0,0,0,.16,0H53v.78Zm-1.64-.9,0,.07,0,.06a1.11,1.11,0,0,0,.3.17.92.92,0,0,0,.26.07.08.08,0,0,0,.09-.06.3.3,0,0,0,0-.13.76.76,0,0,0-.12-.26.25.25,0,0,0-.22-.13Q51.38,54.18,51.29,54.39Z"/><path class="cls-3" d="M55.13,55.29a1,1,0,0,1-.49-.11.84.84,0,0,1-.36-.34,1.5,1.5,0,0,1-.54.34,1.87,1.87,0,0,1-.68.11h-.2s0,0,0,0v-.68s0,0,0,0l.1,0h.11c.48,0,.78-.08.89-.25a.47.47,0,0,0-.2-.17.77.77,0,0,0-.34-.06.84.84,0,0,1,.09-.4,1,1,0,0,1,.23-.29,1,1,0,0,1,.34-.16,1.75,1.75,0,0,1,.4,0l.27,0a.92.92,0,0,1,.23.09.52.52,0,0,1,.16.17.49.49,0,0,1,.06.25.46.46,0,0,1,0,.19,1,1,0,0,1-.11.2,1.46,1.46,0,0,1-.16.19l-.19.17c0,.06.21.09.5.09h.31v.78Z"/><path class="cls-3" d="M55.36,54.57s0,0,0,0l.1,0a1.17,1.17,0,0,0,.46-.07.66.66,0,0,0,.28-.24c0-.09.11-.18.16-.29a2,2,0,0,1,.19-.28.8.8,0,0,1,.23-.22.58.58,0,0,1,.65,0,1,1,0,0,1,.22.27,1.48,1.48,0,0,1,.13.35,2.26,2.26,0,0,1,0,.33,1.41,1.41,0,0,1,0,.28,1.14,1.14,0,0,1-.09.26.91.91,0,0,1-.18.21.41.41,0,0,1-.25.08,1.06,1.06,0,0,1-.45-.11,3.73,3.73,0,0,1-.39-.25,1.26,1.26,0,0,1-.4.33,1.21,1.21,0,0,1-.57.11h-.1s0,0,0,0Zm1.76-.64c-.15,0-.27.09-.36.34a.94.94,0,0,0,.23.16.85.85,0,0,0,.24.08.1.1,0,0,0,.14-.09.33.33,0,0,0,0-.14.75.75,0,0,0,0-.16L57.24,54A.25.25,0,0,0,57.12,53.93Z"/><path class="cls-3" d="M1.1,49.56H.29V49a1.66,1.66,0,0,1,.07-.56.73.73,0,0,1,.21-.35A1.34,1.34,0,0,1,1,47.84l.11.29a.62.62,0,0,0-.47.61h.5Z"/></svg>