<svg id="Layer_1" data-name="Layer 1" xmlns="http://www.w3.org/2000/svg" viewBox="0 0 153.25 176.53"><defs><style>.cls-1{fill:#005879;}</style></defs><path class="cls-1" d="M61.79,31.14l-7.27,2-.28-1.27,7.24-2.17Z"/><path class="cls-1" d="M64.23,26.45a5.82,5.82,0,0,1-2.77-.55,3.42,3.42,0,0,1-1.53-1.69,4.51,4.51,0,0,1-2.29,2.14,8.18,8.18,0,0,1-3.26.65,9.82,9.82,0,0,1-2.6-.34,7.08,7.08,0,0,1-2.15-1l1.31-2.21a3.75,3.75,0,0,0,1.53.71,8.66,8.66,0,0,0,2,.22,9.71,9.71,0,0,0,1.71-.15,6.16,6.16,0,0,0,1.52-.49A3.43,3.43,0,0,0,58.79,23a1.69,1.69,0,0,0,.45-1.08l-1.55-8.1,1.89-1.44L61,19.87c.14.67.26,1.26.38,1.76a3.47,3.47,0,0,0,.52,1.26,2.19,2.19,0,0,0,.91.76,3.81,3.81,0,0,0,1.53.25h.1v2.55Z"/><path class="cls-1" d="M72.26,26.45a5.43,5.43,0,0,1-2.67-.51,3,3,0,0,1-1.29-1.55A3.94,3.94,0,0,1,66.66,26a4.6,4.6,0,0,1-2,.48h-.14a1.88,1.88,0,0,1-.53-.07c-.17,0-.26-.1-.26-.17V24.15c0-.1.09-.16.26-.19a2.33,2.33,0,0,1,.53-.06,4.15,4.15,0,0,0,2.19-.56,2.1,2.1,0,0,0,1-1.95v-1.1l1.79-.66a11,11,0,0,0,.14,1.95,3.27,3.27,0,0,0,.5,1.33,2.07,2.07,0,0,0,1,.75,4.67,4.67,0,0,0,1.63.24v2.55ZM68.47,17.5,66.2,15.91l1.72-2.1,2.24,1.59Z"/><path class="cls-1" d="M69.64,31.79l1.48-1.89,2,1.48,1.45-1.72,2,1.48L75.08,33l-2-1.52-1.41,1.76Zm2.24-7.64c0-.1.08-.16.26-.19a2.33,2.33,0,0,1,.53-.06h.69a5,5,0,0,0,2.15-.39,1.32,1.32,0,0,0,.81-1.26,2.47,2.47,0,0,0-.5-1.39c-.33-.5-.65-.94-.94-1.33l1.75-1.89a7.76,7.76,0,0,1,1.28,2A6.63,6.63,0,0,1,78.39,22q0,4.41-5.17,4.41h-.55a1.88,1.88,0,0,1-.53-.07c-.18,0-.26-.1-.26-.17Z"/><path class="cls-1" d="M87.12,1.27a4.2,4.2,0,0,1-1.18,1.28,4.38,4.38,0,0,1-1.39.64A6,6,0,0,1,83,3.36a14.18,14.18,0,0,1-1.59-.12c-.48-.07-.91-.13-1.29-.17a5.44,5.44,0,0,0-1,0,2.54,2.54,0,0,0-.91.23,5,5,0,0,0-.92.53L76.2,2.55a5.42,5.42,0,0,1,1.22-1,4,4,0,0,1,1.15-.41,4,4,0,0,1,1.3,0c.47.07,1,.16,1.67.28a6.41,6.41,0,0,0,1.56.13,4.27,4.27,0,0,0,1.23-.22,4.71,4.71,0,0,0,1-.53,9,9,0,0,0,1-.83ZM82.81,26l-1.76.48c0-1.24-.08-2.7-.12-4.39s-.07-3.47-.1-5.35-.08-3.8-.12-5.74-.09-3.79-.14-5.56l2.24-.9Z"/><path class="cls-1" d="M89.19,26a7.15,7.15,0,0,1-.86,3.17,12.48,12.48,0,0,1-2,2.74,16.8,16.8,0,0,1-2.6,2.24A21.94,21.94,0,0,1,81,35.75L79.45,34a24.66,24.66,0,0,0,2.67-1.46,17,17,0,0,0,2.34-1.76,10.94,10.94,0,0,0,1.76-2,5.46,5.46,0,0,0,.87-2.28,4.37,4.37,0,0,0-.46-2.06,12.6,12.6,0,0,0-1-1.69l1.72-2c.3.41.56.8.79,1.18a6.15,6.15,0,0,0,.73,1,3.4,3.4,0,0,0,.82.71,2.11,2.11,0,0,0,1.1.27v2.55A2.9,2.9,0,0,1,89.19,26Z"/><path class="cls-1" d="M90.74,26.45a1.88,1.88,0,0,1-.53-.07c-.17,0-.26-.1-.26-.17V24.15c0-.1.09-.16.26-.19a2.33,2.33,0,0,1,.53-.06H94v2.55Z"/><path class="cls-1" d="M93.15,24.15c0-.1.09-.16.26-.19A2.42,2.42,0,0,1,94,23.9h3.17a11.48,11.48,0,0,0,1.51-.1,6.82,6.82,0,0,0,1.48-.36,3,3,0,0,0,1.14-.72,1.69,1.69,0,0,0,.45-1.23v-.22a.51.51,0,0,0,0-.22,9.43,9.43,0,0,1-1.44.55,5.52,5.52,0,0,1-1.42.2,2.52,2.52,0,0,1-1.74-.63,2.82,2.82,0,0,1-.7-2.16,6.52,6.52,0,0,1,.27-1.7,8.5,8.5,0,0,1,.78-1.86A6.33,6.33,0,0,1,98.56,14a2,2,0,0,1,3,.21,7.06,7.06,0,0,1,1.14,2,12.75,12.75,0,0,1,.67,2.34,11.34,11.34,0,0,1,.23,2q0,6-6.2,6H94a2,2,0,0,1-.54-.07c-.17,0-.26-.1-.26-.17Zm6.69-13.37L97.56,9.2l1.73-2.1,2.23,1.58Zm-.59,8.61a3,3,0,0,0,1-.19,5.14,5.14,0,0,0,1-.43c-.07-.3-.16-.62-.26-1a5.87,5.87,0,0,0-.36-.95,2.76,2.76,0,0,0-.48-.71.87.87,0,0,0-.62-.27.82.82,0,0,0-.54.22,2.44,2.44,0,0,0-.46.57,4.08,4.08,0,0,0-.35.76,2.51,2.51,0,0,0-.13.79,1.31,1.31,0,0,0,.27.83A1.14,1.14,0,0,0,99.25,19.39Z"/><path class="cls-1" d="M.39,79.8c.92-.53,1.93-1.09,3-1.71a35,35,0,0,0,3.2-2,23.18,23.18,0,0,0,2.83-2.32,9.24,9.24,0,0,0,2-2.72c-.22,0-.42.06-.6.07a5.07,5.07,0,0,1-.55,0,6.67,6.67,0,0,1-2.67-.49,4.83,4.83,0,0,1-1.82-1.33,5.73,5.73,0,0,1-1.06-2,8.8,8.8,0,0,1-.34-2.53,9.71,9.71,0,0,1,.46-2.88,9.33,9.33,0,0,1,1.31-2.71,7.8,7.8,0,0,1,2-2,4.42,4.42,0,0,1,2.53-.78,4.21,4.21,0,0,1,3,1.13,8.38,8.38,0,0,1,1.95,2.78,14.8,14.8,0,0,1,1.06,3.52A19.37,19.37,0,0,1,17,67.19a14.94,14.94,0,0,1-1,5.68,16.43,16.43,0,0,1-2.67,4.49,20.36,20.36,0,0,1-3.75,3.49,40,40,0,0,1-4.25,2.72ZM8.9,64a1.25,1.25,0,0,0-.14.55.9.9,0,0,0,.37.78,1.6,1.6,0,0,0,1,.28,6.6,6.6,0,0,0,1.43-.16,2.1,2.1,0,0,0,1-.39A7.86,7.86,0,0,0,12.26,64c-.13-.37-.27-.72-.42-1a2.58,2.58,0,0,0-.55-.78,1,1,0,0,0-.69-.3,1.25,1.25,0,0,0-1,.67A5.3,5.3,0,0,0,8.9,64Z"/><path class="cls-1" d="M31.93,62.45a4.74,4.74,0,0,0-.46,1c-.16.44-.29.9-.42,1.38s-.22.95-.3,1.44a9.34,9.34,0,0,0-.11,1.25A6.2,6.2,0,0,0,31,69.49a4.21,4.21,0,0,0,1.11,1.72,5.43,5.43,0,0,0,2.14,1.22,10.53,10.53,0,0,0,3.38.46,22.18,22.18,0,0,0,3.24-.25,21.84,21.84,0,0,0,3.31-.74A20.38,20.38,0,0,0,47,70.8a5,5,0,0,0,1.88-1.4,1.06,1.06,0,0,0,.26-.44.24.24,0,0,0-.07-.23.65.65,0,0,0-.37-.07l-1.82-.11q-1.12-.08-2.37-.21c-.82-.09-1.61-.22-2.37-.37a5.31,5.31,0,0,1-1.77-.64,3.57,3.57,0,0,1-1.49-1.75A7,7,0,0,1,38.46,63a7.75,7.75,0,0,1,1-3.45A16.2,16.2,0,0,1,45.71,53a8.39,8.39,0,0,1,6.74-.8,16.87,16.87,0,0,1,1.93.69l-2.07,5.52a9,9,0,0,0-1-.39,4.17,4.17,0,0,0-1.38-.21,6.05,6.05,0,0,0-2.17.41,9.58,9.58,0,0,0-2,1,8.39,8.39,0,0,0-1.57,1.38,5.3,5.3,0,0,0-.94,1.45l2.51.27,2.51.28a10.84,10.84,0,0,1,3.19.81,4.07,4.07,0,0,1,1.66,1.26,3.43,3.43,0,0,1,.64,1.59,12.73,12.73,0,0,1,.12,1.77,5.38,5.38,0,0,1-.76,2.71,11,11,0,0,1-2,2.53,17.28,17.28,0,0,1-2.93,2.21,23,23,0,0,1-3.47,1.75,23.81,23.81,0,0,1-3.66,1.15,15.62,15.62,0,0,1-3.49.41,13.49,13.49,0,0,1-5.62-1,9.81,9.81,0,0,1-3.54-2.62,9.3,9.3,0,0,1-1.86-3.63,15.65,15.65,0,0,1-.53-4,12.46,12.46,0,0,1,.18-2c.12-.72.28-1.43.46-2.12s.39-1.33.62-1.93A10.76,10.76,0,0,1,28,60Z"/><path class="cls-1" d="M61.38,61.07c.25.4.53.84.85,1.31A13,13,0,0,1,63.15,64a12.22,12.22,0,0,1,.74,2.07,10.27,10.27,0,0,1,.3,2.58,11,11,0,0,1-1,4.53,20.68,20.68,0,0,1-2.51,4.14,23.7,23.7,0,0,1-3.27,3.43,19.72,19.72,0,0,1-3.29,2.35l-4.55-3.68c1.16-.65,2.34-1.37,3.54-2.17a24.9,24.9,0,0,0,3.24-2.53,13.16,13.16,0,0,0,2.37-2.83,5.67,5.67,0,0,0,.92-3.05,3.06,3.06,0,0,0-.18-1A9.08,9.08,0,0,0,59,66.77c-.19-.36-.38-.72-.58-1.08s-.39-.66-.57-.94Z"/><path class="cls-1" d="M70.05,70.11A6.33,6.33,0,0,1,67.7,68.2a8.22,8.22,0,0,1-1.31-2.71A12.16,12.16,0,0,1,66,62.36l0-17.58,4.6-1.7,0,19.28a2.55,2.55,0,0,0,.67,1.7,2.84,2.84,0,0,0,2.27.78v6A7.73,7.73,0,0,1,70.05,70.11Z"/><path class="cls-1" d="M93.58,70.82a7.84,7.84,0,0,1-4.44-1.31A18.71,18.71,0,0,1,87,67.88c-.73-.65-1.53-1.41-2.39-2.3a6.55,6.55,0,0,1-.92,2,5.28,5.28,0,0,1-1.93,1.68,11.79,11.79,0,0,1-3.29,1.13,24.63,24.63,0,0,1-5,.41,2.82,2.82,0,0,1-.71-.09c-.23-.06-.34-.14-.34-.23V65.21c0-.12.11-.21.34-.28a2.82,2.82,0,0,1,.71-.09,28.15,28.15,0,0,0,3.8-.2,6.87,6.87,0,0,0,2-.56,1.59,1.59,0,0,0,.83-.78,2.37,2.37,0,0,0,.16-.85,3.38,3.38,0,0,0-.82-2,20.16,20.16,0,0,0-2-2.16q-1.12-1.08-2.28-2.07a15.13,15.13,0,0,1-1.75-1.72l.1-2.49A5.33,5.33,0,0,1,74.28,50a6.82,6.82,0,0,1,.81-1,16.84,16.84,0,0,1,1.47-1L79,46.48c.92-.55,1.94-1.12,3-1.72s2.22-1.2,3.36-1.79,2.24-1.16,3.31-1.68,2.06-1,3-1.38v6.67c-1.08.46-2.17,1-3.29,1.49L85,49.66q-1.62.78-3.06,1.59c-1,.53-1.85,1-2.65,1.49,1.07,1,2.16,2.08,3.25,3.2s2.3,2.35,3.65,3.7c.86.89,1.61,1.66,2.26,2.3a18.62,18.62,0,0,0,1.79,1.61,6.82,6.82,0,0,0,1.61,1,4.33,4.33,0,0,0,1.7.32H94v6Z"/><path class="cls-1" d="M94,70.82a2.82,2.82,0,0,1-.71-.09c-.23-.06-.35-.14-.35-.23V65.21c0-.12.12-.21.35-.28a2.82,2.82,0,0,1,.71-.09h4.6v6Z"/><path class="cls-1" d="M98.55,70.82a2.82,2.82,0,0,1-.71-.09c-.23-.06-.35-.14-.35-.23V65.21c0-.12.12-.21.35-.28a2.82,2.82,0,0,1,.71-.09h4.6v6Z"/><path class="cls-1" d="M103.15,70.82a2.82,2.82,0,0,1-.71-.09c-.23-.06-.35-.14-.35-.23V65.21c0-.12.12-.21.35-.28a2.82,2.82,0,0,1,.71-.09h4.6v6Z"/><path class="cls-1" d="M107.75,70.82a2.82,2.82,0,0,1-.71-.09c-.23-.06-.35-.14-.35-.23V65.21c0-.12.12-.21.35-.28a2.82,2.82,0,0,1,.71-.09h4.6v6Z"/><path class="cls-1" d="M132.5,70.82a6.07,6.07,0,0,1-2.25-.41,10.34,10.34,0,0,1-2.07-1.1,5,5,0,0,1-1.27,2.27,3,3,0,0,1-2.23.9,5.06,5.06,0,0,1-1.56-.28,13.82,13.82,0,0,1-1.82-.73,20.57,20.57,0,0,1-1.88-1c-.63-.38-1.24-.77-1.82-1.17a7.34,7.34,0,0,1-1.87,1.13,5.92,5.92,0,0,1-2.32.43h-1.06a2.82,2.82,0,0,1-.71-.09c-.23-.06-.34-.14-.34-.23V65.21c0-.12.11-.21.34-.28a2.82,2.82,0,0,1,.71-.09h1.06a2.44,2.44,0,0,0,1.27-.34,4.27,4.27,0,0,0,1-.88,8,8,0,0,0,.85-1.17l.76-1.24,1.06-1.77a9.38,9.38,0,0,1,1.1-1.5,5.48,5.48,0,0,1,1.27-1,2.9,2.9,0,0,1,1.5-.4,2.64,2.64,0,0,1,1.38.42A7.71,7.71,0,0,1,125,58a19.34,19.34,0,0,1,1.4,1.54l1.38,1.73.9,1.17a7.58,7.58,0,0,0,1.06,1.13,5.69,5.69,0,0,0,1.26.85,3.73,3.73,0,0,0,1.47.39Zm-9.33-4.37a2.83,2.83,0,0,0,.36.16.6.6,0,0,0,.37,0,.43.43,0,0,0,.28-.21,1.31,1.31,0,0,0,.09-.58,2.89,2.89,0,0,0-.12-.75,6.27,6.27,0,0,0-.29-.9c-.13-.31-.25-.59-.37-.85a3.61,3.61,0,0,0-.37-.62c-.22-.25-.42-.34-.62-.28a1.26,1.26,0,0,0-.53.32c-.06.06-.23.29-.51.67a5.44,5.44,0,0,0-.69,1.45,9.29,9.29,0,0,0,1.18.87A8.62,8.62,0,0,0,123.17,66.45Z"/><path class="cls-1" d="M135.68,64.84a4.43,4.43,0,0,1-.65-1.17,4,4,0,0,1-.27-1.4,6.07,6.07,0,0,1,.39-2.21,7.06,7.06,0,0,1,1-1.84,7,7,0,0,1,3.22-2.35L138.26,55l3.58-4.64q1.8,1.51,3.8,3.42a41.48,41.48,0,0,1,3.7,4,22.55,22.55,0,0,1,2.81,4.51,11.32,11.32,0,0,1,1.1,4.85,9.24,9.24,0,0,1-.2,2,4.7,4.7,0,0,1-.72,1.71A3.86,3.86,0,0,1,151,72.11a3.92,3.92,0,0,1-2,.46,6.46,6.46,0,0,1-1.77-.27,18,18,0,0,1-1.89-.69c-.63-.28-1.25-.57-1.86-.88s-1.2-.58-1.75-.83a10.63,10.63,0,0,1-4.41.92H132.5a2.82,2.82,0,0,1-.71-.09c-.23-.06-.34-.14-.34-.23V65.21c0-.12.11-.21.34-.28a2.82,2.82,0,0,1,.71-.09Zm3.45-3a1.27,1.27,0,0,0,.28.78,3.18,3.18,0,0,0,.66.66,9,9,0,0,0,.85.58,8.36,8.36,0,0,0,.88.46,3.12,3.12,0,0,0,.92-1.17A3.16,3.16,0,0,0,143,61.9a2.8,2.8,0,0,0-.41-1.43,1.29,1.29,0,0,0-1.15-.69,2.25,2.25,0,0,0-.74.16A3,3,0,0,0,139.38,61,1.37,1.37,0,0,0,139.13,61.81Zm7.13.69a9.59,9.59,0,0,1-.39,1.74,10.71,10.71,0,0,1-.62,1.61l1.49.79.81.41a2,2,0,0,0,.37.16.55.55,0,0,0,.18,0c.34,0,.51-.21.51-.64a3.76,3.76,0,0,0-.78-2.23A16.26,16.26,0,0,0,146.26,62.5Z"/><path class="cls-1" d="M16.82,125.44a6,6,0,0,1-2.37-1.8A10.21,10.21,0,0,1,11,125.9a10.88,10.88,0,0,1-4,.78A12.19,12.19,0,0,1,3,126a9.59,9.59,0,0,1-3-1.56l2.94-4.6a3.55,3.55,0,0,0,1.48.6A12.48,12.48,0,0,0,7,120.7a10.59,10.59,0,0,0,1.77-.16,8.32,8.32,0,0,0,1.64-.46,5.07,5.07,0,0,0,1.26-.72,1.71,1.71,0,0,0,.67-.92c-.34-1.75-.67-3.38-1-4.9s-.68-3.16-1-4.94l4.27-3,2.35,12a2.9,2.9,0,0,0,1,1.82,3.54,3.54,0,0,0,2.26.62v6A8.74,8.74,0,0,1,16.82,125.44Z"/><path class="cls-1" d="M21.67,120.05c2,0,2.94-.35,2.94-1.06a1.23,1.23,0,0,0-.2-.5q-.21-.37-.51-.81l-.62-.89-.51-.74,3.41-4.74c.21.28.49.68.83,1.2a19.18,19.18,0,0,1,1,1.79,17.25,17.25,0,0,1,.85,2.21,8.6,8.6,0,0,1,.36,2.48,6.82,6.82,0,0,1-1.93,5.25A7.94,7.94,0,0,1,21.67,126H20.2a2.84,2.84,0,0,1-.72-.09c-.23-.06-.34-.14-.34-.23v-5.29c0-.12.11-.21.34-.28a2.84,2.84,0,0,1,.72-.09Zm3.59-10.58-1.82-1.26-1.82-1.27c.49-.61.95-1.19,1.36-1.73s.88-1.11,1.4-1.72l1.78,1.26c.56.42,1.15.84,1.77,1.27Z"/><path class="cls-1" d="M38.48,125.9A14.52,14.52,0,0,1,36.89,130a16.77,16.77,0,0,1-2.58,3.39A23,23,0,0,1,31,136.16a41.32,41.32,0,0,1-3.69,2.25l-4.41-3.59q1.25-.65,3.15-1.68a26,26,0,0,0,3.66-2.41,16.28,16.28,0,0,0,3-3.09A6.06,6.06,0,0,0,34,124a2.61,2.61,0,0,0-.23-1,8,8,0,0,0-.56-1q-.31-.51-.66-1c-.23-.32-.43-.61-.58-.85l3.87-3.91c.21.37.46.78.73,1.24a11.06,11.06,0,0,0,.9,1.27,5.76,5.76,0,0,0,1,1,2.13,2.13,0,0,0,1.25.39v6A5.88,5.88,0,0,1,38.48,125.9Z"/><path class="cls-1" d="M41.24,120.05c2,0,2.94-.35,2.94-1.06a1.4,1.4,0,0,0-.2-.5q-.21-.37-.51-.81l-.62-.89-.51-.74,3.41-4.74c.21.28.49.68.83,1.2a17.16,17.16,0,0,1,1,1.79,15.89,15.89,0,0,1,.86,2.21,8.6,8.6,0,0,1,.36,2.48,6.82,6.82,0,0,1-1.93,5.25A7.94,7.94,0,0,1,41.24,126H39.77a2.84,2.84,0,0,1-.72-.09c-.23-.06-.34-.14-.34-.23v-5.29c0-.12.11-.21.34-.28a2.84,2.84,0,0,1,.72-.09Zm2.58,15.42L42,134.2l-1.82-1.27,1.36-1.72c.41-.54.88-1.11,1.4-1.73l1.77,1.27L46.48,132Z"/><path class="cls-1" d="M73.13,126a10.65,10.65,0,0,1-2.81-.32,6,6,0,0,1-2.07-1,5.73,5.73,0,0,1-1.47-1.62,10.13,10.13,0,0,1-1-2.2,14.4,14.4,0,0,1-2.49.87,9.3,9.3,0,0,1-2.3.32,4.09,4.09,0,0,1-3.56-1.56,6.22,6.22,0,0,1-1.13-3.77A5.85,5.85,0,0,1,57,114a10.7,10.7,0,0,1,1.72-2.37A14.12,14.12,0,0,1,61,109.7a23.12,23.12,0,0,1,2.28-1.38l-.28-1.7,4.23-3.13,2.44,13.62a4.32,4.32,0,0,0,1,2.23,3.51,3.51,0,0,0,2.53.71Zm-8.56-10a3.28,3.28,0,0,0-.07-.53c0-.26-.1-.55-.16-.87s-.11-.62-.16-.88-.09-.43-.12-.53c-.18.1-.47.26-.87.51a9.13,9.13,0,0,0-1.17.85,6.26,6.26,0,0,0-1,1,1.19,1.19,0,0,0-.32,1c0,.28.22.42.57.44a4.52,4.52,0,0,0,1.2-.14,8.44,8.44,0,0,0,1.26-.41A3.9,3.9,0,0,0,64.57,116.05Z"/><path class="cls-1" d="M89.09,126a11.69,11.69,0,0,1-4.69-.76,7.22,7.22,0,0,1-2.81-2.14c-.52.44-1,.83-1.56,1.2a7.72,7.72,0,0,1-1.73.92,11,11,0,0,1-2.09.58,16.15,16.15,0,0,1-2.67.2h-.41a2.84,2.84,0,0,1-.72-.09c-.23-.06-.34-.14-.34-.23v-5.29c0-.12.11-.21.34-.28a2.84,2.84,0,0,1,.72-.09h.41a11.57,11.57,0,0,0,3.18-.37,7.2,7.2,0,0,0,2.2-1c-.33-.18-.81-.43-1.42-.73a3.64,3.64,0,0,0-2-.37,9.12,9.12,0,0,1,.92-3.36,8.24,8.24,0,0,1,1.75-2.35,6.7,6.7,0,0,1,2.18-1.35,6.35,6.35,0,0,1,2.28-.44,8.56,8.56,0,0,1,2.12.27,6.25,6.25,0,0,1,1.91.86,4.39,4.39,0,0,1,1.38,1.54,5.3,5.3,0,0,1,.57,2.39,4.56,4.56,0,0,1-.71,2.78,8.08,8.08,0,0,1-1.82,1.87,12.09,12.09,0,0,0,3,.27h1.84v6Z"/><path class="cls-1" d="M103.2,120.05a2.76,2.76,0,0,0,1.27-.25,2.12,2.12,0,0,0,.73-.6,2.25,2.25,0,0,0,.35-.69,2.35,2.35,0,0,0,.09-.57v-.35c0-.17,0-.34,0-.53a4.84,4.84,0,0,1,0-.53v-.39l4-1.15a11.3,11.3,0,0,1,.09,1.54,7.28,7.28,0,0,0,.2,1.71,3.07,3.07,0,0,0,.74,1.35,2.16,2.16,0,0,0,1.63.55,2.73,2.73,0,0,0,1.27-.25,2.09,2.09,0,0,0,1.08-1.29,2.35,2.35,0,0,0,.09-.57v-.37c0-.18,0-.38,0-.57a5.53,5.53,0,0,1,0-.56v-.39l4-1.15a11.3,11.3,0,0,1,.09,1.54,7,7,0,0,0,.21,1.73,3.19,3.19,0,0,0,.73,1.4,2.11,2.11,0,0,0,1.64.58,4.54,4.54,0,0,0,.6,0,2.31,2.31,0,0,0,.62-.18,1.71,1.71,0,0,0,.5-.37.79.79,0,0,0,.21-.55,3.72,3.72,0,0,0-.32-1.68,5.67,5.67,0,0,0-.78-1.13l3.54-4a8.26,8.26,0,0,1,1.42,2.4,11.35,11.35,0,0,1,.74,4.23,8.81,8.81,0,0,1-.57,3.36,6.38,6.38,0,0,1-1.52,2.25,5.86,5.86,0,0,1-2.12,1.27,7.33,7.33,0,0,1-2.32.39,9.43,9.43,0,0,1-2.4-.32,4.65,4.65,0,0,1-2.16-1.38,5.87,5.87,0,0,1-1.88,1.17,7.17,7.17,0,0,1-2.63.44,9,9,0,0,1-2.39-.33,4.4,4.4,0,0,1-2.16-1.38,5.83,5.83,0,0,1-1.89,1.18,7.12,7.12,0,0,1-2.62.43H89.9a2.82,2.82,0,0,1-.71-.09c-.23-.06-.35-.14-.35-.23v-5.29c0-.12.12-.21.35-.28a2.82,2.82,0,0,1,.71-.09Z"/><path class="cls-1" d="M142,126a13,13,0,0,1-1.58,4.19,17.23,17.23,0,0,1-2.7,3.43,23.84,23.84,0,0,1-3.42,2.8c-1.25.85-2.48,1.62-3.71,2.33l-5-3.77c1-.56,2-1.15,3.1-1.78a33.1,33.1,0,0,0,3.22-2,26.66,26.66,0,0,0,2.86-2.37,9.16,9.16,0,0,0,2-2.79h-1.2a6,6,0,0,1-4.39-1.49,5.91,5.91,0,0,1-1.54-4.44,9.49,9.49,0,0,1,.48-2.92,10.71,10.71,0,0,1,1.33-2.74,7.68,7.68,0,0,1,2-2,4.5,4.5,0,0,1,2.55-.78,4.56,4.56,0,0,1,2.56.76,7.21,7.21,0,0,1,1.93,2,12,12,0,0,1,1.33,2.69,16.4,16.4,0,0,1,.76,3h.69v6Zm-6-8.88a1.65,1.65,0,0,0-1.31.72,2.34,2.34,0,0,0-.57,1.49q0,.69,1,.69h3c-.06-.3-.15-.63-.25-1a4.25,4.25,0,0,0-.42-.94,2.43,2.43,0,0,0-.62-.69A1.38,1.38,0,0,0,136,117.15Z"/><path class="cls-1" d="M144.74,120.05c2,0,2.95-.35,2.95-1.06a1.3,1.3,0,0,0-.21-.5q-.21-.37-.51-.81c-.2-.29-.4-.59-.62-.89l-.5-.74,3.4-4.74c.22.28.49.68.83,1.2a15.47,15.47,0,0,1,1,1.79,17.25,17.25,0,0,1,.85,2.21,8.28,8.28,0,0,1,.37,2.48,6.86,6.86,0,0,1-1.93,5.25,8,8,0,0,1-5.62,1.79h-1.47a2.82,2.82,0,0,1-.71-.09c-.23-.06-.35-.14-.35-.23v-5.29c0-.12.12-.21.35-.28a2.82,2.82,0,0,1,.71-.09Zm8.51-14c-.43.61-.85,1.19-1.28,1.73s-.86,1.11-1.29,1.72l-2.81-2.12-2,2.35-1.79-1.24-1.8-1.24c.43-.59.88-1.16,1.34-1.73s.9-1.13,1.33-1.68l2.95,2.3,1.75-2.57Z"/><path class="cls-1" d="M0,164.34a6.5,6.5,0,0,1,.65-3c.44-.86.92-1.73,1.45-2.6a1.61,1.61,0,0,1-.48-.38L3,155.86q5.07,4,5.07,7.48a6.26,6.26,0,0,1-.28,1.84,4.28,4.28,0,0,1-.83,1.53,3.92,3.92,0,0,1-1.36,1,4.32,4.32,0,0,1-1.84.37A3.5,3.5,0,0,1,1,167.06,4,4,0,0,1,0,164.34Zm5.82-1a2.9,2.9,0,0,0-.76-1.93,13.61,13.61,0,0,0-1.65-1.66,14.43,14.43,0,0,0-1,1.92,4.79,4.79,0,0,0-.46,1.94,1.28,1.28,0,0,0,.6,1.17,2.25,2.25,0,0,0,1.35.36,2.26,2.26,0,0,0,1.34-.46A1.57,1.57,0,0,0,5.82,163.34Z"/><path class="cls-1" d="M11.41,166.56a4.2,4.2,0,0,1-1.5-1.74,7,7,0,0,1-.62-2.41c-.08-.9-.12-1.78-.12-2.66V146.49l2.17-1.44,0,15.77a13.05,13.05,0,0,0,.07,1.41,3.45,3.45,0,0,0,.36,1.24,2.19,2.19,0,0,0,.88.88,3.24,3.24,0,0,0,1.59.33v2.55A5,5,0,0,1,11.41,166.56Z"/><path class="cls-1" d="M28.52,167.23a4.4,4.4,0,0,1-1.67-.31,6.37,6.37,0,0,1-1.54-.95,21.22,21.22,0,0,1-1.73-1.6c-.64-.64-1.4-1.39-2.3-2.24a5.54,5.54,0,0,1-.46,2.41,4.28,4.28,0,0,1-1.27,1.57,5.16,5.16,0,0,1-1.93.86,11,11,0,0,1-2.43.26h-.14a1.88,1.88,0,0,1-.53-.07c-.18,0-.26-.1-.26-.17v-2.07c0-.09.08-.15.26-.19a3.07,3.07,0,0,1,.53,0q4.68,0,4.68-2.76a3.29,3.29,0,0,0-.58-1.82,11.46,11.46,0,0,0-1.36-1.71,20.76,20.76,0,0,0-1.55-1.46,10.84,10.84,0,0,1-1.16-1.1c0-.83.06-1.44.11-1.85s.11-.63.2-.7a65.53,65.53,0,0,1,7-4.2,74.45,74.45,0,0,1,6.94-3.21l-.38,2.62-1.51.69-2.14,1c-.78.37-1.59.78-2.43,1.2l-2.41,1.24c-.77.4-1.45.78-2.05,1.14a13,13,0,0,0-1.34.88c1.79,1.67,3.28,3.14,4.46,4.39s2.2,2.29,3.06,3.13a12.75,12.75,0,0,0,2.36,1.88,4.72,4.72,0,0,0,2.38.62h1v2.55Zm-1-22.18q-1.34.62-4.37,2.15t-7.82,4.08l.14-1.52q3.54-2,6.56-3.59c2-1.07,3.87-2,5.6-2.88Z"/><path class="cls-1" d="M27.34,164.92c0-.09.09-.15.26-.19a3.19,3.19,0,0,1,.54,0h.69a4.85,4.85,0,0,0,2.15-.4,1.31,1.31,0,0,0,.81-1.25,2.57,2.57,0,0,0-.5-1.4c-.33-.49-.65-.93-.95-1.33l1.76-1.89a7.72,7.72,0,0,1,1.27,2,6.47,6.47,0,0,1,.48,2.38q0,4.41-5.16,4.41h-.55a2,2,0,0,1-.54-.07c-.17,0-.26-.1-.26-.17Zm4.07-8.37L29.14,155l1.72-2.11,2.24,1.59Z"/><path class="cls-1" d="M67.74,167.23a4.4,4.4,0,0,1-1.67-.31,6.1,6.1,0,0,1-1.52-.95,23.06,23.06,0,0,1-1.72-1.6c-.63-.64-1.39-1.39-2.29-2.24v.17a3.33,3.33,0,0,1-.59,1.95,5.31,5.31,0,0,1-1.55,1.46,9.53,9.53,0,0,1-2.2,1,21,21,0,0,1-2.57.67,24,24,0,0,1-2.61.36c-.87.07-1.64.1-2.33.1-1,0-2-.08-3-.17a10.51,10.51,0,0,1-2.91-.65,5.21,5.21,0,0,1-2.17-1.54,4.2,4.2,0,0,1-.84-2.77A5,5,0,0,1,40,161a5.49,5.49,0,0,1,.77-1.46l1.62.48a5.26,5.26,0,0,0-.51,1.24,3.91,3.91,0,0,0-.14,1,2.06,2.06,0,0,0,.74,1.71,4.77,4.77,0,0,0,1.82.89,10.81,10.81,0,0,0,2.36.35c.85,0,1.62.05,2.31.05s1.22-.06,2-.12,1.45-.14,2.18-.26,1.45-.26,2.14-.43a9.88,9.88,0,0,0,1.86-.65,5.15,5.15,0,0,0,1.33-.9,1.63,1.63,0,0,0,.5-1.19A3.71,3.71,0,0,0,58.3,160,11.73,11.73,0,0,0,57,158.32c-.51-.51-1-1-1.5-1.43s-.87-.79-1.12-1.06c0-.83.06-1.44.1-1.85s.13-.63.24-.7a59.38,59.38,0,0,1,6.93-4.2c2.43-1.27,4.74-2.33,6.92-3.21l-.34,2.62-1.5.69c-.66.3-1.37.64-2.15,1s-1.6.78-2.45,1.2l-2.41,1.24c-.76.4-1.44.78-2,1.14a10.09,10.09,0,0,0-1.33.88c1.79,1.67,3.28,3.14,4.45,4.39s2.19,2.29,3.06,3.13a12.79,12.79,0,0,0,2.38,1.88,4.6,4.6,0,0,0,2.34.62h1v2.55Z"/><path class="cls-1" d="M66.46,172.57l1.49-1.9,2,1.48,1.44-1.72,2,1.48-1.55,1.86-2-1.51L68.53,174Zm2.24-7.65c0-.09.09-.15.26-.19a3.1,3.1,0,0,1,.54,0h.68a4.87,4.87,0,0,0,2.16-.4,1.31,1.31,0,0,0,.81-1.25,2.57,2.57,0,0,0-.5-1.4c-.34-.49-.65-.93-1-1.33l1.76-1.89a7.72,7.72,0,0,1,1.27,2,6.47,6.47,0,0,1,.48,2.38q0,4.41-5.16,4.41H69.5a1.9,1.9,0,0,1-.54-.07c-.17,0-.26-.1-.26-.17Z"/><path class="cls-1" d="M111.78,167.23a3.64,3.64,0,0,1-2-.47,2.4,2.4,0,0,1-1-1.29,2.89,2.89,0,0,1-1.33,1.4,4.54,4.54,0,0,1-3.79-.05,3.34,3.34,0,0,1-1.39-1.35A2.86,2.86,0,0,1,101,166.8a4.17,4.17,0,0,1-1.91.46,4.65,4.65,0,0,1-1-.1,3.06,3.06,0,0,1-1-.41,9.05,9.05,0,0,1-.47,3.44,9,9,0,0,1-1.7,2.95,8.25,8.25,0,0,1-2.83,2.06,9.08,9.08,0,0,1-3.86.78,7.55,7.55,0,0,1-4.35-1.14,6.32,6.32,0,0,1-2.4-2.93A8,8,0,0,1,81,168a10.92,10.92,0,0,1,1.38-4.17l1.65.76a14.08,14.08,0,0,0-.72,2.36,7.69,7.69,0,0,0-.17,2.15,4.14,4.14,0,0,0,.91,2.46A4.81,4.81,0,0,0,86,173a6.64,6.64,0,0,0,2.55.45,7.05,7.05,0,0,0,2.62-.54,6.22,6.22,0,0,0,2.17-1.5A5,5,0,0,0,94.6,169a7.31,7.31,0,0,0-.11-3,8.81,8.81,0,0,0-1.38-3.05l2-1.45a10.74,10.74,0,0,0,1.55,2.31,3,3,0,0,0,2.14.93h.41a2.09,2.09,0,0,0,1.67-.62,3.67,3.67,0,0,0,.54-2.34v-.28l1.75-.65a11.32,11.32,0,0,0,.09,1.43,4.16,4.16,0,0,0,.34,1.25,2.31,2.31,0,0,0,.73.9,2,2,0,0,0,1.25.34,2.5,2.5,0,0,0,1.24-.27,2,2,0,0,0,.74-.74,3.19,3.19,0,0,0,.37-1,7.9,7.9,0,0,0,.1-1.21l1.62-.62a15,15,0,0,0,.07,1.57,3.36,3.36,0,0,0,.32,1.22,1.75,1.75,0,0,0,.78.79,2.91,2.91,0,0,0,1.41.28h.28v2.55Z"/><path class="cls-1" d="M111.71,164.92c0-.09.09-.15.26-.19a3.1,3.1,0,0,1,.54,0h2.24a13,13,0,0,0,2.89-.29,14.21,14.21,0,0,0,2.31-.76c.71-.31,1.4-.66,2.08-1s1.41-.74,2.19-1.09l-2.1-.9L120.6,160c-.41-.17-.76-.31-1-.4a2.36,2.36,0,0,0-.66-.14,2.9,2.9,0,0,0-1.2.3,3.46,3.46,0,0,0-1.24,1l-1.55-.69a6.58,6.58,0,0,1,1.87-2.39,3.3,3.3,0,0,1,1.88-.78,5.29,5.29,0,0,1,2.38.64c.85.42,1.82.85,2.93,1.29.5.23,1,.42,1.37.57a9.93,9.93,0,0,0,1.26.36,13.37,13.37,0,0,0,1.38.21c.49,0,1.08.07,1.77.07l-.58,2.48a12.27,12.27,0,0,0-1.26.05q-.57,0-1,.12a6.88,6.88,0,0,0-2.65,1c-.83.51-1.7,1-2.6,1.55a20.85,20.85,0,0,1-3,1.43,10.53,10.53,0,0,1-3.87.64h-2.24a1.9,1.9,0,0,1-.54-.07c-.17,0-.26-.1-.26-.17Z"/><path class="cls-1" d="M139.91,166.75a6.47,6.47,0,0,1-.79,3.1,12.78,12.78,0,0,1-2,2.75,17.28,17.28,0,0,1-2.63,2.28,24,24,0,0,1-2.74,1.65l-1.59-1.79a24.79,24.79,0,0,0,2.74-1.52,16.89,16.89,0,0,0,2.47-1.88,9.75,9.75,0,0,0,1.79-2.17,4.63,4.63,0,0,0,.69-2.42,4,4,0,0,0-.52-1.93c-.35-.62-.7-1.2-1.07-1.73l1.83-1.82a11.89,11.89,0,0,1,1.39,2.72A8.49,8.49,0,0,1,139.91,166.75Z"/><path class="cls-1" d="M146.92,167.23a11.62,11.62,0,0,1-2.64-.31,6.87,6.87,0,0,1-2.29-1l1.31-2.21a3.93,3.93,0,0,0,1.79.8,12.27,12.27,0,0,0,2,.17,13.47,13.47,0,0,0,1.36-.07,5.56,5.56,0,0,0,1.38-.31,3,3,0,0,0,1.08-.69,1.62,1.62,0,0,0,.45-1.2,3.1,3.1,0,0,0-.53-1.71,7.55,7.55,0,0,0-1.3-1.48,12,12,0,0,0-1.61-1.22c-.58-.37-1.07-.68-1.49-.93l1-2.62c.71.48,1.42,1,2.12,1.6a13.32,13.32,0,0,1,1.86,1.9,9.12,9.12,0,0,1,1.3,2.18,6.23,6.23,0,0,1,.5,2.52,3.73,3.73,0,0,1-.6,2.17,4.93,4.93,0,0,1-1.53,1.41,6.17,6.17,0,0,1-2.05.77A10.94,10.94,0,0,1,146.92,167.23Z"/><path class="cls-1" d="M127.63,170.15,121,172l-.25-1.17,6.61-2Z"/><path class="cls-1" d="M33.72,170.15,27.08,172l-.25-1.17,6.61-2Z"/></svg>