<svg id="Layer_1" data-name="Layer 1" xmlns="http://www.w3.org/2000/svg" viewBox="0 0 305.67 14.99"><defs><style>.cls-1{fill:#005879;}.cls-2{fill:#f48120;}</style></defs><path class="cls-1" d="M7.91,6.38a38.13,38.13,0,0,1,7.84-6V0h-.3a39.6,39.6,0,0,0-7.9,6A60.69,60.69,0,0,0,0,15H.62A59.45,59.45,0,0,1,7.91,6.38Z"/><path d="M60.43,6.38a38.13,38.13,0,0,1,7.84-6V0H68a39.6,39.6,0,0,0-7.9,6,60.69,60.69,0,0,0-7.55,9h.62A59.45,59.45,0,0,1,60.43,6.38Z"/><path d="M42.31,9V8.5L40.7,8.12A90.82,90.82,0,0,0,26.16,6v.51A90.72,90.72,0,0,1,40.59,8.61Z"/><path d="M94.83,9V8.5l-1.61-.38A90.82,90.82,0,0,0,78.68,6v.51A90.72,90.72,0,0,1,93.11,8.61Z"/><path d="M113,6.38a38.13,38.13,0,0,1,7.84-6V0h-.3a39.6,39.6,0,0,0-7.9,6A60.69,60.69,0,0,0,105,15h.62A59.45,59.45,0,0,1,113,6.38Z"/><path class="cls-2" d="M166.23,6.38a38.4,38.4,0,0,1,7.84-6V0h-.29a39,39,0,0,0-7.9,6,60.76,60.76,0,0,0-7.56,9h.62A60.09,60.09,0,0,1,166.23,6.38Z"/><path d="M218.75,6.38a38.4,38.4,0,0,1,7.84-6V0h-.29a39,39,0,0,0-7.9,6,60.76,60.76,0,0,0-7.56,9h.62A60.09,60.09,0,0,1,218.75,6.38Z"/><path d="M271.27,6.38a38.4,38.4,0,0,1,7.84-6V0h-.29a39,39,0,0,0-7.9,6,60.76,60.76,0,0,0-7.56,9H264A60.09,60.09,0,0,1,271.27,6.38Z"/><path d="M200.63,9V8.5L199,8.12A90.82,90.82,0,0,0,184.48,6v.51a90.39,90.39,0,0,1,14.43,2.13Z"/><path class="cls-1" d="M148,9V8.5l-1.61-.38A90.82,90.82,0,0,0,131.86,6v.51a90.55,90.55,0,0,1,14.43,2.13Z"/><path d="M253.15,9V8.5l-1.61-.38A90.82,90.82,0,0,0,237,6v.51a90.39,90.39,0,0,1,14.43,2.13Z"/><path class="cls-2" d="M305.67,9V8.5l-1.61-.38A90.82,90.82,0,0,0,289.52,6v.51A90.39,90.39,0,0,1,304,8.61Z"/></svg>