<svg id="Layer_1" data-name="Layer 1" xmlns="http://www.w3.org/2000/svg" viewBox="0 0 18 18"><defs><style>.cls-1{fill:#f38020;}.cls-2{fill:#fff;}</style></defs><circle class="cls-1" cx="9" cy="9" r="9"/><path class="cls-2" d="M9.47,8.3a4.64,4.64,0,0,1,.36-.4,1.91,1.91,0,0,1,1.4-.55,3.26,3.26,0,0,1,.88.1,1.72,1.72,0,0,1,1.22,1.29,5.26,5.26,0,0,1,.17,1.48c0,1,0,2.09,0,3.14,0,.1,0,.12-.13.12H11.75c-.09,0-.11,0-.11-.11v-3a2.63,2.63,0,0,0-.09-.74A.83.83,0,0,0,10.63,9a1,1,0,0,0-1.05,1,3.71,3.71,0,0,0,0,.47v2.91c0,.1,0,.13-.12.12H7.8c-.09,0-.12,0-.12-.11q0-2.88,0-5.76c0-.09,0-.12.12-.12H9.35c.1,0,.12,0,.12.12Z"/><path class="cls-2" d="M6.51,10.5v2.85c0,.1,0,.14-.13.13H4.76c-.09,0-.11,0-.11-.11V7.6c0-.08,0-.11.1-.11H6.39c.11,0,.12,0,.12.13Z"/><path class="cls-2" d="M6.66,5.59A1.08,1.08,0,1,1,5.58,4.52,1.08,1.08,0,0,1,6.66,5.59Z"/></svg>