<svg id="Layer_1" data-name="Layer 1" xmlns="http://www.w3.org/2000/svg" viewBox="0 0 150 186.74"><defs><style>.cls-1{fill:#007199;}</style></defs><path class="cls-1" d="M5.8,169.94a3.52,3.52,0,0,1-1.36-.23,2.46,2.46,0,0,1-1-.64,2.54,2.54,0,0,1-.55-.94A3.44,3.44,0,0,1,2.75,167a4.21,4.21,0,0,1,.14-1.05,3.72,3.72,0,0,1,.42-1l1,.35A3.93,3.93,0,0,0,4,166a2.65,2.65,0,0,0-.09.68,1.9,1.9,0,0,0,.11.68,1.57,1.57,0,0,0,.35.54,1.73,1.73,0,0,0,.61.36,2.77,2.77,0,0,0,.88.13,2.93,2.93,0,0,0,1-.15,2.31,2.31,0,0,0,.71-.4,1.7,1.7,0,0,0,.43-.6,2,2,0,0,0,.14-.75,3.05,3.05,0,0,0-.58-1.71l1.14-.94a5.27,5.27,0,0,1,.6,1.28,4.31,4.31,0,0,1,.2,1.27,3.81,3.81,0,0,1-.26,1.39,3.31,3.31,0,0,1-.74,1.13,3.43,3.43,0,0,1-1.17.78A4,4,0,0,1,5.8,169.94Zm.88-6.78-.81,1.09-1.13-.76.83-1.1Z"/><path class="cls-1" d="M12.12,167.15l-1.38.37v-7.81l1.38-.55Z"/><path class="cls-1" d="M14.52,164.45a5.74,5.74,0,0,1,.56,1,2.85,2.85,0,0,1,.21,1.15,2.56,2.56,0,0,1-.32,1.25,4.85,4.85,0,0,1-.82,1.13,9.21,9.21,0,0,1-1.14,1c-.42.3-.85.57-1.27.82l-1.15-.91q.45-.22,1.05-.57a12.9,12.9,0,0,0,1.15-.78,6.09,6.09,0,0,0,.94-.86,1.32,1.32,0,0,0,.38-.83,1.2,1.2,0,0,0-.21-.61c-.14-.23-.28-.43-.42-.62Z"/><path class="cls-1" d="M17.89,167.15l-1.38.37v-7.81l1.38-.55Z"/><path class="cls-1" d="M25,167.33a2.12,2.12,0,0,1-1.1-.3,2,2,0,0,1-.8-.79,2.12,2.12,0,0,1-2.18,1.26,2.34,2.34,0,0,1-1.91-.72l.49-1.24a1.86,1.86,0,0,0,.69.31,3.75,3.75,0,0,0,.95.12,3.31,3.31,0,0,0,.55,0,2.09,2.09,0,0,0,.48-.13,1,1,0,0,0,.34-.22.44.44,0,0,0,.13-.33.26.26,0,0,0,0-.11s-.05-.17-.11-.35-.15-.46-.28-.83l-.54-1.54,1.09-1,.67,2.2a12.35,12.35,0,0,0,.46,1.31,1.5,1.5,0,0,0,.45.63,1,1,0,0,0,.63.17h.28v1.58Zm-1.64-7.75-.81,1.09-1.13-.76.83-1.1Z"/><path class="cls-1" d="M24.93,165.86s0-.06.1-.08a.76.76,0,0,1,.21,0h.41c1.51,0,2.26-.18,2.26-.55a.8.8,0,0,0-.23-.48,5.13,5.13,0,0,0-.57-.59,8.73,8.73,0,0,0-.72-.59l-.7-.53a2.21,2.21,0,0,1-.26-.19.46.46,0,0,1-.13-.16.46.46,0,0,1,0-.21,1.79,1.79,0,0,1,0-.3c0-.08,0-.19,0-.31s.05-.24.08-.37a1.8,1.8,0,0,1,.12-.35.48.48,0,0,1,.18-.21,20.21,20.21,0,0,1,2.27-1c.94-.34,2.07-.71,3.39-1.1l-.18,1.59c-.8.17-1.57.35-2.34.56a19.57,19.57,0,0,0-2.24.74c-.16.06-.19.13-.08.21l.89.65a6.18,6.18,0,0,1,.81.7,2.89,2.89,0,0,1,.59.82,2.24,2.24,0,0,1,.23,1,1.87,1.87,0,0,1-.33,1.15,2,2,0,0,1-.83.68,4,4,0,0,1-1.11.3,9.43,9.43,0,0,1-1.16.08h-.37l-.21,0c-.07,0-.1,0-.1-.07Zm6.43-7.59c-1,.32-1.81.58-2.46.81l-1.61.55-1,.36-.53.23.17-.74c.45-.21,1.12-.48,2-.8s2.06-.72,3.46-1.17Z"/><path class="cls-1" d="M37.35,167.33a1.47,1.47,0,0,1-1.07-.33,1.87,1.87,0,0,1-.46-1,1.4,1.4,0,0,1-.61.34,2.91,2.91,0,0,1-.89.14,2.1,2.1,0,0,1-.51-.06,1.3,1.3,0,0,1-.44-.17.84.84,0,0,1-.31-.31.79.79,0,0,1-.12-.45c0-1,.73-1.87,2.2-2.74l-.12-.58,1-1,.71,3.61a1.65,1.65,0,0,0,.32.75,1,1,0,0,0,.73.21v1.58Zm-2-3.49a2.24,2.24,0,0,0-.54.27,2.2,2.2,0,0,0-.51.42c-.14.18-.18.32-.11.4s.21.13.45.13a4.41,4.41,0,0,0,.52,0,1.1,1.1,0,0,0,.42-.14Z"/><path class="cls-1" d="M39.69,169,39,170l-.89-.59-.5.68-1.06-.68.72-.93.88.59.49-.69Zm-2.23-3.17s0-.06.1-.08a.76.76,0,0,1,.21,0h.89c.46,0,.69-.11.69-.32a.68.68,0,0,0,0-.14,2.28,2.28,0,0,0-.11-.21,3.42,3.42,0,0,0-.23-.34l-.4-.51.89-1.24a2.2,2.2,0,0,1,.65.93,3.15,3.15,0,0,1,.24,1.21,2.43,2.43,0,0,1-.18,1,1.91,1.91,0,0,1-.5.68,2.23,2.23,0,0,1-.76.41,3.12,3.12,0,0,1-.93.14h-.23l-.21,0c-.07,0-.1,0-.1-.07Z"/><path class="cls-1" d="M42.72,167.1a1.64,1.64,0,0,1-.66-.62,2.56,2.56,0,0,1-.33-.93,8.38,8.38,0,0,1-.1-1.18c0-.2,0-.48,0-.85s0-.78,0-1.21,0-.88,0-1.34,0-.87,0-1.26l1.33-.55v5.37a1.49,1.49,0,0,0,.24.92,1,1,0,0,0,.79.3v1.58A2.5,2.5,0,0,1,42.72,167.1Z"/><path class="cls-1" d="M43.56,165.86s0-.06.1-.08a.76.76,0,0,1,.21,0,2.44,2.44,0,0,0,.93-.15,1.21,1.21,0,0,0,.55-.47c.1-.18.21-.38.33-.58a4.79,4.79,0,0,1,.37-.58,2,2,0,0,1,.47-.44,1.07,1.07,0,0,1,.63-.18,1,1,0,0,1,.67.23,1.87,1.87,0,0,1,.45.55,3.15,3.15,0,0,1,.25.69,3.56,3.56,0,0,1,.08.68,3.5,3.5,0,0,1-.05.54,1.82,1.82,0,0,1-.19.54A1.55,1.55,0,0,1,48,167a.86.86,0,0,1-.51.16,2.06,2.06,0,0,1-.9-.22,5,5,0,0,1-.78-.5,2.41,2.41,0,0,1-.81.66,2.46,2.46,0,0,1-1.14.24l-.21,0c-.07,0-.1,0-.1-.07Zm3.53-1.27c-.28-.05-.52.18-.71.67a1.65,1.65,0,0,0,.46.32,1.44,1.44,0,0,0,.49.17.21.21,0,0,0,.28-.19,1.38,1.38,0,0,0,0-.28,1.12,1.12,0,0,0-.1-.31,1,1,0,0,0-.17-.25A.47.47,0,0,0,47.09,164.59Z"/><path class="cls-1" d="M52,167.24a.83.83,0,0,1-.26-.19,3.39,3.39,0,0,1-.46,1.1,5.15,5.15,0,0,1-.8,1,9,9,0,0,1-1,.86,13.34,13.34,0,0,1-1.19.76l-1.15-.89c.29-.15.64-.34,1-.57a11.66,11.66,0,0,0,1.17-.75,5.59,5.59,0,0,0,.94-.84,1.29,1.29,0,0,0,.39-.84.88.88,0,0,0-.08-.34l-.19-.35c-.07-.12-.15-.23-.22-.33l-.18-.24,1-1.12c.1.15.19.3.28.46a2.42,2.42,0,0,0,.27.41,1.55,1.55,0,0,0,.33.3.82.82,0,0,0,.42.11v1.58A.65.65,0,0,1,52,167.24Z"/><path class="cls-1" d="M52,165.86s0-.06.1-.08a.76.76,0,0,1,.21,0h.14a.92.92,0,0,0,.61-.2.73.73,0,0,0,.24-.58v-.4l1-.32v.42a1.6,1.6,0,0,0,.17.79.58.58,0,0,0,.53.29c.64,0,1-.28,1-.85v-.52l1-.28v.68a1.05,1.05,0,0,0,.28.73.89.89,0,0,0,.69.3.56.56,0,0,0,.44-.15.6.6,0,0,0,.13-.38,1.21,1.21,0,0,0-.14-.54,1.34,1.34,0,0,0-.31-.41l.93-1.06a2.58,2.58,0,0,1,.47.86,2.9,2.9,0,0,1,.16,1,3.22,3.22,0,0,1-.11.81,2.36,2.36,0,0,1-.32.72,1.72,1.72,0,0,1-.53.51,1.34,1.34,0,0,1-.72.2,2.08,2.08,0,0,1-.92-.2,1.3,1.3,0,0,1-.59-.57,1.35,1.35,0,0,1-.51.55,1.53,1.53,0,0,1-.69.21,1.66,1.66,0,0,1-.78-.18,1.28,1.28,0,0,1-.55-.53,1.33,1.33,0,0,1-.65.54,2.28,2.28,0,0,1-.83.17l-.21,0c-.07,0-.1,0-.1-.07Z"/><path class="cls-1" d="M61.45,169.85c.29-.15.63-.33,1-.56a11.06,11.06,0,0,0,1.14-.73,5.94,5.94,0,0,0,.94-.82,1.4,1.4,0,0,0,.43-.82,1.64,1.64,0,0,1-.43.15,1.73,1.73,0,0,1-.5.07,1.25,1.25,0,0,1-1.46-1.36,2.94,2.94,0,0,1,.1-.76,2.57,2.57,0,0,1,.31-.72,1.84,1.84,0,0,1,.5-.54,1.19,1.19,0,0,1,.7-.22,1.32,1.32,0,0,1,.9.32,2.28,2.28,0,0,1,.56.76,3.45,3.45,0,0,1,.29,1,4.86,4.86,0,0,1,.08.88,3.23,3.23,0,0,1-.28,1.37A4.07,4.07,0,0,1,65,169a7.24,7.24,0,0,1-1.09.94,15.53,15.53,0,0,1-1.31.85Zm3.4-4.12a1.51,1.51,0,0,0-.27-.63.56.56,0,0,0-.47-.26.55.55,0,0,0-.4.18.61.61,0,0,0-.17.43.33.33,0,0,0,.2.33,1.13,1.13,0,0,0,.45.09,1.5,1.5,0,0,0,.37,0A1.9,1.9,0,0,0,64.85,165.73Z"/><path class="cls-1" d="M71.9,169.94a3.52,3.52,0,0,1-1.36-.23,2.46,2.46,0,0,1-1-.64,2.54,2.54,0,0,1-.55-.94,3.44,3.44,0,0,1-.19-1.16,4.21,4.21,0,0,1,.14-1.05,3.72,3.72,0,0,1,.42-1l1,.35a3.93,3.93,0,0,0-.27.71,2.65,2.65,0,0,0-.09.68,1.9,1.9,0,0,0,.11.68,1.57,1.57,0,0,0,.35.54,1.73,1.73,0,0,0,.61.36,2.77,2.77,0,0,0,.88.13,2.93,2.93,0,0,0,1-.15,2.31,2.31,0,0,0,.71-.4,1.7,1.7,0,0,0,.43-.6,2,2,0,0,0,.14-.75,3.05,3.05,0,0,0-.58-1.71l1.14-.94a5.27,5.27,0,0,1,.6,1.28,4.31,4.31,0,0,1,.2,1.27,3.81,3.81,0,0,1-.26,1.39,3.31,3.31,0,0,1-.74,1.13,3.43,3.43,0,0,1-1.17.78A4,4,0,0,1,71.9,169.94Zm.88-6.78L72,164.25l-1.13-.76.83-1.1Z"/><path class="cls-1" d="M78,167.1a1.61,1.61,0,0,1-.67-.62,2.76,2.76,0,0,1-.32-.93,8.38,8.38,0,0,1-.1-1.18c0-.2,0-.48,0-.85s0-.78,0-1.21,0-.88,0-1.34,0-.87,0-1.26l1.32-.55v5.37a1.48,1.48,0,0,0,.25.92.94.94,0,0,0,.78.3v1.58A2.45,2.45,0,0,1,78,167.1Z"/><path class="cls-1" d="M78.8,165.86s0-.06.1-.08a.76.76,0,0,1,.21,0h.41c1.51,0,2.26-.18,2.26-.55a.8.8,0,0,0-.23-.48,6,6,0,0,0-.56-.59c-.23-.2-.47-.4-.73-.59l-.7-.53a2.21,2.21,0,0,1-.26-.19.61.61,0,0,1-.13-.16.46.46,0,0,1,0-.21c0-.07,0-.18,0-.3s0-.19,0-.31a2.66,2.66,0,0,1,.07-.37,1.8,1.8,0,0,1,.12-.35.44.44,0,0,1,.19-.21,19.17,19.17,0,0,1,2.26-1c.94-.34,2.07-.71,3.39-1.1l-.18,1.59c-.79.17-1.57.35-2.34.56a19.57,19.57,0,0,0-2.24.74c-.16.06-.19.13-.08.21l.89.65a7,7,0,0,1,.82.7,3.35,3.35,0,0,1,.59.82,2.23,2.23,0,0,1,.22,1,1.87,1.87,0,0,1-.33,1.15,2,2,0,0,1-.83.68,4,4,0,0,1-1.11.3,9.43,9.43,0,0,1-1.16.08h-.37l-.21,0c-.06,0-.1,0-.1-.07Zm6.43-7.59c-1,.32-1.81.58-2.46.81l-1.61.55-1,.36-.53.23.18-.74a21.64,21.64,0,0,1,2-.8c.91-.33,2.07-.72,3.47-1.17Z"/><path class="cls-1" d="M90,167.33a2.15,2.15,0,0,1-1.11-.3,2,2,0,0,1-.79-.79,2.12,2.12,0,0,1-2.18,1.26,2.36,2.36,0,0,1-1.92-.72l.49-1.24a2,2,0,0,0,.69.31,3.81,3.81,0,0,0,1,.12,3.43,3.43,0,0,0,.56,0,2.09,2.09,0,0,0,.48-.13,1.05,1.05,0,0,0,.34-.22.49.49,0,0,0,.13-.33.65.65,0,0,0,0-.11s0-.17-.11-.35-.15-.46-.29-.83-.31-.88-.53-1.54l1.08-1c.28.91.51,1.64.67,2.2A12,12,0,0,0,88.9,165a1.5,1.5,0,0,0,.44.63,1,1,0,0,0,.63.17h.29v1.58Z"/><path class="cls-1" d="M90,165.86s0-.06.1-.08a.76.76,0,0,1,.21,0h.89c.46,0,.69-.11.69-.32a.68.68,0,0,0,0-.14,2.28,2.28,0,0,0-.11-.21,3.42,3.42,0,0,0-.23-.34l-.4-.51L92,163a2.29,2.29,0,0,1,.65.93,3.15,3.15,0,0,1,.24,1.21,2.43,2.43,0,0,1-.18,1,1.91,1.91,0,0,1-.5.68,2.23,2.23,0,0,1-.76.41,3.12,3.12,0,0,1-.93.14h-.23l-.21,0c-.07,0-.1,0-.1-.07Zm2.46-4.55-.81,1.08-1.13-.76.83-1.1Z"/><path class="cls-1" d="M95.26,164.45a5.74,5.74,0,0,1,.56,1,2.85,2.85,0,0,1,.21,1.15,2.56,2.56,0,0,1-.32,1.25,4.85,4.85,0,0,1-.82,1.13,9.21,9.21,0,0,1-1.14,1c-.42.3-.84.57-1.27.82l-1.15-.91q.45-.22,1-.57a11.6,11.6,0,0,0,1.15-.78,6.09,6.09,0,0,0,.94-.86,1.32,1.32,0,0,0,.38-.83,1.2,1.2,0,0,0-.21-.61c-.14-.23-.28-.43-.42-.62Zm.57-1.73L95,163.8,93.89,163l.83-1.1Z"/><path class="cls-1" d="M98.38,167.1a1.64,1.64,0,0,1-.66-.62,2.56,2.56,0,0,1-.33-.93,10.2,10.2,0,0,1-.1-1.18c0-.2,0-.48,0-.85s0-.78,0-1.21,0-.88,0-1.34,0-.87,0-1.26l1.33-.55v5.37a1.49,1.49,0,0,0,.24.92,1,1,0,0,0,.79.3v1.58A2.5,2.5,0,0,1,98.38,167.1Z"/><path class="cls-1" d="M99.22,165.86s0-.06.1-.08a.76.76,0,0,1,.21,0h.14a.92.92,0,0,0,.61-.2.73.73,0,0,0,.24-.58v-.4l1-.32v.42a1.6,1.6,0,0,0,.17.79.58.58,0,0,0,.53.29c.64,0,1-.28,1-.85v-.52l1-.28v.68a1.05,1.05,0,0,0,.28.73.89.89,0,0,0,.69.3.56.56,0,0,0,.44-.15.6.6,0,0,0,.13-.38,1.21,1.21,0,0,0-.14-.54,1.34,1.34,0,0,0-.31-.41l.93-1.06a2.58,2.58,0,0,1,.47.86,2.9,2.9,0,0,1,.16,1,3.22,3.22,0,0,1-.11.81,2.36,2.36,0,0,1-.32.72,1.72,1.72,0,0,1-.53.51,1.34,1.34,0,0,1-.72.2,2.08,2.08,0,0,1-.92-.2,1.3,1.3,0,0,1-.59-.57,1.35,1.35,0,0,1-.51.55,1.53,1.53,0,0,1-.69.21,1.66,1.66,0,0,1-.78-.18,1.28,1.28,0,0,1-.55-.53,1.33,1.33,0,0,1-.65.54,2.28,2.28,0,0,1-.83.17l-.21,0c-.07,0-.1,0-.1-.07Z"/><path class="cls-1" d="M110.68,167.1a1.58,1.58,0,0,1-.66-.62,2.56,2.56,0,0,1-.33-.93,8.38,8.38,0,0,1-.1-1.18c0-.2,0-.48,0-.85s0-.78,0-1.21,0-.88,0-1.34,0-.87,0-1.26l1.33-.55v5.37a1.49,1.49,0,0,0,.24.92,1,1,0,0,0,.79.3v1.58A2.47,2.47,0,0,1,110.68,167.1Z"/><path class="cls-1" d="M111.38,169.43l.81-1.09,1.13.76-.83,1.1Zm.13-3.57s0-.06.11-.08a.66.66,0,0,1,.21,0h.89c.46,0,.69-.11.69-.32a.35.35,0,0,0,0-.14.93.93,0,0,0-.1-.21c-.06-.1-.14-.21-.23-.34l-.4-.51.88-1.24a2.31,2.31,0,0,1,.66.93,3.15,3.15,0,0,1,.24,1.21,2.43,2.43,0,0,1-.18,1,1.93,1.93,0,0,1-.51.68,2.1,2.1,0,0,1-.75.41,3.12,3.12,0,0,1-.93.14h-.23a.66.66,0,0,1-.21,0c-.07,0-.11,0-.11-.07Z"/><path class="cls-1" d="M124.81,164.38a3.09,3.09,0,0,0-1.12-.16,1.63,1.63,0,0,0-.52.09,2,2,0,0,0-.49.23,1.71,1.71,0,0,0-.38.31.51.51,0,0,0-.14.35c0,.11.06.19.2.23a2.13,2.13,0,0,0,.51.09l.67,0a2.87,2.87,0,0,1,.66.14,1.15,1.15,0,0,1,.52.34,1,1,0,0,1,.2.65,2.43,2.43,0,0,1-.41,1.41,3.54,3.54,0,0,1-1,1,4.61,4.61,0,0,1-1.37.62,5.42,5.42,0,0,1-1.46.21,4.85,4.85,0,0,1-1.5-.21,2.91,2.91,0,0,1-1.06-.58,2.41,2.41,0,0,1-.63-.89,2.89,2.89,0,0,1-.21-1.11,4.32,4.32,0,0,1,.15-1.09,5,5,0,0,1,.49-1.15l1.07.37a3.6,3.6,0,0,0-.32.74,2.36,2.36,0,0,0-.12.72,1.71,1.71,0,0,0,.13.65,1.38,1.38,0,0,0,.41.53,2.48,2.48,0,0,0,.73.35,4,4,0,0,0,1,.13,5,5,0,0,0,.94-.11,6,6,0,0,0,1-.29,3.51,3.51,0,0,0,.8-.4c.21-.15.32-.29.32-.44s0-.13-.16-.17a2.55,2.55,0,0,0-.43-.07l-.64,0c-.24,0-.49,0-.76-.07a1,1,0,0,1-.91-1.05,2.76,2.76,0,0,1,.26-1.16,3.48,3.48,0,0,1,.7-1,3.57,3.57,0,0,1,1-.66,2.73,2.73,0,0,1,1.1-.24,2.32,2.32,0,0,1,.59.07,2,2,0,0,1,.55.24Z"/><path class="cls-1" d="M127.5,164.45a5.74,5.74,0,0,1,.56,1,2.85,2.85,0,0,1,.21,1.15,3.36,3.36,0,0,1-.2,1.09,5.38,5.38,0,0,1-.57,1.12,6.68,6.68,0,0,1-.89,1.06,8.09,8.09,0,0,1-1.16.92l-1.14-.91c.3-.17.61-.38.94-.61a8,8,0,0,0,.9-.74,4.29,4.29,0,0,0,.68-.82,1.66,1.66,0,0,0,.26-.87,1.2,1.2,0,0,0-.21-.61,6.12,6.12,0,0,0-.43-.62Z"/><path class="cls-1" d="M130.62,167.1a1.58,1.58,0,0,1-.66-.62,2.56,2.56,0,0,1-.33-.93,8.38,8.38,0,0,1-.1-1.18c0-.2,0-.48,0-.85s0-.78,0-1.21,0-.88,0-1.34,0-.87,0-1.26l1.33-.55v5.37a1.49,1.49,0,0,0,.24.92,1,1,0,0,0,.79.3v1.58A2.5,2.5,0,0,1,130.62,167.1Z"/><path class="cls-1" d="M137.6,167.33a2.47,2.47,0,0,1-.86-.15,3.32,3.32,0,0,1-.77-.4,4.43,4.43,0,0,1-.68-.55,5.35,5.35,0,0,1-.55-.64,1.72,1.72,0,0,1-.89,1.3,4.18,4.18,0,0,1-2.08.44.66.66,0,0,1-.21,0c-.07,0-.11,0-.11-.07v-1.37s0-.06.11-.08a.66.66,0,0,1,.21,0h.55a5.78,5.78,0,0,0,.71-.05,2.44,2.44,0,0,0,.61-.18.42.42,0,0,0,.25-.39.93.93,0,0,0-.23-.54,5,5,0,0,0-.54-.63c-.22-.22-.43-.42-.65-.61l-.51-.48-.13-.15a.3.3,0,0,1-.05-.26,2.58,2.58,0,0,1,.05-.36,3.41,3.41,0,0,1,.08-.37,2,2,0,0,1,.11-.32.36.36,0,0,1,.17-.19,24,24,0,0,1,2.4-1c1-.36,2.18-.76,3.56-1.2l-.17,1.53q-1.48.34-2.7.72c-.8.24-1.55.5-2.23.77q-.26.1-.06.24c.39.29.76.61,1.13.93l1.08,1c.2.2.39.39.59.57a4.16,4.16,0,0,0,.61.5,2.82,2.82,0,0,0,.67.34,2.11,2.11,0,0,0,.77.13h.62v1.58Z"/><path class="cls-1" d="M144.05,167.33a2.22,2.22,0,0,1-.71-.13,1.47,1.47,0,0,1-.58-.38l-.1.35a.72.72,0,0,1-.14.26.52.52,0,0,1-.22.17,1,1,0,0,1-.38.06,2.34,2.34,0,0,1-.5-.06,3.86,3.86,0,0,1-.54-.19,5.36,5.36,0,0,1-.53-.28,2.43,2.43,0,0,1-.42-.32,2,2,0,0,1-.63.38,2.3,2.3,0,0,1-.84.14l-.21,0c-.06,0-.1,0-.1-.07v-1.37s0-.06.1-.08a.76.76,0,0,1,.21,0h.48a1.24,1.24,0,0,0,.39-.09,1.11,1.11,0,0,0,.32-.21,1.78,1.78,0,0,0,.28-.38c.09-.15.18-.3.28-.45a2.43,2.43,0,0,1,.33-.38,1.1,1.1,0,0,1,.38-.27,1.07,1.07,0,0,1,.49-.1.81.81,0,0,1,.65.32,6,6,0,0,1,.54.73c.12.21.21.37.29.48a.74.74,0,0,0,.25.25.68.68,0,0,0,.33.1h.65v1.58Zm-3.3-1.82a.38.38,0,0,1-.06.13l-.06.13a2.13,2.13,0,0,0,.61.34,1.44,1.44,0,0,0,.52.13c.11,0,.17,0,.18-.11a.64.64,0,0,0,0-.27,2,2,0,0,0-.24-.51.51.51,0,0,0-.44-.26C141,165.09,140.88,165.23,140.75,165.51Z"/><path class="cls-1" d="M143.8,165.86s0-.06.11-.08a.66.66,0,0,1,.21,0h1.16a1.2,1.2,0,0,1-.24-.69,1.68,1.68,0,0,1,.29-.91,2.78,2.78,0,0,1,.68-.76l-.29-.19.65-1.41,1,.75a12.59,12.59,0,0,1,1.19,1,7.13,7.13,0,0,1,1,1.18A2.26,2.26,0,0,1,150,166a3.55,3.55,0,0,1-.09.82,2.23,2.23,0,0,1-.27.62,1.05,1.05,0,0,1-.39.37.64.64,0,0,1-.47,0,6.31,6.31,0,0,1-.94-.33,10.8,10.8,0,0,1-1-.48,3.78,3.78,0,0,1-.85.26,4.57,4.57,0,0,1-.75.08h-1.08a.66.66,0,0,1-.21,0c-.07,0-.11,0-.11-.07Zm2.51-.47a3.8,3.8,0,0,0,.4.24.92.92,0,0,0,.5-.38.89.89,0,0,0,.15-.47.55.55,0,0,0-.07-.24,1.16,1.16,0,0,0-.16-.21,1.37,1.37,0,0,0-.21-.15.44.44,0,0,0-.44,0,1.06,1.06,0,0,0-.24.19,1.18,1.18,0,0,0-.17.24.49.49,0,0,0-.07.23.85.85,0,0,0,0,.22A.59.59,0,0,0,146.31,165.39Zm2,0a1.54,1.54,0,0,1-.18.47,3.51,3.51,0,0,1-.27.4l.34.15.32.13.29.1c.08,0,.14,0,.19-.17a.85.85,0,0,0-.09-.76,3.56,3.56,0,0,0-.57-.66A1,1,0,0,1,148.29,165.4Z"/><path class="cls-1" d="M3.93,178.6a4.84,4.84,0,0,1,.56,1,2.83,2.83,0,0,1,.21,1.14A2.7,2.7,0,0,1,4.39,182a5.21,5.21,0,0,1-.83,1.13,8.38,8.38,0,0,1-1.14,1,13.65,13.65,0,0,1-1.27.82L0,184a11.76,11.76,0,0,0,1.05-.57,10,10,0,0,0,1.15-.77,6.63,6.63,0,0,0,.94-.86,1.27,1.27,0,0,0,.38-.83,1.17,1.17,0,0,0-.21-.61q-.21-.34-.42-.63Z"/><path class="cls-1" d="M7,181.25a1.71,1.71,0,0,1-.66-.62A2.56,2.56,0,0,1,6,179.7a8.65,8.65,0,0,1-.1-1.18c0-.2,0-.49,0-.86s0-.77,0-1.2,0-.88,0-1.34,0-.88,0-1.27l1.33-.54v5.37a1.43,1.43,0,0,0,.24.91.94.94,0,0,0,.79.31v1.57A2.51,2.51,0,0,1,7,181.25Z"/><path class="cls-1" d="M8.17,181.47a.76.76,0,0,1-.21,0c-.07,0-.1,0-.1-.06V180s0-.07.1-.08a.76.76,0,0,1,.21,0H9.52v1.57Z"/><path class="cls-1" d="M9.52,181.47a.76.76,0,0,1-.21,0c-.06,0-.1,0-.1-.06V180s0-.07.1-.08a.76.76,0,0,1,.21,0h1.36v1.57Z"/><path class="cls-1" d="M10.88,181.47a.76.76,0,0,1-.21,0c-.07,0-.1,0-.1-.06V180s0-.07.1-.08a.76.76,0,0,1,.21,0h1.35v1.57Z"/><path class="cls-1" d="M12.23,181.47a.76.76,0,0,1-.21,0c-.06,0-.1,0-.1-.06V180s0-.07.1-.08a.76.76,0,0,1,.21,0h1.36v1.57Z"/><path class="cls-1" d="M13.59,181.47a.76.76,0,0,1-.21,0c-.07,0-.1,0-.1-.06V180s0-.07.1-.08a.76.76,0,0,1,.21,0H15v1.57Z"/><path class="cls-1" d="M15,181.47a.66.66,0,0,1-.21,0c-.07,0-.11,0-.11-.06V180s0-.07.11-.08a.66.66,0,0,1,.21,0H16.3v1.57Z"/><path class="cls-1" d="M16.3,181.47a.76.76,0,0,1-.21,0c-.07,0-.1,0-.1-.06V180s0-.07.1-.08a.76.76,0,0,1,.21,0h1.36v1.57Z"/><path class="cls-1" d="M17.66,181.47a.66.66,0,0,1-.21,0c-.07,0-.11,0-.11-.06V180s0-.07.11-.08a.66.66,0,0,1,.21,0H19v1.57Z"/><path class="cls-1" d="M18.7,180s0-.07.1-.08a.76.76,0,0,1,.21,0h.41c1.51,0,2.26-.19,2.26-.56a.8.8,0,0,0-.23-.47,4.43,4.43,0,0,0-.57-.59c-.22-.2-.47-.4-.72-.6l-.7-.52a1.6,1.6,0,0,1-.26-.19.41.41,0,0,1-.13-.17.45.45,0,0,1,0-.2,1.9,1.9,0,0,1,0-.31c0-.08,0-.18,0-.3s.05-.25.08-.37a1.6,1.6,0,0,1,.12-.35.48.48,0,0,1,.18-.21,20.21,20.21,0,0,1,2.27-1c.94-.35,2.07-.72,3.39-1.1L25,174.57c-.8.17-1.58.36-2.34.56a21.75,21.75,0,0,0-2.24.74c-.17.07-.19.14-.08.22l.89.65a6.18,6.18,0,0,1,.81.7,3.1,3.1,0,0,1,.59.82,2.2,2.2,0,0,1,.23,1,1.88,1.88,0,0,1-.33,1.16,2,2,0,0,1-.83.67,3.65,3.65,0,0,1-1.11.31,9.48,9.48,0,0,1-1.16.07H19a.76.76,0,0,1-.21,0c-.07,0-.1,0-.1-.06Zm6.43-7.59c-1,.31-1.81.58-2.46.8l-1.61.56-1,.36a4.29,4.29,0,0,0-.53.23l.17-.75c.45-.21,1.12-.47,2-.8s2.06-.71,3.46-1.16Z"/><path class="cls-1" d="M29.85,181.47a2.18,2.18,0,0,1-1.1-.29,2.09,2.09,0,0,1-.8-.79,2.12,2.12,0,0,1-2.18,1.26,2.34,2.34,0,0,1-1.91-.72l.49-1.25A1.71,1.71,0,0,0,25,180a3.3,3.3,0,0,0,.95.13,4.91,4.91,0,0,0,.55,0A2.09,2.09,0,0,0,27,180a1,1,0,0,0,.34-.23.44.44,0,0,0,.13-.32.74.74,0,0,0,0-.12c0-.05,0-.16-.11-.34s-.15-.46-.28-.83l-.54-1.55,1.09-1c.28.9.5,1.63.67,2.19a11.59,11.59,0,0,0,.46,1.31,1.55,1.55,0,0,0,.45.64,1,1,0,0,0,.63.17h.28v1.57Z"/><path class="cls-1" d="M29.81,180s0-.07.1-.08a.76.76,0,0,1,.21,0H31q.69,0,.69-.33a.39.39,0,0,0,0-.14,1.08,1.08,0,0,0-.11-.21,2.94,2.94,0,0,0-.23-.33l-.39-.51.88-1.25a2.42,2.42,0,0,1,.66.94,3.33,3.33,0,0,1,.23,1.21,2.35,2.35,0,0,1-.18,1,1.86,1.86,0,0,1-.5.69,2.1,2.1,0,0,1-.75.41,3.14,3.14,0,0,1-.94.13h-.23a.76.76,0,0,1-.21,0c-.07,0-.1,0-.1-.06Zm2.47-4.56-.82,1.09-1.12-.76.83-1.1Z"/><path class="cls-1" d="M35,181.25a1.71,1.71,0,0,1-.66-.62,2.56,2.56,0,0,1-.33-.93,8.65,8.65,0,0,1-.1-1.18c0-.2,0-.49,0-.86s0-.77,0-1.2,0-.88,0-1.34,0-.88,0-1.27l1.33-.54v5.37a1.43,1.43,0,0,0,.24.91.94.94,0,0,0,.79.31v1.57A2.51,2.51,0,0,1,35,181.25Z"/><path class="cls-1" d="M35.88,180s0-.07.1-.08a.76.76,0,0,1,.21,0,2.25,2.25,0,0,0,.93-.16,1.19,1.19,0,0,0,.55-.46c.1-.19.21-.38.33-.59a3.29,3.29,0,0,1,.37-.57,1.78,1.78,0,0,1,.47-.44,1.07,1.07,0,0,1,.63-.18,1,1,0,0,1,.67.22,2,2,0,0,1,.45.55,3.23,3.23,0,0,1,.25.7,3.47,3.47,0,0,1,.08.67,2.72,2.72,0,0,1-.06.55,1.52,1.52,0,0,1-.19.54,1.32,1.32,0,0,1-.34.4.8.8,0,0,1-.51.17,1.94,1.94,0,0,1-.9-.23,4.94,4.94,0,0,1-.78-.49,2.51,2.51,0,0,1-.81.66,2.6,2.6,0,0,1-1.14.23.76.76,0,0,1-.21,0c-.07,0-.1,0-.1-.06Zm3.53-1.28c-.29,0-.52.18-.71.68a1.72,1.72,0,0,0,.46.32,1.74,1.74,0,0,0,.48.17.22.22,0,0,0,.29-.19,1.48,1.48,0,0,0,0-.29,1.06,1.06,0,0,0-.1-.3.74.74,0,0,0-.17-.25A.49.49,0,0,0,39.41,178.73Z"/><path class="cls-1" d="M49.91,178.53a2.94,2.94,0,0,0-1.13-.16,1.61,1.61,0,0,0-.51.09,1.75,1.75,0,0,0-.5.23,1.42,1.42,0,0,0-.37.31.52.52,0,0,0-.15.34.24.24,0,0,0,.2.24,2.28,2.28,0,0,0,.52.08l.66.05a2.84,2.84,0,0,1,.67.13,1.31,1.31,0,0,1,.51.34.94.94,0,0,1,.21.65,2.46,2.46,0,0,1-.41,1.41,3.57,3.57,0,0,1-1,1,5.07,5.07,0,0,1-1.38.62,5.42,5.42,0,0,1-1.46.21,4.83,4.83,0,0,1-1.49-.21,3,3,0,0,1-1.07-.59,2.3,2.3,0,0,1-.63-.88,3,3,0,0,1-.21-1.11,4,4,0,0,1,.16-1.1,4.63,4.63,0,0,1,.48-1.14l1.07.36a4.68,4.68,0,0,0-.32.75,2.25,2.25,0,0,0-.11.72,1.57,1.57,0,0,0,.13.65,1.27,1.27,0,0,0,.41.52,2,2,0,0,0,.72.35,3.68,3.68,0,0,0,1,.13,4.18,4.18,0,0,0,.94-.11,6.4,6.4,0,0,0,1-.28,3.88,3.88,0,0,0,.79-.4c.22-.15.32-.3.32-.44a.18.18,0,0,0-.15-.17,2.78,2.78,0,0,0-.43-.08l-.64,0c-.24,0-.5,0-.77-.08a1,1,0,0,1-.68-.34,1.05,1.05,0,0,1-.23-.7,2.6,2.6,0,0,1,.27-1.16,3,3,0,0,1,.69-1,3.21,3.21,0,0,1,1-.66,2.7,2.7,0,0,1,1.1-.24,2.1,2.1,0,0,1,1.14.31Z"/><path class="cls-1" d="M52.51,181.25a1.59,1.59,0,0,1-.66-.62,2.56,2.56,0,0,1-.33-.93,8.65,8.65,0,0,1-.1-1.18c0-.2,0-.49,0-.86s0-.77,0-1.2,0-.88,0-1.34,0-.88,0-1.27l1.32-.54v5.37a1.43,1.43,0,0,0,.25.91.92.92,0,0,0,.78.31v1.57A2.46,2.46,0,0,1,52.51,181.25Z"/><path class="cls-1" d="M53.65,181.47a.76.76,0,0,1-.21,0c-.06,0-.1,0-.1-.06V180s0-.07.1-.08a.76.76,0,0,1,.21,0H55v1.57Z"/><path class="cls-1" d="M55,181.47a.76.76,0,0,1-.21,0c-.07,0-.1,0-.1-.06V180s0-.07.1-.08a.76.76,0,0,1,.21,0h1.36v1.57Z"/><path class="cls-1" d="M56.37,181.47a.66.66,0,0,1-.21,0c-.07,0-.11,0-.11-.06V180s0-.07.11-.08a.66.66,0,0,1,.21,0h1.35v1.57Z"/><path class="cls-1" d="M57.72,181.47a.76.76,0,0,1-.21,0c-.07,0-.1,0-.1-.06V180s0-.07.1-.08a.76.76,0,0,1,.21,0h1.36v1.57Z"/><path class="cls-1" d="M59.08,181.47a.66.66,0,0,1-.21,0c-.07,0-.1,0-.1-.06V180s0-.07.1-.08a.66.66,0,0,1,.21,0h1.35v1.57Z"/><path class="cls-1" d="M60.43,181.47a.76.76,0,0,1-.21,0c-.07,0-.1,0-.1-.06V180s0-.07.1-.08a.76.76,0,0,1,.21,0h1.36v1.57Z"/><path class="cls-1" d="M61.79,181.47a.76.76,0,0,1-.21,0c-.07,0-.1,0-.1-.06V180s0-.07.1-.08a.76.76,0,0,1,.21,0h1.35v1.57Z"/><path class="cls-1" d="M63.14,181.47a.76.76,0,0,1-.21,0c-.06,0-.1,0-.1-.06V180s0-.07.1-.08a.76.76,0,0,1,.21,0H64.5v1.57Z"/><path class="cls-1" d="M64.19,180s0-.07.1-.08a.76.76,0,0,1,.21,0h1.16a1.25,1.25,0,0,1-.24-.69,1.74,1.74,0,0,1,.29-.92,2.93,2.93,0,0,1,.69-.75l-.3-.19.65-1.41,1,.75a11.2,11.2,0,0,1,1.2,1,7.75,7.75,0,0,1,1,1.18,2.3,2.3,0,0,1,.42,1.21,3.49,3.49,0,0,1-.09.82,2,2,0,0,1-.27.63,1,1,0,0,1-.39.36.59.59,0,0,1-.47,0,7.69,7.69,0,0,1-.94-.33c-.35-.14-.69-.31-1-.49a3.36,3.36,0,0,1-.85.27,4.44,4.44,0,0,1-.75.07H64.5a.76.76,0,0,1-.21,0c-.07,0-.1,0-.1-.06Zm2.51-.48a2.42,2.42,0,0,0,.39.25,1,1,0,0,0,.51-.38,1,1,0,0,0,.14-.48.39.39,0,0,0-.07-.23.83.83,0,0,0-.16-.21.51.51,0,0,0-.21-.15.45.45,0,0,0-.2-.06.46.46,0,0,0-.24.08,1,1,0,0,0-.23.19.84.84,0,0,0-.18.24.61.61,0,0,0-.07.22,1.85,1.85,0,0,0,0,.23A.59.59,0,0,0,66.7,179.53Zm2,0a1.54,1.54,0,0,1-.18.47,2.65,2.65,0,0,1-.26.39,2.41,2.41,0,0,0,.33.15l.32.14a1.88,1.88,0,0,0,.3.09c.07,0,.13,0,.19-.16a.85.85,0,0,0-.1-.76,2.94,2.94,0,0,0-.57-.66A1,1,0,0,1,68.67,179.55Z"/><path class="cls-1" d="M75.19,179.59a2,2,0,0,1-.16.84,1.74,1.74,0,0,1-.42.63,1.93,1.93,0,0,1-.63.38,2.1,2.1,0,0,1-.76.14,1.8,1.8,0,0,1-1.21-.37,1.29,1.29,0,0,1-.44-1.05,4.17,4.17,0,0,1,.76-2L72,178l.72-1.25a6.94,6.94,0,0,1,.92.54,4.39,4.39,0,0,1,.77.63,3,3,0,0,1,.53.76A2.3,2.3,0,0,1,75.19,179.59Zm-1.06.09c0-.4-.33-.78-1-1.11a3.37,3.37,0,0,0-.35.52,1.19,1.19,0,0,0-.15.52.5.5,0,0,0,.15.37.66.66,0,0,0,.5.15l.27,0a1.29,1.29,0,0,0,.28-.08.6.6,0,0,0,.21-.14A.28.28,0,0,0,74.13,179.68Z"/><path class="cls-1" d="M77.55,178.6a4.9,4.9,0,0,1,.57,1,2.83,2.83,0,0,1,.21,1.14A2.71,2.71,0,0,1,78,182a4.9,4.9,0,0,1-.83,1.13,8.38,8.38,0,0,1-1.14,1,13.65,13.65,0,0,1-1.27.82L73.62,184a11.76,11.76,0,0,0,1-.57,10.14,10.14,0,0,0,1.16-.77,7.11,7.11,0,0,0,.93-.86,1.29,1.29,0,0,0,.39-.83,1.17,1.17,0,0,0-.21-.61c-.14-.23-.29-.44-.43-.63Zm-1.76-1.34.68-.93.88.59.5-.69,1,.69-.68.92-.89-.58-.47.69Zm.5-1.51.69-.89,1,.63-.66.9Z"/><path class="cls-1" d="M78.43,184c.29-.14.63-.32,1-.55a12.77,12.77,0,0,0,1.12-.74,6.4,6.4,0,0,0,.93-.84,1.49,1.49,0,0,0,.42-.83,1.54,1.54,0,0,1-.43.16,2.2,2.2,0,0,1-.5.06,1.25,1.25,0,0,1-1.47-1.35,3.38,3.38,0,0,1,.1-.76,2.45,2.45,0,0,1,.31-.72,1.73,1.73,0,0,1,.5-.54,1.13,1.13,0,0,1,.71-.22A1.27,1.27,0,0,1,82,178a2.19,2.19,0,0,1,.56.77,3.49,3.49,0,0,1,.29.95,5.14,5.14,0,0,1,.09.88,3.32,3.32,0,0,1-.28,1.37,4.39,4.39,0,0,1-.75,1.12,6.84,6.84,0,0,1-1.1.95c-.41.29-.84.58-1.3.85Zm3.35-4.15a1.85,1.85,0,0,0-.27-.62A.59.59,0,0,0,81,179a.54.54,0,0,0-.39.18.57.57,0,0,0-.18.43.35.35,0,0,0,.2.33,1.13,1.13,0,0,0,.45.09,1.24,1.24,0,0,0,.38-.05A1.39,1.39,0,0,0,81.78,179.87Z"/><path class="cls-1" d="M86.3,181.39a1,1,0,0,1-.26-.19,4.75,4.75,0,0,1-.28.92,5.73,5.73,0,0,1-.53,1,6.46,6.46,0,0,1-.76.95,6.26,6.26,0,0,1-1,.86L82.2,184a5.88,5.88,0,0,0,.93-.56,6.5,6.5,0,0,0,.88-.76,4.77,4.77,0,0,0,.67-.86,1.67,1.67,0,0,0,.26-.84.88.88,0,0,0-.08-.34,2.37,2.37,0,0,0-.19-.35,2.7,2.7,0,0,0-.22-.33l-.17-.24,1-1.13c.1.15.19.31.28.46a3.4,3.4,0,0,0,.28.42,1.43,1.43,0,0,0,.32.29.74.74,0,0,0,.42.12v1.57A.76.76,0,0,1,86.3,181.39Z"/><path class="cls-1" d="M89.31,183.18l-.68.92-.88-.58-.5.68-1-.68.71-.94.88.6.49-.69Zm-3-3.17s0-.07.11-.08a.66.66,0,0,1,.21,0h1.62c.47,0,.71-.11.71-.33a.39.39,0,0,0,0-.14,1.08,1.08,0,0,0-.11-.21,2.94,2.94,0,0,0-.23-.33l-.4-.51.88-1.25a2.42,2.42,0,0,1,.66.94,3.15,3.15,0,0,1,.24,1.21,2.35,2.35,0,0,1-.18,1,1.86,1.86,0,0,1-.5.69,2.1,2.1,0,0,1-.75.41,3.14,3.14,0,0,1-.94.13h-1a.66.66,0,0,1-.21,0c-.07,0-.11,0-.11-.06Zm2.5,4.66-.69.91-1-.65.67-.9Z"/><path class="cls-1" d="M96.36,186l-3.07.79-.09-.48,3-.86Z"/><path class="cls-1" d="M97.89,181.47a3.48,3.48,0,0,1-.37,1.27,3.65,3.65,0,0,1-.78,1,3.19,3.19,0,0,1-1.06.61,3.79,3.79,0,0,1-1.26.21,3.69,3.69,0,0,1-1.15-.18,2.84,2.84,0,0,1-1-.54,2.56,2.56,0,0,1-.66-.89,2.92,2.92,0,0,1-.24-1.22,4.25,4.25,0,0,1,.17-1.23,8.3,8.3,0,0,1,.44-1.2l1,.37a6.49,6.49,0,0,0-.33.87,3,3,0,0,0-.15.94,2.28,2.28,0,0,0,.11.7,1.48,1.48,0,0,0,.31.58,1.69,1.69,0,0,0,.57.39,2.21,2.21,0,0,0,.86.15,4,4,0,0,0,.91-.11,2.82,2.82,0,0,0,.79-.34,1.79,1.79,0,0,0,.56-.57,1.42,1.42,0,0,0,.23-.77H96.8a8.65,8.65,0,0,1-.92-.05,1.91,1.91,0,0,1-.72-.23,1.12,1.12,0,0,1-.46-.48,1.85,1.85,0,0,1-.16-.84,3,3,0,0,1,.09-.69,2.72,2.72,0,0,1,.29-.7,1.93,1.93,0,0,1,.47-.55,1,1,0,0,1,.64-.23,1.3,1.3,0,0,1,.75.23,2.09,2.09,0,0,1,.56.55,2.79,2.79,0,0,1,.36.71,2.91,2.91,0,0,1,.17.71h.75v1.57Zm-3.42-5.19.68-.92.88.58.5-.69,1,.69-.7.92-.89-.58-.46.69Zm2.35,3.62a1.26,1.26,0,0,0-.27-.69A.68.68,0,0,0,96,179a.48.48,0,0,0-.38.18.56.56,0,0,0-.15.39.34.34,0,0,0,.06.22.29.29,0,0,0,.19.11,2,2,0,0,0,.4,0Z"/><path class="cls-1" d="M98.62,181.47a.76.76,0,0,1-.21,0c-.07,0-.1,0-.1-.06V180s0-.07.1-.08a.76.76,0,0,1,.21,0H100v1.57Z"/><path class="cls-1" d="M100,181.47a.66.66,0,0,1-.21,0c-.07,0-.11,0-.11-.06V180s0-.07.11-.08a.66.66,0,0,1,.21,0h1.35v1.57Z"/><path class="cls-1" d="M101.33,181.47a.76.76,0,0,1-.21,0c-.07,0-.1,0-.1-.06V180s0-.07.1-.08a.76.76,0,0,1,.21,0h1.36v1.57Z"/><path class="cls-1" d="M102.69,181.47a.66.66,0,0,1-.21,0c-.07,0-.11,0-.11-.06V180s0-.07.11-.08a.66.66,0,0,1,.21,0H104v1.57Z"/><path class="cls-1" d="M104,181.47a.76.76,0,0,1-.21,0c-.07,0-.1,0-.1-.06V180s0-.07.1-.08a.76.76,0,0,1,.21,0h1.36v1.57Z"/><path class="cls-1" d="M105.4,181.47a.76.76,0,0,1-.21,0c-.07,0-.1,0-.1-.06V180s0-.07.1-.08a.76.76,0,0,1,.21,0h1.35v1.57Z"/><path class="cls-1" d="M106.75,181.47a.76.76,0,0,1-.21,0c-.06,0-.1,0-.1-.06V180s0-.07.1-.08a.76.76,0,0,1,.21,0h1.36v1.57Z"/><path class="cls-1" d="M110.47,181.3a1.52,1.52,0,0,1-.65-.52,1.58,1.58,0,0,1-.65.52,2.9,2.9,0,0,1-1.06.17.76.76,0,0,1-.21,0c-.07,0-.1,0-.1-.06V180s0-.07.1-.08a.76.76,0,0,1,.21,0h.17a2.64,2.64,0,0,0,.55-.05.58.58,0,0,0,.32-.17.63.63,0,0,0,.14-.32,2.63,2.63,0,0,0,0-.5c0-.1,0-.34,0-.71s0-.8,0-1.29,0-1,0-1.54,0-1,0-1.47l1.34-.54v5.37a1.43,1.43,0,0,0,.24.91.88.88,0,0,0,.77.31v1.57A2.81,2.81,0,0,1,110.47,181.3Z"/><path class="cls-1" d="M111.21,180s0-.07.1-.08a.76.76,0,0,1,.21,0h1.9a3.39,3.39,0,0,0,.59-.09,6.2,6.2,0,0,0,.79-.25l1.28-.48-1.19-.32c-.28-.08-.49-.13-.63-.18a.67.67,0,0,0-.49.05,1.28,1.28,0,0,0-.39.32l-.93-.64a3.78,3.78,0,0,1,.82-1.06,1.08,1.08,0,0,1,1-.24,7.15,7.15,0,0,1,.92.19c.31.08.63.16,1,.26l1,.26a10.38,10.38,0,0,0,1.11.22,4.91,4.91,0,0,0,.53,0l.53,0-.42,1.55-.57,0a2.19,2.19,0,0,0-.46,0,2.54,2.54,0,0,0-.45.13,4.63,4.63,0,0,0-.5.25c-.46.26-.85.49-1.15.68a5.91,5.91,0,0,1-.89.47,4.58,4.58,0,0,1-1,.29,8.26,8.26,0,0,1-1.35.09h-1a.76.76,0,0,1-.21,0c-.06,0-.1,0-.1-.06Zm4.06-5-.82,1.08-1.12-.76.83-1.1Z"/><path class="cls-1" d="M128.25,178.53a2.88,2.88,0,0,0-1.12-.16,1.67,1.67,0,0,0-.52.09,1.69,1.69,0,0,0-.49.23,1.42,1.42,0,0,0-.37.31.52.52,0,0,0-.15.34.23.23,0,0,0,.2.24,2.28,2.28,0,0,0,.52.08l.66.05a2.76,2.76,0,0,1,.66.13,1.35,1.35,0,0,1,.52.34,1,1,0,0,1,.2.65,2.46,2.46,0,0,1-.4,1.41,3.7,3.7,0,0,1-1,1,5.07,5.07,0,0,1-1.38.62,5.42,5.42,0,0,1-1.46.21,4.85,4.85,0,0,1-1.5-.21,2.93,2.93,0,0,1-1.06-.59,2.3,2.3,0,0,1-.63-.88,3,3,0,0,1-.21-1.11,4,4,0,0,1,.16-1.1,4.63,4.63,0,0,1,.48-1.14l1.07.36a4.68,4.68,0,0,0-.32.75,2.27,2.27,0,0,0-.12.72,1.75,1.75,0,0,0,.13.65,1.38,1.38,0,0,0,.42.52,2,2,0,0,0,.72.35,3.58,3.58,0,0,0,1,.13,4.31,4.31,0,0,0,.94-.11,6,6,0,0,0,1-.28,3.73,3.73,0,0,0,.8-.4c.21-.15.32-.3.32-.44a.18.18,0,0,0-.15-.17,2.72,2.72,0,0,0-.44-.08l-.64,0c-.23,0-.49,0-.76-.08a1,1,0,0,1-.69-.34,1.1,1.1,0,0,1-.22-.7,2.6,2.6,0,0,1,.27-1.16,3,3,0,0,1,.69-1,3.09,3.09,0,0,1,1-.66,2.65,2.65,0,0,1,1.09-.24,2.32,2.32,0,0,1,.59.07,2,2,0,0,1,.55.24Z"/><path class="cls-1" d="M131.11,181.3l-1.39.36v-7.81l1.39-.54Z"/><path class="cls-1" d="M134.46,181.39a.93.93,0,0,1-.27-.19,3.32,3.32,0,0,1-.45,1.09,5.63,5.63,0,0,1-.8,1,8.32,8.32,0,0,1-1.05.86c-.38.27-.78.52-1.18.76l-1.16-.9c.29-.14.64-.33,1-.56a11.51,11.51,0,0,0,1.16-.75,5.68,5.68,0,0,0,1-.84,1.32,1.32,0,0,0,.38-.84.73.73,0,0,0-.08-.34,2.37,2.37,0,0,0-.19-.35l-.21-.33-.18-.24,1-1.13c.1.15.19.31.28.46a3.4,3.4,0,0,0,.28.42,1.43,1.43,0,0,0,.32.29.74.74,0,0,0,.42.12v1.57A.71.71,0,0,1,134.46,181.39Z"/><path class="cls-1" d="M134.77,181.47a.76.76,0,0,1-.21,0c-.06,0-.1,0-.1-.06V180s0-.07.1-.08a.76.76,0,0,1,.21,0h1.36v1.57Z"/><path class="cls-1" d="M136.13,181.47a.76.76,0,0,1-.21,0c-.07,0-.1,0-.1-.06V180s0-.07.1-.08a.76.76,0,0,1,.21,0h1.36v1.57Z"/><path class="cls-1" d="M137.48,181.47a.76.76,0,0,1-.21,0c-.06,0-.1,0-.1-.06V180s0-.07.1-.08a.76.76,0,0,1,.21,0h1.36v1.57Z"/><path class="cls-1" d="M138.84,181.47a.76.76,0,0,1-.21,0c-.07,0-.1,0-.1-.06V180s0-.07.1-.08a.76.76,0,0,1,.21,0h1.36v1.57Z"/><path class="cls-1" d="M140.2,181.47a.66.66,0,0,1-.21,0c-.07,0-.11,0-.11-.06V180s0-.07.11-.08a.66.66,0,0,1,.21,0h1.35v1.57Z"/><path class="cls-1" d="M141.55,181.47a.76.76,0,0,1-.21,0c-.07,0-.1,0-.1-.06V180s0-.07.1-.08a.76.76,0,0,1,.21,0h1.36v1.57Z"/><path class="cls-1" d="M142.91,181.47a.66.66,0,0,1-.21,0c-.07,0-.1,0-.1-.06V180s0-.07.1-.08a.66.66,0,0,1,.21,0h1.35v1.57Z"/><path class="cls-1" d="M144.26,181.47a.76.76,0,0,1-.21,0c-.07,0-.1,0-.1-.06V180s0-.07.1-.08a.76.76,0,0,1,.21,0h1.36v1.57Z"/><path class="cls-1" d="M145.62,181.47a.76.76,0,0,1-.21,0c-.07,0-.1,0-.1-.06V180s0-.07.1-.08a.76.76,0,0,1,.21,0H147v1.57Z"/><path class="cls-1" d="M146.53,183.57l.81-1.08,1.13.76-.83,1.1Zm.13-3.56s0-.07.1-.08a.76.76,0,0,1,.21,0h.9q.69,0,.69-.33a.39.39,0,0,0,0-.14,1.08,1.08,0,0,0-.11-.21,2.94,2.94,0,0,0-.23-.33l-.39-.51.88-1.25a2.42,2.42,0,0,1,.66.94,3.15,3.15,0,0,1,.24,1.21,2.19,2.19,0,0,1-.19,1,1.86,1.86,0,0,1-.5.69,2.1,2.1,0,0,1-.75.41,3.14,3.14,0,0,1-.94.13H147a.76.76,0,0,1-.21,0c-.06,0-.1,0-.1-.06Z"/><path class="cls-1" d="M41.42,11.47C29.53,21.33,18.68,32.17,10.48,45.4,5.43,53.54,1.74,62.2.44,71.81a47.15,47.15,0,0,0,5.83,29.91c5,8.93,11.94,16.07,19.91,22.31,12.54,9.84,26.6,17,41.25,23q3.76,1.54,7.55,3h75V0H56.4C51.28,3.62,46.27,7.44,41.42,11.47Z"/></svg>