<svg id="Layer_1" data-name="Layer 1" xmlns="http://www.w3.org/2000/svg" viewBox="0 0 65.21 63.19"><defs><style>.cls-1{fill:#231f20;}</style></defs><path class="cls-1" d="M65.21,36v2.27q-3.73-.91-7.5-1.77c-6.2-1.41-12.28-2.65-18.28-3.76.27,1.35.5,2.7.68,4a51.68,51.68,0,0,1-3.26,26.43H34.49a49.81,49.81,0,0,0,3.45-26.13c-.22-1.6-.51-3.18-.85-4.77A372.54,372.54,0,0,0,0,27.53V25.32c12,.91,24.07,2.45,36.54,4.64A76.42,76.42,0,0,0,27.18,8.79c-1.84-3-3.85-5.89-6-8.79h2.74c1.85,2.52,3.57,5.05,5.16,7.63A77.45,77.45,0,0,1,38.9,30.38c6.33,1.15,12.75,2.46,19.3,3.95Q61.71,35.13,65.21,36Z"/></svg>