<?xml version="1.0" encoding="UTF-8"?>
<svg id="Layer_1" data-name="Layer 1" xmlns="http://www.w3.org/2000/svg" viewBox="0 0 94.54 14.19">
  <defs>
    <style>
      .cls-1 {
        fill: #fff;
      }
    </style>
  </defs>
  <g>
    <path class="cls-1" d="M0,.18H4.17V.77H.65V3.25H3.93v.59H.65v3.31H0V.18Z"/>
    <path class="cls-1" d="M5.47,.18h4.26V.77h-3.61V3.25h3.39v.59h-3.39v2.72h3.77v.59H5.47V.18Z"/>
    <path class="cls-1" d="M11.31,.18h4.26V.77h-3.61V3.25h3.39v.59h-3.39v2.72h3.77v.59h-4.42V.18Z"/>
    <path class="cls-1" d="M17.14,.18h.65V6.55h3.25v.59h-3.9V.18Z"/>
    <path class="cls-1" d="M22.06,.18h.65V7.14h-.65V.18Z"/>
    <path class="cls-1" d="M24.62,.18h.84l4.24,6.1h.02V.18h.65V7.14h-.84L25.29,1.04h-.02V7.14h-.65V.18Z"/>
    <path class="cls-1" d="M38.02,6.69c-.41,.23-.83,.39-1.26,.49-.44,.1-.88,.14-1.33,.14-.53,0-1.02-.09-1.46-.27-.44-.18-.82-.43-1.14-.76s-.56-.71-.74-1.16c-.18-.45-.27-.94-.27-1.47s.09-1.02,.27-1.47c.18-.45,.42-.83,.74-1.16,.31-.32,.69-.58,1.14-.76,.44-.18,.93-.27,1.46-.27,1.04,0,1.87,.32,2.51,.96l-.47,.49c-.1-.12-.23-.24-.39-.35-.15-.11-.32-.2-.5-.27-.18-.08-.37-.13-.57-.18-.2-.04-.39-.06-.58-.06-.45,0-.86,.08-1.23,.24s-.67,.37-.93,.65c-.26,.27-.45,.6-.59,.97s-.21,.78-.21,1.21,.07,.84,.21,1.21,.33,.7,.59,.97c.26,.28,.57,.49,.93,.65s.77,.24,1.23,.24c.37,0,.72-.03,1.05-.09,.33-.06,.63-.17,.9-.32V3.98h-1.67v-.59h2.32v3.31Z"/>
    <path class="cls-1" d="M42.04,3.66c0-.53,.09-1.02,.27-1.47,.18-.45,.42-.83,.74-1.16,.31-.32,.69-.58,1.14-.76,.44-.18,.93-.27,1.46-.27s1.02,.09,1.46,.27c.44,.18,.82,.44,1.14,.76,.31,.32,.56,.71,.74,1.16,.18,.45,.27,.93,.27,1.47s-.09,1.02-.27,1.47c-.18,.45-.42,.84-.74,1.16s-.69,.58-1.14,.76c-.44,.18-.93,.27-1.46,.27s-1.02-.09-1.46-.27c-.44-.18-.82-.43-1.14-.76s-.56-.71-.74-1.16c-.18-.45-.27-.94-.27-1.47Zm.65,0c0,.43,.07,.84,.21,1.21s.33,.7,.59,.97c.26,.28,.57,.49,.93,.65s.77,.24,1.23,.24,.86-.08,1.23-.24,.67-.37,.93-.65c.26-.27,.45-.6,.59-.97,.14-.37,.21-.78,.21-1.21s-.07-.84-.21-1.21c-.14-.37-.33-.7-.59-.97-.26-.28-.57-.49-.93-.65s-.77-.24-1.23-.24-.86,.08-1.23,.24-.67,.37-.93,.65c-.26,.27-.45,.6-.59,.97s-.21,.78-.21,1.21Z"/>
    <path class="cls-1" d="M50.7,.18h4.17V.77h-3.52V3.25h3.28v.59h-3.28v3.31h-.65V.18Z"/>
    <path class="cls-1" d="M60.86,.18h.67l2.93,6.97h-.73l-.76-1.85h-3.69l-.79,1.85h-.68L60.86,.18Zm.31,.71l-1.62,3.82h3.2l-1.57-3.82Z"/>
    <path class="cls-1" d="M68.03,.18h.65V6.55h3.25v.59h-3.9V.18Z"/>
    <path class="cls-1" d="M72.49,3.66c0-.53,.09-1.02,.27-1.47,.18-.45,.42-.83,.74-1.16,.31-.32,.69-.58,1.14-.76,.44-.18,.93-.27,1.46-.27s1.02,.09,1.46,.27c.44,.18,.82,.44,1.14,.76,.31,.32,.56,.71,.74,1.16,.18,.45,.27,.93,.27,1.47s-.09,1.02-.27,1.47c-.18,.45-.42,.84-.74,1.16s-.69,.58-1.14,.76c-.44,.18-.93,.27-1.46,.27s-1.02-.09-1.46-.27c-.44-.18-.82-.43-1.14-.76s-.56-.71-.74-1.16c-.18-.45-.27-.94-.27-1.47Zm.65,0c0,.43,.07,.84,.21,1.21s.33,.7,.59,.97c.26,.28,.57,.49,.93,.65s.77,.24,1.23,.24,.86-.08,1.23-.24,.67-.37,.93-.65c.26-.27,.45-.6,.59-.97,.14-.37,.21-.78,.21-1.21s-.07-.84-.21-1.21c-.14-.37-.33-.7-.59-.97-.26-.28-.57-.49-.93-.65s-.77-.24-1.23-.24-.86,.08-1.23,.24-.67,.37-.93,.65c-.26,.27-.45,.6-.59,.97s-.21,.78-.21,1.21Z"/>
    <path class="cls-1" d="M80.7,3.66c0-.53,.09-1.02,.27-1.47,.18-.45,.42-.83,.74-1.16,.31-.32,.69-.58,1.14-.76,.44-.18,.93-.27,1.46-.27s1.02,.09,1.46,.27c.44,.18,.82,.44,1.14,.76,.31,.32,.56,.71,.74,1.16,.18,.45,.27,.93,.27,1.47s-.09,1.02-.27,1.47c-.18,.45-.42,.84-.74,1.16s-.69,.58-1.14,.76c-.44,.18-.93,.27-1.46,.27s-1.02-.09-1.46-.27c-.44-.18-.82-.43-1.14-.76s-.56-.71-.74-1.16c-.18-.45-.27-.94-.27-1.47Zm.65,0c0,.43,.07,.84,.21,1.21s.33,.7,.59,.97c.26,.28,.57,.49,.93,.65s.77,.24,1.23,.24,.86-.08,1.23-.24,.67-.37,.93-.65c.26-.27,.45-.6,.59-.97,.14-.37,.21-.78,.21-1.21s-.07-.84-.21-1.21c-.14-.37-.33-.7-.59-.97-.26-.28-.57-.49-.93-.65s-.77-.24-1.23-.24-.86,.08-1.23,.24-.67,.37-.93,.65c-.26,.27-.45,.6-.59,.97s-.21,.78-.21,1.21Z"/>
    <path class="cls-1" d="M89.36,.18h.65V3.25h.06l3.38-3.07h.9l-3.52,3.19,3.72,3.78h-.93l-3.53-3.6h-.06v3.6h-.65V.18Z"/>
  </g>
  <g>
    <path class="cls-1" d="M1.79,11.61H.98v1.85c0,.13,.04,.23,.1,.29s.17,.1,.29,.1c.07,0,.14,0,.21-.03,.07-.02,.14-.04,.21-.07l.03,.33c-.07,.02-.15,.05-.24,.07-.09,.02-.17,.03-.24,.03-.13,0-.24-.02-.34-.06-.09-.04-.17-.09-.23-.16s-.1-.14-.13-.23-.04-.18-.04-.29v-1.85H0v-.33H.61v-.82h.37v.82h.81v.33Z"/>
    <path class="cls-1" d="M2.86,12.7c0-.22,.04-.42,.11-.6,.07-.18,.18-.34,.31-.47,.13-.13,.29-.24,.47-.31,.18-.07,.38-.11,.6-.11s.42,.04,.6,.11c.18,.07,.34,.18,.47,.31s.24,.29,.31,.47c.07,.18,.11,.38,.11,.6s-.04,.42-.11,.6c-.07,.18-.18,.34-.31,.47-.13,.13-.29,.24-.47,.31-.18,.07-.38,.11-.6,.11s-.42-.04-.6-.11c-.18-.07-.34-.18-.47-.31-.13-.13-.23-.29-.31-.47-.07-.18-.11-.38-.11-.6Zm.37,0c0,.16,.03,.31,.08,.45,.05,.14,.13,.26,.22,.37s.22,.19,.36,.25,.3,.09,.47,.09,.33-.03,.47-.09,.26-.14,.36-.25,.17-.23,.22-.37c.05-.14,.08-.29,.08-.45s-.03-.31-.08-.45c-.05-.14-.13-.26-.22-.37s-.22-.19-.36-.25-.3-.09-.47-.09-.33,.03-.47,.09-.26,.14-.36,.25-.17,.23-.22,.37c-.05,.14-.08,.29-.08,.45Z"/>
    <path class="cls-1" d="M11.79,13.7c-.14,.17-.3,.29-.47,.37-.18,.08-.37,.12-.57,.12-.22,0-.42-.04-.6-.11-.18-.07-.34-.18-.47-.31-.13-.13-.23-.29-.31-.47-.07-.18-.11-.38-.11-.6s.04-.42,.11-.6c.07-.18,.18-.34,.31-.47,.13-.13,.29-.24,.47-.31,.18-.07,.38-.11,.6-.11s.4,.04,.58,.13c.18,.09,.34,.21,.48,.36l-.3,.22c-.11-.12-.22-.21-.35-.28s-.26-.1-.41-.1c-.17,0-.33,.03-.47,.09s-.26,.14-.36,.25-.17,.23-.22,.37c-.05,.14-.08,.29-.08,.45s.03,.31,.08,.45c.05,.14,.13,.26,.22,.37s.22,.19,.36,.25,.3,.09,.47,.09c.16,0,.3-.04,.43-.11,.13-.07,.24-.17,.33-.29l.28,.23Z"/>
    <path class="cls-1" d="M12.94,12.08c0-.05,0-.12,0-.19,0-.08,0-.15,0-.23s0-.15,0-.22,0-.12,0-.16h.37c0,.11,0,.21,0,.31,0,.1,0,.16,.02,.19,.09-.17,.21-.31,.36-.41,.15-.11,.33-.16,.54-.16,.04,0,.07,0,.11,0,.04,0,.07,.01,.11,.02l-.04,.36s-.1-.02-.14-.02c-.16,0-.3,.03-.41,.08-.12,.05-.21,.12-.29,.21s-.13,.2-.17,.32c-.04,.12-.06,.25-.06,.39v1.55h-.37v-2.04Z"/>
    <path class="cls-1" d="M17.95,13.58c-.14,.22-.32,.37-.53,.47-.21,.09-.44,.14-.7,.14-.22,0-.41-.04-.59-.11-.18-.07-.33-.18-.46-.31-.13-.13-.22-.29-.29-.47s-.1-.38-.1-.61,.04-.41,.1-.59c.07-.18,.17-.34,.3-.47,.13-.13,.28-.24,.45-.31,.17-.08,.36-.11,.57-.11s.41,.04,.57,.11c.17,.08,.31,.18,.42,.3,.11,.12,.2,.27,.25,.43s.09,.32,.09,.49v.26h-2.38c0,.08,.02,.18,.05,.3,.03,.12,.09,.24,.17,.35s.19,.21,.33,.29c.14,.08,.31,.12,.53,.12,.19,0,.37-.04,.55-.13,.18-.09,.31-.21,.41-.37l.27,.23Zm-.28-1.12c0-.13-.03-.25-.08-.36-.05-.11-.12-.21-.21-.29-.09-.08-.19-.15-.31-.2-.12-.05-.25-.07-.38-.07-.2,0-.37,.04-.5,.12-.13,.08-.24,.18-.32,.28-.08,.11-.13,.21-.17,.31-.03,.1-.05,.17-.05,.21h2.02Z"/>
    <path class="cls-1" d="M21.63,12.93c0,.14,0,.26,0,.37,0,.11,0,.21,0,.31,0,.09,0,.18,.02,.26s.02,.16,.03,.25h-.34c-.03-.14-.04-.29-.04-.46h-.01c-.11,.18-.24,.32-.4,.4-.16,.09-.36,.13-.6,.13-.12,0-.24-.02-.36-.05-.12-.03-.23-.08-.32-.15-.09-.07-.17-.15-.23-.26-.06-.11-.09-.23-.09-.39,0-.22,.05-.39,.17-.52,.11-.13,.25-.22,.41-.29,.16-.06,.33-.1,.52-.12,.18-.02,.34-.03,.48-.03h.43v-.17c0-.25-.08-.42-.23-.53-.15-.11-.34-.16-.57-.16-.33,0-.62,.11-.87,.32l-.21-.25c.13-.13,.3-.23,.5-.3s.39-.1,.58-.1c.34,0,.62,.08,.82,.24s.31,.42,.31,.78v.69Zm-.74-.23c-.16,0-.31,.01-.45,.03-.15,.02-.28,.06-.39,.1-.12,.05-.21,.12-.28,.2-.07,.08-.1,.18-.1,.31,0,.09,.02,.16,.06,.23,.04,.07,.09,.12,.15,.17s.13,.08,.21,.1,.15,.03,.23,.03c.2,0,.36-.03,.49-.09s.23-.13,.3-.22c.08-.09,.13-.2,.16-.31,.03-.12,.04-.23,.04-.35v-.19h-.4Z"/>
    <path class="cls-1" d="M24.58,11.61h-.81v1.85c0,.13,.04,.23,.1,.29s.17,.1,.29,.1c.07,0,.14,0,.21-.03,.07-.02,.14-.04,.21-.07l.03,.33c-.07,.02-.15,.05-.24,.07-.09,.02-.17,.03-.24,.03-.13,0-.24-.02-.34-.06-.09-.04-.17-.09-.23-.16s-.1-.14-.13-.23-.04-.18-.04-.29v-1.85h-.61v-.33h.61v-.82h.37v.82h.81v.33Z"/>
    <path class="cls-1" d="M28.31,13.58c-.14,.22-.32,.37-.53,.47-.21,.09-.44,.14-.7,.14-.22,0-.41-.04-.59-.11-.18-.07-.33-.18-.46-.31-.13-.13-.22-.29-.29-.47s-.1-.38-.1-.61,.04-.41,.1-.59c.07-.18,.17-.34,.3-.47,.13-.13,.28-.24,.45-.31,.17-.08,.36-.11,.57-.11s.41,.04,.57,.11c.17,.08,.31,.18,.42,.3,.11,.12,.2,.27,.25,.43s.09,.32,.09,.49v.26h-2.38c0,.08,.02,.18,.05,.3,.03,.12,.09,.24,.17,.35s.19,.21,.33,.29c.14,.08,.31,.12,.53,.12,.19,0,.37-.04,.55-.13,.18-.09,.31-.21,.41-.37l.27,.23Zm-.28-1.12c0-.13-.03-.25-.08-.36-.05-.11-.12-.21-.21-.29-.09-.08-.19-.15-.31-.2-.12-.05-.25-.07-.38-.07-.2,0-.37,.04-.5,.12-.13,.08-.24,.18-.32,.28-.08,.11-.13,.21-.17,.31-.03,.1-.05,.17-.05,.21h2.02Z"/>
    <path class="cls-1" d="M31.56,11.28h.41l.69,2.38h.01l.79-2.38h.35l.84,2.38h.01l.67-2.38h.37l-.84,2.84h-.38l-.85-2.32h-.01l-.79,2.32h-.38l-.89-2.84Z"/>
    <path class="cls-1" d="M36.85,9.47h.37v2.3h.01c.07-.16,.2-.29,.37-.4,.17-.11,.37-.17,.6-.17s.4,.04,.54,.1,.25,.16,.33,.27c.08,.11,.14,.24,.17,.39,.03,.15,.05,.3,.05,.46v1.69h-.37v-1.67c0-.11-.01-.23-.03-.33s-.06-.21-.11-.29c-.05-.09-.12-.16-.22-.21-.09-.05-.21-.08-.36-.08-.14,0-.26,.02-.38,.07-.12,.05-.23,.12-.31,.21s-.16,.22-.21,.36c-.05,.15-.08,.32-.08,.51v1.42h-.37v-4.64Z"/>
    <path class="cls-1" d="M43.05,12.93c0,.14,0,.26,0,.37,0,.11,0,.21,0,.31,0,.09,0,.18,.02,.26s.02,.16,.03,.25h-.34c-.03-.14-.04-.29-.04-.46h-.01c-.11,.18-.24,.32-.4,.4-.16,.09-.36,.13-.6,.13-.12,0-.24-.02-.36-.05-.12-.03-.23-.08-.32-.15-.09-.07-.17-.15-.23-.26-.06-.11-.09-.23-.09-.39,0-.22,.05-.39,.17-.52,.11-.13,.25-.22,.41-.29,.16-.06,.33-.1,.52-.12,.18-.02,.34-.03,.48-.03h.43v-.17c0-.25-.08-.42-.23-.53-.15-.11-.34-.16-.57-.16-.33,0-.62,.11-.87,.32l-.21-.25c.13-.13,.3-.23,.5-.3s.39-.1,.58-.1c.34,0,.62,.08,.82,.24s.31,.42,.31,.78v.69Zm-.74-.23c-.16,0-.31,.01-.45,.03-.15,.02-.28,.06-.39,.1-.12,.05-.21,.12-.28,.2-.07,.08-.1,.18-.1,.31,0,.09,.02,.16,.06,.23,.04,.07,.09,.12,.15,.17s.13,.08,.21,.1,.15,.03,.23,.03c.2,0,.36-.03,.49-.09s.23-.13,.3-.22c.08-.09,.13-.2,.16-.31,.03-.12,.04-.23,.04-.35v-.19h-.4Z"/>
    <path class="cls-1" d="M45.99,11.61h-.81v1.85c0,.13,.04,.23,.1,.29s.17,.1,.29,.1c.07,0,.14,0,.21-.03,.07-.02,.14-.04,.21-.07l.03,.33c-.07,.02-.15,.05-.24,.07-.09,.02-.17,.03-.24,.03-.13,0-.24-.02-.34-.06-.09-.04-.17-.09-.23-.16s-.1-.14-.13-.23-.04-.18-.04-.29v-1.85h-.61v-.33h.61v-.82h.37v.82h.81v.33Z"/>
    <path class="cls-1" d="M51.76,13.7c-.14,.17-.3,.29-.47,.37-.18,.08-.37,.12-.57,.12-.22,0-.42-.04-.6-.11-.18-.07-.34-.18-.47-.31-.13-.13-.23-.29-.31-.47-.07-.18-.11-.38-.11-.6s.04-.42,.11-.6c.07-.18,.18-.34,.31-.47,.13-.13,.29-.24,.47-.31,.18-.07,.38-.11,.6-.11s.4,.04,.58,.13c.18,.09,.34,.21,.48,.36l-.3,.22c-.11-.12-.22-.21-.35-.28s-.26-.1-.41-.1c-.17,0-.33,.03-.47,.09s-.26,.14-.36,.25-.17,.23-.22,.37c-.05,.14-.08,.29-.08,.45s.03,.31,.08,.45c.05,.14,.13,.26,.22,.37s.22,.19,.36,.25,.3,.09,.47,.09c.16,0,.3-.04,.43-.11,.13-.07,.24-.17,.33-.29l.28,.23Z"/>
    <path class="cls-1" d="M52.91,12.08c0-.05,0-.12,0-.19,0-.08,0-.15,0-.23s0-.15,0-.22,0-.12,0-.16h.37c0,.11,0,.21,0,.31,0,.1,0,.16,.02,.19,.09-.17,.21-.31,.36-.41,.15-.11,.33-.16,.54-.16,.04,0,.07,0,.11,0,.04,0,.07,.01,.11,.02l-.04,.36s-.1-.02-.14-.02c-.16,0-.3,.03-.41,.08-.12,.05-.21,.12-.29,.21s-.13,.2-.17,.32c-.04,.12-.06,.25-.06,.39v1.55h-.37v-2.04Z"/>
    <path class="cls-1" d="M57.92,13.58c-.14,.22-.32,.37-.53,.47-.21,.09-.44,.14-.7,.14-.22,0-.41-.04-.59-.11-.18-.07-.33-.18-.46-.31-.13-.13-.22-.29-.29-.47s-.1-.38-.1-.61,.04-.41,.1-.59c.07-.18,.17-.34,.3-.47,.13-.13,.28-.24,.45-.31,.17-.08,.36-.11,.57-.11s.41,.04,.57,.11c.17,.08,.31,.18,.42,.3,.11,.12,.2,.27,.25,.43s.09,.32,.09,.49v.26h-2.38c0,.08,.02,.18,.05,.3,.03,.12,.09,.24,.17,.35s.19,.21,.33,.29c.14,.08,.31,.12,.53,.12,.19,0,.37-.04,.55-.13,.18-.09,.31-.21,.41-.37l.27,.23Zm-.28-1.12c0-.13-.03-.25-.08-.36-.05-.11-.12-.21-.21-.29-.09-.08-.19-.15-.31-.2-.12-.05-.25-.07-.38-.07-.2,0-.37,.04-.5,.12-.13,.08-.24,.18-.32,.28-.08,.11-.13,.21-.17,.31-.03,.1-.05,.17-.05,.21h2.02Z"/>
    <path class="cls-1" d="M61.61,12.93c0,.14,0,.26,0,.37,0,.11,0,.21,0,.31,0,.09,0,.18,.02,.26s.02,.16,.03,.25h-.34c-.03-.14-.04-.29-.04-.46h-.01c-.11,.18-.24,.32-.4,.4-.16,.09-.36,.13-.6,.13-.12,0-.24-.02-.36-.05-.12-.03-.23-.08-.32-.15-.09-.07-.17-.15-.23-.26-.06-.11-.09-.23-.09-.39,0-.22,.05-.39,.17-.52,.11-.13,.25-.22,.41-.29,.16-.06,.33-.1,.52-.12,.18-.02,.34-.03,.48-.03h.43v-.17c0-.25-.08-.42-.23-.53-.15-.11-.34-.16-.57-.16-.33,0-.62,.11-.87,.32l-.21-.25c.13-.13,.3-.23,.5-.3s.39-.1,.58-.1c.34,0,.62,.08,.82,.24s.31,.42,.31,.78v.69Zm-.74-.23c-.16,0-.31,.01-.45,.03-.15,.02-.28,.06-.39,.1-.12,.05-.21,.12-.28,.2-.07,.08-.1,.18-.1,.31,0,.09,.02,.16,.06,.23,.04,.07,.09,.12,.15,.17s.13,.08,.21,.1,.15,.03,.23,.03c.2,0,.36-.03,.49-.09s.23-.13,.3-.22c.08-.09,.13-.2,.16-.31,.03-.12,.04-.23,.04-.35v-.19h-.4Z"/>
    <path class="cls-1" d="M64.55,11.61h-.81v1.85c0,.13,.04,.23,.1,.29s.17,.1,.29,.1c.07,0,.14,0,.21-.03,.07-.02,.14-.04,.21-.07l.03,.33c-.07,.02-.15,.05-.24,.07-.09,.02-.17,.03-.24,.03-.13,0-.24-.02-.34-.06-.09-.04-.17-.09-.23-.16s-.1-.14-.13-.23-.04-.18-.04-.29v-1.85h-.61v-.33h.61v-.82h.37v.82h.81v.33Z"/>
    <path class="cls-1" d="M68.28,13.58c-.14,.22-.32,.37-.53,.47-.21,.09-.44,.14-.7,.14-.22,0-.41-.04-.59-.11-.18-.07-.33-.18-.46-.31-.13-.13-.22-.29-.29-.47s-.1-.38-.1-.61,.04-.41,.1-.59c.07-.18,.17-.34,.3-.47,.13-.13,.28-.24,.45-.31,.17-.08,.36-.11,.57-.11s.41,.04,.57,.11c.17,.08,.31,.18,.42,.3,.11,.12,.2,.27,.25,.43s.09,.32,.09,.49v.26h-2.38c0,.08,.02,.18,.05,.3,.03,.12,.09,.24,.17,.35s.19,.21,.33,.29c.14,.08,.31,.12,.53,.12,.19,0,.37-.04,.55-.13,.18-.09,.31-.21,.41-.37l.27,.23Zm-.28-1.12c0-.13-.03-.25-.08-.36-.05-.11-.12-.21-.21-.29-.09-.08-.19-.15-.31-.2-.12-.05-.25-.07-.38-.07-.2,0-.37,.04-.5,.12-.13,.08-.24,.18-.32,.28-.08,.11-.13,.21-.17,.31-.03,.1-.05,.17-.05,.21h2.02Z"/>
    <path class="cls-1" d="M69.77,13.39c.08,.15,.19,.27,.34,.35,.15,.08,.31,.12,.48,.12,.08,0,.16-.01,.23-.04,.08-.03,.15-.06,.21-.1,.06-.05,.11-.1,.15-.16s.06-.14,.06-.22c0-.13-.04-.23-.13-.29-.08-.07-.19-.12-.31-.15s-.26-.07-.41-.1c-.15-.03-.28-.07-.41-.12-.12-.05-.23-.13-.31-.23s-.13-.24-.13-.42c0-.14,.03-.26,.09-.36s.13-.19,.22-.25c.09-.07,.2-.12,.31-.15,.12-.03,.23-.05,.35-.05,.23,0,.44,.04,.61,.13s.3,.22,.4,.41l-.33,.2c-.07-.13-.16-.23-.26-.3s-.24-.1-.41-.1c-.07,0-.13,.01-.21,.03-.07,.02-.14,.05-.19,.09s-.11,.08-.14,.14-.06,.12-.06,.2c0,.13,.04,.22,.13,.28s.19,.11,.31,.14,.26,.06,.41,.09c.15,.03,.28,.07,.41,.12,.12,.06,.23,.14,.31,.24s.13,.25,.13,.45c0,.15-.03,.27-.08,.38-.06,.11-.13,.2-.23,.27-.1,.07-.21,.13-.33,.17s-.25,.06-.39,.06c-.25,0-.47-.05-.67-.14-.2-.09-.36-.24-.47-.44l.33-.22Z"/>
    <path class="cls-1" d="M76.51,11.61h-.81v1.85c0,.13,.04,.23,.1,.29s.17,.1,.29,.1c.07,0,.14,0,.21-.03,.07-.02,.14-.04,.21-.07l.03,.33c-.07,.02-.15,.05-.24,.07-.09,.02-.17,.03-.24,.03-.13,0-.24-.02-.34-.06-.09-.04-.17-.09-.23-.16s-.1-.14-.13-.23-.04-.18-.04-.29v-1.85h-.61v-.33h.61v-.82h.37v.82h.81v.33Z"/>
    <path class="cls-1" d="M77.58,12.7c0-.22,.04-.42,.11-.6,.07-.18,.18-.34,.31-.47,.13-.13,.29-.24,.47-.31,.18-.07,.38-.11,.6-.11s.42,.04,.6,.11c.18,.07,.34,.18,.47,.31s.24,.29,.31,.47c.07,.18,.11,.38,.11,.6s-.04,.42-.11,.6c-.07,.18-.18,.34-.31,.47-.13,.13-.29,.24-.47,.31-.18,.07-.38,.11-.6,.11s-.42-.04-.6-.11c-.18-.07-.34-.18-.47-.31-.13-.13-.23-.29-.31-.47-.07-.18-.11-.38-.11-.6Zm.37,0c0,.16,.03,.31,.08,.45,.05,.14,.13,.26,.22,.37s.22,.19,.36,.25,.3,.09,.47,.09,.33-.03,.47-.09,.26-.14,.36-.25,.17-.23,.22-.37c.05-.14,.08-.29,.08-.45s-.03-.31-.08-.45c-.05-.14-.13-.26-.22-.37s-.22-.19-.36-.25-.3-.09-.47-.09-.33,.03-.47,.09-.26,.14-.36,.25-.17,.23-.22,.37c-.05,.14-.08,.29-.08,.45Z"/>
    <path class="cls-1" d="M84.19,9.47h.37v4.64h-.37v-4.64Z"/>
    <path class="cls-1" d="M88.38,12.93c0,.14,0,.26,0,.37,0,.11,0,.21,0,.31,0,.09,0,.18,.02,.26s.02,.16,.03,.25h-.34c-.03-.14-.04-.29-.04-.46h-.01c-.11,.18-.24,.32-.4,.4-.16,.09-.36,.13-.6,.13-.12,0-.24-.02-.36-.05-.12-.03-.23-.08-.32-.15-.09-.07-.17-.15-.23-.26-.06-.11-.09-.23-.09-.39,0-.22,.05-.39,.17-.52,.11-.13,.25-.22,.41-.29,.16-.06,.33-.1,.52-.12,.18-.02,.34-.03,.48-.03h.43v-.17c0-.25-.08-.42-.23-.53-.15-.11-.34-.16-.57-.16-.33,0-.62,.11-.87,.32l-.21-.25c.13-.13,.3-.23,.5-.3s.39-.1,.58-.1c.34,0,.62,.08,.82,.24s.31,.42,.31,.78v.69Zm-.74-.23c-.16,0-.31,.01-.45,.03-.15,.02-.28,.06-.39,.1-.12,.05-.21,.12-.28,.2-.07,.08-.1,.18-.1,.31,0,.09,.02,.16,.06,.23,.04,.07,.09,.12,.15,.17s.13,.08,.21,.1,.15,.03,.23,.03c.2,0,.36-.03,.49-.09s.23-.13,.3-.22c.08-.09,.13-.2,.16-.31,.03-.12,.04-.23,.04-.35v-.19h-.4Z"/>
    <path class="cls-1" d="M89.94,13.39c.08,.15,.19,.27,.34,.35,.15,.08,.31,.12,.48,.12,.08,0,.16-.01,.23-.04,.08-.03,.15-.06,.21-.1,.06-.05,.11-.1,.15-.16s.06-.14,.06-.22c0-.13-.04-.23-.13-.29-.08-.07-.19-.12-.31-.15s-.26-.07-.41-.1c-.15-.03-.28-.07-.41-.12-.12-.05-.23-.13-.31-.23s-.13-.24-.13-.42c0-.14,.03-.26,.09-.36s.13-.19,.22-.25c.09-.07,.2-.12,.31-.15,.12-.03,.23-.05,.35-.05,.23,0,.44,.04,.61,.13s.3,.22,.4,.41l-.33,.2c-.07-.13-.16-.23-.26-.3s-.24-.1-.41-.1c-.07,0-.13,.01-.21,.03-.07,.02-.14,.05-.19,.09s-.11,.08-.14,.14-.06,.12-.06,.2c0,.13,.04,.22,.13,.28s.19,.11,.31,.14,.26,.06,.41,.09c.15,.03,.28,.07,.41,.12,.12,.06,.23,.14,.31,.24s.13,.25,.13,.45c0,.15-.03,.27-.08,.38-.06,.11-.13,.2-.23,.27-.1,.07-.21,.13-.33,.17s-.25,.06-.39,.06c-.25,0-.47-.05-.67-.14-.2-.09-.36-.24-.47-.44l.33-.22Z"/>
    <path class="cls-1" d="M94.51,11.61h-.81v1.85c0,.13,.04,.23,.1,.29s.17,.1,.29,.1c.07,0,.14,0,.21-.03,.07-.02,.14-.04,.21-.07l.03,.33c-.07,.02-.15,.05-.24,.07-.09,.02-.17,.03-.24,.03-.13,0-.24-.02-.34-.06-.09-.04-.17-.09-.23-.16s-.1-.14-.13-.23-.04-.18-.04-.29v-1.85h-.61v-.33h.61v-.82h.37v.82h.81v.33Z"/>
  </g>
</svg>