<svg id="Layer_1" data-name="Layer 1" xmlns="http://www.w3.org/2000/svg" viewBox="0 0 359.68 719"><defs><style>.cls-1{fill:#f48120;}.cls-2{fill:#fff;}</style></defs><rect class="cls-1" width="359.68" height="719"/><path class="cls-2" d="M128,176.43a18,18,0,0,1-13.56-10.9,27,27,0,0,1-2.06-8.53l0-.39h-.73l0,.46a27.41,27.41,0,0,0,2.12,8.76,18.63,18.63,0,0,0,14.08,11.32,43.29,43.29,0,0,0,5,.68v-.74A42.28,42.28,0,0,1,128,176.43Z"/><path class="cls-2" d="M160.64,165.58a56.11,56.11,0,0,1,11.44-8.7v-.6h-.43a56.7,56.7,0,0,0-11.53,8.78,87.83,87.83,0,0,0-11,13.1h.9A87.5,87.5,0,0,1,160.64,165.58Z"/><path class="cls-2" d="M95.71,169.44v-.76l-2.34-.55A132.07,132.07,0,0,0,72.14,165v.73a132.3,132.3,0,0,1,21.06,3.12Z"/><path class="cls-2" d="M45.26,165.48a60.81,60.81,0,0,1,12.17-9.3v-.79H57.2a61.17,61.17,0,0,0-12.49,9.52q-2.37,2.31-4.56,4.77h0a21.47,21.47,0,0,1-2.43-4.26,28.74,28.74,0,0,1-2.23-9.25c0-.14,0-.28,0-.42h-.8c0,.17,0,.33,0,.49a29.7,29.7,0,0,0,2.29,9.5,23.14,23.14,0,0,0,2.63,4.55q-3.12,3.56-5.84,7.37v1.39a94.77,94.77,0,0,1,6.34-8.12l.1-.11-.1.12A20.32,20.32,0,0,0,52.26,178a43.67,43.67,0,0,0,5.17.71v-.8a42.8,42.8,0,0,1-5-.7,19.47,19.47,0,0,1-11.77-6.91h0l0,0,0,0Q42.86,167.83,45.26,165.48Z"/><path class="cls-2" d="M44.36,197.59a23.8,23.8,0,0,1,3.6,9.46,16.61,16.61,0,0,1-1.15,8.75h.79A17.35,17.35,0,0,0,48.69,207a24.55,24.55,0,0,0-3.7-9.75c-.53-.87-1.11-1.72-1.73-2.56h-.91Q43.44,196.11,44.36,197.59Z"/><path class="cls-2" d="M84,203.59a56.11,56.11,0,0,1,11.44-8.7v-.61H95a57.15,57.15,0,0,0-11.53,8.78,88.48,88.48,0,0,0-11,13.11h.9A87.5,87.5,0,0,1,84,203.59Z"/><path class="cls-2" d="M281.57,176.43A17.94,17.94,0,0,1,268,165.53,26.44,26.44,0,0,1,266,157l0-.39h-.74l0,.46a27.67,27.67,0,0,0,2.12,8.76,18.66,18.66,0,0,0,14.09,11.32,42.7,42.7,0,0,0,5,.68v-.74A42.28,42.28,0,0,1,281.57,176.43Z"/><path class="cls-2" d="M314.17,165.58a56.39,56.39,0,0,1,11.44-8.7v-.6h-.42a56.43,56.43,0,0,0-11.53,8.78,87.9,87.9,0,0,0-11,13.1h.9A87.5,87.5,0,0,1,314.17,165.58Z"/><path class="cls-2" d="M249.25,169.44v-.76l-2.35-.55A132.12,132.12,0,0,0,225.68,165v.73a132.3,132.3,0,0,1,21.06,3.12Z"/><path class="cls-2" d="M198.8,165.48a60.75,60.75,0,0,1,12.16-9.3v-.79h-.22a61.5,61.5,0,0,0-12.5,9.52q-2.37,2.31-4.55,4.77h0a22,22,0,0,1-2.44-4.26,29.27,29.27,0,0,1-2.23-9.25l0-.42h-.8l0,.49a30,30,0,0,0,2.3,9.5,22.63,22.63,0,0,0,2.62,4.55q-3.1,3.56-5.84,7.37v1.39a96.81,96.81,0,0,1,6.34-8.12,1.14,1.14,0,0,0,.11-.11l-.11.12A20.35,20.35,0,0,0,205.79,178a44.25,44.25,0,0,0,5.17.71v-.8a43.4,43.4,0,0,1-5-.7,19.47,19.47,0,0,1-11.77-6.91h0l0,0,0,0Q196.4,167.83,198.8,165.48Z"/><path class="cls-2" d="M285.08,206.22q-3.56-.81-7-1.43a28.3,28.3,0,0,0-3.57-8.26c-.58-.93-1.21-1.85-1.88-2.77h-1c.79,1.05,1.52,2.11,2.19,3.19a27.75,27.75,0,0,1,3.39,7.68c-4.52-.79-8.92-1.35-13.26-1.68v.8a135.53,135.53,0,0,1,13.46,1.73c.13.57.23,1.15.31,1.73a18,18,0,0,1-1.25,9.48h.86a18.93,18.93,0,0,0,1.18-9.59c-.07-.49-.15-1-.25-1.47,2.18.4,4.38.86,6.63,1.37.91.2,1.82.42,2.72.64v-.82C286.78,206.61,285.93,206.41,285.08,206.22Z"/><path class="cls-2" d="M325.91,207.45v-.76l-2.35-.55A133.31,133.31,0,0,0,302.34,203v.74a131.17,131.17,0,0,1,21.06,3.12Z"/><path class="cls-2" d="M128,252.44a18,18,0,0,1-13.56-10.89,27.1,27.1,0,0,1-2.06-8.53l0-.39h-.73l0,.45a27.41,27.41,0,0,0,2.12,8.76,18.59,18.59,0,0,0,14.08,11.32,41.2,41.2,0,0,0,5,.68v-.74A40.17,40.17,0,0,1,128,252.44Z"/><path class="cls-2" d="M160.64,241.6a55.76,55.76,0,0,1,11.44-8.7v-.61h-.43a56.7,56.7,0,0,0-11.53,8.78,87.91,87.91,0,0,0-11,13.11h.9A86.43,86.43,0,0,1,160.64,241.6Z"/><path class="cls-2" d="M95.71,245.46v-.76l-2.34-.55A131,131,0,0,0,72.14,241v.74a130.05,130.05,0,0,1,21.06,3.12C94,245.06,94.88,245.25,95.71,245.46Z"/><path class="cls-2" d="M45.26,241.49a60.75,60.75,0,0,1,12.17-9.29v-.8H57.2a61.53,61.53,0,0,0-12.49,9.52q-2.37,2.33-4.56,4.77h0a21.67,21.67,0,0,1-2.43-4.25,28.81,28.81,0,0,1-2.23-9.25c0-.14,0-.28,0-.42h-.8c0,.16,0,.33,0,.49a29.77,29.77,0,0,0,2.29,9.5,23.44,23.44,0,0,0,2.63,4.55,91.66,91.66,0,0,0-5.84,7.37v1.38A94.63,94.63,0,0,1,40.11,247l.1-.12-.1.12A20.27,20.27,0,0,0,52.26,254a43.67,43.67,0,0,0,5.17.71v-.8a42.77,42.77,0,0,1-5-.69,19.52,19.52,0,0,1-11.77-6.91h0l0,0,0,0Q42.86,243.85,45.26,241.49Z"/><path class="cls-2" d="M44.36,273.61a23.75,23.75,0,0,1,3.6,9.46,16.58,16.58,0,0,1-1.15,8.74h.79A17.33,17.33,0,0,0,48.69,283a24.66,24.66,0,0,0-3.7-9.75c-.53-.86-1.11-1.71-1.73-2.55h-.91C43.08,271.64,43.75,272.61,44.36,273.61Z"/><path class="cls-2" d="M84,279.6a56.11,56.11,0,0,1,11.44-8.7v-.6H95a56.43,56.43,0,0,0-11.53,8.78,87.9,87.9,0,0,0-11,13.1h.9A87.5,87.5,0,0,1,84,279.6Z"/><path class="cls-2" d="M131.54,282.23c-2.37-.54-4.7-1-7-1.43a28,28,0,0,0-3.57-8.25c-.58-.94-1.2-1.86-1.87-2.77h-1c.8,1.05,1.52,2.11,2.19,3.19a27.67,27.67,0,0,1,3.4,7.68c-4.53-.8-8.92-1.35-13.26-1.69v.81a133.28,133.28,0,0,1,13.46,1.72c.12.58.23,1.15.3,1.73a18,18,0,0,1-1.25,9.48h.86a18.67,18.67,0,0,0,1.18-9.58c-.06-.49-.15-1-.25-1.47q3.27.6,6.64,1.36l2.72.64v-.82Z"/><path class="cls-2" d="M172.37,283.46v-.75c-.78-.19-1.56-.38-2.34-.55A131,131,0,0,0,148.8,279v.74a131.11,131.11,0,0,1,21.06,3.11Z"/><path class="cls-2" d="M281.57,252.44A17.92,17.92,0,0,1,268,241.55,26.57,26.57,0,0,1,266,233l0-.39h-.74l0,.45a27.67,27.67,0,0,0,2.12,8.76,18.62,18.62,0,0,0,14.09,11.32,40.67,40.67,0,0,0,5,.68v-.74A40.17,40.17,0,0,1,281.57,252.44Z"/><path class="cls-2" d="M314.17,241.6a56,56,0,0,1,11.44-8.7v-.61h-.42a56.43,56.43,0,0,0-11.53,8.78,88,88,0,0,0-11,13.11h.9A86.43,86.43,0,0,1,314.17,241.6Z"/><path class="cls-2" d="M249.25,245.46v-.76l-2.35-.55A131.06,131.06,0,0,0,225.68,241v.74a130.05,130.05,0,0,1,21.06,3.12C247.58,245.06,248.42,245.25,249.25,245.46Z"/><path class="cls-2" d="M198.8,241.49A60.7,60.7,0,0,1,211,232.2v-.8h-.22a61.86,61.86,0,0,0-12.5,9.52q-2.37,2.33-4.55,4.77h0a22.22,22.22,0,0,1-2.44-4.25,29.34,29.34,0,0,1-2.23-9.25l0-.42h-.8l0,.49a30,30,0,0,0,2.3,9.5,22.91,22.91,0,0,0,2.62,4.55,93.94,93.94,0,0,0-5.84,7.37v1.38a96.66,96.66,0,0,1,6.34-8.11l.11-.12-.11.12A20.3,20.3,0,0,0,205.79,254a44.25,44.25,0,0,0,5.17.71v-.8a43.36,43.36,0,0,1-5-.69,19.52,19.52,0,0,1-11.77-6.91h0l0,0,0,0Q196.4,243.85,198.8,241.49Z"/><path class="cls-2" d="M197.9,273.61a24,24,0,0,1,3.6,9.46,16.58,16.58,0,0,1-1.16,8.74h.8a17.33,17.33,0,0,0,1.09-8.84,24.66,24.66,0,0,0-3.7-9.75c-.54-.86-1.11-1.71-1.73-2.55h-.92C196.61,271.64,197.28,272.61,197.9,273.61Z"/><path class="cls-2" d="M237.52,279.6A55.84,55.84,0,0,1,249,270.9v-.6h-.43A56.43,56.43,0,0,0,237,279.08a87.9,87.9,0,0,0-11,13.1h.9A86.93,86.93,0,0,1,237.52,279.6Z"/><path class="cls-2" d="M131.54,205.23c-2.37-.54-4.7-1-7-1.43a28,28,0,0,0-3.57-8.25c-.58-.94-1.2-1.86-1.87-2.77h-1c.8,1.05,1.52,2.11,2.19,3.19a27.67,27.67,0,0,1,3.4,7.68c-4.53-.8-8.92-1.35-13.26-1.69v.81a133.28,133.28,0,0,1,13.46,1.72c.12.58.23,1.15.3,1.73a18,18,0,0,1-1.25,9.48h.86a18.67,18.67,0,0,0,1.18-9.58c-.06-.49-.15-1-.25-1.47q3.27.6,6.64,1.36l2.72.64v-.82Z"/><path class="cls-2" d="M172.37,206.46v-.75c-.78-.19-1.56-.38-2.34-.55A131,131,0,0,0,148.8,202v.74a131.11,131.11,0,0,1,21.06,3.11Z"/><path class="cls-2" d="M197.9,196.61a24,24,0,0,1,3.6,9.46,16.58,16.58,0,0,1-1.16,8.74h.8a17.33,17.33,0,0,0,1.09-8.84,24.66,24.66,0,0,0-3.7-9.75c-.54-.86-1.11-1.71-1.73-2.55h-.92C196.61,194.64,197.28,195.61,197.9,196.61Z"/><path class="cls-2" d="M237.52,202.6A55.84,55.84,0,0,1,249,193.9v-.6h-.43A56.43,56.43,0,0,0,237,202.08a87.9,87.9,0,0,0-11,13.1h.9A86.93,86.93,0,0,1,237.52,202.6Z"/><path class="cls-2" d="M128,99.43a18,18,0,0,1-13.56-10.9A27,27,0,0,1,112.41,80l0-.39h-.73l0,.46a27.41,27.41,0,0,0,2.12,8.76,18.63,18.63,0,0,0,14.08,11.32,43.29,43.29,0,0,0,5,.68v-.74A42.28,42.28,0,0,1,128,99.43Z"/><path class="cls-2" d="M160.64,88.58a56.11,56.11,0,0,1,11.44-8.7v-.6h-.43a56.7,56.7,0,0,0-11.53,8.78,87.83,87.83,0,0,0-11,13.1h.9A87.5,87.5,0,0,1,160.64,88.58Z"/><path class="cls-2" d="M95.71,92.44v-.76l-2.34-.55A132.07,132.07,0,0,0,72.14,88v.73A132.3,132.3,0,0,1,93.2,91.85Z"/><path class="cls-2" d="M45.26,88.48a60.81,60.81,0,0,1,12.17-9.3v-.79H57.2a61.17,61.17,0,0,0-12.49,9.52q-2.37,2.31-4.56,4.77h0a21.47,21.47,0,0,1-2.43-4.26,28.74,28.74,0,0,1-2.23-9.25c0-.14,0-.28,0-.42h-.8c0,.17,0,.33,0,.49A29.7,29.7,0,0,0,37,88.74a23.14,23.14,0,0,0,2.63,4.55q-3.12,3.55-5.84,7.37v1.39a94.77,94.77,0,0,1,6.34-8.12l.1-.11-.1.12A20.32,20.32,0,0,0,52.26,101a43.67,43.67,0,0,0,5.17.71v-.8a42.8,42.8,0,0,1-5-.7,19.47,19.47,0,0,1-11.77-6.91h0l0,0,0,0Q42.86,90.83,45.26,88.48Z"/><path class="cls-2" d="M44.36,120.59a23.8,23.8,0,0,1,3.6,9.46,16.61,16.61,0,0,1-1.15,8.75h.79A17.35,17.35,0,0,0,48.69,130a24.55,24.55,0,0,0-3.7-9.75c-.53-.87-1.11-1.72-1.73-2.56h-.91Q43.44,119.11,44.36,120.59Z"/><path class="cls-2" d="M84,126.59a56.11,56.11,0,0,1,11.44-8.7v-.61H95a57.15,57.15,0,0,0-11.53,8.78,88.48,88.48,0,0,0-11,13.11h.9A87.5,87.5,0,0,1,84,126.59Z"/><path class="cls-2" d="M281.57,99.43A17.94,17.94,0,0,1,268,88.53,26.44,26.44,0,0,1,266,80l0-.39h-.74l0,.46a27.67,27.67,0,0,0,2.12,8.76,18.66,18.66,0,0,0,14.09,11.32,42.7,42.7,0,0,0,5,.68v-.74A42.28,42.28,0,0,1,281.57,99.43Z"/><path class="cls-2" d="M314.17,88.58a56.39,56.39,0,0,1,11.44-8.7v-.6h-.42a56.43,56.43,0,0,0-11.53,8.78,87.9,87.9,0,0,0-11,13.1h.9A87.5,87.5,0,0,1,314.17,88.58Z"/><path class="cls-2" d="M249.25,92.44v-.76l-2.35-.55A132.12,132.12,0,0,0,225.68,88v.73a132.3,132.3,0,0,1,21.06,3.12Z"/><path class="cls-2" d="M198.8,88.48A60.75,60.75,0,0,1,211,79.18v-.79h-.22a61.5,61.5,0,0,0-12.5,9.52q-2.37,2.31-4.55,4.77h0a22,22,0,0,1-2.44-4.26A29.27,29.27,0,0,1,189,79.17l0-.42h-.8l0,.49a30,30,0,0,0,2.3,9.5,22.63,22.63,0,0,0,2.62,4.55q-3.1,3.55-5.84,7.37v1.39a96.81,96.81,0,0,1,6.34-8.12,1.14,1.14,0,0,0,.11-.11l-.11.12A20.35,20.35,0,0,0,205.79,101a44.25,44.25,0,0,0,5.17.71v-.8a43.4,43.4,0,0,1-5-.7,19.47,19.47,0,0,1-11.77-6.91h0l0,0,0,0Q196.4,90.83,198.8,88.48Z"/><path class="cls-2" d="M285.08,129.22q-3.56-.81-7-1.43a28.3,28.3,0,0,0-3.57-8.26c-.58-.93-1.21-1.85-1.88-2.77h-1c.79,1,1.52,2.11,2.19,3.19a27.75,27.75,0,0,1,3.39,7.68c-4.52-.79-8.92-1.35-13.26-1.68v.8a135.53,135.53,0,0,1,13.46,1.73c.13.57.23,1.15.31,1.73a18,18,0,0,1-1.25,9.48h.86a18.93,18.93,0,0,0,1.18-9.59c-.07-.49-.15-1-.25-1.47,2.18.4,4.38.86,6.63,1.37.91.2,1.82.42,2.72.64v-.82C286.78,129.61,285.93,129.41,285.08,129.22Z"/><path class="cls-2" d="M325.91,130.45v-.76l-2.35-.55A133.31,133.31,0,0,0,302.34,126v.74a131.17,131.17,0,0,1,21.06,3.12Z"/><path class="cls-2" d="M131.54,128.23c-2.37-.54-4.7-1-7-1.43a28,28,0,0,0-3.57-8.25c-.58-.94-1.2-1.86-1.87-2.77h-1c.8,1,1.52,2.11,2.19,3.19a27.67,27.67,0,0,1,3.4,7.68c-4.53-.8-8.92-1.35-13.26-1.69v.81a133.28,133.28,0,0,1,13.46,1.72c.12.58.23,1.15.3,1.73a18,18,0,0,1-1.25,9.48h.86a18.67,18.67,0,0,0,1.18-9.58c-.06-.49-.15-1-.25-1.47q3.27.6,6.64,1.36l2.72.64v-.82Z"/><path class="cls-2" d="M172.37,129.46v-.75c-.78-.19-1.56-.38-2.34-.55A131,131,0,0,0,148.8,125v.74a131.11,131.11,0,0,1,21.06,3.11Z"/><path class="cls-2" d="M197.9,119.61a24,24,0,0,1,3.6,9.46,16.58,16.58,0,0,1-1.16,8.74h.8a17.33,17.33,0,0,0,1.09-8.84,24.66,24.66,0,0,0-3.7-9.75c-.54-.86-1.11-1.71-1.73-2.55h-.92C196.61,117.64,197.28,118.61,197.9,119.61Z"/><path class="cls-2" d="M237.52,125.6A55.84,55.84,0,0,1,249,116.9v-.6h-.43A56.43,56.43,0,0,0,237,125.08a87.9,87.9,0,0,0-11,13.1h.9A86.93,86.93,0,0,1,237.52,125.6Z"/><path class="cls-2" d="M44.36,39.59A23.8,23.8,0,0,1,48,49.05a16.61,16.61,0,0,1-1.15,8.75h.79A17.35,17.35,0,0,0,48.69,49,24.55,24.55,0,0,0,45,39.21c-.53-.87-1.11-1.72-1.73-2.56h-.91Q43.44,38.1,44.36,39.59Z"/><path class="cls-2" d="M84,45.59a56.11,56.11,0,0,1,11.44-8.7v-.61H95a57.15,57.15,0,0,0-11.53,8.78,88.48,88.48,0,0,0-11,13.11h.9A87.5,87.5,0,0,1,84,45.59Z"/><path class="cls-2" d="M285.08,48.22q-3.56-.81-7-1.43a28.3,28.3,0,0,0-3.57-8.26c-.58-.93-1.21-1.85-1.88-2.77h-1c.79,1.05,1.52,2.11,2.19,3.19a27.75,27.75,0,0,1,3.39,7.68C272.7,45.84,268.3,45.28,264,45v.8a135.53,135.53,0,0,1,13.46,1.73c.13.57.23,1.15.31,1.73a18,18,0,0,1-1.25,9.48h.86a18.93,18.93,0,0,0,1.18-9.59c-.07-.49-.15-1-.25-1.47,2.18.4,4.38.86,6.63,1.37.91.2,1.82.42,2.72.64v-.82C286.78,48.61,285.93,48.41,285.08,48.22Z"/><path class="cls-2" d="M325.91,49.45v-.76l-2.35-.55A133.31,133.31,0,0,0,302.34,45v.74a131.17,131.17,0,0,1,21.06,3.12Z"/><path class="cls-2" d="M131.54,47.23c-2.37-.54-4.7-1-7-1.43A28,28,0,0,0,121,37.55c-.58-.94-1.2-1.86-1.87-2.77h-1c.8,1,1.52,2.11,2.19,3.19a27.67,27.67,0,0,1,3.4,7.68c-4.53-.8-8.92-1.35-13.26-1.69v.81a133.28,133.28,0,0,1,13.46,1.72c.12.58.23,1.15.3,1.73a18,18,0,0,1-1.25,9.48h.86A18.67,18.67,0,0,0,125,48.12c-.06-.49-.15-1-.25-1.47q3.27.6,6.64,1.36l2.72.64v-.82Z"/><path class="cls-2" d="M172.37,48.46v-.75c-.78-.19-1.56-.38-2.34-.55A131,131,0,0,0,148.8,44v.74a131.11,131.11,0,0,1,21.06,3.11Z"/><path class="cls-2" d="M197.9,38.61a24,24,0,0,1,3.6,9.46,16.58,16.58,0,0,1-1.16,8.74h.8A17.33,17.33,0,0,0,202.23,48a24.66,24.66,0,0,0-3.7-9.75c-.54-.86-1.11-1.71-1.73-2.55h-.92C196.61,36.64,197.28,37.61,197.9,38.61Z"/><path class="cls-2" d="M237.52,44.6A55.84,55.84,0,0,1,249,35.9v-.6h-.43A56.43,56.43,0,0,0,237,44.08a87.9,87.9,0,0,0-11,13.1h.9A86.93,86.93,0,0,1,237.52,44.6Z"/><path class="cls-2" d="M285.08,282.23c-2.37-.54-4.7-1-7-1.43a28.25,28.25,0,0,0-3.57-8.25c-.58-.94-1.21-1.86-1.88-2.77h-1c.79,1.05,1.52,2.11,2.19,3.19a27.62,27.62,0,0,1,3.39,7.68c-4.52-.8-8.92-1.35-13.26-1.69v.81a132.56,132.56,0,0,1,13.46,1.72c.13.58.23,1.15.31,1.73a18,18,0,0,1-1.25,9.48h.86a18.89,18.89,0,0,0,1.18-9.58c-.07-.49-.15-1-.25-1.47,2.18.4,4.38.85,6.63,1.36l2.72.64v-.82Z"/><path class="cls-2" d="M325.91,283.46v-.75c-.78-.19-1.56-.38-2.35-.55A131.06,131.06,0,0,0,302.34,279v.74a131.11,131.11,0,0,1,21.06,3.11Z"/><path class="cls-2" d="M128,329a18,18,0,0,1-13.56-10.9,27,27,0,0,1-2.06-8.53l0-.38h-.73l0,.45a27.41,27.41,0,0,0,2.12,8.76,18.63,18.63,0,0,0,14.08,11.32,41.2,41.2,0,0,0,5,.68v-.74A40.17,40.17,0,0,1,128,329Z"/><path class="cls-2" d="M160.64,318.12a55.76,55.76,0,0,1,11.44-8.7v-.61h-.43a56.7,56.7,0,0,0-11.53,8.78,88.34,88.34,0,0,0-11,13.1h.9A86.88,86.88,0,0,1,160.64,318.12Z"/><path class="cls-2" d="M95.71,322v-.75c-.78-.19-1.56-.38-2.34-.55a131,131,0,0,0-21.23-3.14v.74a131.11,131.11,0,0,1,21.06,3.11Z"/><path class="cls-2" d="M45.26,318a61.18,61.18,0,0,1,12.17-9.3v-.79H57.2a61.53,61.53,0,0,0-12.49,9.52q-2.37,2.32-4.56,4.77h0A21.47,21.47,0,0,1,37.72,318a28.68,28.68,0,0,1-2.23-9.24c0-.14,0-.28,0-.42h-.8c0,.16,0,.32,0,.49A29.64,29.64,0,0,0,37,318.27a23.52,23.52,0,0,0,2.63,4.56,91.66,91.66,0,0,0-5.84,7.37v1.38a93.09,93.09,0,0,1,6.34-8.11l.1-.12-.1.12a20.32,20.32,0,0,0,12.15,7.08,43.67,43.67,0,0,0,5.17.71v-.8a42.77,42.77,0,0,1-5-.69,19.56,19.56,0,0,1-11.77-6.91h0l0,0,0,0C42.12,321.19,43.66,319.58,45.26,318Z"/><path class="cls-2" d="M44.36,350.13a23.69,23.69,0,0,1,3.6,9.46,16.58,16.58,0,0,1-1.15,8.74h.79a17.33,17.33,0,0,0,1.09-8.84,24.6,24.6,0,0,0-3.7-9.75c-.53-.86-1.11-1.71-1.73-2.55h-.91A34.78,34.78,0,0,1,44.36,350.13Z"/><path class="cls-2" d="M84,356.12a56.11,56.11,0,0,1,11.44-8.7v-.6H95a56.43,56.43,0,0,0-11.53,8.78,87.9,87.9,0,0,0-11,13.1h.9A87.5,87.5,0,0,1,84,356.12Z"/><path class="cls-2" d="M131.54,358.75c-2.37-.54-4.7-1-7-1.43a27.87,27.87,0,0,0-3.57-8.25c-.58-.94-1.2-1.86-1.87-2.77h-1c.8,1.05,1.52,2.11,2.19,3.18a27.85,27.85,0,0,1,3.4,7.69c-4.53-.8-8.92-1.36-13.26-1.69v.8c4.4.34,8.86.91,13.46,1.73.12.58.23,1.15.3,1.73a18,18,0,0,1-1.25,9.48h.86a18.7,18.7,0,0,0,1.18-9.59c-.06-.49-.15-1-.25-1.46q3.27.6,6.64,1.36l2.72.64v-.82C133.24,359.14,132.4,358.94,131.54,358.75Z"/><path class="cls-2" d="M172.37,360v-.76l-2.34-.55a132.07,132.07,0,0,0-21.23-3.13v.73a132.3,132.3,0,0,1,21.06,3.12Z"/><path class="cls-2" d="M281.57,329A17.92,17.92,0,0,1,268,318.06a26.44,26.44,0,0,1-2.06-8.53l0-.38h-.74l0,.45a27.67,27.67,0,0,0,2.12,8.76,18.66,18.66,0,0,0,14.09,11.32,40.67,40.67,0,0,0,5,.68v-.74A40.17,40.17,0,0,1,281.57,329Z"/><path class="cls-2" d="M314.17,318.12a56,56,0,0,1,11.44-8.7v-.61h-.42a56.43,56.43,0,0,0-11.53,8.78,88.41,88.41,0,0,0-11,13.1h.9A86.88,86.88,0,0,1,314.17,318.12Z"/><path class="cls-2" d="M249.25,322v-.75c-.78-.19-1.56-.38-2.35-.55a131.06,131.06,0,0,0-21.22-3.14v.74a131.11,131.11,0,0,1,21.06,3.11Z"/><path class="cls-2" d="M198.8,318a61.13,61.13,0,0,1,12.16-9.3v-.79h-.22a61.86,61.86,0,0,0-12.5,9.52q-2.37,2.32-4.55,4.77h0a22,22,0,0,1-2.44-4.26,29.21,29.21,0,0,1-2.23-9.24l0-.42h-.8l0,.49a29.91,29.91,0,0,0,2.3,9.49,23,23,0,0,0,2.62,4.56,93.94,93.94,0,0,0-5.84,7.37v1.38a95.06,95.06,0,0,1,6.34-8.11l.11-.12-.11.12a20.35,20.35,0,0,0,12.15,7.08,44.25,44.25,0,0,0,5.17.71v-.8a43.36,43.36,0,0,1-5-.69,19.56,19.56,0,0,1-11.77-6.91h0l0,0,0,0C195.66,321.19,197.2,319.58,198.8,318Z"/><path class="cls-2" d="M197.9,350.13a24,24,0,0,1,3.6,9.46,16.58,16.58,0,0,1-1.16,8.74h.8a17.33,17.33,0,0,0,1.09-8.84,24.6,24.6,0,0,0-3.7-9.75c-.54-.86-1.11-1.71-1.73-2.55h-.92C196.61,348.15,197.28,349.13,197.9,350.13Z"/><path class="cls-2" d="M237.52,356.12a55.84,55.84,0,0,1,11.44-8.7v-.6h-.43A56.43,56.43,0,0,0,237,355.6a87.9,87.9,0,0,0-11,13.1h.9A86.93,86.93,0,0,1,237.52,356.12Z"/><path class="cls-2" d="M285.08,358.75c-2.37-.54-4.7-1-7-1.43a28.13,28.13,0,0,0-3.57-8.25c-.58-.94-1.21-1.86-1.88-2.77h-1q1.19,1.57,2.19,3.18a27.81,27.81,0,0,1,3.39,7.69c-4.52-.8-8.92-1.36-13.26-1.69v.8A135.53,135.53,0,0,1,277.42,358c.13.58.23,1.15.31,1.73a18,18,0,0,1-1.25,9.48h.86a18.91,18.91,0,0,0,1.18-9.59c-.07-.49-.15-1-.25-1.46,2.18.4,4.38.85,6.63,1.36l2.72.64v-.82C286.78,359.14,285.93,358.94,285.08,358.75Z"/><path class="cls-2" d="M325.91,360v-.76l-2.35-.55a132.12,132.12,0,0,0-21.22-3.13v.73a132.3,132.3,0,0,1,21.06,3.12Z"/><path class="cls-2" d="M128,405a17.94,17.94,0,0,1-13.56-10.89,27.1,27.1,0,0,1-2.06-8.53l0-.39h-.73l0,.45a27.34,27.34,0,0,0,2.12,8.76,18.62,18.62,0,0,0,14.08,11.33,43.24,43.24,0,0,0,5,.67v-.74A40.17,40.17,0,0,1,128,405Z"/><path class="cls-2" d="M160.64,394.13a56.11,56.11,0,0,1,11.44-8.7v-.61h-.43a57.43,57.43,0,0,0-11.53,8.78,88.42,88.42,0,0,0-11,13.11h.9A87.5,87.5,0,0,1,160.64,394.13Z"/><path class="cls-2" d="M95.71,398v-.76l-2.34-.55a133.26,133.26,0,0,0-21.23-3.14v.74A131.17,131.17,0,0,1,93.2,397.4Z"/><path class="cls-2" d="M45.26,394a61.13,61.13,0,0,1,12.17-9.29v-.79H57.2a61.11,61.11,0,0,0-12.49,9.51q-2.37,2.32-4.56,4.78h0A22.05,22.05,0,0,1,37.72,394a28.74,28.74,0,0,1-2.23-9.25c0-.14,0-.28,0-.42h-.8c0,.16,0,.33,0,.49a29.77,29.77,0,0,0,2.29,9.5,23.14,23.14,0,0,0,2.63,4.55,93.46,93.46,0,0,0-5.84,7.37v1.39a93.23,93.23,0,0,1,6.34-8.12l.1-.12-.1.12a20.27,20.27,0,0,0,12.15,7.08,45.89,45.89,0,0,0,5.17.72v-.8a45,45,0,0,1-5-.7,19.47,19.47,0,0,1-11.77-6.91h0l0,0,0,0Q42.86,396.38,45.26,394Z"/><path class="cls-2" d="M44.36,426.14A23.75,23.75,0,0,1,48,435.6a16.63,16.63,0,0,1-1.15,8.75h.79a17.37,17.37,0,0,0,1.09-8.85,24.66,24.66,0,0,0-3.7-9.75c-.53-.86-1.11-1.71-1.73-2.55h-.91Q43.44,424.66,44.36,426.14Z"/><path class="cls-2" d="M84,432.14a55.76,55.76,0,0,1,11.44-8.7v-.61H95a56.43,56.43,0,0,0-11.53,8.78,88,88,0,0,0-11,13.11h.9A86.43,86.43,0,0,1,84,432.14Z"/><path class="cls-2" d="M131.54,434.77q-3.56-.81-7-1.44a28.09,28.09,0,0,0-3.57-8.25c-.58-.94-1.2-1.86-1.87-2.77h-1c.8,1.05,1.52,2.11,2.19,3.19a27.79,27.79,0,0,1,3.4,7.68c-4.53-.79-8.92-1.35-13.26-1.68v.8c4.4.34,8.86.91,13.46,1.72.12.58.23,1.16.3,1.74a18,18,0,0,1-1.25,9.48h.86a18.71,18.71,0,0,0,1.18-9.59c-.06-.49-.15-1-.25-1.47q3.27.6,6.64,1.36l2.72.64v-.82Z"/><path class="cls-2" d="M172.37,436v-.76l-2.34-.55a131,131,0,0,0-21.23-3.14v.74a130.05,130.05,0,0,1,21.06,3.12C170.7,435.6,171.54,435.79,172.37,436Z"/><path class="cls-2" d="M281.57,405A17.9,17.9,0,0,1,268,394.08a26.57,26.57,0,0,1-2.06-8.53l0-.39h-.74l0,.45a27.61,27.61,0,0,0,2.12,8.76,18.65,18.65,0,0,0,14.09,11.33,42.66,42.66,0,0,0,5,.67v-.74A40.17,40.17,0,0,1,281.57,405Z"/><path class="cls-2" d="M314.17,394.13a56.39,56.39,0,0,1,11.44-8.7v-.61h-.42a57.15,57.15,0,0,0-11.53,8.78,88.48,88.48,0,0,0-11,13.11h.9A87.5,87.5,0,0,1,314.17,394.13Z"/><path class="cls-2" d="M249.25,398v-.76l-2.35-.55a133.31,133.31,0,0,0-21.22-3.14v.74a131.17,131.17,0,0,1,21.06,3.12Z"/><path class="cls-2" d="M198.8,394A61.07,61.07,0,0,1,211,384.73v-.79h-.22a61.44,61.44,0,0,0-12.5,9.51q-2.37,2.32-4.55,4.78h0a22.62,22.62,0,0,1-2.44-4.26,29.27,29.27,0,0,1-2.23-9.25l0-.42h-.8l0,.49a30,30,0,0,0,2.3,9.5,22.63,22.63,0,0,0,2.62,4.55q-3.1,3.56-5.84,7.37v1.39a95.21,95.21,0,0,1,6.34-8.12l.11-.12-.11.12a20.3,20.3,0,0,0,12.15,7.08,46.53,46.53,0,0,0,5.17.72v-.8a45.7,45.7,0,0,1-5-.7,19.47,19.47,0,0,1-11.77-6.91h0l0,0,0,0Q196.4,396.38,198.8,394Z"/><path class="cls-2" d="M197.9,426.14a24,24,0,0,1,3.6,9.46,16.63,16.63,0,0,1-1.16,8.75h.8a17.37,17.37,0,0,0,1.09-8.85,24.66,24.66,0,0,0-3.7-9.75c-.54-.86-1.11-1.71-1.73-2.55h-.92C196.61,424.17,197.28,425.15,197.9,426.14Z"/><path class="cls-2" d="M237.52,432.14a55.49,55.49,0,0,1,11.44-8.7v-.61h-.43A56.43,56.43,0,0,0,237,431.61a88,88,0,0,0-11,13.11h.9A85.88,85.88,0,0,1,237.52,432.14Z"/><path class="cls-2" d="M285.08,434.77q-3.56-.81-7-1.44a28.36,28.36,0,0,0-3.57-8.25c-.58-.94-1.21-1.86-1.88-2.77h-1c.79,1.05,1.52,2.11,2.19,3.19a27.75,27.75,0,0,1,3.39,7.68c-4.52-.79-8.92-1.35-13.26-1.68v.8c4.41.34,8.87.91,13.46,1.72.13.58.23,1.16.31,1.74a18,18,0,0,1-1.25,9.48h.86a18.93,18.93,0,0,0,1.18-9.59c-.07-.49-.15-1-.25-1.47,2.18.4,4.38.85,6.63,1.36l2.72.64v-.82Z"/><path class="cls-2" d="M325.91,436v-.76l-2.35-.55a131.06,131.06,0,0,0-21.22-3.14v.74a130.05,130.05,0,0,1,21.06,3.12C324.24,435.6,325.07,435.79,325.91,436Z"/><path class="cls-2" d="M128,488a18,18,0,0,1-13.56-10.9,27,27,0,0,1-2.06-8.53l0-.38h-.73l0,.45a27.41,27.41,0,0,0,2.12,8.76,18.63,18.63,0,0,0,14.08,11.32,41.2,41.2,0,0,0,5,.68v-.74A40.17,40.17,0,0,1,128,488Z"/><path class="cls-2" d="M160.64,477.12a55.76,55.76,0,0,1,11.44-8.7v-.61h-.43a56.7,56.7,0,0,0-11.53,8.78,88.34,88.34,0,0,0-11,13.1h.9A86.88,86.88,0,0,1,160.64,477.12Z"/><path class="cls-2" d="M95.71,481v-.75c-.78-.19-1.56-.38-2.34-.55a131,131,0,0,0-21.23-3.14v.74a131.11,131.11,0,0,1,21.06,3.11Z"/><path class="cls-2" d="M45.26,477a61.18,61.18,0,0,1,12.17-9.3v-.79H57.2a61.53,61.53,0,0,0-12.49,9.52q-2.37,2.32-4.56,4.77h0A21.47,21.47,0,0,1,37.72,477a28.68,28.68,0,0,1-2.23-9.24c0-.14,0-.28,0-.42h-.8c0,.16,0,.32,0,.49A29.64,29.64,0,0,0,37,477.27a23.52,23.52,0,0,0,2.63,4.56,91.66,91.66,0,0,0-5.84,7.37v1.38a93.09,93.09,0,0,1,6.34-8.11l.1-.12-.1.12a20.32,20.32,0,0,0,12.15,7.08,43.67,43.67,0,0,0,5.17.71v-.8a42.77,42.77,0,0,1-5-.69,19.56,19.56,0,0,1-11.77-6.91h0l0,0,0,0C42.12,480.19,43.66,478.58,45.26,477Z"/><path class="cls-2" d="M44.36,509.13a23.69,23.69,0,0,1,3.6,9.46,16.58,16.58,0,0,1-1.15,8.74h.79a17.33,17.33,0,0,0,1.09-8.84,24.6,24.6,0,0,0-3.7-9.75c-.53-.86-1.11-1.71-1.73-2.55h-.91A34.78,34.78,0,0,1,44.36,509.13Z"/><path class="cls-2" d="M84,515.12a56.11,56.11,0,0,1,11.44-8.7v-.6H95a56.43,56.43,0,0,0-11.53,8.78,87.9,87.9,0,0,0-11,13.1h.9A87.5,87.5,0,0,1,84,515.12Z"/><path class="cls-2" d="M131.54,517.75c-2.37-.54-4.7-1-7-1.43a27.87,27.87,0,0,0-3.57-8.25c-.58-.94-1.2-1.86-1.87-2.77h-1c.8,1.05,1.52,2.11,2.19,3.18a27.85,27.85,0,0,1,3.4,7.69c-4.53-.8-8.92-1.36-13.26-1.69v.8c4.4.34,8.86.91,13.46,1.73.12.58.23,1.15.3,1.73a18,18,0,0,1-1.25,9.48h.86a18.7,18.7,0,0,0,1.18-9.59c-.06-.49-.15-1-.25-1.46q3.27.6,6.64,1.36l2.72.64v-.82C133.24,518.14,132.4,517.94,131.54,517.75Z"/><path class="cls-2" d="M172.37,519v-.76l-2.34-.55a132.07,132.07,0,0,0-21.23-3.13v.73a132.3,132.3,0,0,1,21.06,3.12Z"/><path class="cls-2" d="M281.57,488A17.92,17.92,0,0,1,268,477.06a26.44,26.44,0,0,1-2.06-8.53l0-.38h-.74l0,.45a27.67,27.67,0,0,0,2.12,8.76,18.66,18.66,0,0,0,14.09,11.32,40.67,40.67,0,0,0,5,.68v-.74A40.17,40.17,0,0,1,281.57,488Z"/><path class="cls-2" d="M314.17,477.12a56,56,0,0,1,11.44-8.7v-.61h-.42a56.43,56.43,0,0,0-11.53,8.78,88.41,88.41,0,0,0-11,13.1h.9A86.88,86.88,0,0,1,314.17,477.12Z"/><path class="cls-2" d="M249.25,481v-.75c-.78-.19-1.56-.38-2.35-.55a131.06,131.06,0,0,0-21.22-3.14v.74a131.11,131.11,0,0,1,21.06,3.11Z"/><path class="cls-2" d="M198.8,477a61.13,61.13,0,0,1,12.16-9.3v-.79h-.22a61.86,61.86,0,0,0-12.5,9.52q-2.37,2.32-4.55,4.77h0a22,22,0,0,1-2.44-4.26,29.21,29.21,0,0,1-2.23-9.24l0-.42h-.8l0,.49a29.91,29.91,0,0,0,2.3,9.49,23,23,0,0,0,2.62,4.56,93.94,93.94,0,0,0-5.84,7.37v1.38a95.06,95.06,0,0,1,6.34-8.11l.11-.12-.11.12a20.35,20.35,0,0,0,12.15,7.08,44.25,44.25,0,0,0,5.17.71v-.8a43.36,43.36,0,0,1-5-.69,19.56,19.56,0,0,1-11.77-6.91h0l0,0,0,0C195.66,480.19,197.2,478.58,198.8,477Z"/><path class="cls-2" d="M197.9,509.13a24,24,0,0,1,3.6,9.46,16.58,16.58,0,0,1-1.16,8.74h.8a17.33,17.33,0,0,0,1.09-8.84,24.6,24.6,0,0,0-3.7-9.75c-.54-.86-1.11-1.71-1.73-2.55h-.92C196.61,507.15,197.28,508.13,197.9,509.13Z"/><path class="cls-2" d="M237.52,515.12a55.84,55.84,0,0,1,11.44-8.7v-.6h-.43A56.43,56.43,0,0,0,237,514.6a87.9,87.9,0,0,0-11,13.1h.9A86.93,86.93,0,0,1,237.52,515.12Z"/><path class="cls-2" d="M285.08,517.75c-2.37-.54-4.7-1-7-1.43a28.13,28.13,0,0,0-3.57-8.25c-.58-.94-1.21-1.86-1.88-2.77h-1q1.19,1.57,2.19,3.18a27.81,27.81,0,0,1,3.39,7.69c-4.52-.8-8.92-1.36-13.26-1.69v.8A135.53,135.53,0,0,1,277.42,517c.13.58.23,1.15.31,1.73a18,18,0,0,1-1.25,9.48h.86a18.91,18.91,0,0,0,1.18-9.59c-.07-.49-.15-1-.25-1.46,2.18.4,4.38.85,6.63,1.36l2.72.64v-.82C286.78,518.14,285.93,517.94,285.08,517.75Z"/><path class="cls-2" d="M325.91,519v-.76l-2.35-.55a132.12,132.12,0,0,0-21.22-3.13v.73a132.3,132.3,0,0,1,21.06,3.12Z"/><path class="cls-2" d="M128,644a18,18,0,0,1-13.56-10.9,27,27,0,0,1-2.06-8.53l0-.38h-.73l0,.45a27.41,27.41,0,0,0,2.12,8.76,18.63,18.63,0,0,0,14.08,11.32,41.2,41.2,0,0,0,5,.68v-.74A40.17,40.17,0,0,1,128,644Z"/><path class="cls-2" d="M160.64,633.12a55.76,55.76,0,0,1,11.44-8.7v-.61h-.43a56.7,56.7,0,0,0-11.53,8.78,88.34,88.34,0,0,0-11,13.1h.9A86.88,86.88,0,0,1,160.64,633.12Z"/><path class="cls-2" d="M95.71,637v-.75c-.78-.19-1.56-.38-2.34-.55a131,131,0,0,0-21.23-3.14v.74a131.11,131.11,0,0,1,21.06,3.11Z"/><path class="cls-2" d="M45.26,633a61.18,61.18,0,0,1,12.17-9.3v-.79H57.2a61.53,61.53,0,0,0-12.49,9.52q-2.37,2.32-4.56,4.77h0A21.47,21.47,0,0,1,37.72,633a28.68,28.68,0,0,1-2.23-9.24c0-.14,0-.28,0-.42h-.8c0,.16,0,.32,0,.49A29.64,29.64,0,0,0,37,633.27a23.52,23.52,0,0,0,2.63,4.56,91.66,91.66,0,0,0-5.84,7.37v1.38a93.09,93.09,0,0,1,6.34-8.11l.1-.12-.1.12a20.32,20.32,0,0,0,12.15,7.08,43.67,43.67,0,0,0,5.17.71v-.8a42.77,42.77,0,0,1-5-.69,19.56,19.56,0,0,1-11.77-6.91h0l0,0,0,0C42.12,636.19,43.66,634.58,45.26,633Z"/><path class="cls-2" d="M44.36,665.13a23.69,23.69,0,0,1,3.6,9.46,16.58,16.58,0,0,1-1.15,8.74h.79a17.33,17.33,0,0,0,1.09-8.84,24.6,24.6,0,0,0-3.7-9.75c-.53-.86-1.11-1.71-1.73-2.55h-.91A34.78,34.78,0,0,1,44.36,665.13Z"/><path class="cls-2" d="M84,671.12a56.11,56.11,0,0,1,11.44-8.7v-.6H95a56.43,56.43,0,0,0-11.53,8.78,87.9,87.9,0,0,0-11,13.1h.9A87.5,87.5,0,0,1,84,671.12Z"/><path class="cls-2" d="M131.54,673.75c-2.37-.54-4.7-1-7-1.43a27.87,27.87,0,0,0-3.57-8.25c-.58-.94-1.2-1.86-1.87-2.77h-1c.8,1.05,1.52,2.11,2.19,3.18a27.85,27.85,0,0,1,3.4,7.69c-4.53-.8-8.92-1.36-13.26-1.69v.8c4.4.34,8.86.91,13.46,1.73.12.58.23,1.15.3,1.73a18,18,0,0,1-1.25,9.48h.86a18.7,18.7,0,0,0,1.18-9.59c-.06-.49-.15-1-.25-1.46q3.27.6,6.64,1.36l2.72.64v-.82C133.24,674.14,132.4,673.94,131.54,673.75Z"/><path class="cls-2" d="M172.37,675v-.76l-2.34-.55a132.07,132.07,0,0,0-21.23-3.13v.73a132.3,132.3,0,0,1,21.06,3.12Z"/><path class="cls-2" d="M281.57,644A17.92,17.92,0,0,1,268,633.06a26.44,26.44,0,0,1-2.06-8.53l0-.38h-.74l0,.45a27.67,27.67,0,0,0,2.12,8.76,18.66,18.66,0,0,0,14.09,11.32,40.67,40.67,0,0,0,5,.68v-.74A40.17,40.17,0,0,1,281.57,644Z"/><path class="cls-2" d="M314.17,633.12a56,56,0,0,1,11.44-8.7v-.61h-.42a56.43,56.43,0,0,0-11.53,8.78,88.41,88.41,0,0,0-11,13.1h.9A86.88,86.88,0,0,1,314.17,633.12Z"/><path class="cls-2" d="M249.25,637v-.75c-.78-.19-1.56-.38-2.35-.55a131.06,131.06,0,0,0-21.22-3.14v.74a131.11,131.11,0,0,1,21.06,3.11Z"/><path class="cls-2" d="M198.8,633a61.13,61.13,0,0,1,12.16-9.3v-.79h-.22a61.86,61.86,0,0,0-12.5,9.52q-2.37,2.32-4.55,4.77h0a22,22,0,0,1-2.44-4.26,29.21,29.21,0,0,1-2.23-9.24l0-.42h-.8l0,.49a29.91,29.91,0,0,0,2.3,9.49,23,23,0,0,0,2.62,4.56,93.94,93.94,0,0,0-5.84,7.37v1.38a95.06,95.06,0,0,1,6.34-8.11l.11-.12-.11.12a20.35,20.35,0,0,0,12.15,7.08,44.25,44.25,0,0,0,5.17.71v-.8a43.36,43.36,0,0,1-5-.69,19.56,19.56,0,0,1-11.77-6.91h0l0,0,0,0C195.66,636.19,197.2,634.58,198.8,633Z"/><path class="cls-2" d="M197.9,665.13a24,24,0,0,1,3.6,9.46,16.58,16.58,0,0,1-1.16,8.74h.8a17.33,17.33,0,0,0,1.09-8.84,24.6,24.6,0,0,0-3.7-9.75c-.54-.86-1.11-1.71-1.73-2.55h-.92C196.61,663.15,197.28,664.13,197.9,665.13Z"/><path class="cls-2" d="M237.52,671.12a55.84,55.84,0,0,1,11.44-8.7v-.6h-.43A56.43,56.43,0,0,0,237,670.6a87.9,87.9,0,0,0-11,13.1h.9A86.93,86.93,0,0,1,237.52,671.12Z"/><path class="cls-2" d="M285.08,673.75c-2.37-.54-4.7-1-7-1.43a28.13,28.13,0,0,0-3.57-8.25c-.58-.94-1.21-1.86-1.88-2.77h-1q1.19,1.58,2.19,3.18a27.81,27.81,0,0,1,3.39,7.69c-4.52-.8-8.92-1.36-13.26-1.69v.8A135.53,135.53,0,0,1,277.42,673c.13.58.23,1.15.31,1.73a18,18,0,0,1-1.25,9.48h.86a18.91,18.91,0,0,0,1.18-9.59c-.07-.49-.15-1-.25-1.46,2.18.4,4.38.85,6.63,1.36l2.72.64v-.82C286.78,674.14,285.93,673.94,285.08,673.75Z"/><path class="cls-2" d="M325.91,675v-.76l-2.35-.55a132.12,132.12,0,0,0-21.22-3.13v.73a132.3,132.3,0,0,1,21.06,3.12Z"/><path class="cls-2" d="M45.26,553a61.13,61.13,0,0,1,12.17-9.29v-.79H57.2a61.11,61.11,0,0,0-12.49,9.51q-2.37,2.32-4.56,4.78h0A22.05,22.05,0,0,1,37.72,553a28.74,28.74,0,0,1-2.23-9.25c0-.14,0-.28,0-.42h-.8c0,.16,0,.33,0,.49a29.77,29.77,0,0,0,2.29,9.5,23.14,23.14,0,0,0,2.63,4.55,93.46,93.46,0,0,0-5.84,7.37v1.39a93.23,93.23,0,0,1,6.34-8.12l.1-.12-.1.12a20.27,20.27,0,0,0,12.15,7.08,45.89,45.89,0,0,0,5.17.72v-.8a45,45,0,0,1-5-.7,19.47,19.47,0,0,1-11.77-6.91h0l0,0,0,0Q42.86,555.38,45.26,553Z"/><path class="cls-2" d="M44.36,585.14A23.75,23.75,0,0,1,48,594.6a16.63,16.63,0,0,1-1.15,8.75h.79a17.37,17.37,0,0,0,1.09-8.85,24.66,24.66,0,0,0-3.7-9.75c-.53-.86-1.11-1.71-1.73-2.55h-.91Q43.44,583.66,44.36,585.14Z"/><path class="cls-2" d="M84,591.14a55.76,55.76,0,0,1,11.44-8.7v-.61H95a56.43,56.43,0,0,0-11.53,8.78,88,88,0,0,0-11,13.11h.9A86.43,86.43,0,0,1,84,591.14Z"/><path class="cls-2" d="M131.54,593.77q-3.56-.81-7-1.44a28.09,28.09,0,0,0-3.57-8.25c-.58-.94-1.2-1.86-1.87-2.77h-1c.8,1.05,1.52,2.11,2.19,3.19a27.79,27.79,0,0,1,3.4,7.68c-4.53-.79-8.92-1.35-13.26-1.68v.8c4.4.34,8.86.91,13.46,1.72.12.58.23,1.16.3,1.74a18,18,0,0,1-1.25,9.48h.86a18.71,18.71,0,0,0,1.18-9.59c-.06-.49-.15-1-.25-1.47q3.27.6,6.64,1.36l2.72.64v-.82Z"/><path class="cls-2" d="M172.37,595v-.76l-2.34-.55a131,131,0,0,0-21.23-3.14v.74a130.05,130.05,0,0,1,21.06,3.12C170.7,594.6,171.54,594.79,172.37,595Z"/><path class="cls-2" d="M314.17,553.13a56.39,56.39,0,0,1,11.44-8.7v-.61h-.42a57.15,57.15,0,0,0-11.53,8.78,88.48,88.48,0,0,0-11,13.11h.9A87.5,87.5,0,0,1,314.17,553.13Z"/><path class="cls-2" d="M197.9,585.14a24,24,0,0,1,3.6,9.46,16.63,16.63,0,0,1-1.16,8.75h.8a17.37,17.37,0,0,0,1.09-8.85,24.66,24.66,0,0,0-3.7-9.75c-.54-.86-1.11-1.71-1.73-2.55h-.92C196.61,583.17,197.28,584.15,197.9,585.14Z"/><path class="cls-2" d="M237.52,591.14a55.49,55.49,0,0,1,11.44-8.7v-.61h-.43A56.43,56.43,0,0,0,237,590.61a88,88,0,0,0-11,13.11h.9A85.88,85.88,0,0,1,237.52,591.14Z"/><path class="cls-2" d="M285.08,593.77q-3.56-.81-7-1.44a28.36,28.36,0,0,0-3.57-8.25c-.58-.94-1.21-1.86-1.88-2.77h-1c.79,1.05,1.52,2.11,2.19,3.19a27.75,27.75,0,0,1,3.39,7.68c-4.52-.79-8.92-1.35-13.26-1.68v.8c4.41.34,8.87.91,13.46,1.72.13.58.23,1.16.31,1.74a18,18,0,0,1-1.25,9.48h.86a18.93,18.93,0,0,0,1.18-9.59c-.07-.49-.15-1-.25-1.47,2.18.4,4.38.85,6.63,1.36l2.72.64v-.82Z"/><path class="cls-2" d="M325.91,595v-.76l-2.35-.55a131.06,131.06,0,0,0-21.22-3.14v.74a130.05,130.05,0,0,1,21.06,3.12C324.24,594.6,325.07,594.79,325.91,595Z"/><path class="cls-2" d="M86.56,551.82h-3v-.74h6.71v.74H87.37v7.89h-.81Z"/><path class="cls-2" d="M90.68,556.9a3.07,3.07,0,0,1,.22-1.19,3,3,0,0,1,.61-.94,2.64,2.64,0,0,1,.94-.61,3.33,3.33,0,0,1,2.38,0,2.73,2.73,0,0,1,.94.61,2.85,2.85,0,0,1,.62.94,3.33,3.33,0,0,1,0,2.38,2.85,2.85,0,0,1-.62.94,2.73,2.73,0,0,1-.94.61,3.33,3.33,0,0,1-2.38,0,2.64,2.64,0,0,1-.94-.61,3,3,0,0,1-.61-.94A3.07,3.07,0,0,1,90.68,556.9Zm.73,0a2.6,2.6,0,0,0,.15.89,2.29,2.29,0,0,0,.45.74,2.21,2.21,0,0,0,1.63.67,2.34,2.34,0,0,0,.93-.18,2.25,2.25,0,0,0,.71-.49,2.11,2.11,0,0,0,.44-.74,2.6,2.6,0,0,0,.15-.89,2.66,2.66,0,0,0-.15-.9,2.16,2.16,0,0,0-.44-.73,2.1,2.1,0,0,0-.71-.49,2.34,2.34,0,0,0-.93-.19,2.26,2.26,0,0,0-.92.19,2.1,2.1,0,0,0-.71.49,2.36,2.36,0,0,0-.45.73A2.66,2.66,0,0,0,91.41,556.9Z"/><path class="cls-2" d="M110.55,558.36a3.58,3.58,0,0,1-1.44,1.21,4.3,4.3,0,0,1-1.76.36,4.82,4.82,0,0,1-1.81-.33,4.06,4.06,0,0,1-1.41-.94,4.28,4.28,0,0,1-.92-1.44,5.34,5.34,0,0,1,0-3.64,4.34,4.34,0,0,1,.92-1.43,4.22,4.22,0,0,1,1.41-.95,4.82,4.82,0,0,1,1.81-.34,4.47,4.47,0,0,1,1.64.31,3.31,3.31,0,0,1,1.33,1.05l-.66.55a2.27,2.27,0,0,0-1-.89,3,3,0,0,0-1.28-.28,3.71,3.71,0,0,0-1.52.29,3.26,3.26,0,0,0-1.15.8,3.53,3.53,0,0,0-.73,1.21,4.46,4.46,0,0,0,0,3,3.53,3.53,0,0,0,.73,1.21,3.39,3.39,0,0,0,1.15.8,3.71,3.71,0,0,0,1.52.29,2.74,2.74,0,0,0,.68-.08,2.82,2.82,0,0,0,.69-.24,3.21,3.21,0,0,0,.64-.42,2.62,2.62,0,0,0,.54-.6Z"/><path class="cls-2" d="M112.73,555.67c0-.11,0-.24,0-.39s0-.3,0-.45,0-.3,0-.44,0-.23,0-.31h.74c0,.21,0,.42,0,.61s0,.32,0,.38a2.6,2.6,0,0,1,.72-.82,1.81,1.81,0,0,1,1.08-.31h.21l.21,0-.08.72a.72.72,0,0,0-.28-.05,2.12,2.12,0,0,0-.83.15,1.51,1.51,0,0,0-.57.42,1.73,1.73,0,0,0-.33.63,2.43,2.43,0,0,0-.11.77v3.07h-.74Z"/><path class="cls-2" d="M122.47,558.65a2.54,2.54,0,0,1-1.06.93,3.31,3.31,0,0,1-1.38.28,2.94,2.94,0,0,1-1.17-.22A2.7,2.7,0,0,1,118,559a2.91,2.91,0,0,1-.58-.94,3.51,3.51,0,0,1-.2-1.2,3.13,3.13,0,0,1,.21-1.17,2.77,2.77,0,0,1,.59-.94,2.69,2.69,0,0,1,.89-.62,2.78,2.78,0,0,1,1.13-.22,2.73,2.73,0,0,1,1.14.22,2.43,2.43,0,0,1,.83.6,2.71,2.71,0,0,1,.51.85,2.85,2.85,0,0,1,.17,1v.51h-4.73a2.49,2.49,0,0,0,.09.59,2,2,0,0,0,.33.7,2.06,2.06,0,0,0,.65.59,2.11,2.11,0,0,0,1.06.24,2.33,2.33,0,0,0,1.08-.27,1.92,1.92,0,0,0,.81-.73Zm-.57-2.23a1.63,1.63,0,0,0-.15-.7,1.85,1.85,0,0,0-.41-.58,2,2,0,0,0-1.39-.55,1.89,1.89,0,0,0-1,.25,2.3,2.3,0,0,0-.63.56,2.5,2.5,0,0,0-.33.62,1.65,1.65,0,0,0-.09.4Z"/><path class="cls-2" d="M129.56,557.35c0,.28,0,.52,0,.74s0,.43,0,.61,0,.36,0,.53l.06.48H129a5.05,5.05,0,0,1-.08-.91h0a2.06,2.06,0,0,1-.79.81,2.47,2.47,0,0,1-1.19.25,3,3,0,0,1-.72-.09,2,2,0,0,1-.63-.29,1.48,1.48,0,0,1-.63-1.29,1.49,1.49,0,0,1,.33-1,2,2,0,0,1,.81-.57,3.46,3.46,0,0,1,1-.24,8.8,8.8,0,0,1,1-.06h.85V556a1.19,1.19,0,0,0-.45-1.05,1.93,1.93,0,0,0-1.13-.32,2.58,2.58,0,0,0-1.72.64l-.43-.5a2.56,2.56,0,0,1,1-.59,3.44,3.44,0,0,1,1.15-.2,2.57,2.57,0,0,1,1.63.48,1.85,1.85,0,0,1,.61,1.55Zm-1.46-.46a6.58,6.58,0,0,0-.9.06,3.42,3.42,0,0,0-.78.2,1.35,1.35,0,0,0-.55.4.88.88,0,0,0-.21.6,1,1,0,0,0,.41.79,1.42,1.42,0,0,0,.41.2,1.76,1.76,0,0,0,.46.06,2.23,2.23,0,0,0,1-.17,1.65,1.65,0,0,0,.61-.44,1.58,1.58,0,0,0,.31-.62,3.43,3.43,0,0,0,.08-.71v-.37Z"/><path class="cls-2" d="M135.18,554.74h-1.61v3.67a.71.71,0,0,0,.78.79,1.51,1.51,0,0,0,.42-.05l.41-.14.06.66-.47.13a2.24,2.24,0,0,1-.48.06,1.92,1.92,0,0,1-.67-.11,1.08,1.08,0,0,1-.45-.32,1.24,1.24,0,0,1-.25-.45,2.12,2.12,0,0,1-.08-.57v-3.67h-1.22v-.66h1.22v-1.62h.73v1.62h1.61Z"/><path class="cls-2" d="M142.37,558.65a2.46,2.46,0,0,1-1.05.93,3.31,3.31,0,0,1-1.38.28,3,3,0,0,1-1.18-.22,2.66,2.66,0,0,1-.9-.61,2.91,2.91,0,0,1-.58-.94,3.51,3.51,0,0,1-.2-1.2,3.13,3.13,0,0,1,.21-1.17,2.69,2.69,0,0,1,1.47-1.56,2.83,2.83,0,0,1,1.14-.22,2.73,2.73,0,0,1,1.14.22,2.45,2.45,0,0,1,1.33,1.45,2.63,2.63,0,0,1,.17,1v.51h-4.73a2.13,2.13,0,0,0,.1.59,2,2,0,0,0,.33.7,1.93,1.93,0,0,0,1.71.83,2.33,2.33,0,0,0,1.08-.27,1.92,1.92,0,0,0,.81-.73Zm-.56-2.23a1.63,1.63,0,0,0-.15-.7,1.85,1.85,0,0,0-.41-.58,2.05,2.05,0,0,0-.63-.4,1.94,1.94,0,0,0-.76-.15,1.86,1.86,0,0,0-1,.25,2,2,0,0,0-.63.56,2.5,2.5,0,0,0-.33.62,1.84,1.84,0,0,0-.1.4Z"/><path class="cls-2" d="M148.26,551.08h.83l2.15,7.65h0l2.18-7.65h1l2.18,7.65h0l2.15-7.65h.83l-2.51,8.63h-1L154,552h0l-2.18,7.68h-1Z"/><path class="cls-2" d="M161.6,550.5h.73v4.57h0a1.94,1.94,0,0,1,.74-.8,2.15,2.15,0,0,1,1.19-.33,2.35,2.35,0,0,1,1.07.2,1.71,1.71,0,0,1,.66.55,2.33,2.33,0,0,1,.33.77,4.43,4.43,0,0,1,.09.9v3.35h-.73V556.4a4.91,4.91,0,0,0-.06-.67,2.25,2.25,0,0,0-.22-.58,1.11,1.11,0,0,0-.43-.4,1.36,1.36,0,0,0-.71-.16,2.14,2.14,0,0,0-.76.14,1.69,1.69,0,0,0-.62.43,2,2,0,0,0-.42.72,3.13,3.13,0,0,0-.15,1v2.81h-.73Z"/><path class="cls-2" d="M173.67,557.35c0,.28,0,.52,0,.74s0,.43,0,.61,0,.36,0,.53,0,.32.06.48h-.68a5.05,5.05,0,0,1-.08-.91h0a2.12,2.12,0,0,1-.79.81,2.47,2.47,0,0,1-1.19.25,3,3,0,0,1-.72-.09,2,2,0,0,1-.63-.29,1.64,1.64,0,0,1-.46-.52,1.8,1.8,0,0,1,.15-1.79,2.06,2.06,0,0,1,.82-.57,3.46,3.46,0,0,1,1-.24,8.8,8.8,0,0,1,1-.06H173V556a1.19,1.19,0,0,0-.45-1.05,1.93,1.93,0,0,0-1.13-.32,2.56,2.56,0,0,0-1.72.64l-.43-.5a2.56,2.56,0,0,1,1-.59,3.44,3.44,0,0,1,1.15-.2,2.57,2.57,0,0,1,1.63.48,1.85,1.85,0,0,1,.61,1.55Zm-1.46-.46a6.58,6.58,0,0,0-.9.06,3.42,3.42,0,0,0-.78.2,1.46,1.46,0,0,0-.56.4.92.92,0,0,0-.2.6,1,1,0,0,0,.11.46,1,1,0,0,0,.3.33,1.42,1.42,0,0,0,.41.2,1.76,1.76,0,0,0,.46.06,2.23,2.23,0,0,0,1-.17,1.62,1.62,0,0,0,.6-.44,1.45,1.45,0,0,0,.31-.62,2.88,2.88,0,0,0,.09-.71v-.37Z"/><path class="cls-2" d="M179.29,554.74h-1.61v3.67a.8.8,0,0,0,.21.59.77.77,0,0,0,.57.2,1.51,1.51,0,0,0,.42-.05l.41-.14.06.66-.48.13a2.09,2.09,0,0,1-.47.06,1.88,1.88,0,0,1-.67-.11,1.08,1.08,0,0,1-.45-.32A1.11,1.11,0,0,1,177,559a1.79,1.79,0,0,1-.08-.57v-3.67h-1.22v-.66H177v-1.62h.73v1.62h1.61Z"/><path class="cls-2" d="M192.91,558.36a3.71,3.71,0,0,1-1.44,1.21,4.38,4.38,0,0,1-1.77.36,4.82,4.82,0,0,1-1.81-.33,4.06,4.06,0,0,1-1.41-.94,4.26,4.26,0,0,1-.91-1.44,5.18,5.18,0,0,1,0-3.64,4.32,4.32,0,0,1,.91-1.43,4.22,4.22,0,0,1,1.41-.95,4.82,4.82,0,0,1,1.81-.34,4.43,4.43,0,0,1,1.64.31,3.24,3.24,0,0,1,1.33,1.05l-.65.55a2.37,2.37,0,0,0-1-.89,3.09,3.09,0,0,0-1.29-.28,3.71,3.71,0,0,0-1.52.29,3.35,3.35,0,0,0-1.15.8,3.53,3.53,0,0,0-.73,1.21,4.46,4.46,0,0,0,0,3,3.53,3.53,0,0,0,.73,1.21,3.49,3.49,0,0,0,1.15.8,3.71,3.71,0,0,0,1.52.29,2.68,2.68,0,0,0,.68-.08,2.82,2.82,0,0,0,.69-.24,3.21,3.21,0,0,0,.64-.42,2.62,2.62,0,0,0,.54-.6Z"/><path class="cls-2" d="M195.09,555.67c0-.11,0-.24,0-.39s0-.3,0-.45,0-.3,0-.44,0-.23,0-.31h.73c0,.21,0,.42,0,.61a1.46,1.46,0,0,0,0,.38,2.38,2.38,0,0,1,.72-.82,1.78,1.78,0,0,1,1.07-.31h.21l.22,0-.09.72a.72.72,0,0,0-.28-.05,2,2,0,0,0-.82.15,1.51,1.51,0,0,0-.57.42,1.61,1.61,0,0,0-.34.63,2.76,2.76,0,0,0-.11.77v3.07h-.73Z"/><path class="cls-2" d="M204.82,558.65a2.54,2.54,0,0,1-1.06.93,3.31,3.31,0,0,1-1.38.28,2.94,2.94,0,0,1-1.17-.22,2.56,2.56,0,0,1-.9-.61,2.61,2.61,0,0,1-.58-.94,3.29,3.29,0,0,1-.2-1.2,3.13,3.13,0,0,1,.2-1.17,2.94,2.94,0,0,1,.59-.94,2.71,2.71,0,0,1,2-.84,2.73,2.73,0,0,1,1.14.22,2.43,2.43,0,0,1,.83.6,2.71,2.71,0,0,1,.51.85,2.85,2.85,0,0,1,.17,1v.51h-4.73a2.49,2.49,0,0,0,.09.59,2,2,0,0,0,.33.7,2.1,2.1,0,0,0,.66.59,2,2,0,0,0,1,.24,2.37,2.37,0,0,0,1.09-.27,2,2,0,0,0,.8-.73Zm-.56-2.23a1.63,1.63,0,0,0-.16-.7,1.85,1.85,0,0,0-.41-.58,2,2,0,0,0-1.39-.55,1.91,1.91,0,0,0-1,.25,2.3,2.3,0,0,0-.63.56,2.5,2.5,0,0,0-.33.62,1.65,1.65,0,0,0-.09.4Z"/><path class="cls-2" d="M211.91,557.35c0,.28,0,.52,0,.74s0,.43,0,.61a4.45,4.45,0,0,0,0,.53c0,.16,0,.32.05.48h-.68a5.1,5.1,0,0,1-.07-.91h0a2.06,2.06,0,0,1-.79.81,2.43,2.43,0,0,1-1.18.25,2.84,2.84,0,0,1-.72-.09,2,2,0,0,1-.64-.29,1.61,1.61,0,0,1-.45-.52,1.54,1.54,0,0,1-.18-.77,1.49,1.49,0,0,1,.33-1,2,2,0,0,1,.81-.57,3.46,3.46,0,0,1,1-.24,9,9,0,0,1,1-.06h.85V556a1.19,1.19,0,0,0-.45-1.05,1.93,1.93,0,0,0-1.13-.32,2.6,2.6,0,0,0-1.72.64l-.43-.5a2.56,2.56,0,0,1,1-.59,3.44,3.44,0,0,1,1.15-.2,2.55,2.55,0,0,1,1.63.48,1.85,1.85,0,0,1,.61,1.55Zm-1.46-.46a6.58,6.58,0,0,0-.9.06,3.42,3.42,0,0,0-.78.2,1.43,1.43,0,0,0-.55.4.88.88,0,0,0-.21.6,1,1,0,0,0,.41.79,1.56,1.56,0,0,0,.41.2,1.82,1.82,0,0,0,.46.06,2.23,2.23,0,0,0,1-.17,1.51,1.51,0,0,0,.92-1.06,2.87,2.87,0,0,0,.08-.71v-.37Z"/><path class="cls-2" d="M217.53,554.74h-1.61v3.67a.71.71,0,0,0,.78.79,1.51,1.51,0,0,0,.42-.05,3.93,3.93,0,0,0,.41-.14l.06.66-.47.13a2.24,2.24,0,0,1-.48.06,1.92,1.92,0,0,1-.67-.11,1.15,1.15,0,0,1-.45-.32,1.24,1.24,0,0,1-.25-.45,2.12,2.12,0,0,1-.08-.57v-3.67H214v-.66h1.22v-1.62h.73v1.62h1.61Z"/><path class="cls-2" d="M224.73,558.65a2.54,2.54,0,0,1-1.06.93,3.31,3.31,0,0,1-1.38.28,2.94,2.94,0,0,1-1.17-.22,2.7,2.7,0,0,1-.91-.61,2.73,2.73,0,0,1-.57-.94,3.29,3.29,0,0,1-.21-1.2,3.13,3.13,0,0,1,.21-1.17,2.77,2.77,0,0,1,.59-.94,2.69,2.69,0,0,1,.89-.62,2.78,2.78,0,0,1,1.13-.22,2.73,2.73,0,0,1,1.14.22,2.43,2.43,0,0,1,.83.6,2.71,2.71,0,0,1,.51.85,2.85,2.85,0,0,1,.17,1v.51h-4.73a2.49,2.49,0,0,0,.09.59,2,2,0,0,0,.33.7,2.18,2.18,0,0,0,.65.59,2.11,2.11,0,0,0,1.06.24,2.33,2.33,0,0,0,1.08-.27,1.92,1.92,0,0,0,.81-.73Zm-.57-2.23a1.63,1.63,0,0,0-.15-.7,1.85,1.85,0,0,0-.41-.58,2,2,0,0,0-1.39-.55,1.89,1.89,0,0,0-1,.25,2.3,2.3,0,0,0-.63.56,2.5,2.5,0,0,0-.33.62,1.65,1.65,0,0,0-.09.4Z"/><path class="cls-2" d="M227.46,558.28a1.56,1.56,0,0,0,.68.69,2.11,2.11,0,0,0,1,.23,1.47,1.47,0,0,0,.46-.07,1.38,1.38,0,0,0,.42-.21,1.14,1.14,0,0,0,.3-.32.89.89,0,0,0,.11-.43.7.7,0,0,0-.25-.59,1.74,1.74,0,0,0-.61-.3,6,6,0,0,0-.81-.19,3.26,3.26,0,0,1-.8-.25,1.77,1.77,0,0,1-.62-.45,1.25,1.25,0,0,1-.25-.83,1.47,1.47,0,0,1,.17-.72,1.69,1.69,0,0,1,.45-.51,2.17,2.17,0,0,1,.61-.3,2.74,2.74,0,0,1,.7-.09,2.65,2.65,0,0,1,1.2.25,1.71,1.71,0,0,1,.78.81l-.65.39a1.51,1.51,0,0,0-.52-.59,1.43,1.43,0,0,0-.81-.21,1.53,1.53,0,0,0-.41.07,1.19,1.19,0,0,0-.38.17.86.86,0,0,0-.29.28.65.65,0,0,0-.12.39.68.68,0,0,0,.25.56,1.86,1.86,0,0,0,.62.28,7.35,7.35,0,0,0,.8.18,3.33,3.33,0,0,1,.81.24,1.67,1.67,0,0,1,.61.47,1.39,1.39,0,0,1,.25.89,1.67,1.67,0,0,1-.16.76,1.48,1.48,0,0,1-.45.54,1.9,1.9,0,0,1-.65.33,2.81,2.81,0,0,1-.77.11,3.09,3.09,0,0,1-1.34-.28,2,2,0,0,1-.93-.87Z"/><path class="cls-2" d="M239.76,551.82h-2.95v-.74h6.7v.74h-2.95v7.89h-.8Z"/><path class="cls-2" d="M243.88,556.9a3.07,3.07,0,0,1,.22-1.19,2.82,2.82,0,0,1,.61-.94,2.64,2.64,0,0,1,.94-.61,3.33,3.33,0,0,1,2.38,0,2.69,2.69,0,0,1,1.55,1.55,3.33,3.33,0,0,1,0,2.38,2.69,2.69,0,0,1-1.55,1.55,3.33,3.33,0,0,1-2.38,0,2.64,2.64,0,0,1-.94-.61,2.82,2.82,0,0,1-.61-.94A3.07,3.07,0,0,1,243.88,556.9Zm.73,0a2.6,2.6,0,0,0,.15.89,2,2,0,0,0,.45.74,2.2,2.2,0,0,0,.7.49,2.49,2.49,0,0,0,1.86,0,2.2,2.2,0,0,0,.7-.49,2,2,0,0,0,.45-.74,2.6,2.6,0,0,0,.15-.89,2.66,2.66,0,0,0-.15-.9,2,2,0,0,0-.45-.73,2.06,2.06,0,0,0-.7-.49,2.37,2.37,0,0,0-1.86,0,2.06,2.06,0,0,0-.7.49,2,2,0,0,0-.45.73A2.66,2.66,0,0,0,244.61,556.9Z"/><path class="cls-2" d="M256.64,551.08h.81V559h4v.73h-4.83Z"/><path class="cls-2" d="M267.82,557.35c0,.28,0,.52,0,.74s0,.43,0,.61,0,.36,0,.53,0,.32.05.48h-.68a5.1,5.1,0,0,1-.07-.91h0a2.06,2.06,0,0,1-.79.81,2.43,2.43,0,0,1-1.18.25,2.84,2.84,0,0,1-.72-.09,2,2,0,0,1-.64-.29,1.61,1.61,0,0,1-.45-.52,1.54,1.54,0,0,1-.18-.77,1.49,1.49,0,0,1,.33-1,2,2,0,0,1,.81-.57,3.46,3.46,0,0,1,1-.24,9,9,0,0,1,1-.06h.85V556a1.19,1.19,0,0,0-.45-1.05,1.93,1.93,0,0,0-1.13-.32,2.6,2.6,0,0,0-1.72.64l-.43-.5a2.63,2.63,0,0,1,1-.59,3.44,3.44,0,0,1,1.15-.2,2.55,2.55,0,0,1,1.63.48,1.85,1.85,0,0,1,.61,1.55Zm-1.46-.46a6.58,6.58,0,0,0-.9.06,3.42,3.42,0,0,0-.78.2,1.43,1.43,0,0,0-.55.4.88.88,0,0,0-.21.6.85.85,0,0,0,.12.46.8.8,0,0,0,.3.33,1.36,1.36,0,0,0,.4.2,1.82,1.82,0,0,0,.46.06,2.23,2.23,0,0,0,1-.17,1.51,1.51,0,0,0,.92-1.06,2.87,2.87,0,0,0,.08-.71v-.37Z"/><path class="cls-2" d="M270.7,558.28a1.56,1.56,0,0,0,.68.69,2.11,2.11,0,0,0,.95.23,1.53,1.53,0,0,0,.47-.07,1.44,1.44,0,0,0,.41-.21,1.14,1.14,0,0,0,.3-.32.79.79,0,0,0,.11-.43.72.72,0,0,0-.24-.59,1.88,1.88,0,0,0-.62-.3,5.37,5.37,0,0,0-.81-.19,3.26,3.26,0,0,1-.8-.25,1.87,1.87,0,0,1-.62-.45,1.3,1.3,0,0,1-.25-.83,1.37,1.37,0,0,1,.18-.72,1.66,1.66,0,0,1,.44-.51,2.1,2.1,0,0,1,.62-.3,2.88,2.88,0,0,1,1.89.16,1.77,1.77,0,0,1,.79.81l-.66.39a1.51,1.51,0,0,0-.52-.59,1.43,1.43,0,0,0-.81-.21,1.53,1.53,0,0,0-.41.07,1.19,1.19,0,0,0-.38.17.86.86,0,0,0-.29.28.64.64,0,0,0-.11.39.65.65,0,0,0,.25.56,1.72,1.72,0,0,0,.61.28,7.55,7.55,0,0,0,.81.18,3.25,3.25,0,0,1,.8.24,1.79,1.79,0,0,1,.62.47,1.45,1.45,0,0,1,.25.89,1.67,1.67,0,0,1-.17.76,1.48,1.48,0,0,1-.45.54,1.9,1.9,0,0,1-.65.33,2.81,2.81,0,0,1-.77.11,3.12,3.12,0,0,1-1.34-.28,2,2,0,0,1-.93-.87Z"/><path class="cls-2" d="M279.55,554.74h-1.61v3.67a.71.71,0,0,0,.78.79,1.51,1.51,0,0,0,.42-.05l.41-.14.06.66-.48.13a2.09,2.09,0,0,1-.47.06,1.92,1.92,0,0,1-.67-.11,1.08,1.08,0,0,1-.45-.32,1.11,1.11,0,0,1-.25-.45,2.12,2.12,0,0,1-.08-.57v-3.67H276v-.66h1.22v-1.62h.73v1.62h1.61Z"/></svg>