<svg id="Layer_1" data-name="Layer 1" xmlns="http://www.w3.org/2000/svg" viewBox="0 0 300 45.04"><defs><style>.cls-1{fill:#fff;}</style></defs><path class="cls-1" d="M0,.56H13.24V2.43H2.06V10.3h10.4v1.88H2.06V22.67H0Z"/><path class="cls-1" d="M17.36.56H30.88V2.43H19.42V10.3H30.17v1.88H19.42V20.8h12v1.87h-14Z"/><path class="cls-1" d="M35.88.56H49.4V2.43H37.94V10.3H48.68v1.88H37.94V20.8h12v1.87h-14Z"/><path class="cls-1" d="M54.4.56h2.06V20.8h10.3v1.87H54.4Z"/><path class="cls-1" d="M70,.56h2.06V22.67H70Z"/><path class="cls-1" d="M78.13.56h2.65L94.24,19.92h.07V.56h2.06V22.67H93.71L80.25,3.31h-.06V22.67H78.13Z"/><path class="cls-1" d="M120.66,21.23a14.29,14.29,0,0,1-4,1.55,19.92,19.92,0,0,1-4.23.45,12.25,12.25,0,0,1-4.64-.86,10.47,10.47,0,0,1-3.61-2.4,11.13,11.13,0,0,1-2.34-3.69,12.63,12.63,0,0,1-.84-4.67A12.57,12.57,0,0,1,101.83,7a11.24,11.24,0,0,1,2.34-3.67A10.81,10.81,0,0,1,107.78.87,12.06,12.06,0,0,1,112.42,0a10.7,10.7,0,0,1,8,3.06l-1.5,1.56a6.7,6.7,0,0,0-1.23-1.11,8.7,8.7,0,0,0-1.59-.87,10.15,10.15,0,0,0-1.8-.56,8.38,8.38,0,0,0-1.84-.21,9.71,9.71,0,0,0-3.89.75,8.66,8.66,0,0,0-3,2.06,9.14,9.14,0,0,0-1.87,3.09,11,11,0,0,0-.66,3.84,11,11,0,0,0,.66,3.85,9.14,9.14,0,0,0,1.87,3.09,8.66,8.66,0,0,0,3,2.06,9.71,9.71,0,0,0,3.89.75,19.62,19.62,0,0,0,3.34-.28,8.83,8.83,0,0,0,2.84-1V12.62h-5.31V10.74h7.37Z"/><path class="cls-1" d="M133.4,11.61A12.37,12.37,0,0,1,134.25,7a11.08,11.08,0,0,1,2.34-3.67,10.77,10.77,0,0,1,3.6-2.42,12.81,12.81,0,0,1,9.28,0,10.81,10.81,0,0,1,3.61,2.42A11.24,11.24,0,0,1,155.42,7a12.57,12.57,0,0,1,.84,4.65,12.63,12.63,0,0,1-.84,4.67A11.13,11.13,0,0,1,153.08,20a10.47,10.47,0,0,1-3.61,2.4,12.95,12.95,0,0,1-9.28,0,10.43,10.43,0,0,1-3.6-2.4,11,11,0,0,1-2.34-3.69A12.44,12.44,0,0,1,133.4,11.61Zm2.06,0a11,11,0,0,0,.66,3.85A9.3,9.3,0,0,0,138,18.55a8.76,8.76,0,0,0,2.95,2.06,10.46,10.46,0,0,0,7.78,0,8.76,8.76,0,0,0,2.95-2.06,9.14,9.14,0,0,0,1.87-3.09,11,11,0,0,0,.66-3.85,11,11,0,0,0-.66-3.84,9.14,9.14,0,0,0-1.87-3.09,8.76,8.76,0,0,0-2.95-2.06,10.46,10.46,0,0,0-7.78,0A8.76,8.76,0,0,0,138,4.68a9.3,9.3,0,0,0-1.87,3.09A11,11,0,0,0,135.46,11.61Z"/><path class="cls-1" d="M160.88.56h13.24V2.43H162.94V10.3h10.4v1.88h-10.4V22.67h-2.06Z"/><path class="cls-1" d="M193.14.56h2.12l9.31,22.11h-2.31l-2.41-5.87H188.14l-2.5,5.87h-2.15Zm1,2.25L189,14.93H199.1Z"/><path class="cls-1" d="M215.87.56h2.06V20.8h10.31v1.87H215.87Z"/><path class="cls-1" d="M230.05,11.61A12.57,12.57,0,0,1,230.89,7a11.27,11.27,0,0,1,2.35-3.67,10.77,10.77,0,0,1,3.6-2.42,12.81,12.81,0,0,1,9.28,0,10.77,10.77,0,0,1,3.6,2.42A11.27,11.27,0,0,1,252.07,7a12.57,12.57,0,0,1,.84,4.65,12.63,12.63,0,0,1-.84,4.67A11.15,11.15,0,0,1,249.72,20a10.43,10.43,0,0,1-3.6,2.4,12.95,12.95,0,0,1-9.28,0,10.43,10.43,0,0,1-3.6-2.4,11.15,11.15,0,0,1-2.35-3.69A12.63,12.63,0,0,1,230.05,11.61Zm2.06,0a11,11,0,0,0,.66,3.85,9.14,9.14,0,0,0,1.87,3.09,8.76,8.76,0,0,0,3,2.06,10.46,10.46,0,0,0,7.78,0,8.76,8.76,0,0,0,2.95-2.06,9.14,9.14,0,0,0,1.87-3.09,11,11,0,0,0,.66-3.85,11,11,0,0,0-.66-3.84,9.14,9.14,0,0,0-1.87-3.09,8.76,8.76,0,0,0-2.95-2.06,10.46,10.46,0,0,0-7.78,0,8.76,8.76,0,0,0-3,2.06,9.14,9.14,0,0,0-1.87,3.09A11,11,0,0,0,232.11,11.61Z"/><path class="cls-1" d="M256.09,11.61A12.37,12.37,0,0,1,256.94,7a11.08,11.08,0,0,1,2.34-3.67A10.71,10.71,0,0,1,262.89.87a12.78,12.78,0,0,1,9.27,0,10.71,10.71,0,0,1,3.61,2.42A11.08,11.08,0,0,1,278.11,7a12.57,12.57,0,0,1,.84,4.65,12.63,12.63,0,0,1-.84,4.67A11,11,0,0,1,275.77,20a10.38,10.38,0,0,1-3.61,2.4,12.92,12.92,0,0,1-9.27,0,10.38,10.38,0,0,1-3.61-2.4,11,11,0,0,1-2.34-3.69A12.44,12.44,0,0,1,256.09,11.61Zm2.06,0a11,11,0,0,0,.66,3.85,9.16,9.16,0,0,0,1.88,3.09,8.66,8.66,0,0,0,2.95,2.06,10.44,10.44,0,0,0,7.77,0,8.66,8.66,0,0,0,2.95-2.06,9.33,9.33,0,0,0,1.88-3.09,11.23,11.23,0,0,0,.65-3.85,11.22,11.22,0,0,0-.65-3.84,9.33,9.33,0,0,0-1.88-3.09,8.66,8.66,0,0,0-2.95-2.06,10.44,10.44,0,0,0-7.77,0,8.66,8.66,0,0,0-2.95,2.06,9.16,9.16,0,0,0-1.88,3.09A11,11,0,0,0,258.15,11.61Z"/><path class="cls-1" d="M283.58.56h2.06V10.3h.18L296.53.56h2.85L288.2,10.68l11.8,12h-3L285.82,11.24h-.18V22.67h-2.06Z"/><path class="cls-1" d="M5.69,36.85H3.12v5.87a1.26,1.26,0,0,0,.33.93,1.21,1.21,0,0,0,.92.33A2.61,2.61,0,0,0,5,43.9a5.5,5.5,0,0,0,.65-.22l.1,1a7.3,7.3,0,0,1-.76.21,3.24,3.24,0,0,1-.76.1,2.66,2.66,0,0,1-1.07-.19,1.91,1.91,0,0,1-.72-.49,1.87,1.87,0,0,1-.4-.73A3,3,0,0,1,2,42.72V36.85H0V35.8H2V33.21H3.12V35.8H5.69Z"/><path class="cls-1" d="M9.08,40.3a4.91,4.91,0,0,1,.36-1.9,4.31,4.31,0,0,1,2.47-2.48,5,5,0,0,1,1.91-.35,4.91,4.91,0,0,1,1.9.35,4.42,4.42,0,0,1,2.49,2.48,5.33,5.33,0,0,1,0,3.8,4.48,4.48,0,0,1-2.49,2.49,5.1,5.1,0,0,1-1.9.35,5.19,5.19,0,0,1-1.91-.35,4.41,4.41,0,0,1-1.5-1,4.36,4.36,0,0,1-1-1.5A4.91,4.91,0,0,1,9.08,40.3Zm1.17,0a4,4,0,0,0,.25,1.44,3.36,3.36,0,0,0,.71,1.16,3.25,3.25,0,0,0,1.13.79,3.56,3.56,0,0,0,1.48.29,3.52,3.52,0,0,0,1.48-.29,3.16,3.16,0,0,0,1.13-.79,3.22,3.22,0,0,0,.71-1.16,4.24,4.24,0,0,0,0-2.87,3.17,3.17,0,0,0-.71-1.17,3.43,3.43,0,0,0-1.13-.79,3.92,3.92,0,0,0-3,0,3.53,3.53,0,0,0-1.13.79,3.31,3.31,0,0,0-.71,1.17A4,4,0,0,0,10.25,40.3Z"/><path class="cls-1" d="M37.4,43.48a4.18,4.18,0,0,1-1.5,1.18,4.38,4.38,0,0,1-1.81.38,5.19,5.19,0,0,1-1.91-.35,4.41,4.41,0,0,1-1.5-1,4.36,4.36,0,0,1-1-1.5,5.19,5.19,0,0,1,0-3.8,4.31,4.31,0,0,1,2.47-2.48,5,5,0,0,1,1.91-.35,4.2,4.2,0,0,1,1.84.4,4.93,4.93,0,0,1,1.51,1.15l-.93.71a4,4,0,0,0-1.11-.89,2.82,2.82,0,0,0-1.31-.32,3.72,3.72,0,0,0-1.48.29,3.53,3.53,0,0,0-1.13.79,3.31,3.31,0,0,0-.71,1.17,4.24,4.24,0,0,0,0,2.87,3.36,3.36,0,0,0,.71,1.16,3.25,3.25,0,0,0,1.13.79,3.56,3.56,0,0,0,1.48.29,2.72,2.72,0,0,0,1.36-.34,3.49,3.49,0,0,0,1.06-.9Z"/><path class="cls-1" d="M41.05,38.33c0-.17,0-.37,0-.61L41,37q0-.37,0-.69c0-.22,0-.38,0-.5h1.17c0,.34,0,.66,0,1a3.07,3.07,0,0,0,.05.61,4,4,0,0,1,1.15-1.31,2.91,2.91,0,0,1,1.72-.5,2,2,0,0,1,.34,0l.34.07-.14,1.15a1.45,1.45,0,0,0-.45-.07,3.26,3.26,0,0,0-1.31.24,2.52,2.52,0,0,0-.92.67,2.75,2.75,0,0,0-.53,1,4.18,4.18,0,0,0-.18,1.24V44.8H41.05Z"/><path class="cls-1" d="M57,43.11a4,4,0,0,1-1.69,1.48,5.32,5.32,0,0,1-2.21.45,4.87,4.87,0,0,1-1.87-.35,4.3,4.3,0,0,1-1.45-1,4.25,4.25,0,0,1-.92-1.5,5.6,5.6,0,0,1-.32-1.92,5.18,5.18,0,0,1,.33-1.87,4.34,4.34,0,0,1,.94-1.49,4.5,4.5,0,0,1,1.42-1A4.6,4.6,0,0,1,53,35.57a4.48,4.48,0,0,1,1.82.35,4.1,4.1,0,0,1,1.33,1A4.35,4.35,0,0,1,57,38.24a4.54,4.54,0,0,1,.27,1.54v.81H49.67a4.35,4.35,0,0,0,.14.95,3.4,3.4,0,0,0,.54,1.12,3.36,3.36,0,0,0,1,.93,3.28,3.28,0,0,0,1.69.39,3.8,3.8,0,0,0,1.73-.42,3.19,3.19,0,0,0,1.29-1.17Zm-.9-3.57a2.7,2.7,0,0,0-.24-1.13,3.41,3.41,0,0,0-.66-.93,3.54,3.54,0,0,0-1-.63,3.12,3.12,0,0,0-1.22-.23,3,3,0,0,0-1.59.39,3.5,3.5,0,0,0-1,.89,3.7,3.7,0,0,0-.53,1,2.67,2.67,0,0,0-.15.65Z"/><path class="cls-1" d="M68.65,41c0,.45,0,.84,0,1.19s0,.68,0,1,0,.57,0,.83.05.52.08.78H67.74a8.13,8.13,0,0,1-.12-1.46h0a3.26,3.26,0,0,1-1.26,1.29,4,4,0,0,1-1.9.41,4.48,4.48,0,0,1-1.15-.15,2.76,2.76,0,0,1-1-.47,2.26,2.26,0,0,1-.73-.83,2.76,2.76,0,0,1,.24-2.86,3.36,3.36,0,0,1,1.3-.91,6.26,6.26,0,0,1,1.63-.39c.58,0,1.09-.08,1.53-.08H67.6V38.8a1.91,1.91,0,0,0-.72-1.68,3.15,3.15,0,0,0-1.82-.5,4.1,4.1,0,0,0-2.75,1l-.68-.8a4.17,4.17,0,0,1,1.6-.94,5.6,5.6,0,0,1,1.83-.32,4.09,4.09,0,0,1,2.62.77,3,3,0,0,1,1,2.48Zm-2.34-.74a9.54,9.54,0,0,0-1.43.1,5.08,5.08,0,0,0-1.25.33,2.27,2.27,0,0,0-.88.63,1.4,1.4,0,0,0-.34,1,1.47,1.47,0,0,0,.19.73,1.62,1.62,0,0,0,.48.53,2.3,2.3,0,0,0,.65.31,2.57,2.57,0,0,0,.73.1A3.8,3.8,0,0,0,66,43.71,2.75,2.75,0,0,0,67,43a2.56,2.56,0,0,0,.49-1,4.77,4.77,0,0,0,.14-1.12v-.61Z"/><path class="cls-1" d="M78,36.85H75.42v5.87a1.26,1.26,0,0,0,.33.93,1.19,1.19,0,0,0,.91.33,2.63,2.63,0,0,0,.68-.08c.22-.06.44-.14.65-.22l.1,1c-.22.07-.48.15-.76.21a3.24,3.24,0,0,1-.76.1,2.71,2.71,0,0,1-1.08-.19,2,2,0,0,1-.72-.49,2.16,2.16,0,0,1-.4-.73,3.34,3.34,0,0,1-.12-.91V36.85h-2V35.8h2V33.21h1.17V35.8H78Z"/><path class="cls-1" d="M89.84,43.11a4,4,0,0,1-1.69,1.48,5.32,5.32,0,0,1-2.21.45,4.87,4.87,0,0,1-1.87-.35,4.3,4.3,0,0,1-1.45-1,4.25,4.25,0,0,1-.92-1.5,5.6,5.6,0,0,1-.32-1.92,5.18,5.18,0,0,1,.33-1.87,4.34,4.34,0,0,1,.94-1.49,4.5,4.5,0,0,1,1.42-1,4.6,4.6,0,0,1,1.81-.35,4.48,4.48,0,0,1,1.82.35,4.1,4.1,0,0,1,1.33,1,4.17,4.17,0,0,1,.81,1.36,4.54,4.54,0,0,1,.27,1.54v.81H82.55a4.35,4.35,0,0,0,.14.95,3.4,3.4,0,0,0,.54,1.12,3.36,3.36,0,0,0,1,.93A3.28,3.28,0,0,0,86,44a3.77,3.77,0,0,0,1.73-.42A3.19,3.19,0,0,0,89,42.39Zm-.9-3.57a2.7,2.7,0,0,0-.24-1.13,3.41,3.41,0,0,0-.66-.93,3.54,3.54,0,0,0-1-.63,3.12,3.12,0,0,0-1.22-.23,3,3,0,0,0-1.59.39,3.64,3.64,0,0,0-1,.89,3.39,3.39,0,0,0-.52,1,2.39,2.39,0,0,0-.16.65Z"/><path class="cls-1" d="M100.15,35.8h1.29l2.18,7.54h0l2.51-7.54h1.11L110,43.34h0l2.13-7.54h1.17l-2.65,9h-1.21l-2.69-7.36h0l-2.51,7.36H103Z"/><path class="cls-1" d="M117,30.07h1.17v7.31h0a3.23,3.23,0,0,1,1.17-1.28,3.39,3.39,0,0,1,1.91-.53,3.91,3.91,0,0,1,1.72.33,2.78,2.78,0,0,1,1,.86,3.2,3.2,0,0,1,.52,1.24,6.93,6.93,0,0,1,.15,1.45V44.8H123.5V39.5a5.29,5.29,0,0,0-.1-1.06,2.66,2.66,0,0,0-.34-.93,1.77,1.77,0,0,0-.68-.65,2.35,2.35,0,0,0-1.14-.24,3.34,3.34,0,0,0-1.22.22,2.7,2.7,0,0,0-1,.68,3.26,3.26,0,0,0-.66,1.16,4.67,4.67,0,0,0-.25,1.62v4.5H117Z"/><path class="cls-1" d="M136.6,41c0,.45,0,.84,0,1.19s0,.68,0,1,0,.57.05.83.05.52.08.78h-1.08a7.31,7.31,0,0,1-.12-1.46h0a3.26,3.26,0,0,1-1.26,1.29,4,4,0,0,1-1.9.41,4.48,4.48,0,0,1-1.15-.15,2.76,2.76,0,0,1-1-.47,2.26,2.26,0,0,1-.73-.83,2.76,2.76,0,0,1,.24-2.86,3.36,3.36,0,0,1,1.3-.91,6.17,6.17,0,0,1,1.63-.39c.58,0,1.09-.08,1.53-.08h1.37V38.8a1.91,1.91,0,0,0-.72-1.68,3.15,3.15,0,0,0-1.82-.5,4.1,4.1,0,0,0-2.75,1l-.68-.8a4.17,4.17,0,0,1,1.6-.94,5.6,5.6,0,0,1,1.83-.32,4.09,4.09,0,0,1,2.62.77,3,3,0,0,1,1,2.48Zm-2.34-.74a9.54,9.54,0,0,0-1.43.1,5.08,5.08,0,0,0-1.25.33,2.38,2.38,0,0,0-.89.63,1.44,1.44,0,0,0-.33,1,1.47,1.47,0,0,0,.19.73,1.62,1.62,0,0,0,.48.53,2.3,2.3,0,0,0,.65.31,2.57,2.57,0,0,0,.73.1,3.8,3.8,0,0,0,1.54-.27,2.62,2.62,0,0,0,1-.71,2.44,2.44,0,0,0,.5-1,4.77,4.77,0,0,0,.14-1.12v-.61Z"/><path class="cls-1" d="M145.94,36.85h-2.58v5.87a1.26,1.26,0,0,0,.34.93,1.19,1.19,0,0,0,.91.33,2.68,2.68,0,0,0,.68-.08c.22-.06.44-.14.65-.22l.09,1a7.07,7.07,0,0,1-.75.21,3.24,3.24,0,0,1-.76.1,2.71,2.71,0,0,1-1.08-.19,2,2,0,0,1-.72-.49,2.16,2.16,0,0,1-.4-.73,3.34,3.34,0,0,1-.12-.91V36.85h-1.95V35.8h1.95V33.21h1.16V35.8h2.58Z"/><path class="cls-1" d="M164.26,43.48a4.18,4.18,0,0,1-1.5,1.18A4.38,4.38,0,0,1,161,45a5.15,5.15,0,0,1-1.91-.35,4.22,4.22,0,0,1-1.5-1,4.39,4.39,0,0,1-1-1.5,5.33,5.33,0,0,1,0-3.8,4.39,4.39,0,0,1,1-1.5,4.2,4.2,0,0,1,1.5-1,5,5,0,0,1,1.91-.35,4.23,4.23,0,0,1,1.84.4,5.05,5.05,0,0,1,1.51,1.15l-.94.71a4,4,0,0,0-1.11-.89,2.78,2.78,0,0,0-1.3-.32,3.77,3.77,0,0,0-1.49.29,3.65,3.65,0,0,0-1.13.79,3.31,3.31,0,0,0-.71,1.17,4.41,4.41,0,0,0,0,2.87,3.35,3.35,0,0,0,1.84,1.95A3.6,3.6,0,0,0,161,44a2.71,2.71,0,0,0,1.35-.34,3.37,3.37,0,0,0,1.06-.9Z"/><path class="cls-1" d="M167.9,38.33c0-.17,0-.37,0-.61s0-.48,0-.73,0-.48,0-.69,0-.38,0-.5H169c0,.34,0,.66,0,1a3.37,3.37,0,0,0,0,.61,4.17,4.17,0,0,1,1.15-1.31,2.91,2.91,0,0,1,1.72-.5,1.88,1.88,0,0,1,.34,0l.34.07-.14,1.15a1.39,1.39,0,0,0-.44-.07,3.31,3.31,0,0,0-1.32.24,2.48,2.48,0,0,0-.91.67,2.63,2.63,0,0,0-.54,1,4.18,4.18,0,0,0-.18,1.24V44.8H167.9Z"/><path class="cls-1" d="M183.81,43.11a3.86,3.86,0,0,1-1.69,1.48,5.29,5.29,0,0,1-2.21.45,4.9,4.9,0,0,1-1.87-.35,4.16,4.16,0,0,1-1.44-1,4.42,4.42,0,0,1-.93-1.5,5.6,5.6,0,0,1-.32-1.92,5.18,5.18,0,0,1,.33-1.87,4.5,4.5,0,0,1,.94-1.49,4.27,4.27,0,0,1,3.23-1.35,4.56,4.56,0,0,1,1.83.35,4.16,4.16,0,0,1,1.32,1,4,4,0,0,1,.81,1.36,4.55,4.55,0,0,1,.28,1.54v.81h-7.57a3.89,3.89,0,0,0,.15.95,3.37,3.37,0,0,0,.53,1.12,3.29,3.29,0,0,0,1.05.93,3.21,3.21,0,0,0,1.68.39,3.85,3.85,0,0,0,1.74-.42A3.16,3.16,0,0,0,183,42.39Zm-.89-3.57a2.7,2.7,0,0,0-.25-1.13,3,3,0,0,0-.66-.93,3.28,3.28,0,0,0-1-.63,3.1,3.1,0,0,0-1.21-.23,3,3,0,0,0-1.59.39,3.69,3.69,0,0,0-1,.89,3.65,3.65,0,0,0-.52,1,2.39,2.39,0,0,0-.16.65Z"/><path class="cls-1" d="M195.51,41c0,.45,0,.84,0,1.19s0,.68,0,1,0,.57.05.83,0,.52.09.78h-1.09a8.13,8.13,0,0,1-.12-1.46h0a3.24,3.24,0,0,1-1.25,1.29,4,4,0,0,1-1.9.41,4.43,4.43,0,0,1-1.15-.15,2.8,2.8,0,0,1-1-.47,2.36,2.36,0,0,1-.73-.83,2.42,2.42,0,0,1-.28-1.22,2.36,2.36,0,0,1,.53-1.64,3.33,3.33,0,0,1,1.29-.91,6.34,6.34,0,0,1,1.64-.39c.58,0,1.09-.08,1.53-.08h1.36V38.8a1.91,1.91,0,0,0-.72-1.68,3.12,3.12,0,0,0-1.81-.5,4.08,4.08,0,0,0-2.75,1l-.68-.8a4.17,4.17,0,0,1,1.6-.94,5.52,5.52,0,0,1,1.83-.32,4.06,4.06,0,0,1,2.61.77,3,3,0,0,1,1,2.48Zm-2.34-.74a9.67,9.67,0,0,0-1.44.1,5.2,5.2,0,0,0-1.25.33,2.43,2.43,0,0,0-.88.63,1.44,1.44,0,0,0-.33,1,1.46,1.46,0,0,0,.18.73,1.74,1.74,0,0,0,.48.53,2.44,2.44,0,0,0,.65.31,2.62,2.62,0,0,0,.73.1,3.76,3.76,0,0,0,1.54-.27,2.58,2.58,0,0,0,1-.71,2.44,2.44,0,0,0,.5-1,4.76,4.76,0,0,0,.13-1.12v-.61Z"/><path class="cls-1" d="M204.84,36.85h-2.57v5.87a1.26,1.26,0,0,0,.33.93,1.21,1.21,0,0,0,.92.33,2.61,2.61,0,0,0,.67-.08,5.5,5.5,0,0,0,.65-.22l.1,1a7.3,7.3,0,0,1-.76.21,3.24,3.24,0,0,1-.76.1,2.66,2.66,0,0,1-1.07-.19,1.91,1.91,0,0,1-.72-.49,1.87,1.87,0,0,1-.4-.73,3,3,0,0,1-.13-.91V36.85h-1.95V35.8h1.95V33.21h1.17V35.8h2.57Z"/><path class="cls-1" d="M216.69,43.11A3.89,3.89,0,0,1,215,44.59a5.37,5.37,0,0,1-2.22.45,4.9,4.9,0,0,1-1.87-.35,4.16,4.16,0,0,1-1.44-1,4.42,4.42,0,0,1-.93-1.5,5.6,5.6,0,0,1-.32-1.92,5.18,5.18,0,0,1,.33-1.87,4.33,4.33,0,0,1,4.17-2.84,4.56,4.56,0,0,1,1.83.35,4,4,0,0,1,1.32,1,4,4,0,0,1,.81,1.36,4.55,4.55,0,0,1,.28,1.54v.81H209.4a3.89,3.89,0,0,0,.15.95,3.4,3.4,0,0,0,.54,1.12,3.25,3.25,0,0,0,1,.93,3.21,3.21,0,0,0,1.68.39,3.85,3.85,0,0,0,1.74-.42,3.16,3.16,0,0,0,1.28-1.17Zm-.89-3.57a2.7,2.7,0,0,0-.25-1.13,3,3,0,0,0-.66-.93,3.28,3.28,0,0,0-1-.63,3.07,3.07,0,0,0-1.21-.23,3,3,0,0,0-1.59.39,3.5,3.5,0,0,0-1,.89,3.43,3.43,0,0,0-.53,1,2.39,2.39,0,0,0-.16.65Z"/><path class="cls-1" d="M221.41,42.51a2.57,2.57,0,0,0,1.09,1.1A3.25,3.25,0,0,0,224,44a2.33,2.33,0,0,0,.74-.11,2.46,2.46,0,0,0,.67-.33,1.93,1.93,0,0,0,.47-.52,1.23,1.23,0,0,0,.19-.69,1.11,1.11,0,0,0-.4-.94,2.81,2.81,0,0,0-1-.48,12.25,12.25,0,0,0-1.29-.31,5.11,5.11,0,0,1-1.29-.39,2.55,2.55,0,0,1-1-.73,2,2,0,0,1-.4-1.32A2.33,2.33,0,0,1,221,37a2.42,2.42,0,0,1,.71-.81,3.14,3.14,0,0,1,1-.48,4.13,4.13,0,0,1,1.11-.15,4.25,4.25,0,0,1,1.92.4A2.84,2.84,0,0,1,227,37.26l-1.05.63a2.44,2.44,0,0,0-.83-1,2.37,2.37,0,0,0-1.29-.32,2.25,2.25,0,0,0-.66.1,2.1,2.1,0,0,0-.61.27,1.64,1.64,0,0,0-.46.45,1.1,1.1,0,0,0-.18.62,1,1,0,0,0,.4.9,3.07,3.07,0,0,0,1,.45,10.3,10.3,0,0,0,1.29.29,5.15,5.15,0,0,1,1.28.38,2.63,2.63,0,0,1,1,.76,2.23,2.23,0,0,1,.4,1.41,2.61,2.61,0,0,1-.27,1.22,2.51,2.51,0,0,1-.72.87,3.08,3.08,0,0,1-1,.52A4.16,4.16,0,0,1,224,45a5,5,0,0,1-2.13-.45,3.19,3.19,0,0,1-1.49-1.39Z"/><path class="cls-1" d="M242.79,36.85h-2.57v5.87a1.26,1.26,0,0,0,.33.93,1.21,1.21,0,0,0,.92.33,2.61,2.61,0,0,0,.67-.08,5.5,5.5,0,0,0,.65-.22l.1,1a7.3,7.3,0,0,1-.76.21,3.24,3.24,0,0,1-.76.1,2.66,2.66,0,0,1-1.07-.19,1.91,1.91,0,0,1-.72-.49,1.87,1.87,0,0,1-.4-.73,3,3,0,0,1-.13-.91V36.85h-2V35.8h2V33.21h1.17V35.8h2.57Z"/><path class="cls-1" d="M246.18,40.3a4.91,4.91,0,0,1,.36-1.9A4.31,4.31,0,0,1,249,35.92a5,5,0,0,1,1.91-.35,4.91,4.91,0,0,1,1.9.35,4.42,4.42,0,0,1,2.49,2.48,5.33,5.33,0,0,1,0,3.8,4.48,4.48,0,0,1-2.49,2.49,5.1,5.1,0,0,1-1.9.35,5.19,5.19,0,0,1-1.91-.35,4.41,4.41,0,0,1-1.5-1,4.36,4.36,0,0,1-1-1.5A4.91,4.91,0,0,1,246.18,40.3Zm1.17,0a4,4,0,0,0,.25,1.44,3.36,3.36,0,0,0,.71,1.16,3.25,3.25,0,0,0,1.13.79,3.92,3.92,0,0,0,3,0,3.16,3.16,0,0,0,1.13-.79,3.22,3.22,0,0,0,.71-1.16,4.24,4.24,0,0,0,0-2.87,3.17,3.17,0,0,0-.71-1.17,3.43,3.43,0,0,0-1.13-.79,3.92,3.92,0,0,0-3,0,3.53,3.53,0,0,0-1.13.79,3.31,3.31,0,0,0-.71,1.17A4,4,0,0,0,247.35,40.3Z"/><path class="cls-1" d="M267.16,30.07h1.17V44.8h-1.17Z"/><path class="cls-1" d="M280.45,41c0,.45,0,.84,0,1.19s0,.68,0,1,0,.57.05.83,0,.52.08.78h-1.08a8.13,8.13,0,0,1-.12-1.46h0a3.26,3.26,0,0,1-1.26,1.29,4,4,0,0,1-1.9.41,4.48,4.48,0,0,1-1.15-.15,2.76,2.76,0,0,1-1-.47,2.26,2.26,0,0,1-.73-.83,2.76,2.76,0,0,1,.24-2.86,3.36,3.36,0,0,1,1.3-.91,6.17,6.17,0,0,1,1.63-.39c.58,0,1.09-.08,1.53-.08h1.37V38.8a1.91,1.91,0,0,0-.72-1.68,3.15,3.15,0,0,0-1.82-.5,4.1,4.1,0,0,0-2.75,1l-.68-.8a4.17,4.17,0,0,1,1.6-.94,5.6,5.6,0,0,1,1.83-.32,4.09,4.09,0,0,1,2.62.77,3,3,0,0,1,1,2.48Zm-2.34-.74a9.54,9.54,0,0,0-1.43.1,5.08,5.08,0,0,0-1.25.33,2.38,2.38,0,0,0-.89.63,1.44,1.44,0,0,0-.33,1,1.47,1.47,0,0,0,.19.73,1.62,1.62,0,0,0,.48.53,2.3,2.3,0,0,0,.65.31,2.57,2.57,0,0,0,.73.1,3.8,3.8,0,0,0,1.54-.27,2.75,2.75,0,0,0,1-.71,2.56,2.56,0,0,0,.49-1,4.77,4.77,0,0,0,.14-1.12v-.61Z"/><path class="cls-1" d="M285.4,42.51a2.57,2.57,0,0,0,1.09,1.1A3.25,3.25,0,0,0,288,44a2.43,2.43,0,0,0,.75-.11,2.55,2.55,0,0,0,.66-.33,1.93,1.93,0,0,0,.47-.52,1.23,1.23,0,0,0,.19-.69,1.11,1.11,0,0,0-.4-.94,2.72,2.72,0,0,0-1-.48,12.25,12.25,0,0,0-1.29-.31,5.11,5.11,0,0,1-1.29-.39,2.63,2.63,0,0,1-1-.73,2,2,0,0,1-.4-1.32A2.33,2.33,0,0,1,285,37a2.42,2.42,0,0,1,.71-.81,3.25,3.25,0,0,1,1-.48,4.13,4.13,0,0,1,1.11-.15,4.25,4.25,0,0,1,1.92.4A2.91,2.91,0,0,1,291,37.26l-1.06.63a2.16,2.16,0,0,0-2.12-1.27,2.59,2.59,0,0,0-1.27.37,1.49,1.49,0,0,0-.45.45,1.17,1.17,0,0,0,.21,1.52,3.07,3.07,0,0,0,1,.45,10.3,10.3,0,0,0,1.29.29,5.1,5.1,0,0,1,1.29.38,2.6,2.6,0,0,1,1,.76,2.17,2.17,0,0,1,.4,1.41,2.49,2.49,0,0,1-1,2.09,3.23,3.23,0,0,1-1,.52A4.11,4.11,0,0,1,288,45a5,5,0,0,1-2.13-.45,3.23,3.23,0,0,1-1.49-1.39Z"/><path class="cls-1" d="M299.9,36.85h-2.57v5.87a1.26,1.26,0,0,0,.33.93,1.21,1.21,0,0,0,.92.33,2.61,2.61,0,0,0,.67-.08,5.5,5.5,0,0,0,.65-.22l.1,1a7.3,7.3,0,0,1-.76.21,3.24,3.24,0,0,1-.76.1,2.66,2.66,0,0,1-1.07-.19,1.91,1.91,0,0,1-.72-.49,1.87,1.87,0,0,1-.4-.73,3,3,0,0,1-.13-.91V36.85h-2V35.8h2V33.21h1.17V35.8h2.57Z"/></svg>