<svg id="Layer_1" data-name="Layer 1" xmlns="http://www.w3.org/2000/svg" viewBox="0 0 203.51 70.03"><defs><style>.cls-1{fill:#231f20;}</style></defs><path class="cls-1" d="M15.72,19.76a5.28,5.28,0,0,1-2.67-.71,4.92,4.92,0,0,1-1.92-1.92c-.86,2-2.62,3.05-5.29,3.05a5.7,5.7,0,0,1-4.63-1.74l1.19-3a4.5,4.5,0,0,0,1.67.75,8.79,8.79,0,0,0,2.3.3,9.83,9.83,0,0,0,1.34-.1,5.24,5.24,0,0,0,1.17-.31,2.51,2.51,0,0,0,.82-.55,1.07,1.07,0,0,0,.31-.78,1.28,1.28,0,0,0,0-.28c0-.12-.12-.4-.26-.84s-.37-1.1-.69-2-.75-2.15-1.3-3.74l2.63-2.37q1,3.29,1.62,5.32A27.68,27.68,0,0,0,13.08,14a3.8,3.8,0,0,0,1.08,1.54,2.59,2.59,0,0,0,1.53.41h.69v3.81Z"/><path class="cls-1" d="M15.62,16.21c0-.08.08-.15.25-.19a1.7,1.7,0,0,1,.51-.07h2.16c1.12,0,1.68-.26,1.68-.79a1.09,1.09,0,0,0-.07-.34,3.06,3.06,0,0,0-.26-.51,8.17,8.17,0,0,0-.56-.8l-.95-1.24,2.13-3a5.56,5.56,0,0,1,1.59,2.26,7.53,7.53,0,0,1,.58,2.92,5.86,5.86,0,0,1-.44,2.35A4.56,4.56,0,0,1,21,18.44a5.09,5.09,0,0,1-1.82,1,7.55,7.55,0,0,1-2.27.33h-.55a1.7,1.7,0,0,1-.51-.07c-.17,0-.25-.1-.25-.16Zm6-11-2,2.62L16.9,6l2-2.66Z"/><path class="cls-1" d="M31.19,19.56a2.56,2.56,0,0,1-.64-.46,8,8,0,0,1-1.09,2.64,13.51,13.51,0,0,1-1.94,2.37A22.09,22.09,0,0,1,25,26.19c-.93.66-1.89,1.27-2.87,1.84l-2.79-2.17c.7-.35,1.54-.8,2.53-1.36a29.5,29.5,0,0,0,2.82-1.82,14.42,14.42,0,0,0,2.28-2,3.13,3.13,0,0,0,.94-2,2,2,0,0,0-.2-.82,7.8,7.8,0,0,0-.46-.85c-.18-.29-.35-.55-.53-.79l-.42-.59,2.53-2.73c.24.38.46.75.67,1.12a7.57,7.57,0,0,0,.67,1,3.13,3.13,0,0,0,.79.72A1.77,1.77,0,0,0,32,16v3.81A1.71,1.71,0,0,1,31.19,19.56Z"/><path class="cls-1" d="M31.21,16.21c0-.08.08-.15.25-.19A1.7,1.7,0,0,1,32,16h2.16c1.12,0,1.68-.26,1.68-.79a1.09,1.09,0,0,0-.07-.34,3.06,3.06,0,0,0-.26-.51,8.17,8.17,0,0,0-.56-.8l-1-1.24,2.13-3a5.56,5.56,0,0,1,1.59,2.26,7.53,7.53,0,0,1,.58,2.92,5.7,5.7,0,0,1-.45,2.35,4.43,4.43,0,0,1-1.21,1.65,5.09,5.09,0,0,1-1.82,1,7.55,7.55,0,0,1-2.27.33H32a1.7,1.7,0,0,1-.51-.07c-.17,0-.25-.1-.25-.16Zm.72,8.63,2-2.62,2.73,1.84-2,2.66Z"/><path class="cls-1" d="M64.79,12.64a7,7,0,0,0-2.73-.4,3.88,3.88,0,0,0-1.25.22,5.18,5.18,0,0,0-1.19.55,4.08,4.08,0,0,0-.91.76,1.25,1.25,0,0,0-.36.83.59.59,0,0,0,.49.58,6.17,6.17,0,0,0,1.25.2l1.61.11a6.48,6.48,0,0,1,1.61.33,2.91,2.91,0,0,1,1.25.82,2.35,2.35,0,0,1,.49,1.58,6,6,0,0,1-1,3.41,8.71,8.71,0,0,1-2.49,2.46,11.94,11.94,0,0,1-3.33,1.49,13.1,13.1,0,0,1-3.53.51,11.7,11.7,0,0,1-3.63-.51,7.11,7.11,0,0,1-2.57-1.41A5.73,5.73,0,0,1,47,22a7,7,0,0,1-.51-2.69,10.2,10.2,0,0,1,.38-2.64A11.75,11.75,0,0,1,48,13.92l2.6.88a9.92,9.92,0,0,0-.77,1.81,5.65,5.65,0,0,0-.28,1.74,3.86,3.86,0,0,0,.31,1.57,3.34,3.34,0,0,0,1,1.27,5.16,5.16,0,0,0,1.76.85,9,9,0,0,0,2.54.31,11.69,11.69,0,0,0,2.26-.26,17.1,17.1,0,0,0,2.42-.69,9.54,9.54,0,0,0,1.92-1c.52-.36.78-.72.78-1.07,0-.19-.12-.33-.37-.41a7.44,7.44,0,0,0-1-.18c-.45,0-1-.08-1.55-.11s-1.19-.09-1.85-.18a2.51,2.51,0,0,1-1.66-.82A2.61,2.61,0,0,1,55.53,16a6.39,6.39,0,0,1,.64-2.81,8.27,8.27,0,0,1,1.67-2.33,8.4,8.4,0,0,1,2.35-1.59,6.5,6.5,0,0,1,2.66-.59,5.56,5.56,0,0,1,1.41.18,5,5,0,0,1,1.35.58Z"/><path class="cls-1" d="M74.76,19.76a1.67,1.67,0,0,1-.77-.2,2.56,2.56,0,0,1-.64-.46,10.78,10.78,0,0,1-.69,2.22,15.25,15.25,0,0,1-1.26,2.33,16.54,16.54,0,0,1-1.86,2.29A15.13,15.13,0,0,1,67.05,28l-3-2.1a16.44,16.44,0,0,0,2.25-1.36,15.14,15.14,0,0,0,2.13-1.84,11.15,11.15,0,0,0,1.61-2.07,4,4,0,0,0,.64-2.05,2,2,0,0,0-.19-.82c-.14-.29-.29-.57-.46-.85s-.35-.55-.53-.79l-.43-.59,2.53-2.73c.24.38.47.75.67,1.12A7.6,7.6,0,0,0,73,15a3.27,3.27,0,0,0,.78.72,1.82,1.82,0,0,0,1,.28ZM67.38,9.55,69,7.32l2.13,1.41,1.22-1.67,2.49,1.67L73.22,11,71.05,9.55,69.9,11.22Zm1.21-3.64,1.68-2.17,2.29,1.54L71,7.45Z"/><path class="cls-1" d="M74,16.21c0-.08.08-.15.24-.19a1.79,1.79,0,0,1,.51-.07h2.17c1.11,0,1.67-.26,1.67-.79a1.06,1.06,0,0,0-.06-.34,4.52,4.52,0,0,0-.27-.51,7.84,7.84,0,0,0-.55-.8l-1-1.24,2.14-3a5.56,5.56,0,0,1,1.59,2.26,7.71,7.71,0,0,1,.57,2.92,5.7,5.7,0,0,1-.44,2.35,4.54,4.54,0,0,1-1.21,1.65,5.22,5.22,0,0,1-1.83,1,7.48,7.48,0,0,1-2.26.33h-.56a1.79,1.79,0,0,1-.51-.07c-.16,0-.24-.1-.24-.16Zm.23-10.07,1.64-2.23L78,5.32l1.22-1.68,2.52,1.68L80.08,7.55,77.91,6.14,76.8,7.81Z"/><path class="cls-1" d="M87.69,19.33l-3.35.89V1.31L87.69,0Z"/><path class="cls-1" d="M96.21,19.56a2.39,2.39,0,0,1-.64-.46,8,8,0,0,1-1.1,2.64,13.08,13.08,0,0,1-1.94,2.37A21.13,21.13,0,0,1,90,26.19c-.93.66-1.89,1.27-2.88,1.84l-2.79-2.17c.71-.35,1.55-.8,2.53-1.36a27.19,27.19,0,0,0,2.82-1.82,15,15,0,0,0,2.29-2,3.11,3.11,0,0,0,.93-2,1.83,1.83,0,0,0-.2-.82,6.4,6.4,0,0,0-.46-.85c-.17-.29-.35-.55-.52-.79l-.43-.59,2.53-2.73c.24.38.46.75.67,1.12a6.74,6.74,0,0,0,.68,1,3.27,3.27,0,0,0,.78.72A1.82,1.82,0,0,0,97,16v3.81A1.67,1.67,0,0,1,96.21,19.56Z"/><path class="cls-1" d="M104.13,19.76a2.92,2.92,0,0,1-3-1.71,4.34,4.34,0,0,1-3.84,1.71H97a1.79,1.79,0,0,1-.51-.07c-.16,0-.24-.1-.24-.16V16.21c0-.08.08-.15.24-.19A1.79,1.79,0,0,1,97,16h.16c1.65,0,2.47-.56,2.47-1.67V13l2.69-.85v.82c0,2,.65,3,2,3h.19v3.81ZM97,8.53,98.59,6.3l2.13,1.41L101.94,6l2.52,1.67-1.67,2.23-2.17-1.41-1.11,1.68Z"/><path class="cls-1" d="M103.71,16.21c0-.08.08-.15.24-.19a1.79,1.79,0,0,1,.51-.07h.33a2.24,2.24,0,0,0,1.48-.49,1.75,1.75,0,0,0,.59-1.41v-1l2.3-.79v1a3.8,3.8,0,0,0,.42,1.92,1.4,1.4,0,0,0,1.28.7c1.53,0,2.3-.69,2.3-2.07V12.64l2.33-.69v1.64a2.52,2.52,0,0,0,.66,1.77,2.14,2.14,0,0,0,1.67.72,1.37,1.37,0,0,0,1.07-.36,1.35,1.35,0,0,0,.31-.92,2.75,2.75,0,0,0-.33-1.29,3.41,3.41,0,0,0-.75-1l2.26-2.56A6.52,6.52,0,0,1,121.51,12a7.52,7.52,0,0,1,.12,4.32,6.23,6.23,0,0,1-.77,1.74,4.09,4.09,0,0,1-1.28,1.24,3.27,3.27,0,0,1-1.76.48,4.89,4.89,0,0,1-2.21-.48,3,3,0,0,1-1.43-1.39,3.15,3.15,0,0,1-1.25,1.33,3.52,3.52,0,0,1-1.67.51,4,4,0,0,1-1.89-.43A3.15,3.15,0,0,1,108,18.05a3.11,3.11,0,0,1-1.57,1.31,5.41,5.41,0,0,1-2,.4,1.79,1.79,0,0,1-.51-.07c-.16,0-.24-.1-.24-.16Z"/><path class="cls-1" d="M128.52,19.33l-3.35.89V1.31L128.52,0Z"/><path class="cls-1" d="M153,19.76a2.48,2.48,0,0,1,.12,1.15,4.52,4.52,0,0,1-.35,1.18,6.55,6.55,0,0,1-2.18,2.49,10.37,10.37,0,0,1-3.23,1.5,11.81,11.81,0,0,1-3.66.36,9,9,0,0,1-3.43-.86,6.45,6.45,0,0,1-2.53-2.13,6,6,0,0,1-1-3.53,9.22,9.22,0,0,1,.43-2.8,14.94,14.94,0,0,1,1.08-2.52l2.5.89c-.26.57-.52,1.19-.76,1.87a5.85,5.85,0,0,0-.36,1.94,3.68,3.68,0,0,0,.5,2,3.16,3.16,0,0,0,1.31,1.2,5.31,5.31,0,0,0,1.85.51,9.75,9.75,0,0,0,2.09,0,11,11,0,0,0,2-.44,10.8,10.8,0,0,0,1.75-.7c.42-.22.64-.4.66-.55s-.07-.24-.26-.31L146,19.76a5.84,5.84,0,0,1,.21-.64l.32-.79c.1-.27.21-.54.32-.79a3.22,3.22,0,0,1,.33-.6,2.3,2.3,0,0,1,.76-.79A2.41,2.41,0,0,1,149,16h4.1v3.81Z"/><path class="cls-1" d="M152.38,16.21c0-.08.08-.15.25-.19a1.68,1.68,0,0,1,.5-.07H156q1,0,1.71,0a7.23,7.23,0,0,0,1.43-.22,16,16,0,0,0,1.9-.59c.76-.27,1.79-.66,3.1-1.16l-2.89-.79c-.67-.17-1.18-.32-1.51-.43a1.59,1.59,0,0,0-1.19.12,3.39,3.39,0,0,0-.94.77l-2.26-1.54a9.19,9.19,0,0,1,2-2.58,2.72,2.72,0,0,1,2.3-.57,20.08,20.08,0,0,1,2.23.46l2.3.62c.78.22,1.59.43,2.42.64s1.73.39,2.69.54c.44.05.87.08,1.3.1l1.26.07-1,3.74c-.53,0-1-.07-1.38-.07a5.76,5.76,0,0,0-1.12.1,6.32,6.32,0,0,0-1.06.31,9.91,9.91,0,0,0-1.23.61c-1.12.63-2,1.18-2.78,1.64a16.78,16.78,0,0,1-2.15,1.15,10,10,0,0,1-2.31.69,19.19,19.19,0,0,1-3.27.23h-2.43a1.68,1.68,0,0,1-.5-.07c-.17,0-.25-.1-.25-.16Z"/><path class="cls-1" d="M178.5,19.33l-3.34.89V1.31L178.5,0Z"/><path class="cls-1" d="M187,19.56a2.56,2.56,0,0,1-.64-.46,8,8,0,0,1-1.1,2.64,13,13,0,0,1-1.93,2.37,22.09,22.09,0,0,1-2.53,2.08c-.93.66-1.89,1.27-2.87,1.84l-2.79-2.17c.7-.35,1.54-.8,2.52-1.36a28.44,28.44,0,0,0,2.83-1.82,15.37,15.37,0,0,0,2.28-2,3.11,3.11,0,0,0,.93-2,2,2,0,0,0-.19-.82c-.14-.29-.29-.57-.46-.85s-.35-.55-.53-.79l-.43-.59,2.53-2.73c.24.38.47.75.67,1.12a7.6,7.6,0,0,0,.68,1,3.27,3.27,0,0,0,.78.72,1.82,1.82,0,0,0,1,.28v3.81A1.67,1.67,0,0,1,187,19.56Z"/><path class="cls-1" d="M187,16.21c0-.08.08-.15.24-.19a1.79,1.79,0,0,1,.51-.07h1.15l.61-.72c.21-.24.43-.48.67-.72q.1-1,.15-2.1c0-.75,0-1.45,0-2.1,0-1.34,0-2.72-.13-4.16s-.22-3-.4-4.84L193.31,0V11.29a15.05,15.05,0,0,1,2.47-1.82,5,5,0,0,1,2.51-.74,3.94,3.94,0,0,1,2.89,1.1,3.67,3.67,0,0,1,1.12,2.74,5.71,5.71,0,0,1-1,3.33A8.05,8.05,0,0,1,199,18.13a9.81,9.81,0,0,1-3,1.25,13.63,13.63,0,0,1-3,.38h-5.15a1.79,1.79,0,0,1-.51-.07c-.16,0-.24-.1-.24-.16Zm10.37-3.9a4.2,4.2,0,0,0-2.63,1A35.53,35.53,0,0,0,191.89,16h.89l.92,0c.41,0,.88-.06,1.39-.12a15.12,15.12,0,0,0,1.58-.24,10.89,10.89,0,0,0,1.48-.41,3.74,3.74,0,0,0,1.1-.63,1.17,1.17,0,0,0,.42-.9.88.88,0,0,0-.24-.64,2,2,0,0,0-.61-.39,3.92,3.92,0,0,0-.74-.22A4.36,4.36,0,0,0,197.41,12.31Z"/><path class="cls-1" d="M103.15,40.27h-2.43v-4H96.88V33.83h3.84V30h2.43v3.87H107v2.46h-3.84Z"/><path class="cls-1" d="M14.51,61.76a5.29,5.29,0,0,1-2.68-.71,5.06,5.06,0,0,1-1.92-1.92c-.85,2-2.61,3-5.28,3C2.51,62.18,1,61.6,0,60.44l1.18-3a4.56,4.56,0,0,0,1.68.75,8.72,8.72,0,0,0,2.29.3,10,10,0,0,0,1.35-.1,5.15,5.15,0,0,0,1.16-.31,2.4,2.4,0,0,0,.82-.55,1.08,1.08,0,0,0,.32-.78,1.28,1.28,0,0,0-.05-.28c0-.12-.12-.4-.27-.84s-.37-1.1-.69-2L6.5,49.88l2.62-2.37q1,3.29,1.63,5.32A28,28,0,0,0,11.86,56,3.71,3.71,0,0,0,13,57.54a2.58,2.58,0,0,0,1.52.41h.69v3.81Z"/><path class="cls-1" d="M14.41,58.21c0-.08.08-.15.24-.19a1.79,1.79,0,0,1,.51-.07h2.17c1.11,0,1.67-.26,1.67-.79a1.06,1.06,0,0,0-.06-.34,3.3,3.3,0,0,0-.27-.51,7.84,7.84,0,0,0-.55-.8l-1-1.24,2.14-3a5.56,5.56,0,0,1,1.59,2.26,7.71,7.71,0,0,1,.57,2.92A5.7,5.7,0,0,1,21,58.79a4.43,4.43,0,0,1-1.21,1.65,5.17,5.17,0,0,1-1.82,1,7.6,7.6,0,0,1-2.27.33h-.56a1.79,1.79,0,0,1-.51-.07c-.16,0-.24-.1-.24-.16Zm6-11-2,2.62L15.69,48l2-2.66Z"/><path class="cls-1" d="M30,61.56a2.56,2.56,0,0,1-.64-.46,8,8,0,0,1-1.1,2.64,13,13,0,0,1-1.93,2.37,22.09,22.09,0,0,1-2.53,2.08c-.93.66-1.89,1.27-2.87,1.84l-2.79-2.17c.7-.35,1.54-.8,2.52-1.36a28.44,28.44,0,0,0,2.83-1.82,15.37,15.37,0,0,0,2.28-2,3.11,3.11,0,0,0,.93-2,2,2,0,0,0-.19-.82c-.14-.29-.29-.57-.46-.85s-.35-.55-.53-.79l-.43-.59,2.53-2.73c.24.38.47.75.67,1.12A7.6,7.6,0,0,0,29,57a3.27,3.27,0,0,0,.78.72,1.82,1.82,0,0,0,1,.28v3.81A1.67,1.67,0,0,1,30,61.56Z"/><path class="cls-1" d="M30,58.21c0-.08.08-.15.24-.19a1.79,1.79,0,0,1,.51-.07h2.17c1.11,0,1.67-.26,1.67-.79a1.06,1.06,0,0,0-.06-.34,4.52,4.52,0,0,0-.27-.51,7.84,7.84,0,0,0-.55-.8l-1-1.24,2.14-3a5.56,5.56,0,0,1,1.59,2.26,7.71,7.71,0,0,1,.57,2.92,5.7,5.7,0,0,1-.44,2.35,4.54,4.54,0,0,1-1.21,1.65,5.22,5.22,0,0,1-1.83,1,7.48,7.48,0,0,1-2.26.33h-.56a1.79,1.79,0,0,1-.51-.07c-.16,0-.24-.1-.24-.16Zm.72,8.63,2-2.62,2.72,1.84-2,2.66Z"/><path class="cls-1" d="M69.81,61.76a3.35,3.35,0,0,1-3.35-1.91c-.7.95-2,1.65-4,2.12a34.87,34.87,0,0,1-7.78.71q-4.72,0-7-1.43a4.44,4.44,0,0,1-2.33-4,6.86,6.86,0,0,1,.33-2A15.43,15.43,0,0,1,46.5,53l2.43.72c-.17.4-.32.8-.46,1.2a4,4,0,0,0-.19,1.23A1.92,1.92,0,0,0,49,57.69a4.55,4.55,0,0,0,1.8.83,11.87,11.87,0,0,0,2.55.33c1,0,1.9,0,2.87,0,.78,0,1.7,0,2.75,0a18.78,18.78,0,0,0,3-.31,8,8,0,0,0,2.38-.79,1.61,1.61,0,0,0,1-1.47v-.86L68,54.57a15.88,15.88,0,0,0,.08,1.74,2.18,2.18,0,0,0,.35,1,1.31,1.31,0,0,0,.73.49A4.85,4.85,0,0,0,70.4,58h0v3.81ZM52.71,50.7l1.64-2.23,2.13,1.41L57.7,48.2l2.52,1.68-1.67,2.23L56.38,50.7l-1.11,1.67Z"/><path class="cls-1" d="M75.09,65.89l-1.64,2.23-2.13-1.41L70.1,68.35l-2.56-1.64,1.74-2.26,2.13,1.44,1.19-1.67Zm-5.41-7.68c0-.08.08-.15.24-.19a1.79,1.79,0,0,1,.51-.07H72.6c1.11,0,1.67-.26,1.67-.79a.86.86,0,0,0-.07-.34,3.06,3.06,0,0,0-.26-.51,8.17,8.17,0,0,0-.56-.8c-.24-.32-.55-.73-.95-1.24l2.14-3a5.76,5.76,0,0,1,1.59,2.26,7.71,7.71,0,0,1,.57,2.92,5.86,5.86,0,0,1-.44,2.35,4.45,4.45,0,0,1-1.22,1.65,5.09,5.09,0,0,1-1.82,1,7.48,7.48,0,0,1-2.26.33h-.56a1.79,1.79,0,0,1-.51-.07c-.16,0-.24-.1-.24-.16Z"/><path class="cls-1" d="M88.05,61.76a8.37,8.37,0,0,1-1.21,2.43,15.54,15.54,0,0,1-1.92,2.18,19.93,19.93,0,0,1-2.43,1.95c-.88.61-1.79,1.18-2.71,1.71L77,67.86c.62-.3,1.33-.69,2.14-1.15s1.62-.95,2.43-1.49a20.69,20.69,0,0,0,2.21-1.69,6.17,6.17,0,0,0,1.46-1.77,13.78,13.78,0,0,1-2.11-.15A4.46,4.46,0,0,1,81.46,61a2.87,2.87,0,0,1-1.07-1.19,4.41,4.41,0,0,1-.38-2,7.17,7.17,0,0,1,.92-3.39,5,5,0,0,1,1.13-1.32,2.38,2.38,0,0,1,1.56-.55,3.36,3.36,0,0,1,1.83.51,4.81,4.81,0,0,1,1.34,1.28,6.51,6.51,0,0,1,.85,1.71A8.32,8.32,0,0,1,88.05,58h1.19v3.81ZM85.53,58a5,5,0,0,0-.23-.74,3.11,3.11,0,0,0-.43-.75,3.14,3.14,0,0,0-.57-.58,1.16,1.16,0,0,0-.68-.23,1.2,1.2,0,0,0-1,.43,1.43,1.43,0,0,0-.36,1,.9.9,0,0,0,.13.54.85.85,0,0,0,.48.27,5.54,5.54,0,0,0,1,.09C84.33,58,84.87,58,85.53,58Z"/><path class="cls-1" d="M88.48,58.21c0-.08.08-.15.25-.19a1.7,1.7,0,0,1,.51-.07h2.82a2.9,2.9,0,0,1-.59-1.67,4.06,4.06,0,0,1,.7-2.22,7.11,7.11,0,0,1,1.66-1.82l-.72-.46,1.57-3.41c.66.46,1.49,1.06,2.48,1.8a29,29,0,0,1,2.89,2.48,18.12,18.12,0,0,1,2.4,2.86,5.51,5.51,0,0,1,1,2.93,8.18,8.18,0,0,1-.23,2,4.87,4.87,0,0,1-.64,1.51,2.55,2.55,0,0,1-1,.88,1.39,1.39,0,0,1-1.13.09,17.88,17.88,0,0,1-2.28-.79c-.85-.35-1.68-.74-2.52-1.18a8.61,8.61,0,0,1-2.06.64,11,11,0,0,1-1.81.18H89.24a1.7,1.7,0,0,1-.51-.07c-.17,0-.25-.1-.25-.16Zm6.07-1.15a9,9,0,0,0,1,.6,2.17,2.17,0,0,0,1.58-2.07,1.13,1.13,0,0,0-.16-.58,3.2,3.2,0,0,0-.4-.51,1.82,1.82,0,0,0-.51-.36,1.24,1.24,0,0,0-.47-.13,1.1,1.1,0,0,0-.59.18,2.69,2.69,0,0,0-.56.46,2.85,2.85,0,0,0-.43.59,1.2,1.2,0,0,0-.16.54,2.37,2.37,0,0,0,.1.55A1.35,1.35,0,0,0,94.55,57.06Zm4.79,0a4.44,4.44,0,0,1-.44,1.15,7.91,7.91,0,0,1-.64,1q.39.19.81.36l.77.33c.3.11.54.18.72.23s.33-.09.46-.4a2.06,2.06,0,0,0-.23-1.85,7.37,7.37,0,0,0-1.38-1.59A2.51,2.51,0,0,1,99.34,57.1Z"/><path class="cls-1" d="M127.93,61.76a2.48,2.48,0,0,1,.12,1.15,4.52,4.52,0,0,1-.35,1.18,6.55,6.55,0,0,1-2.18,2.49,10.37,10.37,0,0,1-3.23,1.5,11.81,11.81,0,0,1-3.66.36,9,9,0,0,1-3.43-.86,6.45,6.45,0,0,1-2.53-2.13,6,6,0,0,1-1-3.53,9.22,9.22,0,0,1,.43-2.8,14.94,14.94,0,0,1,1.08-2.52l2.5.89c-.26.57-.52,1.19-.76,1.87a5.85,5.85,0,0,0-.36,1.94,3.68,3.68,0,0,0,.5,2,3.16,3.16,0,0,0,1.31,1.2,5.31,5.31,0,0,0,1.85.51,9.75,9.75,0,0,0,2.09,0,11,11,0,0,0,2.05-.44,11.18,11.18,0,0,0,1.75-.7c.42-.22.64-.4.66-.55s-.07-.24-.26-.31l-3.58-1.21a4.27,4.27,0,0,1,.21-.64l.32-.79c.1-.27.21-.54.32-.79a3.22,3.22,0,0,1,.33-.6,2.3,2.3,0,0,1,.76-.79A2.41,2.41,0,0,1,124,58h4.1v3.81Z"/><path class="cls-1" d="M128.09,61.76a1.68,1.68,0,0,1-.5-.07c-.17,0-.25-.1-.25-.16V58.21c0-.08.08-.15.25-.19a1.68,1.68,0,0,1,.5-.07h3.29v3.81Z"/><path class="cls-1" d="M131.38,61.76a1.7,1.7,0,0,1-.51-.07c-.17,0-.25-.1-.25-.16V58.21c0-.08.08-.15.25-.19a1.7,1.7,0,0,1,.51-.07h3.28v3.81Z"/><path class="cls-1" d="M134.66,61.76a1.7,1.7,0,0,1-.51-.07c-.16,0-.25-.1-.25-.16V58.21c0-.08.09-.15.25-.19a1.7,1.7,0,0,1,.51-.07h3.28v3.81Z"/><path class="cls-1" d="M137.94,61.76a1.7,1.7,0,0,1-.51-.07c-.16,0-.25-.1-.25-.16V58.21c0-.08.09-.15.25-.19a1.7,1.7,0,0,1,.51-.07h3.28v3.81Z"/><path class="cls-1" d="M141.22,61.76a1.79,1.79,0,0,1-.51-.07c-.16,0-.24-.1-.24-.16V58.21c0-.08.08-.15.24-.19a1.79,1.79,0,0,1,.51-.07h3.28v3.81Z"/><path class="cls-1" d="M144.5,61.76a1.79,1.79,0,0,1-.51-.07c-.16,0-.24-.1-.24-.16V58.21c0-.08.08-.15.24-.19a1.79,1.79,0,0,1,.51-.07h3.29v3.81Z"/><path class="cls-1" d="M147.78,61.76a1.68,1.68,0,0,1-.5-.07c-.17,0-.25-.1-.25-.16V58.21c0-.08.08-.15.25-.19a1.68,1.68,0,0,1,.5-.07h3.29v3.81Z"/><path class="cls-1" d="M151.07,61.76a1.7,1.7,0,0,1-.51-.07c-.17,0-.25-.1-.25-.16V58.21c0-.08.08-.15.25-.19a1.7,1.7,0,0,1,.51-.07h3.28v3.81Z"/><path class="cls-1" d="M153.59,58.21c0-.08.09-.15.25-.19a1.7,1.7,0,0,1,.51-.07h2.89c.7,0,1.27,0,1.7,0a7.12,7.12,0,0,0,1.43-.22,16,16,0,0,0,1.9-.59c.76-.27,1.79-.66,3.11-1.16l-2.89-.79c-.68-.17-1.18-.32-1.51-.43a1.62,1.62,0,0,0-1.2.12,3.54,3.54,0,0,0-.94.77l-2.26-1.54a9.57,9.57,0,0,1,2-2.58,2.72,2.72,0,0,1,2.3-.57,19.62,19.62,0,0,1,2.23.46l2.3.62c.79.22,1.6.43,2.43.64s1.73.39,2.69.54c.44.05.87.08,1.29.1l1.27.07-1,3.74c-.52-.05-1-.07-1.38-.07a5.66,5.66,0,0,0-1.11.1,6.43,6.43,0,0,0-1.07.31,9.91,9.91,0,0,0-1.23.61c-1.12.63-2,1.18-2.77,1.64a17.48,17.48,0,0,1-2.15,1.15,10.13,10.13,0,0,1-2.32.69,19.14,19.14,0,0,1-3.26.23h-2.43a1.7,1.7,0,0,1-.51-.07c-.16,0-.25-.1-.25-.16Z"/><path class="cls-1" d="M179.72,61.33l-3.35.89V43.31L179.72,42Z"/><path class="cls-1" d="M188.23,61.56a2.56,2.56,0,0,1-.64-.46,8,8,0,0,1-1.09,2.64,13.51,13.51,0,0,1-1.94,2.37A22.09,22.09,0,0,1,182,68.19c-.93.66-1.89,1.27-2.87,1.84l-2.79-2.17c.7-.35,1.54-.8,2.53-1.36a29.5,29.5,0,0,0,2.82-1.82,14.42,14.42,0,0,0,2.28-2,3.13,3.13,0,0,0,.94-2,2,2,0,0,0-.2-.82,7.8,7.8,0,0,0-.46-.85c-.18-.29-.35-.55-.53-.79l-.42-.59,2.53-2.73c.24.38.46.75.67,1.12a7.57,7.57,0,0,0,.67,1,3.13,3.13,0,0,0,.79.72,1.77,1.77,0,0,0,1,.28v3.81A1.71,1.71,0,0,1,188.23,61.56Z"/><path class="cls-1" d="M188.25,58.21c0-.08.08-.15.25-.19A1.7,1.7,0,0,1,189,58h1.14l.61-.72c.21-.24.43-.48.67-.72q.1-1,.15-2.1c0-.75,0-1.45,0-2.1,0-1.34,0-2.72-.13-4.16s-.22-3-.39-4.84L194.52,42V53.29A15.12,15.12,0,0,1,197,51.47a5,5,0,0,1,2.51-.74,4,4,0,0,1,2.89,1.1,3.7,3.7,0,0,1,1.11,2.74,5.71,5.71,0,0,1-.95,3.33,7.93,7.93,0,0,1-2.35,2.23,9.85,9.85,0,0,1-3,1.25,13.7,13.7,0,0,1-3,.38H189a1.7,1.7,0,0,1-.51-.07c-.17,0-.25-.1-.25-.16Zm10.37-3.9a4.15,4.15,0,0,0-2.62,1A32.47,32.47,0,0,0,193.11,58H194l.92,0c.42,0,.88-.06,1.4-.12a15,15,0,0,0,1.57-.24,10.89,10.89,0,0,0,1.48-.41,3.61,3.61,0,0,0,1.1-.63,1.18,1.18,0,0,0,.43-.9.88.88,0,0,0-.25-.64,1.88,1.88,0,0,0-.61-.39,3.71,3.71,0,0,0-.74-.22A4.25,4.25,0,0,0,198.62,54.31Z"/></svg>