<svg id="Layer_1" data-name="Layer 1" xmlns="http://www.w3.org/2000/svg" viewBox="0 0 149.95 139.78"><defs><style>.cls-1{fill:#231f20;}</style></defs><path class="cls-1" d="M18,22.18a3.18,3.18,0,0,1,.1.52,4.84,4.84,0,0,1,0,.53,4,4,0,0,1-.66,2.25,6.29,6.29,0,0,1-1.78,1.74,10.8,10.8,0,0,1-1.55.86,16.21,16.21,0,0,1-1.81.71,14.34,14.34,0,0,1-2,.5,11.92,11.92,0,0,1-2.05.18,10.24,10.24,0,0,1-3.63-.58,7,7,0,0,1-2.57-1.6A6.46,6.46,0,0,1,.51,24.85,9.12,9.12,0,0,1,0,21.75a10.84,10.84,0,0,1,.38-2.66,17.86,17.86,0,0,1,.87-2.62l3,1.71A17.49,17.49,0,0,0,3.6,20.1a5.91,5.91,0,0,0-.3,1.65,3,3,0,0,0,1.22,2.46,6,6,0,0,0,3.73,1,10.91,10.91,0,0,0,3.15-.46,9.1,9.1,0,0,0,2.46-1.13l0,0A.53.53,0,0,1,14,23.5l-.92-.4L12,22.65l-1-.41-.78-.3L11,17.89h8.75v4.29Z"/><path class="cls-1" d="M23.86,17.89c1.41,0,2.11-.26,2.11-.76a1,1,0,0,0-.15-.37q-.15-.26-.36-.57c-.14-.21-.29-.43-.45-.65L24.65,15l2.44-3.39c.16.19.35.46.6.79a8.81,8.81,0,0,1,.71,1.17A9.36,9.36,0,0,1,29,15.15a7.14,7.14,0,0,1,.26,2,4.86,4.86,0,0,1-1.39,3.76,5.68,5.68,0,0,1-4,1.29H19.77a2.09,2.09,0,0,1-.51-.07c-.17,0-.25-.1-.25-.17V18.15c0-.09.08-.15.25-.2a2.1,2.1,0,0,1,.51-.06Zm3.79,8.34c-.3.44-.61.86-.92,1.24s-.62.8-.92,1.24l-2-1.52-1.42,1.69L21.09,28l-1.29-.89c.31-.42.63-.82,1-1.22s.65-.8.95-1.22l2.12,1.65,1.25-1.85Z"/><path class="cls-1" d="M35.77,2.24c0,1.46.07,3.07.08,4.85s0,3.56,0,5.33,0,3.45,0,5,0,2.88.07,3.91l-3.3,1.22c0-1.16-.07-2.57-.07-4.21s0-3.33,0-5.08,0-3.48,0-5.2,0-3.24-.08-4.58Z"/><path class="cls-1" d="M44.25,22.08a10.28,10.28,0,0,1-1.14,3,12.14,12.14,0,0,1-1.84,2.43,18.06,18.06,0,0,1-2.36,2,27.8,27.8,0,0,1-2.64,1.61L33.1,28.48c.59-.31,1.35-.71,2.26-1.21A17.7,17.7,0,0,0,38,25.54a11.56,11.56,0,0,0,2.16-2.21,4.29,4.29,0,0,0,.91-2.64,1.77,1.77,0,0,0-.16-.71,5.91,5.91,0,0,0-.4-.74c-.15-.24-.31-.48-.48-.71s-.3-.43-.41-.61l2.77-2.81c.15.27.33.56.53.89a7,7,0,0,0,.64.91,3.78,3.78,0,0,0,.75.7,1.54,1.54,0,0,0,.89.28v4.29A4.57,4.57,0,0,1,44.25,22.08Z"/><path class="cls-1" d="M47.72,17.89a9.89,9.89,0,0,0,1.91-.19,20.28,20.28,0,0,0,2-.47,18.49,18.49,0,0,0,1.93-.7,12.25,12.25,0,0,0,1.7-.86l-1.07-.47c-.39-.17-.75-.32-1.09-.45s-.66-.24-.94-.33a2.4,2.4,0,0,0-.66-.13,2,2,0,0,0-1.09.38,4.9,4.9,0,0,0-1,.84l-2.64-1.62c.2-.28.47-.64.81-1.05a9,9,0,0,1,1.14-1.17,7.76,7.76,0,0,1,1.34-.95,2.88,2.88,0,0,1,1.4-.39,5.11,5.11,0,0,1,1.9.38c.62.25,1.29.54,2,.87l.93.46a8.47,8.47,0,0,0,1.37.52,14.64,14.64,0,0,0,2.11.41,22.39,22.39,0,0,0,3.15.13l-1.25,4.49a15.71,15.71,0,0,0-2,.28,11.07,11.07,0,0,0-1.55.44,10.74,10.74,0,0,0-1.27.58c-.39.21-.77.43-1.14.65L54,20.48a15.6,15.6,0,0,1-1.85.85,12,12,0,0,1-2.08.61,11.32,11.32,0,0,1-2.39.24H45.18a2.25,2.25,0,0,1-.52-.07c-.16,0-.24-.1-.24-.17V18.15c0-.09.08-.15.24-.2a2.24,2.24,0,0,1,.52-.06Zm1.75,9.4c.3-.44.61-.85.92-1.24s.62-.79.92-1.23l2,1.51,1.42-1.71,1.28.91,1.29.9c-.31.42-.63.83-1,1.24s-.65.81-1,1.21l-2-1.52L52,29.07Zm2.37,3.4c.31-.35.61-.7.89-1.06s.57-.69.86-1c.37.31.74.61,1.11.89l1.1.86c-.31.37-.6.75-.89,1.14s-.58.76-.89,1.14Z"/><path class="cls-1" d="M87.38,26.14l-6.93,2.11L80,26.66l6.93-2.11Z"/><path class="cls-1" d="M98.73,22.18a15.22,15.22,0,0,1-5.8-1.13,18.61,18.61,0,0,1-2.86.86c-1,.22-2,.4-3,.53s-2,.22-3,.26-1.88.08-2.72.1h-1a24.26,24.26,0,0,1-3.13-.2,9.4,9.4,0,0,1-3-.84,5.88,5.88,0,0,1-2.21-1.84,5.41,5.41,0,0,1-.87-3.22,5.89,5.89,0,0,1,.36-1.88A10.15,10.15,0,0,1,72.33,13l3,.86A8.94,8.94,0,0,0,74.79,15a4.22,4.22,0,0,0-.31,1.75,1.08,1.08,0,0,0,.58.95,4.18,4.18,0,0,0,1.45.55,14.61,14.61,0,0,0,1.9.25c.68,0,1.33.06,1.94.06h.93c1.14,0,2.42,0,3.84-.11a33.5,33.5,0,0,0,4.11-.48,5.49,5.49,0,0,1-.69-2.74A4.59,4.59,0,0,1,89.11,13a8.5,8.5,0,0,1,1.41-1.92,7.34,7.34,0,0,1,1.73-1.34,3.42,3.42,0,0,1,1.6-.49,3,3,0,0,1,1.86.63,6.32,6.32,0,0,1,1.44,1.48,6.93,6.93,0,0,1,.91,1.8,4.36,4.36,0,0,1,.28,1.53,6.33,6.33,0,0,1-.35,1.7,6.89,6.89,0,0,1-.71,1.44,5.06,5.06,0,0,0,.53.05l.73,0H100v4.29Zm-5-14.85-1.3-.91-1.31-.91c.36-.44.68-.85,1-1.24s.63-.79,1-1.23c.44.3.87.61,1.27.9l1.28.91Zm-1.58,7.85a1.72,1.72,0,0,0,1,1.48,2.7,2.7,0,0,0,1.55-2.21.89.89,0,0,0-.22-.56.74.74,0,0,0-.64-.36,1.19,1.19,0,0,0-.49.13,2.18,2.18,0,0,0-1,.89A1.21,1.21,0,0,0,92.17,15.18Z"/><path class="cls-1" d="M119.92,22.18a9.75,9.75,0,0,1-1.78-.17,2.87,2.87,0,0,1-1.59-.92,4.18,4.18,0,0,1-1.35.84,5.07,5.07,0,0,1-1.88.31A6.41,6.41,0,0,1,111.6,22a3.22,3.22,0,0,1-1.55-1,5,5,0,0,1-1.32.88,4.41,4.41,0,0,1-1.84.34,6.31,6.31,0,0,1-1.72-.23,3.17,3.17,0,0,1-1.55-1,4.4,4.4,0,0,1-1.35.84,5.12,5.12,0,0,1-1.89.32H100a2.25,2.25,0,0,1-.52-.07c-.16,0-.24-.1-.24-.17V18.15c0-.09.08-.15.24-.2a2.24,2.24,0,0,1,.52-.06h.42a1.84,1.84,0,0,0,.91-.19,1.54,1.54,0,0,0,.53-.42,1.67,1.67,0,0,0,.25-.5,1.76,1.76,0,0,0,.06-.41v-.25c0-.12,0-.25,0-.38s0-.26,0-.38v-.28l2.87-.82a6.92,6.92,0,0,1,.07,1.1,4.8,4.8,0,0,0,.15,1.22,2.11,2.11,0,0,0,.52,1,1.6,1.6,0,0,0,1.18.39,1.65,1.65,0,0,0,.89-.2,1.73,1.73,0,0,0,.51-.44,1.28,1.28,0,0,0,.23-.51,2.83,2.83,0,0,0,0-.43v-.25c0-.12,0-.25,0-.38s0-.26,0-.38v-.28l2.87-.82a8.55,8.55,0,0,1,.06,1.1,4.8,4.8,0,0,0,.15,1.22,2.22,2.22,0,0,0,.53,1,1.56,1.56,0,0,0,1.17.39,2,2,0,0,0,.91-.18,1.54,1.54,0,0,0,.53-.43,1.39,1.39,0,0,0,.24-.49,1.52,1.52,0,0,0,.07-.42v-.24c0-.12,0-.25,0-.38s0-.26,0-.38v-.28l2.87-.83a8.83,8.83,0,0,1,.06,1.11,5.06,5.06,0,0,0,.14,1.2,2,2,0,0,0,.46.94,1.22,1.22,0,0,0,1.09.32h.26ZM114.11,10c-.31.44-.61.85-.92,1.24s-.62.8-.93,1.24l-2-1.52-1.42,1.68-1.28-.89-1.29-.89c.31-.42.63-.83,1-1.24s.64-.81,1-1.2l2,1.52,1.42-1.72Zm-2.37-3.4c-.31.38-.61.73-.89,1.08l-.86,1c-.38-.31-.75-.6-1.12-.87s-.75-.57-1.13-.88c.31-.37.61-.74.91-1.12l.91-1.15Z"/><path class="cls-1" d="M119.92,17.89a18.89,18.89,0,0,0,2.72-.15,4.69,4.69,0,0,0,1.45-.4,1.14,1.14,0,0,0,.6-.56,1.68,1.68,0,0,0,.11-.61,2.21,2.21,0,0,0-.56-1.35,14.58,14.58,0,0,0-1.33-1.49c-.52-.5-1.06-1-1.62-1.48a12.58,12.58,0,0,1-1.37-1.36L120,8.71a4,4,0,0,1,.47-1.48A5.8,5.8,0,0,1,121,6.5c.22-.17.57-.42,1.06-.73s1.05-.66,1.71-1,1.39-.81,2.18-1.24l2.41-1.29c.81-.42,1.61-.83,2.38-1.2s1.47-.7,2.11-1V4.78c-.77.33-1.56.69-2.36,1.08L128.17,7c-.77.37-1.5.75-2.19,1.13l-1.9,1.08c.42.37.86.8,1.33,1.28a12.58,12.58,0,0,1,1.31,1.59,9.59,9.59,0,0,1,1,1.88,6.15,6.15,0,0,1,.39,2.21,12.52,12.52,0,0,1-.18,2.11,3.7,3.7,0,0,1-1,1.93,5.65,5.65,0,0,1-2.46,1.42,15.11,15.11,0,0,1-4.55.55,2.09,2.09,0,0,1-.51-.07c-.17,0-.25-.1-.25-.17V18.15c0-.09.08-.15.25-.2A2.1,2.1,0,0,1,119.92,17.89Z"/><path class="cls-1" d="M143.48,22.18a7.48,7.48,0,0,1-2-.24,4.35,4.35,0,0,1-1.49-.69,4.14,4.14,0,0,1-1-1.15,7.52,7.52,0,0,1-.73-1.59,9.18,9.18,0,0,1-1.78.63,7.15,7.15,0,0,1-1.65.23,2.93,2.93,0,0,1-2.56-1.12,4.51,4.51,0,0,1-.81-2.71,4.22,4.22,0,0,1,.5-2,7.56,7.56,0,0,1,1.24-1.7,10,10,0,0,1,1.61-1.37,15.55,15.55,0,0,1,1.64-1l-.2-1.22,3-2.24L141,15.77a3.1,3.1,0,0,0,.7,1.6,2.45,2.45,0,0,0,1.81.52ZM137.34,15a1.85,1.85,0,0,0-.05-.37c0-.19-.07-.4-.11-.63s-.08-.44-.12-.63A3.19,3.19,0,0,0,137,13l-.63.36a7.53,7.53,0,0,0-.84.62,5.34,5.34,0,0,0-.71.72.88.88,0,0,0-.23.71c0,.2.16.3.41.31a3,3,0,0,0,.86-.09,6.47,6.47,0,0,0,.91-.3A2.44,2.44,0,0,0,137.34,15Z"/><path class="cls-1" d="M144.77,28.94,143.46,28l-1.3-.9,1-1.24c.3-.39.64-.8,1-1.24l1.27.91,1.27.91Zm-.23-11c1.4,0,2.11-.26,2.11-.76a1,1,0,0,0-.15-.37q-.15-.26-.36-.57c-.15-.21-.29-.43-.45-.65l-.36-.53,2.44-3.39c.15.19.35.48.6.85a12.7,12.7,0,0,1,.7,1.29,11.3,11.3,0,0,1,.62,1.58,6.3,6.3,0,0,1,.26,1.79,4.86,4.86,0,0,1-1.39,3.76,5.68,5.68,0,0,1-4,1.29h-1.06a2.16,2.16,0,0,1-.51-.07c-.17,0-.25-.1-.25-.17V18.15c0-.09.08-.15.25-.2a2.16,2.16,0,0,1,.51-.06Z"/><path class="cls-1" d="M9.81,63,2.3,65.11,2,63.8l7.47-2.24Z"/><path class="cls-1" d="M5.22,58.18a11.85,11.85,0,0,1-2.73-.32,7.1,7.1,0,0,1-2.36-1l1.35-2.27a4.19,4.19,0,0,0,1.85.82,13.11,13.11,0,0,0,2.06.17c.43,0,.9,0,1.41-.07a5.35,5.35,0,0,0,1.42-.32,3,3,0,0,0,1.12-.71,1.67,1.67,0,0,0,.47-1.24,3.17,3.17,0,0,0-.56-1.77A7.94,7.94,0,0,0,7.92,49.9a13.78,13.78,0,0,0-1.67-1.26l-1.53-1L5.79,45c.73.5,1.46,1.05,2.18,1.65a13.13,13.13,0,0,1,1.92,2,9.84,9.84,0,0,1,1.36,2.26,6.58,6.58,0,0,1,.51,2.59,3.88,3.88,0,0,1-.62,2.25,5,5,0,0,1-1.58,1.45,6.6,6.6,0,0,1-2.12.8A10.91,10.91,0,0,1,5.22,58.18Z"/><path class="cls-1" d="M20.12,57.68A7.47,7.47,0,0,1,19.23,61a12.94,12.94,0,0,1-2,2.83,17.37,17.37,0,0,1-2.69,2.31,22.25,22.25,0,0,1-2.81,1.69l-1.64-1.85a26.35,26.35,0,0,0,2.76-1.51,16.81,16.81,0,0,0,2.42-1.82,11,11,0,0,0,1.82-2.08,5.7,5.7,0,0,0,.9-2.34A4.59,4.59,0,0,0,17.47,56a12.71,12.71,0,0,0-1.08-1.74l1.78-2c.3.43.58.84.81,1.23a7.83,7.83,0,0,0,.75,1,3.84,3.84,0,0,0,.85.73,2.14,2.14,0,0,0,1.14.28v2.64A3,3,0,0,1,20.12,57.68Z"/><path class="cls-1" d="M20.9,55.79c0-.09.09-.16.27-.19a2.51,2.51,0,0,1,.55-.06H25a12.22,12.22,0,0,0,1.56-.1,6.59,6.59,0,0,0,1.53-.38,3,3,0,0,0,1.17-.74,1.76,1.76,0,0,0,.47-1.27v-.23a.59.59,0,0,0,0-.23,9.1,9.1,0,0,1-1.49.57,5.42,5.42,0,0,1-1.46.21,2.6,2.6,0,0,1-1.8-.66,2.87,2.87,0,0,1-.73-2.22,6.68,6.68,0,0,1,.29-1.76,8.11,8.11,0,0,1,.8-1.92,6.5,6.5,0,0,1,1.19-1.55A2.08,2.08,0,0,1,28,44.62a2.12,2.12,0,0,1,1.67.86,7.1,7.1,0,0,1,1.17,2,13.66,13.66,0,0,1,.7,2.42,12,12,0,0,1,.23,2q0,6.22-6.4,6.23h-3.6a2,2,0,0,1-.55-.08c-.18,0-.27-.1-.27-.17ZM27.81,42l-2.35-1.64,1.78-2.17,2.31,1.64Zm-.61,8.89a3.32,3.32,0,0,0,1.07-.19,5.07,5.07,0,0,0,1-.45c-.07-.31-.16-.64-.26-1a5.89,5.89,0,0,0-.38-1,2.52,2.52,0,0,0-.49-.73.9.9,0,0,0-.64-.29.84.84,0,0,0-.56.24,2.85,2.85,0,0,0-.48.58,3.94,3.94,0,0,0-.35.78,2.48,2.48,0,0,0-.14.82,1.33,1.33,0,0,0,.28.86A1.18,1.18,0,0,0,27.2,50.88Z"/><path class="cls-1" d="M53.49,58.18a5,5,0,0,1-3.54-1A5.79,5.79,0,0,1,48.44,54l0-.14a6.81,6.81,0,0,1-1.93.94,7.47,7.47,0,0,1-2.3.37,3,3,0,0,1-1.8-.48,2.42,2.42,0,0,1-.9-1.19,3.18,3.18,0,0,1-.11-1.58,4.61,4.61,0,0,1,.57-1.62,11.72,11.72,0,0,1,4.94-4.2l-.35-2,2-1.49,1.7,8.75c.15.66.29,1.26.43,1.78a5,5,0,0,0,.55,1.32,2.29,2.29,0,0,0,.87.8,3.25,3.25,0,0,0,1.39.26h.25v2.64ZM47.3,48.29a8.7,8.7,0,0,0-2.92,2c-.71.71-1,1.27-.8,1.69s.71.56,1.59.44A7,7,0,0,0,46.8,52a4,4,0,0,0,1.14-.61Z"/><path class="cls-1" d="M54.74,65.29l-2.32-1.64,1.75-2.17,2.35,1.64Zm-1.89-9.5c0-.09.09-.16.27-.19a2.51,2.51,0,0,1,.55-.06h.71a4.94,4.94,0,0,0,2.22-.41,1.35,1.35,0,0,0,.84-1.29,2.6,2.6,0,0,0-.52-1.45c-.34-.51-.67-1-1-1.37l1.81-2a7.85,7.85,0,0,1,1.32,2.1,6.81,6.81,0,0,1,.49,2.45c0,3-1.77,4.56-5.33,4.56h-.57a2,2,0,0,1-.55-.08c-.18,0-.27-.1-.27-.17Z"/><path class="cls-1" d="M75.76,57.68A7.47,7.47,0,0,1,74.87,61a13.28,13.28,0,0,1-2,2.83,17.37,17.37,0,0,1-2.69,2.31,22.25,22.25,0,0,1-2.81,1.69l-1.64-1.85a26.35,26.35,0,0,0,2.76-1.51,16.81,16.81,0,0,0,2.42-1.82,10.59,10.59,0,0,0,1.81-2.08,5.58,5.58,0,0,0,.91-2.34A4.59,4.59,0,0,0,73.11,56,12.71,12.71,0,0,0,72,54.3l1.77-2c.31.43.59.84.82,1.23a7.83,7.83,0,0,0,.75,1,3.84,3.84,0,0,0,.85.73,2.14,2.14,0,0,0,1.14.28v2.64A3,3,0,0,1,75.76,57.68Z"/><path class="cls-1" d="M100.27,58.18a3.73,3.73,0,0,1-3.45-1.57l0,0a9,9,0,0,1-2.1.91,18.42,18.42,0,0,1-2.31.54,18.79,18.79,0,0,1-2.33.24c-.78,0-1.49.06-2.16.06-.9,0-1.72,0-2.47,0a11.36,11.36,0,0,1-2-.21A4.89,4.89,0,0,1,82,57.52a2.52,2.52,0,0,1-1-1.09,3,3,0,0,1-2.92,1.75h-.71a2,2,0,0,1-.55-.08c-.18,0-.27-.1-.27-.17V55.79c0-.09.09-.16.27-.19a2.51,2.51,0,0,1,.55-.06h.18a2.31,2.31,0,0,0,2-.74,5,5,0,0,0,.54-2.74l2.09-.71a12.4,12.4,0,0,0,.18,2.2,2.41,2.41,0,0,0,.93,1.66,4.19,4.19,0,0,0,1.88.48q1.5-1.81,2.83-3.28a23.48,23.48,0,0,1,2.65-2.51,11.81,11.81,0,0,1,2.63-1.6A7.29,7.29,0,0,1,96,47.75a3.45,3.45,0,0,1,1.42.3,4.55,4.55,0,0,1,1.21.8A3.64,3.64,0,0,1,99.51,50a3.45,3.45,0,0,1,.3,1.42,5.89,5.89,0,0,1-.32,2A6.75,6.75,0,0,1,98.67,55a3,3,0,0,0,1.85.5h.93v2.64Zm-5.55-7.8A3.9,3.9,0,0,0,92.8,51a12.27,12.27,0,0,0-2,1.41A25.11,25.11,0,0,0,89,54.1l-1.49,1.59h.28l1.71,0c.66,0,1.36-.05,2.08-.11s1.44-.15,2.15-.27a7.94,7.94,0,0,0,1.91-.53A4.06,4.06,0,0,0,97,53.85a1.87,1.87,0,0,0,.51-1.33,1.94,1.94,0,0,0-.25-1.05,1.74,1.74,0,0,0-.65-.64,3.42,3.42,0,0,0-.91-.34A4.86,4.86,0,0,0,94.72,50.38Z"/><path class="cls-1" d="M101.45,58.18a2,2,0,0,1-.55-.08c-.18,0-.27-.1-.27-.17V55.79c0-.09.09-.16.27-.19a2.44,2.44,0,0,1,.55-.06h3.31v2.64Z"/><path class="cls-1" d="M104.75,58.18a2,2,0,0,1-.55-.08c-.17,0-.26-.1-.26-.17V55.79c0-.09.09-.16.26-.19a2.51,2.51,0,0,1,.55-.06h3.31v2.64Z"/><path class="cls-1" d="M126.17,58.18a5.2,5.2,0,0,1-2-.32A3.31,3.31,0,0,1,123,57a4.27,4.27,0,0,1-.75-1.34q-.26-.77-.48-1.65L119,55.42q-1.36.73-2.79,1.35a19.73,19.73,0,0,1-2.88,1,11,11,0,0,1-3,.4h-2.32a2,2,0,0,1-.55-.08c-.18,0-.27-.1-.27-.17V55.79c0-.09.09-.16.27-.19a2.51,2.51,0,0,1,.55-.06h2.28a12.41,12.41,0,0,0,3-.32,17.81,17.81,0,0,0,2.56-.8c.81-.32,1.6-.67,2.37-1.06s1.57-.78,2.4-1.16c-1.71-.71-3.1-1.27-4.18-1.67a7.93,7.93,0,0,0-2.12-.61,1.88,1.88,0,0,0-1,.32,5.35,5.35,0,0,0-1.08,1.07l-1.64-.82q1.78-3.35,3.52-3.34a6.42,6.42,0,0,1,2.32.53c.87.36,1.8.75,2.77,1.19a31.27,31.27,0,0,0,3,1.19,9.4,9.4,0,0,0,3.09.54,6.17,6.17,0,0,0,1.64-.22l-.57,2.53a7.74,7.74,0,0,0-3.35.57,2.39,2.39,0,0,0,1.32,1.71,7.32,7.32,0,0,0,2.49.35h1.78v2.64Z"/><path class="cls-1" d="M136.63,58.18a5.56,5.56,0,0,1-2.76-.54,3.12,3.12,0,0,1-1.33-1.6,4.08,4.08,0,0,1-1.69,1.64,4.78,4.78,0,0,1-2.12.5h-.14a2,2,0,0,1-.55-.08c-.18,0-.27-.1-.27-.17V55.79c0-.09.09-.16.27-.19a2.51,2.51,0,0,1,.55-.06,4.32,4.32,0,0,0,2.26-.58,2.17,2.17,0,0,0,1-2V51.81l1.85-.68a11.71,11.71,0,0,0,.14,2,3.22,3.22,0,0,0,.52,1.37,2,2,0,0,0,1,.78,4.75,4.75,0,0,0,1.69.25v2.64Zm-3.91-9.25-2.35-1.64,1.78-2.17,2.31,1.64Z"/><path class="cls-1" d="M136.24,55.79c0-.09.09-.16.27-.19a2.44,2.44,0,0,1,.55-.06h.53a3.31,3.31,0,0,0,.77-.09,3.2,3.2,0,0,0,.55-.16,2.55,2.55,0,0,0,1.1-.85,7.94,7.94,0,0,0,.84-1.37c.24-.51.48-1,.69-1.58a9.5,9.5,0,0,1,.73-1.5,4.23,4.23,0,0,1,.92-1.1,2,2,0,0,1,1.27-.43,2.32,2.32,0,0,1,1.63.66,5.32,5.32,0,0,1,1.18,1.6,9.19,9.19,0,0,1,.69,2,9,9,0,0,1,.23,1.84,6,6,0,0,1-.14,1.24,4.86,4.86,0,0,1-.43,1.18,2.55,2.55,0,0,1-.76.87,2,2,0,0,1-1.12.34,3.46,3.46,0,0,1-1.11-.22,8.33,8.33,0,0,1-1.19-.53c-.39-.21-.76-.44-1.12-.68a8.22,8.22,0,0,1-.89-.67A4.08,4.08,0,0,1,140,57.64a4.37,4.37,0,0,1-2.35.54h-.6a2,2,0,0,1-.55-.08c-.18,0-.27-.1-.27-.17ZM142.43,54a14.71,14.71,0,0,0,1.48.92,2.68,2.68,0,0,0,1.26.43.6.6,0,0,0,.57-.39,2.11,2.11,0,0,0,.18-.89,4.64,4.64,0,0,0-.11-1,3.62,3.62,0,0,0-.32-.91,2.35,2.35,0,0,0-.5-.67.87.87,0,0,0-.6-.27c-.24,0-.54.19-.91.57A5.62,5.62,0,0,0,142.43,54Z"/><path class="cls-1" d="M2.8,93.48a4.32,4.32,0,0,1-1.55-1.79A7.48,7.48,0,0,1,.61,89.2c-.08-.93-.13-1.84-.13-2.74V72.76l2.25-1.5,0,16.3A14,14,0,0,0,2.76,89a3.35,3.35,0,0,0,.38,1.28,2.25,2.25,0,0,0,.9.91,3.46,3.46,0,0,0,1.64.33v2.64A5.13,5.13,0,0,1,2.8,93.48Z"/><path class="cls-1" d="M4.86,91.79c0-.09.09-.16.27-.19a2.44,2.44,0,0,1,.55-.06H9.47a2.54,2.54,0,0,0,.41,0,5.29,5.29,0,0,1-1.27-1.28,2.91,2.91,0,0,1-.44-1.6,3.3,3.3,0,0,1,.34-1.44,5.67,5.67,0,0,1,.87-1.37,6.54,6.54,0,0,1,1.21-1.14,9.28,9.28,0,0,1,1.31-.82,3.94,3.94,0,0,0-.49-.37,5.66,5.66,0,0,1-.47-.34L12,80.66c.78.59,1.6,1.24,2.44,1.94a26.5,26.5,0,0,1,2.38,2.24,20.34,20.34,0,0,1,2,2.45,9.09,9.09,0,0,1,1.27,2.58,7.08,7.08,0,0,1,.33,2.24A4.06,4.06,0,0,1,20,94a2.13,2.13,0,0,1-1.28,1,3.39,3.39,0,0,1-2.17-.23q-.89-.36-1.92-.84c-.69-.32-1.32-.62-1.89-.91a7.15,7.15,0,0,1-2,.84,8.17,8.17,0,0,1-2.07.27h-3a2,2,0,0,1-.55-.08c-.18,0-.27-.1-.27-.17Zm7-2a3.21,3.21,0,0,1,.41.21c.16.1.33.19.52.29l.3-.25a.82.82,0,0,1,.2-.14,2,2,0,0,0,.58-.87,3.11,3.11,0,0,0,.2-1,3.49,3.49,0,0,0-.09-.76,2.48,2.48,0,0,0-.28-.75,1.88,1.88,0,0,0-.49-.55,1.05,1.05,0,0,0-.64-.22,1.79,1.79,0,0,0-.8.22,2.67,2.67,0,0,0-.74.57,3.43,3.43,0,0,0-.57.76,1.51,1.51,0,0,0-.23.77,1.25,1.25,0,0,0,.51,1A6.44,6.44,0,0,0,11.83,89.8Zm4-2.45a6.45,6.45,0,0,1-.26,2.15,6.66,6.66,0,0,1-.84,1.76l1.48.69c.44.2.75.34.94.41.66.21,1.06.1,1.19-.35a2.33,2.33,0,0,0-.27-1.64,9,9,0,0,0-.94-1.48C16.76,88.38,16.33,87.87,15.85,87.35Z"/><path class="cls-1" d="M39.37,85.39A11,11,0,0,1,41,88.77a10.63,10.63,0,0,1,.39,3.41,9,9,0,0,1-.75,3.17A8,8,0,0,1,38.8,98,8.69,8.69,0,0,1,36,99.74a9.94,9.94,0,0,1-3.72.66,7.93,7.93,0,0,1-4.51-1.17,6.45,6.45,0,0,1-2.48-3,8.59,8.59,0,0,1-.5-4,11.33,11.33,0,0,1,1.41-4.31l1.74.79A10.77,10.77,0,0,0,27,93.29a4.34,4.34,0,0,0,.94,2.54A5,5,0,0,0,30,97.32a6.84,6.84,0,0,0,2.63.47,7.43,7.43,0,0,0,2.7-.54,6.13,6.13,0,0,0,2.24-1.53,4.87,4.87,0,0,0,1.25-2.5A7.43,7.43,0,0,0,38.73,90a9.33,9.33,0,0,0-1.42-3.16Zm-6.76.53-2.35-1.63L32,82.12l2.31,1.63Z"/><path class="cls-1" d="M48,93.48a4.32,4.32,0,0,1-1.55-1.79,7.48,7.48,0,0,1-.64-2.49c-.08-.93-.12-1.84-.12-2.74V72.76l2.24-1.5,0,16.3A14,14,0,0,0,47.94,89a3.35,3.35,0,0,0,.38,1.28,2.25,2.25,0,0,0,.9.91,3.46,3.46,0,0,0,1.64.33v2.64A5.15,5.15,0,0,1,48,93.48Z"/><path class="cls-1" d="M50.86,94.18a2,2,0,0,1-.55-.08c-.18,0-.27-.1-.27-.17V91.79c0-.09.09-.16.27-.19a2.51,2.51,0,0,1,.55-.06h3.31v2.64Z"/><path class="cls-1" d="M74.73,94.18a3.67,3.67,0,0,1-2.06-.48,2.51,2.51,0,0,1-1-1.34A2.88,2.88,0,0,1,70.3,93.8a4.66,4.66,0,0,1-3.93,0A3.45,3.45,0,0,1,65,92.36a3.17,3.17,0,0,1-1.64,1.46,5.82,5.82,0,0,1-2.06.39,4.12,4.12,0,0,1-1.87-.44A3,3,0,0,1,58,92.36a3.48,3.48,0,0,1-3.37,1.82h-.5a2,2,0,0,1-.55-.08c-.18,0-.27-.1-.27-.17V91.79c0-.09.09-.16.27-.19a2.44,2.44,0,0,1,.55-.06h.07q3,0,2.95-3.34L59,87.56a12.8,12.8,0,0,0,.09,1.55,4.47,4.47,0,0,0,.32,1.26,1.87,1.87,0,0,0,.69.85,2.13,2.13,0,0,0,1.25.32,2.93,2.93,0,0,0,2-.64,3.21,3.21,0,0,0,.71-2.42V88.2l1.78-.68c0,.5.06,1,.12,1.48a4.2,4.2,0,0,0,.36,1.3,2.24,2.24,0,0,0,.74.92,2.13,2.13,0,0,0,1.3.36,2.55,2.55,0,0,0,1.28-.29,2,2,0,0,0,.77-.76,3.34,3.34,0,0,0,.37-1.09,7.15,7.15,0,0,0,.11-1.24l1.63-.64c0,.59.06,1.13.11,1.62A3.64,3.64,0,0,0,73,90.44a1.88,1.88,0,0,0,.78.82,3,3,0,0,0,1.44.28h.5v2.64Z"/><path class="cls-1" d="M74.87,91.79c0-.09.09-.16.27-.19a2.51,2.51,0,0,1,.55-.06h.71a5,5,0,0,0,2.23-.41,1.35,1.35,0,0,0,.83-1.29A2.66,2.66,0,0,0,79,88.39c-.35-.51-.67-1-1-1.37l1.81-2a7.85,7.85,0,0,1,1.32,2.1,6.81,6.81,0,0,1,.5,2.45q0,4.56-5.34,4.56h-.57a2,2,0,0,1-.55-.08c-.18,0-.27-.1-.27-.17Zm4.2-8.64-2.35-1.64,1.78-2.17L80.81,81Z"/><path class="cls-1" d="M87.93,93.68l-1.82.5c0-1.28-.08-2.8-.12-4.54s-.07-3.59-.11-5.53-.07-3.92-.12-5.93-.1-3.91-.14-5.74l2.31-.93Z"/><path class="cls-1" d="M114.82,94.18a2.41,2.41,0,0,1,.8,1.88,3.63,3.63,0,0,1-.65,2,6.49,6.49,0,0,1-1.5,1.44,12.19,12.19,0,0,1-2.17,1.24,13.94,13.94,0,0,1-2.6.88,12.61,12.61,0,0,1-2.81.32,10.07,10.07,0,0,1-4.76-1A6.44,6.44,0,0,1,98.3,98.2a7.56,7.56,0,0,1-.77-4A12.17,12.17,0,0,1,99,89.37l1.82.68a11,11,0,0,0-1,3.49,5.67,5.67,0,0,0,.41,2.95,4.41,4.41,0,0,0,2,2,8,8,0,0,0,3.71.74,13.22,13.22,0,0,0,6-1.46,5.84,5.84,0,0,0,.8-.48,3.19,3.19,0,0,0,.6-.53,1.13,1.13,0,0,0,.27-.5c0-.15-.06-.26-.25-.34l-4.56-1.77c.17-.6.29-1.07.38-1.43a3.74,3.74,0,0,1,.26-.8.69.69,0,0,1,.34-.34,1.94,1.94,0,0,1,.55-.07h5.41v2.64Z"/><path class="cls-1" d="M114.82,91.79c0-.09.09-.16.27-.19a2.51,2.51,0,0,1,.55-.06H118a13.19,13.19,0,0,0,3-.3,14,14,0,0,0,2.39-.78c.73-.32,1.45-.68,2.15-1.07s1.45-.76,2.26-1.12l-2.17-.92c-.62-.27-1.14-.49-1.57-.66s-.78-.32-1.07-.41a2.1,2.1,0,0,0-.67-.14,3.11,3.11,0,0,0-1.25.3,3.77,3.77,0,0,0-1.28,1l-1.6-.71a6.94,6.94,0,0,1,1.94-2.47,3.36,3.36,0,0,1,1.94-.8,5.47,5.47,0,0,1,2.45.66c.88.43,1.89.88,3,1.33.52.24,1,.43,1.42.59a10.09,10.09,0,0,0,1.3.37,9.87,9.87,0,0,0,1.42.21c.51.05,1.12.07,1.83.07l-.6,2.57c-.47,0-.91,0-1.3,0l-1.08.12a7.31,7.31,0,0,0-2.74,1c-.86.52-1.75,1.06-2.69,1.6A22.13,22.13,0,0,1,122,93.52a11,11,0,0,1-4,.66h-2.31a2,2,0,0,1-.55-.08c-.18,0-.27-.1-.27-.17Zm8.26-10.85-2.35-1.63,1.78-2.18,2.31,1.64Z"/><path class="cls-1" d="M141.82,93.68a7.46,7.46,0,0,1-.88,3.27,13.33,13.33,0,0,1-2.05,2.83,16.92,16.92,0,0,1-2.69,2.31,21.57,21.57,0,0,1-2.81,1.69l-1.63-1.85a26.21,26.21,0,0,0,2.75-1.51,16.81,16.81,0,0,0,2.42-1.82,10.65,10.65,0,0,0,1.82-2.08,5.57,5.57,0,0,0,.9-2.34,4.59,4.59,0,0,0-.48-2.14,12.71,12.71,0,0,0-1.08-1.74l1.78-2c.31.43.58.84.82,1.23a7,7,0,0,0,.74,1,3.67,3.67,0,0,0,.86.73,2.12,2.12,0,0,0,1.14.28v2.64A3,3,0,0,1,141.82,93.68Z"/><path class="cls-1" d="M142.61,91.79c0-.09.09-.16.26-.19a2.6,2.6,0,0,1,.56-.06h.71a5,5,0,0,0,2.22-.41,1.35,1.35,0,0,0,.84-1.29,2.68,2.68,0,0,0-.52-1.45c-.34-.51-.67-1-1-1.37l1.82-2a7.81,7.81,0,0,1,1.31,2.1,6.6,6.6,0,0,1,.5,2.45q0,4.56-5.34,4.56h-.56a2.1,2.1,0,0,1-.56-.08c-.17,0-.26-.1-.26-.17Zm3.16,9.5-2.31-1.64,1.74-2.17,2.35,1.64Z"/><path class="cls-1" d="M2.8,129.48a4.32,4.32,0,0,1-1.55-1.79,7.48,7.48,0,0,1-.64-2.49c-.08-.93-.13-1.84-.13-2.74v-13.7l2.25-1.5,0,16.3A14,14,0,0,0,2.76,125a3.35,3.35,0,0,0,.38,1.28,2.25,2.25,0,0,0,.9.91,3.46,3.46,0,0,0,1.64.33v2.64A5.13,5.13,0,0,1,2.8,129.48Z"/><path class="cls-1" d="M4.86,127.79c0-.09.09-.16.27-.19a2.44,2.44,0,0,1,.55-.06H9.47a2.54,2.54,0,0,0,.41,0,5.29,5.29,0,0,1-1.27-1.28,2.91,2.91,0,0,1-.44-1.6,3.3,3.3,0,0,1,.34-1.44,5.67,5.67,0,0,1,.87-1.37,6.54,6.54,0,0,1,1.21-1.14,9.28,9.28,0,0,1,1.31-.82,3.94,3.94,0,0,0-.49-.37,5.66,5.66,0,0,1-.47-.34L12,116.66c.78.59,1.6,1.24,2.44,1.94a26.5,26.5,0,0,1,2.38,2.24,20.34,20.34,0,0,1,2,2.45,9.09,9.09,0,0,1,1.27,2.58,7.08,7.08,0,0,1,.33,2.24A4.06,4.06,0,0,1,20,130a2.13,2.13,0,0,1-1.28,1.05,3.39,3.39,0,0,1-2.17-.23q-.89-.36-1.92-.84c-.69-.32-1.32-.62-1.89-.91a7.15,7.15,0,0,1-2,.84,8.17,8.17,0,0,1-2.07.27h-3a2,2,0,0,1-.55-.08c-.18,0-.27-.1-.27-.17Zm7-2a3.21,3.21,0,0,1,.41.21c.16.1.33.19.52.29l.3-.25a.82.82,0,0,1,.2-.14,2,2,0,0,0,.58-.87,3.11,3.11,0,0,0,.2-1,3.49,3.49,0,0,0-.09-.76,2.48,2.48,0,0,0-.28-.75,1.88,1.88,0,0,0-.49-.55,1.05,1.05,0,0,0-.64-.22,1.79,1.79,0,0,0-.8.22,2.67,2.67,0,0,0-.74.57,3.43,3.43,0,0,0-.57.76,1.51,1.51,0,0,0-.23.77,1.25,1.25,0,0,0,.51,1A6.44,6.44,0,0,0,11.83,125.8Zm4-2.45a6.45,6.45,0,0,1-.26,2.15,6.66,6.66,0,0,1-.84,1.76l1.48.69c.44.2.75.34.94.41.66.21,1.06.1,1.19-.35a2.33,2.33,0,0,0-.27-1.64,9,9,0,0,0-.94-1.48C16.76,124.38,16.33,123.87,15.85,123.35Z"/><path class="cls-1" d="M28.84,129.68a6.66,6.66,0,0,1-.82,3.2A13.4,13.4,0,0,1,26,135.73a17.4,17.4,0,0,1-2.73,2.34,22.13,22.13,0,0,1-2.82,1.71l-1.64-1.85a27.33,27.33,0,0,0,2.83-1.56,18.07,18.07,0,0,0,2.54-1.94A10.06,10.06,0,0,0,26,132.19a4.8,4.8,0,0,0,.71-2.51,4,4,0,0,0-.53-2,19.5,19.5,0,0,0-1.1-1.78L27,124a11.73,11.73,0,0,1,1.44,2.81A8.78,8.78,0,0,1,28.84,129.68Z"/><path class="cls-1" d="M35.42,129.48a4.39,4.39,0,0,1-1.55-1.79,7.48,7.48,0,0,1-.64-2.49c-.08-.93-.12-1.84-.12-2.74v-13.7l2.24-1.5,0,16.3c0,.5,0,1,.07,1.46a3.54,3.54,0,0,0,.38,1.28,2.25,2.25,0,0,0,.9.91,3.46,3.46,0,0,0,1.64.33v2.64A5.15,5.15,0,0,1,35.42,129.48Z"/><path class="cls-1" d="M37.48,127.79c0-.09.09-.16.27-.19a2.51,2.51,0,0,1,.55-.06h1.42q3.89,0,3.88-2.74a3.29,3.29,0,0,0-.66-1.85,14.42,14.42,0,0,0-1.53-1.85c-.58-.59-1.17-1.14-1.78-1.65s-1.07-.93-1.4-1.26c.07-1.54.28-2.46.64-2.74a53.69,53.69,0,0,1,5.89-3.54c2.31-1.22,4.87-2.45,7.66-3.68L52.07,111a13.06,13.06,0,0,0-1.34.56l-2.06,1-2.44,1.2c-.85.42-1.66.84-2.41,1.24s-1.43.77-2,1.1-1,.6-1.27.79q5.13,4.26,5.13,7.68A5.14,5.14,0,0,1,45.1,127a5.2,5.2,0,0,1-1.52,1.74,6.84,6.84,0,0,1-2.15,1,8.82,8.82,0,0,1-2.52.36H38.3a2,2,0,0,1-.55-.08c-.18,0-.27-.1-.27-.17Z"/><path class="cls-1" d="M47.73,137.93c.92-.47,1.84-1,2.74-1.55a15.79,15.79,0,0,0,2.45-1.83,10.06,10.06,0,0,0,1.85-2.19,6.32,6.32,0,0,0,.93-2.65,7.62,7.62,0,0,1-1.16.47,4.62,4.62,0,0,1-1.26.17,3.7,3.7,0,0,1-2.35-.78,2.94,2.94,0,0,1-1-2.45,6.58,6.58,0,0,1,.27-1.78,6.75,6.75,0,0,1,.77-1.78,4.74,4.74,0,0,1,1.19-1.35,2.5,2.5,0,0,1,1.58-.54,2.88,2.88,0,0,1,2,.73A5.52,5.52,0,0,1,57,124.18a8.83,8.83,0,0,1,.67,2.21,12.23,12.23,0,0,1,.2,2,9.91,9.91,0,0,1-.71,3.79,12.27,12.27,0,0,1-1.89,3.13,15.13,15.13,0,0,1-2.7,2.53,25.64,25.64,0,0,1-3.17,2Zm5.8-10.17a4.24,4.24,0,0,0,1.14-.15,2.58,2.58,0,0,0,1-.49,6.16,6.16,0,0,0-.63-1.87,1.55,1.55,0,0,0-2.63-.21,2.19,2.19,0,0,0-.51,1.44,1,1,0,0,0,.51,1A2.71,2.71,0,0,0,53.53,127.76Z"/><path class="cls-1" d="M89.14,130.18c-2.06,0-3.29-.89-3.67-2.67A8.77,8.77,0,0,1,80.58,130a41.27,41.27,0,0,1-8.94.86c-1,0-2.09,0-3.21-.13a10.94,10.94,0,0,1-3.07-.64A5.48,5.48,0,0,1,63,128.56a4.27,4.27,0,0,1-.9-2.87,5.9,5.9,0,0,1,.28-1.81,5.27,5.27,0,0,1,.82-1.6l1.67.46a4.67,4.67,0,0,0-.53,1.26,4.81,4.81,0,0,0-.14,1.2,2.07,2.07,0,0,0,.78,1.74,5.17,5.17,0,0,0,1.92.89,12.38,12.38,0,0,0,2.44.34c.86,0,1.65.05,2.36.05s1.57,0,2.49-.05,1.87-.1,2.83-.18,1.9-.2,2.83-.36A15.1,15.1,0,0,0,82.4,127a7.1,7.1,0,0,0,1.85-.93,2.17,2.17,0,0,0,.9-1.31l.18-1,1.46-.5a7.12,7.12,0,0,0,.55,3.15,2.29,2.29,0,0,0,2.26,1.08h.11v2.64Zm-14.55,7.11-2.31-1.64L74,133.48l2.35,1.64Z"/><path class="cls-1" d="M89.71,130.18a2,2,0,0,1-.55-.08c-.18,0-.27-.1-.27-.17v-2.14c0-.09.09-.16.27-.19a2.44,2.44,0,0,1,.55-.06H93v2.64Z"/><path class="cls-1" d="M93,130.18a2.1,2.1,0,0,1-.56-.08c-.17,0-.26-.1-.26-.17v-2.14c0-.09.09-.16.26-.19a2.6,2.6,0,0,1,.56-.06h3.3v2.64Z"/><path class="cls-1" d="M116.89,130.18a3.71,3.71,0,0,1-2.07-.48,2.54,2.54,0,0,1-1-1.34,2.92,2.92,0,0,1-1.37,1.44,4.34,4.34,0,0,1-1.91.41,4.27,4.27,0,0,1-2-.46,3.48,3.48,0,0,1-1.43-1.39,3.15,3.15,0,0,1-1.63,1.46,5.83,5.83,0,0,1-2.07.39,4.11,4.11,0,0,1-1.86-.44,3,3,0,0,1-1.34-1.41,3.5,3.5,0,0,1-3.38,1.82h-.5a2,2,0,0,1-.55-.08c-.18,0-.26-.1-.26-.17v-2.14c0-.09.08-.16.26-.19a2.51,2.51,0,0,1,.55-.06h.07q3,0,3-3.34l1.78-.64a12.8,12.8,0,0,0,.09,1.55,4.15,4.15,0,0,0,.32,1.26,1.87,1.87,0,0,0,.69.85,2.09,2.09,0,0,0,1.24.32,2.91,2.91,0,0,0,2-.64,3.16,3.16,0,0,0,.71-2.42v-.28l1.78-.68c0,.5.07,1,.13,1.48a4.2,4.2,0,0,0,.35,1.3,2.35,2.35,0,0,0,.75.92,2.11,2.11,0,0,0,1.3.36,2.55,2.55,0,0,0,1.28-.29,1.92,1.92,0,0,0,.76-.76,3.35,3.35,0,0,0,.38-1.09,7.16,7.16,0,0,0,.1-1.24l1.64-.64c0,.59.06,1.13.11,1.62a3.44,3.44,0,0,0,.34,1.26,1.77,1.77,0,0,0,.78.82,3,3,0,0,0,1.44.28h.5v2.64Z"/><path class="cls-1" d="M117,127.79c0-.09.09-.16.27-.19a2.44,2.44,0,0,1,.55-.06h1.42c2.58,0,3.88-.91,3.88-2.74a3.29,3.29,0,0,0-.66-1.85A14.42,14.42,0,0,0,121,121.1c-.58-.59-1.17-1.14-1.78-1.65s-1.07-.93-1.4-1.26c.07-1.54.28-2.46.64-2.74a53.47,53.47,0,0,1,5.88-3.54c2.32-1.22,4.87-2.45,7.67-3.68l-.36,2.81a14.19,14.19,0,0,0-1.33.56l-2.06,1c-.77.37-1.59.77-2.44,1.2s-1.66.84-2.42,1.24-1.43.77-2,1.1-1,.6-1.26.79q5.11,4.26,5.12,7.68a5,5,0,0,1-.57,2.44,5.18,5.18,0,0,1-1.51,1.74,7.06,7.06,0,0,1-2.15,1,8.84,8.84,0,0,1-2.53.36h-.6a2,2,0,0,1-.55-.08c-.18,0-.27-.1-.27-.17Z"/><path class="cls-1" d="M140,129.48a4.37,4.37,0,0,1-1.54-1.79,7.24,7.24,0,0,1-.64-2.49c-.09-.93-.13-1.84-.13-2.74v-13.7l2.24-1.5,0,16.3a14,14,0,0,0,.07,1.46,3.53,3.53,0,0,0,.37,1.28,2.28,2.28,0,0,0,.91.91,3.43,3.43,0,0,0,1.64.33v2.64A5.16,5.16,0,0,1,140,129.48Z"/><path class="cls-1" d="M139.73,135.69l1.52-2,2.1,1.53,1.5-1.78L147,135l-1.6,1.93-2-1.57-1.46,1.81Zm2.31-7.9c0-.09.09-.16.26-.19a2.6,2.6,0,0,1,.56-.06h.71a5,5,0,0,0,2.22-.41,1.35,1.35,0,0,0,.84-1.29,2.68,2.68,0,0,0-.52-1.45c-.34-.51-.67-1-1-1.37l1.82-2a7.81,7.81,0,0,1,1.31,2.1,6.6,6.6,0,0,1,.5,2.45q0,4.56-5.33,4.56h-.57a2.1,2.1,0,0,1-.56-.08c-.17,0-.26-.1-.26-.17Z"/></svg>