<svg id="Layer_1" data-name="Layer 1" xmlns="http://www.w3.org/2000/svg" viewBox="0 0 179.61 220.41"><defs><style>.cls-1{fill:#231f20;}</style></defs><path class="cls-1" d="M49,181.25A17.58,17.58,0,0,1,42.1,176,29,29,0,0,1,32,182.6a31.89,31.89,0,0,1-11.6,2.27A35.7,35.7,0,0,1,8.65,183,27.44,27.44,0,0,1,0,178.44L8.58,165a9.66,9.66,0,0,0,4.29,1.74,35.78,35.78,0,0,0,7.51.67,28.46,28.46,0,0,0,5.16-.47,22.92,22.92,0,0,0,4.76-1.34A15.44,15.44,0,0,0,34,163.56a5.14,5.14,0,0,0,1.94-2.69q-1.47-7.63-3-14.28T30,132.18l12.47-8.85,6.84,35.13a8.54,8.54,0,0,0,2.95,5.3c1.52,1.2,3.71,1.81,6.57,1.81V183A24.89,24.89,0,0,1,49,181.25Z"/><path class="cls-1" d="M63.15,165.57q8.58,0,8.58-3.09a3.88,3.88,0,0,0-.6-1.47c-.4-.72-.9-1.5-1.48-2.35s-1.18-1.72-1.81-2.61-1.11-1.61-1.47-2.15l9.92-13.81c.63.8,1.43,2,2.42,3.49a47.59,47.59,0,0,1,5.36,11.66,24.69,24.69,0,0,1,1.07,7.24q0,10.07-5.63,15.29T63.15,183H58.86a8,8,0,0,1-2.08-.27c-.67-.18-1-.4-1-.67V166.64c0-.36.33-.63,1-.81a8.47,8.47,0,0,1,2.08-.26Zm10.46-30.84L68.31,131c-1.74-1.21-3.51-2.43-5.29-3.69q2.15-2.67,3.95-5t4.09-5q2.68,1.88,5.16,3.68t5.17,3.69Z"/><path class="cls-1" d="M109.36,182.6a42.47,42.47,0,0,1-4.63,12,48.89,48.89,0,0,1-7.51,9.85,67.15,67.15,0,0,1-9.58,8.05,112.54,112.54,0,0,1-10.73,6.57L64,208.61q3.61-1.89,9.18-4.9a73.28,73.28,0,0,0,10.66-7,47.46,47.46,0,0,0,8.78-9A17.62,17.62,0,0,0,96.35,177a7.22,7.22,0,0,0-.67-2.88,22,22,0,0,0-1.61-3c-.62-1-1.27-1.94-1.94-2.88s-1.23-1.76-1.68-2.48l11.26-11.4c.63,1.08,1.35,2.28,2.15,3.62a29.24,29.24,0,0,0,2.61,3.69,16.23,16.23,0,0,0,3,2.82,6.11,6.11,0,0,0,3.62,1.14V183A17.11,17.11,0,0,1,109.36,182.6Z"/><path class="cls-1" d="M178.6,211.83l-28.16,8.58L148.56,214l28.16-8.58Z"/><path class="cls-1" d="M113.11,183a8,8,0,0,1-2.08-.27c-.67-.18-1-.4-1-.67V166.64c0-.36.33-.63,1-.81a8.47,8.47,0,0,1,2.08-.26h13.41V183Z"/><path class="cls-1" d="M126.52,183a8,8,0,0,1-2.08-.27c-.67-.18-1-.4-1-.67V166.64c0-.36.34-.63,1-.81a8.41,8.41,0,0,1,2.08-.26h13.41V183Z"/><path class="cls-1" d="M139.92,183a7.94,7.94,0,0,1-2.07-.27c-.67-.18-1-.4-1-.67V166.64c0-.36.34-.63,1-.81a8.39,8.39,0,0,1,2.07-.26h13.41V183Z"/><path class="cls-1" d="M164,205.09l-5.29-3.69c-1.75-1.2-3.51-2.43-5.3-3.68q2.14-2.68,4-5c1.2-1.57,2.56-3.24,4.09-5q2.67,1.88,5.16,3.69t5.16,3.69Zm-6.33-39.52q8.58,0,8.58-3.09a3.88,3.88,0,0,0-.6-1.47c-.4-.72-.9-1.5-1.48-2.35s-1.18-1.72-1.81-2.61-1.11-1.61-1.47-2.15l9.92-13.81c.63.8,1.43,2,2.42,3.49a47.59,47.59,0,0,1,5.36,11.66,24.69,24.69,0,0,1,1.07,7.24q0,10.07-5.63,15.29T157.62,183h-4.29a8,8,0,0,1-2.08-.27c-.67-.18-1-.4-1-.67V166.64c0-.36.33-.63,1-.81a8.47,8.47,0,0,1,2.08-.26Z"/><path class="cls-1" d="M40.48,31.92a8.54,8.54,0,0,1-2.17-1.55,27.28,27.28,0,0,1-3.73,9,44.77,44.77,0,0,1-6.56,8,71.33,71.33,0,0,1-8.56,7.06q-4.74,3.34-9.74,6.23L.27,53.28q3.56-1.78,8.56-4.62a98.32,98.32,0,0,0,9.57-6.17,49,49,0,0,0,7.73-6.9Q29.3,32,29.3,28.7a6.54,6.54,0,0,0-.67-2.78A25.67,25.67,0,0,0,27.07,23q-.88-1.44-1.77-2.67c-.6-.81-1.08-1.48-1.45-2l8.56-9.23Q33.64,11,34.69,12.9A24.41,24.41,0,0,0,37,16.29a11.74,11.74,0,0,0,2.67,2.45,6.2,6.2,0,0,0,3.45,1v12.9A5.51,5.51,0,0,1,40.48,31.92Z"/><path class="cls-1" d="M67.34,32.59q-7.79,0-10.23-5.78-4,5.78-13,5.78h-1a6.54,6.54,0,0,1-1.72-.22c-.56-.15-.84-.34-.84-.56V20.58c0-.3.28-.52.84-.67a6.54,6.54,0,0,1,1.72-.22h.56Q52,19.69,52,14V9.57l9.12-2.9V9.45q0,10.25,6.67,10.24h.67v12.9Zm1.11,14-5.56,7.56-7.23-4.78L51.54,55l-8.67-5.56,5.89-7.68L56,46.61l4-5.68Z"/><path class="cls-1" d="M137.59,32.59c-2.44,0-10.84-.43-12.58-1.28a9.73,9.73,0,0,1-4.28-4.5A13,13,0,0,1,116.17,31a11.48,11.48,0,0,1-5.56,1.45,9.75,9.75,0,0,1-4.9-1.34,11.65,11.65,0,0,1-4.11-4.33,13,13,0,0,1-11.13,5.67,10.06,10.06,0,0,1-5-1.34,11.54,11.54,0,0,1-4.17-4.33,11.19,11.19,0,0,1-10.23,5.78H68.45a6.54,6.54,0,0,1-1.72-.22c-.56-.15-.84-.34-.84-.56V20.58c0-.3.28-.52.84-.67a6.54,6.54,0,0,1,1.72-.22h2.89c3.12,0,4.67-1.86,4.67-5.56v-3.9l7.9-2.78V9.9q0,5.12,1.67,7.34a6.23,6.23,0,0,0,4.78,2.45q6.57,0,6.57-5.56v-3.9l7.89-2.78v3.78c0,3,.5,5.21,1.5,6.51s2.8,2,5.4,2a6.34,6.34,0,0,0,4.5-1.5,5.29,5.29,0,0,0,1.62-4.06v-3.9l7.78-2.78v4.67c0,1.34,0,2.47.11,3.4a5.51,5.51,0,0,0,.67,2.33,3.22,3.22,0,0,0,1.78,1.39c.82.3,8.26.45,9.75.45h1.33v12.9Z"/><path class="cls-1" d="M138,20.58c0-.3.27-.52.83-.67a6.6,6.6,0,0,1,1.72-.22,19.33,19.33,0,0,0,7.62-1.28,9.53,9.53,0,0,0,4.51-3.84c.89-1.48,1.79-3.08,2.72-4.78a36.23,36.23,0,0,1,3.06-4.73,15.8,15.8,0,0,1,3.84-3.61A9,9,0,0,1,167.44,0,8.48,8.48,0,0,1,173,1.84a14,14,0,0,1,3.67,4.5,23.4,23.4,0,0,1,2.06,5.73,26.33,26.33,0,0,1,.66,5.5,25.35,25.35,0,0,1-.44,4.51,14.51,14.51,0,0,1-1.56,4.39,10.72,10.72,0,0,1-2.84,3.34,6.61,6.61,0,0,1-4.17,1.33,16.18,16.18,0,0,1-7.39-1.83,36.91,36.91,0,0,1-6.4-4.06,20.28,20.28,0,0,1-6.67,5.45,20.79,20.79,0,0,1-9.35,1.89,6.6,6.6,0,0,1-1.72-.22c-.56-.15-.83-.34-.83-.56Zm29-10.46q-3.57-.55-5.9,5.56a16,16,0,0,0,3.78,2.62,15.24,15.24,0,0,0,4,1.39,1.76,1.76,0,0,0,2.33-1.56,8.33,8.33,0,0,0-.11-2.34,9.46,9.46,0,0,0-.78-2.5,8,8,0,0,0-1.39-2.06A3.58,3.58,0,0,0,167,10.12Z"/><path class="cls-1" d="M26.18,116.77,1.05,123.34l-.78-4,24.91-7Z"/><path class="cls-1" d="M49.43,103.76a17.94,17.94,0,0,1-9.06-2.39,17.17,17.17,0,0,1-6.51-6.51Q29.53,105.21,16,105.21q-10.78,0-15.68-5.9l4-10.23A15,15,0,0,0,10,91.64a30.57,30.57,0,0,0,7.78,1,29.66,29.66,0,0,0,4.56-.34,16.6,16.6,0,0,0,3.95-1A8.17,8.17,0,0,0,29,89.41a3.71,3.71,0,0,0,1.06-2.67,3.91,3.91,0,0,0-.17-.94c-.11-.41-.41-1.36-.89-2.84s-1.26-3.74-2.33-6.78-2.55-7.27-4.4-12.69l8.9-8q3.45,11.11,5.51,18a90.88,90.88,0,0,0,3.78,10.73,12.78,12.78,0,0,0,3.67,5.23,8.77,8.77,0,0,0,5.17,1.39h2.34v12.9Z"/><path class="cls-1" d="M57.05,103.76c-.59,0-6.42-.07-7-.22s-.84-.34-.84-.56V91.75c0-.3.28-.52.84-.67s6.38-.22,7-.22H68.17v12.9Z"/><path class="cls-1" d="M68.17,103.76a6.6,6.6,0,0,1-1.72-.22c-.56-.15-.83-.34-.83-.56V91.75c0-.3.27-.52.83-.67a6.6,6.6,0,0,1,1.72-.22H79.3v12.9Z"/><path class="cls-1" d="M79.3,103.76a6.62,6.62,0,0,1-1.73-.22c-.55-.15-.83-.34-.83-.56V91.75c0-.3.28-.52.83-.67a6.62,6.62,0,0,1,1.73-.22H90.42v12.9Z"/><path class="cls-1" d="M90.42,103.76a6.67,6.67,0,0,1-1.73-.22c-.55-.15-.83-.34-.83-.56V91.75c0-.3.28-.52.83-.67a6.67,6.67,0,0,1,1.73-.22h11.12v12.9Z"/><path class="cls-1" d="M99,91.75c0-.3.28-.52.84-.67a6.54,6.54,0,0,1,1.72-.22h1.11a7.59,7.59,0,0,0,5-1.67,5.89,5.89,0,0,0,2-4.78V81.18l7.79-2.67V82a12.62,12.62,0,0,0,1.44,6.51,4.75,4.75,0,0,0,4.34,2.39q7.78,0,7.79-7V79.62l7.89-2.33v5.56a8.6,8.6,0,0,0,2.23,6,7.31,7.31,0,0,0,5.67,2.44A4,4,0,0,0,151.48,87a9.56,9.56,0,0,0-1.11-4.39,10.89,10.89,0,0,0-2.56-3.39l7.68-8.68a21.66,21.66,0,0,1,3.83,7,25.62,25.62,0,0,1,1.28,8,25,25,0,0,1-.89,6.62A20.16,20.16,0,0,1,157.1,98a14,14,0,0,1-4.34,4.23,11.15,11.15,0,0,1-5.95,1.61,16.89,16.89,0,0,1-7.51-1.61,10.33,10.33,0,0,1-4.84-4.73,10.56,10.56,0,0,1-4.22,4.51,12.19,12.19,0,0,1-5.68,1.72,13.79,13.79,0,0,1-6.39-1.45A10.86,10.86,0,0,1,113.66,98a10.54,10.54,0,0,1-5.34,4.45,18.87,18.87,0,0,1-6.78,1.33,6.54,6.54,0,0,1-1.72-.22c-.56-.15-.84-.34-.84-.56Zm23.14-26,5.56-7.56,7.23,4.78L139,57.27l8.46,5.67-5.56,7.56-7.35-4.78-3.89,5.67Zm4.11-12.35L131.91,46l7.78,5.23-5.45,7.34Z"/><path class="cls-1" d="M173,80.18a43.14,43.14,0,0,1,4.62,7.95,23.38,23.38,0,0,1,1.72,9.4,21.78,21.78,0,0,1-2.61,10.29,41,41,0,0,1-6.79,9.29,67.94,67.94,0,0,1-9.34,8.06,118.16,118.16,0,0,1-10.4,6.73l-9.45-7.45q3.66-1.78,8.62-4.67a92.7,92.7,0,0,0,9.45-6.34,53.69,53.69,0,0,0,7.68-7.07q3.17-3.62,3.17-6.84a9.74,9.74,0,0,0-1.73-5c-1.15-1.86-2.32-3.56-3.5-5.12Z"/></svg>