<svg id="Layer_1" data-name="Layer 1" xmlns="http://www.w3.org/2000/svg" viewBox="0 0 149.2 144.71"><defs><style>.cls-1{fill:#231f20;}</style></defs><path class="cls-1" d="M19.35,27.11a3.82,3.82,0,0,1,.11.57,5.46,5.46,0,0,1,0,.57,4.23,4.23,0,0,1-.72,2.42,6.76,6.76,0,0,1-1.92,1.88,13.05,13.05,0,0,1-1.67.93,18.14,18.14,0,0,1-2,.76,14.76,14.76,0,0,1-2.13.54A12.69,12.69,0,0,1,8.89,35,11.34,11.34,0,0,1,5,34.35a7.6,7.6,0,0,1-2.77-1.73A7,7,0,0,1,.55,30,9.71,9.71,0,0,1,0,26.65a11.72,11.72,0,0,1,.41-2.87A20.39,20.39,0,0,1,1.35,21l3.27,1.5c-.14.33-.27.69-.4,1.08s-.25.78-.34,1.16-.17.74-.23,1.08a5.34,5.34,0,0,0-.09.88A3.28,3.28,0,0,0,4.87,29.3a6.4,6.4,0,0,0,4,1.05,11.56,11.56,0,0,0,3.4-.5,9.77,9.77,0,0,0,2.65-1.21l.14-.11-1-.43L13,27.62l-1.09-.44c-.34-.14-.62-.25-.83-.32l.85-4.38H19.5v4.63Z"/><path class="cls-1" d="M19.5,27.11a2.1,2.1,0,0,1-.56-.07c-.17-.05-.26-.11-.26-.18V22.77c0-.1.09-.17.26-.21a2.1,2.1,0,0,1,.56-.08h3.55v4.63Z"/><path class="cls-1" d="M23.05,27.11A2,2,0,0,1,22.5,27q-.27-.08-.27-.18V22.77q0-.15.27-.21a2,2,0,0,1,.55-.08h3.56v4.63Z"/><path class="cls-1" d="M26.61,22.48a20,20,0,0,0,2.93-.16,5.38,5.38,0,0,0,1.57-.42,1.23,1.23,0,0,0,.64-.61,1.94,1.94,0,0,0,.13-.66,2.45,2.45,0,0,0-.61-1.45,14.68,14.68,0,0,0-1.44-1.61c-.56-.54-1.14-1.07-1.74-1.6a12.84,12.84,0,0,1-1.48-1.45l.07-1.93A4.14,4.14,0,0,1,27.2,11a5.16,5.16,0,0,1,.62-.78q.36-.29,1.14-.78l1.85-1.14c.71-.43,1.49-.87,2.35-1.33S34.88,6,35.75,5.57s1.73-.9,2.56-1.3,1.59-.76,2.28-1.07V8.36c-.83.36-1.68.74-2.54,1.16L35.5,10.74c-.83.41-1.61.82-2.36,1.23l-2.05,1.16c.45.4.93.86,1.44,1.39a13.68,13.68,0,0,1,1.41,1.7,10.05,10.05,0,0,1,1.07,2,6.66,6.66,0,0,1,.42,2.38,13.49,13.49,0,0,1-.19,2.28A4.05,4.05,0,0,1,34.17,25a6.12,6.12,0,0,1-2.65,1.53,16.31,16.31,0,0,1-4.91.59,2,2,0,0,1-.55-.07q-.27-.08-.27-.18V22.77q0-.15.27-.21A2,2,0,0,1,26.61,22.48ZM28.07,5.69l4.37-2.31,3.1-1.62C36.39,1.32,37.1,1,37.66.69L39.1,0V2.24c-.55.24-1.14.51-1.76.82S36,3.75,35.11,4.2l-3,1.6c-1.13.62-2.49,1.34-4,2.17Z"/><path class="cls-1" d="M51.64,26.65a4.56,4.56,0,0,1-1.83-1.39A7.7,7.7,0,0,1,47.12,27a8.28,8.28,0,0,1-3.08.61,9.52,9.52,0,0,1-3.11-.5,7.38,7.38,0,0,1-2.3-1.21l2.28-3.56a2.47,2.47,0,0,0,1.14.46A9.39,9.39,0,0,0,44,23a8,8,0,0,0,1.37-.12,6.42,6.42,0,0,0,1.26-.36,4,4,0,0,0,1-.55,1.33,1.33,0,0,0,.52-.71c-.26-1.35-.52-2.62-.78-3.79s-.53-2.45-.79-3.82l3.31-2.35,1.82,9.32a2.21,2.21,0,0,0,.78,1.4,2.73,2.73,0,0,0,1.74.48v4.63A6.59,6.59,0,0,1,51.64,26.65Z"/><path class="cls-1" d="M55.39,22.48q2.28,0,2.28-.81a1.13,1.13,0,0,0-.16-.4c-.11-.19-.24-.39-.39-.62s-.32-.45-.48-.69l-.4-.57,2.64-3.67c.16.22.38.53.64.93a13.11,13.11,0,0,1,1.42,3.09,6.53,6.53,0,0,1,.28,1.93,5.24,5.24,0,0,1-1.49,4,6.13,6.13,0,0,1-4.34,1.39H54.25A2,2,0,0,1,53.7,27q-.27-.08-.27-.18V22.77q0-.15.27-.21a2,2,0,0,1,.55-.08Zm2.78-8.18-1.41-1-1.41-1c.38-.47.73-.91,1-1.33s.69-.86,1.09-1.33l1.37,1c.44.33.89.65,1.37,1Z"/><path class="cls-1" d="M68.13,19.5c.19.3.41.68.65,1.13a14.57,14.57,0,0,1,.7,1.48A15.93,15.93,0,0,1,70,23.8a7.36,7.36,0,0,1,.23,1.81A8.41,8.41,0,0,1,69.55,29a12,12,0,0,1-1.9,3,17.46,17.46,0,0,1-2.78,2.54,27.37,27.37,0,0,1-3.33,2.14L58.13,33.9c.81-.42,1.71-.92,2.7-1.47a20.29,20.29,0,0,0,2.81-1.89,11.39,11.39,0,0,0,2.19-2.27,4.52,4.52,0,0,0,.87-2.66,1.9,1.9,0,0,0-.18-.76,7.72,7.72,0,0,0-.4-.82c-.16-.27-.32-.54-.5-.8l-.48-.71Zm-.89-2.25-1.41-1-1.4-1c.38-.48.73-.92,1-1.34s.68-.86,1.08-1.33l1.37,1,1.37,1Z"/><path class="cls-1" d="M92.18,27.11A8.27,8.27,0,0,1,90,26.86a4.73,4.73,0,0,1-1.6-.75,4.2,4.2,0,0,1-1.13-1.24,8.44,8.44,0,0,1-.79-1.71,11.2,11.2,0,0,1-1.92.68,7.68,7.68,0,0,1-1.78.24A3.17,3.17,0,0,1,80,22.88,4.81,4.81,0,0,1,79.15,20a4.48,4.48,0,0,1,.54-2.17A7.93,7.93,0,0,1,81,16a11.16,11.16,0,0,1,1.75-1.48,17,17,0,0,1,1.76-1.07l-.22-1.31,3.28-2.42,1.88,10.53a3.24,3.24,0,0,0,.75,1.72,2.69,2.69,0,0,0,2,.55Zm-6.62-7.72A2.6,2.6,0,0,0,85.5,19c0-.2-.07-.43-.12-.68s-.09-.47-.12-.67-.07-.34-.09-.41-.37.2-.68.39a7.75,7.75,0,0,0-.91.66,5.56,5.56,0,0,0-.76.78,1,1,0,0,0-.25.77c0,.21.17.32.44.33a3.14,3.14,0,0,0,.93-.1,7.49,7.49,0,0,0,1-.32A3.14,3.14,0,0,0,85.56,19.39Z"/><path class="cls-1" d="M93.56,34.4l-1.4-1-1.41-1c.38-.48.73-.92,1-1.34s.68-.86,1.09-1.33l1.37,1c.43.32.89.64,1.37,1Zm-.25-11.92q2.28,0,2.28-.81a1,1,0,0,0-.16-.4c-.11-.19-.24-.39-.39-.62s-.32-.45-.48-.69l-.39-.57,2.63-3.67c.16.22.38.53.64.93A11.13,11.13,0,0,1,98.2,18a12.53,12.53,0,0,1,.66,1.7,6.54,6.54,0,0,1,.29,1.93,5.25,5.25,0,0,1-1.5,4,6.12,6.12,0,0,1-4.34,1.39H92.17a2,2,0,0,1-.55-.07c-.17-.05-.26-.11-.26-.18V22.77c0-.1.09-.17.26-.21a2,2,0,0,1,.55-.08Z"/><path class="cls-1" d="M9.68,68l-7.51,2.1-.28-1.32,7.47-2.24Z"/><path class="cls-1" d="M5.09,63.11a11.77,11.77,0,0,1-2.72-.32,7.05,7.05,0,0,1-2.37-1l1.35-2.28a4.08,4.08,0,0,0,1.85.82,12.06,12.06,0,0,0,2.07.18c.42,0,.89,0,1.4-.07a5.36,5.36,0,0,0,1.42-.33,2.94,2.94,0,0,0,1.12-.71,1.66,1.66,0,0,0,.47-1.24,3.18,3.18,0,0,0-.55-1.76,7.75,7.75,0,0,0-1.34-1.53,13.86,13.86,0,0,0-1.67-1.27l-1.53-1,1.07-2.7c.73.5,1.46,1.05,2.18,1.65a13.72,13.72,0,0,1,1.93,2,10.17,10.17,0,0,1,1.35,2.26,6.62,6.62,0,0,1,.51,2.6A3.77,3.77,0,0,1,11,60.62a5,5,0,0,1-1.58,1.46,6.84,6.84,0,0,1-2.12.8A11.63,11.63,0,0,1,5.09,63.11Z"/><path class="cls-1" d="M20,62.61a7.34,7.34,0,0,1-.89,3.27,12.71,12.71,0,0,1-2,2.83A16.85,16.85,0,0,1,14.37,71a22.25,22.25,0,0,1-2.81,1.69L9.93,70.86a27.25,27.25,0,0,0,2.75-1.51,17.53,17.53,0,0,0,2.42-1.81,11,11,0,0,0,1.82-2.08,5.8,5.8,0,0,0,.9-2.35A4.59,4.59,0,0,0,17.34,61a14.05,14.05,0,0,0-1.08-1.74l1.78-2c.3.43.58.84.82,1.23a6.49,6.49,0,0,0,.74,1,3.67,3.67,0,0,0,.86.73,2.08,2.08,0,0,0,1.13.29v2.63A3,3,0,0,1,20,62.61Z"/><path class="cls-1" d="M20.78,60.73c0-.1.08-.16.26-.2a2.5,2.5,0,0,1,.55-.05h3.28a12.17,12.17,0,0,0,1.56-.11A7.14,7.14,0,0,0,28,60a3.15,3.15,0,0,0,1.18-.75A1.77,1.77,0,0,0,29.6,58v-.24a.59.59,0,0,0,0-.23,9.1,9.1,0,0,1-1.49.57,5.45,5.45,0,0,1-1.46.22,2.6,2.6,0,0,1-1.8-.66,2.91,2.91,0,0,1-.73-2.23,6.75,6.75,0,0,1,.29-1.76,9,9,0,0,1,.8-1.92,6.7,6.7,0,0,1,1.19-1.55,2,2,0,0,1,3.13.22,7.18,7.18,0,0,1,1.18,2,13.39,13.39,0,0,1,.69,2.42,11.94,11.94,0,0,1,.23,2q0,6.23-6.4,6.23h-3.6A2,2,0,0,1,21,63c-.18,0-.26-.11-.26-.18Zm6.9-13.81-2.35-1.63,1.78-2.17,2.31,1.63Zm-.61,8.9a3.34,3.34,0,0,0,1.07-.2,6.24,6.24,0,0,0,1-.44c-.08-.31-.16-.64-.27-1a7.43,7.43,0,0,0-.37-1,2.75,2.75,0,0,0-.5-.73.89.89,0,0,0-.64-.28.79.79,0,0,0-.55.23,2.21,2.21,0,0,0-.48.59,3.1,3.1,0,0,0-.36.78,2.44,2.44,0,0,0-.14.82,1.32,1.32,0,0,0,.28.85A1.15,1.15,0,0,0,27.07,55.82Z"/><path class="cls-1" d="M53.36,63.11a5,5,0,0,1-3.54-1,5.93,5.93,0,0,1-1.51-3.17l0-.14a7,7,0,0,1-1.94.94,7.42,7.42,0,0,1-2.3.37,3,3,0,0,1-1.79-.48,2.4,2.4,0,0,1-.91-1.19,3.18,3.18,0,0,1-.11-1.58,5,5,0,0,1,.57-1.62,11.69,11.69,0,0,1,5-4.2l-.36-1.95,2-1.5,1.7,8.75c.15.67.29,1.26.43,1.78A5,5,0,0,0,51,59.41a2.29,2.29,0,0,0,.87.8,3.1,3.1,0,0,0,1.39.27h.25v2.63Zm-6.19-9.89a8.14,8.14,0,0,0-1.51.82,7.69,7.69,0,0,0-1.4,1.17c-.72.71-1,1.28-.81,1.69s.71.56,1.59.45a7.56,7.56,0,0,0,1.63-.43,3.81,3.81,0,0,0,1.14-.61Z"/><path class="cls-1" d="M54.61,70.22,52.3,68.59,54,66.42l2.35,1.63Zm-1.89-9.49c0-.1.09-.16.27-.2a2.5,2.5,0,0,1,.55-.05h.71a5.16,5.16,0,0,0,2.23-.41,1.38,1.38,0,0,0,.83-1.3,2.63,2.63,0,0,0-.51-1.44c-.35-.51-.67-1-1-1.37l1.81-2A8.18,8.18,0,0,1,59,56.1a6.86,6.86,0,0,1,.5,2.46q0,4.55-5.34,4.55h-.57A2,2,0,0,1,53,63q-.27-.07-.27-.18Z"/><path class="cls-1" d="M75.63,62.61a7.47,7.47,0,0,1-.89,3.27,12.71,12.71,0,0,1-2,2.83A16.85,16.85,0,0,1,70,71a22.25,22.25,0,0,1-2.81,1.69l-1.64-1.85a26.35,26.35,0,0,0,2.76-1.51,17.53,17.53,0,0,0,2.42-1.81,11.31,11.31,0,0,0,1.82-2.08,5.8,5.8,0,0,0,.9-2.35A4.59,4.59,0,0,0,73,61a14.05,14.05,0,0,0-1.08-1.74l1.78-2c.3.43.58.84.81,1.23a7.21,7.21,0,0,0,.75,1,3.67,3.67,0,0,0,.86.73,2.08,2.08,0,0,0,1.13.29v2.63A3,3,0,0,1,75.63,62.61Z"/><path class="cls-1" d="M100.14,63.11a3.7,3.7,0,0,1-3.45-1.57l0,0a9.45,9.45,0,0,1-2.1.91,20.33,20.33,0,0,1-2.31.53A21,21,0,0,1,90,63.2c-.77,0-1.49,0-2.16,0-.9,0-1.72,0-2.47,0a12.46,12.46,0,0,1-2-.22,4.89,4.89,0,0,1-1.51-.55,2.55,2.55,0,0,1-1-1.08,3,3,0,0,1-2.92,1.74h-.71a2,2,0,0,1-.55-.07q-.27-.07-.27-.18V60.73c0-.1.09-.16.27-.2a2.5,2.5,0,0,1,.55-.05h.18a2.29,2.29,0,0,0,2-.75A5,5,0,0,0,79.94,57l2.1-.71a12.44,12.44,0,0,0,.17,2.2,2.39,2.39,0,0,0,.93,1.66,4.19,4.19,0,0,0,1.88.48q1.5-1.82,2.83-3.27a23.42,23.42,0,0,1,2.65-2.51,11,11,0,0,1,2.64-1.6,7,7,0,0,1,2.77-.55,3.45,3.45,0,0,1,1.42.3,4.32,4.32,0,0,1,1.21.8,3.51,3.51,0,0,1,1.14,2.6,6,6,0,0,1-.32,2A6.57,6.57,0,0,1,98.54,60a3.08,3.08,0,0,0,1.85.5h.93v2.63Zm-5.55-7.79a3.9,3.9,0,0,0-1.92.57,12.85,12.85,0,0,0-2,1.4A25.15,25.15,0,0,0,88.9,59l-1.49,1.58h.28l1.71,0c.66,0,1.36-.05,2.08-.11s1.44-.14,2.15-.26a8.27,8.27,0,0,0,1.91-.54,4,4,0,0,0,1.35-.9,1.92,1.92,0,0,0,.51-1.34,2.09,2.09,0,0,0-.24-1.05,1.92,1.92,0,0,0-.66-.64,3.8,3.8,0,0,0-.91-.34A4.78,4.78,0,0,0,94.59,55.32Z"/><path class="cls-1" d="M101.32,63.11a2,2,0,0,1-.55-.07q-.27-.07-.27-.18V60.73c0-.1.09-.16.27-.2a2.45,2.45,0,0,1,.55-.05h3.31v2.63Z"/><path class="cls-1" d="M104.63,63.11a2.1,2.1,0,0,1-.56-.07c-.17,0-.26-.11-.26-.18V60.73c0-.1.09-.16.26-.2a2.59,2.59,0,0,1,.56-.05h3.3v2.63Z"/><path class="cls-1" d="M126,63.11a5.23,5.23,0,0,1-2-.32,3.2,3.2,0,0,1-1.25-.89,4,4,0,0,1-.74-1.33,16.41,16.41,0,0,1-.48-1.66l-2.73,1.44q-1.37.74-2.79,1.35a19.78,19.78,0,0,1-2.88,1,11.38,11.38,0,0,1-3,.39h-2.32a2,2,0,0,1-.55-.07c-.18,0-.26-.11-.26-.18V60.73c0-.1.08-.16.26-.2a2.5,2.5,0,0,1,.55-.05h2.28a13,13,0,0,0,3-.32,19.16,19.16,0,0,0,2.56-.8c.81-.32,1.6-.68,2.37-1.07s1.57-.78,2.4-1.16c-1.71-.71-3.1-1.27-4.18-1.67a8.25,8.25,0,0,0-2.11-.6,1.8,1.8,0,0,0-1,.32,5,5,0,0,0-1.09,1.06l-1.64-.82c1.19-2.22,2.36-3.34,3.53-3.34a6.41,6.41,0,0,1,2.31.53c.88.36,1.8.76,2.77,1.2s2,.83,3,1.19a9.65,9.65,0,0,0,3.09.53,6.59,6.59,0,0,0,1.64-.21l-.57,2.52a7.66,7.66,0,0,0-3.34.57,2.38,2.38,0,0,0,1.31,1.71,7.05,7.05,0,0,0,2.49.36h1.78v2.63Z"/><path class="cls-1" d="M136.5,63.11a5.69,5.69,0,0,1-2.76-.53A3.14,3.14,0,0,1,132.41,61a4,4,0,0,1-1.69,1.64,4.78,4.78,0,0,1-2.12.5h-.14a2,2,0,0,1-.55-.07q-.27-.07-.27-.18V60.73c0-.1.09-.16.27-.2a2.5,2.5,0,0,1,.55-.05,4.33,4.33,0,0,0,2.26-.59,2.16,2.16,0,0,0,1-2V56.74l1.85-.68a12.64,12.64,0,0,0,.14,2,3.36,3.36,0,0,0,.52,1.37,2.16,2.16,0,0,0,1,.79,5,5,0,0,0,1.69.25v2.63Zm-3.91-9.25-2.35-1.64L132,50.05l2.31,1.64Z"/><path class="cls-1" d="M136.11,60.73c0-.1.09-.16.27-.2a2.45,2.45,0,0,1,.55-.05h.53a3.31,3.31,0,0,0,.77-.09c.25-.06.43-.12.55-.16a2.58,2.58,0,0,0,1.1-.86,7.94,7.94,0,0,0,.84-1.37c.25-.51.48-1,.69-1.58a9.83,9.83,0,0,1,.73-1.49,4.46,4.46,0,0,1,.92-1.11,2,2,0,0,1,1.27-.42,2.36,2.36,0,0,1,1.63.65,5.37,5.37,0,0,1,1.18,1.61,9.48,9.48,0,0,1,.92,3.82,5.51,5.51,0,0,1-.14,1.25,4.54,4.54,0,0,1-.43,1.17,2.46,2.46,0,0,1-.76.87,1.86,1.86,0,0,1-1.12.34,3.37,3.37,0,0,1-1.1-.21,8.51,8.51,0,0,1-1.2-.54c-.39-.21-.76-.44-1.12-.67a9.7,9.7,0,0,1-.89-.68,4.18,4.18,0,0,1-1.42,1.57,4.47,4.47,0,0,1-2.35.53h-.6a2,2,0,0,1-.55-.07q-.27-.07-.27-.18Zm6.19-1.82c.47.33,1,.64,1.48.93a2.8,2.8,0,0,0,1.26.42.6.6,0,0,0,.57-.39,2.11,2.11,0,0,0,.18-.89,4.64,4.64,0,0,0-.11-1,3.77,3.77,0,0,0-.32-.91,2.5,2.5,0,0,0-.5-.67.87.87,0,0,0-.6-.27c-.24,0-.54.19-.91.57A5.62,5.62,0,0,0,142.3,58.91Z"/><path class="cls-1" d="M2.67,98.42a4.41,4.41,0,0,1-1.55-1.8,7.48,7.48,0,0,1-.64-2.49C.4,93.2.36,92.29.36,91.39V77.69L2.6,76.2l0,16.29A13.87,13.87,0,0,0,2.63,94,3.3,3.3,0,0,0,3,95.23a2.25,2.25,0,0,0,.9.91,3.45,3.45,0,0,0,1.64.34v2.63A5.15,5.15,0,0,1,2.67,98.42Z"/><path class="cls-1" d="M4.73,96.73c0-.1.09-.16.27-.2a2.5,2.5,0,0,1,.55,0H9.34a2.48,2.48,0,0,0,.41,0,5.12,5.12,0,0,1-1.27-1.28A2.88,2.88,0,0,1,8,93.56a3.3,3.3,0,0,1,.34-1.44,5.87,5.87,0,0,1,.87-1.37,6.87,6.87,0,0,1,1.21-1.14,9.71,9.71,0,0,1,1.32-.82,4.92,4.92,0,0,0-.5-.37,5.66,5.66,0,0,1-.47-.34l1.07-2.49c.78.59,1.6,1.24,2.44,1.94a26.58,26.58,0,0,1,2.38,2.24,19.67,19.67,0,0,1,2,2.46A8.91,8.91,0,0,1,20,94.8a7.41,7.41,0,0,1,.34,2.25,4,4,0,0,1-.45,1.88,2.13,2.13,0,0,1-1.28,1,3.39,3.39,0,0,1-2.17-.23q-.88-.36-1.92-.84L12.59,98a7.12,7.12,0,0,1-1.95.83,8.17,8.17,0,0,1-2.07.27h-3A2,2,0,0,1,5,99q-.27-.08-.27-.18Zm7-2a2.41,2.41,0,0,1,.41.22c.16.09.33.19.52.28l.3-.25a.82.82,0,0,1,.2-.14,1.88,1.88,0,0,0,.58-.87,3.11,3.11,0,0,0,.2-1,3.56,3.56,0,0,0-.09-.76,2.7,2.7,0,0,0-.28-.75,1.83,1.83,0,0,0-.48-.55,1.07,1.07,0,0,0-.64-.21,1.71,1.71,0,0,0-.8.21,2.57,2.57,0,0,0-.75.57,3.49,3.49,0,0,0-.57.77,1.47,1.47,0,0,0-.23.76,1.28,1.28,0,0,0,.51,1A7,7,0,0,0,11.7,94.73Zm4-2.45a6.45,6.45,0,0,1-.26,2.15,6.36,6.36,0,0,1-.84,1.76l1.48.7c.44.2.75.33.94.4.66.22,1.06.1,1.19-.35A2.37,2.37,0,0,0,18,95.3,9.79,9.79,0,0,0,17,93.83C16.63,93.32,16.2,92.8,15.72,92.28Z"/><path class="cls-1" d="M39.24,90.32a11,11,0,0,1,1.62,3.38,10.65,10.65,0,0,1,.39,3.42,8.92,8.92,0,0,1-.75,3.16,8.15,8.15,0,0,1-1.83,2.62,8.58,8.58,0,0,1-2.83,1.78,9.94,9.94,0,0,1-3.72.65,7.93,7.93,0,0,1-4.51-1.17,6.43,6.43,0,0,1-2.48-3,8.53,8.53,0,0,1-.49-4.06,11.09,11.09,0,0,1,1.4-4.3l1.74.78a10.92,10.92,0,0,0-.92,4.66,4.31,4.31,0,0,0,.94,2.54,5,5,0,0,0,2.05,1.5,6.83,6.83,0,0,0,2.63.46,7.42,7.42,0,0,0,2.7-.53,6.43,6.43,0,0,0,2.25-1.53,4.93,4.93,0,0,0,1.24-2.51A7.38,7.38,0,0,0,38.6,95a9.38,9.38,0,0,0-1.42-3.17Zm-6.76.54-2.35-1.64,1.78-2.17,2.31,1.64Z"/><path class="cls-1" d="M47.85,98.42a4.41,4.41,0,0,1-1.55-1.8,7.48,7.48,0,0,1-.64-2.49c-.08-.93-.12-1.84-.12-2.74V77.69l2.24-1.49,0,16.29c0,.5,0,1,.07,1.46a3.48,3.48,0,0,0,.38,1.28,2.25,2.25,0,0,0,.9.91,3.45,3.45,0,0,0,1.64.34v2.63A5.15,5.15,0,0,1,47.85,98.42Z"/><path class="cls-1" d="M50.73,99.11a2,2,0,0,1-.55-.07q-.27-.08-.27-.18V96.73c0-.1.09-.16.27-.2a2.5,2.5,0,0,1,.55,0H54v2.63Z"/><path class="cls-1" d="M74.6,99.11a3.67,3.67,0,0,1-2.06-.48,2.51,2.51,0,0,1-1-1.34,2.94,2.94,0,0,1-1.37,1.45,4.43,4.43,0,0,1-1.9.4,4.31,4.31,0,0,1-2-.46,3.45,3.45,0,0,1-1.42-1.39,3.13,3.13,0,0,1-1.64,1.46,5.78,5.78,0,0,1-2.06.39,4,4,0,0,1-1.87-.44,2.9,2.9,0,0,1-1.33-1.41,3.5,3.5,0,0,1-3.38,1.82H54a2,2,0,0,1-.55-.07q-.27-.08-.27-.18V96.73c0-.1.09-.16.27-.2a2.45,2.45,0,0,1,.55,0h.07q3,0,3-3.35l1.78-.64A12.68,12.68,0,0,0,58.93,94a4.63,4.63,0,0,0,.32,1.26,2,2,0,0,0,.69.86,2.2,2.2,0,0,0,1.25.32,3,3,0,0,0,2-.64,3.24,3.24,0,0,0,.71-2.42v-.29l1.78-.67c0,.49.06,1,.12,1.47a4.2,4.2,0,0,0,.36,1.3,2.43,2.43,0,0,0,.74.93,2.2,2.2,0,0,0,1.3.35,2.56,2.56,0,0,0,1.28-.28,2,2,0,0,0,.77-.77,3.36,3.36,0,0,0,.37-1.08,7.36,7.36,0,0,0,.11-1.25l1.64-.64c0,.59,0,1.13.1,1.62a3.52,3.52,0,0,0,.34,1.26,1.88,1.88,0,0,0,.78.82,3,3,0,0,0,1.44.29h.5v2.63Z"/><path class="cls-1" d="M74.74,96.73c0-.1.09-.16.27-.2a2.5,2.5,0,0,1,.55,0h.71a5.16,5.16,0,0,0,2.23-.41,1.38,1.38,0,0,0,.83-1.3,2.63,2.63,0,0,0-.51-1.44c-.35-.51-.67-1-1-1.37l1.81-2A8.18,8.18,0,0,1,81,92.1a6.86,6.86,0,0,1,.5,2.46q0,4.55-5.34,4.55h-.57A2,2,0,0,1,75,99q-.27-.08-.27-.18Zm4.2-8.65-2.35-1.64,1.78-2.17,2.31,1.64Z"/><path class="cls-1" d="M87.8,98.61l-1.81.5c0-1.28-.09-2.79-.13-4.54S85.79,91,85.75,89s-.07-3.92-.12-5.92-.1-3.92-.14-5.75l2.31-.92Z"/><path class="cls-1" d="M114.69,99.11a2.45,2.45,0,0,1,.81,1.88,3.69,3.69,0,0,1-.66,2,6.49,6.49,0,0,1-1.5,1.44,12.21,12.21,0,0,1-2.17,1.25,13.14,13.14,0,0,1-2.59.87,12.75,12.75,0,0,1-2.81.32,10.21,10.21,0,0,1-4.77-1,6.51,6.51,0,0,1-2.83-2.76,7.52,7.52,0,0,1-.77-4,12.25,12.25,0,0,1,1.46-4.8l1.82.67a10.67,10.67,0,0,0-1,3.49,5.46,5.46,0,0,0,.41,3,4.29,4.29,0,0,0,2,2,7.87,7.87,0,0,0,3.72.75,13.34,13.34,0,0,0,5.94-1.46,5.84,5.84,0,0,0,.8-.48,3.24,3.24,0,0,0,.6-.54,1,1,0,0,0,.27-.49c0-.16-.06-.27-.25-.34l-4.55-1.78c.16-.59.29-1.07.37-1.42a2.93,2.93,0,0,1,.27-.8.64.64,0,0,1,.33-.34,1.66,1.66,0,0,1,.56-.07h5.4v2.63Z"/><path class="cls-1" d="M114.69,96.73c0-.1.09-.16.27-.2a2.5,2.5,0,0,1,.55,0h2.32a12.57,12.57,0,0,0,3-.31,14,14,0,0,0,2.39-.78,22.64,22.64,0,0,0,2.15-1.07c.7-.39,1.45-.76,2.26-1.12l-2.17-.92-1.57-.66c-.42-.18-.78-.31-1.06-.41a2.47,2.47,0,0,0-.68-.14,3.11,3.11,0,0,0-1.25.3,3.69,3.69,0,0,0-1.28,1l-1.6-.72a6.94,6.94,0,0,1,1.94-2.47,3.45,3.45,0,0,1,1.94-.8,5.54,5.54,0,0,1,2.46.66c.87.44,1.88.88,3,1.33.52.24,1,.44,1.42.59a10.09,10.09,0,0,0,1.3.37,11.45,11.45,0,0,0,1.42.22c.51,0,1.12.07,1.84.07l-.61,2.56c-.47,0-.91,0-1.3,0s-.75.08-1.08.13a7.18,7.18,0,0,0-2.74,1c-.86.53-1.75,1.06-2.69,1.6a21.6,21.6,0,0,1-3.09,1.48,11,11,0,0,1-4,.66h-2.32A2,2,0,0,1,115,99q-.27-.08-.27-.18ZM123,85.87l-2.35-1.63,1.78-2.17,2.31,1.63Z"/><path class="cls-1" d="M141.7,98.61a7.61,7.61,0,0,1-.89,3.27,13.08,13.08,0,0,1-2.05,2.83,16.78,16.78,0,0,1-2.68,2.31,22.33,22.33,0,0,1-2.82,1.69l-1.63-1.85a26.35,26.35,0,0,0,2.76-1.51,18,18,0,0,0,2.41-1.81,11,11,0,0,0,1.82-2.08,5.82,5.82,0,0,0,.91-2.35,4.59,4.59,0,0,0-.48-2.14A14.12,14.12,0,0,0,138,95.23l1.78-2c.31.43.58.84.82,1.23a6.49,6.49,0,0,0,.74,1,3.88,3.88,0,0,0,.86.73,2.14,2.14,0,0,0,1.14.29v2.63A3,3,0,0,1,141.7,98.61Z"/><path class="cls-1" d="M142.48,96.73c0-.1.09-.16.27-.2a2.45,2.45,0,0,1,.55,0H144a5.14,5.14,0,0,0,2.22-.41,1.37,1.37,0,0,0,.84-1.3,2.57,2.57,0,0,0-.52-1.44c-.34-.51-.67-1-1-1.37l1.82-2a7.87,7.87,0,0,1,1.31,2.1,6.66,6.66,0,0,1,.5,2.46q0,4.55-5.33,4.55h-.57a2,2,0,0,1-.55-.07q-.27-.08-.27-.18Zm3.16,9.49-2.31-1.63,1.75-2.17,2.34,1.63Z"/><path class="cls-1" d="M2.67,134.42a4.41,4.41,0,0,1-1.55-1.8,7.48,7.48,0,0,1-.64-2.49c-.08-.93-.12-1.84-.12-2.74v-13.7L2.6,112.2l0,16.29A13.87,13.87,0,0,0,2.63,130,3.3,3.3,0,0,0,3,131.23a2.25,2.25,0,0,0,.9.91,3.45,3.45,0,0,0,1.64.34v2.63A5.15,5.15,0,0,1,2.67,134.42Z"/><path class="cls-1" d="M4.73,132.73c0-.1.09-.16.27-.2a2.5,2.5,0,0,1,.55-.05H9.34a2.48,2.48,0,0,0,.41,0,5.12,5.12,0,0,1-1.27-1.28,2.88,2.88,0,0,1-.44-1.6,3.3,3.3,0,0,1,.34-1.44,5.87,5.87,0,0,1,.87-1.37,6.87,6.87,0,0,1,1.21-1.14,9.71,9.71,0,0,1,1.32-.82,4.92,4.92,0,0,0-.5-.37,5.66,5.66,0,0,1-.47-.34l1.07-2.49c.78.59,1.6,1.24,2.44,1.94a26.58,26.58,0,0,1,2.38,2.24,19.67,19.67,0,0,1,2,2.46A8.91,8.91,0,0,1,20,130.8a7.41,7.41,0,0,1,.34,2.25,4,4,0,0,1-.45,1.88,2.13,2.13,0,0,1-1.28,1,3.39,3.39,0,0,1-2.17-.23q-.88-.36-1.92-.84l-1.89-.9a7.12,7.12,0,0,1-1.95.83,8.17,8.17,0,0,1-2.07.27h-3A2,2,0,0,1,5,135q-.27-.07-.27-.18Zm7-2a2.41,2.41,0,0,1,.41.22c.16.09.33.19.52.28l.3-.25a.82.82,0,0,1,.2-.14,1.88,1.88,0,0,0,.58-.87,3.11,3.11,0,0,0,.2-1,3.56,3.56,0,0,0-.09-.76,2.7,2.7,0,0,0-.28-.75,1.83,1.83,0,0,0-.48-.55,1.07,1.07,0,0,0-.64-.21,1.71,1.71,0,0,0-.8.21,2.57,2.57,0,0,0-.75.57,3.49,3.49,0,0,0-.57.77,1.47,1.47,0,0,0-.23.76,1.28,1.28,0,0,0,.51,1A7,7,0,0,0,11.7,130.73Zm4-2.45a6.45,6.45,0,0,1-.26,2.15,6.36,6.36,0,0,1-.84,1.76l1.48.7c.44.2.75.33.94.4.66.22,1.06.1,1.19-.35A2.37,2.37,0,0,0,18,131.3a9.79,9.79,0,0,0-.95-1.47C16.63,129.32,16.2,128.8,15.72,128.28Z"/><path class="cls-1" d="M28.71,134.61a6.63,6.63,0,0,1-.82,3.2,13.06,13.06,0,0,1-2.06,2.85A17.85,17.85,0,0,1,23.11,143a24.07,24.07,0,0,1-2.83,1.7l-1.64-1.85a27.33,27.33,0,0,0,2.83-1.56A17.34,17.34,0,0,0,24,139.36a10.06,10.06,0,0,0,1.85-2.24,4.78,4.78,0,0,0,.71-2.51,4,4,0,0,0-.53-2,20,20,0,0,0-1.1-1.78L26.82,129a11.91,11.91,0,0,1,1.44,2.81A8.78,8.78,0,0,1,28.71,134.61Z"/><path class="cls-1" d="M35.29,134.42a4.48,4.48,0,0,1-1.55-1.8,7.72,7.72,0,0,1-.64-2.49c-.08-.93-.12-1.84-.12-2.74v-13.7l2.24-1.49,0,16.29a13.83,13.83,0,0,0,.08,1.46,3.29,3.29,0,0,0,.37,1.28,2.22,2.22,0,0,0,.91.91,3.38,3.38,0,0,0,1.63.34v2.63A5.15,5.15,0,0,1,35.29,134.42Z"/><path class="cls-1" d="M37.35,132.73c0-.1.09-.16.27-.2a2.5,2.5,0,0,1,.55-.05H39.6c2.58,0,3.87-.92,3.87-2.74a3.27,3.27,0,0,0-.66-1.85A12.41,12.41,0,0,0,41.28,126c-.58-.6-1.17-1.15-1.77-1.66s-1.08-.93-1.41-1.26c.07-1.54.29-2.45.64-2.74a53.69,53.69,0,0,1,5.89-3.54q3.46-1.83,7.67-3.68L51.94,116a11.64,11.64,0,0,0-1.33.57l-2.07,1c-.77.36-1.58.76-2.43,1.19s-1.66.84-2.42,1.24-1.43.77-2,1.11a13.43,13.43,0,0,0-1.27.78q5.13,4.27,5.13,7.68A5,5,0,0,1,45,132a5.29,5.29,0,0,1-1.51,1.74,6.58,6.58,0,0,1-2.16,1.05,8.77,8.77,0,0,1-2.52.36h-.61a2,2,0,0,1-.55-.07q-.27-.07-.27-.18Z"/><path class="cls-1" d="M47.6,142.86c.92-.47,1.84-1,2.74-1.54a16.5,16.5,0,0,0,2.45-1.84,10,10,0,0,0,1.85-2.18,6.41,6.41,0,0,0,.93-2.65,7.56,7.56,0,0,1-1.16.46,4.26,4.26,0,0,1-1.26.18,3.67,3.67,0,0,1-2.35-.79,2.93,2.93,0,0,1-1-2.45,6.55,6.55,0,0,1,.26-1.78,6.9,6.9,0,0,1,.77-1.78A5,5,0,0,1,52,127.14a2.49,2.49,0,0,1,1.58-.53,2.84,2.84,0,0,1,2,.73,5.48,5.48,0,0,1,1.28,1.77,8.83,8.83,0,0,1,.67,2.21,12.23,12.23,0,0,1,.2,2,9.91,9.91,0,0,1-.71,3.79,12.1,12.1,0,0,1-1.89,3.13,15.13,15.13,0,0,1-2.7,2.53,23.45,23.45,0,0,1-3.17,2Zm5.8-10.17a4.68,4.68,0,0,0,1.14-.14,2.6,2.6,0,0,0,1-.5,6.16,6.16,0,0,0-.63-1.87,1.49,1.49,0,0,0-1.44-.83,1.51,1.51,0,0,0-1.19.62,2.19,2.19,0,0,0-.51,1.44,1,1,0,0,0,.51,1A2.6,2.6,0,0,0,53.4,132.69Z"/><path class="cls-1" d="M89,135.11c-2.06,0-3.29-.89-3.66-2.67a8.87,8.87,0,0,1-4.9,2.53,41.35,41.35,0,0,1-8.94.85q-1.53,0-3.21-.12a11.69,11.69,0,0,1-3.07-.64,5.6,5.6,0,0,1-2.32-1.57,4.24,4.24,0,0,1-.9-2.86,6,6,0,0,1,.28-1.82,5.39,5.39,0,0,1,.82-1.6l1.67.46a4.6,4.6,0,0,0-.53,1.27,4.78,4.78,0,0,0-.14,1.19,2.06,2.06,0,0,0,.78,1.74,5.17,5.17,0,0,0,1.92.89,12.38,12.38,0,0,0,2.44.34c.86,0,1.65.05,2.36.05s1.57,0,2.49-.05,1.87-.1,2.83-.18,1.9-.2,2.83-.35a16.13,16.13,0,0,0,2.51-.63,7.25,7.25,0,0,0,1.85-.92A2.28,2.28,0,0,0,85,129.7l.17-1,1.46-.5a7.23,7.23,0,0,0,.55,3.15,2.3,2.3,0,0,0,2.26,1.09h.11v2.63Zm-14.55,7.11-2.31-1.63,1.74-2.17,2.35,1.63Z"/><path class="cls-1" d="M89.58,135.11A2,2,0,0,1,89,135q-.27-.07-.27-.18v-2.13c0-.1.09-.16.27-.2a2.5,2.5,0,0,1,.55-.05h3.31v2.63Z"/><path class="cls-1" d="M92.89,135.11a2,2,0,0,1-.55-.07q-.27-.07-.27-.18v-2.13c0-.1.09-.16.27-.2a2.45,2.45,0,0,1,.55-.05H96.2v2.63Z"/><path class="cls-1" d="M116.76,135.11a3.73,3.73,0,0,1-2.07-.48,2.54,2.54,0,0,1-1-1.34,2.94,2.94,0,0,1-1.37,1.45,4.46,4.46,0,0,1-1.9.4,4.31,4.31,0,0,1-2-.46,3.48,3.48,0,0,1-1.43-1.39,3.08,3.08,0,0,1-1.63,1.46,5.83,5.83,0,0,1-2.07.39,4,4,0,0,1-1.86-.44,3,3,0,0,1-1.34-1.41,3.49,3.49,0,0,1-3.38,1.82h-.5a2.08,2.08,0,0,1-.55-.07c-.17,0-.26-.11-.26-.18v-2.13c0-.1.09-.16.26-.2a2.56,2.56,0,0,1,.55-.05h.08c2,0,3-1.12,3-3.35l1.78-.64a12.68,12.68,0,0,0,.09,1.55,4.29,4.29,0,0,0,.32,1.26,2,2,0,0,0,.69.86,2.18,2.18,0,0,0,1.25.32,3,3,0,0,0,2-.64,3.19,3.19,0,0,0,.71-2.42v-.29l1.78-.67c0,.49.07,1,.13,1.47a4.5,4.5,0,0,0,.35,1.3,2.45,2.45,0,0,0,.75.93,2.18,2.18,0,0,0,1.3.35,2.56,2.56,0,0,0,1.28-.28,2,2,0,0,0,.77-.77,3.62,3.62,0,0,0,.37-1.08,7.36,7.36,0,0,0,.11-1.25l1.63-.64c0,.59.06,1.13.11,1.62a3.52,3.52,0,0,0,.34,1.26,1.82,1.82,0,0,0,.78.82,3,3,0,0,0,1.44.29h.5v2.63Z"/><path class="cls-1" d="M116.9,132.73c0-.1.09-.16.27-.2a2.45,2.45,0,0,1,.55-.05h1.42c2.59,0,3.88-.92,3.88-2.74a3.27,3.27,0,0,0-.66-1.85,13.77,13.77,0,0,0-1.53-1.85,22.9,22.9,0,0,0-1.78-1.66c-.6-.51-1.07-.93-1.4-1.26.07-1.54.28-2.45.64-2.74a52.76,52.76,0,0,1,5.89-3.54q3.46-1.83,7.66-3.68l-.35,2.81a11.59,11.59,0,0,0-1.34.57l-2.06,1c-.77.36-1.58.76-2.44,1.19s-1.66.84-2.42,1.24-1.43.77-2,1.11a14.37,14.37,0,0,0-1.26.78q5.12,4.27,5.12,7.68a5,5,0,0,1-.57,2.44A5.18,5.18,0,0,1,123,133.7a6.63,6.63,0,0,1-2.15,1.05,8.84,8.84,0,0,1-2.53.36h-.6a2,2,0,0,1-.55-.07q-.27-.07-.27-.18Z"/><path class="cls-1" d="M139.85,134.42a4.41,4.41,0,0,1-1.55-1.8,7.24,7.24,0,0,1-.64-2.49c-.09-.93-.13-1.84-.13-2.74v-13.7l2.24-1.49,0,16.29a13.87,13.87,0,0,0,.07,1.46,3.47,3.47,0,0,0,.37,1.28,2.28,2.28,0,0,0,.91.91,3.42,3.42,0,0,0,1.64.34v2.63A5.11,5.11,0,0,1,139.85,134.42Z"/><path class="cls-1" d="M139.6,140.62l1.53-2,2.1,1.53,1.49-1.78,2.1,1.53-1.6,1.92-2-1.57-1.46,1.82Zm2.31-7.89c0-.1.09-.16.27-.2a2.45,2.45,0,0,1,.55-.05h.71a5.14,5.14,0,0,0,2.22-.41,1.37,1.37,0,0,0,.84-1.3,2.57,2.57,0,0,0-.52-1.44c-.34-.51-.67-1-1-1.37l1.82-2a7.87,7.87,0,0,1,1.31,2.1,6.66,6.66,0,0,1,.5,2.46q0,4.55-5.33,4.55h-.57a2,2,0,0,1-.55-.07q-.27-.07-.27-.18Z"/></svg>