<svg id="Layer_1" data-name="Layer 1" xmlns="http://www.w3.org/2000/svg" viewBox="0 0 202.13 63.06"><defs><style>.cls-1{fill:#231f20;}</style></defs><path class="cls-1" d="M18.8,12.64a6.88,6.88,0,0,0-2.72-.4,3.88,3.88,0,0,0-1.25.22,5.18,5.18,0,0,0-1.19.55,3.87,3.87,0,0,0-.91.76,1.25,1.25,0,0,0-.36.83.59.59,0,0,0,.49.58,6.17,6.17,0,0,0,1.25.2l1.61.11a6.48,6.48,0,0,1,1.61.33,2.82,2.82,0,0,1,1.24.82,2.3,2.3,0,0,1,.5,1.58,6,6,0,0,1-1,3.41,8.71,8.71,0,0,1-2.49,2.46,11.94,11.94,0,0,1-3.33,1.49,13.1,13.1,0,0,1-3.53.51,11.7,11.7,0,0,1-3.63-.51,7.11,7.11,0,0,1-2.57-1.41A5.73,5.73,0,0,1,1,22a7,7,0,0,1-.51-2.69,10.2,10.2,0,0,1,.38-2.64A11.75,11.75,0,0,1,2,13.92l2.6.88a9.92,9.92,0,0,0-.77,1.81,5.65,5.65,0,0,0-.28,1.74,3.86,3.86,0,0,0,.31,1.57,3.34,3.34,0,0,0,1,1.27A5.19,5.19,0,0,0,6.64,22a9.12,9.12,0,0,0,2.55.31,11.78,11.78,0,0,0,2.26-.26,17.1,17.1,0,0,0,2.42-.69,9.54,9.54,0,0,0,1.92-1c.52-.36.78-.72.78-1.07,0-.19-.12-.33-.37-.41a7.44,7.44,0,0,0-1-.18c-.45,0-1-.08-1.55-.11s-1.2-.09-1.85-.18a2.51,2.51,0,0,1-1.66-.82A2.61,2.61,0,0,1,9.55,16a6.39,6.39,0,0,1,.64-2.81,8.27,8.27,0,0,1,1.67-2.33,8.4,8.4,0,0,1,2.35-1.59,6.46,6.46,0,0,1,2.66-.59,5.56,5.56,0,0,1,1.41.18,5,5,0,0,1,1.35.58Z"/><path class="cls-1" d="M25.52,19.22a4,4,0,0,1-1.61-1.5,6.11,6.11,0,0,1-.79-2.26,22.39,22.39,0,0,1-.25-2.86c0-.48,0-1.17-.06-2.06s0-1.88-.07-2.93,0-2.12-.08-3.23-.06-2.13-.08-3.07L25.8,0V13a3.45,3.45,0,0,0,.59,2.21,2.28,2.28,0,0,0,1.9.74v3.81A6,6,0,0,1,25.52,19.22Z"/><path class="cls-1" d="M27.53,16.21c0-.08.09-.15.25-.19a1.7,1.7,0,0,1,.51-.07h2.82a3,3,0,0,1-.59-1.67,4.07,4.07,0,0,1,.71-2.22,7.07,7.07,0,0,1,1.65-1.82l-.72-.46,1.58-3.41c.65.46,1.48,1.06,2.48,1.8a30,30,0,0,1,2.88,2.48,18.12,18.12,0,0,1,2.4,2.86,5.43,5.43,0,0,1,1,2.93,7.71,7.71,0,0,1-.23,2,4.65,4.65,0,0,1-.64,1.51,2.55,2.55,0,0,1-.95.88,1.39,1.39,0,0,1-1.13.09,17.88,17.88,0,0,1-2.28-.79c-.84-.35-1.68-.74-2.51-1.18a8.83,8.83,0,0,1-2.07.64,10.91,10.91,0,0,1-1.81.18H28.29a1.7,1.7,0,0,1-.51-.07c-.16,0-.25-.1-.25-.16Zm6.08-1.15a8.07,8.07,0,0,0,1,.6,2.17,2.17,0,0,0,1.57-2.07A1.13,1.13,0,0,0,36,13a3.14,3.14,0,0,0-.39-.51,2.16,2.16,0,0,0-.51-.36,1.33,1.33,0,0,0-.48-.13,1.12,1.12,0,0,0-.59.18,3,3,0,0,0-.56.46,2.79,2.79,0,0,0-.42.59,1.23,1.23,0,0,0-.17.54,2.37,2.37,0,0,0,.1.55A1.38,1.38,0,0,0,33.61,15.06Zm4.79,0A4.45,4.45,0,0,1,38,16.25a6.88,6.88,0,0,1-.64.95c.27.13.53.25.81.36l.77.33c.31.11.55.18.72.23s.33-.09.46-.4a2.06,2.06,0,0,0-.23-1.85,7.37,7.37,0,0,0-1.38-1.59A2.81,2.81,0,0,1,38.4,15.1Z"/><path class="cls-1" d="M64.13,12.64a6.94,6.94,0,0,0-2.73-.4,3.78,3.78,0,0,0-1.24.22A5.06,5.06,0,0,0,59,13a4,4,0,0,0-.9.76,1.25,1.25,0,0,0-.36.83.58.58,0,0,0,.49.58,6,6,0,0,0,1.25.2l1.6.11a6.39,6.39,0,0,1,1.61.33,2.91,2.91,0,0,1,1.25.82,2.3,2.3,0,0,1,.49,1.58,6.06,6.06,0,0,1-1,3.41,8.75,8.75,0,0,1-2.5,2.46,11.68,11.68,0,0,1-3.33,1.49,13,13,0,0,1-3.53.51,11.63,11.63,0,0,1-3.62-.51,7.25,7.25,0,0,1-2.58-1.41A5.73,5.73,0,0,1,46.32,22a7,7,0,0,1-.51-2.69,10.2,10.2,0,0,1,.38-2.64,11.39,11.39,0,0,1,1.17-2.77L50,14.8a9.92,9.92,0,0,0-.77,1.81,5.65,5.65,0,0,0-.28,1.74,3.86,3.86,0,0,0,.31,1.57,3.34,3.34,0,0,0,1,1.27A5.25,5.25,0,0,0,52,22a9.05,9.05,0,0,0,2.54.31,11.87,11.87,0,0,0,2.27-.26,17.34,17.34,0,0,0,2.41-.69,9.54,9.54,0,0,0,1.92-1c.52-.36.79-.72.79-1.07,0-.19-.13-.33-.38-.41a7,7,0,0,0-1.05-.18c-.45,0-1-.08-1.54-.11s-1.2-.09-1.86-.18a2.56,2.56,0,0,1-1.66-.82A2.61,2.61,0,0,1,54.87,16a6.53,6.53,0,0,1,.64-2.81,8.3,8.3,0,0,1,1.68-2.33,8.5,8.5,0,0,1,2.34-1.59,6.5,6.5,0,0,1,2.66-.59,5.56,5.56,0,0,1,1.41.18A5,5,0,0,1,65,9.39Z"/><path class="cls-1" d="M74.11,19.76a1.71,1.71,0,0,1-.78-.2,2.56,2.56,0,0,1-.64-.46A10.78,10.78,0,0,1,72,21.32a13.68,13.68,0,0,1-1.26,2.33,16.44,16.44,0,0,1-1.85,2.29A15.65,15.65,0,0,1,66.39,28l-3-2.1a16.56,16.56,0,0,0,4.38-3.2,12.07,12.07,0,0,0,1.61-2.07A4,4,0,0,0,70,18.61a2,2,0,0,0-.2-.82,7.8,7.8,0,0,0-.46-.85c-.18-.29-.35-.55-.53-.79l-.42-.59L71,12.83c.25.38.47.75.68,1.12a7.57,7.57,0,0,0,.67,1,3.13,3.13,0,0,0,.79.72,1.77,1.77,0,0,0,1,.28ZM66.72,9.55l1.64-2.23L70.5,8.73l1.21-1.67L74.2,8.73,72.56,11,70.4,9.55l-1.15,1.67Zm1.22-3.64,1.67-2.17,2.3,1.54L70.3,7.45Z"/><path class="cls-1" d="M73.35,16.21c0-.08.08-.15.25-.19a1.68,1.68,0,0,1,.5-.07h2.17c1.12,0,1.67-.26,1.67-.79a1.06,1.06,0,0,0-.06-.34,3.06,3.06,0,0,0-.26-.51,8.17,8.17,0,0,0-.56-.8l-1-1.24,2.13-3a5.56,5.56,0,0,1,1.59,2.26,7.72,7.72,0,0,1,.58,2.92A5.7,5.7,0,0,1,80,16.79a4.43,4.43,0,0,1-1.21,1.65,5.17,5.17,0,0,1-1.82,1,7.55,7.55,0,0,1-2.27.33H74.1a1.68,1.68,0,0,1-.5-.07c-.17,0-.25-.1-.25-.16Zm.23-10.07,1.64-2.23,2.13,1.41,1.22-1.68L81.1,5.32,79.42,7.55,77.26,6.14,76.14,7.81Z"/><path class="cls-1" d="M87,19.33l-3.35.89V1.31L87,0Z"/><path class="cls-1" d="M95.55,19.56a2.56,2.56,0,0,1-.64-.46,7.77,7.77,0,0,1-1.1,2.64,13,13,0,0,1-1.93,2.37,22.09,22.09,0,0,1-2.53,2.08c-.93.66-1.89,1.27-2.87,1.84l-2.79-2.17c.7-.35,1.54-.8,2.53-1.36A29.5,29.5,0,0,0,89,22.68a14.88,14.88,0,0,0,2.28-2,3.11,3.11,0,0,0,.93-2,2,2,0,0,0-.19-.82,7.8,7.8,0,0,0-.46-.85c-.18-.29-.35-.55-.53-.79l-.42-.59,2.52-2.73c.24.38.47.75.68,1.12a6.7,6.7,0,0,0,.67,1,3.13,3.13,0,0,0,.79.72,1.76,1.76,0,0,0,1,.28v3.81A1.67,1.67,0,0,1,95.55,19.56Z"/><path class="cls-1" d="M103.48,19.76a2.93,2.93,0,0,1-3-1.71,4.34,4.34,0,0,1-3.84,1.71h-.3a1.79,1.79,0,0,1-.51-.07c-.16,0-.24-.1-.24-.16V16.21c0-.08.08-.15.24-.19a1.79,1.79,0,0,1,.51-.07h.17c1.64,0,2.46-.56,2.46-1.67V13l2.69-.85v.82c0,2,.66,3,2,3h.2v3.81ZM96.29,8.53,97.93,6.3l2.13,1.41L101.28,6l2.53,1.67-1.68,2.23L100,8.53l-1.12,1.68Z"/><path class="cls-1" d="M103.05,16.21c0-.08.08-.15.25-.19a1.7,1.7,0,0,1,.51-.07h.32a2.2,2.2,0,0,0,1.48-.49,1.72,1.72,0,0,0,.59-1.41v-1l2.3-.79v1a3.69,3.69,0,0,0,.43,1.92,1.39,1.39,0,0,0,1.28.7c1.53,0,2.29-.69,2.29-2.07V12.64l2.33-.69v1.64a2.52,2.52,0,0,0,.66,1.77,2.17,2.17,0,0,0,1.67.72,1.18,1.18,0,0,0,1.38-1.28,2.75,2.75,0,0,0-.33-1.29,3.25,3.25,0,0,0-.75-1l2.26-2.56A6.55,6.55,0,0,1,120.86,12a7.62,7.62,0,0,1,.37,2.37,7.26,7.26,0,0,1-.26,1.95,6,6,0,0,1-.77,1.74,4.09,4.09,0,0,1-1.28,1.24,3.25,3.25,0,0,1-1.76.48,4.89,4.89,0,0,1-2.21-.48,3,3,0,0,1-1.43-1.39,3.09,3.09,0,0,1-1.25,1.33,3.49,3.49,0,0,1-1.67.51,4,4,0,0,1-1.89-.43,3.15,3.15,0,0,1-1.33-1.28,3.07,3.07,0,0,1-1.57,1.31,5.4,5.4,0,0,1-2,.4,1.7,1.7,0,0,1-.51-.07c-.17,0-.25-.1-.25-.16Z"/><path class="cls-1" d="M127.86,19.33l-3.34.89V1.31L127.86,0Z"/><path class="cls-1" d="M152.31,19.76a2.36,2.36,0,0,1,.12,1.15,4.52,4.52,0,0,1-.35,1.18,6.47,6.47,0,0,1-2.18,2.49,10.27,10.27,0,0,1-3.23,1.5,11.75,11.75,0,0,1-3.66.36,9.08,9.08,0,0,1-3.43-.86,6.45,6.45,0,0,1-2.53-2.13,6,6,0,0,1-1-3.53,9.21,9.21,0,0,1,.42-2.8,14.2,14.2,0,0,1,1.09-2.52l2.49.89c-.26.57-.51,1.19-.75,1.87A5.85,5.85,0,0,0,139,19.3a3.68,3.68,0,0,0,.49,2,3.22,3.22,0,0,0,1.31,1.2,5.43,5.43,0,0,0,1.86.51,9.67,9.67,0,0,0,2.08,0,11,11,0,0,0,2.05-.44,11.32,11.32,0,0,0,1.76-.7c.41-.22.63-.4.65-.55s-.06-.24-.26-.31l-3.58-1.21a6.18,6.18,0,0,1,.22-.64c.1-.25.2-.52.31-.79s.22-.54.33-.79a4,4,0,0,1,.32-.6,2.4,2.4,0,0,1,.76-.79,2.43,2.43,0,0,1,1.12-.2h4.1v3.81Z"/><path class="cls-1" d="M151.72,16.21c0-.08.08-.15.25-.19a1.7,1.7,0,0,1,.51-.07h2.89c.7,0,1.26,0,1.7,0a7.12,7.12,0,0,0,1.43-.22,16,16,0,0,0,1.9-.59c.76-.27,1.79-.66,3.11-1.16l-2.89-.79c-.68-.17-1.18-.32-1.51-.43a1.62,1.62,0,0,0-1.2.12,3.54,3.54,0,0,0-.94.77l-2.26-1.54a9.57,9.57,0,0,1,2-2.58,2.72,2.72,0,0,1,2.3-.57,19.62,19.62,0,0,1,2.23.46l2.3.62c.79.22,1.6.43,2.43.64s1.73.39,2.69.54c.44.05.87.08,1.29.1l1.27.07-1,3.74c-.52,0-1-.07-1.38-.07a5.66,5.66,0,0,0-1.11.1,6.43,6.43,0,0,0-1.07.31,9.91,9.91,0,0,0-1.23.61c-1.12.63-2,1.18-2.77,1.64a17.48,17.48,0,0,1-2.15,1.15,10.13,10.13,0,0,1-2.32.69,19.14,19.14,0,0,1-3.26.23h-2.43a1.7,1.7,0,0,1-.51-.07c-.17,0-.25-.1-.25-.16Z"/><path class="cls-1" d="M177.85,19.33l-3.35.89V1.31L177.85,0Z"/><path class="cls-1" d="M186.36,19.56a2.56,2.56,0,0,1-.64-.46,7.77,7.77,0,0,1-1.1,2.64,13,13,0,0,1-1.93,2.37,22.09,22.09,0,0,1-2.53,2.08c-.93.66-1.89,1.27-2.87,1.84l-2.79-2.17c.7-.35,1.54-.8,2.53-1.36a29.5,29.5,0,0,0,2.82-1.82,14.42,14.42,0,0,0,2.28-2,3.13,3.13,0,0,0,.94-2,2,2,0,0,0-.2-.82,7.8,7.8,0,0,0-.46-.85c-.18-.29-.35-.55-.53-.79l-.42-.59L184,12.83c.25.38.47.75.68,1.12a7.57,7.57,0,0,0,.67,1,3.13,3.13,0,0,0,.79.72,1.77,1.77,0,0,0,1,.28v3.81A1.71,1.71,0,0,1,186.36,19.56Z"/><path class="cls-1" d="M186.38,16.21c0-.08.08-.15.25-.19a1.68,1.68,0,0,1,.5-.07h1.15l.61-.72c.21-.24.43-.48.67-.72q.1-1,.15-2.1c0-.75,0-1.45,0-2.1,0-1.34,0-2.72-.13-4.16s-.22-3-.39-4.84L192.65,0V11.29a15.12,15.12,0,0,1,2.48-1.82,5,5,0,0,1,2.51-.74,4,4,0,0,1,2.89,1.1,3.7,3.7,0,0,1,1.11,2.74,5.71,5.71,0,0,1-.95,3.33,8.05,8.05,0,0,1-2.35,2.23,9.85,9.85,0,0,1-3,1.25,13.7,13.7,0,0,1-3,.38h-5.16a1.68,1.68,0,0,1-.5-.07c-.17,0-.25-.1-.25-.16Zm10.37-3.9a4.15,4.15,0,0,0-2.62,1A32.47,32.47,0,0,0,191.24,16h.88l.92,0c.42,0,.88-.06,1.4-.12a15,15,0,0,0,1.57-.24,10.89,10.89,0,0,0,1.48-.41,3.61,3.61,0,0,0,1.1-.63,1.18,1.18,0,0,0,.43-.9.88.88,0,0,0-.25-.64,1.88,1.88,0,0,0-.61-.39,3.71,3.71,0,0,0-.74-.22A4.25,4.25,0,0,0,196.75,12.31Z"/><path class="cls-1" d="M16.25,54.76a2.35,2.35,0,0,1,.11,1.15A4.48,4.48,0,0,1,16,57.09a6.58,6.58,0,0,1-2.19,2.49,10.27,10.27,0,0,1-3.23,1.5,11.75,11.75,0,0,1-3.66.36,9.08,9.08,0,0,1-3.43-.86A6.45,6.45,0,0,1,1,58.45a6,6,0,0,1-1-3.53,8.92,8.92,0,0,1,.43-2.8A13.47,13.47,0,0,1,1.51,49.6L4,50.49c-.26.57-.51,1.19-.75,1.87a5.85,5.85,0,0,0-.36,1.94,3.68,3.68,0,0,0,.49,2,3.29,3.29,0,0,0,1.31,1.2A5.43,5.43,0,0,0,6.55,58a9.66,9.66,0,0,0,2.08,0,10.84,10.84,0,0,0,2-.44,10.93,10.93,0,0,0,1.76-.7c.41-.22.63-.4.66-.55S13,56,12.83,56L9.26,54.76a4.27,4.27,0,0,1,.21-.64c.1-.25.2-.52.31-.79s.22-.54.33-.79a3.22,3.22,0,0,1,.33-.6,2.29,2.29,0,0,1,.75-.79,2.43,2.43,0,0,1,1.12-.2h4.1v3.81Z"/><path class="cls-1" d="M16.41,54.76a1.75,1.75,0,0,1-.51-.07c-.16,0-.25-.1-.25-.16V51.21c0-.08.09-.15.25-.19a1.75,1.75,0,0,1,.51-.07h3.28v3.81Z"/><path class="cls-1" d="M19.69,54.76a1.79,1.79,0,0,1-.51-.07c-.16,0-.24-.1-.24-.16V51.21c0-.08.08-.15.24-.19a1.79,1.79,0,0,1,.51-.07H23v3.81Z"/><path class="cls-1" d="M23,54.76a1.79,1.79,0,0,1-.51-.07c-.16,0-.24-.1-.24-.16V51.21c0-.08.08-.15.24-.19A1.79,1.79,0,0,1,23,51h3.29v3.81Z"/><path class="cls-1" d="M26.26,54.76a1.7,1.7,0,0,1-.51-.07c-.17,0-.25-.1-.25-.16V51.21c0-.08.08-.15.25-.19a1.7,1.7,0,0,1,.51-.07h3.28v3.81Z"/><path class="cls-1" d="M29.54,54.76a1.7,1.7,0,0,1-.51-.07c-.17,0-.25-.1-.25-.16V51.21c0-.08.08-.15.25-.19a1.7,1.7,0,0,1,.51-.07h3.28v3.81Z"/><path class="cls-1" d="M31.74,59.84l2-2.62,2.73,1.84-2,2.66Zm.32-8.63c0-.08.09-.15.25-.19a1.7,1.7,0,0,1,.51-.07H35c1.12,0,1.68-.26,1.68-.79a.86.86,0,0,0-.07-.34,3.06,3.06,0,0,0-.26-.51,8.17,8.17,0,0,0-.56-.8l-1-1.24,2.13-3a5.68,5.68,0,0,1,1.6,2.26,7.71,7.71,0,0,1,.57,2.92,5.86,5.86,0,0,1-.44,2.35,4.45,4.45,0,0,1-1.22,1.65,5.09,5.09,0,0,1-1.82,1,7.48,7.48,0,0,1-2.26.33h-.56a1.7,1.7,0,0,1-.51-.07c-.16,0-.25-.1-.25-.16Z"/><path class="cls-1" d="M45.14,54.22a4,4,0,0,1-1.61-1.5,6.29,6.29,0,0,1-.78-2.26,19.27,19.27,0,0,1-.25-2.86c0-.48,0-1.17-.07-2.06s0-1.88-.06-2.93,0-2.12-.08-3.23-.06-2.13-.09-3.07L45.42,35V48A3.51,3.51,0,0,0,46,50.21a2.32,2.32,0,0,0,1.91.74v3.81A6.05,6.05,0,0,1,45.14,54.22Z"/><path class="cls-1" d="M52.58,58.89l-1.65,2.23L48.8,59.71l-1.21,1.64L45,59.71l1.74-2.26,2.13,1.44,1.18-1.67Zm-5.42-7.68c0-.08.08-.15.25-.19a1.68,1.68,0,0,1,.5-.07h2.17c1.12,0,1.67-.26,1.67-.79a1.06,1.06,0,0,0-.06-.34,3.06,3.06,0,0,0-.26-.51,8.17,8.17,0,0,0-.56-.8l-.95-1.24,2.13-3a5.56,5.56,0,0,1,1.59,2.26,7.72,7.72,0,0,1,.58,2.92,5.7,5.7,0,0,1-.45,2.35,4.43,4.43,0,0,1-1.21,1.65,5.17,5.17,0,0,1-1.82,1,7.55,7.55,0,0,1-2.27.33h-.56a1.68,1.68,0,0,1-.5-.07c-.17,0-.25-.1-.25-.16Z"/><path class="cls-1" d="M61,47.8a12.68,12.68,0,0,1,1.36,2.35,6.85,6.85,0,0,1,.51,2.77,7.87,7.87,0,0,1-.49,2.66A12.61,12.61,0,0,1,61,58.29a16.23,16.23,0,0,1-2.15,2.56,17.56,17.56,0,0,1-2.81,2.21l-2.75-2.2c.72-.41,1.47-.9,2.26-1.46a18.4,18.4,0,0,0,2.18-1.79,9.58,9.58,0,0,0,1.64-2A4,4,0,0,0,60,53.51a2.86,2.86,0,0,0-.5-1.48c-.34-.54-.69-1.05-1-1.51Z"/><path class="cls-1" d="M69.51,54.33l-3.35.89V36.31L69.51,35Z"/><path class="cls-1" d="M75.65,47.8A12.68,12.68,0,0,1,77,50.15a6.85,6.85,0,0,1,.51,2.77,6.5,6.5,0,0,1-.77,3,12.59,12.59,0,0,1-2,2.74A21.28,21.28,0,0,1,72,61.08a36.16,36.16,0,0,1-3.07,2l-2.79-2.2c.72-.35,1.57-.81,2.54-1.38a25.6,25.6,0,0,0,2.79-1.87,16,16,0,0,0,2.27-2.08,3.15,3.15,0,0,0,.93-2A2.88,2.88,0,0,0,74.15,52c-.34-.54-.68-1.05-1-1.51ZM77,43.6l-2,2.62-2.73-1.83,2-2.66Z"/><path class="cls-1" d="M83.54,54.22a4,4,0,0,1-1.61-1.5,6.49,6.49,0,0,1-.79-2.26,20.78,20.78,0,0,1-.24-2.86c0-.48-.05-1.17-.07-2.06s0-1.88-.06-2.93,0-2.12-.09-3.23-.06-2.13-.08-3.07L83.82,35V48a3.51,3.51,0,0,0,.59,2.21,2.3,2.3,0,0,0,1.9.74v3.81A6,6,0,0,1,83.54,54.22Z"/><path class="cls-1" d="M85.23,59.84l2-2.62,2.72,1.84-2,2.66Zm.33-8.63c0-.08.08-.15.24-.19a1.79,1.79,0,0,1,.51-.07h2.17c1.11,0,1.67-.26,1.67-.79a1.06,1.06,0,0,0-.06-.34,3.3,3.3,0,0,0-.27-.51,7.84,7.84,0,0,0-.55-.8c-.24-.32-.56-.73-1-1.24l2.14-3A5.56,5.56,0,0,1,92,46.52a7.71,7.71,0,0,1,.57,2.92,5.7,5.7,0,0,1-.44,2.35A4.43,4.43,0,0,1,91,53.44a5.17,5.17,0,0,1-1.82,1,7.6,7.6,0,0,1-2.27.33h-.56a1.79,1.79,0,0,1-.51-.07c-.16,0-.24-.1-.24-.16Z"/><path class="cls-1" d="M98.72,60.86c.7-.35,1.52-.8,2.48-1.34A31.51,31.51,0,0,0,104,57.74a14.11,14.11,0,0,0,2.28-2,3.32,3.32,0,0,0,1-2,3.52,3.52,0,0,1-1,.38,5.14,5.14,0,0,1-1.21.15,3.49,3.49,0,0,1-2.74-.92,3.43,3.43,0,0,1-.81-2.36,7.53,7.53,0,0,1,.25-1.84,5.9,5.9,0,0,1,.74-1.74,4.61,4.61,0,0,1,1.21-1.31,2.83,2.83,0,0,1,1.71-.53,3.12,3.12,0,0,1,2.17.76,5.52,5.52,0,0,1,1.36,1.85,8.7,8.7,0,0,1,.7,2.31,12.61,12.61,0,0,1,.2,2.14,7.86,7.86,0,0,1-.67,3.31,10.15,10.15,0,0,1-1.82,2.71,17.59,17.59,0,0,1-2.65,2.3c-1,.71-2,1.39-3.16,2.05Zm8.24-10a3.94,3.94,0,0,0-.66-1.51,1.38,1.38,0,0,0-1.15-.63,1.29,1.29,0,0,0-1,.43,1.4,1.4,0,0,0-.43,1,.82.82,0,0,0,.49.79,2.59,2.59,0,0,0,1.09.23,3.48,3.48,0,0,0,.9-.12A4.82,4.82,0,0,0,107,50.89Z"/><path class="cls-1" d="M146.11,54.76a5.86,5.86,0,0,1-2.15-.4,9.41,9.41,0,0,1-1.94-1,10.2,10.2,0,0,1-1.65-1.43A13.64,13.64,0,0,1,139,50.26a3.85,3.85,0,0,1-.71,2.13,5.27,5.27,0,0,1-1.6,1.48,9,9,0,0,1-2.2,1,17.66,17.66,0,0,1-2.5.54,23.66,23.66,0,0,1-2.43.23c-.77,0-1.46,0-2.05,0q-9.51,0-9.51-5.58a9.63,9.63,0,0,1,1.21-4.13l2.43.72a6.55,6.55,0,0,0-.72,2.23,2.09,2.09,0,0,0,.42,1.35,3.49,3.49,0,0,0,1.09.87,5.33,5.33,0,0,0,1.49.51,12.1,12.1,0,0,0,1.67.21c.56,0,1.08,0,1.56,0h1.22l1.36,0q.84,0,1.77-.12a16.14,16.14,0,0,0,1.9-.28,12.76,12.76,0,0,0,1.74-.47,3.94,3.94,0,0,0,1.27-.71,1.38,1.38,0,0,0,.52-1,1.7,1.7,0,0,0-.31-.8,10.14,10.14,0,0,0-.79-1.1c-.31-.39-.67-.79-1.06-1.2L133.65,45l-1-1a3.55,3.55,0,0,1-.56-.65,7.21,7.21,0,0,1,.06-.78,10.35,10.35,0,0,1,.2-1,10.14,10.14,0,0,1,.3-1,1,1,0,0,1,.42-.57A49.89,49.89,0,0,1,139,37.48q3.6-1.33,8.6-2.87l-.43,3.64q-3.09.75-6.06,1.62a58.86,58.86,0,0,0-5.85,2.06.48.48,0,0,0-.32.21c-.05.1,0,.21.18.34.84.64,1.68,1.35,2.55,2.14s1.79,1.65,2.77,2.59l1.45,1.36a13.33,13.33,0,0,0,1.47,1.2,7.75,7.75,0,0,0,1.61.85,5.14,5.14,0,0,0,1.87.33h1.51v3.81Zm.75-21.17c-2.38.76-4.37,1.41-6,1.93s-2.89,1-3.89,1.33l-2.33.87c-.55.22-1,.41-1.28.56l.36-1.8c1.09-.51,2.74-1.15,4.94-1.94s5-1.74,8.38-2.85Z"/><path class="cls-1" d="M155.5,54.76a2.92,2.92,0,0,1-3-1.71,4.34,4.34,0,0,1-3.84,1.71h-.3a1.79,1.79,0,0,1-.51-.07c-.16,0-.24-.1-.24-.16V51.21c0-.08.08-.15.24-.19a1.79,1.79,0,0,1,.51-.07h.17c1.64,0,2.46-.56,2.46-1.67V48l2.69-.85v.82c0,2,.65,3,2,3h.19v3.81Zm-1.45-12.18-2,2.63-2.72-1.84,2-2.66Z"/><path class="cls-1" d="M160.49,58.89l-1.65,2.23-2.13-1.41-1.21,1.64-2.56-1.64,1.74-2.26,2.13,1.44L158,57.22Zm-5.42-7.68c0-.08.08-.15.25-.19a1.68,1.68,0,0,1,.5-.07H158c1.12,0,1.67-.26,1.67-.79a1.06,1.06,0,0,0-.06-.34,4.12,4.12,0,0,0-.26-.51,8.17,8.17,0,0,0-.56-.8l-.95-1.24,2.13-3a5.56,5.56,0,0,1,1.59,2.26,7.72,7.72,0,0,1,.58,2.92,5.7,5.7,0,0,1-.45,2.35,4.43,4.43,0,0,1-1.21,1.65,5.17,5.17,0,0,1-1.82,1,7.55,7.55,0,0,1-2.27.33h-.56a1.68,1.68,0,0,1-.5-.07c-.17,0-.25-.1-.25-.16Z"/><path class="cls-1" d="M179.59,54.76a5.29,5.29,0,0,1-2.68-.71A5.06,5.06,0,0,1,175,52.13c-.85,2-2.61,3-5.28,3q-3.19,0-4.63-1.74l1.18-3a4.58,4.58,0,0,0,1.67.75,8.85,8.85,0,0,0,2.3.3,10,10,0,0,0,1.35-.1,5.15,5.15,0,0,0,1.16-.31,2.4,2.4,0,0,0,.82-.55,1.08,1.08,0,0,0,.32-.78,1.28,1.28,0,0,0,0-.28c0-.12-.12-.4-.27-.84s-.37-1.1-.69-2-.75-2.15-1.29-3.74l2.62-2.37q1,3.29,1.63,5.32A26.12,26.12,0,0,0,176.94,49,3.71,3.71,0,0,0,178,50.54a2.58,2.58,0,0,0,1.52.41h.69v3.81Z"/><path class="cls-1" d="M179.49,51.21c0-.08.08-.15.24-.19a1.79,1.79,0,0,1,.51-.07h2.17c1.11,0,1.67-.26,1.67-.79a1.06,1.06,0,0,0-.06-.34,3.3,3.3,0,0,0-.27-.51,7.84,7.84,0,0,0-.55-.8c-.24-.32-.56-.73-1-1.24l2.14-3A5.56,5.56,0,0,1,186,46.52a7.71,7.71,0,0,1,.57,2.92,5.7,5.7,0,0,1-.44,2.35,4.43,4.43,0,0,1-1.21,1.65,5.22,5.22,0,0,1-1.83,1,7.48,7.48,0,0,1-2.26.33h-.56a1.79,1.79,0,0,1-.51-.07c-.16,0-.24-.1-.24-.16Zm6-11-2,2.62L180.77,41l2-2.66Z"/><path class="cls-1" d="M195.06,54.56a2.56,2.56,0,0,1-.64-.46,8,8,0,0,1-1.1,2.64,13.08,13.08,0,0,1-1.94,2.37,21.13,21.13,0,0,1-2.52,2.08c-.93.66-1.89,1.27-2.87,1.84l-2.79-2.17c.7-.35,1.54-.8,2.52-1.36a28.44,28.44,0,0,0,2.83-1.82,15.37,15.37,0,0,0,2.28-2,3.11,3.11,0,0,0,.93-2,1.83,1.83,0,0,0-.2-.82,7.71,7.71,0,0,0-.45-.85c-.18-.29-.35-.55-.53-.79l-.43-.59,2.53-2.73c.24.38.47.75.67,1.12a7.6,7.6,0,0,0,.68,1,3.27,3.27,0,0,0,.78.72,1.82,1.82,0,0,0,1,.28v3.81A1.67,1.67,0,0,1,195.06,54.56Z"/><path class="cls-1" d="M195.08,51.21c0-.08.08-.15.24-.19a1.79,1.79,0,0,1,.51-.07H198c1.11,0,1.67-.26,1.67-.79a1.06,1.06,0,0,0-.06-.34,4.52,4.52,0,0,0-.27-.51,7.84,7.84,0,0,0-.55-.8l-1-1.24,2.14-3a5.66,5.66,0,0,1,1.59,2.26,7.71,7.71,0,0,1,.57,2.92,5.7,5.7,0,0,1-.44,2.35,4.54,4.54,0,0,1-1.21,1.65,5.22,5.22,0,0,1-1.83,1,7.48,7.48,0,0,1-2.26.33h-.56a1.79,1.79,0,0,1-.51-.07c-.16,0-.24-.1-.24-.16Zm.72,8.63,2-2.62,2.72,1.84-2,2.66Z"/></svg>