<svg id="Layer_1" data-name="Layer 1" xmlns="http://www.w3.org/2000/svg" viewBox="0 0 179.61 253.95"><defs><style>.cls-1{fill:#231f20;}</style></defs><path class="cls-1" d="M49,214.79a17.68,17.68,0,0,1-6.91-5.23A29.12,29.12,0,0,1,32,216.13a31.7,31.7,0,0,1-11.6,2.28,35.71,35.71,0,0,1-11.73-1.88A27.44,27.44,0,0,1,0,212l8.58-13.41a9.76,9.76,0,0,0,4.29,1.75,36.47,36.47,0,0,0,7.51.67,29.39,29.39,0,0,0,5.16-.47,24.22,24.22,0,0,0,4.76-1.34A15.46,15.46,0,0,0,34,197.09a5.16,5.16,0,0,0,1.94-2.68q-1.47-7.65-3-14.28T30,165.71l12.47-8.85L49.34,192a8.54,8.54,0,0,0,2.95,5.3q2.28,1.82,6.57,1.81v17.43A25.08,25.08,0,0,1,49,214.79Z"/><path class="cls-1" d="M63.15,199.1q8.58,0,8.58-3.09a4,4,0,0,0-.6-1.47c-.4-.72-.9-1.5-1.48-2.35s-1.18-1.72-1.81-2.61-1.11-1.61-1.47-2.15l9.92-13.81c.63.81,1.43,2,2.42,3.49a47.08,47.08,0,0,1,2.88,5.23,47.83,47.83,0,0,1,2.48,6.43A24.69,24.69,0,0,1,85.14,196q0,10.06-5.63,15.29t-16.36,5.23H58.86a8,8,0,0,1-2.08-.27c-.67-.18-1-.4-1-.67V200.17c0-.36.33-.62,1-.8a8,8,0,0,1,2.08-.27Zm10.46-30.84-5.3-3.69c-1.74-1.2-3.51-2.43-5.29-3.69,1.43-1.78,2.75-3.46,3.95-5s2.57-3.24,4.09-5q2.68,1.88,5.16,3.69t5.17,3.68Z"/><path class="cls-1" d="M109.36,216.13a42.35,42.35,0,0,1-4.63,12A48.89,48.89,0,0,1,97.22,238,67.15,67.15,0,0,1,87.64,246a112.54,112.54,0,0,1-10.73,6.57L64,242.14q3.61-1.87,9.18-4.89a75,75,0,0,0,10.66-7,47.8,47.8,0,0,0,8.78-9,17.61,17.61,0,0,0,3.69-10.72,7.23,7.23,0,0,0-.67-2.89,21.9,21.9,0,0,0-1.61-3c-.62-1-1.27-1.95-1.94-2.89s-1.23-1.76-1.68-2.48l11.26-11.39,2.15,3.62a28.41,28.41,0,0,0,2.61,3.68,16.23,16.23,0,0,0,3,2.82,6.11,6.11,0,0,0,3.62,1.14v17.43A16.53,16.53,0,0,1,109.36,216.13Z"/><path class="cls-1" d="M178.6,245.36,150.44,254l-1.88-6.44,28.16-8.58Z"/><path class="cls-1" d="M113.11,216.53a8,8,0,0,1-2.08-.27c-.67-.18-1-.4-1-.67V200.17c0-.36.33-.62,1-.8a8,8,0,0,1,2.08-.27h13.41v17.43Z"/><path class="cls-1" d="M126.52,216.53a8,8,0,0,1-2.08-.27c-.67-.18-1-.4-1-.67V200.17c0-.36.34-.62,1-.8a8,8,0,0,1,2.08-.27h13.41v17.43Z"/><path class="cls-1" d="M139.92,216.53a7.94,7.94,0,0,1-2.07-.27c-.67-.18-1-.4-1-.67V200.17c0-.36.34-.62,1-.8a7.94,7.94,0,0,1,2.07-.27h13.41v17.43Z"/><path class="cls-1" d="M164,238.62q-2.69-1.87-5.29-3.68l-5.3-3.69q2.14-2.69,4-5t4.09-5q2.67,1.88,5.16,3.69c1.65,1.21,3.37,2.43,5.16,3.69Zm-6.33-39.52q8.58,0,8.58-3.09a4,4,0,0,0-.6-1.47c-.4-.72-.9-1.5-1.48-2.35s-1.18-1.72-1.81-2.61-1.11-1.61-1.47-2.15l9.92-13.81c.63.81,1.43,2,2.42,3.49a47.08,47.08,0,0,1,2.88,5.23,47.83,47.83,0,0,1,2.48,6.43,24.69,24.69,0,0,1,1.07,7.24q0,10.06-5.63,15.29t-16.36,5.23h-4.29a8,8,0,0,1-2.08-.27c-.67-.18-1-.4-1-.67V200.17c0-.36.33-.62,1-.8a8,8,0,0,1,2.08-.27Z"/><path class="cls-1" d="M10.79,34.68A8.71,8.71,0,0,0,10,36.53c-.28.79-.53,1.61-.74,2.46s-.4,1.72-.54,2.59a14.37,14.37,0,0,0-.2,2.22,10.94,10.94,0,0,0,.57,3.45,7.56,7.56,0,0,0,2,3.08,10,10,0,0,0,3.82,2.18,19,19,0,0,0,6,.82,40.33,40.33,0,0,0,5.8-.45,41,41,0,0,0,5.91-1.31,36.29,36.29,0,0,0,5.14-2,9.19,9.19,0,0,0,3.37-2.5,1.91,1.91,0,0,0,.45-.78.41.41,0,0,0-.12-.42,1.23,1.23,0,0,0-.66-.12l-3.25-.2c-1.34-.09-2.75-.21-4.23-.37s-2.89-.39-4.23-.66a9.28,9.28,0,0,1-3.16-1.15,6.32,6.32,0,0,1-2.67-3.12,12.5,12.5,0,0,1-.78-4.61,13.79,13.79,0,0,1,1.76-6.16A29,29,0,0,1,35.4,17.87a15,15,0,0,1,7.52-2.09,15.25,15.25,0,0,1,4.52.66,30.8,30.8,0,0,1,3.45,1.23l-3.7,9.86c-.49-.22-1.1-.45-1.81-.7a7.4,7.4,0,0,0-2.46-.37,10.51,10.51,0,0,0-3.86.74,16.67,16.67,0,0,0-3.5,1.85,15.16,15.16,0,0,0-2.79,2.46,9.26,9.26,0,0,0-1.69,2.59l4.48.5,4.48.49a20.14,20.14,0,0,1,5.71,1.44,7.41,7.41,0,0,1,3,2.26,6.23,6.23,0,0,1,1.15,2.83,23.23,23.23,0,0,1,.21,3.17,9.7,9.7,0,0,1-1.36,4.84,19.49,19.49,0,0,1-3.61,4.52,31.59,31.59,0,0,1-5.22,4,43.44,43.44,0,0,1-6.21,3.12,42.14,42.14,0,0,1-6.53,2.06,28.61,28.61,0,0,1-6.25.73,24.21,24.21,0,0,1-10-1.8,17.59,17.59,0,0,1-6.33-4.69A16.66,16.66,0,0,1,1.21,51,28.48,28.48,0,0,1,.27,43.8,21.81,21.81,0,0,1,.6,40.14c.22-1.28.49-2.54.82-3.78a35,35,0,0,1,1.11-3.45,18.65,18.65,0,0,1,1.19-2.59Z"/><path class="cls-1" d="M64,0q.17,5.43.21,12.08t.08,13.27q0,6.62,0,12.49c0,3.92.06,7.16.17,9.74l-8.22,3c-.11-2.9-.17-6.4-.17-10.48s0-8.3,0-12.65S56,18.82,56,14.55s-.09-8.08-.2-11.43Z"/><path class="cls-1" d="M81.9,49.39a26,26,0,0,1-2.84,7.35,30.22,30.22,0,0,1-4.6,6,40.63,40.63,0,0,1-5.88,4.93,67.66,67.66,0,0,1-6.57,4l-7.89-6.41q2.22-1.15,5.63-3A45.75,45.75,0,0,0,66.28,58a29.17,29.17,0,0,0,5.38-5.51,10.79,10.79,0,0,0,2.26-6.57,4.35,4.35,0,0,0-.41-1.77,13.15,13.15,0,0,0-1-1.85c-.39-.6-.78-1.19-1.19-1.77s-.76-1.08-1-1.52l6.9-7q.57,1,1.32,2.22a17.23,17.23,0,0,0,1.6,2.26A9.6,9.6,0,0,0,82,38.25a3.69,3.69,0,0,0,2.22.7V49.63A10.41,10.41,0,0,1,81.9,49.39Z"/><path class="cls-1" d="M84.2,49.63a4.93,4.93,0,0,1-1.28-.16c-.41-.11-.61-.25-.61-.41V39.61c0-.22.2-.38.61-.49A4.94,4.94,0,0,1,84.2,39h8.21V49.63Z"/><path class="cls-1" d="M89.17,49.63a4.93,4.93,0,0,1-1.28-.16c-.41-.11-.61-.25-.61-.41V39.61c0-.22.2-.38.61-.49A4.94,4.94,0,0,1,89.17,39h8.21V49.63Z"/><path class="cls-1" d="M97.38,49.63a4.86,4.86,0,0,1-1.27-.16c-.41-.11-.62-.25-.62-.41V39.61c0-.22.21-.38.62-.49A4.86,4.86,0,0,1,97.38,39h8.22V49.63Z"/><path class="cls-1" d="M105.6,49.63a4.86,4.86,0,0,1-1.27-.16c-.42-.11-.62-.25-.62-.41V39.61c0-.22.2-.38.62-.49A4.86,4.86,0,0,1,105.6,39h8.22V49.63Z"/><path class="cls-1" d="M113.82,49.63a4.93,4.93,0,0,1-1.28-.16c-.41-.11-.61-.25-.61-.41V39.61c0-.22.2-.38.61-.49a4.94,4.94,0,0,1,1.28-.17H122V49.63Z"/><path class="cls-1" d="M128.36,39a26.66,26.66,0,0,0,4.77-.45,47,47,0,0,0,4.93-1.19,48.88,48.88,0,0,0,4.8-1.73,32.84,32.84,0,0,0,4.24-2.13q-1.24-.59-2.67-1.2c-1-.41-1.87-.78-2.72-1.11s-1.63-.6-2.34-.82a6.06,6.06,0,0,0-1.64-.33,4.84,4.84,0,0,0-2.71,1A12,12,0,0,0,132.63,33l-6.57-4c.49-.71,1.16-1.59,2-2.63a23.7,23.7,0,0,1,2.84-2.92,20,20,0,0,1,3.33-2.34,7.08,7.08,0,0,1,3.49-1,12.51,12.51,0,0,1,4.72.95c1.56.63,3.22,1.35,5,2.18l2.3,1.15a20.55,20.55,0,0,0,3.41,1.27,35.73,35.73,0,0,0,5.26,1,56.15,56.15,0,0,0,7.84.33l-3.12,11.17a43.65,43.65,0,0,0-4.85.7,25.4,25.4,0,0,0-7,2.55c-1,.52-1.91,1-2.84,1.6L144.1,45.4a39.5,39.5,0,0,1-4.6,2.14,32.53,32.53,0,0,1-5.18,1.52,29.41,29.41,0,0,1-6,.57H122a4.91,4.91,0,0,1-1.27-.16c-.41-.11-.62-.25-.62-.41V39.61c0-.22.21-.38.62-.49A4.92,4.92,0,0,1,122,39Zm15,27.45-3.25-2.26-3.24-2.26,2.42-3.08c.74-1,1.58-2,2.51-3.09L145,58c1,.74,2.07,1.5,3.16,2.26Z"/><path class="cls-1" d="M179.12,0q.16,5.43.2,12.08t.09,13.27q0,6.62,0,12.49c0,3.92.05,7.16.16,9.74l-8.22,3c-.11-2.9-.16-6.4-.16-10.48s0-8.3,0-12.65-.06-8.67-.08-12.94-.1-8.08-.21-11.43Z"/><path class="cls-1" d="M30.34,123a19.6,19.6,0,0,1-5-.58,10.9,10.9,0,0,1-3.7-1.73A10.21,10.21,0,0,1,19,117.85a18.67,18.67,0,0,1-1.8-3.95,24.89,24.89,0,0,1-4.44,1.56,16.94,16.94,0,0,1-4.11.58c-2.9,0-5-.93-6.37-2.79a11.25,11.25,0,0,1-2-6.74,10.44,10.44,0,0,1,1.23-5,19.22,19.22,0,0,1,3.08-4.24,26.09,26.09,0,0,1,4-3.41,42.85,42.85,0,0,1,4.07-2.46l-.5-3,7.56-5.59,4.36,24.32a7.63,7.63,0,0,0,1.72,4c.83.85,2.33,1.27,4.52,1.27ZM15.06,105.19a6.82,6.82,0,0,0-.12-.94c-.09-.47-.18-1-.29-1.56s-.21-1.1-.29-1.56a8.59,8.59,0,0,0-.2-.95c-.33.16-.85.47-1.57.9a18.15,18.15,0,0,0-2.09,1.52,12.53,12.53,0,0,0-1.77,1.81,2.19,2.19,0,0,0-.57,1.77q.08.73,1,.78a7.38,7.38,0,0,0,2.14-.25,13.59,13.59,0,0,0,2.26-.74A6.72,6.72,0,0,0,15.06,105.19Z"/><path class="cls-1" d="M36.67,112.34a26.66,26.66,0,0,0,4.77-.45,47,47,0,0,0,4.93-1.19,46.43,46.43,0,0,0,4.8-1.73,31.61,31.61,0,0,0,4.24-2.13c-.82-.39-1.72-.78-2.67-1.19s-1.87-.79-2.72-1.11-1.63-.61-2.34-.83a6.37,6.37,0,0,0-1.64-.32,4.83,4.83,0,0,0-2.71.94,11.68,11.68,0,0,0-2.39,2.1l-6.57-4c.49-.71,1.16-1.59,2-2.63a24.42,24.42,0,0,1,2.84-2.92,20,20,0,0,1,3.33-2.34,7.08,7.08,0,0,1,3.49-1,12.51,12.51,0,0,1,4.72,1c1.57.63,3.22,1.36,5,2.18L58,97.8a20.55,20.55,0,0,0,3.41,1.27,35.73,35.73,0,0,0,5.26,1,56.15,56.15,0,0,0,7.84.33L71.43,111.6a43.65,43.65,0,0,0-4.85.7,25.4,25.4,0,0,0-7,2.55c-1,.52-1.91,1.05-2.84,1.6l-4.31,2.34a38.75,38.75,0,0,1-4.6,2.14,32.53,32.53,0,0,1-5.18,1.52,29.39,29.39,0,0,1-6,.58H30.34a4.92,4.92,0,0,1-1.27-.17c-.41-.11-.62-.25-.62-.41V113c0-.22.21-.38.62-.49a4.92,4.92,0,0,1,1.27-.17ZM41,135.76c.76-1.09,1.53-2.12,2.3-3.08s1.53-2,2.3-3.08l5,3.78,3.53-4.27c1.1.76,2.17,1.52,3.21,2.26l3.2,2.26c-.76,1-1.56,2.06-2.38,3.08s-1.62,2-2.38,3l-4.93-3.78-3.54,4.27Zm5.91,8.47c.77-.88,1.51-1.76,2.22-2.63s1.43-1.73,2.14-2.55c.93.77,1.85,1.51,2.75,2.22s1.82,1.42,2.75,2.13c-.76.94-1.5,1.88-2.21,2.84s-1.46,1.9-2.22,2.83Z"/><path class="cls-1" d="M84,105.44c.44.71,1,1.59,1.52,2.63a30.89,30.89,0,0,1,1.61,3.41,33.61,33.61,0,0,1,1.27,3.9,16.43,16.43,0,0,1,.53,4.19,19.1,19.1,0,0,1-1.64,7.89,27.24,27.24,0,0,1-4.4,6.86,39.92,39.92,0,0,1-6.41,5.88,66.47,66.47,0,0,1-7.68,4.93l-7.89-6.41c1.86-1,4-2.12,6.25-3.41A49,49,0,0,0,73.65,131a26,26,0,0,0,5-5.26,10.39,10.39,0,0,0,2-6.13,4.52,4.52,0,0,0-.41-1.76,20.88,20.88,0,0,0-1-1.89c-.36-.63-.74-1.25-1.15-1.85l-1.11-1.65Z"/><path class="cls-1" d="M101.26,121.75a11.39,11.39,0,0,1-4.19-3.41,14.1,14.1,0,0,1-2.34-4.85,20.8,20.8,0,0,1-.74-5.58l-.09-31.4,8.22-3,.08,34.44a4.6,4.6,0,0,0,1.2,3c.79.93,2.15,1.39,4.06,1.39V123A13.91,13.91,0,0,1,101.26,121.75Z"/><path class="cls-1" d="M125.87,123q-6.24,0-9.29-3.29a12.19,12.19,0,0,1-4.51,2.55,16.23,16.23,0,0,1-4.61.74,4.92,4.92,0,0,1-1.27-.17c-.41-.11-.62-.25-.62-.41V113c0-.22.21-.38.62-.49a4.92,4.92,0,0,1,1.27-.17,8.81,8.81,0,0,0,1.77-.2,5.9,5.9,0,0,0,1.77-.7,4.23,4.23,0,0,0,1.35-1.28,3.44,3.44,0,0,0,.54-2V106.1l8.21-2.71v3.53a6.89,6.89,0,0,0,1.28,4.15,4.38,4.38,0,0,0,3.49,1.27H127V123Zm-18.24,12.81c.76-1.09,1.53-2.12,2.3-3.08s1.53-2,2.3-3.08l5,3.78,3.54-4.27,3.2,2.26,3.21,2.26c-.77,1-1.57,2.07-2.39,3.08s-1.61,2-2.38,3L117.49,136,114,140.28Zm5.91,8.47c.77-.88,1.51-1.76,2.22-2.63s1.43-1.73,2.14-2.55c.93.77,1.85,1.51,2.75,2.22l2.76,2.14c-.77.93-1.51,1.87-2.22,2.83s-1.46,1.91-2.22,2.84Z"/><path class="cls-1" d="M162.85,123a14.6,14.6,0,0,1-4.15-.58,14.38,14.38,0,0,1-3.78-1.77,32.29,32.29,0,0,1-3.82-2.91c-1.32-1.15-2.74-2.52-4.28-4.11a11.59,11.59,0,0,1-1.64,3.61,9.71,9.71,0,0,1-3.45,3,21.07,21.07,0,0,1-5.88,2A44.65,44.65,0,0,1,127,123a4.86,4.86,0,0,1-1.27-.17c-.41-.11-.62-.25-.62-.41V113c0-.22.21-.38.62-.49a4.86,4.86,0,0,1,1.27-.17,47.24,47.24,0,0,0,6.78-.37,12.19,12.19,0,0,0,3.62-1,2.83,2.83,0,0,0,1.47-1.4,4.21,4.21,0,0,0,.29-1.52,5.93,5.93,0,0,0-1.48-3.49,33.87,33.87,0,0,0-3.49-3.87q-2-1.92-4.07-3.69A26,26,0,0,1,127,93.94l.16-4.44a9.48,9.48,0,0,1,1.2-3.7A13.13,13.13,0,0,1,129.81,84c.55-.44,1.43-1,2.63-1.81s2.63-1.64,4.28-2.63,3.45-2,5.42-3.08,4-2.13,6-3.2,4-2.07,5.92-3,3.67-1.75,5.26-2.47V79.72q-2.88,1.23-5.88,2.67l-5.88,2.83c-1.91.94-3.73,1.88-5.46,2.84s-3.3,1.85-4.73,2.67q2.88,2.72,5.8,5.71t6.53,6.62c1.53,1.59,2.88,3,4,4.11a34.7,34.7,0,0,0,3.2,2.87,12.78,12.78,0,0,0,2.88,1.73,8,8,0,0,0,3,.57h.66V123Z"/><path class="cls-1" d="M175.58,133.13c-.76,1.1-1.53,2.13-2.3,3.08s-1.53,2-2.3,3.09l-5-3.78-3.53,4.19-3.21-2.22c-1-.71-2.11-1.45-3.2-2.22.76-1,1.56-2.06,2.38-3s1.62-2,2.38-3l5.26,4.11,3.13-4.6Zm-9.45-20.79q5.26,0,5.26-1.89a2.37,2.37,0,0,0-.37-.9,16.15,16.15,0,0,0-.9-1.44l-1.11-1.6-.9-1.32,6.08-8.46c.38.49.87,1.2,1.48,2.14A29.12,29.12,0,0,1,179,106a14.9,14.9,0,0,1,.66,4.43q0,6.17-3.45,9.37t-10,3.21H163.5a4.92,4.92,0,0,1-1.27-.17c-.41-.11-.62-.25-.62-.41V113c0-.22.21-.38.62-.49a4.92,4.92,0,0,1,1.27-.17Z"/></svg>