<svg id="Layer_1" data-name="Layer 1" xmlns="http://www.w3.org/2000/svg" viewBox="0 0 179.61 188.9"><defs><style>.cls-1{fill:#231f20;}</style></defs><path class="cls-1" d="M47.16,76.07,27,82.22l-1.35-4.61,20.17-6.15Z"/><path class="cls-1" d="M80.2,64.55A43.79,43.79,0,0,1,71,63.63a44,44,0,0,1-7.73-2.35A56.54,56.54,0,0,1,55,63.78c-2.92.64-5.86,1.15-8.84,1.53s-5.89.64-8.74.77-5.49.23-7.92.29H26.7a73.86,73.86,0,0,1-9.12-.58A27.16,27.16,0,0,1,9,63.34,16.82,16.82,0,0,1,2.55,58Q0,54.46,0,48.6a16.94,16.94,0,0,1,1.06-5.47,28.34,28.34,0,0,1,2.3-5.19l8.74,2.5a25.9,25.9,0,0,0-1.58,3.07A12.32,12.32,0,0,0,9.6,48.6a3.19,3.19,0,0,0,1.69,2.79A12.78,12.78,0,0,0,15.51,53a40.61,40.61,0,0,0,5.52.72c2,.13,3.88.19,5.67.19h2.69q5,0,11.19-.33a94.76,94.76,0,0,0,12-1.4,15.77,15.77,0,0,1-2-8A13.32,13.32,0,0,1,52.2,37.8a24.73,24.73,0,0,1,4.08-5.58,21.65,21.65,0,0,1,5-3.89A10,10,0,0,1,66,26.89a8.84,8.84,0,0,1,5.42,1.83A18.43,18.43,0,0,1,75.59,33a20.81,20.81,0,0,1,2.64,5.24,12.64,12.64,0,0,1,.82,4.46,18.58,18.58,0,0,1-1,4.95A19.86,19.86,0,0,1,76,51.87a15,15,0,0,0,1.54.14c.64,0,1.35.05,2.11.05h4.13V64.55ZM65.7,21.32l-3.8-2.64L58.11,16c1-1.28,2-2.48,2.83-3.6s1.84-2.32,2.93-3.6q1.92,1.34,3.7,2.64c1.18.86,2.42,1.74,3.7,2.64ZM61.09,44.18q0,2.59,2.88,4.32c2.82-1.59,4.32-3.74,4.51-6.43a2.5,2.5,0,0,0-.62-1.63A2.18,2.18,0,0,0,66,39.38a3.76,3.76,0,0,0-1.44.38,6.47,6.47,0,0,0-1.64,1.06,6.56,6.56,0,0,0-1.29,1.54A3.35,3.35,0,0,0,61.09,44.18Z"/><path class="cls-1" d="M141.86,64.55a27.61,27.61,0,0,1-5.18-.49,8.12,8.12,0,0,1-4.61-2.68,12.16,12.16,0,0,1-3.94,2.44,14.83,14.83,0,0,1-5.48.92,19,19,0,0,1-5-.68,9.24,9.24,0,0,1-4.51-2.88,13.88,13.88,0,0,1-3.85,2.55,12.9,12.9,0,0,1-5.37,1,19.06,19.06,0,0,1-5-.68,9.24,9.24,0,0,1-4.51-2.88,12.29,12.29,0,0,1-3.94,2.45,14.83,14.83,0,0,1-5.48.92H83.75a5.62,5.62,0,0,1-1.48-.2c-.48-.12-.72-.29-.72-.48v-11c0-.26.24-.45.72-.58a5.61,5.61,0,0,1,1.48-.19H85a5.71,5.71,0,0,0,2.64-.53,4.29,4.29,0,0,0,1.54-1.25,4.42,4.42,0,0,0,.72-1.44,4.72,4.72,0,0,0,.19-1.2v-.72c0-.35,0-.72,0-1.1a10.78,10.78,0,0,1,0-1.11v-.82l8.35-2.4a22.79,22.79,0,0,1,.2,3.22A14,14,0,0,0,99,48.26a6.24,6.24,0,0,0,1.54,2.84,4.51,4.51,0,0,0,3.41,1.15,5,5,0,0,0,2.59-.58A5,5,0,0,0,108,50.38a3.74,3.74,0,0,0,.67-1.49,6.66,6.66,0,0,0,.14-1.25v-.72c0-.35,0-.72,0-1.1a10.78,10.78,0,0,1,0-1.11v-.82l8.35-2.4a22.79,22.79,0,0,1,.2,3.22,14,14,0,0,0,.43,3.55,6.32,6.32,0,0,0,1.53,2.84,4.54,4.54,0,0,0,3.41,1.15,5.65,5.65,0,0,0,2.65-.53,4.33,4.33,0,0,0,1.53-1.25,4.42,4.42,0,0,0,.72-1.44,4.8,4.8,0,0,0,.2-1.2v-.72c0-.35,0-.72,0-1.1a10.66,10.66,0,0,1,0-1.11v-.81l8.36-2.4a24.3,24.3,0,0,1,.19,3.21,15.67,15.67,0,0,0,.38,3.51,6.36,6.36,0,0,0,1.35,2.74,3.57,3.57,0,0,0,3.17.91h.76ZM125,29.2c-.9,1.28-1.79,2.48-2.69,3.6s-1.79,2.32-2.69,3.6L113.72,32l-4.13,4.9-3.74-2.59c-1.22-.83-2.47-1.7-3.75-2.59q1.35-1.83,2.79-3.61c1-1.18,1.88-2.35,2.78-3.5L113.43,29l4.13-5ZM118,19.31c-.89,1.09-1.76,2.13-2.59,3.12s-1.67,2-2.5,2.93c-1.09-.9-2.17-1.75-3.26-2.55s-2.18-1.65-3.27-2.54q1.35-1.64,2.64-3.27t2.64-3.36Z"/><path class="cls-1" d="M141.86,52.06a57.09,57.09,0,0,0,7.93-.43A14.25,14.25,0,0,0,154,50.47a3.29,3.29,0,0,0,1.73-1.63,5,5,0,0,0,.34-1.78,6.66,6.66,0,0,0-1.63-3.93,43.71,43.71,0,0,0-3.89-4.33q-2.26-2.2-4.71-4.32a36.45,36.45,0,0,1-4-3.94l.2-5.18A11.16,11.16,0,0,1,143.45,21a15.8,15.8,0,0,1,1.68-2.11c.64-.51,1.66-1.21,3.07-2.11s3.08-1.92,5-3.07,4-2.36,6.34-3.61,4.64-2.49,7-3.74,4.67-2.42,6.91-3.51,4.29-2,6.15-2.88V13.93q-3.36,1.44-6.87,3.12l-6.86,3.31c-2.25,1.09-4.37,2.2-6.39,3.32s-3.86,2.16-5.52,3.12q1.82,1.64,3.89,3.74a36.18,36.18,0,0,1,3.79,4.61,26.41,26.41,0,0,1,2.88,5.48,17.61,17.61,0,0,1,1.15,6.43,36.47,36.47,0,0,1-.52,6.15,11,11,0,0,1-2.89,5.62A16.69,16.69,0,0,1,155.12,63q-4.8,1.59-13.26,1.59a5.62,5.62,0,0,1-1.48-.2c-.49-.12-.73-.29-.73-.48v-11c0-.26.24-.45.73-.58A5.61,5.61,0,0,1,141.86,52.06Z"/><path class="cls-1" d="M49,149.74a17.58,17.58,0,0,1-6.91-5.23A29.12,29.12,0,0,1,32,151.08a31.7,31.7,0,0,1-11.6,2.28,35.71,35.71,0,0,1-11.73-1.88A27.44,27.44,0,0,1,0,146.92l8.58-13.4a9.9,9.9,0,0,0,4.29,1.74,35.78,35.78,0,0,0,7.51.67,28.46,28.46,0,0,0,5.16-.47,23.55,23.55,0,0,0,4.76-1.34A15.12,15.12,0,0,0,34,132a5.12,5.12,0,0,0,1.94-2.68q-1.47-7.64-3-14.28T30,100.67L42.5,91.82,49.34,127a8.52,8.52,0,0,0,2.95,5.29q2.28,1.81,6.57,1.81v17.43A25.08,25.08,0,0,1,49,149.74Z"/><path class="cls-1" d="M63.15,134.05c5.72,0,8.58-1,8.58-3.08a4,4,0,0,0-.6-1.48c-.4-.71-.9-1.49-1.48-2.34s-1.18-1.72-1.81-2.62-1.11-1.61-1.47-2.14l9.92-13.81c.63.8,1.43,2,2.42,3.48a47.44,47.44,0,0,1,5.36,11.67A24.64,24.64,0,0,1,85.14,131q0,10-5.63,15.29t-16.36,5.22H58.86a8,8,0,0,1-2.08-.26c-.67-.18-1-.41-1-.67V135.13c0-.36.33-.63,1-.81a8,8,0,0,1,2.08-.27Zm10.46-30.84c-1.79-1.25-3.55-2.48-5.3-3.68L63,95.84c1.43-1.79,2.75-3.46,3.95-5s2.57-3.24,4.09-5c1.79,1.26,3.51,2.48,5.16,3.69s3.38,2.44,5.17,3.69Z"/><path class="cls-1" d="M109.36,151.08a42.35,42.35,0,0,1-4.63,12,49,49,0,0,1-7.51,9.86,66.44,66.44,0,0,1-9.58,8,108.59,108.59,0,0,1-10.73,6.57L64,177.09q3.61-1.87,9.18-4.89a74.1,74.1,0,0,0,10.66-7,47.76,47.76,0,0,0,8.78-9,17.64,17.64,0,0,0,3.69-10.73,7.22,7.22,0,0,0-.67-2.88,22,22,0,0,0-1.61-3c-.62-1-1.27-1.94-1.94-2.88s-1.23-1.77-1.68-2.48l11.26-11.4,2.15,3.62a29.24,29.24,0,0,0,2.61,3.69,15.84,15.84,0,0,0,3,2.81,6.11,6.11,0,0,0,3.62,1.14v17.43A16.53,16.53,0,0,1,109.36,151.08Z"/><path class="cls-1" d="M178.6,180.32l-28.16,8.58-1.88-6.44,28.16-8.58Z"/><path class="cls-1" d="M113.11,151.48a8,8,0,0,1-2.08-.26c-.67-.18-1-.41-1-.67V135.13c0-.36.33-.63,1-.81a8,8,0,0,1,2.08-.27h13.41v17.43Z"/><path class="cls-1" d="M126.52,151.48a8,8,0,0,1-2.08-.26c-.67-.18-1-.41-1-.67V135.13c0-.36.34-.63,1-.81a8,8,0,0,1,2.08-.27h13.41v17.43Z"/><path class="cls-1" d="M139.92,151.48a7.94,7.94,0,0,1-2.07-.26c-.67-.18-1-.41-1-.67V135.13c0-.36.34-.63,1-.81a7.94,7.94,0,0,1,2.07-.27h13.41v17.43Z"/><path class="cls-1" d="M164,173.58l-5.29-3.69-5.3-3.69q2.14-2.69,4-5t4.09-5q2.67,1.88,5.16,3.68t5.16,3.69Zm-6.33-39.53c5.72,0,8.58-1,8.58-3.08a4,4,0,0,0-.6-1.48c-.4-.71-.9-1.49-1.48-2.34s-1.18-1.72-1.81-2.62-1.11-1.61-1.47-2.14l9.92-13.81c.63.8,1.43,2,2.42,3.48a47.44,47.44,0,0,1,5.36,11.67,24.64,24.64,0,0,1,1.07,7.24q0,10-5.63,15.29t-16.36,5.22h-4.29a8,8,0,0,1-2.08-.26c-.67-.18-1-.41-1-.67V135.13c0-.36.33-.63,1-.81a8,8,0,0,1,2.08-.27Z"/></svg>