<svg id="Layer_1" data-name="Layer 1" xmlns="http://www.w3.org/2000/svg" viewBox="0 0 149.2 171.04"><defs><style>.cls-1{fill:#231f20;}</style></defs><path class="cls-1" d="M19.35,17.43a3.82,3.82,0,0,1,.11.57,5.46,5.46,0,0,1,0,.57A4.23,4.23,0,0,1,18.78,21a6.92,6.92,0,0,1-1.92,1.89,11.92,11.92,0,0,1-1.67.92,18.14,18.14,0,0,1-2,.76,14.76,14.76,0,0,1-2.13.54,12.69,12.69,0,0,1-2.21.19A11.1,11.1,0,0,1,5,24.67,7.58,7.58,0,0,1,2.21,23,7.1,7.1,0,0,1,.55,20.31,9.71,9.71,0,0,1,0,17a11.65,11.65,0,0,1,.41-2.86,20,20,0,0,1,.94-2.83l3.27,1.49c-.14.33-.27.69-.4,1.09S4,14.63,3.88,15s-.17.74-.23,1.09a5.13,5.13,0,0,0-.09.87,3.26,3.26,0,0,0,1.31,2.65,6.4,6.4,0,0,0,4,1.05,11.56,11.56,0,0,0,3.4-.5A9.48,9.48,0,0,0,14.94,19l.14-.11-1-.42L13,18l-1.09-.45c-.34-.14-.62-.25-.83-.32l.85-4.37H19.5v4.62Z"/><path class="cls-1" d="M27.46,17.43a5.22,5.22,0,0,1-4-1.42,5.14,5.14,0,0,1-2,1.1,6.75,6.75,0,0,1-2,.32,2.1,2.1,0,0,1-.56-.07c-.17-.05-.26-.11-.26-.18V13.09c0-.09.09-.16.26-.21a2.1,2.1,0,0,1,.56-.07,3.56,3.56,0,0,0,.76-.09,2.68,2.68,0,0,0,.77-.3,1.94,1.94,0,0,0,.58-.56,1.44,1.44,0,0,0,.23-.87V10.1L25.4,8.93v1.53a3,3,0,0,0,.55,1.8,1.93,1.93,0,0,0,1.51.55H28v4.62ZM28,4.8c-.33.48-.67.92-1,1.34s-.66.86-1,1.33L23.84,5.83,22.31,7.65l-1.39-1-1.39-1c.33-.45.68-.9,1-1.34s.7-.87,1-1.3l2.28,1.78,1.35-2Z"/><path class="cls-1" d="M47.56,17.25a3,3,0,0,1-1.7-1,4.69,4.69,0,0,1-1.46.91,5.65,5.65,0,0,1-2,.33,6.93,6.93,0,0,1-1.85-.25,3.45,3.45,0,0,1-1.67-1.06,5.4,5.4,0,0,1-1.42.94,4.79,4.79,0,0,1-2,.37,7,7,0,0,1-1.85-.25,3.5,3.5,0,0,1-1.67-1.06,4.39,4.39,0,0,1-1.46.9,5.39,5.39,0,0,1-2,.34H28a2,2,0,0,1-.55-.07q-.27-.08-.27-.18V13.09q0-.13.27-.21a2,2,0,0,1,.55-.07h.46a2.1,2.1,0,0,0,1-.2,1.58,1.58,0,0,0,.57-.46,1.77,1.77,0,0,0,.27-.53,1.71,1.71,0,0,0,.07-.45V10.9c0-.13,0-.26,0-.41s0-.27,0-.41v-.3l3.1-.89a8.28,8.28,0,0,1,.07,1.19,5.08,5.08,0,0,0,.16,1.32,2.33,2.33,0,0,0,.57,1,1.64,1.64,0,0,0,1.26.43,1.85,1.85,0,0,0,1-.21,2.1,2.1,0,0,0,.56-.49,1.22,1.22,0,0,0,.24-.55,2.32,2.32,0,0,0,.06-.46V10.9c0-.13,0-.26,0-.41s0-.27,0-.41v-.3l3.1-.89a10,10,0,0,1,.07,1.19,5.08,5.08,0,0,0,.16,1.32,2.24,2.24,0,0,0,.57,1,1.64,1.64,0,0,0,1.26.43,2.13,2.13,0,0,0,1-.2,1.58,1.58,0,0,0,.57-.46,1.53,1.53,0,0,0,.26-.53,1.78,1.78,0,0,0,.08-.45V11c0-.13,0-.26,0-.4s0-.28,0-.41V9.85L47.32,9a10.08,10.08,0,0,1,.07,1.2,5.46,5.46,0,0,0,.14,1.3,2.24,2.24,0,0,0,.5,1,1.34,1.34,0,0,0,1.17.34h.29v4.62A10.5,10.5,0,0,1,47.56,17.25Z"/><path class="cls-1" d="M57.45,17.43a5.22,5.22,0,0,1-4-1.42,5.14,5.14,0,0,1-2,1.1,6.75,6.75,0,0,1-2,.32,2.1,2.1,0,0,1-.56-.07c-.17-.05-.26-.11-.26-.18V13.09c0-.09.09-.16.26-.21a2.1,2.1,0,0,1,.56-.07,3.56,3.56,0,0,0,.76-.09,2.68,2.68,0,0,0,.77-.3,1.94,1.94,0,0,0,.58-.56,1.44,1.44,0,0,0,.23-.87V10.1l3.56-1.17v1.53a3,3,0,0,0,.55,1.8,1.93,1.93,0,0,0,1.51.55H58v4.62ZM58,21.81c-.33.47-.66.92-1,1.33s-.67.86-1,1.34l-2.17-1.64-1.53,1.81-1.39-1-1.38-1c.33-.45.67-.89,1-1.31s.7-.87,1-1.32l2.28,1.78,1.35-2Z"/><path class="cls-1" d="M60.69,12.81a11.59,11.59,0,0,0,2.07-.2,20.57,20.57,0,0,0,2.13-.51c.71-.22,1.4-.47,2.08-.75a13,13,0,0,0,1.83-.93c-.35-.16-.74-.34-1.15-.51s-.81-.34-1.18-.48-.7-.26-1-.36a2.87,2.87,0,0,0-.71-.14,2.16,2.16,0,0,0-1.18.41,5,5,0,0,0-1,.91L59.7,8.5Q60,8,60.57,7.36A9.66,9.66,0,0,1,61.79,6.1a8,8,0,0,1,1.45-1,3,3,0,0,1,1.51-.43,5.46,5.46,0,0,1,2,.41c.68.27,1.4.59,2.16.94l1,.5a9.21,9.21,0,0,0,1.48.55,14.87,14.87,0,0,0,2.27.45,26,26,0,0,0,3.4.14l-1.35,4.84a18.25,18.25,0,0,0-2.1.3,11.08,11.08,0,0,0-1.67.48,11.7,11.7,0,0,0-1.37.62l-1.23.7-1.87,1a16.51,16.51,0,0,1-2,.92,12.7,12.7,0,0,1-2.24.66,12.28,12.28,0,0,1-2.58.25H58a2,2,0,0,1-.55-.07q-.27-.08-.27-.18V13.09q0-.13.27-.21a2,2,0,0,1,.55-.07ZM62.58,23c.33-.48.66-.92,1-1.34s.67-.86,1-1.33l2.17,1.63,1.53-1.85,1.39,1L71,22c-.33.45-.67.9-1,1.34l-1,1.29L66.85,23l-1.53,1.85Zm2.56,3.66q.49-.57,1-1.14l.92-1.1c.41.33.8.65,1.2,1s.78.62,1.19.92q-.5.62-1,1.23t-1,1.23Z"/><path class="cls-1" d="M99,17.43a8.19,8.19,0,0,1-2.17-.25,4.63,4.63,0,0,1-1.6-.74,4.4,4.4,0,0,1-1.14-1.25,8.44,8.44,0,0,1-.79-1.71,10.41,10.41,0,0,1-1.92.68,7.17,7.17,0,0,1-1.78.25,3.18,3.18,0,0,1-2.75-1.21A4.88,4.88,0,0,1,86,10.28a4.5,4.5,0,0,1,.53-2.17,8.73,8.73,0,0,1,1.33-1.83A11.16,11.16,0,0,1,89.6,4.8a16.76,16.76,0,0,1,1.76-1.06l-.22-1.32L94.42,0,96.3,10.53a3.35,3.35,0,0,0,.75,1.73,2.75,2.75,0,0,0,2,.55ZM92.39,9.71a3.82,3.82,0,0,0,0-.41l-.13-.67c0-.25-.09-.48-.12-.68S92,7.61,92,7.54s-.37.2-.68.39a6.91,6.91,0,0,0-.9.66,5.14,5.14,0,0,0-.77.78,1,1,0,0,0-.25.77c0,.21.17.32.45.34a3.53,3.53,0,0,0,.92-.11,6.24,6.24,0,0,0,1-.32A2.71,2.71,0,0,0,92.39,9.71Z"/><path class="cls-1" d="M100.39,24.72l-1.4-1-1.41-1c.38-.48.73-.92,1-1.34s.68-.86,1.09-1.33l1.37,1,1.37,1Zm-.25-11.91c1.52,0,2.28-.28,2.28-.82a1,1,0,0,0-.16-.39q-.17-.28-.39-.63l-.48-.69L101,9.71l2.63-3.66c.17.21.38.52.64.92A13.55,13.55,0,0,1,105,8.36a12.18,12.18,0,0,1,.65,1.71A6.47,6.47,0,0,1,106,12a5.23,5.23,0,0,1-1.5,4,6.12,6.12,0,0,1-4.34,1.39H99a2.1,2.1,0,0,1-.56-.07c-.17-.05-.26-.11-.26-.18V13.09c0-.09.09-.16.26-.21a2.1,2.1,0,0,1,.56-.07Z"/><path class="cls-1" d="M19.35,53.43a3.82,3.82,0,0,1,.11.57,5.46,5.46,0,0,1,0,.57A4.23,4.23,0,0,1,18.78,57a6.92,6.92,0,0,1-1.92,1.89,11.92,11.92,0,0,1-1.67.92,18.14,18.14,0,0,1-2,.76,14.76,14.76,0,0,1-2.13.54,12.69,12.69,0,0,1-2.21.19A11.1,11.1,0,0,1,5,60.67,7.58,7.58,0,0,1,2.21,59,7.1,7.1,0,0,1,.55,56.31,9.71,9.71,0,0,1,0,53a11.65,11.65,0,0,1,.41-2.86,20,20,0,0,1,.94-2.83l3.27,1.49c-.14.33-.27.69-.4,1.09S4,50.63,3.88,51s-.17.74-.23,1.09a5.13,5.13,0,0,0-.09.87,3.26,3.26,0,0,0,1.31,2.65,6.4,6.4,0,0,0,4,1.05,11.56,11.56,0,0,0,3.4-.5A9.48,9.48,0,0,0,14.94,55l.14-.11-1-.42Q13.52,54.18,13,54l-1.09-.45c-.34-.14-.62-.25-.83-.32l.85-4.37H19.5v4.62Z"/><path class="cls-1" d="M27.46,53.43a5.22,5.22,0,0,1-4-1.42,5.14,5.14,0,0,1-2,1.1,6.75,6.75,0,0,1-2,.32,2.1,2.1,0,0,1-.56-.07c-.17,0-.26-.11-.26-.18V49.09c0-.09.09-.16.26-.21a2.1,2.1,0,0,1,.56-.07,3.56,3.56,0,0,0,.76-.09,2.68,2.68,0,0,0,.77-.3,1.94,1.94,0,0,0,.58-.56,1.44,1.44,0,0,0,.23-.87V46.1l3.56-1.17v1.53a3,3,0,0,0,.55,1.8,1.93,1.93,0,0,0,1.51.55H28v4.62ZM28,40.8c-.33.48-.67.92-1,1.34s-.66.86-1,1.33l-2.17-1.64-1.53,1.82-1.39-1-1.39-1c.33-.45.68-.9,1-1.34s.7-.87,1-1.3l2.28,1.78,1.35-2Z"/><path class="cls-1" d="M28,53.43a2,2,0,0,1-.55-.07q-.27-.07-.27-.18V49.09q0-.14.27-.21a2,2,0,0,1,.55-.07h3.56v4.62Z"/><path class="cls-1" d="M31.52,53.43a2,2,0,0,1-.55-.07q-.27-.07-.27-.18V49.09q0-.14.27-.21a2,2,0,0,1,.55-.07h3.56v4.62Z"/><path class="cls-1" d="M54.68,53.25a3,3,0,0,1-1.71-1,4.58,4.58,0,0,1-1.46.91,5.61,5.61,0,0,1-2,.33,6.85,6.85,0,0,1-1.84-.25A3.48,3.48,0,0,1,46,52.19a5.09,5.09,0,0,1-1.42.94,4.78,4.78,0,0,1-2,.37,6.87,6.87,0,0,1-1.85-.25A3.41,3.41,0,0,1,39,52.19a4.49,4.49,0,0,1-1.46.9,5.43,5.43,0,0,1-2,.34h-.46a2,2,0,0,1-.55-.07q-.27-.07-.27-.18V49.09q0-.14.27-.21a2,2,0,0,1,.55-.07h.46a2.13,2.13,0,0,0,1-.2,1.58,1.58,0,0,0,.57-.46,1.53,1.53,0,0,0,.26-.53,1.71,1.71,0,0,0,.07-.45V46.9c0-.13,0-.26,0-.41a2.82,2.82,0,0,1,0-.41v-.3l3.09-.89a8.15,8.15,0,0,1,.08,1.19,5.08,5.08,0,0,0,.16,1.32,2.23,2.23,0,0,0,.56,1.05,1.68,1.68,0,0,0,1.27.43,1.9,1.9,0,0,0,1-.21,2,2,0,0,0,.55-.49,1.36,1.36,0,0,0,.25-.55,3.17,3.17,0,0,0,0-.46V46.9a3,3,0,0,0,0-.41c0-.14,0-.27,0-.41v-.3l3.09-.89a8.28,8.28,0,0,1,.07,1.19,5.55,5.55,0,0,0,.16,1.32,2.33,2.33,0,0,0,.57,1.05,1.66,1.66,0,0,0,1.26.43,2.1,2.1,0,0,0,1-.2,1.58,1.58,0,0,0,.57-.46,1.77,1.77,0,0,0,.27-.53,1.71,1.71,0,0,0,.07-.45V47c0-.13,0-.26,0-.4s0-.28,0-.41v-.31l3.1-.89a8.34,8.34,0,0,1,.07,1.2,6,6,0,0,0,.14,1.3,2.34,2.34,0,0,0,.5,1,1.36,1.36,0,0,0,1.18.34h.28v4.62A10.4,10.4,0,0,1,54.68,53.25Z"/><path class="cls-1" d="M64.57,53.43a5.22,5.22,0,0,1-4-1.42,5.18,5.18,0,0,1-2,1.1,6.7,6.7,0,0,1-2,.32,2,2,0,0,1-.55-.07q-.27-.07-.27-.18V49.09q0-.14.27-.21a2,2,0,0,1,.55-.07,3.49,3.49,0,0,0,.76-.09,2.57,2.57,0,0,0,.77-.3,2,2,0,0,0,.59-.56A1.52,1.52,0,0,0,59,47V46.1l3.56-1.17v1.53a3,3,0,0,0,.55,1.8,1.92,1.92,0,0,0,1.51.55h.5v4.62Zm.57,4.38c-.33.47-.67.92-1,1.33s-.66.86-1,1.34L61,58.84l-1.53,1.81-1.39-1-1.39-1c.33-.45.68-.89,1-1.31s.7-.87,1-1.32L61,57.88l1.35-2Z"/><path class="cls-1" d="M65.07,48.81A21.7,21.7,0,0,0,68,48.65a5.43,5.43,0,0,0,1.57-.43,1.3,1.3,0,0,0,.64-.6,2,2,0,0,0,.12-.66,2.46,2.46,0,0,0-.6-1.46,17,17,0,0,0-1.44-1.6c-.56-.55-1.14-1.08-1.75-1.6a13.52,13.52,0,0,1-1.47-1.46l.07-1.92a4.21,4.21,0,0,1,.51-1.6,5.42,5.42,0,0,1,.63-.79,12.32,12.32,0,0,1,1.13-.78l1.85-1.14c.72-.42,1.5-.87,2.35-1.33s1.72-.93,2.6-1.39,1.73-.89,2.56-1.3,1.59-.76,2.28-1.07v5.16c-.83.36-1.68.74-2.55,1.16L74,37.07c-.83.4-1.62.81-2.36,1.22l-2,1.16c.45.4.93.87,1.44,1.39a13.09,13.09,0,0,1,1.41,1.71,9.68,9.68,0,0,1,1.06,2A6.46,6.46,0,0,1,73.89,47a13.3,13.3,0,0,1-.2,2.27,4.06,4.06,0,0,1-1.06,2.09A6.28,6.28,0,0,1,70,52.84a16,16,0,0,1-4.91.59,2,2,0,0,1-.55-.07q-.27-.07-.27-.18V49.09q0-.14.27-.21A2,2,0,0,1,65.07,48.81Z"/><path class="cls-1" d="M88.1,52.88a4.9,4.9,0,0,1-1.81-1.48,6,6,0,0,1-1-2.1A9.21,9.21,0,0,1,85,46.89l0-13.59L88.48,32l0,14.91A2,2,0,0,0,89,48.2a2.18,2.18,0,0,0,1.76.61v4.62A6,6,0,0,1,88.1,52.88Z"/><path class="cls-1" d="M96,57.81c-.34.47-.67.92-1,1.33s-.66.86-1,1.34l-2.17-1.64-1.53,1.81-1.38-1-1.39-1c.33-.45.68-.89,1-1.31s.7-.87,1-1.32l2.28,1.78,1.35-2Zm-4.09-9c1.51,0,2.27-.28,2.27-.82A1,1,0,0,0,94,47.6a6.09,6.09,0,0,0-.39-.63l-.48-.69-.39-.57,2.63-3.66c.17.21.38.52.64.92a13.55,13.55,0,0,1,.77,1.39,12.18,12.18,0,0,1,.66,1.71A6.46,6.46,0,0,1,97.76,48a5.26,5.26,0,0,1-1.49,4,6.15,6.15,0,0,1-4.34,1.39H90.79a2,2,0,0,1-.55-.07q-.27-.07-.27-.18V49.09q0-.14.27-.21a2,2,0,0,1,.55-.07Z"/><path class="cls-1" d="M9.68,94.27l-7.51,2.1-.28-1.32,7.47-2.24Z"/><path class="cls-1" d="M5.09,89.43a11.25,11.25,0,0,1-2.72-.32,7.05,7.05,0,0,1-2.37-1L1.35,85.8a4.08,4.08,0,0,0,1.85.82,12.06,12.06,0,0,0,2.07.18c.42,0,.89,0,1.4-.07a5.78,5.78,0,0,0,1.42-.32,3.2,3.2,0,0,0,1.12-.71,1.7,1.7,0,0,0,.47-1.25,3.2,3.2,0,0,0-.55-1.76,7.75,7.75,0,0,0-1.34-1.53A13.78,13.78,0,0,0,6.12,79.9l-1.53-1,1.07-2.71a26.76,26.76,0,0,1,2.18,1.66,13.16,13.16,0,0,1,1.93,2,10.4,10.4,0,0,1,1.35,2.26,6.66,6.66,0,0,1,.51,2.6A3.77,3.77,0,0,1,11,86.94,4.92,4.92,0,0,1,9.43,88.4a6.6,6.6,0,0,1-2.12.8A10.88,10.88,0,0,1,5.09,89.43Z"/><path class="cls-1" d="M20,88.93a7.34,7.34,0,0,1-.89,3.28,12.94,12.94,0,0,1-2,2.83,17.93,17.93,0,0,1-2.69,2.31A23.5,23.5,0,0,1,11.56,99L9.93,97.19a29.39,29.39,0,0,0,2.75-1.51,17.58,17.58,0,0,0,2.42-1.82,11,11,0,0,0,1.82-2.08,5.8,5.8,0,0,0,.9-2.35,4.55,4.55,0,0,0-.48-2.13,13.46,13.46,0,0,0-1.08-1.75l1.78-2c.3.42.58.83.82,1.22a7.09,7.09,0,0,0,.74,1,3.62,3.62,0,0,0,.86.72,2,2,0,0,0,1.13.29v2.63A2.92,2.92,0,0,1,20,88.93Z"/><path class="cls-1" d="M20.78,87.05c0-.1.08-.16.26-.2a3.31,3.31,0,0,1,.55,0h3.28a12.17,12.17,0,0,0,1.56-.11A6.59,6.59,0,0,0,28,86.32a3.15,3.15,0,0,0,1.18-.75,1.77,1.77,0,0,0,.46-1.26v-.23a.59.59,0,0,0,0-.23,11.37,11.37,0,0,1-1.49.57,5.42,5.42,0,0,1-1.46.21,2.6,2.6,0,0,1-1.8-.66,2.9,2.9,0,0,1-.73-2.22A6.62,6.62,0,0,1,24.37,80a8.55,8.55,0,0,1,.8-1.92,6.3,6.3,0,0,1,1.19-1.55,2.08,2.08,0,0,1,1.46-.64,2.11,2.11,0,0,1,1.67.85,7.32,7.32,0,0,1,1.18,2,13.39,13.39,0,0,1,.69,2.42,11.93,11.93,0,0,1,.23,2q0,6.23-6.4,6.22h-3.6a2,2,0,0,1-.55-.07c-.18,0-.26-.11-.26-.18Zm6.9-13.8-2.35-1.64,1.78-2.17,2.31,1.63Zm-.61,8.89a3.34,3.34,0,0,0,1.07-.2,5.46,5.46,0,0,0,1-.44c-.08-.31-.16-.64-.27-1a8,8,0,0,0-.37-1,2.92,2.92,0,0,0-.5-.73.93.93,0,0,0-.64-.28.84.84,0,0,0-.55.23,2.38,2.38,0,0,0-.48.59,3.47,3.47,0,0,0-.36.78,2.48,2.48,0,0,0-.14.82,1.3,1.3,0,0,0,.28.85A1.15,1.15,0,0,0,27.07,82.14Z"/><path class="cls-1" d="M53.36,89.43a5,5,0,0,1-3.54-1,5.89,5.89,0,0,1-1.51-3.17l0-.14a6.74,6.74,0,0,1-1.94.94,7.44,7.44,0,0,1-2.3.38,3,3,0,0,1-1.79-.48,2.44,2.44,0,0,1-.91-1.19,3.23,3.23,0,0,1-.11-1.59,5,5,0,0,1,.57-1.62,11.61,11.61,0,0,1,5-4.19l-.36-2,2-1.5,1.7,8.76c.15.66.29,1.25.43,1.78A4.83,4.83,0,0,0,51,85.73a2.22,2.22,0,0,0,.87.8,3.1,3.1,0,0,0,1.39.27h.25v2.63Zm-6.19-9.89a8.14,8.14,0,0,0-1.51.82,8.59,8.59,0,0,0-1.4,1.17c-.72.72-1,1.28-.81,1.69s.71.57,1.59.45a6.56,6.56,0,0,0,1.63-.43,3.83,3.83,0,0,0,1.14-.6Z"/><path class="cls-1" d="M54.61,96.55,52.3,94.91,54,92.74l2.35,1.64Zm-1.89-9.5c0-.1.09-.16.27-.2a3.31,3.31,0,0,1,.55,0h.71a5.16,5.16,0,0,0,2.23-.41,1.37,1.37,0,0,0,.83-1.3,2.63,2.63,0,0,0-.51-1.44c-.35-.51-.67-1-1-1.37l1.81-2A8.18,8.18,0,0,1,59,82.42a6.91,6.91,0,0,1,.5,2.46q0,4.55-5.34,4.55h-.57a2,2,0,0,1-.55-.07q-.27-.08-.27-.18Z"/><path class="cls-1" d="M75.63,88.93a7.48,7.48,0,0,1-.89,3.28,12.94,12.94,0,0,1-2,2.83A17.93,17.93,0,0,1,70,97.35,23.5,23.5,0,0,1,67.2,99l-1.64-1.85a28.33,28.33,0,0,0,2.76-1.51,17.58,17.58,0,0,0,2.42-1.82,11.31,11.31,0,0,0,1.82-2.08,5.8,5.8,0,0,0,.9-2.35A4.55,4.55,0,0,0,73,87.3a13.46,13.46,0,0,0-1.08-1.75l1.78-2c.3.42.58.83.81,1.22a8,8,0,0,0,.75,1,3.62,3.62,0,0,0,.86.72,2,2,0,0,0,1.13.29v2.63A2.89,2.89,0,0,1,75.63,88.93Z"/><path class="cls-1" d="M100.14,89.43a3.72,3.72,0,0,1-3.45-1.56l0,0a9.45,9.45,0,0,1-2.1.91,20.33,20.33,0,0,1-2.31.53,18.83,18.83,0,0,1-2.33.25c-.77,0-1.49,0-2.16,0-.9,0-1.72,0-2.47,0a13.83,13.83,0,0,1-2-.21,4.89,4.89,0,0,1-1.51-.56,2.55,2.55,0,0,1-1-1.08,3,3,0,0,1-2.92,1.74h-.71a2,2,0,0,1-.55-.07q-.27-.08-.27-.18V87.05c0-.1.09-.16.27-.2a3.31,3.31,0,0,1,.55,0h.18a2.29,2.29,0,0,0,2-.75,5,5,0,0,0,.54-2.74L82,82.6a12.56,12.56,0,0,0,.17,2.21,2.36,2.36,0,0,0,.93,1.65,4.19,4.19,0,0,0,1.88.48q1.5-1.81,2.83-3.27a24.36,24.36,0,0,1,2.65-2.51,11.29,11.29,0,0,1,2.64-1.6A7,7,0,0,1,95.91,79a3.45,3.45,0,0,1,1.42.3,4.32,4.32,0,0,1,1.21.8,3.56,3.56,0,0,1,1.14,2.6,5.89,5.89,0,0,1-.32,2,6.39,6.39,0,0,1-.82,1.58,3.08,3.08,0,0,0,1.85.5h.93v2.63Zm-5.55-7.79a3.9,3.9,0,0,0-1.92.57,12.27,12.27,0,0,0-2,1.41,23.05,23.05,0,0,0-1.82,1.74l-1.49,1.58h.28c.48,0,1,0,1.71,0s1.36,0,2.08-.1,1.44-.15,2.15-.27A8.81,8.81,0,0,0,95.54,86a4.06,4.06,0,0,0,1.35-.91,1.89,1.89,0,0,0,.51-1.33,2,2,0,0,0-.24-1,1.87,1.87,0,0,0-.66-.65,3.4,3.4,0,0,0-.91-.33A4.79,4.79,0,0,0,94.59,81.64Z"/><path class="cls-1" d="M101.32,89.43a2,2,0,0,1-.55-.07q-.27-.08-.27-.18V87.05c0-.1.09-.16.27-.2a3.21,3.21,0,0,1,.55,0h3.31v2.63Z"/><path class="cls-1" d="M104.63,89.43a2.1,2.1,0,0,1-.56-.07c-.17,0-.26-.11-.26-.18V87.05c0-.1.09-.16.26-.2a3.43,3.43,0,0,1,.56,0h3.3v2.63Z"/><path class="cls-1" d="M126,89.43a5,5,0,0,1-2-.32,3.2,3.2,0,0,1-1.25-.89,4,4,0,0,1-.74-1.33,15.69,15.69,0,0,1-.48-1.66l-2.73,1.44c-.91.49-1.84.94-2.79,1.36a21,21,0,0,1-2.88,1,11.38,11.38,0,0,1-3,.39h-2.32a2,2,0,0,1-.55-.07c-.18,0-.26-.11-.26-.18V87.05c0-.1.08-.16.26-.2a3.31,3.31,0,0,1,.55,0h2.28a13,13,0,0,0,3-.32,17.81,17.81,0,0,0,2.56-.8c.81-.32,1.6-.68,2.37-1.07s1.57-.78,2.4-1.15c-1.71-.72-3.1-1.27-4.18-1.68a8.25,8.25,0,0,0-2.11-.6,1.88,1.88,0,0,0-1,.32,5.1,5.1,0,0,0-1.09,1.07l-1.64-.82c1.19-2.23,2.36-3.35,3.53-3.35a6.25,6.25,0,0,1,2.31.54c.88.35,1.8.75,2.77,1.19s2,.83,3,1.19a9.39,9.39,0,0,0,3.09.53,6.59,6.59,0,0,0,1.64-.21l-.57,2.53a7.66,7.66,0,0,0-3.34.57,2.34,2.34,0,0,0,1.31,1.7,7.05,7.05,0,0,0,2.49.36h1.78v2.63Z"/><path class="cls-1" d="M136.5,89.43a5.69,5.69,0,0,1-2.76-.53,3.16,3.16,0,0,1-1.33-1.6,4,4,0,0,1-1.69,1.63,4.65,4.65,0,0,1-2.12.5h-.14a2,2,0,0,1-.55-.07q-.27-.08-.27-.18V87.05c0-.1.09-.16.27-.2a3.31,3.31,0,0,1,.55,0,4.33,4.33,0,0,0,2.26-.59,2.16,2.16,0,0,0,1-2V83.06l1.85-.67a12.82,12.82,0,0,0,.14,2,3.41,3.41,0,0,0,.52,1.37,2.2,2.2,0,0,0,1,.78,4.75,4.75,0,0,0,1.69.25v2.63Zm-3.91-9.25-2.35-1.63L132,76.38,134.33,78Z"/><path class="cls-1" d="M136.11,87.05c0-.1.09-.16.27-.2a3.21,3.21,0,0,1,.55,0h.53a3.31,3.31,0,0,0,.77-.09,4,4,0,0,0,.55-.16,2.63,2.63,0,0,0,1.1-.85,8.34,8.34,0,0,0,.84-1.37q.38-.77.69-1.59a9.83,9.83,0,0,1,.73-1.49,4.23,4.23,0,0,1,.92-1.1,1.92,1.92,0,0,1,1.27-.43,2.32,2.32,0,0,1,1.63.66,5.32,5.32,0,0,1,1.18,1.6,8.53,8.53,0,0,1,.69,2,8.29,8.29,0,0,1,.23,1.83,5.44,5.44,0,0,1-.14,1.25,4.28,4.28,0,0,1-.43,1.17,2.38,2.38,0,0,1-.76.87,1.86,1.86,0,0,1-1.12.34,3.37,3.37,0,0,1-1.1-.21,7.5,7.5,0,0,1-1.2-.54c-.39-.21-.76-.43-1.12-.67a8.19,8.19,0,0,1-.89-.68,4.18,4.18,0,0,1-1.42,1.57,4.47,4.47,0,0,1-2.35.53h-.6a2,2,0,0,1-.55-.07q-.27-.08-.27-.18Zm6.19-1.82a16,16,0,0,0,1.48.93,2.84,2.84,0,0,0,1.26.43.59.59,0,0,0,.57-.4,2.08,2.08,0,0,0,.18-.89,4.79,4.79,0,0,0-.11-1,3.55,3.55,0,0,0-.32-.9,2.55,2.55,0,0,0-.5-.68.87.87,0,0,0-.6-.27c-.24,0-.54.19-.91.57A5.7,5.7,0,0,0,142.3,85.23Z"/><path class="cls-1" d="M2.67,124.74a4.28,4.28,0,0,1-1.55-1.8,7.35,7.35,0,0,1-.64-2.49c-.08-.92-.12-1.84-.12-2.74V104l2.24-1.49,0,16.29a13.87,13.87,0,0,0,.07,1.46A3.3,3.3,0,0,0,3,121.55a2.19,2.19,0,0,0,.9.91,3.33,3.33,0,0,0,1.64.34v2.63A5.15,5.15,0,0,1,2.67,124.74Z"/><path class="cls-1" d="M4.73,123.05c0-.1.09-.16.27-.2a3.31,3.31,0,0,1,.55,0H9.34a1.73,1.73,0,0,0,.41,0,5.12,5.12,0,0,1-1.27-1.28,2.88,2.88,0,0,1-.44-1.6,3.37,3.37,0,0,1,.34-1.44,6.08,6.08,0,0,1,.87-1.37,7.26,7.26,0,0,1,1.21-1.14,8.71,8.71,0,0,1,1.32-.81,5.09,5.09,0,0,0-.5-.38,5.66,5.66,0,0,1-.47-.34l1.07-2.49c.78.6,1.6,1.24,2.44,1.94a26.58,26.58,0,0,1,2.38,2.24,21.23,21.23,0,0,1,2,2.46A8.84,8.84,0,0,1,20,121.13a7.34,7.34,0,0,1,.34,2.24,4,4,0,0,1-.45,1.88,2.06,2.06,0,0,1-1.28,1,3.39,3.39,0,0,1-2.17-.23c-.59-.24-1.23-.51-1.92-.83s-1.32-.63-1.89-.91a7.15,7.15,0,0,1-1.95.84,8.63,8.63,0,0,1-2.07.26h-3a2,2,0,0,1-.55-.07q-.27-.08-.27-.18Zm7-2a1.77,1.77,0,0,1,.41.21c.16.09.33.19.52.28a2.82,2.82,0,0,0,.3-.25,1.25,1.25,0,0,1,.2-.14,1.88,1.88,0,0,0,.58-.87,3.06,3.06,0,0,0,.2-1,3.65,3.65,0,0,0-.09-.77,2.52,2.52,0,0,0-.28-.74,1.87,1.87,0,0,0-.48-.56,1.07,1.07,0,0,0-.64-.21,1.71,1.71,0,0,0-.8.21,3,3,0,0,0-.75.57,3.74,3.74,0,0,0-.57.77,1.5,1.5,0,0,0-.23.76,1.28,1.28,0,0,0,.51,1A7.81,7.81,0,0,0,11.7,121.06Zm4-2.46a6.45,6.45,0,0,1-.26,2.15,6.23,6.23,0,0,1-.84,1.76l1.48.7c.44.2.75.34.94.41.66.21,1.06.09,1.19-.36a2.38,2.38,0,0,0-.26-1.64,9.79,9.79,0,0,0-.95-1.47C16.63,119.64,16.2,119.12,15.72,118.6Z"/><path class="cls-1" d="M39.24,116.64A11.15,11.15,0,0,1,40.86,120a10.72,10.72,0,0,1,.39,3.42,9,9,0,0,1-.75,3.17,8.22,8.22,0,0,1-1.83,2.61A8.58,8.58,0,0,1,35.84,131a9.94,9.94,0,0,1-3.72.66,7.85,7.85,0,0,1-4.51-1.18,6.43,6.43,0,0,1-2.48-3,8.5,8.5,0,0,1-.49-4.06,11.09,11.09,0,0,1,1.4-4.3l1.74.78a10.94,10.94,0,0,0-.92,4.66,4.37,4.37,0,0,0,.94,2.55,5.06,5.06,0,0,0,2.05,1.49,6.83,6.83,0,0,0,2.63.46,7.42,7.42,0,0,0,2.7-.53A6.17,6.17,0,0,0,37.43,127a4.89,4.89,0,0,0,1.24-2.51,7.38,7.38,0,0,0-.07-3.2,9.47,9.47,0,0,0-1.42-3.17Zm-6.76.54-2.35-1.64,1.78-2.17L34.22,115Z"/><path class="cls-1" d="M47.85,124.74a4.28,4.28,0,0,1-1.55-1.8,7.35,7.35,0,0,1-.64-2.49c-.08-.92-.12-1.84-.12-2.74V104l2.24-1.49,0,16.29c0,.5,0,1,.07,1.46a3.48,3.48,0,0,0,.38,1.28,2.19,2.19,0,0,0,.9.91,3.33,3.33,0,0,0,1.64.34v2.63A5.15,5.15,0,0,1,47.85,124.74Z"/><path class="cls-1" d="M50.73,125.43a2,2,0,0,1-.55-.07q-.27-.08-.27-.18v-2.13c0-.1.09-.16.27-.2a3.31,3.31,0,0,1,.55,0H54v2.63Z"/><path class="cls-1" d="M74.6,125.43a3.67,3.67,0,0,1-2.06-.48,2.49,2.49,0,0,1-1-1.33,2.88,2.88,0,0,1-1.37,1.44,4.44,4.44,0,0,1-1.9.41,4.31,4.31,0,0,1-2-.47,3.43,3.43,0,0,1-1.42-1.38,3.17,3.17,0,0,1-1.64,1.46,5.78,5.78,0,0,1-2.06.39,4,4,0,0,1-1.87-.45,2.88,2.88,0,0,1-1.33-1.4,3.49,3.49,0,0,1-3.38,1.81H54a2,2,0,0,1-.55-.07q-.27-.08-.27-.18v-2.13c0-.1.09-.16.27-.2a3.21,3.21,0,0,1,.55,0h.07c2,0,3-1.12,3-3.34l1.78-.65a12.56,12.56,0,0,0,.09,1.55,4.63,4.63,0,0,0,.32,1.26,2,2,0,0,0,.69.86,2.2,2.2,0,0,0,1.25.32,2.93,2.93,0,0,0,2-.64,3.22,3.22,0,0,0,.71-2.42v-.28l1.78-.68c0,.5.06,1,.12,1.48a4.22,4.22,0,0,0,.36,1.29,2.43,2.43,0,0,0,.74.93,2.13,2.13,0,0,0,1.3.35,2.56,2.56,0,0,0,1.28-.28,1.94,1.94,0,0,0,.77-.76,3.51,3.51,0,0,0,.37-1.09,7.24,7.24,0,0,0,.11-1.24l1.64-.65c0,.6,0,1.14.1,1.62a3.64,3.64,0,0,0,.34,1.27,1.85,1.85,0,0,0,.78.81,2.92,2.92,0,0,0,1.44.29h.5v2.63Z"/><path class="cls-1" d="M74.74,123.05c0-.1.09-.16.27-.2a3.31,3.31,0,0,1,.55,0h.71a5.16,5.16,0,0,0,2.23-.41,1.37,1.37,0,0,0,.83-1.3,2.63,2.63,0,0,0-.51-1.44c-.35-.51-.67-1-1-1.37l1.81-2a8.18,8.18,0,0,1,1.32,2.1,6.91,6.91,0,0,1,.5,2.46q0,4.55-5.34,4.55h-.57a2,2,0,0,1-.55-.07q-.27-.08-.27-.18Zm4.2-8.65-2.35-1.63,1.78-2.17,2.31,1.63Z"/><path class="cls-1" d="M87.8,124.93l-1.81.5c0-1.28-.09-2.79-.13-4.53s-.07-3.59-.11-5.54-.07-3.91-.12-5.92-.1-3.92-.14-5.74l2.31-.93Z"/><path class="cls-1" d="M114.69,125.43a2.46,2.46,0,0,1,.81,1.89,3.74,3.74,0,0,1-.66,2,6.93,6.93,0,0,1-1.5,1.44,12.83,12.83,0,0,1-2.17,1.24,13.14,13.14,0,0,1-2.59.87,12.18,12.18,0,0,1-2.81.32,10.21,10.21,0,0,1-4.77-1,6.51,6.51,0,0,1-2.83-2.76,7.52,7.52,0,0,1-.77-4,12.25,12.25,0,0,1,1.46-4.8l1.82.67a10.74,10.74,0,0,0-1,3.49,5.45,5.45,0,0,0,.41,2.95,4.29,4.29,0,0,0,2,2,7.87,7.87,0,0,0,3.72.75,13.34,13.34,0,0,0,5.94-1.46,5.84,5.84,0,0,0,.8-.48,3.63,3.63,0,0,0,.6-.53,1.08,1.08,0,0,0,.27-.5c0-.16-.06-.27-.25-.34l-4.55-1.78c.16-.59.29-1.07.37-1.42a3.05,3.05,0,0,1,.27-.8.64.64,0,0,1,.33-.34,1.66,1.66,0,0,1,.56-.07h5.4v2.63Z"/><path class="cls-1" d="M114.69,123.05c0-.1.09-.16.27-.2a3.31,3.31,0,0,1,.55,0h2.32a13.16,13.16,0,0,0,3-.3,14,14,0,0,0,2.39-.79c.73-.32,1.45-.67,2.15-1.06a25,25,0,0,1,2.26-1.12l-2.17-.93-1.57-.66-1.06-.41a2.47,2.47,0,0,0-.68-.14,3.11,3.11,0,0,0-1.25.3,3.81,3.81,0,0,0-1.28,1L118,118a7,7,0,0,1,1.94-2.48,3.45,3.45,0,0,1,1.94-.8,5.54,5.54,0,0,1,2.46.66c.87.44,1.88.89,3,1.34.52.23,1,.43,1.42.58a10.14,10.14,0,0,0,1.3.38,13.78,13.78,0,0,0,1.42.21c.51,0,1.12.07,1.84.07l-.61,2.56a12.92,12.92,0,0,0-1.3.06q-.59,0-1.08.12a7,7,0,0,0-2.74,1l-2.69,1.6a22.72,22.72,0,0,1-3.09,1.47,11,11,0,0,1-4,.66h-2.32a2,2,0,0,1-.55-.07q-.27-.08-.27-.18ZM123,112.2l-2.35-1.64,1.78-2.17,2.31,1.64Z"/><path class="cls-1" d="M141.7,124.93a7.61,7.61,0,0,1-.89,3.28,13.33,13.33,0,0,1-2.05,2.83,17.86,17.86,0,0,1-2.68,2.31,23.58,23.58,0,0,1-2.82,1.69l-1.63-1.85a28.33,28.33,0,0,0,2.76-1.51,18.1,18.1,0,0,0,2.41-1.82,11,11,0,0,0,1.82-2.08,5.82,5.82,0,0,0,.91-2.35,4.55,4.55,0,0,0-.48-2.13,13.52,13.52,0,0,0-1.09-1.75l1.78-2c.31.42.58.83.82,1.22a7.09,7.09,0,0,0,.74,1,3.83,3.83,0,0,0,.86.72,2.06,2.06,0,0,0,1.14.29v2.63A2.87,2.87,0,0,1,141.7,124.93Z"/><path class="cls-1" d="M142.48,123.05c0-.1.09-.16.27-.2a3.21,3.21,0,0,1,.55,0H144a5.14,5.14,0,0,0,2.22-.41,1.36,1.36,0,0,0,.84-1.3,2.57,2.57,0,0,0-.52-1.44c-.34-.51-.67-1-1-1.37l1.82-2a7.87,7.87,0,0,1,1.31,2.1,6.7,6.7,0,0,1,.5,2.46q0,4.55-5.33,4.55h-.57a2,2,0,0,1-.55-.07q-.27-.08-.27-.18Zm3.16,9.5-2.31-1.64,1.75-2.17,2.34,1.64Z"/><path class="cls-1" d="M2.67,160.74a4.28,4.28,0,0,1-1.55-1.8,7.35,7.35,0,0,1-.64-2.49c-.08-.92-.12-1.84-.12-2.74V140l2.24-1.49,0,16.29a13.87,13.87,0,0,0,.07,1.46A3.3,3.3,0,0,0,3,157.55a2.19,2.19,0,0,0,.9.91,3.33,3.33,0,0,0,1.64.34v2.63A5.15,5.15,0,0,1,2.67,160.74Z"/><path class="cls-1" d="M4.73,159.05c0-.1.09-.16.27-.2a3.31,3.31,0,0,1,.55,0H9.34a1.73,1.73,0,0,0,.41,0,5.12,5.12,0,0,1-1.27-1.28,2.88,2.88,0,0,1-.44-1.6,3.37,3.37,0,0,1,.34-1.44,6.08,6.08,0,0,1,.87-1.37,7.26,7.26,0,0,1,1.21-1.14,8.71,8.71,0,0,1,1.32-.81,5.09,5.09,0,0,0-.5-.38,5.66,5.66,0,0,1-.47-.34l1.07-2.49c.78.6,1.6,1.24,2.44,1.94a26.58,26.58,0,0,1,2.38,2.24,21.23,21.23,0,0,1,2,2.46A8.84,8.84,0,0,1,20,157.13a7.34,7.34,0,0,1,.34,2.24,4,4,0,0,1-.45,1.88,2.06,2.06,0,0,1-1.28,1.05,3.39,3.39,0,0,1-2.17-.23c-.59-.24-1.23-.51-1.92-.83s-1.32-.63-1.89-.91a7.15,7.15,0,0,1-1.95.84,8.63,8.63,0,0,1-2.07.26h-3a2,2,0,0,1-.55-.07q-.27-.08-.27-.18Zm7-2a1.77,1.77,0,0,1,.41.21c.16.09.33.19.52.28a2.82,2.82,0,0,0,.3-.25,1.25,1.25,0,0,1,.2-.14,1.88,1.88,0,0,0,.58-.87,3.06,3.06,0,0,0,.2-1,3.65,3.65,0,0,0-.09-.77,2.52,2.52,0,0,0-.28-.74,1.87,1.87,0,0,0-.48-.56,1.07,1.07,0,0,0-.64-.21,1.71,1.71,0,0,0-.8.21,3,3,0,0,0-.75.57,3.74,3.74,0,0,0-.57.77,1.5,1.5,0,0,0-.23.76,1.28,1.28,0,0,0,.51,1A7.81,7.81,0,0,0,11.7,157.06Zm4-2.46a6.45,6.45,0,0,1-.26,2.15,6.23,6.23,0,0,1-.84,1.76l1.48.7c.44.2.75.34.94.41.66.21,1.06.09,1.19-.36a2.38,2.38,0,0,0-.26-1.64,9.79,9.79,0,0,0-.95-1.47C16.63,155.64,16.2,155.12,15.72,154.6Z"/><path class="cls-1" d="M28.71,160.93a6.67,6.67,0,0,1-.82,3.21A13,13,0,0,1,25.83,167a17.85,17.85,0,0,1-2.72,2.35A22.92,22.92,0,0,1,20.28,171l-1.64-1.85a27.45,27.45,0,0,0,2.83-1.57A17.34,17.34,0,0,0,24,165.68a9.84,9.84,0,0,0,1.85-2.24,4.75,4.75,0,0,0,.71-2.51,4,4,0,0,0-.53-2,20,20,0,0,0-1.1-1.78l1.88-1.88a11.55,11.55,0,0,1,1.44,2.81A8.72,8.72,0,0,1,28.71,160.93Z"/><path class="cls-1" d="M35.29,160.74a4.35,4.35,0,0,1-1.55-1.8,7.59,7.59,0,0,1-.64-2.49c-.08-.92-.12-1.84-.12-2.74V140l2.24-1.49,0,16.29a13.83,13.83,0,0,0,.08,1.46,3.29,3.29,0,0,0,.37,1.28,2.16,2.16,0,0,0,.91.91,3.27,3.27,0,0,0,1.63.34v2.63A5.15,5.15,0,0,1,35.29,160.74Z"/><path class="cls-1" d="M37.35,159.05c0-.1.09-.16.27-.2a3.31,3.31,0,0,1,.55,0H39.6q3.87,0,3.87-2.74a3.29,3.29,0,0,0-.66-1.85,12.41,12.41,0,0,0-1.53-1.85q-.87-.88-1.77-1.65c-.61-.51-1.08-.93-1.41-1.27.07-1.54.29-2.45.64-2.74a57,57,0,0,1,5.89-3.54q3.46-1.83,7.67-3.68l-.36,2.81c-.28.1-.73.29-1.33.57l-2.07,1c-.77.37-1.58.76-2.43,1.19s-1.66.84-2.42,1.25-1.43.77-2,1.1a13.43,13.43,0,0,0-1.27.78q5.13,4.28,5.13,7.69a5,5,0,0,1-.57,2.43A5.43,5.43,0,0,1,43.46,160a7,7,0,0,1-2.16,1.05,9.13,9.13,0,0,1-2.52.35h-.61a2,2,0,0,1-.55-.07q-.27-.08-.27-.18Z"/><path class="cls-1" d="M47.6,169.19c.92-.48,1.84-1,2.74-1.55a17.17,17.17,0,0,0,2.45-1.83,10.25,10.25,0,0,0,1.85-2.19,6.36,6.36,0,0,0,.93-2.65,7.56,7.56,0,0,1-1.16.46,4.26,4.26,0,0,1-1.26.18,3.72,3.72,0,0,1-2.35-.78,2.94,2.94,0,0,1-1-2.46,6.6,6.6,0,0,1,.26-1.78,6.9,6.9,0,0,1,.77-1.78A5,5,0,0,1,52,153.46a2.55,2.55,0,0,1,1.58-.53,2.84,2.84,0,0,1,2,.73,5.41,5.41,0,0,1,1.28,1.78,8.76,8.76,0,0,1,.67,2.2,12.24,12.24,0,0,1,.2,2,10,10,0,0,1-.71,3.79,12.27,12.27,0,0,1-1.89,3.13,15.08,15.08,0,0,1-2.7,2.52,24.57,24.57,0,0,1-3.17,2ZM53.4,159a4.24,4.24,0,0,0,1.14-.14,2.46,2.46,0,0,0,1-.5,6.16,6.16,0,0,0-.63-1.87,1.51,1.51,0,0,0-1.44-.83,1.54,1.54,0,0,0-1.19.62,2.23,2.23,0,0,0-.51,1.44,1,1,0,0,0,.51,1A2.6,2.6,0,0,0,53.4,159Z"/><path class="cls-1" d="M89,161.43c-2.06,0-3.29-.89-3.66-2.67a8.87,8.87,0,0,1-4.9,2.53,41.35,41.35,0,0,1-8.94.85q-1.53,0-3.21-.12a11.3,11.3,0,0,1-3.07-.64,5.5,5.5,0,0,1-2.32-1.57A4.24,4.24,0,0,1,62,157a6,6,0,0,1,.28-1.82,5.39,5.39,0,0,1,.82-1.6l1.67.47a4.67,4.67,0,0,0-.53,1.26,4.78,4.78,0,0,0-.14,1.19,2.06,2.06,0,0,0,.78,1.74,5,5,0,0,0,1.92.89,11.67,11.67,0,0,0,2.44.34c.86,0,1.65.06,2.36.06s1.57,0,2.49-.06,1.87-.09,2.83-.18,1.9-.2,2.83-.35a16.16,16.16,0,0,0,2.51-.62,7.25,7.25,0,0,0,1.85-.93A2.22,2.22,0,0,0,85,156l.17-1,1.46-.49a7.21,7.21,0,0,0,.55,3.14,2.28,2.28,0,0,0,2.26,1.09h.11v2.63Zm-14.55,7.12-2.31-1.64,1.74-2.17,2.35,1.64Z"/><path class="cls-1" d="M89.58,161.43a2,2,0,0,1-.55-.07q-.27-.08-.27-.18v-2.13c0-.1.09-.16.27-.2a3.31,3.31,0,0,1,.55,0h3.31v2.63Z"/><path class="cls-1" d="M92.89,161.43a2,2,0,0,1-.55-.07q-.27-.08-.27-.18v-2.13c0-.1.09-.16.27-.2a3.21,3.21,0,0,1,.55,0H96.2v2.63Z"/><path class="cls-1" d="M116.76,161.43a3.73,3.73,0,0,1-2.07-.48,2.52,2.52,0,0,1-1-1.33,2.88,2.88,0,0,1-1.37,1.44,4.47,4.47,0,0,1-1.9.41,4.31,4.31,0,0,1-2-.47,3.45,3.45,0,0,1-1.43-1.38,3.12,3.12,0,0,1-1.63,1.46,5.83,5.83,0,0,1-2.07.39,4,4,0,0,1-1.86-.45,2.94,2.94,0,0,1-1.34-1.4,3.48,3.48,0,0,1-3.38,1.81h-.5a2.08,2.08,0,0,1-.55-.07c-.17-.05-.26-.11-.26-.18v-2.13c0-.1.09-.16.26-.2a3.41,3.41,0,0,1,.55,0h.08c2,0,3-1.12,3-3.34l1.78-.65a12.56,12.56,0,0,0,.09,1.55,4.29,4.29,0,0,0,.32,1.26,1.89,1.89,0,0,0,.69.86,2.18,2.18,0,0,0,1.25.32,2.9,2.9,0,0,0,2-.64,3.18,3.18,0,0,0,.71-2.42v-.28l1.78-.68c0,.5.07,1,.13,1.48a4.52,4.52,0,0,0,.35,1.29,2.45,2.45,0,0,0,.75.93,2.11,2.11,0,0,0,1.3.35,2.56,2.56,0,0,0,1.28-.28,2,2,0,0,0,.77-.76,3.79,3.79,0,0,0,.37-1.09,7.24,7.24,0,0,0,.11-1.24l1.63-.65c0,.6.06,1.14.11,1.62a3.64,3.64,0,0,0,.34,1.27,1.8,1.8,0,0,0,.78.81,2.87,2.87,0,0,0,1.44.29h.5v2.63Z"/><path class="cls-1" d="M116.9,159.05c0-.1.09-.16.27-.2a3.21,3.21,0,0,1,.55,0h1.42q3.89,0,3.88-2.74a3.29,3.29,0,0,0-.66-1.85,13.77,13.77,0,0,0-1.53-1.85c-.58-.59-1.17-1.14-1.78-1.65s-1.07-.93-1.4-1.27c.07-1.54.28-2.45.64-2.74a56,56,0,0,1,5.89-3.54q3.46-1.83,7.66-3.68l-.35,2.81c-.29.1-.73.29-1.34.57l-2.06,1c-.77.37-1.58.76-2.44,1.19s-1.66.84-2.42,1.25-1.43.77-2,1.1a14.37,14.37,0,0,0-1.26.78q5.12,4.28,5.12,7.69a5,5,0,0,1-.57,2.43A5.31,5.31,0,0,1,123,160a7.06,7.06,0,0,1-2.15,1.05,9.2,9.2,0,0,1-2.53.35h-.6a2,2,0,0,1-.55-.07q-.27-.08-.27-.18Z"/><path class="cls-1" d="M139.85,160.74a4.28,4.28,0,0,1-1.55-1.8,7.13,7.13,0,0,1-.64-2.49c-.09-.92-.13-1.84-.13-2.74V140l2.24-1.49,0,16.29a13.87,13.87,0,0,0,.07,1.46,3.47,3.47,0,0,0,.37,1.28,2.22,2.22,0,0,0,.91.91,3.31,3.31,0,0,0,1.64.34v2.63A5.11,5.11,0,0,1,139.85,160.74Z"/><path class="cls-1" d="M139.6,167l1.53-2,2.1,1.53,1.49-1.78,2.1,1.53-1.6,1.92-2-1.56-1.46,1.81Zm2.31-7.9c0-.1.09-.16.27-.2a3.21,3.21,0,0,1,.55,0h.71a5.14,5.14,0,0,0,2.22-.41,1.36,1.36,0,0,0,.84-1.3,2.57,2.57,0,0,0-.52-1.44c-.34-.51-.67-1-1-1.37l1.82-2a7.87,7.87,0,0,1,1.31,2.1,6.7,6.7,0,0,1,.5,2.46q0,4.55-5.33,4.55h-.57a2,2,0,0,1-.55-.07q-.27-.08-.27-.18Z"/></svg>