<svg id="Layer_1" data-name="Layer 1" xmlns="http://www.w3.org/2000/svg" viewBox="0 0 27.82 27.82"><defs><style>.cls-1{fill:#fff;}</style></defs><circle cx="13.91" cy="13.91" r="13.91"/><path class="cls-1" d="M14.63,12.83c.2-.22.36-.43.55-.62a3.07,3.07,0,0,1,2.17-.86,5.17,5.17,0,0,1,1.36.17,2.67,2.67,0,0,1,1.9,2,8.31,8.31,0,0,1,.25,2.28c0,1.62,0,3.24,0,4.86,0,.15-.05.19-.19.19-.84,0-1.67,0-2.51,0-.15,0-.18-.05-.18-.18,0-1.55,0-3.09,0-4.63a4.06,4.06,0,0,0-.13-1.15,1.29,1.29,0,0,0-1.42-1,1.55,1.55,0,0,0-1.63,1.55,4.35,4.35,0,0,0,0,.72c0,1.5,0,3,0,4.5,0,.15,0,.19-.19.19q-1.26,0-2.52,0c-.14,0-.18,0-.18-.17q0-4.46,0-8.91c0-.15.05-.18.19-.18h2.4c.14,0,.18.05.18.19C14.63,12.12,14.63,12.48,14.63,12.83Z"/><path class="cls-1" d="M10.06,16.22c0,1.47,0,2.94,0,4.41,0,.16,0,.21-.21.21-.84,0-1.67,0-2.51,0-.13,0-.17,0-.17-.17V11.75c0-.12,0-.17.16-.17H9.88c.16,0,.18.06.18.2Z"/><path class="cls-1" d="M10.29,8.64A1.67,1.67,0,1,1,8.63,7,1.67,1.67,0,0,1,10.29,8.64Z"/></svg>