<svg id="Layer_1" data-name="Layer 1" xmlns="http://www.w3.org/2000/svg" viewBox="0 0 1702.18 812.8"><defs><style>.cls-1{fill:#fff;}</style></defs><path class="cls-1" d="M264.33,59c-17.95-3.64-30.74-13.92-38-30.56a75.32,75.32,0,0,1-5.77-23.92c0-.36-.05-.72-.08-1.09h-2.07c0,.43.06.85.1,1.27a77.12,77.12,0,0,0,5.93,24.57c7.57,17.29,20.86,28,39.51,31.75a116.26,116.26,0,0,0,14,1.9V60.85A117.41,117.41,0,0,1,264.33,59Z"/><path class="cls-1" d="M355.77,28.59a157.12,157.12,0,0,1,32.08-24.4V2.49h-1.19a159.19,159.19,0,0,0-32.33,24.62,246.69,246.69,0,0,0-30.92,36.75h2.52A244.62,244.62,0,0,1,355.77,28.59Z"/><path class="cls-1" d="M173.71,39.41V37.28c-2.19-.52-4.38-1-6.58-1.54a369.78,369.78,0,0,0-59.52-8.8V29a367.46,367.46,0,0,1,59.06,8.74Q170.2,38.56,173.71,39.41Z"/><path class="cls-1" d="M32.23,28.29A170.45,170.45,0,0,1,66.35,2.22V0h-.63a172.69,172.69,0,0,0-35,26.69Q24,33.19,17.9,40.07h0a61.79,61.79,0,0,1-6.83-11.94A81.49,81.49,0,0,1,4.81,2.2L4.72,1H2.48c0,.46.06.92.1,1.38A83.6,83.6,0,0,0,9,29,64.23,64.23,0,0,0,16.37,41.8Q7.66,51.75,0,62.46v3.89A263.76,263.76,0,0,1,17.78,43.59c.09-.11.19-.21.29-.32l-.29.32c8.35,10.3,19.75,17,34.07,19.86a125,125,0,0,0,14.5,2V63.21a123.69,123.69,0,0,1-14.06-2c-13.9-2.82-24.95-9.32-33-19.38h0l-.07-.09.07.09Q25.49,34.89,32.23,28.29Z"/><path class="cls-1" d="M29.71,118.35c5.6,9,8.9,17.7,10.09,26.53a46.67,46.67,0,0,1-3.23,24.53h2.22a48.66,48.66,0,0,0,3.06-24.8c-1.24-9.13-4.63-18.07-10.38-27.34q-2.25-3.63-4.85-7.16H24.05Q27.13,114.17,29.71,118.35Z"/><path class="cls-1" d="M140.8,135.17a156.85,156.85,0,0,1,32.08-24.4v-1.7h-1.19a159.19,159.19,0,0,0-32.33,24.62,246.69,246.69,0,0,0-30.92,36.75H111A245.23,245.23,0,0,1,140.8,135.17Z"/><path class="cls-1" d="M694.88,59c-18-3.64-30.74-13.92-38-30.56a75.32,75.32,0,0,1-5.77-23.92c0-.36-.05-.72-.08-1.09h-2.07c0,.43.06.85.1,1.27A77.12,77.12,0,0,0,655,29.27c7.57,17.29,20.86,28,39.51,31.75a116.26,116.26,0,0,0,14,1.9V60.85A117.41,117.41,0,0,1,694.88,59Z"/><path class="cls-1" d="M786.32,28.59A156.85,156.85,0,0,1,818.4,4.19V2.49h-1.19a159.19,159.19,0,0,0-32.33,24.62A246.69,246.69,0,0,0,754,63.86h2.51A244.69,244.69,0,0,1,786.32,28.59Z"/><path class="cls-1" d="M604.26,39.41V37.28c-2.19-.52-4.38-1-6.58-1.54a369.94,369.94,0,0,0-59.52-8.8V29a367.46,367.46,0,0,1,59.06,8.74Q600.75,38.56,604.26,39.41Z"/><path class="cls-1" d="M462.78,28.29A170.45,170.45,0,0,1,496.9,2.22V0h-.63a172.15,172.15,0,0,0-35,26.69q-6.64,6.5-12.78,13.38h0a62.85,62.85,0,0,1-6.83-11.94A81.76,81.76,0,0,1,435.36,2.2c0-.39-.06-.78-.09-1.18H433c0,.46.06.92.1,1.38A83.87,83.87,0,0,0,439.56,29a64.75,64.75,0,0,0,7.36,12.77q-8.71,9.95-16.37,20.66v3.89a263.76,263.76,0,0,1,17.78-22.76l.28-.32-.28.32c8.35,10.3,19.75,17,34.07,19.86a125,125,0,0,0,14.5,2V63.21a123.69,123.69,0,0,1-14.06-2c-13.91-2.82-24.95-9.32-33-19.38h0l-.07-.09.07.09Q456,34.89,462.78,28.29Z"/><path class="cls-1" d="M571.35,135.17a156.85,156.85,0,0,1,32.08-24.4v-1.7h-1.19a159.19,159.19,0,0,0-32.33,24.62A246.69,246.69,0,0,0,539,170.44h2.51A245.23,245.23,0,0,1,571.35,135.17Z"/><path class="cls-1" d="M704.73,142.54c-6.65-1.51-13.18-2.85-19.63-4a78.77,78.77,0,0,0-10-23.14c-1.62-2.63-3.37-5.21-5.25-7.77H667c2.22,3,4.26,5.92,6.14,8.94a78,78,0,0,1,9.52,21.54c-12.69-2.22-25-3.79-37.18-4.72v2.25c12.35.95,24.85,2.55,37.74,4.84.35,1.62.64,3.23.86,4.85a50.6,50.6,0,0,1-3.51,26.59H683A52.77,52.77,0,0,0,686.34,145c-.19-1.37-.43-2.74-.7-4.11q9.15,1.68,18.6,3.82,3.82.87,7.63,1.79v-2.3Q708.32,143.35,704.73,142.54Z"/><path class="cls-1" d="M819.23,146v-2.12q-3.29-.8-6.58-1.55a369.94,369.94,0,0,0-59.52-8.8v2.07a368.59,368.59,0,0,1,59.06,8.74Q815.71,145.14,819.23,146Z"/><path class="cls-1" d="M264.33,272.16c-17.95-3.64-30.74-13.92-38-30.56a75.32,75.32,0,0,1-5.77-23.91c0-.37-.05-.73-.08-1.09h-2.07c0,.42.06.84.1,1.27a77.12,77.12,0,0,0,5.93,24.56c7.57,17.29,20.86,28,39.51,31.75a116.26,116.26,0,0,0,14,1.9V274A113.22,113.22,0,0,1,264.33,272.16Z"/><path class="cls-1" d="M355.77,241.75a157.12,157.12,0,0,1,32.08-24.4v-1.7h-1.19a159.55,159.55,0,0,0-32.33,24.62A246.69,246.69,0,0,0,323.41,277h2.52A245.16,245.16,0,0,1,355.77,241.75Z"/><path class="cls-1" d="M173.71,252.57v-2.12q-3.28-.8-6.58-1.55a368.61,368.61,0,0,0-59.52-8.79v2.06a368.59,368.59,0,0,1,59.06,8.74Q170.2,251.72,173.71,252.57Z"/><path class="cls-1" d="M32.23,241.45a170.83,170.83,0,0,1,34.12-26.07v-2.22h-.63a172.69,172.69,0,0,0-35,26.69Q24,246.36,17.9,253.24h0a61.58,61.58,0,0,1-6.83-12,81.43,81.43,0,0,1-6.26-25.92l-.09-1.19H2.48c0,.46.06.92.1,1.38A83.54,83.54,0,0,0,9,242.19,64.23,64.23,0,0,0,16.37,255Q7.66,264.92,0,275.62v3.89a263.62,263.62,0,0,1,17.78-22.75l.29-.33-.29.33c8.35,10.29,19.75,16.95,34.07,19.85a122.87,122.87,0,0,0,14.5,2v-2.24a123.69,123.69,0,0,1-14.06-1.95c-13.9-2.82-24.95-9.31-33-19.38h0l-.07-.09.07.09Q25.49,248.05,32.23,241.45Z"/><path class="cls-1" d="M29.71,331.52c5.6,9,8.9,17.69,10.09,26.52a46.67,46.67,0,0,1-3.23,24.53h2.22a48.65,48.65,0,0,0,3.06-24.8c-1.24-9.13-4.63-18.07-10.38-27.34q-2.25-3.63-4.85-7.16H24.05Q27.13,327.34,29.71,331.52Z"/><path class="cls-1" d="M140.8,348.33a156.85,156.85,0,0,1,32.08-24.4v-1.7h-1.19a159.55,159.55,0,0,0-32.33,24.62,247.19,247.19,0,0,0-30.92,36.75H111A245.23,245.23,0,0,1,140.8,348.33Z"/><path class="cls-1" d="M274.18,355.7q-10-2.26-19.62-4a79.08,79.08,0,0,0-10-23.14c-1.62-2.63-3.37-5.21-5.25-7.77h-2.79c2.22,3,4.27,5.92,6.14,9a77.46,77.46,0,0,1,9.52,21.54c-12.68-2.23-25-3.8-37.18-4.73v2.25c12.35,1,24.85,2.55,37.74,4.84.35,1.62.64,3.24.86,4.86a50.57,50.57,0,0,1-3.51,26.58h2.41a52.64,52.64,0,0,0,3.32-26.88c-.19-1.38-.42-2.75-.7-4.12q9.15,1.68,18.6,3.82c2.55.58,5.1,1.18,7.63,1.8v-2.31Q277.77,356.52,274.18,355.7Z"/><path class="cls-1" d="M388.68,359.15V357q-3.29-.79-6.58-1.55a369.72,369.72,0,0,0-59.52-8.79v2.07a366.35,366.35,0,0,1,59.06,8.74Q385.17,358.29,388.68,359.15Z"/><path class="cls-1" d="M694.88,272.16c-18-3.64-30.74-13.92-38-30.56a75.32,75.32,0,0,1-5.77-23.91c0-.37-.05-.73-.08-1.09h-2.07c0,.42.06.84.1,1.27A77.12,77.12,0,0,0,655,242.43c7.57,17.29,20.86,28,39.51,31.75a116.26,116.26,0,0,0,14,1.9V274A113.22,113.22,0,0,1,694.88,272.16Z"/><path class="cls-1" d="M786.32,241.75a156.85,156.85,0,0,1,32.08-24.4v-1.7h-1.19a159.55,159.55,0,0,0-32.33,24.62A246.69,246.69,0,0,0,754,277h2.51A245.23,245.23,0,0,1,786.32,241.75Z"/><path class="cls-1" d="M604.26,252.57v-2.12q-3.28-.8-6.58-1.55a368.77,368.77,0,0,0-59.52-8.79v2.06a368.59,368.59,0,0,1,59.06,8.74Q600.75,251.72,604.26,252.57Z"/><path class="cls-1" d="M462.78,241.45a170.83,170.83,0,0,1,34.12-26.07v-2.22h-.63a172.15,172.15,0,0,0-35,26.69q-6.64,6.51-12.78,13.39h0a62.63,62.63,0,0,1-6.83-12,81.7,81.7,0,0,1-6.25-25.92c0-.4-.06-.79-.09-1.19H433c0,.46.06.92.1,1.38a83.81,83.81,0,0,0,6.43,26.63A64.75,64.75,0,0,0,446.92,255q-8.71,10-16.37,20.66v3.89a263.62,263.62,0,0,1,17.78-22.75l.28-.33-.28.33c8.35,10.29,19.75,16.95,34.07,19.85a122.87,122.87,0,0,0,14.5,2v-2.24a123.69,123.69,0,0,1-14.06-1.95c-13.91-2.82-24.95-9.31-33-19.38h0l-.07-.09.07.09Q456,248.05,462.78,241.45Z"/><path class="cls-1" d="M460.26,331.52c5.59,9,8.9,17.69,10.09,26.52a46.67,46.67,0,0,1-3.23,24.53h2.22a48.65,48.65,0,0,0,3.06-24.8c-1.24-9.13-4.63-18.07-10.38-27.34q-2.25-3.63-4.85-7.16H454.6Q457.67,327.34,460.26,331.52Z"/><path class="cls-1" d="M274.18,144.31q-10-2.28-19.62-4a79.24,79.24,0,0,0-10-23.15q-2.43-3.93-5.25-7.76h-2.79c2.22,3,4.27,5.92,6.14,8.94a77.71,77.71,0,0,1,9.52,21.54c-12.68-2.22-25-3.79-37.18-4.72v2.25a380,380,0,0,1,37.74,4.84c.35,1.62.64,3.23.86,4.85a50.62,50.62,0,0,1-3.51,26.59h2.41a52.69,52.69,0,0,0,3.32-26.89c-.19-1.37-.42-2.75-.7-4.12,6.1,1.13,12.3,2.39,18.6,3.83,2.55.58,5.1,1.17,7.63,1.79V146Q277.77,145.13,274.18,144.31Z"/><path class="cls-1" d="M388.68,147.76v-2.13q-3.29-.8-6.58-1.54a369.78,369.78,0,0,0-59.52-8.8v2.07a367.46,367.46,0,0,1,59.06,8.74Q385.17,146.91,388.68,147.76Z"/><path class="cls-1" d="M460.26,120.12c5.59,9,8.9,17.7,10.09,26.53a46.69,46.69,0,0,1-3.23,24.53h2.22a48.69,48.69,0,0,0,3.06-24.81c-1.24-9.12-4.63-18.06-10.38-27.34q-2.25-3.61-4.85-7.16H454.6C456.65,114.59,458.53,117.33,460.26,120.12Z"/><path class="cls-1" d="M571.35,348.33a156.85,156.85,0,0,1,32.08-24.4v-1.7h-1.19a159.55,159.55,0,0,0-32.33,24.62A247.19,247.19,0,0,0,539,383.6h2.51A245.23,245.23,0,0,1,571.35,348.33Z"/><path class="cls-1" d="M704.73,355.7c-6.65-1.51-13.18-2.85-19.63-4a78.77,78.77,0,0,0-10-23.14c-1.62-2.63-3.37-5.21-5.25-7.77H667c2.22,3,4.26,5.92,6.14,9a77.75,77.75,0,0,1,9.52,21.54c-12.69-2.23-25-3.8-37.18-4.73v2.25c12.35,1,24.85,2.55,37.74,4.84.35,1.62.64,3.24.86,4.86a50.57,50.57,0,0,1-3.51,26.58H683a52.75,52.75,0,0,0,3.32-26.88c-.19-1.38-.43-2.75-.7-4.12q9.15,1.68,18.6,3.82,3.82.87,7.63,1.8v-2.31Q708.32,356.52,704.73,355.7Z"/><path class="cls-1" d="M819.23,359.15V357q-3.29-.79-6.58-1.55a369.88,369.88,0,0,0-59.52-8.79v2.07a366.35,366.35,0,0,1,59.06,8.74Q815.71,358.29,819.23,359.15Z"/><path class="cls-1" d="M1147.29,59c-18-3.64-30.74-13.92-38-30.56a75.05,75.05,0,0,1-5.77-23.92c0-.36,0-.72-.08-1.09h-2.07c0,.43.06.85.1,1.27a77.12,77.12,0,0,0,5.93,24.57c7.57,17.29,20.86,28,39.51,31.75a116.26,116.26,0,0,0,14,1.9V60.85A117.12,117.12,0,0,1,1147.29,59Z"/><path class="cls-1" d="M1238.73,28.59a156.85,156.85,0,0,1,32.08-24.4V2.49h-1.19a159.19,159.19,0,0,0-32.33,24.62,246.69,246.69,0,0,0-30.92,36.75h2.51A244.69,244.69,0,0,1,1238.73,28.59Z"/><path class="cls-1" d="M1056.67,39.41V37.28c-2.19-.52-4.38-1-6.58-1.54a369.94,369.94,0,0,0-59.52-8.8V29a367.46,367.46,0,0,1,59.06,8.74Q1053.16,38.56,1056.67,39.41Z"/><path class="cls-1" d="M915.19,28.29A170.45,170.45,0,0,1,949.31,2.22V0h-.63a172.15,172.15,0,0,0-35,26.69q-6.64,6.5-12.78,13.38h0A62.85,62.85,0,0,1,894,28.13,81.49,81.49,0,0,1,887.77,2.2c0-.39-.06-.78-.09-1.18h-2.24c0,.46.06.92.1,1.38A83.87,83.87,0,0,0,892,29a64.75,64.75,0,0,0,7.36,12.77Q890.62,51.75,883,62.46v3.89a263.76,263.76,0,0,1,17.78-22.76l.28-.32c-.09.11-.19.22-.29.32,8.36,10.3,19.76,17,34.07,19.86a125.46,125.46,0,0,0,14.51,2V63.21a123.38,123.38,0,0,1-14.06-2c-13.91-2.82-25-9.32-33-19.38h0l-.07-.09.07.09Q908.45,34.89,915.19,28.29Z"/><path class="cls-1" d="M912.67,118.35c5.59,9,8.89,17.7,10.09,26.53a46.58,46.58,0,0,1-3.24,24.53h2.23a48.66,48.66,0,0,0,3-24.8c-1.23-9.13-4.63-18.07-10.38-27.34-1.49-2.42-3.11-4.8-4.84-7.16H907Q910.08,114.17,912.67,118.35Z"/><path class="cls-1" d="M1023.76,135.17a156.85,156.85,0,0,1,32.08-24.4v-1.7h-1.19a159.19,159.19,0,0,0-32.33,24.62,247.36,247.36,0,0,0-30.93,36.75h2.52A245.23,245.23,0,0,1,1023.76,135.17Z"/><path class="cls-1" d="M1157.14,142.54q-10-2.26-19.63-4a78.77,78.77,0,0,0-10-23.14c-1.62-2.63-3.37-5.21-5.25-7.77h-2.79c2.22,3,4.26,5.92,6.14,8.94a78,78,0,0,1,9.52,21.54c-12.69-2.22-25-3.79-37.18-4.72v2.25c12.34.95,24.85,2.55,37.73,4.84.36,1.62.65,3.23.87,4.85A50.6,50.6,0,0,1,1133,171.9h2.41a52.66,52.66,0,0,0,3.31-26.89c-.18-1.37-.42-2.74-.69-4.11q9.15,1.68,18.6,3.82,3.82.87,7.63,1.79v-2.3C1161.9,143.64,1159.53,143.08,1157.14,142.54Z"/><path class="cls-1" d="M1271.64,146v-2.12q-3.29-.8-6.58-1.55a369.94,369.94,0,0,0-59.52-8.8v2.07a368.59,368.59,0,0,1,59.06,8.74Q1268.13,145.14,1271.64,146Z"/><path class="cls-1" d="M1577.84,59c-17.95-3.64-30.75-13.92-38-30.56A75.05,75.05,0,0,1,1534,4.52c0-.36,0-.72-.08-1.09h-2.07L1532,4.7a77.38,77.38,0,0,0,5.94,24.57c7.57,17.29,20.86,28,39.51,31.75a116.26,116.26,0,0,0,14,1.9V60.85A117.12,117.12,0,0,1,1577.84,59Z"/><path class="cls-1" d="M1669.28,28.59a156.85,156.85,0,0,1,32.08-24.4V2.49h-1.19a158.92,158.92,0,0,0-32.33,24.62,246.75,246.75,0,0,0-30.93,36.75h2.52A244.69,244.69,0,0,1,1669.28,28.59Z"/><path class="cls-1" d="M1487.21,39.41V37.28c-2.18-.52-4.38-1-6.58-1.54a369.66,369.66,0,0,0-59.51-8.8V29a367.46,367.46,0,0,1,59.06,8.74C1482.53,38.29,1484.88,38.84,1487.21,39.41Z"/><path class="cls-1" d="M1345.74,28.29a170.17,170.17,0,0,1,34.12-26.07V0h-.64a172.36,172.36,0,0,0-35,26.69q-6.66,6.5-12.78,13.38h0a62.85,62.85,0,0,1-6.83-11.94,81.49,81.49,0,0,1-6.25-25.93c0-.39-.06-.78-.09-1.18H1316c0,.46.07.92.11,1.38A83.6,83.6,0,0,0,1322.52,29a64.26,64.26,0,0,0,7.36,12.77,263,263,0,0,0-16.37,20.66v3.89a265.62,265.62,0,0,1,17.77-22.76c.1-.11.2-.21.29-.32-.09.11-.19.22-.29.32,8.36,10.3,19.76,17,34.07,19.86a125.16,125.16,0,0,0,14.51,2V63.21a123.07,123.07,0,0,1-14.06-2c-13.91-2.82-25-9.32-33-19.38h0l-.07-.09.07.09Q1339,34.89,1345.74,28.29Z"/><path d="M1343.22,118.35c5.59,9,8.89,17.7,10.09,26.53a46.68,46.68,0,0,1-3.24,24.53h2.22a48.56,48.56,0,0,0,3.06-24.8c-1.23-9.13-4.63-18.07-10.38-27.34q-2.25-3.63-4.84-7.16h-2.58C1339.61,112.82,1341.49,115.57,1343.22,118.35Z"/><path class="cls-1" d="M1454.31,135.17a156.85,156.85,0,0,1,32.08-24.4v-1.7h-1.19a159,159,0,0,0-32.34,24.62,247.29,247.29,0,0,0-30.92,36.75h2.52A245.23,245.23,0,0,1,1454.31,135.17Z"/><path class="cls-1" d="M1587.69,142.54c-6.66-1.51-13.19-2.85-19.63-4a78.77,78.77,0,0,0-10-23.14c-1.63-2.63-3.37-5.21-5.25-7.77H1550c2.22,3,4.26,5.92,6.14,8.94a77.67,77.67,0,0,1,9.51,21.54c-12.68-2.22-25-3.79-37.17-4.72v2.25c12.34.95,24.85,2.55,37.73,4.84.36,1.62.65,3.23.87,4.85a50.6,50.6,0,0,1-3.51,26.59H1566a52.66,52.66,0,0,0,3.31-26.89c-.18-1.37-.42-2.74-.7-4.11,6.11,1.12,12.3,2.39,18.61,3.82q3.83.87,7.63,1.79v-2.3C1592.45,143.64,1590.08,143.08,1587.69,142.54Z"/><path class="cls-1" d="M1702.18,146v-2.12q-3.27-.8-6.57-1.55a369.94,369.94,0,0,0-59.52-8.8v2.07a368.59,368.59,0,0,1,59.06,8.74C1697.5,144.87,1699.85,145.42,1702.18,146Z"/><path class="cls-1" d="M1147.29,272.16c-18-3.64-30.74-13.92-38-30.56a75.06,75.06,0,0,1-5.77-23.91c0-.37,0-.73-.08-1.09h-2.07c0,.42.06.84.1,1.27a77.12,77.12,0,0,0,5.93,24.56c7.57,17.29,20.86,28,39.51,31.75a116.26,116.26,0,0,0,14,1.9V274A112.94,112.94,0,0,1,1147.29,272.16Z"/><path class="cls-1" d="M1238.73,241.75a156.85,156.85,0,0,1,32.08-24.4v-1.7h-1.19a159.55,159.55,0,0,0-32.33,24.62A246.69,246.69,0,0,0,1206.37,277h2.51A245.23,245.23,0,0,1,1238.73,241.75Z"/><path class="cls-1" d="M1056.67,252.57v-2.12q-3.29-.8-6.58-1.55a368.77,368.77,0,0,0-59.52-8.79v2.06a368.59,368.59,0,0,1,59.06,8.74Q1053.16,251.72,1056.67,252.57Z"/><path class="cls-1" d="M915.19,241.45a170.83,170.83,0,0,1,34.12-26.07v-2.22h-.63a172.15,172.15,0,0,0-35,26.69q-6.64,6.51-12.78,13.39h0a62.63,62.63,0,0,1-6.83-12,81.43,81.43,0,0,1-6.25-25.92c0-.4-.06-.79-.09-1.19h-2.24c0,.46.06.92.1,1.38A83.81,83.81,0,0,0,892,242.19,64.75,64.75,0,0,0,899.33,255q-8.72,10-16.37,20.66v3.89a263.62,263.62,0,0,1,17.78-22.75l.28-.33-.29.33c8.36,10.29,19.76,16.95,34.07,19.85a123.32,123.32,0,0,0,14.51,2v-2.24a123.38,123.38,0,0,1-14.06-1.95c-13.91-2.82-25-9.31-33-19.38h0l-.07-.09.07.09Q908.45,248.05,915.19,241.45Z"/><path class="cls-1" d="M912.67,331.52c5.59,9,8.89,17.69,10.09,26.52a46.58,46.58,0,0,1-3.24,24.53h2.23a48.65,48.65,0,0,0,3-24.8c-1.23-9.13-4.63-18.07-10.38-27.34-1.49-2.42-3.11-4.8-4.84-7.16H907Q910.08,327.34,912.67,331.52Z"/><path class="cls-1" d="M1023.76,348.33a156.85,156.85,0,0,1,32.08-24.4v-1.7h-1.19a159.55,159.55,0,0,0-32.33,24.62,247.87,247.87,0,0,0-30.93,36.75h2.52A245.23,245.23,0,0,1,1023.76,348.33Z"/><path class="cls-1" d="M1157.14,355.7q-10-2.26-19.63-4a78.77,78.77,0,0,0-10-23.14c-1.62-2.63-3.37-5.21-5.25-7.77h-2.79c2.22,3,4.26,5.92,6.14,9a77.75,77.75,0,0,1,9.52,21.54c-12.69-2.23-25-3.8-37.18-4.73v2.25c12.34,1,24.85,2.55,37.73,4.84q.54,2.43.87,4.86a50.57,50.57,0,0,1-3.51,26.58h2.41a52.64,52.64,0,0,0,3.31-26.88c-.18-1.38-.42-2.75-.69-4.12q9.15,1.68,18.6,3.82,3.82.87,7.63,1.8v-2.31C1161.9,356.8,1159.53,356.24,1157.14,355.7Z"/><path class="cls-1" d="M1271.64,359.15V357q-3.29-.79-6.58-1.55a369.88,369.88,0,0,0-59.52-8.79v2.07a366.35,366.35,0,0,1,59.06,8.74Q1268.13,358.29,1271.64,359.15Z"/><path class="cls-1" d="M1577.84,272.16c-17.95-3.64-30.75-13.92-38-30.56a75.06,75.06,0,0,1-5.77-23.91c0-.37,0-.73-.08-1.09h-2.07l.09,1.27a77.39,77.39,0,0,0,5.94,24.56c7.57,17.29,20.86,28,39.51,31.75a116.26,116.26,0,0,0,14,1.9V274A112.94,112.94,0,0,1,1577.84,272.16Z"/><path class="cls-1" d="M1669.28,241.75a156.85,156.85,0,0,1,32.08-24.4v-1.7h-1.19a159.28,159.28,0,0,0-32.33,24.62A246.75,246.75,0,0,0,1636.91,277h2.52A245.23,245.23,0,0,1,1669.28,241.75Z"/><path class="cls-1" d="M1487.21,252.57v-2.12c-2.18-.53-4.38-1-6.58-1.55a368.49,368.49,0,0,0-59.51-8.79v2.06a368.59,368.59,0,0,1,59.06,8.74C1482.53,251.45,1484.88,252,1487.21,252.57Z"/><path class="cls-1" d="M1345.74,241.45a170.54,170.54,0,0,1,34.12-26.07v-2.22h-.64a172.36,172.36,0,0,0-35,26.69q-6.66,6.51-12.78,13.39h0a62.63,62.63,0,0,1-6.83-12,81.43,81.43,0,0,1-6.25-25.92c0-.4-.06-.79-.09-1.19H1316c0,.46.07.92.11,1.38a83.54,83.54,0,0,0,6.43,26.63,64.26,64.26,0,0,0,7.36,12.77q-8.73,10-16.37,20.66v3.89a265.48,265.48,0,0,1,17.77-22.75l.29-.33-.29.33c8.36,10.29,19.76,16.95,34.07,19.85a123,123,0,0,0,14.51,2v-2.24a123.07,123.07,0,0,1-14.06-1.95c-13.91-2.82-25-9.31-33-19.38h0l-.07-.09.07.09Q1339,248.05,1345.74,241.45Z"/><path class="cls-1" d="M1343.22,331.52c5.59,9,8.89,17.69,10.09,26.52a46.68,46.68,0,0,1-3.24,24.53h2.22a48.54,48.54,0,0,0,3.06-24.8c-1.23-9.13-4.63-18.07-10.38-27.34q-2.25-3.63-4.84-7.16h-2.58C1339.61,326,1341.49,328.73,1343.22,331.52Z"/><path class="cls-1" d="M1454.31,348.33a156.85,156.85,0,0,1,32.08-24.4v-1.7h-1.19a159.33,159.33,0,0,0-32.34,24.62,247.8,247.8,0,0,0-30.92,36.75h2.52A245.23,245.23,0,0,1,1454.31,348.33Z"/><path class="cls-1" d="M1587.69,355.7c-6.66-1.51-13.19-2.85-19.63-4a78.77,78.77,0,0,0-10-23.14c-1.63-2.63-3.37-5.21-5.25-7.77H1550c2.22,3,4.26,5.92,6.14,9a77.42,77.42,0,0,1,9.51,21.54c-12.68-2.23-25-3.8-37.17-4.73v2.25c12.34,1,24.85,2.55,37.73,4.84q.54,2.43.87,4.86a50.57,50.57,0,0,1-3.51,26.58H1566a52.64,52.64,0,0,0,3.31-26.88c-.18-1.38-.42-2.75-.7-4.12,6.11,1.12,12.3,2.39,18.61,3.82q3.83.87,7.63,1.8v-2.31C1592.45,356.8,1590.08,356.24,1587.69,355.7Z"/><path class="cls-1" d="M1702.18,359.15V357q-3.27-.79-6.57-1.55a369.88,369.88,0,0,0-59.52-8.79v2.07a366.35,366.35,0,0,1,59.06,8.74C1697.5,358,1699.85,358.58,1702.18,359.15Z"/><path class="cls-1" d="M264.33,486.74c-17.95-3.64-30.74-13.93-38-30.56a75.39,75.39,0,0,1-5.77-23.92c0-.36-.05-.73-.08-1.09h-2.07c0,.42.06.85.1,1.27A77.18,77.18,0,0,0,224.41,457c7.57,17.28,20.86,28,39.51,31.75a118.3,118.3,0,0,0,14,1.9v-2.08A115.24,115.24,0,0,1,264.33,486.74Z"/><path class="cls-1" d="M355.77,456.33a157.12,157.12,0,0,1,32.08-24.4v-1.7h-1.19a159.19,159.19,0,0,0-32.33,24.62,246.18,246.18,0,0,0-30.92,36.75h2.52A244.62,244.62,0,0,1,355.77,456.33Z"/><path class="cls-1" d="M173.71,467.15V465q-3.28-.79-6.58-1.54a369.78,369.78,0,0,0-59.52-8.8v2.07a367.46,367.46,0,0,1,59.06,8.74C169,466,171.37,466.58,173.71,467.15Z"/><path class="cls-1" d="M32.23,456A170.45,170.45,0,0,1,66.35,430v-2.22h-.63a172.69,172.69,0,0,0-35,26.69Q24,460.92,17.9,467.81h0a61.79,61.79,0,0,1-6.83-11.94,81.49,81.49,0,0,1-6.26-25.93l-.09-1.18H2.48c0,.46.06.92.1,1.38A83.67,83.67,0,0,0,9,456.77a64.51,64.51,0,0,0,7.35,12.77Q7.66,479.49,0,490.2v3.89a262.23,262.23,0,0,1,17.78-22.76l.29-.33-.29.33c8.35,10.3,19.75,17,34.07,19.86a125,125,0,0,0,14.5,2v-2.25A121.45,121.45,0,0,1,52.29,489c-13.9-2.82-24.95-9.32-33-19.38h0l-.07-.09.07.09Q25.49,462.63,32.23,456Z"/><path class="cls-1" d="M29.71,546.09c5.6,9,8.9,17.7,10.09,26.53a46.69,46.69,0,0,1-3.23,24.53h2.22a48.69,48.69,0,0,0,3.06-24.81c-1.24-9.12-4.63-18.06-10.38-27.34q-2.25-3.62-4.85-7.16H24.05C26.1,540.56,28,543.3,29.71,546.09Z"/><path class="cls-1" d="M140.8,562.91a156.85,156.85,0,0,1,32.08-24.4v-1.7h-1.19a159.19,159.19,0,0,0-32.33,24.62,246.18,246.18,0,0,0-30.92,36.75H111A244.69,244.69,0,0,1,140.8,562.91Z"/><path d="M274.18,570.28q-10-2.28-19.62-4a79.24,79.24,0,0,0-10-23.15q-2.43-3.93-5.25-7.76h-2.79c2.22,2.95,4.27,5.92,6.14,8.94a77.71,77.71,0,0,1,9.52,21.54c-12.68-2.22-25-3.79-37.18-4.72v2.25a380,380,0,0,1,37.74,4.84c.35,1.61.64,3.23.86,4.85a50.62,50.62,0,0,1-3.51,26.59h2.41a52.69,52.69,0,0,0,3.32-26.89c-.19-1.37-.42-2.75-.7-4.12,6.1,1.13,12.3,2.39,18.6,3.83,2.55.58,5.1,1.17,7.63,1.79V572Q277.77,571.1,274.18,570.28Z"/><path class="cls-1" d="M388.68,573.73V571.6q-3.29-.79-6.58-1.54a369.78,369.78,0,0,0-59.52-8.8v2.07a367.46,367.46,0,0,1,59.06,8.74Q385.17,572.88,388.68,573.73Z"/><path class="cls-1" d="M694.88,486.74c-18-3.64-30.74-13.93-38-30.56a75.39,75.39,0,0,1-5.77-23.92c0-.36-.05-.73-.08-1.09h-2.07c0,.42.06.85.1,1.27A77.18,77.18,0,0,0,655,457c7.57,17.28,20.86,28,39.51,31.75a118.3,118.3,0,0,0,14,1.9v-2.08A115.24,115.24,0,0,1,694.88,486.74Z"/><path class="cls-1" d="M786.32,456.33a156.85,156.85,0,0,1,32.08-24.4v-1.7h-1.19a159.19,159.19,0,0,0-32.33,24.62A246.18,246.18,0,0,0,754,491.6h2.51A244.69,244.69,0,0,1,786.32,456.33Z"/><path class="cls-1" d="M604.26,467.15V465q-3.28-.79-6.58-1.54a369.94,369.94,0,0,0-59.52-8.8v2.07a367.46,367.46,0,0,1,59.06,8.74C599.57,466,601.92,466.58,604.26,467.15Z"/><path class="cls-1" d="M462.78,456A170.45,170.45,0,0,1,496.9,430v-2.22h-.63a172.15,172.15,0,0,0-35,26.69q-6.64,6.49-12.78,13.38h0a62.85,62.85,0,0,1-6.83-11.94,81.76,81.76,0,0,1-6.25-25.93c0-.39-.06-.79-.09-1.18H433c0,.46.06.92.1,1.38a83.94,83.94,0,0,0,6.43,26.63,65,65,0,0,0,7.36,12.77q-8.71,9.94-16.37,20.66v3.89a262.23,262.23,0,0,1,17.78-22.76l.28-.33-.28.33c8.35,10.3,19.75,17,34.07,19.86a125,125,0,0,0,14.5,2v-2.25A121.45,121.45,0,0,1,482.84,489c-13.91-2.82-24.95-9.32-33-19.38h0l-.07-.09.07.09Q456,462.63,462.78,456Z"/><path class="cls-1" d="M460.26,546.09c5.59,9,8.9,17.7,10.09,26.53a46.69,46.69,0,0,1-3.23,24.53h2.22a48.69,48.69,0,0,0,3.06-24.81c-1.24-9.12-4.63-18.06-10.38-27.34q-2.25-3.62-4.85-7.16H454.6C456.65,540.56,458.53,543.3,460.26,546.09Z"/><path class="cls-1" d="M571.35,562.91a156.85,156.85,0,0,1,32.08-24.4v-1.7h-1.19a159.19,159.19,0,0,0-32.33,24.62A246.18,246.18,0,0,0,539,598.18h2.51A244.69,244.69,0,0,1,571.35,562.91Z"/><path class="cls-1" d="M704.73,570.28c-6.65-1.52-13.18-2.85-19.63-4a78.94,78.94,0,0,0-10-23.15q-2.43-3.93-5.25-7.76H667c2.22,2.95,4.26,5.92,6.14,8.94a78,78,0,0,1,9.52,21.54c-12.69-2.22-25-3.79-37.18-4.72v2.25a380,380,0,0,1,37.74,4.84c.35,1.61.64,3.23.86,4.85a50.62,50.62,0,0,1-3.51,26.59H683a52.8,52.8,0,0,0,3.32-26.89c-.19-1.37-.43-2.75-.7-4.12,6.1,1.13,12.29,2.39,18.6,3.83,2.55.58,5.09,1.17,7.63,1.79V572Q708.32,571.1,704.73,570.28Z"/><path class="cls-1" d="M819.23,573.73V571.6q-3.29-.79-6.58-1.54a369.94,369.94,0,0,0-59.52-8.8v2.07a367.46,367.46,0,0,1,59.06,8.74Q815.71,572.88,819.23,573.73Z"/><path class="cls-1" d="M264.33,699.9c-17.95-3.64-30.74-13.92-38-30.56a75.32,75.32,0,0,1-5.77-23.92c0-.36-.05-.72-.08-1.09h-2.07c0,.43.06.85.1,1.27a77.18,77.18,0,0,0,5.93,24.57c7.57,17.29,20.86,28,39.51,31.75a116.26,116.26,0,0,0,14,1.9v-2.07A117.41,117.41,0,0,1,264.33,699.9Z"/><path class="cls-1" d="M355.77,669.49a157.12,157.12,0,0,1,32.08-24.4v-1.7h-1.19A159.19,159.19,0,0,0,354.33,668a246.18,246.18,0,0,0-30.92,36.75h2.52A244.62,244.62,0,0,1,355.77,669.49Z"/><path class="cls-1" d="M173.71,680.31v-2.13c-2.19-.52-4.38-1-6.58-1.54a369.78,369.78,0,0,0-59.52-8.8v2.07a367.46,367.46,0,0,1,59.06,8.74Q170.2,679.46,173.71,680.31Z"/><path class="cls-1" d="M32.23,669.19a170.45,170.45,0,0,1,34.12-26.07V640.9h-.63a172.69,172.69,0,0,0-35,26.69Q24,674.08,17.9,681h0A61.79,61.79,0,0,1,11.07,669,81.49,81.49,0,0,1,4.81,643.1l-.09-1.18H2.48c0,.46.06.92.1,1.38A83.6,83.6,0,0,0,9,669.93a64.23,64.23,0,0,0,7.35,12.77Q7.66,692.65,0,703.36v3.89a263.76,263.76,0,0,1,17.78-22.76c.09-.11.19-.21.29-.32-.1.11-.2.21-.29.32,8.35,10.3,19.75,17,34.07,19.86a125,125,0,0,0,14.5,2v-2.24a123.69,123.69,0,0,1-14.06-2c-13.9-2.82-24.95-9.32-33-19.38h0l-.07-.09.07.09Q25.49,675.79,32.23,669.19Z"/><path class="cls-1" d="M29.71,759.25c5.6,9,8.9,17.7,10.09,26.53a46.69,46.69,0,0,1-3.23,24.53h2.22a48.66,48.66,0,0,0,3.06-24.8c-1.24-9.13-4.63-18.07-10.38-27.34-1.5-2.42-3.11-4.8-4.85-7.17H24.05C26.1,753.72,28,756.46,29.71,759.25Z"/><path class="cls-1" d="M140.8,776.07a156.85,156.85,0,0,1,32.08-24.4V750h-1.19a159.19,159.19,0,0,0-32.33,24.62,246.69,246.69,0,0,0-30.92,36.75H111A244.69,244.69,0,0,1,140.8,776.07Z"/><path class="cls-1" d="M274.18,783.44q-10-2.28-19.62-4a79.08,79.08,0,0,0-10-23.14c-1.62-2.63-3.37-5.21-5.25-7.77h-2.79c2.22,3,4.27,5.92,6.14,8.94A77.71,77.71,0,0,1,252.15,779c-12.68-2.22-25-3.79-37.18-4.72v2.25c12.35,1,24.85,2.55,37.74,4.84.35,1.62.64,3.23.86,4.85a50.6,50.6,0,0,1-3.51,26.59h2.41a52.68,52.68,0,0,0,3.32-26.89c-.19-1.37-.42-2.75-.7-4.11q9.15,1.68,18.6,3.82c2.55.58,5.1,1.18,7.63,1.79v-2.3Q277.77,784.25,274.18,783.44Z"/><path class="cls-1" d="M388.68,786.89v-2.12q-3.29-.79-6.58-1.55a369.78,369.78,0,0,0-59.52-8.8v2.07a368.59,368.59,0,0,1,59.06,8.74Q385.17,786,388.68,786.89Z"/><path class="cls-1" d="M694.88,699.9c-18-3.64-30.74-13.92-38-30.56a75.32,75.32,0,0,1-5.77-23.92c0-.36-.05-.72-.08-1.09h-2.07c0,.43.06.85.1,1.27A77.18,77.18,0,0,0,655,670.17c7.57,17.29,20.86,28,39.51,31.75a116.26,116.26,0,0,0,14,1.9v-2.07A117.41,117.41,0,0,1,694.88,699.9Z"/><path class="cls-1" d="M786.32,669.49a156.85,156.85,0,0,1,32.08-24.4v-1.7h-1.19A159.19,159.19,0,0,0,784.88,668,246.18,246.18,0,0,0,754,704.76h2.51A244.69,244.69,0,0,1,786.32,669.49Z"/><path class="cls-1" d="M604.26,680.31v-2.13c-2.19-.52-4.38-1-6.58-1.54a369.94,369.94,0,0,0-59.52-8.8v2.07a367.46,367.46,0,0,1,59.06,8.74Q600.75,679.46,604.26,680.31Z"/><path class="cls-1" d="M462.78,669.19a170.45,170.45,0,0,1,34.12-26.07V640.9h-.63a172.15,172.15,0,0,0-35,26.69q-6.64,6.49-12.78,13.38h0A62.85,62.85,0,0,1,441.61,669a81.76,81.76,0,0,1-6.25-25.93c0-.39-.06-.79-.09-1.18H433c0,.46.06.92.1,1.38a83.87,83.87,0,0,0,6.43,26.63,64.75,64.75,0,0,0,7.36,12.77q-8.71,9.94-16.37,20.66v3.89a263.76,263.76,0,0,1,17.78-22.76l.28-.32-.28.32c8.35,10.3,19.75,17,34.07,19.86a125,125,0,0,0,14.5,2v-2.24a123.69,123.69,0,0,1-14.06-2c-13.91-2.82-24.95-9.32-33-19.38h0l-.07-.09.07.09Q456,675.79,462.78,669.19Z"/><path class="cls-1" d="M460.26,759.25c5.59,9,8.9,17.7,10.09,26.53a46.69,46.69,0,0,1-3.23,24.53h2.22a48.66,48.66,0,0,0,3.06-24.8c-1.24-9.13-4.63-18.07-10.38-27.34-1.5-2.42-3.12-4.8-4.85-7.17H454.6C456.65,753.72,458.53,756.46,460.26,759.25Z"/><path class="cls-1" d="M571.35,776.07a156.85,156.85,0,0,1,32.08-24.4V750h-1.19a159.19,159.19,0,0,0-32.33,24.62A246.69,246.69,0,0,0,539,811.34h2.51A244.69,244.69,0,0,1,571.35,776.07Z"/><path class="cls-1" d="M704.73,783.44c-6.65-1.52-13.18-2.85-19.63-4a78.77,78.77,0,0,0-10-23.14c-1.62-2.63-3.37-5.21-5.25-7.77H667c2.22,3,4.26,5.92,6.14,8.94A78,78,0,0,1,682.7,779c-12.69-2.22-25-3.79-37.18-4.72v2.25c12.35,1,24.85,2.55,37.74,4.84.35,1.62.64,3.23.86,4.85a50.6,50.6,0,0,1-3.51,26.59H683a52.79,52.79,0,0,0,3.32-26.89c-.19-1.37-.43-2.75-.7-4.11q9.15,1.68,18.6,3.82,3.82.87,7.63,1.79v-2.3Q708.32,784.25,704.73,783.44Z"/><path class="cls-1" d="M819.23,786.89v-2.12q-3.29-.79-6.58-1.55a369.94,369.94,0,0,0-59.52-8.8v2.07a368.59,368.59,0,0,1,59.06,8.74Q815.71,786,819.23,786.89Z"/><path class="cls-1" d="M1147.29,486.74c-18-3.64-30.74-13.93-38-30.56a75.12,75.12,0,0,1-5.77-23.92c0-.36,0-.73-.08-1.09h-2.07c0,.42.06.85.1,1.27a77.18,77.18,0,0,0,5.93,24.57c7.57,17.28,20.86,28,39.51,31.75a118.3,118.3,0,0,0,14,1.9v-2.08A115,115,0,0,1,1147.29,486.74Z"/><path class="cls-1" d="M1238.73,456.33a156.85,156.85,0,0,1,32.08-24.4v-1.7h-1.19a159.19,159.19,0,0,0-32.33,24.62,246.18,246.18,0,0,0-30.92,36.75h2.51A244.69,244.69,0,0,1,1238.73,456.33Z"/><path class="cls-1" d="M1056.67,467.15V465q-3.29-.79-6.58-1.54a369.94,369.94,0,0,0-59.52-8.8v2.07a367.46,367.46,0,0,1,59.06,8.74C1052,466,1054.33,466.58,1056.67,467.15Z"/><path class="cls-1" d="M915.19,456A170.45,170.45,0,0,1,949.31,430v-2.22h-.63a172.15,172.15,0,0,0-35,26.69q-6.64,6.49-12.78,13.38h0A62.85,62.85,0,0,1,894,455.87a81.49,81.49,0,0,1-6.25-25.93c0-.39-.06-.79-.09-1.18h-2.24c0,.46.06.92.1,1.38A83.94,83.94,0,0,0,892,456.77a65,65,0,0,0,7.36,12.77q-8.72,9.94-16.37,20.66v3.89a262.23,262.23,0,0,1,17.78-22.76L901,471l-.29.33c8.36,10.3,19.76,17,34.07,19.86a125.46,125.46,0,0,0,14.51,2v-2.25A121.15,121.15,0,0,1,935.25,489c-13.91-2.82-25-9.32-33-19.38h0l-.07-.09.07.09Q908.45,462.63,915.19,456Z"/><path class="cls-1" d="M912.67,546.09c5.59,9,8.89,17.7,10.09,26.53a46.59,46.59,0,0,1-3.24,24.53h2.23a48.68,48.68,0,0,0,3-24.81c-1.23-9.12-4.63-18.06-10.38-27.34-1.49-2.41-3.11-4.8-4.84-7.16H907C909.06,540.56,910.94,543.3,912.67,546.09Z"/><path class="cls-1" d="M1023.76,562.91a156.85,156.85,0,0,1,32.08-24.4v-1.7h-1.19a159.19,159.19,0,0,0-32.33,24.62,246.85,246.85,0,0,0-30.93,36.75h2.52A244.69,244.69,0,0,1,1023.76,562.91Z"/><path class="cls-1" d="M1157.14,570.28q-10-2.28-19.63-4a78.94,78.94,0,0,0-10-23.15q-2.43-3.93-5.25-7.76h-2.79c2.22,2.95,4.26,5.92,6.14,8.94a78,78,0,0,1,9.52,21.54c-12.69-2.22-25-3.79-37.18-4.72v2.25a379.85,379.85,0,0,1,37.73,4.84c.36,1.61.65,3.23.87,4.85a50.62,50.62,0,0,1-3.51,26.59h2.41a52.69,52.69,0,0,0,3.31-26.89c-.18-1.37-.42-2.75-.69-4.12,6.1,1.13,12.29,2.39,18.6,3.83,2.55.58,5.09,1.17,7.63,1.79V572C1161.9,571.38,1159.53,570.82,1157.14,570.28Z"/><path class="cls-1" d="M1271.64,573.73V571.6q-3.29-.79-6.58-1.54a369.94,369.94,0,0,0-59.52-8.8v2.07a367.46,367.46,0,0,1,59.06,8.74Q1268.13,572.88,1271.64,573.73Z"/><path class="cls-1" d="M1577.84,486.74c-17.95-3.64-30.75-13.93-38-30.56a75.12,75.12,0,0,1-5.77-23.92c0-.36,0-.73-.08-1.09h-2.07l.09,1.27a77.45,77.45,0,0,0,5.94,24.57c7.57,17.28,20.86,28,39.51,31.75a118.3,118.3,0,0,0,14,1.9v-2.08A115,115,0,0,1,1577.84,486.74Z"/><path class="cls-1" d="M1669.28,456.33a156.85,156.85,0,0,1,32.08-24.4v-1.7h-1.19a158.92,158.92,0,0,0-32.33,24.62,246.25,246.25,0,0,0-30.93,36.75h2.52A244.69,244.69,0,0,1,1669.28,456.33Z"/><path class="cls-1" d="M1487.21,467.15V465c-2.18-.53-4.38-1-6.58-1.54a369.66,369.66,0,0,0-59.51-8.8v2.07a367.46,367.46,0,0,1,59.06,8.74C1482.53,466,1484.88,466.58,1487.21,467.15Z"/><path class="cls-1" d="M1345.74,456A170.17,170.17,0,0,1,1379.86,430v-2.22h-.64a172.36,172.36,0,0,0-35,26.69q-6.66,6.49-12.78,13.38h0a62.85,62.85,0,0,1-6.83-11.94,81.49,81.49,0,0,1-6.25-25.93c0-.39-.06-.79-.09-1.18H1316c0,.46.07.92.11,1.38a83.67,83.67,0,0,0,6.43,26.63,64.54,64.54,0,0,0,7.36,12.77,263,263,0,0,0-16.37,20.66v3.89a264.07,264.07,0,0,1,17.77-22.76l.29-.33-.29.33c8.36,10.3,19.76,17,34.07,19.86a125.16,125.16,0,0,0,14.51,2v-2.25A120.85,120.85,0,0,1,1365.8,489c-13.91-2.82-25-9.32-33-19.38h0l-.07-.09.07.09Q1339,462.63,1345.74,456Z"/><path class="cls-1" d="M1343.22,546.09c5.59,9,8.89,17.7,10.09,26.53a46.69,46.69,0,0,1-3.24,24.53h2.22a48.58,48.58,0,0,0,3.06-24.81c-1.23-9.12-4.63-18.06-10.38-27.34q-2.25-3.62-4.84-7.16h-2.58C1339.61,540.56,1341.49,543.3,1343.22,546.09Z"/><path class="cls-1" d="M1454.31,562.91a156.85,156.85,0,0,1,32.08-24.4v-1.7h-1.19a159,159,0,0,0-32.34,24.62,246.78,246.78,0,0,0-30.92,36.75h2.52A244.69,244.69,0,0,1,1454.31,562.91Z"/><path class="cls-1" d="M1587.69,570.28c-6.66-1.52-13.19-2.85-19.63-4a78.94,78.94,0,0,0-10-23.15c-1.63-2.62-3.37-5.2-5.25-7.76H1550c2.22,2.95,4.26,5.92,6.14,8.94a77.67,77.67,0,0,1,9.51,21.54c-12.68-2.22-25-3.79-37.17-4.72v2.25a379.85,379.85,0,0,1,37.73,4.84c.36,1.61.65,3.23.87,4.85a50.62,50.62,0,0,1-3.51,26.59H1566a52.69,52.69,0,0,0,3.31-26.89c-.18-1.37-.42-2.75-.7-4.12,6.11,1.13,12.3,2.39,18.61,3.83,2.55.58,5.09,1.17,7.63,1.79V572C1592.45,571.38,1590.08,570.82,1587.69,570.28Z"/><path class="cls-1" d="M1702.18,573.73V571.6q-3.27-.79-6.57-1.54a369.94,369.94,0,0,0-59.52-8.8v2.07a367.46,367.46,0,0,1,59.06,8.74C1697.5,572.61,1699.85,573.16,1702.18,573.73Z"/><path class="cls-1" d="M1056.67,680.31v-2.13c-2.19-.52-4.38-1-6.58-1.54a369.94,369.94,0,0,0-59.52-8.8v2.07a367.46,367.46,0,0,1,59.06,8.74Q1053.16,679.46,1056.67,680.31Z"/><path class="cls-1" d="M915.19,669.19a170.45,170.45,0,0,1,34.12-26.07V640.9h-.63a172.15,172.15,0,0,0-35,26.69Q907,674.08,900.85,681h0A62.85,62.85,0,0,1,894,669a81.49,81.49,0,0,1-6.25-25.93c0-.39-.06-.79-.09-1.18h-2.24c0,.46.06.92.1,1.38A83.87,83.87,0,0,0,892,669.93a64.75,64.75,0,0,0,7.36,12.77q-8.72,9.94-16.37,20.66v3.89a263.76,263.76,0,0,1,17.78-22.76l.28-.32c-.09.11-.19.21-.29.32,8.36,10.3,19.76,17,34.07,19.86a125.46,125.46,0,0,0,14.51,2v-2.24a123.38,123.38,0,0,1-14.06-2c-13.91-2.82-25-9.32-33-19.38h0l-.07-.09.07.09Q908.45,675.79,915.19,669.19Z"/><path class="cls-1" d="M912.67,759.25c5.59,9,8.89,17.7,10.09,26.53a46.59,46.59,0,0,1-3.24,24.53h2.23a48.66,48.66,0,0,0,3-24.8c-1.23-9.13-4.63-18.07-10.38-27.34-1.49-2.42-3.11-4.8-4.84-7.17H907C909.06,753.72,910.94,756.46,912.67,759.25Z"/><path class="cls-1" d="M1023.76,776.07a156.85,156.85,0,0,1,32.08-24.4V750h-1.19a159.19,159.19,0,0,0-32.33,24.62,247.36,247.36,0,0,0-30.93,36.75h2.52A244.69,244.69,0,0,1,1023.76,776.07Z"/><path class="cls-1" d="M1157.14,783.44q-10-2.28-19.63-4a78.77,78.77,0,0,0-10-23.14c-1.62-2.63-3.37-5.21-5.25-7.77h-2.79c2.22,3,4.26,5.92,6.14,8.94a78,78,0,0,1,9.52,21.54c-12.69-2.22-25-3.79-37.18-4.72v2.25c12.34,1,24.85,2.55,37.73,4.84.36,1.62.65,3.23.87,4.85A50.6,50.6,0,0,1,1133,812.8h2.41a52.67,52.67,0,0,0,3.31-26.89c-.18-1.37-.42-2.75-.69-4.11q9.15,1.68,18.6,3.82,3.82.87,7.63,1.79v-2.3C1161.9,784.54,1159.53,784,1157.14,783.44Z"/><path class="cls-1" d="M1271.64,786.89v-2.12q-3.29-.79-6.58-1.55a369.94,369.94,0,0,0-59.52-8.8v2.07a368.59,368.59,0,0,1,59.06,8.74Q1268.13,786,1271.64,786.89Z"/><path class="cls-1" d="M1577.84,699.9c-17.95-3.64-30.75-13.92-38-30.56a75.05,75.05,0,0,1-5.77-23.92c0-.36,0-.72-.08-1.09h-2.07l.09,1.27a77.45,77.45,0,0,0,5.94,24.57c7.57,17.29,20.86,28,39.51,31.75a116.26,116.26,0,0,0,14,1.9v-2.07A117.12,117.12,0,0,1,1577.84,699.9Z"/><path class="cls-1" d="M1669.28,669.49a156.85,156.85,0,0,1,32.08-24.4v-1.7h-1.19A158.92,158.92,0,0,0,1667.84,668a246.25,246.25,0,0,0-30.93,36.75h2.52A244.69,244.69,0,0,1,1669.28,669.49Z"/><path class="cls-1" d="M1343.22,759.25c5.59,9,8.89,17.7,10.09,26.53a46.69,46.69,0,0,1-3.24,24.53h2.22a48.56,48.56,0,0,0,3.06-24.8c-1.23-9.13-4.63-18.07-10.38-27.34-1.5-2.42-3.11-4.8-4.84-7.17h-2.58C1339.61,753.72,1341.49,756.46,1343.22,759.25Z"/><path class="cls-1" d="M1454.31,776.07a156.85,156.85,0,0,1,32.08-24.4V750h-1.19a159,159,0,0,0-32.34,24.62,247.29,247.29,0,0,0-30.92,36.75h2.52A244.69,244.69,0,0,1,1454.31,776.07Z"/><path class="cls-1" d="M1587.69,783.44c-6.66-1.52-13.19-2.85-19.63-4a78.77,78.77,0,0,0-10-23.14c-1.63-2.63-3.37-5.21-5.25-7.77H1550c2.22,3,4.26,5.92,6.14,8.94a77.67,77.67,0,0,1,9.51,21.54c-12.68-2.22-25-3.79-37.17-4.72v2.25c12.34,1,24.85,2.55,37.73,4.84.36,1.62.65,3.23.87,4.85a50.6,50.6,0,0,1-3.51,26.59H1566a52.67,52.67,0,0,0,3.31-26.89c-.18-1.37-.42-2.75-.7-4.11,6.11,1.12,12.3,2.39,18.61,3.82q3.83.87,7.63,1.79v-2.3C1592.45,784.54,1590.08,784,1587.69,783.44Z"/><path class="cls-1" d="M1702.18,786.89v-2.12q-3.27-.79-6.57-1.55a369.94,369.94,0,0,0-59.52-8.8v2.07a368.59,368.59,0,0,1,59.06,8.74C1697.5,785.77,1699.85,786.32,1702.18,786.89Z"/><path d="M1101.59,669.6h-6.15v-1.53h14v1.53h-6.15v16.45h-1.67Z"/><path d="M1110.17,680.18a6.43,6.43,0,0,1,.46-2.47,5.8,5.8,0,0,1,1.26-2,5.7,5.7,0,0,1,2-1.28,6.53,6.53,0,0,1,2.49-.46,6.39,6.39,0,0,1,2.47.46,5.7,5.7,0,0,1,3.24,3.24,6.89,6.89,0,0,1,0,4.95,5.7,5.7,0,0,1-3.24,3.24,6.58,6.58,0,0,1-2.47.46,6.73,6.73,0,0,1-2.49-.46,5.84,5.84,0,0,1-2-1.28,6,6,0,0,1-1.26-2A6.44,6.44,0,0,1,1110.17,680.18Zm1.52,0a5.48,5.48,0,0,0,.32,1.87,4.39,4.39,0,0,0,2.4,2.55,5.09,5.09,0,0,0,3.86,0,4.43,4.43,0,0,0,1.47-1,4.3,4.3,0,0,0,.93-1.52,5.48,5.48,0,0,0,.32-1.87,5.42,5.42,0,0,0-.32-1.86,4.25,4.25,0,0,0-.93-1.53,4.4,4.4,0,0,0-1.47-1,5,5,0,0,0-3.86,0,4.31,4.31,0,0,0-1.47,1,4.25,4.25,0,0,0-.93,1.53A5.42,5.42,0,0,0,1111.69,680.18Z"/><path d="M1151.56,683.23a7.47,7.47,0,0,1-3,2.51,8.85,8.85,0,0,1-3.68.77,10,10,0,0,1-3.77-.7,8.53,8.53,0,0,1-2.93-2,8.91,8.91,0,0,1-1.91-3,10.47,10.47,0,0,1-.68-3.8,10.29,10.29,0,0,1,.68-3.78,9,9,0,0,1,1.91-3,8.69,8.69,0,0,1,2.93-2,9.81,9.81,0,0,1,3.77-.71,9,9,0,0,1,3.42.65,6.89,6.89,0,0,1,2.78,2.17l-1.37,1.14a5,5,0,0,0-2.15-1.85,6.5,6.5,0,0,0-2.68-.58,7.81,7.81,0,0,0-3.16.61,7,7,0,0,0-2.4,1.67,7.3,7.3,0,0,0-1.52,2.52,9.28,9.28,0,0,0,0,6.24,7.3,7.3,0,0,0,1.52,2.52,7,7,0,0,0,2.4,1.67,7.81,7.81,0,0,0,3.16.61,6.44,6.44,0,0,0,1.42-.16,6.52,6.52,0,0,0,1.44-.51,6.9,6.9,0,0,0,1.33-.87,5.41,5.41,0,0,0,1.12-1.25Z"/><path d="M1156.1,677.62c0-.22,0-.49,0-.8s0-.63,0-1,0-.62,0-.9,0-.5,0-.65h1.52c0,.44,0,.86,0,1.27a4.74,4.74,0,0,0,.06.79,5.18,5.18,0,0,1,1.5-1.71,3.71,3.71,0,0,1,2.24-.66,3.13,3.13,0,0,1,.44,0l.44.09-.18,1.5a1.73,1.73,0,0,0-.58-.1,4.25,4.25,0,0,0-1.71.31,3.34,3.34,0,0,0-1.2.88,3.65,3.65,0,0,0-.69,1.31,5.27,5.27,0,0,0-.23,1.61v6.4h-1.53Z"/><path d="M1176.37,683.84a5.13,5.13,0,0,1-2.2,1.93,7,7,0,0,1-2.88.59,6.35,6.35,0,0,1-2.44-.46,5.6,5.6,0,0,1-1.88-1.28,5.85,5.85,0,0,1-1.2-2,7.13,7.13,0,0,1-.42-2.5,6.66,6.66,0,0,1,.43-2.44,5.69,5.69,0,0,1,5.43-3.71,5.74,5.74,0,0,1,2.38.47,5.26,5.26,0,0,1,2.78,3,6.08,6.08,0,0,1,.35,2v1.06h-9.85a5.06,5.06,0,0,0,.19,1.24,4.45,4.45,0,0,0,.7,1.46,4.33,4.33,0,0,0,1.36,1.21,4.24,4.24,0,0,0,2.2.51,4.9,4.9,0,0,0,2.25-.56,4.07,4.07,0,0,0,1.68-1.52Zm-1.17-4.65a3.5,3.5,0,0,0-.32-1.47,4,4,0,0,0-.86-1.21,4.3,4.3,0,0,0-1.29-.82,4.25,4.25,0,0,0-1.59-.31,3.87,3.87,0,0,0-2.07.51,4.55,4.55,0,0,0-1.31,1.17,4.9,4.9,0,0,0-.69,1.28,3.69,3.69,0,0,0-.2.85Z"/><path d="M1191.15,681.12c0,.58,0,1.09,0,1.55s0,.88,0,1.27,0,.75.06,1.09.07.68.12,1H1190a11.22,11.22,0,0,1-.15-1.91h0a4.35,4.35,0,0,1-1.64,1.68,5,5,0,0,1-2.47.54,5.83,5.83,0,0,1-1.5-.2,3.8,3.8,0,0,1-1.32-.61,3.11,3.11,0,0,1-1-1.08,3.66,3.66,0,0,1,.31-3.73,4.31,4.31,0,0,1,1.69-1.18,8.27,8.27,0,0,1,2.14-.51c.75-.07,1.41-.11,2-.11h1.78v-.71a2.48,2.48,0,0,0-.94-2.18,4,4,0,0,0-2.37-.67,5.34,5.34,0,0,0-3.57,1.33l-.9-1.05a5.49,5.49,0,0,1,2.09-1.23,7.43,7.43,0,0,1,2.38-.42,5.35,5.35,0,0,1,3.41,1,3.88,3.88,0,0,1,1.27,3.23Zm-3.05-1a12.67,12.67,0,0,0-1.87.13,6,6,0,0,0-1.62.43,3,3,0,0,0-1.16.81,1.93,1.93,0,0,0-.43,1.27,1.86,1.86,0,0,0,.24,1,2.17,2.17,0,0,0,.62.69,3.1,3.1,0,0,0,.86.41,3.35,3.35,0,0,0,1,.13,5,5,0,0,0,2-.35,3.4,3.4,0,0,0,1.26-.93,3.28,3.28,0,0,0,.65-1.29,6.16,6.16,0,0,0,.18-1.47v-.78Z"/><path d="M1202.85,675.69h-3.35v7.64a1.68,1.68,0,0,0,.43,1.22,1.62,1.62,0,0,0,1.2.43,3.3,3.3,0,0,0,.87-.11,5.69,5.69,0,0,0,.85-.3L1203,686c-.29.1-.62.19-1,.28a4.81,4.81,0,0,1-1,.13,3.69,3.69,0,0,1-1.4-.25,2.4,2.4,0,0,1-.94-.65,2.58,2.58,0,0,1-.52-1,4,4,0,0,1-.16-1.18v-7.64h-2.54v-1.37H1198v-3.38h1.52v3.38h3.35Z"/><path d="M1217.84,683.84a5.18,5.18,0,0,1-2.2,1.93,7,7,0,0,1-2.88.59,6.35,6.35,0,0,1-2.44-.46,5.51,5.51,0,0,1-1.88-1.28,5.87,5.87,0,0,1-1.21-2,7.13,7.13,0,0,1-.42-2.5,6.66,6.66,0,0,1,.44-2.44,5.78,5.78,0,0,1,1.21-1.94,5.94,5.94,0,0,1,1.86-1.3,5.85,5.85,0,0,1,2.36-.47,5.66,5.66,0,0,1,2.37.47,5.23,5.23,0,0,1,2.79,3,6.08,6.08,0,0,1,.35,2v1.06h-9.85a5.06,5.06,0,0,0,.19,1.24,4.25,4.25,0,0,0,.7,1.46,4.41,4.41,0,0,0,1.35,1.21,4.24,4.24,0,0,0,2.2.51,4.94,4.94,0,0,0,2.26-.56,4.07,4.07,0,0,0,1.68-1.52Zm-1.17-4.65a3.5,3.5,0,0,0-.32-1.47,4,4,0,0,0-.86-1.21,4.29,4.29,0,0,0-2.89-1.13,3.9,3.9,0,0,0-2.07.51,4.5,4.5,0,0,0-1.3,1.17,4.62,4.62,0,0,0-.69,1.28,3.69,3.69,0,0,0-.2.85Z"/><path d="M1230.1,668.07h1.73l4.46,15.92h.06l4.54-15.92H1243l4.55,15.92h0l4.47-15.92h1.73l-5.23,18h-2.06l-4.55-16h0l-4.54,16h-2.06Z"/><path d="M1257.88,666.85h1.52v9.53h0a4.18,4.18,0,0,1,1.53-1.67,4.48,4.48,0,0,1,2.49-.7,5.09,5.09,0,0,1,2.23.43,3.64,3.64,0,0,1,1.36,1.13,4.2,4.2,0,0,1,.68,1.62,9,9,0,0,1,.2,1.88v7h-1.53v-6.91a7.87,7.87,0,0,0-.12-1.38,3.89,3.89,0,0,0-.45-1.21,2.35,2.35,0,0,0-.89-.85,3,3,0,0,0-1.48-.32,4.24,4.24,0,0,0-1.59.3,3.49,3.49,0,0,0-1.3.88,4.33,4.33,0,0,0-.86,1.51,6.33,6.33,0,0,0-.32,2.11v5.87h-1.52Z"/><path d="M1283,681.12c0,.58,0,1.09,0,1.55s0,.88,0,1.27,0,.75.06,1.09.07.68.12,1h-1.42a10.24,10.24,0,0,1-.16-1.91h-.05a4.28,4.28,0,0,1-1.64,1.68,5,5,0,0,1-2.47.54,5.83,5.83,0,0,1-1.5-.2,3.8,3.8,0,0,1-1.32-.61,3.11,3.11,0,0,1-1-1.08,3.64,3.64,0,0,1,.32-3.73,4.28,4.28,0,0,1,1.68-1.18,8.27,8.27,0,0,1,2.14-.51c.75-.07,1.41-.11,2-.11h1.78v-.71a2.48,2.48,0,0,0-.94-2.18,4,4,0,0,0-2.36-.67,5.35,5.35,0,0,0-3.58,1.33l-.89-1.05a5.45,5.45,0,0,1,2.08-1.23,7.44,7.44,0,0,1,2.39-.42,5.33,5.33,0,0,1,3.4,1,3.85,3.85,0,0,1,1.27,3.23Zm-3-1a12.53,12.53,0,0,0-1.86.13,6,6,0,0,0-1.63.43,2.91,2.91,0,0,0-1.15.81,1.89,1.89,0,0,0-.44,1.27,1.77,1.77,0,0,0,.25,1,2.06,2.06,0,0,0,.62.69,2.91,2.91,0,0,0,.85.41,3.4,3.4,0,0,0,1,.13,5,5,0,0,0,2-.35,3.4,3.4,0,0,0,1.26-.93,3.28,3.28,0,0,0,.65-1.29,6.16,6.16,0,0,0,.18-1.47v-.78Z"/><path d="M1294.72,675.69h-3.35v7.64a1.68,1.68,0,0,0,.43,1.22,1.62,1.62,0,0,0,1.2.43,3.3,3.3,0,0,0,.87-.11,5.69,5.69,0,0,0,.85-.3l.13,1.38c-.29.1-.62.19-1,.28a4.81,4.81,0,0,1-1,.13,3.69,3.69,0,0,1-1.4-.25,2.4,2.4,0,0,1-.94-.65,2.58,2.58,0,0,1-.52-1,4,4,0,0,1-.16-1.18v-7.64h-2.54v-1.37h2.54v-3.38h1.52v3.38h3.35Z"/><path d="M1323.09,683.23a7.47,7.47,0,0,1-3,2.51,8.85,8.85,0,0,1-3.68.77,10,10,0,0,1-3.77-.7,8.53,8.53,0,0,1-2.93-2,8.91,8.91,0,0,1-1.91-3,10.47,10.47,0,0,1-.68-3.8,10.29,10.29,0,0,1,.68-3.78,9,9,0,0,1,1.91-3,8.69,8.69,0,0,1,2.93-2,9.81,9.81,0,0,1,3.77-.71,9,9,0,0,1,3.42.65,6.89,6.89,0,0,1,2.78,2.17l-1.37,1.14a5,5,0,0,0-2.15-1.85,6.5,6.5,0,0,0-2.68-.58,7.81,7.81,0,0,0-3.16.61,7,7,0,0,0-2.4,1.67,7.3,7.3,0,0,0-1.52,2.52,9.28,9.28,0,0,0,0,6.24,7.3,7.3,0,0,0,1.52,2.52,7,7,0,0,0,2.4,1.67,7.81,7.81,0,0,0,3.16.61,6.44,6.44,0,0,0,1.42-.16,6.52,6.52,0,0,0,1.44-.51,6.9,6.9,0,0,0,1.33-.87,5.41,5.41,0,0,0,1.12-1.25Z"/><path d="M1327.63,677.62c0-.22,0-.49,0-.8s0-.63,0-1,0-.62,0-.9,0-.5,0-.65H1329c0,.44,0,.86,0,1.27a4.74,4.74,0,0,0,.06.79,5.18,5.18,0,0,1,1.5-1.71,3.71,3.71,0,0,1,2.24-.66,3.13,3.13,0,0,1,.44,0l.44.09-.18,1.5a1.73,1.73,0,0,0-.58-.1,4.25,4.25,0,0,0-1.71.31,3.34,3.34,0,0,0-1.2.88,3.65,3.65,0,0,0-.69,1.31,5.27,5.27,0,0,0-.23,1.61v6.4h-1.53Z"/><path d="M1347.9,683.84a5.18,5.18,0,0,1-2.2,1.93,7,7,0,0,1-2.88.59,6.35,6.35,0,0,1-2.44-.46,5.51,5.51,0,0,1-1.88-1.28,5.87,5.87,0,0,1-1.21-2,7.36,7.36,0,0,1-.41-2.5,6.66,6.66,0,0,1,.43-2.44,5.66,5.66,0,0,1,1.22-1.94,5.79,5.79,0,0,1,1.85-1.3,5.85,5.85,0,0,1,2.36-.47,5.74,5.74,0,0,1,2.38.47,5.26,5.26,0,0,1,2.78,3,6.08,6.08,0,0,1,.35,2v1.06h-9.85a5.06,5.06,0,0,0,.19,1.24,4.45,4.45,0,0,0,.7,1.46,4.33,4.33,0,0,0,1.36,1.21,4.2,4.2,0,0,0,2.19.51,4.94,4.94,0,0,0,2.26-.56,4.07,4.07,0,0,0,1.68-1.52Zm-1.17-4.65a3.5,3.5,0,0,0-.32-1.47,4,4,0,0,0-.86-1.21,4.29,4.29,0,0,0-2.89-1.13,3.86,3.86,0,0,0-2.06.51,4.55,4.55,0,0,0-1.31,1.17,4.9,4.9,0,0,0-.69,1.28,3.69,3.69,0,0,0-.2.85Z"/><path d="M1362.67,681.12c0,.58,0,1.09,0,1.55s0,.88,0,1.27,0,.75.07,1.09.06.68.11,1h-1.42a11.22,11.22,0,0,1-.15-1.91h0a4.35,4.35,0,0,1-1.64,1.68,5.09,5.09,0,0,1-2.48.54,5.81,5.81,0,0,1-1.49-.2,3.85,3.85,0,0,1-1.33-.61,3.32,3.32,0,0,1-.95-1.08,3.28,3.28,0,0,1-.36-1.59,3.14,3.14,0,0,1,.68-2.14,4.31,4.31,0,0,1,1.69-1.18,8.29,8.29,0,0,1,2.13-.51c.76-.07,1.42-.11,2-.11h1.77v-.71a2.46,2.46,0,0,0-.94-2.18,3.92,3.92,0,0,0-2.36-.67,5.37,5.37,0,0,0-3.58,1.33l-.89-1.05a5.49,5.49,0,0,1,2.09-1.23A7.38,7.38,0,0,1,1358,674a5.32,5.32,0,0,1,3.4,1,3.85,3.85,0,0,1,1.27,3.23Zm-3-1a12.57,12.57,0,0,0-1.87.13,6,6,0,0,0-1.62.43,3,3,0,0,0-1.16.81,2.05,2.05,0,0,0-.19,2.22,2.17,2.17,0,0,0,.62.69,3.18,3.18,0,0,0,.85.41,3.47,3.47,0,0,0,1,.13,5,5,0,0,0,2-.35,3.4,3.4,0,0,0,1.26-.93,3.13,3.13,0,0,0,.64-1.29,6.16,6.16,0,0,0,.18-1.47v-.78Z"/><path d="M1374.38,675.69H1371v7.64a1.64,1.64,0,0,0,.43,1.22,1.61,1.61,0,0,0,1.19.43,3.32,3.32,0,0,0,.88-.11,5.69,5.69,0,0,0,.85-.3l.13,1.38c-.29.1-.62.19-1,.28a4.81,4.81,0,0,1-1,.13,3.69,3.69,0,0,1-1.4-.25,2.4,2.4,0,0,1-.94-.65,2.58,2.58,0,0,1-.52-1,4,4,0,0,1-.16-1.18v-7.64H1367v-1.37h2.54v-3.38H1371v3.38h3.35Z"/><path d="M1389.36,683.84a5.1,5.1,0,0,1-2.19,1.93,7,7,0,0,1-2.89.59,6.3,6.3,0,0,1-2.43-.46,5.51,5.51,0,0,1-1.88-1.28,5.72,5.72,0,0,1-1.21-2,7.13,7.13,0,0,1-.42-2.5,6.87,6.87,0,0,1,.43-2.44,6,6,0,0,1,1.22-1.94,5.7,5.7,0,0,1,4.22-1.77,5.66,5.66,0,0,1,2.37.47,5.27,5.27,0,0,1,1.73,1.25,5,5,0,0,1,1,1.76,5.84,5.84,0,0,1,.36,2v1.06h-9.85a5.06,5.06,0,0,0,.19,1.24,4.3,4.3,0,0,0,2,2.67,4.24,4.24,0,0,0,2.2.51,4.94,4.94,0,0,0,2.26-.56,4.07,4.07,0,0,0,1.68-1.52Zm-1.17-4.65a3.49,3.49,0,0,0-.31-1.47,4,4,0,0,0-.86-1.21,4.29,4.29,0,0,0-2.89-1.13,3.87,3.87,0,0,0-2.07.51,4.68,4.68,0,0,0-1.31,1.17,4.84,4.84,0,0,0-.68,1.28,3.21,3.21,0,0,0-.2.85Z"/><path d="M1395.05,683.05a3.29,3.29,0,0,0,1.42,1.44,4.21,4.21,0,0,0,2,.49,3.22,3.22,0,0,0,1-.15,3,3,0,0,0,.86-.43,2.23,2.23,0,0,0,.62-.68,1.67,1.67,0,0,0,.24-.89,1.48,1.48,0,0,0-.51-1.23,3.88,3.88,0,0,0-1.29-.63,15.88,15.88,0,0,0-1.67-.39,7.16,7.16,0,0,1-1.68-.51,3.6,3.6,0,0,1-1.28-1,2.59,2.59,0,0,1-.52-1.73,3.13,3.13,0,0,1,.35-1.5,3.36,3.36,0,0,1,.93-1,3.9,3.9,0,0,1,1.28-.62,5.14,5.14,0,0,1,1.45-.21,5.55,5.55,0,0,1,2.5.53,3.76,3.76,0,0,1,1.64,1.68L1401,677a3.23,3.23,0,0,0-1.08-1.24,3.07,3.07,0,0,0-1.69-.42,3.32,3.32,0,0,0-.85.13,2.92,2.92,0,0,0-.8.36,2.07,2.07,0,0,0-.6.58,1.43,1.43,0,0,0-.24.81,1.34,1.34,0,0,0,.52,1.17,4.34,4.34,0,0,0,1.28.6,16.27,16.27,0,0,0,1.68.37,6.71,6.71,0,0,1,1.68.49,3.54,3.54,0,0,1,1.28,1,2.88,2.88,0,0,1,.52,1.84,3.58,3.58,0,0,1-.34,1.59,3.43,3.43,0,0,1-.94,1.13,4.47,4.47,0,0,1-1.36.69,5.63,5.63,0,0,1-1.6.23,6.47,6.47,0,0,1-2.78-.59,4.18,4.18,0,0,1-1.94-1.8Z"/><path d="M1420.67,669.6h-6.14v-1.53h14v1.53h-6.15v16.45h-1.68Z"/><path d="M1429.26,680.18a6.62,6.62,0,0,1,.45-2.47,6,6,0,0,1,1.27-2,5.6,5.6,0,0,1,2-1.28,6.53,6.53,0,0,1,2.49-.46,6.43,6.43,0,0,1,2.47.46,5.79,5.79,0,0,1,2,1.28,5.7,5.7,0,0,1,1.28,2,6.89,6.89,0,0,1,0,4.95,5.7,5.7,0,0,1-3.24,3.24,6.62,6.62,0,0,1-2.47.46,6.73,6.73,0,0,1-2.49-.46,5.74,5.74,0,0,1-2-1.28,6.19,6.19,0,0,1-1.27-2A6.63,6.63,0,0,1,1429.26,680.18Zm1.52,0a5.48,5.48,0,0,0,.32,1.87,4.42,4.42,0,0,0,.92,1.52,4.47,4.47,0,0,0,1.48,1,4.75,4.75,0,0,0,1.93.38,4.82,4.82,0,0,0,1.93-.38,4.53,4.53,0,0,0,1.47-1,4.28,4.28,0,0,0,.92-1.52,5.25,5.25,0,0,0,.32-1.87,5.2,5.2,0,0,0-.32-1.86,4.23,4.23,0,0,0-.92-1.53,4.51,4.51,0,0,0-1.47-1,4.65,4.65,0,0,0-1.93-.39,4.59,4.59,0,0,0-1.93.39,4.45,4.45,0,0,0-1.48,1,4.38,4.38,0,0,0-.92,1.53A5.42,5.42,0,0,0,1430.78,680.18Z"/><path d="M1455.84,668.07h1.68v16.45h8.38v1.53h-10.06Z"/><path d="M1479.13,681.12c0,.58,0,1.09,0,1.55s0,.88,0,1.27,0,.75.06,1.09.07.68.12,1h-1.43a11.22,11.22,0,0,1-.15-1.91h0a4.35,4.35,0,0,1-1.64,1.68,5,5,0,0,1-2.47.54,5.83,5.83,0,0,1-1.5-.2,3.8,3.8,0,0,1-1.32-.61,3.11,3.11,0,0,1-1-1.08,3.66,3.66,0,0,1,.31-3.73,4.31,4.31,0,0,1,1.69-1.18,8.27,8.27,0,0,1,2.14-.51c.75-.07,1.41-.11,2-.11h1.78v-.71a2.48,2.48,0,0,0-.94-2.18,4,4,0,0,0-2.36-.67,5.35,5.35,0,0,0-3.58,1.33l-.89-1.05a5.38,5.38,0,0,1,2.08-1.23,7.44,7.44,0,0,1,2.39-.42,5.33,5.33,0,0,1,3.4,1,3.88,3.88,0,0,1,1.27,3.23Zm-3.05-1a12.44,12.44,0,0,0-1.86.13,6,6,0,0,0-1.63.43,3,3,0,0,0-1.16.81,1.93,1.93,0,0,0-.43,1.27,1.86,1.86,0,0,0,.24,1,2.17,2.17,0,0,0,.62.69,3.1,3.1,0,0,0,.86.41,3.4,3.4,0,0,0,1,.13,5,5,0,0,0,2-.35,3.4,3.4,0,0,0,1.26-.93,3.28,3.28,0,0,0,.65-1.29,6.16,6.16,0,0,0,.18-1.47v-.78Z"/><path d="M1485.12,683.05a3.24,3.24,0,0,0,1.42,1.44,4.21,4.21,0,0,0,2,.49,3.32,3.32,0,0,0,1-.15,3,3,0,0,0,.86-.43,2.37,2.37,0,0,0,.62-.68,1.67,1.67,0,0,0,.24-.89,1.45,1.45,0,0,0-.52-1.23,3.74,3.74,0,0,0-1.28-.63,16.09,16.09,0,0,0-1.68-.39,7.08,7.08,0,0,1-1.67-.51,3.6,3.6,0,0,1-1.28-1,2.59,2.59,0,0,1-.53-1.73,3,3,0,0,1,.36-1.5,3.36,3.36,0,0,1,.93-1,3.9,3.9,0,0,1,1.28-.62,5.09,5.09,0,0,1,1.45-.21,5.55,5.55,0,0,1,2.5.53,3.76,3.76,0,0,1,1.64,1.68L1491,677a3.13,3.13,0,0,0-1.07-1.24,3.09,3.09,0,0,0-1.69-.42,3.25,3.25,0,0,0-.85.13,2.79,2.79,0,0,0-.8.36,2.07,2.07,0,0,0-.6.58,1.43,1.43,0,0,0-.24.81,1.34,1.34,0,0,0,.52,1.17,4.22,4.22,0,0,0,1.28.6,16.27,16.27,0,0,0,1.68.37,6.51,6.51,0,0,1,1.67.49,3.49,3.49,0,0,1,1.29,1,2.94,2.94,0,0,1,.52,1.84,3.45,3.45,0,0,1-.35,1.59,3.2,3.2,0,0,1-.94,1.13,4.42,4.42,0,0,1-1.35.69,5.68,5.68,0,0,1-1.6.23,6.55,6.55,0,0,1-2.79-.59,4.28,4.28,0,0,1-1.94-1.8Z"/><path d="M1503.56,675.69h-3.36v7.64a1.68,1.68,0,0,0,.43,1.22,1.62,1.62,0,0,0,1.2.43,3.24,3.24,0,0,0,.87-.11,6.24,6.24,0,0,0,.86-.3l.12,1.38c-.29.1-.62.19-1,.28a4.81,4.81,0,0,1-1,.13,3.69,3.69,0,0,1-1.4-.25,2.4,2.4,0,0,1-.94-.65,2.58,2.58,0,0,1-.52-1,4,4,0,0,1-.16-1.18v-7.64h-2.54v-1.37h2.54v-3.38h1.52v3.38h3.36Z"/></svg>