<svg id="Layer_1" data-name="Layer 1" xmlns="http://www.w3.org/2000/svg" viewBox="0 0 243.8 74.32"><defs><style>.cls-1{fill:#231f20;}</style></defs><path class="cls-1" d="M192.3,10.15a1,1,0,0,1,0,.23,1.68,1.68,0,0,1-.26,1.19,2.73,2.73,0,0,1-.77.74,3.44,3.44,0,0,1-.66.37,7.71,7.71,0,0,1-.77.3,8.15,8.15,0,0,1-.85.22,5.14,5.14,0,0,1-.88.07A4.55,4.55,0,0,1,186.6,13a3.13,3.13,0,0,1-1.1-.69,2.74,2.74,0,0,1-.65-1,3.83,3.83,0,0,1-.22-1.33,4.39,4.39,0,0,1,.16-1.13,8.33,8.33,0,0,1,.37-1.13l1.3.6a3.54,3.54,0,0,0-.16.43c-.05.15-.1.31-.14.46l-.09.43a2.35,2.35,0,0,0,0,.34,1.27,1.27,0,0,0,.52,1,2.52,2.52,0,0,0,1.59.42,4.64,4.64,0,0,0,1.35-.2,3.67,3.67,0,0,0,1.05-.48l.06,0-.4-.17-.45-.19-.43-.18a2.8,2.8,0,0,0-.33-.12l.34-1.74h3v1.83Z"/><path class="cls-1" d="M195.52,10.15a2.06,2.06,0,0,1-1.6-.56,2.06,2.06,0,0,1-.77.44,2.92,2.92,0,0,1-.79.12.78.78,0,0,1-.22,0c-.07,0-.11-.05-.11-.07V8.43s0-.06.11-.08a.78.78,0,0,1,.22,0l.3,0a1.66,1.66,0,0,0,.31-.12A.8.8,0,0,0,193.2,8a.63.63,0,0,0,.09-.35V7.25l1.41-.47v.61a1.15,1.15,0,0,0,.22.71.75.75,0,0,0,.6.22h.2v1.83Zm.21-5-.39.53c-.14.16-.27.34-.4.52l-.86-.64-.61.71-.55-.38-.55-.38c.13-.18.27-.35.41-.53l.41-.51.9.7.54-.79Z"/><path class="cls-1" d="M203.49,10.08a1.16,1.16,0,0,1-.68-.39,1.85,1.85,0,0,1-.57.36,2.22,2.22,0,0,1-.81.13,2.62,2.62,0,0,1-.73-.1,1.31,1.31,0,0,1-.67-.42,1.77,1.77,0,0,1-1.35.52,2.57,2.57,0,0,1-.73-.1,1.31,1.31,0,0,1-.67-.42,1.78,1.78,0,0,1-.58.36,2.13,2.13,0,0,1-.8.13h-.18a.78.78,0,0,1-.22,0c-.07,0-.11-.05-.11-.07V8.43s0-.06.11-.08a.78.78,0,0,1,.22,0h.18a.87.87,0,0,0,.39-.08.58.58,0,0,0,.22-.18.53.53,0,0,0,.11-.21.67.67,0,0,0,0-.18v-.1a1,1,0,0,0,0-.17c0-.05,0-.11,0-.16V7.12l1.23-.35a3.18,3.18,0,0,1,0,.47,2.18,2.18,0,0,0,.06.52,1,1,0,0,0,.23.42.67.67,0,0,0,.5.17.72.72,0,0,0,.6-.28.62.62,0,0,0,.1-.22,1.41,1.41,0,0,0,0-.18v-.1a1,1,0,0,0,0-.17V7.12l1.22-.35a3.18,3.18,0,0,1,0,.47,2.18,2.18,0,0,0,.06.52,1,1,0,0,0,.23.42.69.69,0,0,0,.5.17.87.87,0,0,0,.39-.08.58.58,0,0,0,.22-.18.53.53,0,0,0,.11-.21.67.67,0,0,0,0-.18V7.59a.92.92,0,0,0,0-.16s0-.11,0-.16V7.15l1.23-.35a3.18,3.18,0,0,1,0,.47,2.1,2.1,0,0,0,.06.51.92.92,0,0,0,.19.41.56.56,0,0,0,.47.13h.11v1.83A4,4,0,0,1,203.49,10.08Z"/><path class="cls-1" d="M207.41,10.15a2.05,2.05,0,0,1-1.59-.56A2.09,2.09,0,0,1,205,10a2.86,2.86,0,0,1-.79.12.82.82,0,0,1-.22,0c-.07,0-.1-.05-.1-.07V8.43s0-.06.1-.08a.83.83,0,0,1,.22,0l.31,0a1.57,1.57,0,0,0,.3-.12.8.8,0,0,0,.23-.22.63.63,0,0,0,.09-.35V7.25l1.42-.47v.61a1.15,1.15,0,0,0,.21.71.75.75,0,0,0,.6.22h.2v1.83Zm.23,1.74c-.13.19-.26.36-.4.53s-.26.34-.39.53L206,12.3l-.61.72-.55-.38-.55-.38c.13-.18.27-.36.41-.52s.28-.35.41-.53l.9.71.54-.79Z"/><path class="cls-1" d="M208.7,8.32a4.83,4.83,0,0,0,.82-.08,8.52,8.52,0,0,0,.84-.2c.28-.09.56-.19.83-.3a4.83,4.83,0,0,0,.72-.36l-.45-.21L211,7l-.4-.14a1,1,0,0,0-.28-.06.91.91,0,0,0-.47.16,2.07,2.07,0,0,0-.41.36l-1.13-.69c.09-.12.2-.27.35-.45a4.52,4.52,0,0,1,.48-.5,3.32,3.32,0,0,1,.58-.4,1.24,1.24,0,0,1,.6-.17,2.13,2.13,0,0,1,.81.16c.27.11.55.23.85.38l.4.19A3.09,3.09,0,0,0,213,6a6.46,6.46,0,0,0,.9.18,9.18,9.18,0,0,0,1.35,0l-.53,1.92a8.47,8.47,0,0,0-.84.12c-.24.06-.46.12-.66.19a4.56,4.56,0,0,0-.54.25l-.49.28-.74.4a8.23,8.23,0,0,1-.79.37,7.17,7.17,0,0,1-.89.26,5.45,5.45,0,0,1-1,.09h-1.09a.82.82,0,0,1-.22,0c-.07,0-.1-.05-.1-.07V8.43s0-.06.1-.08a.83.83,0,0,1,.22,0Zm.75,4c.13-.19.26-.36.39-.53s.26-.34.4-.53l.86.65.6-.73.55.39c.18.12.37.25.55.39-.13.17-.26.35-.41.52L212,13l-.85-.65-.61.73Zm1,1.46.38-.46c.12-.15.25-.29.37-.43l.47.38.47.36-.38.49c-.12.17-.25.33-.38.49Z"/><path class="cls-1" d="M223.89,10.15a3.66,3.66,0,0,1-.86-.09,2,2,0,0,1-.63-.3,1.76,1.76,0,0,1-.45-.49,2.82,2.82,0,0,1-.31-.68,5,5,0,0,1-.77.27,3.18,3.18,0,0,1-.7.1,1.25,1.25,0,0,1-1.09-.48,1.88,1.88,0,0,1-.35-1.16,1.79,1.79,0,0,1,.21-.86,3.17,3.17,0,0,1,.53-.73,4.24,4.24,0,0,1,.69-.58c.25-.17.48-.31.7-.43l-.08-.52,1.29-1,.75,4.18a1.31,1.31,0,0,0,.3.68,1,1,0,0,0,.77.22Zm-2.62-3.06s0-.08,0-.16,0-.17-.05-.27,0-.19,0-.27a.71.71,0,0,0,0-.16l-.26.16a1.83,1.83,0,0,0-.36.26,2.27,2.27,0,0,0-.31.31.39.39,0,0,0-.1.3c0,.09.07.13.18.14a1.3,1.3,0,0,0,.37-.05l.39-.12A1,1,0,0,0,221.27,7.09Z"/><path class="cls-1" d="M224.44,13.05l-.55-.39-.56-.39.42-.53c.12-.16.27-.34.43-.53l.54.39.54.39Zm-.1-4.73c.61,0,.91-.11.91-.32a.37.37,0,0,0-.07-.16L225,7.59l-.19-.27-.16-.23,1-1.45c.06.08.15.21.25.37a4,4,0,0,1,.31.55c.09.2.18.43.26.67a2.81,2.81,0,0,1,.11.77,2.08,2.08,0,0,1-.59,1.6,2.45,2.45,0,0,1-1.73.55h-.45a.86.86,0,0,1-.22,0c-.07,0-.1-.05-.1-.07V8.43s0-.06.1-.08l.22,0Z"/><path class="cls-1" d="M192.3,24.43a.93.93,0,0,1,0,.23,1.64,1.64,0,0,1,0,.22,1.74,1.74,0,0,1-.28,1,2.63,2.63,0,0,1-.77.75,4.08,4.08,0,0,1-.66.37,7.71,7.71,0,0,1-.77.3,6.21,6.21,0,0,1-.85.21,4.91,4.91,0,0,1-2.43-.17,3,3,0,0,1-1.1-.68,2.74,2.74,0,0,1-.65-1,3.83,3.83,0,0,1-.22-1.33,4.52,4.52,0,0,1,.16-1.14,8.65,8.65,0,0,1,.37-1.12l1.3.59c-.06.14-.11.28-.16.43s-.1.31-.14.46-.06.3-.09.43a2.6,2.6,0,0,0,0,.35,1.29,1.29,0,0,0,.52,1.05,2.52,2.52,0,0,0,1.59.42,4.64,4.64,0,0,0,1.35-.2,3.67,3.67,0,0,0,1.05-.48l.06,0-.4-.17-.45-.19-.43-.18-.33-.13.34-1.73h3v1.83Z"/><path class="cls-1" d="M195.52,24.43a2.1,2.1,0,0,1-1.6-.56,2.06,2.06,0,0,1-.77.44,2.92,2.92,0,0,1-.79.12.78.78,0,0,1-.22,0c-.07,0-.11,0-.11-.07V22.71s0-.06.11-.08a.78.78,0,0,1,.22,0,1.13,1.13,0,0,0,.3,0,.91.91,0,0,0,.31-.12.69.69,0,0,0,.23-.22.57.57,0,0,0,.09-.34v-.35l1.41-.47v.61a1.17,1.17,0,0,0,.22.71.75.75,0,0,0,.6.22h.2v1.83Zm.21-5c-.13.19-.26.37-.39.53s-.27.34-.4.53l-.86-.65-.61.72-.55-.38-.55-.38c.13-.18.27-.35.41-.53l.41-.51.9.7.54-.79Z"/><path class="cls-1" d="M195.72,24.43a.78.78,0,0,1-.22,0c-.07,0-.11,0-.11-.07V22.71s0-.06.11-.08a.78.78,0,0,1,.22,0h1.41v1.83Z"/><path class="cls-1" d="M197.13,24.43a.78.78,0,0,1-.22,0c-.07,0-.11,0-.11-.07V22.71s0-.06.11-.08a.78.78,0,0,1,.22,0h1.41v1.83Z"/><path class="cls-1" d="M206.31,24.36a1.16,1.16,0,0,1-.67-.39,1.89,1.89,0,0,1-.58.36,2.22,2.22,0,0,1-.81.13,2.62,2.62,0,0,1-.73-.1,1.25,1.25,0,0,1-.66-.42,2.08,2.08,0,0,1-.57.37,1.89,1.89,0,0,1-.79.15,2.62,2.62,0,0,1-.73-.1,1.31,1.31,0,0,1-.67-.42,1.85,1.85,0,0,1-.57.36,2.22,2.22,0,0,1-.81.13h-.18a.78.78,0,0,1-.22,0c-.07,0-.11,0-.11-.07V22.71s0-.06.11-.08a.78.78,0,0,1,.22,0h.18a.87.87,0,0,0,.39-.08.71.71,0,0,0,.23-.18.75.75,0,0,0,.13-.39v-.11a.92.92,0,0,0,0-.16V21.4l1.22-.35a3.18,3.18,0,0,1,0,.47,2.18,2.18,0,0,0,.06.52,1,1,0,0,0,.23.42.83.83,0,0,0,.88.08.6.6,0,0,0,.22-.19.49.49,0,0,0,.1-.22,1.41,1.41,0,0,0,0-.18v-.11a.92.92,0,0,0,0-.16V21.4l1.22-.35a3.18,3.18,0,0,1,0,.47,1.77,1.77,0,0,0,.07.52.9.9,0,0,0,.22.42.69.69,0,0,0,.5.17.87.87,0,0,0,.39-.08.71.71,0,0,0,.23-.18.72.72,0,0,0,.1-.22.67.67,0,0,0,0-.17v-.11a.92.92,0,0,0,0-.16v-.28l1.22-.36a3.33,3.33,0,0,1,0,.48,2.1,2.1,0,0,0,.06.51.84.84,0,0,0,.2.4.51.51,0,0,0,.46.14h.11v1.83A4,4,0,0,1,206.31,24.36Z"/><path class="cls-1" d="M210.24,24.43a2.1,2.1,0,0,1-1.6-.56,2,2,0,0,1-.78.44,2.86,2.86,0,0,1-.79.12.76.76,0,0,1-.21,0c-.07,0-.11,0-.11-.07V22.71s0-.06.11-.08a.76.76,0,0,1,.21,0,1.15,1.15,0,0,0,.31,0,.79.79,0,0,0,.3-.12.61.61,0,0,0,.23-.22.51.51,0,0,0,.1-.34v-.35l1.41-.47v.61a1.17,1.17,0,0,0,.22.71.72.72,0,0,0,.6.22h.19v1.83Zm.22,1.74c-.13.19-.26.36-.39.53a5.64,5.64,0,0,0-.4.53l-.86-.65-.61.72-.55-.38-.55-.38c.13-.18.27-.36.41-.53s.28-.34.41-.52l.9.71.54-.79Z"/><path class="cls-1" d="M210.43,22.6a7.14,7.14,0,0,0,1.17-.07,2.19,2.19,0,0,0,.62-.16.49.49,0,0,0,.25-.24.86.86,0,0,0,.05-.27,1,1,0,0,0-.24-.57,6.41,6.41,0,0,0-.57-.64c-.22-.21-.45-.43-.69-.63a5.45,5.45,0,0,1-.59-.58l0-.76a1.63,1.63,0,0,1,.21-.64,2.24,2.24,0,0,1,.24-.31l.45-.31.74-.45c.28-.17.59-.35.93-.53l1-.55,1-.52L216,15V17c-.33.14-.67.29-1,.46l-1,.48c-.33.16-.64.32-.94.49l-.81.46c.18.16.37.34.57.55a5.33,5.33,0,0,1,.56.68,3.58,3.58,0,0,1,.42.8,2.45,2.45,0,0,1,.17.94,4.6,4.6,0,0,1-.08.91,1.58,1.58,0,0,1-.42.82,2.49,2.49,0,0,1-1.05.61,6.32,6.32,0,0,1-1.95.23.83.83,0,0,1-.22,0c-.07,0-.1,0-.1-.07V22.71s0-.06.1-.08A.83.83,0,0,1,210.43,22.6Z"/><path class="cls-1" d="M219.57,24.21a1.89,1.89,0,0,1-.72-.58,2.46,2.46,0,0,1-.4-.83,3.42,3.42,0,0,1-.13-1V16.45l1.41-.53v5.92a.79.79,0,0,0,.21.52.85.85,0,0,0,.69.24v1.83A2.31,2.31,0,0,1,219.57,24.21Z"/><path class="cls-1" d="M222.71,26.17c-.13.19-.27.36-.4.53s-.26.34-.39.53l-.86-.65-.61.72-.55-.38-.55-.38c.13-.18.27-.36.41-.53s.28-.34.41-.52l.9.71.54-.79Zm-1.62-3.57q.9,0,.9-.33a.35.35,0,0,0-.07-.15,2.36,2.36,0,0,0-.15-.25l-.19-.27-.16-.23,1.05-1.45c.06.08.15.2.25.36a4.14,4.14,0,0,1,.31.56c.09.2.18.43.26.67a2.79,2.79,0,0,1,.11.76,2.09,2.09,0,0,1-.59,1.61,2.44,2.44,0,0,1-1.72.55h-.46a.76.76,0,0,1-.21,0c-.08,0-.11,0-.11-.07V22.71s0-.06.11-.08l.21,0Z"/><path class="cls-1" d="M188.46,40.63l-3,.83-.12-.52,3-.89Z"/><path class="cls-1" d="M186.64,38.71a4.43,4.43,0,0,1-1.08-.13,2.61,2.61,0,0,1-.93-.41l.53-.9a1.66,1.66,0,0,0,.74.33,5.54,5.54,0,0,0,.81.07l.56,0a2.15,2.15,0,0,0,.57-.13,1.18,1.18,0,0,0,.44-.28.67.67,0,0,0,.18-.49,1.27,1.27,0,0,0-.21-.7,3.41,3.41,0,0,0-.53-.61,5.56,5.56,0,0,0-.67-.5l-.6-.38.42-1.07a9.82,9.82,0,0,1,.87.65,5.59,5.59,0,0,1,.76.78,4.07,4.07,0,0,1,.54.89,2.74,2.74,0,0,1,.2,1,1.46,1.46,0,0,1-.25.89,1.91,1.91,0,0,1-.62.58,2.76,2.76,0,0,1-.84.32A4.63,4.63,0,0,1,186.64,38.71Z"/><path class="cls-1" d="M192.56,38.51a2.94,2.94,0,0,1-.36,1.3,4.63,4.63,0,0,1-.81,1.12,6.6,6.6,0,0,1-1.06.92,9.18,9.18,0,0,1-1.12.67l-.65-.73a11.72,11.72,0,0,0,1.1-.6,7.07,7.07,0,0,0,1-.72,5,5,0,0,0,.72-.83,2.31,2.31,0,0,0,.36-.93,1.93,1.93,0,0,0-.19-.85,6.2,6.2,0,0,0-.44-.69l.71-.8a5.81,5.81,0,0,1,.32.49,3.47,3.47,0,0,0,.3.4,1.31,1.31,0,0,0,.34.29.79.79,0,0,0,.45.12v1A1.07,1.07,0,0,1,192.56,38.51Z"/><path class="cls-1" d="M192.87,37.77s0-.07.1-.08a.82.82,0,0,1,.22,0h1.3a4.56,4.56,0,0,0,.62-.05,2.36,2.36,0,0,0,.61-.14,1.23,1.23,0,0,0,.46-.3.7.7,0,0,0,.19-.5v-.09a.2.2,0,0,0,0-.09,4.71,4.71,0,0,1-.59.22,2,2,0,0,1-.58.09,1,1,0,0,1-.71-.27,1.1,1.1,0,0,1-.29-.88,2.93,2.93,0,0,1,.11-.7,3.61,3.61,0,0,1,.32-.76,2.67,2.67,0,0,1,.47-.61.83.83,0,0,1,.58-.26.85.85,0,0,1,.66.34,2.92,2.92,0,0,1,.47.81,5.26,5.26,0,0,1,.27,1,3.92,3.92,0,0,1,.1.8,2.21,2.21,0,0,1-2.54,2.47h-1.43a.83.83,0,0,1-.22,0c-.07,0-.1,0-.1-.07Zm2.73-5.48-.93-.65.71-.86.92.65Zm-.24,3.53a1.35,1.35,0,0,0,.43-.08,1.76,1.76,0,0,0,.39-.18c0-.12-.06-.25-.1-.39l-.15-.39a1.06,1.06,0,0,0-.2-.29.36.36,0,0,0-.25-.11.33.33,0,0,0-.22.09.87.87,0,0,0-.19.23,1.23,1.23,0,0,0-.14.31,1.05,1.05,0,0,0-.06.33.58.58,0,0,0,.11.34A.49.49,0,0,0,195.36,35.82Z"/><path class="cls-1" d="M205.79,38.71a2,2,0,0,1-1.4-.41,2.26,2.26,0,0,1-.6-1.25l0-.06a2.63,2.63,0,0,1-.77.37,2.89,2.89,0,0,1-.91.15,1.17,1.17,0,0,1-.71-.19,1,1,0,0,1-.36-.47,1.32,1.32,0,0,1,0-.63,1.82,1.82,0,0,1,.23-.64,4.58,4.58,0,0,1,2-1.67l-.14-.77.77-.6.68,3.48c.05.26.11.49.17.7a1.66,1.66,0,0,0,.22.52.87.87,0,0,0,.34.32,1.25,1.25,0,0,0,.55.11h.1v1Zm-2.45-3.92a2.94,2.94,0,0,0-.6.32,2.9,2.9,0,0,0-.56.47c-.28.28-.39.5-.32.67s.28.22.63.18a3.12,3.12,0,0,0,.65-.17,2.18,2.18,0,0,0,.45-.24Z"/><path class="cls-1" d="M206.28,41.53l-.91-.65.69-.86.93.65Zm-.74-3.76s0-.07.1-.08a.82.82,0,0,1,.22,0h.28a2,2,0,0,0,.89-.17.53.53,0,0,0,.33-.51,1,1,0,0,0-.21-.57,6.55,6.55,0,0,0-.39-.55l.72-.77a3.24,3.24,0,0,1,.53.83,2.75,2.75,0,0,1,.19,1c0,1.21-.7,1.81-2.11,1.81h-.23a.83.83,0,0,1-.22,0c-.07,0-.1,0-.1-.07Z"/><path class="cls-1" d="M214.62,38.51a2.93,2.93,0,0,1-.35,1.3,5.24,5.24,0,0,1-.81,1.12,6.67,6.67,0,0,1-1.07.92,8.4,8.4,0,0,1-1.11.67l-.65-.73a10.43,10.43,0,0,0,1.09-.6,6,6,0,0,0,1-.72,4.24,4.24,0,0,0,.72-.83,2.06,2.06,0,0,0,.36-.93,1.8,1.8,0,0,0-.19-.85,5,5,0,0,0-.43-.69l.71-.8a5.81,5.81,0,0,1,.32.49,2.61,2.61,0,0,0,.3.4,1.17,1.17,0,0,0,.34.29.79.79,0,0,0,.45.12v1A1.12,1.12,0,0,1,214.62,38.51Z"/><path class="cls-1" d="M224.34,38.71a1.47,1.47,0,0,1-1.36-.62h0a3.65,3.65,0,0,1-.83.36,7.21,7.21,0,0,1-.92.21c-.31.05-.62.08-.92.1l-.86,0-1,0a4.58,4.58,0,0,1-.79-.08,2,2,0,0,1-.6-.22,1,1,0,0,1-.39-.43,1.19,1.19,0,0,1-1.16.69h-.28a.78.78,0,0,1-.22,0c-.07,0-.11,0-.11-.07v-.84s0-.07.11-.08a.78.78,0,0,1,.22,0h.07a.91.91,0,0,0,.79-.3,2,2,0,0,0,.21-1.09l.83-.28a5.92,5.92,0,0,0,.07.88.93.93,0,0,0,.37.65,1.64,1.64,0,0,0,.75.19c.39-.48.77-.91,1.12-1.29a8.8,8.8,0,0,1,1.05-1,4.18,4.18,0,0,1,1-.63,2.7,2.7,0,0,1,1.1-.22,1.38,1.38,0,0,1,.56.12,1.72,1.72,0,0,1,.48.31,1.54,1.54,0,0,1,.33.47,1.38,1.38,0,0,1,.12.56,2.17,2.17,0,0,1-.13.8,2.67,2.67,0,0,1-.32.63,1.22,1.22,0,0,0,.73.2h.37v1Zm-2.2-3.09a1.55,1.55,0,0,0-.76.23,4.76,4.76,0,0,0-.77.55,9.59,9.59,0,0,0-.72.7l-.6.62h.79c.27,0,.54,0,.83,0a7.89,7.89,0,0,0,.85-.1,3.8,3.8,0,0,0,.76-.21,1.65,1.65,0,0,0,.53-.36.76.76,0,0,0,.21-.53.77.77,0,0,0-.1-.42.69.69,0,0,0-.26-.25,1.42,1.42,0,0,0-.36-.14A2.58,2.58,0,0,0,222.14,35.62Z"/><path class="cls-1" d="M224.81,38.71a.78.78,0,0,1-.22,0c-.07,0-.1,0-.1-.07v-.84s0-.07.1-.08a.78.78,0,0,1,.22,0h1.31v1Z"/><path class="cls-1" d="M226.12,38.71a.83.83,0,0,1-.22,0c-.07,0-.1,0-.1-.07v-.84s0-.07.1-.08a.82.82,0,0,1,.22,0h1.31v1Z"/><path class="cls-1" d="M234.62,38.71a2,2,0,0,1-.79-.13,1.26,1.26,0,0,1-.49-.35,1.62,1.62,0,0,1-.3-.53c-.07-.2-.13-.42-.19-.65l-1.08.57c-.36.19-.73.37-1.1.53a8.31,8.31,0,0,1-1.15.41,4.58,4.58,0,0,1-1.17.15h-.92a.76.76,0,0,1-.21,0c-.08,0-.11,0-.11-.07v-.84s0-.07.11-.08a.75.75,0,0,1,.21,0h.91a5.37,5.37,0,0,0,1.17-.13,6.27,6.27,0,0,0,1-.32,10,10,0,0,0,.94-.42l.95-.46q-1-.42-1.65-.66a3.29,3.29,0,0,0-.84-.24.79.79,0,0,0-.42.12,2.16,2.16,0,0,0-.43.43l-.65-.33c.47-.88.94-1.32,1.4-1.32a2.55,2.55,0,0,1,.92.21l1.1.47a10.69,10.69,0,0,0,1.2.47,3.54,3.54,0,0,0,1.22.22,2.37,2.37,0,0,0,.65-.09l-.22,1a3.05,3.05,0,0,0-1.33.23,1,1,0,0,0,.52.68,3,3,0,0,0,1,.14h.71v1Z"/><path class="cls-1" d="M238.76,38.71a2.24,2.24,0,0,1-1.09-.21,1.21,1.21,0,0,1-.53-.64,1.55,1.55,0,0,1-.67.65,1.79,1.79,0,0,1-.84.2h0a.78.78,0,0,1-.22,0c-.07,0-.11,0-.11-.07v-.84s0-.07.11-.08a.78.78,0,0,1,.22,0,1.67,1.67,0,0,0,.89-.24.84.84,0,0,0,.39-.79v-.45l.73-.27a4.46,4.46,0,0,0,.06.79,1.47,1.47,0,0,0,.2.55.92.92,0,0,0,.41.31,2.1,2.1,0,0,0,.67.1v1ZM237.21,35l-.93-.65.71-.86.91.65Z"/><path class="cls-1" d="M238.61,37.77s0-.07.1-.08a.86.86,0,0,1,.22,0h.22a1.54,1.54,0,0,0,.3,0l.22-.06a1,1,0,0,0,.43-.34,2.91,2.91,0,0,0,.34-.54c.09-.21.19-.42.27-.63a3.6,3.6,0,0,1,.29-.59,1.63,1.63,0,0,1,.37-.44.76.76,0,0,1,.5-.17,1,1,0,0,1,.65.26,2.09,2.09,0,0,1,.46.63,3.24,3.24,0,0,1,.28.79,3.53,3.53,0,0,1,.09.73,2.2,2.2,0,0,1-.06.5,1.5,1.5,0,0,1-.17.46.92.92,0,0,1-.3.35.74.74,0,0,1-.44.13,1.47,1.47,0,0,1-.44-.08,2.86,2.86,0,0,1-.47-.22,4.83,4.83,0,0,1-.45-.26,4.4,4.4,0,0,1-.35-.27,1.64,1.64,0,0,1-.57.62,1.73,1.73,0,0,1-.93.21h-.24l-.22,0c-.07,0-.1,0-.1-.07Zm2.45-.72c.19.13.39.25.59.36a1,1,0,0,0,.5.17.25.25,0,0,0,.23-.15,1,1,0,0,0,.07-.36,1.73,1.73,0,0,0,0-.38,1.39,1.39,0,0,0-.12-.36,1.06,1.06,0,0,0-.2-.26.33.33,0,0,0-.24-.11c-.09,0-.21.07-.36.23A2.26,2.26,0,0,0,241.06,37.05Z"/><path class="cls-1" d="M185.68,52.71a1.75,1.75,0,0,1-.61-.71,2.77,2.77,0,0,1-.25-1,9.87,9.87,0,0,1,0-1.08V44.49l.89-.59,0,6.46a5.49,5.49,0,0,0,0,.58,1.38,1.38,0,0,0,.15.51.89.89,0,0,0,.36.36,1.31,1.31,0,0,0,.65.13V53A2,2,0,0,1,185.68,52.71Z"/><path class="cls-1" d="M186.5,52s0-.06.11-.07a.78.78,0,0,1,.22,0h1.66a2.18,2.18,0,0,1-.5-.51,1.1,1.1,0,0,1-.17-.63,1.31,1.31,0,0,1,.13-.57,2.4,2.4,0,0,1,.34-.55,3,3,0,0,1,1-.77l-.2-.15a.86.86,0,0,1-.18-.14l.42-1c.31.23.63.49,1,.77a11.13,11.13,0,0,1,.94.88,7.89,7.89,0,0,1,.79,1,3.45,3.45,0,0,1,.5,1,2.8,2.8,0,0,1,.14.89,1.73,1.73,0,0,1-.18.75.81.81,0,0,1-.51.41,1.29,1.29,0,0,1-.86-.09c-.23-.09-.49-.2-.76-.33l-.75-.36a2.76,2.76,0,0,1-.77.33A3.36,3.36,0,0,1,188,53h-1.2a.78.78,0,0,1-.22,0c-.07,0-.11,0-.11-.07Zm2.77-.79.16.09.21.11.12-.1.07-.05a.81.81,0,0,0,.24-.35,1.25,1.25,0,0,0,.07-.4,1.71,1.71,0,0,0,0-.31A1.45,1.45,0,0,0,190,50a.85.85,0,0,0-.2-.22.38.38,0,0,0-.25-.09.68.68,0,0,0-.32.09,1.05,1.05,0,0,0-.29.23,1.33,1.33,0,0,0-.23.3.64.64,0,0,0-.09.3.54.54,0,0,0,.2.4A2.66,2.66,0,0,0,189.27,51.25Zm1.59-1a2.58,2.58,0,0,1-.1.85,2.51,2.51,0,0,1-.33.7l.58.28.38.16c.26.08.42,0,.47-.14a1,1,0,0,0-.11-.65,4,4,0,0,0-.37-.59C191.22,50.69,191.05,50.49,190.86,50.28Z"/><path class="cls-1" d="M200.19,49.5a4.56,4.56,0,0,1,.64,1.34A4.32,4.32,0,0,1,201,52.2a3.75,3.75,0,0,1-.3,1.25,3.06,3.06,0,0,1-.73,1,3.46,3.46,0,0,1-1.12.71,4,4,0,0,1-1.47.26,3.13,3.13,0,0,1-1.79-.47,2.56,2.56,0,0,1-1-1.2,3.41,3.41,0,0,1-.19-1.61,4.35,4.35,0,0,1,.55-1.7l.7.31a4.16,4.16,0,0,0-.37,1.85,1.71,1.71,0,0,0,.37,1,2,2,0,0,0,.81.6,2.76,2.76,0,0,0,1,.18,2.8,2.8,0,0,0,1.07-.21,2.48,2.48,0,0,0,.89-.61,1.94,1.94,0,0,0,.49-1,2.87,2.87,0,0,0,0-1.27,4,4,0,0,0-.57-1.26Zm-2.68.22-.93-.65.7-.86.92.64Z"/><path class="cls-1" d="M203.6,52.71A1.75,1.75,0,0,1,203,52a2.77,2.77,0,0,1-.25-1,9.87,9.87,0,0,1-.05-1.08V44.49l.89-.59,0,6.46a5.49,5.49,0,0,0,0,.58,1.38,1.38,0,0,0,.15.51.89.89,0,0,0,.36.36,1.31,1.31,0,0,0,.65.13V53A2,2,0,0,1,203.6,52.71Z"/><path class="cls-1" d="M204.75,53a.78.78,0,0,1-.22,0c-.07,0-.11,0-.11-.07V52s0-.06.11-.07a.78.78,0,0,1,.22,0h1.31V53Z"/><path class="cls-1" d="M214.21,53a1.41,1.41,0,0,1-.81-.19,1.06,1.06,0,0,1-.4-.53,1.16,1.16,0,0,1-.54.57,1.88,1.88,0,0,1-1.56,0,1.43,1.43,0,0,1-.57-.55,1.26,1.26,0,0,1-.65.58,2.32,2.32,0,0,1-.81.15,1.68,1.68,0,0,1-.74-.17,1.2,1.2,0,0,1-.53-.56,1.39,1.39,0,0,1-1.34.72h-.2a.78.78,0,0,1-.22,0c-.07,0-.11,0-.11-.07V52s0-.06.11-.07a.78.78,0,0,1,.22,0h0q1.17,0,1.17-1.32l.7-.26a5.87,5.87,0,0,0,0,.62,1.47,1.47,0,0,0,.13.5.82.82,0,0,0,.27.34.89.89,0,0,0,.49.12,1.17,1.17,0,0,0,.81-.25,1.27,1.27,0,0,0,.28-1v-.11l.71-.27a5.87,5.87,0,0,0,.05.59,1.59,1.59,0,0,0,.14.51,1.06,1.06,0,0,0,.29.37.89.89,0,0,0,.52.14,1.1,1.1,0,0,0,.51-.11.81.81,0,0,0,.3-.31,1.36,1.36,0,0,0,.15-.43,2.63,2.63,0,0,0,0-.49l.65-.26c0,.24,0,.45,0,.65a1.47,1.47,0,0,0,.14.5.69.69,0,0,0,.31.32,1.11,1.11,0,0,0,.57.11h.2V53Z"/><path class="cls-1" d="M214.27,52s0-.06.11-.07a.78.78,0,0,1,.22,0h.28a2,2,0,0,0,.88-.16.54.54,0,0,0,.33-.51,1.06,1.06,0,0,0-.2-.57c-.14-.21-.27-.39-.39-.55l.72-.77a3.19,3.19,0,0,1,.52.83,2.75,2.75,0,0,1,.2,1c0,1.21-.71,1.81-2.12,1.81h-.22a.78.78,0,0,1-.22,0c-.07,0-.11,0-.11-.07Zm1.67-3.43L215,48l.71-.86.92.64Z"/><path class="cls-1" d="M219.45,52.79l-.72.2c0-.51,0-1.11,0-1.8s0-1.42,0-2.19,0-1.56,0-2.35,0-1.56-.06-2.28l.92-.37Z"/><path class="cls-1" d="M230.12,53a1,1,0,0,1,.31.75,1.36,1.36,0,0,1-.26.8,2.48,2.48,0,0,1-.59.57,4.74,4.74,0,0,1-.86.5,5.41,5.41,0,0,1-1,.34,4.7,4.7,0,0,1-1.12.13,4.13,4.13,0,0,1-1.89-.4,2.64,2.64,0,0,1-1.12-1.1,3,3,0,0,1-.3-1.59,4.84,4.84,0,0,1,.58-1.91l.72.27a4.05,4.05,0,0,0-.41,1.39,2.14,2.14,0,0,0,.16,1.17,1.74,1.74,0,0,0,.79.8,3.09,3.09,0,0,0,1.47.3,5.37,5.37,0,0,0,2.36-.58,3.37,3.37,0,0,0,.32-.19,1.29,1.29,0,0,0,.24-.21.42.42,0,0,0,.1-.2c0-.06,0-.11-.1-.14l-1.8-.7c.06-.24.11-.42.15-.57a1.61,1.61,0,0,1,.1-.31.31.31,0,0,1,.14-.14.61.61,0,0,1,.22,0h2.14V53Z"/><path class="cls-1" d="M230.12,52s0-.06.1-.07a.78.78,0,0,1,.22,0h.92a5.17,5.17,0,0,0,1.18-.12,4.6,4.6,0,0,0,1-.31,7.44,7.44,0,0,0,.85-.42c.28-.15.58-.3.9-.44l-.86-.37-.62-.26a3.47,3.47,0,0,0-.43-.16.83.83,0,0,0-.27-.06,1.21,1.21,0,0,0-.49.12,1.43,1.43,0,0,0-.51.4l-.63-.28a2.65,2.65,0,0,1,.77-1,1.34,1.34,0,0,1,.77-.32,2.24,2.24,0,0,1,1,.26c.35.18.75.35,1.2.53a5.58,5.58,0,0,0,.56.23,2.38,2.38,0,0,0,.52.15,4.37,4.37,0,0,0,.56.09c.2,0,.45,0,.73,0l-.24,1-.52,0-.43,0a2.89,2.89,0,0,0-1.08.4l-1.07.63a8.78,8.78,0,0,1-1.23.59,4.39,4.39,0,0,1-1.58.26h-.92a.78.78,0,0,1-.22,0c-.07,0-.1,0-.1-.07Zm3.27-4.3-.93-.65.7-.86.92.65Z"/><path class="cls-1" d="M240.82,52.79a2.84,2.84,0,0,1-.35,1.3,4.83,4.83,0,0,1-.81,1.12,7.14,7.14,0,0,1-1.06.92,9.18,9.18,0,0,1-1.12.67l-.65-.74a9.71,9.71,0,0,0,1.1-.59,8.14,8.14,0,0,0,.95-.72,4.24,4.24,0,0,0,.72-.83A2.06,2.06,0,0,0,240,53a1.8,1.8,0,0,0-.19-.85,5,5,0,0,0-.43-.69l.71-.8c.12.17.23.33.32.48a2.91,2.91,0,0,0,.3.41,1.31,1.31,0,0,0,.34.29.79.79,0,0,0,.45.11V53A1.2,1.2,0,0,1,240.82,52.79Z"/><path class="cls-1" d="M241.13,52s0-.06.11-.07a.78.78,0,0,1,.22,0h.28a2,2,0,0,0,.88-.16.55.55,0,0,0,.34-.51,1,1,0,0,0-.21-.57c-.14-.21-.27-.39-.39-.55l.72-.77a3,3,0,0,1,.52.83,2.54,2.54,0,0,1,.2,1c0,1.21-.7,1.81-2.11,1.81h-.23a.78.78,0,0,1-.22,0c-.07,0-.11,0-.11-.07Zm1.26,3.77-.92-.65.69-.86.94.65Z"/><path class="cls-1" d="M185.68,67a1.75,1.75,0,0,1-.61-.71,2.77,2.77,0,0,1-.25-1,10,10,0,0,1,0-1.08V58.77l.89-.59,0,6.46a5.49,5.49,0,0,0,0,.58,1.38,1.38,0,0,0,.15.51.89.89,0,0,0,.36.36,1.31,1.31,0,0,0,.65.13v1A2.1,2.1,0,0,1,185.68,67Z"/><path class="cls-1" d="M186.5,66.32s0-.06.11-.08l.22,0h1.66a2.18,2.18,0,0,1-.5-.51,1.1,1.1,0,0,1-.17-.63,1.39,1.39,0,0,1,.13-.58,2.57,2.57,0,0,1,.34-.54,3,3,0,0,1,1-.77l-.2-.15a1.41,1.41,0,0,1-.18-.14l.42-1c.31.23.63.49,1,.76s.64.58.94.89a7.89,7.89,0,0,1,.79,1,3.45,3.45,0,0,1,.5,1,2.8,2.8,0,0,1,.14.89,1.73,1.73,0,0,1-.18.75.84.84,0,0,1-.51.41,1.36,1.36,0,0,1-.86-.09c-.23-.09-.49-.2-.76-.33l-.75-.36a2.76,2.76,0,0,1-.77.33,3.36,3.36,0,0,1-.82.11h-1.2a.78.78,0,0,1-.22,0c-.07,0-.11,0-.11-.07Zm2.77-.79.16.09.21.11.12-.1.07-.06a.78.78,0,0,0,.24-.34,1.25,1.25,0,0,0,.07-.4,1.71,1.71,0,0,0,0-.31,1.25,1.25,0,0,0-.11-.29.71.71,0,0,0-.2-.22.38.38,0,0,0-.25-.09.68.68,0,0,0-.32.09,1,1,0,0,0-.29.22,1.66,1.66,0,0,0-.23.31.64.64,0,0,0-.09.3.5.5,0,0,0,.2.39A2.21,2.21,0,0,0,189.27,65.53Zm1.59-1a2.58,2.58,0,0,1-.1.85,2.65,2.65,0,0,1-.33.7l.58.27.38.17c.26.08.42,0,.47-.14a1,1,0,0,0-.11-.65,3.55,3.55,0,0,0-.37-.59C191.22,65,191.05,64.76,190.86,64.56Z"/><path class="cls-1" d="M196,67.07a2.75,2.75,0,0,1-.32,1.27,5.51,5.51,0,0,1-.82,1.13,6.81,6.81,0,0,1-1.08.93,9.32,9.32,0,0,1-1.12.68l-.65-.74a9.54,9.54,0,0,0,1.12-.62,6.55,6.55,0,0,0,1-.77,3.57,3.57,0,0,0,.73-.89,1.87,1.87,0,0,0,.29-1,1.52,1.52,0,0,0-.22-.79c-.14-.25-.28-.49-.43-.71l.75-.74a4.89,4.89,0,0,1,.57,1.11A3.72,3.72,0,0,1,196,67.07Z"/><path class="cls-1" d="M198.62,67a1.75,1.75,0,0,1-.61-.71,2.77,2.77,0,0,1-.25-1,10,10,0,0,1,0-1.08V58.77l.88-.59v6.46a5.49,5.49,0,0,0,0,.58,1.38,1.38,0,0,0,.15.51.89.89,0,0,0,.36.36,1.31,1.31,0,0,0,.65.13v1A2.1,2.1,0,0,1,198.62,67Z"/><path class="cls-1" d="M199.44,66.32s0-.06.11-.08l.22,0h.56c1,0,1.54-.36,1.54-1.08a1.36,1.36,0,0,0-.26-.74,5.9,5.9,0,0,0-.61-.73c-.23-.24-.47-.45-.7-.66s-.43-.37-.56-.5c0-.61.11-1,.25-1.08A20.86,20.86,0,0,1,202.33,60c.91-.48,1.93-1,3-1.46l-.14,1.12a3.81,3.81,0,0,0-.53.22l-.82.39-1,.47-1,.5-.79.43-.51.31c1.36,1.13,2,2.15,2,3a2,2,0,0,1-.83,1.66,2.93,2.93,0,0,1-.85.42,3.72,3.72,0,0,1-1,.14h-.24a.78.78,0,0,1-.22,0c-.07,0-.11,0-.11-.07Z"/><path class="cls-1" d="M203.51,70.34c.36-.19.72-.39,1.08-.61a6.57,6.57,0,0,0,1-.73,4,4,0,0,0,.73-.87,2.49,2.49,0,0,0,.37-1,3,3,0,0,1-.46.19,2.08,2.08,0,0,1-.5.07,1.54,1.54,0,0,1-.94-.31,1.18,1.18,0,0,1-.39-1,2.66,2.66,0,0,1,.11-.7,2.81,2.81,0,0,1,.3-.71,2,2,0,0,1,.47-.53,1,1,0,0,1,.63-.22,1.12,1.12,0,0,1,.78.29,2.3,2.3,0,0,1,.51.71,3.37,3.37,0,0,1,.27.87,5.13,5.13,0,0,1,.08.79,3.89,3.89,0,0,1-.29,1.5,4.44,4.44,0,0,1-.74,1.24,5.73,5.73,0,0,1-1.08,1,9.71,9.71,0,0,1-1.25.79Zm2.29-4a1.7,1.7,0,0,0,.46-.06,1,1,0,0,0,.38-.2,2.48,2.48,0,0,0-.25-.74.6.6,0,0,0-.57-.33.58.58,0,0,0-.47.25.84.84,0,0,0-.21.57.41.41,0,0,0,.21.41A1.1,1.1,0,0,0,205.8,66.31Z"/><path class="cls-1" d="M219.93,67.27a1.3,1.3,0,0,1-1.45-1.06,3.58,3.58,0,0,1-1.94,1,16.2,16.2,0,0,1-3.55.34c-.41,0-.83,0-1.27,0a4.55,4.55,0,0,1-1.22-.25,2.16,2.16,0,0,1-.92-.63,1.65,1.65,0,0,1-.36-1.13,2.46,2.46,0,0,1,.11-.72,2.28,2.28,0,0,1,.33-.64l.66.19a2.06,2.06,0,0,0-.21.5,1.84,1.84,0,0,0-.06.47.84.84,0,0,0,.31.69,2.14,2.14,0,0,0,.76.36,5,5,0,0,0,1,.13l.94,0,1,0c.36,0,.74,0,1.12-.07s.75-.08,1.12-.14a6,6,0,0,0,1-.25,2.44,2.44,0,0,0,.74-.37.89.89,0,0,0,.36-.52l.07-.38.58-.2a2.74,2.74,0,0,0,.22,1.25.89.89,0,0,0,.89.43h0v1Zm-5.77,2.82-.92-.65.69-.86.93.65Z"/><path class="cls-1" d="M220.15,67.27a.76.76,0,0,1-.21,0c-.07,0-.11,0-.11-.07v-.85s0-.06.11-.08l.21,0h1.32v1Z"/><path class="cls-1" d="M221.47,67.27a.78.78,0,0,1-.22,0c-.07,0-.11,0-.11-.07v-.85s0-.06.11-.08l.22,0h1.31v1Z"/><path class="cls-1" d="M230.93,67.27a1.49,1.49,0,0,1-.81-.19,1.06,1.06,0,0,1-.4-.53,1.16,1.16,0,0,1-.54.57,1.88,1.88,0,0,1-1.56,0,1.37,1.37,0,0,1-.57-.55,1.26,1.26,0,0,1-.65.58,2.32,2.32,0,0,1-.81.15,1.56,1.56,0,0,1-.74-.18,1.09,1.09,0,0,1-.53-.55,1.39,1.39,0,0,1-1.34.72h-.2a.78.78,0,0,1-.22,0c-.07,0-.11,0-.11-.07v-.85s0-.06.11-.08l.22,0h0q1.17,0,1.17-1.32l.7-.26a4.12,4.12,0,0,0,0,.62,1.47,1.47,0,0,0,.13.5.82.82,0,0,0,.27.34.89.89,0,0,0,.49.12,1.17,1.17,0,0,0,.81-.25,1.27,1.27,0,0,0,.28-1V64.9l.71-.27a5.44,5.44,0,0,0,.05.58,1.59,1.59,0,0,0,.14.52,1.06,1.06,0,0,0,.29.37.89.89,0,0,0,.52.14,1,1,0,0,0,.51-.12.72.72,0,0,0,.3-.3,1.46,1.46,0,0,0,.15-.43,2.63,2.63,0,0,0,0-.49l.65-.26c0,.24,0,.45,0,.64a1.32,1.32,0,0,0,.14.51.74.74,0,0,0,.31.32,1.11,1.11,0,0,0,.57.11h.19v1Z"/><path class="cls-1" d="M231,66.32s0-.06.11-.08l.21,0h.57c1,0,1.54-.36,1.54-1.08a1.36,1.36,0,0,0-.26-.74,5.9,5.9,0,0,0-.61-.73c-.23-.24-.47-.45-.71-.66s-.42-.37-.55-.5c0-.61.11-1,.25-1.08A20.86,20.86,0,0,1,233.88,60c.91-.48,1.93-1,3-1.46l-.14,1.12a3.81,3.81,0,0,0-.53.22l-.82.39-1,.47-1,.5-.8.43-.5.31c1.36,1.13,2,2.15,2,3a2,2,0,0,1-.83,1.66,2.93,2.93,0,0,1-.85.42,3.73,3.73,0,0,1-1,.14h-.24a.76.76,0,0,1-.21,0c-.07,0-.11,0-.11-.07Z"/><path class="cls-1" d="M240.09,67a1.68,1.68,0,0,1-.61-.71,3,3,0,0,1-.26-1c0-.37-.05-.73-.05-1.08V58.77l.89-.59v6.46a5.49,5.49,0,0,0,0,.58,1.37,1.37,0,0,0,.14.51.89.89,0,0,0,.36.36,1.34,1.34,0,0,0,.65.13v1A2,2,0,0,1,240.09,67Z"/><path class="cls-1" d="M240,69.45l.61-.77.83.6.59-.7.84.61-.64.76-.8-.62-.58.72Zm.92-3.13s0-.06.1-.08l.22,0h.29a2,2,0,0,0,.88-.16.54.54,0,0,0,.33-.51,1.06,1.06,0,0,0-.21-.58c-.13-.2-.26-.38-.38-.54l.72-.78a3.42,3.42,0,0,1,.52.84,2.7,2.7,0,0,1,.2,1c0,1.2-.71,1.81-2.12,1.81h-.23l-.22,0c-.07,0-.1,0-.1-.07Z"/><path class="cls-1" d="M116.11,58.79a7,7,0,0,1-2.74-2.08,11.45,11.45,0,0,1-4,2.61,12.58,12.58,0,0,1-4.6.9,14.34,14.34,0,0,1-4.65-.74,10.89,10.89,0,0,1-3.43-1.81l3.4-5.32a3.75,3.75,0,0,0,1.71.69,13.93,13.93,0,0,0,3,.27,11,11,0,0,0,2-.19,9.3,9.3,0,0,0,1.89-.53,6,6,0,0,0,1.46-.82,2,2,0,0,0,.77-1.07q-.58-3-1.17-5.66c-.39-1.76-.78-3.66-1.17-5.72l5-3.51,2.71,13.94a3.41,3.41,0,0,0,1.17,2.1,4.1,4.1,0,0,0,2.61.71v6.92A10,10,0,0,1,116.11,58.79Z"/><path class="cls-1" d="M121.72,52.56c2.27,0,3.4-.4,3.4-1.22a1.56,1.56,0,0,0-.24-.58,10.46,10.46,0,0,0-.58-.93c-.23-.34-.47-.69-.72-1l-.59-.85,3.94-5.48q.38.48,1,1.38A18.88,18.88,0,0,1,129,45.92a18.54,18.54,0,0,1,1,2.55,9.5,9.5,0,0,1,.43,2.87,7.86,7.86,0,0,1-2.24,6.06c-1.48,1.39-3.65,2.08-6.48,2.08H120a3.26,3.26,0,0,1-.83-.11c-.26-.07-.4-.16-.4-.26V53c0-.14.14-.25.4-.32a3.26,3.26,0,0,1,.83-.11Zm4.14-12.23-2.1-1.46-2.1-1.46c.57-.71,1.09-1.37,1.57-2s1-1.28,1.62-2c.71.5,1.4,1,2.05,1.46l2,1.47Z"/><path class="cls-1" d="M140,59.32a16.93,16.93,0,0,1-1.83,4.76,20,20,0,0,1-3,3.91,26.64,26.64,0,0,1-3.8,3.19,45.76,45.76,0,0,1-4.26,2.6l-5.1-4.15c1-.49,2.17-1.14,3.64-1.94a28.6,28.6,0,0,0,4.23-2.79,18.58,18.58,0,0,0,3.48-3.56,7,7,0,0,0,1.46-4.26,2.83,2.83,0,0,0-.26-1.14,9.29,9.29,0,0,0-.64-1.2c-.25-.39-.51-.77-.77-1.14s-.49-.7-.67-1L137,48.1l.85,1.43a11.66,11.66,0,0,0,1,1.47,6.23,6.23,0,0,0,1.2,1.11,2.41,2.41,0,0,0,1.43.45v6.92A7,7,0,0,1,140,59.32Z"/><path class="cls-1" d="M167.5,70.91l-11.16,3.41-.75-2.55,11.17-3.41Z"/><path class="cls-1" d="M141.53,59.48a3.18,3.18,0,0,1-.82-.11c-.27-.07-.4-.16-.4-.26V53c0-.14.13-.25.4-.32a3.18,3.18,0,0,1,.82-.11h5.32v6.92Z"/><path class="cls-1" d="M146.85,59.48a3.26,3.26,0,0,1-.83-.11c-.26-.07-.39-.16-.39-.26V53c0-.14.13-.25.39-.32a3.26,3.26,0,0,1,.83-.11h5.32v6.92Z"/><path class="cls-1" d="M152.17,59.48a3.26,3.26,0,0,1-.83-.11c-.26-.07-.4-.16-.4-.26V53c0-.14.14-.25.4-.32a3.26,3.26,0,0,1,.83-.11h5.31v6.92Z"/><path class="cls-1" d="M161.7,68.24l-2.1-1.46-2.11-1.46c.57-.71,1.09-1.38,1.57-2s1-1.28,1.63-2c.7.49,1.39,1,2,1.46s1.34,1,2.05,1.46Zm-2.52-15.68c2.27,0,3.41-.4,3.41-1.22a1.56,1.56,0,0,0-.24-.58,10.71,10.71,0,0,0-.59-.93l-.71-1-.59-.85,3.94-5.48c.24.32.56.78.95,1.38a20.66,20.66,0,0,1,1.15,2.08,18.54,18.54,0,0,1,1,2.55,9.83,9.83,0,0,1,.43,2.87,7.86,7.86,0,0,1-2.24,6.06q-2.23,2.09-6.49,2.08h-1.7a3.18,3.18,0,0,1-.82-.11c-.27-.07-.4-.16-.4-.26V53c0-.14.13-.25.4-.32a3.18,3.18,0,0,1,.82-.11Z"/><path class="cls-1" d="M105.69,39l-8.46,2.57-.56-1.93,8.45-2.58Z"/><path class="cls-1" d="M118.25,24.27a12.38,12.38,0,0,1-1.53,4.65,11.2,11.2,0,0,1-2.8,3.2,11.4,11.4,0,0,1-3.6,1.85,13.22,13.22,0,0,1-3.95.61,10.81,10.81,0,0,1-3.6-.61,8.75,8.75,0,0,1-3.1-1.83,9.05,9.05,0,0,1-2.17-3.08,10.57,10.57,0,0,1-.83-4.34c0-.43,0-.92.08-1.45s.13-1.1.22-1.67.22-1.14.36-1.69a8.62,8.62,0,0,1,.55-1.51l3.7,2.17a9,9,0,0,0-.66,2.17,11.27,11.27,0,0,0-.22,2,4.16,4.16,0,0,0,1.75,3.5,5.48,5.48,0,0,0,1.81.84,7.84,7.84,0,0,0,2.11.28,10,10,0,0,0,2.42-.3,8.83,8.83,0,0,0,2.25-.9,6.8,6.8,0,0,0,1.83-1.55,6.34,6.34,0,0,0,1.19-2.28h-1.69a6.51,6.51,0,0,1-1.79-.26,4.88,4.88,0,0,1-1.71-.84,4.53,4.53,0,0,1-1.27-1.57,5.28,5.28,0,0,1-.5-2.44,9.28,9.28,0,0,1,.36-2.47,8.52,8.52,0,0,1,1.09-2.44,6.14,6.14,0,0,1,1.81-1.85,4.39,4.39,0,0,1,2.49-.73,3.62,3.62,0,0,1,2.22.69,5.85,5.85,0,0,1,1.55,1.75,10.29,10.29,0,0,1,1,2.35,24.83,24.83,0,0,1,.57,2.54h1.16v5.27ZM117.48,6.2c-.37.54-.75,1-1.13,1.51s-.75,1-1.12,1.51l-2.46-1.85L111,9.42l-1.57-1.09L107.9,7.25c.38-.51.77-1,1.17-1.51l1.17-1.47,2.57,2L114.34,4Zm-3.42,12.88a3.38,3.38,0,0,0-.44-1.89c-.3-.43-.59-.65-.89-.65a1.41,1.41,0,0,0-1.07.41,2.47,2.47,0,0,0-.54.88,1.21,1.21,0,0,0,0,1,.74.74,0,0,0,.65.28Z"/><path class="cls-1" d="M125,24a5.19,5.19,0,0,1-2-1.11,4.15,4.15,0,0,1-1.31.85,7.59,7.59,0,0,1-1.39.42,6.58,6.58,0,0,1-1.26.16c-.39,0-.71,0-1,0a2.15,2.15,0,0,1-.62-.08c-.2-.05-.31-.12-.31-.2V19.4c0-.1.11-.19.31-.24a2.57,2.57,0,0,1,.62-.08l.73,0a3.78,3.78,0,0,0,.94-.16,2.4,2.4,0,0,0,.81-.42,1.06,1.06,0,0,0,.34-.85V9.72q0-4.08-.08-8.19l4-1.53c0,1.32,0,2.69.06,4.13s0,2.88,0,4.34v8.4a2,2,0,0,0,.71,1.71,3,3,0,0,0,1.79.5v5.23A8.36,8.36,0,0,1,125,24Z"/><path class="cls-1" d="M150.23,19.08a12.65,12.65,0,0,0,2.33-.22,23.6,23.6,0,0,0,2.42-.58c.8-.25,1.59-.53,2.35-.85a14.94,14.94,0,0,0,2.08-1.05l-1.31-.58c-.47-.2-.91-.38-1.33-.54s-.8-.3-1.15-.41a3.25,3.25,0,0,0-.8-.16,2.39,2.39,0,0,0-1.33.47,5.57,5.57,0,0,0-1.17,1l-3.22-2q.36-.53,1-1.29a11.7,11.7,0,0,1,1.39-1.43,9.55,9.55,0,0,1,1.63-1.14,3.38,3.38,0,0,1,1.71-.49,6.08,6.08,0,0,1,2.31.47c.77.3,1.58.66,2.44,1.06l1.12.57a10.66,10.66,0,0,0,1.68.62,16.73,16.73,0,0,0,2.57.5,25.76,25.76,0,0,0,3.85.16l-1.53,5.48a20,20,0,0,0-2.38.34,13.39,13.39,0,0,0-1.89.54,13.12,13.12,0,0,0-1.55.71c-.47.25-.93.52-1.39.78l-2.11,1.15a19.5,19.5,0,0,1-2.26,1.05,15.88,15.88,0,0,1-2.53.74,14.12,14.12,0,0,1-2.92.28H125.4a2.11,2.11,0,0,1-.62-.08c-.21-.05-.31-.12-.31-.2V19.4c0-.1.1-.19.31-.24a2.51,2.51,0,0,1,.62-.08ZM157.6,7.29,156,6.18q-.8-.54-1.59-1.11l1.18-1.51c.37-.47.77-1,1.23-1.51l1.55,1.11,1.55,1.11Z"/><path class="cls-1" d="M6.23,31.11a2.18,2.18,0,0,1-1.06-.28,2.05,2.05,0,0,1-.76-.76,2,2,0,0,1-2.09,1.21,2.25,2.25,0,0,1-1.84-.69L1,29.39a1.85,1.85,0,0,0,.66.3,3.5,3.5,0,0,0,.91.12,4.73,4.73,0,0,0,.54,0,1.92,1.92,0,0,0,.46-.13.85.85,0,0,0,.33-.21A.45.45,0,0,0,4,29.12.52.52,0,0,0,4,29c0-.05-.05-.16-.1-.34l-.28-.79c-.12-.36-.29-.85-.51-1.48l1-.94c.27.87.48,1.57.64,2.11a9.27,9.27,0,0,0,.45,1.25,1.43,1.43,0,0,0,.43.62,1.07,1.07,0,0,0,.6.16H6.5v1.51Z"/><path class="cls-1" d="M6.2,29.7s0-.06.09-.08l.21,0h.85c.45,0,.67-.11.67-.31a.35.35,0,0,0,0-.14,1.22,1.22,0,0,0-.1-.2,3.13,3.13,0,0,0-.22-.32l-.38-.49.85-1.2a2.51,2.51,0,0,1,.63.9A3.07,3.07,0,0,1,9,29a2.21,2.21,0,0,1-.17.93,2,2,0,0,1-.48.66,2.22,2.22,0,0,1-.73.39,3.13,3.13,0,0,1-.89.13H6.5a.76.76,0,0,1-.21,0q-.09,0-.09-.06Zm2.36-4.37-.78,1L6.7,25.64l.8-1.05Z"/><path class="cls-1" d="M12.37,31a.94.94,0,0,1-.25-.18,3.41,3.41,0,0,1-.44,1,5.14,5.14,0,0,1-.77.93,8.31,8.31,0,0,1-1,.83c-.37.26-.75.5-1.14.73l-1.1-.86,1-.54a11.86,11.86,0,0,0,1.12-.72,5.53,5.53,0,0,0,.9-.81,1.24,1.24,0,0,0,.37-.81.77.77,0,0,0-.07-.32A3.72,3.72,0,0,0,10.8,30l-.2-.31-.17-.24,1-1.08.27.44a3.07,3.07,0,0,0,.26.4,1.67,1.67,0,0,0,.31.29.78.78,0,0,0,.41.11v1.51A.68.68,0,0,1,12.37,31Z"/><path class="cls-1" d="M12.38,29.7s0-.06.1-.08l.2,0h.86c.44,0,.66-.11.66-.31a.35.35,0,0,0,0-.14.73.73,0,0,0-.1-.2,3.13,3.13,0,0,0-.22-.32l-.38-.49.85-1.2a2.28,2.28,0,0,1,.63.9A3.08,3.08,0,0,1,15.18,29a2.2,2.2,0,0,1-.18.93,2,2,0,0,1-.48.66,2.17,2.17,0,0,1-.72.39,3.26,3.26,0,0,1-.9.13h-.22a.64.64,0,0,1-.2,0c-.07,0-.1,0-.1-.06Zm.28,3.43.79-1.05,1.08.73-.8,1.06Z"/><path class="cls-1" d="M25.69,28.28a2.88,2.88,0,0,0-1.08-.15,1.79,1.79,0,0,0-.49.08,2.62,2.62,0,0,0-.48.22,1.49,1.49,0,0,0-.35.3.49.49,0,0,0-.15.33c0,.12.07.19.2.23a2,2,0,0,0,.49.08l.64.05a2.21,2.21,0,0,1,.64.13,1.1,1.1,0,0,1,.49.32.93.93,0,0,1,.2.63,2.38,2.38,0,0,1-.39,1.35,3.42,3.42,0,0,1-1,1,4.93,4.93,0,0,1-1.32.59,5.38,5.38,0,0,1-1.4.2,4.77,4.77,0,0,1-1.44-.2,2.93,2.93,0,0,1-1-.56,2.34,2.34,0,0,1-.61-.85,2.91,2.91,0,0,1-.2-1.07,4,4,0,0,1,.15-1.05,4.69,4.69,0,0,1,.46-1.1l1,.35a3.94,3.94,0,0,0-.3.72,2.09,2.09,0,0,0-.12.69,1.6,1.6,0,0,0,.13.62,1.19,1.19,0,0,0,.4.5,1.86,1.86,0,0,0,.69.34,3.35,3.35,0,0,0,1,.13,4.57,4.57,0,0,0,.9-.11,6.73,6.73,0,0,0,1-.27,3.38,3.38,0,0,0,.76-.39c.21-.14.31-.28.31-.42s0-.13-.15-.16a2.58,2.58,0,0,0-.42-.07l-.61,0a6.64,6.64,0,0,1-.73-.07,1,1,0,0,1-.66-.33A1,1,0,0,1,22,29.6a2.51,2.51,0,0,1,.26-1.11,3.27,3.27,0,0,1,.66-.93,3.32,3.32,0,0,1,.93-.63,2.5,2.5,0,0,1,1.06-.23,2.15,2.15,0,0,1,.56.07A1.86,1.86,0,0,1,26,27Z"/><path class="cls-1" d="M29.65,31.11a.67.67,0,0,1-.3-.08,1,1,0,0,1-.26-.18,4.18,4.18,0,0,1-.27.88,6.45,6.45,0,0,1-.5.92,6.71,6.71,0,0,1-.74.91,5.44,5.44,0,0,1-1,.83l-1.18-.83A6,6,0,0,0,26.3,33a6.59,6.59,0,0,0,.85-.72,5.13,5.13,0,0,0,.63-.82,1.63,1.63,0,0,0,.26-.82.79.79,0,0,0-.08-.32,2.21,2.21,0,0,0-.18-.34c-.07-.11-.14-.22-.21-.31l-.17-.24,1-1.08c.1.15.19.3.27.44a2.33,2.33,0,0,0,.27.4,1.41,1.41,0,0,0,.31.29.75.75,0,0,0,.4.11Zm-2.93-4.05.65-.89.85.56.48-.66,1,.66-.65.89-.86-.56-.46.66Zm.48-1.45.67-.85.91.61-.64.86Z"/><path class="cls-1" d="M29.35,29.7s0-.06.1-.08l.2,0h.86c.44,0,.66-.11.66-.31a.34.34,0,0,0,0-.14A.83.83,0,0,0,31,29a2.06,2.06,0,0,0-.22-.32c-.09-.13-.22-.29-.37-.49l.84-1.2a2.28,2.28,0,0,1,.63.9A3.08,3.08,0,0,1,32.15,29a2.2,2.2,0,0,1-.18.93,1.76,1.76,0,0,1-.48.66,2.08,2.08,0,0,1-.72.39,3.26,3.26,0,0,1-.9.13h-.22a.64.64,0,0,1-.2,0c-.07,0-.1,0-.1-.06Zm.09-4,.65-.89.85.56.48-.66,1,.66-.66.89-.86-.56-.44.66Z"/><path class="cls-1" d="M34.78,30.94l-1.33.35v-7.5l1.33-.52Z"/><path class="cls-1" d="M38.16,31a1,1,0,0,1-.26-.18,3.15,3.15,0,0,1-.43,1,5.59,5.59,0,0,1-.77.93,8.31,8.31,0,0,1-1,.83c-.37.26-.75.5-1.14.73l-1.11-.86c.28-.14.61-.32,1-.54a10.7,10.7,0,0,0,1.12-.72,5.62,5.62,0,0,0,.91-.81,1.24,1.24,0,0,0,.37-.81.79.79,0,0,0-.08-.32,2.21,2.21,0,0,0-.18-.34c-.07-.11-.14-.22-.21-.31l-.17-.24,1-1.08c.1.15.19.3.27.44a2.33,2.33,0,0,0,.27.4,1.41,1.41,0,0,0,.31.29.75.75,0,0,0,.4.11v1.51A.67.67,0,0,1,38.16,31Z"/><path class="cls-1" d="M41.3,31.11a1.17,1.17,0,0,1-1.2-.68,1.72,1.72,0,0,1-1.52.68h-.12a.69.69,0,0,1-.2,0c-.06,0-.1,0-.1-.06V29.7s0-.06.1-.08l.2,0h.07c.65,0,1-.22,1-.67v-.52l1.07-.33v.32q0,1.2.78,1.2h.08v1.51Zm-2.85-4.45.65-.89.85.56.48-.66,1,.66-.66.89-.86-.56-.44.66Z"/><path class="cls-1" d="M41.13,29.7s0-.06.1-.08l.2,0h.13a.9.9,0,0,0,.59-.2.69.69,0,0,0,.23-.56v-.37l.91-.32v.41a1.5,1.5,0,0,0,.17.76.56.56,0,0,0,.51.28c.61,0,.91-.28.91-.82v-.5L45.8,28v.65a1,1,0,0,0,.27.7.85.85,0,0,0,.66.29.54.54,0,0,0,.42-.14.57.57,0,0,0,.13-.37,1.2,1.2,0,0,0-.13-.51,1.44,1.44,0,0,0-.3-.4l.89-1a2.43,2.43,0,0,1,.45.82,2.92,2.92,0,0,1,.15.93,3,3,0,0,1-.1.78,2.39,2.39,0,0,1-.31.69,1.56,1.56,0,0,1-.5.49,1.29,1.29,0,0,1-.7.19,1.93,1.93,0,0,1-.88-.19,1.22,1.22,0,0,1-.57-.55,1.25,1.25,0,0,1-.49.53,1.52,1.52,0,0,1-.66.2,1.66,1.66,0,0,1-.75-.17,1.24,1.24,0,0,1-.53-.51,1.26,1.26,0,0,1-.62.52,2.11,2.11,0,0,1-.8.16.64.64,0,0,1-.2,0c-.07,0-.1,0-.1-.06Z"/><path class="cls-1" d="M51,30.94l-1.33.35v-7.5L51,23.27Z"/><path class="cls-1" d="M60.67,31.11a1,1,0,0,1,0,.45,2,2,0,0,1-.14.47,2.57,2.57,0,0,1-.87,1,3.84,3.84,0,0,1-1.28.59,4.4,4.4,0,0,1-1.45.15,3.73,3.73,0,0,1-1.36-.34,2.58,2.58,0,0,1-1-.85,2.36,2.36,0,0,1-.39-1.4,3.39,3.39,0,0,1,.17-1.11,5.2,5.2,0,0,1,.43-1l1,.36a7.63,7.63,0,0,0-.29.74,2.19,2.19,0,0,0-.15.77,1.47,1.47,0,0,0,.2.79,1.18,1.18,0,0,0,.52.47,2.07,2.07,0,0,0,.73.21,3.84,3.84,0,0,0,.83,0,4.31,4.31,0,0,0,.81-.17,4.25,4.25,0,0,0,.7-.28c.16-.09.25-.16.26-.22s0-.09-.1-.12l-1.42-.48a1.23,1.23,0,0,1,.08-.26l.13-.31a2.88,2.88,0,0,1,.13-.31.89.89,0,0,1,.13-.24.81.81,0,0,1,.3-.31.84.84,0,0,1,.44-.08h1.62v1.51Z"/><path class="cls-1" d="M60.44,29.7s0-.06.09-.08l.2,0h1.83a3.09,3.09,0,0,0,.56-.09c.21-.05.46-.13.76-.23l1.23-.47L64,28.49c-.27-.07-.47-.12-.6-.17a.62.62,0,0,0-.47.05,1.17,1.17,0,0,0-.37.3l-.9-.61a3.64,3.64,0,0,1,.79-1,1.11,1.11,0,0,1,.92-.23c.29.05.59.11.88.18l.91.25,1,.26c.33.08.69.15,1.07.21l.52,0,.5,0-.41,1.48-.54,0a3.14,3.14,0,0,0-.45,0,2.51,2.51,0,0,0-.42.13,3.09,3.09,0,0,0-.49.24l-1.1.65a6.38,6.38,0,0,1-.85.45A3.66,3.66,0,0,1,63,31a7.47,7.47,0,0,1-1.29.09h-1l-.2,0q-.09,0-.09-.06Z"/><path class="cls-1" d="M70.8,30.94l-1.33.35v-7.5l1.33-.52Z"/><path class="cls-1" d="M74.17,31a.94.94,0,0,1-.25-.18,3.18,3.18,0,0,1-.44,1,5.08,5.08,0,0,1-.76.93,8.43,8.43,0,0,1-1,.83c-.36.26-.74.5-1.13.73l-1.11-.86c.28-.14.61-.32,1-.54a11.86,11.86,0,0,0,1.12-.72,5.62,5.62,0,0,0,.91-.81,1.29,1.29,0,0,0,.37-.81.79.79,0,0,0-.08-.32,2.21,2.21,0,0,0-.18-.34c-.07-.11-.14-.22-.21-.31l-.17-.24,1-1.08c.1.15.19.3.27.44a3.07,3.07,0,0,0,.26.4,1.45,1.45,0,0,0,.32.29.72.72,0,0,0,.4.11v1.51A.71.71,0,0,1,74.17,31Z"/><path class="cls-1" d="M74.18,29.7s0-.06.1-.08l.2,0h.46a3.07,3.07,0,0,1,.24-.29l.26-.28c0-.27,0-.54.06-.84s0-.57,0-.83c0-.53,0-1.08,0-1.65s-.09-1.21-.16-1.92l1.36-.52v4.48a5.71,5.71,0,0,1,1-.72,1.93,1.93,0,0,1,1-.3,1.56,1.56,0,0,1,1.14.44,1.44,1.44,0,0,1,.44,1.09,2.25,2.25,0,0,1-.37,1.32,3.38,3.38,0,0,1-.93.88,3.92,3.92,0,0,1-1.21.5,5.32,5.32,0,0,1-1.2.15h-2a.64.64,0,0,1-.2,0c-.07,0-.1,0-.1-.06Zm4.11-1.55a1.68,1.68,0,0,0-1,.41,12.28,12.28,0,0,0-1.14,1h.71l.56-.05a4.69,4.69,0,0,0,.62-.1,4.59,4.59,0,0,0,.59-.16A1.48,1.48,0,0,0,79,29a.44.44,0,0,0,.17-.36.33.33,0,0,0-.1-.25.6.6,0,0,0-.24-.16,1.38,1.38,0,0,0-.29-.08Z"/><path class="cls-1" d="M40.91,39.24H40V37.67H38.42v-1H40V35.15h1v1.54h1.52v1H40.91Z"/><path class="cls-1" d="M5.75,47.77a2.18,2.18,0,0,1-1.06-.28,2,2,0,0,1-.76-.77,2,2,0,0,1-2.09,1.21A2.22,2.22,0,0,1,0,47.24l.47-1.19a1.85,1.85,0,0,0,.66.3,4,4,0,0,0,.91.11,3.19,3.19,0,0,0,.54,0A1.64,1.64,0,0,0,3,46.3a1.11,1.11,0,0,0,.32-.21.42.42,0,0,0,.13-.32.89.89,0,0,0,0-.11l-.11-.33c0-.17-.14-.44-.27-.79s-.3-.85-.51-1.49l1-.93c.27.86.48,1.57.64,2.1a9.49,9.49,0,0,0,.45,1.26,1.39,1.39,0,0,0,.43.61,1,1,0,0,0,.6.17H6v1.51Z"/><path class="cls-1" d="M5.71,46.36s0-.06.1-.08a.68.68,0,0,1,.2,0h.86c.45,0,.67-.11.67-.32a.31.31,0,0,0,0-.13,1.78,1.78,0,0,0-.1-.21l-.22-.31-.38-.49.84-1.2a2.41,2.41,0,0,1,.64.9,3.07,3.07,0,0,1,.22,1.16,2.45,2.45,0,0,1-.17.93,1.87,1.87,0,0,1-.48.65,2.07,2.07,0,0,1-.73.4,3.13,3.13,0,0,1-.89.13H6a.69.69,0,0,1-.2,0c-.06,0-.1,0-.1-.07ZM8.08,42,7.3,43,6.22,42.3,7,41.24Z"/><path class="cls-1" d="M11.89,47.69a1.24,1.24,0,0,1-.25-.18,3.26,3.26,0,0,1-.44,1,4.88,4.88,0,0,1-.77.94,8.31,8.31,0,0,1-1,.83c-.37.26-.75.5-1.14.73l-1.1-.86,1-.54a12,12,0,0,0,1.12-.73,6.54,6.54,0,0,0,.9-.8,1.24,1.24,0,0,0,.37-.81A.72.72,0,0,0,10.5,47a2.68,2.68,0,0,0-.18-.33c-.07-.12-.14-.22-.21-.32l-.17-.23L11,45c.09.15.18.29.26.44a4.62,4.62,0,0,0,.27.4,1.67,1.67,0,0,0,.31.29.78.78,0,0,0,.41.11v1.51A.68.68,0,0,1,11.89,47.69Z"/><path class="cls-1" d="M11.9,46.36s0-.06.09-.08a.75.75,0,0,1,.21,0h.86c.44,0,.66-.11.66-.32a.31.31,0,0,0,0-.13.93.93,0,0,0-.1-.21l-.22-.31L13,44.8l.85-1.2a2.28,2.28,0,0,1,.63.9,3.08,3.08,0,0,1,.23,1.16,2.27,2.27,0,0,1-.18.93,1.87,1.87,0,0,1-.48.65,2.12,2.12,0,0,1-.72.4,3.26,3.26,0,0,1-.9.13H12.2l-.21,0c-.06,0-.09,0-.09-.07Zm.28,3.42.78-1,1.08.73-.79,1.06Z"/><path class="cls-1" d="M27.69,47.77A1.33,1.33,0,0,1,26.36,47a2.76,2.76,0,0,1-1.6.84,13.67,13.67,0,0,1-3.09.28,5.45,5.45,0,0,1-2.8-.57A1.76,1.76,0,0,1,18,46a2.62,2.62,0,0,1,.13-.8,7.66,7.66,0,0,1,.36-.9l1,.28a4.68,4.68,0,0,0-.18.48,1.36,1.36,0,0,0-.08.49.75.75,0,0,0,.27.62,1.72,1.72,0,0,0,.72.33,4.27,4.27,0,0,0,1,.13c.37,0,.75,0,1.13,0s.68,0,1.1,0a7.37,7.37,0,0,0,1.18-.12,3.21,3.21,0,0,0,1-.31.66.66,0,0,0,.38-.59v-.34L27,44.91a6.21,6.21,0,0,0,0,.69.86.86,0,0,0,.14.41.5.5,0,0,0,.29.19,1.7,1.7,0,0,0,.5.06h0v1.51ZM20.9,43.38l.66-.89.84.56.48-.66,1,.66-.67.89-.86-.56-.44.66Z"/><path class="cls-1" d="M29.78,49.41l-.65.88-.85-.56-.48.65-1-.65.69-.9.84.58.47-.67Zm-2.15-3s0-.06.1-.08a.68.68,0,0,1,.2,0h.86c.45,0,.67-.11.67-.32a.31.31,0,0,0,0-.13,1.78,1.78,0,0,0-.1-.21c-.06-.08-.13-.19-.23-.31s-.22-.29-.37-.49l.84-1.2a2.28,2.28,0,0,1,.63.9,2.89,2.89,0,0,1,.23,1.16,2.45,2.45,0,0,1-.17.93,1.87,1.87,0,0,1-.48.65,2.07,2.07,0,0,1-.73.4,3.15,3.15,0,0,1-.9.13h-.22a.69.69,0,0,1-.2,0c-.06,0-.1,0-.1-.07Z"/><path class="cls-1" d="M34.92,47.77a3.2,3.2,0,0,1-.48,1,6.08,6.08,0,0,1-.76.86,7.42,7.42,0,0,1-1,.78c-.35.24-.71.47-1.08.68l-1.1-.86c.24-.12.52-.28.84-.46s.64-.38,1-.59a7.67,7.67,0,0,0,.87-.67,2.53,2.53,0,0,0,.58-.7,5.53,5.53,0,0,1-.84-.06,1.79,1.79,0,0,1-.65-.23,1.09,1.09,0,0,1-.43-.47,1.75,1.75,0,0,1-.15-.78,2.35,2.35,0,0,1,.1-.66,2.54,2.54,0,0,1,.27-.68,1.79,1.79,0,0,1,.45-.53,1,1,0,0,1,.62-.21,1.26,1.26,0,0,1,.72.2,1.72,1.72,0,0,1,.53.51,2.35,2.35,0,0,1,.34.67,3.31,3.31,0,0,1,.16.73h.47v1.51Zm-1-1.51a2.43,2.43,0,0,0-.09-.3,1.11,1.11,0,0,0-.17-.3,1,1,0,0,0-.23-.22.39.39,0,0,0-.26-.1.47.47,0,0,0-.38.17.56.56,0,0,0-.14.38.34.34,0,0,0,.05.22.34.34,0,0,0,.19.1,2.77,2.77,0,0,0,.39,0Z"/><path class="cls-1" d="M35.09,46.36s0-.06.1-.08a.68.68,0,0,1,.2,0h1.12a1.23,1.23,0,0,1-.23-.67,1.6,1.6,0,0,1,.28-.88,2.66,2.66,0,0,1,.65-.72l-.28-.18.62-1.36,1,.72a12.88,12.88,0,0,1,1.14,1,6.68,6.68,0,0,1,1,1.14A2.13,2.13,0,0,1,41,46.45a3.24,3.24,0,0,1-.09.79,2.08,2.08,0,0,1-.25.6,1.14,1.14,0,0,1-.38.35.58.58,0,0,1-.45,0,6.46,6.46,0,0,1-.9-.31c-.34-.14-.67-.3-1-.47a3.1,3.1,0,0,1-.82.25,4.26,4.26,0,0,1-.72.08h-1a.69.69,0,0,1-.2,0c-.06,0-.1,0-.1-.07Zm2.41-.46a4.41,4.41,0,0,0,.38.24.92.92,0,0,0,.49-.37.86.86,0,0,0,.13-.45.46.46,0,0,0-.06-.23,1.56,1.56,0,0,0-.16-.2.66.66,0,0,0-.2-.14.41.41,0,0,0-.19-.06.4.4,0,0,0-.23.08.63.63,0,0,0-.22.18.91.91,0,0,0-.17.23.43.43,0,0,0-.07.22.8.8,0,0,0,0,.21A.53.53,0,0,0,37.5,45.9Zm1.9,0a1.83,1.83,0,0,1-.17.45,3.19,3.19,0,0,1-.26.38l.32.14.31.13a1.24,1.24,0,0,0,.28.09c.07,0,.13,0,.19-.15a.84.84,0,0,0-.1-.74,2.91,2.91,0,0,0-.54-.63A.93.93,0,0,1,39.4,45.92Z"/><path class="cls-1" d="M50.74,47.77a.86.86,0,0,1,0,.45,1.65,1.65,0,0,1-.13.47,2.57,2.57,0,0,1-.87,1,3.84,3.84,0,0,1-1.28.59,4.39,4.39,0,0,1-1.45.14,3.72,3.72,0,0,1-1.36-.33,2.58,2.58,0,0,1-1-.85,2.38,2.38,0,0,1-.39-1.4,3.68,3.68,0,0,1,.16-1.11,6.41,6.41,0,0,1,.43-1l1,.35q-.15.34-.3.75a2.36,2.36,0,0,0-.14.76,1.51,1.51,0,0,0,.2.8,1.24,1.24,0,0,0,.52.47,1.88,1.88,0,0,0,.73.2,3.29,3.29,0,0,0,.83,0,4.31,4.31,0,0,0,.81-.17,5.36,5.36,0,0,0,.7-.28c.16-.09.25-.16.26-.22s0-.1-.11-.12L48,47.77a1.23,1.23,0,0,1,.08-.26l.12-.31.13-.31a2.39,2.39,0,0,1,.13-.24,1.18,1.18,0,0,1,.3-.32,1.06,1.06,0,0,1,.45-.07H50.8v1.51Z"/><path class="cls-1" d="M50.8,47.77a.69.69,0,0,1-.2,0c-.06,0-.1,0-.1-.07V46.36s0-.06.1-.08a.68.68,0,0,1,.2,0h1.31v1.51Z"/><path class="cls-1" d="M52.11,47.77l-.21,0c-.06,0-.09,0-.09-.07V46.36s0-.06.09-.08a.75.75,0,0,1,.21,0h1.3v1.51Z"/><path class="cls-1" d="M53.41,47.77l-.21,0c-.06,0-.09,0-.09-.07V46.36s0-.06.09-.08a.75.75,0,0,1,.21,0h1.3v1.51Z"/><path class="cls-1" d="M54.71,47.77a.64.64,0,0,1-.2,0c-.07,0-.1,0-.1-.07V46.36s0-.06.1-.08a.65.65,0,0,1,.2,0H56v1.51Z"/><path class="cls-1" d="M56,47.77a.64.64,0,0,1-.2,0c-.07,0-.1,0-.1-.07V46.36s0-.06.1-.08a.65.65,0,0,1,.2,0h1.3v1.51Z"/><path class="cls-1" d="M57.31,47.77a.64.64,0,0,1-.2,0c-.07,0-.1,0-.1-.07V46.36s0-.06.1-.08a.65.65,0,0,1,.2,0h1.3v1.51Z"/><path class="cls-1" d="M58.61,47.77a.69.69,0,0,1-.2,0c-.06,0-.1,0-.1-.07V46.36s0-.06.1-.08a.68.68,0,0,1,.2,0h1.3v1.51Z"/><path class="cls-1" d="M59.91,47.77l-.2,0c-.06,0-.09,0-.09-.07V46.36s0-.06.09-.08a.71.71,0,0,1,.2,0h1.31v1.51Z"/><path class="cls-1" d="M60.92,46.36s0-.06.09-.08a.75.75,0,0,1,.21,0h1.14l.68,0a3,3,0,0,0,.56-.08,7,7,0,0,0,.76-.24c.3-.1.71-.26,1.23-.46l-1.15-.31L63.85,45a.64.64,0,0,0-.48.05,1.29,1.29,0,0,0-.37.3l-.9-.61a3.47,3.47,0,0,1,.8-1,1.09,1.09,0,0,1,.91-.23,6.87,6.87,0,0,1,.88.18l.91.25,1,.25a9.88,9.88,0,0,0,1.06.22l.52,0,.5,0-.4,1.49-.55,0a2,2,0,0,0-.44,0l-.43.12-.49.24-1.1.66a6.38,6.38,0,0,1-.85.45,4.12,4.12,0,0,1-.92.27,6.48,6.48,0,0,1-1.29.1h-1l-.21,0c-.06,0-.09,0-.09-.07Z"/><path class="cls-1" d="M71.28,47.6,70,48v-7.5l1.33-.52Z"/><path class="cls-1" d="M74.66,47.69a1.32,1.32,0,0,1-.26-.18,3.23,3.23,0,0,1-.43,1,5.28,5.28,0,0,1-.77.94,9.18,9.18,0,0,1-1,.83c-.37.26-.75.5-1.14.73L70,50.19c.28-.14.61-.32,1-.54a10.77,10.77,0,0,0,1.12-.73,6.11,6.11,0,0,0,.91-.8,1.29,1.29,0,0,0,.37-.81.88.88,0,0,0-.08-.33,2.68,2.68,0,0,0-.18-.33c-.07-.12-.14-.22-.21-.32l-.17-.23,1-1.08c.1.15.19.29.27.44a2.33,2.33,0,0,0,.27.4,1.41,1.41,0,0,0,.31.29.75.75,0,0,0,.4.11v1.51A.67.67,0,0,1,74.66,47.69Z"/><path class="cls-1" d="M74.66,46.36s0-.06.1-.08a.65.65,0,0,1,.2,0h.46l.24-.29c.08-.1.17-.19.26-.29,0-.26,0-.53.06-.83s0-.57,0-.83c0-.53,0-1.08,0-1.65s-.09-1.21-.16-1.92l1.36-.52v4.48a6.38,6.38,0,0,1,1-.73,2,2,0,0,1,1-.29,1.54,1.54,0,0,1,1.14.44,1.43,1.43,0,0,1,.44,1.08,2.27,2.27,0,0,1-.37,1.33,3.12,3.12,0,0,1-.93.88,3.92,3.92,0,0,1-1.21.5,5.3,5.3,0,0,1-1.19.15H75a.64.64,0,0,1-.2,0c-.07,0-.1,0-.1-.07Zm4.12-1.55a1.73,1.73,0,0,0-1,.4,14,14,0,0,0-1.14,1h.35l.36,0,.56,0c.2,0,.41-.06.62-.1a4.18,4.18,0,0,0,.59-.16,1.35,1.35,0,0,0,.43-.25.44.44,0,0,0,.17-.36.35.35,0,0,0-.09-.25.78.78,0,0,0-.24-.16,1.11,1.11,0,0,0-.3-.08Z"/></svg>