<svg id="Layer_1" data-name="Layer 1" xmlns="http://www.w3.org/2000/svg" viewBox="0 0 146.69 100.72"><defs><style>.cls-1{fill:#231f20;}</style></defs><path class="cls-1" d="M95.19,32.41a1.85,1.85,0,0,1,0,.23,1.64,1.64,0,0,1,0,.22,1.74,1.74,0,0,1-.28,1,2.63,2.63,0,0,1-.77.75,4.08,4.08,0,0,1-.66.37,7.71,7.71,0,0,1-.77.3,6.21,6.21,0,0,1-.85.21,4.91,4.91,0,0,1-2.43-.17,3,3,0,0,1-1.1-.68,2.89,2.89,0,0,1-.66-1,4.08,4.08,0,0,1-.21-1.33,4.52,4.52,0,0,1,.16-1.14A8.65,8.65,0,0,1,88.05,30l1.3.59c-.06.14-.11.28-.16.43s-.1.31-.14.46-.06.3-.09.43a2.6,2.6,0,0,0,0,.35,1.29,1.29,0,0,0,.52,1.05A2.52,2.52,0,0,0,91,33.7a4.64,4.64,0,0,0,1.35-.2,3.67,3.67,0,0,0,1-.48l.06,0-.4-.17-.45-.19-.43-.18-.33-.13.34-1.73h3v1.83Z"/><path class="cls-1" d="M95.25,32.41a.78.78,0,0,1-.22,0c-.07,0-.11,0-.11-.07V30.69s0-.06.11-.08a.78.78,0,0,1,.22,0h1.41v1.83Z"/><path class="cls-1" d="M96.66,32.41a.78.78,0,0,1-.22,0c-.07,0-.11,0-.11-.07V30.69s0-.06.11-.08a.78.78,0,0,1,.22,0h1.41v1.83Z"/><path class="cls-1" d="M98.07,30.58a8.5,8.5,0,0,0,1.16-.06,2.29,2.29,0,0,0,.62-.17.48.48,0,0,0,.26-.24.86.86,0,0,0,0-.27,1,1,0,0,0-.24-.57,6.41,6.41,0,0,0-.57-.64c-.22-.21-.45-.43-.69-.63a5.45,5.45,0,0,1-.59-.58l0-.76a1.66,1.66,0,0,1,.2-.64,2.23,2.23,0,0,1,.25-.31A5.16,5.16,0,0,1,99,25.4l.73-.45c.29-.17.6-.35.94-.53l1-.55,1-.52.91-.42V25c-.33.14-.67.29-1,.46l-1,.48c-.33.16-.64.32-.94.49s-.57.32-.81.46c.18.16.37.34.57.55a5.33,5.33,0,0,1,.56.68,3.58,3.58,0,0,1,.42.8,2.66,2.66,0,0,1,.17.94,5.5,5.5,0,0,1-.08.91,1.58,1.58,0,0,1-.42.82,2.49,2.49,0,0,1-1,.61,6.32,6.32,0,0,1-2,.23.78.78,0,0,1-.22,0c-.07,0-.1,0-.1-.07V30.69s0-.06.1-.08A.78.78,0,0,1,98.07,30.58Zm.58-6.66,1.73-.92,1.23-.64c.34-.17.62-.32.84-.42l.57-.28v.89l-.7.32-.88.46-1.18.63-1.61.86Z"/><path class="cls-1" d="M108,32.23a1.88,1.88,0,0,1-.73-.55,3.08,3.08,0,0,1-1.07.69,3.31,3.31,0,0,1-1.22.24,3.78,3.78,0,0,1-1.23-.2,2.77,2.77,0,0,1-.91-.48l.9-1.41a1.06,1.06,0,0,0,.45.19,4.37,4.37,0,0,0,.79.07,3.51,3.51,0,0,0,.55-.05,3.29,3.29,0,0,0,.5-.14,2.36,2.36,0,0,0,.39-.22.61.61,0,0,0,.2-.29c-.1-.53-.21-1-.31-1.5s-.21-1-.31-1.51l1.31-.94.72,3.7a.91.91,0,0,0,.31.56,1.07,1.07,0,0,0,.69.19v1.83A2.64,2.64,0,0,1,108,32.23Z"/><path class="cls-1" d="M109.48,30.58c.61,0,.91-.11.91-.33a.35.35,0,0,0-.07-.15,2.36,2.36,0,0,0-.15-.25l-.19-.27-.16-.23,1.05-1.45c.06.08.15.2.25.36a4.68,4.68,0,0,1,.3.55,6,6,0,0,1,.27.68,2.79,2.79,0,0,1,.11.76,2.09,2.09,0,0,1-.59,1.61,2.45,2.45,0,0,1-1.73.55H109a.83.83,0,0,1-.22,0c-.07,0-.1,0-.1-.07V30.69s0-.06.1-.08a.83.83,0,0,1,.22,0Zm1.11-3.25L110,27l-.56-.39.42-.53c.12-.17.27-.34.43-.53l.54.39.54.39Z"/><path class="cls-1" d="M114.54,29.39l.26.45a4.58,4.58,0,0,1,.27.59,4.78,4.78,0,0,1,.22.67,3,3,0,0,1,.09.72,3.23,3.23,0,0,1-.28,1.35,4.72,4.72,0,0,1-.75,1.18,6.74,6.74,0,0,1-1.11,1,11.77,11.77,0,0,1-1.31.85l-1.36-1.1,1.07-.59a7.81,7.81,0,0,0,1.12-.75,4.34,4.34,0,0,0,.87-.9,1.76,1.76,0,0,0,.34-1,.72.72,0,0,0-.07-.3c-.05-.11-.1-.22-.16-.33s-.13-.21-.2-.32l-.19-.28Zm-.36-.89-.55-.38-.56-.39.41-.53.43-.53.55.39.54.39Z"/><path class="cls-1" d="M124.07,32.41a3.17,3.17,0,0,1-.86-.1,1.82,1.82,0,0,1-.63-.29,1.67,1.67,0,0,1-.45-.5,2.58,2.58,0,0,1-.31-.67,4.1,4.1,0,0,1-.77.26,2.68,2.68,0,0,1-.7.1,1.25,1.25,0,0,1-1.09-.48,1.85,1.85,0,0,1-.35-1.15,1.79,1.79,0,0,1,.21-.86,3.17,3.17,0,0,1,.53-.73,4.3,4.3,0,0,1,.69-.59A6.16,6.16,0,0,1,121,27l-.08-.52,1.29-1,.75,4.18a1.35,1.35,0,0,0,.3.68,1,1,0,0,0,.77.22Zm-2.62-3.06s0-.08,0-.16,0-.17-.05-.27,0-.19,0-.27a.71.71,0,0,0,0-.16l-.26.16a1.83,1.83,0,0,0-.36.26,2.27,2.27,0,0,0-.31.31.43.43,0,0,0-.1.3c0,.09.07.13.18.13a1,1,0,0,0,.37,0l.39-.12A1.58,1.58,0,0,0,121.45,29.35Z"/><path class="cls-1" d="M124.62,35.31c-.18-.14-.37-.27-.55-.39l-.56-.39.42-.53c.12-.16.27-.34.43-.53l.54.39.54.39Zm-.09-4.73q.9,0,.9-.33a.35.35,0,0,0-.07-.15,2.36,2.36,0,0,0-.15-.25l-.19-.27-.16-.23,1-1.45c.06.08.15.2.25.36a4.69,4.69,0,0,1,.31.55c.09.21.18.44.26.68a2.79,2.79,0,0,1,.11.76,2.09,2.09,0,0,1-.59,1.61,2.44,2.44,0,0,1-1.72.55h-.46l-.22,0c-.07,0-.1,0-.1-.07V30.69s0-.06.1-.08l.22,0Z"/><path class="cls-1" d="M91.35,48.61l-3,.83-.12-.52,3-.89Z"/><path class="cls-1" d="M89.53,46.69a4.43,4.43,0,0,1-1.08-.13,2.61,2.61,0,0,1-.93-.41l.53-.9a1.66,1.66,0,0,0,.74.33,5.54,5.54,0,0,0,.81.07l.56,0a2.15,2.15,0,0,0,.57-.13,1.18,1.18,0,0,0,.44-.28.67.67,0,0,0,.18-.49,1.27,1.27,0,0,0-.21-.7,3.41,3.41,0,0,0-.53-.61,5.56,5.56,0,0,0-.67-.5l-.6-.38.42-1.07a9.82,9.82,0,0,1,.87.65,5.59,5.59,0,0,1,.76.78,4.07,4.07,0,0,1,.54.89,2.74,2.74,0,0,1,.2,1,1.46,1.46,0,0,1-.25.89,1.91,1.91,0,0,1-.62.58,2.76,2.76,0,0,1-.84.32A4.63,4.63,0,0,1,89.53,46.69Z"/><path class="cls-1" d="M95.45,46.49a2.94,2.94,0,0,1-.36,1.3,4.63,4.63,0,0,1-.81,1.12,6.6,6.6,0,0,1-1.06.92,9.18,9.18,0,0,1-1.12.67l-.65-.73a11.72,11.72,0,0,0,1.1-.6,7.07,7.07,0,0,0,1-.72,5,5,0,0,0,.72-.83,2.31,2.31,0,0,0,.36-.93,1.81,1.81,0,0,0-.2-.85,5,5,0,0,0-.43-.69l.71-.8a5.81,5.81,0,0,1,.32.49,3.47,3.47,0,0,0,.3.4,1.31,1.31,0,0,0,.34.29.79.79,0,0,0,.45.12v1A1.07,1.07,0,0,1,95.45,46.49Z"/><path class="cls-1" d="M95.76,45.75s0-.07.1-.08a.82.82,0,0,1,.22,0h1.3a4.56,4.56,0,0,0,.62,0,2.36,2.36,0,0,0,.61-.14,1.23,1.23,0,0,0,.46-.3.7.7,0,0,0,.19-.5v-.09a.2.2,0,0,0,0-.09,4.71,4.71,0,0,1-.59.22,2,2,0,0,1-.58.09,1,1,0,0,1-.71-.26,1.14,1.14,0,0,1-.29-.89,2.93,2.93,0,0,1,.11-.7,3.61,3.61,0,0,1,.32-.76,2.41,2.41,0,0,1,.47-.61.83.83,0,0,1,.58-.26.86.86,0,0,1,.66.34,2.92,2.92,0,0,1,.47.81,5.26,5.26,0,0,1,.27,1,4.79,4.79,0,0,1,.1.8,2.21,2.21,0,0,1-2.54,2.47H96.08a.83.83,0,0,1-.22,0c-.07,0-.1,0-.1-.07Zm2.73-5.48-.93-.65.71-.86.91.65Zm-.24,3.53a1.35,1.35,0,0,0,.43-.08,1.76,1.76,0,0,0,.39-.18c0-.12-.06-.25-.1-.39s-.1-.27-.15-.39a1.06,1.06,0,0,0-.2-.29.38.38,0,0,0-.25-.11.33.33,0,0,0-.22.09.87.87,0,0,0-.19.23,1.23,1.23,0,0,0-.14.31,1.05,1.05,0,0,0-.06.33.58.58,0,0,0,.11.34A.48.48,0,0,0,98.25,43.8Z"/><path class="cls-1" d="M108.68,46.69a2,2,0,0,1-1.4-.41,2.26,2.26,0,0,1-.6-1.25l0-.06a2.63,2.63,0,0,1-.77.37,2.89,2.89,0,0,1-.91.15,1.17,1.17,0,0,1-.71-.19,1,1,0,0,1-.36-.47,1.32,1.32,0,0,1,0-.63,2,2,0,0,1,.22-.64,4.68,4.68,0,0,1,2-1.67l-.15-.77.78-.6.68,3.48c0,.26.11.49.17.7a1.66,1.66,0,0,0,.22.52.87.87,0,0,0,.34.32,1.25,1.25,0,0,0,.55.11h.1v1Zm-2.45-3.92a2.94,2.94,0,0,0-.6.32,2.9,2.9,0,0,0-.56.47c-.28.28-.39.5-.32.67s.28.22.63.18a3.29,3.29,0,0,0,.65-.17,2.18,2.18,0,0,0,.45-.24Z"/><path class="cls-1" d="M109.17,49.51l-.91-.65L109,48l.93.65Zm-.74-3.76s0-.07.1-.08a.82.82,0,0,1,.22,0H109a2,2,0,0,0,.88-.17.52.52,0,0,0,.34-.51,1,1,0,0,0-.21-.57,6.55,6.55,0,0,0-.39-.55l.72-.77a3.24,3.24,0,0,1,.53.83,2.75,2.75,0,0,1,.19,1c0,1.21-.7,1.81-2.11,1.81h-.23a.83.83,0,0,1-.22,0c-.07,0-.1,0-.1-.07Z"/><path class="cls-1" d="M117.51,46.49a2.93,2.93,0,0,1-.35,1.3,5.24,5.24,0,0,1-.81,1.12,6.67,6.67,0,0,1-1.07.92,8.4,8.4,0,0,1-1.11.67l-.65-.73a10.43,10.43,0,0,0,1.09-.6,6,6,0,0,0,1-.72,4.24,4.24,0,0,0,.72-.83,2.06,2.06,0,0,0,.36-.93,1.8,1.8,0,0,0-.19-.85,6.12,6.12,0,0,0-.43-.69l.71-.8a5.81,5.81,0,0,1,.32.49,2.61,2.61,0,0,0,.3.4,1.17,1.17,0,0,0,.34.29.79.79,0,0,0,.45.12v1A1.12,1.12,0,0,1,117.51,46.49Z"/><path class="cls-1" d="M127.23,46.69a1.47,1.47,0,0,1-1.36-.62h0a3.65,3.65,0,0,1-.83.36,7.21,7.21,0,0,1-.92.21c-.31,0-.62.08-.92.1l-.86,0-1,0a4.58,4.58,0,0,1-.79-.08,2,2,0,0,1-.6-.22,1,1,0,0,1-.39-.43,1.19,1.19,0,0,1-1.16.69h-.28a.78.78,0,0,1-.22,0c-.07,0-.11,0-.11-.07v-.84s0-.07.11-.08a.78.78,0,0,1,.22,0h.07a.91.91,0,0,0,.79-.3,2,2,0,0,0,.21-1.09l.83-.28a5.92,5.92,0,0,0,.07.88.93.93,0,0,0,.37.65,1.64,1.64,0,0,0,.75.19c.39-.48.77-.91,1.12-1.29a8.8,8.8,0,0,1,1-1,4.31,4.31,0,0,1,1-.63,2.78,2.78,0,0,1,1.11-.22,1.38,1.38,0,0,1,.56.12,1.72,1.72,0,0,1,.48.31,1.54,1.54,0,0,1,.33.47,1.38,1.38,0,0,1,.12.56,2.17,2.17,0,0,1-.13.8,2.67,2.67,0,0,1-.32.63,1.22,1.22,0,0,0,.73.2h.37v1ZM125,43.6a1.55,1.55,0,0,0-.76.23,4.76,4.76,0,0,0-.77.55,8,8,0,0,0-.72.7l-.6.62H123c.27,0,.54,0,.83-.05a7.89,7.89,0,0,0,.85-.1,3.8,3.8,0,0,0,.76-.21,1.65,1.65,0,0,0,.53-.36.76.76,0,0,0,.21-.53.87.87,0,0,0-.1-.42.69.69,0,0,0-.26-.25,1.42,1.42,0,0,0-.36-.14A2.71,2.71,0,0,0,125,43.6Z"/><path class="cls-1" d="M127.7,46.69a.78.78,0,0,1-.22,0c-.07,0-.1,0-.1-.07v-.84s0-.07.1-.08a.78.78,0,0,1,.22,0H129v1Z"/><path class="cls-1" d="M129,46.69a.83.83,0,0,1-.22,0c-.07,0-.1,0-.1-.07v-.84s0-.07.1-.08a.82.82,0,0,1,.22,0h1.31v1Z"/><path class="cls-1" d="M137.51,46.69a2,2,0,0,1-.79-.13,1.26,1.26,0,0,1-.49-.35,1.62,1.62,0,0,1-.3-.53c-.07-.2-.13-.42-.19-.65q-.54.27-1.08.57c-.36.19-.73.37-1.1.53a8.31,8.31,0,0,1-1.15.41,4.58,4.58,0,0,1-1.17.15h-.92a.76.76,0,0,1-.21,0c-.08,0-.11,0-.11-.07v-.84s0-.07.11-.08a.75.75,0,0,1,.21,0h.91a5.37,5.37,0,0,0,1.17-.13,6.27,6.27,0,0,0,1-.32,10,10,0,0,0,.94-.42l1-.46c-.67-.28-1.23-.5-1.65-.66a3.29,3.29,0,0,0-.84-.24.79.79,0,0,0-.42.12A2.16,2.16,0,0,0,132,44l-.65-.33c.47-.88.94-1.32,1.4-1.32a2.55,2.55,0,0,1,.92.21l1.1.47a10.69,10.69,0,0,0,1.2.47,3.54,3.54,0,0,0,1.22.22,2.37,2.37,0,0,0,.65-.09l-.22,1a3.05,3.05,0,0,0-1.33.23,1,1,0,0,0,.52.68,3,3,0,0,0,1,.14h.71v1Z"/><path class="cls-1" d="M141.65,46.69a2.21,2.21,0,0,1-1.09-.21,1.21,1.21,0,0,1-.53-.64,1.55,1.55,0,0,1-.67.65,1.79,1.79,0,0,1-.84.2h-.05a.78.78,0,0,1-.22,0c-.07,0-.11,0-.11-.07v-.84s0-.07.11-.08a.78.78,0,0,1,.22,0,1.67,1.67,0,0,0,.89-.24.84.84,0,0,0,.39-.79v-.45l.73-.27a4.46,4.46,0,0,0,.06.79,1.47,1.47,0,0,0,.2.55.92.92,0,0,0,.41.31,2.1,2.1,0,0,0,.67.1v1ZM140.1,43l-.93-.65.71-.86.91.65Z"/><path class="cls-1" d="M141.5,45.75s0-.07.1-.08a.86.86,0,0,1,.22,0H142a1.06,1.06,0,0,0,.31,0l.22-.06a1,1,0,0,0,.43-.34,2.91,2.91,0,0,0,.34-.54c.09-.21.19-.42.27-.63a3.6,3.6,0,0,1,.29-.59,1.63,1.63,0,0,1,.37-.44.76.76,0,0,1,.5-.17,1,1,0,0,1,.65.26,2.09,2.09,0,0,1,.46.63,3.61,3.61,0,0,1,.28.8,3.36,3.36,0,0,1,.09.72,2.2,2.2,0,0,1-.06.5,1.5,1.5,0,0,1-.17.46.92.92,0,0,1-.3.35.74.74,0,0,1-.44.13,1.47,1.47,0,0,1-.44-.08,2.86,2.86,0,0,1-.47-.22,4.83,4.83,0,0,1-.45-.26,4.4,4.4,0,0,1-.35-.27,1.64,1.64,0,0,1-.57.62,1.73,1.73,0,0,1-.93.21h-.24l-.22,0c-.07,0-.1,0-.1-.07ZM144,45c.19.13.39.25.59.36a1,1,0,0,0,.5.17.25.25,0,0,0,.23-.15,1,1,0,0,0,.07-.36,1.81,1.81,0,0,0-.05-.38,1.39,1.39,0,0,0-.12-.36,1.37,1.37,0,0,0-.2-.26.33.33,0,0,0-.24-.11c-.09,0-.21.07-.36.23A2.26,2.26,0,0,0,144,45Z"/><path class="cls-1" d="M88.57,60.69A1.75,1.75,0,0,1,88,60a2.77,2.77,0,0,1-.25-1,9.87,9.87,0,0,1,0-1.08V52.47l.89-.59,0,6.46a5.49,5.49,0,0,0,0,.58,1.38,1.38,0,0,0,.15.51.89.89,0,0,0,.36.36,1.31,1.31,0,0,0,.65.13v1A2,2,0,0,1,88.57,60.69Z"/><path class="cls-1" d="M89.39,60s0-.06.11-.07a.78.78,0,0,1,.22,0h1.66a2.18,2.18,0,0,1-.5-.51,1.11,1.11,0,0,1-.18-.63,1.33,1.33,0,0,1,.14-.57,2.4,2.4,0,0,1,.34-.55,3,3,0,0,1,1-.77l-.2-.15a.86.86,0,0,1-.18-.14l.42-1c.31.23.63.49,1,.77a11.13,11.13,0,0,1,.94.88,7.89,7.89,0,0,1,.79,1,3.45,3.45,0,0,1,.5,1,2.8,2.8,0,0,1,.14.89,1.73,1.73,0,0,1-.18.75.81.81,0,0,1-.51.41,1.29,1.29,0,0,1-.86-.09c-.23-.09-.49-.2-.76-.33l-.75-.36a2.7,2.7,0,0,1-.78.33,3.22,3.22,0,0,1-.81.11h-1.2a.78.78,0,0,1-.22,0c-.07,0-.11,0-.11-.07Zm2.77-.79.16.09.21.11.12-.1.07,0a.81.81,0,0,0,.24-.35,1.25,1.25,0,0,0,.07-.4,1.71,1.71,0,0,0,0-.31,1,1,0,0,0-.12-.29.67.67,0,0,0-.19-.22.38.38,0,0,0-.25-.09.68.68,0,0,0-.32.09,1.05,1.05,0,0,0-.29.23,1.33,1.33,0,0,0-.23.3.64.64,0,0,0-.09.3.54.54,0,0,0,.2.4A2.66,2.66,0,0,0,92.16,59.23Zm1.59-1a2.58,2.58,0,0,1-.1.85,2.51,2.51,0,0,1-.33.7l.58.28.37.16c.27.08.43,0,.48-.14a1,1,0,0,0-.11-.65,4,4,0,0,0-.37-.59C94.11,58.67,93.94,58.47,93.75,58.26Z"/><path class="cls-1" d="M103.08,57.48a4.56,4.56,0,0,1,.64,1.34,4.32,4.32,0,0,1,.16,1.36,3.75,3.75,0,0,1-.3,1.25,3.06,3.06,0,0,1-.73,1,3.46,3.46,0,0,1-1.12.71,4,4,0,0,1-1.47.26A3.13,3.13,0,0,1,98.47,63a2.56,2.56,0,0,1-1-1.2,3.41,3.41,0,0,1-.19-1.61,4.35,4.35,0,0,1,.55-1.7l.7.31a4.16,4.16,0,0,0-.37,1.85,1.71,1.71,0,0,0,.37,1,2,2,0,0,0,.81.6,2.76,2.76,0,0,0,1.05.18,2.8,2.8,0,0,0,1.07-.21,2.48,2.48,0,0,0,.89-.61,1.94,1.94,0,0,0,.49-1,2.87,2.87,0,0,0,0-1.27,4,4,0,0,0-.57-1.26Zm-2.68.22-.93-.65.7-.86.92.64Z"/><path class="cls-1" d="M106.49,60.69a1.75,1.75,0,0,1-.61-.71,2.77,2.77,0,0,1-.25-1,9.87,9.87,0,0,1,0-1.08V52.47l.89-.59,0,6.46a5.49,5.49,0,0,0,0,.58,1.38,1.38,0,0,0,.15.51.89.89,0,0,0,.36.36,1.31,1.31,0,0,0,.65.13v1A2,2,0,0,1,106.49,60.69Z"/><path class="cls-1" d="M107.64,61a.78.78,0,0,1-.22,0c-.07,0-.11,0-.11-.07V60s0-.06.11-.07a.78.78,0,0,1,.22,0H109v1Z"/><path class="cls-1" d="M117.1,61a1.41,1.41,0,0,1-.81-.19,1,1,0,0,1-.4-.53,1.16,1.16,0,0,1-.54.57,1.76,1.76,0,0,1-.76.16,1.71,1.71,0,0,1-.8-.18,1.37,1.37,0,0,1-.57-.55,1.26,1.26,0,0,1-.65.58,2.32,2.32,0,0,1-.81.15,1.68,1.68,0,0,1-.74-.17,1.16,1.16,0,0,1-.53-.56,1.39,1.39,0,0,1-1.34.72H109a.78.78,0,0,1-.22,0c-.07,0-.11,0-.11-.07V60s0-.06.11-.07a.78.78,0,0,1,.22,0h0q1.17,0,1.17-1.32l.7-.26a4,4,0,0,0,0,.62,1.47,1.47,0,0,0,.13.5.82.82,0,0,0,.27.34.89.89,0,0,0,.49.12,1.17,1.17,0,0,0,.81-.25,1.27,1.27,0,0,0,.28-1V58.6l.71-.27a5.87,5.87,0,0,0,0,.59,1.59,1.59,0,0,0,.14.51,1.06,1.06,0,0,0,.29.37.89.89,0,0,0,.52.14,1.1,1.1,0,0,0,.51-.11.81.81,0,0,0,.3-.31,1.36,1.36,0,0,0,.15-.43,2.63,2.63,0,0,0,0-.49l.65-.26c0,.24,0,.45,0,.65a1.27,1.27,0,0,0,.14.5.69.69,0,0,0,.31.32,1.11,1.11,0,0,0,.57.11h.19v1Z"/><path class="cls-1" d="M117.16,60s0-.06.11-.07a.76.76,0,0,1,.21,0h.29a2,2,0,0,0,.88-.16.54.54,0,0,0,.33-.51,1.06,1.06,0,0,0-.2-.57c-.14-.21-.27-.39-.39-.55l.72-.77a3.19,3.19,0,0,1,.52.83,2.75,2.75,0,0,1,.2,1c0,1.21-.71,1.81-2.12,1.81h-.23a.76.76,0,0,1-.21,0c-.07,0-.11,0-.11-.07Zm1.67-3.43-.94-.64.71-.86.92.64Z"/><path class="cls-1" d="M122.34,60.77l-.72.2c0-.51,0-1.11-.05-1.8s0-1.42,0-2.19,0-1.56,0-2.35,0-1.56-.06-2.28l.92-.37Z"/><path class="cls-1" d="M133,61a1,1,0,0,1,.31.75,1.36,1.36,0,0,1-.26.8,2.48,2.48,0,0,1-.59.57,4.74,4.74,0,0,1-.86.5,5.41,5.41,0,0,1-1,.34,4.7,4.7,0,0,1-1.12.13,4.13,4.13,0,0,1-1.89-.4,2.64,2.64,0,0,1-1.12-1.1,3,3,0,0,1-.3-1.59,4.84,4.84,0,0,1,.58-1.91l.72.27a4.07,4.07,0,0,0-.41,1.38,2.16,2.16,0,0,0,.16,1.18,1.74,1.74,0,0,0,.79.8,3.09,3.09,0,0,0,1.47.3,5.37,5.37,0,0,0,2.36-.58,3.37,3.37,0,0,0,.32-.19,1.29,1.29,0,0,0,.24-.21.42.42,0,0,0,.1-.2c0-.06,0-.11-.1-.14l-1.8-.7c.06-.24.11-.42.15-.57a1.12,1.12,0,0,1,.1-.31A.27.27,0,0,1,131,60a.61.61,0,0,1,.22,0h2.14v1Z"/><path class="cls-1" d="M133,60s0-.06.1-.07a.78.78,0,0,1,.22,0h.92a5.17,5.17,0,0,0,1.18-.12,5.29,5.29,0,0,0,.95-.31,7.44,7.44,0,0,0,.85-.42c.28-.15.58-.3.9-.44l-.86-.37-.62-.26a3.47,3.47,0,0,0-.43-.16.83.83,0,0,0-.27-.06,1.21,1.21,0,0,0-.49.12,1.43,1.43,0,0,0-.51.4l-.63-.28a2.65,2.65,0,0,1,.77-1,1.34,1.34,0,0,1,.77-.32,2.24,2.24,0,0,1,1,.26c.35.18.75.35,1.2.53a5.58,5.58,0,0,0,.56.23,2.38,2.38,0,0,0,.52.15,4.37,4.37,0,0,0,.56.09c.2,0,.45,0,.73,0l-.24,1-.52,0-.43.05a2.89,2.89,0,0,0-1.08.4l-1.07.63a8.78,8.78,0,0,1-1.23.59,4.39,4.39,0,0,1-1.58.26h-.92a.78.78,0,0,1-.22,0c-.07,0-.1,0-.1-.07Zm3.27-4.3-.93-.65.7-.86.92.65Z"/><path class="cls-1" d="M143.71,60.77a2.84,2.84,0,0,1-.35,1.3,5.15,5.15,0,0,1-.81,1.12,6.74,6.74,0,0,1-1.07.92,8.4,8.4,0,0,1-1.11.67l-.65-.74a8.8,8.8,0,0,0,1.09-.59,7.5,7.5,0,0,0,1-.72,4.24,4.24,0,0,0,.72-.83,2.06,2.06,0,0,0,.36-.93,1.8,1.8,0,0,0-.19-.85,5,5,0,0,0-.43-.69l.71-.8c.12.17.23.33.32.48a2.91,2.91,0,0,0,.3.41,1.31,1.31,0,0,0,.34.29.79.79,0,0,0,.45.11v1A1.2,1.2,0,0,1,143.71,60.77Z"/><path class="cls-1" d="M144,60s0-.06.11-.07a.78.78,0,0,1,.22,0h.28a2,2,0,0,0,.88-.16.54.54,0,0,0,.33-.51,1,1,0,0,0-.2-.57c-.14-.21-.27-.39-.39-.55l.72-.77a3,3,0,0,1,.52.83,2.54,2.54,0,0,1,.2,1c0,1.21-.7,1.81-2.12,1.81h-.22a.78.78,0,0,1-.22,0c-.07,0-.11,0-.11-.07Zm1.26,3.77-.92-.65.69-.86.94.65Z"/><path class="cls-1" d="M88.57,75a1.75,1.75,0,0,1-.61-.71,2.77,2.77,0,0,1-.25-1,10.05,10.05,0,0,1,0-1.09V66.75l.89-.59,0,6.46a5.49,5.49,0,0,0,0,.58,1.38,1.38,0,0,0,.15.51.89.89,0,0,0,.36.36,1.31,1.31,0,0,0,.65.13v1A2,2,0,0,1,88.57,75Z"/><path class="cls-1" d="M89.39,74.3s0-.06.11-.08l.22,0h1.66a2.18,2.18,0,0,1-.5-.51,1.11,1.11,0,0,1-.18-.63,1.41,1.41,0,0,1,.14-.58,2.57,2.57,0,0,1,.34-.54,3,3,0,0,1,1-.77L92,71a1.41,1.41,0,0,1-.18-.14l.42-1c.31.23.63.49,1,.76s.64.58.94.89a7.89,7.89,0,0,1,.79,1,3.45,3.45,0,0,1,.5,1,2.8,2.8,0,0,1,.14.89,1.73,1.73,0,0,1-.18.75.84.84,0,0,1-.51.41A1.36,1.36,0,0,1,94,75.5c-.23-.09-.49-.2-.76-.33l-.75-.36a2.7,2.7,0,0,1-.78.33,3.22,3.22,0,0,1-.81.11h-1.2a.78.78,0,0,1-.22,0c-.07,0-.11,0-.11-.07Zm2.77-.79.16.09.21.11.12-.1.07-.06a.78.78,0,0,0,.24-.34,1.25,1.25,0,0,0,.07-.4,1.71,1.71,0,0,0,0-.31.93.93,0,0,0-.12-.29.59.59,0,0,0-.19-.22.38.38,0,0,0-.25-.09.68.68,0,0,0-.32.09,1,1,0,0,0-.29.22,1.66,1.66,0,0,0-.23.31.61.61,0,0,0-.09.3.5.5,0,0,0,.2.39A2.21,2.21,0,0,0,92.16,73.51Zm1.59-1a2.58,2.58,0,0,1-.1.85,2.65,2.65,0,0,1-.33.7l.58.27c.17.09.3.14.37.17.27.08.43,0,.48-.14a1,1,0,0,0-.11-.65,3.55,3.55,0,0,0-.37-.59C94.11,73,93.94,72.74,93.75,72.54Z"/><path class="cls-1" d="M98.9,75.05a2.75,2.75,0,0,1-.32,1.27,5.51,5.51,0,0,1-.82,1.13,6.81,6.81,0,0,1-1.08.93,9.32,9.32,0,0,1-1.12.68l-.65-.74A9.54,9.54,0,0,0,96,77.7a6.55,6.55,0,0,0,1-.77,3.57,3.57,0,0,0,.73-.89,1.87,1.87,0,0,0,.29-1,1.52,1.52,0,0,0-.22-.79c-.14-.25-.28-.49-.43-.71l.74-.74a4.57,4.57,0,0,1,.58,1.11A3.72,3.72,0,0,1,98.9,75.05Z"/><path class="cls-1" d="M101.51,75a1.75,1.75,0,0,1-.61-.71,2.77,2.77,0,0,1-.25-1,10.05,10.05,0,0,1-.05-1.09V66.75l.88-.59v6.46a5.49,5.49,0,0,0,0,.58,1.38,1.38,0,0,0,.15.51.89.89,0,0,0,.36.36,1.31,1.31,0,0,0,.65.13v1A2,2,0,0,1,101.51,75Z"/><path class="cls-1" d="M102.33,74.3s0-.06.11-.08l.22,0h.56c1,0,1.54-.36,1.54-1.08a1.36,1.36,0,0,0-.26-.74,5.9,5.9,0,0,0-.61-.73c-.23-.24-.47-.45-.71-.66s-.42-.37-.55-.5c0-.61.11-1,.25-1.08A20.86,20.86,0,0,1,105.22,68c.91-.48,1.93-1,3-1.46l-.14,1.12a3.81,3.81,0,0,0-.53.22l-.82.39-1,.47-1,.5-.79.43-.51.31c1.36,1.13,2,2.15,2,3a2,2,0,0,1-.83,1.66,2.93,2.93,0,0,1-.85.42,3.72,3.72,0,0,1-1,.14h-.24a.78.78,0,0,1-.22,0c-.07,0-.11,0-.11-.07Z"/><path class="cls-1" d="M106.39,78.32c.37-.19.73-.39,1.09-.61a6,6,0,0,0,1-.73,3.8,3.8,0,0,0,.74-.87,2.49,2.49,0,0,0,.37-1,3.45,3.45,0,0,1-.46.19,2.08,2.08,0,0,1-.5.07,1.54,1.54,0,0,1-.94-.31,1.18,1.18,0,0,1-.39-1,2.31,2.31,0,0,1,.11-.7,2.81,2.81,0,0,1,.3-.71,2,2,0,0,1,.47-.53,1,1,0,0,1,.63-.22,1.12,1.12,0,0,1,.78.29,2.3,2.3,0,0,1,.51.71,3.37,3.37,0,0,1,.27.87,5.13,5.13,0,0,1,.08.79,3.89,3.89,0,0,1-.29,1.5,4.44,4.44,0,0,1-.74,1.24,5.73,5.73,0,0,1-1.08,1,9.71,9.71,0,0,1-1.25.79Zm2.3-4a1.7,1.7,0,0,0,.46-.06,1,1,0,0,0,.38-.2,2.48,2.48,0,0,0-.25-.74.6.6,0,0,0-.57-.33.58.58,0,0,0-.47.25.84.84,0,0,0-.21.57.41.41,0,0,0,.21.41A1.1,1.1,0,0,0,108.69,74.29Z"/><path class="cls-1" d="M122.82,75.25a1.3,1.3,0,0,1-1.45-1.06,3.58,3.58,0,0,1-2,1,16.1,16.1,0,0,1-3.54.34c-.41,0-.83,0-1.27,0a4.55,4.55,0,0,1-1.22-.25,2.16,2.16,0,0,1-.92-.63,1.65,1.65,0,0,1-.36-1.13,2.46,2.46,0,0,1,.11-.72,2.28,2.28,0,0,1,.33-.64l.66.19a2.06,2.06,0,0,0-.21.5,1.84,1.84,0,0,0-.06.47.81.81,0,0,0,.31.69,2.14,2.14,0,0,0,.76.36,4.94,4.94,0,0,0,1,.13l.94,0,1,0c.36,0,.74,0,1.12-.07s.75-.08,1.12-.14a6,6,0,0,0,1-.25,2.44,2.44,0,0,0,.74-.37.89.89,0,0,0,.36-.52l.07-.38.58-.2a2.74,2.74,0,0,0,.22,1.25.89.89,0,0,0,.89.43h0v1Zm-5.77,2.82-.92-.65.69-.86.93.65Z"/><path class="cls-1" d="M123,75.25a.76.76,0,0,1-.21,0c-.08,0-.11,0-.11-.07V74.3s0-.06.11-.08l.21,0h1.32v1Z"/><path class="cls-1" d="M124.36,75.25a.78.78,0,0,1-.22,0c-.07,0-.11,0-.11-.07V74.3s0-.06.11-.08l.22,0h1.31v1Z"/><path class="cls-1" d="M133.82,75.25a1.49,1.49,0,0,1-.81-.19,1.06,1.06,0,0,1-.4-.53,1.16,1.16,0,0,1-.54.57,1.76,1.76,0,0,1-.76.16,1.71,1.71,0,0,1-.8-.18,1.37,1.37,0,0,1-.57-.55,1.26,1.26,0,0,1-.65.58,2.32,2.32,0,0,1-.81.15,1.56,1.56,0,0,1-.74-.18,1.09,1.09,0,0,1-.53-.55,1.39,1.39,0,0,1-1.34.72h-.2a.78.78,0,0,1-.22,0c-.07,0-.11,0-.11-.07V74.3s0-.06.11-.08l.22,0h0q1.17,0,1.17-1.32l.7-.26a4.12,4.12,0,0,0,0,.62,1.47,1.47,0,0,0,.13.5.82.82,0,0,0,.27.34.89.89,0,0,0,.49.12,1.17,1.17,0,0,0,.81-.25,1.27,1.27,0,0,0,.28-1v-.11l.71-.27a5.44,5.44,0,0,0,0,.58,1.59,1.59,0,0,0,.14.52,1.06,1.06,0,0,0,.29.37.89.89,0,0,0,.52.14,1,1,0,0,0,.51-.12.72.72,0,0,0,.3-.3,1.46,1.46,0,0,0,.15-.43,2.63,2.63,0,0,0,0-.49l.65-.26c0,.24,0,.45,0,.64a1.32,1.32,0,0,0,.14.51.74.74,0,0,0,.31.32,1.11,1.11,0,0,0,.57.11h.19v1Z"/><path class="cls-1" d="M133.88,74.3s0-.06.11-.08l.21,0h.57c1,0,1.54-.36,1.54-1.08a1.36,1.36,0,0,0-.26-.74,5.9,5.9,0,0,0-.61-.73c-.23-.24-.47-.45-.71-.66s-.42-.37-.55-.5c0-.61.11-1,.25-1.08A20.86,20.86,0,0,1,136.77,68c.91-.48,1.93-1,3-1.46l-.15,1.12a4.43,4.43,0,0,0-.52.22l-.82.39-1,.47-1,.5-.8.43-.5.31c1.36,1.13,2,2.15,2,3a2,2,0,0,1-.83,1.66,2.93,2.93,0,0,1-.85.42,3.73,3.73,0,0,1-1,.14h-.24a.76.76,0,0,1-.21,0c-.07,0-.11,0-.11-.07Z"/><path class="cls-1" d="M143,75a1.68,1.68,0,0,1-.61-.71,3,3,0,0,1-.26-1c0-.37-.05-.73-.05-1.09V66.75l.89-.59v6.46a5.49,5.49,0,0,0,0,.58,1.37,1.37,0,0,0,.14.51.89.89,0,0,0,.36.36,1.34,1.34,0,0,0,.65.13v1A2,2,0,0,1,143,75Z"/><path class="cls-1" d="M142.88,77.43l.61-.77.83.6.59-.7.84.61-.64.76-.8-.62-.58.72Zm.92-3.13s0-.06.1-.08l.22,0h.29a2,2,0,0,0,.88-.16.54.54,0,0,0,.33-.51,1.06,1.06,0,0,0-.21-.58c-.13-.2-.26-.38-.38-.54l.72-.78a3.42,3.42,0,0,1,.52.84,2.7,2.7,0,0,1,.2,1c0,1.2-.71,1.81-2.12,1.81h-.23l-.22,0c-.07,0-.1,0-.1-.07Z"/><path class="cls-1" d="M19.44,85.19a6.93,6.93,0,0,1-2.74-2.08,11.45,11.45,0,0,1-4,2.61,12.58,12.58,0,0,1-4.6.9,14.34,14.34,0,0,1-4.65-.74A10.89,10.89,0,0,1,0,84.07l3.4-5.32a3.75,3.75,0,0,0,1.71.69,13.93,13.93,0,0,0,3,.27,11,11,0,0,0,2.05-.19A9.3,9.3,0,0,0,12,79a6,6,0,0,0,1.46-.82,2,2,0,0,0,.77-1.07q-.59-3-1.17-5.66c-.39-1.76-.78-3.66-1.17-5.72l4.95-3.51,2.71,13.94a3.41,3.41,0,0,0,1.17,2.1,4.1,4.1,0,0,0,2.61.71v6.92A10,10,0,0,1,19.44,85.19Z"/><path class="cls-1" d="M25.05,79c2.26,0,3.4-.4,3.4-1.22a1.56,1.56,0,0,0-.24-.58,10.46,10.46,0,0,0-.58-.93c-.24-.34-.47-.69-.72-1s-.45-.64-.59-.85l3.94-5.48c.25.32.56.78,1,1.38a18.88,18.88,0,0,1,1.14,2.08,18.54,18.54,0,0,1,1,2.55,9.5,9.5,0,0,1,.43,2.87,7.86,7.86,0,0,1-2.24,6.06c-1.48,1.39-3.65,2.08-6.48,2.08H23.34a3.24,3.24,0,0,1-.82-.11c-.27-.07-.4-.16-.4-.26V79.39c0-.14.13-.25.4-.32a3.24,3.24,0,0,1,.82-.11Zm4.14-12.23-2.1-1.46L25,63.81c.57-.71,1.09-1.37,1.57-2s1-1.28,1.62-2c.71.5,1.4,1,2.05,1.46l2.05,1.47Z"/><path class="cls-1" d="M43.37,85.72a16.93,16.93,0,0,1-1.83,4.76,20,20,0,0,1-3,3.91,26.64,26.64,0,0,1-3.8,3.19,45.76,45.76,0,0,1-4.26,2.6L25.4,96c1-.49,2.17-1.14,3.64-1.94a28.6,28.6,0,0,0,4.23-2.79,18.58,18.58,0,0,0,3.48-3.56,7,7,0,0,0,1.46-4.26A3,3,0,0,0,38,82.34a9.29,9.29,0,0,0-.64-1.2c-.25-.38-.51-.77-.77-1.14s-.49-.7-.67-1l4.47-4.52.85,1.43a11.66,11.66,0,0,0,1,1.47,6.23,6.23,0,0,0,1.2,1.11,2.41,2.41,0,0,0,1.43.45v6.92A7,7,0,0,1,43.37,85.72Z"/><path class="cls-1" d="M70.83,97.31l-11.16,3.41-.75-2.55,11.17-3.41Z"/><path class="cls-1" d="M44.86,85.88a3.18,3.18,0,0,1-.82-.11c-.27-.07-.4-.16-.4-.26V79.39c0-.14.13-.25.4-.32a3.18,3.18,0,0,1,.82-.11h5.32v6.92Z"/><path class="cls-1" d="M50.18,85.88a3.26,3.26,0,0,1-.83-.11c-.26-.07-.4-.16-.4-.26V79.39c0-.14.14-.25.4-.32a3.26,3.26,0,0,1,.83-.11H55.5v6.92Z"/><path class="cls-1" d="M55.5,85.88a3.26,3.26,0,0,1-.83-.11c-.26-.07-.4-.16-.4-.26V79.39c0-.14.14-.25.4-.32A3.26,3.26,0,0,1,55.5,79h5.31v6.92Z"/><path class="cls-1" d="M65,94.64l-2.11-1.46-2.1-1.46c.57-.71,1.09-1.38,1.57-2s1-1.28,1.63-2c.7.49,1.39,1,2,1.46s1.34,1,2,1.46ZM62.51,79c2.27,0,3.41-.4,3.41-1.22a1.56,1.56,0,0,0-.24-.58,10.71,10.71,0,0,0-.59-.93l-.71-1c-.25-.35-.45-.64-.59-.85l3.94-5.48c.24.32.56.78,1,1.38a20.66,20.66,0,0,1,1.15,2.08,18.54,18.54,0,0,1,1,2.55,9.83,9.83,0,0,1,.43,2.87A7.86,7.86,0,0,1,69,83.8q-2.23,2.08-6.49,2.08h-1.7a3.18,3.18,0,0,1-.82-.11c-.27-.07-.4-.16-.4-.26V79.39c0-.14.13-.25.4-.32a3.18,3.18,0,0,1,.82-.11Z"/><path class="cls-1" d="M4.28,13.75a3.8,3.8,0,0,0-.33.74c-.11.31-.2.64-.29,1a9,9,0,0,0-.21,1,5.19,5.19,0,0,0-.08.88,4.36,4.36,0,0,0,.22,1.37A3.1,3.1,0,0,0,4.38,20a4,4,0,0,0,1.51.87,7.79,7.79,0,0,0,2.4.32A15.73,15.73,0,0,0,10.58,21a15.78,15.78,0,0,0,2.35-.52,15,15,0,0,0,2-.78,3.63,3.63,0,0,0,1.33-1,.8.8,0,0,0,.18-.31.16.16,0,0,0-.05-.17.49.49,0,0,0-.26-.05l-1.28-.08c-.54,0-1.1-.08-1.68-.14s-1.15-.16-1.68-.27a3.61,3.61,0,0,1-1.25-.45A2.45,2.45,0,0,1,9.22,16a4.87,4.87,0,0,1-.31-1.83,5.44,5.44,0,0,1,.7-2.44A11.48,11.48,0,0,1,14,7.09a5.95,5.95,0,0,1,4.77-.57A11.89,11.89,0,0,1,20.18,7l-1.46,3.91c-.2-.09-.44-.18-.72-.28a2.93,2.93,0,0,0-1-.15,4.09,4.09,0,0,0-1.53.3,6.81,6.81,0,0,0-1.39.73,5.79,5.79,0,0,0-1.1,1,3.53,3.53,0,0,0-.67,1l1.77.19,1.78.2a8.08,8.08,0,0,1,2.27.57,3,3,0,0,1,1.17.89,2.58,2.58,0,0,1,.46,1.13,10.1,10.1,0,0,1,.08,1.25,3.87,3.87,0,0,1-.54,1.93,8.09,8.09,0,0,1-1.43,1.79A13,13,0,0,1,15.82,23a17.28,17.28,0,0,1-2.47,1.24,16.53,16.53,0,0,1-2.59.82,11.59,11.59,0,0,1-2.47.29,9.54,9.54,0,0,1-4-.72A7,7,0,0,1,1.8,22.81,6.56,6.56,0,0,1,.48,20.24a11.3,11.3,0,0,1-.37-2.87,8.39,8.39,0,0,1,.13-1.45,14.78,14.78,0,0,1,.32-1.5c.13-.49.28-.94.44-1.37a7.11,7.11,0,0,1,.48-1Z"/><path class="cls-1" d="M25.39,0c.05,1.43.07,3,.08,4.79s0,3.52,0,5.26,0,3.41,0,5,0,2.84.07,3.86l-3.26,1.21c0-1.15-.07-2.54-.07-4.16s0-3.29,0-5,0-3.44,0-5.13,0-3.21-.08-4.53Z"/><path class="cls-1" d="M32.48,19.59a10.29,10.29,0,0,1-1.12,2.91,11.91,11.91,0,0,1-1.83,2.4,16.33,16.33,0,0,1-2.33,2,29.33,29.33,0,0,1-2.61,1.59l-3.13-2.54c.59-.3,1.34-.7,2.24-1.19A18.69,18.69,0,0,0,26.29,23a11.54,11.54,0,0,0,2.13-2.18,4.3,4.3,0,0,0,.9-2.61,1.9,1.9,0,0,0-.16-.7,5.83,5.83,0,0,0-.39-.74c-.16-.23-.31-.47-.48-.7a6.22,6.22,0,0,1-.4-.6l2.73-2.77.52.88a6.87,6.87,0,0,0,.64.9,3.86,3.86,0,0,0,.73.68,1.46,1.46,0,0,0,.88.28v4.24A4.37,4.37,0,0,1,32.48,19.59Z"/><path class="cls-1" d="M33.39,19.69a2.08,2.08,0,0,1-.5-.07c-.17,0-.25-.1-.25-.16V15.71c0-.09.08-.15.25-.2a2.07,2.07,0,0,1,.5-.06h3.26v4.24Z"/><path class="cls-1" d="M35.36,19.69a2.08,2.08,0,0,1-.5-.07c-.16,0-.25-.1-.25-.16V15.71c0-.09.09-.15.25-.2a2.07,2.07,0,0,1,.5-.06h3.26v4.24Z"/><path class="cls-1" d="M38.62,19.69a2.08,2.08,0,0,1-.5-.07c-.17,0-.25-.1-.25-.16V15.71c0-.09.08-.15.25-.2a2.07,2.07,0,0,1,.5-.06h3.26v4.24Z"/><path class="cls-1" d="M41.88,19.69a2.08,2.08,0,0,1-.5-.07c-.17,0-.25-.1-.25-.16V15.71c0-.09.08-.15.25-.2a2.07,2.07,0,0,1,.5-.06h3.26v4.24Z"/><path class="cls-1" d="M45.14,19.69a2.08,2.08,0,0,1-.5-.07c-.17,0-.25-.1-.25-.16V15.71c0-.09.08-.15.25-.2a2.07,2.07,0,0,1,.5-.06H48.4v4.24Z"/><path class="cls-1" d="M50.91,15.45a10.41,10.41,0,0,0,1.89-.18,19.72,19.72,0,0,0,2-.47,19.65,19.65,0,0,0,1.91-.69,12,12,0,0,0,1.68-.85l-1.06-.47-1.07-.44c-.34-.13-.65-.24-.93-.32a2.34,2.34,0,0,0-.66-.13,1.92,1.92,0,0,0-1.07.37,4.84,4.84,0,0,0-.95.83L50,11.5c.19-.28.46-.63.8-1A9.41,9.41,0,0,1,51.92,9.3a8,8,0,0,1,1.32-.92A2.86,2.86,0,0,1,54.62,8a5,5,0,0,1,1.88.38c.62.25,1.27.54,2,.86l.91.46a8.48,8.48,0,0,0,1.36.5,12.93,12.93,0,0,0,2.08.41,21.93,21.93,0,0,0,3.11.13L64.7,15.16a15.75,15.75,0,0,0-1.93.27,11.16,11.16,0,0,0-1.53.44,12.24,12.24,0,0,0-1.25.57c-.38.21-.76.42-1.13.64L57.15,18a16.83,16.83,0,0,1-1.82.84,13,13,0,0,1-2.06.61,11.66,11.66,0,0,1-2.36.23H48.4a2.24,2.24,0,0,1-.51-.07c-.16,0-.24-.1-.24-.16V15.71c0-.09.08-.15.24-.2a2.22,2.22,0,0,1,.51-.06Zm6,10.88-1.28-.89c-.43-.3-.86-.59-1.29-.9.35-.43.67-.84,1-1.22s.62-.79,1-1.22c.44.3.86.6,1.26.89s.82.6,1.25.9Z"/><path class="cls-1" d="M71,0c0,1.43.07,3,.08,4.79s0,3.52,0,5.26,0,3.41,0,5,0,2.84.07,3.86L68,20.08c0-1.15-.07-2.54-.07-4.16s0-3.29,0-5,0-3.44,0-5.13,0-3.21-.08-4.53Z"/><path class="cls-1" d="M12,48.79a7.28,7.28,0,0,1-2-.23,4.15,4.15,0,0,1-1.47-.68,3.93,3.93,0,0,1-1-1.14,7.47,7.47,0,0,1-.72-1.56,9.64,9.64,0,0,1-1.76.61A6.44,6.44,0,0,1,3.43,46,2.92,2.92,0,0,1,.9,44.91a4.42,4.42,0,0,1-.79-2.67,4.13,4.13,0,0,1,.49-2,7.52,7.52,0,0,1,1.22-1.67,10.22,10.22,0,0,1,1.59-1.36,16.84,16.84,0,0,1,1.62-1L4.83,35l3-2.22,1.73,9.65a3.06,3.06,0,0,0,.68,1.58,2.47,2.47,0,0,0,1.79.51ZM6,41.72a1.85,1.85,0,0,0,0-.37c0-.19-.07-.4-.11-.62s-.08-.44-.11-.62a2.69,2.69,0,0,0-.09-.38L5,40.09a9.27,9.27,0,0,0-.84.6,5.25,5.25,0,0,0-.7.72.86.86,0,0,0-.22.7c0,.2.15.3.4.31a3,3,0,0,0,.85-.1,5.56,5.56,0,0,0,.9-.29A2.6,2.6,0,0,0,6,41.72Z"/><path class="cls-1" d="M14.54,44.56a10.41,10.41,0,0,0,1.89-.18,17,17,0,0,0,2-.48,18,18,0,0,0,1.91-.68A11.83,11.83,0,0,0,22,42.37c-.32-.15-.67-.31-1-.47l-1.08-.44-.93-.33a2.7,2.7,0,0,0-.65-.13,1.94,1.94,0,0,0-1.08.38,4.77,4.77,0,0,0-.94.83l-2.61-1.6c.2-.28.46-.63.8-1a10.2,10.2,0,0,1,1.12-1.16,8.31,8.31,0,0,1,1.32-.93,2.85,2.85,0,0,1,1.39-.39,5,5,0,0,1,1.87.38c.62.25,1.28.54,2,.86l.91.46a8.7,8.7,0,0,0,1.35.5,13.08,13.08,0,0,0,2.09.41,21.79,21.79,0,0,0,3.11.13l-1.24,4.43a17.25,17.25,0,0,0-1.92.28,10.39,10.39,0,0,0-1.53.44,9.19,9.19,0,0,0-1.26.57l-1.12.64-1.71.92A15.31,15.31,0,0,1,19,48a12.86,12.86,0,0,1-2.05.6,11.08,11.08,0,0,1-2.37.23H12a2.07,2.07,0,0,1-.5-.06c-.16,0-.25-.1-.25-.17V44.82c0-.09.09-.15.25-.2a2.07,2.07,0,0,1,.5-.06Zm1.73,9.28c.31-.43.61-.84.91-1.22s.61-.79.92-1.22l2,1.5,1.41-1.7,1.27.9L24,53c-.31.41-.62.82-1,1.22s-.64.8-.94,1.19l-2-1.5-1.4,1.69Zm2.35,3.36c.3-.35.6-.69.88-1s.56-.69.85-1c.36.3.73.6,1.09.88l1.09.85c-.31.37-.6.74-.88,1.12s-.58.75-.88,1.12Z"/><path class="cls-1" d="M33.32,41.82c.17.28.37.63.6,1a11.24,11.24,0,0,1,.63,1.35,12.23,12.23,0,0,1,.51,1.55,6.69,6.69,0,0,1,.21,1.66,7.66,7.66,0,0,1-.65,3.13,10.75,10.75,0,0,1-1.74,2.72,15.47,15.47,0,0,1-2.55,2.33,26.71,26.71,0,0,1-3,2L24.16,55c.74-.39,1.56-.84,2.48-1.35a19.9,19.9,0,0,0,2.57-1.73,10.33,10.33,0,0,0,2-2.09,4.07,4.07,0,0,0,.8-2.43,1.76,1.76,0,0,0-.16-.7c-.11-.25-.23-.5-.37-.75s-.3-.49-.46-.73l-.44-.65Z"/><path class="cls-1" d="M40.16,48.29a4.62,4.62,0,0,1-1.66-1.35A5.67,5.67,0,0,1,37.57,45a8.12,8.12,0,0,1-.29-2.21l0-12.45,3.26-1.21,0,13.66A1.79,1.79,0,0,0,41,44a2,2,0,0,0,1.61.56v4.23A5.45,5.45,0,0,1,40.16,48.29Z"/><path class="cls-1" d="M49.92,48.79a4.77,4.77,0,0,1-3.68-1.3,4.78,4.78,0,0,1-1.79,1,6.26,6.26,0,0,1-1.83.29,2.07,2.07,0,0,1-.5-.06c-.17,0-.25-.1-.25-.17V44.82c0-.09.08-.15.25-.2a2.07,2.07,0,0,1,.5-.06,3,3,0,0,0,.7-.09,2.12,2.12,0,0,0,.7-.27,1.65,1.65,0,0,0,.54-.51,1.38,1.38,0,0,0,.21-.8v-.81L48,41v1.41a2.66,2.66,0,0,0,.51,1.64,1.72,1.72,0,0,0,1.38.51h.46v4.23Zm-7.23,5.09c.3-.44.6-.84.91-1.22s.61-.79.91-1.23l2,1.5,1.4-1.69,1.27.89,1.27.9c-.3.41-.62.82-.94,1.22s-.64.8-1,1.19l-1.95-1.5-1.4,1.7ZM45,57.23c.31-.34.6-.69.88-1s.57-.68.85-1c.37.31.73.6,1.09.88l1.09.85c-.3.37-.59.74-.88,1.12s-.57.76-.88,1.13Z"/><path class="cls-1" d="M64.59,48.79a5.49,5.49,0,0,1-1.65-.23,5.65,5.65,0,0,1-1.5-.7,12.88,12.88,0,0,1-1.51-1.15c-.52-.46-1.09-1-1.7-1.63a4.72,4.72,0,0,1-.65,1.43,3.78,3.78,0,0,1-1.37,1.19,8.32,8.32,0,0,1-2.33.8,17.28,17.28,0,0,1-3.5.29,2.16,2.16,0,0,1-.51-.06c-.16,0-.24-.1-.24-.17V44.82c0-.09.08-.15.24-.2a2.16,2.16,0,0,1,.51-.06,18.52,18.52,0,0,0,2.69-.15A5,5,0,0,0,54.5,44a1.12,1.12,0,0,0,.59-.56,1.81,1.81,0,0,0,.11-.6,2.31,2.31,0,0,0-.59-1.38,14.6,14.6,0,0,0-1.38-1.54c-.53-.51-1.07-1-1.61-1.46a10.29,10.29,0,0,1-1.24-1.22l.06-1.76A3.69,3.69,0,0,1,50.92,34a4.76,4.76,0,0,1,.57-.72,11.42,11.42,0,0,1,1-.71c.48-.31,1-.66,1.69-1.05s1.37-.8,2.15-1.22l2.38-1.27c.81-.42,1.59-.82,2.35-1.19s1.46-.7,2.09-1v4.73c-.76.32-1.54.68-2.33,1.06L58.53,33.8c-.77.37-1.49.75-2.17,1.13l-1.88,1c.76.72,1.53,1.48,2.3,2.27s1.64,1.67,2.59,2.62c.61.63,1.14,1.18,1.6,1.63a13.37,13.37,0,0,0,1.27,1.14,4.69,4.69,0,0,0,1.14.69,3.18,3.18,0,0,0,1.21.23h.26v4.23Z"/><path class="cls-1" d="M69.64,52.8c-.31.44-.61.84-.91,1.22s-.61.79-.92,1.23l-2-1.5-1.41,1.66c-.43-.31-.85-.6-1.27-.88l-1.27-.88c.31-.41.62-.82.95-1.21s.64-.79.94-1.2l2.09,1.63L67.1,51Zm-3.75-8.24c1.39,0,2.09-.25,2.09-.75a.89.89,0,0,0-.15-.36,6.54,6.54,0,0,0-.36-.57L67,42.24l-.36-.52,2.41-3.36c.16.2.35.48.59.85a11.32,11.32,0,0,1,.7,1.27,10.69,10.69,0,0,1,.6,1.57,5.73,5.73,0,0,1,.27,1.76,4.82,4.82,0,0,1-1.37,3.71,5.65,5.65,0,0,1-4,1.27h-1a2.16,2.16,0,0,1-.51-.06c-.16,0-.24-.1-.24-.17V44.82c0-.09.08-.15.24-.2a2.16,2.16,0,0,1,.51-.06Z"/></svg>