<svg id="Layer_1" data-name="Layer 1" xmlns="http://www.w3.org/2000/svg" viewBox="0 0 303.09 483.72"><defs><style>.cls-1{fill:#fff;}</style></defs><path class="cls-1" d="M9.43,8.13a44.48,44.48,0,0,1,9.12-6.94V.71h-.34A45.2,45.2,0,0,0,9,7.71,70.26,70.26,0,0,0,.23,18.15H1A69.52,69.52,0,0,1,9.43,8.13Z"/><path class="cls-1" d="M18.79,41.49v-.6l-1.87-.44A105.86,105.86,0,0,0,0,38v.59A105.36,105.36,0,0,1,16.79,41Z"/><path class="cls-1" d="M9.43,68.71a44.78,44.78,0,0,1,9.12-6.93V61.3h-.34a45.51,45.51,0,0,0-9.19,7A70.85,70.85,0,0,0,.23,78.74H1A70.15,70.15,0,0,1,9.43,68.71Z"/><path class="cls-1" d="M18.79,102.08v-.6L16.92,101A105.86,105.86,0,0,0,0,98.54v.59a104.24,104.24,0,0,1,16.79,2.48Z"/><path class="cls-1" d="M110.21,16.77a14.31,14.31,0,0,1-10.8-8.69,21.15,21.15,0,0,1-1.64-6.79l0-.31h-.59l0,.36a21.8,21.8,0,0,0,1.69,7,14.86,14.86,0,0,0,11.23,9,32.05,32.05,0,0,0,4,.54v-.59A32.19,32.19,0,0,1,110.21,16.77Z"/><path class="cls-1" d="M136.21,8.13a44.43,44.43,0,0,1,9.11-6.94V.71H145a45,45,0,0,0-9.2,7A69.6,69.6,0,0,0,127,18.15h.71A69,69,0,0,1,136.21,8.13Z"/><path class="cls-1" d="M84.46,11.2v-.6l-1.87-.44a103.8,103.8,0,0,0-16.92-2.5v.59a104.24,104.24,0,0,1,16.79,2.48Z"/><path class="cls-1" d="M44.24,8A48.7,48.7,0,0,1,53.94.63V0h-.18a49.42,49.42,0,0,0-10,7.59q-1.89,1.85-3.63,3.8h0A17.2,17.2,0,0,1,38.23,8,23.18,23.18,0,0,1,36.45.63l0-.34h-.63c0,.13,0,.26,0,.39a23.76,23.76,0,0,0,1.83,7.57,17.83,17.83,0,0,0,2.09,3.63,74.49,74.49,0,0,0-4.66,5.87v1.11a74.61,74.61,0,0,1,5.06-6.47l.08-.09-.08.09A16.17,16.17,0,0,0,49.82,18a36.38,36.38,0,0,0,4.12.56V18a36.12,36.12,0,0,1-4-.56,15.55,15.55,0,0,1-9.39-5.51h0l0,0,0,0Q42.33,9.92,44.24,8Z"/><path class="cls-1" d="M43.53,33.64a19,19,0,0,1,2.87,7.54,13.32,13.32,0,0,1-.92,7h.63a13.91,13.91,0,0,0,.87-7A19.71,19.71,0,0,0,44,33.33c-.43-.69-.89-1.36-1.38-2h-.73C42.5,32.07,43,32.85,43.53,33.64Z"/><path class="cls-1" d="M75.1,38.42a45.2,45.2,0,0,1,9.12-6.94V31h-.34a45.57,45.57,0,0,0-9.19,7A70.78,70.78,0,0,0,65.9,48.44h.72A70.07,70.07,0,0,1,75.1,38.42Z"/><path class="cls-1" d="M113,40.51c-1.9-.43-3.75-.81-5.58-1.14a22.66,22.66,0,0,0-2.85-6.58c-.46-.74-1-1.48-1.5-2.2h-.79c.63.83,1.21,1.68,1.75,2.54a22,22,0,0,1,2.7,6.12c-3.6-.63-7.11-1.08-10.57-1.34v.64c3.51.27,7.07.72,10.73,1.37.1.46.18.92.25,1.38a14.4,14.4,0,0,1-1,7.56h.68a15,15,0,0,0,1-7.64c-.06-.39-.12-.78-.2-1.17q2.59.48,5.29,1.08l2.16.51V41Z"/><path class="cls-1" d="M145.56,41.49v-.6l-1.87-.44A105.86,105.86,0,0,0,126.77,38v.59A105.36,105.36,0,0,1,143.56,41Z"/><path class="cls-1" d="M232.59,16.77a14.33,14.33,0,0,1-10.81-8.69,21.41,21.41,0,0,1-1.64-6.79c0-.11,0-.21,0-.31h-.59l0,.36a22.07,22.07,0,0,0,1.68,7,14.87,14.87,0,0,0,11.23,9,32.21,32.21,0,0,0,4,.54v-.59A31.92,31.92,0,0,1,232.59,16.77Z"/><path class="cls-1" d="M258.58,8.13a44.21,44.21,0,0,1,9.12-6.94V.71h-.34a45.2,45.2,0,0,0-9.19,7,70.26,70.26,0,0,0-8.79,10.44h.72A69.52,69.52,0,0,1,258.58,8.13Z"/><path class="cls-1" d="M206.83,11.2v-.6L205,10.16a103.53,103.53,0,0,0-16.91-2.5v.59a104.12,104.12,0,0,1,16.78,2.48Z"/><path class="cls-1" d="M166.62,8a48.7,48.7,0,0,1,9.7-7.41V0h-.18a48.86,48.86,0,0,0-10,7.59q-1.89,1.85-3.63,3.8h0a17.75,17.75,0,0,1-2-3.39A23.18,23.18,0,0,1,158.83.63l0-.34h-.64l0,.39A23.76,23.76,0,0,0,160,8.25a18.81,18.81,0,0,0,2.09,3.63c-1.65,1.89-3.2,3.84-4.65,5.87v1.11a74.49,74.49,0,0,1,5-6.47l.08-.09-.08.09A16.22,16.22,0,0,0,172.2,18a36.38,36.38,0,0,0,4.12.56V18a36.63,36.63,0,0,1-4-.56,15.55,15.55,0,0,1-9.38-5.51h0l0,0,0,0C164.12,10.58,165.34,9.29,166.62,8Z"/><path class="cls-1" d="M165.9,33.64a19,19,0,0,1,2.87,7.54,13.12,13.12,0,0,1-.92,7h.63a13.7,13.7,0,0,0,.87-7,19.56,19.56,0,0,0-2.95-7.77c-.42-.69-.88-1.36-1.37-2h-.74C164.88,32.07,165.41,32.85,165.9,33.64Z"/><path class="cls-1" d="M197.48,38.42a44.93,44.93,0,0,1,9.12-6.94V31h-.34a45.29,45.29,0,0,0-9.19,7,70.78,70.78,0,0,0-8.79,10.44H189A68.8,68.8,0,0,1,197.48,38.42Z"/><path class="cls-1" d="M235.39,40.51q-2.83-.65-5.58-1.14A22.13,22.13,0,0,0,227,32.79c-.46-.74-1-1.48-1.49-2.2h-.79c.63.83,1.21,1.68,1.74,2.54a22.06,22.06,0,0,1,2.71,6.12c-3.61-.63-7.11-1.08-10.57-1.34v.64c3.51.27,7.07.72,10.73,1.37q.15.69.24,1.38a14.3,14.3,0,0,1-1,7.56h.69a14.89,14.89,0,0,0,.94-7.64c0-.39-.12-.78-.2-1.17q2.61.48,5.29,1.08l2.17.51V41Z"/><path class="cls-1" d="M267.93,41.49v-.6l-1.87-.44A105.74,105.74,0,0,0,249.15,38v.59A105.25,105.25,0,0,1,265.93,41Z"/><path class="cls-1" d="M110.21,77.36a14.31,14.31,0,0,1-10.8-8.69,21.15,21.15,0,0,1-1.64-6.8l0-.31h-.59l0,.36a21.8,21.8,0,0,0,1.69,7,14.86,14.86,0,0,0,11.23,9,32.05,32.05,0,0,0,4,.54v-.59A32.19,32.19,0,0,1,110.21,77.36Z"/><path class="cls-1" d="M136.21,68.71a44.73,44.73,0,0,1,9.11-6.93V61.3H145a45.29,45.29,0,0,0-9.2,7A70.17,70.17,0,0,0,127,78.74h.71A69.58,69.58,0,0,1,136.21,68.71Z"/><path class="cls-1" d="M84.46,71.79v-.6c-.63-.16-1.25-.3-1.87-.44a103.8,103.8,0,0,0-16.92-2.5v.58a104.29,104.29,0,0,1,16.79,2.49Z"/><path class="cls-1" d="M44.24,68.63a48.7,48.7,0,0,1,9.7-7.41v-.63h-.18a49.36,49.36,0,0,0-10,7.58c-1.26,1.24-2.47,2.5-3.63,3.81h0a17.28,17.28,0,0,1-1.94-3.4,23,23,0,0,1-1.78-7.37l0-.33h-.63c0,.13,0,.26,0,.39a23.83,23.83,0,0,0,1.83,7.57,17.83,17.83,0,0,0,2.09,3.63,72.7,72.7,0,0,0-4.66,5.87v1.11A74.61,74.61,0,0,1,40.14,73l.08-.09-.08.09a16.11,16.11,0,0,0,9.68,5.64,34.27,34.27,0,0,0,4.12.57v-.64A33.86,33.86,0,0,1,50,78a15.55,15.55,0,0,1-9.39-5.51h0l0,0,0,0Q42.33,70.51,44.24,68.63Z"/><path class="cls-1" d="M43.53,94.23a19,19,0,0,1,2.87,7.54,13.32,13.32,0,0,1-.92,7h.63a13.91,13.91,0,0,0,.87-7A19.66,19.66,0,0,0,44,93.92q-.64-1-1.38-2h-.73C42.5,92.66,43,93.44,43.53,94.23Z"/><path class="cls-1" d="M75.1,99a44.48,44.48,0,0,1,9.12-6.94v-.48h-.34a45.2,45.2,0,0,0-9.19,7A70.78,70.78,0,0,0,65.9,109h.72A70.07,70.07,0,0,1,75.1,99Z"/><path class="cls-1" d="M113,101.1c-1.9-.43-3.75-.81-5.58-1.14a22.66,22.66,0,0,0-2.85-6.58c-.46-.74-1-1.48-1.5-2.21h-.79c.63.84,1.21,1.69,1.75,2.55a21.89,21.89,0,0,1,2.7,6.12c-3.6-.63-7.11-1.08-10.57-1.34v.63c3.51.27,7.07.73,10.73,1.38.1.46.18.92.25,1.38a14.41,14.41,0,0,1-1,7.56h.68a15,15,0,0,0,1-7.64c-.06-.4-.12-.79-.2-1.17q2.59.47,5.29,1.08l2.16.51v-.65C114.37,101.41,113.69,101.26,113,101.1Z"/><path class="cls-1" d="M145.56,102.08v-.6l-1.87-.44a105.86,105.86,0,0,0-16.92-2.5v.59a104.24,104.24,0,0,1,16.79,2.48Z"/><path class="cls-1" d="M232.59,77.36a14.33,14.33,0,0,1-10.81-8.69,21.41,21.41,0,0,1-1.64-6.8c0-.1,0-.2,0-.31h-.59l0,.36a22.07,22.07,0,0,0,1.68,7,14.87,14.87,0,0,0,11.23,9,32.21,32.21,0,0,0,4,.54v-.59A31.92,31.92,0,0,1,232.59,77.36Z"/><path class="cls-1" d="M258.58,68.71a44.51,44.51,0,0,1,9.12-6.93V61.3h-.34a45.51,45.51,0,0,0-9.19,7,70.85,70.85,0,0,0-8.79,10.45h.72A70.15,70.15,0,0,1,258.58,68.71Z"/><path class="cls-1" d="M206.83,71.79v-.6c-.62-.16-1.24-.3-1.87-.44a103.53,103.53,0,0,0-16.91-2.5v.58a104.18,104.18,0,0,1,16.78,2.49Z"/><path class="cls-1" d="M166.62,68.63a48.7,48.7,0,0,1,9.7-7.41v-.63h-.18a48.81,48.81,0,0,0-10,7.58c-1.26,1.24-2.47,2.5-3.63,3.81h0a17.83,17.83,0,0,1-2-3.4,23,23,0,0,1-1.77-7.37l0-.33h-.64l0,.39A23.83,23.83,0,0,0,160,68.84a18.81,18.81,0,0,0,2.09,3.63,74.85,74.85,0,0,0-4.65,5.87v1.11a74.49,74.49,0,0,1,5-6.47l.08-.09-.08.09a16.16,16.16,0,0,0,9.69,5.64,34.27,34.27,0,0,0,4.12.57v-.64a34.31,34.31,0,0,1-4-.55,15.55,15.55,0,0,1-9.38-5.51h0l0,0,0,0C164.12,71.17,165.34,69.88,166.62,68.63Z"/><path class="cls-1" d="M165.9,94.23a19,19,0,0,1,2.87,7.54,13.12,13.12,0,0,1-.92,7h.63a13.7,13.7,0,0,0,.87-7,19.51,19.51,0,0,0-2.95-7.77c-.42-.69-.88-1.37-1.37-2h-.74C164.88,92.66,165.41,93.44,165.9,94.23Z"/><path class="cls-1" d="M197.48,99a44.21,44.21,0,0,1,9.12-6.94v-.48h-.34a44.93,44.93,0,0,0-9.19,7A70.78,70.78,0,0,0,188.28,109H189A68.8,68.8,0,0,1,197.48,99Z"/><path class="cls-1" d="M235.39,101.1q-2.83-.64-5.58-1.14A22.13,22.13,0,0,0,227,93.38c-.46-.74-1-1.48-1.49-2.21h-.79q.94,1.26,1.74,2.55a21.93,21.93,0,0,1,2.71,6.12c-3.61-.63-7.11-1.08-10.57-1.34v.63c3.51.27,7.07.73,10.73,1.38q.15.69.24,1.38a14.31,14.31,0,0,1-1,7.56h.69a14.89,14.89,0,0,0,.94-7.64c0-.4-.12-.79-.2-1.17q2.61.47,5.29,1.08l2.17.51v-.65C236.75,101.41,236.07,101.26,235.39,101.1Z"/><path class="cls-1" d="M267.93,102.08v-.6l-1.87-.44a105.74,105.74,0,0,0-16.91-2.5v.59a104.12,104.12,0,0,1,16.78,2.48Z"/><path class="cls-1" d="M293.39,8a48.7,48.7,0,0,1,9.7-7.41V0h-.18a48.86,48.86,0,0,0-10,7.59q-1.89,1.85-3.63,3.8h0A17.2,17.2,0,0,1,287.38,8,22.91,22.91,0,0,1,285.6.63l0-.34h-.63c0,.13,0,.26,0,.39a24,24,0,0,0,1.83,7.57,18.81,18.81,0,0,0,2.09,3.63c-1.65,1.89-3.2,3.84-4.65,5.87v1.11a76.48,76.48,0,0,1,5-6.47l.09-.09-.09.09A16.22,16.22,0,0,0,299,18a36.38,36.38,0,0,0,4.12.56V18a36.63,36.63,0,0,1-4-.56,15.55,15.55,0,0,1-9.38-5.51h0l0,0,0,0C290.89,10.58,292.11,9.29,293.39,8Z"/><path class="cls-1" d="M292.68,33.64a19,19,0,0,1,2.86,7.54,13.12,13.12,0,0,1-.92,7h.64a13.91,13.91,0,0,0,.87-7,19.74,19.74,0,0,0-3-7.77c-.42-.69-.88-1.36-1.37-2h-.73C291.65,32.07,292.18,32.85,292.68,33.64Z"/><path class="cls-1" d="M293.39,68.63a48.7,48.7,0,0,1,9.7-7.41v-.63h-.18a48.81,48.81,0,0,0-10,7.58c-1.26,1.24-2.47,2.5-3.63,3.81h0a17.28,17.28,0,0,1-1.94-3.4,22.78,22.78,0,0,1-1.78-7.37l0-.33h-.63c0,.13,0,.26,0,.39a24.1,24.1,0,0,0,1.83,7.57,18.81,18.81,0,0,0,2.09,3.63,74.85,74.85,0,0,0-4.65,5.87v1.11a76.48,76.48,0,0,1,5-6.47l.09-.09-.09.09A16.16,16.16,0,0,0,299,78.62a34.27,34.27,0,0,0,4.12.57v-.64a34.31,34.31,0,0,1-4-.55,15.55,15.55,0,0,1-9.38-5.51h0l0,0,0,0C290.89,71.17,292.11,69.88,293.39,68.63Z"/><path class="cls-1" d="M292.68,94.23a19,19,0,0,1,2.86,7.54,13.12,13.12,0,0,1-.92,7h.64a13.91,13.91,0,0,0,.87-7,19.68,19.68,0,0,0-3-7.77c-.42-.69-.88-1.37-1.37-2h-.73C291.65,92.66,292.18,93.44,292.68,94.23Z"/><path class="cls-1" d="M9.43,132.88A44.78,44.78,0,0,1,18.55,126v-.48h-.34a45.51,45.51,0,0,0-9.19,7A70.34,70.34,0,0,0,.23,142.91H1A70.15,70.15,0,0,1,9.43,132.88Z"/><path class="cls-1" d="M18.79,166.25v-.6l-1.87-.44A105.86,105.86,0,0,0,0,162.71v.59a104.24,104.24,0,0,1,16.79,2.48Z"/><path class="cls-1" d="M9.43,193.47a44.78,44.78,0,0,1,9.12-6.93v-.49h-.34a45.57,45.57,0,0,0-9.19,7A70.34,70.34,0,0,0,.23,203.5H1A70.15,70.15,0,0,1,9.43,193.47Z"/><path class="cls-1" d="M18.79,226.84v-.6l-1.87-.44A103.64,103.64,0,0,0,0,223.3v.59a104.24,104.24,0,0,1,16.79,2.48Z"/><path class="cls-1" d="M110.21,141.53a14.31,14.31,0,0,1-10.8-8.69,21.15,21.15,0,0,1-1.64-6.8l0-.31h-.59l0,.36a21.8,21.8,0,0,0,1.69,7,14.86,14.86,0,0,0,11.23,9,32.05,32.05,0,0,0,4,.54v-.59A32.19,32.19,0,0,1,110.21,141.53Z"/><path class="cls-1" d="M136.21,132.88a44.73,44.73,0,0,1,9.11-6.93v-.48H145a45.29,45.29,0,0,0-9.2,7A69.67,69.67,0,0,0,127,142.91h.71A69.58,69.58,0,0,1,136.21,132.88Z"/><path class="cls-1" d="M84.46,136v-.61l-1.87-.43a103.8,103.8,0,0,0-16.92-2.5V133a104.29,104.29,0,0,1,16.79,2.49Z"/><path class="cls-1" d="M44.24,132.8a48.7,48.7,0,0,1,9.7-7.41v-.63h-.18a49,49,0,0,0-10,7.58c-1.26,1.24-2.47,2.5-3.63,3.81h0a17.28,17.28,0,0,1-1.94-3.4,23,23,0,0,1-1.78-7.37l0-.33h-.63c0,.13,0,.26,0,.39A23.83,23.83,0,0,0,37.65,133a17.83,17.83,0,0,0,2.09,3.63,72.7,72.7,0,0,0-4.66,5.87v1.11a73.11,73.11,0,0,1,5.06-6.47l.08-.1-.08.1a16.16,16.16,0,0,0,9.68,5.64,34.27,34.27,0,0,0,4.12.57v-.64a33.86,33.86,0,0,1-4-.55,15.55,15.55,0,0,1-9.39-5.51h0l0,0,0,0Q42.33,134.68,44.24,132.8Z"/><path class="cls-1" d="M43.53,158.4a19,19,0,0,1,2.87,7.54,13.32,13.32,0,0,1-.92,7h.63a13.91,13.91,0,0,0,.87-7A19.66,19.66,0,0,0,44,158.09q-.64-1-1.38-2h-.73C42.5,156.83,43,157.6,43.53,158.4Z"/><path class="cls-1" d="M75.1,163.18a44.48,44.48,0,0,1,9.12-6.94v-.48h-.34a45.2,45.2,0,0,0-9.19,7A70.78,70.78,0,0,0,65.9,173.2h.72A69.52,69.52,0,0,1,75.1,163.18Z"/><path class="cls-1" d="M113,165.27c-1.9-.43-3.75-.81-5.58-1.14a22.66,22.66,0,0,0-2.85-6.58c-.46-.74-1-1.48-1.5-2.21h-.79c.63.84,1.21,1.69,1.75,2.55a21.76,21.76,0,0,1,2.7,6.12c-3.6-.63-7.11-1.08-10.57-1.34v.63c3.51.27,7.07.73,10.73,1.38.1.46.18.92.25,1.38a14.41,14.41,0,0,1-1,7.56h.68a15,15,0,0,0,1-7.65c-.06-.39-.12-.78-.2-1.17q2.59.48,5.29,1.09l2.16.51v-.65C114.37,165.58,113.69,165.43,113,165.27Z"/><path class="cls-1" d="M145.56,166.25v-.6l-1.87-.44a105.86,105.86,0,0,0-16.92-2.5v.59a104.24,104.24,0,0,1,16.79,2.48Z"/><path class="cls-1" d="M232.59,141.53a14.33,14.33,0,0,1-10.81-8.69,21.41,21.41,0,0,1-1.64-6.8c0-.1,0-.2,0-.31h-.59l0,.36a22.07,22.07,0,0,0,1.68,7,14.87,14.87,0,0,0,11.23,9,32.21,32.21,0,0,0,4,.54v-.59A31.92,31.92,0,0,1,232.59,141.53Z"/><path class="cls-1" d="M258.58,132.88A44.51,44.51,0,0,1,267.7,126v-.48h-.34a45.51,45.51,0,0,0-9.19,7,70.34,70.34,0,0,0-8.79,10.45h.72A70.15,70.15,0,0,1,258.58,132.88Z"/><path class="cls-1" d="M206.83,136v-.61l-1.87-.43a103.53,103.53,0,0,0-16.91-2.5V133a104.18,104.18,0,0,1,16.78,2.49Z"/><path class="cls-1" d="M166.62,132.8a48.7,48.7,0,0,1,9.7-7.41v-.63h-.18a48.45,48.45,0,0,0-10,7.58c-1.26,1.24-2.47,2.5-3.63,3.81h0a17.83,17.83,0,0,1-2-3.4,23,23,0,0,1-1.77-7.37l0-.33h-.64l0,.39A23.83,23.83,0,0,0,160,133a18.81,18.81,0,0,0,2.09,3.63,74.85,74.85,0,0,0-4.65,5.87v1.11a73,73,0,0,1,5-6.47l.08-.1-.08.1a16.21,16.21,0,0,0,9.69,5.64,34.27,34.27,0,0,0,4.12.57v-.64a34.31,34.31,0,0,1-4-.55,15.55,15.55,0,0,1-9.38-5.51h0l0,0,0,0C164.12,135.34,165.34,134.05,166.62,132.8Z"/><path class="cls-1" d="M165.9,158.4a19,19,0,0,1,2.87,7.54,13.12,13.12,0,0,1-.92,7h.63a13.7,13.7,0,0,0,.87-7,19.51,19.51,0,0,0-2.95-7.77c-.42-.69-.88-1.37-1.37-2h-.74C164.88,156.83,165.41,157.6,165.9,158.4Z"/><path class="cls-1" d="M197.48,163.18a44.21,44.21,0,0,1,9.12-6.94v-.48h-.34a44.93,44.93,0,0,0-9.19,7,70.78,70.78,0,0,0-8.79,10.44H189A68.27,68.27,0,0,1,197.48,163.18Z"/><path class="cls-1" d="M235.39,165.27q-2.83-.65-5.58-1.14a22.13,22.13,0,0,0-2.85-6.58c-.46-.74-1-1.48-1.49-2.21h-.79q.94,1.26,1.74,2.55a21.81,21.81,0,0,1,2.71,6.12c-3.61-.63-7.11-1.08-10.57-1.34v.63c3.51.27,7.07.73,10.73,1.38q.15.69.24,1.38a14.31,14.31,0,0,1-1,7.56h.69a14.91,14.91,0,0,0,.94-7.65c0-.39-.12-.78-.2-1.17q2.61.48,5.29,1.09l2.17.51v-.65C236.75,165.58,236.07,165.43,235.39,165.27Z"/><path class="cls-1" d="M267.93,166.25v-.6l-1.87-.44a105.74,105.74,0,0,0-16.91-2.5v.59a104.12,104.12,0,0,1,16.78,2.48Z"/><path class="cls-1" d="M293.39,132.8a48.7,48.7,0,0,1,9.7-7.41v-.63h-.18a48.45,48.45,0,0,0-10,7.58c-1.26,1.24-2.47,2.5-3.63,3.81h0a17.28,17.28,0,0,1-1.94-3.4,22.78,22.78,0,0,1-1.78-7.37l0-.33h-.63c0,.13,0,.26,0,.39a24.1,24.1,0,0,0,1.83,7.57,18.81,18.81,0,0,0,2.09,3.63,74.85,74.85,0,0,0-4.65,5.87v1.11a74.92,74.92,0,0,1,5-6.47l.09-.1-.09.1a16.21,16.21,0,0,0,9.69,5.64,34.27,34.27,0,0,0,4.12.57v-.64a34.31,34.31,0,0,1-4-.55,15.55,15.55,0,0,1-9.38-5.51h0l0,0,0,0C290.89,135.34,292.11,134.05,293.39,132.8Z"/><path class="cls-1" d="M292.68,158.4a19,19,0,0,1,2.86,7.54,13.12,13.12,0,0,1-.92,7h.64a13.91,13.91,0,0,0,.87-7,19.68,19.68,0,0,0-3-7.77c-.42-.69-.88-1.37-1.37-2h-.73C291.65,156.83,292.18,157.6,292.68,158.4Z"/><path class="cls-1" d="M293.39,193.39a48.33,48.33,0,0,1,9.7-7.41v-.64h-.18a48.86,48.86,0,0,0-10,7.59q-1.89,1.84-3.63,3.81h0a17.28,17.28,0,0,1-1.94-3.4A22.78,22.78,0,0,1,285.6,186l0-.33h-.63c0,.13,0,.26,0,.39a24.1,24.1,0,0,0,1.83,7.57,18.81,18.81,0,0,0,2.09,3.63,74.85,74.85,0,0,0-4.65,5.87v1.1a76.34,76.34,0,0,1,5-6.46l.09-.1-.09.1a16.21,16.21,0,0,0,9.69,5.64,34.27,34.27,0,0,0,4.12.57v-.64a34.31,34.31,0,0,1-4-.55,15.55,15.55,0,0,1-9.38-5.51h0l0,0,0,0C290.89,195.92,292.11,194.64,293.39,193.39Z"/><path class="cls-1" d="M292.68,219a19.11,19.11,0,0,1,2.86,7.55,13.14,13.14,0,0,1-.92,7h.64a13.93,13.93,0,0,0,.87-7.05,19.63,19.63,0,0,0-3-7.77c-.42-.69-.88-1.37-1.37-2h-.73C291.65,217.41,292.18,218.19,292.68,219Z"/><path class="cls-1" d="M9.43,257.64a44.78,44.78,0,0,1,9.12-6.93v-.49h-.34a45.57,45.57,0,0,0-9.19,7A70.34,70.34,0,0,0,.23,267.67H1A70.15,70.15,0,0,1,9.43,257.64Z"/><path class="cls-1" d="M18.79,291v-.6L16.92,290A103.64,103.64,0,0,0,0,287.47v.58a105.42,105.42,0,0,1,16.79,2.49Z"/><path class="cls-1" d="M9.43,318.23a44.84,44.84,0,0,1,9.12-6.94v-.48h-.34a45.2,45.2,0,0,0-9.19,7A70.78,70.78,0,0,0,.23,328.25H1A70.07,70.07,0,0,1,9.43,318.23Z"/><path class="cls-1" d="M18.79,351.6V351l-1.87-.44A105.86,105.86,0,0,0,0,348.05v.59a104.29,104.29,0,0,1,16.79,2.49Z"/><path class="cls-1" d="M110.21,266.28a14.28,14.28,0,0,1-10.8-8.68,21.21,21.21,0,0,1-1.64-6.8l0-.31h-.59l0,.36a21.67,21.67,0,0,0,1.69,7,14.87,14.87,0,0,0,11.23,9,34.07,34.07,0,0,0,4,.54v-.59A32.23,32.23,0,0,1,110.21,266.28Z"/><path class="cls-1" d="M136.21,257.64a44.73,44.73,0,0,1,9.11-6.93v-.49H145a45.34,45.34,0,0,0-9.2,7A69.67,69.67,0,0,0,127,267.67h.71A69.58,69.58,0,0,1,136.21,257.64Z"/><path class="cls-1" d="M84.46,260.72v-.61l-1.87-.44a106,106,0,0,0-16.92-2.5v.59a105.36,105.36,0,0,1,16.79,2.48Z"/><path class="cls-1" d="M44.24,257.56a48,48,0,0,1,9.7-7.41v-.64h-.18a49.42,49.42,0,0,0-10,7.59q-1.89,1.84-3.63,3.81h0a17.28,17.28,0,0,1-1.94-3.4,23,23,0,0,1-1.78-7.37l0-.34h-.63c0,.14,0,.27,0,.4a23.83,23.83,0,0,0,1.83,7.57,18,18,0,0,0,2.09,3.62,74.64,74.64,0,0,0-4.66,5.88v1.1a74.47,74.47,0,0,1,5.06-6.46l.08-.1-.08.1a16.16,16.16,0,0,0,9.68,5.64,34.27,34.27,0,0,0,4.12.57v-.64a33.86,33.86,0,0,1-4-.55,15.6,15.6,0,0,1-9.39-5.51h0l0,0,0,0C41.74,260.09,43,258.81,44.24,257.56Z"/><path class="cls-1" d="M43.53,283.15a19.15,19.15,0,0,1,2.87,7.54,13.36,13.36,0,0,1-.92,7h.63a13.93,13.93,0,0,0,.87-7.05A19.6,19.6,0,0,0,44,282.85q-.64-1-1.38-2h-.73C42.5,281.58,43,282.36,43.53,283.15Z"/><path class="cls-1" d="M75.1,287.93A44.78,44.78,0,0,1,84.22,281v-.48h-.34a45.51,45.51,0,0,0-9.19,7A70.85,70.85,0,0,0,65.9,298h.72A70.15,70.15,0,0,1,75.1,287.93Z"/><path class="cls-1" d="M113,290c-1.9-.43-3.75-.81-5.58-1.14a22.66,22.66,0,0,0-2.85-6.58c-.46-.75-1-1.48-1.5-2.21h-.79c.63.84,1.21,1.68,1.75,2.54a21.94,21.94,0,0,1,2.7,6.13c-3.6-.64-7.11-1.08-10.57-1.35v.64c3.51.27,7.07.73,10.73,1.38.1.46.18.92.25,1.38a14.43,14.43,0,0,1-1,7.56h.68a15.05,15.05,0,0,0,1-7.65c-.06-.39-.12-.78-.2-1.17q2.59.48,5.29,1.09l2.16.51v-.66Z"/><path class="cls-1" d="M145.56,291v-.6l-1.87-.44a103.64,103.64,0,0,0-16.92-2.5v.58a105.42,105.42,0,0,1,16.79,2.49Z"/><path class="cls-1" d="M232.59,266.28a14.29,14.29,0,0,1-10.81-8.68,21.48,21.48,0,0,1-1.64-6.8c0-.1,0-.21,0-.31h-.59l0,.36a21.94,21.94,0,0,0,1.68,7,14.88,14.88,0,0,0,11.23,9,34.23,34.23,0,0,0,4,.54v-.59A32,32,0,0,1,232.59,266.28Z"/><path class="cls-1" d="M258.58,257.64a44.51,44.51,0,0,1,9.12-6.93v-.49h-.34a45.57,45.57,0,0,0-9.19,7,70.34,70.34,0,0,0-8.79,10.45h.72A70.15,70.15,0,0,1,258.58,257.64Z"/><path class="cls-1" d="M206.83,260.72v-.61l-1.87-.44a105.74,105.74,0,0,0-16.91-2.5v.59a105.25,105.25,0,0,1,16.78,2.48C205.5,260.4,206.17,260.55,206.83,260.72Z"/><path class="cls-1" d="M166.62,257.56a48,48,0,0,1,9.7-7.41v-.64h-.18a48.86,48.86,0,0,0-10,7.59q-1.89,1.84-3.63,3.81h0a17.83,17.83,0,0,1-2-3.4,23,23,0,0,1-1.77-7.37l0-.34h-.64l0,.4a23.83,23.83,0,0,0,1.83,7.57,19,19,0,0,0,2.09,3.62q-2.48,2.83-4.65,5.88v1.1a74.35,74.35,0,0,1,5-6.46l.08-.1-.08.1a16.21,16.21,0,0,0,9.69,5.64,34.27,34.27,0,0,0,4.12.57v-.64a34.31,34.31,0,0,1-4-.55,15.6,15.6,0,0,1-9.38-5.51h0l0,0,0,0C164.12,260.09,165.34,258.81,166.62,257.56Z"/><path class="cls-1" d="M165.9,283.15a19.15,19.15,0,0,1,2.87,7.54,13.16,13.16,0,0,1-.92,7h.63a13.71,13.71,0,0,0,.87-7.05,19.45,19.45,0,0,0-2.95-7.77c-.42-.69-.88-1.37-1.37-2h-.74C164.88,281.58,165.41,282.36,165.9,283.15Z"/><path class="cls-1" d="M197.48,287.93A44.51,44.51,0,0,1,206.6,281v-.48h-.34a45.23,45.23,0,0,0-9.19,7A70.85,70.85,0,0,0,188.28,298H189A68.87,68.87,0,0,1,197.48,287.93Z"/><path class="cls-1" d="M235.39,290q-2.83-.64-5.58-1.14a22.13,22.13,0,0,0-2.85-6.58c-.46-.75-1-1.48-1.49-2.21h-.79c.63.84,1.21,1.68,1.74,2.54a22,22,0,0,1,2.71,6.13c-3.61-.64-7.11-1.08-10.57-1.35v.64c3.51.27,7.07.73,10.73,1.38q.15.69.24,1.38a14.33,14.33,0,0,1-1,7.56h.69a14.94,14.94,0,0,0,.94-7.65c0-.39-.12-.78-.2-1.17q2.61.48,5.29,1.09c.73.16,1.45.33,2.17.51v-.66Z"/><path class="cls-1" d="M267.93,291v-.6l-1.87-.44a103.53,103.53,0,0,0-16.91-2.5v.58a105.3,105.3,0,0,1,16.78,2.49Z"/><path class="cls-1" d="M110.21,326.87a14.3,14.3,0,0,1-10.8-8.68,21.21,21.21,0,0,1-1.64-6.8l0-.31h-.59l0,.36a21.74,21.74,0,0,0,1.69,7,14.87,14.87,0,0,0,11.23,9,34.07,34.07,0,0,0,4,.54v-.59A34.39,34.39,0,0,1,110.21,326.87Z"/><path class="cls-1" d="M136.21,318.23a44.78,44.78,0,0,1,9.11-6.94v-.48H145a45,45,0,0,0-9.2,7A70.1,70.1,0,0,0,127,328.25h.71A69.5,69.5,0,0,1,136.21,318.23Z"/><path class="cls-1" d="M84.46,321.3v-.6l-1.87-.44a106,106,0,0,0-16.92-2.5v.59a104.24,104.24,0,0,1,16.79,2.48Z"/><path class="cls-1" d="M44.24,318.14a48.7,48.7,0,0,1,9.7-7.41v-.63h-.18a49.42,49.42,0,0,0-10,7.59q-1.89,1.85-3.63,3.8h0a16.92,16.92,0,0,1-1.94-3.39,23.18,23.18,0,0,1-1.78-7.37l0-.34h-.63c0,.13,0,.26,0,.39a23.69,23.69,0,0,0,1.83,7.57A17.83,17.83,0,0,0,39.74,322a74.64,74.64,0,0,0-4.66,5.88V329a74.61,74.61,0,0,1,5.06-6.47l.08-.09-.08.09a16.17,16.17,0,0,0,9.68,5.65,36.41,36.41,0,0,0,4.12.57v-.64a33.88,33.88,0,0,1-4-.56,15.54,15.54,0,0,1-9.39-5.5h0l0,0,0,0Q42.33,320,44.24,318.14Z"/><path class="cls-1" d="M43.53,343.74a19.09,19.09,0,0,1,2.87,7.54,13.32,13.32,0,0,1-.92,7h.63A13.91,13.91,0,0,0,47,351.2,19.71,19.71,0,0,0,44,343.43c-.43-.68-.89-1.36-1.38-2h-.73C42.5,342.17,43,343,43.53,343.74Z"/><path class="cls-1" d="M75.1,348.52a44.78,44.78,0,0,1,9.12-6.93v-.49h-.34a45.94,45.94,0,0,0-9.19,7,70.34,70.34,0,0,0-8.79,10.45h.72A70.15,70.15,0,0,1,75.1,348.52Z"/><path class="cls-1" d="M232.59,326.87a14.31,14.31,0,0,1-10.81-8.68,21.48,21.48,0,0,1-1.64-6.8c0-.11,0-.21,0-.31h-.59l0,.36a22,22,0,0,0,1.68,7,14.88,14.88,0,0,0,11.23,9,34.23,34.23,0,0,0,4,.54v-.59A34.08,34.08,0,0,1,232.59,326.87Z"/><path class="cls-1" d="M258.58,318.23a44.57,44.57,0,0,1,9.12-6.94v-.48h-.34a45.2,45.2,0,0,0-9.19,7,70.78,70.78,0,0,0-8.79,10.44h.72A70.07,70.07,0,0,1,258.58,318.23Z"/><path class="cls-1" d="M206.83,321.3v-.6l-1.87-.44a105.74,105.74,0,0,0-16.91-2.5v.59a104.12,104.12,0,0,1,16.78,2.48Z"/><path class="cls-1" d="M166.62,318.14a48.7,48.7,0,0,1,9.7-7.41v-.63h-.18a48.86,48.86,0,0,0-10,7.59q-1.89,1.85-3.63,3.8h0a17.45,17.45,0,0,1-2-3.39,23.18,23.18,0,0,1-1.77-7.37l0-.34h-.64l0,.39a23.69,23.69,0,0,0,1.83,7.57,18.81,18.81,0,0,0,2.09,3.63q-2.48,2.83-4.65,5.88V329a74.49,74.49,0,0,1,5-6.47l.08-.09-.08.09a16.22,16.22,0,0,0,9.69,5.65,36.41,36.41,0,0,0,4.12.57v-.64a34.35,34.35,0,0,1-4-.56,15.54,15.54,0,0,1-9.38-5.5h0l0,0,0,0C164.12,320.68,165.34,319.39,166.62,318.14Z"/><path class="cls-1" d="M235.39,350.62q-2.83-.64-5.58-1.14A22,22,0,0,0,227,342.9c-.46-.75-1-1.48-1.49-2.21h-.79c.63.84,1.21,1.68,1.74,2.54a22.06,22.06,0,0,1,2.71,6.12c-3.61-.63-7.11-1.07-10.57-1.34v.64A106.15,106.15,0,0,1,229.29,350c.1.46.18.91.24,1.38a14.28,14.28,0,0,1-1,7.55h.69a14.89,14.89,0,0,0,.94-7.64c0-.39-.12-.78-.2-1.17q2.61.48,5.29,1.09c.73.16,1.45.33,2.17.51v-.66Z"/><path class="cls-1" d="M267.93,351.6V351l-1.87-.44a105.74,105.74,0,0,0-16.91-2.5v.59a104.18,104.18,0,0,1,16.78,2.49Z"/><path class="cls-1" d="M293.39,257.56a48,48,0,0,1,9.7-7.41v-.64h-.18a48.86,48.86,0,0,0-10,7.59q-1.89,1.84-3.63,3.81h0a17.28,17.28,0,0,1-1.94-3.4,22.78,22.78,0,0,1-1.78-7.37l0-.34h-.63c0,.14,0,.27,0,.4a24.1,24.1,0,0,0,1.83,7.57,19,19,0,0,0,2.09,3.62q-2.47,2.83-4.65,5.88v1.1a76.34,76.34,0,0,1,5-6.46l.09-.1-.09.1a16.21,16.21,0,0,0,9.69,5.64,34.27,34.27,0,0,0,4.12.57v-.64a34.31,34.31,0,0,1-4-.55,15.6,15.6,0,0,1-9.38-5.51h0l0,0,0,0C290.89,260.09,292.11,258.81,293.39,257.56Z"/><path class="cls-1" d="M292.68,283.15a19.12,19.12,0,0,1,2.86,7.54,13.16,13.16,0,0,1-.92,7h.64a13.93,13.93,0,0,0,.87-7.05,19.63,19.63,0,0,0-3-7.77c-.42-.69-.88-1.37-1.37-2h-.73C291.65,281.58,292.18,282.36,292.68,283.15Z"/><path class="cls-1" d="M293.39,318.14a48.7,48.7,0,0,1,9.7-7.41v-.63h-.18a48.86,48.86,0,0,0-10,7.59q-1.89,1.85-3.63,3.8h0a16.92,16.92,0,0,1-1.94-3.39,22.91,22.91,0,0,1-1.78-7.37l0-.34h-.63c0,.13,0,.26,0,.39a24,24,0,0,0,1.83,7.57,18.81,18.81,0,0,0,2.09,3.63q-2.47,2.83-4.65,5.88V329a76.48,76.48,0,0,1,5-6.47l.09-.09-.09.09a16.22,16.22,0,0,0,9.69,5.65,36.41,36.41,0,0,0,4.12.57v-.64a34.35,34.35,0,0,1-4-.56,15.54,15.54,0,0,1-9.38-5.5h0l0,0,0,0C290.89,320.68,292.11,319.39,293.39,318.14Z"/><path class="cls-1" d="M292.68,343.74a19.07,19.07,0,0,1,2.86,7.54,13.12,13.12,0,0,1-.92,7h.64a13.91,13.91,0,0,0,.87-7.05,19.74,19.74,0,0,0-3-7.77c-.42-.68-.88-1.36-1.37-2h-.73C291.65,342.17,292.18,343,292.68,343.74Z"/><path class="cls-1" d="M9.43,382.4a44.48,44.48,0,0,1,9.12-6.94V375h-.34A45.2,45.2,0,0,0,9,382,70.78,70.78,0,0,0,.23,392.42H1A70.07,70.07,0,0,1,9.43,382.4Z"/><path class="cls-1" d="M18.79,415.77v-.61l-1.87-.44A105.86,105.86,0,0,0,0,412.22v.59a104.29,104.29,0,0,1,16.79,2.49C17.46,415.45,18.12,415.6,18.79,415.77Z"/><path class="cls-1" d="M9.43,443a44.78,44.78,0,0,1,9.12-6.93v-.48h-.34a45.2,45.2,0,0,0-9.19,7A70.26,70.26,0,0,0,.23,453H1A70.15,70.15,0,0,1,9.43,443Z"/><path class="cls-1" d="M18.79,476.35v-.6l-1.87-.44A105.86,105.86,0,0,0,0,472.81v.59a105.36,105.36,0,0,1,16.79,2.48Z"/><path class="cls-1" d="M110.21,391a14.3,14.3,0,0,1-10.8-8.68,21.21,21.21,0,0,1-1.64-6.8l0-.31h-.59l0,.36a21.74,21.74,0,0,0,1.69,7,14.89,14.89,0,0,0,11.23,9,34,34,0,0,0,4,.53v-.58A34.39,34.39,0,0,1,110.21,391Z"/><path class="cls-1" d="M136.21,382.4a44.43,44.43,0,0,1,9.11-6.94V375H145a45,45,0,0,0-9.2,7A70.1,70.1,0,0,0,127,392.42h.71A69.5,69.5,0,0,1,136.21,382.4Z"/><path class="cls-1" d="M84.46,385.47v-.6l-1.87-.44a106,106,0,0,0-16.92-2.5v.59A104.24,104.24,0,0,1,82.46,385Z"/><path class="cls-1" d="M44.24,382.31a48.7,48.7,0,0,1,9.7-7.41v-.63h-.18a49.42,49.42,0,0,0-10,7.59q-1.89,1.84-3.63,3.8h0a16.92,16.92,0,0,1-1.94-3.39,23.18,23.18,0,0,1-1.78-7.37l0-.34h-.63c0,.13,0,.26,0,.39a23.76,23.76,0,0,0,1.83,7.57,17.83,17.83,0,0,0,2.09,3.63A74.64,74.64,0,0,0,35.08,392v1.1a74.61,74.61,0,0,1,5.06-6.47l.08-.09-.08.09a16.17,16.17,0,0,0,9.68,5.65,36.41,36.41,0,0,0,4.12.57v-.64a36.12,36.12,0,0,1-4-.56,15.54,15.54,0,0,1-9.39-5.5h0l0,0,0,0Q42.33,384.19,44.24,382.31Z"/><path class="cls-1" d="M43.53,407.91a19.09,19.09,0,0,1,2.87,7.54,13.32,13.32,0,0,1-.92,7h.63a13.91,13.91,0,0,0,.87-7.05A19.71,19.71,0,0,0,44,407.6c-.43-.68-.89-1.36-1.38-2h-.73C42.5,406.34,43,407.12,43.53,407.91Z"/><path class="cls-1" d="M75.1,412.69a44.78,44.78,0,0,1,9.12-6.93v-.49h-.34a45.57,45.57,0,0,0-9.19,7,70.34,70.34,0,0,0-8.79,10.45h.72A70.15,70.15,0,0,1,75.1,412.69Z"/><path class="cls-1" d="M113,414.79c-1.9-.43-3.75-.81-5.58-1.15a22.49,22.49,0,0,0-2.85-6.57c-.46-.75-1-1.48-1.5-2.21h-.79c.63.84,1.21,1.68,1.75,2.54a22,22,0,0,1,2.7,6.12c-3.6-.63-7.11-1.08-10.57-1.34v.64a106.15,106.15,0,0,1,10.73,1.38c.1.45.18.91.25,1.37a14.4,14.4,0,0,1-1,7.56h.68a15,15,0,0,0,1-7.64c-.06-.39-.12-.78-.2-1.17q2.59.48,5.29,1.09,1.08.24,2.16.51v-.66Z"/><path class="cls-1" d="M145.56,415.77v-.61l-1.87-.44a105.86,105.86,0,0,0-16.92-2.5v.59a104.29,104.29,0,0,1,16.79,2.49C144.23,415.45,144.89,415.6,145.56,415.77Z"/><path class="cls-1" d="M232.59,391a14.31,14.31,0,0,1-10.81-8.68,21.48,21.48,0,0,1-1.64-6.8c0-.11,0-.21,0-.31h-.59l0,.36a22,22,0,0,0,1.68,7,14.91,14.91,0,0,0,11.23,9,34.2,34.2,0,0,0,4,.53v-.58A34.08,34.08,0,0,1,232.59,391Z"/><path class="cls-1" d="M258.58,382.4a44.21,44.21,0,0,1,9.12-6.94V375h-.34a45.2,45.2,0,0,0-9.19,7,70.78,70.78,0,0,0-8.79,10.44h.72A70.07,70.07,0,0,1,258.58,382.4Z"/><path class="cls-1" d="M206.83,385.47v-.6l-1.87-.44a105.74,105.74,0,0,0-16.91-2.5v.59A104.12,104.12,0,0,1,204.83,385Z"/><path class="cls-1" d="M166.62,382.31a48.7,48.7,0,0,1,9.7-7.41v-.63h-.18a48.86,48.86,0,0,0-10,7.59q-1.89,1.84-3.63,3.8h0a17.45,17.45,0,0,1-2-3.39,23.18,23.18,0,0,1-1.77-7.37l0-.34h-.64l0,.39a23.76,23.76,0,0,0,1.83,7.57,18.81,18.81,0,0,0,2.09,3.63q-2.48,2.84-4.65,5.88v1.1a74.49,74.49,0,0,1,5-6.47l.08-.09-.08.09a16.22,16.22,0,0,0,9.69,5.65,36.41,36.41,0,0,0,4.12.57v-.64a36.63,36.63,0,0,1-4-.56,15.54,15.54,0,0,1-9.38-5.5h0l0,0,0,0C164.12,384.85,165.34,383.56,166.62,382.31Z"/><path class="cls-1" d="M165.9,407.91a19.09,19.09,0,0,1,2.87,7.54,13.12,13.12,0,0,1-.92,7h.63a13.7,13.7,0,0,0,.87-7.05,19.56,19.56,0,0,0-2.95-7.77c-.42-.68-.88-1.36-1.37-2h-.74C164.88,406.34,165.41,407.12,165.9,407.91Z"/><path class="cls-1" d="M197.48,412.69a44.51,44.51,0,0,1,9.12-6.93v-.49h-.34a45.29,45.29,0,0,0-9.19,7,70.34,70.34,0,0,0-8.79,10.45H189A68.87,68.87,0,0,1,197.48,412.69Z"/><path class="cls-1" d="M235.39,414.79q-2.83-.65-5.58-1.15a22,22,0,0,0-2.85-6.57c-.46-.75-1-1.48-1.49-2.21h-.79c.63.84,1.21,1.68,1.74,2.54a22.06,22.06,0,0,1,2.71,6.12c-3.61-.63-7.11-1.08-10.57-1.34v.64a106.15,106.15,0,0,1,10.73,1.38c.1.45.18.91.24,1.37a14.3,14.3,0,0,1-1,7.56h.69a14.89,14.89,0,0,0,.94-7.64c0-.39-.12-.78-.2-1.17q2.61.48,5.29,1.09c.73.16,1.45.33,2.17.51v-.66Z"/><path class="cls-1" d="M267.93,415.77v-.61l-1.87-.44a105.74,105.74,0,0,0-16.91-2.5v.59a104.18,104.18,0,0,1,16.78,2.49C266.6,415.45,267.27,415.6,267.93,415.77Z"/><path class="cls-1" d="M110.21,451.63a14.31,14.31,0,0,1-10.8-8.69,21.15,21.15,0,0,1-1.64-6.79l0-.31h-.59l0,.36a21.8,21.8,0,0,0,1.69,7,14.86,14.86,0,0,0,11.23,9,32.05,32.05,0,0,0,4,.54v-.59A32.19,32.19,0,0,1,110.21,451.63Z"/><path class="cls-1" d="M136.21,443a44.73,44.73,0,0,1,9.11-6.93v-.48H145a45,45,0,0,0-9.2,7A69.6,69.6,0,0,0,127,453h.71A69.58,69.58,0,0,1,136.21,443Z"/><path class="cls-1" d="M84.46,446.06v-.6L82.59,445a103.8,103.8,0,0,0-16.92-2.5v.59a104.24,104.24,0,0,1,16.79,2.48Z"/><path class="cls-1" d="M44.24,442.9a48.7,48.7,0,0,1,9.7-7.41v-.63h-.18a49.42,49.42,0,0,0-10,7.59q-1.89,1.85-3.63,3.8h0a17.2,17.2,0,0,1-1.94-3.39,23.18,23.18,0,0,1-1.78-7.37l0-.34h-.63c0,.13,0,.26,0,.39a23.76,23.76,0,0,0,1.83,7.57,17.83,17.83,0,0,0,2.09,3.63,74.49,74.49,0,0,0-4.66,5.87v1.11a74.61,74.61,0,0,1,5.06-6.47l.08-.09-.08.09a16.11,16.11,0,0,0,9.68,5.64,34.27,34.27,0,0,0,4.12.57v-.64a33.86,33.86,0,0,1-4-.55,15.55,15.55,0,0,1-9.39-5.51h0l0,0,0,0Q42.33,444.78,44.24,442.9Z"/><path class="cls-1" d="M43.53,468.5A19,19,0,0,1,46.4,476a13.32,13.32,0,0,1-.92,7h.63A13.91,13.91,0,0,0,47,476,19.71,19.71,0,0,0,44,468.19c-.43-.69-.89-1.36-1.38-2h-.73C42.5,466.93,43,467.71,43.53,468.5Z"/><path class="cls-1" d="M75.1,473.28a44.84,44.84,0,0,1,9.12-6.94v-.48h-.34a45.57,45.57,0,0,0-9.19,7A70.78,70.78,0,0,0,65.9,483.3h.72A70.07,70.07,0,0,1,75.1,473.28Z"/><path class="cls-1" d="M113,475.37c-1.9-.43-3.75-.81-5.58-1.14a22.66,22.66,0,0,0-2.85-6.58c-.46-.74-1-1.48-1.5-2.2h-.79c.63.83,1.21,1.68,1.75,2.54a22,22,0,0,1,2.7,6.12c-3.6-.63-7.11-1.08-10.57-1.34v.64c3.51.27,7.07.72,10.73,1.37.1.46.18.92.25,1.38a14.4,14.4,0,0,1-1,7.56h.68a15,15,0,0,0,1-7.64c-.06-.39-.12-.78-.2-1.17q2.59.48,5.29,1.08l2.16.51v-.65Z"/><path class="cls-1" d="M145.56,476.35v-.6l-1.87-.44a105.86,105.86,0,0,0-16.92-2.5v.59a105.36,105.36,0,0,1,16.79,2.48Z"/><path class="cls-1" d="M232.59,451.63a14.33,14.33,0,0,1-10.81-8.69,21.41,21.41,0,0,1-1.64-6.79c0-.11,0-.21,0-.31h-.59l0,.36a22.07,22.07,0,0,0,1.68,7,14.87,14.87,0,0,0,11.23,9,32.21,32.21,0,0,0,4,.54v-.59A31.92,31.92,0,0,1,232.59,451.63Z"/><path class="cls-1" d="M258.58,443a44.51,44.51,0,0,1,9.12-6.93v-.48h-.34a45.2,45.2,0,0,0-9.19,7A70.26,70.26,0,0,0,249.38,453h.72A70.15,70.15,0,0,1,258.58,443Z"/><path class="cls-1" d="M206.83,446.06v-.6L205,445a103.53,103.53,0,0,0-16.91-2.5v.59a104.12,104.12,0,0,1,16.78,2.48Z"/><path class="cls-1" d="M166.62,442.9a48.7,48.7,0,0,1,9.7-7.41v-.63h-.18a48.86,48.86,0,0,0-10,7.59q-1.89,1.85-3.63,3.8h0a17.75,17.75,0,0,1-2-3.39,23.18,23.18,0,0,1-1.77-7.37l0-.34h-.64l0,.39a23.76,23.76,0,0,0,1.83,7.57,18.81,18.81,0,0,0,2.09,3.63c-1.65,1.89-3.2,3.84-4.65,5.87v1.11a74.49,74.49,0,0,1,5-6.47l.08-.09-.08.09a16.16,16.16,0,0,0,9.69,5.64,34.27,34.27,0,0,0,4.12.57v-.64a34.31,34.31,0,0,1-4-.55,15.55,15.55,0,0,1-9.38-5.51h0l0,0,0,0C164.12,445.44,165.34,444.15,166.62,442.9Z"/><path class="cls-1" d="M165.9,468.5a19,19,0,0,1,2.87,7.54,13.12,13.12,0,0,1-.92,7h.63a13.7,13.7,0,0,0,.87-7.05,19.56,19.56,0,0,0-2.95-7.77c-.42-.69-.88-1.36-1.37-2h-.74C164.88,466.93,165.41,467.71,165.9,468.5Z"/><path class="cls-1" d="M197.48,473.28a44.57,44.57,0,0,1,9.12-6.94v-.48h-.34a45.29,45.29,0,0,0-9.19,7,70.78,70.78,0,0,0-8.79,10.44H189A68.8,68.8,0,0,1,197.48,473.28Z"/><path class="cls-1" d="M235.39,475.37q-2.83-.64-5.58-1.14a22.13,22.13,0,0,0-2.85-6.58c-.46-.74-1-1.48-1.49-2.2h-.79c.63.83,1.21,1.68,1.74,2.54a22.06,22.06,0,0,1,2.71,6.12c-3.61-.63-7.11-1.08-10.57-1.34v.64c3.51.27,7.07.72,10.73,1.37q.15.69.24,1.38a14.3,14.3,0,0,1-1,7.56h.69a14.89,14.89,0,0,0,.94-7.64c0-.39-.12-.78-.2-1.17q2.61.48,5.29,1.08l2.17.51v-.65Z"/><path class="cls-1" d="M267.93,476.35v-.6l-1.87-.44a105.74,105.74,0,0,0-16.91-2.5v.59a105.25,105.25,0,0,1,16.78,2.48Z"/><path class="cls-1" d="M293.39,382.31a48.7,48.7,0,0,1,9.7-7.41v-.63h-.18a48.86,48.86,0,0,0-10,7.59q-1.89,1.84-3.63,3.8h0a16.92,16.92,0,0,1-1.94-3.39,22.91,22.91,0,0,1-1.78-7.37l0-.34h-.63c0,.13,0,.26,0,.39a24,24,0,0,0,1.83,7.57,18.81,18.81,0,0,0,2.09,3.63q-2.47,2.84-4.65,5.88v1.1a76.48,76.48,0,0,1,5-6.47l.09-.09-.09.09a16.22,16.22,0,0,0,9.69,5.65,36.41,36.41,0,0,0,4.12.57v-.64a36.63,36.63,0,0,1-4-.56,15.54,15.54,0,0,1-9.38-5.5h0l0,0,0,0C290.89,384.85,292.11,383.56,293.39,382.31Z"/><path class="cls-1" d="M292.68,407.91a19.07,19.07,0,0,1,2.86,7.54,13.12,13.12,0,0,1-.92,7h.64a13.91,13.91,0,0,0,.87-7.05,19.74,19.74,0,0,0-3-7.77c-.42-.68-.88-1.36-1.37-2h-.73C291.65,406.34,292.18,407.12,292.68,407.91Z"/><path class="cls-1" d="M293.39,442.9a48.7,48.7,0,0,1,9.7-7.41v-.63h-.18a48.86,48.86,0,0,0-10,7.59q-1.89,1.85-3.63,3.8h0a17.2,17.2,0,0,1-1.94-3.39,22.91,22.91,0,0,1-1.78-7.37l0-.34h-.63c0,.13,0,.26,0,.39a24,24,0,0,0,1.83,7.57,18.81,18.81,0,0,0,2.09,3.63c-1.65,1.89-3.2,3.84-4.65,5.87v1.11a76.48,76.48,0,0,1,5-6.47l.09-.09-.09.09a16.16,16.16,0,0,0,9.69,5.64,34.27,34.27,0,0,0,4.12.57v-.64a34.31,34.31,0,0,1-4-.55,15.55,15.55,0,0,1-9.38-5.51h0l0,0,0,0C290.89,445.44,292.11,444.15,293.39,442.9Z"/><path class="cls-1" d="M292.68,468.5a19,19,0,0,1,2.86,7.54,13.12,13.12,0,0,1-.92,7h.64a13.91,13.91,0,0,0,.87-7.05,19.74,19.74,0,0,0-3-7.77c-.42-.69-.88-1.36-1.37-2h-.73C291.65,466.93,292.18,467.71,292.68,468.5Z"/></svg>