<svg id="Layer_1" data-name="Layer 1" xmlns="http://www.w3.org/2000/svg" viewBox="0 0 12.62 12.62"><defs><style>.cls-1{fill:#231f20;}.cls-2{fill:#fff;fill-rule:evenodd;}</style></defs><circle class="cls-1" cx="6.31" cy="6.31" r="6.31"/><g id="WA_Logo" data-name="WA Logo"><path class="cls-2" d="M8.71,3.89A3.37,3.37,0,0,0,3,6.28,3.31,3.31,0,0,0,3.4,8L2.92,9.71l1.79-.47a3.35,3.35,0,0,0,1.61.41h0A3.37,3.37,0,0,0,8.71,3.89ZM6.32,9.08h0a2.77,2.77,0,0,1-1.43-.39l-.1-.06-1.06.28.28-1L4,7.77A2.8,2.8,0,0,1,8.31,4.3a2.78,2.78,0,0,1,.82,2A2.8,2.8,0,0,1,6.32,9.08ZM7.86,7l-.58-.27a.13.13,0,0,0-.19,0,2.37,2.37,0,0,1-.26.33c0,.06-.1.07-.19,0A2.24,2.24,0,0,1,6,6.68,2.41,2.41,0,0,1,5.5,6.1a.12.12,0,0,1,0-.17l.13-.15a.67.67,0,0,0,.09-.14.19.19,0,0,0,0-.15l-.26-.62c-.07-.17-.14-.14-.19-.15H5.13a.3.3,0,0,0-.23.11,1,1,0,0,0-.29.7A1.69,1.69,0,0,0,5,6.4,3.72,3.72,0,0,0,6.39,7.67a4.6,4.6,0,0,0,.48.18,1.09,1.09,0,0,0,.53,0A.83.83,0,0,0,8,7.48a.71.71,0,0,0,0-.4S7.94,7,7.86,7Z"/></g></svg>