<svg id="Layer_1" data-name="Layer 1" xmlns="http://www.w3.org/2000/svg" viewBox="0 0 244.66 87.42"><defs><style>.cls-1{fill:#231f20;}.cls-2{fill:#f69333;}</style></defs><path class="cls-1" d="M192,25.76a1.89,1.89,0,0,1,0,.23,1.62,1.62,0,0,1,0,.22,1.67,1.67,0,0,1-.28,1,2.59,2.59,0,0,1-.76.75,4.69,4.69,0,0,1-.67.37,7.71,7.71,0,0,1-.77.3,6.21,6.21,0,0,1-.85.21,4.27,4.27,0,0,1-.87.08,4.36,4.36,0,0,1-1.56-.25,3,3,0,0,1-1.1-.68,2.74,2.74,0,0,1-.65-1,3.83,3.83,0,0,1-.22-1.33,4.52,4.52,0,0,1,.16-1.14,8.65,8.65,0,0,1,.37-1.12l1.3.59c-.05.14-.11.28-.16.44a3.81,3.81,0,0,0-.13.45c0,.15-.07.3-.1.43a2.6,2.6,0,0,0,0,.35,1.29,1.29,0,0,0,.52,1.05,2.53,2.53,0,0,0,1.6.42,4.57,4.57,0,0,0,1.34-.2,3.67,3.67,0,0,0,1.05-.48l.06,0-.39-.17-.46-.19-.43-.18-.33-.13.34-1.73h3v1.83Z"/><path class="cls-1" d="M198.17,25.76a2.34,2.34,0,0,1-.71-.1,2.24,2.24,0,0,1-.65-.3,6.39,6.39,0,0,1-.66-.5c-.22-.2-.47-.43-.73-.71a2.21,2.21,0,0,1-.28.63,1.77,1.77,0,0,1-.59.51,3.71,3.71,0,0,1-1,.35,8.13,8.13,0,0,1-1.52.12.78.78,0,0,1-.22,0c-.07,0-.1,0-.1-.07V24s0-.06.1-.08a.78.78,0,0,1,.22,0,8.5,8.5,0,0,0,1.16-.06,2.29,2.29,0,0,0,.62-.17.48.48,0,0,0,.26-.24.85.85,0,0,0,.05-.26,1,1,0,0,0-.26-.6,5.25,5.25,0,0,0-.6-.67q-.34-.33-.69-.63a3.9,3.9,0,0,1-.54-.53l0-.76a1.66,1.66,0,0,1,.2-.64,2.23,2.23,0,0,1,.25-.31,5.16,5.16,0,0,1,.45-.31l.73-.45c.29-.17.6-.35.94-.53l1-.55,1-.52.91-.42v2c-.33.14-.67.29-1,.46l-1,.48c-.33.16-.64.33-.94.49s-.57.32-.81.46c.33.31.66.64,1,1l1.12,1.13.7.71a4.63,4.63,0,0,0,.55.49,2,2,0,0,0,.49.3,1.27,1.27,0,0,0,.52.1h.11v1.83Zm-5.57-8.49,1.73-.92,1.23-.64.84-.42L197,15v.89c-.21.09-.45.2-.7.33l-.88.45-1.18.63-1.61.86Z"/><path class="cls-1" d="M198.28,25.76a.76.76,0,0,1-.21,0c-.07,0-.11,0-.11-.07V24s0-.06.11-.08a.76.76,0,0,1,.21,0h1.42v1.83Z"/><path class="cls-1" d="M199.7,25.76a.78.78,0,0,1-.22,0c-.07,0-.11,0-.11-.07V24s0-.06.11-.08a.78.78,0,0,1,.22,0h1.41v1.83Z"/><path class="cls-1" d="M201.11,25.76a.78.78,0,0,1-.22,0c-.07,0-.11,0-.11-.07V24s0-.06.11-.08a.78.78,0,0,1,.22,0h1.41v1.83Z"/><path class="cls-1" d="M202.52,25.76a.78.78,0,0,1-.22,0c-.07,0-.11,0-.11-.07V24s0-.06.11-.08a.78.78,0,0,1,.22,0h1.41v1.83Z"/><path class="cls-1" d="M203.93,25.76a.78.78,0,0,1-.22,0c-.07,0-.11,0-.11-.07V24s0-.06.11-.08a.78.78,0,0,1,.22,0h1.41v1.83Z"/><path class="cls-1" d="M205.34,25.76a.78.78,0,0,1-.22,0c-.07,0-.11,0-.11-.07V24s0-.06.11-.08a.78.78,0,0,1,.22,0h1.41v1.83Z"/><path class="cls-1" d="M206.75,25.76a.78.78,0,0,1-.22,0c-.07,0-.1,0-.1-.07V24s0-.06.1-.08a.78.78,0,0,1,.22,0h1.41v1.83Z"/><path class="cls-1" d="M208.16,25.76a.83.83,0,0,1-.22,0c-.07,0-.1,0-.1-.07V24s0-.06.1-.08a.83.83,0,0,1,.22,0h1.41v1.83Z"/><path class="cls-1" d="M209.57,25.76a.83.83,0,0,1-.22,0c-.07,0-.1,0-.1-.07V24s0-.06.1-.08a.83.83,0,0,1,.22,0H211v1.83Z"/><path class="cls-1" d="M211.43,23.93c.61,0,.91-.11.91-.33a.35.35,0,0,0-.07-.15,2.36,2.36,0,0,0-.15-.25l-.19-.27-.16-.23,1-1.45.25.36a4.86,4.86,0,0,1,.3.56,4.06,4.06,0,0,1,.26.67,2.46,2.46,0,0,1,.12.76,2.09,2.09,0,0,1-.59,1.61,2.45,2.45,0,0,1-1.73.55H211a.83.83,0,0,1-.22,0c-.07,0-.1,0-.1-.07V24s0-.06.1-.08a.83.83,0,0,1,.22,0Zm1.1-3.25L212,20.3l-.56-.39.42-.53c.12-.17.27-.34.43-.53l.54.39.54.39Z"/><path class="cls-1" d="M219,25.76a4,4,0,0,1-.48,1.29,5.56,5.56,0,0,1-.83,1.05,8,8,0,0,1-1,.86c-.38.26-.76.5-1.14.71l-1.53-1.16,1-.54a10.33,10.33,0,0,0,1-.63,7.56,7.56,0,0,0,.87-.72,3,3,0,0,0,.62-.86H217a1.86,1.86,0,0,1-1.35-.46,1.81,1.81,0,0,1-.47-1.36,2.82,2.82,0,0,1,.15-.89,3,3,0,0,1,.41-.84,2.15,2.15,0,0,1,.62-.62,1.38,1.38,0,0,1,.78-.24,1.33,1.33,0,0,1,.78.23,2.14,2.14,0,0,1,.6.6,3.47,3.47,0,0,1,.4.82,5.3,5.3,0,0,1,.24.93h.21v1.83ZM217.12,23a.5.5,0,0,0-.4.22.7.7,0,0,0-.18.46q0,.21.3.21h.93c0-.09-.05-.2-.08-.3a.86.86,0,0,0-.13-.29.67.67,0,0,0-.19-.22A.44.44,0,0,0,217.12,23Z"/><path class="cls-1" d="M225.5,25.76a2.34,2.34,0,0,1-.71-.1,2.24,2.24,0,0,1-.65-.3,6.39,6.39,0,0,1-.66-.5c-.22-.2-.47-.43-.73-.71a2.21,2.21,0,0,1-.28.63,1.72,1.72,0,0,1-.6.51,3.63,3.63,0,0,1-1,.35,8.13,8.13,0,0,1-1.52.12.78.78,0,0,1-.22,0c-.07,0-.11,0-.11-.07V24s0-.06.11-.08a.78.78,0,0,1,.22,0,8.5,8.5,0,0,0,1.16-.06,2.29,2.29,0,0,0,.62-.17.51.51,0,0,0,.26-.24.85.85,0,0,0,.05-.26,1,1,0,0,0-.26-.6,5.25,5.25,0,0,0-.6-.67q-.35-.33-.69-.63a3.9,3.9,0,0,1-.54-.53l0-.76a1.5,1.5,0,0,1,.2-.64,2.23,2.23,0,0,1,.25-.31,5.16,5.16,0,0,1,.45-.31l.73-.45c.29-.17.6-.35.94-.53l1-.55,1-.52.9-.42v2c-.33.14-.66.29-1,.46l-1,.48c-.33.16-.65.33-.94.49s-.57.32-.81.46c.33.31.66.64,1,1l1.12,1.13.69.71a7,7,0,0,0,.55.49,2.07,2.07,0,0,0,.5.3,1.27,1.27,0,0,0,.52.1h.11v1.83Zm-5.57-8.49,1.73-.92,1.23-.64.84-.42.57-.28v.89c-.22.09-.45.2-.7.33l-.88.45-1.18.63-1.61.86Z"/><path class="cls-1" d="M226.7,23.93a4.74,4.74,0,0,0,.82-.08,8.52,8.52,0,0,0,.84-.2c.29-.09.56-.19.83-.3a4.53,4.53,0,0,0,.73-.37l-.46-.2c-.17-.07-.32-.14-.47-.19s-.28-.1-.4-.14a1,1,0,0,0-.28-.06.91.91,0,0,0-.47.16,2.4,2.4,0,0,0-.41.36l-1.13-.69c.09-.12.2-.27.35-.45a3.86,3.86,0,0,1,.49-.5,3.09,3.09,0,0,1,.57-.4,1.14,1.14,0,0,1,.6-.17,2.13,2.13,0,0,1,.81.16l.85.37.4.2a3.09,3.09,0,0,0,.58.22,6.34,6.34,0,0,0,.91.18,10.56,10.56,0,0,0,1.34.05l-.53,1.92a7.84,7.84,0,0,0-.83.12,4.91,4.91,0,0,0-.67.19,5.44,5.44,0,0,0-.54.25l-.49.27-.74.41a6.33,6.33,0,0,1-.79.36,4.85,4.85,0,0,1-.89.26,4.64,4.64,0,0,1-1,.1h-1.09l-.22,0c-.07,0-.1,0-.1-.07V24s0-.06.1-.08l.22,0Zm.75,4c.13-.19.26-.36.39-.53s.27-.34.4-.53l.86.65.61-.73.55.39.55.38c-.14.18-.27.36-.41.53l-.41.52-.85-.65-.61.73Zm1,1.45c.14-.15.26-.3.38-.45l.37-.44.47.39.48.36a5.85,5.85,0,0,0-.38.49c-.13.16-.25.33-.39.49Z"/><path class="cls-1" d="M241.9,25.76a3.13,3.13,0,0,1-.86-.1,1.79,1.79,0,0,1-.64-.29,1.67,1.67,0,0,1-.45-.5,3,3,0,0,1-.31-.67,5.29,5.29,0,0,1-.76.27,3.28,3.28,0,0,1-.71.09,1.25,1.25,0,0,1-1.09-.48,1.91,1.91,0,0,1-.35-1.15,1.79,1.79,0,0,1,.21-.86,3.17,3.17,0,0,1,.53-.73,4.3,4.3,0,0,1,.69-.59,7.18,7.18,0,0,1,.7-.42l-.08-.52,1.3-1,.74,4.18a1.35,1.35,0,0,0,.3.68,1.05,1.05,0,0,0,.78.22Zm-2.63-3.06s0-.08,0-.16,0-.17-.05-.27,0-.19,0-.27a.91.91,0,0,0,0-.16l-.27.16a2.7,2.7,0,0,0-.36.26,1.74,1.74,0,0,0-.3.31.35.35,0,0,0-.1.3c0,.09.06.13.17.13a1,1,0,0,0,.37,0,2.22,2.22,0,0,0,.39-.12A1.58,1.58,0,0,0,239.27,22.7Z"/><path class="cls-1" d="M242.45,28.66l-.56-.39-.56-.39.42-.53c.12-.16.27-.34.43-.53l.54.39.54.39Zm-.1-4.73q.9,0,.9-.33a.43.43,0,0,0-.06-.15L243,23.2l-.19-.27c-.06-.1-.12-.17-.15-.23l1-1.45a4.12,4.12,0,0,1,.25.36,4.86,4.86,0,0,1,.31.56,5.2,5.2,0,0,1,.26.67,2.79,2.79,0,0,1,.11.76,2.09,2.09,0,0,1-.59,1.61,2.44,2.44,0,0,1-1.72.55h-.45a.78.78,0,0,1-.22,0c-.07,0-.11,0-.11-.07V24s0-.06.11-.08a.78.78,0,0,1,.22,0Z"/><path class="cls-1" d="M188.13,42l-3,.83-.11-.52,3-.89Z"/><path class="cls-1" d="M186.31,40a4.32,4.32,0,0,1-1.08-.13,2.75,2.75,0,0,1-.94-.4l.53-.91a1.66,1.66,0,0,0,.74.33,5.55,5.55,0,0,0,.82.07l.55,0a2.07,2.07,0,0,0,.57-.13,1.18,1.18,0,0,0,.44-.28.68.68,0,0,0,.19-.49,1.29,1.29,0,0,0-.22-.7,3.41,3.41,0,0,0-.53-.61,5.56,5.56,0,0,0-.67-.5l-.6-.38.42-1.07a9.82,9.82,0,0,1,.87.65,5.08,5.08,0,0,1,.76.78,4.07,4.07,0,0,1,.54.89,2.74,2.74,0,0,1,.2,1,1.46,1.46,0,0,1-.25.89,1.91,1.91,0,0,1-.62.58,2.76,2.76,0,0,1-.84.32A4.61,4.61,0,0,1,186.31,40Z"/><path class="cls-1" d="M192.22,39.84a2.94,2.94,0,0,1-.36,1.3,4.63,4.63,0,0,1-.81,1.12,6.6,6.6,0,0,1-1.06.92,9.18,9.18,0,0,1-1.12.67l-.65-.73a10.59,10.59,0,0,0,1.1-.6,7.07,7.07,0,0,0,1-.72A5,5,0,0,0,191,41a2.31,2.31,0,0,0,.36-.93,1.93,1.93,0,0,0-.19-.85,6.12,6.12,0,0,0-.43-.69l.7-.8c.12.17.23.33.33.49a3.3,3.3,0,0,0,.29.41,1.74,1.74,0,0,0,.34.28.79.79,0,0,0,.45.12v1A1.09,1.09,0,0,1,192.22,39.84Z"/><path class="cls-1" d="M192.53,39.1s0-.07.1-.08a.82.82,0,0,1,.22,0h1.3a4.56,4.56,0,0,0,.62,0,2.36,2.36,0,0,0,.61-.14,1.15,1.15,0,0,0,.46-.3A.66.66,0,0,0,196,38v-.09a.2.2,0,0,0,0-.09,3.23,3.23,0,0,1-.59.22,2,2,0,0,1-.58.09,1,1,0,0,1-.71-.26,1.17,1.17,0,0,1-.29-.89,2.79,2.79,0,0,1,.11-.69,3.48,3.48,0,0,1,.32-.77,2.67,2.67,0,0,1,.47-.61A.81.81,0,0,1,196,35a2.92,2.92,0,0,1,.47.81,6.23,6.23,0,0,1,.28,1,4.72,4.72,0,0,1,.09.8A2.21,2.21,0,0,1,194.28,40h-1.43a.83.83,0,0,1-.22,0c-.07,0-.1,0-.1-.07Zm2.74-5.48-.94-.65.71-.86.92.65ZM195,37.15a1.35,1.35,0,0,0,.42-.08,1.76,1.76,0,0,0,.39-.18,3.75,3.75,0,0,0-.1-.39,2.26,2.26,0,0,0-.15-.39,1.06,1.06,0,0,0-.2-.29.36.36,0,0,0-.25-.11.33.33,0,0,0-.22.09,1.11,1.11,0,0,0-.19.23,1.73,1.73,0,0,0-.14.31,1.05,1.05,0,0,0-.06.33.58.58,0,0,0,.11.34A.5.5,0,0,0,195,37.15Z"/><path class="cls-1" d="M205.45,40a2,2,0,0,1-1.4-.41,2.26,2.26,0,0,1-.6-1.25l0-.06a2.45,2.45,0,0,1-.76.37,2.94,2.94,0,0,1-.91.15,1.18,1.18,0,0,1-.72-.19,1,1,0,0,1-.36-.47,1.32,1.32,0,0,1,0-.63,1.82,1.82,0,0,1,.23-.64,4.58,4.58,0,0,1,2-1.67l-.14-.77.77-.59.68,3.47c.06.26.11.49.17.7a1.94,1.94,0,0,0,.22.52.87.87,0,0,0,.34.32,1.25,1.25,0,0,0,.55.11h.1v1ZM203,36.12a2.94,2.94,0,0,0-.6.32,3.24,3.24,0,0,0-.56.47c-.28.28-.39.5-.32.67s.28.22.63.18a3.12,3.12,0,0,0,.65-.17,1.74,1.74,0,0,0,.45-.24Z"/><path class="cls-1" d="M206,42.86l-.92-.65.69-.86.93.65Zm-.75-3.76s0-.07.1-.08a.82.82,0,0,1,.22,0h.28a2,2,0,0,0,.89-.17.52.52,0,0,0,.33-.51,1,1,0,0,0-.21-.57c-.13-.2-.26-.38-.38-.54l.72-.78a3.48,3.48,0,0,1,.52.83,2.55,2.55,0,0,1,.19,1c0,1.2-.7,1.8-2.11,1.8h-.23a.83.83,0,0,1-.22,0c-.07,0-.1,0-.1-.07Z"/><path class="cls-1" d="M214.28,39.84a2.81,2.81,0,0,1-.35,1.3,4.63,4.63,0,0,1-.81,1.12,6.6,6.6,0,0,1-1.06.92,9.18,9.18,0,0,1-1.12.67l-.65-.73a11.72,11.72,0,0,0,1.1-.6,6.4,6.4,0,0,0,1-.72,4.24,4.24,0,0,0,.72-.83,2.06,2.06,0,0,0,.36-.93,1.8,1.8,0,0,0-.19-.85,5,5,0,0,0-.43-.69l.71-.8a5.81,5.81,0,0,1,.32.49,4.85,4.85,0,0,0,.3.41,1.49,1.49,0,0,0,.34.28.79.79,0,0,0,.45.12v1A1.12,1.12,0,0,1,214.28,39.84Z"/><path class="cls-1" d="M224,40a1.48,1.48,0,0,1-1.37-.62h0a3.65,3.65,0,0,1-.83.36,7.21,7.21,0,0,1-.92.21c-.31.05-.62.08-.92.1l-.86,0-1,0a4.58,4.58,0,0,1-.79-.08,2,2,0,0,1-.6-.22,1,1,0,0,1-.39-.43,1.19,1.19,0,0,1-1.16.69h-.28a.78.78,0,0,1-.22,0c-.07,0-.11,0-.11-.07V39.1s0-.07.11-.08a.78.78,0,0,1,.22,0H215a.9.9,0,0,0,.79-.3,2,2,0,0,0,.21-1.09l.83-.28a5.92,5.92,0,0,0,.07.88.93.93,0,0,0,.37.65,1.64,1.64,0,0,0,.75.19c.39-.48.77-.91,1.12-1.29a8.8,8.8,0,0,1,1.05-1,4.18,4.18,0,0,1,1-.63,2.7,2.7,0,0,1,1.1-.22,1.38,1.38,0,0,1,.56.12,1.72,1.72,0,0,1,.48.31,1.54,1.54,0,0,1,.33.47,1.38,1.38,0,0,1,.12.56,2.41,2.41,0,0,1-.12.8,3.13,3.13,0,0,1-.33.63,1.22,1.22,0,0,0,.73.2h.37v1ZM221.8,37a1.58,1.58,0,0,0-.76.23,4.76,4.76,0,0,0-.77.55,9.59,9.59,0,0,0-.72.7l-.6.62h.79c.27,0,.54,0,.83,0a7.89,7.89,0,0,0,.85-.1,3.62,3.62,0,0,0,.76-.21,1.82,1.82,0,0,0,.54-.36.79.79,0,0,0,.2-.53.77.77,0,0,0-.1-.42.69.69,0,0,0-.26-.25,1.42,1.42,0,0,0-.36-.14A2.58,2.58,0,0,0,221.8,37Z"/><path class="cls-1" d="M224.47,40a.83.83,0,0,1-.22,0c-.07,0-.1,0-.1-.07V39.1s0-.07.1-.08a.82.82,0,0,1,.22,0h1.31v1Z"/><path class="cls-1" d="M225.78,40l-.22,0c-.07,0-.1,0-.1-.07V39.1s0-.07.1-.08a.86.86,0,0,1,.22,0h1.32v1Z"/><path class="cls-1" d="M234.28,40a2,2,0,0,1-.79-.13,1.26,1.26,0,0,1-.49-.35,1.62,1.62,0,0,1-.3-.53c-.07-.2-.13-.42-.19-.65l-1.08.57c-.36.19-.73.37-1.1.53a8.31,8.31,0,0,1-1.15.41A4.58,4.58,0,0,1,228,40h-.91a.78.78,0,0,1-.22,0c-.07,0-.11,0-.11-.07V39.1s0-.07.11-.08a.78.78,0,0,1,.22,0h.9a5.37,5.37,0,0,0,1.17-.13,6.39,6.39,0,0,0,1-.32,9.76,9.76,0,0,0,.93-.42c.31-.16.63-.31,1-.46-.68-.28-1.23-.5-1.66-.66a3.29,3.29,0,0,0-.84-.24.79.79,0,0,0-.42.12,2.46,2.46,0,0,0-.43.43l-.65-.33c.47-.88.94-1.32,1.4-1.32a2.55,2.55,0,0,1,.92.21l1.1.47a10.69,10.69,0,0,0,1.2.47,3.54,3.54,0,0,0,1.22.22,2.37,2.37,0,0,0,.65-.09l-.22,1a3.05,3.05,0,0,0-1.33.23,1,1,0,0,0,.52.68,3,3,0,0,0,1,.14h.71v1Z"/><path class="cls-1" d="M238.43,40a2.25,2.25,0,0,1-1.1-.21,1.26,1.26,0,0,1-.53-.64,1.55,1.55,0,0,1-.67.65,1.79,1.79,0,0,1-.84.2h0a.78.78,0,0,1-.22,0c-.07,0-.11,0-.11-.07V39.1s0-.07.11-.08a.78.78,0,0,1,.22,0,1.65,1.65,0,0,0,.89-.24.84.84,0,0,0,.39-.79v-.45l.73-.27a4.46,4.46,0,0,0,.06.79,1.32,1.32,0,0,0,.21.55.84.84,0,0,0,.4.31,2.12,2.12,0,0,0,.68.1v1Zm-1.56-3.67-.93-.65.71-.86.92.65Z"/><path class="cls-1" d="M238.27,39.1s0-.07.11-.08a.75.75,0,0,1,.21,0h.22a1,1,0,0,0,.3,0l.22-.06a1.09,1.09,0,0,0,.44-.34,3.52,3.52,0,0,0,.33-.54c.1-.21.19-.41.27-.63a3.6,3.6,0,0,1,.29-.59,1.63,1.63,0,0,1,.37-.44.78.78,0,0,1,.5-.17,1,1,0,0,1,.65.26,2,2,0,0,1,.46.64,3,3,0,0,1,.28.79,3.44,3.44,0,0,1,.09.72,2.2,2.2,0,0,1-.06.5,1.67,1.67,0,0,1-.16.46,1,1,0,0,1-.31.35A.72.72,0,0,1,242,40a1.52,1.52,0,0,1-.44-.08,2.86,2.86,0,0,1-.47-.22,4.83,4.83,0,0,1-.45-.26,4.4,4.4,0,0,1-.35-.27,1.7,1.7,0,0,1-.56.62,1.79,1.79,0,0,1-.94.21h-.24a.76.76,0,0,1-.21,0c-.07,0-.11,0-.11-.07Zm2.46-.72a5.65,5.65,0,0,0,.58.36,1,1,0,0,0,.5.17.24.24,0,0,0,.23-.15,1,1,0,0,0,.07-.36,2.73,2.73,0,0,0,0-.38,1.4,1.4,0,0,0-.13-.36,1.06,1.06,0,0,0-.2-.26.34.34,0,0,0-.24-.11c-.09,0-.21.08-.36.23A2.27,2.27,0,0,0,240.73,38.38Z"/><path class="cls-1" d="M185.35,54a1.7,1.7,0,0,1-.62-.71,3,3,0,0,1-.25-1c0-.36,0-.73,0-1.08V45.83l.89-.6,0,6.46a5.35,5.35,0,0,0,0,.58,1.38,1.38,0,0,0,.15.51.89.89,0,0,0,.36.36,1.33,1.33,0,0,0,.65.14v1A2,2,0,0,1,185.35,54Z"/><path class="cls-1" d="M186.16,53.37s0-.06.11-.07a.78.78,0,0,1,.22,0H188l.16,0a2.18,2.18,0,0,1-.5-.51,1.19,1.19,0,0,1-.17-.63,1.31,1.31,0,0,1,.13-.57A2.44,2.44,0,0,1,188,51a2.56,2.56,0,0,1,.48-.45,2.92,2.92,0,0,1,.52-.32,1.3,1.3,0,0,0-.2-.15,1.4,1.4,0,0,1-.18-.13l.42-1c.31.23.63.49,1,.77a8.77,8.77,0,0,1,.94.89,7.81,7.81,0,0,1,.79,1,3.45,3.45,0,0,1,.5,1,2.8,2.8,0,0,1,.14.89,1.73,1.73,0,0,1-.18.75.81.81,0,0,1-.51.41,1.29,1.29,0,0,1-.86-.09c-.23-.09-.49-.2-.76-.33l-.75-.36a2.76,2.76,0,0,1-.77.33,3.36,3.36,0,0,1-.82.11h-1.2a.78.78,0,0,1-.22,0c-.07,0-.11,0-.11-.07Zm2.77-.79.16.09.21.11.12-.1.07,0a.73.73,0,0,0,.24-.35,1.25,1.25,0,0,0,.07-.4,1.71,1.71,0,0,0,0-.31,1,1,0,0,0-.11-.29,1,1,0,0,0-.19-.22.4.4,0,0,0-.26-.08.66.66,0,0,0-.32.08,1.22,1.22,0,0,0-.29.23,1.33,1.33,0,0,0-.23.3.64.64,0,0,0-.09.3.52.52,0,0,0,.21.4A2.23,2.23,0,0,0,188.93,52.58Zm1.59-1a2.55,2.55,0,0,1-.1.85,2.51,2.51,0,0,1-.33.7l.58.28.38.16c.26.08.42,0,.47-.14a.89.89,0,0,0-.11-.65,4,4,0,0,0-.37-.59C190.88,52,190.71,51.82,190.52,51.61Z"/><path class="cls-1" d="M199.85,50.83a4.36,4.36,0,0,1,.8,2.7,3.53,3.53,0,0,1-.3,1.25,3,3,0,0,1-.72,1,3.62,3.62,0,0,1-1.13.71,4,4,0,0,1-1.47.26,3.15,3.15,0,0,1-1.79-.47,2.54,2.54,0,0,1-1-1.2,3.29,3.29,0,0,1-.2-1.61,4.37,4.37,0,0,1,.56-1.7l.69.31a4.16,4.16,0,0,0-.37,1.85,1.77,1.77,0,0,0,.37,1,2.18,2.18,0,0,0,.82.59,2.71,2.71,0,0,0,1,.18,2.76,2.76,0,0,0,1.07-.21,2.48,2.48,0,0,0,.89-.61,2,2,0,0,0,.5-1,3,3,0,0,0,0-1.27,3.75,3.75,0,0,0-.57-1.26Zm-2.68.22-.93-.65.7-.86.92.65Z"/><path class="cls-1" d="M203.27,54a1.7,1.7,0,0,1-.62-.71,3,3,0,0,1-.25-1,9.87,9.87,0,0,1-.05-1.08V45.83l.89-.6,0,6.46a5.35,5.35,0,0,0,0,.58,1.38,1.38,0,0,0,.15.51.89.89,0,0,0,.36.36,1.33,1.33,0,0,0,.65.14v1A2,2,0,0,1,203.27,54Z"/><path class="cls-1" d="M204.41,54.32a.78.78,0,0,1-.22,0c-.07,0-.11,0-.11-.07v-.85s0-.06.11-.07a.78.78,0,0,1,.22,0h1.31v1Z"/><path class="cls-1" d="M213.88,54.32a1.44,1.44,0,0,1-.82-.19,1,1,0,0,1-.4-.53,1.16,1.16,0,0,1-.54.57,1.88,1.88,0,0,1-1.56,0,1.35,1.35,0,0,1-.56-.55,1.3,1.3,0,0,1-.65.58,2.42,2.42,0,0,1-.82.15,1.68,1.68,0,0,1-.74-.17,1.2,1.2,0,0,1-.53-.56,1.39,1.39,0,0,1-1.34.72h-.2a.78.78,0,0,1-.22,0c-.07,0-.1,0-.1-.07v-.85s0-.06.1-.07a.78.78,0,0,1,.22,0h0c.78,0,1.17-.45,1.17-1.33l.7-.26a5.87,5.87,0,0,0,0,.62,1.74,1.74,0,0,0,.13.5.82.82,0,0,0,.27.34.9.9,0,0,0,.5.13,1.17,1.17,0,0,0,.8-.26,1.27,1.27,0,0,0,.28-1V52l.71-.27a5.87,5.87,0,0,0,.05.59,1.59,1.59,0,0,0,.14.51,1.06,1.06,0,0,0,.29.37.89.89,0,0,0,.52.14,1.07,1.07,0,0,0,.51-.11.81.81,0,0,0,.3-.31,1.36,1.36,0,0,0,.15-.43,2.63,2.63,0,0,0,0-.49l.65-.26c0,.24,0,.45,0,.65a1.47,1.47,0,0,0,.14.5.69.69,0,0,0,.31.32,1.1,1.1,0,0,0,.57.12h.2v1Z"/><path class="cls-1" d="M213.93,53.37s0-.06.11-.07a.78.78,0,0,1,.22,0h.28a2,2,0,0,0,.88-.17.54.54,0,0,0,.33-.51,1.06,1.06,0,0,0-.2-.57c-.14-.21-.27-.39-.39-.55l.72-.77a3.19,3.19,0,0,1,.52.83,2.75,2.75,0,0,1,.2,1c0,1.21-.71,1.81-2.12,1.81h-.22a.78.78,0,0,1-.22,0c-.07,0-.11,0-.11-.07ZM215.6,50l-.93-.65.7-.86.92.64Z"/><path class="cls-1" d="M219.11,54.12l-.72.2c0-.51,0-1.11,0-1.8s0-1.42,0-2.19,0-1.56-.05-2.35,0-1.56-.06-2.28l.92-.37Z"/><path class="cls-1" d="M229.78,54.32a1,1,0,0,1,.31.75,1.36,1.36,0,0,1-.26.8,2.48,2.48,0,0,1-.59.57,4.74,4.74,0,0,1-.86.5,5.41,5.41,0,0,1-1,.34,4.67,4.67,0,0,1-1.11.13,4,4,0,0,1-1.9-.4,2.64,2.64,0,0,1-1.12-1.1,3,3,0,0,1-.3-1.59,4.84,4.84,0,0,1,.58-1.91l.72.27a4.29,4.29,0,0,0-.41,1.39,2.23,2.23,0,0,0,.16,1.17,1.75,1.75,0,0,0,.79.8,3.11,3.11,0,0,0,1.48.3,5.33,5.33,0,0,0,2.35-.58,3.37,3.37,0,0,0,.32-.19,1.29,1.29,0,0,0,.24-.21.34.34,0,0,0,.1-.2.13.13,0,0,0-.09-.14l-1.81-.7c.07-.24.12-.42.15-.57a1.61,1.61,0,0,1,.1-.31.31.31,0,0,1,.14-.14.65.65,0,0,1,.22,0h2.14v1Z"/><path class="cls-1" d="M229.78,53.37s0-.06.1-.07a.82.82,0,0,1,.22,0H231a5.1,5.1,0,0,0,1.18-.12,5.3,5.3,0,0,0,1-.32,6.71,6.71,0,0,0,.85-.42c.28-.15.58-.3.9-.44l-.86-.37-.62-.26a3.47,3.47,0,0,0-.43-.16.84.84,0,0,0-.26-.06,1.25,1.25,0,0,0-.5.12,1.43,1.43,0,0,0-.51.4l-.63-.28a2.65,2.65,0,0,1,.77-1,1.34,1.34,0,0,1,.77-.32,2.24,2.24,0,0,1,1,.26c.35.18.75.35,1.2.53.21.1.4.17.56.24a3.34,3.34,0,0,0,.52.14,4.37,4.37,0,0,0,.56.09c.21,0,.45,0,.73,0l-.24,1-.51,0-.43,0a2.87,2.87,0,0,0-1.09.4l-1.07.63a9.21,9.21,0,0,1-1.22.59,4.49,4.49,0,0,1-1.59.26h-.92a.83.83,0,0,1-.22,0c-.07,0-.1,0-.1-.07Zm3.27-4.3-.93-.65.7-.86.92.65Z"/><path class="cls-1" d="M240.49,54.12a2.94,2.94,0,0,1-.36,1.3,4.83,4.83,0,0,1-.81,1.12,7.14,7.14,0,0,1-1.06.92,9.18,9.18,0,0,1-1.12.67l-.65-.73a11.72,11.72,0,0,0,1.1-.6,9.24,9.24,0,0,0,1-.72,5,5,0,0,0,.72-.83,2.31,2.31,0,0,0,.36-.93,1.81,1.81,0,0,0-.2-.85,5,5,0,0,0-.43-.69l.71-.8c.12.17.23.33.32.48a2.91,2.91,0,0,0,.3.41,1.31,1.31,0,0,0,.34.29.79.79,0,0,0,.45.12v1A1.14,1.14,0,0,1,240.49,54.12Z"/><path class="cls-1" d="M240.8,53.37s0-.06.1-.07a.82.82,0,0,1,.22,0h.28a2,2,0,0,0,.88-.17.53.53,0,0,0,.34-.51,1,1,0,0,0-.21-.57,5.23,5.23,0,0,0-.39-.55l.72-.77a3.24,3.24,0,0,1,.53.83,2.75,2.75,0,0,1,.19,1c0,1.21-.7,1.81-2.11,1.81h-.23a.83.83,0,0,1-.22,0c-.07,0-.1,0-.1-.07Zm1.25,3.77-.92-.65.7-.86.93.65Z"/><path class="cls-1" d="M185.35,68.32a1.7,1.7,0,0,1-.62-.71,3,3,0,0,1-.25-1c0-.37,0-.73,0-1.08V60.1l.89-.59,0,6.46a5.49,5.49,0,0,0,0,.58,1.38,1.38,0,0,0,.15.51.89.89,0,0,0,.36.36,1.34,1.34,0,0,0,.65.13v1A2,2,0,0,1,185.35,68.32Z"/><path class="cls-1" d="M186.16,67.65s0-.06.11-.08l.22,0h1.66a2.18,2.18,0,0,1-.5-.51,1.19,1.19,0,0,1-.17-.63,1.39,1.39,0,0,1,.13-.58,2.62,2.62,0,0,1,.35-.54,2.56,2.56,0,0,1,.48-.45,2.92,2.92,0,0,1,.52-.32,1.3,1.3,0,0,0-.2-.15,1.41,1.41,0,0,1-.18-.14l.42-1c.31.23.63.49,1,.76a11.34,11.34,0,0,1,.94.89,7.89,7.89,0,0,1,.79,1,3.45,3.45,0,0,1,.5,1,2.8,2.8,0,0,1,.14.89,1.73,1.73,0,0,1-.18.75.84.84,0,0,1-.51.41,1.36,1.36,0,0,1-.86-.09c-.23-.09-.49-.2-.76-.33l-.75-.36a2.76,2.76,0,0,1-.77.33,3.36,3.36,0,0,1-.82.11h-1.2a.78.78,0,0,1-.22,0c-.07,0-.11,0-.11-.07Zm2.77-.79.16.09.21.11.12-.1.07-.06a.71.71,0,0,0,.24-.34,1.25,1.25,0,0,0,.07-.4,1.71,1.71,0,0,0,0-.31.92.92,0,0,0-.11-.29.84.84,0,0,0-.19-.22.41.41,0,0,0-.26-.09.68.68,0,0,0-.32.09,1.17,1.17,0,0,0-.29.22,1.66,1.66,0,0,0-.23.31.64.64,0,0,0-.09.3.52.52,0,0,0,.21.4A2.23,2.23,0,0,0,188.93,66.86Zm1.59-1a2.58,2.58,0,0,1-.1.85,2.65,2.65,0,0,1-.33.7l.58.28.38.16c.26.08.42,0,.47-.14a.89.89,0,0,0-.11-.65,3.55,3.55,0,0,0-.37-.59C190.88,66.3,190.71,66.1,190.52,65.89Z"/><path class="cls-1" d="M195.67,68.4a2.63,2.63,0,0,1-.32,1.27,5.51,5.51,0,0,1-.82,1.13,6.81,6.81,0,0,1-1.08.93,9.32,9.32,0,0,1-1.12.68l-.65-.74a9.54,9.54,0,0,0,1.12-.62,6.55,6.55,0,0,0,1-.77,3.85,3.85,0,0,0,.74-.89,2,2,0,0,0,.28-1,1.61,1.61,0,0,0-.21-.79c-.15-.25-.29-.49-.44-.71l.75-.74a4.89,4.89,0,0,1,.57,1.11A3.47,3.47,0,0,1,195.67,68.4Z"/><path class="cls-1" d="M198.28,68.32a1.75,1.75,0,0,1-.61-.71,2.77,2.77,0,0,1-.25-1,10,10,0,0,1,0-1.08V60.1l.89-.59,0,6.46a5.49,5.49,0,0,0,0,.58,1.38,1.38,0,0,0,.15.51.89.89,0,0,0,.36.36,1.31,1.31,0,0,0,.65.13v1A2,2,0,0,1,198.28,68.32Z"/><path class="cls-1" d="M199.1,67.65s0-.06.11-.08l.22,0H200c1,0,1.54-.36,1.54-1.08a1.36,1.36,0,0,0-.26-.74,5.9,5.9,0,0,0-.61-.73c-.23-.24-.46-.45-.7-.66s-.43-.37-.56-.5c0-.61.11-1,.25-1.08A20.86,20.86,0,0,1,202,61.35c.92-.48,1.93-1,3-1.46L204.89,61a3.81,3.81,0,0,0-.53.22l-.82.39-1,.47-1,.5-.79.43-.5.31c1.35,1.13,2,2.15,2,3a2,2,0,0,1-.83,1.66,2.93,2.93,0,0,1-.85.42,3.66,3.66,0,0,1-1,.14h-.24a.78.78,0,0,1-.22,0c-.07,0-.11,0-.11-.07Z"/><path class="cls-1" d="M203.17,71.67c.36-.19.73-.39,1.08-.61a6.57,6.57,0,0,0,1-.73,4,4,0,0,0,.73-.87,2.49,2.49,0,0,0,.37-1,3,3,0,0,1-.46.19,2,2,0,0,1-.5.07,1.49,1.49,0,0,1-.93-.31,1.15,1.15,0,0,1-.4-1,2.66,2.66,0,0,1,.11-.7,2.81,2.81,0,0,1,.3-.71,2,2,0,0,1,.47-.53,1,1,0,0,1,.63-.21,1.12,1.12,0,0,1,.78.28,2,2,0,0,1,.51.71,3.37,3.37,0,0,1,.27.87,5.13,5.13,0,0,1,.08.79,4.08,4.08,0,0,1-.28,1.5,4.72,4.72,0,0,1-.75,1.24,6,6,0,0,1-1.07,1,10.55,10.55,0,0,1-1.26.79Zm2.3-4a1.63,1.63,0,0,0,.45-.06.93.93,0,0,0,.38-.2,2.48,2.48,0,0,0-.25-.74.6.6,0,0,0-.57-.33.58.58,0,0,0-.47.25.84.84,0,0,0-.21.57.41.41,0,0,0,.21.41A1.11,1.11,0,0,0,205.47,67.64Z"/><path class="cls-1" d="M219.59,68.6a1.3,1.3,0,0,1-1.45-1.06,3.58,3.58,0,0,1-1.94,1,16.2,16.2,0,0,1-3.55.34c-.41,0-.83,0-1.27,0a4.63,4.63,0,0,1-1.22-.25,2.31,2.31,0,0,1-.92-.62,1.69,1.69,0,0,1-.36-1.14,2.51,2.51,0,0,1,.11-.72,2.28,2.28,0,0,1,.33-.64l.66.19a2.06,2.06,0,0,0-.21.5,1.84,1.84,0,0,0-.06.47.84.84,0,0,0,.31.69,2.11,2.11,0,0,0,.77.36,4.84,4.84,0,0,0,1,.13l.94,0,1,0c.36,0,.74,0,1.12-.07s.75-.08,1.12-.14a5.41,5.41,0,0,0,1-.25,2.49,2.49,0,0,0,.73-.37.89.89,0,0,0,.36-.52l.07-.38.58-.2a2.74,2.74,0,0,0,.22,1.25.89.89,0,0,0,.89.43h0v1Zm-5.77,2.82-.92-.65.69-.86.93.65Z"/><path class="cls-1" d="M219.82,68.6a.78.78,0,0,1-.22,0c-.07,0-.11,0-.11-.07v-.85s0-.06.11-.08l.22,0h1.31v1Z"/><path class="cls-1" d="M221.13,68.6a.78.78,0,0,1-.22,0c-.07,0-.11,0-.11-.07v-.85s0-.06.11-.08l.22,0h1.31v1Z"/><path class="cls-1" d="M230.6,68.6a1.5,1.5,0,0,1-.82-.19,1.06,1.06,0,0,1-.4-.53,1.16,1.16,0,0,1-.54.57,1.88,1.88,0,0,1-1.56,0,1.35,1.35,0,0,1-.56-.55,1.34,1.34,0,0,1-.65.58,2.42,2.42,0,0,1-.82.15,1.56,1.56,0,0,1-.74-.18,1.14,1.14,0,0,1-.53-.55,1.39,1.39,0,0,1-1.34.72h-.2a.78.78,0,0,1-.22,0c-.07,0-.1,0-.1-.07v-.85s0-.06.1-.08l.22,0h0q1.17,0,1.17-1.32l.7-.26a6.06,6.06,0,0,0,0,.62,1.74,1.74,0,0,0,.13.5.82.82,0,0,0,.27.34.9.9,0,0,0,.5.12,1.16,1.16,0,0,0,.8-.25,1.27,1.27,0,0,0,.28-1v-.11l.71-.27a5.44,5.44,0,0,0,.05.58,1.59,1.59,0,0,0,.14.52,1.06,1.06,0,0,0,.29.37.89.89,0,0,0,.52.14,1,1,0,0,0,.51-.12.72.72,0,0,0,.3-.3,1.46,1.46,0,0,0,.15-.43,2.63,2.63,0,0,0,0-.49l.65-.26c0,.24,0,.45,0,.64a1.53,1.53,0,0,0,.14.51.74.74,0,0,0,.31.32,1.11,1.11,0,0,0,.57.11h.2v1Z"/><path class="cls-1" d="M230.65,67.65s0-.06.11-.08l.22,0h.56c1,0,1.54-.36,1.54-1.08a1.36,1.36,0,0,0-.26-.74,5.9,5.9,0,0,0-.61-.73c-.23-.24-.46-.45-.7-.66s-.43-.37-.56-.5c0-.61.11-1,.25-1.08a20.86,20.86,0,0,1,2.34-1.41c.91-.48,1.93-1,3-1.46L236.44,61a3.81,3.81,0,0,0-.53.22l-.82.39-1,.47-1,.5-.79.43-.5.31c1.35,1.13,2,2.15,2,3a2,2,0,0,1-.83,1.66,2.93,2.93,0,0,1-.85.42,3.72,3.72,0,0,1-1,.14H231a.78.78,0,0,1-.22,0c-.07,0-.11,0-.11-.07Z"/><path class="cls-1" d="M239.75,68.32a1.68,1.68,0,0,1-.61-.71,3,3,0,0,1-.26-1c0-.37,0-.73,0-1.08V60.1l.88-.59V66a5.49,5.49,0,0,0,0,.58,1.38,1.38,0,0,0,.15.51.89.89,0,0,0,.36.36,1.31,1.31,0,0,0,.65.13v1A2,2,0,0,1,239.75,68.32Z"/><path class="cls-1" d="M239.65,70.78l.61-.77.83.6.6-.7.83.61-.64.76-.8-.62-.58.72Zm.92-3.13s0-.06.11-.08l.21,0h.29a2,2,0,0,0,.88-.16.54.54,0,0,0,.33-.51,1.12,1.12,0,0,0-.2-.58l-.39-.54.72-.77a3.19,3.19,0,0,1,.52.83,2.7,2.7,0,0,1,.2,1c0,1.21-.71,1.81-2.12,1.81h-.23a.76.76,0,0,1-.21,0c-.07,0-.11,0-.11-.07Z"/><path class="cls-1" d="M7.46,36.22a2.72,2.72,0,0,0-1.08-.16,1.86,1.86,0,0,0-.5.08,2.26,2.26,0,0,0-.47.22,2.28,2.28,0,0,0-.36.3.48.48,0,0,0-.14.34.21.21,0,0,0,.19.22,2.09,2.09,0,0,0,.5.08l.63.05a2.6,2.6,0,0,1,.64.13,1.23,1.23,0,0,1,.5.32.93.93,0,0,1,.19.63,2.38,2.38,0,0,1-.39,1.35,3.42,3.42,0,0,1-1,1,4.63,4.63,0,0,1-1.32.59,5.38,5.38,0,0,1-1.4.2A4.86,4.86,0,0,1,2,41.35a2.78,2.78,0,0,1-1-.56,2.2,2.2,0,0,1-.6-.85,2.72,2.72,0,0,1-.21-1.07,4,4,0,0,1,.15-1,4.73,4.73,0,0,1,.47-1.1l1,.35a4.25,4.25,0,0,0-.3.72,2.37,2.37,0,0,0-.11.69,1.64,1.64,0,0,0,.12.63,1.34,1.34,0,0,0,.4.5,2,2,0,0,0,.7.33,3.28,3.28,0,0,0,1,.13,4.57,4.57,0,0,0,.9-.11,6.73,6.73,0,0,0,1-.27,3.59,3.59,0,0,0,.76-.38c.21-.15.31-.29.31-.43s-.05-.13-.15-.16A2.63,2.63,0,0,0,6,38.65l-.62,0a6.64,6.64,0,0,1-.73-.07A1,1,0,0,1,4,38.21a1.06,1.06,0,0,1-.21-.68A2.5,2.5,0,0,1,4,36.42a3.25,3.25,0,0,1,.67-.93,3.32,3.32,0,0,1,.93-.63,2.58,2.58,0,0,1,1.05-.23,2.1,2.1,0,0,1,.56.07,1.9,1.9,0,0,1,.53.23Z"/><path class="cls-1" d="M10.12,38.83a1.68,1.68,0,0,1-.64-.6,2.58,2.58,0,0,1-.31-.9,7.66,7.66,0,0,1-.1-1.13c0-.19,0-.46,0-.82s0-.74,0-1.16,0-.84,0-1.28,0-.84,0-1.22l1.28-.52v5.16a1.44,1.44,0,0,0,.23.88.94.94,0,0,0,.76.29V39A2.42,2.42,0,0,1,10.12,38.83Z"/><path class="cls-1" d="M10.92,37.63s0-.06.1-.07a.64.64,0,0,1,.2,0h1.12a1.17,1.17,0,0,1-.24-.66,1.66,1.66,0,0,1,.28-.88,3.1,3.1,0,0,1,.66-.73l-.28-.18.62-1.35c.26.18.59.42,1,.72a10.47,10.47,0,0,1,1.15,1,7.59,7.59,0,0,1,1,1.13,2.24,2.24,0,0,1,.41,1.17,3.21,3.21,0,0,1-.09.78,1.84,1.84,0,0,1-.26.6,1,1,0,0,1-.37.35.55.55,0,0,1-.45,0,7.22,7.22,0,0,1-.91-.32c-.33-.14-.66-.29-1-.47A3.25,3.25,0,0,1,13,39a4.13,4.13,0,0,1-.72.07h-1a.64.64,0,0,1-.2,0c-.07,0-.1,0-.1-.06Zm2.41-.45a2.35,2.35,0,0,0,.38.23.88.88,0,0,0,.48-.36.85.85,0,0,0,.14-.46.49.49,0,0,0-.06-.23,1.56,1.56,0,0,0-.16-.2.66.66,0,0,0-.2-.14.59.59,0,0,0-.19-.05.44.44,0,0,0-.24.07,1.74,1.74,0,0,0-.22.18,1.31,1.31,0,0,0-.17.24.48.48,0,0,0-.06.21.85.85,0,0,0,0,.22C13.09,37,13.18,37.08,13.33,37.18Zm1.9,0a1.47,1.47,0,0,1-.18.46,3,3,0,0,1-.25.37,3.13,3.13,0,0,0,.32.15,2.08,2.08,0,0,1,.3.13l.29.09c.07,0,.13,0,.18-.16a.79.79,0,0,0-.09-.73,3,3,0,0,0-.55-.63A1.13,1.13,0,0,1,15.23,37.19Z"/><path class="cls-1" d="M25.43,36.22a2.66,2.66,0,0,0-1.08-.16,1.79,1.79,0,0,0-.49.08,2.62,2.62,0,0,0-.48.22,2.17,2.17,0,0,0-.35.3.5.5,0,0,0-.15.34.22.22,0,0,0,.2.22,2,2,0,0,0,.49.08l.64.05a2.6,2.6,0,0,1,.64.13,1.2,1.2,0,0,1,.49.32.93.93,0,0,1,.2.63,2.38,2.38,0,0,1-.39,1.35,3.42,3.42,0,0,1-1,1,4.63,4.63,0,0,1-1.32.59,5.38,5.38,0,0,1-1.4.2,4.77,4.77,0,0,1-1.44-.2,2.78,2.78,0,0,1-1-.56,2.34,2.34,0,0,1-.61-.85,2.91,2.91,0,0,1-.2-1.07,4,4,0,0,1,.15-1,4.69,4.69,0,0,1,.46-1.1l1,.35a5.39,5.39,0,0,0-.31.72,2.37,2.37,0,0,0-.11.69,1.65,1.65,0,0,0,.13.63,1.31,1.31,0,0,0,.39.5,2.17,2.17,0,0,0,.7.33,3.35,3.35,0,0,0,1,.13,4.57,4.57,0,0,0,.9-.11,6.24,6.24,0,0,0,.95-.27,3.68,3.68,0,0,0,.77-.38c.2-.15.31-.29.31-.43s-.05-.13-.15-.16a2.58,2.58,0,0,0-.42-.07l-.61,0a6.64,6.64,0,0,1-.73-.07,1,1,0,0,1-.66-.32,1,1,0,0,1-.22-.68A2.51,2.51,0,0,1,22,36.42a3.41,3.41,0,0,1,.66-.93,3.32,3.32,0,0,1,.93-.63,2.66,2.66,0,0,1,1.06-.23,2.15,2.15,0,0,1,.56.07,1.9,1.9,0,0,1,.53.23Z"/><path class="cls-1" d="M29.39,39a.64.64,0,0,1-.3-.08,1,1,0,0,1-.26-.18,4.18,4.18,0,0,1-.27.88,6,6,0,0,1-.5.92,6.71,6.71,0,0,1-.74.91,5.8,5.8,0,0,1-1,.83l-1.18-.83A6.83,6.83,0,0,0,26,41a6.66,6.66,0,0,0,.85-.73,5.13,5.13,0,0,0,.63-.82,1.6,1.6,0,0,0,.26-.82.79.79,0,0,0-.08-.32,2.79,2.79,0,0,0-.18-.34c-.07-.11-.14-.22-.21-.31l-.17-.24,1-1.08q.15.23.27.45a2.24,2.24,0,0,0,.27.39,1.06,1.06,0,0,0,.31.29.72.72,0,0,0,.4.11Zm-2.93-4,.65-.88.85.56.48-.67,1,.67-.65.88L27.92,35l-.46.67Zm.48-1.44.67-.86.91.61-.64.86Z"/><path class="cls-1" d="M29.09,37.63s0-.06.1-.07a.64.64,0,0,1,.2,0h.86c.44,0,.66-.1.66-.31a.34.34,0,0,0,0-.14,1.07,1.07,0,0,0-.11-.2,2.68,2.68,0,0,0-.22-.32c-.09-.13-.22-.29-.38-.49l.85-1.2a2.28,2.28,0,0,1,.63.9,3.11,3.11,0,0,1,.23,1.16,2.2,2.2,0,0,1-.18.93,1.61,1.61,0,0,1-.48.66,2.08,2.08,0,0,1-.72.39,2.92,2.92,0,0,1-.9.13h-.22a.64.64,0,0,1-.2,0c-.07,0-.1,0-.1-.06Zm.09-4,.65-.89.85.56.48-.66,1,.66-.66.89-.86-.56-.44.66Z"/><path class="cls-1" d="M34.52,38.87l-1.33.35v-7.5l1.33-.52Z"/><path class="cls-1" d="M37.9,39a1,1,0,0,1-.26-.18,3.15,3.15,0,0,1-.43,1,5.59,5.59,0,0,1-.77.93,7.47,7.47,0,0,1-1,.83c-.37.26-.75.5-1.14.73l-1.11-.86c.28-.14.61-.32,1-.54a10.7,10.7,0,0,0,1.12-.72,5.62,5.62,0,0,0,.91-.81,1.24,1.24,0,0,0,.37-.81.79.79,0,0,0-.08-.32,2.79,2.79,0,0,0-.18-.34c-.07-.11-.14-.22-.21-.31L36,37.37l1-1.08q.15.23.27.45a2.24,2.24,0,0,0,.27.39,1.21,1.21,0,0,0,.31.29.75.75,0,0,0,.4.11V39A.67.67,0,0,1,37.9,39Z"/><path class="cls-1" d="M41,39a1.17,1.17,0,0,1-1.2-.68,1.72,1.72,0,0,1-1.52.68H38.2a.69.69,0,0,1-.2,0c-.06,0-.1,0-.1-.06V37.63s0-.06.1-.07a.69.69,0,0,1,.2,0h.07c.65,0,1-.22,1-.66v-.52L40.31,36v.32q0,1.2.78,1.2h.08V39Zm-2.85-4.45.65-.89.85.56.48-.66,1,.66-.66.89-.86-.56-.44.66Z"/><path class="cls-1" d="M40.87,37.63s0-.06.1-.07a.64.64,0,0,1,.2,0h.13a.9.9,0,0,0,.59-.2.69.69,0,0,0,.23-.56V36.4l.91-.31v.4a1.5,1.5,0,0,0,.17.76.54.54,0,0,0,.51.28c.61,0,.91-.27.91-.82v-.49l.92-.28v.65a1.05,1.05,0,0,0,.26.71.88.88,0,0,0,.67.28.54.54,0,0,0,.42-.14.57.57,0,0,0,.13-.37,1.2,1.2,0,0,0-.13-.51,1.44,1.44,0,0,0-.3-.4l.89-1a2.43,2.43,0,0,1,.45.82,2.94,2.94,0,0,1,.15.94,2.91,2.91,0,0,1-.1.77,2.17,2.17,0,0,1-.31.69,1.5,1.5,0,0,1-.51.49,1.23,1.23,0,0,1-.69.19,1.93,1.93,0,0,1-.88-.19,1.22,1.22,0,0,1-.57-.55,1.2,1.2,0,0,1-.49.53,1.52,1.52,0,0,1-.66.2,1.66,1.66,0,0,1-.75-.17,1.24,1.24,0,0,1-.53-.51,1.19,1.19,0,0,1-.63.52,2,2,0,0,1-.79.16.64.64,0,0,1-.2,0c-.07,0-.1,0-.1-.06Z"/><path class="cls-1" d="M50.71,38.87l-1.33.35v-7.5l1.33-.52Z"/><path class="cls-1" d="M60.41,39a.9.9,0,0,1,0,.46,1.59,1.59,0,0,1-.13.46,2.57,2.57,0,0,1-.87,1,4.07,4.07,0,0,1-1.28.6,4.68,4.68,0,0,1-1.45.14,3.54,3.54,0,0,1-1.36-.34,2.49,2.49,0,0,1-1-.85A2.33,2.33,0,0,1,54,39.11,3.41,3.41,0,0,1,54.14,38a5.45,5.45,0,0,1,.42-1l1,.35c-.1.22-.2.47-.3.74a2.42,2.42,0,0,0-.14.77,1.47,1.47,0,0,0,.2.79,1.27,1.27,0,0,0,.52.48,2.07,2.07,0,0,0,.73.2,4.6,4.6,0,0,0,.83,0,5.3,5.3,0,0,0,.81-.18,4.25,4.25,0,0,0,.7-.28c.16-.09.25-.16.26-.21s0-.1-.1-.13L57.64,39a1.17,1.17,0,0,1,.08-.25c0-.1.08-.21.13-.32s.08-.21.13-.31a.89.89,0,0,1,.13-.24.88.88,0,0,1,.29-.31,1,1,0,0,1,.45-.08h1.62V39Z"/><path class="cls-1" d="M60.17,37.63s0-.06.1-.07a.69.69,0,0,1,.2,0H62.3a3.09,3.09,0,0,0,.56-.09,6.64,6.64,0,0,0,.76-.23l1.23-.46-1.15-.32c-.27-.07-.47-.12-.6-.17a.67.67,0,0,0-.47,0,1.2,1.2,0,0,0-.37.31l-.9-.62a3.8,3.8,0,0,1,.79-1,1.1,1.1,0,0,1,.91-.23c.3,0,.59.11.89.19l.91.24,1,.26c.33.08.69.15,1.07.21l.52,0,.5,0-.41,1.48a5.34,5.34,0,0,0-.54,0,3.19,3.19,0,0,0-.45,0,2.51,2.51,0,0,0-.42.13,3.09,3.09,0,0,0-.49.24l-1.1.65a7.94,7.94,0,0,1-.85.46,4.12,4.12,0,0,1-.92.27,7.47,7.47,0,0,1-1.29.09h-1a.69.69,0,0,1-.2,0c-.06,0-.1,0-.1-.06Z"/><path class="cls-1" d="M70.54,38.87l-1.33.35v-7.5l1.33-.52Z"/><path class="cls-1" d="M73.91,39a.94.94,0,0,1-.25-.18,3.18,3.18,0,0,1-.44,1,5.08,5.08,0,0,1-.76.93,7.57,7.57,0,0,1-1,.83,13,13,0,0,1-1.14.73l-1.1-.86c.28-.14.61-.32,1-.54a11.86,11.86,0,0,0,1.12-.72,5.14,5.14,0,0,0,.9-.81,1.25,1.25,0,0,0,.38-.81.79.79,0,0,0-.08-.32c0-.11-.12-.23-.18-.34s-.14-.22-.21-.31L72,37.37l1-1.08c.1.15.18.3.27.45a2.94,2.94,0,0,0,.26.39,1.24,1.24,0,0,0,.32.29.72.72,0,0,0,.4.11V39A.71.71,0,0,1,73.91,39Z"/><path class="cls-1" d="M73.92,37.63s0-.06.1-.07a.64.64,0,0,1,.2,0h.46a3.07,3.07,0,0,1,.24-.29l.26-.28q0-.39.06-.84c0-.29,0-.57,0-.83,0-.53,0-1.08-.05-1.65s-.09-1.2-.16-1.92l1.36-.52v4.48a6.29,6.29,0,0,1,1-.72,1.91,1.91,0,0,1,1-.29,1.55,1.55,0,0,1,1.14.43A1.45,1.45,0,0,1,80,36.19a2.25,2.25,0,0,1-.37,1.32,3.42,3.42,0,0,1-.93.89,4,4,0,0,1-1.21.49,5.32,5.32,0,0,1-1.2.15h-2a.64.64,0,0,1-.2,0c-.07,0-.1,0-.1-.06ZM78,36.09a1.66,1.66,0,0,0-1,.4,12.28,12.28,0,0,0-1.14,1h.71l.56-.05a4.69,4.69,0,0,0,.62-.1,3.39,3.39,0,0,0,.59-.16,1.28,1.28,0,0,0,.43-.25.44.44,0,0,0,.17-.35.34.34,0,0,0-.1-.26.58.58,0,0,0-.24-.15,1.4,1.4,0,0,0-.29-.09A1.32,1.32,0,0,0,78,36.09Z"/><path class="cls-1" d="M6.44,52.92a.9.9,0,0,1,0,.46,1.79,1.79,0,0,1-.14.47,2.52,2.52,0,0,1-.86,1,4.23,4.23,0,0,1-1.29.6,4.65,4.65,0,0,1-1.45.14,3.54,3.54,0,0,1-1.36-.34,2.55,2.55,0,0,1-1-.84A2.38,2.38,0,0,1,0,53a3.75,3.75,0,0,1,.17-1.12,5.48,5.48,0,0,1,.43-1l1,.35a5.69,5.69,0,0,0-.3.74,2.21,2.21,0,0,0-.14.77,1.47,1.47,0,0,0,.19.79,1.27,1.27,0,0,0,.52.48,2.12,2.12,0,0,0,.74.2,3.75,3.75,0,0,0,.82,0A5.71,5.71,0,0,0,4.24,54a3.67,3.67,0,0,0,.69-.28c.17-.09.25-.16.26-.21s0-.1-.1-.13l-1.42-.48c0-.07.05-.15.09-.25s.08-.21.12-.31S4,52.14,4,52a1.29,1.29,0,0,1,.13-.24.89.89,0,0,1,.3-.31,1,1,0,0,1,.44-.08H6.51v1.51Z"/><path class="cls-1" d="M6.51,52.92l-.2,0c-.07,0-.1,0-.1-.07V51.52s0-.07.1-.08a.64.64,0,0,1,.2,0h1.3v1.51Z"/><path class="cls-1" d="M7.81,52.92l-.2,0c-.07,0-.1,0-.1-.07V51.52s0-.07.1-.08a.64.64,0,0,1,.2,0h1.3v1.51Z"/><path class="cls-1" d="M9.11,52.92l-.2,0c-.07,0-.1,0-.1-.07V51.52s0-.07.1-.08a.64.64,0,0,1,.2,0h1.3v1.51Z"/><path class="cls-1" d="M10.41,52.92l-.2,0c-.06,0-.1,0-.1-.07V51.52s0-.07.1-.08a.69.69,0,0,1,.2,0h1.3v1.51Z"/><path class="cls-1" d="M11.71,52.92l-.2,0c-.06,0-.09,0-.09-.07V51.52s0-.07.09-.08l.2,0H13v1.51Z"/><path class="cls-1" d="M12.59,54.94l.78-1,1.08.73-.8,1Zm.13-3.42s0-.07.09-.08l.21,0h.86c.44,0,.66-.1.66-.31a.39.39,0,0,0,0-.14.91.91,0,0,0-.1-.2c-.05-.09-.13-.19-.22-.32L13.81,50l.85-1.19a2.18,2.18,0,0,1,.63.89,3.11,3.11,0,0,1,.23,1.16,2.2,2.2,0,0,1-.18.93,1.82,1.82,0,0,1-.48.66,2.28,2.28,0,0,1-.72.39,2.92,2.92,0,0,1-.9.13H13l-.21,0c-.06,0-.09,0-.09-.07Z"/><path class="cls-1" d="M17.9,52.71a1.58,1.58,0,0,1-.63-.6,2.41,2.41,0,0,1-.32-.89,8,8,0,0,1-.09-1.14c0-.19,0-.46,0-.82s0-.74,0-1.15,0-.85,0-1.29,0-.84,0-1.21L18,45.09v5.15a1.38,1.38,0,0,0,.24.88.92.92,0,0,0,.75.29v1.51A2.45,2.45,0,0,1,17.9,52.71Z"/><path class="cls-1" d="M20.85,54.56l-.65.89-.85-.56-.48.65-1-.65.69-.9.84.57.47-.66Zm-2.15-3s0-.07.1-.08a.69.69,0,0,1,.2,0h.86c.45,0,.67-.1.67-.31a.39.39,0,0,0,0-.14,1.81,1.81,0,0,0-.1-.2l-.22-.32L19.8,50l.84-1.19a2.18,2.18,0,0,1,.63.89,2.93,2.93,0,0,1,.23,1.16,2.38,2.38,0,0,1-.17.93,1.82,1.82,0,0,1-.48.66,2.22,2.22,0,0,1-.73.39,2.84,2.84,0,0,1-.9.13H19l-.2,0c-.06,0-.1,0-.1-.07Z"/><path class="cls-1" d="M24.2,50.16a5.58,5.58,0,0,1,.54.93,2.84,2.84,0,0,1,.2,1.1,3.19,3.19,0,0,1-.2,1.06,5.12,5.12,0,0,1-.54,1.07,6.65,6.65,0,0,1-.86,1,6.88,6.88,0,0,1-1.11.87l-1.09-.87c.28-.16.58-.36.9-.58a6.63,6.63,0,0,0,.86-.71,3.85,3.85,0,0,0,.65-.78,1.61,1.61,0,0,0,.26-.84,1.11,1.11,0,0,0-.21-.59,5.71,5.71,0,0,0-.41-.6Z"/><path class="cls-1" d="M27.57,52.75l-1.33.35V45.61l1.33-.52Z"/><path class="cls-1" d="M30,50.16a4.47,4.47,0,0,1,.54.93,2.67,2.67,0,0,1,.2,1.1,2.61,2.61,0,0,1-.3,1.21,5,5,0,0,1-.8,1.08,7.74,7.74,0,0,1-1.09,1,12.5,12.5,0,0,1-1.22.78l-1.1-.87c.28-.14.62-.32,1-.54a11.84,11.84,0,0,0,1.1-.75,6.61,6.61,0,0,0,.9-.82,1.23,1.23,0,0,0,.37-.8,1.18,1.18,0,0,0-.2-.59,5.71,5.71,0,0,0-.41-.6Zm.55-1.66-.78,1-1.08-.73.79-1.06Z"/><path class="cls-1" d="M33.13,52.71a1.68,1.68,0,0,1-.64-.6,2.6,2.6,0,0,1-.31-.89,9.68,9.68,0,0,1-.1-1.14c0-.19,0-.46,0-.82s0-.74,0-1.15,0-.85,0-1.29,0-.84,0-1.21l1.27-.52v5.15a1.38,1.38,0,0,0,.24.88.92.92,0,0,0,.75.29v1.51A2.45,2.45,0,0,1,33.13,52.71Z"/><path class="cls-1" d="M33.8,54.94l.78-1,1.08.73-.79,1Zm.13-3.42s0-.07.1-.08a.69.69,0,0,1,.2,0h.86c.44,0,.67-.1.67-.31a.39.39,0,0,0,0-.14,1.81,1.81,0,0,0-.1-.2l-.23-.32L35,50l.84-1.19a2.18,2.18,0,0,1,.63.89,2.93,2.93,0,0,1,.23,1.16,2.38,2.38,0,0,1-.17.93,1.73,1.73,0,0,1-.49.66,2.08,2.08,0,0,1-.72.39,2.92,2.92,0,0,1-.9.13h-.22l-.2,0c-.06,0-.1,0-.1-.07Z"/><path class="cls-1" d="M39.15,55.34c.28-.14.61-.31,1-.53s.74-.45,1.09-.7a6.51,6.51,0,0,0,.9-.79,1.38,1.38,0,0,0,.41-.79,1.61,1.61,0,0,1-.41.15,2,2,0,0,1-.48.06,1.38,1.38,0,0,1-1.09-.37,1.36,1.36,0,0,1-.31-.93,3.1,3.1,0,0,1,.09-.73,2.67,2.67,0,0,1,.3-.69,1.84,1.84,0,0,1,.48-.52,1.09,1.09,0,0,1,.67-.21,1.23,1.23,0,0,1,.86.3,2.08,2.08,0,0,1,.54.73,3.37,3.37,0,0,1,.28.92,4.63,4.63,0,0,1,.08.85,3.26,3.26,0,0,1-.26,1.31,4,4,0,0,1-.73,1.08,7.14,7.14,0,0,1-1,.91q-.6.42-1.26.81Zm3.27-4a1.5,1.5,0,0,0-.26-.6.53.53,0,0,0-.46-.25.51.51,0,0,0-.37.17.53.53,0,0,0-.17.41.32.32,0,0,0,.19.32,1,1,0,0,0,.43.09,1.49,1.49,0,0,0,.36-.05Z"/><path class="cls-1" d="M58,52.92a2.41,2.41,0,0,1-.85-.15,3.55,3.55,0,0,1-.77-.41,3.91,3.91,0,0,1-.66-.56,6.13,6.13,0,0,1-.53-.66,1.53,1.53,0,0,1-.28.84,2.13,2.13,0,0,1-.64.59,3.82,3.82,0,0,1-.87.38,8.73,8.73,0,0,1-1,.21,8.54,8.54,0,0,1-1,.09c-.3,0-.57,0-.81,0-2.52,0-3.77-.73-3.77-2.21a3.83,3.83,0,0,1,.48-1.64l1,.29a2.59,2.59,0,0,0-.29.88.8.8,0,0,0,.17.53,1.47,1.47,0,0,0,.43.35,2.12,2.12,0,0,0,.6.2,5,5,0,0,0,.66.09l.62,0h.48l.54,0,.7,0a7,7,0,0,0,.76-.11c.25-.06.48-.12.69-.19a1.82,1.82,0,0,0,.5-.28.57.57,0,0,0,.21-.41.62.62,0,0,0-.13-.31,3.28,3.28,0,0,0-.31-.44c-.13-.16-.27-.31-.42-.48L53,49q-.21-.23-.39-.39a1.77,1.77,0,0,1-.22-.26,2.13,2.13,0,0,1,0-.3,2.7,2.7,0,0,1,.08-.41,3.64,3.64,0,0,1,.11-.39.43.43,0,0,1,.17-.23,21.16,21.16,0,0,1,2.33-1c1-.35,2.1-.73,3.41-1.14l-.16,1.44c-.82.2-1.62.42-2.41.65a24.53,24.53,0,0,0-2.32.81.19.19,0,0,0-.12.09s0,.08.07.13c.33.25.66.54,1,.85s.71.65,1.1,1l.57.54a5.06,5.06,0,0,0,.59.47,2.94,2.94,0,0,0,.63.34,2,2,0,0,0,.75.13h.59v1.51Zm.3-8.39-2.36.76-1.55.53c-.4.14-.7.26-.92.35a4.76,4.76,0,0,0-.51.22l.14-.72c.44-.2,1.09-.45,2-.77s2-.69,3.33-1.13Z"/><path class="cls-1" d="M61.67,52.92a1.15,1.15,0,0,1-1.2-.68,1.7,1.7,0,0,1-1.52.68h-.12l-.2,0c-.06,0-.1,0-.1-.07V51.52s0-.07.1-.08a.69.69,0,0,1,.2,0h.07c.65,0,1-.22,1-.66v-.52l1.06-.34v.32q0,1.2.78,1.2h.08v1.51Zm-.57-4.83-.78,1-1.08-.73.79-1Z"/><path class="cls-1" d="M63.65,54.56l-.65.89-.85-.56-.48.65-1-.65.69-.9.84.57.47-.66Zm-2.15-3s0-.07.1-.08a.64.64,0,0,1,.2,0h.86c.44,0,.66-.1.66-.31a.36.36,0,0,0,0-.14,1.07,1.07,0,0,0-.11-.2,2.68,2.68,0,0,0-.22-.32L62.6,50l.84-1.19a2.18,2.18,0,0,1,.63.89,3.11,3.11,0,0,1,.23,1.16,2.38,2.38,0,0,1-.17.93,1.73,1.73,0,0,1-.49.66,2.08,2.08,0,0,1-.72.39,2.92,2.92,0,0,1-.9.13H61.8l-.2,0c-.07,0-.1,0-.1-.07Z"/><path class="cls-1" d="M71.23,52.92a2.09,2.09,0,0,1-1.07-.28,2.13,2.13,0,0,1-.76-.76,2,2,0,0,1-2.09,1.21,2.26,2.26,0,0,1-1.84-.69l.47-1.2a1.85,1.85,0,0,0,.66.3,3.52,3.52,0,0,0,.92.12,3.08,3.08,0,0,0,.53,0,2.56,2.56,0,0,0,.46-.12,1,1,0,0,0,.33-.22.43.43,0,0,0,.12-.31.65.65,0,0,0,0-.11s0-.16-.1-.33-.15-.44-.28-.8l-.51-1.48,1-.94c.27.87.48,1.57.65,2.11a9.7,9.7,0,0,0,.44,1.26,1.47,1.47,0,0,0,.43.61,1,1,0,0,0,.6.16h.28v1.51Z"/><path class="cls-1" d="M71.19,51.52s0-.07.09-.08l.21,0h.86c.44,0,.66-.1.66-.31A.39.39,0,0,0,73,51a.91.91,0,0,0-.1-.2c0-.09-.13-.19-.22-.32L72.28,50l.85-1.19a2.18,2.18,0,0,1,.63.89A3.11,3.11,0,0,1,74,50.81a2.2,2.2,0,0,1-.18.93,1.82,1.82,0,0,1-.48.66,2.28,2.28,0,0,1-.72.39,2.92,2.92,0,0,1-.9.13h-.22l-.21,0c-.06,0-.09,0-.09-.07Zm2.37-4.38-.79,1-1.08-.73.8-1.05Z"/><path class="cls-1" d="M77.36,52.84a.94.94,0,0,1-.25-.18,3.1,3.1,0,0,1-.44,1.05,5.59,5.59,0,0,1-.76.94,8.38,8.38,0,0,1-1,.82c-.37.26-.75.51-1.14.73l-1.1-.86c.28-.14.61-.32,1-.54a11.86,11.86,0,0,0,1.12-.72,5.53,5.53,0,0,0,.9-.81,1.21,1.21,0,0,0,.37-.8.78.78,0,0,0-.07-.33c-.06-.11-.12-.23-.19-.34l-.2-.31-.17-.23,1-1.09.27.45A2.94,2.94,0,0,0,77,51a1.24,1.24,0,0,0,.32.29.72.72,0,0,0,.4.11v1.51A.58.58,0,0,1,77.36,52.84Z"/><path class="cls-1" d="M77.37,51.52s0-.07.1-.08a.64.64,0,0,1,.2,0h.86c.44,0,.66-.1.66-.31a.78.78,0,0,0,0-.14c0-.05-.06-.11-.11-.2a2.68,2.68,0,0,0-.22-.32L78.46,50l.85-1.19a2.18,2.18,0,0,1,.63.89,3.11,3.11,0,0,1,.23,1.16,2.2,2.2,0,0,1-.18.93,1.71,1.71,0,0,1-.48.66,2.08,2.08,0,0,1-.72.39,2.92,2.92,0,0,1-.9.13h-.22l-.2,0c-.07,0-.1,0-.1-.07Zm.29,3.42.78-1,1.08.73-.8,1Z"/><path class="cls-2" d="M116.21,71.89a6.91,6.91,0,0,1-2.74-2.08,11.45,11.45,0,0,1-4,2.61,12.58,12.58,0,0,1-4.6.9,14.34,14.34,0,0,1-4.65-.74,11,11,0,0,1-3.43-1.81l3.41-5.32a3.65,3.65,0,0,0,1.7.69,13.93,13.93,0,0,0,3,.27,11,11,0,0,0,2.05-.19,9.3,9.3,0,0,0,1.89-.53,6,6,0,0,0,1.46-.82A2,2,0,0,0,111,63.8c-.39-2-.78-3.9-1.17-5.66s-.78-3.66-1.17-5.72l4.95-3.51,2.71,13.94a3.41,3.41,0,0,0,1.17,2.1,4.1,4.1,0,0,0,2.61.72v6.91A10,10,0,0,1,116.21,71.89Z"/><path class="cls-2" d="M121.82,65.67c2.27,0,3.4-.41,3.4-1.23a1.56,1.56,0,0,0-.24-.58,10.46,10.46,0,0,0-.58-.93c-.23-.34-.47-.69-.72-1s-.44-.64-.59-.85L127,55.56q.38.48,1,1.38A18.88,18.88,0,0,1,129.13,59a18.54,18.54,0,0,1,1,2.55,9.5,9.5,0,0,1,.43,2.87,7.85,7.85,0,0,1-2.23,6.06c-1.49,1.39-3.66,2.08-6.49,2.08h-1.7a3.26,3.26,0,0,1-.83-.11c-.26-.07-.4-.16-.4-.26V66.09c0-.14.14-.25.4-.32a3.25,3.25,0,0,1,.83-.1ZM126,53.43,123.87,52c-.7-.48-1.4-1-2.1-1.46.56-.71,1.09-1.37,1.56-2s1-1.29,1.63-2c.7.5,1.39,1,2,1.46l2.05,1.47Z"/><path class="cls-2" d="M140.14,72.42a16.82,16.82,0,0,1-1.83,4.76,19.63,19.63,0,0,1-3,3.91,26.64,26.64,0,0,1-3.8,3.19,44.48,44.48,0,0,1-4.26,2.6l-5.1-4.14c1-.5,2.17-1.15,3.64-1.95A28.6,28.6,0,0,0,130,78a18.58,18.58,0,0,0,3.48-3.56A7,7,0,0,0,135,70.19a2.86,2.86,0,0,0-.27-1.15,8.57,8.57,0,0,0-.64-1.19c-.25-.39-.5-.78-.77-1.15s-.49-.7-.66-1l4.46-4.52.85,1.43a11.66,11.66,0,0,0,1,1.47,6.23,6.23,0,0,0,1.2,1.11,2.42,2.42,0,0,0,1.43.46v6.91A6.42,6.42,0,0,1,140.14,72.42Z"/><path class="cls-2" d="M167.61,84l-11.17,3.4-.75-2.55,11.17-3.41Z"/><path class="cls-2" d="M141.63,72.58a3.18,3.18,0,0,1-.82-.11c-.27-.07-.4-.16-.4-.26V66.09c0-.14.13-.25.4-.32a3.18,3.18,0,0,1,.82-.1H147v6.91Z"/><path class="cls-2" d="M147,72.58a3.18,3.18,0,0,1-.82-.11c-.27-.07-.4-.16-.4-.26V66.09c0-.14.13-.25.4-.32a3.18,3.18,0,0,1,.82-.1h5.32v6.91Z"/><path class="cls-2" d="M152.27,72.58a3.26,3.26,0,0,1-.83-.11c-.26-.07-.4-.16-.4-.26V66.09c0-.14.14-.25.4-.32a3.25,3.25,0,0,1,.83-.1h5.31v6.91Z"/><path class="cls-2" d="M161.8,81.34l-2.1-1.46-2.1-1.46c.56-.71,1.09-1.38,1.56-2s1-1.28,1.63-2c.71.49,1.39,1,2,1.46s1.34,1,2,1.46Zm-2.51-15.67c2.26,0,3.4-.41,3.4-1.23a1.56,1.56,0,0,0-.24-.58,10.46,10.46,0,0,0-.58-.93l-.72-1c-.25-.35-.45-.64-.59-.85l3.94-5.48c.25.32.56.78.95,1.38A18.86,18.86,0,0,1,166.6,59a18.54,18.54,0,0,1,1,2.55,9.5,9.5,0,0,1,.43,2.87,7.86,7.86,0,0,1-2.24,6.06q-2.24,2.09-6.48,2.08h-1.71a3.24,3.24,0,0,1-.82-.11c-.27-.07-.4-.16-.4-.26V66.09c0-.14.13-.25.4-.32a3.23,3.23,0,0,1,.82-.1Z"/><path class="cls-2" d="M112.83,12.66A3.33,3.33,0,0,1,112,12a10.86,10.86,0,0,1-1.48,3.55,17,17,0,0,1-2.61,3.18,27.15,27.15,0,0,1-3.39,2.8c-1.25.88-2.54,1.71-3.86,2.47l-3.75-2.91c.94-.47,2.07-1.08,3.4-1.83a40.23,40.23,0,0,0,3.79-2.45,19.28,19.28,0,0,0,3.06-2.73,4.23,4.23,0,0,0,1.26-2.74,2.71,2.71,0,0,0-.26-1.1,12.93,12.93,0,0,0-.62-1.15c-.24-.38-.47-.73-.71-1.06l-.57-.79,3.4-3.66q.48.75.9,1.5a8.49,8.49,0,0,0,.91,1.34,4.54,4.54,0,0,0,1,1,2.47,2.47,0,0,0,1.37.38v5.12A2.14,2.14,0,0,1,112.83,12.66Z"/><path class="cls-2" d="M123.48,12.93q-3.09,0-4.06-2.3-1.59,2.3-5.16,2.3h-.4a2.59,2.59,0,0,1-.68-.09c-.22-.06-.33-.14-.33-.22V8.16c0-.12.11-.2.33-.26a2.59,2.59,0,0,1,.68-.09h.22c2.21,0,3.31-.75,3.31-2.25V3.79L121,2.65v1.1q0,4.06,2.65,4.06h.26v5.12Zm.44,5.55-2.21,3-2.86-1.89-1.64,2.2-3.44-2.2,2.34-3.05L119,18.48l1.59-2.25Z"/><path class="cls-2" d="M151.34,12.93a22.91,22.91,0,0,1-5-.51,3.9,3.9,0,0,1-1.7-1.79,5.13,5.13,0,0,1-1.8,1.68,4.63,4.63,0,0,1-2.21.57,3.88,3.88,0,0,1-1.94-.53,4.53,4.53,0,0,1-1.63-1.72,5.18,5.18,0,0,1-4.42,2.25,4,4,0,0,1-2-.53A4.5,4.5,0,0,1,129,10.63a4.44,4.44,0,0,1-4.06,2.3h-1.06a2.54,2.54,0,0,1-.68-.09c-.22-.06-.33-.14-.33-.22V8.16c0-.12.11-.2.33-.26a2.54,2.54,0,0,1,.68-.09h1.15c1.23,0,1.85-.74,1.85-2.21V4.06L130.05,3v1a5,5,0,0,0,.66,2.91,2.47,2.47,0,0,0,1.9,1c1.74,0,2.6-.74,2.6-2.21V4.06L138.35,3v1.5A4.3,4.3,0,0,0,138.94,7a2.57,2.57,0,0,0,2.14.77,2.53,2.53,0,0,0,1.79-.6,2.1,2.1,0,0,0,.64-1.61V4.06L146.59,3V4.81c0,.53,0,1,0,1.34a2.26,2.26,0,0,0,.26.93,1.34,1.34,0,0,0,.71.55,37.71,37.71,0,0,0,3.87.18H152v5.12Z"/><path class="cls-2" d="M151.49,8.16c0-.12.11-.2.33-.26a2.59,2.59,0,0,1,.68-.09,7.65,7.65,0,0,0,3-.51,3.75,3.75,0,0,0,1.78-1.52c.36-.59.72-1.22,1.08-1.9A14.69,14.69,0,0,1,159.61,2,6.47,6.47,0,0,1,161.13.57,3.63,3.63,0,0,1,163.18,0a3.34,3.34,0,0,1,2.18.73,5.5,5.5,0,0,1,1.46,1.78,9.24,9.24,0,0,1,.82,2.28A10.71,10.71,0,0,1,167.9,7a9.69,9.69,0,0,1-.18,1.79,5.62,5.62,0,0,1-.61,1.74A4.26,4.26,0,0,1,166,11.82a2.57,2.57,0,0,1-1.65.53,6.39,6.39,0,0,1-2.94-.73A14.24,14.24,0,0,1,158.86,10a8,8,0,0,1-2.65,2.17,8.23,8.23,0,0,1-3.71.75,2.59,2.59,0,0,1-.68-.09c-.22-.06-.33-.14-.33-.22ZM163,4c-.94-.14-1.72.59-2.33,2.21a6.37,6.37,0,0,0,1.5,1,5.74,5.74,0,0,0,1.58.55.7.7,0,0,0,.93-.62,3.37,3.37,0,0,0,0-.93,4.08,4.08,0,0,0-.31-1,3.12,3.12,0,0,0-.55-.81A1.42,1.42,0,0,0,163,4Z"/><path class="cls-2" d="M107.16,46.31l-10,2.61-.31-1.59,9.88-2.78Z"/><path class="cls-2" d="M116.38,41.15a7,7,0,0,1-3.6-.95,6.8,6.8,0,0,1-2.58-2.58c-1.15,2.74-3.51,4.11-7.1,4.11-2.85,0-4.93-.78-6.22-2.34l1.59-4.06a5.92,5.92,0,0,0,2.25,1,11.78,11.78,0,0,0,3.08.4,12,12,0,0,0,1.81-.13,6.77,6.77,0,0,0,1.57-.42,3.16,3.16,0,0,0,1.1-.73,1.48,1.48,0,0,0,.42-1.06,1.28,1.28,0,0,0-.07-.37c0-.16-.16-.54-.35-1.13s-.5-1.48-.92-2.69-1-2.88-1.75-5L109.14,22q1.36,4.41,2.19,7.14a34,34,0,0,0,1.5,4.26,5,5,0,0,0,1.45,2.07,3.45,3.45,0,0,0,2,.55h.93v5.12Z"/><path class="cls-2" d="M119.4,41.15c-.24,0-2.55,0-2.77-.09s-.33-.13-.33-.22V36.39q0-.18.33-.27c.22-.06,2.53-.09,2.77-.09h4.41v5.12Z"/><path class="cls-2" d="M123.81,41.15a2.59,2.59,0,0,1-.68-.09c-.22-.05-.33-.13-.33-.22V36.39q0-.18.33-.27a2.59,2.59,0,0,1,.68-.09h4.41v5.12Z"/><path class="cls-2" d="M128.22,41.15a2.59,2.59,0,0,1-.68-.09c-.22-.05-.33-.13-.33-.22V36.39q0-.18.33-.27a2.59,2.59,0,0,1,.68-.09h4.41v5.12Z"/><path class="cls-2" d="M132.63,41.15a2.59,2.59,0,0,1-.68-.09c-.22-.05-.33-.13-.33-.22V36.39q0-.18.33-.27a2.59,2.59,0,0,1,.68-.09H137v5.12Z"/><path class="cls-2" d="M136,36.39q0-.18.33-.27A2.59,2.59,0,0,1,137,36h.44a3,3,0,0,0,2-.66,2.31,2.31,0,0,0,.79-1.89V32.2l3.09-1.06v1.37a4.93,4.93,0,0,0,.58,2.58,1.87,1.87,0,0,0,1.72.94c2,0,3.08-.92,3.08-2.77V31.58l3.14-.93v2.21a3.4,3.4,0,0,0,.88,2.38,2.9,2.9,0,0,0,2.25,1,1.83,1.83,0,0,0,1.43-.48,1.84,1.84,0,0,0,.42-1.24,3.81,3.81,0,0,0-.44-1.74,4.3,4.3,0,0,0-1-1.35l3-3.44A8.56,8.56,0,0,1,160,30.74a10.08,10.08,0,0,1,.16,5.8,8.29,8.29,0,0,1-1,2.34,5.62,5.62,0,0,1-1.72,1.68,4.46,4.46,0,0,1-2.36.64,6.76,6.76,0,0,1-3-.64,4.07,4.07,0,0,1-1.92-1.88,4.15,4.15,0,0,1-1.68,1.79,4.74,4.74,0,0,1-2.24.68,5.52,5.52,0,0,1-2.54-.57,4.29,4.29,0,0,1-1.79-1.72,4.14,4.14,0,0,1-2.12,1.76,7.23,7.23,0,0,1-2.69.53,2.59,2.59,0,0,1-.68-.09c-.22-.05-.33-.13-.33-.22Zm9.17-10.33,2.21-3L150.28,25l1.63-2.25L155.26,25l-2.2,3-2.91-1.9-1.55,2.25Zm1.64-4.89,2.25-2.91,3.08,2.07L150,23.24Z"/><path class="cls-2" d="M165.39,31.8A17.77,17.77,0,0,1,167.22,35a9.41,9.41,0,0,1,.68,3.73,8.65,8.65,0,0,1-1,4.08,16.1,16.1,0,0,1-2.69,3.69,26.79,26.79,0,0,1-3.7,3.19,45.11,45.11,0,0,1-4.13,2.67l-3.75-3q1.46-.7,3.42-1.86A35.5,35.5,0,0,0,159.76,45a21.48,21.48,0,0,0,3.05-2.8,4.28,4.28,0,0,0,1.25-2.71,3.94,3.94,0,0,0-.68-2c-.46-.73-.92-1.41-1.39-2Z"/></svg>