<svg id="Layer_1" data-name="Layer 1" xmlns="http://www.w3.org/2000/svg" viewBox="0 0 359.77 566.99"><defs><style>.cls-1{fill:#231f20;}.cls-2{fill:#fcba63;}.cls-3{fill:#fff;}.cls-4{fill:#f48120;}</style></defs><rect class="cls-1" width="359.77" height="566.99"/><path class="cls-2" d="M46.9,55.74a10.65,10.65,0,0,1-8-6.46,16.13,16.13,0,0,1-1.22-5.06c0-.08,0-.15,0-.23h-.44a2.45,2.45,0,0,1,0,.27,16.61,16.61,0,0,0,1.26,5.19,11,11,0,0,0,8.35,6.71,23.35,23.35,0,0,0,3,.4v-.43A25.67,25.67,0,0,1,46.9,55.74Z"/><path class="cls-2" d="M270.9,197.74a10.65,10.65,0,0,1-8-6.46,16.13,16.13,0,0,1-1.22-5.06c0-.08,0-.15,0-.23h-.44a2.45,2.45,0,0,1,0,.27,16.61,16.61,0,0,0,1.26,5.19,11,11,0,0,0,8.35,6.71,23.35,23.35,0,0,0,3,.4v-.43A25.67,25.67,0,0,1,270.9,197.74Z"/><path class="cls-2" d="M176.89,116.9a32.8,32.8,0,0,1,6.78-5.16v-.36h-.25a33.41,33.41,0,0,0-6.84,5.21,51.88,51.88,0,0,0-6.54,7.77h.53A51.46,51.46,0,0,1,176.89,116.9Z"/><path class="cls-2" d="M43.69,412a33.43,33.43,0,0,1,6.78-5.16v-.36h-.25a34,34,0,0,0-6.84,5.21,52.93,52.93,0,0,0-6.53,7.77h.53A52.47,52.47,0,0,1,43.69,412Z"/><path class="cls-2" d="M308.24,67.16A33.12,33.12,0,0,1,315,62v-.36h-.26a33.62,33.62,0,0,0-6.83,5.21,51.88,51.88,0,0,0-6.54,7.77h.53A51.38,51.38,0,0,1,308.24,67.16Z"/><path class="cls-2" d="M311.9,522.74a10.65,10.65,0,0,1-8-6.46,16.13,16.13,0,0,1-1.22-5.06c0-.08,0-.15,0-.23h-.44a2.45,2.45,0,0,1,0,.27,16.61,16.61,0,0,0,1.26,5.19,11,11,0,0,0,8.35,6.71,23.35,23.35,0,0,0,3,.4v-.43A25.67,25.67,0,0,1,311.9,522.74Z"/><path class="cls-2" d="M311.9,347.74a10.65,10.65,0,0,1-8-6.46,16.13,16.13,0,0,1-1.22-5.06c0-.08,0-.15,0-.23h-.44a2.45,2.45,0,0,1,0,.27,16.61,16.61,0,0,0,1.26,5.19,11,11,0,0,0,8.35,6.71,23.35,23.35,0,0,0,3,.4v-.43A25.67,25.67,0,0,1,311.9,347.74Z"/><path class="cls-2" d="M222.37,383.89a33.07,33.07,0,0,1,6.78-5.16v-.36h-.25a34,34,0,0,0-6.84,5.21,52.24,52.24,0,0,0-6.53,7.76h.53A51.21,51.21,0,0,1,222.37,383.89Z"/><path class="cls-2" d="M65.75,171.41a33.07,33.07,0,0,1,6.78-5.16v-.36h-.25a34,34,0,0,0-6.84,5.21,51.81,51.81,0,0,0-6.53,7.77h.53A50.76,50.76,0,0,1,65.75,171.41Z"/><path class="cls-2" d="M140.9,498.74a10.65,10.65,0,0,1-8-6.46,16.13,16.13,0,0,1-1.22-5.06c0-.08,0-.15,0-.23h-.44a2.45,2.45,0,0,1,0,.27,16.61,16.61,0,0,0,1.26,5.19,11,11,0,0,0,8.35,6.71,23.35,23.35,0,0,0,3,.4v-.43A25.67,25.67,0,0,1,140.9,498.74Z"/><path class="cls-2" d="M27.05,533.34a33.34,33.34,0,0,1,6.78-5.16v-.36h-.25A33.62,33.62,0,0,0,26.75,533a52.39,52.39,0,0,0-6.54,7.77h.53A52.47,52.47,0,0,1,27.05,533.34Z"/><path class="cls-3" d="M101.05,274.82a8.23,8.23,0,0,1,.83-3.74c.56-1.09,1.17-2.19,1.84-3.3a1.91,1.91,0,0,1-.61-.48l1.7-3.23q6.43,5,6.43,9.49a7.52,7.52,0,0,1-.35,2.33,5.4,5.4,0,0,1-1,1.95,4.93,4.93,0,0,1-1.73,1.31,5.42,5.42,0,0,1-2.33.48,4.46,4.46,0,0,1-3.52-1.35A5,5,0,0,1,101.05,274.82Zm7.39-1.26a3.72,3.72,0,0,0-1-2.45,17.36,17.36,0,0,0-2.1-2.1,19,19,0,0,0-1.29,2.42,6.24,6.24,0,0,0-.59,2.48,1.62,1.62,0,0,0,.77,1.48,3,3,0,0,0,1.7.46,2.88,2.88,0,0,0,1.71-.59A2,2,0,0,0,108.44,273.56Z"/><path class="cls-3" d="M115.43,278.78a5.37,5.37,0,0,1-1.91-2.21,9.06,9.06,0,0,1-.78-3.06c-.11-1.14-.16-2.26-.16-3.37V253.31l2.76-1.84,0,20a17.47,17.47,0,0,0,.08,1.79,4.22,4.22,0,0,0,.46,1.58A2.72,2.72,0,0,0,117,276a4.06,4.06,0,0,0,2,.42v3.23A6.26,6.26,0,0,1,115.43,278.78Z"/><path class="cls-3" d="M136.07,279.63a5.45,5.45,0,0,1-2.12-.39A8,8,0,0,1,132,278a25.54,25.54,0,0,1-2.21-2c-.8-.81-1.77-1.76-2.91-2.84a6.9,6.9,0,0,1-.59,3.06,5.2,5.2,0,0,1-1.62,2,6.5,6.5,0,0,1-2.44,1.1,14.3,14.3,0,0,1-3.09.32H119a3,3,0,0,1-.68-.08c-.22-.06-.33-.13-.33-.22V276.7q0-.17.33-.24a3.74,3.74,0,0,1,.68-.06q5.94,0,5.94-3.5a4.16,4.16,0,0,0-.74-2.32,14.55,14.55,0,0,0-1.72-2.16,25.77,25.77,0,0,0-2-1.86,12.13,12.13,0,0,1-1.47-1.4c0-1.05.07-1.83.13-2.34a1.64,1.64,0,0,1,.26-.9,83.19,83.19,0,0,1,8.86-5.33,95.83,95.83,0,0,1,8.81-4.07l-.48,3.33q-.71.3-1.92.87c-.82.38-1.72.81-2.71,1.29s-2,1-3.09,1.53l-3.06,1.57c-1,.52-1.84,1-2.6,1.45a18.65,18.65,0,0,0-1.71,1.11c2.28,2.13,4.16,4,5.67,5.58s2.79,2.91,3.89,4a15.92,15.92,0,0,0,3,2.38,5.87,5.87,0,0,0,3,.79h1.22v3.23Zm-1.23-28.16q-1.71.79-5.55,2.74t-9.93,5.18l.18-1.93q4.5-2.53,8.33-4.57t7.1-3.65Z"/><path class="cls-3" d="M137.29,276.7q0-.17.33-.24a3.71,3.71,0,0,1,.67-.06h.88a6.31,6.31,0,0,0,2.73-.5,1.67,1.67,0,0,0,1-1.6,3.18,3.18,0,0,0-.64-1.77c-.42-.63-.82-1.19-1.2-1.69l2.23-2.4a9.92,9.92,0,0,1,1.62,2.58,8.09,8.09,0,0,1,.61,3q0,5.59-6.56,5.59h-.7a3,3,0,0,1-.67-.08c-.22-.06-.33-.13-.33-.22Z"/><path class="cls-3" d="M186.34,279.63a5.49,5.49,0,0,1-2.12-.39,7.77,7.77,0,0,1-1.93-1.2,29,29,0,0,1-2.18-2c-.8-.81-1.77-1.76-2.91-2.84v.22a4.26,4.26,0,0,1-.74,2.47,7,7,0,0,1-2,1.86,12.7,12.7,0,0,1-2.8,1.31,24.73,24.73,0,0,1-3.26.85,27.85,27.85,0,0,1-3.32.46c-1.09.09-2.08.13-3,.13-1.23,0-2.51-.1-3.85-.21a13.81,13.81,0,0,1-3.7-.83,6.64,6.64,0,0,1-2.75-1.95,5.31,5.31,0,0,1-1.07-3.52,6.41,6.41,0,0,1,.37-2.21,7.84,7.84,0,0,1,1-1.86l2.06.61a7,7,0,0,0-.66,1.58,5.24,5.24,0,0,0-.17,1.31,2.64,2.64,0,0,0,.94,2.17,6.16,6.16,0,0,0,2.31,1.13,13.3,13.3,0,0,0,3,.44c1.08,0,2.06.06,2.93.06s1.55-.07,2.47-.15,1.85-.18,2.78-.33,1.83-.32,2.71-.54a13,13,0,0,0,2.36-.83,6.16,6.16,0,0,0,1.68-1.14,2,2,0,0,0,.64-1.51,4.74,4.74,0,0,0-.83-2.25,15.4,15.4,0,0,0-1.71-2.1c-.64-.66-1.27-1.26-1.9-1.81s-1.1-1-1.42-1.36c0-1.05.07-1.83.13-2.34s.16-.81.31-.9a75.67,75.67,0,0,1,8.78-5.33q4.65-2.4,8.8-4.07l-.44,3.33-1.9.87c-.84.38-1.75.81-2.74,1.29l-3.1,1.53c-1.08.54-2.1,1.07-3.06,1.57s-1.83,1-2.61,1.45a13.44,13.44,0,0,0-1.68,1.11q3.42,3.19,5.64,5.58c1.49,1.59,2.79,2.91,3.89,4a16.65,16.65,0,0,0,3,2.38,5.75,5.75,0,0,0,3,.79h1.22v3.23Z"/><path class="cls-3" d="M187.56,276.7q0-.17.33-.24a3.74,3.74,0,0,1,.68-.06h.87a6.39,6.39,0,0,0,2.74-.5,1.68,1.68,0,0,0,1-1.6,3.24,3.24,0,0,0-.63-1.77c-.43-.63-.82-1.19-1.2-1.69l2.22-2.4a9.92,9.92,0,0,1,1.62,2.58,8.29,8.29,0,0,1,.62,3q0,5.59-6.56,5.59h-.7a3,3,0,0,1-.68-.08c-.22-.06-.33-.13-.33-.22Z"/><path class="cls-3" d="M238.28,279.66a4.65,4.65,0,0,1-2.55-.59,3.07,3.07,0,0,1-1.25-1.64,3.63,3.63,0,0,1-1.68,1.77,5.55,5.55,0,0,1-2.34.5,5.32,5.32,0,0,1-2.47-.57,4.2,4.2,0,0,1-1.77-1.7,3.67,3.67,0,0,1-1.69,1.68,5.31,5.31,0,0,1-2.43.59,5.79,5.79,0,0,1-1.26-.13,3.64,3.64,0,0,1-1.23-.53,11.32,11.32,0,0,1-.59,4.38,11,11,0,0,1-2.16,3.73,10.65,10.65,0,0,1-3.59,2.63,11.71,11.71,0,0,1-4.9,1,9.68,9.68,0,0,1-5.53-1.44,8.08,8.08,0,0,1-3-3.72,10.15,10.15,0,0,1-.61-5,13.94,13.94,0,0,1,1.75-5.29l2.1,1a17.56,17.56,0,0,0-.92,3,10.15,10.15,0,0,0-.22,2.74,5.4,5.4,0,0,0,1.16,3.12,6.07,6.07,0,0,0,2.52,1.84,8.51,8.51,0,0,0,3.23.57,8.91,8.91,0,0,0,3.32-.68,8.07,8.07,0,0,0,2.76-1.9,6.34,6.34,0,0,0,1.57-3.08,9.09,9.09,0,0,0-.13-3.87,11.22,11.22,0,0,0-1.75-3.87l2.54-1.84a13.89,13.89,0,0,0,2,2.93,3.78,3.78,0,0,0,2.71,1.18h.52a2.62,2.62,0,0,0,2.12-.79,4.65,4.65,0,0,0,.68-3v-.35l2.23-.83a15.43,15.43,0,0,0,.11,1.81,5.15,5.15,0,0,0,.44,1.6,2.94,2.94,0,0,0,.92,1.14,2.61,2.61,0,0,0,1.59.43,3.11,3.11,0,0,0,1.58-.35,2.43,2.43,0,0,0,.94-.94,4.18,4.18,0,0,0,.46-1.33,9.67,9.67,0,0,0,.13-1.53l2-.79c0,.73,0,1.39.09,2a4.35,4.35,0,0,0,.42,1.55,2.18,2.18,0,0,0,1,1,3.87,3.87,0,0,0,1.79.35h.35v3.24Z"/><path class="cls-3" d="M238.2,276.73c0-.12.1-.2.32-.24a3.08,3.08,0,0,1,.68-.07H242a16.05,16.05,0,0,0,3.68-.37,18,18,0,0,0,2.93-1c.9-.4,1.78-.83,2.64-1.32s1.79-.94,2.78-1.37l-2.67-1.14-1.92-.81c-.53-.22-1-.39-1.32-.5a2.71,2.71,0,0,0-.83-.18,4,4,0,0,0-1.53.37,4.68,4.68,0,0,0-1.57,1.25l-2-.87a8.44,8.44,0,0,1,2.39-3,4.14,4.14,0,0,1,2.38-1,6.81,6.81,0,0,1,3,.81c1.07.54,2.31,1.09,3.71,1.64.64.29,1.23.53,1.75.72a11.61,11.61,0,0,0,1.6.46,14.31,14.31,0,0,0,1.75.27c.62.05,1.37.08,2.25.08l-.74,3.15a15.58,15.58,0,0,0-1.6.07c-.48,0-.92.09-1.33.15a8.78,8.78,0,0,0-3.37,1.22c-1,.65-2.15,1.3-3.3,2a27.48,27.48,0,0,1-3.81,1.82,13.49,13.49,0,0,1-4.92.81H239.2a2.59,2.59,0,0,1-.68-.09c-.22-.06-.32-.13-.32-.22Z"/><rect class="cls-3" x="186.07" y="282.92" width="2.88" height="2.88" transform="translate(255.99 -49.3) rotate(45)"/><rect class="cls-3" x="189.65" y="282.92" width="2.88" height="2.88" transform="translate(257.04 -51.83) rotate(45)"/><rect class="cls-3" x="135.85" y="264.11" width="2.88" height="2.88" transform="translate(227.99 -19.3) rotate(45)"/><path class="cls-3" d="M206.33,295.6l-7,1.95-.27-1.22,6.93-2.08Z"/><path class="cls-4" d="M100.71,312.22h-2v-2.06h2Z"/><path class="cls-4" d="M110.7,312.22a3.11,3.11,0,0,1-1.58-.42,3,3,0,0,1-1.13-1.13,3,3,0,0,1-3.12,1.8,3.34,3.34,0,0,1-2.73-1l.7-1.78a2.69,2.69,0,0,0,1,.45,5.55,5.55,0,0,0,1.35.17,5.29,5.29,0,0,0,.8-.06,3.21,3.21,0,0,0,.68-.18,1.44,1.44,0,0,0,.49-.32.65.65,0,0,0,.18-.46.67.67,0,0,0,0-.17l-.15-.49c-.09-.26-.22-.65-.41-1.18s-.44-1.27-.76-2.21l1.54-1.39c.4,1.29.72,2.33,1,3.13a16.38,16.38,0,0,0,.66,1.87,2.21,2.21,0,0,0,.64.91,1.54,1.54,0,0,0,.9.24h.41v2.25Z"/><path class="cls-4" d="M115.31,312.22a1.72,1.72,0,0,1-1.78-1,2.57,2.57,0,0,1-2.27,1h-.17a1.36,1.36,0,0,1-.3,0c-.1,0-.15-.06-.15-.1v-1.95c0-.06,0-.09.15-.12a1,1,0,0,1,.3,0h.09c1,0,1.46-.33,1.46-1v-.77l1.58-.5v.48c0,1.19.39,1.78,1.16,1.78h.12v2.25Zm-.86-7.18-1.16,1.54-1.6-1.08,1.18-1.57Z"/><path class="cls-4" d="M115.05,310.13c0-.06,0-.09.15-.12a1,1,0,0,1,.3,0h.58c2.16,0,3.23-.26,3.23-.79a1.2,1.2,0,0,0-.33-.68,7.8,7.8,0,0,0-.81-.84c-.32-.29-.67-.58-1-.85l-1-.75a2.76,2.76,0,0,1-.37-.27.8.8,0,0,1-.19-.24.68.68,0,0,1-.06-.29,2.73,2.73,0,0,1,0-.44c0-.11,0-.26.06-.43s.06-.35.1-.54a3.12,3.12,0,0,1,.18-.49.56.56,0,0,1,.26-.3,28.27,28.27,0,0,1,3.23-1.38c1.34-.5,3-1,4.84-1.58l-.25,2.26c-1.14.25-2.25.52-3.34.81a29.2,29.2,0,0,0-3.2,1.05c-.24.09-.28.2-.12.31l1.28.93a9.37,9.37,0,0,1,1.16,1,4.34,4.34,0,0,1,.84,1.17,3.17,3.17,0,0,1,.32,1.43,2.79,2.79,0,0,1-.46,1.66,2.88,2.88,0,0,1-1.2.95,5.35,5.35,0,0,1-1.58.44,13.87,13.87,0,0,1-1.66.11h-.52a1.54,1.54,0,0,1-.3,0c-.1,0-.15-.06-.15-.1Z"/><path class="cls-4" d="M132.13,312.22a1.39,1.39,0,0,1,.06.67,2.53,2.53,0,0,1-.2.7,3.77,3.77,0,0,1-1.29,1.47,5.89,5.89,0,0,1-1.9.88,6.79,6.79,0,0,1-2.16.22,5.47,5.47,0,0,1-2-.51,3.72,3.72,0,0,1-1.49-1.26,3.48,3.48,0,0,1-.59-2.08,5.28,5.28,0,0,1,.26-1.65,7.52,7.52,0,0,1,.64-1.48l1.47.52a11.42,11.42,0,0,0-.45,1.1,3.46,3.46,0,0,0-.21,1.15,2.24,2.24,0,0,0,.29,1.18,1.86,1.86,0,0,0,.77.7,3.19,3.19,0,0,0,1.1.3,5.08,5.08,0,0,0,1.23,0,7.25,7.25,0,0,0,1.21-.26,6.69,6.69,0,0,0,1-.41c.25-.13.38-.24.39-.32s0-.15-.16-.19l-2.11-.71a3.46,3.46,0,0,1,.13-.38c.06-.15.12-.3.18-.47s.13-.31.2-.46a2,2,0,0,1,.19-.36,1.31,1.31,0,0,1,.45-.46,1.36,1.36,0,0,1,.65-.12h2.42v2.25Z"/><path class="cls-4" d="M131.78,310.13c0-.06.05-.09.14-.12a1,1,0,0,1,.3,0,3.32,3.32,0,0,0,1.33-.22,1.66,1.66,0,0,0,.78-.67c.16-.26.32-.53.48-.83a6.08,6.08,0,0,1,.53-.82,2.49,2.49,0,0,1,.67-.63,1.56,1.56,0,0,1,.9-.25,1.51,1.51,0,0,1,1,.31,2.56,2.56,0,0,1,.63.79,3.41,3.41,0,0,1,.36,1,4.33,4.33,0,0,1,.12,1,4.5,4.5,0,0,1-.08.79,2.37,2.37,0,0,1-.27.76,1.85,1.85,0,0,1-.49.58,1.14,1.14,0,0,1-.73.23,2.85,2.85,0,0,1-1.29-.31,6.62,6.62,0,0,1-1.11-.71,3.28,3.28,0,0,1-2.79,1.28,1.54,1.54,0,0,1-.3,0c-.09,0-.14-.06-.14-.1Zm5.05-1.82c-.41-.07-.75.25-1,1a2.7,2.7,0,0,0,.66.46,2.77,2.77,0,0,0,.7.24.31.31,0,0,0,.41-.27,2,2,0,0,0,0-.41,1.55,1.55,0,0,0-.14-.43,1.13,1.13,0,0,0-.24-.36A.61.61,0,0,0,136.83,308.31Z"/><path class="cls-4" d="M151.77,312.22a4.83,4.83,0,0,1-.53,1.81,4.78,4.78,0,0,1-1.11,1.37,4.67,4.67,0,0,1-1.52.87,5.31,5.31,0,0,1-1.8.3,5.25,5.25,0,0,1-1.63-.26,4.06,4.06,0,0,1-1.38-.77,4,4,0,0,1-.94-1.27,4.16,4.16,0,0,1-.34-1.74,6.55,6.55,0,0,1,.24-1.76,11.81,11.81,0,0,1,.63-1.71l1.47.52a12.43,12.43,0,0,0-.48,1.25,4.69,4.69,0,0,0-.2,1.35,3.21,3.21,0,0,0,.15,1,2,2,0,0,0,.45.83,2.3,2.3,0,0,0,.81.56,3.21,3.21,0,0,0,1.22.21,5.2,5.2,0,0,0,1.3-.16,3.62,3.62,0,0,0,1.13-.49,2.69,2.69,0,0,0,.81-.8,2.25,2.25,0,0,0,.33-1.1h-.16a10.64,10.64,0,0,1-1.32-.08,2.72,2.72,0,0,1-1-.32,1.55,1.55,0,0,1-.66-.7,2.68,2.68,0,0,1-.23-1.19,4.07,4.07,0,0,1,.13-1,3.76,3.76,0,0,1,.41-1,2.84,2.84,0,0,1,.67-.79,1.42,1.42,0,0,1,.92-.31,1.89,1.89,0,0,1,1.07.31,3.16,3.16,0,0,1,.8.79,4.42,4.42,0,0,1,.51,1,4.79,4.79,0,0,1,.25,1h1.06v2.25Zm-4.88-7.42,1-1.31,1.26.83.71-1,1.49,1-1,1.32-1.28-.84-.66,1Zm3.35,5.17a1.8,1.8,0,0,0-.38-1,.94.94,0,0,0-.74-.37.7.7,0,0,0-.55.25.85.85,0,0,0-.21.56.56.56,0,0,0,.08.32.44.44,0,0,0,.28.15,2.16,2.16,0,0,0,.57.06Z"/><path class="cls-4" d="M156.18,312a2.12,2.12,0,0,1-.93-.73,2.12,2.12,0,0,1-.93.73,3.76,3.76,0,0,1-1.51.26,1.54,1.54,0,0,1-.3,0c-.09,0-.14-.06-.14-.1v-1.95c0-.06,0-.09.14-.12a1,1,0,0,1,.3,0h.26a3.35,3.35,0,0,0,.78-.07.76.76,0,0,0,.45-.24.81.81,0,0,0,.2-.45,5.33,5.33,0,0,0,0-.73c0-.14,0-.48,0-1s0-1.14-.05-1.83,0-1.43-.07-2.2,0-1.47-.06-2.1l1.92-.78v7.67a2.09,2.09,0,0,0,.34,1.31,1.32,1.32,0,0,0,1.11.43v2.25A3.79,3.79,0,0,1,156.18,312Z"/><path class="cls-4" d="M157.25,310.13c0-.06,0-.09.14-.12a1,1,0,0,1,.3,0h1.7l1,0a4.47,4.47,0,0,0,.84-.12,10.37,10.37,0,0,0,1.13-.35l1.83-.69c-.74-.21-1.31-.36-1.71-.46s-.69-.19-.89-.26a1,1,0,0,0-.7.07,1.86,1.86,0,0,0-.56.46l-1.33-.91a5.3,5.3,0,0,1,1.18-1.52,1.59,1.59,0,0,1,1.35-.34,10.3,10.3,0,0,1,1.32.27l1.36.37,1.43.38c.49.12,1,.22,1.58.31l.77.06.74,0-.6,2.21c-.31,0-.58,0-.81,0a3.52,3.52,0,0,0-.66.06,4.34,4.34,0,0,0-.63.18,6,6,0,0,0-.72.36c-.66.37-1.21.7-1.64,1a9.18,9.18,0,0,1-1.27.67,5.54,5.54,0,0,1-1.36.41,11.16,11.16,0,0,1-1.93.14h-1.43a1.54,1.54,0,0,1-.3,0c-.1,0-.14-.06-.14-.1ZM163,303l-1.16,1.55-1.6-1.08,1.18-1.57Z"/><path class="cls-4" d="M180.64,312.22a3.08,3.08,0,0,1-1.57-.42,3,3,0,0,1-1.14-1.13,3,3,0,0,1-3.11,1.8,3.34,3.34,0,0,1-2.73-1l.7-1.78a2.56,2.56,0,0,0,1,.45,5.57,5.57,0,0,0,1.36.17,5.16,5.16,0,0,0,.79-.06,3.15,3.15,0,0,0,.69-.18,1.3,1.3,0,0,0,.48-.32.66.66,0,0,0,.19-.46.67.67,0,0,0,0-.17c0-.07-.07-.23-.16-.49s-.22-.65-.4-1.18-.45-1.27-.77-2.21l1.55-1.39c.4,1.29.72,2.33,1,3.13a16.38,16.38,0,0,0,.66,1.87,2.31,2.31,0,0,0,.63.91,1.54,1.54,0,0,0,.9.24H181v2.25Z"/><path class="cls-4" d="M180.39,315.22l1.16-1.55,1.61,1.08L182,316.32Zm.2-5.09c0-.06,0-.09.14-.12a1,1,0,0,1,.3,0h1.28c.66,0,1-.15,1-.46a.78.78,0,0,0,0-.21,2.36,2.36,0,0,0-.16-.3,3.5,3.5,0,0,0-.33-.47l-.56-.73,1.26-1.78a3.41,3.41,0,0,1,.94,1.34,4.62,4.62,0,0,1,.34,1.72,3.43,3.43,0,0,1-.26,1.38,2.78,2.78,0,0,1-.72,1,3,3,0,0,1-1.07.58,4.48,4.48,0,0,1-1.34.2H181a1.54,1.54,0,0,1-.3,0c-.1,0-.14-.06-.14-.1Z"/><path class="cls-4" d="M188.35,312l-2,.53V301.34l2-.78Z"/><path class="cls-4" d="M193.5,311.9a2.52,2.52,0,0,1-.95-.88,3.79,3.79,0,0,1-.46-1.34,14.18,14.18,0,0,1-.15-1.68c0-.29,0-.69,0-1.22s0-1.11,0-1.73,0-1.25-.05-1.9,0-1.26,0-1.81l1.9-.78v7.67a2,2,0,0,0,.35,1.31,1.34,1.34,0,0,0,1.12.43v2.25A3.59,3.59,0,0,1,193.5,311.9Z"/><path class="cls-4" d="M194.69,310.13c0-.06.05-.09.15-.12a1,1,0,0,1,.3,0h1.28c.65,0,1-.15,1-.46a.52.52,0,0,0,0-.21,1.36,1.36,0,0,0-.15-.3c-.08-.13-.19-.28-.33-.47l-.56-.73,1.26-1.78a3.41,3.41,0,0,1,.94,1.34,4.61,4.61,0,0,1,.33,1.72,3.27,3.27,0,0,1-.26,1.38,2.64,2.64,0,0,1-.71,1,3,3,0,0,1-1.08.58,4.41,4.41,0,0,1-1.33.2h-.33a1.36,1.36,0,0,1-.3,0c-.1,0-.15-.06-.15-.1Zm.14-5.95,1-1.31,1.25.83.72-1,1.49,1-1,1.32-1.27-.84-.66,1Z"/><path class="cls-4" d="M208.68,312.22a2.13,2.13,0,0,1-1.52-.47,2.62,2.62,0,0,1-.66-1.39,2.12,2.12,0,0,1-.88.48,4,4,0,0,1-1.25.2,3.5,3.5,0,0,1-.74-.08,2.18,2.18,0,0,1-.63-.25,1.32,1.32,0,0,1-.44-.44,1.18,1.18,0,0,1-.17-.65c0-1.36,1.05-2.67,3.14-3.91l-.18-.83,1.42-1.43,1,5.15a2.19,2.19,0,0,0,.45,1.06,1.38,1.38,0,0,0,1,.31v2.25Zm-2.84-5a3.83,3.83,0,0,0-.77.38,3,3,0,0,0-.72.61c-.21.26-.26.45-.17.57a.85.85,0,0,0,.65.18,5.9,5.9,0,0,0,.74,0,1.58,1.58,0,0,0,.6-.21Z"/><path class="cls-4" d="M219.27,312.22c-1.47,0-2.23-.93-2.26-2.77a8.36,8.36,0,0,0-1.23.84c-.4.32-.81.62-1.24.9a8.16,8.16,0,0,1-1.41.73,4.81,4.81,0,0,1-1.76.3h-2.09a1.54,1.54,0,0,1-.3,0c-.09,0-.14-.06-.14-.1v-1.95c0-.06,0-.09.14-.12a1,1,0,0,1,.3,0h1.8a6.14,6.14,0,0,0,1.24-.12,8.08,8.08,0,0,0,1.12-.34,9.62,9.62,0,0,0,1.08-.51c.35-.19.72-.4,1.09-.64l-.75-.13-.79-.14-.67-.1a3.63,3.63,0,0,0-.44-.05.68.68,0,0,0-.45.2,3.24,3.24,0,0,0-.46.57l-1.43-.67q.88-2.25,2.07-2.25a6,6,0,0,1,1.24.16l1.64.34c.6.13,1.21.25,1.85.35a11,11,0,0,0,1.87.16,6.82,6.82,0,0,0,.87-.06l-.25,2.15a5.09,5.09,0,0,0-1.74.25c.08.37.22.61.44.7a2.69,2.69,0,0,0,1,.13h1.47v2.25Zm-1.57,2.44-1,1.31-1.26-.83-.72,1-1.49-1,1-1.34,1.26.86.69-1Zm-.69,2.12-1,1.3-1.37-.93.94-1.27Z"/><path class="cls-4" d="M220.61,310.13c0-.06,0-.09.14-.12a1,1,0,0,1,.3,0h1.28c.66,0,1-.15,1-.46a.78.78,0,0,0,0-.21,2.36,2.36,0,0,0-.16-.3,3.5,3.5,0,0,0-.33-.47l-.56-.73,1.26-1.78a3.41,3.41,0,0,1,.94,1.34,4.62,4.62,0,0,1,.34,1.72,3.43,3.43,0,0,1-.26,1.38,2.78,2.78,0,0,1-.72,1,3,3,0,0,1-1.07.58,4.48,4.48,0,0,1-1.34.2h-.33a1.54,1.54,0,0,1-.3,0c-.1,0-.14-.06-.14-.1Zm3.52-6.51L223,305.17l-1.61-1.08,1.18-1.57Z"/><path class="cls-4" d="M230.57,298.59a3,3,0,0,1-.95.94,2.3,2.3,0,0,1-1.25.36,3.62,3.62,0,0,1-.86-.11,6.6,6.6,0,0,0-.87-.15,2.67,2.67,0,0,0-.85,0,1.42,1.42,0,0,0-.75.48l-.66-.89a2.54,2.54,0,0,1,.9-.72,2.25,2.25,0,0,1,.88-.16,4.36,4.36,0,0,1,.93.11,5.58,5.58,0,0,0,1,.13,2.27,2.27,0,0,0,2-.91ZM228.37,312l-2,.53V301.34l2-.78Z"/><path class="cls-4" d="M239.55,318.6l-4.37,1.15-.14-.7,4.34-1.22Z"/><path class="cls-4" d="M241.74,312.22a4.83,4.83,0,0,1-.53,1.81,4.78,4.78,0,0,1-1.11,1.37,4.67,4.67,0,0,1-1.52.87,5.31,5.31,0,0,1-1.8.3,5.25,5.25,0,0,1-1.63-.26,4.06,4.06,0,0,1-1.38-.77,3.83,3.83,0,0,1-.93-1.27,4,4,0,0,1-.35-1.74,6.55,6.55,0,0,1,.24-1.76,11.81,11.81,0,0,1,.63-1.71l1.47.52a12.43,12.43,0,0,0-.48,1.25,4.69,4.69,0,0,0-.2,1.35,3.21,3.21,0,0,0,.15,1,2,2,0,0,0,.45.83,2.3,2.3,0,0,0,.81.56,3.21,3.21,0,0,0,1.22.21,5.2,5.2,0,0,0,1.3-.16,3.62,3.62,0,0,0,1.13-.49,2.69,2.69,0,0,0,.81-.8,2.25,2.25,0,0,0,.33-1.1h-.16a10.64,10.64,0,0,1-1.32-.08,2.72,2.72,0,0,1-1-.32,1.6,1.6,0,0,1-.66-.7,2.68,2.68,0,0,1-.23-1.19,4.07,4.07,0,0,1,.13-1,3.76,3.76,0,0,1,.41-1,2.84,2.84,0,0,1,.67-.79,1.42,1.42,0,0,1,.92-.31,1.87,1.87,0,0,1,1.07.31,3,3,0,0,1,.79.79,4.09,4.09,0,0,1,.52,1,4.79,4.79,0,0,1,.25,1h1.06v2.25Zm-4.88-7.42,1-1.31,1.26.83.71-1,1.49,1-1,1.32L239,304.8l-.66,1Zm3.35,5.17a1.72,1.72,0,0,0-.38-1,.94.94,0,0,0-.74-.37.66.66,0,0,0-.54.25.81.81,0,0,0-.22.56.56.56,0,0,0,.08.32.47.47,0,0,0,.28.15,2.16,2.16,0,0,0,.57.06Z"/><path class="cls-4" d="M246.15,312a2.23,2.23,0,0,1-.93-.73,2.12,2.12,0,0,1-.93.73,3.76,3.76,0,0,1-1.51.26,1.54,1.54,0,0,1-.3,0c-.09,0-.14-.06-.14-.1v-1.95c0-.06,0-.09.14-.12a1,1,0,0,1,.3,0H243a3.35,3.35,0,0,0,.78-.07.76.76,0,0,0,.45-.24.81.81,0,0,0,.2-.45,5.33,5.33,0,0,0,0-.73c0-.14,0-.48,0-1s0-1.14-.05-1.83,0-1.43-.07-2.2,0-1.47-.06-2.1l1.92-.78v7.67a2.09,2.09,0,0,0,.34,1.31,1.32,1.32,0,0,0,1.11.43v2.25A3.79,3.79,0,0,1,246.15,312Z"/><path class="cls-4" d="M247.22,310.13c0-.06.05-.09.14-.12a1,1,0,0,1,.3,0h1.71l1,0a4.47,4.47,0,0,0,.84-.12,10.37,10.37,0,0,0,1.13-.35l1.83-.69c-.74-.21-1.31-.36-1.71-.46s-.69-.19-.89-.26a1,1,0,0,0-.7.07,2,2,0,0,0-.56.46l-1.33-.91a5.3,5.3,0,0,1,1.18-1.52,1.59,1.59,0,0,1,1.35-.34,10.3,10.3,0,0,1,1.32.27l1.35.37,1.44.38c.49.12,1,.22,1.58.31l.77.06.74,0-.6,2.21c-.31,0-.58,0-.81,0a3.52,3.52,0,0,0-.66.06,4.34,4.34,0,0,0-.63.18,6,6,0,0,0-.72.36c-.66.37-1.21.7-1.64,1a9.18,9.18,0,0,1-1.27.67,5.54,5.54,0,0,1-1.36.41,11.16,11.16,0,0,1-1.93.14h-1.43a1.54,1.54,0,0,1-.3,0c-.09,0-.14-.06-.14-.1ZM253,303l-1.16,1.55-1.6-1.08,1.18-1.57Z"/></svg>