<svg id="Layer_1" data-name="Layer 1" xmlns="http://www.w3.org/2000/svg" viewBox="0 0 139.78 49.99"><defs><style>.cls-1{fill:#e6e7e8;}.cls-2{fill:#231f20;}.cls-3{fill:#a6a8ab;}.cls-4{fill:#fff;}</style></defs><rect class="cls-1" x="39.84" y="28.52" width="99.73" height="21.47"/><rect class="cls-2" y="28.52" width="39.84" height="21.47"/><path class="cls-3" d="M56.19,39.53a1.25,1.25,0,0,1-.11.5,1.33,1.33,0,0,1-.29.41,1.13,1.13,0,0,1-.41.27,1.19,1.19,0,0,1-.49.1,1.18,1.18,0,0,1-.5-.1,1.33,1.33,0,0,1-.41-.29,1.17,1.17,0,0,1-.27-.41,1.12,1.12,0,0,1-.1-.48,1.35,1.35,0,0,1,.1-.5,1.49,1.49,0,0,1,.28-.41,1.46,1.46,0,0,1,.41-.27,1.3,1.3,0,0,1,.49-.1,1.25,1.25,0,0,1,.5.11,1.27,1.27,0,0,1,.41.27,1.46,1.46,0,0,1,.29.41A1.34,1.34,0,0,1,56.19,39.53Zm-.86,0a.42.42,0,0,0-.13-.31.45.45,0,0,0-.33-.12.4.4,0,0,0-.29.12.45.45,0,0,0-.12.31.41.41,0,0,0,.12.3.37.37,0,0,0,.29.13.42.42,0,0,0,.33-.13A.38.38,0,0,0,55.33,39.53Z"/><path class="cls-3" d="M60.17,41.85a4.36,4.36,0,0,1-.78-1.29A4.49,4.49,0,0,1,59.13,39a7.35,7.35,0,0,1-.88-.05,1.8,1.8,0,0,1-.63-.21,1,1,0,0,1-.38-.41,1.61,1.61,0,0,1-.13-.68,2.11,2.11,0,0,1,.14-.67,3.38,3.38,0,0,1,.36-.74,2.68,2.68,0,0,1,.51-.59.92.92,0,0,1,.6-.25,1,1,0,0,1,.72.24,1.42,1.42,0,0,1,.37.6A3,3,0,0,1,60,37c0,.27,0,.51,0,.73a7.85,7.85,0,0,0,0,.89,3.19,3.19,0,0,0,.15.71,2.84,2.84,0,0,0,.29.61,4.64,4.64,0,0,0,.46.61Zm-1.08-4.08c0-.16,0-.31,0-.46a1.7,1.7,0,0,0,0-.41.68.68,0,0,0-.16-.29.5.5,0,0,0-.34-.11.41.41,0,0,0-.26.09.87.87,0,0,0-.19.23,1,1,0,0,0-.13.28,1,1,0,0,0-.05.26.26.26,0,0,0,.15.23,1.35,1.35,0,0,0,.34.12,2.6,2.6,0,0,0,.39,0Z"/><path class="cls-3" d="M63,41.85a8.24,8.24,0,0,0-1.33-5l.67-1.44a5.69,5.69,0,0,1,.85,1.47,9,9,0,0,1,.46,1.63,12.11,12.11,0,0,1,.19,1.7c0,.57,0,1.12,0,1.66Z"/><path class="cls-3" d="M68.51,35.33c0,2-.62,3-1.85,3a11.39,11.39,0,0,1,.21,1.59c0,.59.07,1.25.08,2h-.87a8.35,8.35,0,0,0-1.32-5l.65-1.44.29.5a3.25,3.25,0,0,0,.32.45,1.58,1.58,0,0,0,.37.32,1,1,0,0,0,.49.13.87.87,0,0,0,.42-.1.72.72,0,0,0,.26-.26,1,1,0,0,0,.13-.36,2,2,0,0,0,0-.42Z"/><path class="cls-2" d="M1.35,7.94H0V7a2.66,2.66,0,0,1,.12-.91,1.29,1.29,0,0,1,.35-.59,2.09,2.09,0,0,1,.64-.38l.18.48a1.05,1.05,0,0,0-.78,1h.84Z"/><path class="cls-2" d="M5.76,7.86a1,1,0,0,1-.26-.18,3.36,3.36,0,0,1-.44,1.06,5.79,5.79,0,0,1-.78.95,9.57,9.57,0,0,1-1,.84c-.38.26-.76.51-1.16.74L1,10.39l1-.54a12.2,12.2,0,0,0,1.13-.74,5.72,5.72,0,0,0,.92-.81,1.26,1.26,0,0,0,.37-.82.67.67,0,0,0-.08-.33,2.79,2.79,0,0,0-.18-.34C4.1,6.69,4,6.59,4,6.49l-.17-.24,1-1.09q.15.22.27.45a4.62,4.62,0,0,0,.27.4,1.45,1.45,0,0,0,.32.29.76.76,0,0,0,.41.11V7.94A.68.68,0,0,1,5.76,7.86Z"/><path class="cls-2" d="M8.94,7.94a1.18,1.18,0,0,1-1.21-.68,1.76,1.76,0,0,1-1.54.68H6.07l-.21,0c-.06,0-.1,0-.1-.06V6.52s0-.07.1-.08a.76.76,0,0,1,.21,0h.06c.66,0,1-.22,1-.67V5.21L8.2,4.87V5.2c0,.81.27,1.21.8,1.21h.08V7.94ZM6.05,3.43l.66-.9.86.57.49-.67,1,.67L8.4,4l-.87-.57-.45.67Z"/><path class="cls-2" d="M16.53,7.94a1.73,1.73,0,0,1-.75-.15,1.25,1.25,0,0,1-.51-.53,1.44,1.44,0,0,1-.54.5,1.41,1.41,0,0,1-.66.17,1.24,1.24,0,0,1-.58-.16A1.48,1.48,0,0,1,13,7.26a1.58,1.58,0,0,1-1.32.67,1.24,1.24,0,0,1-.59-.16,1.42,1.42,0,0,1-.49-.51,1.35,1.35,0,0,1-1.22.68H9.08a.71.71,0,0,1-.21,0c-.07,0-.1,0-.1-.06V6.52s0-.07.1-.08a.71.71,0,0,1,.21,0h.34c.37,0,.55-.22.55-.66V5.29L10.91,5v.29a1.43,1.43,0,0,0,.2.87.72.72,0,0,0,.56.29q.78,0,.78-.66V5.29L13.39,5v.45a1.26,1.26,0,0,0,.18.77.78.78,0,0,0,.64.23.76.76,0,0,0,.53-.18.62.62,0,0,0,.19-.48V5.29L15.86,5v.55c0,.16,0,.3,0,.41a.54.54,0,0,0,.08.27.37.37,0,0,0,.21.17,1.42,1.42,0,0,0,.41,0h.16V7.94ZM11.38,3.55l.66-.9.86.57.49-.67,1,.67-.66.9-.87-.57-.46.67Zm.49-1.47.67-.87.93.62-.65.87Z"/><path class="cls-2" d="M19.6,7.94a1.18,1.18,0,0,1-1.21-.68,1.76,1.76,0,0,1-1.55.68h-.11l-.21,0c-.06,0-.1,0-.1-.06V6.52s0-.07.1-.08a.76.76,0,0,1,.21,0h.06c.66,0,1-.22,1-.67V5.21l1.08-.34V5.2c0,.81.27,1.21.79,1.21h.08V7.94Zm.13,1.66-.66.9-.85-.57-.49.66-1-.66L17.4,9l.86.58.47-.67Z"/><path class="cls-2" d="M19.43,6.52s0-.07.1-.08a.69.69,0,0,1,.2,0h.87c.45,0,.68-.1.68-.32a.31.31,0,0,0,0-.13,1.78,1.78,0,0,0-.1-.21l-.23-.32-.38-.5.86-1.21a2.37,2.37,0,0,1,.64.91,3.17,3.17,0,0,1,.23,1.17,2.33,2.33,0,0,1-.18,1,1.73,1.73,0,0,1-.49.66,2.07,2.07,0,0,1-.73.4,3,3,0,0,1-.91.13h-.23a.69.69,0,0,1-.2,0c-.07,0-.1,0-.1-.06ZM19.72,10l.79-1.06,1.1.74-.81,1.07Z"/><path class="cls-2" d="M28,8.3a5.44,5.44,0,0,1-2.83-.58,1.77,1.77,0,0,1-.94-1.6,2.68,2.68,0,0,1,.13-.81,6.55,6.55,0,0,1,.37-.92l1,.29a4.78,4.78,0,0,0-.19.48,1.74,1.74,0,0,0-.08.5.77.77,0,0,0,.3.65,2.29,2.29,0,0,0,.77.33,6.72,6.72,0,0,0,1.08.12l1.19,0A12.17,12.17,0,0,0,30,6.7a9.77,9.77,0,0,0,1.3-.22,5.43,5.43,0,0,0,1-.31c.27-.12.41-.24.41-.37a.78.78,0,0,0-.17-.36c-.11-.16-.27-.39-.49-.68l.84-1.26a3.07,3.07,0,0,1,.64.94,2.85,2.85,0,0,1,.23,1.13,2,2,0,0,1-.29,1.08,2.47,2.47,0,0,1-.79.75,4.48,4.48,0,0,1-1.11.48,9.4,9.4,0,0,1-1.28.27q-.64.09-1.26.12Zm-.78-4.8.66-.9.86.57.49-.68,1,.68-.67.89-.87-.56-.45.67Z"/><path class="cls-2" d="M35.87,7.72a1.54,1.54,0,0,1-.64-.6,2.45,2.45,0,0,1-.32-.91,7.93,7.93,0,0,1-.1-1.14q0-.3,0-.84c0-.36,0-.75,0-1.17s0-.85,0-1.3,0-.85,0-1.23L36,0V5.22a1.37,1.37,0,0,0,.23.89.93.93,0,0,0,.77.3V7.94A2.37,2.37,0,0,1,35.87,7.72Z"/><path class="cls-2" d="M36.68,6.52s0-.07.1-.08a.76.76,0,0,1,.21,0h1.17a2.75,2.75,0,0,1-.2-.57,2.23,2.23,0,0,1-.08-.56A1.87,1.87,0,0,1,38,4.53a2.15,2.15,0,0,1,.42-.6,2.08,2.08,0,0,1,.61-.4,2,2,0,0,1,.73-.14,2.23,2.23,0,0,1,.91.2,2.17,2.17,0,0,1,.76.58L41.08,5a3.41,3.41,0,0,0-.63-.24,3,3,0,0,0-.65-.08,1.62,1.62,0,0,0-.7.14.49.49,0,0,0-.29.48.6.6,0,0,0,.15.39,1.22,1.22,0,0,0,.37.3,1.89,1.89,0,0,0,.46.2,1.47,1.47,0,0,0,.43.07,4.38,4.38,0,0,0,.8-.08c.32,0,.71-.12,1.16-.22L42,7.28c-1,.23-1.87.4-2.62.5a13.44,13.44,0,0,1-1.91.16H37l-.21,0c-.06,0-.1,0-.1-.06Z"/><path class="cls-2" d="M48.42,7.79a1.62,1.62,0,0,1-.62-.42,1.64,1.64,0,0,1-.37-.66,4,4,0,0,1-.18-.84,3.44,3.44,0,0,1-1.19,1.6,3.69,3.69,0,0,1-1.9.71l-1-1.06a7.9,7.9,0,0,0,.9-.2,6.36,6.36,0,0,0,1-.32,3,3,0,0,0,.76-.44.7.7,0,0,0,.31-.55,1.66,1.66,0,0,0-.25-.79,4.81,4.81,0,0,0-.67-.91,6.93,6.93,0,0,0-1-.86A5.13,5.13,0,0,0,43,2.39L43.29.71a15.15,15.15,0,0,1,1.23.91,7.66,7.66,0,0,1,1,.92,7.32,7.32,0,0,1,.72,1,6.92,6.92,0,0,1,.54,1.23A4.48,4.48,0,0,0,47,4.09a3.84,3.84,0,0,0,.15-.81c0-.44,0-.91,0-1.4s0-.94,0-1.35L48.38,0V5.22a1.37,1.37,0,0,0,.24.89.9.9,0,0,0,.75.3V7.94A2.67,2.67,0,0,1,48.42,7.79Z"/><path class="cls-2" d="M49.07,6.52s0-.07.1-.08a.69.69,0,0,1,.2,0h.47c.07-.1.16-.19.24-.29a3.58,3.58,0,0,1,.27-.29q0-.39.06-.84c0-.3,0-.58,0-.85,0-.53,0-1.09,0-1.67s-.09-1.22-.16-1.94L51.59,0V4.54a6.6,6.6,0,0,1,1-.74,2,2,0,0,1,1-.29A1.61,1.61,0,0,1,54.76,4a1.46,1.46,0,0,1,.44,1.1,2.23,2.23,0,0,1-.38,1.34,3.22,3.22,0,0,1-.94.9,4.08,4.08,0,0,1-1.22.5,5.54,5.54,0,0,1-1.21.15H49.37a.69.69,0,0,1-.2,0c-.07,0-.1,0-.1-.06ZM53.24,5a1.67,1.67,0,0,0-1.06.41,13.93,13.93,0,0,0-1.16,1h.73l.56-.05a4.58,4.58,0,0,0,.63-.1,4.34,4.34,0,0,0,.6-.16A1.54,1.54,0,0,0,54,5.84a.5.5,0,0,0,.17-.37.32.32,0,0,0-.1-.25.78.78,0,0,0-.24-.16L53.51,5Z"/><path class="cls-2" d="M57.54,7.77l-1.35.36V.53L57.54,0Z"/><path class="cls-2" d="M58.61,10.39q.42-.21,1-.54a10.48,10.48,0,0,0,1.11-.71,5.62,5.62,0,0,0,.92-.8,1.37,1.37,0,0,0,.41-.8,1.3,1.3,0,0,1-.41.16,2.12,2.12,0,0,1-.49.06A1.41,1.41,0,0,1,60,7.39a1.38,1.38,0,0,1-.32-.95,3.18,3.18,0,0,1,.09-.74,2.6,2.6,0,0,1,.3-.7,1.91,1.91,0,0,1,.49-.53,1.13,1.13,0,0,1,.69-.21,1.28,1.28,0,0,1,.87.3,2.29,2.29,0,0,1,.54.75,3.6,3.6,0,0,1,.29.93,5.73,5.73,0,0,1,.08.86,3.19,3.19,0,0,1-.27,1.33,4.12,4.12,0,0,1-.74,1.09,6.87,6.87,0,0,1-1.06.92c-.4.29-.82.56-1.27.83Zm3.31-4a1.44,1.44,0,0,0-.27-.6.53.53,0,0,0-.46-.25.5.5,0,0,0-.38.17.57.57,0,0,0-.17.42.32.32,0,0,0,.2.32,1,1,0,0,0,.43.09,1.36,1.36,0,0,0,.36,0A1.21,1.21,0,0,0,61.92,6.38Z"/><path class="cls-2" d="M68.5,6.11a2.1,2.1,0,0,1-.15.82,1.66,1.66,0,0,1-.42.61,1.68,1.68,0,0,1-.6.37,2,2,0,0,1-.74.14,1.77,1.77,0,0,1-1.18-.36,1.25,1.25,0,0,1-.43-1,4,4,0,0,1,.74-2l-.28-.13.7-1.21a8.79,8.79,0,0,1,.9.52,4.12,4.12,0,0,1,.74.62,2.68,2.68,0,0,1,.52.74A2.28,2.28,0,0,1,68.5,6.11Zm-1,.09c0-.4-.32-.76-1-1.08a2.66,2.66,0,0,0-.34.51,1.05,1.05,0,0,0-.15.5.52.52,0,0,0,.14.36.67.67,0,0,0,.49.15l.26,0,.27-.08a.69.69,0,0,0,.22-.14A.29.29,0,0,0,67.47,6.2Z"/><path class="cls-2" d="M70.64,5.14a4.86,4.86,0,0,1,.54,1,2.68,2.68,0,0,1,.21,1.11,2.54,2.54,0,0,1-.31,1.22,5,5,0,0,1-.81,1.1,7.89,7.89,0,0,1-1.1,1,13,13,0,0,1-1.24.8l-1.12-.89c.29-.14.63-.32,1-.55A11.07,11.07,0,0,0,69,9.09a6.76,6.76,0,0,0,.91-.84,1.26,1.26,0,0,0,.37-.81,1.18,1.18,0,0,0-.2-.59c-.14-.22-.28-.43-.42-.61Z"/><path class="cls-2" d="M71.32,10.42c.28-.13.61-.31,1-.53s.74-.47,1.09-.73a6,6,0,0,0,.9-.81,1.42,1.42,0,0,0,.41-.81,1.36,1.36,0,0,1-.42.16,2.12,2.12,0,0,1-.49.06,1.43,1.43,0,0,1-1.1-.37,1.44,1.44,0,0,1-.32-.95,2.74,2.74,0,0,1,.1-.74,2.3,2.3,0,0,1,.29-.7,2.08,2.08,0,0,1,.49-.53A1.15,1.15,0,0,1,74,4.26a1.28,1.28,0,0,1,.87.3,2.32,2.32,0,0,1,.55.75,3.58,3.58,0,0,1,.28.93,5.73,5.73,0,0,1,.08.86,3.19,3.19,0,0,1-.27,1.33,4.33,4.33,0,0,1-.73,1.09,7.47,7.47,0,0,1-1.07.92c-.4.29-.82.56-1.27.83Zm3.26-4a1.56,1.56,0,0,0-.26-.6.56.56,0,0,0-.46-.25.52.52,0,0,0-.39.17.57.57,0,0,0-.17.42.34.34,0,0,0,.2.32,1,1,0,0,0,.43.09,1.5,1.5,0,0,0,.37,0A1.11,1.11,0,0,0,74.58,6.38Z"/><path class="cls-2" d="M77.82,7.72a1.57,1.57,0,0,1-.65-.6,2.45,2.45,0,0,1-.31-.91,7.93,7.93,0,0,1-.1-1.14q0-.3,0-.84t0-1.17c0-.42,0-.85,0-1.3s0-.85,0-1.23L77.93,0V5.22a1.37,1.37,0,0,0,.24.89.91.91,0,0,0,.76.3V7.94A2.36,2.36,0,0,1,77.82,7.72Z"/><path class="cls-2" d="M86.39,7.94a1.73,1.73,0,0,1-.75-.15,1.25,1.25,0,0,1-.51-.53,1.6,1.6,0,0,1-.54.5,1.41,1.41,0,0,1-.66.17,1.24,1.24,0,0,1-.58-.16,1.48,1.48,0,0,1-.48-.51,1.58,1.58,0,0,1-1.32.67A1.24,1.24,0,0,1,81,7.77a1.44,1.44,0,0,1-.5-.51,1.32,1.32,0,0,1-1.21.68h-.32a.69.69,0,0,1-.2,0c-.07,0-.1,0-.1-.06V6.52s0-.07.1-.08a.69.69,0,0,1,.2,0h.35c.37,0,.55-.22.55-.66V5.29L80.77,5v.29a1.43,1.43,0,0,0,.2.87.72.72,0,0,0,.56.29q.78,0,.78-.66V5.29L83.25,5v.45a1.26,1.26,0,0,0,.18.77.94.94,0,0,0,1.17.05.62.62,0,0,0,.19-.48V5.29L85.71,5v.55c0,.16,0,.3,0,.41a.54.54,0,0,0,.08.27.37.37,0,0,0,.21.17,1.37,1.37,0,0,0,.41,0h.16V7.94ZM81.24,3.55l.66-.9.86.57.49-.67,1,.67-.66.9-.87-.57-.46.67Zm.49-1.47.67-.87.93.62-.65.87Z"/><path class="cls-2" d="M86.28,6.52s0-.07.1-.08a.71.71,0,0,1,.21,0,2.32,2.32,0,0,0,.9-.15A1.09,1.09,0,0,0,88,5.8c.11-.17.22-.36.33-.56a3.85,3.85,0,0,1,.36-.56,1.66,1.66,0,0,1,.45-.43,1.07,1.07,0,0,1,.62-.17,1,1,0,0,1,.65.21,1.77,1.77,0,0,1,.44.54,2.49,2.49,0,0,1,.24.68,3.28,3.28,0,0,1,.08.65,3.27,3.27,0,0,1,0,.53,1.69,1.69,0,0,1-.19.52,1.31,1.31,0,0,1-.33.4.79.79,0,0,1-.5.16,1.88,1.88,0,0,1-.88-.22,4.1,4.1,0,0,1-.76-.48,2.33,2.33,0,0,1-.79.65,2.45,2.45,0,0,1-1.1.22.71.71,0,0,1-.21,0c-.07,0-.1,0-.1-.06Zm3.44-1.24q-.42-.08-.69.66a2.32,2.32,0,0,0,.44.31,2.08,2.08,0,0,0,.48.16.21.21,0,0,0,.28-.18,1.42,1.42,0,0,0,0-.28,1,1,0,0,0-.09-.3A1,1,0,0,0,90,5.41.41.41,0,0,0,89.72,5.28Z"/><path class="cls-2" d="M103,7.94a1.35,1.35,0,0,1-1.35-.76A2.79,2.79,0,0,1,100,8a14,14,0,0,1-3.13.28A5.55,5.55,0,0,1,94,7.74a1.8,1.8,0,0,1-.94-1.61,3.09,3.09,0,0,1,.13-.81,6.46,6.46,0,0,1,.37-.91l1,.29c-.07.15-.13.31-.19.48a1.66,1.66,0,0,0-.07.49.8.8,0,0,0,.27.64,2,2,0,0,0,.73.33,4.43,4.43,0,0,0,1,.13c.38,0,.77,0,1.15,0s.69,0,1.11,0a7.62,7.62,0,0,0,1.2-.12,3.28,3.28,0,0,0,1-.32.65.65,0,0,0,.39-.59V5.4l1.08-.35a6.41,6.41,0,0,0,0,.7.86.86,0,0,0,.14.41.54.54,0,0,0,.3.2,2.24,2.24,0,0,0,.51,0h0V7.94ZM96.1,3.5l.66-.9.85.57.49-.68,1,.68-.68.89-.87-.56-.45.67Z"/><path class="cls-2" d="M102.92,6.52s0-.07.09-.08a.76.76,0,0,1,.21,0h1.89a3.18,3.18,0,0,0,.66-.07,1,1,0,0,0,.43-.2.56.56,0,0,0,.17-.42,1.6,1.6,0,0,1-.47.19,2,2,0,0,1-.49.06,1.39,1.39,0,0,1-.92-.29,1.06,1.06,0,0,1-.37-.91,2.83,2.83,0,0,1,.09-.68,2.17,2.17,0,0,1,.28-.68,1.64,1.64,0,0,1,.46-.52,1.08,1.08,0,0,1,.64-.2,1.15,1.15,0,0,1,.85.33,2.49,2.49,0,0,1,.55.79,4,4,0,0,1,.28,1,6.61,6.61,0,0,1,.08.89,2.32,2.32,0,0,1-.26,1.16,1.88,1.88,0,0,1-.67.7,2.67,2.67,0,0,1-.91.33,7,7,0,0,1-1,.08h-1.28l-.21,0c-.06,0-.09,0-.09-.06ZM106.39.88l-.8,1.06L104.5,1.2l.8-1.07Zm-.9,4a.89.89,0,0,0,.37-.1,1.94,1.94,0,0,0,.33-.23,1.54,1.54,0,0,0-.28-.47.55.55,0,0,0-.44-.19.42.42,0,0,0-.34.19.57.57,0,0,0-.16.38.35.35,0,0,0,.17.32A.71.71,0,0,0,105.49,4.83Z"/><path class="cls-2" d="M109.44,7.72a1.57,1.57,0,0,1-.65-.6,2.45,2.45,0,0,1-.31-.91,7.93,7.93,0,0,1-.1-1.14q0-.3,0-.84t0-1.17c0-.42,0-.85,0-1.3s0-.85,0-1.23L109.55,0V5.22a1.37,1.37,0,0,0,.24.89.91.91,0,0,0,.76.3V7.94A2.36,2.36,0,0,1,109.44,7.72Z"/><path class="cls-2" d="M112.43,9.6l-.66.9-.86-.57-.49.66-1-.66.7-.91.86.58.47-.67Zm-2.18-3.08s0-.07.1-.08a.64.64,0,0,1,.2,0h.87c.45,0,.68-.1.68-.32a.31.31,0,0,0,0-.13,1.08,1.08,0,0,0-.11-.21,2.68,2.68,0,0,0-.22-.32l-.38-.5.86-1.21a2.37,2.37,0,0,1,.64.91,3.17,3.17,0,0,1,.23,1.17,2.33,2.33,0,0,1-.18,1,1.73,1.73,0,0,1-.49.66,2.07,2.07,0,0,1-.73.4,3,3,0,0,1-.91.13h-.23a.64.64,0,0,1-.2,0c-.07,0-.1,0-.1-.06Z"/><path class="cls-2" d="M115.49,5.14a5.44,5.44,0,0,1,.54,1,2.68,2.68,0,0,1,.21,1.11,3.25,3.25,0,0,1-.2,1.07,5.31,5.31,0,0,1-.55,1.09,6.34,6.34,0,0,1-.87,1,7.15,7.15,0,0,1-1.13.89l-1.1-.89c.29-.16.59-.36.91-.58a9,9,0,0,0,.87-.72,4,4,0,0,0,.66-.8,1.62,1.62,0,0,0,.26-.85,1.18,1.18,0,0,0-.2-.59c-.14-.22-.28-.43-.42-.61Z"/><path class="cls-2" d="M121.71,5.86a2.32,2.32,0,0,1-.2,1,2,2,0,0,1-.54.71,2.19,2.19,0,0,1-.79.4,3.43,3.43,0,0,1-1,.14A3.24,3.24,0,0,1,118,7.9a2.18,2.18,0,0,1-.85-.63l.63-1.15a1.9,1.9,0,0,0,1.28.46h.53a3.15,3.15,0,0,0,.56-.08,1.17,1.17,0,0,0,.45-.21.48.48,0,0,0,.19-.41.91.91,0,0,0-.24-.54,3.89,3.89,0,0,0-.57-.58,7.33,7.33,0,0,0-.66-.51c-.23-.15-.41-.27-.54-.34l.6-1.45C120.92,3.43,121.71,4.56,121.71,5.86Z"/><path class="cls-2" d="M131,5.08a2.8,2.8,0,0,0-1.1-.16,1.56,1.56,0,0,0-.5.09,1.76,1.76,0,0,0-.48.22,1.37,1.37,0,0,0-.36.3.52.52,0,0,0-.15.34.24.24,0,0,0,.2.23,2.09,2.09,0,0,0,.5.08l.65.05a2.28,2.28,0,0,1,.64.13,1.16,1.16,0,0,1,.5.33.88.88,0,0,1,.2.63,2.42,2.42,0,0,1-.39,1.37,3.4,3.4,0,0,1-1,1,4.4,4.4,0,0,1-1.34.6,5.07,5.07,0,0,1-1.41.21,4.59,4.59,0,0,1-1.46-.21,2.87,2.87,0,0,1-1-.56,2.5,2.5,0,0,1-.61-.87,2.73,2.73,0,0,1-.2-1.08,4,4,0,0,1,.15-1.06,4.65,4.65,0,0,1,.46-1.12l1.05.36a4.34,4.34,0,0,0-.31.72,2.24,2.24,0,0,0-.12.7A1.7,1.7,0,0,0,125,8a1.27,1.27,0,0,0,.4.5,2.14,2.14,0,0,0,.71.35,3.81,3.81,0,0,0,1,.12,4.58,4.58,0,0,0,.91-.1,6.87,6.87,0,0,0,1-.28,3.26,3.26,0,0,0,.77-.39c.21-.14.32-.29.32-.43s-.05-.13-.15-.16a2.42,2.42,0,0,0-.42-.08l-.63,0c-.23,0-.48,0-.74-.07a1.09,1.09,0,0,1-.67-.33,1.09,1.09,0,0,1-.21-.69,2.62,2.62,0,0,1,.25-1.13,3.14,3.14,0,0,1,.68-.93,3,3,0,0,1,.94-.64,2.56,2.56,0,0,1,1.07-.24,2.1,2.1,0,0,1,.56.07,2.38,2.38,0,0,1,.55.23Z"/><path class="cls-2" d="M133.6,7.77l-1.35.36V.53L133.6,0Z"/><path class="cls-2" d="M136.69,7.86a1,1,0,0,1-.26-.18A3.14,3.14,0,0,1,136,8.74a4.92,4.92,0,0,1-.78.95,9.57,9.57,0,0,1-1,.84c-.38.26-.76.51-1.16.74l-1.12-.88,1-.54a12.2,12.2,0,0,0,1.13-.74A5.72,5.72,0,0,0,135,8.3a1.26,1.26,0,0,0,.37-.82.78.78,0,0,0-.07-.33c-.06-.11-.12-.23-.19-.34s-.14-.22-.21-.32l-.17-.24,1-1.09q.15.22.27.45a3.13,3.13,0,0,0,.28.4,1.41,1.41,0,0,0,.31.29.78.78,0,0,0,.41.11V7.94A.71.71,0,0,1,136.69,7.86Z"/><path class="cls-2" d="M136.7,6.52s0-.07.1-.08a.64.64,0,0,1,.2,0h.87c.45,0,.67-.1.67-.32a.3.3,0,0,0,0-.13,1.08,1.08,0,0,0-.11-.21,2.68,2.68,0,0,0-.22-.32c-.1-.13-.23-.29-.38-.5l.85-1.21a2.18,2.18,0,0,1,.64.91,3,3,0,0,1,.23,1.17,2.52,2.52,0,0,1-.17,1,1.84,1.84,0,0,1-.49.66,2.07,2.07,0,0,1-.73.4,3,3,0,0,1-.91.13H137a.64.64,0,0,1-.2,0c-.07,0-.1,0-.1-.06ZM137,10l.79-1.06,1.09.74-.8,1.07Z"/><path class="cls-2" d="M1.4,20.57H0V19.18H1.4Z"/><path class="cls-2" d="M8.42,20.57a2.12,2.12,0,0,1-1.08-.28,2,2,0,0,1-.77-.77,2.06,2.06,0,0,1-2.12,1.23,2.28,2.28,0,0,1-1.86-.7l.47-1.22a1.67,1.67,0,0,0,.67.31,4.08,4.08,0,0,0,.93.11,3.27,3.27,0,0,0,.54,0,1.71,1.71,0,0,0,.47-.12A1.12,1.12,0,0,0,6,18.87a.45.45,0,0,0,.12-.31.74.74,0,0,0,0-.12L6,18.11c-.06-.18-.15-.45-.28-.81s-.3-.86-.52-1.5l1-1c.28.88.49,1.59.66,2.14a11.79,11.79,0,0,0,.44,1.27,1.62,1.62,0,0,0,.44.62A1,1,0,0,0,8.4,19h.28v1.53Z"/><path class="cls-2" d="M11.56,20.57a1.18,1.18,0,0,1-1.22-.68,1.72,1.72,0,0,1-1.54.68H8.68a.65.65,0,0,1-.2,0c-.07,0-.1,0-.1-.07V19.15s0-.06.1-.08a.64.64,0,0,1,.2,0h.07c.66,0,1-.22,1-.67v-.53l1.08-.34v.33c0,.81.26,1.21.79,1.21h.08v1.53Zm.13,1.67-.66.89-.86-.56-.49.65-1-.65.7-.91.86.58.48-.68Z"/><path class="cls-2" d="M14.56,20.57a1.17,1.17,0,0,1-1.21-.68,1.73,1.73,0,0,1-1.54.68h-.12a.75.75,0,0,1-.21,0c-.06,0-.1,0-.1-.07V19.15s0-.06.1-.08a.76.76,0,0,1,.21,0h.06c.66,0,1-.22,1-.67v-.53l1.08-.34v.33c0,.81.27,1.21.8,1.21h.08v1.53ZM14,15.68l-.79,1.05L12.1,16l.8-1.07Z"/><path class="cls-2" d="M14.39,19.15s0-.06.1-.08a.71.71,0,0,1,.21,0h.39c1.47,0,2.2-.18,2.2-.54a.82.82,0,0,0-.22-.46,5.72,5.72,0,0,0-.55-.57c-.22-.2-.46-.39-.71-.58l-.68-.51a2,2,0,0,1-.25-.19.38.38,0,0,1-.13-.16.42.42,0,0,1,0-.2c0-.07,0-.17,0-.3s0-.17,0-.29.05-.24.08-.37a1.61,1.61,0,0,1,.12-.33.41.41,0,0,1,.17-.21,20,20,0,0,1,2.21-.94c.91-.34,2-.7,3.29-1.07l-.17,1.54c-.77.17-1.53.35-2.27.55a17,17,0,0,0-2.19.72c-.15.06-.18.13-.08.21l.88.63a6.55,6.55,0,0,1,.79.68,3.16,3.16,0,0,1,.57.8,2.07,2.07,0,0,1,.22,1,1.85,1.85,0,0,1-.32,1.13,2,2,0,0,1-.81.65,3.75,3.75,0,0,1-1.08.3,8.9,8.9,0,0,1-1.13.07H14.7a.71.71,0,0,1-.21,0c-.07,0-.1,0-.1-.07Z"/><path class="cls-2" d="M28.64,19.64a4.16,4.16,0,0,1-.54,1.27,2.71,2.71,0,0,1-2.39,1.19,3.6,3.6,0,0,1-1.33-.22,2.51,2.51,0,0,1-.92-.61,2.57,2.57,0,0,1-.54-.92,3.49,3.49,0,0,1-.18-1.14,4.44,4.44,0,0,1,.13-1,4.23,4.23,0,0,1,.41-1l1,.36a3.76,3.76,0,0,0-.27.67,2.63,2.63,0,0,0-.09.67,2,2,0,0,0,.11.65,1.4,1.4,0,0,0,.35.54,1.68,1.68,0,0,0,.58.36,2.73,2.73,0,0,0,.86.13,2.12,2.12,0,0,0,.92-.19,1.79,1.79,0,0,0,.61-.51,1.85,1.85,0,0,0,.32-.68,2.36,2.36,0,0,0,.09-.73l-.26-5.32,1.33-.53v5.48A7,7,0,0,1,28.64,19.64Z"/><path class="cls-2" d="M31.23,20.36a1.71,1.71,0,0,1-.65-.6,2.51,2.51,0,0,1-.31-.91,8.21,8.21,0,0,1-.1-1.15c0-.2,0-.47,0-.83s0-.76,0-1.18,0-.85,0-1.3,0-.85,0-1.23l1.29-.53v5.23a1.41,1.41,0,0,0,.24.89.94.94,0,0,0,.76.29v1.53A2.5,2.5,0,0,1,31.23,20.36Z"/><path class="cls-2" d="M32.34,20.57a.68.68,0,0,1-.2,0c-.07,0-.1,0-.1-.07V19.15s0-.06.1-.08a.69.69,0,0,1,.2,0h1.32v1.53Z"/><path class="cls-2" d="M33.66,20.57a.68.68,0,0,1-.2,0c-.07,0-.1,0-.1-.07V19.15s0-.06.1-.08a.69.69,0,0,1,.2,0H35v1.53Z"/><path class="cls-2" d="M35,20.57a.65.65,0,0,1-.2,0c-.07,0-.1,0-.1-.07V19.15s0-.06.1-.08a.64.64,0,0,1,.2,0H36.3v1.53Z"/><path class="cls-2" d="M36.3,20.57a.65.65,0,0,1-.2,0c-.07,0-.1,0-.1-.07V19.15s0-.06.1-.08a.64.64,0,0,1,.2,0h1.32v1.53Z"/><path class="cls-2" d="M37.62,20.57a.65.65,0,0,1-.2,0c-.07,0-.1,0-.1-.07V19.15s0-.06.1-.08a.64.64,0,0,1,.2,0h1.32v1.53Z"/><path class="cls-2" d="M38.94,20.57a.65.65,0,0,1-.2,0c-.07,0-.1,0-.1-.07V19.15s0-.06.1-.08a.64.64,0,0,1,.2,0h1.32v1.53Z"/><path class="cls-2" d="M40,19.15s0-.06.09-.08a.76.76,0,0,1,.21,0h.13a.87.87,0,0,0,.59-.19.72.72,0,0,0,.24-.57V17.9l.93-.32V18a1.44,1.44,0,0,0,.17.77.54.54,0,0,0,.51.28c.62,0,.92-.27.92-.83v-.5l.94-.28v.66a1.06,1.06,0,0,0,.26.72.89.89,0,0,0,.68.29.55.55,0,0,0,.43-.15.57.57,0,0,0,.12-.37,1.11,1.11,0,0,0-.13-.52,1.31,1.31,0,0,0-.3-.4l.91-1a2.57,2.57,0,0,1,.45.83,3,3,0,0,1,.15.95,2.93,2.93,0,0,1-.1.78,2.48,2.48,0,0,1-.31.7,1.69,1.69,0,0,1-.52.51,1.36,1.36,0,0,1-.7.19,2.08,2.08,0,0,1-.89-.19,1.28,1.28,0,0,1-.58-.57,1.24,1.24,0,0,1-.5.54,1.3,1.3,0,0,1-.67.2,1.6,1.6,0,0,1-.76-.17,1.24,1.24,0,0,1-.53-.51,1.29,1.29,0,0,1-.64.53,2.31,2.31,0,0,1-.8.15.75.75,0,0,1-.21,0c-.06,0-.09,0-.09-.07Z"/><path class="cls-2" d="M49.73,17.78a5.1,5.1,0,0,1,.55.94,2.86,2.86,0,0,1,.2,1.11,2.52,2.52,0,0,1-.31,1.22,4.66,4.66,0,0,1-.8,1.11,7.92,7.92,0,0,1-1.11.95,14.27,14.27,0,0,1-1.23.8L45.9,23c.29-.14.64-.33,1-.56a12.14,12.14,0,0,0,1.12-.75,6.2,6.2,0,0,0,.91-.84,1.24,1.24,0,0,0,.37-.81,1.12,1.12,0,0,0-.2-.59c-.14-.22-.28-.42-.42-.61Z"/><path class="cls-2" d="M53.15,20.4l-1.35.36v-7.6l1.35-.53Z"/><path class="cls-2" d="M57.79,20.4l-1.35.36v-7.6l1.35-.53Z"/><path class="cls-2" d="M60.26,17.78a5,5,0,0,1,.54.94A2.68,2.68,0,0,1,61,19.83a2.63,2.63,0,0,1-.31,1.22,5,5,0,0,1-.81,1.11,8.44,8.44,0,0,1-1.1.95,13,13,0,0,1-1.24.8L56.43,23c.29-.14.63-.33,1-.56a10.92,10.92,0,0,0,1.12-.75,5.73,5.73,0,0,0,.91-.84,1,1,0,0,0,.18-1.4c-.14-.22-.28-.42-.42-.61Z"/><path class="cls-2" d="M68.79,18.49a2.41,2.41,0,0,1-.2,1,1.92,1.92,0,0,1-.54.71,2.33,2.33,0,0,1-.8.41,3.69,3.69,0,0,1-1,.13A3.2,3.2,0,0,1,65,20.53a2.21,2.21,0,0,1-.86-.63l.64-1.15a1.88,1.88,0,0,0,1.28.46h.53a2.44,2.44,0,0,0,.56-.08,1,1,0,0,0,.45-.21.5.5,0,0,0,.18-.41.88.88,0,0,0-.23-.54,4.43,4.43,0,0,0-.57-.58c-.22-.18-.44-.35-.67-.51s-.4-.26-.53-.33l.59-1.45C68,16.06,68.79,17.2,68.79,18.49Z"/><path class="cls-2" d="M73.34,20.57a3.22,3.22,0,0,1-.49,1,5.71,5.71,0,0,1-.77.88,8.48,8.48,0,0,1-1,.78c-.36.25-.72.48-1.09.69L68.9,23l.85-.46c.33-.19.65-.39,1-.6a9.42,9.42,0,0,0,.89-.68,2.67,2.67,0,0,0,.59-.72,5.57,5.57,0,0,1-.85-.06,1.72,1.72,0,0,1-.67-.23,1.15,1.15,0,0,1-.43-.47,1.79,1.79,0,0,1-.15-.79,2.89,2.89,0,0,1,.09-.68,2.71,2.71,0,0,1,.28-.68,2,2,0,0,1,.45-.54,1,1,0,0,1,.63-.21,1.29,1.29,0,0,1,.73.2,1.79,1.79,0,0,1,.54.52,2.57,2.57,0,0,1,.35.68,3.43,3.43,0,0,1,.16.73h.48v1.53Zm-1-1.53a1.68,1.68,0,0,0-.1-.29,1.34,1.34,0,0,0-.17-.31,1,1,0,0,0-.23-.23.44.44,0,0,0-.27-.09.49.49,0,0,0-.38.17.57.57,0,0,0-.15.38.29.29,0,0,0,.25.33,2.77,2.77,0,0,0,.39,0Z"/><path class="cls-2" d="M73.51,19.15s0-.06.1-.08l.21,0h1.84a3.29,3.29,0,0,0,.58-.09,5.47,5.47,0,0,0,.76-.23l1.25-.47-1.16-.32-.61-.17a.65.65,0,0,0-.48.05,1.21,1.21,0,0,0-.38.31l-.91-.62a3.79,3.79,0,0,1,.81-1,1.11,1.11,0,0,1,.92-.23c.3,0,.6.11.9.18l.92.26,1,.25a9.78,9.78,0,0,0,1.08.22l.52,0,.51,0-.41,1.5-.55,0a3.14,3.14,0,0,0-.45,0,2.35,2.35,0,0,0-.43.13,5.44,5.44,0,0,0-.5.24l-1.11.66a6.06,6.06,0,0,1-.86.46,4,4,0,0,1-.93.28,7.86,7.86,0,0,1-1.32.09h-1a.75.75,0,0,1-.21,0c-.06,0-.1,0-.1-.07Zm3.95-4.87-.79,1.06-1.1-.74.81-1.07Z"/><path class="cls-2" d="M88.17,18.74a2.1,2.1,0,0,1-.15.82,1.58,1.58,0,0,1-.42.61,1.91,1.91,0,0,1-.61.38,1.93,1.93,0,0,1-.73.13,1.8,1.8,0,0,1-1.19-.36,1.26,1.26,0,0,1-.42-1,4.07,4.07,0,0,1,.73-2l-.27-.14.7-1.21a8.64,8.64,0,0,1,.89.52,4.67,4.67,0,0,1,.75.62,2.8,2.8,0,0,1,.51.74A2.16,2.16,0,0,1,88.17,18.74Zm-1,.09c0-.39-.33-.75-1-1.08a3.2,3.2,0,0,0-.33.51,1.12,1.12,0,0,0-.15.51.45.45,0,0,0,.14.35.67.67,0,0,0,.49.15l.26,0a1.07,1.07,0,0,0,.27-.08.46.46,0,0,0,.21-.14A.25.25,0,0,0,87.14,18.83Z"/><path class="cls-2" d="M90.83,20.4l-1.34.36v-7.6l1.34-.53Z"/><path class="cls-2" d="M94.26,20.49a.86.86,0,0,1-.26-.18,3.36,3.36,0,0,1-.44,1.06,5.4,5.4,0,0,1-.78.95,7.87,7.87,0,0,1-1,.84c-.37.26-.76.51-1.15.74L89.49,23c.28-.14.62-.33,1-.55a11.06,11.06,0,0,0,1.14-.73,6.17,6.17,0,0,0,.91-.82,1.25,1.25,0,0,0,.38-.82.88.88,0,0,0-.08-.33,2.79,2.79,0,0,0-.18-.34c-.07-.12-.14-.22-.21-.32s-.13-.17-.18-.23l1-1.1q.15.23.27.45a2.33,2.33,0,0,0,.27.4,1.24,1.24,0,0,0,.32.29.68.68,0,0,0,.41.11v1.53A.58.58,0,0,1,94.26,20.49Z"/><path class="cls-2" d="M100,20.57a2,2,0,0,1-.68-.12,1.64,1.64,0,0,1-.57-.36c0,.12-.07.23-.1.33a.9.9,0,0,1-.13.26.6.6,0,0,1-.22.16.92.92,0,0,1-.37.06,2.25,2.25,0,0,1-.49-.06,4.25,4.25,0,0,1-.53-.19,4.82,4.82,0,0,1-.5-.27,2.08,2.08,0,0,1-.42-.31,2,2,0,0,1-.61.37,2.18,2.18,0,0,1-.81.13.75.75,0,0,1-.21,0c-.06,0-.1,0-.1-.07V19.15s0-.06.1-.08l.21,0H95a1.12,1.12,0,0,0,.38-.09.87.87,0,0,0,.31-.2,1.69,1.69,0,0,0,.27-.37c.09-.15.18-.29.28-.43a2,2,0,0,1,.31-.38A1.35,1.35,0,0,1,97,17.3a1,1,0,0,1,.47-.1.82.82,0,0,1,.64.31,6.08,6.08,0,0,1,.52.72c.11.2.21.35.28.46a.85.85,0,0,0,.25.25.71.71,0,0,0,.31.09h.64v1.53Zm-3.2-1.76-.06.12a.31.31,0,0,0-.06.13,2.08,2.08,0,0,0,.58.33,1.45,1.45,0,0,0,.51.13c.11,0,.17,0,.18-.11a.6.6,0,0,0,0-.26,1.35,1.35,0,0,0-.24-.5.48.48,0,0,0-.42-.25C97.08,18.4,96.92,18.53,96.8,18.81Z"/><path class="cls-2" d="M100.07,20.57a.75.75,0,0,1-.21,0c-.06,0-.1,0-.1-.07V19.15s0-.06.1-.08l.21,0h1.32v1.53Z"/><path class="cls-2" d="M101.39,20.57a.75.75,0,0,1-.21,0c-.06,0-.1,0-.1-.07V19.15s0-.06.1-.08a.76.76,0,0,1,.21,0h1.31v1.53Z"/><path class="cls-2" d="M102.7,20.57a.68.68,0,0,1-.2,0c-.07,0-.1,0-.1-.07V19.15s0-.06.1-.08a.69.69,0,0,1,.2,0H104v1.53Z"/><path class="cls-2" d="M104,20.57a.68.68,0,0,1-.2,0c-.07,0-.1,0-.1-.07V19.15s0-.06.1-.08a.69.69,0,0,1,.2,0h1.32v1.53Z"/><path class="cls-2" d="M105.34,20.57a.65.65,0,0,1-.2,0c-.07,0-.1,0-.1-.07V19.15s0-.06.1-.08a.64.64,0,0,1,.2,0h1.32v1.53Z"/><path class="cls-2" d="M106.66,20.57a.65.65,0,0,1-.2,0c-.07,0-.1,0-.1-.07V19.15s0-.06.1-.08a.64.64,0,0,1,.2,0H108v1.53Z"/><path class="cls-2" d="M107.68,19.15s0-.06.1-.08a.64.64,0,0,1,.2,0h1.14a1.17,1.17,0,0,1-.24-.67,1.63,1.63,0,0,1,.28-.89,2.77,2.77,0,0,1,.67-.73l-.29-.19.63-1.37,1,.73a13.23,13.23,0,0,1,1.16,1,7.81,7.81,0,0,1,1,1.15,2.2,2.2,0,0,1,.42,1.18,3.3,3.3,0,0,1-.1.8,2,2,0,0,1-.25.61A1,1,0,0,1,113,21a.54.54,0,0,1-.45,0,7.31,7.31,0,0,1-.92-.32c-.34-.14-.67-.3-1-.48a3.19,3.19,0,0,1-.83.26,4.13,4.13,0,0,1-.72.07H108a.65.65,0,0,1-.2,0c-.07,0-.1,0-.1-.07Zm2.44-.46a2.35,2.35,0,0,0,.38.23.93.93,0,0,0,.5-.36,1,1,0,0,0,.13-.47.49.49,0,0,0-.06-.23,1.56,1.56,0,0,0-.16-.2.8.8,0,0,0-.21-.15.49.49,0,0,0-.19-.05.41.41,0,0,0-.23.07,1,1,0,0,0-.23.19.81.81,0,0,0-.17.24.52.52,0,0,0-.07.21,1.51,1.51,0,0,0,0,.22A.61.61,0,0,0,110.12,18.69Zm1.92,0a1.77,1.77,0,0,1-.17.46,3.19,3.19,0,0,1-.26.38,1.87,1.87,0,0,0,.32.15l.31.13a1.29,1.29,0,0,0,.29.09c.07,0,.13,0,.19-.15a.86.86,0,0,0-.1-.75,3,3,0,0,0-.55-.64A.93.93,0,0,1,112,18.7Z"/><path class="cls-2" d="M120.53,18.74a2.1,2.1,0,0,1-.16.82,1.68,1.68,0,0,1-.41.61,2,2,0,0,1-.61.38,2,2,0,0,1-.74.13,1.79,1.79,0,0,1-1.18-.36,1.27,1.27,0,0,1-.43-1,4.1,4.1,0,0,1,.74-2l-.28-.14.7-1.21a7.84,7.84,0,0,1,.9.52,5.15,5.15,0,0,1,.75.62,3.06,3.06,0,0,1,.51.74A2.16,2.16,0,0,1,120.53,18.74Zm-1,.09c0-.39-.33-.75-1-1.08a3.23,3.23,0,0,0-.34.51,1.12,1.12,0,0,0-.15.51.45.45,0,0,0,.15.35.65.65,0,0,0,.49.15l.26,0a1.07,1.07,0,0,0,.27-.08.6.6,0,0,0,.21-.14A.25.25,0,0,0,119.5,18.83Z"/><path class="cls-2" d="M123,17.78a5.1,5.1,0,0,1,.55.94,2.69,2.69,0,0,1,.2,1.11,2.52,2.52,0,0,1-.31,1.22,4.66,4.66,0,0,1-.8,1.11,7.92,7.92,0,0,1-1.11.95,14.27,14.27,0,0,1-1.23.8L119.17,23c.29-.14.63-.33,1-.56a12.14,12.14,0,0,0,1.12-.75,5.73,5.73,0,0,0,.91-.84,1.25,1.25,0,0,0,.38-.81,1.14,1.14,0,0,0-.21-.59,7.19,7.19,0,0,0-.41-.61Z"/><path class="cls-2" d="M126.16,20.36a1.68,1.68,0,0,1-.64-.6,2.52,2.52,0,0,1-.32-.91,8.21,8.21,0,0,1-.1-1.15c0-.2,0-.47,0-.83s0-.76,0-1.18,0-.85,0-1.3,0-.85,0-1.23l1.3-.53v5.23a1.48,1.48,0,0,0,.23.89,1,1,0,0,0,.77.29v1.53A2.51,2.51,0,0,1,126.16,20.36Z"/><path class="cls-2" d="M132.71,20.57a2.08,2.08,0,0,1-.68-.12,1.64,1.64,0,0,1-.57-.36c0,.12-.07.23-.1.33a.71.71,0,0,1-.13.26.6.6,0,0,1-.22.16.92.92,0,0,1-.37.06,2.25,2.25,0,0,1-.49-.06,3.63,3.63,0,0,1-.52-.19,4.11,4.11,0,0,1-.51-.27,2.86,2.86,0,0,1-.42-.31,1.84,1.84,0,0,1-.6.37,2.24,2.24,0,0,1-.82.13.75.75,0,0,1-.21,0c-.06,0-.09,0-.09-.07V19.15s0-.06.09-.08a.76.76,0,0,1,.21,0h.47a1.12,1.12,0,0,0,.37-.09.79.79,0,0,0,.31-.2,1.22,1.22,0,0,0,.27-.37c.09-.15.18-.29.28-.43a2,2,0,0,1,.32-.38,1.31,1.31,0,0,1,.37-.26,1,1,0,0,1,.47-.1.81.81,0,0,1,.64.31,5.13,5.13,0,0,1,.52.72c.12.2.21.35.29.46a.72.72,0,0,0,.24.25.75.75,0,0,0,.32.09h.63v1.53Zm-3.2-1.76-.06.12-.06.13a2.13,2.13,0,0,0,.59.33,1.36,1.36,0,0,0,.5.13c.11,0,.17,0,.18-.11a.48.48,0,0,0,0-.26,1.5,1.5,0,0,0-.23-.5.51.51,0,0,0-.43-.25C129.79,18.4,129.63,18.53,129.51,18.81Z"/><path class="cls-2" d="M132.48,19.15s0-.06.1-.08a.64.64,0,0,1,.2,0h.13a.92.92,0,0,0,.6-.19.75.75,0,0,0,.23-.57V17.9l.93-.32V18a1.44,1.44,0,0,0,.17.77.54.54,0,0,0,.51.28c.62,0,.93-.27.93-.83v-.5l.93-.28v.66a1,1,0,0,0,.27.72.87.87,0,0,0,.67.29.55.55,0,0,0,.43-.15.57.57,0,0,0,.12-.37,1.11,1.11,0,0,0-.13-.52,1.31,1.31,0,0,0-.3-.4l.91-1a2.57,2.57,0,0,1,.45.83,3,3,0,0,1,.15.95,2.93,2.93,0,0,1-.1.78,2.23,2.23,0,0,1-.31.7,1.69,1.69,0,0,1-.52.51,1.36,1.36,0,0,1-.7.19,2.08,2.08,0,0,1-.89-.19,1.28,1.28,0,0,1-.58-.57,1.24,1.24,0,0,1-.5.54,1.3,1.3,0,0,1-.67.2,1.6,1.6,0,0,1-.76-.17,1.24,1.24,0,0,1-.53-.51,1.29,1.29,0,0,1-.64.53,2.31,2.31,0,0,1-.8.15.65.65,0,0,1-.2,0c-.07,0-.1,0-.1-.07Zm2.74-3.09.66-.9.86.57.49-.67,1,.67-.66.9-.87-.57-.46.67Zm.49-1.46.67-.87.92.62-.64.87Z"/><path class="cls-4" d="M16.09,40.37a3.05,3.05,0,0,1-.44,1,2.13,2.13,0,0,1-.78.71,2.35,2.35,0,0,1-1.17.27,2.9,2.9,0,0,1-1.08-.19,2.06,2.06,0,0,1-.76-.5,2,2,0,0,1-.44-.75,2.77,2.77,0,0,1-.15-.92,3.38,3.38,0,0,1,.11-.83,3.17,3.17,0,0,1,.34-.81l.79.29a3.42,3.42,0,0,0-.21.55,2.15,2.15,0,0,0-.08.55,1.6,1.6,0,0,0,.09.53,1.33,1.33,0,0,0,.28.44,1.43,1.43,0,0,0,.48.29,2.1,2.1,0,0,0,.7.11,1.67,1.67,0,0,0,.75-.16,1.35,1.35,0,0,0,.5-.41,1.82,1.82,0,0,0,.27-.56,2.05,2.05,0,0,0,.07-.6l-.22-4.34,1.09-.43v4.47A5.57,5.57,0,0,1,16.09,40.37Z"/><path class="cls-4" d="M17.85,41a1.32,1.32,0,0,1-.53-.49,2.29,2.29,0,0,1-.26-.75,8.49,8.49,0,0,1-.08-.93c0-.16,0-.39,0-.68s0-.62,0-1l0-1.06c0-.37,0-.7,0-1l1.05-.43v4.27a1.12,1.12,0,0,0,.2.72.73.73,0,0,0,.62.25v1.25A2,2,0,0,1,17.85,41Z"/><path class="cls-4" d="M18.51,40s0,0,.08-.06a.5.5,0,0,1,.17,0h.11a.72.72,0,0,0,.48-.17.56.56,0,0,0,.2-.46V39l.75-.26V39a1.23,1.23,0,0,0,.14.63.45.45,0,0,0,.42.24c.5,0,.75-.23.75-.68V38.8l.77-.23v.54a.81.81,0,0,0,.22.58.68.68,0,0,0,.54.24.46.46,0,0,0,.36-.12.49.49,0,0,0,.1-.3,1,1,0,0,0-.11-.43,1,1,0,0,0-.25-.33l.75-.84a2.49,2.49,0,0,1,.37.68,2.54,2.54,0,0,1,.12.78,2.35,2.35,0,0,1-.09.64,1.83,1.83,0,0,1-.25.57,1.27,1.27,0,0,1-.42.41,1.12,1.12,0,0,1-.58.16,1.66,1.66,0,0,1-.72-.16,1,1,0,0,1-.47-.46,1,1,0,0,1-.41.44,1.26,1.26,0,0,1-.55.17,1.38,1.38,0,0,1-.62-.14,1.18,1.18,0,0,1-.44-.42,1,1,0,0,1-.51.43,2,2,0,0,1-.66.13.51.51,0,0,1-.17,0c-.05,0-.08,0-.08,0Z"/><path class="cls-4" d="M26.14,38.85a4.7,4.7,0,0,1,.44.77,2.14,2.14,0,0,1,.17.91,2.09,2.09,0,0,1-.25,1,4,4,0,0,1-.66.9,6.81,6.81,0,0,1-.9.78,11.44,11.44,0,0,1-1,.65L23,43.14c.24-.11.52-.27.84-.45a8.1,8.1,0,0,0,.91-.62,5.59,5.59,0,0,0,.75-.68,1.05,1.05,0,0,0,.3-.66.94.94,0,0,0-.16-.49l-.34-.49Z"/><path class="cls-4" d="M28.57,41l-1.1.29V35.08l1.1-.43Z"/></svg>