<svg id="Layer_1" data-name="Layer 1" xmlns="http://www.w3.org/2000/svg" viewBox="0 0 120 40.9"><defs><style>.cls-1{fill:#e6e7e8;}.cls-2{fill:#58595b;}.cls-3{fill:#231f20;}.cls-4{fill:#fff;}.cls-5{fill:#a6a8ab;}</style></defs><rect class="cls-1" x="21.74" y="22.68" width="98.26" height="18.21"/><rect class="cls-2" x="0.34" y="22.68" width="33.79" height="18.21"/><path class="cls-3" d="M1.7,5.87a1,1,0,0,1-.39-.36A1.56,1.56,0,0,1,1.12,5a3.88,3.88,0,0,1-.06-.7c0-.12,0-.29,0-.51S1,3.3,1,3s0-.52,0-.79,0-.52,0-.74l.79-.32V4.35a.91.91,0,0,0,.14.55.57.57,0,0,0,.47.18V6A1.44,1.44,0,0,1,1.7,5.87Z"/><path class="cls-3" d="M2.19,5.14s0,0,.06,0h.82a.72.72,0,0,1-.15-.41,1,1,0,0,1,.17-.54,1.78,1.78,0,0,1,.41-.45l-.18-.11.39-.83.6.44a7.79,7.79,0,0,1,.71.6,4.68,4.68,0,0,1,.58.7,1.31,1.31,0,0,1,.25.72,2.44,2.44,0,0,1,0,.48,1.15,1.15,0,0,1-.16.37.57.57,0,0,1-.23.21.31.31,0,0,1-.28,0,3.29,3.29,0,0,1-.55-.19A5.75,5.75,0,0,1,4,5.8a1.82,1.82,0,0,1-.5.16A2.55,2.55,0,0,1,3,6H2.25s-.06,0-.06,0Zm1.48-.28L3.91,5a.54.54,0,0,0,.3-.22.63.63,0,0,0,.08-.28.23.23,0,0,0,0-.14.4.4,0,0,0-.1-.12A.27.27,0,0,0,4,4.15a.28.28,0,0,0-.12,0,.3.3,0,0,0-.14,0l-.14.11a.78.78,0,0,0-.1.15.24.24,0,0,0,0,.13s0,.07,0,.13A.37.37,0,0,0,3.67,4.86Zm1.17,0a1.16,1.16,0,0,1-.1.28l-.16.23.2.09L5,5.55l.18,0s.08,0,.11-.09a.51.51,0,0,0,0-.45,1.83,1.83,0,0,0-.34-.39A.68.68,0,0,1,4.84,4.87Z"/><path class="cls-3" d="M9.29,4.74a1.46,1.46,0,0,1-.12.62,1.27,1.27,0,0,1-.32.43A1.51,1.51,0,0,1,8.36,6a2.2,2.2,0,0,1-.58.08A2,2,0,0,1,7,6a1.43,1.43,0,0,1-.52-.38l.39-.7a1.13,1.13,0,0,0,.77.28H8a1.27,1.27,0,0,0,.34,0A.83.83,0,0,0,8.59,5a.33.33,0,0,0,.11-.25.58.58,0,0,0-.14-.33,2.31,2.31,0,0,0-.35-.35,2.87,2.87,0,0,0-.4-.31l-.33-.21.37-.88A2.5,2.5,0,0,1,9.29,4.74Z"/><path class="cls-3" d="M10.83,5.9,10,6.12V1.51l.82-.32Z"/><path class="cls-3" d="M15,6a1.22,1.22,0,0,1-.65-.17,1.18,1.18,0,0,1-.47-.47,1.25,1.25,0,0,1-1.29.75,1.37,1.37,0,0,1-1.13-.43L11.76,5a1.22,1.22,0,0,0,.41.18,2.1,2.1,0,0,0,.56.07,1.83,1.83,0,0,0,.33,0,1.15,1.15,0,0,0,.28-.08.58.58,0,0,0,.2-.13.27.27,0,0,0,.08-.19.25.25,0,0,0,0-.07.74.74,0,0,0-.06-.2c0-.11-.09-.27-.17-.49s-.18-.52-.31-.91l.64-.58.39,1.3a5.26,5.26,0,0,0,.28.77,1,1,0,0,0,.26.38.67.67,0,0,0,.37.1h.17V6Z"/><path class="cls-3" d="M16.31,7l-.4.55-.52-.35-.3.4-.62-.4.42-.55.52.35.29-.41ZM15,5.14s0,0,.06,0h.65c.27,0,.41-.07.41-.2a.31.31,0,0,0,0-.08L16,4.68l-.14-.2-.23-.3.52-.74a1.61,1.61,0,0,1,.39.55,2,2,0,0,1,.14.72,1.41,1.41,0,0,1-.11.57,1,1,0,0,1-.3.4,1.11,1.11,0,0,1-.44.24,1.67,1.67,0,0,1-.55.08h-.26S15,6,15,6Z"/><path class="cls-3" d="M16.79,7.51a6.56,6.56,0,0,0,.6-.33,5.82,5.82,0,0,0,.66-.44,3.22,3.22,0,0,0,.54-.49.85.85,0,0,0,.25-.49,1.18,1.18,0,0,1-.25.1l-.3,0a.86.86,0,0,1-.67-.22.85.85,0,0,1-.19-.58,1.86,1.86,0,0,1,.06-.45,1.57,1.57,0,0,1,.18-.42A1.12,1.12,0,0,1,18,3.9a.68.68,0,0,1,.42-.13.79.79,0,0,1,.53.18,1.39,1.39,0,0,1,.33.46,2.14,2.14,0,0,1,.17.56,3.61,3.61,0,0,1,.05.52,1.92,1.92,0,0,1-.16.81,2.42,2.42,0,0,1-.45.66,4.35,4.35,0,0,1-.64.56c-.25.17-.5.34-.78.5Zm2-2.45a.89.89,0,0,0-.16-.37.33.33,0,0,0-.51-.05.35.35,0,0,0-.1.26.2.2,0,0,0,.12.19.58.58,0,0,0,.26.06.78.78,0,0,0,.22,0Z"/><path class="cls-3" d="M20.88,4.31a2.79,2.79,0,0,1,.33.57,1.72,1.72,0,0,1,.12.68,1.9,1.9,0,0,1-.12.64,2.91,2.91,0,0,1-.33.66,3.85,3.85,0,0,1-.53.63,4,4,0,0,1-.68.54L19,7.49l.55-.35a4.58,4.58,0,0,0,.53-.44,2.49,2.49,0,0,0,.4-.48,1,1,0,0,0,.16-.52.64.64,0,0,0-.13-.36A3.41,3.41,0,0,0,20.26,5Z"/><path class="cls-3" d="M23.83,6H23V5.42a1.56,1.56,0,0,1,.08-.55.72.72,0,0,1,.21-.36,1.22,1.22,0,0,1,.39-.23l.11.29a.64.64,0,0,0-.47.62h.5Z"/><path class="cls-3" d="M25.22,5.87a1,1,0,0,1-.39-.36A1.38,1.38,0,0,1,24.64,5a3.88,3.88,0,0,1-.06-.7c0-.12,0-.29,0-.51s0-.45,0-.71,0-.52,0-.79,0-.52,0-.74l.79-.32V4.35a.91.91,0,0,0,.14.55.57.57,0,0,0,.47.18V6A1.44,1.44,0,0,1,25.22,5.87Z"/><path class="cls-3" d="M25.71,5.14s0,0,.06,0h.81a.78.78,0,0,1-.14-.41,1,1,0,0,1,.17-.54A1.78,1.78,0,0,1,27,3.68l-.18-.11.38-.83.61.44a6.54,6.54,0,0,1,.7.6,4.22,4.22,0,0,1,.59.7,1.39,1.39,0,0,1,.25.72,1.86,1.86,0,0,1-.06.48,1.14,1.14,0,0,1-.15.37.64.64,0,0,1-.23.21.31.31,0,0,1-.28,0,3.37,3.37,0,0,1-.56-.19,5.62,5.62,0,0,1-.61-.29A1.82,1.82,0,0,1,27,6a2.55,2.55,0,0,1-.44,0h-.77s-.06,0-.06,0Zm1.48-.28.23.14a.53.53,0,0,0,.31-.22.63.63,0,0,0,.08-.28.23.23,0,0,0,0-.14.4.4,0,0,0-.1-.12.34.34,0,0,0-.12-.09.41.41,0,0,0-.12,0,.27.27,0,0,0-.14,0l-.14.11a.78.78,0,0,0-.1.15.24.24,0,0,0,0,.13s0,.07,0,.13A.37.37,0,0,0,27.19,4.86Zm1.17,0a1.17,1.17,0,0,1-.11.28,1.5,1.5,0,0,1-.15.23l.19.09.19.08.18,0s.08,0,.11-.09a.51.51,0,0,0-.06-.45,1.55,1.55,0,0,0-.33-.39A.68.68,0,0,1,28.36,4.87Z"/><path class="cls-3" d="M32.23,4.89a1.31,1.31,0,0,1-.09.5,1.12,1.12,0,0,1-.26.37,1.23,1.23,0,0,1-.36.23,1.33,1.33,0,0,1-.45.08,1.05,1.05,0,0,1-.72-.22.76.76,0,0,1-.26-.62A2.43,2.43,0,0,1,30.54,4L30.37,4l.42-.74a4.17,4.17,0,0,1,.55.32,2.78,2.78,0,0,1,.45.37,1.65,1.65,0,0,1,.31.45A1.34,1.34,0,0,1,32.23,4.89ZM31.6,5c0-.24-.19-.46-.59-.66a1.84,1.84,0,0,0-.2.31.7.7,0,0,0-.1.31.29.29,0,0,0,.09.21.41.41,0,0,0,.3.09h.16l.16,0a.3.3,0,0,0,.13-.09A.13.13,0,0,0,31.6,5Z"/><path class="cls-3" d="M33.64,4.31a3.42,3.42,0,0,1,.34.57,1.72,1.72,0,0,1,.12.68,1.54,1.54,0,0,1-.19.74,2.76,2.76,0,0,1-.49.66,4.17,4.17,0,0,1-.67.58c-.25.18-.5.34-.75.49l-.68-.54a5.55,5.55,0,0,0,.62-.33,5.4,5.4,0,0,0,.68-.46,3.47,3.47,0,0,0,.56-.51.76.76,0,0,0,.22-.49.7.7,0,0,0-.12-.36c-.08-.13-.17-.26-.25-.37Zm-1-.8L33,3l.52.34.3-.4.61.4-.4.55-.53-.35-.28.41Zm.3-.88.41-.53.56.37L33.48,3Z"/><path class="cls-3" d="M34.18,7.51a6.56,6.56,0,0,0,.6-.33,5.82,5.82,0,0,0,.66-.44A3.76,3.76,0,0,0,36,6.25a.92.92,0,0,0,.25-.49,1.28,1.28,0,0,1-.26.1l-.29,0A.84.84,0,0,1,35,5.67a.85.85,0,0,1-.2-.58,1.86,1.86,0,0,1,.06-.45,1.57,1.57,0,0,1,.18-.42,1,1,0,0,1,.3-.32.63.63,0,0,1,.41-.13A.77.77,0,0,1,36.3,4a1.39,1.39,0,0,1,.33.46,2.16,2.16,0,0,1,.18.56,3.46,3.46,0,0,1,0,.52,1.92,1.92,0,0,1-.16.81,2.62,2.62,0,0,1-.44.66,4.44,4.44,0,0,1-.65.56c-.24.17-.5.34-.77.5Zm2-2.45A1,1,0,0,0,36,4.69a.35.35,0,0,0-.28-.15.3.3,0,0,0-.23.1.36.36,0,0,0-.11.26.2.2,0,0,0,.12.19.6.6,0,0,0,.27.06l.22,0Z"/><path class="cls-3" d="M38.85,6a.61.61,0,0,1-.15-.12,3.32,3.32,0,0,1-.17.54,4,4,0,0,1-.31.57,4.6,4.6,0,0,1-.45.56,3.37,3.37,0,0,1-.61.51l-.73-.51A4.7,4.7,0,0,0,37,7.18a4.54,4.54,0,0,0,.52-.45,2.31,2.31,0,0,0,.39-.51.92.92,0,0,0,.16-.5.53.53,0,0,0,0-.2,2,2,0,0,0-.11-.2l-.13-.2L37.65,5l.62-.67.17.28a1.43,1.43,0,0,0,.16.24,1.07,1.07,0,0,0,.19.18.49.49,0,0,0,.25.07V6A.43.43,0,0,1,38.85,6Z"/><path class="cls-3" d="M40.62,7l-.4.55-.52-.35-.29.4-.62-.4.42-.55.52.35L40,6.6ZM38.86,5.14s0,0,.06,0H40c.28,0,.41-.07.41-.2a.25.25,0,0,0,0-.08.4.4,0,0,0-.07-.12,1.32,1.32,0,0,0-.13-.2L40,4.18l.52-.74a1.61,1.61,0,0,1,.39.55,1.79,1.79,0,0,1,.15.72,1.41,1.41,0,0,1-.11.57,1.18,1.18,0,0,1-.74.64,1.69,1.69,0,0,1-.56.08h-.7s-.06,0-.06,0Zm1.48,2.75-.41.54-.57-.38.39-.53Z"/><path class="cls-3" d="M43.52,6h-.81V5.42a1.6,1.6,0,0,1,.07-.55A.72.72,0,0,1,43,4.51a1.34,1.34,0,0,1,.39-.23l.11.29a.64.64,0,0,0-.47.62h.5Z"/><path class="cls-3" d="M44.91,5.87a1,1,0,0,1-.39-.36A1.56,1.56,0,0,1,44.33,5a3.88,3.88,0,0,1-.06-.7c0-.12,0-.29,0-.51s0-.45,0-.71,0-.52,0-.79,0-.52,0-.74L45,1.19V4.35a.91.91,0,0,0,.14.55.57.57,0,0,0,.47.18V6A1.44,1.44,0,0,1,44.91,5.87Z"/><path class="cls-3" d="M45.4,5.14s0,0,.06,0h.82a.72.72,0,0,1-.15-.41,1,1,0,0,1,.17-.54,1.78,1.78,0,0,1,.41-.45l-.18-.11.39-.83.6.44a7.79,7.79,0,0,1,.71.6,4.68,4.68,0,0,1,.58.7,1.31,1.31,0,0,1,.25.72,2.44,2.44,0,0,1-.05.48,1.15,1.15,0,0,1-.16.37.57.57,0,0,1-.23.21.31.31,0,0,1-.28,0,3.71,3.71,0,0,1-.56-.19,6.67,6.67,0,0,1-.61-.29,1.82,1.82,0,0,1-.5.16,2.55,2.55,0,0,1-.44,0h-.77s-.06,0-.06,0Zm1.48-.28.24.14a.54.54,0,0,0,.3-.22.63.63,0,0,0,.08-.28.23.23,0,0,0,0-.14.4.4,0,0,0-.1-.12.27.27,0,0,0-.12-.09.28.28,0,0,0-.12,0,.3.3,0,0,0-.14,0l-.14.11a.78.78,0,0,0-.1.15.24.24,0,0,0,0,.13s0,.07,0,.13A.37.37,0,0,0,46.88,4.86Zm1.17,0a1.16,1.16,0,0,1-.1.28l-.16.23.2.09.18.08.18,0s.08,0,.11-.09a.51.51,0,0,0-.05-.45,1.83,1.83,0,0,0-.34-.39A.68.68,0,0,1,48.05,4.87Z"/><path class="cls-3" d="M52.5,4.74a1.46,1.46,0,0,1-.12.62,1.27,1.27,0,0,1-.32.43,1.51,1.51,0,0,1-.49.25,2.2,2.2,0,0,1-.58.08A2,2,0,0,1,50.22,6a1.43,1.43,0,0,1-.52-.38l.39-.7a1.13,1.13,0,0,0,.77.28h.33a1.27,1.27,0,0,0,.34,0A.83.83,0,0,0,51.8,5a.33.33,0,0,0,.11-.25.58.58,0,0,0-.14-.33,2.31,2.31,0,0,0-.35-.35,2.87,2.87,0,0,0-.4-.31l-.33-.21.36-.88A2.5,2.5,0,0,1,52.5,4.74Z"/><path class="cls-3" d="M53.92,4.31a2.79,2.79,0,0,1,.33.57,1.56,1.56,0,0,1,.13.68,1.66,1.66,0,0,1-.19.74A3.05,3.05,0,0,1,53.7,7a4.17,4.17,0,0,1-.67.58c-.25.18-.5.34-.75.49l-.68-.54a6.59,6.59,0,0,0,.62-.33,6.24,6.24,0,0,0,.68-.46,3,3,0,0,0,.55-.51.78.78,0,0,0,.23-.49.7.7,0,0,0-.12-.36c-.09-.13-.17-.26-.26-.37Z"/><path class="cls-3" d="M54.46,7.51a6.56,6.56,0,0,0,.6-.33,5.82,5.82,0,0,0,.66-.44,3.22,3.22,0,0,0,.54-.49.85.85,0,0,0,.25-.49,1.18,1.18,0,0,1-.25.1l-.3,0a.86.86,0,0,1-.67-.22.85.85,0,0,1-.19-.58,1.86,1.86,0,0,1,.06-.45,1.57,1.57,0,0,1,.18-.42,1.12,1.12,0,0,1,.29-.32.68.68,0,0,1,.42-.13.79.79,0,0,1,.53.18,1.39,1.39,0,0,1,.33.46,2.14,2.14,0,0,1,.17.56,3.61,3.61,0,0,1,.05.52A1.92,1.92,0,0,1,57,6.3a2.42,2.42,0,0,1-.45.66,3.89,3.89,0,0,1-.64.56c-.25.17-.5.34-.77.5Zm2-2.45a.89.89,0,0,0-.16-.37.33.33,0,0,0-.51-.05.35.35,0,0,0-.1.26.2.2,0,0,0,.12.19.58.58,0,0,0,.26.06.78.78,0,0,0,.22,0Z"/><path class="cls-3" d="M58.52,5.87a1,1,0,0,1-.39-.36A1.38,1.38,0,0,1,57.94,5a5,5,0,0,1-.07-.7c0-.12,0-.29,0-.51s0-.45,0-.71,0-.52,0-.79,0-.52,0-.74l.79-.32V4.35a.91.91,0,0,0,.14.55.57.57,0,0,0,.47.18V6A1.44,1.44,0,0,1,58.52,5.87Z"/><path class="cls-3" d="M60.94,6a.72.72,0,0,1-.74-.41,1,1,0,0,1-.93.41h-.2S59,6,59,6V5.14s0,0,.06,0h.17c.4,0,.6-.14.6-.41V4.35l.65-.21v.2c0,.49.16.74.48.74H61V6ZM59.19,3.27l.4-.55.52.35.29-.41.62.41-.41.54-.53-.34-.27.4Z"/><path class="cls-3" d="M60.84,5.14s0,0,.06,0h.2A.54.54,0,0,0,61.46,5a.43.43,0,0,0,.15-.35V4.38l.56-.19v.25a.87.87,0,0,0,.1.46.33.33,0,0,0,.31.18c.38,0,.56-.17.56-.51v-.3l.57-.17v.4a.6.6,0,0,0,.16.43.52.52,0,0,0,.41.18.3.3,0,0,0,.34-.31.72.72,0,0,0-.08-.32.69.69,0,0,0-.19-.24l.55-.63a1.46,1.46,0,0,1,.28.5,1.9,1.9,0,0,1,.09.58,2,2,0,0,1-.06.48,1.79,1.79,0,0,1-.19.42,1,1,0,0,1-.31.31.89.89,0,0,1-.43.11,1.33,1.33,0,0,1-.54-.11.72.72,0,0,1-.35-.34.84.84,0,0,1-.3.32.81.81,0,0,1-.41.12,1,1,0,0,1-.46-.1.76.76,0,0,1-.33-.31.79.79,0,0,1-.38.32A1.46,1.46,0,0,1,61,6H60.9s-.06,0-.06,0Z"/><path class="cls-3" d="M68.71,4.74a1.46,1.46,0,0,1-.12.62,1.27,1.27,0,0,1-.32.43,1.51,1.51,0,0,1-.49.25,2.2,2.2,0,0,1-.58.08A2,2,0,0,1,66.43,6a1.43,1.43,0,0,1-.52-.38l.39-.7a1.11,1.11,0,0,0,.77.28h.33a1.27,1.27,0,0,0,.34,0A.83.83,0,0,0,68,5a.33.33,0,0,0,.11-.25A.58.58,0,0,0,68,4.42a2.31,2.31,0,0,0-.35-.35,3.6,3.6,0,0,0-.4-.31l-.33-.21.36-.88A2.5,2.5,0,0,1,68.71,4.74Z"/><path class="cls-3" d="M74.87,6a.88.88,0,0,1-.33-.06c-.1-.05-.16-.1-.17-.16a2.73,2.73,0,0,1-.17.92,2,2,0,0,1-.43.72,2.14,2.14,0,0,1-.69.48,2.29,2.29,0,0,1-.9.17,2.12,2.12,0,0,1-.8-.14,1.54,1.54,0,0,1-.57-.38A1.64,1.64,0,0,1,70.49,7a1.9,1.9,0,0,1-.11-.68,2.72,2.72,0,0,1,.08-.63,2,2,0,0,1,.25-.59l.59.22a2.31,2.31,0,0,0-.16.41,1.44,1.44,0,0,0-.06.4,1.24,1.24,0,0,0,.07.4.89.89,0,0,0,.21.32.81.81,0,0,0,.36.22,1.56,1.56,0,0,0,.52.07A1.76,1.76,0,0,0,72.82,7a1.1,1.1,0,0,0,.42-.24A1.06,1.06,0,0,0,73.58,6a1.88,1.88,0,0,0-.38-1.14l.69-.64c.06.11.11.22.17.32a1.78,1.78,0,0,0,.17.27.76.76,0,0,0,.21.19.6.6,0,0,0,.27.07h.22V6ZM72.72,3.91l-.48.64-.67-.45.49-.65Z"/><path class="cls-3" d="M76.54,7l-.4.55-.52-.35-.29.4-.63-.4.43-.55.52.35.28-.41ZM74.76,5.14s0,0,.06,0H75.9c.28,0,.42-.07.42-.2a.31.31,0,0,0,0-.08.66.66,0,0,0-.06-.12,1.5,1.5,0,0,0-.14-.2l-.24-.3.52-.74a1.38,1.38,0,0,1,.39.55,1.79,1.79,0,0,1,.15.72,1.41,1.41,0,0,1-.11.57,1,1,0,0,1-.3.4,1.11,1.11,0,0,1-.44.24,1.63,1.63,0,0,1-.55.08h-.7s-.06,0-.06,0Z"/><path class="cls-3" d="M79.08,6a.52.52,0,0,1-.16-.12,2.57,2.57,0,0,1-.17.54,3.2,3.2,0,0,1-.31.57,3.25,3.25,0,0,1-.45.56,3.37,3.37,0,0,1-.61.51l-.73-.51a4.7,4.7,0,0,0,.55-.33,3.82,3.82,0,0,0,.52-.45,2.72,2.72,0,0,0,.4-.51,1,1,0,0,0,.15-.5.39.39,0,0,0,0-.2,2,2,0,0,0-.11-.2,1.37,1.37,0,0,0-.13-.2L77.88,5l.62-.67c0,.1.11.19.16.28a1.43,1.43,0,0,0,.16.24A1.12,1.12,0,0,0,79,5a.45.45,0,0,0,.24.07V6A.39.39,0,0,1,79.08,6Z"/><path class="cls-3" d="M79.08,5.14s0,0,.06,0h1.24L80.73,5a4,4,0,0,0,.47-.15L82,4.59l-.7-.2-.37-.1a.36.36,0,0,0-.29,0,.8.8,0,0,0-.23.19l-.55-.38a2.15,2.15,0,0,1,.49-.63.65.65,0,0,1,.56-.14l.54.11.56.16.59.15a6.42,6.42,0,0,0,.66.13l.32,0h.3l-.24.92-.34,0a1.12,1.12,0,0,0-.27,0,1.25,1.25,0,0,0-.26.07l-.3.15-.68.4a3.82,3.82,0,0,1-.52.28,2.94,2.94,0,0,1-.57.17,4.35,4.35,0,0,1-.79,0h-.72s-.06,0-.06,0Zm2.39-2.95L81,2.83l-.66-.45.49-.65Z"/><path class="cls-3" d="M86.28.37a1.21,1.21,0,0,1-.39.39,1,1,0,0,1-.52.14,1.39,1.39,0,0,1-.35,0A2.25,2.25,0,0,0,84.66.8a1,1,0,0,0-.35,0A.62.62,0,0,0,84,1L83.72.64a1.06,1.06,0,0,1,.37-.3,1,1,0,0,1,.37-.06,2.58,2.58,0,0,1,.38,0,3,3,0,0,0,.43.06A.93.93,0,0,0,86.09,0ZM85.37,5.9l-.82.22V1.51l.82-.32Z"/><path class="cls-3" d="M88.87,4.31a2.79,2.79,0,0,1,.33.57,1.72,1.72,0,0,1,.13.68,1.66,1.66,0,0,1-.19.74,3.05,3.05,0,0,1-.49.66,4.17,4.17,0,0,1-.67.58c-.25.18-.5.34-.75.49l-.68-.54c.17-.08.38-.19.62-.33a6.24,6.24,0,0,0,.68-.46,3.39,3.39,0,0,0,.55-.51.78.78,0,0,0,.23-.49.7.7,0,0,0-.12-.36c-.09-.13-.17-.26-.26-.37Zm.34-1-.48.64-.67-.45.49-.64Z"/><path class="cls-3" d="M90.86,5.9l-.81.22V1.51l.81-.32Z"/><path class="cls-3" d="M96.51,6a.54.54,0,0,1,0,.28,1,1,0,0,1-.08.29,1.55,1.55,0,0,1-.53.61,2.27,2.27,0,0,1-.79.36,2.67,2.67,0,0,1-.89.09,2.26,2.26,0,0,1-.84-.21,1.56,1.56,0,0,1-.62-.52A1.43,1.43,0,0,1,92.54,6a2.2,2.2,0,0,1,.11-.68,3.73,3.73,0,0,1,.26-.61l.61.21a4,4,0,0,0-.18.46,1.35,1.35,0,0,0-.09.47.91.91,0,0,0,.12.49.69.69,0,0,0,.32.29,1.25,1.25,0,0,0,.45.13,2.9,2.9,0,0,0,.51,0,2.78,2.78,0,0,0,.5-.11,3.5,3.5,0,0,0,.43-.17c.1-.06.15-.1.16-.13s0-.06-.07-.08L94.8,6l0-.15c0-.06.05-.13.08-.19s0-.14.08-.2a.58.58,0,0,1,.08-.14.6.6,0,0,1,.18-.2.66.66,0,0,1,.28,0h1V6Z"/><path class="cls-3" d="M96.36,5.14s0,0,.06,0h.81a.78.78,0,0,1-.14-.41,1,1,0,0,1,.17-.54,1.78,1.78,0,0,1,.41-.45l-.18-.11.38-.83.61.44a6.54,6.54,0,0,1,.7.6,4.22,4.22,0,0,1,.59.7,1.39,1.39,0,0,1,.25.72,1.86,1.86,0,0,1-.06.48,1.14,1.14,0,0,1-.15.37.64.64,0,0,1-.23.21.31.31,0,0,1-.28,0,3.37,3.37,0,0,1-.56-.19,5.62,5.62,0,0,1-.61-.29,1.82,1.82,0,0,1-.5.16,2.55,2.55,0,0,1-.44,0h-.77s-.06,0-.06,0Zm1.48-.28.24.14a.54.54,0,0,0,.3-.22.63.63,0,0,0,.08-.28.23.23,0,0,0,0-.14.4.4,0,0,0-.1-.12.34.34,0,0,0-.12-.09.34.34,0,0,0-.12,0,.27.27,0,0,0-.14,0l-.14.11a.78.78,0,0,0-.1.15.24.24,0,0,0,0,.13s0,.07,0,.13A.37.37,0,0,0,97.84,4.86Zm1.17,0a1.17,1.17,0,0,1-.11.28,1.5,1.5,0,0,1-.15.23l.19.09.19.08.18,0s.08,0,.11-.09a.51.51,0,0,0-.06-.45A1.55,1.55,0,0,0,99,4.67.68.68,0,0,1,99,4.87Z"/><path class="cls-3" d="M101.41,5.87a1,1,0,0,1-.39-.36,1.57,1.57,0,0,1-.2-.55c0-.22,0-.45-.06-.7s0-.29,0-.51,0-.45,0-.71,0-.52,0-.79,0-.52,0-.74l.79-.32V4.35a.91.91,0,0,0,.14.55.57.57,0,0,0,.47.18V6A1.44,1.44,0,0,1,101.41,5.87Z"/><path class="cls-3" d="M101.9,5.14s0,0,.06,0h.37c.89,0,1.33-.11,1.33-.33a.46.46,0,0,0-.13-.28,2.77,2.77,0,0,0-.34-.35,5,5,0,0,0-.43-.35l-.41-.31-.15-.11a.31.31,0,0,1-.08-.1.27.27,0,0,1,0-.12,1.41,1.41,0,0,1,0-.18,1.41,1.41,0,0,1,0-.18,1.42,1.42,0,0,1,.05-.22,1,1,0,0,1,.07-.21.22.22,0,0,1,.11-.12,10.11,10.11,0,0,1,1.33-.57q.84-.31,2-.66l-.11.94q-.7.15-1.38.33a12,12,0,0,0-1.32.44c-.1,0-.12.08,0,.13l.53.38c.17.13.33.27.48.41a1.8,1.8,0,0,1,.34.49,1.25,1.25,0,0,1,.14.59,1.1,1.1,0,0,1-.2.68,1.13,1.13,0,0,1-.49.4A2.32,2.32,0,0,1,103,6a5.53,5.53,0,0,1-.69,0H102s-.06,0-.06,0ZM105.7.66l-1.46.47-.95.33-.56.21-.32.14.11-.44c.26-.12.66-.28,1.19-.47s1.22-.42,2.05-.69Z"/><path class="cls-3" d="M108.62.37a1.35,1.35,0,0,1-.4.39,1,1,0,0,1-.52.14,1.45,1.45,0,0,1-.35,0A2.25,2.25,0,0,0,107,.8a1,1,0,0,0-.35,0,.59.59,0,0,0-.31.2l-.27-.37a1,1,0,0,1,.37-.3.91.91,0,0,1,.36-.06,2.87,2.87,0,0,1,.39,0,2.65,2.65,0,0,0,.42.06,1,1,0,0,0,.83-.38ZM107.7,5.9l-.81.22V1.51l.81-.32Z"/><path class="cls-3" d="M114.17,4.27a1.57,1.57,0,0,0-.66-.1,1.18,1.18,0,0,0-.31,0,1.55,1.55,0,0,0-.29.14,1.42,1.42,0,0,0-.22.18.32.32,0,0,0-.09.21c0,.07,0,.11.12.14l.31.05.39,0a1.59,1.59,0,0,1,.39.08.76.76,0,0,1,.31.2.57.57,0,0,1,.12.39,1.47,1.47,0,0,1-.24.83,2.18,2.18,0,0,1-.61.6,3,3,0,0,1-.81.36,3,3,0,0,1-.86.13,2.65,2.65,0,0,1-.89-.13,1.73,1.73,0,0,1-.63-.34,1.46,1.46,0,0,1-.37-.52,1.84,1.84,0,0,1-.12-.66,2.47,2.47,0,0,1,.09-.64,2.64,2.64,0,0,1,.28-.68l.63.22a1.85,1.85,0,0,0-.18.44,1.23,1.23,0,0,0-.07.42.92.92,0,0,0,.07.38.93.93,0,0,0,.25.31,1.15,1.15,0,0,0,.43.21,2.22,2.22,0,0,0,.62.08,2.36,2.36,0,0,0,.55-.07A3.66,3.66,0,0,0,113,6.4a2.29,2.29,0,0,0,.47-.23c.12-.09.19-.18.19-.26s0-.08-.09-.1a1.33,1.33,0,0,0-.26,0l-.38,0-.45,0a.57.57,0,0,1-.4-.2.59.59,0,0,1-.13-.41,1.65,1.65,0,0,1,.15-.69,2.12,2.12,0,0,1,.41-.57,2.22,2.22,0,0,1,.57-.39,1.69,1.69,0,0,1,.65-.14,1.27,1.27,0,0,1,.34,0,1.22,1.22,0,0,1,.33.14Z"/><path class="cls-3" d="M115.88,5.9l-.82.22V1.51l.82-.32Z"/><path class="cls-3" d="M117.87,6a.61.61,0,0,1-.15-.12,2,2,0,0,1-.27.65,3.17,3.17,0,0,1-.47.57,5.26,5.26,0,0,1-.62.51c-.22.16-.46.31-.7.45L115,7.49c.17-.08.38-.19.62-.33a8.09,8.09,0,0,0,.69-.44,3.86,3.86,0,0,0,.55-.5.78.78,0,0,0,.23-.5.53.53,0,0,0,0-.2,2,2,0,0,0-.11-.2l-.13-.2c0-.06-.08-.1-.1-.14l.61-.67.17.28a1.43,1.43,0,0,0,.16.24,1.57,1.57,0,0,0,.19.18.52.52,0,0,0,.25.07V6A.46.46,0,0,1,117.87,6Z"/><path class="cls-3" d="M117.88,5.14s0,0,.06,0h.65c.27,0,.41-.07.41-.2a.31.31,0,0,0,0-.08l-.06-.12a1.5,1.5,0,0,0-.14-.2c-.06-.08-.13-.18-.23-.3l.52-.74a1.38,1.38,0,0,1,.39.55,2,2,0,0,1,.14.72,1.41,1.41,0,0,1-.11.57,1.09,1.09,0,0,1-.29.4,1.22,1.22,0,0,1-.45.24,1.63,1.63,0,0,1-.55.08h-.26s-.06,0-.06,0Zm.17,2.1.49-.64.66.45-.49.65Z"/><path class="cls-3" d="M.85,15.61H0v-.85H.85Z"/><path class="cls-3" d="M5,15.61a1.35,1.35,0,0,1-.66-.17A1.22,1.22,0,0,1,3.91,15a1.25,1.25,0,0,1-1.29.74,1.39,1.39,0,0,1-1.13-.42l.29-.74a1,1,0,0,0,.41.19,2,2,0,0,0,.56.07l.32,0a1.71,1.71,0,0,0,.29-.08.77.77,0,0,0,.2-.13.28.28,0,0,0,.07-.19.2.2,0,0,0,0-.07l-.06-.21c0-.1-.09-.27-.17-.49s-.18-.52-.32-.91l.64-.57c.17.53.3,1,.4,1.29s.19.59.27.78a1,1,0,0,0,.27.37.58.58,0,0,0,.37.1h.17v.93Z"/><path class="cls-3" d="M6.32,16.62l-.4.54-.52-.34-.29.4-.63-.4.43-.55.52.35.29-.41ZM5,14.75s0,0,.06-.05l.13,0h.53c.27,0,.4-.06.4-.19a.19.19,0,0,0,0-.08A.42.42,0,0,0,6,14.28a1.3,1.3,0,0,0-.13-.19l-.23-.3.52-.74a1.39,1.39,0,0,1,.38.55,1.76,1.76,0,0,1,.14.71,1.5,1.5,0,0,1-.1.58,1.2,1.2,0,0,1-.3.4,1.18,1.18,0,0,1-.44.24,2,2,0,0,1-.56.08H5.19a.27.27,0,0,1-.13,0s-.06,0-.06,0Z"/><path class="cls-3" d="M9.41,15.61a2.19,2.19,0,0,1-.3.59,3.37,3.37,0,0,1-.47.54,5.79,5.79,0,0,1-.59.47q-.33.22-.66.42l-.68-.53.52-.28a6.36,6.36,0,0,0,.59-.37A3.83,3.83,0,0,0,8.36,16a1.71,1.71,0,0,0,.36-.43,2.82,2.82,0,0,1-.52,0,1,1,0,0,1-.4-.14.64.64,0,0,1-.26-.28,1.14,1.14,0,0,1-.1-.48,1.56,1.56,0,0,1,.06-.41,1.54,1.54,0,0,1,.17-.42,1.07,1.07,0,0,1,.27-.32.6.6,0,0,1,.39-.14.84.84,0,0,1,.44.13,1.22,1.22,0,0,1,.33.31,2.06,2.06,0,0,1,.21.42,2.51,2.51,0,0,1,.1.44h.28v.93Zm-.62-.93a.94.94,0,0,0-.06-.18.52.52,0,0,0-.1-.18.47.47,0,0,0-.14-.14.27.27,0,0,0-.16-.06.3.3,0,0,0-.24.11.32.32,0,0,0-.09.23.22.22,0,0,0,0,.13.17.17,0,0,0,.11.06,1.29,1.29,0,0,0,.24,0Z"/><path class="cls-3" d="M9.69,15.61a.25.25,0,0,1-.12,0s-.06,0-.06,0v-.8s0,0,.06-.05l.12,0h.8v.93Z"/><path class="cls-3" d="M10.49,15.61a.25.25,0,0,1-.12,0s-.06,0-.06,0v-.8s0,0,.06-.05l.12,0h.8v.93Z"/><path class="cls-3" d="M11.29,15.61a.25.25,0,0,1-.12,0s-.06,0-.06,0v-.8s0,0,.06-.05l.12,0h.81v.93Z"/><path class="cls-3" d="M12.1,15.61a.27.27,0,0,1-.13,0s-.06,0-.06,0v-.8s0,0,.06-.05l.13,0h.8v.93Z"/><path class="cls-3" d="M12.9,15.61a.27.27,0,0,1-.13,0s-.06,0-.06,0v-.8s0,0,.06-.05l.13,0h.8v.93Z"/><path class="cls-3" d="M13.7,15.61a.27.27,0,0,1-.13,0s-.06,0-.06,0v-.8s0,0,.06-.05l.13,0h.8v.93Z"/><path class="cls-3" d="M14.31,14.75s0,0,.06-.05l.13,0h.08a.56.56,0,0,0,.36-.12.43.43,0,0,0,.14-.34V14l.56-.2V14a.91.91,0,0,0,.11.47.33.33,0,0,0,.31.17c.37,0,.56-.17.56-.5v-.31l.57-.17v.41a.6.6,0,0,0,.16.43.53.53,0,0,0,.4.17.35.35,0,0,0,.26-.08.31.31,0,0,0,.08-.23.68.68,0,0,0-.08-.31.7.7,0,0,0-.18-.25l.55-.62a1.74,1.74,0,0,1,.28.5,1.9,1.9,0,0,1,.09.58,1.49,1.49,0,0,1-.07.47,1.5,1.5,0,0,1-.18.43,1.14,1.14,0,0,1-.32.3.77.77,0,0,1-.43.12,1.19,1.19,0,0,1-.54-.12.75.75,0,0,1-.34-.34.76.76,0,0,1-.31.33.88.88,0,0,1-.41.12,1,1,0,0,1-.46-.1.82.82,0,0,1-.32-.32.73.73,0,0,1-.39.32,1.18,1.18,0,0,1-.48.1.27.27,0,0,1-.13,0s-.06,0-.06,0ZM16,12.87l.4-.54.52.34.29-.41.61.41-.4.55-.53-.35-.28.41Zm.29-.89.41-.52.56.37-.39.53Z"/><path class="cls-3" d="M22.46,14.5a1.35,1.35,0,0,1-.09.5,1.05,1.05,0,0,1-.25.37,1.25,1.25,0,0,1-.37.22,1.12,1.12,0,0,1-.45.08,1.09,1.09,0,0,1-.71-.21.76.76,0,0,1-.26-.63,2.46,2.46,0,0,1,.44-1.2l-.16-.08.42-.73a4.74,4.74,0,0,1,.54.31,2.91,2.91,0,0,1,.46.38,1.57,1.57,0,0,1,.31.45A1.19,1.19,0,0,1,22.46,14.5Zm-.62.05c0-.24-.2-.46-.59-.65a1.41,1.41,0,0,0-.21.31.64.64,0,0,0-.09.3.29.29,0,0,0,.09.22.39.39,0,0,0,.29.09l.16,0,.17-.05a.57.57,0,0,0,.13-.08A.17.17,0,0,0,21.84,14.55Z"/><path class="cls-3" d="M23.85,15.48a.93.93,0,0,1-.39-.37,1.49,1.49,0,0,1-.19-.55,3.69,3.69,0,0,1-.06-.69c0-.12,0-.29,0-.51s0-.46,0-.71,0-.52,0-.79,0-.52,0-.75l.79-.32V14a.89.89,0,0,0,.14.54.57.57,0,0,0,.47.18v.93A1.44,1.44,0,0,1,23.85,15.48Z"/><path class="cls-3" d="M28,15.61a1.39,1.39,0,0,1-.5-.09,2,2,0,0,1-.46-.23,3.19,3.19,0,0,1-.4-.33c-.12-.12-.23-.25-.33-.37a1,1,0,0,1-.52.76,2.5,2.5,0,0,1-1.23.26.3.3,0,0,1-.13,0s-.06,0-.06,0v-.8s0,0,.06-.05l.13,0h.32l.42,0a1.17,1.17,0,0,0,.36-.11.25.25,0,0,0,.15-.23.58.58,0,0,0-.13-.32,3.53,3.53,0,0,0-.33-.37l-.38-.36-.3-.28-.08-.09a.15.15,0,0,1,0-.15,1.8,1.8,0,0,1,0-.22c0-.07,0-.15.05-.22a.75.75,0,0,1,.07-.18c0-.06.06-.1.1-.11a12.46,12.46,0,0,1,1.42-.61c.58-.21,1.28-.45,2.1-.7l-.11.9q-.87.2-1.59.42c-.47.15-.91.31-1.31.46-.1,0-.12.08,0,.14.23.17.45.36.67.55l.63.6.35.34a3.05,3.05,0,0,0,.36.29,1.71,1.71,0,0,0,.4.21,1.33,1.33,0,0,0,.45.07h.37v.93Zm.16-5.16-1.45.47-1,.32-.57.22a2.65,2.65,0,0,0-.31.13l.1-.44c.27-.12.66-.28,1.2-.47l2.05-.7Z"/><path class="cls-3" d="M28.3,14.75s0,0,.06-.05l.12,0H29c.27,0,.41-.06.41-.19a.19.19,0,0,0,0-.08.69.69,0,0,0-.06-.13,1.5,1.5,0,0,0-.14-.19c-.06-.08-.13-.18-.23-.3l.52-.74a1.31,1.31,0,0,1,.39.55,2,2,0,0,1,.14.71,1.5,1.5,0,0,1-.11.58,1.08,1.08,0,0,1-.3.4,1.11,1.11,0,0,1-.44.24,1.92,1.92,0,0,1-.55.08h-.14a.25.25,0,0,1-.12,0s-.06,0-.06,0Zm1.45-2.69-.48.64-.66-.45.49-.65Z"/><path class="cls-3" d="M38.45,15.61a1.39,1.39,0,0,1-.53-.1,2.32,2.32,0,0,1-.47-.24,3.34,3.34,0,0,1-.4-.35,4.23,4.23,0,0,1-.33-.41,1,1,0,0,1-.17.52,1.33,1.33,0,0,1-.39.36,2.21,2.21,0,0,1-.54.24,4.13,4.13,0,0,1-.61.13,4,4,0,0,1-.59.05l-.5,0c-1.55,0-2.32-.46-2.32-1.36a2.42,2.42,0,0,1,.29-1l.6.17a1.58,1.58,0,0,0-.18.55.52.52,0,0,0,.1.33,1,1,0,0,0,.27.21,1.27,1.27,0,0,0,.36.12,1.92,1.92,0,0,0,.41.05l.38,0h.63l.43,0a4.11,4.11,0,0,0,.47-.07l.42-.11a1,1,0,0,0,.31-.18.36.36,0,0,0,.13-.24.43.43,0,0,0-.1-.26,2.6,2.6,0,0,0-.23-.28l-.31-.29-.3-.29a1.45,1.45,0,0,1-.18-.21.33.33,0,0,1-.05-.25.75.75,0,0,1,0-.2,1.18,1.18,0,0,1,0-.2,1,1,0,0,1,.07-.18.22.22,0,0,1,.09-.1,12.48,12.48,0,0,1,1.43-.61c.59-.22,1.29-.45,2.1-.7l-.1.88c-.51.13-1,.26-1.48.4s-1,.31-1.43.5a.16.16,0,0,0-.08,0s0,.05.05.09a6.84,6.84,0,0,1,.62.52l.67.63.36.33a2,2,0,0,0,.36.29,1.47,1.47,0,0,0,.39.21,1.34,1.34,0,0,0,.46.08H39v.93Z"/><path class="cls-3" d="M40.13,16.62l-.4.54-.52-.34-.3.4-.62-.4.42-.55.52.35.29-.41Zm-1.32-1.87s0,0,.06-.05l.12,0h.53c.27,0,.41-.06.41-.19a.19.19,0,0,0,0-.08.69.69,0,0,0-.06-.13,1.5,1.5,0,0,0-.14-.19,3.06,3.06,0,0,0-.23-.3l.52-.74a1.31,1.31,0,0,1,.39.55,2,2,0,0,1,.14.71,1.5,1.5,0,0,1-.11.58,1.18,1.18,0,0,1-.29.4,1.22,1.22,0,0,1-.45.24,1.92,1.92,0,0,1-.55.08H39a.25.25,0,0,1-.12,0s-.06,0-.06,0Z"/><path class="cls-3" d="M49.39,15.61a1.06,1.06,0,0,1-.45-.09.71.71,0,0,1-.31-.33.89.89,0,0,1-.33.31.79.79,0,0,1-.4.1.73.73,0,0,1-.35-.09.78.78,0,0,1-.3-.32.88.88,0,0,1-.79.41.61.61,0,0,1-.36-.1,2.13,2.13,0,0,1-.19.75,1.87,1.87,0,0,1-.45.62,2.09,2.09,0,0,1-.67.43,2.42,2.42,0,0,1-.88.15,2.13,2.13,0,0,1-.8-.13,1.67,1.67,0,0,1-.57-.38,1.64,1.64,0,0,1-.32-.56,1.9,1.9,0,0,1-.11-.68,2.72,2.72,0,0,1,.08-.63,2,2,0,0,1,.25-.59l.59.21a2.41,2.41,0,0,0-.16.42,1.26,1.26,0,0,0,0,.8,1,1,0,0,0,.21.32.9.9,0,0,0,.36.21,1.32,1.32,0,0,0,.52.08,1.76,1.76,0,0,0,.58-.09,1.1,1.1,0,0,0,.42-.24,1.07,1.07,0,0,0,.25-.35,1.27,1.27,0,0,0,.08-.44,1.86,1.86,0,0,0-.08-.5,2.05,2.05,0,0,0-.26-.51l.67-.56a2.58,2.58,0,0,0,.18.32l.21.27a.93.93,0,0,0,.21.19.36.36,0,0,0,.22.07.61.61,0,0,0,.37-.09.42.42,0,0,0,.11-.31V14l.56-.2v.27a.72.72,0,0,0,.11.47.43.43,0,0,0,.38.14.44.44,0,0,0,.33-.11.36.36,0,0,0,.11-.29V14l.57-.2v.34c0,.09,0,.17,0,.24a.42.42,0,0,0,0,.17.27.27,0,0,0,.13.1.81.81,0,0,0,.25,0h.12v.93Z"/><path class="cls-3" d="M49.36,14.75s0,0,.06-.05l.13,0h1.12a1.47,1.47,0,0,0,.34-.05l.47-.14.75-.29-.7-.19-.37-.1a.36.36,0,0,0-.29,0,.76.76,0,0,0-.23.18l-.55-.37a2.15,2.15,0,0,1,.49-.63.65.65,0,0,1,.56-.14,5.17,5.17,0,0,1,.54.11l.56.15.6.16.65.13.32,0,.31,0-.25.91h-.34l-.27,0a1.29,1.29,0,0,0-.26.08,1.39,1.39,0,0,0-.3.15c-.27.15-.5.28-.68.4a5.36,5.36,0,0,1-.52.28,2.38,2.38,0,0,1-.57.16,4.23,4.23,0,0,1-.79.06h-.59a.27.27,0,0,1-.13,0s-.06,0-.06,0Z"/><path class="cls-3" d="M58.3,15.61a.86.86,0,0,1-.63-.19,1.09,1.09,0,0,1-.28-.58A.76.76,0,0,1,57,15a1.49,1.49,0,0,1-.52.08,1.39,1.39,0,0,1-.3,0A.88.88,0,0,1,56,15a.66.66,0,0,1-.19-.18.6.6,0,0,1-.07-.27c0-.57.44-1.11,1.3-1.62l-.07-.34.58-.6.43,2.13a.87.87,0,0,0,.18.44.57.57,0,0,0,.43.13v.93Zm-1.18-2.06a1.57,1.57,0,0,0-.32.16,1.53,1.53,0,0,0-.3.25c-.08.11-.11.19-.07.24s.13.07.27.07a1.56,1.56,0,0,0,.31,0,.67.67,0,0,0,.25-.08Z"/><path class="cls-3" d="M58.36,14.75s0,0,.06-.05l.12,0a1.4,1.4,0,0,0,.55-.09.69.69,0,0,0,.33-.28c.06-.1.13-.22.19-.34a2.84,2.84,0,0,1,.22-.34,1,1,0,0,1,.28-.26.65.65,0,0,1,.37-.11.61.61,0,0,1,.4.14.92.92,0,0,1,.26.32,1.56,1.56,0,0,1,.15.41,2.08,2.08,0,0,1,.05.4,1.82,1.82,0,0,1,0,.32,1.12,1.12,0,0,1-.12.32.68.68,0,0,1-.2.24.49.49,0,0,1-.3.1,1.13,1.13,0,0,1-.53-.14,1.9,1.9,0,0,1-.46-.29,1.48,1.48,0,0,1-.48.39,1.55,1.55,0,0,1-.68.14.25.25,0,0,1-.12,0s-.06,0-.06,0ZM60.45,14c-.17,0-.31.11-.43.4a1.07,1.07,0,0,0,.28.19.84.84,0,0,0,.29.1.12.12,0,0,0,.16-.11.48.48,0,0,0,0-.17,1.27,1.27,0,0,0-.06-.18,1.3,1.3,0,0,0-.1-.15A.29.29,0,0,0,60.45,14Z"/><path class="cls-3" d="M62.73,15.48a1,1,0,0,1-.4-.37,1.7,1.7,0,0,1-.19-.55,6.83,6.83,0,0,1-.06-.69c0-.12,0-.29,0-.51s0-.46,0-.71,0-.52,0-.79,0-.52,0-.75l.78-.32V14a.83.83,0,0,0,.15.54.55.55,0,0,0,.46.18v.93A1.4,1.4,0,0,1,62.73,15.48Z"/><path class="cls-3" d="M63.22,14.75s0,0,.06-.05l.12,0h.53c.27,0,.41-.06.41-.19a.19.19,0,0,0,0-.08.69.69,0,0,0-.06-.13,1.5,1.5,0,0,0-.14-.19c-.06-.08-.13-.18-.23-.3l.52-.74a1.31,1.31,0,0,1,.39.55,2,2,0,0,1,.14.71,1.5,1.5,0,0,1-.11.58,1.18,1.18,0,0,1-.29.4,1.22,1.22,0,0,1-.45.24,1.92,1.92,0,0,1-.55.08H63.4a.25.25,0,0,1-.12,0s-.06,0-.06,0Zm1.46-2.69-.48.64-.67-.45L64,11.6Z"/><path class="cls-3" d="M66.94,15.56a.64.64,0,0,1-.16-.11,2,2,0,0,1-.27.64,3.23,3.23,0,0,1-.47.58,4.56,4.56,0,0,1-.62.51c-.22.16-.46.31-.7.45L64,17.1l.62-.33a8.18,8.18,0,0,0,.69-.45,3.35,3.35,0,0,0,.55-.49.73.73,0,0,0,.23-.5.39.39,0,0,0,0-.2,2.12,2.12,0,0,0-.11-.21,1.27,1.27,0,0,0-.13-.19,1,1,0,0,0-.1-.14l.62-.67c.06.09.11.18.16.27a2.72,2.72,0,0,0,.16.25.79.79,0,0,0,.2.17.4.4,0,0,0,.24.07v.93A.41.41,0,0,1,66.94,15.56Z"/><path class="cls-3" d="M68.87,15.61a.72.72,0,0,1-.74-.42,1,1,0,0,1-.93.42h-.08a.25.25,0,0,1-.12,0s-.06,0-.06,0v-.8s0,0,.06-.05l.12,0h0c.41,0,.61-.13.61-.41V14l.65-.2V14c0,.49.16.73.48.73h0v.93Zm-1.32,1.24.48-.64.66.45-.48.65Z"/><path class="cls-3" d="M68.77,14.75s0,0,.06-.05l.12,0h1.12a1.55,1.55,0,0,0,.35-.05l.46-.14.76-.29-.7-.19-.37-.1a.38.38,0,0,0-.3,0,.73.73,0,0,0-.22.18l-.56-.37a2.33,2.33,0,0,1,.49-.63.66.66,0,0,1,.56-.14,5.35,5.35,0,0,1,.55.11l.56.15.59.16c.2,0,.42.09.66.13l.31,0,.31,0-.25.91h-.33l-.28,0a1.53,1.53,0,0,0-.26.08,2.07,2.07,0,0,0-.3.15c-.27.15-.49.28-.67.4a5.48,5.48,0,0,1-.53.28,2.43,2.43,0,0,1-.56.16,4.35,4.35,0,0,1-.8.06H69a.25.25,0,0,1-.12,0s-.06,0-.06,0Zm2.39-3-.48.64L70,12l.49-.64Z"/><path class="cls-3" d="M77.22,15.61a1.74,1.74,0,0,1-.3.59,3.87,3.87,0,0,1-.46.54,6,6,0,0,1-.6.47,7.39,7.39,0,0,1-.66.42l-.68-.53.52-.28a6.49,6.49,0,0,0,.6-.37,5.47,5.47,0,0,0,.54-.41,1.47,1.47,0,0,0,.35-.43,2.64,2.64,0,0,1-.51,0,1,1,0,0,1-.41-.14.7.7,0,0,1-.26-.28,1.14,1.14,0,0,1-.09-.48,2.08,2.08,0,0,1,0-.41,1.94,1.94,0,0,1,.17-.42,1.1,1.1,0,0,1,.28-.32.59.59,0,0,1,.38-.14.84.84,0,0,1,.44.13,1.22,1.22,0,0,1,.33.31,1.65,1.65,0,0,1,.21.42,2.51,2.51,0,0,1,.1.44h.29v.93Zm-.62-.93s0-.11,0-.18a.54.54,0,0,0-.11-.18.47.47,0,0,0-.14-.14.25.25,0,0,0-.16-.06.28.28,0,0,0-.23.11.32.32,0,0,0-.09.23.23.23,0,0,0,0,.13.17.17,0,0,0,.12.06,1.09,1.09,0,0,0,.24,0Z"/><path class="cls-3" d="M82.59,15.61a1.07,1.07,0,0,1-.51-.12,1.34,1.34,0,0,1-.42-.33,2.57,2.57,0,0,1-.75.34,3.5,3.5,0,0,1-.82.11h-1a.86.86,0,0,1-.41-.1.5.5,0,0,1-.28-.32.85.85,0,0,1-.75.42h-.14a.3.3,0,0,1-.13,0s-.06,0-.06,0v-.8s0,0,.06-.05l.13,0h.21c.22,0,.33-.13.33-.4V14l.62-.18V14a3.16,3.16,0,0,0,0,.35.71.71,0,0,0,.07.22.24.24,0,0,0,.13.1.5.5,0,0,0,.19,0h0l.51-.58c.19-.2.38-.4.57-.57a3.07,3.07,0,0,1,.6-.44,1.24,1.24,0,0,1,.6-.17,1,1,0,0,1,.39.07,1.16,1.16,0,0,1,.32.2,1.21,1.21,0,0,1,.2.3.87.87,0,0,1,.07.37,1.86,1.86,0,0,1,0,.42,1.26,1.26,0,0,1-.15.33c0,.05.18.07.46.07h.1v.93Zm-2.68-3.4-.48.64-.67-.45.49-.65Zm1.28,1.58a1.08,1.08,0,0,0-.64.25,9.08,9.08,0,0,0-.71.64h.45l.34,0,.39-.06.36-.1a.88.88,0,0,0,.27-.16.27.27,0,0,0,.1-.22.2.2,0,0,0-.06-.15.56.56,0,0,0-.15-.1l-.18,0Z"/><path class="cls-3" d="M82.57,14.75s0,0,.06-.05l.12,0h.71a2,2,0,0,1-.12-.34,1.39,1.39,0,0,1,0-.35,1.13,1.13,0,0,1,.09-.45,1.2,1.2,0,0,1,.63-.6,1,1,0,0,1,.44-.09,1.32,1.32,0,0,1,1,.47l-.24.5a1.42,1.42,0,0,0-.38-.14,1.37,1.37,0,0,0-.39-.06.94.94,0,0,0-.43.09.3.3,0,0,0-.17.29.36.36,0,0,0,.09.24.79.79,0,0,0,.22.18,1.39,1.39,0,0,0,.28.12,1,1,0,0,0,.26.05,3.52,3.52,0,0,0,.49-.05l.71-.14-.1.81q-.9.21-1.59.3a7.77,7.77,0,0,1-1.16.1h-.31a.25.25,0,0,1-.12,0s-.06,0-.06,0Z"/><path class="cls-3" d="M88.3,15.61h-.82V15a1.62,1.62,0,0,1,.08-.56.73.73,0,0,1,.21-.35,1.06,1.06,0,0,1,.39-.23l.11.29a.61.61,0,0,0-.47.61h.5Z"/><path class="cls-3" d="M91.31,15.83a3.38,3.38,0,0,1-1.72-.35,1.09,1.09,0,0,1-.57-1,1.86,1.86,0,0,1,.08-.5,3.94,3.94,0,0,1,.22-.55l.6.17c0,.1-.08.2-.12.3a1,1,0,0,0,0,.3.46.46,0,0,0,.18.39,1.28,1.28,0,0,0,.47.2,3.08,3.08,0,0,0,.65.07l.72,0a7.42,7.42,0,0,0,.77-.05c.28,0,.55-.08.79-.13a3.23,3.23,0,0,0,.62-.2c.16-.07.25-.14.25-.22a.62.62,0,0,0-.1-.22l-.3-.41.51-.77a2,2,0,0,1,.38.57,1.65,1.65,0,0,1,.15.69,1.19,1.19,0,0,1-.18.66,1.48,1.48,0,0,1-.48.45,2.71,2.71,0,0,1-.67.29,5.44,5.44,0,0,1-.78.17,6.88,6.88,0,0,1-.77.07Zm-.47-2.92.4-.54.52.34.29-.41.62.41-.41.55-.53-.35-.27.41Z"/><path class="cls-3" d="M96.38,15.51l-.81.21V11.11l.81-.32Z"/><path class="cls-3" d="M99.83,14.35a1.49,1.49,0,0,1-.12.62,1.14,1.14,0,0,1-.33.42,1.2,1.2,0,0,1-.49.25,1.81,1.81,0,0,1-.58.08,2,2,0,0,1-.76-.13A1.21,1.21,0,0,1,97,15.2l.38-.69a1.2,1.2,0,0,0,.78.28h.32a1.86,1.86,0,0,0,.34,0,.68.68,0,0,0,.27-.13.28.28,0,0,0,.11-.25.52.52,0,0,0-.14-.32,2.85,2.85,0,0,0-.34-.36l-.41-.31-.32-.2.36-.88A2.5,2.5,0,0,1,99.83,14.35Z"/><path class="cls-3" d="M101.22,15.48a1,1,0,0,1-.4-.37,1.7,1.7,0,0,1-.19-.55,6.83,6.83,0,0,1-.06-.69c0-.12,0-.29,0-.51s0-.46,0-.71,0-.52,0-.79,0-.52,0-.75l.78-.32V14a.83.83,0,0,0,.15.54.55.55,0,0,0,.46.18v.93A1.4,1.4,0,0,1,101.22,15.48Z"/><path class="cls-3" d="M104.62,15.61a.6.6,0,0,0-.37.1.36.36,0,0,0-.17.22.34.34,0,0,0,0,.26.43.43,0,0,0,.23.21l-.27.87a3.13,3.13,0,0,1-1-.68,2.05,2.05,0,0,1-.51-1h-.61a.25.25,0,0,1-.12,0s-.06,0-.06,0v-.8s0,0,.06-.05l.12,0h.54a2.71,2.71,0,0,1,.13-.7,3.63,3.63,0,0,1,.23-.59,2,2,0,0,1,.28-.41.42.42,0,0,1,.26-.15.34.34,0,0,1,.26.17,1.84,1.84,0,0,1,.24.39,3.75,3.75,0,0,1,.17.47,1.76,1.76,0,0,1,.06.41,1.43,1.43,0,0,1-.07.46,2.33,2.33,0,0,1-.2.42,1.24,1.24,0,0,1-.29.31.79.79,0,0,1-.34.15,1,1,0,0,0,.45.49,1.2,1.2,0,0,1,.07-.53,1.83,1.83,0,0,1,.24-.46,1.28,1.28,0,0,1,.35-.31.88.88,0,0,1,.44-.12H105v.93Zm-1.34-1.91s-.07,0-.1.09a1.09,1.09,0,0,0-.09.21,2.17,2.17,0,0,0-.08.3,2.22,2.22,0,0,0,0,.37l.2-.05.19-.07a.36.36,0,0,0,.14-.1.24.24,0,0,0,0-.14.61.61,0,0,0,0-.17,1.18,1.18,0,0,0-.07-.2,1.31,1.31,0,0,0-.09-.17S103.3,13.7,103.28,13.7Z"/><path class="cls-3" d="M106.71,15.61a.72.72,0,0,1-.74-.42,1,1,0,0,1-.93.42H105a.27.27,0,0,1-.13,0s-.06,0-.06,0v-.8s0,0,.06-.05l.13,0h0c.4,0,.6-.13.6-.41V14l.65-.2V14c0,.49.16.73.48.73h.05v.93Zm-.35-3-.48.64-.67-.45.49-.65Z"/><path class="cls-3" d="M111.31,15.61a1.06,1.06,0,0,1-.45-.09.71.71,0,0,1-.31-.33.94.94,0,0,1-.32.31.86.86,0,0,1-.41.1.73.73,0,0,1-.35-.09.83.83,0,0,1-.29-.32.93.93,0,0,1-.8.41.74.74,0,0,1-.36-.09.85.85,0,0,1-.3-.32.81.81,0,0,1-.74.42h-.19a.25.25,0,0,1-.12,0s-.06,0-.06,0v-.8s0,0,.06-.05l.12,0H107c.22,0,.34-.13.34-.4V14l.56-.2V14a.92.92,0,0,0,.12.53.47.47,0,0,0,.35.17c.31,0,.47-.13.47-.4V14l.57-.2v.27a.72.72,0,0,0,.11.47.44.44,0,0,0,.39.14.43.43,0,0,0,.32-.11.37.37,0,0,0,.12-.29V14l.56-.2v.58a.42.42,0,0,0,0,.17.27.27,0,0,0,.13.1.81.81,0,0,0,.25,0h.09v.93Zm-3.12-2.67.4-.54.52.34.3-.4.61.4-.4.55-.53-.35-.28.41Zm.3-.88.41-.53.56.37-.4.53Z"/><path class="cls-3" d="M113.18,15.61a.72.72,0,0,1-.74-.42,1,1,0,0,1-.93.42h-.08a.25.25,0,0,1-.12,0s-.06,0-.06,0v-.8s0,0,.06-.05l.12,0h0c.4,0,.6-.13.6-.41V14l.66-.2V14c0,.49.16.73.48.73h.63v.93Zm.09,1-.4.54-.52-.34-.3.4-.62-.4.42-.55.52.35.29-.41Z"/><path class="cls-3" d="M115.43,16.62l-.4.54-.52-.34-.3.4-.61-.4.41-.55.52.35.29-.41Zm-1.76-1.87s0,0,.06-.05l.12,0h1c.28,0,.42-.06.42-.19a.19.19,0,0,0,0-.08.69.69,0,0,0-.06-.13,1.5,1.5,0,0,0-.14-.19l-.24-.3.52-.74a1.31,1.31,0,0,1,.39.55,1.78,1.78,0,0,1,.15.71,1.5,1.5,0,0,1-.11.58,1.08,1.08,0,0,1-.3.4,1.11,1.11,0,0,1-.44.24,1.92,1.92,0,0,1-.55.08h-.58a.25.25,0,0,1-.12,0s-.06,0-.06,0Zm1.47,2.75-.41.54-.57-.39.4-.53Z"/><path class="cls-3" d="M116.89,17.1l.61-.33c.23-.13.45-.28.67-.43a3.93,3.93,0,0,0,.56-.49.9.9,0,0,0,.25-.48.81.81,0,0,1-.25.09,1,1,0,0,1-.3,0,.86.86,0,0,1-.67-.23.84.84,0,0,1-.19-.57,1.74,1.74,0,0,1,.06-.45,1.33,1.33,0,0,1,.18-.42,1.12,1.12,0,0,1,.29-.32.68.68,0,0,1,.42-.13.79.79,0,0,1,.53.18,1.25,1.25,0,0,1,.33.45,2.21,2.21,0,0,1,.17.57,3.49,3.49,0,0,1,0,.52,1.92,1.92,0,0,1-.16.81,2.42,2.42,0,0,1-.45.66,5,5,0,0,1-.64.56c-.25.17-.5.34-.78.5Zm2-2.43a.83.83,0,0,0-.16-.37.33.33,0,0,0-.51-.05.34.34,0,0,0-.1.26.2.2,0,0,0,.12.19.58.58,0,0,0,.26.05l.22,0Z"/><path class="cls-4" d="M13.88,32.73a2.67,2.67,0,0,1-.36.84,1.85,1.85,0,0,1-.63.58,2,2,0,0,1-1,.21,2.33,2.33,0,0,1-.87-.15,1.66,1.66,0,0,1-.61-.4,1.7,1.7,0,0,1-.36-.61,2.27,2.27,0,0,1-.11-.75,2.61,2.61,0,0,1,.08-.67,2.8,2.8,0,0,1,.27-.65l.65.23a2.35,2.35,0,0,0-.18.45,1.72,1.72,0,0,0-.06.44,1.22,1.22,0,0,0,.08.43.84.84,0,0,0,.22.36,1.22,1.22,0,0,0,.39.23,1.57,1.57,0,0,0,.56.09,1.28,1.28,0,0,0,.61-.13,1,1,0,0,0,.4-.33,1.57,1.57,0,0,0,.22-.45,1.67,1.67,0,0,0,0-.49l-.17-3.5.88-.35v3.61A4.67,4.67,0,0,1,13.88,32.73Z"/><path class="cls-4" d="M15.47,33.21a1.08,1.08,0,0,1-.42-.4,1.43,1.43,0,0,1-.21-.6,5.79,5.79,0,0,1-.07-.76c0-.13,0-.31,0-.55s0-.49,0-.77l0-.86c0-.29,0-.56,0-.81l.86-.35v3.45a.94.94,0,0,0,.15.58.63.63,0,0,0,.51.2v1A1.68,1.68,0,0,1,15.47,33.21Z"/><path class="cls-4" d="M16,32.41s0,0,.06,0l.14,0h.08a.6.6,0,0,0,.4-.13.48.48,0,0,0,.15-.38v-.25l.61-.21v.27a.92.92,0,0,0,.12.51.35.35,0,0,0,.34.19c.4,0,.6-.18.6-.55v-.33l.62-.18v.43a.66.66,0,0,0,.18.47.55.55,0,0,0,.44.19.36.36,0,0,0,.28-.09.37.37,0,0,0,.09-.25.72.72,0,0,0-.09-.34.78.78,0,0,0-.2-.26l.6-.68a1.78,1.78,0,0,1,.3.54,2,2,0,0,1,.1.63,1.81,1.81,0,0,1-.07.52,1.73,1.73,0,0,1-.2.46,1.07,1.07,0,0,1-.34.33.83.83,0,0,1-.47.13,1.25,1.25,0,0,1-.59-.13.85.85,0,0,1-.38-.37.75.75,0,0,1-.33.35.91.91,0,0,1-.44.14,1.15,1.15,0,0,1-.5-.11.82.82,0,0,1-.35-.34.85.85,0,0,1-.42.35,1.71,1.71,0,0,1-.53.1l-.14,0s-.06,0-.06,0Z"/><path class="cls-4" d="M22.34,31.5a3.38,3.38,0,0,1,.36.63,1.84,1.84,0,0,1-.06,1.54,3.08,3.08,0,0,1-.54.72,5.07,5.07,0,0,1-.73.64,9.18,9.18,0,0,1-.81.52L19.82,35c.19-.09.41-.22.67-.37a6.32,6.32,0,0,0,.74-.49,3.63,3.63,0,0,0,.6-.56.79.79,0,0,0,.25-.53.72.72,0,0,0-.13-.39,3.13,3.13,0,0,0-.28-.4Z"/><path class="cls-4" d="M24.48,33.24l-.89.23v-5l.89-.35Z"/><path class="cls-5" d="M90.2,33.51a1,1,0,0,1-.43-.4,1.77,1.77,0,0,1-.21-.6,4.42,4.42,0,0,1-.06-.76c0-.12,0-.31,0-.54s0-.5,0-.78,0-.56,0-.86,0-.56,0-.81l.85-.35v3.45a.9.9,0,0,0,.16.59.59.59,0,0,0,.5.19v1A1.66,1.66,0,0,1,90.2,33.51Z"/><path class="cls-5" d="M94.52,33.65a1.19,1.19,0,0,1-.45-.08.88.88,0,0,1-.38-.24c0,.08,0,.16-.06.22a.39.39,0,0,1-.09.17.3.3,0,0,1-.14.11.57.57,0,0,1-.25,0,1.27,1.27,0,0,1-.32,0l-.35-.12-.33-.18a2.27,2.27,0,0,1-.28-.21,1.18,1.18,0,0,1-.4.25,1.71,1.71,0,0,1-.54.08H90.8s-.07,0-.07,0v-.88s0,0,.07-.05l.13,0h.31a.7.7,0,0,0,.25-.05.56.56,0,0,0,.2-.14.76.76,0,0,0,.18-.24,2.9,2.9,0,0,1,.19-.29,1.64,1.64,0,0,1,.21-.25.81.81,0,0,1,.24-.17.78.78,0,0,1,.31-.07.51.51,0,0,1,.42.21,4.42,4.42,0,0,1,.35.47,2.21,2.21,0,0,0,.19.31.49.49,0,0,0,.16.16.33.33,0,0,0,.21.06h.41v1ZM92.4,32.49l0,.08a.3.3,0,0,0,0,.08,1.3,1.3,0,0,0,.38.22,1,1,0,0,0,.34.09c.07,0,.11,0,.12-.08a.36.36,0,0,0,0-.17,1.21,1.21,0,0,0-.15-.33.33.33,0,0,0-.28-.16C92.59,32.22,92.49,32.31,92.4,32.49Z"/><path class="cls-5" d="M94.36,32.71s0,0,.07-.05l.13,0h.09a.56.56,0,0,0,.39-.13.44.44,0,0,0,.16-.37v-.25l.61-.21V32a1.07,1.07,0,0,0,.11.51.38.38,0,0,0,.34.18c.41,0,.61-.18.61-.55v-.33l.62-.18V32a.71.71,0,0,0,.17.47.62.62,0,0,0,.45.19.33.33,0,0,0,.28-.1.32.32,0,0,0,.08-.24.89.89,0,0,0-.08-.35.94.94,0,0,0-.2-.26l.6-.68a1.72,1.72,0,0,1,.3.55,2.17,2.17,0,0,1,.1.62,2.25,2.25,0,0,1-.07.52,1.62,1.62,0,0,1-.21.46,1.1,1.1,0,0,1-.34.34.88.88,0,0,1-.46.12,1.38,1.38,0,0,1-.59-.12.85.85,0,0,1-.38-.37.79.79,0,0,1-.33.35.9.9,0,0,1-.44.13,1,1,0,0,1-.5-.11.9.9,0,0,1-.36-.34.87.87,0,0,1-.41.35,1.47,1.47,0,0,1-.54.1h-.13s-.07,0-.07,0Zm1.81-2,.44-.6.57.38L97.5,30l.66.45-.44.59-.57-.37-.3.44Zm.33-1,.44-.58.61.41-.43.58Z"/><path class="cls-5" d="M104.83,33.52a4,4,0,0,1-.18.9,2,2,0,0,1-.39.7,1.64,1.64,0,0,1-.63.46,2.23,2.23,0,0,1-.9.16,2.26,2.26,0,0,1-.87-.15,1.62,1.62,0,0,1-1-1,2.41,2.41,0,0,1-.13-.71,3.35,3.35,0,0,1,.09-.76,3.11,3.11,0,0,1,.3-.74l.65.24a2,2,0,0,0-.24.69,1.41,1.41,0,0,0,0,.68,1,1,0,0,0,.4.53,1.61,1.61,0,0,0,1.8-.14,1.65,1.65,0,0,0,.34-1.17v-.16c0-.08,0-.19,0-.32s0-.28,0-.45,0-.35,0-.55,0-.31,0-.54,0-.5,0-.78,0-.56,0-.86,0-.56,0-.81l.85-.35v3.45a1,1,0,0,0,.16.59.53.53,0,0,0,.44.19v1A1.39,1.39,0,0,1,104.83,33.52Z"/><path class="cls-5" d="M107.35,33.65a.78.78,0,0,1-.8-.45,1.16,1.16,0,0,1-1,.45h-.21s-.06,0-.06,0v-.88s0,0,.06-.05l.14,0h0c.44,0,.65-.15.65-.44v-.35l.72-.23v.22c0,.54.17.8.52.8h0v1Zm.09,1.1-.43.59-.57-.37-.32.43-.68-.43.46-.6.57.38.31-.44Z"/><path class="cls-5" d="M111,33.65a1.19,1.19,0,0,1-.45-.08.88.88,0,0,1-.38-.24c0,.08,0,.16-.06.22a.39.39,0,0,1-.09.17.36.36,0,0,1-.14.11.57.57,0,0,1-.25,0,1.27,1.27,0,0,1-.32,0,2.42,2.42,0,0,1-.35-.12l-.33-.18a2.27,2.27,0,0,1-.28-.21,1.18,1.18,0,0,1-.4.25,1.71,1.71,0,0,1-.54.08h-.13s-.07,0-.07,0v-.88s0,0,.07-.05l.13,0h.31a.7.7,0,0,0,.25-.05.66.66,0,0,0,.2-.14,1.25,1.25,0,0,0,.18-.24l.18-.29.21-.25a1,1,0,0,1,.25-.17.78.78,0,0,1,.31-.07.54.54,0,0,1,.42.21,4.42,4.42,0,0,1,.35.47c.07.14.14.24.18.31a.51.51,0,0,0,.17.16.32.32,0,0,0,.2.06h.42v1Zm-2.12-1.16,0,.08,0,.08a1.5,1.5,0,0,0,.39.22,1,1,0,0,0,.34.09c.07,0,.11,0,.12-.08a.56.56,0,0,0,0-.17,1.21,1.21,0,0,0-.15-.33.33.33,0,0,0-.28-.16C109.1,32.22,109,32.31,108.91,32.49Z"/><path class="cls-5" d="M112.31,34.75l-.44.59-.56-.37-.32.43-.68-.43.46-.6.56.38.32-.44Zm-1.44-2s0,0,.07-.05l.13,0h.58c.29,0,.44-.07.44-.21a.16.16,0,0,0,0-.09.57.57,0,0,0-.07-.13,2.43,2.43,0,0,0-.14-.22l-.26-.32.57-.8a1.48,1.48,0,0,1,.42.6,2.07,2.07,0,0,1,.15.77,1.46,1.46,0,0,1-.11.62,1.14,1.14,0,0,1-.33.44,1.25,1.25,0,0,1-.48.27,2.23,2.23,0,0,1-.6.08h-.28s-.07,0-.07,0Z"/><path class="cls-5" d="M114.42,33.54l-.89.23v-5l.89-.35Z"/></svg>