<svg id="Layer_1" data-name="Layer 1" xmlns="http://www.w3.org/2000/svg" viewBox="0 0 150 170.04"><defs><style>.cls-1,.cls-2{fill:#f48120;}.cls-2{fill-rule:evenodd;}</style></defs><path class="cls-1" d="M6.41,162.45a2.39,2.39,0,0,1-1.18-.31,2.17,2.17,0,0,1-.85-.85A2.28,2.28,0,0,1,2,162.64a2.53,2.53,0,0,1-2-.77l.52-1.34a2,2,0,0,0,.74.34,4.32,4.32,0,0,0,1,.13,3.81,3.81,0,0,0,.59-.05,1.9,1.9,0,0,0,.51-.13,1.48,1.48,0,0,0,.37-.24.49.49,0,0,0,.13-.35.3.3,0,0,0,0-.12c0-.06,0-.18-.11-.37l-.31-.89q-.21-.58-.57-1.65l1.16-1c.3,1,.54,1.75.72,2.35a12.25,12.25,0,0,0,.49,1.39,1.72,1.72,0,0,0,.48.69,1.13,1.13,0,0,0,.67.18H6.7v1.68Z"/><path class="cls-1" d="M6.36,160.88s0-.07.11-.08a.85.85,0,0,1,.23,0h1c.5,0,.74-.12.74-.35a.4.4,0,0,0,0-.15,1.13,1.13,0,0,0-.11-.23,3.5,3.5,0,0,0-.25-.35l-.42-.55.94-1.33a2.49,2.49,0,0,1,.71,1,3.61,3.61,0,0,1,.25,1.29,2.57,2.57,0,0,1-.2,1,2.18,2.18,0,0,1-.53.73,2.25,2.25,0,0,1-.81.43,3.22,3.22,0,0,1-1,.15H6.7a.85.85,0,0,1-.23,0c-.07,0-.11,0-.11-.07ZM9,156l-.87,1.16-1.2-.81.88-1.17Z"/><path class="cls-1" d="M13.24,162.36a1.18,1.18,0,0,1-.28-.2,3.55,3.55,0,0,1-.49,1.16,5.59,5.59,0,0,1-.85,1.05,10.37,10.37,0,0,1-1.12.92c-.41.29-.83.56-1.27.81l-1.23-1c.31-.15.68-.35,1.12-.6a11.41,11.41,0,0,0,1.24-.8,6,6,0,0,0,1-.9,1.36,1.36,0,0,0,.41-.9.94.94,0,0,0-.08-.36,3.59,3.59,0,0,0-.21-.38c-.07-.12-.15-.24-.23-.35l-.19-.26,1.12-1.2c.11.16.2.33.3.49a3,3,0,0,0,.29.44,1.72,1.72,0,0,0,.35.32.77.77,0,0,0,.45.13v1.68A.72.72,0,0,1,13.24,162.36Z"/><path class="cls-1" d="M13.25,160.88s0-.07.11-.08a.78.78,0,0,1,.22,0h1c.49,0,.74-.12.74-.35a.4.4,0,0,0,0-.15,1.29,1.29,0,0,0-.12-.23c-.06-.1-.14-.21-.24-.35l-.42-.55.94-1.33a2.47,2.47,0,0,1,.7,1,3.4,3.4,0,0,1,.25,1.29,2.57,2.57,0,0,1-.19,1,2.08,2.08,0,0,1-.54.73,2.21,2.21,0,0,1-.8.43,3.27,3.27,0,0,1-1,.15h-.25a.78.78,0,0,1-.22,0c-.08,0-.11,0-.11-.07Zm.32,3.81.87-1.16,1.2.82-.89,1.17Z"/><path class="cls-1" d="M25.25,169.19,22,170l-.1-.52,3.25-.91Z"/><path class="cls-1" d="M24.68,162.45a2.23,2.23,0,0,1-1.05-.24,1.83,1.83,0,0,1-.76-.75l-.16-.27a4.48,4.48,0,0,0-1.3,1.31,2.59,2.59,0,0,0-.44,1.35,1.83,1.83,0,0,0,.29,1,2.11,2.11,0,0,0,.92.74,4.89,4.89,0,0,0,1.62.34,9.32,9.32,0,0,0,2.36-.18l.49,1.45a7.26,7.26,0,0,1-1.46.37,7.29,7.29,0,0,1-3.09-.19,4.12,4.12,0,0,1-1.29-.65,3.24,3.24,0,0,1-.9-1.07,3.32,3.32,0,0,1-.33-1.53,3.53,3.53,0,0,1,.21-1.23,4.23,4.23,0,0,1,.57-1.07,6.35,6.35,0,0,1,.83-.89,8,8,0,0,1,1-.74,1.49,1.49,0,0,0-.45-.34,1.75,1.75,0,0,0-.71-.12,2,2,0,0,1,.18-.88,1.88,1.88,0,0,1,.5-.61,2.19,2.19,0,0,1,.72-.35,3.43,3.43,0,0,1,.86-.11,2.71,2.71,0,0,1,.58.07,1.5,1.5,0,0,1,.5.2,1,1,0,0,1,.35.36,1,1,0,0,1,.13.53,1.24,1.24,0,0,1-.08.41,2.39,2.39,0,0,1-.24.44,3.42,3.42,0,0,1-.76.76q.14.21,1.08.21H26v1.68Z"/><path class="cls-1" d="M25.67,160.88s0-.07.11-.08a.83.83,0,0,1,.22,0,2.57,2.57,0,0,0,1-.17,1.24,1.24,0,0,0,.58-.5c.12-.19.24-.4.36-.62a3.88,3.88,0,0,1,.4-.62,1.86,1.86,0,0,1,.5-.47,1.24,1.24,0,0,1,1.39.05,1.86,1.86,0,0,1,.48.59,2.71,2.71,0,0,1,.26.74,3.36,3.36,0,0,1,.09.72,3.19,3.19,0,0,1-.06.59,1.75,1.75,0,0,1-.2.57,1.58,1.58,0,0,1-.37.44.89.89,0,0,1-.54.17,2.14,2.14,0,0,1-1-.24,5.14,5.14,0,0,1-.83-.53,2.55,2.55,0,0,1-.87.71,2.63,2.63,0,0,1-1.22.25.83.83,0,0,1-.22,0c-.07,0-.11,0-.11-.07Zm3.78-1.36c-.31-.05-.56.19-.77.72a2.24,2.24,0,0,0,.5.35,1.9,1.9,0,0,0,.52.18.23.23,0,0,0,.3-.21,1,1,0,0,0,0-.3,1.15,1.15,0,0,0-.1-.33,1.27,1.27,0,0,0-.18-.27A.55.55,0,0,0,29.45,159.52Z"/><path class="cls-1" d="M33.72,162.21a1.81,1.81,0,0,1-.71-.66,2.88,2.88,0,0,1-.35-1,9.69,9.69,0,0,1-.11-1.26c0-.21,0-.52,0-.92s0-.82,0-1.29,0-.93,0-1.42,0-.94,0-1.36l1.42-.58v5.74a1.57,1.57,0,0,0,.26,1,1,1,0,0,0,.85.33v1.68A2.63,2.63,0,0,1,33.72,162.21Z"/><path class="cls-1" d="M34.61,160.88s0-.07.11-.08a.85.85,0,0,1,.23,0h1.27l.75,0a3.68,3.68,0,0,0,.63-.09c.23-.06.51-.14.85-.26l1.37-.52-1.28-.35c-.3-.07-.52-.14-.67-.18a.68.68,0,0,0-.53.05,1.43,1.43,0,0,0-.41.34l-1-.68a4.25,4.25,0,0,1,.88-1.14,1.23,1.23,0,0,1,1-.26,8.73,8.73,0,0,1,1,.21l1,.27,1.07.29c.37.09.77.17,1.19.23l.57.05.56,0-.45,1.65-.61,0a2.56,2.56,0,0,0-.49,0,3.1,3.1,0,0,0-.47.14,3.38,3.38,0,0,0-.54.27q-.75.42-1.23.72a5.9,5.9,0,0,1-1,.51,4.5,4.5,0,0,1-1,.31,9.15,9.15,0,0,1-1.44.1H35a.85.85,0,0,1-.23,0c-.07,0-.11,0-.11-.07Zm3,3.81.87-1.16,1.2.82-.88,1.17Z"/><path class="cls-1" d="M54.93,159.3a3.25,3.25,0,0,0-1.2-.17,1.86,1.86,0,0,0-.55.09,2.87,2.87,0,0,0-.53.25,1.9,1.9,0,0,0-.4.33.55.55,0,0,0-.16.37c0,.13.07.21.22.26a2.48,2.48,0,0,0,.55.08l.71.05a2.72,2.72,0,0,1,.71.15,1.32,1.32,0,0,1,.55.36,1,1,0,0,1,.22.7,2.62,2.62,0,0,1-.44,1.5,3.69,3.69,0,0,1-1.1,1.09A5.16,5.16,0,0,1,52,165a5.78,5.78,0,0,1-1.56.23,5.14,5.14,0,0,1-1.6-.23,3.27,3.27,0,0,1-1.14-.62,2.61,2.61,0,0,1-.67-1,3.15,3.15,0,0,1-.23-1.19,4.53,4.53,0,0,1,.17-1.17,4.77,4.77,0,0,1,.52-1.22l1.14.39a4.91,4.91,0,0,0-.34.8,2.56,2.56,0,0,0-.12.76,1.75,1.75,0,0,0,.13.7,1.49,1.49,0,0,0,.45.56,2.21,2.21,0,0,0,.77.37,3.79,3.79,0,0,0,1.13.14,5.63,5.63,0,0,0,1-.11,6.87,6.87,0,0,0,1.06-.31,3.75,3.75,0,0,0,.85-.43c.23-.15.35-.31.35-.47s-.06-.14-.17-.18a3,3,0,0,0-.46-.08l-.68,0c-.26,0-.53,0-.82-.08a1.16,1.16,0,0,1-.74-.36,1.12,1.12,0,0,1-.23-.75,2.78,2.78,0,0,1,.28-1.24,3.47,3.47,0,0,1,.74-1,3.64,3.64,0,0,1,1-.71,2.92,2.92,0,0,1,1.18-.26,2.57,2.57,0,0,1,.62.08,2.6,2.6,0,0,1,.6.26Z"/><path class="cls-1" d="M57.9,162.21a1.74,1.74,0,0,1-.71-.66,2.69,2.69,0,0,1-.35-1,9.69,9.69,0,0,1-.11-1.26c0-.21,0-.52,0-.92s0-.82,0-1.29,0-.93,0-1.42,0-.94,0-1.36l1.42-.58v5.74a1.57,1.57,0,0,0,.26,1,1,1,0,0,0,.84.33v1.68A2.62,2.62,0,0,1,57.9,162.21Z"/><path class="cls-1" d="M65.09,162.45a2.21,2.21,0,0,1-.75-.14,1.48,1.48,0,0,1-.62-.4l-.11.37a.75.75,0,0,1-.15.28.55.55,0,0,1-.24.18.87.87,0,0,1-.4.07,2.11,2.11,0,0,1-.54-.07,3.38,3.38,0,0,1-.58-.21,4.25,4.25,0,0,1-.56-.29,2.93,2.93,0,0,1-.45-.34,2.17,2.17,0,0,1-.67.4,2.42,2.42,0,0,1-.9.15.78.78,0,0,1-.22,0c-.08,0-.11,0-.11-.07v-1.47s0-.07.11-.08a.78.78,0,0,1,.22,0l.52,0a1.36,1.36,0,0,0,.41-.09,1.27,1.27,0,0,0,.34-.23,1.73,1.73,0,0,0,.3-.4,3.88,3.88,0,0,1,.3-.48,2.36,2.36,0,0,1,.35-.41,1.28,1.28,0,0,1,.41-.29,1.08,1.08,0,0,1,.52-.11.89.89,0,0,1,.7.34,7,7,0,0,1,.57.79c.13.22.23.39.31.51a1.15,1.15,0,0,0,.27.27.76.76,0,0,0,.35.1l.56,0h.14v1.68Zm-3.52-1.94-.06.13-.07.14a2.2,2.2,0,0,0,.65.37,1.69,1.69,0,0,0,.55.14c.12,0,.18,0,.2-.13a.7.7,0,0,0,0-.28,2.1,2.1,0,0,0-.26-.55.56.56,0,0,0-.47-.27C61.88,160.06,61.71,160.21,61.57,160.51Z"/><path class="cls-1" d="M68.33,162.45a1.29,1.29,0,0,1-1.34-.76,1.9,1.9,0,0,1-1.69.76h-.13a.85.85,0,0,1-.23,0c-.07,0-.11,0-.11-.07v-1.47s0-.07.11-.08a.85.85,0,0,1,.23,0h.07c.72,0,1.08-.25,1.08-.74v-.58l1.19-.38v.36c0,.89.29,1.34.87,1.34h.09v1.68Zm-.64-5.38-.87,1.16-1.21-.81.89-1.18Z"/><path class="cls-1" d="M68.14,160.88s0-.07.11-.08a.78.78,0,0,1,.22,0h1.25a1.26,1.26,0,0,1-.26-.74,1.77,1.77,0,0,1,.31-1,3.16,3.16,0,0,1,.73-.81l-.32-.2.7-1.51,1.09.8a11.85,11.85,0,0,1,1.28,1.1,7.63,7.63,0,0,1,1,1.26,2.39,2.39,0,0,1,.46,1.29,3.49,3.49,0,0,1-.1.88,2.18,2.18,0,0,1-.28.67,1.11,1.11,0,0,1-.42.39.62.62,0,0,1-.5,0,7.06,7.06,0,0,1-1-.34c-.37-.16-.74-.33-1.11-.52a4.34,4.34,0,0,1-.91.28,5.25,5.25,0,0,1-.8.08H68.47a.78.78,0,0,1-.22,0c-.08,0-.11,0-.11-.07Zm2.68-.51a3.11,3.11,0,0,0,.42.27,1,1,0,0,0,.54-.41,1,1,0,0,0,.15-.51.47.47,0,0,0-.07-.25,1.24,1.24,0,0,0-.17-.23.94.94,0,0,0-.23-.16.63.63,0,0,0-.21-.05.46.46,0,0,0-.26.08,1.11,1.11,0,0,0-.24.2,1.15,1.15,0,0,0-.19.26.52.52,0,0,0-.08.24,1.13,1.13,0,0,0,0,.24A.57.57,0,0,0,70.82,160.37Zm2.11,0a1.93,1.93,0,0,1-.19.51c-.08.14-.18.28-.28.42l.35.16.34.14.32.1c.08,0,.15,0,.2-.17a.89.89,0,0,0-.1-.82A3.1,3.1,0,0,0,73,160,1.1,1.1,0,0,1,72.93,160.39Z"/><path class="cls-1" d="M77.69,162.26l-1.48.39V154.3l1.48-.58Z"/><path class="cls-1" d="M80.4,159.37a5.89,5.89,0,0,1,.6,1,3,3,0,0,1,.22,1.23,2.81,2.81,0,0,1-.34,1.34,5.26,5.26,0,0,1-.88,1.21,9.71,9.71,0,0,1-1.22,1.05q-.68.48-1.35.87l-1.23-1c.31-.15.69-.35,1.12-.61a11.43,11.43,0,0,0,1.23-.82,7,7,0,0,0,1-.92,1.37,1.37,0,0,0,.41-.89,1.29,1.29,0,0,0-.22-.66,6.94,6.94,0,0,0-.46-.66Z"/><path class="cls-1" d="M92,162.45a1,1,0,0,1,0,.5,1.76,1.76,0,0,1-.15.53,2.87,2.87,0,0,1-1,1.1,4.55,4.55,0,0,1-1.43.66,5.13,5.13,0,0,1-1.62.16A4.1,4.1,0,0,1,86.4,165a2.84,2.84,0,0,1-1.12-.94,2.64,2.64,0,0,1-.43-1.56,3.92,3.92,0,0,1,.19-1.24,5.48,5.48,0,0,1,.48-1.11l1.1.39c-.12.25-.23.53-.34.83a2.7,2.7,0,0,0-.16.85,1.7,1.7,0,0,0,.22.89,1.48,1.48,0,0,0,.58.53,2.36,2.36,0,0,0,.82.22,4.05,4.05,0,0,0,.92,0,5.69,5.69,0,0,0,.91-.2,4.26,4.26,0,0,0,.77-.31c.19-.1.28-.18.29-.24s0-.11-.11-.14l-1.58-.53a1.81,1.81,0,0,1,.09-.29c0-.11.09-.22.14-.34s.09-.24.14-.35a1.63,1.63,0,0,1,.15-.27,1,1,0,0,1,.33-.35,1.21,1.21,0,0,1,.49-.08H92.1v1.68Z"/><path class="cls-1" d="M91.76,160.88s0-.07.11-.08a.85.85,0,0,1,.23,0h.37c.41,0,.61-.25.61-.73v-.55l1.12-.32v.32a4,4,0,0,0,0,.65,1.11,1.11,0,0,0,.13.39.48.48,0,0,0,.23.19,1.06,1.06,0,0,0,.34.05H95l.94-1.05a11.25,11.25,0,0,1,1-1,6,6,0,0,1,1.08-.79,2.15,2.15,0,0,1,1.08-.31,1.85,1.85,0,0,1,.72.13,1.68,1.68,0,0,1,.57.36,1.58,1.58,0,0,1,.37.54,1.76,1.76,0,0,1,.13.66,2.5,2.5,0,0,1-.42,1.47,3.42,3.42,0,0,1-1,1,4.26,4.26,0,0,1-1.34.55,6.23,6.23,0,0,1-1.35.17H95a1.65,1.65,0,0,1-.74-.18,1,1,0,0,1-.51-.58,1.48,1.48,0,0,1-1.34.76H92.1a.85.85,0,0,1-.23,0c-.07,0-.11,0-.11-.07Zm7-1.72a1.86,1.86,0,0,0-1.15.45,16.46,16.46,0,0,0-1.3,1.16h.41l.41,0c.19,0,.4,0,.63-.05a6.15,6.15,0,0,0,.69-.11,4.64,4.64,0,0,0,.65-.18,1.52,1.52,0,0,0,.49-.27.56.56,0,0,0,.19-.4.42.42,0,0,0-.11-.29.73.73,0,0,0-.27-.17l-.33-.09Z"/><path class="cls-1" d="M103.6,162.21a1.74,1.74,0,0,1-.71-.66,2.69,2.69,0,0,1-.35-1,9.69,9.69,0,0,1-.11-1.26c0-.21,0-.52,0-.92s0-.82,0-1.29,0-.93,0-1.42,0-.94,0-1.36l1.42-.58v5.74a1.57,1.57,0,0,0,.26,1,1,1,0,0,0,.84.33v1.68A2.62,2.62,0,0,1,103.6,162.21Z"/><path class="cls-1" d="M114,162.45a2,2,0,0,1-.94-.22,2.48,2.48,0,0,1-.75-.59,4.16,4.16,0,0,1-1.37.6,5.55,5.55,0,0,1-1.47.21h-1.82a1.65,1.65,0,0,1-.74-.18,1,1,0,0,1-.51-.58,1.51,1.51,0,0,1-1.35.76h-.26a.78.78,0,0,1-.22,0c-.08,0-.11,0-.11-.07v-1.47s0-.07.11-.08a.78.78,0,0,1,.22,0h.38c.4,0,.61-.25.61-.73v-.55l1.11-.32v.32a3.82,3.82,0,0,0,0,.65,1.11,1.11,0,0,0,.13.39.45.45,0,0,0,.22.19,1.11,1.11,0,0,0,.34.05h.09l.93-1.05a14.48,14.48,0,0,1,1-1,6.73,6.73,0,0,1,1.08-.79,2.18,2.18,0,0,1,1.09-.31,1.88,1.88,0,0,1,.72.13,1.74,1.74,0,0,1,.56.36,1.45,1.45,0,0,1,.37.54,1.59,1.59,0,0,1,.13.66,2.66,2.66,0,0,1-.1.77,2.36,2.36,0,0,1-.26.6c0,.08.32.13.83.13h.18v1.68Zm-2.54-3.29a1.84,1.84,0,0,0-1.15.45,13.53,13.53,0,0,0-1.3,1.16h.4l.42,0c.19,0,.39,0,.62-.05a6,6,0,0,0,.7-.11,5.56,5.56,0,0,0,.65-.18,1.37,1.37,0,0,0,.48-.27.53.53,0,0,0,.19-.4.38.38,0,0,0-.11-.29.78.78,0,0,0-.26-.17,1.89,1.89,0,0,0-.34-.09Z"/><path class="cls-1" d="M117.47,162.45a1.29,1.29,0,0,1-1.33-.76,1.9,1.9,0,0,1-1.69.76h-.14a.83.83,0,0,1-.22,0c-.07,0-.11,0-.11-.07v-1.47s0-.07.11-.08a.83.83,0,0,1,.22,0h.08c.72,0,1.08-.25,1.08-.74v-.58l1.19-.38v.36c0,.89.29,1.34.87,1.34h.09v1.68Zm-3.17-5,.73-1,.94.63.53-.74,1.12.74-.74,1-1-.62-.49.74Z"/><path class="cls-1" d="M117.29,160.88s0-.07.1-.08a.91.91,0,0,1,.23,0h1.28l.75,0a4,4,0,0,0,.63-.09c.23-.06.51-.14.84-.26l1.37-.52-1.28-.35c-.3-.07-.52-.14-.66-.18a.68.68,0,0,0-.53.05,1.31,1.31,0,0,0-.41.34l-1-.68a3.88,3.88,0,0,1,.88-1.14,1.22,1.22,0,0,1,1-.26,8.73,8.73,0,0,1,1,.21l1,.27,1.08.29a11.45,11.45,0,0,0,1.19.23l.57.05.56,0-.45,1.65-.61,0a2.49,2.49,0,0,0-.49,0,2.9,2.9,0,0,0-.48.14,3.38,3.38,0,0,0-.54.27c-.49.28-.9.52-1.22.72a6.35,6.35,0,0,1-1,.51,4.43,4.43,0,0,1-1,.31,9.15,9.15,0,0,1-1.44.1h-1.07a.91.91,0,0,1-.23,0c-.07,0-.1,0-.1-.07Zm4.33-5.35-.87,1.16-1.2-.81.88-1.17Z"/><path class="cls-1" d="M128.82,162.26l-1.47.39V154.3l1.47-.58Z"/><path class="cls-1" d="M136.91,164.14l-3.27.86-.11-.52,3.25-.92Z"/><path class="cls-1" d="M138.71,162.45a2.39,2.39,0,0,1-1.18-.31,2.24,2.24,0,0,1-.85-.85,2.27,2.27,0,0,1-2.33,1.35,2.53,2.53,0,0,1-2-.77l.52-1.34a2,2,0,0,0,.74.34,4.32,4.32,0,0,0,1,.13,3.81,3.81,0,0,0,.59-.05,1.88,1.88,0,0,0,.52-.13,1.25,1.25,0,0,0,.36-.24.5.5,0,0,0,.14-.35.35.35,0,0,0,0-.12c0-.06,0-.18-.11-.37s-.17-.49-.31-.89-.33-.94-.57-1.65l1.16-1c.3,1,.54,1.75.72,2.35a12.25,12.25,0,0,0,.49,1.39,1.72,1.72,0,0,0,.48.69,1.13,1.13,0,0,0,.67.18H139v1.68Z"/><path class="cls-1" d="M142.16,162.45a1.3,1.3,0,0,1-1.34-.76,1.88,1.88,0,0,1-1.69.76H139a.91.91,0,0,1-.23,0c-.07,0-.1,0-.1-.07v-1.47s0-.07.1-.08a.91.91,0,0,1,.23,0h.07c.73,0,1.09-.25,1.09-.74v-.58l1.19-.38v.36c0,.89.29,1.34.87,1.34h.08v1.68Zm-.64-5.38-.87,1.16-1.2-.81.88-1.18Z"/><path class="cls-1" d="M142,160.88s0-.07.11-.08a.83.83,0,0,1,.22,0h.15a1,1,0,0,0,.65-.22.78.78,0,0,0,.26-.62v-.42l1-.35v.45a1.66,1.66,0,0,0,.18.84.63.63,0,0,0,.57.32c.68,0,1-.31,1-.92v-.55l1-.3v.72a1.17,1.17,0,0,0,.29.79,1,1,0,0,0,.74.31.58.58,0,0,0,.47-.16.54.54,0,0,0,.14-.4,1.3,1.3,0,0,0-.14-.57,1.48,1.48,0,0,0-.34-.45l1-1.13a2.66,2.66,0,0,1,.5.92,3.33,3.33,0,0,1,.17,1,3.13,3.13,0,0,1-.12.86,2.44,2.44,0,0,1-.34.77,1.83,1.83,0,0,1-.56.55,1.47,1.47,0,0,1-.78.21,2.24,2.24,0,0,1-1-.21,1.38,1.38,0,0,1-.63-.61,1.34,1.34,0,0,1-.55.58,1.6,1.6,0,0,1-.74.23,1.88,1.88,0,0,1-.83-.19,1.41,1.41,0,0,1-.59-.57,1.31,1.31,0,0,1-.69.58,2.4,2.4,0,0,1-.89.18.83.83,0,0,1-.22,0c-.07,0-.11,0-.11-.07Z"/><path class="cls-2" d="M149,0H1c7.81,96.24,39.82,153.51,109,149.61q20.13-1.12,39.08-2.52Z"/></svg>