<svg id="Layer_1" data-name="Layer 1" xmlns="http://www.w3.org/2000/svg" viewBox="0 0 18 18"><defs><style>.cls-1{fill:#6d6e70;}.cls-2{fill:#fff;fill-rule:evenodd;}</style></defs><circle class="cls-1" cx="9" cy="9" r="9"/><g id="WA_Logo" data-name="WA Logo"><path class="cls-2" d="M12.43,5.56a4.81,4.81,0,0,0-7.58,5.8l-.68,2.5,2.55-.67a4.82,4.82,0,0,0,2.3.58H9a4.82,4.82,0,0,0,3.41-8.21ZM9,13H9a4,4,0,0,1-2-.56l-.14-.08-1.52.39.41-1.47-.1-.15A4,4,0,0,1,9,5a4,4,0,0,1,4,4A4,4,0,0,1,9,13Zm2.2-3c-.13-.06-.72-.35-.83-.39s-.19-.06-.27.06-.31.39-.38.47-.14.09-.26,0a3.2,3.2,0,0,1-1-.59,3.66,3.66,0,0,1-.67-.84c-.07-.12,0-.18.06-.24l.18-.21a.82.82,0,0,0,.12-.2.22.22,0,0,0,0-.21c0-.06-.27-.65-.37-.9s-.2-.2-.27-.2H7.32A.48.48,0,0,0,7,6.88a1.37,1.37,0,0,0-.42,1,2.32,2.32,0,0,0,.5,1.24,5.29,5.29,0,0,0,2,1.82c.29.12.51.19.69.25a1.66,1.66,0,0,0,.75.05,1.28,1.28,0,0,0,.82-.57,1,1,0,0,0,.07-.58S11.34,10,11.22,10Z"/></g></svg>