<svg id="Layer_1" data-name="Layer 1" xmlns="http://www.w3.org/2000/svg" viewBox="0 0 258 119.05"><defs><style>.cls-1{fill:#a6a8ab;}.cls-2{fill:#bbbdbf;}.cls-3{fill:#929497;}.cls-4{fill:#808184;}.cls-5{fill:#6d6e70;}.cls-6{fill:#58595b;}</style></defs><path class="cls-1" d="M135.13,20.29a1.52,1.52,0,0,0-.35-.91.91.91,0,0,0-.71-.3,1,1,0,0,0-.37.07.89.89,0,0,0-.33.19,1,1,0,0,0-.23.31.87.87,0,0,0-.09.4.8.8,0,0,0,.27.63c.18.16.38.33.61.51a5.08,5.08,0,0,1,.52.51,1.69,1.69,0,0,1,.45,1q0,.32,0,.75h-1.17a2.09,2.09,0,0,0-.08-.79,1.56,1.56,0,0,0-.56-.59c-.15-.12-.31-.24-.47-.38a3,3,0,0,1-.43-.45,2.2,2.2,0,0,1-.32-.53,1.61,1.61,0,0,1-.12-.63,2.21,2.21,0,0,1,.17-.89,1.9,1.9,0,0,1,.49-.66,2.27,2.27,0,0,1,.74-.39,3,3,0,0,1,.92-.14,2.21,2.21,0,0,1,1.53.55,2.25,2.25,0,0,1,.67,1.55ZM135,25.73h-1.36v-1.4H135Z"/><path class="cls-1" d="M143.64,25.73a2,2,0,0,1-1.16-.26,1.68,1.68,0,0,1,.15.65,1.9,1.9,0,0,1-.09.68,1.26,1.26,0,0,1-.33.54.94.94,0,0,1-.6.23,1.45,1.45,0,0,1-1.11-.39A2.21,2.21,0,0,1,140,26c0-.11,0-.25,0-.39s0-.31,0-.49a1.08,1.08,0,0,0-.76.2,1.1,1.1,0,0,0-.21.78v5h-1.08L137.64,26a2.55,2.55,0,0,1,.16-1,2.23,2.23,0,0,1,1.26-1.27,2.42,2.42,0,0,1,.94-.18l.22-.71.77.48a9.27,9.27,0,0,0,.82.44,4.21,4.21,0,0,0,.84.3,3.28,3.28,0,0,0,.88.12h.17v1.55Zm-2.82-.92a2.45,2.45,0,0,0,.17,1.12q.21.42.54.42c.19,0,.28-.12.28-.37Q141.81,25.32,140.82,24.81Z"/><path class="cls-1" d="M146.63,25.73a1.21,1.21,0,0,1-1.24-.69,1.77,1.77,0,0,1-1.57.69h-.12l-.2,0c-.07,0-.11,0-.11-.07V24.29s0-.07.11-.09l.2,0h.07c.67,0,1-.23,1-.69V23l1.1-.35v.33c0,.83.26,1.24.8,1.24h.08v1.55Zm-3.85-4.56-.91-.91.91-.91.9.91Zm1.85,0-.91-.91.91-.91.91.91Z"/><path class="cls-1" d="M154.34,25.73a1.75,1.75,0,0,1-.76-.15,1.19,1.19,0,0,1-.52-.54,1.57,1.57,0,0,1-.55.51,1.42,1.42,0,0,1-.67.17,1.16,1.16,0,0,1-.59-.16,1.45,1.45,0,0,1-.49-.52,1.58,1.58,0,0,1-1.34.68,1.17,1.17,0,0,1-.6-.16,1.39,1.39,0,0,1-.5-.52,1.36,1.36,0,0,1-1.24.69h-.32l-.21,0c-.06,0-.1,0-.1-.07V24.29s0-.07.1-.09l.21,0h.35c.38,0,.56-.23.56-.67V23l1-.34V23a1.45,1.45,0,0,0,.2.88.74.74,0,0,0,.57.3c.53,0,.79-.23.79-.67V23l1-.34v.46a1.28,1.28,0,0,0,.18.78,1,1,0,0,0,1.19.06.65.65,0,0,0,.2-.49V23l.94-.34v.57c0,.16,0,.29,0,.4a.62.62,0,0,0,.08.29.35.35,0,0,0,.21.16,1.17,1.17,0,0,0,.42.06h.16v1.55Z"/><path class="cls-1" d="M154.23,24.29s0-.07.1-.09l.21,0h1.15a1.2,1.2,0,0,1-.24-.69,1.68,1.68,0,0,1,.29-.9,2.89,2.89,0,0,1,.68-.75l-.3-.18.65-1.4,1,.74A11.08,11.08,0,0,1,159,22a7.08,7.08,0,0,1,1,1.17,2.29,2.29,0,0,1,.42,1.2,3.47,3.47,0,0,1-.09.81,2.22,2.22,0,0,1-.26.62,1.31,1.31,0,0,1-.39.36.55.55,0,0,1-.47,0,8,8,0,0,1-.93-.32q-.51-.21-1-.48a3.78,3.78,0,0,1-.85.26,4.34,4.34,0,0,1-.74.07h-1.07l-.21,0c-.06,0-.1,0-.1-.07Zm2.48-.47.39.24a.92.92,0,0,0,.5-.38.89.89,0,0,0,.15-.47.48.48,0,0,0-.07-.23,1.16,1.16,0,0,0-.16-.21.8.8,0,0,0-.21-.15.59.59,0,0,0-.19-.05.45.45,0,0,0-.25.07,1,1,0,0,0-.22.19,1.25,1.25,0,0,0-.18.24.61.61,0,0,0-.07.22,1.51,1.51,0,0,0,0,.22A.59.59,0,0,0,156.71,23.82Zm2,0a1.64,1.64,0,0,1-.18.47,4.4,4.4,0,0,1-.26.39l.33.14.31.14a2.78,2.78,0,0,0,.3.09c.07,0,.13,0,.19-.16a.89.89,0,0,0-.1-.76,3.39,3.39,0,0,0-.56-.65A1,1,0,0,1,158.67,23.83Z"/><path class="cls-1" d="M166.22,22.89a5.31,5.31,0,0,1,.56,1A2.78,2.78,0,0,1,167,25a2.6,2.6,0,0,1-.32,1.24,4.8,4.8,0,0,1-.82,1.12,8.19,8.19,0,0,1-1.12,1,14.82,14.82,0,0,1-1.26.81l-1.14-.9c.3-.14.64-.33,1-.56a11.37,11.37,0,0,0,1.14-.77,7.07,7.07,0,0,0,.93-.85,1.32,1.32,0,0,0,.38-.83,1.17,1.17,0,0,0-.21-.6c-.14-.22-.28-.43-.42-.62Z"/><path class="cls-1" d="M169.45,25.51a1.69,1.69,0,0,1-.66-.61,2.57,2.57,0,0,1-.32-.92,8.37,8.37,0,0,1-.1-1.17c0-.2,0-.48,0-.85s0-.76,0-1.19,0-.87,0-1.32,0-.87,0-1.25l1.31-.54V23a1.47,1.47,0,0,0,.24.91.94.94,0,0,0,.78.3v1.55A2.42,2.42,0,0,1,169.45,25.51Z"/><path class="cls-1" d="M176.11,25.73a2.1,2.1,0,0,1-.7-.12,1.56,1.56,0,0,1-.58-.37c0,.12-.07.24-.1.34a.71.71,0,0,1-.13.26.62.62,0,0,1-.22.17,1,1,0,0,1-.38.06,1.88,1.88,0,0,1-.5-.07,3.09,3.09,0,0,1-.53-.19,5.12,5.12,0,0,1-.52-.27,2.89,2.89,0,0,1-.42-.32,2.07,2.07,0,0,1-.62.38,2.3,2.3,0,0,1-.83.13l-.21,0c-.06,0-.1,0-.1-.07V24.29s0-.07.1-.09l.21,0,.48,0a1,1,0,0,0,.38-.08,1,1,0,0,0,.31-.21,1.5,1.5,0,0,0,.28-.38c.09-.15.18-.3.28-.44a3.05,3.05,0,0,1,.32-.38,1.7,1.7,0,0,1,.39-.27,1,1,0,0,1,.47-.1.84.84,0,0,1,.65.32,6,6,0,0,1,.53.73c.12.2.21.36.29.47a.85.85,0,0,0,.25.25.63.63,0,0,0,.32.09l.52,0h5.14v1.55Zm-3.26-1.79-.06.12a.38.38,0,0,0-.06.13,2.16,2.16,0,0,0,.59.34,1.44,1.44,0,0,0,.52.13c.11,0,.17,0,.18-.11a.59.59,0,0,0,0-.26,1.47,1.47,0,0,0-.24-.51.52.52,0,0,0-.43-.26Q173,23.52,172.85,23.94Z"/><path class="cls-1" d="M185.48,25.73a2.08,2.08,0,0,1-1-.22,1.7,1.7,0,0,1-.69-.69,3.2,3.2,0,0,1-1.09.69,3.88,3.88,0,0,1-1.34.22h-.2l-.21,0c-.07,0-.1,0-.1-.07V24.29s0-.07.1-.09l.21,0h.21q1.44,0,1.77-.51a1.16,1.16,0,0,0-.4-.33,1.56,1.56,0,0,0-.67-.11,1.87,1.87,0,0,1,.17-.82,1.7,1.7,0,0,1,.47-.56,1.81,1.81,0,0,1,.67-.32,3,3,0,0,1,.79-.1,2.33,2.33,0,0,1,.53.06,1.41,1.41,0,0,1,.47.19.89.89,0,0,1,.44.82,1.13,1.13,0,0,1-.08.38,2,2,0,0,1-.22.4,3.79,3.79,0,0,1-.32.38,4,4,0,0,1-.39.33c.09.13.43.19,1,.19h.62v1.55Z"/><path class="cls-1" d="M185.94,24.29s0-.07.1-.09l.21,0a2.15,2.15,0,0,0,.91-.16,1.13,1.13,0,0,0,.55-.46c.11-.18.21-.37.33-.58a4.28,4.28,0,0,1,.37-.57,1.71,1.71,0,0,1,.46-.43,1.12,1.12,0,0,1,1.29.05,1.56,1.56,0,0,1,.44.54,3,3,0,0,1,.25.69,3.46,3.46,0,0,1,.08.66,2.8,2.8,0,0,1-.06.55,2,2,0,0,1-.18.53,1.35,1.35,0,0,1-.35.4.77.77,0,0,1-.5.16,1.92,1.92,0,0,1-.89-.22,4.42,4.42,0,0,1-.77-.49,2.68,2.68,0,0,1-.81.66,2.51,2.51,0,0,1-1.12.22l-.21,0c-.07,0-.1,0-.1-.07Zm3.5-1.27c-.29,0-.52.18-.71.67a1.6,1.6,0,0,0,.45.32,1.69,1.69,0,0,0,.49.17A.22.22,0,0,0,190,24a.94.94,0,0,0,0-.28.75.75,0,0,0-.09-.3.74.74,0,0,0-.17-.25A.43.43,0,0,0,189.44,23Z"/><path class="cls-1" d="M208.88,25.56l-1.37.36V18.2l1.37-.54Z"/><path class="cls-1" d="M212.36,25.65a1,1,0,0,1-.26-.18,3.36,3.36,0,0,1-.45,1.08,5.44,5.44,0,0,1-.79,1,8.91,8.91,0,0,1-1,.85q-.57.41-1.17.75l-1.14-.88c.29-.14.63-.33,1-.56a11.43,11.43,0,0,0,1.16-.74,7,7,0,0,0,.93-.83,1.32,1.32,0,0,0,.38-.84.88.88,0,0,0-.08-.33,3,3,0,0,0-.19-.35c-.07-.12-.14-.22-.21-.32l-.18-.24,1-1.12c.1.16.19.31.27.46a3.27,3.27,0,0,0,.28.41,1.24,1.24,0,0,0,.32.29.71.71,0,0,0,.41.12v1.55A.6.6,0,0,1,212.36,25.65Z"/><path class="cls-1" d="M212.37,24.29s0-.07.1-.09l.2,0h1.18l.7,0a2.6,2.6,0,0,0,.59-.08,7,7,0,0,0,.77-.24l1.27-.48L216,23c-.28-.07-.48-.13-.62-.18a.68.68,0,0,0-.49.05,1.58,1.58,0,0,0-.38.32l-.92-.63a3.77,3.77,0,0,1,.81-1.06,1.13,1.13,0,0,1,.94-.23,6,6,0,0,1,.92.19l.93.25,1,.26a10.18,10.18,0,0,0,1.1.22l.53,0,.51,0-.41,1.53-.57,0a3.14,3.14,0,0,0-.45,0,2.44,2.44,0,0,0-.44.13,3.86,3.86,0,0,0-.5.25c-.46.26-.83.48-1.13.67a7.63,7.63,0,0,1-.88.47,4.4,4.4,0,0,1-.95.28,8,8,0,0,1-1.33.09h-1l-.2,0c-.07,0-.1,0-.1-.07Z"/><path class="cls-1" d="M199.73,25.88a1.26,1.26,0,0,1-.55-.11c-.17-.08-.27-.16-.3-.26a4.72,4.72,0,0,1-.27,1.53,3.48,3.48,0,0,1-.73,1.22,3.56,3.56,0,0,1-1.14.8,3.88,3.88,0,0,1-1.52.28,3.47,3.47,0,0,1-1.35-.23,2.53,2.53,0,0,1-1.49-1.58,3.49,3.49,0,0,1-.18-1.14,4.13,4.13,0,0,1,.14-1,3.77,3.77,0,0,1,.41-1l1,.37a3.88,3.88,0,0,0-.26.69,2.27,2.27,0,0,0-.1.67,1.87,1.87,0,0,0,.12.68,1.33,1.33,0,0,0,.35.53,1.64,1.64,0,0,0,.59.36,2.77,2.77,0,0,0,.87.12,3,3,0,0,0,1-.14,2.09,2.09,0,0,0,.7-.41,1.58,1.58,0,0,0,.43-.59,1.8,1.8,0,0,0,.15-.73,3.11,3.11,0,0,0-.65-1.92l1.17-1.07c.09.18.18.36.28.53a4,4,0,0,0,.29.46,1.14,1.14,0,0,0,.35.31.84.84,0,0,0,.45.12h.37v1.55Z"/><path class="cls-1" d="M204.45,20l-3,.79-.1-.48,3-.85Z"/><path class="cls-1" d="M199.53,24.44s0-.07.1-.09l.2,0a2.17,2.17,0,0,0,.92-.16,1.13,1.13,0,0,0,.55-.46c.1-.18.21-.37.32-.58s.24-.39.37-.57a1.91,1.91,0,0,1,.47-.43,1.05,1.05,0,0,1,.62-.18,1,1,0,0,1,.66.23,1.59,1.59,0,0,1,.45.54,2.56,2.56,0,0,1,.24.69,2.81,2.81,0,0,1,.08.66,2.74,2.74,0,0,1,0,.55,1.6,1.6,0,0,1-.19.53,1.32,1.32,0,0,1-.34.4.79.79,0,0,1-.5.16,1.89,1.89,0,0,1-.89-.22,4.42,4.42,0,0,1-.77-.49,2.8,2.8,0,0,1-.81.66,2.53,2.53,0,0,1-1.13.22l-.2,0c-.07,0-.1,0-.1-.07Zm3.5-1.27c-.29,0-.53.18-.72.67a1.81,1.81,0,0,0,.46.32,1.74,1.74,0,0,0,.48.17.23.23,0,0,0,.29-.19,1.47,1.47,0,0,0,0-.28,1.32,1.32,0,0,0-.09-.3.92.92,0,0,0-.17-.25A.46.46,0,0,0,203,23.17Z"/><rect class="cls-1" x="194.79" y="22.76" width="1.28" height="1.28" transform="translate(73.79 -131.34) rotate(45)"/><rect class="cls-2" x="212.63" y="27.56" width="1.28" height="1.28" transform="translate(82.41 -142.55) rotate(45)"/><rect class="cls-2" x="214.49" y="27.56" width="1.28" height="1.28" transform="translate(82.95 -143.86) rotate(45)"/><rect class="cls-2" x="216.28" y="27.56" width="1.28" height="1.28" transform="translate(83.48 -145.13) rotate(45)"/><path class="cls-2" d="M166,2a1.37,1.37,0,0,0-.32-.81.82.82,0,0,0-.63-.27,1,1,0,0,0-.34.06,1.11,1.11,0,0,0-.3.17,1,1,0,0,0-.2.28.86.86,0,0,0-.08.36.71.71,0,0,0,.24.56c.16.15.34.3.54.46a4.15,4.15,0,0,1,.47.46,1.54,1.54,0,0,1,.28.42,1.93,1.93,0,0,1,.13.5,6.52,6.52,0,0,1,0,.68h-1a2.17,2.17,0,0,0-.07-.71,1.38,1.38,0,0,0-.51-.53l-.42-.34a3.78,3.78,0,0,1-.39-.41,1.72,1.72,0,0,1-.28-.47,1.33,1.33,0,0,1-.11-.56,2,2,0,0,1,.15-.81,1.72,1.72,0,0,1,.44-.58,1.88,1.88,0,0,1,.67-.36,2.66,2.66,0,0,1,.82-.12,2,2,0,0,1,1.37.49,2,2,0,0,1,.61,1.39Z"/><path class="cls-2" d="M174.11,8.4A2,2,0,0,1,173,8.13a1.69,1.69,0,0,1,.15.66,1.84,1.84,0,0,1-.09.67,1.28,1.28,0,0,1-.34.54.85.85,0,0,1-.59.23A1.46,1.46,0,0,1,171,9.84a2.24,2.24,0,0,1-.55-1.18c0-.11,0-.24,0-.39s0-.31,0-.49a1.08,1.08,0,0,0-.77.21,1.13,1.13,0,0,0-.2.77v3.88h-1.08l-.19-4a2.38,2.38,0,0,1,.16-1,2.09,2.09,0,0,1,.5-.77,2.29,2.29,0,0,1,.75-.5,2.47,2.47,0,0,1,.95-.18l.21-.71.78.48c.27.16.54.31.81.44a5.42,5.42,0,0,0,.85.31,3.72,3.72,0,0,0,.88.11h.17V8.4Zm-2.81-.93a2.42,2.42,0,0,0,.17,1.12c.14.28.31.42.54.42s.28-.12.28-.37Q172.29,8,171.3,7.47Z"/><path class="cls-2" d="M177.1,8.4a1.21,1.21,0,0,1-1.23-.7,1.78,1.78,0,0,1-1.57.7h-.12a.76.76,0,0,1-.21,0c-.06,0-.1,0-.1-.07V7s0-.06.1-.08a.76.76,0,0,1,.21,0h.07c.67,0,1-.23,1-.68V5.62l1.1-.35v.34q0,1.23.81,1.23h.08V8.4Z"/><path class="cls-2" d="M184.82,8.4a1.74,1.74,0,0,1-.76-.16,1.19,1.19,0,0,1-.52-.54,1.57,1.57,0,0,1-.55.51,1.45,1.45,0,0,1-.67.17,1.16,1.16,0,0,1-.59-.16,1.37,1.37,0,0,1-.49-.52,1.6,1.6,0,0,1-1.35.68,1.16,1.16,0,0,1-.59-.16,1.41,1.41,0,0,1-.51-.52,1.34,1.34,0,0,1-1.23.7h-.32a.76.76,0,0,1-.21,0c-.07,0-.1,0-.1-.07V7s0-.06.1-.08a.76.76,0,0,1,.21,0h.35c.37,0,.56-.22.56-.67V5.7l.95-.33v.29a1.56,1.56,0,0,0,.2.89.8.8,0,0,0,.58.29c.53,0,.79-.22.79-.67V5.7l1-.33v.45a1.26,1.26,0,0,0,.19.79.78.78,0,0,0,.65.23.77.77,0,0,0,.54-.18.63.63,0,0,0,.19-.49V5.7l.94-.33v.56c0,.16,0,.3,0,.41a.51.51,0,0,0,.08.28.37.37,0,0,0,.21.17,1.5,1.5,0,0,0,.42,0H185V8.4Z"/><path class="cls-2" d="M187.94,8.4a1.2,1.2,0,0,1-1.23-.7,1.79,1.79,0,0,1-1.57.7H185a.76.76,0,0,1-.21,0c-.07,0-.1,0-.1-.07V7s0-.06.1-.08a.76.76,0,0,1,.21,0h.06c.68,0,1-.23,1-.68V5.62l1.1-.35v.34q0,1.23.81,1.23h.08V8.4Z"/><path class="cls-2" d="M187.77,7s0-.06.1-.08a.66.66,0,0,1,.21,0h.4c1.49,0,2.24-.18,2.24-.55a.87.87,0,0,0-.23-.47,5,5,0,0,0-.56-.58c-.23-.2-.47-.4-.72-.59l-.69-.52a2.21,2.21,0,0,1-.26-.19.61.61,0,0,1-.13-.16.46.46,0,0,1,0-.21,2.13,2.13,0,0,1,0-.3,2.08,2.08,0,0,1,0-.3,2.66,2.66,0,0,1,.07-.37,1.7,1.7,0,0,1,.12-.34.48.48,0,0,1,.18-.21,21.59,21.59,0,0,1,2.24-1c.93-.34,2-.71,3.35-1.09L194,1.57c-.79.17-1.56.35-2.31.56a18.6,18.6,0,0,0-2.22.73c-.16.06-.19.13-.08.21l.88.65a6,6,0,0,1,.81.69,3.08,3.08,0,0,1,.58.81,2.12,2.12,0,0,1,.22,1,1.93,1.93,0,0,1-.32,1.15,2.07,2.07,0,0,1-.83.66,3.79,3.79,0,0,1-1.1.3,9.12,9.12,0,0,1-1.14.08h-.36a.66.66,0,0,1-.21,0c-.07,0-.1,0-.1-.07Z"/><path class="cls-2" d="M199.86,8.4a1.26,1.26,0,0,1-.55-.12A.47.47,0,0,1,199,8a5.07,5.07,0,0,1-.26,1.54,3.46,3.46,0,0,1-.74,1.21,3.31,3.31,0,0,1-1.14.8,3.85,3.85,0,0,1-1.52.29,3.46,3.46,0,0,1-1.35-.24,2.53,2.53,0,0,1-.94-.64,2.62,2.62,0,0,1-.54-.93,3.33,3.33,0,0,1-.19-1.14,4.21,4.21,0,0,1,.14-1,3.91,3.91,0,0,1,.41-1l1,.36a3.28,3.28,0,0,0-.27.69,2.66,2.66,0,0,0-.1.68,1.85,1.85,0,0,0,.12.67,1.33,1.33,0,0,0,.35.53,1.51,1.51,0,0,0,.59.36,2.86,2.86,0,0,0,.88.13,2.91,2.91,0,0,0,1-.15,2.07,2.07,0,0,0,.7-.4,1.7,1.7,0,0,0,.43-.6,1.8,1.8,0,0,0,.15-.73,3.17,3.17,0,0,0-.64-1.92l1.16-1.07c.09.19.18.37.28.54a3.18,3.18,0,0,0,.29.45,1.17,1.17,0,0,0,.35.32.94.94,0,0,0,.45.11H200V8.4Z"/><path class="cls-2" d="M204.58,2.48l-3,.79-.1-.48,3-.84Z"/><path class="cls-2" d="M199.66,7s0-.06.1-.08a.66.66,0,0,1,.21,0,2.34,2.34,0,0,0,.91-.15,1.21,1.21,0,0,0,.55-.47l.33-.57a4,4,0,0,1,.36-.57,2,2,0,0,1,.47-.44,1,1,0,0,1,.62-.17,1,1,0,0,1,.67.22,1.77,1.77,0,0,1,.44.54,3.35,3.35,0,0,1,.25.69,3.47,3.47,0,0,1,.08.67,2.62,2.62,0,0,1-.06.54,1.84,1.84,0,0,1-.18.53,1.35,1.35,0,0,1-.35.4.77.77,0,0,1-.5.16,1.92,1.92,0,0,1-.89-.22,4.42,4.42,0,0,1-.77-.49,2.41,2.41,0,0,1-.81.66A2.51,2.51,0,0,1,200,8.4a.66.66,0,0,1-.21,0c-.07,0-.1,0-.1-.07Zm3.5-1.26c-.29-.05-.53.18-.71.67a1.8,1.8,0,0,0,.45.31,1.69,1.69,0,0,0,.49.17.21.21,0,0,0,.28-.19.94.94,0,0,0,0-.28,1,1,0,0,0-.09-.3.85.85,0,0,0-.17-.25A.36.36,0,0,0,203.16,5.69Z"/><rect class="cls-2" x="183.84" y="10.31" width="1.28" height="1.28" transform="translate(61.77 -127.24) rotate(45)"/><rect class="cls-2" x="185.69" y="10.31" width="1.28" height="1.28" transform="translate(62.32 -128.55) rotate(45)"/><rect class="cls-2" x="194.92" y="5.28" width="1.28" height="1.28" transform="translate(61.47 -136.55) rotate(45)"/><rect class="cls-2" x="164.7" y="5.28" width="1.28" height="1.28" transform="translate(52.61 -115.18) rotate(45)"/><rect class="cls-2" x="172.3" y="2.21" width="1.28" height="1.28" transform="translate(52.67 -121.45) rotate(45)"/><rect class="cls-2" x="174.16" y="2.21" width="1.28" height="1.28" transform="translate(53.22 -122.77) rotate(45)"/><path class="cls-2" d="M199.86,8.4a1.26,1.26,0,0,1-.55-.12A.47.47,0,0,1,199,8a5.07,5.07,0,0,1-.26,1.54,3.46,3.46,0,0,1-.74,1.21,3.31,3.31,0,0,1-1.14.8,3.85,3.85,0,0,1-1.52.29,3.46,3.46,0,0,1-1.35-.24,2.53,2.53,0,0,1-.94-.64,2.62,2.62,0,0,1-.54-.93,3.33,3.33,0,0,1-.19-1.14,4.21,4.21,0,0,1,.14-1,3.91,3.91,0,0,1,.41-1l1,.36a3.28,3.28,0,0,0-.27.69,2.66,2.66,0,0,0-.1.68,1.85,1.85,0,0,0,.12.67,1.33,1.33,0,0,0,.35.53,1.51,1.51,0,0,0,.59.36,2.86,2.86,0,0,0,.88.13,2.91,2.91,0,0,0,1-.15,2.07,2.07,0,0,0,.7-.4,1.7,1.7,0,0,0,.43-.6,1.8,1.8,0,0,0,.15-.73,3.17,3.17,0,0,0-.64-1.92l1.16-1.07c.09.19.18.37.28.54a3.18,3.18,0,0,0,.29.45,1.17,1.17,0,0,0,.35.32.94.94,0,0,0,.45.11H200V8.4Z"/><path class="cls-2" d="M204.58,2.48l-3,.79-.1-.48,3-.84Z"/><path class="cls-2" d="M199.66,7s0-.06.1-.08a.66.66,0,0,1,.21,0,2.34,2.34,0,0,0,.91-.15,1.21,1.21,0,0,0,.55-.47l.33-.57a4,4,0,0,1,.36-.57,2,2,0,0,1,.47-.44,1,1,0,0,1,.62-.17,1,1,0,0,1,.67.22,1.77,1.77,0,0,1,.44.54,3.35,3.35,0,0,1,.25.69,3.47,3.47,0,0,1,.08.67,2.62,2.62,0,0,1-.06.54,1.84,1.84,0,0,1-.18.53,1.35,1.35,0,0,1-.35.4.77.77,0,0,1-.5.16,1.92,1.92,0,0,1-.89-.22,4.42,4.42,0,0,1-.77-.49,2.41,2.41,0,0,1-.81.66A2.51,2.51,0,0,1,200,8.4a.66.66,0,0,1-.21,0c-.07,0-.1,0-.1-.07Zm3.5-1.26c-.29-.05-.53.18-.71.67a1.8,1.8,0,0,0,.45.31,1.69,1.69,0,0,0,.49.17.21.21,0,0,0,.28-.19.94.94,0,0,0,0-.28,1,1,0,0,0-.09-.3.85.85,0,0,0-.17-.25A.36.36,0,0,0,203.16,5.69Z"/><rect class="cls-2" x="194.92" y="5.28" width="1.28" height="1.28" transform="translate(61.47 -136.55) rotate(45)"/><path class="cls-3" d="M96.78,40.06a1.55,1.55,0,0,0-.34-.9.92.92,0,0,0-.71-.31,1.22,1.22,0,0,0-.38.07,1,1,0,0,0-.56.5.9.9,0,0,0-.08.4.83.83,0,0,0,.26.63c.18.16.38.33.61.51a6.4,6.4,0,0,1,.52.51,1.57,1.57,0,0,1,.31.48,1.85,1.85,0,0,1,.14.55q0,.31,0,.75H95.42a2.35,2.35,0,0,0-.08-.79,1.71,1.71,0,0,0-.57-.59c-.15-.11-.31-.24-.47-.38a3.64,3.64,0,0,1-.43-.45,2.2,2.2,0,0,1-.32-.53,1.59,1.59,0,0,1-.12-.62,2.13,2.13,0,0,1,.18-.9,1.67,1.67,0,0,1,.49-.65,2.07,2.07,0,0,1,.73-.4,3.05,3.05,0,0,1,.92-.13A2.08,2.08,0,0,1,98,39.9Zm-.13,5.45H95.3V44.1h1.35Z"/><path class="cls-3" d="M105.29,45.51a1.93,1.93,0,0,1-1.15-.27,1.89,1.89,0,0,1,.14.66,2.09,2.09,0,0,1-.08.67,1.28,1.28,0,0,1-.34.54.89.89,0,0,1-.6.23,1.45,1.45,0,0,1-1.11-.39,2.17,2.17,0,0,1-.55-1.18,3.63,3.63,0,0,1,0-.39c0-.15,0-.31,0-.49a1,1,0,0,0-.76.21,1.08,1.08,0,0,0-.2.77v5H99.48l-.19-5.08a2.55,2.55,0,0,1,.16-1A2.38,2.38,0,0,1,100,44a2.34,2.34,0,0,1,.76-.5,2.42,2.42,0,0,1,.94-.18l.22-.71.78.48a7.89,7.89,0,0,0,.81.44,5,5,0,0,0,.84.31,3.79,3.79,0,0,0,.88.11h.18v1.56Zm-2.82-.93a2.29,2.29,0,0,0,.18,1.12.6.6,0,0,0,.53.42c.19,0,.28-.12.28-.37Q103.46,45.09,102.47,44.58Z"/><path class="cls-3" d="M108.28,45.51a1.19,1.19,0,0,1-1.23-.7,1.8,1.8,0,0,1-1.57.7h-.12a.66.66,0,0,1-.21,0c-.07,0-.1,0-.1-.07V44.06s0-.06.1-.08a.66.66,0,0,1,.21,0h.06c.67,0,1-.23,1-.68v-.54l1.1-.35v.34c0,.82.27,1.23.8,1.23h.08v1.56Zm-3.85-4.07-.91-.91.91-.91.91.91Zm1.85,0-.91-.91.91-.91.91.91Z"/><path class="cls-3" d="M116,45.51a1.77,1.77,0,0,1-.76-.16,1.12,1.12,0,0,1-.51-.54,1.66,1.66,0,0,1-.55.51,1.48,1.48,0,0,1-.67.17,1.11,1.11,0,0,1-.59-.16,1.39,1.39,0,0,1-.5-.52,1.58,1.58,0,0,1-1.34.68,1.17,1.17,0,0,1-.6-.16,1.39,1.39,0,0,1-.5-.52,1.36,1.36,0,0,1-1.23.7h-.33a.64.64,0,0,1-.2,0c-.07,0-.1,0-.1-.07V44.06s0-.06.1-.08a.64.64,0,0,1,.2,0h.35c.38,0,.57-.22.57-.67v-.47l1-.34v.3a1.48,1.48,0,0,0,.2.89.78.78,0,0,0,.58.29c.52,0,.79-.22.79-.67v-.47l1-.34v.46a1.33,1.33,0,0,0,.18.79.8.8,0,0,0,.65.23.77.77,0,0,0,.54-.18.63.63,0,0,0,.2-.49v-.47l.94-.34V43c0,.16,0,.3,0,.41a.77.77,0,0,0,.08.28.48.48,0,0,0,.22.17A1.37,1.37,0,0,0,116,44h.16v1.56Z"/><path class="cls-3" d="M115.88,44.06s0-.06.1-.08l.21,0h1.16a1.21,1.21,0,0,1-.25-.68,1.68,1.68,0,0,1,.29-.91,2.86,2.86,0,0,1,.68-.74l-.29-.19.64-1.4,1,.74a12.37,12.37,0,0,1,1.18,1,7.51,7.51,0,0,1,1,1.17,2.29,2.29,0,0,1,.42,1.2,3.35,3.35,0,0,1-.09.81,2,2,0,0,1-.26.62,1,1,0,0,1-.39.36.57.57,0,0,1-.46,0,7.69,7.69,0,0,1-.94-.33q-.51-.21-1-.48a3.33,3.33,0,0,1-.85.26,4.36,4.36,0,0,1-.73.08h-1.08a.76.76,0,0,1-.21,0c-.06,0-.1,0-.1-.07Zm2.49-.47a3.25,3.25,0,0,0,.38.24.89.89,0,0,0,.65-.85.41.41,0,0,0-.07-.23.83.83,0,0,0-.16-.21.8.8,0,0,0-.21-.15.54.54,0,0,0-.19,0,.55.55,0,0,0-.24.07,1.37,1.37,0,0,0-.23.19,1.88,1.88,0,0,0-.18.24.56.56,0,0,0-.06.22.91.91,0,0,0,0,.23A.53.53,0,0,0,118.37,43.59Zm1.95,0a1.54,1.54,0,0,1-.18.47,2.41,2.41,0,0,1-.26.39l.33.15.31.13.3.1c.07,0,.13,0,.19-.17a.81.81,0,0,0-.1-.75,2.88,2.88,0,0,0-.56-.65A.93.93,0,0,1,120.32,43.6Z"/><path class="cls-3" d="M132.85,42.6a2.79,2.79,0,0,0-1.11-.17,1.61,1.61,0,0,0-.51.09,2.45,2.45,0,0,0-.49.23,1.64,1.64,0,0,0-.37.31.5.5,0,0,0-.15.34c0,.12.07.19.2.23a2.23,2.23,0,0,0,.51.09l.66,0a2.87,2.87,0,0,1,.66.14,1.25,1.25,0,0,1,.51.33,1,1,0,0,1,.2.65,2.52,2.52,0,0,1-.4,1.39,3.63,3.63,0,0,1-1,1,5.23,5.23,0,0,1-1.36.61,5.33,5.33,0,0,1-1.45.2,4.78,4.78,0,0,1-1.48-.2,3,3,0,0,1-1-.58,2.38,2.38,0,0,1-.63-.88,3,3,0,0,1-.2-1.1,4.25,4.25,0,0,1,.15-1.08,4.41,4.41,0,0,1,.48-1.13l1.06.36a4.25,4.25,0,0,0-.32.74,2.56,2.56,0,0,0-.11.71,1.66,1.66,0,0,0,.12.64,1.46,1.46,0,0,0,.41.52,2.2,2.2,0,0,0,.72.35,3.93,3.93,0,0,0,1,.13,4.85,4.85,0,0,0,.93-.11,7,7,0,0,0,1-.28,3.88,3.88,0,0,0,.79-.4c.21-.15.32-.29.32-.43s-.05-.14-.16-.17a2.42,2.42,0,0,0-.42-.08l-.63,0c-.24,0-.49,0-.76-.08a1,1,0,0,1-.68-.33,1,1,0,0,1-.22-.7,2.72,2.72,0,0,1,.26-1.15,3.23,3.23,0,0,1,.68-.95,3.62,3.62,0,0,1,1-.65,2.65,2.65,0,0,1,1.09-.24,2.25,2.25,0,0,1,.58.07,2.19,2.19,0,0,1,.55.24Z"/><path class="cls-3" d="M135.64,42.66a5.31,5.31,0,0,1,.56,1,2.83,2.83,0,0,1,.21,1.14,3.08,3.08,0,0,1-.21,1.08,4.82,4.82,0,0,1-.56,1.11,6,6,0,0,1-.88,1,6.8,6.8,0,0,1-1.14.91l-1.13-.9c.29-.17.6-.37.92-.6a7.17,7.17,0,0,0,.9-.73,4.5,4.5,0,0,0,.67-.81,1.65,1.65,0,0,0,.26-.86,1.2,1.2,0,0,0-.21-.61c-.14-.22-.28-.43-.42-.61Z"/><path class="cls-3" d="M138.87,45.28a1.56,1.56,0,0,1-.66-.61,2.28,2.28,0,0,1-.32-.92,8.37,8.37,0,0,1-.1-1.17c0-.19,0-.48,0-.84s0-.77,0-1.2l0-1.32c0-.45,0-.87,0-1.25l1.31-.54v5.31a1.43,1.43,0,0,0,.24.91.94.94,0,0,0,.78.3v1.56A2.41,2.41,0,0,1,138.87,45.28Z"/><path class="cls-3" d="M145.53,45.51a2.11,2.11,0,0,1-.7-.13,1.56,1.56,0,0,1-.58-.37c0,.13-.07.24-.1.34a.9.9,0,0,1-.13.26.72.72,0,0,1-.22.17,1,1,0,0,1-.38.06,1.88,1.88,0,0,1-.5-.07,2.76,2.76,0,0,1-.53-.18,5.21,5.21,0,0,1-.52-.28,2.54,2.54,0,0,1-.42-.31,2,2,0,0,1-.62.37,2.29,2.29,0,0,1-.83.14l-.21,0c-.07,0-.1,0-.1-.07V44.06s0-.06.1-.08l.21,0h.48a1.24,1.24,0,0,0,.38-.09,1.06,1.06,0,0,0,.31-.21,1.43,1.43,0,0,0,.28-.37c.09-.16.18-.3.28-.45a3.05,3.05,0,0,1,.32-.38,1.65,1.65,0,0,1,.38-.27,1.21,1.21,0,0,1,.48-.1.84.84,0,0,1,.65.32,7.24,7.24,0,0,1,.53.73c.12.2.21.36.29.47a.66.66,0,0,0,.25.25.64.64,0,0,0,.32.1h6v1.56Zm-3.26-1.8-.06.13a.34.34,0,0,0-.06.12,2,2,0,0,0,.59.35,1.62,1.62,0,0,0,.52.12c.11,0,.17,0,.18-.11a.6.6,0,0,0,0-.26,2,2,0,0,0-.24-.51.52.52,0,0,0-.43-.26Q142.45,43.29,142.27,43.71Z"/><path class="cls-3" d="M155,45.51a2,2,0,0,1-1-.23,1.6,1.6,0,0,1-.7-.69,3.06,3.06,0,0,1-1.09.69,3.89,3.89,0,0,1-1.34.23h-.2l-.21,0c-.07,0-.1,0-.1-.07V44.06s0-.06.1-.08l.21,0h.21q1.44,0,1.77-.51a1.08,1.08,0,0,0-.4-.33,1.69,1.69,0,0,0-.67-.11,1.7,1.7,0,0,1,.18-.81,1.61,1.61,0,0,1,.46-.57,2,2,0,0,1,.67-.32,3,3,0,0,1,.8-.1,2.39,2.39,0,0,1,.53.06,1.35,1.35,0,0,1,.46.19.92.92,0,0,1,.32.33.94.94,0,0,1,.12.49.9.9,0,0,1-.08.38,2,2,0,0,1-.22.4,2.3,2.3,0,0,1-.32.38,3.9,3.9,0,0,1-.38.33c.09.13.42.19,1,.19h.62v1.56Z"/><path class="cls-3" d="M155.42,44.06s0-.06.1-.08l.21,0a2.42,2.42,0,0,0,.92-.15,1.18,1.18,0,0,0,.54-.47q.17-.27.33-.57a3.29,3.29,0,0,1,.37-.57,1.92,1.92,0,0,1,.46-.44,1.07,1.07,0,0,1,.62-.17,1,1,0,0,1,.67.22,1.77,1.77,0,0,1,.44.54,2.85,2.85,0,0,1,.25.69,2.89,2.89,0,0,1,0,1.21,1.86,1.86,0,0,1-.19.53,1.47,1.47,0,0,1-.34.4.8.8,0,0,1-.51.16,1.92,1.92,0,0,1-.89-.22,4.42,4.42,0,0,1-.77-.49,2.38,2.38,0,0,1-.8.66,2.56,2.56,0,0,1-1.13.23.76.76,0,0,1-.21,0c-.07,0-.1,0-.1-.07Zm3.5-1.26c-.29,0-.52.18-.71.67a1.86,1.86,0,0,0,.46.31,1.74,1.74,0,0,0,.48.17.21.21,0,0,0,.28-.19.9.9,0,0,0,0-.28,1,1,0,0,0-.1-.3,1.07,1.07,0,0,0-.16-.25A.41.41,0,0,0,158.92,42.8Z"/><path class="cls-3" d="M168.12,45.51a1.44,1.44,0,0,1-1.05-.33,1.8,1.8,0,0,1-.46-1,1.5,1.5,0,0,1-.61.33,2.78,2.78,0,0,1-.87.14,2.1,2.1,0,0,1-.51-.06,1.17,1.17,0,0,1-.43-.17.89.89,0,0,1-.31-.3.79.79,0,0,1-.12-.45c0-1,.73-1.85,2.18-2.71l-.13-.58,1-1L167.5,43a1.72,1.72,0,0,0,.31.74,1,1,0,0,0,.73.21v1.56Zm-2-3.45a2.29,2.29,0,0,0-.53.26,2,2,0,0,0-.5.42c-.15.18-.18.31-.12.4a.6.6,0,0,0,.45.13,2.78,2.78,0,0,0,.51,0,1.1,1.1,0,0,0,.42-.14Z"/><path class="cls-3" d="M168.23,44.06s0-.06.1-.08l.21,0h.88c.46,0,.69-.11.69-.32a.35.35,0,0,0,0-.14,1.08,1.08,0,0,0-.11-.21,2.94,2.94,0,0,0-.23-.33c-.09-.13-.22-.3-.38-.5l.87-1.24a2.55,2.55,0,0,1,.65.93,3.23,3.23,0,0,1,.23,1.19,2.35,2.35,0,0,1-.18,1,1.8,1.8,0,0,1-.49.68,2.08,2.08,0,0,1-.75.4,3.06,3.06,0,0,1-.92.14h-.23a.76.76,0,0,1-.21,0c-.07,0-.1,0-.1-.07Z"/><path class="cls-3" d="M175.74,45.51a3.42,3.42,0,0,1-.5,1,5.85,5.85,0,0,1-.78.89,8.86,8.86,0,0,1-1,.8c-.37.25-.73.48-1.11.7L171.22,48c.25-.12.54-.28.87-.47s.66-.39,1-.61a8.34,8.34,0,0,0,.91-.69,2.73,2.73,0,0,0,.6-.72,5.75,5.75,0,0,1-.87-.06,1.77,1.77,0,0,1-.68-.24,1.25,1.25,0,0,1-.43-.48,1.88,1.88,0,0,1-.16-.81,2.54,2.54,0,0,1,.1-.68,2.5,2.5,0,0,1,.28-.7,2,2,0,0,1,.46-.54,1,1,0,0,1,.64-.22,1.33,1.33,0,0,1,.74.21,1.71,1.71,0,0,1,.55.52,2.42,2.42,0,0,1,.35.7,3.43,3.43,0,0,1,.17.74h.48v1.56Zm-1-1.56a1.5,1.5,0,0,0-.1-.3,1.17,1.17,0,0,0-.17-.31,1,1,0,0,0-.24-.23.39.39,0,0,0-.27-.1.48.48,0,0,0-.39.18.55.55,0,0,0-.15.38.37.37,0,0,0,.06.23.29.29,0,0,0,.19.1,1.4,1.4,0,0,0,.4,0Z"/><path class="cls-3" d="M182,45.51a2.41,2.41,0,0,1-.85-.15,3.9,3.9,0,0,1-.76-.39,4.35,4.35,0,0,1-.67-.55,6.19,6.19,0,0,1-.55-.63,1.69,1.69,0,0,1-.87,1.29,4.25,4.25,0,0,1-2.07.43l-.21,0c-.06,0-.1,0-.1-.07V44.06s0-.06.1-.08l.21,0h.55a5.49,5.49,0,0,0,.7-.05,2.36,2.36,0,0,0,.6-.18.43.43,0,0,0,.26-.39,1,1,0,0,0-.23-.53,5,5,0,0,0-.54-.63c-.21-.21-.43-.41-.64-.6l-.51-.48a.92.92,0,0,1-.13-.14.3.3,0,0,1,0-.26,2.35,2.35,0,0,1,0-.35c0-.13.05-.26.08-.37a1.52,1.52,0,0,1,.12-.32.36.36,0,0,1,.16-.18,22.39,22.39,0,0,1,2.38-1c1-.36,2.15-.76,3.52-1.19l-.17,1.52c-1,.22-1.87.46-2.67.71s-1.53.5-2.2.76c-.17.06-.2.14-.07.23.38.29.76.6,1.12.93s.72.65,1.07,1c.19.2.39.39.58.57a4.59,4.59,0,0,0,.6.49,2.82,2.82,0,0,0,.67.34,2.06,2.06,0,0,0,.76.13h.62v1.56Zm.27-8.66-2.44.8c-.64.21-1.18.39-1.59.54l-1,.36a5.09,5.09,0,0,0-.52.22l.17-.73c.44-.21,1.11-.47,2-.8s2-.71,3.42-1.16Z"/><path class="cls-3" d="M182.54,44.06s0-.06.1-.08l.21,0h1.88a3.43,3.43,0,0,0,.58-.09,7.87,7.87,0,0,0,.78-.24l1.26-.48-1.18-.32-.61-.17a.67.67,0,0,0-.49,0,1.27,1.27,0,0,0-.38.32l-.93-.63a3.78,3.78,0,0,1,.82-1.06,1.15,1.15,0,0,1,.94-.23,7.36,7.36,0,0,1,.91.19l.94.25,1,.26c.34.09.71.16,1.1.23l.53,0,.52,0-.42,1.53-.56,0a3.28,3.28,0,0,0-.46,0,2.35,2.35,0,0,0-.43.13,3.92,3.92,0,0,0-.51.25c-.45.26-.83.48-1.13.67a5.82,5.82,0,0,1-.88.47,4,4,0,0,1-.94.28,8,8,0,0,1-1.34.1h-1l-.21,0c-.07,0-.1,0-.1-.07Z"/><rect class="cls-3" x="184.06" y="47.7" width="1.28" height="1.28" transform="translate(88.28 -116.44) rotate(45)"/><rect class="cls-3" x="169.03" y="38.77" width="1.28" height="1.28" transform="translate(77.56 -108.43) rotate(45)"/><rect class="cls-3" x="185.91" y="47.7" width="1.28" height="1.28" transform="translate(88.82 -117.75) rotate(45)"/><rect class="cls-3" x="187.71" y="47.7" width="1.28" height="1.28" transform="translate(89.35 -119.02) rotate(45)"/><path class="cls-3" d="M199.86,45.19a1.26,1.26,0,0,1-.55-.11c-.17-.08-.27-.16-.3-.26a5,5,0,0,1-.26,1.53,3.5,3.5,0,0,1-.74,1.22,3.45,3.45,0,0,1-1.14.8,3.85,3.85,0,0,1-1.52.28,3.47,3.47,0,0,1-1.35-.23,2.48,2.48,0,0,1-1.48-1.58,3.25,3.25,0,0,1-.19-1.14,4.19,4.19,0,0,1,.14-1,3.91,3.91,0,0,1,.41-1l1,.36a3.28,3.28,0,0,0-.27.69,2.66,2.66,0,0,0-.1.68,1.85,1.85,0,0,0,.12.67,1.33,1.33,0,0,0,.35.53,1.64,1.64,0,0,0,.59.36,2.86,2.86,0,0,0,.88.13,2.91,2.91,0,0,0,1-.15,2.07,2.07,0,0,0,.7-.4,1.7,1.7,0,0,0,.43-.6,1.8,1.8,0,0,0,.15-.73,3.17,3.17,0,0,0-.64-1.92l1.16-1.07c.09.18.18.36.28.53a3.31,3.31,0,0,0,.29.46,1.14,1.14,0,0,0,.35.31.84.84,0,0,0,.45.12H200v1.55Z"/><path class="cls-3" d="M204.58,39.28l-3,.79-.1-.48,3-.85Z"/><path class="cls-3" d="M199.66,43.75s0-.07.1-.08a.66.66,0,0,1,.21,0,2.15,2.15,0,0,0,.91-.16,1.13,1.13,0,0,0,.55-.46l.33-.58a5.5,5.5,0,0,1,.36-.57,2.13,2.13,0,0,1,.47-.43,1.12,1.12,0,0,1,1.29.05,1.56,1.56,0,0,1,.44.54,3,3,0,0,1,.25.69,3.46,3.46,0,0,1,.08.66,2.8,2.8,0,0,1-.06.55,1.84,1.84,0,0,1-.18.53,1.35,1.35,0,0,1-.35.4.77.77,0,0,1-.5.16,1.92,1.92,0,0,1-.89-.22,4.42,4.42,0,0,1-.77-.49,2.25,2.25,0,0,1-1.93.88.68.68,0,0,1-.21,0c-.07,0-.1,0-.1-.07Zm3.5-1.26c-.29-.05-.53.17-.71.67a1.8,1.8,0,0,0,.45.31,1.69,1.69,0,0,0,.49.17.21.21,0,0,0,.28-.19.94.94,0,0,0,0-.28,1,1,0,0,0-.09-.3.74.74,0,0,0-.17-.25A.36.36,0,0,0,203.16,42.49Z"/><rect class="cls-3" x="194.92" y="42.08" width="1.28" height="1.28" transform="translate(87.49 -125.77) rotate(45)"/><path class="cls-4" d="M116.54,58.48a1.52,1.52,0,0,0-.35-.91.91.91,0,0,0-.71-.3,1,1,0,0,0-.37.07.89.89,0,0,0-.33.19,1,1,0,0,0-.23.31.87.87,0,0,0-.09.4.8.8,0,0,0,.27.63c.18.16.38.33.61.51a5.08,5.08,0,0,1,.52.51,1.69,1.69,0,0,1,.45,1q0,.31,0,.75h-1.17a2.09,2.09,0,0,0-.08-.79,1.56,1.56,0,0,0-.56-.59c-.15-.12-.31-.24-.47-.38a3,3,0,0,1-.43-.45,2.2,2.2,0,0,1-.32-.53,1.61,1.61,0,0,1-.12-.63,2.21,2.21,0,0,1,.17-.89,1.9,1.9,0,0,1,.49-.66,2.27,2.27,0,0,1,.74-.39,3,3,0,0,1,.92-.14,2.21,2.21,0,0,1,1.53.55,2.25,2.25,0,0,1,.67,1.55Zm-.13,5.44h-1.36v-1.4h1.36Z"/><path class="cls-4" d="M129.08,63.92a1.36,1.36,0,0,1-1.36-.77,2.84,2.84,0,0,1-1.65.86,14.47,14.47,0,0,1-3.18.29,5.77,5.77,0,0,1-2.89-.58,1.84,1.84,0,0,1-1-1.63,3.17,3.17,0,0,1,.13-.83,6.77,6.77,0,0,1,.38-.93l1,.29c-.07.17-.13.33-.19.49a1.81,1.81,0,0,0-.08.51.78.78,0,0,0,.29.64,1.77,1.77,0,0,0,.73.34,5.23,5.23,0,0,0,1,.14l1.18,0,1.12,0a9.12,9.12,0,0,0,1.22-.13,3.42,3.42,0,0,0,1-.32.68.68,0,0,0,.39-.61v-.34l1.1-.35a4.61,4.61,0,0,0,0,.71.77.77,0,0,0,.14.41.49.49,0,0,0,.3.2,1.78,1.78,0,0,0,.51.06h0v1.55Z"/><path class="cls-4" d="M129,62.48s0-.07.1-.09l.21,0h.13a1,1,0,0,0,.61-.2.73.73,0,0,0,.24-.58V61.2l.94-.32v.42a1.46,1.46,0,0,0,.17.78.58.58,0,0,0,.52.29c.63,0,.94-.28.94-.85V61l1-.28v.67a1,1,0,0,0,.27.73.91.91,0,0,0,.69.29.53.53,0,0,0,.43-.15.51.51,0,0,0,.13-.37,1.12,1.12,0,0,0-.13-.53,1.38,1.38,0,0,0-.31-.41l.92-1.05a2.72,2.72,0,0,1,.47.85,3.06,3.06,0,0,1,0,1.76,2.28,2.28,0,0,1-.31.71,1.72,1.72,0,0,1-.53.51,1.33,1.33,0,0,1-.71.2,2.06,2.06,0,0,1-.91-.2,1.23,1.23,0,0,1-.58-.57,1.29,1.29,0,0,1-.51.55,1.37,1.37,0,0,1-.69.2,1.64,1.64,0,0,1-.77-.17,1.29,1.29,0,0,1-.54-.52,1.23,1.23,0,0,1-.64.53,2.21,2.21,0,0,1-.82.16.75.75,0,0,1-.21,0c-.07,0-.1,0-.1-.07Z"/><path class="cls-4" d="M138.92,63.7a1.62,1.62,0,0,1-.66-.61,2.78,2.78,0,0,1-.32-.92,8.37,8.37,0,0,1-.1-1.17c0-.2,0-.48,0-.85s0-.76,0-1.19,0-.87,0-1.32,0-.87,0-1.25l1.31-.54v5.31a1.45,1.45,0,0,0,.25.91.93.93,0,0,0,.77.3v1.55A2.42,2.42,0,0,1,138.92,63.7Z"/><path class="cls-4" d="M143,63.92a1.21,1.21,0,0,1-1.24-.69,1.77,1.77,0,0,1-1.57.69h-.12a.65.65,0,0,1-.2,0c-.07,0-.1,0-.1-.07V62.48s0-.07.1-.09l.2,0h.07c.67,0,1-.23,1-.69v-.53l1.1-.35v.33c0,.83.27,1.24.8,1.24h.08v1.55Zm-2.51-4.65,1.11.75.81-1.07"/><path class="cls-4" d="M147.42,63.92a2.05,2.05,0,0,1-1-.22,1.66,1.66,0,0,1-.7-.69,3,3,0,0,1-1.09.69,3.85,3.85,0,0,1-1.34.22h-.2a.75.75,0,0,1-.21,0c-.06,0-.1,0-.1-.07V62.48s0-.07.1-.09l.21,0h.22q1.42,0,1.77-.51a1.11,1.11,0,0,0-.41-.33,1.53,1.53,0,0,0-.67-.11,1.74,1.74,0,0,1,.18-.82,1.67,1.67,0,0,1,.46-.56,1.89,1.89,0,0,1,.67-.32,3,3,0,0,1,.8-.1,2.33,2.33,0,0,1,.53.06,1.35,1.35,0,0,1,.46.19.85.85,0,0,1,.32.33.91.91,0,0,1,.13.49,1,1,0,0,1-.09.38,1.59,1.59,0,0,1-.22.4,2.8,2.8,0,0,1-.32.38,3.9,3.9,0,0,1-.38.33c.09.13.42.19,1,.19h10.11v1.55Z"/><path class="cls-4" d="M157.37,62.48s0-.07.1-.09l.21,0a2.23,2.23,0,0,0,.92-.16,1.16,1.16,0,0,0,.54-.46c.11-.18.22-.37.33-.58a4.28,4.28,0,0,1,.37-.57,1.71,1.71,0,0,1,.46-.43,1.12,1.12,0,0,1,1.29,0,1.56,1.56,0,0,1,.44.54,3,3,0,0,1,.25.69,3.46,3.46,0,0,1,.08.66,2.8,2.8,0,0,1-.06.55,1.58,1.58,0,0,1-.18.53,1.35,1.35,0,0,1-.35.4.75.75,0,0,1-.5.16,1.92,1.92,0,0,1-.89-.22,4.42,4.42,0,0,1-.77-.49,2.56,2.56,0,0,1-.81.66,2.51,2.51,0,0,1-1.12.22.75.75,0,0,1-.21,0c-.07,0-.1,0-.1-.07Zm3.5-1.27c-.29,0-.52.18-.71.68a2,2,0,0,0,.94.48.22.22,0,0,0,.28-.19,1.38,1.38,0,0,0,0-.28,1,1,0,0,0-.1-.3.74.74,0,0,0-.17-.25A.43.43,0,0,0,160.87,61.21Z"/><path class="cls-4" d="M168.56,63.92a1.45,1.45,0,0,1-1.06-.32,1.88,1.88,0,0,1-.46-1,1.39,1.39,0,0,1-.6.33,2.83,2.83,0,0,1-.87.14,2.1,2.1,0,0,1-.51-.06,1.3,1.3,0,0,1-.44-.17,1,1,0,0,1-.31-.3.88.88,0,0,1-.11-.45c0-1,.72-1.85,2.17-2.71l-.12-.58,1-1,.71,3.57a1.56,1.56,0,0,0,.31.73.93.93,0,0,0,.72.22v1.55Zm-2-3.44a2.12,2.12,0,0,0-.53.26,2.2,2.2,0,0,0-.51.42c-.14.18-.18.31-.11.4a.61.61,0,0,0,.45.12,4.12,4.12,0,0,0,.51,0,1,1,0,0,0,.41-.14Z"/><path class="cls-4" d="M168.66,62.48s0-.07.11-.09l.2,0h4.85l.7,0a2.6,2.6,0,0,0,.59-.08,7,7,0,0,0,.77-.24l1.27-.48L176,61.23c-.28-.07-.48-.13-.62-.18a.68.68,0,0,0-.49.05,1.58,1.58,0,0,0-.38.32l-.92-.63a3.77,3.77,0,0,1,.81-1.06,1.13,1.13,0,0,1,.94-.23,6,6,0,0,1,.92.19l.93.25,1,.26a10.18,10.18,0,0,0,1.1.22l.53,0,.51,0L179.89,62l-.57,0a3.14,3.14,0,0,0-.45,0,2.44,2.44,0,0,0-.44.13,3.86,3.86,0,0,0-.5.25c-.46.26-.83.48-1.13.67a7.63,7.63,0,0,1-.88.47,4.4,4.4,0,0,1-.95.28,8,8,0,0,1-1.33.09H169a.65.65,0,0,1-.2,0c-.07,0-.11,0-.11-.07ZM176.27,68"/><path class="cls-4" d="M186.94,63.92a1.45,1.45,0,0,1-1.06-.32,1.8,1.8,0,0,1-.46-1,1.45,1.45,0,0,1-.6.33,2.83,2.83,0,0,1-.87.14,2.1,2.1,0,0,1-.51-.06,1.3,1.3,0,0,1-.44-.17,1,1,0,0,1-.31-.3.88.88,0,0,1-.11-.45c0-1,.72-1.85,2.17-2.71l-.12-.58,1-1,.71,3.57a1.47,1.47,0,0,0,.31.73.93.93,0,0,0,.72.22v1.55Zm-2-3.44a2.26,2.26,0,0,0-.52.26,2,2,0,0,0-.51.42c-.14.18-.18.31-.11.4s.21.12.45.12a4.12,4.12,0,0,0,.51,0,1,1,0,0,0,.41-.14Z"/><path class="cls-4" d="M187,62.48s0-.07.1-.09l.21,0h.89c.45,0,.68-.11.68-.32a.32.32,0,0,0,0-.14.93.93,0,0,0-.1-.21c-.06-.09-.13-.2-.23-.33l-.39-.5.87-1.24a2.2,2.2,0,0,1,.65.93,3,3,0,0,1,.24,1.19,2.35,2.35,0,0,1-.18,1,1.91,1.91,0,0,1-.5.68,2.12,2.12,0,0,1-.74.4,3.12,3.12,0,0,1-.93.13h-.23a.75.75,0,0,1-.21,0c-.06,0-.1,0-.1-.07Z"/><path class="cls-4" d="M210.29,63.84a.86.86,0,0,1-.26-.18,3.87,3.87,0,0,1-.45,1.08,5.51,5.51,0,0,1-.8,1,8,8,0,0,1-1,.85q-.57.4-1.17.75l-1.14-.88c.28-.14.63-.33,1-.56a11.29,11.29,0,0,0,1.15-.74,6.53,6.53,0,0,0,.94-.83,1.32,1.32,0,0,0,.38-.84.88.88,0,0,0-.08-.33l-.19-.35c-.07-.12-.14-.22-.21-.32l-.18-.24,1-1.12.28.46a3.23,3.23,0,0,0,.27.41,1.28,1.28,0,0,0,.33.29.69.69,0,0,0,.41.12v1.55A.58.58,0,0,1,210.29,63.84Z"/><path class="cls-4" d="M216.91,63.92a1.77,1.77,0,0,1-1.49-.83,3.91,3.91,0,0,1-1.35.64,5.49,5.49,0,0,1-1.38.19h-2.1a.75.75,0,0,1-.21,0c-.07,0-.1,0-.1-.07V62.48s0-.07.1-.09l.21,0h.47l.25-.3a3.58,3.58,0,0,1,.27-.29c0-.27,0-.56.06-.86s0-.59,0-.86c0-.54,0-1.11,0-1.7s-.09-1.24-.16-2l1.39-.54v4.61a7.27,7.27,0,0,1,1-.74,2,2,0,0,1,1-.3,1.61,1.61,0,0,1,1.18.45,1.52,1.52,0,0,1,.46,1.12,2.86,2.86,0,0,1-.08.67,2.61,2.61,0,0,1-.23.57c.08.09.34.14.79.14h.12v1.55Zm-2.39-3a1.67,1.67,0,0,0-1.07.42,12.81,12.81,0,0,0-1.19,1.07h.37l.37,0c.17,0,.36,0,.57,0s.43-.06.65-.1a4.3,4.3,0,0,0,.6-.17,1.4,1.4,0,0,0,.45-.26.44.44,0,0,0,.17-.36.36.36,0,0,0-.1-.27.77.77,0,0,0-.25-.16,1,1,0,0,0-.3-.08Z"/><path class="cls-4" d="M216.81,62.48s0-.07.1-.09l.21,0H218c.45,0,.68-.11.68-.32a.32.32,0,0,0,0-.14,1.78,1.78,0,0,0-.1-.21c-.06-.09-.13-.2-.23-.33l-.39-.5.87-1.24a2.29,2.29,0,0,1,.65.93,3,3,0,0,1,.24,1.19,2.35,2.35,0,0,1-.19,1,1.89,1.89,0,0,1-.49.68,2.08,2.08,0,0,1-.75.4,3,3,0,0,1-.92.13h-.23a.75.75,0,0,1-.21,0c-.06,0-.1,0-.1-.07Z"/><path class="cls-4" d="M222.18,61.08a4.78,4.78,0,0,1,.56,1,2.78,2.78,0,0,1,.21,1.13,2.6,2.6,0,0,1-.32,1.24,4.8,4.8,0,0,1-.82,1.12,8.19,8.19,0,0,1-1.12,1,14.82,14.82,0,0,1-1.26.81l-1.14-.9c.3-.14.65-.33,1-.56a11.37,11.37,0,0,0,1.14-.77,6.49,6.49,0,0,0,.93-.85,1.32,1.32,0,0,0,.38-.83,1.17,1.17,0,0,0-.21-.6c-.14-.22-.28-.43-.42-.62Z"/><path class="cls-4" d="M225.66,63.75l-1.37.36V56.39l1.37-.54Z"/><path class="cls-4" d="M236.32,61a3,3,0,0,0-1.11-.16,1.61,1.61,0,0,0-.51.09,2,2,0,0,0-.49.23,1.42,1.42,0,0,0-.37.31.5.5,0,0,0-.15.34.24.24,0,0,0,.2.23,2.27,2.27,0,0,0,.51.08l.66,0a2.86,2.86,0,0,1,.66.13,1.39,1.39,0,0,1,.51.34,1,1,0,0,1,.2.64,2.45,2.45,0,0,1-.4,1.4,3.47,3.47,0,0,1-1,1,4.64,4.64,0,0,1-1.36.61,5.35,5.35,0,0,1-1.45.21,4.76,4.76,0,0,1-1.48-.21,2.94,2.94,0,0,1-1.05-.57,2.25,2.25,0,0,1-.62-.88,2.87,2.87,0,0,1-.21-1.1,4.25,4.25,0,0,1,.15-1.08,4.8,4.8,0,0,1,.48-1.13l1.06.36a3.94,3.94,0,0,0-.32.74,2.5,2.5,0,0,0-.11.71,1.53,1.53,0,0,0,.13.64,1.27,1.27,0,0,0,.41.52,2.24,2.24,0,0,0,.71.35,4,4,0,0,0,1,.12,4.77,4.77,0,0,0,.93-.1,6.63,6.63,0,0,0,1-.29,3.42,3.42,0,0,0,.79-.39c.21-.15.32-.29.32-.44s0-.13-.15-.16a2,2,0,0,0-.43-.08l-.63-.05a7.16,7.16,0,0,1-.76-.07,1,1,0,0,1-.68-.33,1.07,1.07,0,0,1-.22-.7,2.69,2.69,0,0,1,.26-1.15,3.27,3.27,0,0,1,.69-.95,3.41,3.41,0,0,1,.95-.65,2.65,2.65,0,0,1,1.09-.24,2.25,2.25,0,0,1,.58.07,2,2,0,0,1,.55.24Z"/><path class="cls-4" d="M238.73,61.08a5.31,5.31,0,0,1,.56,1,3,3,0,0,1,.2,1.13,3.12,3.12,0,0,1-.2,1.09,5.26,5.26,0,0,1-.56,1.11,6,6,0,0,1-.88,1,6.88,6.88,0,0,1-1.15.91l-1.12-.9c.29-.17.6-.37.92-.6a8.18,8.18,0,0,0,.9-.73,4.5,4.5,0,0,0,.67-.81,1.66,1.66,0,0,0,.26-.87,1.17,1.17,0,0,0-.21-.6c-.14-.22-.28-.43-.42-.62Z"/><path class="cls-4" d="M241.52,63.7a1.53,1.53,0,0,1-.65-.61,2.58,2.58,0,0,1-.33-.92,10.22,10.22,0,0,1-.1-1.17c0-.2,0-.48,0-.85s0-.76,0-1.19,0-.87,0-1.32,0-.87,0-1.25l1.32-.54v5.31a1.45,1.45,0,0,0,.24.91.94.94,0,0,0,.78.3v1.55A2.43,2.43,0,0,1,241.52,63.7Z"/><path class="cls-4" d="M248.18,63.92a2.19,2.19,0,0,1-.7-.12,1.52,1.52,0,0,1-.57-.37c0,.12-.07.24-.1.34a.72.72,0,0,1-.14.26.54.54,0,0,1-.22.17.92.92,0,0,1-.37.06,1.82,1.82,0,0,1-.5-.07A2.9,2.9,0,0,1,245,64a4.11,4.11,0,0,1-.51-.27,2.53,2.53,0,0,1-.43-.32,1.75,1.75,0,0,1-.61.38,2.3,2.3,0,0,1-.83.13.71.71,0,0,1-.21,0c-.07,0-.1,0-.1-.07V62.48s0-.07.1-.09l.21,0,.47,0a.92.92,0,0,0,.38-.08,1,1,0,0,0,.32-.21,1.49,1.49,0,0,0,.27-.38c.09-.15.19-.3.29-.44a2,2,0,0,1,.32-.38,1.46,1.46,0,0,1,.38-.27,1.06,1.06,0,0,1,.48-.1.85.85,0,0,1,.65.32,7.24,7.24,0,0,1,.53.73A4.61,4.61,0,0,0,247,62a.72.72,0,0,0,.24.25.67.67,0,0,0,.33.09l.52,0h.12v1.55Zm-3.26-1.79-.06.12-.06.13a2.22,2.22,0,0,0,.6.34,1.44,1.44,0,0,0,.52.13c.1,0,.16,0,.18-.11a.78.78,0,0,0,0-.26,2,2,0,0,0-.24-.51.52.52,0,0,0-.43-.26C245.21,61.71,245.05,61.85,244.92,62.13Z"/><path class="cls-4" d="M252.55,63.92a2,2,0,0,1-1-.22,1.66,1.66,0,0,1-.7-.69,3.11,3.11,0,0,1-1.09.69,3.88,3.88,0,0,1-1.34.22h-.2a.75.75,0,0,1-.21,0c-.07,0-.1,0-.1-.07V62.48s0-.07.1-.09l.21,0h.21q1.44,0,1.77-.51a1.08,1.08,0,0,0-.4-.33,1.53,1.53,0,0,0-.67-.11,1.74,1.74,0,0,1,.18-.82,1.67,1.67,0,0,1,.46-.56,1.81,1.81,0,0,1,.67-.32,3,3,0,0,1,.8-.1,2.39,2.39,0,0,1,.53.06,1.35,1.35,0,0,1,.46.19,1,1,0,0,1,.36,1.2,2,2,0,0,1-.22.4,2.8,2.8,0,0,1-.32.38,3.9,3.9,0,0,1-.38.33c.09.13.42.19,1,.19h.62v1.55Z"/><path class="cls-4" d="M253,62.48s0-.07.1-.09l.21,0a2.23,2.23,0,0,0,.92-.16,1.11,1.11,0,0,0,.54-.46c.11-.18.22-.37.33-.58a4.28,4.28,0,0,1,.37-.57,1.87,1.87,0,0,1,.46-.43,1.08,1.08,0,0,1,.62-.18,1,1,0,0,1,.67.23,1.56,1.56,0,0,1,.44.54,2.58,2.58,0,0,1,.25.69,3.46,3.46,0,0,1,.08.66,3.74,3.74,0,0,1-.05.55,1.86,1.86,0,0,1-.19.53,1.32,1.32,0,0,1-.34.4.8.8,0,0,1-.51.16,1.92,1.92,0,0,1-.89-.22,4.42,4.42,0,0,1-.77-.49,2.64,2.64,0,0,1-.8.66,2.56,2.56,0,0,1-1.13.22.75.75,0,0,1-.21,0c-.07,0-.1,0-.1-.07Zm3.5-1.27c-.29,0-.52.18-.71.68a1.86,1.86,0,0,0,.46.31,1.74,1.74,0,0,0,.48.17.22.22,0,0,0,.28-.19.9.9,0,0,0,0-.28,1,1,0,0,0-.1-.3.89.89,0,0,0-.16-.25A.49.49,0,0,0,256.51,61.21Z"/><rect class="cls-4" x="173.8" y="65.07" width="1.28" height="1.28" transform="translate(97.56 -104.1) rotate(45)"/><rect class="cls-4" x="175.65" y="65.07" width="1.28" height="1.28" transform="translate(98.1 -105.41) rotate(45)"/><rect class="cls-4" x="177.45" y="65.07" width="1.28" height="1.28" transform="translate(98.63 -106.68) rotate(45)"/><rect class="cls-4" x="187.12" y="65.07" width="1.28" height="1.28" transform="translate(101.46 -113.52) rotate(45)"/><rect class="cls-4" x="122.65" y="58.11" width="1.28" height="1.28" transform="translate(77.66 -69.98) rotate(45)"/><rect class="cls-4" x="124.45" y="58.11" width="1.28" height="1.28" transform="translate(78.18 -71.24) rotate(45)"/><rect class="cls-4" x="140.17" y="58.11" width="1.28" height="1.28" transform="translate(82.79 -82.36) rotate(45)"/><rect class="cls-4" x="221.4" y="58.11" width="1.28" height="1.28" transform="translate(106.58 -139.8) rotate(45)"/><rect class="cls-4" x="216.62" y="58.11" width="1.28" height="1.28" transform="translate(105.18 -136.42) rotate(45)"/><rect class="cls-4" x="213.97" y="56.25" width="1.28" height="1.28" transform="translate(103.09 -135.09) rotate(45)"/><path class="cls-4" d="M200,62.68a1.26,1.26,0,0,1-.55-.11c-.17-.08-.27-.16-.29-.26a4.72,4.72,0,0,1-.27,1.53,3.64,3.64,0,0,1-.73,1.22,3.49,3.49,0,0,1-1.15.8,3.85,3.85,0,0,1-1.52.28,3.42,3.42,0,0,1-1.34-.23,2.57,2.57,0,0,1-.94-.64,2.54,2.54,0,0,1-.55-.94,3.49,3.49,0,0,1-.18-1.14,4.12,4.12,0,0,1,.13-1,3.8,3.8,0,0,1,.42-1l1,.37a3.28,3.28,0,0,0-.27.69,2.63,2.63,0,0,0-.09.67,1.87,1.87,0,0,0,.11.68,1.44,1.44,0,0,0,.35.53,1.68,1.68,0,0,0,.6.36,2.77,2.77,0,0,0,.87.12,2.91,2.91,0,0,0,1-.14,2,2,0,0,0,.7-.41,1.66,1.66,0,0,0,.43-.59,1.8,1.8,0,0,0,.15-.73,3.1,3.1,0,0,0-.64-1.92l1.16-1.07c.09.18.18.36.28.53a4,4,0,0,0,.29.46,1.26,1.26,0,0,0,.35.31.84.84,0,0,0,.45.12h.38v1.55Z"/><path class="cls-4" d="M204.71,56.77l-3,.79-.09-.48,3-.85Z"/><path class="cls-4" d="M199.79,61.23s0-.06.1-.08l.21,0A2.23,2.23,0,0,0,201,61a1.16,1.16,0,0,0,.54-.46c.11-.18.22-.37.33-.58a4.28,4.28,0,0,1,.37-.57,1.87,1.87,0,0,1,.46-.43,1.05,1.05,0,0,1,.62-.18A1.1,1.1,0,0,1,204,59a1.7,1.7,0,0,1,.44.55,3,3,0,0,1,.25.69,3.37,3.37,0,0,1,.08.66,2.8,2.8,0,0,1-.06.55,1.66,1.66,0,0,1-.18.53,1.35,1.35,0,0,1-.35.4.75.75,0,0,1-.5.16,1.92,1.92,0,0,1-.89-.22,4.42,4.42,0,0,1-.77-.49,2.56,2.56,0,0,1-.81.66,2.51,2.51,0,0,1-1.12.22l-.21,0c-.07,0-.1,0-.1-.07Zm3.5-1.26c-.29,0-.52.18-.71.67A1.83,1.83,0,0,0,203,61a2.21,2.21,0,0,0,.49.17.22.22,0,0,0,.28-.19,1.38,1.38,0,0,0,0-.28,1,1,0,0,0-.1-.3.74.74,0,0,0-.17-.25A.43.43,0,0,0,203.29,60Z"/><rect class="cls-4" x="195.06" y="59.56" width="1.28" height="1.28" transform="translate(99.89 -120.74) rotate(45)"/><path class="cls-5" d="M31.51,77.27a1.49,1.49,0,0,0-.35-.9.92.92,0,0,0-.71-.31,1.21,1.21,0,0,0-.37.07.91.91,0,0,0-.33.2.86.86,0,0,0-.23.3.93.93,0,0,0-.09.4.8.8,0,0,0,.27.63l.6.51a6.72,6.72,0,0,1,.53.51,2.07,2.07,0,0,1,.31.48,2.21,2.21,0,0,1,.14.55q0,.32,0,.75H30.14a2.11,2.11,0,0,0-.08-.79,1.56,1.56,0,0,0-.56-.59c-.15-.11-.31-.24-.47-.38a3.73,3.73,0,0,1-.44-.45,2.17,2.17,0,0,1-.31-.53,1.59,1.59,0,0,1-.12-.62,2.29,2.29,0,0,1,.17-.9,1.78,1.78,0,0,1,.49-.65,2.12,2.12,0,0,1,.74-.4,3,3,0,0,1,.92-.13,2.16,2.16,0,0,1,1.53.55,2.21,2.21,0,0,1,.67,1.54Zm-.13,5.45H30V81.31h1.36Z"/><path class="cls-5" d="M40,82.72a2,2,0,0,1-1.16-.27,1.73,1.73,0,0,1,.15.66,1.84,1.84,0,0,1-.09.67,1.26,1.26,0,0,1-.33.54.85.85,0,0,1-.6.23,1.49,1.49,0,0,1-1.11-.38A2.24,2.24,0,0,1,36.33,83c0-.12,0-.25,0-.4s0-.31,0-.49a1,1,0,0,0-.76.21,1.08,1.08,0,0,0-.21.77v5H34.21L34,83a2.38,2.38,0,0,1,.16-1,2.23,2.23,0,0,1,1.26-1.27,2.42,2.42,0,0,1,.94-.18l.22-.71.77.48c.27.16.54.31.81.44a5.42,5.42,0,0,0,.85.31,3.72,3.72,0,0,0,.88.11h.17v1.56Zm-2.82-.93a2.42,2.42,0,0,0,.17,1.12q.21.42.54.42c.19,0,.28-.12.28-.37Q38.19,82.3,37.2,81.79Z"/><path class="cls-5" d="M43,82.72a1.21,1.21,0,0,1-1.24-.7,1.78,1.78,0,0,1-1.57.7h-.12a.76.76,0,0,1-.21,0c-.06,0-.1,0-.1-.07V81.27s0-.06.1-.08a.76.76,0,0,1,.21,0h.07c.67,0,1-.23,1-.68v-.54l1.1-.35v.34c0,.82.26,1.23.8,1.23h.08v1.56Z"/><path class="cls-5" d="M50.72,82.72a1.61,1.61,0,0,1-.76-.16,1.19,1.19,0,0,1-.52-.54,1.57,1.57,0,0,1-.55.51,1.31,1.31,0,0,1-.67.17,1.16,1.16,0,0,1-.59-.16,1.38,1.38,0,0,1-.49-.52,1.56,1.56,0,0,1-1.34.68,1.17,1.17,0,0,1-.6-.16,1.32,1.32,0,0,1-.5-.52,1.37,1.37,0,0,1-1.24.7h-.32a.76.76,0,0,1-.21,0c-.06,0-.1,0-.1-.07V81.27s0-.06.1-.08a.76.76,0,0,1,.21,0h.35c.37,0,.56-.22.56-.67V80l1-.33V80a1.47,1.47,0,0,0,.21.89.73.73,0,0,0,.57.29c.53,0,.79-.22.79-.67V80l1-.33v.45a1.33,1.33,0,0,0,.18.79.78.78,0,0,0,.65.23A.77.77,0,0,0,48.9,81a.63.63,0,0,0,.2-.49V80l.93-.33v.56c0,.16,0,.3,0,.41a.61.61,0,0,0,.08.28.37.37,0,0,0,.21.17,1.5,1.5,0,0,0,.42,0h.16v1.56Z"/><path class="cls-5" d="M50.61,81.27s0-.06.1-.08a.76.76,0,0,1,.21,0h1.15a1.2,1.2,0,0,1-.24-.68,1.68,1.68,0,0,1,.29-.91,2.69,2.69,0,0,1,.68-.74l-.3-.19.65-1.4,1,.74a11.19,11.19,0,0,1,1.18,1,7.45,7.45,0,0,1,1,1.16,2.29,2.29,0,0,1,.42,1.2,3.35,3.35,0,0,1-.09.81,2.1,2.1,0,0,1-.26.62,1.09,1.09,0,0,1-.39.36.59.59,0,0,1-.47,0,8.24,8.24,0,0,1-.93-.33q-.51-.21-1-.48a3.33,3.33,0,0,1-.85.26,4.47,4.47,0,0,1-.74.08H50.92a.76.76,0,0,1-.21,0c-.07,0-.1,0-.1-.07Zm2.48-.47.39.24a.87.87,0,0,0,.5-.38.86.86,0,0,0,.15-.46.55.55,0,0,0-.07-.24,1.66,1.66,0,0,0-.16-.21.7.7,0,0,0-.21-.14.45.45,0,0,0-.2-.06.46.46,0,0,0-.24.08.92.92,0,0,0-.22.18,1.25,1.25,0,0,0-.18.24.59.59,0,0,0-.07.23,2.19,2.19,0,0,0,0,.22A.61.61,0,0,0,53.09,80.8Zm2,0a1.54,1.54,0,0,1-.18.47,2.65,2.65,0,0,1-.26.39l.33.15.31.13.3.1c.07,0,.13,0,.18-.16a.85.85,0,0,0-.09-.76,2.88,2.88,0,0,0-.56-.65A.91.91,0,0,1,55.05,80.81Z"/><path class="cls-5" d="M62.48,79.87a5.4,5.4,0,0,1,.56,1A2.83,2.83,0,0,1,63.25,82a2.63,2.63,0,0,1-.32,1.24,5,5,0,0,1-.82,1.12,8.13,8.13,0,0,1-1.12,1,14.82,14.82,0,0,1-1.26.81l-1.14-.9c.3-.14.65-.33,1-.56a9.9,9.9,0,0,0,1.14-.77A6,6,0,0,0,61.7,83a1.3,1.3,0,0,0,.38-.82,1.2,1.2,0,0,0-.21-.61c-.14-.22-.28-.43-.42-.61Z"/><path class="cls-5" d="M65.71,82.5a1.77,1.77,0,0,1-.66-.61,2.76,2.76,0,0,1-.32-.93,8.37,8.37,0,0,1-.1-1.17c0-.19,0-.48,0-.84s0-.77,0-1.2,0-.87,0-1.32,0-.87,0-1.25l1.31-.54V80a1.43,1.43,0,0,0,.24.91,1,1,0,0,0,.78.3v1.56A2.55,2.55,0,0,1,65.71,82.5Z"/><path class="cls-5" d="M66.53,81.27s0-.06.1-.08a.76.76,0,0,1,.21,0h.4c1.5,0,2.24-.18,2.24-.55a.84.84,0,0,0-.22-.47,5.13,5.13,0,0,0-.57-.58c-.22-.2-.46-.4-.71-.59l-.7-.52a2,2,0,0,1-.25-.19.46.46,0,0,1-.13-.16.45.45,0,0,1,0-.2,1.9,1.9,0,0,1,0-.31c0-.08,0-.18,0-.3a2.74,2.74,0,0,1,.08-.37,1.7,1.7,0,0,1,.12-.34.48.48,0,0,1,.18-.21,21.59,21.59,0,0,1,2.24-1c.93-.34,2-.7,3.35-1.09l-.17,1.57c-.79.17-1.56.36-2.32.56a19.86,19.86,0,0,0-2.22.73c-.16.06-.18.13-.08.21L69,78a5.92,5.92,0,0,1,.8.69,3.12,3.12,0,0,1,.59.81,2.25,2.25,0,0,1,.22,1,1.93,1.93,0,0,1-.32,1.15,2.07,2.07,0,0,1-.83.66,3.79,3.79,0,0,1-1.1.3,9.27,9.27,0,0,1-1.15.08h-.36a.76.76,0,0,1-.21,0c-.06,0-.1,0-.1-.07Z"/><path class="cls-5" d="M71.44,85.21c.29-.14.63-.32,1-.55a13.3,13.3,0,0,0,1.12-.72,5.81,5.81,0,0,0,.93-.81,1.44,1.44,0,0,0,.42-.82,1.36,1.36,0,0,1-.42.16,2.12,2.12,0,0,1-.49.06,1.43,1.43,0,0,1-1.12-.38,1.4,1.4,0,0,1-.33-1,2.87,2.87,0,0,1,.1-.75,2.66,2.66,0,0,1,.3-.71,1.85,1.85,0,0,1,.5-.54,1.18,1.18,0,0,1,.7-.21,1.3,1.3,0,0,1,.88.3,2.38,2.38,0,0,1,.56.76,3.87,3.87,0,0,1,.29.95,6,6,0,0,1,.08.87,3.26,3.26,0,0,1-.28,1.35A4.06,4.06,0,0,1,75,84.32a7.59,7.59,0,0,1-1.08.94c-.41.29-.84.57-1.3.84Zm3.37-4.08a1.48,1.48,0,0,0-.27-.61.56.56,0,0,0-.47-.26.54.54,0,0,0-.39.18.6.6,0,0,0-.17.43.33.33,0,0,0,.2.32,1,1,0,0,0,.44.09,1.5,1.5,0,0,0,.37,0A1.79,1.79,0,0,0,74.81,81.13Z"/><path class="cls-5" d="M84.38,82.72a.94.94,0,0,1,.05.47,1.74,1.74,0,0,1-.14.48,2.79,2.79,0,0,1-.89,1,4.18,4.18,0,0,1-1.32.61,4.73,4.73,0,0,1-1.5.15,3.75,3.75,0,0,1-1.4-.35,2.56,2.56,0,0,1-1-.87,2.44,2.44,0,0,1-.41-1.45,3.58,3.58,0,0,1,.18-1.14,5.24,5.24,0,0,1,.44-1l1,.36c-.11.24-.21.49-.31.77a2.34,2.34,0,0,0-.15.79,1.58,1.58,0,0,0,.2.82,1.41,1.41,0,0,0,.54.49,2,2,0,0,0,.76.2,3.46,3.46,0,0,0,.85,0,3.93,3.93,0,0,0,.84-.18,4,4,0,0,0,.72-.29c.17-.09.26-.16.26-.22s0-.1-.1-.13l-1.46-.49a1.23,1.23,0,0,1,.08-.26c0-.11.09-.21.13-.33s.09-.22.13-.32a1.86,1.86,0,0,1,.14-.25,1.05,1.05,0,0,1,.31-.32,1,1,0,0,1,.45-.08h1.68v1.56Z"/><path class="cls-5" d="M84.14,81.27s0-.06.1-.08a.76.76,0,0,1,.21,0h.4c1.49,0,2.24-.18,2.24-.55a.8.8,0,0,0-.23-.47,5,5,0,0,0-.56-.58,8.73,8.73,0,0,0-.72-.59l-.69-.52a1.46,1.46,0,0,1-.25-.19.5.5,0,0,1-.14-.16.65.65,0,0,1,0-.2,2.11,2.11,0,0,1,0-.31c0-.08,0-.18,0-.3s0-.24.07-.37a2.69,2.69,0,0,1,.12-.34.44.44,0,0,1,.19-.21,21.59,21.59,0,0,1,2.24-1c.93-.34,2-.7,3.35-1.09l-.18,1.57c-.78.17-1.55.36-2.31.56a18.6,18.6,0,0,0-2.22.73c-.16.06-.19.13-.08.21l.89.65a5.92,5.92,0,0,1,.8.69,2.87,2.87,0,0,1,.58.81,2.12,2.12,0,0,1,.22,1,1.87,1.87,0,0,1-.32,1.15,2,2,0,0,1-.82.66,3.88,3.88,0,0,1-1.1.3,9.27,9.27,0,0,1-1.15.08h-.36a.76.76,0,0,1-.21,0c-.07,0-.1,0-.1-.07Zm6.36-7.51c-1,.31-1.79.58-2.44.8s-1.17.4-1.59.55-.72.26-1,.35l-.52.23.17-.74c.44-.2,1.11-.47,2-.79s2-.71,3.43-1.15Z"/><path class="cls-5" d="M95.34,82.72a2.17,2.17,0,0,1-1.09-.29,2,2,0,0,1-.79-.79,2.09,2.09,0,0,1-2.16,1.25,2.35,2.35,0,0,1-1.89-.71L89.89,81a2.13,2.13,0,0,0,.69.31,3.67,3.67,0,0,0,.94.12,4.91,4.91,0,0,0,.55,0,2,2,0,0,0,.47-.13,1.05,1.05,0,0,0,.34-.22.49.49,0,0,0,.13-.33.89.89,0,0,0,0-.11s0-.16-.11-.34-.15-.45-.28-.82-.31-.88-.53-1.53l1.07-1c.28.89.5,1.61.66,2.17a11.75,11.75,0,0,0,.46,1.29,1.59,1.59,0,0,0,.44.63,1,1,0,0,0,.63.17h.28v1.56Z"/><path class="cls-5" d="M95.3,81.27s0-.06.1-.08a.76.76,0,0,1,.21,0h.88c.46,0,.69-.11.69-.32a.35.35,0,0,0,0-.14,1.08,1.08,0,0,0-.11-.21c-.05-.09-.13-.2-.22-.33l-.39-.5.87-1.23a2.32,2.32,0,0,1,.65.92,3.07,3.07,0,0,1,.23,1.19,2.35,2.35,0,0,1-.18,1,1.8,1.8,0,0,1-.49.68,2.08,2.08,0,0,1-.75.4,3,3,0,0,1-.92.14h-.23a.76.76,0,0,1-.21,0c-.07,0-.1,0-.1-.07Z"/><path class="cls-5" d="M100.69,79.87a6.09,6.09,0,0,1,.56,1,2.83,2.83,0,0,1,.21,1.14,2.63,2.63,0,0,1-.32,1.24,5,5,0,0,1-.82,1.12,8.13,8.13,0,0,1-1.12,1,14.82,14.82,0,0,1-1.26.81l-1.14-.9c.3-.14.64-.33,1-.56A9.9,9.9,0,0,0,99,83.88a6.44,6.44,0,0,0,.93-.85,1.3,1.3,0,0,0,.38-.82,1.2,1.2,0,0,0-.21-.61c-.14-.22-.28-.43-.42-.61Z"/><path class="cls-5" d="M104.92,79.87a6.09,6.09,0,0,1,.56,1,3,3,0,0,1,.2,1.14,2.62,2.62,0,0,1-.31,1.24,5,5,0,0,1-.82,1.12,8.23,8.23,0,0,1-1.13,1,13.26,13.26,0,0,1-1.25.81l-1.14-.9c.29-.14.64-.33,1-.56a9.9,9.9,0,0,0,1.14-.77,5.86,5.86,0,0,0,.92-.85,1.26,1.26,0,0,0,.39-.82,1.2,1.2,0,0,0-.21-.61c-.14-.22-.28-.43-.42-.61Z"/><path class="cls-5" d="M111.58,80.6a2.38,2.38,0,0,1-.2,1,1.77,1.77,0,0,1-.55.71,2.23,2.23,0,0,1-.81.42,3.44,3.44,0,0,1-1,.13,3.35,3.35,0,0,1-1.29-.22,2.22,2.22,0,0,1-.87-.65l.64-1.16a2,2,0,0,0,1.31.47l.54,0a2.61,2.61,0,0,0,.57-.08,1,1,0,0,0,.45-.21.5.5,0,0,0,.19-.42,1,1,0,0,0-.24-.55,4,4,0,0,0-.58-.59c-.22-.19-.45-.36-.67-.52s-.41-.27-.55-.34l.61-1.47C110.78,78.13,111.58,79.28,111.58,80.6Z"/><path class="cls-5" d="M120.14,82.72a.94.94,0,0,1,0,.47,1.74,1.74,0,0,1-.14.48,2.62,2.62,0,0,1-.89,1,4.18,4.18,0,0,1-1.32.61,4.67,4.67,0,0,1-1.5.15,3.75,3.75,0,0,1-1.4-.35,2.63,2.63,0,0,1-1-.87,2.44,2.44,0,0,1-.4-1.45,3.88,3.88,0,0,1,.17-1.14,6.79,6.79,0,0,1,.44-1l1,.36c-.1.24-.21.49-.3.77a2.34,2.34,0,0,0-.15.79,1.58,1.58,0,0,0,.2.82,1.28,1.28,0,0,0,.54.49,2,2,0,0,0,.75.2,3.54,3.54,0,0,0,.86,0,4,4,0,0,0,.83-.18,3.48,3.48,0,0,0,.72-.29c.17-.09.26-.16.27-.22s0-.1-.11-.13l-1.46-.49c0-.07,0-.16.09-.26s.08-.21.12-.33.09-.22.14-.32a1.91,1.91,0,0,1,.13-.25.74.74,0,0,1,.77-.4h1.67v1.56Z"/><path class="cls-5" d="M119.9,81.27s0-.06.1-.08a.64.64,0,0,1,.2,0h.89c.46,0,.68-.11.68-.32a.68.68,0,0,0,0-.14,2.28,2.28,0,0,0-.11-.21,2.94,2.94,0,0,0-.23-.33l-.39-.5.87-1.23a2.23,2.23,0,0,1,.65.92,3.08,3.08,0,0,1,.24,1.19,2.35,2.35,0,0,1-.18,1,1.83,1.83,0,0,1-.5.68,2.12,2.12,0,0,1-.74.4,3.12,3.12,0,0,1-.93.14h-.23a.64.64,0,0,1-.2,0c-.07,0-.1,0-.1-.07Z"/><path class="cls-5" d="M125.24,82.5a1.77,1.77,0,0,1-.66-.61,2.76,2.76,0,0,1-.32-.93,8.37,8.37,0,0,1-.1-1.17c0-.19,0-.48,0-.84s0-.77,0-1.2,0-.87,0-1.32,0-.87,0-1.25l1.31-.54V80a1.37,1.37,0,0,0,.25.91.93.93,0,0,0,.77.3v1.56A2.55,2.55,0,0,1,125.24,82.5Z"/><path class="cls-5" d="M134,82.72a1.64,1.64,0,0,1-.76-.16,1.12,1.12,0,0,1-.51-.54,1.66,1.66,0,0,1-.55.51,1.36,1.36,0,0,1-.67.17,1.11,1.11,0,0,1-.59-.16,1.32,1.32,0,0,1-.5-.52,1.56,1.56,0,0,1-1.34.68,1.17,1.17,0,0,1-.6-.16,1.32,1.32,0,0,1-.5-.52,1.36,1.36,0,0,1-1.23.7h-.33a.64.64,0,0,1-.2,0c-.07,0-.11,0-.11-.07V81.27s0-.06.11-.08a.64.64,0,0,1,.2,0h.35c.38,0,.57-.22.57-.67V80l1-.33V80a1.48,1.48,0,0,0,.2.89.75.75,0,0,0,.58.29c.52,0,.79-.22.79-.67V80l.95-.33v.45a1.33,1.33,0,0,0,.18.79.8.8,0,0,0,.65.23.77.77,0,0,0,.54-.18.63.63,0,0,0,.2-.49V80l.94-.33v.56c0,.16,0,.3,0,.41a.77.77,0,0,0,.08.28.43.43,0,0,0,.22.17,1.37,1.37,0,0,0,.41,0h.16v1.56Z"/><path class="cls-5" d="M133.84,81.27s0-.06.1-.08a.76.76,0,0,1,.21,0H135c.45,0,.68-.11.68-.32a.35.35,0,0,0,0-.14.93.93,0,0,0-.1-.21c-.06-.09-.13-.2-.23-.33l-.39-.5.87-1.23a2.23,2.23,0,0,1,.65.92,3.08,3.08,0,0,1,.24,1.19,2.35,2.35,0,0,1-.18,1,1.83,1.83,0,0,1-.5.68,2.12,2.12,0,0,1-.74.4,3.12,3.12,0,0,1-.93.14h-.23a.76.76,0,0,1-.21,0c-.06,0-.1,0-.1-.07Z"/><path class="cls-5" d="M139.44,82.54l-1.37.36V75.18l1.37-.54Z"/><path class="cls-5" d="M147.15,82.72a1.48,1.48,0,0,1-1.05-.32,1.88,1.88,0,0,1-.47-1,1.3,1.3,0,0,1-.6.33,2.83,2.83,0,0,1-.87.14,2.76,2.76,0,0,1-.51-.05,1.57,1.57,0,0,1-.44-.18,1,1,0,0,1-.31-.3.88.88,0,0,1-.11-.45c0-1,.72-1.85,2.17-2.71l-.12-.58,1-1,.71,3.57a1.61,1.61,0,0,0,.31.74,1,1,0,0,0,.72.21v1.56Zm-2-3.45a2.12,2.12,0,0,0-.53.26,2.2,2.2,0,0,0-.51.42c-.14.18-.18.31-.11.4a.6.6,0,0,0,.45.13,2.78,2.78,0,0,0,.51,0,1.1,1.1,0,0,0,.42-.14Z"/><path class="cls-5" d="M147.26,81.27s0-.06.1-.08a.64.64,0,0,1,.2,0h.89c.46,0,.68-.11.68-.32a.68.68,0,0,0,0-.14,2.28,2.28,0,0,0-.11-.21,2.94,2.94,0,0,0-.23-.33l-.39-.5.87-1.23a2.23,2.23,0,0,1,.65.92,3.08,3.08,0,0,1,.24,1.19,2.35,2.35,0,0,1-.18,1,1.83,1.83,0,0,1-.5.68,2.12,2.12,0,0,1-.74.4,3.12,3.12,0,0,1-.93.14h-.23a.64.64,0,0,1-.2,0c-.07,0-.1,0-.1-.07Z"/><path class="cls-5" d="M154.77,82.72a3.55,3.55,0,0,1-.5,1,5.85,5.85,0,0,1-.78.89,8.15,8.15,0,0,1-1,.8c-.36.25-.73.48-1.1.7l-1.14-.89c.25-.12.54-.28.87-.47s.66-.39,1-.61a9.43,9.43,0,0,0,.91-.69,2.5,2.5,0,0,0,.59-.72,5.71,5.71,0,0,1-.86-.06,1.71,1.71,0,0,1-.68-.24,1.2,1.2,0,0,1-.44-.48,1.86,1.86,0,0,1-.15-.81,3,3,0,0,1,.09-.68,2.87,2.87,0,0,1,.29-.7,2,2,0,0,1,.46-.54A1,1,0,0,1,153,79a1.36,1.36,0,0,1,.74.21,2,2,0,0,1,.55.52,2.7,2.7,0,0,1,.35.7,4.14,4.14,0,0,1,.17.74h.48v1.56Zm-1-1.56a1.42,1.42,0,0,0-.09-.3,1.17,1.17,0,0,0-.17-.31,1.29,1.29,0,0,0-.24-.23.41.41,0,0,0-.27-.1.48.48,0,0,0-.39.18.56.56,0,0,0-.15.39.45.45,0,0,0,.05.22.32.32,0,0,0,.2.1,1.4,1.4,0,0,0,.4,0Z"/><path class="cls-5" d="M161,82.72a2.41,2.41,0,0,1-.85-.15,3.64,3.64,0,0,1-.76-.39,3.92,3.92,0,0,1-.67-.55,5.28,5.28,0,0,1-.55-.63,1.69,1.69,0,0,1-.87,1.29,4.28,4.28,0,0,1-2.07.43.76.76,0,0,1-.21,0c-.07,0-.1,0-.1-.07V81.27s0-.06.1-.08a.76.76,0,0,1,.21,0h.54a5.65,5.65,0,0,0,.71,0,2.36,2.36,0,0,0,.6-.18.43.43,0,0,0,.26-.39,1,1,0,0,0-.23-.53,5.16,5.16,0,0,0-.55-.63q-.32-.31-.63-.6a6.49,6.49,0,0,1-.51-.48.92.92,0,0,1-.13-.14.33.33,0,0,1-.05-.26c0-.11,0-.22.05-.35a3.41,3.41,0,0,1,.08-.37,2.39,2.39,0,0,1,.11-.32.37.37,0,0,1,.17-.18,21.53,21.53,0,0,1,2.38-1c1-.36,2.15-.76,3.52-1.19L161.39,76c-1,.22-1.86.46-2.66.71s-1.54.5-2.21.76c-.17.07-.19.14-.06.23.38.3.75.6,1.12.93s.71.65,1.06,1,.39.39.59.57a3.9,3.9,0,0,0,.6.49,3,3,0,0,0,.66.34,2.15,2.15,0,0,0,.77.13h.62v1.56Zm.27-8.65-2.44.79-1.6.54-.95.36-.53.22.18-.73c.44-.21,1.1-.47,2-.8s2-.71,3.43-1.16Z"/><path class="cls-5" d="M161.57,81.27s0-.06.1-.08a.66.66,0,0,1,.21,0h1.87a3.39,3.39,0,0,0,.59-.09,7,7,0,0,0,.77-.24l1.27-.48L165.2,80l-.62-.17a.65.65,0,0,0-.48,0,1.45,1.45,0,0,0-.39.32l-.92-.63a3.54,3.54,0,0,1,.82-1,1.1,1.1,0,0,1,.93-.24c.31,0,.61.11.92.19l.94.25,1,.27c.34.08.7.15,1.1.22l.53,0,.51,0-.41,1.53c-.22,0-.4,0-.57,0a2.15,2.15,0,0,0-.45,0,2.64,2.64,0,0,0-.44.12,4.63,4.63,0,0,0-.5.25c-.46.26-.83.48-1.13.67a6.34,6.34,0,0,1-.88.47,3.9,3.9,0,0,1-1,.28,6.93,6.93,0,0,1-1.33.1h-1a.66.66,0,0,1-.21,0c-.07,0-.1,0-.1-.07Z"/><path class="cls-5" d="M178.23,82.56a1.61,1.61,0,0,1-.64-.43,1.77,1.77,0,0,1-.37-.66,3.74,3.74,0,0,1-.18-.86,3.63,3.63,0,0,1-1.21,1.63,3.74,3.74,0,0,1-1.93.72l-1-1.07c.27,0,.57-.12.91-.21a6.24,6.24,0,0,0,1-.32,3.32,3.32,0,0,0,.77-.45.74.74,0,0,0,.32-.57,1.69,1.69,0,0,0-.26-.79,4.58,4.58,0,0,0-.68-.93,7.23,7.23,0,0,0-1-.88,5.47,5.47,0,0,0-1.2-.67l.28-1.7c.47.31.88.62,1.25.92a7.85,7.85,0,0,1,1,.93,6.49,6.49,0,0,1,.74,1.06,7,7,0,0,1,.54,1.24,3.52,3.52,0,0,0,.26-.72,4.94,4.94,0,0,0,.16-.82c0-.45,0-.93,0-1.43s0-1,0-1.37l1.33-.54V80a1.43,1.43,0,0,0,.24.91.92.92,0,0,0,.76.3v1.56A2.47,2.47,0,0,1,178.23,82.56Z"/><path class="cls-5" d="M178.89,81.27s0-.06.1-.08a.64.64,0,0,1,.2,0h.35c.38,0,.57-.22.57-.67V80l1-.29V80a3.39,3.39,0,0,0,0,.6,1.16,1.16,0,0,0,.12.36.35.35,0,0,0,.21.17.72.72,0,0,0,.31,0h.08l.87-1a10.78,10.78,0,0,1,.95-1,5.4,5.4,0,0,1,1-.73,2.08,2.08,0,0,1,1-.29,1.76,1.76,0,0,1,.66.12,1.42,1.42,0,0,1,.52.34,1.52,1.52,0,0,1,.35.49,1.59,1.59,0,0,1,.12.62,2.3,2.3,0,0,1-.39,1.36,3.12,3.12,0,0,1-1,.91,3.92,3.92,0,0,1-1.25.51,5.15,5.15,0,0,1-1.24.16h-1.69a1.7,1.7,0,0,1-.69-.16.93.93,0,0,1-.47-.54,1.4,1.4,0,0,1-1.24.7h-.25a.64.64,0,0,1-.2,0c-.07,0-.1,0-.1-.07Zm6.47-1.6a1.71,1.71,0,0,0-1.06.42,13,13,0,0,0-1.2,1.07h.76l.57-.05a5.13,5.13,0,0,0,.65-.1,3.26,3.26,0,0,0,.6-.17,1.39,1.39,0,0,0,.45-.25.46.46,0,0,0,.17-.37.33.33,0,0,0-.1-.26.63.63,0,0,0-.25-.16,1.49,1.49,0,0,0-.3-.09Z"/><path class="cls-5" d="M189.55,82.54l-1.37.36V75.18l1.37-.54Z"/><rect class="cls-5" x="161.91" y="84.63" width="1.28" height="1.28" transform="translate(107.91 -89.97) rotate(45)"/><rect class="cls-5" x="163.77" y="84.63" width="1.28" height="1.28" transform="translate(108.45 -91.28) rotate(45)"/><rect class="cls-5" x="165.56" y="84.63" width="1.28" height="1.28" transform="translate(108.98 -92.55) rotate(45)"/><rect class="cls-5" x="146.92" y="76.91" width="1.28" height="1.28" transform="translate(98.06 -81.63) rotate(45)"/><rect class="cls-5" x="133.68" y="76.91" width="1.28" height="1.28" transform="translate(94.18 -72.27) rotate(45)"/><rect class="cls-5" x="119.25" y="76.91" width="1.28" height="1.28" transform="translate(89.95 -62.07) rotate(45)"/><rect class="cls-5" x="99.56" y="76.91" width="1.28" height="1.28" transform="translate(84.18 -48.14) rotate(45)"/><rect class="cls-5" x="95.33" y="76.91" width="1.28" height="1.28" transform="translate(82.95 -45.15) rotate(45)"/><rect class="cls-5" x="38.46" y="76.91" width="1.28" height="1.28" transform="translate(66.29 -4.93) rotate(45)"/><rect class="cls-5" x="40.04" y="76.91" width="1.28" height="1.28" transform="translate(66.75 -6.05) rotate(45)"/><path class="cls-5" d="M200,83a1.26,1.26,0,0,1-.55-.11c-.17-.08-.27-.16-.29-.26a4.72,4.72,0,0,1-.27,1.53,3.64,3.64,0,0,1-.73,1.22,3.49,3.49,0,0,1-1.15.8,3.85,3.85,0,0,1-1.52.28,3.42,3.42,0,0,1-1.34-.23,2.57,2.57,0,0,1-.94-.64,2.54,2.54,0,0,1-.55-.94,3.49,3.49,0,0,1-.18-1.14,4.12,4.12,0,0,1,.13-1,3.8,3.8,0,0,1,.42-1l1,.37a3.28,3.28,0,0,0-.27.69,2.63,2.63,0,0,0-.09.67,1.87,1.87,0,0,0,.11.68,1.44,1.44,0,0,0,.35.53,1.68,1.68,0,0,0,.6.36,2.77,2.77,0,0,0,.87.12,2.91,2.91,0,0,0,1-.14,2,2,0,0,0,.7-.41,1.66,1.66,0,0,0,.43-.59,1.8,1.8,0,0,0,.15-.73,3.1,3.1,0,0,0-.64-1.92L198.35,80c.09.18.18.36.28.53a4,4,0,0,0,.29.46,1.26,1.26,0,0,0,.35.31.84.84,0,0,0,.45.12h.38V83Z"/><path class="cls-5" d="M204.71,77.06l-3,.79-.09-.48,3-.85Z"/><path class="cls-5" d="M199.79,81.53s0-.07.1-.09l.21,0a2.23,2.23,0,0,0,.92-.16,1.16,1.16,0,0,0,.54-.46c.11-.18.22-.37.33-.58a4.28,4.28,0,0,1,.37-.57,1.87,1.87,0,0,1,.46-.43,1.12,1.12,0,0,1,1.29,0,1.56,1.56,0,0,1,.44.54,3,3,0,0,1,.25.69,3.46,3.46,0,0,1,.08.66,2.8,2.8,0,0,1-.06.55,1.66,1.66,0,0,1-.18.53,1.35,1.35,0,0,1-.35.4.75.75,0,0,1-.5.16,1.92,1.92,0,0,1-.89-.22,4.42,4.42,0,0,1-.77-.49,2.56,2.56,0,0,1-.81.66,2.51,2.51,0,0,1-1.12.22l-.21,0c-.07,0-.1,0-.1-.07Zm3.5-1.27c-.29,0-.52.18-.71.67a1.6,1.6,0,0,0,.45.32,1.79,1.79,0,0,0,.49.17.22.22,0,0,0,.28-.19,1.38,1.38,0,0,0,0-.28,1,1,0,0,0-.1-.3.74.74,0,0,0-.17-.25A.43.43,0,0,0,203.29,80.26Z"/><rect class="cls-5" x="195.06" y="79.85" width="1.28" height="1.28" transform="translate(114.24 -114.8) rotate(45)"/><path class="cls-6" d="M3.35,110.87A1.49,1.49,0,0,0,3,110a.91.91,0,0,0-.71-.3,1,1,0,0,0-.37.07.89.89,0,0,0-.33.19,1.19,1.19,0,0,0-.23.31.87.87,0,0,0-.09.4.8.8,0,0,0,.27.63c.18.16.38.33.61.51a5.08,5.08,0,0,1,.52.51,1.91,1.91,0,0,1,.31.47,1.92,1.92,0,0,1,.14.56q0,.3,0,.75H2a2.27,2.27,0,0,0-.09-.79,1.56,1.56,0,0,0-.56-.59l-.47-.38a3.64,3.64,0,0,1-.43-.45,2.2,2.2,0,0,1-.32-.53,1.64,1.64,0,0,1-.12-.63,2.29,2.29,0,0,1,.17-.9,1.86,1.86,0,0,1,.49-.65,2.27,2.27,0,0,1,.74-.39,3,3,0,0,1,.92-.14,2.21,2.21,0,0,1,1.53.55,2.19,2.19,0,0,1,.67,1.55Zm-.13,5.44H1.86V114.9H3.22Z"/><path class="cls-6" d="M11.66,116.31a2.15,2.15,0,0,1-1.88-1.07,2.1,2.1,0,0,1-2.16,1.25,2.32,2.32,0,0,1-1.89-.71l.48-1.24a1.73,1.73,0,0,0,.68.31,3.73,3.73,0,0,0,.94.12,3.31,3.31,0,0,0,.55,0,2.09,2.09,0,0,0,.48-.13.8.8,0,0,0,.33-.22.42.42,0,0,0,.13-.32.26.26,0,0,0,0-.11c0-.05-.05-.17-.11-.35s-.15-.45-.28-.81-.3-.88-.53-1.53l1.08-1c.27.9.49,1.62.66,2.17a11.31,11.31,0,0,0,.46,1.3,1.41,1.41,0,0,0,.44.63,1,1,0,0,0,.62.17h.28v1.55Z"/><path class="cls-6" d="M14.85,116.31a1.21,1.21,0,0,1-1.24-.69,1.77,1.77,0,0,1-1.57.69h-.12l-.2,0c-.07,0-.1,0-.1-.07v-1.36s0-.06.1-.08l.2,0H12c.67,0,1-.23,1-.69v-.53l1.1-.35v.33c0,.83.26,1.24.8,1.24H15v1.55Zm-.59-5-.81,1.07-1.11-.75.82-1.09Z"/><path class="cls-6" d="M14.67,114.86s0-.06.1-.08l.21,0h.4c1.5,0,2.24-.19,2.24-.55a.81.81,0,0,0-.22-.47,6.14,6.14,0,0,0-.57-.59c-.22-.2-.46-.39-.71-.59l-.7-.51-.25-.19a.41.41,0,0,1-.13-.17.42.42,0,0,1,0-.2,1.73,1.73,0,0,1,0-.3c0-.08,0-.18,0-.3a2.45,2.45,0,0,1,.08-.37,1.5,1.5,0,0,1,.12-.34.39.39,0,0,1,.18-.21,18,18,0,0,1,2.24-1c.93-.34,2.05-.71,3.35-1.09l-.17,1.57c-.79.17-1.56.35-2.32.55a22.15,22.15,0,0,0-2.22.73c-.16.07-.18.14-.08.22l.89.64a7.79,7.79,0,0,1,.8.69,3.49,3.49,0,0,1,.59.81,2.33,2.33,0,0,1,.22,1,1.9,1.9,0,0,1-.32,1.14,2.09,2.09,0,0,1-.83.67,3.79,3.79,0,0,1-1.1.3,9.21,9.21,0,0,1-1.15.07H15l-.21,0c-.06,0-.1,0-.1-.07Z"/><path class="cls-6" d="M26.72,116.31a.94.94,0,0,1,0,.47,1.46,1.46,0,0,1-.14.48,2.49,2.49,0,0,1-.89,1,4.18,4.18,0,0,1-1.32.61,4.64,4.64,0,0,1-1.49.15,3.75,3.75,0,0,1-1.41-.35,2.63,2.63,0,0,1-1-.87,2.42,2.42,0,0,1-.4-1.44,4,4,0,0,1,.17-1.15,5.84,5.84,0,0,1,.45-1l1,.36c-.1.23-.21.49-.3.76a2.34,2.34,0,0,0-.15.79,1.53,1.53,0,0,0,.2.82,1.22,1.22,0,0,0,.54.49,2.18,2.18,0,0,0,.75.21,4.12,4.12,0,0,0,.86,0,5.84,5.84,0,0,0,.83-.18,5.11,5.11,0,0,0,.72-.29c.17-.09.26-.17.27-.22s0-.1-.11-.13l-1.46-.5c0-.07.05-.16.09-.26s.08-.21.13-.32a3.05,3.05,0,0,1,.13-.32,1.14,1.14,0,0,1,.13-.25,1,1,0,0,1,.31-.32.92.92,0,0,1,.46-.08h1.67v1.55Z"/><path class="cls-6" d="M26.48,114.86s0-.06.1-.08l.2,0a2.17,2.17,0,0,0,.92-.16,1.13,1.13,0,0,0,.55-.46l.33-.58a5.5,5.5,0,0,1,.36-.57,1.91,1.91,0,0,1,.47-.43,1.13,1.13,0,0,1,1.28,0,1.73,1.73,0,0,1,.45.55,2.56,2.56,0,0,1,.24.69,2.5,2.5,0,0,1,0,1.21,1.55,1.55,0,0,1-.19.52,1.25,1.25,0,0,1-.34.41.83.83,0,0,1-.5.16,2,2,0,0,1-.89-.22,4.42,4.42,0,0,1-.77-.49,2.61,2.61,0,0,1-.81.65,2.4,2.4,0,0,1-1.13.23l-.2,0c-.07,0-.1,0-.1-.07ZM30,113.6c-.29,0-.53.18-.71.67a1.83,1.83,0,0,0,.45.32,2.14,2.14,0,0,0,.48.17c.17,0,.26,0,.29-.19a.92.92,0,0,0,0-.28,1.32,1.32,0,0,0-.09-.3.92.92,0,0,0-.17-.25A.46.46,0,0,0,30,113.6Z"/><path class="cls-6" d="M46.3,116.31a2.41,2.41,0,0,1-.88-.16,4,4,0,0,1-.79-.41,4.23,4.23,0,0,1-.68-.59,6.73,6.73,0,0,1-.55-.67,1.56,1.56,0,0,1-.29.87,2.2,2.2,0,0,1-.65.6,4.08,4.08,0,0,1-.9.39,7.43,7.43,0,0,1-1,.22,9.09,9.09,0,0,1-1,.09c-.32,0-.6,0-.84,0-2.6,0-3.89-.76-3.89-2.28a4,4,0,0,1,.49-1.69l1,.3a2.61,2.61,0,0,0-.3.91.81.81,0,0,0,.18.55,1.44,1.44,0,0,0,.44.36,2.57,2.57,0,0,0,.61.21,5.46,5.46,0,0,0,.68.08c.23,0,.44,0,.64,0h1l.73-.05a7.69,7.69,0,0,0,.78-.11,5.52,5.52,0,0,0,.71-.2,1.54,1.54,0,0,0,.51-.28.58.58,0,0,0,.22-.42.74.74,0,0,0-.16-.43,3.12,3.12,0,0,0-.39-.47l-.52-.49c-.18-.16-.35-.32-.5-.48a2.76,2.76,0,0,1-.31-.36.57.57,0,0,1-.08-.41,2.21,2.21,0,0,1,0-.33,2.84,2.84,0,0,1,.08-.34,2.09,2.09,0,0,1,.11-.3c0-.09.09-.15.15-.17a21.41,21.41,0,0,1,2.4-1q1.47-.54,3.51-1.17l-.17,1.49c-.84.2-1.67.42-2.48.66s-1.6.52-2.39.84a.22.22,0,0,0-.13.09s0,.08.08.14c.34.26.68.55,1,.87s.73.67,1.13,1.06l.59.55a5.17,5.17,0,0,0,.6.49,3,3,0,0,0,.66.35,2.1,2.1,0,0,0,.76.14h.62v1.55Z"/><path class="cls-6" d="M52.74,116.31a2.1,2.1,0,0,1-.7-.12,1.65,1.65,0,0,1-.58-.37c0,.12-.07.24-.1.34a.71.71,0,0,1-.13.26.62.62,0,0,1-.22.17,1,1,0,0,1-.38.06,1.76,1.76,0,0,1-.49-.07,2.9,2.9,0,0,1-.54-.19,5.12,5.12,0,0,1-.52-.27,2.89,2.89,0,0,1-.42-.32,2,2,0,0,1-.62.38,2.3,2.3,0,0,1-.83.13l-.21,0c-.06,0-.1,0-.1-.07v-1.36s0-.06.1-.08l.21,0,.48,0a1.17,1.17,0,0,0,.38-.08,1.11,1.11,0,0,0,.32-.21,1.78,1.78,0,0,0,.27-.38c.09-.15.18-.3.28-.44a3.05,3.05,0,0,1,.32-.38,1.7,1.7,0,0,1,.39-.27,1,1,0,0,1,.47-.1.84.84,0,0,1,.65.32,6,6,0,0,1,.53.73c.12.2.21.36.29.47a.85.85,0,0,0,.25.25.8.8,0,0,0,.32.09l.52,0h.12v1.55Zm-3.26-1.79-.06.12-.06.13a2.32,2.32,0,0,0,.59.34,1.49,1.49,0,0,0,.52.13c.11,0,.17,0,.18-.11a.51.51,0,0,0,0-.27,1.47,1.47,0,0,0-.24-.51.51.51,0,0,0-.43-.25Q49.66,114.1,49.48,114.52Z"/><path class="cls-6" d="M52.5,114.86s0-.06.1-.08l.2,0h.41c1.49,0,2.24-.19,2.24-.55a.84.84,0,0,0-.23-.47,6,6,0,0,0-.56-.59c-.23-.2-.47-.39-.72-.59l-.69-.51a2.55,2.55,0,0,1-.26-.19.41.41,0,0,1-.13-.17.42.42,0,0,1,0-.2c0-.08,0-.18,0-.3s0-.18,0-.3,0-.25.08-.37a1.5,1.5,0,0,1,.12-.34.39.39,0,0,1,.18-.21,18,18,0,0,1,2.24-1c.93-.34,2-.71,3.35-1.09l-.17,1.57c-.79.17-1.56.35-2.31.55a20.59,20.59,0,0,0-2.22.73c-.17.07-.19.14-.08.22l.88.64a7.93,7.93,0,0,1,.81.69,3.45,3.45,0,0,1,.58.81,2.19,2.19,0,0,1,.22,1,1.9,1.9,0,0,1-.32,1.14,2.09,2.09,0,0,1-.83.67,3.79,3.79,0,0,1-1.1.3,9.05,9.05,0,0,1-1.14.07H52.8l-.2,0c-.07,0-.1,0-.1-.07Z"/><path class="cls-6" d="M62.11,116.09a1.56,1.56,0,0,1-.66-.61,2.39,2.39,0,0,1-.32-.92,7.09,7.09,0,0,1-.1-1.17c0-.2,0-.48,0-.85s0-.76,0-1.19l0-1.32c0-.45,0-.87,0-1.26l1.31-.53v5.31a1.42,1.42,0,0,0,.24.9.92.92,0,0,0,.78.31v1.55A2.39,2.39,0,0,1,62.11,116.09Z"/><path class="cls-6" d="M62.93,114.86s0-.06.1-.08l.21,0h1.15a1.23,1.23,0,0,1-.24-.69,1.68,1.68,0,0,1,.29-.9,2.89,2.89,0,0,1,.68-.75l-.3-.18.65-1.4,1,.74a12.16,12.16,0,0,1,1.18,1,7.6,7.6,0,0,1,1,1.17,2.24,2.24,0,0,1,.42,1.2,3.47,3.47,0,0,1-.09.81,2,2,0,0,1-.27.62,1.17,1.17,0,0,1-.38.36.59.59,0,0,1-.47,0,7.4,7.4,0,0,1-.93-.32c-.34-.14-.69-.3-1-.48a3.55,3.55,0,0,1-.84.26,4.34,4.34,0,0,1-.74.07H63.24l-.21,0c-.07,0-.1,0-.1-.07Zm2.48-.47a3,3,0,0,0,.39.25.92.92,0,0,0,.5-.38.88.88,0,0,0,.14-.47.46.46,0,0,0-.06-.23,1.16,1.16,0,0,0-.16-.21,1.37,1.37,0,0,0-.21-.15.58.58,0,0,0-.2,0,.44.44,0,0,0-.24.07,1.28,1.28,0,0,0-.23.19,1,1,0,0,0-.17.24.61.61,0,0,0-.07.22,1.51,1.51,0,0,0,0,.22A.54.54,0,0,0,65.41,114.39Zm2,0a2,2,0,0,1-.18.47,4.4,4.4,0,0,1-.26.39,2.52,2.52,0,0,0,.33.14l.31.14.3.09c.07,0,.13,0,.18-.16a.85.85,0,0,0-.09-.76,3.39,3.39,0,0,0-.56-.65A1,1,0,0,1,67.37,114.41Z"/><path class="cls-6" d="M73.42,118.9a3.47,3.47,0,0,1-1.35-.23,2.51,2.51,0,0,1-.94-.63,2.68,2.68,0,0,1-.55-.94A3.49,3.49,0,0,1,70.4,116a4.19,4.19,0,0,1,.14-1,3.29,3.29,0,0,1,.41-1l1,.34a5.1,5.1,0,0,0-.26.7,2.27,2.27,0,0,0-.1.67,1.81,1.81,0,0,0,.12.67,1.38,1.38,0,0,0,.34.54,1.61,1.61,0,0,0,.6.35,2.49,2.49,0,0,0,.87.13,3,3,0,0,0,1-.15,2.06,2.06,0,0,0,.7-.39,1.53,1.53,0,0,0,.42-.59,1.86,1.86,0,0,0,.14-.75,3.08,3.08,0,0,0-.57-1.69l1.12-.92a5.15,5.15,0,0,1,.6,1.26,4.23,4.23,0,0,1,.19,1.26,3.7,3.7,0,0,1-.25,1.37,3.38,3.38,0,0,1-.73,1.13,3.49,3.49,0,0,1-1.16.76A3.9,3.9,0,0,1,73.42,118.9Zm.87-6.71-.8,1.08-1.12-.75.82-1.09Z"/><path class="cls-6" d="M79.56,116.09a1.56,1.56,0,0,1-.66-.61,2.39,2.39,0,0,1-.32-.92,7.09,7.09,0,0,1-.1-1.17c0-.2,0-.48,0-.85s0-.76,0-1.19,0-.87,0-1.32,0-.87,0-1.26l1.32-.53v5.31a1.42,1.42,0,0,0,.24.9.92.92,0,0,0,.78.31v1.55A2.39,2.39,0,0,1,79.56,116.09Z"/><path class="cls-6" d="M88.27,116.31a1.75,1.75,0,0,1-.76-.15,1.24,1.24,0,0,1-.52-.54,1.46,1.46,0,0,1-.55.5,1.35,1.35,0,0,1-.67.18,1.16,1.16,0,0,1-.59-.16,1.37,1.37,0,0,1-.49-.52,1.6,1.6,0,0,1-1.35.68,1.16,1.16,0,0,1-.59-.16,1.41,1.41,0,0,1-.51-.52,1.33,1.33,0,0,1-1.23.69h-.32l-.21,0c-.07,0-.1,0-.1-.07v-1.36s0-.06.1-.08l.21,0H81c.37,0,.56-.23.56-.67v-.47l1-.34v.3a1.52,1.52,0,0,0,.2.88.77.77,0,0,0,.58.3c.53,0,.79-.23.79-.67v-.47l.95-.34v.46a1.22,1.22,0,0,0,.19.78.76.76,0,0,0,.65.24.77.77,0,0,0,.54-.18.66.66,0,0,0,.19-.49v-.47l.94-.34v.56c0,.17,0,.3,0,.41a.52.52,0,0,0,.08.29.35.35,0,0,0,.21.16,1.17,1.17,0,0,0,.42.06h.16v1.55Z"/><path class="cls-6" d="M88.16,114.86s0-.06.1-.08l.21,0h.88q.69,0,.69-.33a.39.39,0,0,0,0-.14,1.52,1.52,0,0,0-.11-.2,2.94,2.94,0,0,0-.23-.33l-.38-.51.87-1.23a2.39,2.39,0,0,1,.65.93,3.23,3.23,0,0,1,.23,1.19,2.35,2.35,0,0,1-.18,1,1.89,1.89,0,0,1-.49.68,2.08,2.08,0,0,1-.75.4,3.05,3.05,0,0,1-.92.13h-.23l-.21,0c-.07,0-.1,0-.1-.07Zm2.44-4.5-.8,1.07-1.12-.75.82-1.09Z"/><path class="cls-6" d="M93.75,116.14l-1.37.36v-7.73l1.37-.53Z"/><path class="cls-6" d="M7.34,102.77a1.07,1.07,0,0,1,0,.47,1.74,1.74,0,0,1-.14.48,2.64,2.64,0,0,1-.89,1,4.14,4.14,0,0,1-1.33.61,4.64,4.64,0,0,1-1.49.15,3.7,3.7,0,0,1-1.4-.35,2.66,2.66,0,0,1-1-.87,2.5,2.5,0,0,1-.4-1.44,3.64,3.64,0,0,1,.18-1.15,5.15,5.15,0,0,1,.44-1l1,.36c-.11.23-.21.49-.31.76a2.34,2.34,0,0,0-.15.79,1.56,1.56,0,0,0,.2.82,1.34,1.34,0,0,0,.54.49,2.24,2.24,0,0,0,.76.21,4,4,0,0,0,.85,0,4.86,4.86,0,0,0,.84-.19,4.92,4.92,0,0,0,.72-.28c.17-.09.25-.17.26-.22s0-.11-.1-.13l-1.47-.5c0-.07,0-.16.09-.26s.08-.21.13-.32.09-.22.13-.32a1.11,1.11,0,0,1,.14-.25.86.86,0,0,1,.31-.32.88.88,0,0,1,.45-.08H7.41v1.55Z"/><path class="cls-6" d="M7.1,101.32s0-.06.1-.08a.75.75,0,0,1,.21,0H8.6a3.1,3.1,0,0,1-.21-.58,2.36,2.36,0,0,1-.07-.58,1.79,1.79,0,0,1,.16-.76,2,2,0,0,1,.43-.61,2,2,0,0,1,.62-.4,1.85,1.85,0,0,1,.74-.15,2.18,2.18,0,0,1,.93.21,2.33,2.33,0,0,1,.77.59l-.4.83a3.25,3.25,0,0,0-.64-.24,2.61,2.61,0,0,0-.66-.09,1.59,1.59,0,0,0-.72.15.51.51,0,0,0-.29.49.6.6,0,0,0,.15.39,1.66,1.66,0,0,0,.38.31,2.46,2.46,0,0,0,.47.2,1.47,1.47,0,0,0,.43.07,4.57,4.57,0,0,0,.82-.08l1.18-.22-.16,1.35c-1,.23-1.9.4-2.66.51a13.94,13.94,0,0,1-1.94.16H7.41a.76.76,0,0,1-.21,0c-.07,0-.1,0-.1-.06Z"/><path class="cls-6" d="M15.15,102.55a1.6,1.6,0,0,1-.65-.61,2.56,2.56,0,0,1-.33-.93,9.84,9.84,0,0,1-.1-1.16c0-.2,0-.48,0-.85s0-.76,0-1.19,0-.87,0-1.32,0-.87,0-1.26l1.32-.53V100a1.42,1.42,0,0,0,.24.9.94.94,0,0,0,.78.31v1.55A2.46,2.46,0,0,1,15.15,102.55Z"/><path class="cls-6" d="M21.81,102.77a1.87,1.87,0,0,1-.69-.13,1.29,1.29,0,0,1-.58-.37l-.1.35a.72.72,0,0,1-.14.26.54.54,0,0,1-.22.17.92.92,0,0,1-.37.06,2.4,2.4,0,0,1-.5-.07,3.86,3.86,0,0,1-.54-.19,5,5,0,0,1-.51-.27,2.55,2.55,0,0,1-.42-.32,2.07,2.07,0,0,1-.62.38,2.3,2.3,0,0,1-.83.13.76.76,0,0,1-.21,0c-.07,0-.1,0-.1-.06v-1.36s0-.06.1-.08a.75.75,0,0,1,.21,0l.47,0a1.24,1.24,0,0,0,.39-.09.87.87,0,0,0,.31-.2,1.78,1.78,0,0,0,.28-.38,4.08,4.08,0,0,1,.28-.44,2.38,2.38,0,0,1,.32-.38,1.39,1.39,0,0,1,.38-.27,1.06,1.06,0,0,1,.48-.1.82.82,0,0,1,.65.32,7.07,7.07,0,0,1,.53.72,4,4,0,0,0,.29.48.82.82,0,0,0,.24.25.8.8,0,0,0,.33.09l.52,0h.12v1.55ZM18.55,101a.31.31,0,0,1-.06.13l-.06.13a2.22,2.22,0,0,0,.6.34,1.44,1.44,0,0,0,.52.13.16.16,0,0,0,.18-.12.82.82,0,0,0,0-.26,2,2,0,0,0-.24-.51.51.51,0,0,0-.43-.25C18.84,100.56,18.68,100.7,18.55,101Z"/><path class="cls-6" d="M24.8,102.77a1.19,1.19,0,0,1-1.23-.7,1.77,1.77,0,0,1-1.57.7h-.12a.76.76,0,0,1-.21,0c-.07,0-.1,0-.1-.06v-1.36s0-.06.1-.08a.75.75,0,0,1,.21,0H22c.67,0,1-.23,1-.69V100l1.1-.34V100c0,.82.27,1.24.81,1.24h.08v1.55Zm-2.93-4.59.67-.91.87.58.5-.69,1,.69-.69.91-.88-.58-.46.69Z"/><path class="cls-6" d="M24.63,101.32s0-.06.1-.08a.75.75,0,0,1,.21,0h1.18l.7,0a3.43,3.43,0,0,0,.58-.09,4.67,4.67,0,0,0,.78-.24l1.26-.47c-.51-.15-.9-.25-1.18-.32s-.48-.13-.61-.18a.67.67,0,0,0-.49,0,1.24,1.24,0,0,0-.38.31l-.93-.63a3.86,3.86,0,0,1,.82-1,1.09,1.09,0,0,1,.94-.23,7.7,7.7,0,0,1,.91.18l.94.26,1,.26c.34.08.71.16,1.1.22l.53,0,.52,0-.42,1.53-.56,0a2.25,2.25,0,0,0-.46,0,2.35,2.35,0,0,0-.43.13,3.92,3.92,0,0,0-.51.25c-.45.26-.83.48-1.13.67a8.42,8.42,0,0,1-.88.47,5,5,0,0,1-.95.28,7.91,7.91,0,0,1-1.33.09h-1a.76.76,0,0,1-.21,0c-.07,0-.1,0-.1-.06Zm2.79,3.53.8-1.07,1.12.75-.82,1.08Z"/><path class="cls-6" d="M35.31,102.6l-1.37.36V95.23l1.37-.53Z"/><path class="cls-6" d="M38.77,105.27l1-.55c.39-.23.77-.47,1.13-.73a6.28,6.28,0,0,0,.93-.81,1.39,1.39,0,0,0,.42-.81,1.69,1.69,0,0,1-.42.15,2.14,2.14,0,0,1-.5.06,1.22,1.22,0,0,1-1.44-1.34,2.87,2.87,0,0,1,.1-.75,2.14,2.14,0,0,1,.3-.71,2.11,2.11,0,0,1,.49-.54,1.18,1.18,0,0,1,.7-.21,1.27,1.27,0,0,1,.89.31,2.13,2.13,0,0,1,.55.76,3.42,3.42,0,0,1,.29.94,4.84,4.84,0,0,1,.08.87,3.3,3.3,0,0,1-.27,1.36,4.05,4.05,0,0,1-.75,1.1,6.63,6.63,0,0,1-1.08.94q-.6.43-1.29.84Zm3.37-4.08a1.85,1.85,0,0,0-.27-.62.56.56,0,0,0-.47-.25.58.58,0,0,0-.56.6.32.32,0,0,0,.2.32,1.05,1.05,0,0,0,.44.1,1.57,1.57,0,0,0,.37,0A2.39,2.39,0,0,0,42.14,101.19Z"/><path class="cls-6" d="M54.14,99.86A2.83,2.83,0,0,0,53,99.7a1.61,1.61,0,0,0-.51.09A2,2,0,0,0,52,100a1.61,1.61,0,0,0-.37.3.54.54,0,0,0-.15.35.24.24,0,0,0,.2.23,2.27,2.27,0,0,0,.51.08l.66,0a2.86,2.86,0,0,1,.66.13,1.27,1.27,0,0,1,.51.34.94.94,0,0,1,.2.64,2.55,2.55,0,0,1-.4,1.4,3.6,3.6,0,0,1-1,1,5,5,0,0,1-1.37.61,5.23,5.23,0,0,1-1.44.21,4.76,4.76,0,0,1-1.48-.21,3,3,0,0,1-1-.57,2.38,2.38,0,0,1-.63-.88,3.07,3.07,0,0,1-.2-1.1,4.25,4.25,0,0,1,.15-1.08,4.63,4.63,0,0,1,.48-1.14l1.06.37a4.16,4.16,0,0,0-.32.73,2.28,2.28,0,0,0-.11.71,1.71,1.71,0,0,0,.12.65,1.43,1.43,0,0,0,.41.51,2,2,0,0,0,.72.35,3.56,3.56,0,0,0,1,.13,4.85,4.85,0,0,0,.93-.11,6.16,6.16,0,0,0,1-.28,3.88,3.88,0,0,0,.79-.39c.21-.15.32-.3.32-.44s0-.14-.16-.17a2.55,2.55,0,0,0-.43-.07l-.63-.05c-.23,0-.49,0-.75-.07a1.05,1.05,0,0,1-.68-.34,1,1,0,0,1-.22-.69,2.65,2.65,0,0,1,.26-1.15,3.3,3.3,0,0,1,1.64-1.6,2.51,2.51,0,0,1,1.09-.25,2.25,2.25,0,0,1,.58.08,2.58,2.58,0,0,1,.55.23Z"/><path class="cls-6" d="M60.32,100.65a2.38,2.38,0,0,1-.2,1,2,2,0,0,1-.55.72,2.07,2.07,0,0,1-.81.41,3.45,3.45,0,0,1-1,.14,3.34,3.34,0,0,1-1.29-.23,2.2,2.2,0,0,1-.87-.64l.64-1.17a2,2,0,0,0,1.3.47h.55a3.4,3.4,0,0,0,.57-.08,1.18,1.18,0,0,0,.45-.22.49.49,0,0,0,.19-.41.91.91,0,0,0-.24-.55,3.23,3.23,0,0,0-.58-.59c-.22-.19-.45-.36-.67-.52a4.68,4.68,0,0,0-.55-.34l.61-1.48C59.51,98.18,60.32,99.34,60.32,100.65Z"/><path class="cls-6" d="M63.8,102.69a1,1,0,0,1-.26-.19,3.18,3.18,0,0,1-.45,1.08,5.17,5.17,0,0,1-.79,1,8.79,8.79,0,0,1-1,.85q-.57.41-1.17.75L59,105.27c.28-.15.63-.33,1-.56s.78-.48,1.15-.74a5.5,5.5,0,0,0,.93-.84,1.25,1.25,0,0,0,.39-.83.8.8,0,0,0-.08-.33,3.9,3.9,0,0,0-.19-.35,3,3,0,0,0-.22-.32c-.07-.1-.13-.18-.17-.25l1-1.11c.1.15.19.31.28.46a2.42,2.42,0,0,0,.27.41,1.43,1.43,0,0,0,.32.29.74.74,0,0,0,.42.12v1.55A.76.76,0,0,1,63.8,102.69Z"/><path class="cls-6" d="M63.81,101.32s0-.06.1-.08a.75.75,0,0,1,.21,0H66a3.15,3.15,0,0,0,.67-.08,1,1,0,0,0,.44-.2.55.55,0,0,0,.17-.43,1.75,1.75,0,0,1-.47.2,2.2,2.2,0,0,1-.5.06,1.45,1.45,0,0,1-.94-.3,1.09,1.09,0,0,1-.38-.92,3,3,0,0,1,.09-.7,2.65,2.65,0,0,1,.29-.69,1.67,1.67,0,0,1,.47-.52,1,1,0,0,1,.65-.21,1.18,1.18,0,0,1,.87.34,2.53,2.53,0,0,1,.55.8,4.12,4.12,0,0,1,.29,1,6.6,6.6,0,0,1,.08.9,2.37,2.37,0,0,1-.26,1.18,1.94,1.94,0,0,1-.68.71,2.65,2.65,0,0,1-.93.33,6.06,6.06,0,0,1-1,.09h-1.3a.76.76,0,0,1-.21,0c-.07,0-.1,0-.1-.06Zm3.53-5.72-.81,1.07-1.11-.75.82-1.09Zm-.91,4a.86.86,0,0,0,.37-.1,1.72,1.72,0,0,0,.34-.24,1.62,1.62,0,0,0-.29-.48.55.55,0,0,0-.44-.19.43.43,0,0,0-.35.19.6.6,0,0,0-.16.39.37.37,0,0,0,.17.33A.75.75,0,0,0,66.43,99.61Z"/><path class="cls-6" d="M78.31,102.77a1.07,1.07,0,0,1,0,.47,2.18,2.18,0,0,1-.14.48,2.59,2.59,0,0,1-.9,1,4.08,4.08,0,0,1-1.32.61,4.64,4.64,0,0,1-1.49.15,3.8,3.8,0,0,1-1.41-.35,2.63,2.63,0,0,1-1-.87,2.42,2.42,0,0,1-.4-1.44,4,4,0,0,1,.17-1.15,5.84,5.84,0,0,1,.45-1l1,.36c-.11.23-.21.49-.31.76a2.34,2.34,0,0,0-.15.79,1.56,1.56,0,0,0,.2.82,1.28,1.28,0,0,0,.54.49,2.18,2.18,0,0,0,.76.21,4,4,0,0,0,.85,0,5.08,5.08,0,0,0,.84-.19,4.38,4.38,0,0,0,.71-.28c.17-.09.26-.17.27-.22s0-.11-.11-.13l-1.46-.5c0-.07,0-.16.09-.26s.08-.21.13-.32.09-.22.13-.32a1.11,1.11,0,0,1,.14-.25.85.85,0,0,1,.3-.32.92.92,0,0,1,.46-.08h1.68v1.55Z"/><path class="cls-6" d="M78.07,101.32s0-.06.1-.08a.71.71,0,0,1,.21,0h.4c1.49,0,2.24-.19,2.24-.55a.81.81,0,0,0-.23-.47,5,5,0,0,0-.56-.59c-.23-.2-.47-.4-.72-.59l-.69-.51-.26-.19a.64.64,0,0,1-.13-.17.42.42,0,0,1,0-.2,1.89,1.89,0,0,1,0-.3,2.08,2.08,0,0,1,0-.3,2.41,2.41,0,0,1,.07-.37,1.8,1.8,0,0,1,.12-.35.4.4,0,0,1,.18-.2,18.65,18.65,0,0,1,2.24-1c.93-.35,2.05-.71,3.35-1.09l-.17,1.56c-.79.17-1.56.36-2.31.56a20.59,20.59,0,0,0-2.22.73c-.16.06-.19.14-.08.22l.88.64a6.12,6.12,0,0,1,.81.69,3.45,3.45,0,0,1,.58.81,2.19,2.19,0,0,1,.22,1,1.9,1.9,0,0,1-.32,1.14,2.18,2.18,0,0,1-.83.67,3.79,3.79,0,0,1-1.1.3,9.05,9.05,0,0,1-1.14.07h-.36a.71.71,0,0,1-.21,0c-.07,0-.1,0-.1-.06Zm6.35-7.51-2.43.8-1.59.55-1,.36a5.09,5.09,0,0,0-.52.22L79.1,95c.44-.21,1.11-.47,2-.8s2-.7,3.42-1.15Z"/><path class="cls-6" d="M89.27,102.77a2.15,2.15,0,0,1-1.88-1.07A2.1,2.1,0,0,1,85.23,103a2.3,2.3,0,0,1-1.89-.72l.48-1.23a1.71,1.71,0,0,0,.69.31,3.59,3.59,0,0,0,.93.12,3.24,3.24,0,0,0,.55,0,2.09,2.09,0,0,0,.48-.13,1.05,1.05,0,0,0,.34-.22.47.47,0,0,0,.12-.32.23.23,0,0,0,0-.11s0-.17-.1-.35-.16-.45-.29-.82-.3-.87-.53-1.52l1.08-1c.27.89.5,1.62.66,2.17a11.31,11.31,0,0,0,.46,1.3,1.5,1.5,0,0,0,.44.63,1.06,1.06,0,0,0,.62.17h.28v1.55Z"/><path class="cls-6" d="M89.23,101.32s0-.06.1-.08a.65.65,0,0,1,.2,0h.89c.46,0,.68-.11.68-.33a.36.36,0,0,0,0-.14,2.28,2.28,0,0,0-.11-.21c0-.08-.13-.19-.23-.32l-.39-.51.87-1.23a2.34,2.34,0,0,1,.66.92,3.32,3.32,0,0,1,.23,1.2,2.38,2.38,0,0,1-.18,1,1.79,1.79,0,0,1-.5.67,2.14,2.14,0,0,1-.74.41,3.12,3.12,0,0,1-.93.13h-.23a.64.64,0,0,1-.2,0c-.07,0-.1,0-.1-.06Zm2.44-4.5-.81,1.07-1.11-.75.82-1.09Z"/><path class="cls-6" d="M94.62,99.93a4.71,4.71,0,0,1,.55,1,2.75,2.75,0,0,1,.21,1.13,2.62,2.62,0,0,1-.31,1.24,5.11,5.11,0,0,1-.82,1.12,8.23,8.23,0,0,1-1.13,1,13.26,13.26,0,0,1-1.25.81l-1.14-.89c.29-.15.64-.33,1-.57a9.82,9.82,0,0,0,1.14-.76,6.38,6.38,0,0,0,.92-.85,1.29,1.29,0,0,0,.39-.83,1.14,1.14,0,0,0-.21-.6c-.14-.23-.28-.43-.42-.62Zm.56-1.72-.8,1.07-1.12-.75.82-1.08Z"/><path class="cls-6" d="M108.77,102.77a1.37,1.37,0,0,1-1.37-.78,2.79,2.79,0,0,1-1.65.87,14.35,14.35,0,0,1-3.18.29,5.58,5.58,0,0,1-2.88-.59,1.81,1.81,0,0,1-1-1.63,2.74,2.74,0,0,1,.13-.82,5.71,5.71,0,0,1,.38-.93l1,.29a4.94,4.94,0,0,0-.19.49,1.74,1.74,0,0,0-.08.5.78.78,0,0,0,.28.65,2,2,0,0,0,.74.34,4.54,4.54,0,0,0,1,.13c.39,0,.78,0,1.17,0s.7,0,1.13,0a7.88,7.88,0,0,0,1.22-.12,3.07,3.07,0,0,0,1-.33.65.65,0,0,0,.4-.6v-.35l1.1-.35a6.49,6.49,0,0,0,0,.71.9.9,0,0,0,.14.42.49.49,0,0,0,.3.2,1.81,1.81,0,0,0,.52.06h0v1.55Zm-7-4.52.67-.91.87.58.5-.69,1,.69-.68.91-.89-.58-.45.69Z"/><path class="cls-6" d="M112,102.77a1.2,1.2,0,0,1-1.24-.7,1.75,1.75,0,0,1-1.57.7H109a.76.76,0,0,1-.21,0c-.06,0-.1,0-.1-.06v-1.36s0-.06.1-.08a.75.75,0,0,1,.21,0h.07c.67,0,1-.23,1-.69V100l1.1-.34V100c0,.82.26,1.24.8,1.24h.08v1.55Zm.13,1.69-.67.91-.87-.57-.5.67-1-.67.71-.93.87.59.48-.68Z"/><path class="cls-6" d="M116.24,102.77a3.41,3.41,0,0,1-.95-.14,4.55,4.55,0,0,1-.88-.37,3.8,3.8,0,0,1-.79.37,2.88,2.88,0,0,1-.87.14h-.67a.76.76,0,0,1-.21,0c-.06,0-.1,0-.1-.06v-1.36s0-.06.1-.08a.75.75,0,0,1,.21,0h1.18a3.7,3.7,0,0,1-.19-.42,1.16,1.16,0,0,1-.08-.42,1.8,1.8,0,0,1,.17-.73,2.36,2.36,0,0,1,.44-.67,2.48,2.48,0,0,1,.59-.49,1.31,1.31,0,0,1,.64-.19.81.81,0,0,1,.54.19,1.49,1.49,0,0,1,.37.45,2.56,2.56,0,0,1,.22.58,2.78,2.78,0,0,1,.06.54,1.44,1.44,0,0,1-.12.55,2.56,2.56,0,0,1-.35.61h1.08v1.55Zm-.75-6.32-.81,1.08-1.11-.75.82-1.09Zm-1.59,3.87a.45.45,0,0,0,.15.31,1.65,1.65,0,0,0,.4.29,2.06,2.06,0,0,0,.5-.32.5.5,0,0,0,.19-.38.48.48,0,0,0-.17-.36.56.56,0,0,0-.39-.15.66.66,0,0,0-.46.2A.57.57,0,0,0,113.9,100.32Z"/><path class="cls-6" d="M119.55,102.77a1.19,1.19,0,0,1-1.23-.7,1.77,1.77,0,0,1-1.57.7h-.12a.76.76,0,0,1-.21,0c-.07,0-.1,0-.1-.06v-1.36s0-.06.1-.08a.75.75,0,0,1,.21,0h.06c.68,0,1-.23,1-.69V100l1.1-.34V100c0,.82.27,1.24.81,1.24h.08v1.55Zm.14,1.69-.67.91-.88-.57-.49.67-1.05-.67.71-.93.87.59.49-.68Z"/><path class="cls-6" d="M119.38,101.32s0-.06.1-.08a.68.68,0,0,1,.21,0h.4c1.49,0,2.24-.19,2.24-.55a.81.81,0,0,0-.23-.47,5,5,0,0,0-.56-.59c-.23-.2-.47-.4-.72-.59l-.69-.51-.26-.19a.64.64,0,0,1-.13-.17.42.42,0,0,1,0-.2,1.89,1.89,0,0,1,0-.3,2.08,2.08,0,0,1,0-.3,2.41,2.41,0,0,1,.07-.37,1.8,1.8,0,0,1,.12-.35.4.4,0,0,1,.18-.2,18,18,0,0,1,2.24-1c.93-.35,2.05-.71,3.35-1.09l-.17,1.56c-.79.17-1.56.36-2.31.56a20.59,20.59,0,0,0-2.22.73c-.16.06-.19.14-.08.22l.88.64a6.84,6.84,0,0,1,.81.69,3.45,3.45,0,0,1,.58.81,2.19,2.19,0,0,1,.22,1,1.9,1.9,0,0,1-.32,1.14,2.18,2.18,0,0,1-.83.67,3.79,3.79,0,0,1-1.1.3,9.05,9.05,0,0,1-1.14.07h-.36a.66.66,0,0,1-.21,0c-.07,0-.1,0-.1-.06Z"/><path class="cls-6" d="M132.43,100.65a2.54,2.54,0,0,1-.2,1,2.09,2.09,0,0,1-.55.72,2.18,2.18,0,0,1-.82.41,3.39,3.39,0,0,1-1,.14,3.34,3.34,0,0,1-1.29-.23,2.35,2.35,0,0,1-.87-.64l.65-1.17a1.94,1.94,0,0,0,1.3.47h.54a3.4,3.4,0,0,0,.57-.08,1.31,1.31,0,0,0,.46-.22.51.51,0,0,0,.18-.41.91.91,0,0,0-.24-.55,3.52,3.52,0,0,0-.57-.59c-.23-.19-.45-.36-.68-.52a5.79,5.79,0,0,0-.54-.34l.6-1.48C131.62,98.18,132.43,99.34,132.43,100.65Z"/><path class="cls-6" d="M137.05,102.77a3.27,3.27,0,0,1-.49,1,6.61,6.61,0,0,1-.79.9,8.79,8.79,0,0,1-1,.79,12.91,12.91,0,0,1-1.11.7l-1.14-.88.88-.47c.33-.19.66-.39,1-.61a8.19,8.19,0,0,0,.9-.69,2.54,2.54,0,0,0,.6-.73,5.71,5.71,0,0,1-.86-.06,1.88,1.88,0,0,1-.68-.23,1.23,1.23,0,0,1-.44-.49,1.81,1.81,0,0,1-.15-.8,3,3,0,0,1,.09-.69,2.63,2.63,0,0,1,.28-.69,1.93,1.93,0,0,1,.47-.55,1,1,0,0,1,.63-.22,1.37,1.37,0,0,1,.75.21,2,2,0,0,1,.55.52,2.87,2.87,0,0,1,.35.7,3.47,3.47,0,0,1,.16.75h.49v1.55Zm-1-1.55a3.19,3.19,0,0,0-.09-.31,1.49,1.49,0,0,0-.18-.3,1.06,1.06,0,0,0-.23-.24.49.49,0,0,0-.28-.09.48.48,0,0,0-.39.17.64.64,0,0,0-.14.39.34.34,0,0,0,0,.22.32.32,0,0,0,.2.11,2.78,2.78,0,0,0,.4,0Z"/><path class="cls-6" d="M140.46,102.77a1.18,1.18,0,0,1-1.23-.7,1.77,1.77,0,0,1-1.57.7h-.12a.76.76,0,0,1-.21,0c-.07,0-.1,0-.1-.06v-1.36s0-.06.1-.08a.75.75,0,0,1,.21,0h.06c.67,0,1-.23,1-.69V100l1.1-.34V100c0,.82.27,1.24.8,1.24h.09v1.55Zm-2.21,2.08.8-1.07,1.12.75-.82,1.08Z"/><path class="cls-6" d="M145.17,102.77a1,1,0,0,0-.62.16.7.7,0,0,0-.29.38.54.54,0,0,0,0,.43.77.77,0,0,0,.39.36l-.46,1.45a5.11,5.11,0,0,1-1.76-1.14,3.55,3.55,0,0,1-.86-1.64h-1a.66.66,0,0,1-.21,0c-.07,0-.1,0-.1-.06v-1.36s0-.06.1-.08a.68.68,0,0,1,.21,0h.89a4.94,4.94,0,0,1,.22-1.18,6.06,6.06,0,0,1,.39-1,3.06,3.06,0,0,1,.47-.69.67.67,0,0,1,.44-.25.62.62,0,0,1,.44.27,3.71,3.71,0,0,1,.39.66,4.36,4.36,0,0,1,.28.79,2.86,2.86,0,0,1,.11.69,2.27,2.27,0,0,1-.13.77,2.65,2.65,0,0,1-.33.7,2.18,2.18,0,0,1-.48.52,1.22,1.22,0,0,1-.56.25,1.59,1.59,0,0,0,.74.82,2.26,2.26,0,0,1,.12-.89,2.51,2.51,0,0,1,.4-.76,2,2,0,0,1,.6-.53,1.42,1.42,0,0,1,.73-.19h.43v1.55Zm-2.25-3.19c-.06,0-.11,0-.17.13a2.18,2.18,0,0,0-.15.36,4.71,4.71,0,0,0-.13.51,3.86,3.86,0,0,0-.05.61,2,2,0,0,0,.33-.08,1.33,1.33,0,0,0,.32-.11.66.66,0,0,0,.23-.17.33.33,0,0,0,.08-.24,1.17,1.17,0,0,0,0-.29,2.19,2.19,0,0,0-.12-.33,1.47,1.47,0,0,0-.16-.28C143,99.62,143,99.58,142.92,99.58Z"/><path class="cls-6" d="M145.44,101.32s0-.06.1-.08a.68.68,0,0,1,.21,0h.88c.46,0,.68-.11.68-.33a.36.36,0,0,0,0-.14,2.28,2.28,0,0,0-.11-.21c-.05-.08-.13-.19-.23-.32l-.39-.51.88-1.23a2.43,2.43,0,0,1,.65.92,3.32,3.32,0,0,1,.23,1.2,2.38,2.38,0,0,1-.18,1,1.79,1.79,0,0,1-.5.67,2.14,2.14,0,0,1-.74.41,3.12,3.12,0,0,1-.93.13h-.22a.66.66,0,0,1-.21,0c-.07,0-.1,0-.1-.06Zm.29,3.53.81-1.07,1.11.75-.82,1.08Z"/><path class="cls-6" d="M156,102.77a1.48,1.48,0,0,1-1.05-.32,1.88,1.88,0,0,1-.46-1,1.4,1.4,0,0,1-.61.34,2.73,2.73,0,0,1-.87.13,2.1,2.1,0,0,1-.51,0,1.49,1.49,0,0,1-.43-.17,1,1,0,0,1-.31-.31.79.79,0,0,1-.12-.45c0-.94.73-1.85,2.18-2.71l-.12-.57,1-1,.72,3.56a1.57,1.57,0,0,0,.3.74,1,1,0,0,0,.73.22v1.55Zm-2-3.45a3,3,0,0,0-.53.27,2,2,0,0,0-.5.42q-.21.27-.12.39c.07.09.22.13.45.13a4.12,4.12,0,0,0,.51,0,1.1,1.1,0,0,0,.42-.14Z"/><path class="cls-6" d="M156,104.85l.8-1.07,1.11.75-.81,1.08Zm.13-3.53s0-.06.1-.08a.75.75,0,0,1,.21,0h.88q.69,0,.69-.33a.39.39,0,0,0,0-.14,1.08,1.08,0,0,0-.11-.21l-.22-.32-.39-.51.87-1.23a2.32,2.32,0,0,1,.65.92,3.12,3.12,0,0,1,.23,1.2,2.38,2.38,0,0,1-.18,1,1.77,1.77,0,0,1-.49.67,2.1,2.1,0,0,1-.75.41,3,3,0,0,1-.92.13h-.23a.76.76,0,0,1-.21,0c-.07,0-.1,0-.1-.06Z"/><path class="cls-6" d="M166.74,102.77a1.49,1.49,0,0,1-1.06-.32,1.88,1.88,0,0,1-.46-1,1.41,1.41,0,0,1-.6.34,2.84,2.84,0,0,1-.88.13,2.21,2.21,0,0,1-.51,0,1.49,1.49,0,0,1-.43-.17,1.14,1.14,0,0,1-.31-.31.79.79,0,0,1-.11-.45c0-.94.72-1.85,2.17-2.71l-.12-.57,1-1,.71,3.56a1.47,1.47,0,0,0,.31.74,1,1,0,0,0,.72.22v1.55Zm-2-3.45a3,3,0,0,0-.53.27,2.13,2.13,0,0,0-.5.42c-.14.18-.18.31-.11.39s.21.13.45.13a4.24,4.24,0,0,0,.51,0,1,1,0,0,0,.41-.14Z"/><path class="cls-6" d="M166.84,101.32s0-.06.1-.08a.75.75,0,0,1,.21,0H168c.45,0,.68-.11.68-.33a.39.39,0,0,0,0-.14.93.93,0,0,0-.1-.21l-.23-.32-.39-.51.87-1.23a2.23,2.23,0,0,1,.65.92,3.13,3.13,0,0,1,.24,1.2,2.38,2.38,0,0,1-.18,1,1.9,1.9,0,0,1-.5.67,2.1,2.1,0,0,1-.75.41,3,3,0,0,1-.92.13h-.23a.76.76,0,0,1-.21,0c-.06,0-.1,0-.1-.06Zm2.44-4.5-.8,1.07-1.11-.75.81-1.09Z"/><path class="cls-6" d="M174.35,102.77a3.27,3.27,0,0,1-.49,1,6.61,6.61,0,0,1-.79.9,8.79,8.79,0,0,1-1,.79,12.91,12.91,0,0,1-1.11.7l-1.14-.88.88-.47c.33-.19.66-.39,1-.61a8.19,8.19,0,0,0,.9-.69,2.72,2.72,0,0,0,.6-.73,5.94,5.94,0,0,1-.87-.06,1.89,1.89,0,0,1-.67-.23,1.16,1.16,0,0,1-.44-.49,1.81,1.81,0,0,1-.15-.8,3,3,0,0,1,.09-.69,2.63,2.63,0,0,1,.28-.69,1.93,1.93,0,0,1,.47-.55,1,1,0,0,1,.63-.22,1.37,1.37,0,0,1,.75.21,2,2,0,0,1,.55.52,3.27,3.27,0,0,1,.35.7,3.47,3.47,0,0,1,.16.75h.49v1.55Zm-1-1.55a3.19,3.19,0,0,0-.09-.31,1.49,1.49,0,0,0-.18-.3,1.06,1.06,0,0,0-.23-.24.49.49,0,0,0-.28-.09.48.48,0,0,0-.39.17.64.64,0,0,0-.14.39.34.34,0,0,0,.05.22.32.32,0,0,0,.19.11,3.13,3.13,0,0,0,.41,0Z"/><path class="cls-6" d="M180.6,102.77a2.4,2.4,0,0,1-.84-.15,3.1,3.1,0,0,1-.77-.39,4.35,4.35,0,0,1-.67-.55,5.39,5.39,0,0,1-.55-.63,1.66,1.66,0,0,1-.87,1.29,4.13,4.13,0,0,1-2.06.43.71.71,0,0,1-.21,0c-.07,0-.1,0-.1-.06v-1.36s0-.06.1-.08a.71.71,0,0,1,.21,0h.54a4,4,0,0,0,.7-.06,1.75,1.75,0,0,0,.61-.18.4.4,0,0,0,.25-.38.93.93,0,0,0-.23-.54,5.82,5.82,0,0,0-.54-.62l-.64-.61-.51-.47-.12-.14a.31.31,0,0,1-.05-.26,2.58,2.58,0,0,1,.05-.36c0-.13,0-.25.08-.37a2.24,2.24,0,0,1,.11-.31c0-.1.1-.16.16-.18a22.17,22.17,0,0,1,2.38-1c1-.36,2.16-.75,3.52-1.18L181,96.05c-1,.23-1.86.46-2.66.71s-1.54.51-2.21.77c-.17.06-.19.14-.07.23.39.29.76.6,1.12.92s.72.66,1.07,1l.58.57a6.89,6.89,0,0,0,.61.49,3.44,3.44,0,0,0,.66.34,2.34,2.34,0,0,0,.77.13h.61v1.55Zm.27-8.65-2.43.79-1.6.54-1,.36-.52.23.17-.74c.44-.21,1.11-.47,2-.79s2-.71,3.43-1.17Z"/><path class="cls-6" d="M181.15,101.32s0-.06.1-.08a.75.75,0,0,1,.21,0h1.18l.7,0a3.29,3.29,0,0,0,.58-.09,4.67,4.67,0,0,0,.78-.24l1.27-.47c-.51-.15-.9-.25-1.18-.32l-.62-.18a.67.67,0,0,0-.49,0,1.37,1.37,0,0,0-.38.31l-.93-.63a3.86,3.86,0,0,1,.82-1,1.09,1.09,0,0,1,.94-.23,7.32,7.32,0,0,1,.91.18l.94.26,1,.26c.34.08.71.16,1.1.22l.53,0,.52,0-.42,1.53-.56,0a2.15,2.15,0,0,0-.45,0,2.44,2.44,0,0,0-.44.13,3.32,3.32,0,0,0-.5.25c-.46.26-.84.48-1.14.67a8.42,8.42,0,0,1-.88.47,4.94,4.94,0,0,1-.94.28,8.12,8.12,0,0,1-1.34.09h-1a.76.76,0,0,1-.21,0c-.06,0-.1,0-.1-.06Zm5.1,3.14-.67.91-.87-.57-.5.67-1-.67.7-.93.87.59.48-.68Zm-.48,1.48-.69.9-1-.65.66-.88Z"/><path class="cls-6" d="M200,102.77a1.42,1.42,0,0,1-.55-.11c-.17-.08-.27-.17-.29-.26a4.72,4.72,0,0,1-.27,1.53,3.64,3.64,0,0,1-.73,1.22,3.33,3.33,0,0,1-1.15.79,4.08,4.08,0,0,1-2.86.06,2.57,2.57,0,0,1-.94-.64,2.54,2.54,0,0,1-.55-.94,3.58,3.58,0,0,1-.18-1.14,4.19,4.19,0,0,1,.13-1,3.88,3.88,0,0,1,.42-1l1,.36a3.59,3.59,0,0,0-.27.7,2.57,2.57,0,0,0-.09.67,1.81,1.81,0,0,0,.11.67,1.4,1.4,0,0,0,.35.54,1.68,1.68,0,0,0,.6.36,2.77,2.77,0,0,0,.87.12,2.91,2.91,0,0,0,1-.15,1.84,1.84,0,0,0,.7-.4,1.63,1.63,0,0,0,.43-.59,1.85,1.85,0,0,0,.15-.74,3.1,3.1,0,0,0-.64-1.91l1.16-1.08c.09.19.19.37.28.54a4,4,0,0,0,.29.46,1.26,1.26,0,0,0,.35.31.84.84,0,0,0,.45.12h.38v1.55Zm-3.61-3.51-.8,1.07-1.12-.75.82-1.09Z"/><path class="cls-6" d="M199.77,101.32s0-.06.1-.08a.75.75,0,0,1,.21,0,2.41,2.41,0,0,0,.92-.16,1.22,1.22,0,0,0,.54-.46c.11-.18.22-.37.33-.58a4.28,4.28,0,0,1,.37-.57,1.87,1.87,0,0,1,.46-.43,1.05,1.05,0,0,1,.62-.18,1.1,1.1,0,0,1,.67.22,1.7,1.7,0,0,1,.44.55,3,3,0,0,1,.25.69,3.29,3.29,0,0,1,.08.66,3.5,3.5,0,0,1,0,.54,1.75,1.75,0,0,1-.19.53,1.52,1.52,0,0,1-.34.41.86.86,0,0,1-.51.16,2.05,2.05,0,0,1-.89-.22,4.42,4.42,0,0,1-.77-.49,2.4,2.4,0,0,1-.81.65,2.35,2.35,0,0,1-1.12.23.76.76,0,0,1-.21,0c-.07,0-.1,0-.1-.06Zm3.5-1.26c-.29,0-.52.18-.71.67a1.89,1.89,0,0,0,.46.32,2.14,2.14,0,0,0,.48.17.22.22,0,0,0,.28-.19,1.36,1.36,0,0,0,0-.28,1.12,1.12,0,0,0-.1-.31.81.81,0,0,0-.17-.24A.37.37,0,0,0,203.27,100.06Z"/><path class="cls-6" d="M215.6,99.86a2.92,2.92,0,0,0-1.12-.16,1.61,1.61,0,0,0-.51.09,2,2,0,0,0-.49.23,1.86,1.86,0,0,0-.37.3.58.58,0,0,0-.14.35c0,.11.06.19.2.23a2.1,2.1,0,0,0,.51.08l.66,0a2.68,2.68,0,0,1,.65.13,1.15,1.15,0,0,1,.51.34.89.89,0,0,1,.2.64,2.47,2.47,0,0,1-.4,1.4,3.6,3.6,0,0,1-1,1,4.79,4.79,0,0,1-1.36.61,5.34,5.34,0,0,1-1.44.21,4.72,4.72,0,0,1-1.48-.21,3.06,3.06,0,0,1-1.06-.57,2.47,2.47,0,0,1-.62-.88,2.87,2.87,0,0,1-.21-1.1,3.87,3.87,0,0,1,.16-1.08,5,5,0,0,1,.47-1.14l1.06.37a4.09,4.09,0,0,0-.31.73,2.3,2.3,0,0,0-.12.71,1.71,1.71,0,0,0,.13.65,1.33,1.33,0,0,0,.41.51,2,2,0,0,0,.72.35,3.51,3.51,0,0,0,1,.13,4.85,4.85,0,0,0,.92-.11,6,6,0,0,0,1-.28,3.54,3.54,0,0,0,.78-.39c.22-.15.32-.3.32-.44a.18.18,0,0,0-.15-.17,2.74,2.74,0,0,0-.43-.07l-.63-.05c-.24,0-.49,0-.76-.07a1,1,0,0,1-.67-.34,1,1,0,0,1-.23-.69,2.53,2.53,0,0,1,.27-1.15,3.23,3.23,0,0,1,.68-.95,3.13,3.13,0,0,1,1-.65,2.5,2.5,0,0,1,1.08-.25,2.25,2.25,0,0,1,.58.08,2.38,2.38,0,0,1,.55.23Z"/><path class="cls-6" d="M218.39,99.93a5.23,5.23,0,0,1,.55,1,2.75,2.75,0,0,1,.21,1.13,3.36,3.36,0,0,1-.2,1.09,5,5,0,0,1-.56,1.1,7.1,7.1,0,0,1-.88,1.05,7.25,7.25,0,0,1-1.15.9l-1.13-.89a10.31,10.31,0,0,0,.93-.6,8.05,8.05,0,0,0,.89-.73,4.11,4.11,0,0,0,.67-.81,1.57,1.57,0,0,0,.26-.87,1.22,1.22,0,0,0-.2-.6,6.12,6.12,0,0,0-.43-.62Z"/><path class="cls-6" d="M221.61,102.55a1.69,1.69,0,0,1-.66-.61,2.76,2.76,0,0,1-.32-.93,8.09,8.09,0,0,1-.1-1.16c0-.2,0-.48,0-.85s0-.76,0-1.19,0-.87,0-1.32,0-.87,0-1.26l1.32-.53V100a1.42,1.42,0,0,0,.24.9.94.94,0,0,0,.77.31v1.55A2.42,2.42,0,0,1,221.61,102.55Z"/><path class="cls-6" d="M228.27,102.77a2,2,0,0,1-.7-.13,1.31,1.31,0,0,1-.57-.37l-.1.35a.92.92,0,0,1-.14.26.62.62,0,0,1-.22.17.94.94,0,0,1-.38.06,2.31,2.31,0,0,1-.49-.07,3.86,3.86,0,0,1-.54-.19,4.11,4.11,0,0,1-.51-.27,3.2,3.2,0,0,1-.43-.32,2,2,0,0,1-.61.38,2.35,2.35,0,0,1-.84.13.64.64,0,0,1-.2,0c-.07,0-.1,0-.1-.06v-1.36s0-.06.1-.08a.65.65,0,0,1,.2,0l.48,0a1.12,1.12,0,0,0,.38-.09.91.91,0,0,0,.32-.2,1.78,1.78,0,0,0,.27-.38l.28-.44a2.43,2.43,0,0,1,.33-.38,1.26,1.26,0,0,1,.38-.27,1.06,1.06,0,0,1,.48-.1.82.82,0,0,1,.65.32,7.07,7.07,0,0,1,.53.72c.11.21.21.37.28.48a1,1,0,0,0,.25.25.8.8,0,0,0,.32.09l.53,0h.12v1.55ZM225,101l-.06.13-.06.13a2.22,2.22,0,0,0,.6.34,1.45,1.45,0,0,0,.51.13q.17,0,.18-.12a.48.48,0,0,0,0-.26,1.47,1.47,0,0,0-.24-.51.5.5,0,0,0-.43-.25C225.3,100.56,225.14,100.7,225,101Z"/><path class="cls-6" d="M232.64,102.77a2.11,2.11,0,0,1-1-.22,1.76,1.76,0,0,1-.69-.69,3.18,3.18,0,0,1-1.09.68,3.66,3.66,0,0,1-1.34.23h-.2a.76.76,0,0,1-.21,0c-.07,0-.1,0-.1-.06v-1.36s0-.06.1-.08a.75.75,0,0,1,.21,0h.21q1.44,0,1.77-.51a.92.92,0,0,0-.4-.33,1.51,1.51,0,0,0-.67-.12,1.86,1.86,0,0,1,.17-.81,1.6,1.6,0,0,1,.47-.56,1.67,1.67,0,0,1,.67-.32,3,3,0,0,1,.8-.1,2.46,2.46,0,0,1,.53.06,1.7,1.7,0,0,1,.46.18,1.12,1.12,0,0,1,.32.33,1,1,0,0,1,.12.5,1,1,0,0,1-.08.37,2.05,2.05,0,0,1-.22.41,3.79,3.79,0,0,1-.32.38,3.09,3.09,0,0,1-.39.33c.09.12.43.19,1,.19h.62v1.55Z"/><path class="cls-6" d="M233.1,101.32s0-.06.1-.08a.75.75,0,0,1,.21,0,2.41,2.41,0,0,0,.92-.16,1.22,1.22,0,0,0,.54-.46c.11-.18.22-.37.33-.58a4.28,4.28,0,0,1,.37-.57A1.87,1.87,0,0,1,236,99a1.05,1.05,0,0,1,.62-.18,1.1,1.1,0,0,1,.67.22,1.7,1.7,0,0,1,.44.55,3,3,0,0,1,.25.69,3.29,3.29,0,0,1,.08.66,2.62,2.62,0,0,1-.06.54,1.51,1.51,0,0,1-.18.53,1.39,1.39,0,0,1-.35.41.81.81,0,0,1-.5.16,2.05,2.05,0,0,1-.89-.22,4.42,4.42,0,0,1-.77-.49,2.32,2.32,0,0,1-1.93.88.76.76,0,0,1-.21,0c-.07,0-.1,0-.1-.06Zm3.5-1.26c-.29,0-.52.18-.71.67a1.83,1.83,0,0,0,.45.32,2.21,2.21,0,0,0,.49.17.22.22,0,0,0,.28-.19,1.36,1.36,0,0,0,0-.28,1.12,1.12,0,0,0-.1-.31.81.81,0,0,0-.17-.24A.37.37,0,0,0,236.6,100.06Z"/><path class="cls-6" d="M240.58,105.27l1-.55c.38-.23.76-.47,1.12-.73a6.28,6.28,0,0,0,.93-.81,1.39,1.39,0,0,0,.42-.81,1.69,1.69,0,0,1-.42.15,2.12,2.12,0,0,1-.49.06,1.42,1.42,0,0,1-1.12-.37,1.41,1.41,0,0,1-.33-1,2.87,2.87,0,0,1,.1-.75,2.66,2.66,0,0,1,.3-.71,2.15,2.15,0,0,1,.5-.54,1.16,1.16,0,0,1,.7-.21,1.26,1.26,0,0,1,.88.31,2.28,2.28,0,0,1,.56.76,3.8,3.8,0,0,1,.29.94,6,6,0,0,1,.08.87,3.3,3.3,0,0,1-.28,1.36,4,4,0,0,1-.74,1.1,7.59,7.59,0,0,1-1.08.94c-.41.29-.84.57-1.3.84Zm3.37-4.08a1.52,1.52,0,0,0-.27-.62.55.55,0,0,0-.47-.25.57.57,0,0,0-.39.17.61.61,0,0,0-.17.43.33.33,0,0,0,.2.32,1.05,1.05,0,0,0,.44.1,1.5,1.5,0,0,0,.37,0A1.9,1.9,0,0,0,244,101.19Z"/></svg>