<svg id="Layer_1" data-name="Layer 1" xmlns="http://www.w3.org/2000/svg" viewBox="0 0 10.04 8.28"><defs><style>.cls-1{fill:#fff;fill-rule:evenodd;}</style></defs><path class="cls-1" d="M2.55.38C2.35,0,2.15,0,2,0H1.52A1,1,0,0,0,.86.27,2.4,2.4,0,0,0,0,2.11,4.08,4.08,0,0,0,1,4.38,10.62,10.62,0,0,0,5.23,7.69c.59.23,1,.36,1.41.47a3.82,3.82,0,0,0,1.55.08,2.56,2.56,0,0,0,1.67-1,1.56,1.56,0,0,0,.14-1c-.06-.09-.22-.14-.47-.25s-1.46-.64-1.69-.72-.39-.11-.55.11a11.52,11.52,0,0,1-.79.86c-.14.15-.28.17-.53.06A7,7,0,0,1,4,5.12,6.7,6.7,0,0,1,2.61,3.6c-.15-.22,0-.34.11-.45s.24-.26.37-.38a1.47,1.47,0,0,0,.24-.37.34.34,0,0,0,0-.39C3.25,1.9,2.76.82,2.55.38Z"/></svg>