<svg id="Layer_1" data-name="Layer 1" xmlns="http://www.w3.org/2000/svg" viewBox="0 0 28.36 27.48"><defs><style>.cls-1{fill:#005879;}</style></defs><path class="cls-1" d="M25.31,14.93Q21,14,16.92,13.21a33.65,33.65,0,0,0-4.28-9.89C11.94,2.2,11.2,1.09,10.39,0H9.2q1.43,1.89,2.62,3.82A33.12,33.12,0,0,1,15.89,13C10.47,12.08,5.2,11.41,0,11v1c5.28.41,10.62,1.09,16.13,2.07.15.69.28,1.38.37,2.08A21.58,21.58,0,0,1,15,27.48h1A22.56,22.56,0,0,0,17.45,16c-.08-.59-.18-1.18-.3-1.76,2.61.48,5.25,1,8,1.63l3.26.77v-1C27.35,15.4,26.33,15.16,25.31,14.93Z"/></svg>