<svg id="Layer_1" data-name="Layer 1" xmlns="http://www.w3.org/2000/svg" viewBox="0 0 257.14 13.67"><path d="M7.21,5.81A34.91,34.91,0,0,1,14.36.38V0h-.27a35.52,35.52,0,0,0-7.2,5.49A54.59,54.59,0,0,0,0,13.67H.56A55,55,0,0,1,7.21,5.81Z"/><path d="M55.11,5.81A34.64,34.64,0,0,1,62.26.38V0H62a35.25,35.25,0,0,0-7.2,5.49,54.59,54.59,0,0,0-6.89,8.18h.56A55,55,0,0,1,55.11,5.81Z"/><path d="M38.49,8.23V7.75L37,7.41a81.31,81.31,0,0,0-13.26-2v.46a80.93,80.93,0,0,1,13.15,2Z"/><path d="M103,5.81A34.85,34.85,0,0,1,110.15.38V0h-.26a35.25,35.25,0,0,0-7.2,5.49,54,54,0,0,0-6.89,8.18h.56A55,55,0,0,1,103,5.81Z"/><path d="M86.39,8.23V7.75l-1.47-.34a81,81,0,0,0-13.26-2v.46a80.88,80.88,0,0,1,13.16,2Z"/><path d="M150.9,5.81A34.91,34.91,0,0,1,158.05.38V0h-.26a35.3,35.3,0,0,0-7.21,5.49,54.59,54.59,0,0,0-6.89,8.18h.56A55,55,0,0,1,150.9,5.81Z"/><path d="M134.29,8.23V7.75l-1.47-.34a81,81,0,0,0-13.26-2v.46a81,81,0,0,1,13.16,2Z"/><path d="M202.09,5.81A34.91,34.91,0,0,1,209.24.38V0H209a35.52,35.52,0,0,0-7.2,5.49,54.59,54.59,0,0,0-6.89,8.18h.56A55,55,0,0,1,202.09,5.81Z"/><path d="M185.47,8.23V7.75L184,7.41a81.31,81.31,0,0,0-13.26-2v.46a81.2,81.2,0,0,1,13.16,2Z"/><path d="M250,5.81A34.64,34.64,0,0,1,257.14.38V0h-.27a35.25,35.25,0,0,0-7.2,5.49,54.59,54.59,0,0,0-6.89,8.18h.56A55,55,0,0,1,250,5.81Z"/><path d="M233.37,8.23V7.75l-1.46-.34a81.26,81.26,0,0,0-13.27-2v.46a80.88,80.88,0,0,1,13.16,2Z"/></svg>