<svg id="Layer_1" data-name="Layer 1" xmlns="http://www.w3.org/2000/svg" viewBox="0 0 248.33 20.13"><defs><style>.cls-1{fill:#231f20;}</style></defs><path class="cls-1" d="M80.21,17.9A15.25,15.25,0,0,1,68.67,8.63a22.69,22.69,0,0,1-1.75-7.26l0-.33h-.63l0,.39a23.61,23.61,0,0,0,1.8,7.45,15.88,15.88,0,0,0,12,9.64,36.7,36.7,0,0,0,4.25.57v-.63A34.24,34.24,0,0,1,80.21,17.9Z"/><path class="cls-1" d="M108,8.67a47.85,47.85,0,0,1,9.74-7.4V.76h-.37a47.91,47.91,0,0,0-9.81,7.47,75.2,75.2,0,0,0-9.38,11.15h.77A74.07,74.07,0,0,1,108,8.67Z"/><path class="cls-1" d="M52.71,12v-.65l-2-.47A111.36,111.36,0,0,0,32.65,8.18V8.8a110.85,110.85,0,0,1,17.92,2.66C51.29,11.62,52,11.78,52.71,12Z"/><path class="cls-1" d="M9.78,8.58A51.74,51.74,0,0,1,20.13.67V0h-.19A52,52,0,0,0,9.31,8.1C8,9.41,6.67,10.77,5.43,12.16h0A18.45,18.45,0,0,1,3.36,8.54,24.64,24.64,0,0,1,1.46.67l0-.36H.75l0,.42a25.35,25.35,0,0,0,2,8.08A19.18,19.18,0,0,0,5,12.68C3.2,14.7,1.55,16.79,0,19v1.18a83.07,83.07,0,0,1,5.39-6.9l.09-.1-.09.1a17.32,17.32,0,0,0,10.34,6,37.21,37.21,0,0,0,4.4.61v-.68a36.64,36.64,0,0,1-4.26-.59,16.67,16.67,0,0,1-10-5.88h0l0,0,0,0C7.11,11.29,8.42,9.92,9.78,8.58Z"/><path class="cls-1" d="M210.85,17.9a15.25,15.25,0,0,1-11.54-9.27,22.69,22.69,0,0,1-1.75-7.26l0-.33h-.63l0,.39a23.61,23.61,0,0,0,1.8,7.45,15.88,15.88,0,0,0,12,9.64,36.7,36.7,0,0,0,4.25.57v-.63A34.24,34.24,0,0,1,210.85,17.9Z"/><path class="cls-1" d="M238.59,8.67a47.85,47.85,0,0,1,9.74-7.4V.76H248a47.7,47.7,0,0,0-9.82,7.47,75.2,75.2,0,0,0-9.38,11.15h.77A74.07,74.07,0,0,1,238.59,8.67Z"/><path class="cls-1" d="M183.35,12v-.65l-2-.47a111.36,111.36,0,0,0-18.06-2.66V8.8a110.85,110.85,0,0,1,17.92,2.66C181.93,11.62,182.64,11.78,183.35,12Z"/><path class="cls-1" d="M140.42,8.58A51.74,51.74,0,0,1,150.77.67V0h-.19A52,52,0,0,0,140,8.1c-1.35,1.31-2.64,2.67-3.88,4.06h0A18.45,18.45,0,0,1,134,8.54,24.64,24.64,0,0,1,132.1.67l0-.36h-.68l0,.42a25.35,25.35,0,0,0,2,8.08,19.18,19.18,0,0,0,2.23,3.87c-1.77,2-3.42,4.11-5,6.27v1.18a81.12,81.12,0,0,1,5.4-6.9l.08-.1-.08.1a17.26,17.26,0,0,0,10.33,6,37.21,37.21,0,0,0,4.4.61v-.68a36.94,36.94,0,0,1-4.26-.59,16.67,16.67,0,0,1-10-5.88h0l0,0,0,0C137.75,11.29,139.06,9.92,140.42,8.58Z"/></svg>