<svg id="Layer_1" data-name="Layer 1" xmlns="http://www.w3.org/2000/svg" viewBox="0 0 57.62 57.65"><defs><style>.cls-1{fill:#231f20;}.cls-2{fill:#58595b;}.cls-2,.cls-3{fill-rule:evenodd;}.cls-3{fill:#a6a8ab;}</style></defs><path class="cls-1" d="M3.29,51.65a1.76,1.76,0,0,1-.68-.11,1.23,1.23,0,0,1-.47-.32,1.31,1.31,0,0,1-.28-.47,1.79,1.79,0,0,1-.09-.57,2.41,2.41,0,0,1,.07-.53,2,2,0,0,1,.21-.5l.5.18a2,2,0,0,0-.14.35,1.27,1.27,0,0,0,0,.34,1.14,1.14,0,0,0,0,.33.64.64,0,0,0,.18.27.75.75,0,0,0,.3.18,1.4,1.4,0,0,0,.44.07,1.48,1.48,0,0,0,.49-.08.92.92,0,0,0,.35-.2.66.66,0,0,0,.21-.29,1,1,0,0,0,.07-.38,1.47,1.47,0,0,0-.29-.85l.57-.46a2.26,2.26,0,0,1,.3.63,2,2,0,0,1,.1.63,1.73,1.73,0,0,1-.13.69,1.7,1.7,0,0,1-.37.57,1.67,1.67,0,0,1-.58.38A1.86,1.86,0,0,1,3.29,51.65Zm.44-3.37-.41.54-.56-.38.42-.54Z"/><path class="cls-1" d="M5.87,50.24a.67.67,0,0,1-.33-.31,1.26,1.26,0,0,1-.17-.46,5.2,5.2,0,0,1,0-.59c0-.1,0-.24,0-.42s0-.39,0-.6,0-.44,0-.67,0-.43,0-.63l.66-.27V49a.72.72,0,0,0,.12.46.51.51,0,0,0,.4.15v.78A1.16,1.16,0,0,1,5.87,50.24Z"/><path class="cls-1" d="M9.21,50.35a1.12,1.12,0,0,1-.35-.06.81.81,0,0,1-.29-.19,1,1,0,0,1-.05.18.52.52,0,0,1-.06.13.36.36,0,0,1-.12.08.42.42,0,0,1-.18,0l-.25,0a1.48,1.48,0,0,1-.27-.1,2.1,2.1,0,0,1-.26-.13l-.22-.16a1.08,1.08,0,0,1-.31.19,1.22,1.22,0,0,1-.41.06H6.33l0,0v-.69s0,0,0,0h.35a.43.43,0,0,0,.19,0,.54.54,0,0,0,.16-.1,1,1,0,0,0,.13-.19L7.31,49a1.46,1.46,0,0,1,.16-.19.8.8,0,0,1,.19-.13.47.47,0,0,1,.24,0,.42.42,0,0,1,.33.16,3.32,3.32,0,0,1,.26.36,1.75,1.75,0,0,0,.15.24.51.51,0,0,0,.12.13.42.42,0,0,0,.16,0h.33v.78Zm-1.63-.9,0,.06a.16.16,0,0,0,0,.07,1.11,1.11,0,0,0,.3.17.9.9,0,0,0,.26.06c.06,0,.09,0,.1-.05a.71.71,0,0,0,0-.14A1,1,0,0,0,8,49.37a.24.24,0,0,0-.21-.13Q7.67,49.24,7.58,49.45Z"/><path class="cls-1" d="M10.72,50.35A.59.59,0,0,1,10.1,50a.88.88,0,0,1-.79.35H9.14l-.05,0v-.69s0,0,.05,0h.14c.34,0,.51-.11.51-.34V49l.55-.18V49c0,.41.14.62.41.62h0v.78Zm-1.48-2.3.34-.46.44.29.25-.35.52.35-.35.46L10,48.05l-.23.34Z"/><path class="cls-1" d="M10.63,49.62s0,0,0,0h1.05a1,1,0,0,0,.29,0,2.4,2.4,0,0,0,.4-.12l.63-.24L12.46,49l-.31-.09a.41.41,0,0,0-.25,0,.7.7,0,0,0-.19.16l-.47-.32a1.82,1.82,0,0,1,.42-.52.56.56,0,0,1,.47-.12l.46.09.47.13.5.13.55.11.27,0c.09,0-.27,0-.19,0l.24.77-.28,0-.23,0-.22.07-.26.12c-.23.13-.42.24-.57.34a3.09,3.09,0,0,1-.44.23,2.16,2.16,0,0,1-.47.15,4.22,4.22,0,0,1-.67,0h-.61l0,0Zm2-2.48-.41.54-.56-.38.41-.55Z"/><path class="cls-1" d="M15.36,50.24a.76.76,0,0,1-.33-.31,1.46,1.46,0,0,1-.16-.46,5.2,5.2,0,0,1,0-.59c0-.1,0-.24,0-.42s0-.39,0-.6,0-.44,0-.67,0-.43,0-.63l.66-.27V49a.72.72,0,0,0,.12.46.47.47,0,0,0,.39.15v.78A1.21,1.21,0,0,1,15.36,50.24Z"/><path class="cls-1" d="M15.78,49.62s0,0,.05,0H16a.48.48,0,0,0,.31-.1.36.36,0,0,0,.12-.29V49l.47-.16V49a.76.76,0,0,0,.09.4.29.29,0,0,0,.26.14c.31,0,.47-.14.47-.42v-.26l.48-.14v.33a.53.53,0,0,0,.14.37.43.43,0,0,0,.34.15.28.28,0,0,0,.22-.08.29.29,0,0,0,.06-.19.62.62,0,0,0-.06-.26.72.72,0,0,0-.16-.21l.47-.52a1.22,1.22,0,0,1,.23.42,1.62,1.62,0,0,1,.08.49,1.39,1.39,0,0,1-.06.4,1.17,1.17,0,0,1-.16.36.78.78,0,0,1-.26.25.65.65,0,0,1-.36.1,1,1,0,0,1-.46-.1.61.61,0,0,1-.29-.28.67.67,0,0,1-.26.27.7.7,0,0,1-.34.1,1,1,0,0,1-.39-.08.7.7,0,0,1-.27-.27.6.6,0,0,1-.32.27,1,1,0,0,1-.42.08h-.1l-.05,0Z"/><path class="cls-1" d="M25.87,50.35a.69.69,0,0,1-.69-.39,1.41,1.41,0,0,1-.83.44,7.64,7.64,0,0,1-1.6.14,2.89,2.89,0,0,1-1.45-.29.92.92,0,0,1-.48-.82,1.32,1.32,0,0,1,.07-.42,2.81,2.81,0,0,1,.19-.46l.5.14a2.6,2.6,0,0,0-.1.25.73.73,0,0,0,0,.25.42.42,0,0,0,.14.33,1.15,1.15,0,0,0,.37.17,2.72,2.72,0,0,0,.53.07h1.15a4.05,4.05,0,0,0,.62-.07,1.66,1.66,0,0,0,.49-.16.32.32,0,0,0,.19-.3v-.18l.56-.17c0,.14,0,.26,0,.35a.51.51,0,0,0,.08.21.21.21,0,0,0,.15.1.88.88,0,0,0,.26,0h0v.78Zm-3.52-2.27.34-.46.44.29.25-.34.52.34-.35.46-.44-.29-.23.34Z"/><path class="cls-1" d="M28.16,50.35a1,1,0,0,1-.49-.11.79.79,0,0,1-.35-.35,1.52,1.52,0,0,1-.55.35,1.87,1.87,0,0,1-.68.11h-.2l-.05,0v-.69s0,0,.05,0h.21c.48,0,.78-.08.89-.26a.53.53,0,0,0-.2-.16.77.77,0,0,0-.34-.06.88.88,0,0,1,.09-.41.91.91,0,0,1,.23-.28,1,1,0,0,1,.34-.16,1.33,1.33,0,0,1,.4-.05l.27,0a.79.79,0,0,1,.23.09.52.52,0,0,1,.16.17.49.49,0,0,1,.06.25.46.46,0,0,1,0,.19.81.81,0,0,1-.11.2,1.46,1.46,0,0,1-.16.19l-.19.17c0,.06.21.09.5.09h.31v.78Z"/><path class="cls-1" d="M30,50.35a.6.6,0,0,1-.62-.35.87.87,0,0,1-.79.35h-.16s-.05,0-.05,0v-.69s0,0,.05,0h.14c.33,0,.5-.11.5-.34V49l.56-.18V49c0,.41.13.62.4.62h0v.78Zm-.29-2.5-.41.54L28.75,48l.41-.54Z"/><path class="cls-1" d="M29.93,49.62s0,0,.05,0h.28c.19,0,.28-.11.28-.34V49l.52-.15V49a2.36,2.36,0,0,0,0,.3.38.38,0,0,0,.06.18.28.28,0,0,0,.1.09l.16,0h0l.44-.49a5.44,5.44,0,0,1,.48-.48,2.8,2.8,0,0,1,.5-.37,1.09,1.09,0,0,1,.51-.14.88.88,0,0,1,.33.06.65.65,0,0,1,.26.17.83.83,0,0,1,.24.56,1.16,1.16,0,0,1-.2.68,1.54,1.54,0,0,1-.49.46,2.26,2.26,0,0,1-.62.26,3,3,0,0,1-.63.07h-.85a.68.68,0,0,1-.34-.08.41.41,0,0,1-.24-.27.7.7,0,0,1-.63.35H30s-.05,0-.05,0Zm3.25-.8a.85.85,0,0,0-.53.21c-.18.14-.38.32-.61.54h.39l.29,0,.32,0,.3-.08a1,1,0,0,0,.23-.13.25.25,0,0,0,.09-.19.19.19,0,0,0,0-.13.57.57,0,0,0-.13-.08.42.42,0,0,0-.15,0Z"/><path class="cls-1" d="M35.87,48.92a2.45,2.45,0,0,1,.28.49,1.41,1.41,0,0,1,.11.57,1.27,1.27,0,0,1-.16.62,2.44,2.44,0,0,1-.41.56,3.87,3.87,0,0,1-.57.49,7.49,7.49,0,0,1-.63.41l-.57-.45c.15-.07.32-.17.52-.29a4.35,4.35,0,0,0,.57-.38,2.83,2.83,0,0,0,.47-.43.53.53,0,0,0,.09-.72l-.21-.31Z"/><path class="cls-1" d="M39.16,49.29a1.21,1.21,0,0,1-.1.52.92.92,0,0,1-.28.36,1,1,0,0,1-.41.21,1.53,1.53,0,0,1-.49.07,1.56,1.56,0,0,1-.64-.12A1,1,0,0,1,36.8,50l.32-.59a1,1,0,0,0,.66.24h.27a1.35,1.35,0,0,0,.29,0,.61.61,0,0,0,.23-.11.26.26,0,0,0,.09-.21.45.45,0,0,0-.12-.27,2,2,0,0,0-.29-.3l-.34-.26-.28-.17.31-.74A2.11,2.11,0,0,1,39.16,49.29Z"/><path class="cls-1" d="M46.24,50.35a1.08,1.08,0,0,1-.44-.08,1.39,1.39,0,0,1-.4-.21,1.58,1.58,0,0,1-.34-.29,2.2,2.2,0,0,1-.28-.34.88.88,0,0,1-.14.44,1.1,1.1,0,0,1-.34.3,1.86,1.86,0,0,1-.45.2,4.64,4.64,0,0,1-.51.11,4.38,4.38,0,0,1-.5,0l-.42,0c-1.3,0-2-.39-2-1.15a2,2,0,0,1,.25-.85l.5.15a1.29,1.29,0,0,0-.15.46.4.4,0,0,0,.09.27.79.79,0,0,0,.22.18,1.42,1.42,0,0,0,.31.11l.34,0h.85l.37,0a2.63,2.63,0,0,0,.39-.06l.36-.1a.72.72,0,0,0,.26-.14.36.36,0,0,0,.11-.21.43.43,0,0,0-.07-.17l-.16-.22-.22-.25-.23-.24-.2-.2L43.36,48a1.37,1.37,0,0,1,0-.16,1.55,1.55,0,0,1,0-.21c0-.08,0-.14.06-.2a.17.17,0,0,1,.09-.12,10.62,10.62,0,0,1,1.2-.52c.5-.18,1.09-.38,1.77-.59l-.09.75c-.42.1-.83.22-1.24.33a10.9,10.9,0,0,0-1.21.43.09.09,0,0,0-.06,0s0,0,0,.07.34.28.52.44l.57.53.3.28a3.31,3.31,0,0,0,.3.25,1.29,1.29,0,0,0,.33.17,1,1,0,0,0,.39.07h.31v.78ZM46.39,46l-1.22.4-.8.27-.48.18-.26.12.07-.37a10.43,10.43,0,0,1,1-.4c.45-.16,1-.36,1.72-.59Z"/><path class="cls-1" d="M48.17,50.35a.58.58,0,0,1-.62-.35.89.89,0,0,1-.79.35h-.17l-.05,0v-.69s0,0,.05,0h.14c.34,0,.51-.11.51-.34V49l.55-.18V49c0,.41.13.62.4.62h0v.78Zm-.3-2.5-.41.54L46.9,48l.42-.54Z"/><path class="cls-1" d="M49.19,51.2l-.34.46-.43-.29-.25.34-.53-.34.36-.46.44.29.24-.34Zm-1.11-1.58s0,0,.05,0h.55c.23,0,.34,0,.34-.16a.17.17,0,0,0,0-.07l0-.11-.12-.16-.19-.25.43-.63a1.25,1.25,0,0,1,.33.47,1.53,1.53,0,0,1,.12.6,1.17,1.17,0,0,1-.09.48,1,1,0,0,1-.25.34,1.17,1.17,0,0,1-.38.21,1.7,1.7,0,0,1-.46.06h-.22l-.05,0Z"/><path class="cls-1" d="M53.05,50.35a1.15,1.15,0,0,1-.55-.14,1,1,0,0,1-.39-.4,1.06,1.06,0,0,1-1.09.63,1.16,1.16,0,0,1-1-.36l.24-.62a.82.82,0,0,0,.35.16,1.84,1.84,0,0,0,.47.06l.27,0,.24-.07a.34.34,0,0,0,.17-.11.24.24,0,0,0,.07-.16.35.35,0,0,1,0-.06l-.06-.17c0-.09-.07-.23-.14-.41s-.15-.44-.27-.77l.54-.48.34,1.09a5.1,5.1,0,0,0,.23.65.85.85,0,0,0,.22.32.57.57,0,0,0,.31.08h.14v.78Z"/><path class="cls-1" d="M53,49.62s0,0,0,0h.55c.23,0,.34,0,.34-.16a.17.17,0,0,0,0-.07l-.05-.11-.12-.16-.19-.25.43-.63a1.25,1.25,0,0,1,.33.47,1.53,1.53,0,0,1,.12.6,1.17,1.17,0,0,1-.09.48,1,1,0,0,1-.25.34,1.17,1.17,0,0,1-.38.21,1.65,1.65,0,0,1-.46.06h-.22l0,0Zm1.23-2.26-.41.54-.56-.38L53.7,47Z"/><path class="cls-1" d="M56.16,50.31a.6.6,0,0,1-.13-.09,1.6,1.6,0,0,1-.23.54,3,3,0,0,1-.39.49,5.66,5.66,0,0,1-.52.43c-.19.13-.39.26-.59.37l-.58-.44c.15-.07.32-.17.52-.28a4.84,4.84,0,0,0,.58-.38,2.76,2.76,0,0,0,.47-.41.66.66,0,0,0,.19-.42.35.35,0,0,0,0-.17.76.76,0,0,0-.09-.18l-.11-.16-.09-.12.52-.56c0,.08.1.15.14.23a1.53,1.53,0,0,0,.14.21.52.52,0,0,0,.16.14.37.37,0,0,0,.21.06v.78A.32.32,0,0,1,56.16,50.31Z"/><path class="cls-1" d="M56.17,49.62s0,0,0,0h.55c.23,0,.34,0,.34-.16a.17.17,0,0,0,0-.07.64.64,0,0,0-.06-.11.93.93,0,0,0-.11-.16l-.2-.25.44-.63a1.25,1.25,0,0,1,.33.47,1.53,1.53,0,0,1,.12.6,1,1,0,0,1-.1.48,1,1,0,0,1-.24.34,1.28,1.28,0,0,1-.38.21,1.7,1.7,0,0,1-.46.06h-.22s0,0,0,0Zm.14,1.78.41-.54.56.38-.41.54Z"/><path class="cls-1" d="M23.08,54.48a1.38,1.38,0,0,0-.56-.08.78.78,0,0,0-.26,0,1.15,1.15,0,0,0-.25.12.9.9,0,0,0-.18.15.27.27,0,0,0-.08.17.13.13,0,0,0,.1.12,1,1,0,0,0,.26,0l.33,0a1.14,1.14,0,0,1,.33.06.78.78,0,0,1,.26.17.48.48,0,0,1,.1.33,1.3,1.3,0,0,1-.2.7,1.77,1.77,0,0,1-.52.5,2.22,2.22,0,0,1-.68.31,2.67,2.67,0,0,1-.73.1,2.37,2.37,0,0,1-.74-.1,1.58,1.58,0,0,1-.53-.29,1.14,1.14,0,0,1-.31-.44,1.47,1.47,0,0,1-.11-.56,2.14,2.14,0,0,1,.08-.54,2.31,2.31,0,0,1,.24-.57l.53.18a2.3,2.3,0,0,0-.16.37,1.2,1.2,0,0,0-.05.36A.88.88,0,0,0,20,56a.71.71,0,0,0,.21.26,1,1,0,0,0,.36.17,1.92,1.92,0,0,0,.52.07,2.08,2.08,0,0,0,.46-.06,2.63,2.63,0,0,0,.5-.14,1.76,1.76,0,0,0,.39-.2c.11-.07.17-.15.17-.22s0-.07-.08-.08a.87.87,0,0,0-.22,0l-.31,0-.39,0a.53.53,0,0,1-.34-.17.56.56,0,0,1-.11-.35,1.48,1.48,0,0,1,.13-.58,1.85,1.85,0,0,1,.35-.48,1.75,1.75,0,0,1,.48-.32,1.33,1.33,0,0,1,.55-.12,1.43,1.43,0,0,1,.29,0,1.59,1.59,0,0,1,.27.12Z"/><path class="cls-1" d="M24.41,54.51a2.7,2.7,0,0,1,.28.48,1.42,1.42,0,0,1,.1.57,1.56,1.56,0,0,1-.1.55,2.26,2.26,0,0,1-.28.56,3,3,0,0,1-.44.52,3.79,3.79,0,0,1-.58.46l-.56-.45.46-.3a5.54,5.54,0,0,0,.45-.37,2.11,2.11,0,0,0,.34-.41.89.89,0,0,0,.13-.43.65.65,0,0,0-.11-.31l-.21-.31Zm.28-.86-.41.54-.56-.38.41-.55Z"/><path class="cls-1" d="M26,55.83a.79.79,0,0,1-.34-.31,1.46,1.46,0,0,1-.16-.46,5.2,5.2,0,0,1,0-.59c0-.1,0-.24,0-.42s0-.39,0-.6,0-.44,0-.67,0-.43,0-.63l.66-.27v2.67a.72.72,0,0,0,.12.46.49.49,0,0,0,.4.15v.78A1.16,1.16,0,0,1,26,55.83Z"/><path class="cls-1" d="M26.38,55.21s0,0,.05,0h.17a.46.46,0,0,0,.31-.1.37.37,0,0,0,.12-.29v-.2l.47-.16v.21a.7.7,0,0,0,.09.39.28.28,0,0,0,.26.15c.32,0,.47-.14.47-.43v-.25l.48-.14v.33a.53.53,0,0,0,.14.37.43.43,0,0,0,.34.15.28.28,0,0,0,.22-.08.29.29,0,0,0,.06-.19.62.62,0,0,0-.06-.26.72.72,0,0,0-.16-.21l.47-.52a1.22,1.22,0,0,1,.23.42,1.62,1.62,0,0,1,.08.49,1.44,1.44,0,0,1-.06.4,1,1,0,0,1-.16.35.72.72,0,0,1-.26.26.61.61,0,0,1-.36.1.93.93,0,0,1-.45-.1.57.57,0,0,1-.3-.29.68.68,0,0,1-.25.28.78.78,0,0,1-.35.1.86.86,0,0,1-.39-.09.61.61,0,0,1-.27-.26.6.6,0,0,1-.32.27,1,1,0,0,1-.41.08h-.11l-.05,0Z"/><path class="cls-1" d="M31.8,55.9a.43.43,0,0,1-.13-.09,1.6,1.6,0,0,1-.23.54,2.6,2.6,0,0,1-.4.49,3.18,3.18,0,0,1-.52.42,4.56,4.56,0,0,1-.59.38l-.57-.44.52-.28a5.79,5.79,0,0,0,.58-.38,2.75,2.75,0,0,0,.47-.42.61.61,0,0,0,.19-.41.35.35,0,0,0,0-.17L31,55.36l-.11-.16-.09-.12.52-.56c.05.08.1.15.14.23a1.43,1.43,0,0,0,.14.2.75.75,0,0,0,.16.15.37.37,0,0,0,.21.06v.78A.29.29,0,0,1,31.8,55.9Z"/><path class="cls-1" d="M34.26,55.94A.54.54,0,0,0,34,56a.37.37,0,0,0-.15.19.28.28,0,0,0,0,.22.36.36,0,0,0,.2.18l-.23.73a2.63,2.63,0,0,1-.89-.57,1.78,1.78,0,0,1-.43-.83h-.62l-.05,0v-.69s0,0,.05,0h.56a2.28,2.28,0,0,1,.11-.59,2.89,2.89,0,0,1,.2-.5,1.55,1.55,0,0,1,.23-.34.35.35,0,0,1,.22-.13.31.31,0,0,1,.22.14,1.32,1.32,0,0,1,.2.33,1.9,1.9,0,0,1,.14.4,1.28,1.28,0,0,1,.06.35,1.22,1.22,0,0,1-.07.38,1.27,1.27,0,0,1-.17.35,1.05,1.05,0,0,1-.24.27.53.53,0,0,1-.28.12.8.8,0,0,0,.37.41,1.09,1.09,0,0,1,.06-.44,1.59,1.59,0,0,1,.2-.39,1,1,0,0,1,.3-.26.71.71,0,0,1,.37-.1h.22v.78Zm-1.14-1.6s0,0-.08.06a1.71,1.71,0,0,0-.07.18,1.63,1.63,0,0,0-.07.26,1.56,1.56,0,0,0,0,.31l.16,0,.16-.06a.36.36,0,0,0,.12-.08.2.2,0,0,0,0-.13,1.15,1.15,0,0,0,0-.14l-.06-.17c0-.05-.05-.1-.08-.14S33.15,54.34,33.12,54.34Z"/><path class="cls-1" d="M34.39,55.21s0,0,0,0h.18a.44.44,0,0,0,.3-.1.37.37,0,0,0,.12-.29v-.2l.47-.16v.21a.7.7,0,0,0,.09.39.29.29,0,0,0,.26.15c.32,0,.48-.14.48-.43v-.25l.47-.14v.33A.53.53,0,0,0,37,55a.43.43,0,0,0,.34.15.27.27,0,0,0,.22-.08.25.25,0,0,0,.07-.19.63.63,0,0,0-.07-.26.72.72,0,0,0-.16-.21l.47-.52a1.22,1.22,0,0,1,.23.42,1.62,1.62,0,0,1,.08.49,1.9,1.9,0,0,1-.05.4,1.25,1.25,0,0,1-.16.35.75.75,0,0,1-.27.26.61.61,0,0,1-.36.1.93.93,0,0,1-.45-.1.65.65,0,0,1-.3-.29.62.62,0,0,1-.25.28.74.74,0,0,1-.35.1.79.79,0,0,1-.38-.09.59.59,0,0,1-.28-.26.57.57,0,0,1-.32.27,1,1,0,0,1-.41.08h-.11l0,0Zm1.41-1.57.33-.46.44.29.25-.35.51.35-.33.46-.45-.29-.23.34Zm.25-.75.34-.45.47.32-.33.44Z"/><path class="cls-1" d="M39.05,57.2l.51-.28a6.65,6.65,0,0,0,.56-.36,3.21,3.21,0,0,0,.47-.41.7.7,0,0,0,.21-.41.71.71,0,0,1-.21.08,1.07,1.07,0,0,1-.25,0,.7.7,0,0,1-.56-.19.73.73,0,0,1-.17-.49,1.64,1.64,0,0,1,0-.37,1.46,1.46,0,0,1,.16-.36.81.81,0,0,1,.25-.27.56.56,0,0,1,.35-.11.61.61,0,0,1,.44.16,1.08,1.08,0,0,1,.28.38,2,2,0,0,1,.15.47,4,4,0,0,1,0,.44,1.65,1.65,0,0,1-.14.68,2.06,2.06,0,0,1-.38.56,3.14,3.14,0,0,1-.54.47,6,6,0,0,1-.65.42Zm1.69-2.05a.81.81,0,0,0-.13-.31.3.3,0,0,0-.24-.13.28.28,0,0,0-.2.09.26.26,0,0,0-.08.21.15.15,0,0,0,.1.16.51.51,0,0,0,.22,0l.18,0Z"/><path class="cls-1" d="M46.44,54.48a1.35,1.35,0,0,0-.56-.08.82.82,0,0,0-.26,0,.9.9,0,0,0-.24.12.74.74,0,0,0-.19.15.25.25,0,0,0-.07.17.12.12,0,0,0,.1.12.87.87,0,0,0,.25,0l.34,0a1.28,1.28,0,0,1,.33.06.74.74,0,0,1,.25.17.48.48,0,0,1,.1.33,1.22,1.22,0,0,1-.2.7,1.62,1.62,0,0,1-.51.5,2.39,2.39,0,0,1-.69.31,2.66,2.66,0,0,1-.72.1,2.48,2.48,0,0,1-.75-.1,1.58,1.58,0,0,1-.53-.29,1.14,1.14,0,0,1-.31-.44,1.47,1.47,0,0,1-.1-.56,2.11,2.11,0,0,1,.07-.54,2.31,2.31,0,0,1,.24-.57l.54.18a2.3,2.3,0,0,0-.16.37,1.23,1.23,0,0,0-.06.36.88.88,0,0,0,.06.33.82.82,0,0,0,.57.43,2,2,0,0,0,.52.07,2.16,2.16,0,0,0,.47-.06,2.53,2.53,0,0,0,.49-.14,2.13,2.13,0,0,0,.4-.2.29.29,0,0,0,.16-.22s0-.07-.08-.08a.87.87,0,0,0-.21,0l-.32,0-.38,0a.48.48,0,0,1-.45-.52,1.33,1.33,0,0,1,.13-.58,1.57,1.57,0,0,1,.83-.8,1.29,1.29,0,0,1,.54-.12,1.36,1.36,0,0,1,.29,0,1.39,1.39,0,0,1,.28.12Z"/><path class="cls-1" d="M47.77,54.51a2.2,2.2,0,0,1,.28.48,1.41,1.41,0,0,1,.11.57,1.56,1.56,0,0,1-.1.55,2.3,2.3,0,0,1-.29.56,2.64,2.64,0,0,1-.44.52,3.7,3.7,0,0,1-.57.46l-.57-.45.47-.3a4.09,4.09,0,0,0,.44-.37,2.11,2.11,0,0,0,.34-.41.8.8,0,0,0,.13-.43.62.62,0,0,0-.1-.31l-.21-.31Z"/><path class="cls-1" d="M49.33,55.83a.82.82,0,0,1-.33-.31,1.25,1.25,0,0,1-.16-.46,3.61,3.61,0,0,1-.05-.59c0-.1,0-.24,0-.42s0-.39,0-.6,0-.44,0-.67,0-.43,0-.63l.66-.27v2.67a.72.72,0,0,0,.12.46.47.47,0,0,0,.39.15v.78A1.16,1.16,0,0,1,49.33,55.83Z"/><path class="cls-1" d="M52.68,55.94a1,1,0,0,1-.35-.06.67.67,0,0,1-.29-.19c0,.07,0,.12,0,.17a.46.46,0,0,1-.07.14l-.11.08a.5.5,0,0,1-.19,0l-.25,0L51.1,56a1.3,1.3,0,0,1-.26-.14l-.21-.15a1.23,1.23,0,0,1-.31.19,1.33,1.33,0,0,1-.42.06h-.11l0,0v-.69s0,0,0,0h.35a.58.58,0,0,0,.19,0,.57.57,0,0,0,.16-.11.7.7,0,0,0,.14-.18c0-.08.09-.15.14-.23a1.46,1.46,0,0,1,.16-.19.8.8,0,0,1,.19-.13.47.47,0,0,1,.24-.05.41.41,0,0,1,.33.16q.14.16.27.36a1.93,1.93,0,0,0,.14.24.4.4,0,0,0,.13.13.38.38,0,0,0,.16,0h.32v.78ZM51,55l0,.06,0,.07a1.11,1.11,0,0,0,.3.17.84.84,0,0,0,.26.06c.05,0,.08,0,.09,0a.34.34,0,0,0,0-.14A.72.72,0,0,0,51.5,55a.25.25,0,0,0-.22-.13Q51.13,54.83,51,55Z"/><path class="cls-1" d="M54.88,55.94a1,1,0,0,1-.5-.11.84.84,0,0,1-.35-.35,1.48,1.48,0,0,1-.54.35,2.11,2.11,0,0,1-.68.11h-.2s0,0,0,0v-.69s0,0,0,0h.21c.48,0,.78-.09.89-.26a.53.53,0,0,0-.2-.16.8.8,0,0,0-.34-.06.88.88,0,0,1,.09-.41.79.79,0,0,1,.23-.28,1,1,0,0,1,.34-.16,1.33,1.33,0,0,1,.4,0,1.24,1.24,0,0,1,.27,0,.92.92,0,0,1,.23.09.44.44,0,0,1,.16.17.51.51,0,0,1,0,.44,1.36,1.36,0,0,1-.11.2,1.46,1.46,0,0,1-.16.19l-.19.17c0,.06.21.09.5.09h.31v.78Z"/><path class="cls-1" d="M55.11,55.21s0,0,0,0h.1a1.19,1.19,0,0,0,.46-.08.63.63,0,0,0,.28-.23l.16-.29a2.9,2.9,0,0,1,.19-.29,1.2,1.2,0,0,1,.23-.22.62.62,0,0,1,.31-.08.5.5,0,0,1,.34.11.84.84,0,0,1,.22.27,1.33,1.33,0,0,1,.13.35,2.11,2.11,0,0,1,0,.33,1.24,1.24,0,0,1,0,.27.79.79,0,0,1-.1.27.55.55,0,0,1-.17.2.36.36,0,0,1-.25.08.93.93,0,0,1-.45-.11,2.14,2.14,0,0,1-.39-.24,1.26,1.26,0,0,1-.4.33,1.35,1.35,0,0,1-.57.11h-.1s0,0,0,0Zm1.76-.63c-.15,0-.27.09-.36.34a1.34,1.34,0,0,0,.23.16.85.85,0,0,0,.24.08c.08,0,.13,0,.14-.09a.38.38,0,0,0,0-.15.88.88,0,0,0,0-.15.36.36,0,0,0-.08-.12A.25.25,0,0,0,56.87,54.58Z"/><path class="cls-2" d="M23.07,4.56c11,13-9.71,21-19,19.18-12-2.81,5.12-35.55,19-19.18"/><path class="cls-3" d="M32.25,13.94c0,6.28,1.48,10.19,5.48,10,47.74-2.69-5.48-27.77-5.48-10"/><path d="M0,37.42a3,3,0,0,1,.3-1.35c.2-.39.42-.79.66-1.19a.67.67,0,0,1-.22-.17l.61-1.16C2.9,34.75,3.67,35.89,3.67,37a2.55,2.55,0,0,1-.13.84,1.94,1.94,0,0,1-.38.71,1.85,1.85,0,0,1-.62.47,2.07,2.07,0,0,1-.84.17,1.59,1.59,0,0,1-1.27-.49A1.78,1.78,0,0,1,0,37.42ZM2.66,37a1.35,1.35,0,0,0-.35-.88,6.64,6.64,0,0,0-.75-.75,5.94,5.94,0,0,0-.47.87,2.25,2.25,0,0,0-.21.89.57.57,0,0,0,.28.53,1.06,1.06,0,0,0,.61.17,1.09,1.09,0,0,0,.61-.21A.71.71,0,0,0,2.66,37Z"/><path d="M5.17,38.84a1.92,1.92,0,0,1-.68-.79A3.18,3.18,0,0,1,4.21,37c0-.41-.06-.82-.06-1.22V29.67l1-.66v7.21c0,.22,0,.44,0,.65a1.41,1.41,0,0,0,.16.56,1.05,1.05,0,0,0,.4.41,1.5,1.5,0,0,0,.73.15v1.16A2.24,2.24,0,0,1,5.17,38.84Z"/><path d="M12.6,39.15a2.06,2.06,0,0,1-.76-.14,3.15,3.15,0,0,1-.7-.43,10,10,0,0,1-.8-.74c-.28-.29-.63-.63-1-1a2.54,2.54,0,0,1-.21,1.1,1.91,1.91,0,0,1-.59.72,2.36,2.36,0,0,1-.88.39,4.84,4.84,0,0,1-1.11.12H6.45a1,1,0,0,1-.25,0c-.07,0-.11,0-.11-.08V38.1c0-.05,0-.08.11-.09a1,1,0,0,1,.25,0c1.43,0,2.14-.42,2.14-1.26a1.52,1.52,0,0,0-.27-.84,5.58,5.58,0,0,0-.62-.78c-.24-.24-.47-.47-.71-.67a5.48,5.48,0,0,1-.53-.5c0-.38,0-.66,0-.84s0-.29.1-.32a29.25,29.25,0,0,1,3.18-1.93C10.9,30.28,12,29.79,13,29.39l-.18,1.2-.69.31-1,.47L10,31.92l-1.1.56L8,33c-.28.17-.48.3-.62.4q1.23,1.16,2,2c.54.57,1,1.05,1.4,1.43a5.6,5.6,0,0,0,1.08.86A2.11,2.11,0,0,0,13,38h.44v1.16ZM12.16,29c-.41.19-1.07.52-2,1s-2.11,1.09-3.57,1.86l.06-.69q1.62-.92,3-1.65c.92-.48,1.77-.92,2.56-1.31Z"/><path d="M13,38.1q0-.08.12-.09a1,1,0,0,1,.25,0h.31a2.08,2.08,0,0,0,1-.19.59.59,0,0,0,.37-.57,1.17,1.17,0,0,0-.22-.64c-.16-.22-.3-.42-.44-.6l.81-.87a3.52,3.52,0,0,1,.58.93A3.11,3.11,0,0,1,16,37.14c0,1.34-.79,2-2.36,2h-.25a1,1,0,0,1-.25,0c-.08,0-.12,0-.12-.08Z"/><path d="M30.7,39.15a2,2,0,0,1-.76-.14,3.15,3.15,0,0,1-.7-.43c-.23-.2-.49-.44-.78-.74l-1.05-1v.08a1.51,1.51,0,0,1-.27.89,2.41,2.41,0,0,1-.71.67,4.41,4.41,0,0,1-1,.47,8.87,8.87,0,0,1-1.18.31,10,10,0,0,1-1.19.16c-.4,0-.75.05-1.06.05s-.91,0-1.39-.08a4.62,4.62,0,0,1-1.33-.3,2.45,2.45,0,0,1-1-.7,1.91,1.91,0,0,1-.39-1.27,2.3,2.3,0,0,1,.14-.79,2.51,2.51,0,0,1,.35-.67l.74.22a3.2,3.2,0,0,0-.24.57,2,2,0,0,0-.06.47.93.93,0,0,0,.34.78,2.23,2.23,0,0,0,.83.41,5.1,5.1,0,0,0,1.08.16l1.06,0,.89-.06c.33,0,.66-.06,1-.11s.66-.12,1-.2a4.44,4.44,0,0,0,.85-.3,2.24,2.24,0,0,0,.61-.41.74.74,0,0,0,.23-.54,1.61,1.61,0,0,0-.3-.81,5.57,5.57,0,0,0-.62-.76c-.23-.23-.46-.45-.68-.65a5,5,0,0,1-.51-.49c0-.38,0-.66,0-.84s.06-.29.11-.32a27.32,27.32,0,0,1,3.17-1.93c1.11-.57,2.17-1.06,3.16-1.46l-.16,1.2-.68.31c-.3.14-.63.29-1,.47l-1.12.55-1.1.56-.94.52a7.27,7.27,0,0,0-.61.4q1.23,1.16,2,2c.53.57,1,1.05,1.4,1.43A5.6,5.6,0,0,0,30,37.7a2.1,2.1,0,0,0,1.07.29h.44v1.16Z"/><path d="M31.14,38.1q0-.08.12-.09a1,1,0,0,1,.24,0h.32a2.11,2.11,0,0,0,1-.19.59.59,0,0,0,.37-.57,1.12,1.12,0,0,0-.23-.64c-.15-.22-.29-.42-.43-.6l.8-.87a3.56,3.56,0,0,1,.59.93,3.11,3.11,0,0,1,.22,1.09q0,2-2.37,2H31.5a1,1,0,0,1-.24,0c-.08,0-.12,0-.12-.08Z"/><path d="M49.4,39.16a1.67,1.67,0,0,1-.92-.21,1.1,1.1,0,0,1-.45-.59,1.29,1.29,0,0,1-.61.63,2.07,2.07,0,0,1-1.73,0,1.54,1.54,0,0,1-.63-.61,1.31,1.31,0,0,1-.61.6,1.92,1.92,0,0,1-.87.21,2.32,2.32,0,0,1-.46,0,1.31,1.31,0,0,1-.44-.19,4.15,4.15,0,0,1-.21,1.57,4.22,4.22,0,0,1-.78,1.35,3.84,3.84,0,0,1-1.29.94,4.18,4.18,0,0,1-1.77.36,3.52,3.52,0,0,1-2-.52,3,3,0,0,1-1.09-1.34,3.58,3.58,0,0,1-.22-1.8A4.9,4.9,0,0,1,36,37.6l.75.35A6.55,6.55,0,0,0,36.38,39a3.85,3.85,0,0,0-.08,1,1.89,1.89,0,0,0,.42,1.12,2.21,2.21,0,0,0,.91.66,2.92,2.92,0,0,0,1.16.21,3.47,3.47,0,0,0,1.2-.24,3.05,3.05,0,0,0,1-.69A2.26,2.26,0,0,0,41.54,40a3.28,3.28,0,0,0,0-1.39,4.38,4.38,0,0,0-.63-1.4l.91-.66a5,5,0,0,0,.71,1.06,1.37,1.37,0,0,0,1,.42h.18a1,1,0,0,0,.77-.28,1.73,1.73,0,0,0,.24-1.07v-.13l.8-.3c0,.23,0,.44,0,.66a2,2,0,0,0,.16.57,1,1,0,0,0,.33.41.91.91,0,0,0,.58.16,1,1,0,0,0,.56-.13.8.8,0,0,0,.34-.34,1.7,1.7,0,0,0,.17-.48,3.24,3.24,0,0,0,0-.55l.74-.28q0,.39,0,.72a2.18,2.18,0,0,0,.15.56.89.89,0,0,0,.36.36,1.43,1.43,0,0,0,.64.12h.13v1.17Z"/><path d="M49.37,38.1s0-.07.12-.08a.93.93,0,0,1,.24,0h1a5.82,5.82,0,0,0,1.33-.13,6.81,6.81,0,0,0,1.05-.35,10.48,10.48,0,0,0,.95-.47c.31-.17.65-.34,1-.49l-1-.41-.69-.3L53,35.66a1.11,1.11,0,0,0-.3-.06,1.51,1.51,0,0,0-.55.13,1.66,1.66,0,0,0-.57.45l-.71-.31a3.13,3.13,0,0,1,.86-1.1,1.55,1.55,0,0,1,.86-.35,2.47,2.47,0,0,1,1.08.29c.39.2.84.39,1.34.59.23.11.44.19.63.26a5.54,5.54,0,0,0,.58.17,5.43,5.43,0,0,0,.62.09c.23,0,.5,0,.82,0L57.35,37a5.34,5.34,0,0,0-.58,0l-.48.05a3.18,3.18,0,0,0-1.21.45l-1.19.7a9.17,9.17,0,0,1-1.37.66,4.93,4.93,0,0,1-1.77.29h-1a.93.93,0,0,1-.24,0c-.08,0-.12-.05-.12-.08Z"/><rect x="30.6" y="40.33" width="1.04" height="1.04" transform="translate(38 -10.04) rotate(45)"/><rect x="31.89" y="40.33" width="1.04" height="1.04" transform="translate(38.38 -10.95) rotate(45)"/><rect x="12.53" y="33.56" width="1.04" height="1.04" transform="translate(27.92 0.76) rotate(45)"/><path d="M37.9,44.9l-2.51.7-.09-.44,2.49-.75Z"/><path class="cls-1" d="M.85,50.21H0v-.59a1.56,1.56,0,0,1,.08-.55.73.73,0,0,1,.21-.35,1.06,1.06,0,0,1,.39-.23l.11.29a.62.62,0,0,0-.47.61h.5Z"/></svg>