<svg id="Layer_1" data-name="Layer 1" xmlns="http://www.w3.org/2000/svg" viewBox="0 0 306.26 246.71"><defs><style>.cls-1{fill:#005879;}</style></defs><path d="M37.64,7A42.33,42.33,0,0,1,46.23.45V0h-.32a42.63,42.63,0,0,0-8.65,6.59A66,66,0,0,0,29,16.42h.68A65.5,65.5,0,0,1,37.64,7Z"/><path d="M8.88,35.75a42,42,0,0,1,8.59-6.53v-.46h-.32A42.45,42.45,0,0,0,8.5,35.35,66.55,66.55,0,0,0,.22,45.18H.89A65.59,65.59,0,0,1,8.88,35.75Z"/><path d="M46.45,38.64v-.57l-1.76-.41a98.64,98.64,0,0,0-15.93-2.35v.55A98.31,98.31,0,0,1,44.57,38.2Z"/><path d="M17.8,9.88V9.31L16,8.9A98.7,98.7,0,0,0,.11,6.54V7.1a96.93,96.93,0,0,1,15.8,2.34Z"/><path d="M75.32,9.88V9.31L73.56,8.9A98.74,98.74,0,0,0,57.64,6.54V7.1a97.25,97.25,0,0,1,15.8,2.34Z"/><path d="M95.17,7A42.27,42.27,0,0,1,103.75.45V0h-.31a42.42,42.42,0,0,0-8.66,6.59,65.37,65.37,0,0,0-8.27,9.83h.67A66.22,66.22,0,0,1,95.17,7Z"/><path d="M66.41,35.75A41.64,41.64,0,0,1,75,29.22v-.46h-.32A43,43,0,0,0,66,35.35a65.87,65.87,0,0,0-8.27,9.83h.67A65,65,0,0,1,66.41,35.75Z"/><path d="M104,38.64v-.57l-1.77-.41a98.52,98.52,0,0,0-15.92-2.35v.55a98.19,98.19,0,0,1,15.8,2.34Z"/><path d="M37.64,64.51A42,42,0,0,1,46.23,58v-.45h-.32a42.58,42.58,0,0,0-8.65,6.58A66.63,66.63,0,0,0,29,74h.68A65.5,65.5,0,0,1,37.64,64.51Z"/><path d="M17.69,67.4v-.56l-1.76-.42A99.76,99.76,0,0,0,0,64.07v.55A99.32,99.32,0,0,1,15.8,67Z"/><path d="M8.88,93.27a42.33,42.33,0,0,1,8.59-6.53v-.45h-.32A42.09,42.09,0,0,0,8.5,92.88a66,66,0,0,0-8.28,9.83H.89A66.22,66.22,0,0,1,8.88,93.27Z"/><path d="M46.45,96.17V95.6l-1.76-.41a98.7,98.7,0,0,0-15.93-2.36v.56a98.25,98.25,0,0,1,15.81,2.33Z"/><path class="cls-1" d="M95.17,64.51A41.91,41.91,0,0,1,103.75,58v-.45h-.31a42.36,42.36,0,0,0-8.66,6.58A66,66,0,0,0,86.51,74h.67A66.22,66.22,0,0,1,95.17,64.51Z"/><path d="M75.21,67.4v-.56c-.58-.15-1.17-.28-1.76-.42a99.81,99.81,0,0,0-15.92-2.35v.55A99.49,99.49,0,0,1,73.33,67Z"/><path d="M66.41,93.27A42,42,0,0,1,75,86.74v-.45h-.32A42.63,42.63,0,0,0,66,92.88a65.37,65.37,0,0,0-8.27,9.83h.67A65.57,65.57,0,0,1,66.41,93.27Z"/><path d="M104,96.17V95.6l-1.77-.41a98.58,98.58,0,0,0-15.92-2.36v.56a98.14,98.14,0,0,1,15.8,2.33Z"/><path d="M153.53,7A42.33,42.33,0,0,1,162.12.45V0h-.32a42.09,42.09,0,0,0-8.65,6.59,66,66,0,0,0-8.28,9.83h.68A65.5,65.5,0,0,1,153.53,7Z"/><path d="M124.77,35.75a41.91,41.91,0,0,1,8.58-6.53v-.46H133a42.78,42.78,0,0,0-8.66,6.59,65.87,65.87,0,0,0-8.27,9.83h.67A65.59,65.59,0,0,1,124.77,35.75Z"/><path d="M162.34,38.64v-.57l-1.76-.41a98.64,98.64,0,0,0-15.93-2.35v.55a98.31,98.31,0,0,1,15.81,2.34Z"/><path class="cls-1" d="M211.06,7A42.27,42.27,0,0,1,219.64.45V0h-.32a42.63,42.63,0,0,0-8.65,6.59,65.37,65.37,0,0,0-8.27,9.83h.67A65.57,65.57,0,0,1,211.06,7Z"/><path d="M182.3,35.75a41.64,41.64,0,0,1,8.58-6.53v-.46h-.32a43,43,0,0,0-8.65,6.59,66.55,66.55,0,0,0-8.28,9.83h.68A65,65,0,0,1,182.3,35.75Z"/><path d="M219.86,38.64v-.57l-1.76-.41a98.52,98.52,0,0,0-15.92-2.35v.55A98.36,98.36,0,0,1,218,38.2Z"/><path d="M268.58,7A42.33,42.33,0,0,1,277.17.45V0h-.32a42.63,42.63,0,0,0-8.65,6.59,66,66,0,0,0-8.28,9.83h.68A65.5,65.5,0,0,1,268.58,7Z"/><path d="M239.82,35.75a42,42,0,0,1,8.59-6.53v-.46h-.32a42.45,42.45,0,0,0-8.65,6.59,66.55,66.55,0,0,0-8.28,9.83h.67A65.59,65.59,0,0,1,239.82,35.75Z"/><path d="M277.39,38.64v-.57l-1.76-.41a98.64,98.64,0,0,0-15.93-2.35v.55a98.31,98.31,0,0,1,15.81,2.34Z"/><path d="M191.21,9.88V9.31l-1.76-.41a98.7,98.7,0,0,0-15.93-2.36V7.1a97.2,97.2,0,0,1,15.81,2.34Z"/><path d="M133.58,9.88V9.31l-1.77-.41a98.58,98.58,0,0,0-15.92-2.36V7.1a97.09,97.09,0,0,1,15.8,2.34Z"/><path d="M248.74,9.88V9.31L247,8.9a98.7,98.7,0,0,0-15.93-2.36V7.1a96.93,96.93,0,0,1,15.8,2.34Z"/><path d="M306.26,9.88V9.31L304.5,8.9a98.74,98.74,0,0,0-15.92-2.36V7.1a97.25,97.25,0,0,1,15.8,2.34Z"/><path d="M9.11,151a42.27,42.27,0,0,1,8.58-6.53V144h-.31a42.42,42.42,0,0,0-8.66,6.59,65.37,65.37,0,0,0-8.27,9.83h.67A66.22,66.22,0,0,1,9.11,151Z"/><path d="M297.35,35.75a41.64,41.64,0,0,1,8.58-6.53v-.46h-.32A43,43,0,0,0,297,35.35a65.87,65.87,0,0,0-8.27,9.83h.67A65,65,0,0,1,297.35,35.75Z"/><path d="M17.92,182.64v-.57l-1.77-.41A98.52,98.52,0,0,0,.23,179.31v.55A98.19,98.19,0,0,1,16,182.2Z"/><path d="M153.53,64.51A42,42,0,0,1,162.12,58v-.45h-.32a42,42,0,0,0-8.65,6.58A66.63,66.63,0,0,0,144.87,74h.68A65.5,65.5,0,0,1,153.53,64.51Z"/><path d="M133.58,67.4v-.56c-.59-.15-1.18-.28-1.77-.42a99.64,99.64,0,0,0-15.92-2.35v.55A99.32,99.32,0,0,1,131.69,67Z"/><path d="M124.77,93.27a42.27,42.27,0,0,1,8.58-6.53v-.45H133a42.42,42.42,0,0,0-8.66,6.59,65.37,65.37,0,0,0-8.27,9.83h.67A66.22,66.22,0,0,1,124.77,93.27Z"/><path d="M162.34,96.17V95.6l-1.76-.41a98.7,98.7,0,0,0-15.93-2.36v.56a98.25,98.25,0,0,1,15.81,2.33Z"/><path d="M211.06,64.51A41.91,41.91,0,0,1,219.64,58v-.45h-.32a42.58,42.58,0,0,0-8.65,6.58A66,66,0,0,0,202.4,74h.67A65.57,65.57,0,0,1,211.06,64.51Z"/><path d="M191.1,67.4v-.56c-.58-.15-1.17-.28-1.76-.42a99.76,99.76,0,0,0-15.93-2.35v.55A99.44,99.44,0,0,1,189.22,67Z"/><path d="M182.3,93.27a42,42,0,0,1,8.58-6.53v-.45h-.32a42.63,42.63,0,0,0-8.65,6.59,66,66,0,0,0-8.28,9.83h.68A65.57,65.57,0,0,1,182.3,93.27Z"/><path d="M219.86,96.17V95.6l-1.76-.41a98.58,98.58,0,0,0-15.92-2.36v.56A98.3,98.3,0,0,1,218,95.72Z"/><path d="M268.58,64.51A42,42,0,0,1,277.17,58v-.45h-.32a42.58,42.58,0,0,0-8.65,6.58A66.63,66.63,0,0,0,259.92,74h.68A65.5,65.5,0,0,1,268.58,64.51Z"/><path d="M248.63,67.4v-.56l-1.76-.42a99.76,99.76,0,0,0-15.93-2.35v.55A99.32,99.32,0,0,1,246.74,67Z"/><path d="M239.82,93.27a42.33,42.33,0,0,1,8.59-6.53v-.45h-.32a42.09,42.09,0,0,0-8.65,6.59,66,66,0,0,0-8.28,9.83h.67A66.22,66.22,0,0,1,239.82,93.27Z"/><path d="M277.39,96.17V95.6l-1.76-.41a98.7,98.7,0,0,0-15.93-2.36v.56a98.25,98.25,0,0,1,15.81,2.33Z"/><path d="M9.11,208.51A41.91,41.91,0,0,1,17.69,202v-.45h-.31a42.36,42.36,0,0,0-8.66,6.58A66,66,0,0,0,.45,218h.67A66.22,66.22,0,0,1,9.11,208.51Z"/><path d="M306.15,67.4v-.56c-.58-.15-1.17-.28-1.76-.42a99.81,99.81,0,0,0-15.92-2.35v.55A99.49,99.49,0,0,1,304.27,67Z"/><path d="M37.64,121.51A42,42,0,0,1,46.23,115v-.45h-.32a42.58,42.58,0,0,0-8.65,6.58A66.63,66.63,0,0,0,29,131h.68A65.5,65.5,0,0,1,37.64,121.51Z"/><path d="M17.69,124.4v-.56l-1.76-.42A99.76,99.76,0,0,0,0,121.07v.55A99.32,99.32,0,0,1,15.8,124Z"/><path class="cls-1" d="M95.17,121.51a41.91,41.91,0,0,1,8.58-6.53v-.45h-.31a42.36,42.36,0,0,0-8.66,6.58A66,66,0,0,0,86.51,131h.67A66.22,66.22,0,0,1,95.17,121.51Z"/><path d="M75.21,124.4v-.56c-.58-.15-1.17-.28-1.76-.42a99.81,99.81,0,0,0-15.92-2.35v.55A99.49,99.49,0,0,1,73.33,124Z"/><path d="M153.53,121.51a42,42,0,0,1,8.59-6.53v-.45h-.32a42,42,0,0,0-8.65,6.58,66.63,66.63,0,0,0-8.28,9.84h.68A65.5,65.5,0,0,1,153.53,121.51Z"/><path d="M133.58,124.4v-.56c-.59-.15-1.18-.28-1.77-.42a99.64,99.64,0,0,0-15.92-2.35v.55a99.32,99.32,0,0,1,15.8,2.34Z"/><path d="M211.06,121.51a41.91,41.91,0,0,1,8.58-6.53v-.45h-.32a42.58,42.58,0,0,0-8.65,6.58A66,66,0,0,0,202.4,131h.67A65.57,65.57,0,0,1,211.06,121.51Z"/><path d="M191.1,124.4v-.56c-.58-.15-1.17-.28-1.76-.42a99.76,99.76,0,0,0-15.93-2.35v.55A99.44,99.44,0,0,1,189.22,124Z"/><path d="M268.58,121.51a42,42,0,0,1,8.59-6.53v-.45h-.32a42.58,42.58,0,0,0-8.65,6.58,66.63,66.63,0,0,0-8.28,9.84h.68A65.5,65.5,0,0,1,268.58,121.51Z"/><path d="M248.63,124.4v-.56l-1.76-.42a99.76,99.76,0,0,0-15.93-2.35v.55a99.32,99.32,0,0,1,15.8,2.34Z"/><path d="M306.15,124.4v-.56c-.58-.15-1.17-.28-1.76-.42a99.81,99.81,0,0,0-15.92-2.35v.55a99.49,99.49,0,0,1,15.8,2.34Z"/><path d="M297.35,93.27a42,42,0,0,1,8.58-6.53v-.45h-.32A42.63,42.63,0,0,0,297,92.88a65.37,65.37,0,0,0-8.27,9.83h.67A65.57,65.57,0,0,1,297.35,93.27Z"/><path d="M297.35,149.75a41.64,41.64,0,0,1,8.58-6.53v-.46h-.32a43,43,0,0,0-8.65,6.59,65.87,65.87,0,0,0-8.27,9.83h.67A65,65,0,0,1,297.35,149.75Z"/><path d="M306.15,181.4v-.56c-.58-.15-1.17-.28-1.76-.42a99.81,99.81,0,0,0-15.92-2.35v.55a99.49,99.49,0,0,1,15.8,2.34Z"/><path d="M306.15,238.4v-.56c-.58-.15-1.17-.28-1.76-.42a99.81,99.81,0,0,0-15.92-2.35v.55a99.49,99.49,0,0,1,15.8,2.34Z"/><path d="M297.35,207.27a42,42,0,0,1,8.58-6.53v-.45h-.32a42.63,42.63,0,0,0-8.65,6.59,65.37,65.37,0,0,0-8.27,9.83h.67A65.57,65.57,0,0,1,297.35,207.27Z"/><path class="cls-1" d="M17.92,240.17v-.57l-1.77-.41A98.58,98.58,0,0,0,.23,236.83v.56A98.14,98.14,0,0,1,16,239.72Z"/><path d="M67.47,151a42.33,42.33,0,0,1,8.59-6.53V144h-.32a42.09,42.09,0,0,0-8.65,6.59,66,66,0,0,0-8.28,9.83h.68A65.5,65.5,0,0,1,67.47,151Z"/><path d="M38.71,179.75a41.91,41.91,0,0,1,8.58-6.53v-.46H47a42.78,42.78,0,0,0-8.66,6.59,65.87,65.87,0,0,0-8.27,9.83h.67A65.59,65.59,0,0,1,38.71,179.75Z"/><path d="M76.28,182.64v-.57l-1.76-.41a98.64,98.64,0,0,0-15.93-2.35v.55a98,98,0,0,1,15.8,2.34Z"/><path d="M125,151a42,42,0,0,1,8.58-6.53V144h-.32a42.63,42.63,0,0,0-8.65,6.59,65.37,65.37,0,0,0-8.27,9.83H117A65.57,65.57,0,0,1,125,151Z"/><path d="M96.24,179.75a41.64,41.64,0,0,1,8.58-6.53v-.46h-.32a43,43,0,0,0-8.65,6.59,66.55,66.55,0,0,0-8.28,9.83h.68A64.34,64.34,0,0,1,96.24,179.75Z"/><path d="M133.8,182.64v-.57l-1.76-.41a98.52,98.52,0,0,0-15.92-2.35v.55a98.36,98.36,0,0,1,15.8,2.34Z"/><path d="M182.52,151a42.33,42.33,0,0,1,8.59-6.53V144h-.32a42.36,42.36,0,0,0-8.65,6.59,66,66,0,0,0-8.28,9.83h.68A65.5,65.5,0,0,1,182.52,151Z"/><path class="cls-1" d="M153.76,179.75a42,42,0,0,1,8.59-6.53v-.46H162a42.78,42.78,0,0,0-8.66,6.59,67.1,67.1,0,0,0-8.27,9.83h.67A65.59,65.59,0,0,1,153.76,179.75Z"/><path d="M191.33,182.64v-.57l-1.76-.41a98.64,98.64,0,0,0-15.93-2.35v.55a98.31,98.31,0,0,1,15.81,2.34Z"/><path d="M105.15,153.88v-.57l-1.76-.41a98.7,98.7,0,0,0-15.93-2.36v.56a97.2,97.2,0,0,1,15.81,2.34Z"/><path class="cls-1" d="M47.52,153.88v-.57l-1.77-.41a98.58,98.58,0,0,0-15.92-2.36v.56a97.09,97.09,0,0,1,15.8,2.34Z"/><path d="M162.68,153.88v-.57l-1.76-.41A98.7,98.7,0,0,0,145,150.54v.56a97.09,97.09,0,0,1,15.8,2.34Z"/><path d="M220.2,153.88v-.57l-1.76-.41a98.74,98.74,0,0,0-15.92-2.36v.56a97.25,97.25,0,0,1,15.8,2.34Z"/><path d="M240.05,151a42.27,42.27,0,0,1,8.58-6.53V144h-.31a42.42,42.42,0,0,0-8.66,6.59,65.37,65.37,0,0,0-8.27,9.83h.67A66.22,66.22,0,0,1,240.05,151Z"/><path d="M211.29,179.75a41.64,41.64,0,0,1,8.58-6.53v-.46h-.32a43,43,0,0,0-8.65,6.59,65.87,65.87,0,0,0-8.27,9.83h.67A65,65,0,0,1,211.29,179.75Z"/><path d="M248.86,182.64v-.57l-1.77-.41a98.52,98.52,0,0,0-15.92-2.35v.55A98.19,98.19,0,0,1,247,182.2Z"/><path d="M67.47,208.51A42,42,0,0,1,76.06,202v-.45h-.32a42,42,0,0,0-8.65,6.58A66.63,66.63,0,0,0,58.81,218h.68A65.5,65.5,0,0,1,67.47,208.51Z"/><path d="M47.52,211.4v-.56l-1.77-.42a99.64,99.64,0,0,0-15.92-2.35v.55A99.32,99.32,0,0,1,45.63,211Z"/><path d="M38.71,237.27a42.27,42.27,0,0,1,8.58-6.53v-.45H47a42.42,42.42,0,0,0-8.66,6.59,65.37,65.37,0,0,0-8.27,9.83h.67A66.22,66.22,0,0,1,38.71,237.27Z"/><path d="M76.28,240.17v-.57l-1.76-.41a98.7,98.7,0,0,0-15.93-2.36v.56a98,98,0,0,1,15.8,2.33Z"/><path d="M125,208.51a41.64,41.64,0,0,1,8.58-6.53v-.45h-.32a42.58,42.58,0,0,0-8.65,6.58,66,66,0,0,0-8.27,9.84H117A65.57,65.57,0,0,1,125,208.51Z"/><path d="M105,211.4v-.56c-.58-.15-1.17-.28-1.76-.42a99.76,99.76,0,0,0-15.93-2.35v.55A99.44,99.44,0,0,1,103.16,211Z"/><path d="M96.24,237.27a42,42,0,0,1,8.58-6.53v-.45h-.32a42.63,42.63,0,0,0-8.65,6.59,66,66,0,0,0-8.28,9.83h.68A64.94,64.94,0,0,1,96.24,237.27Z"/><path d="M133.8,240.17v-.57l-1.76-.41a98.58,98.58,0,0,0-15.92-2.36v.56a98.3,98.3,0,0,1,15.8,2.33Z"/><path d="M182.52,208.51a42,42,0,0,1,8.59-6.53v-.45h-.32a42.31,42.31,0,0,0-8.65,6.58,66.63,66.63,0,0,0-8.28,9.84h.68A65.5,65.5,0,0,1,182.52,208.51Z"/><path d="M162.57,211.4v-.56l-1.76-.42a99.76,99.76,0,0,0-15.93-2.35v.55a99.32,99.32,0,0,1,15.8,2.34Z"/><path d="M153.76,237.27a42.33,42.33,0,0,1,8.59-6.53v-.45H162a42.42,42.42,0,0,0-8.66,6.59,66.58,66.58,0,0,0-8.27,9.83h.67A66.22,66.22,0,0,1,153.76,237.27Z"/><path d="M191.33,240.17v-.57l-1.76-.41a98.7,98.7,0,0,0-15.93-2.36v.56a98.25,98.25,0,0,1,15.81,2.33Z"/><path d="M240.05,208.51a41.91,41.91,0,0,1,8.58-6.53v-.45h-.31a42.36,42.36,0,0,0-8.66,6.58,66,66,0,0,0-8.27,9.84h.67A66.22,66.22,0,0,1,240.05,208.51Z"/><path d="M220.09,211.4v-.56c-.58-.15-1.17-.28-1.76-.42a99.81,99.81,0,0,0-15.92-2.35v.55a99.49,99.49,0,0,1,15.8,2.34Z"/><path d="M211.29,237.27a42,42,0,0,1,8.58-6.53v-.45h-.32a42.63,42.63,0,0,0-8.65,6.59,65.37,65.37,0,0,0-8.27,9.83h.67A65.57,65.57,0,0,1,211.29,237.27Z"/><path class="cls-1" d="M248.86,240.17v-.57l-1.77-.41a98.58,98.58,0,0,0-15.92-2.36v.56a98.14,98.14,0,0,1,15.8,2.33Z"/><path class="cls-1" d="M269.65,179.75a41.91,41.91,0,0,1,8.58-6.53v-.46h-.31a42.78,42.78,0,0,0-8.66,6.59,65.87,65.87,0,0,0-8.27,9.83h.67A65.59,65.59,0,0,1,269.65,179.75Z"/><path d="M278.46,153.88v-.57l-1.77-.41a98.58,98.58,0,0,0-15.92-2.36v.56a97.09,97.09,0,0,1,15.8,2.34Z"/><path d="M278.46,211.4v-.56l-1.77-.42a99.64,99.64,0,0,0-15.92-2.35v.55a99.32,99.32,0,0,1,15.8,2.34Z"/><path d="M269.65,237.27a42.27,42.27,0,0,1,8.58-6.53v-.45h-.31a42.42,42.42,0,0,0-8.66,6.59,65.37,65.37,0,0,0-8.27,9.83h.67A66.22,66.22,0,0,1,269.65,237.27Z"/></svg>