<svg id="Layer_1" data-name="Layer 1" xmlns="http://www.w3.org/2000/svg" viewBox="0 0 12.62 12.62"><defs><style>.cls-1{fill:#231f20;}.cls-2{fill:#fff;fill-rule:evenodd;}</style></defs><circle class="cls-1" cx="6.31" cy="6.31" r="6.31"/><path class="cls-2" d="M4.81,3.74c-.13-.3-.25-.26-.34-.26H4.18a.56.56,0,0,0-.4.19,1.66,1.66,0,0,0-.53,1.25,2.9,2.9,0,0,0,.62,1.56A6.67,6.67,0,0,0,6.43,8.74c.36.15.64.25.86.32a2.1,2.1,0,0,0,1,0,1.51,1.51,0,0,0,1-.71,1.19,1.19,0,0,0,.09-.71c0-.07-.14-.1-.29-.18S8.16,7.07,8,7,7.79,7,7.69,7.1s-.39.49-.48.59-.17.11-.32,0A3.91,3.91,0,0,1,5.68,7a4.6,4.6,0,0,1-.84-1,.22.22,0,0,1,.07-.31l.22-.26a.84.84,0,0,0,.15-.26.27.27,0,0,0,0-.26C5.23,4.78,4.93,4,4.81,3.74Z"/></svg>