<svg id="Layer_1" data-name="Layer 1" xmlns="http://www.w3.org/2000/svg" viewBox="0 0 709.14 25.85"><defs><style>.cls-1{fill:#fff;}</style></defs><path class="cls-1" d="M13.63,11A66.27,66.27,0,0,1,27.15.72V0h-.5A66.83,66.83,0,0,0,13,10.37,103.47,103.47,0,0,0,0,25.85H1.06A103,103,0,0,1,13.63,11Z"/><path class="cls-1" d="M72.77,15.55v-.89c-.92-.23-1.84-.44-2.77-.66a155.86,155.86,0,0,0-25.07-3.7v.87a155.79,155.79,0,0,1,24.88,3.68Z"/><path class="cls-1" d="M104.19,11A65.94,65.94,0,0,1,117.7.72V0h-.5a66.83,66.83,0,0,0-13.62,10.37,103.47,103.47,0,0,0-13,15.48h1.06A103.09,103.09,0,0,1,104.19,11Z"/><path class="cls-1" d="M163.32,15.55v-.89c-.92-.23-1.84-.44-2.77-.66a155.7,155.7,0,0,0-25.07-3.7v.87a155.79,155.79,0,0,1,24.88,3.68Z"/><path class="cls-1" d="M194.74,11A65.94,65.94,0,0,1,208.25.72V0h-.5a67.11,67.11,0,0,0-13.62,10.37,103.4,103.4,0,0,0-13,15.48h1.06A103,103,0,0,1,194.74,11Z"/><path class="cls-1" d="M253.88,15.55v-.89c-.92-.23-1.85-.44-2.77-.66A156,156,0,0,0,226,10.3v.87a155.51,155.51,0,0,1,24.87,3.68Z"/><path class="cls-1" d="M285.29,11A66.27,66.27,0,0,1,298.81.72V0h-.5a66.83,66.83,0,0,0-13.62,10.37,103.47,103.47,0,0,0-13,15.48h1.06A103,103,0,0,1,285.29,11Z"/><path class="cls-1" d="M344.43,15.55v-.89c-.92-.23-1.84-.44-2.77-.66a155.86,155.86,0,0,0-25.07-3.7v.87a155.79,155.79,0,0,1,24.88,3.68Z"/><path class="cls-1" d="M378.34,11A66.27,66.27,0,0,1,391.86.72V0h-.5a66.83,66.83,0,0,0-13.62,10.37,103.47,103.47,0,0,0-13,15.48h1.06A103,103,0,0,1,378.34,11Z"/><path class="cls-1" d="M437.48,15.55v-.89c-.92-.23-1.84-.44-2.77-.66a155.86,155.86,0,0,0-25.07-3.7v.87a155.79,155.79,0,0,1,24.88,3.68Z"/><path class="cls-1" d="M468.9,11A65.94,65.94,0,0,1,482.41.72V0h-.5a66.83,66.83,0,0,0-13.62,10.37,103.47,103.47,0,0,0-13,15.48h1.06A102.46,102.46,0,0,1,468.9,11Z"/><path class="cls-1" d="M528,15.55v-.89c-.92-.23-1.84-.44-2.77-.66a155.7,155.7,0,0,0-25.07-3.7v.87a155.79,155.79,0,0,1,24.88,3.68Z"/><path class="cls-1" d="M559.45,11A65.94,65.94,0,0,1,573,.72V0h-.5a67.11,67.11,0,0,0-13.62,10.37,103.4,103.4,0,0,0-13,15.48h1.06A103,103,0,0,1,559.45,11Z"/><path class="cls-1" d="M618.59,15.55v-.89c-.92-.23-1.85-.44-2.77-.66a156,156,0,0,0-25.07-3.7v.87a155.68,155.68,0,0,1,24.87,3.68Z"/><path class="cls-1" d="M650,11A66.27,66.27,0,0,1,663.52.72V0H663A66.83,66.83,0,0,0,649.4,10.37a103.47,103.47,0,0,0-13,15.48h1.06A103,103,0,0,1,650,11Z"/><path class="cls-1" d="M709.14,15.55v-.89c-.92-.23-1.84-.44-2.77-.66a155.86,155.86,0,0,0-25.07-3.7v.87a155.79,155.79,0,0,1,24.88,3.68Z"/></svg>