<svg id="Layer_1" data-name="Layer 1" xmlns="http://www.w3.org/2000/svg" viewBox="0 0 94.54 14.19"><defs><style>.cls-1{fill:#fff;}</style></defs><path class="cls-1" d="M0,.18H4.17V.77H.65V3.25H3.93v.59H.65v3.3H0Z"/><path class="cls-1" d="M5.47.18H9.73V.77H6.12V3.25H9.51v.59H6.12V6.55H9.89v.59H5.47Z"/><path class="cls-1" d="M11.31.18h4.26V.77H12V3.25h3.38v.59H12V6.55h3.76v.59H11.31Z"/><path class="cls-1" d="M17.14.18h.65V6.55H21v.59h-3.9Z"/><path class="cls-1" d="M22.06.18h.65v7h-.65Z"/><path class="cls-1" d="M24.62.18h.84l4.24,6.1h0V.18h.65v7h-.84L25.29,1h0v6.1h-.65Z"/><path class="cls-1" d="M38,6.69a4.64,4.64,0,0,1-1.26.49,6.6,6.6,0,0,1-1.33.14A3.89,3.89,0,0,1,34,7.05a3.17,3.17,0,0,1-1.13-.76,3.39,3.39,0,0,1-.74-1.16,3.92,3.92,0,0,1-.27-1.47,3.92,3.92,0,0,1,.27-1.47A3.45,3.45,0,0,1,32.83,1,3.33,3.33,0,0,1,34,.27,3.89,3.89,0,0,1,35.43,0a3.36,3.36,0,0,1,2.5,1l-.47.5a1.48,1.48,0,0,0-.39-.35,2.69,2.69,0,0,0-.5-.28A5.22,5.22,0,0,0,36,.65a2.93,2.93,0,0,0-.58-.06A3,3,0,0,0,34.2.83a2.65,2.65,0,0,0-.93.65,2.81,2.81,0,0,0-.59,1,3.42,3.42,0,0,0-.21,1.21,3.42,3.42,0,0,0,.21,1.21,2.81,2.81,0,0,0,.59,1,2.65,2.65,0,0,0,.93.65,3,3,0,0,0,1.23.24,5.87,5.87,0,0,0,1-.09,2.86,2.86,0,0,0,.89-.32V4H35.7v-.6H38Z"/><path class="cls-1" d="M42,3.66a4.13,4.13,0,0,1,.26-1.47A3.61,3.61,0,0,1,43,1,3.48,3.48,0,0,1,44.18.27a4.08,4.08,0,0,1,2.92,0A3.48,3.48,0,0,1,48.24,1,3.61,3.61,0,0,1,49,2.19a4.13,4.13,0,0,1,.26,1.47A4.13,4.13,0,0,1,49,5.13a3.55,3.55,0,0,1-.74,1.16,3.31,3.31,0,0,1-1.14.76,4.08,4.08,0,0,1-2.92,0A3.31,3.31,0,0,1,43,6.29a3.55,3.55,0,0,1-.74-1.16A4.13,4.13,0,0,1,42,3.66Zm.65,0a3.66,3.66,0,0,0,.2,1.21,3,3,0,0,0,.59,1,2.65,2.65,0,0,0,.93.65,3.07,3.07,0,0,0,1.23.24,3,3,0,0,0,1.22-.24,2.48,2.48,0,0,0,.93-.65,2.83,2.83,0,0,0,.6-1,3.76,3.76,0,0,0,0-2.42,2.83,2.83,0,0,0-.6-1,2.48,2.48,0,0,0-.93-.65A3,3,0,0,0,45.64.59a3.07,3.07,0,0,0-1.23.24,2.65,2.65,0,0,0-.93.65,3,3,0,0,0-.59,1A3.66,3.66,0,0,0,42.69,3.66Z"/><path class="cls-1" d="M50.7.18h4.17V.77H51.35V3.25h3.27v.59H51.35v3.3H50.7Z"/><path class="cls-1" d="M60.86.18h.67l2.93,7h-.72L63,5.29H59.29L58.5,7.14h-.68Zm.31.7L59.54,4.7h3.2Z"/><path class="cls-1" d="M68,.18h.65V6.55h3.24v.59H68Z"/><path class="cls-1" d="M72.49,3.66a3.92,3.92,0,0,1,.27-1.47A3.45,3.45,0,0,1,73.5,1,3.33,3.33,0,0,1,74.63.27a4.11,4.11,0,0,1,2.93,0A3.33,3.33,0,0,1,78.69,1a3.45,3.45,0,0,1,.74,1.15,3.92,3.92,0,0,1,.27,1.47,3.92,3.92,0,0,1-.27,1.47,3.39,3.39,0,0,1-.74,1.16,3.17,3.17,0,0,1-1.13.76,4.11,4.11,0,0,1-2.93,0,3.17,3.17,0,0,1-1.13-.76,3.39,3.39,0,0,1-.74-1.16A3.92,3.92,0,0,1,72.49,3.66Zm.65,0a3.42,3.42,0,0,0,.21,1.21,2.81,2.81,0,0,0,.59,1,2.65,2.65,0,0,0,.93.65,3.25,3.25,0,0,0,2.45,0,2.65,2.65,0,0,0,.93-.65,2.81,2.81,0,0,0,.59-1,3.42,3.42,0,0,0,.21-1.21,3.42,3.42,0,0,0-.21-1.21,2.81,2.81,0,0,0-.59-1,2.65,2.65,0,0,0-.93-.65,3.25,3.25,0,0,0-2.45,0,2.65,2.65,0,0,0-.93.65,2.81,2.81,0,0,0-.59,1A3.42,3.42,0,0,0,73.14,3.66Z"/><path class="cls-1" d="M80.7,3.66A3.92,3.92,0,0,1,81,2.19,3.42,3.42,0,0,1,81.7,1,3.48,3.48,0,0,1,82.84.27a4.08,4.08,0,0,1,2.92,0A3.28,3.28,0,0,1,86.9,1a3.45,3.45,0,0,1,.74,1.15,3.92,3.92,0,0,1,.26,1.47,3.92,3.92,0,0,1-.26,1.47,3.39,3.39,0,0,1-.74,1.16,3.13,3.13,0,0,1-1.14.76,4.08,4.08,0,0,1-2.92,0,3.31,3.31,0,0,1-1.14-.76A3.37,3.37,0,0,1,81,5.13,3.92,3.92,0,0,1,80.7,3.66Zm.65,0a3.42,3.42,0,0,0,.21,1.21,2.67,2.67,0,0,0,.59,1,2.48,2.48,0,0,0,.93.65,3,3,0,0,0,1.22.24,3,3,0,0,0,1.23-.24,2.65,2.65,0,0,0,.93-.65,3,3,0,0,0,.59-1,3.42,3.42,0,0,0,.2-1.21,3.42,3.42,0,0,0-.2-1.21,3,3,0,0,0-.59-1,2.65,2.65,0,0,0-.93-.65A3,3,0,0,0,84.3.59a3,3,0,0,0-1.22.24,2.48,2.48,0,0,0-.93.65,2.67,2.67,0,0,0-.59,1A3.42,3.42,0,0,0,81.35,3.66Z"/><path class="cls-1" d="M89.36.18H90V3.25h.06L93.44.18h.9L90.82,3.36l3.72,3.78H93.6l-3.53-3.6H90v3.6h-.65Z"/><path class="cls-1" d="M1.79,11.61H1v1.85a.41.41,0,0,0,.11.3.38.38,0,0,0,.29.1l.21,0,.2-.07,0,.33a1,1,0,0,1-.23.07l-.24,0A.83.83,0,0,1,1,14.13.54.54,0,0,1,.78,14a.65.65,0,0,1-.13-.23,1.35,1.35,0,0,1,0-.29V11.61H0v-.33H.61v-.82H1v.82h.81Z"/><path class="cls-1" d="M2.86,12.7A1.64,1.64,0,0,1,3,12.1a1.54,1.54,0,0,1,.31-.47,1.38,1.38,0,0,1,.47-.31,1.54,1.54,0,0,1,.61-.11,1.44,1.44,0,0,1,.59.11,1.42,1.42,0,0,1,.48.31,1.54,1.54,0,0,1,.31.47,1.69,1.69,0,0,1,0,1.2,1.54,1.54,0,0,1-.31.47,1.28,1.28,0,0,1-.48.31,1.44,1.44,0,0,1-.59.11,1.54,1.54,0,0,1-.61-.11,1.25,1.25,0,0,1-.47-.31A1.54,1.54,0,0,1,3,13.3,1.64,1.64,0,0,1,2.86,12.7Zm.37,0a1.33,1.33,0,0,0,.08.45,1,1,0,0,0,.22.37,1.11,1.11,0,0,0,.83.34,1.14,1.14,0,0,0,.46-.09,1.16,1.16,0,0,0,.36-.25,1,1,0,0,0,.22-.37,1.31,1.31,0,0,0,0-.9,1,1,0,0,0-.22-.37,1.16,1.16,0,0,0-.36-.25,1.14,1.14,0,0,0-.46-.09,1.11,1.11,0,0,0-.83.34,1,1,0,0,0-.22.37A1.33,1.33,0,0,0,3.23,12.7Z"/><path class="cls-1" d="M11.79,13.7a1.3,1.3,0,0,1-.48.37,1.32,1.32,0,0,1-.57.12,1.52,1.52,0,0,1-.6-.11,1.25,1.25,0,0,1-.47-.31,1.38,1.38,0,0,1-.31-.47,1.69,1.69,0,0,1,0-1.2,1.4,1.4,0,0,1,.78-.78,1.52,1.52,0,0,1,.6-.11,1.24,1.24,0,0,1,.58.13,1.38,1.38,0,0,1,.48.36l-.3.22a1.17,1.17,0,0,0-.35-.28.8.8,0,0,0-.41-.1,1.14,1.14,0,0,0-.46.09,1.16,1.16,0,0,0-.36.25,1,1,0,0,0-.22.37,1.31,1.31,0,0,0,0,.9,1,1,0,0,0,.22.37,1.16,1.16,0,0,0,.36.25,1.14,1.14,0,0,0,.46.09.79.79,0,0,0,.43-.11,1,1,0,0,0,.33-.28Z"/><path class="cls-1" d="M12.94,12.08c0-.05,0-.12,0-.19a1.85,1.85,0,0,1,0-.23,1.48,1.48,0,0,0,0-.22c0-.07,0-.12,0-.16h.37c0,.11,0,.21,0,.31a.66.66,0,0,0,0,.19,1.1,1.1,0,0,1,.36-.41.89.89,0,0,1,.54-.16h.11l.11,0-.05.36a.34.34,0,0,0-.14,0,1,1,0,0,0-.41.07.7.7,0,0,0-.29.21.9.9,0,0,0-.17.32,1.23,1.23,0,0,0-.06.39v1.55h-.36Z"/><path class="cls-1" d="M18,13.58a1.24,1.24,0,0,1-.53.47,1.62,1.62,0,0,1-.7.14,1.41,1.41,0,0,1-.59-.11,1.1,1.1,0,0,1-.45-.31,1.35,1.35,0,0,1-.3-.47,2,2,0,0,1-.1-.61,1.63,1.63,0,0,1,.11-.59,1.42,1.42,0,0,1,.29-.47,1.57,1.57,0,0,1,.45-.31,1.56,1.56,0,0,1,1.15,0,1.4,1.4,0,0,1,.41.3,1.27,1.27,0,0,1,.26.43,1.34,1.34,0,0,1,.08.48v.26H15.65a1.33,1.33,0,0,0,0,.3.88.88,0,0,0,.17.35,1,1,0,0,0,.32.3,1.08,1.08,0,0,0,.54.12,1.16,1.16,0,0,0,.54-.13,1.05,1.05,0,0,0,.41-.37Zm-.28-1.12a.86.86,0,0,0-.08-.36,1,1,0,0,0-.21-.29,1.1,1.1,0,0,0-.31-.2,1,1,0,0,0-.39-.07,1,1,0,0,0-.5.12,1.16,1.16,0,0,0-.48.59,1.12,1.12,0,0,0,0,.21Z"/><path class="cls-1" d="M21.63,12.93c0,.14,0,.26,0,.37a3,3,0,0,0,0,.31c0,.09,0,.18,0,.26l0,.25h-.35a3.23,3.23,0,0,1,0-.46h0a1,1,0,0,1-.4.4,1.21,1.21,0,0,1-.6.13,1.47,1.47,0,0,1-.36,0,.86.86,0,0,1-.32-.15.82.82,0,0,1-.23-.26.8.8,0,0,1-.09-.39.73.73,0,0,1,.17-.52,1,1,0,0,1,.4-.28,1.87,1.87,0,0,1,.52-.12l.48,0h.43v-.17a.58.58,0,0,0-.23-.53.94.94,0,0,0-.57-.16,1.29,1.29,0,0,0-.86.32l-.22-.25a1.35,1.35,0,0,1,.51-.3,1.71,1.71,0,0,1,.57-.1,1.32,1.32,0,0,1,.83.24.94.94,0,0,1,.3.78Zm-.73-.24a3.19,3.19,0,0,0-.45,0,2.11,2.11,0,0,0-.4.11.72.72,0,0,0-.28.2.44.44,0,0,0-.1.3.5.5,0,0,0,.21.4l.2.1a.91.91,0,0,0,.23,0,1.16,1.16,0,0,0,.49-.09.76.76,0,0,0,.3-.22.77.77,0,0,0,.16-.31,1.47,1.47,0,0,0,0-.36v-.19Z"/><path class="cls-1" d="M24.58,11.61h-.82v1.85a.41.41,0,0,0,.11.3.39.39,0,0,0,.29.1l.21,0,.21-.07,0,.33-.24.07-.24,0a.86.86,0,0,1-.34-.06.61.61,0,0,1-.23-.15.51.51,0,0,1-.12-.23.92.92,0,0,1,0-.29V11.61h-.62v-.33h.62v-.82h.36v.82h.82Z"/><path class="cls-1" d="M28.31,13.58a1.19,1.19,0,0,1-.53.47,1.59,1.59,0,0,1-.7.14,1.41,1.41,0,0,1-.59-.11,1.17,1.17,0,0,1-.45-.31,1.2,1.2,0,0,1-.29-.47,1.7,1.7,0,0,1-.11-.61,1.63,1.63,0,0,1,.11-.59,1.61,1.61,0,0,1,.29-.47,1.57,1.57,0,0,1,.45-.31,1.56,1.56,0,0,1,1.15,0,1.6,1.6,0,0,1,.42.3,1.43,1.43,0,0,1,.25.43,1.36,1.36,0,0,1,.09.48v.26H26a1.33,1.33,0,0,0,0,.3,1,1,0,0,0,.17.35,1,1,0,0,0,.33.3,1,1,0,0,0,.53.12,1.13,1.13,0,0,0,.54-.13,1.05,1.05,0,0,0,.41-.37ZM28,12.46A.86.86,0,0,0,28,12.1a1,1,0,0,0-.21-.29,1.1,1.1,0,0,0-.31-.2,1,1,0,0,0-.39-.07,1,1,0,0,0-.5.12,1.16,1.16,0,0,0-.48.59,1.12,1.12,0,0,0,0,.21Z"/><path class="cls-1" d="M31.56,11.28H32l.69,2.38h0l.8-2.38h.35l.84,2.38h0l.67-2.38h.37l-.84,2.84h-.38l-.84-2.32h0l-.79,2.32h-.38Z"/><path class="cls-1" d="M36.85,9.47h.37v2.31h0a.91.91,0,0,1,.36-.4,1.06,1.06,0,0,1,.61-.17,1.21,1.21,0,0,1,.54.1.86.86,0,0,1,.32.27,1.13,1.13,0,0,1,.17.39,2.31,2.31,0,0,1,0,.46v1.69h-.37V12.45a1.87,1.87,0,0,0,0-.34.92.92,0,0,0-.11-.29.54.54,0,0,0-.22-.2.63.63,0,0,0-.35-.08,1,1,0,0,0-.39.07,1,1,0,0,0-.31.21,1,1,0,0,0-.21.37,1.52,1.52,0,0,0-.08.51v1.42h-.37Z"/><path class="cls-1" d="M43.05,12.93v.37a3,3,0,0,0,0,.31c0,.09,0,.18,0,.26l0,.25h-.34a2.19,2.19,0,0,1,0-.46h0a1,1,0,0,1-.4.4,1.21,1.21,0,0,1-.6.13,1.47,1.47,0,0,1-.36,0A.94.94,0,0,1,41,14a1,1,0,0,1-.23-.26.8.8,0,0,1-.09-.39.77.77,0,0,1,.17-.52,1,1,0,0,1,.41-.28,1.73,1.73,0,0,1,.51-.12l.48,0h.43v-.17a.6.6,0,0,0-.22-.53,1,1,0,0,0-.58-.16,1.31,1.31,0,0,0-.86.32l-.22-.25a1.44,1.44,0,0,1,.51-.3,1.71,1.71,0,0,1,.57-.1,1.32,1.32,0,0,1,.83.24.94.94,0,0,1,.31.78Zm-.74-.24a3.19,3.19,0,0,0-.45,0,2.11,2.11,0,0,0-.4.11.72.72,0,0,0-.28.2.44.44,0,0,0-.1.3.41.41,0,0,0,.06.23.5.5,0,0,0,.15.17l.2.1.23,0a1.16,1.16,0,0,0,.49-.09.69.69,0,0,0,.3-.22.77.77,0,0,0,.16-.31,1.47,1.47,0,0,0,0-.36v-.19Z"/><path class="cls-1" d="M46,11.61h-.81v1.85a.4.4,0,0,0,.1.3.39.39,0,0,0,.29.1l.21,0,.21-.07,0,.33-.24.07-.24,0a.9.9,0,0,1-.34-.06A.61.61,0,0,1,45,14a.63.63,0,0,1-.12-.23.92.92,0,0,1,0-.29V11.61h-.62v-.33h.62v-.82h.37v.82H46Z"/><path class="cls-1" d="M51.76,13.7a1.35,1.35,0,0,1-.47.37,1.39,1.39,0,0,1-.57.12,1.46,1.46,0,0,1-.6-.11,1.21,1.21,0,0,1-.48-.31,1.35,1.35,0,0,1-.3-.47,1.56,1.56,0,0,1,0-1.2,1.35,1.35,0,0,1,.3-.47,1.33,1.33,0,0,1,.48-.31,1.46,1.46,0,0,1,.6-.11,1.27,1.27,0,0,1,.58.13,1.35,1.35,0,0,1,.47.36l-.29.22a1.31,1.31,0,0,0-.35-.28.86.86,0,0,0-.41-.1,1.19,1.19,0,0,0-.47.09,1.16,1.16,0,0,0-.36.25,1.14,1.14,0,0,0-.22.37,1.31,1.31,0,0,0,0,.9,1.14,1.14,0,0,0,.22.37,1.16,1.16,0,0,0,.36.25,1.19,1.19,0,0,0,.47.09.76.76,0,0,0,.42-.11,1,1,0,0,0,.34-.28Z"/><path class="cls-1" d="M52.91,12.08a1.34,1.34,0,0,0,0-.19,1.69,1.69,0,0,0,0-.23v-.22a1,1,0,0,1,0-.16h.37c0,.11,0,.21,0,.31a.82.82,0,0,0,0,.19,1.31,1.31,0,0,1,.36-.41.9.9,0,0,1,.55-.16h.1l.11,0,0,.36a.36.36,0,0,0-.14,0,1.09,1.09,0,0,0-.42.07.78.78,0,0,0-.29.21,1.09,1.09,0,0,0-.17.32,1.6,1.6,0,0,0,0,.39v1.55h-.37Z"/><path class="cls-1" d="M57.92,13.58a1.19,1.19,0,0,1-.53.47,1.59,1.59,0,0,1-.7.14,1.36,1.36,0,0,1-.58-.11,1.21,1.21,0,0,1-.46-.31,1.33,1.33,0,0,1-.29-.47,1.7,1.7,0,0,1-.1-.61,1.63,1.63,0,0,1,.1-.59,1.45,1.45,0,0,1,.3-.47,1.34,1.34,0,0,1,.45-.31,1.53,1.53,0,0,1,1.14,0,1.33,1.33,0,0,1,.42.3,1.24,1.24,0,0,1,.25.43,1.36,1.36,0,0,1,.09.48v.26H55.63a1.24,1.24,0,0,0,0,.3,1,1,0,0,0,.17.35,1,1,0,0,0,.33.3,1,1,0,0,0,.53.12,1.2,1.2,0,0,0,.55-.13,1,1,0,0,0,.4-.37Zm-.28-1.12a.86.86,0,0,0-.08-.36.9.9,0,0,0-.52-.49,1,1,0,0,0-.38-.07,1,1,0,0,0-.5.12,1.11,1.11,0,0,0-.32.28,1,1,0,0,0-.16.31.64.64,0,0,0,0,.21Z"/><path class="cls-1" d="M61.61,12.93v.37c0,.11,0,.22,0,.31a2.11,2.11,0,0,0,0,.26,2,2,0,0,0,0,.25h-.34a2.19,2.19,0,0,1,0-.46h0a1,1,0,0,1-.4.4,1.15,1.15,0,0,1-.59.13,1.5,1.5,0,0,1-.37,0,.94.94,0,0,1-.32-.15,1,1,0,0,1-.23-.26.8.8,0,0,1-.09-.39.77.77,0,0,1,.17-.52,1.07,1.07,0,0,1,.41-.28,1.73,1.73,0,0,1,.51-.12l.49,0h.43v-.17a.61.61,0,0,0-.23-.53.94.94,0,0,0-.57-.16,1.32,1.32,0,0,0-.87.32l-.21-.25a1.31,1.31,0,0,1,.5-.3,1.73,1.73,0,0,1,.58-.1,1.29,1.29,0,0,1,.82.24.92.92,0,0,1,.31.78Zm-.74-.24a3.29,3.29,0,0,0-.45,0,1.82,1.82,0,0,0-.39.11.65.65,0,0,0-.28.2.44.44,0,0,0-.11.3.41.41,0,0,0,.06.23.5.5,0,0,0,.15.17,1,1,0,0,0,.21.1.85.85,0,0,0,.23,0,1.11,1.11,0,0,0,.48-.09.79.79,0,0,0,.31-.22.89.89,0,0,0,.15-.31,1.49,1.49,0,0,0,.05-.36v-.19Z"/><path class="cls-1" d="M64.55,11.61h-.81v1.85a.4.4,0,0,0,.1.3.39.39,0,0,0,.29.1l.22,0,.2-.07,0,.33-.24.07-.24,0a.9.9,0,0,1-.34-.06.51.51,0,0,1-.22-.15.65.65,0,0,1-.13-.23.92.92,0,0,1,0-.29V11.61h-.61v-.33h.61v-.82h.37v.82h.81Z"/><path class="cls-1" d="M68.28,13.58a1.19,1.19,0,0,1-.53.47,1.58,1.58,0,0,1-.69.14,1.38,1.38,0,0,1-.59-.11,1.21,1.21,0,0,1-.46-.31,1.33,1.33,0,0,1-.29-.47,1.7,1.7,0,0,1-.1-.61,1.63,1.63,0,0,1,.1-.59,1.45,1.45,0,0,1,.3-.47,1.34,1.34,0,0,1,.45-.31,1.48,1.48,0,0,1,.57-.11,1.45,1.45,0,0,1,.57.11,1.33,1.33,0,0,1,.42.3,1.24,1.24,0,0,1,.25.43,1.36,1.36,0,0,1,.09.48v.26H66a1.24,1.24,0,0,0,0,.3,1,1,0,0,0,.17.35,1,1,0,0,0,.33.3,1,1,0,0,0,.53.12,1.2,1.2,0,0,0,.55-.13,1,1,0,0,0,.4-.37ZM68,12.46a.86.86,0,0,0-.07-.36,1.54,1.54,0,0,0-.21-.29,1.16,1.16,0,0,0-.32-.2,1,1,0,0,0-.38-.07,1,1,0,0,0-.5.12,1.26,1.26,0,0,0-.32.28,1,1,0,0,0-.16.31.64.64,0,0,0-.05.21Z"/><path class="cls-1" d="M69.77,13.39a.74.74,0,0,0,.35.35,1,1,0,0,0,.47.12.67.67,0,0,0,.24,0,.68.68,0,0,0,.21-.1.75.75,0,0,0,.15-.16.43.43,0,0,0,.06-.22.38.38,0,0,0-.13-.3,1.12,1.12,0,0,0-.31-.15,3.52,3.52,0,0,0-.41-.1,1.33,1.33,0,0,1-.4-.12.79.79,0,0,1-.31-.23.6.6,0,0,1-.13-.42.71.71,0,0,1,.09-.36.76.76,0,0,1,.22-.25.89.89,0,0,1,.31-.15,1.06,1.06,0,0,1,.35,0,1.28,1.28,0,0,1,.61.13.84.84,0,0,1,.39.4l-.33.2a.77.77,0,0,0-.26-.3.71.71,0,0,0-.41-.1l-.2,0a.72.72,0,0,0-.2.09.47.47,0,0,0-.14.14.31.31,0,0,0-.06.19.34.34,0,0,0,.13.29.81.81,0,0,0,.31.14,4,4,0,0,0,.4.09,1.31,1.31,0,0,1,.41.12.79.79,0,0,1,.31.24.7.7,0,0,1,.12.44.8.8,0,0,1-.08.39.67.67,0,0,1-.23.27,1.09,1.09,0,0,1-.32.17,1.74,1.74,0,0,1-.39,0,1.46,1.46,0,0,1-.67-.14,1,1,0,0,1-.47-.44Z"/><path class="cls-1" d="M76.51,11.61H75.7v1.85a.4.4,0,0,0,.1.3.39.39,0,0,0,.29.1l.21,0,.21-.07,0,.33-.24.07-.24,0a.9.9,0,0,1-.34-.06A.51.51,0,0,1,75.5,14a.65.65,0,0,1-.13-.23.92.92,0,0,1,0-.29V11.61h-.61v-.33h.61v-.82h.37v.82h.81Z"/><path class="cls-1" d="M77.58,12.7a1.46,1.46,0,0,1,.11-.6,1.25,1.25,0,0,1,.31-.47,1.29,1.29,0,0,1,.47-.31,1.69,1.69,0,0,1,1.2,0,1.38,1.38,0,0,1,.47.31,1.25,1.25,0,0,1,.31.47,1.69,1.69,0,0,1,0,1.2,1.4,1.4,0,0,1-.78.78,1.69,1.69,0,0,1-1.2,0,1.17,1.17,0,0,1-.47-.31,1.25,1.25,0,0,1-.31-.47A1.46,1.46,0,0,1,77.58,12.7Zm.37,0a1.33,1.33,0,0,0,.07.45,1,1,0,0,0,.23.37,1.12,1.12,0,0,0,.35.25,1.27,1.27,0,0,0,.94,0,1.1,1.1,0,0,0,.58-.62,1.48,1.48,0,0,0,0-.9,1.1,1.1,0,0,0-.58-.62,1.27,1.27,0,0,0-.94,0,1.12,1.12,0,0,0-.35.25,1,1,0,0,0-.23.37A1.33,1.33,0,0,0,78,12.7Z"/><path class="cls-1" d="M84.19,9.47h.37v4.65h-.37Z"/><path class="cls-1" d="M88.38,12.93v.37a3,3,0,0,0,0,.31c0,.09,0,.18,0,.26l0,.25h-.34a2.19,2.19,0,0,1,0-.46h0a1,1,0,0,1-.4.4,1.21,1.21,0,0,1-.6.13,1.47,1.47,0,0,1-.36,0,.94.94,0,0,1-.32-.15,1,1,0,0,1-.23-.26.8.8,0,0,1-.09-.39.77.77,0,0,1,.17-.52,1,1,0,0,1,.41-.28,1.73,1.73,0,0,1,.51-.12l.48,0H88v-.17a.6.6,0,0,0-.22-.53.94.94,0,0,0-.57-.16,1.32,1.32,0,0,0-.87.32l-.22-.25a1.44,1.44,0,0,1,.51-.3,1.73,1.73,0,0,1,.58-.1,1.31,1.31,0,0,1,.82.24.94.94,0,0,1,.31.78Zm-.74-.24a3.19,3.19,0,0,0-.45,0,2.11,2.11,0,0,0-.4.11.72.72,0,0,0-.28.2.44.44,0,0,0-.1.3.41.41,0,0,0,.06.23.5.5,0,0,0,.15.17l.2.1.24,0a1.14,1.14,0,0,0,.48-.09.69.69,0,0,0,.3-.22.77.77,0,0,0,.16-.31,1.47,1.47,0,0,0,0-.36v-.19Z"/><path class="cls-1" d="M89.94,13.39a.72.72,0,0,0,.34.35,1,1,0,0,0,.48.12.59.59,0,0,0,.23,0,.68.68,0,0,0,.21-.1.75.75,0,0,0,.15-.16.43.43,0,0,0,.06-.22.35.35,0,0,0-.13-.3,1,1,0,0,0-.31-.15l-.4-.1a1.39,1.39,0,0,1-.41-.12.87.87,0,0,1-.31-.23.66.66,0,0,1-.12-.42.83.83,0,0,1,.08-.36.79.79,0,0,1,.23-.25.81.81,0,0,1,.31-.15,1,1,0,0,1,.35,0,1.26,1.26,0,0,1,.6.13.86.86,0,0,1,.4.4l-.33.2a.86.86,0,0,0-.26-.3.73.73,0,0,0-.41-.1.76.76,0,0,0-.21,0,.66.66,0,0,0-.19.09.4.4,0,0,0-.15.14.38.38,0,0,0-.05.19.36.36,0,0,0,.12.29,1,1,0,0,0,.31.14,3.62,3.62,0,0,0,.41.09,1.33,1.33,0,0,1,.4.12.67.67,0,0,1,.31.24.64.64,0,0,1,.13.44.93.93,0,0,1-.08.39.75.75,0,0,1-.23.27,1.29,1.29,0,0,1-.33.17,1.6,1.6,0,0,1-.39,0,1.49,1.49,0,0,1-.67-.14,1,1,0,0,1-.47-.44Z"/><path class="cls-1" d="M94.51,11.61h-.82v1.85a.41.41,0,0,0,.11.3.38.38,0,0,0,.29.1l.21,0,.21-.07,0,.33-.24.07-.24,0a.86.86,0,0,1-.34-.06.61.61,0,0,1-.23-.15.51.51,0,0,1-.12-.23.92.92,0,0,1,0-.29V11.61h-.62v-.33h.62v-.82h.36v.82h.82Z"/></svg>