<svg id="Layer_1" data-name="Layer 1" xmlns="http://www.w3.org/2000/svg" viewBox="0 0 150.78 48.26"><defs><style>.cls-1{fill:#58595b;}.cls-2{fill:#6d6e70;}.cls-3{fill:#babcbe;}</style></defs><path class="cls-1" d="M.34.43H2.16a4.37,4.37,0,0,1,.72.06,1.8,1.8,0,0,1,.66.24A1.37,1.37,0,0,1,4,1.24a1.77,1.77,0,0,1,.18.86,1.31,1.31,0,0,1-.28.84,1.42,1.42,0,0,1-.85.47v0a1.71,1.71,0,0,1,.57.15,1.37,1.37,0,0,1,.74.8,1.64,1.64,0,0,1,.1.6,1.68,1.68,0,0,1-.21.89,1.52,1.52,0,0,1-.53.54,2.1,2.1,0,0,1-.68.27,3.53,3.53,0,0,1-.7.07h-2ZM.93,3.16H2.15a2.18,2.18,0,0,0,.74-.11,1.38,1.38,0,0,0,.45-.27.8.8,0,0,0,.21-.35A1,1,0,0,0,3.6,2.1a1.15,1.15,0,0,0-.11-.55.85.85,0,0,0-.3-.35A1.19,1.19,0,0,0,2.76,1,2.33,2.33,0,0,0,2.23,1H.93Zm0,3.06H2.27a2.39,2.39,0,0,0,.84-.13,1.38,1.38,0,0,0,.49-.31,1.06,1.06,0,0,0,.22-.4A1.42,1.42,0,0,0,3.88,5a1.26,1.26,0,0,0-.13-.6A1.23,1.23,0,0,0,3.4,4a1.38,1.38,0,0,0-.49-.23,2,2,0,0,0-.55-.07H.93Z"/><path class="cls-1" d="M5.72,3.79c0-.08,0-.17,0-.28s0-.23,0-.34,0-.22,0-.32a1.94,1.94,0,0,1,0-.22h.53c0,.15,0,.3,0,.44a1.35,1.35,0,0,0,0,.28,1.8,1.8,0,0,1,.53-.6,1.31,1.31,0,0,1,.78-.23h.16l.15,0-.06.53a.79.79,0,0,0-.2,0A1.41,1.41,0,0,0,7,3.17a1.08,1.08,0,0,0-.42.3,1.35,1.35,0,0,0-.24.46,1.79,1.79,0,0,0-.08.57V6.75H5.72Z"/><path class="cls-1" d="M11.81,5c0,.2,0,.38,0,.54s0,.31,0,.45,0,.27,0,.38,0,.24,0,.36h-.5a4.47,4.47,0,0,1-.05-.67h0a1.48,1.48,0,0,1-.57.59,1.77,1.77,0,0,1-.88.19,1.86,1.86,0,0,1-.52-.07,1.26,1.26,0,0,1-.47-.21,1.21,1.21,0,0,1-.33-.38,1.1,1.1,0,0,1-.13-.56,1.09,1.09,0,0,1,.24-.75,1.46,1.46,0,0,1,.59-.42A3.16,3.16,0,0,1,10,4.29a6.32,6.32,0,0,1,.71,0h.62V4A.88.88,0,0,0,11,3.23,1.45,1.45,0,0,0,10.17,3a1.88,1.88,0,0,0-1.26.47L8.6,3.1a1.77,1.77,0,0,1,.73-.43,2.57,2.57,0,0,1,.84-.15,1.92,1.92,0,0,1,1.2.35A1.4,1.4,0,0,1,11.81,4Zm-1.07-.34c-.23,0-.44,0-.66,0a2,2,0,0,0-.57.16,1,1,0,0,0-.4.28A.69.69,0,0,0,9,5.61.6.6,0,0,0,9,5.94a.73.73,0,0,0,.22.24,1.05,1.05,0,0,0,.3.15,1.26,1.26,0,0,0,.33,0,1.8,1.8,0,0,0,.71-.13A1.22,1.22,0,0,0,11,5.93a1.17,1.17,0,0,0,.23-.46A2.22,2.22,0,0,0,11.33,5V4.68Z"/><path class="cls-1" d="M13.15,3.79c0-.08,0-.17,0-.28s0-.23,0-.34,0-.22,0-.32a1.94,1.94,0,0,1,0-.22h.53c0,.15,0,.3,0,.44a1.35,1.35,0,0,0,0,.28h0a1.41,1.41,0,0,1,.53-.59,1.59,1.59,0,0,1,.88-.24,1.75,1.75,0,0,1,.78.15,1.26,1.26,0,0,1,.48.4,1.34,1.34,0,0,1,.24.56,3,3,0,0,1,.07.67V6.75h-.54V4.32a2.52,2.52,0,0,0,0-.48A1.23,1.23,0,0,0,16,3.41a.89.89,0,0,0-.31-.3A1.14,1.14,0,0,0,15.12,3a1.69,1.69,0,0,0-.56.1,1.23,1.23,0,0,0-.46.32,1.4,1.4,0,0,0-.3.52,2.12,2.12,0,0,0-.11.75V6.75h-.54Z"/><path class="cls-1" d="M21.64,6h0a1.85,1.85,0,0,1-.31.37,2.19,2.19,0,0,1-.41.26,1.9,1.9,0,0,1-.46.15,2.59,2.59,0,0,1-.47.05,2.3,2.3,0,0,1-.88-.16,2.06,2.06,0,0,1-.69-.45A2.08,2.08,0,0,1,18,5.56a2.28,2.28,0,0,1-.16-.87A2.21,2.21,0,0,1,18,3.82a1.9,1.9,0,0,1,.44-.69,2.06,2.06,0,0,1,.69-.45A2.3,2.3,0,0,1,20,2.52a2.59,2.59,0,0,1,.47,0,1.9,1.9,0,0,1,.46.15,2.19,2.19,0,0,1,.41.26,1.6,1.6,0,0,1,.31.37h0V0h.53V6.75h-.53Zm.05-1.34A1.85,1.85,0,0,0,21.56,4a1.8,1.8,0,0,0-.37-.53,1.72,1.72,0,0,0-.55-.37,1.82,1.82,0,0,0-1.35,0,1.5,1.5,0,0,0-.52.37,1.69,1.69,0,0,0-.33.53,2,2,0,0,0,0,1.32,1.69,1.69,0,0,0,.33.53,1.61,1.61,0,0,0,.52.36,1.7,1.7,0,0,0,1.35,0,1.87,1.87,0,0,0,.55-.36,1.8,1.8,0,0,0,.37-.53A1.85,1.85,0,0,0,21.69,4.69Z"/><path class="cls-1" d="M25.7.43h2a4.34,4.34,0,0,1,1.39.2,3.16,3.16,0,0,1,.95.51,2.63,2.63,0,0,1,.6.7,3.71,3.71,0,0,1,.32.72,3.73,3.73,0,0,1,.13.63c0,.19,0,.32,0,.4s0,.21,0,.4a3.37,3.37,0,0,1-.13.63,4.07,4.07,0,0,1-.32.73A2.76,2.76,0,0,1,30,6a3,3,0,0,1-.95.51,4.34,4.34,0,0,1-1.39.2h-2Zm.59,5.79H27.5a4.35,4.35,0,0,0,1.17-.16,2.51,2.51,0,0,0,.95-.48,2.08,2.08,0,0,0,.63-.82,2.66,2.66,0,0,0,.24-1.17,2.66,2.66,0,0,0-.24-1.17,2.15,2.15,0,0,0-.63-.82,2.66,2.66,0,0,0-.95-.48A4.35,4.35,0,0,0,27.5,1H26.29Z"/><path class="cls-1" d="M32.11,1a.36.36,0,0,1,.12-.28.36.36,0,0,1,.28-.12.38.38,0,0,1,.29.12.36.36,0,0,1,.12.28.4.4,0,0,1-.12.29.42.42,0,0,1-.29.11.39.39,0,0,1-.28-.11A.4.4,0,0,1,32.11,1Zm.14,1.64h.53V6.75h-.53Z"/><path class="cls-1" d="M34.22,5.7a1.1,1.1,0,0,0,.5.5,1.43,1.43,0,0,0,.7.18,1.06,1.06,0,0,0,.34-.06.85.85,0,0,0,.3-.15.73.73,0,0,0,.22-.24.62.62,0,0,0,.08-.31.51.51,0,0,0-.18-.43A1.18,1.18,0,0,0,35.73,5a4.65,4.65,0,0,0-.59-.14,2.55,2.55,0,0,1-.59-.18,1.17,1.17,0,0,1-.45-.34.9.9,0,0,1-.18-.6A1.09,1.09,0,0,1,34,3.18a1.06,1.06,0,0,1,.33-.37,1.35,1.35,0,0,1,.45-.22,1.7,1.7,0,0,1,.51-.07,1.87,1.87,0,0,1,.88.19,1.31,1.31,0,0,1,.57.59l-.48.28a1.15,1.15,0,0,0-.38-.43,1.11,1.11,0,0,0-.89-.1,1,1,0,0,0-.28.12.53.53,0,0,0-.21.21.45.45,0,0,0-.09.28.47.47,0,0,0,.18.41,1.5,1.5,0,0,0,.46.21,4.16,4.16,0,0,0,.58.13,2.41,2.41,0,0,1,.59.18,1.28,1.28,0,0,1,.46.34,1,1,0,0,1,.18.65,1.22,1.22,0,0,1-.12.56,1.16,1.16,0,0,1-.33.4,1.54,1.54,0,0,1-.48.24,2.1,2.1,0,0,1-.56.08,2.24,2.24,0,0,1-1-.21A1.39,1.39,0,0,1,33.75,6Z"/><path class="cls-1" d="M41.38,6.14a1.76,1.76,0,0,1-.69.54,1.9,1.9,0,0,1-.83.18A2.28,2.28,0,0,1,39,6.7a2.06,2.06,0,0,1-.69-.45,2.29,2.29,0,0,1-.45-.69,2.49,2.49,0,0,1-.16-.87,2.41,2.41,0,0,1,.16-.87A2,2,0,0,1,39,2.68a2.28,2.28,0,0,1,.87-.16,1.86,1.86,0,0,1,.85.19,2.17,2.17,0,0,1,.69.52L41,3.55a1.92,1.92,0,0,0-.51-.4,1.21,1.21,0,0,0-.6-.15,1.87,1.87,0,0,0-.68.13,1.46,1.46,0,0,0-.51.37,1.39,1.39,0,0,0-.33.53,2,2,0,0,0,0,1.32,1.39,1.39,0,0,0,.33.53,1.57,1.57,0,0,0,.51.36,1.69,1.69,0,0,0,.68.14,1.17,1.17,0,0,0,.62-.16A1.6,1.6,0,0,0,41,5.81Z"/><path class="cls-1" d="M41.9,4.69a2.21,2.21,0,0,1,.16-.87,2.06,2.06,0,0,1,.45-.69,2.12,2.12,0,0,1,.68-.45,2.47,2.47,0,0,1,1.75,0,2.17,2.17,0,0,1,.69.45,2.06,2.06,0,0,1,.45.69,2.21,2.21,0,0,1,.16.87,2.17,2.17,0,0,1-.61,1.56,2.17,2.17,0,0,1-.69.45,2.47,2.47,0,0,1-1.75,0,2.12,2.12,0,0,1-.68-.45,2.17,2.17,0,0,1-.61-1.56Zm.54,0a1.83,1.83,0,0,0,.11.66,1.51,1.51,0,0,0,.32.53,1.73,1.73,0,0,0,.52.36,1.72,1.72,0,0,0,1.36,0,1.73,1.73,0,0,0,.52-.36,1.51,1.51,0,0,0,.32-.53,1.83,1.83,0,0,0,.11-.66A1.83,1.83,0,0,0,45.59,4a1.51,1.51,0,0,0-.32-.53,1.59,1.59,0,0,0-.52-.37,1.84,1.84,0,0,0-1.36,0,1.59,1.59,0,0,0-.52.37,1.51,1.51,0,0,0-.32.53A1.83,1.83,0,0,0,42.44,4.69Z"/><path class="cls-1" d="M46.77,2.63h.6l1.38,3.54,1.34-3.54h.54L49,6.75h-.56Z"/><path class="cls-1" d="M55,6a1.75,1.75,0,0,1-.78.68,2.37,2.37,0,0,1-1,.21,2,2,0,0,1-1.52-.61,2.2,2.2,0,0,1-.42-.69,2.5,2.5,0,0,1-.15-.88,2.39,2.39,0,0,1,.15-.86,2.07,2.07,0,0,1,.43-.68,2,2,0,0,1,.65-.46,2,2,0,0,1,.83-.16,2,2,0,0,1,.84.16,2,2,0,0,1,.61.44,2,2,0,0,1,.37.62,2.16,2.16,0,0,1,.12.71v.37H51.7a2.07,2.07,0,0,0,.06.44,1.72,1.72,0,0,0,.25.51,1.54,1.54,0,0,0,.48.43,1.46,1.46,0,0,0,.77.18,1.72,1.72,0,0,0,.79-.2,1.35,1.35,0,0,0,.59-.54Zm-.41-1.63a1.17,1.17,0,0,0-.12-.52,1.25,1.25,0,0,0-.3-.42,1.44,1.44,0,0,0-.46-.29A1.46,1.46,0,0,0,53.2,3a1.34,1.34,0,0,0-.73.18,1.55,1.55,0,0,0-.46.41,1.66,1.66,0,0,0-.24.45,1.14,1.14,0,0,0-.07.3Z"/><path class="cls-1" d="M56.27,3.79c0-.08,0-.17,0-.28s0-.23,0-.34,0-.22,0-.32,0-.17,0-.22h.54c0,.15,0,.3,0,.44a1.12,1.12,0,0,0,0,.28,1.88,1.88,0,0,1,.52-.6,1.36,1.36,0,0,1,.79-.23h.15l.16,0-.06.53a.78.78,0,0,0-.21,0,1.4,1.4,0,0,0-.6.12,1.08,1.08,0,0,0-.42.3,1.58,1.58,0,0,0-.25.46,2.12,2.12,0,0,0-.08.57V6.75h-.53Z"/><path class="cls-1" d="M60.31,8a1.46,1.46,0,0,1-.42.63,1,1,0,0,1-.71.24,1.24,1.24,0,0,1-.27,0,1.22,1.22,0,0,1-.26-.06l.06-.5.23.07a1.07,1.07,0,0,0,.25,0,.51.51,0,0,0,.25-.06.6.6,0,0,0,.19-.16A1,1,0,0,0,59.77,8a2.56,2.56,0,0,0,.11-.24l.37-1L58.57,2.63h.6L60.54,6.1l1.33-3.47h.57Z"/><path class="cls-2" d="M128.88,19.8H130l3.74,8.74h-1.38l-.88-2.16h-4.16l-.86,2.16H125ZM131,25.34l-1.63-4h0l-1.65,4Z"/><path class="cls-2" d="M134.54,22.69h1.11v.9h0a1.84,1.84,0,0,1,.3-.43,1.91,1.91,0,0,1,.91-.54,2.09,2.09,0,0,1,.55-.08,1.53,1.53,0,0,1,.49.07l0,1.2-.27-.06-.27,0a1.65,1.65,0,0,0-1.25.46,2,2,0,0,0-.43,1.42v2.94h-1.11Z"/><path class="cls-2" d="M139.72,26a1.51,1.51,0,0,0,.17.7,1.6,1.6,0,0,0,.44.53,2,2,0,0,0,.62.35,2.36,2.36,0,0,0,.75.12,1.68,1.68,0,0,0,.9-.24,2.79,2.79,0,0,0,.7-.64l.84.65a3.11,3.11,0,0,1-2.59,1.19,3.21,3.21,0,0,1-1.26-.23,2.77,2.77,0,0,1-.95-.65,3,3,0,0,1-.59-1,3.47,3.47,0,0,1-.21-1.22,3.21,3.21,0,0,1,.22-1.21,3.3,3.3,0,0,1,.63-1,3.07,3.07,0,0,1,1-.65,3.18,3.18,0,0,1,1.21-.23,2.86,2.86,0,0,1,1.31.27,2.62,2.62,0,0,1,.89.71,2.89,2.89,0,0,1,.5,1,4.18,4.18,0,0,1,.15,1.11V26Zm3.51-.89a2.42,2.42,0,0,0-.12-.68,1.64,1.64,0,0,0-.32-.54,1.37,1.37,0,0,0-.52-.35,1.88,1.88,0,0,0-.74-.13,1.78,1.78,0,0,0-.74.15,1.87,1.87,0,0,0-.58.4,2.17,2.17,0,0,0-.36.55,1.44,1.44,0,0,0-.13.6Z"/><path class="cls-2" d="M128.53,34.83,125.33,30h1.47l2.3,3.72L131.48,30h1.4l-3.2,4.85v3.62h-1.15Z"/><path class="cls-2" d="M132,35.61a2.83,2.83,0,0,1,.24-1.16,2.9,2.9,0,0,1,.64-.94,3,3,0,0,1,1-.64,3,3,0,0,1,1.19-.24,2.93,2.93,0,0,1,1.18.24,2.89,2.89,0,0,1,1,.64,3.07,3.07,0,0,1,.64.94,3,3,0,0,1,.23,1.16,3.05,3.05,0,0,1-.23,1.17,3,3,0,0,1-.64.94,3,3,0,0,1-1,.64,3.1,3.1,0,0,1-1.18.23,3.15,3.15,0,0,1-1.19-.23,3.12,3.12,0,0,1-1-.64,2.8,2.8,0,0,1-.64-.94A2.88,2.88,0,0,1,132,35.61Zm1.15,0a2.58,2.58,0,0,0,.13.8,1.83,1.83,0,0,0,.37.62,1.78,1.78,0,0,0,.59.41,2.22,2.22,0,0,0,1.55,0,1.69,1.69,0,0,0,.59-.41,1.83,1.83,0,0,0,.37-.62,2.32,2.32,0,0,0,.13-.8,2.22,2.22,0,0,0-.13-.79,1.87,1.87,0,0,0-.37-.63,1.67,1.67,0,0,0-.59-.4,2.08,2.08,0,0,0-1.55,0,1.76,1.76,0,0,0-.59.4,1.87,1.87,0,0,0-.37.63A2.47,2.47,0,0,0,133.12,35.61Z"/><path class="cls-2" d="M144.37,38.45H143.3v-.88h0a1.56,1.56,0,0,1-.7.74,2.51,2.51,0,0,1-1.95.15,1.6,1.6,0,0,1-.65-.39,1.8,1.8,0,0,1-.45-.67,2.64,2.64,0,0,1-.17-1V32.78h1.08v3.35a1.71,1.71,0,0,0,.11.67,1.23,1.23,0,0,0,.28.46,1.12,1.12,0,0,0,.42.25,1.51,1.51,0,0,0,.48.07,1.79,1.79,0,0,0,.62-.1,1.31,1.31,0,0,0,.5-.34,1.6,1.6,0,0,0,.34-.6,2.62,2.62,0,0,0,.12-.84V32.78h1.07Z"/><path class="cls-2" d="M147.7,36.08v-.73a2.06,2.06,0,0,1,.05-.54,1.64,1.64,0,0,1,.14-.39,1.3,1.3,0,0,1,.26-.33c.1-.11.24-.24.4-.39l.38-.37a4.14,4.14,0,0,0,.35-.38,1.79,1.79,0,0,0,.25-.42,1.1,1.1,0,0,0,.1-.49,1.19,1.19,0,0,0-.1-.51,1,1,0,0,0-.27-.4,1.28,1.28,0,0,0-.4-.27,1.33,1.33,0,0,0-.49-.09,1.26,1.26,0,0,0-1,.37,1.59,1.59,0,0,0-.44,1L145.76,32a2.47,2.47,0,0,1,.87-1.63,2.63,2.63,0,0,1,1.76-.6,2.85,2.85,0,0,1,.94.15,2.46,2.46,0,0,1,.76.43,2.15,2.15,0,0,1,.51.7,2.32,2.32,0,0,1,.18.94,2.15,2.15,0,0,1-.13.79,2.42,2.42,0,0,1-.37.64l-.72.74-.12.11a4.08,4.08,0,0,0-.3.31.87.87,0,0,0-.18.26,1.32,1.32,0,0,0-.09.3,2.62,2.62,0,0,0,0,.42v.53Zm-.23,1.65a.79.79,0,0,1,.79-.79.8.8,0,0,1,.56.23.79.79,0,0,1,.23.56.76.76,0,0,1-.23.55.77.77,0,0,1-.56.24.8.8,0,0,1-.79-.79Z"/><path class="cls-3" d="M0,10.13H7.43l7.16,27.46h.11l8.56-27.46h6.68l8.4,27.46h.11l7.48-27.46h6.9L41.73,48.26H35.27l-8.83-29h-.11l-8.83,29H11.25Z"/><path class="cls-3" d="M57.08,10.13h6.78V25.32H81.69V10.13h6.78V48.26H81.69V31.46H63.86v16.8H57.08Z"/><path class="cls-3" d="M106.3,31.94,92,10.13h8.51l9.37,15.19,9.48-15.19h8.08L113.08,31.94V48.26H106.3Z"/></svg>