<svg id="Layer_1" data-name="Layer 1" xmlns="http://www.w3.org/2000/svg" viewBox="0 0 119.81 29.54"><defs><style>.cls-1{fill:#f38020;}.cls-2{fill:#f0f0f1;}.cls-3{fill:#fff;}.cls-4{fill:#a5a7aa;}</style></defs><rect class="cls-1" y="14.76" width="119.81" height="14.79"/><rect class="cls-2" width="119.81" height="14.79"/><path class="cls-3" d="M8.37,21.44A.82.82,0,0,0,8,21.17a1.22,1.22,0,0,0-.43-.08,1.24,1.24,0,0,0-.27,0,.67.67,0,0,0-.23.1.4.4,0,0,0-.16.18.49.49,0,0,0-.06.25A.39.39,0,0,0,7,22a1.59,1.59,0,0,0,.39.21l.5.17a2.05,2.05,0,0,1,.5.22,1.28,1.28,0,0,1,.39.38A1.18,1.18,0,0,1,9,23.6a1.31,1.31,0,0,1-.13.61,1.18,1.18,0,0,1-.35.44,1.54,1.54,0,0,1-.51.26,2.11,2.11,0,0,1-.62.09,2.29,2.29,0,0,1-.78-.14,1.5,1.5,0,0,1-.66-.46l.59-.57a1,1,0,0,0,.38.34,1,1,0,0,0,.49.12,1,1,0,0,0,.28,0,.66.66,0,0,0,.24-.11A.47.47,0,0,0,8.07,24a.44.44,0,0,0,.07-.26A.45.45,0,0,0,8,23.32a1.32,1.32,0,0,0-.39-.22,4.86,4.86,0,0,0-.5-.17,2.52,2.52,0,0,1-.5-.22,1.28,1.28,0,0,1-.39-.38,1.12,1.12,0,0,1-.15-.62,1.1,1.1,0,0,1,.14-.59,1.19,1.19,0,0,1,.36-.41,1.79,1.79,0,0,1,.52-.25,2.41,2.41,0,0,1,.6-.08,2.19,2.19,0,0,1,.67.11,1.6,1.6,0,0,1,.59.34Z"/><path class="cls-3" d="M12.43,24.89h-.71v-.48h0a1.11,1.11,0,0,1-.33.39.94.94,0,0,1-.59.16,1.09,1.09,0,0,1-.5-.1A.88.88,0,0,1,10,24.6a1,1,0,0,1-.19-.37,2.12,2.12,0,0,1,0-.44V21.91h.74v1.51c0,.08,0,.17,0,.27a1,1,0,0,0,.07.29.5.5,0,0,0,.16.22.48.48,0,0,0,.31.09.71.71,0,0,0,.31-.06.51.51,0,0,0,.21-.17.55.55,0,0,0,.12-.24.92.92,0,0,0,0-.29V21.91h.75Z"/><path class="cls-3" d="M13.27,20.19H14v2.1h0l.15-.16a.7.7,0,0,1,.21-.14,1,1,0,0,1,.28-.11,1.38,1.38,0,0,1,.37-.05,1.41,1.41,0,0,1,.59.12,1.28,1.28,0,0,1,.45.34,1.44,1.44,0,0,1,.3.49,1.79,1.79,0,0,1,.1.62,1.74,1.74,0,0,1-.1.61,1.32,1.32,0,0,1-.29.5,1.39,1.39,0,0,1-.46.33A1.52,1.52,0,0,1,15,25a1.48,1.48,0,0,1-.59-.12,1,1,0,0,1-.43-.4h0v.45h-.71Zm2.47,3.21a1,1,0,0,0-.06-.34.88.88,0,0,0-.17-.28.8.8,0,0,0-.28-.2.87.87,0,0,0-.37-.08.86.86,0,0,0-.36.08.8.8,0,0,0-.28.2.88.88,0,0,0-.17.28,1,1,0,0,0-.06.34,1,1,0,0,0,.23.62,1,1,0,0,0,.28.2.86.86,0,0,0,.36.07.87.87,0,0,0,.37-.07,1,1,0,0,0,.28-.2,1,1,0,0,0,.23-.62Z"/><path class="cls-3" d="M18.77,22.73a.7.7,0,0,0-.59-.3.62.62,0,0,0-.29.07.26.26,0,0,0-.14.25.2.2,0,0,0,.12.19,1,1,0,0,0,.3.11l.38.09a1.64,1.64,0,0,1,.39.14.86.86,0,0,1,.3.27.76.76,0,0,1,.12.46.84.84,0,0,1-.12.45.76.76,0,0,1-.3.29,1.25,1.25,0,0,1-.41.16,2.31,2.31,0,0,1-.46.05,1.91,1.91,0,0,1-.64-.1,1.17,1.17,0,0,1-.52-.36l.5-.46a1.53,1.53,0,0,0,.31.26.7.7,0,0,0,.4.1.44.44,0,0,0,.16,0,.49.49,0,0,0,.17-.06.41.41,0,0,0,.12-.11.24.24,0,0,0,0-.15.26.26,0,0,0-.12-.23.87.87,0,0,0-.29-.12l-.39-.09a1.28,1.28,0,0,1-.39-.13.81.81,0,0,1-.3-.25A.72.72,0,0,1,17,22.8a.89.89,0,0,1,.1-.44,1,1,0,0,1,.27-.3,1.19,1.19,0,0,1,.38-.17,1.67,1.67,0,0,1,.44-.06,1.71,1.71,0,0,1,.59.11.87.87,0,0,1,.47.35Z"/><path class="cls-3" d="M22,22.8a1.74,1.74,0,0,0-.27-.22.67.67,0,0,0-.29-.08.87.87,0,0,0-.37.08.8.8,0,0,0-.28.2.88.88,0,0,0-.17.28,1,1,0,0,0-.06.34,1,1,0,0,0,.23.62,1,1,0,0,0,.28.2.87.87,0,0,0,.37.07.71.71,0,0,0,.32-.07A.72.72,0,0,0,22,24l.5.54a1.74,1.74,0,0,1-.26.19,1.85,1.85,0,0,1-.29.13l-.29.07-.23,0a1.91,1.91,0,0,1-.64-.11,1.34,1.34,0,0,1-.51-.32,1.46,1.46,0,0,1-.35-.49,1.66,1.66,0,0,1-.12-.64,1.71,1.71,0,0,1,.12-.65,1.57,1.57,0,0,1,.35-.49,1.64,1.64,0,0,1,.51-.32,1.91,1.91,0,0,1,.64-.11,1.65,1.65,0,0,1,.57.11,1.33,1.33,0,0,1,.51.35Z"/><path class="cls-3" d="M22.93,21.91h.74v.47h0a1,1,0,0,1,.88-.55l.14,0a.31.31,0,0,1,.13,0v.72l-.18,0-.18,0a.77.77,0,0,0-.42.1.73.73,0,0,0-.24.22.62.62,0,0,0-.11.25.82.82,0,0,0,0,.18v1.6h-.74Z"/><path class="cls-3" d="M25.25,20.9a.44.44,0,0,1,.13-.32.51.51,0,0,1,.68,0,.39.39,0,0,1,.14.32.41.41,0,0,1-.14.32.49.49,0,0,1-.34.12.45.45,0,0,1-.34-.13A.42.42,0,0,1,25.25,20.9Zm.1,1h.75v3h-.75Z"/><path class="cls-3" d="M27,20.19h.75v2.1h0l.14-.16a1.25,1.25,0,0,1,.5-.25,1.32,1.32,0,0,1,.37-.05,1.37,1.37,0,0,1,.58.12,1.44,1.44,0,0,1,.75.83,1.8,1.8,0,0,1,.11.62,1.74,1.74,0,0,1-.1.61,1.46,1.46,0,0,1-.29.5,1.43,1.43,0,0,1-.47.33,1.48,1.48,0,0,1-.61.12,1.45,1.45,0,0,1-.59-.12,1.06,1.06,0,0,1-.44-.4h0v.45H27Zm2.47,3.21a1.27,1.27,0,0,0-.05-.34.75.75,0,0,0-.18-.28.86.86,0,0,0-.27-.2.9.9,0,0,0-.74,0,.76.76,0,0,0-.27.2.75.75,0,0,0-.18.28,1,1,0,0,0-.06.34.92.92,0,0,0,.06.33.79.79,0,0,0,.18.29.9.9,0,0,0,.27.2,1,1,0,0,0,.74,0,1.05,1.05,0,0,0,.27-.2.79.79,0,0,0,.18-.29A1.2,1.2,0,0,0,29.42,23.4Z"/><path class="cls-3" d="M31.46,23.66a.77.77,0,0,0,.26.52.85.85,0,0,0,.54.19.86.86,0,0,0,.47-.12,1.15,1.15,0,0,0,.33-.29l.53.41a1.45,1.45,0,0,1-.58.45,1.55,1.55,0,0,1-.67.14,1.91,1.91,0,0,1-.64-.11,1.34,1.34,0,0,1-.51-.32,1.46,1.46,0,0,1-.35-.49,1.66,1.66,0,0,1-.12-.64,1.71,1.71,0,0,1,.12-.65,1.57,1.57,0,0,1,.35-.49,1.64,1.64,0,0,1,.51-.32,1.91,1.91,0,0,1,.64-.11,1.47,1.47,0,0,1,.56.11,1.25,1.25,0,0,1,.44.31,1.42,1.42,0,0,1,.29.51,2.09,2.09,0,0,1,.1.69v.21ZM33,23.1a.75.75,0,0,0-.21-.52.74.74,0,0,0-.55-.19.76.76,0,0,0-.53.19.87.87,0,0,0-.24.52Z"/><path class="cls-3" d="M35.92,22.54v-.63h.61v-.86h.75v.86h.82v.63h-.82v1.3a.64.64,0,0,0,.08.36.37.37,0,0,0,.33.13l.22,0a.47.47,0,0,0,.19-.08v.63a1.11,1.11,0,0,1-.29.08l-.3,0A1.63,1.63,0,0,1,37,24.9a.66.66,0,0,1-.3-.2.84.84,0,0,1-.15-.33,2.19,2.19,0,0,1,0-.46V22.54Z"/><path class="cls-3" d="M38.53,23.4A1.55,1.55,0,0,1,39,22.26a1.82,1.82,0,0,1,.52-.32,1.85,1.85,0,0,1,.63-.11,1.9,1.9,0,0,1,.63.11,1.82,1.82,0,0,1,.52.32,1.55,1.55,0,0,1,.47,1.14,1.5,1.5,0,0,1-.13.64,1.44,1.44,0,0,1-.34.49,1.46,1.46,0,0,1-.52.32,1.9,1.9,0,0,1-.63.11,1.85,1.85,0,0,1-.63-.11,1.46,1.46,0,0,1-.52-.32,1.44,1.44,0,0,1-.34-.49A1.5,1.5,0,0,1,38.53,23.4Zm.74,0a.92.92,0,0,0,.06.33.79.79,0,0,0,.18.29.9.9,0,0,0,.27.2,1,1,0,0,0,.74,0,1.05,1.05,0,0,0,.27-.2.79.79,0,0,0,.18-.29A1.2,1.2,0,0,0,41,23.4a1.27,1.27,0,0,0-.05-.34.75.75,0,0,0-.18-.28.86.86,0,0,0-.27-.2.9.9,0,0,0-.74,0,.76.76,0,0,0-.27.2.75.75,0,0,0-.18.28A1,1,0,0,0,39.27,23.4Z"/><path class="cls-3" d="M44.77,20.18h3.09v.39H45.25V22.2h2.43v.39H45.25v2.18h-.48Z"/><path class="cls-3" d="M48.82,20.18H52v.39H49.3V22.2h2.51v.39H49.3v1.79h2.79v.39H48.82Z"/><path class="cls-3" d="M53.14,20.18H56.3v.39H53.62V22.2h2.51v.39H53.62v1.79h2.79v.39H53.14Z"/><path class="cls-3" d="M57.46,20.18h.48v4.2h2.41v.39H57.46Z"/><path class="cls-3" d="M61.11,20.18h.48v4.59h-.48Z"/><path class="cls-3" d="M63,20.18h.62l3.14,4h0v-4h.48v4.59h-.61l-3.14-4h0v4H63Z"/><path class="cls-3" d="M72.92,24.47a3.54,3.54,0,0,1-.93.32,4.68,4.68,0,0,1-1,.1,3.14,3.14,0,0,1-1.08-.18,2.5,2.5,0,0,1-.84-.5,2.13,2.13,0,0,1-.55-.77,2.32,2.32,0,0,1-.2-1,2.4,2.4,0,0,1,.2-1,2.18,2.18,0,0,1,.55-.76,2.5,2.5,0,0,1,.84-.5A3.14,3.14,0,0,1,71,20.07a2.69,2.69,0,0,1,1.86.63l-.35.33a1.34,1.34,0,0,0-.29-.23,1.62,1.62,0,0,0-.37-.19,2.58,2.58,0,0,0-.42-.11,2.15,2.15,0,0,0-.43,0,2.59,2.59,0,0,0-.91.15,2,2,0,0,0-.69.43,1.9,1.9,0,0,0-.43.64,2.11,2.11,0,0,0-.16.8,2.06,2.06,0,0,0,.16.79,1.9,1.9,0,0,0,.43.64,1.88,1.88,0,0,0,.69.43,2.38,2.38,0,0,0,.91.16,4.75,4.75,0,0,0,.78-.06,2.32,2.32,0,0,0,.66-.21V22.68H71.2v-.39h1.72Z"/><path class="cls-3" d="M75.9,22.48a2.4,2.4,0,0,1,.19-1,2.32,2.32,0,0,1,.55-.76,2.5,2.5,0,0,1,.84-.5,3.36,3.36,0,0,1,2.17,0,2.71,2.71,0,0,1,.84.5,2.29,2.29,0,0,1,.54.76,2.4,2.4,0,0,1,.2,1,2.32,2.32,0,0,1-.2,1,2.23,2.23,0,0,1-.54.77,2.71,2.71,0,0,1-.84.5,3.36,3.36,0,0,1-2.17,0,2.5,2.5,0,0,1-.84-.5,2.26,2.26,0,0,1-.55-.77A2.32,2.32,0,0,1,75.9,22.48Zm.48,0a2.06,2.06,0,0,0,.15.79,1.79,1.79,0,0,0,.44.64,1.88,1.88,0,0,0,.69.43,2.64,2.64,0,0,0,1.81,0,1.88,1.88,0,0,0,.69-.43,1.92,1.92,0,0,0,.44-.64,2.06,2.06,0,0,0,.15-.79,2.11,2.11,0,0,0-.15-.8,1.92,1.92,0,0,0-.44-.64,2,2,0,0,0-.69-.43,2.81,2.81,0,0,0-1.81,0A2,2,0,0,0,77,21a1.79,1.79,0,0,0-.44.64A2.11,2.11,0,0,0,76.38,22.48Z"/><path class="cls-3" d="M82.31,20.18H85.4v.39H82.79V22.2h2.43v.39H82.79v2.18h-.48Z"/><path class="cls-3" d="M89.84,20.18h.49l2.17,4.59H92l-.56-1.22H88.67l-.58,1.22h-.51Zm.22.47-1.2,2.51h2.37Z"/><path class="cls-3" d="M95.14,20.18h.48v4.2H98v.39H95.14Z"/><path class="cls-3" d="M98.45,22.48a2.4,2.4,0,0,1,.19-1,2.47,2.47,0,0,1,.55-.76,2.5,2.5,0,0,1,.84-.5,3.36,3.36,0,0,1,2.17,0,2.71,2.71,0,0,1,.84.5,2.29,2.29,0,0,1,.54.76,2.25,2.25,0,0,1,.2,1,2.17,2.17,0,0,1-.2,1,2.23,2.23,0,0,1-.54.77,2.71,2.71,0,0,1-.84.5,3.36,3.36,0,0,1-2.17,0,2.5,2.5,0,0,1-.84-.5,2.4,2.4,0,0,1-.55-.77A2.32,2.32,0,0,1,98.45,22.48Zm.48,0a2.06,2.06,0,0,0,.15.79,1.79,1.79,0,0,0,.44.64,1.88,1.88,0,0,0,.69.43,2.64,2.64,0,0,0,1.81,0,1.88,1.88,0,0,0,.69-.43,1.79,1.79,0,0,0,.44-.64,2.06,2.06,0,0,0,.15-.79,2.11,2.11,0,0,0-.15-.8,1.79,1.79,0,0,0-.44-.64,2,2,0,0,0-.69-.43,2.81,2.81,0,0,0-1.81,0,2,2,0,0,0-.69.43,1.79,1.79,0,0,0-.44.64A2.11,2.11,0,0,0,98.93,22.48Z"/><path class="cls-3" d="M104.52,22.48a2.4,2.4,0,0,1,.2-1,2.18,2.18,0,0,1,.55-.76,2.5,2.5,0,0,1,.84-.5,3.14,3.14,0,0,1,1.08-.18,3.1,3.1,0,0,1,1.08.18,2.65,2.65,0,0,1,.85.5,2.29,2.29,0,0,1,.54.76,2.4,2.4,0,0,1,.2,1,2.32,2.32,0,0,1-.2,1,2.23,2.23,0,0,1-.54.77,2.65,2.65,0,0,1-.85.5,3.1,3.1,0,0,1-1.08.18,3.14,3.14,0,0,1-1.08-.18,2.5,2.5,0,0,1-.84-.5,2.13,2.13,0,0,1-.55-.77A2.32,2.32,0,0,1,104.52,22.48Zm.49,0a2.06,2.06,0,0,0,.15.79,1.79,1.79,0,0,0,.44.64,1.76,1.76,0,0,0,.68.43,2.42,2.42,0,0,0,.91.16,2.38,2.38,0,0,0,.91-.16,1.88,1.88,0,0,0,.69-.43,1.76,1.76,0,0,0,.43-.64,1.89,1.89,0,0,0,.16-.79,1.94,1.94,0,0,0-.16-.8,1.76,1.76,0,0,0-.43-.64,2,2,0,0,0-.69-.43,2.59,2.59,0,0,0-.91-.15,2.63,2.63,0,0,0-.91.15,1.88,1.88,0,0,0-.68.43,1.79,1.79,0,0,0-.44.64A2.11,2.11,0,0,0,105,22.48Z"/><path class="cls-3" d="M110.94,20.18h.48v2h0l2.5-2h.66l-2.6,2.1,2.75,2.49h-.69l-2.62-2.37h0v2.37h-.48Z"/><path class="cls-4" d="M5.77,6.58h.78l1,2.77h0l1-2.77h.72L7.66,10.89a4.08,4.08,0,0,1-.19.42,1.14,1.14,0,0,1-.23.33,1,1,0,0,1-.32.21,1.33,1.33,0,0,1-.47.07l-.3,0a1.11,1.11,0,0,1-.3-.08l.09-.61a1.1,1.1,0,0,0,.4.08.68.68,0,0,0,.26,0,.62.62,0,0,0,.19-.12A.83.83,0,0,0,6.92,11c0-.07.07-.15.1-.24l.22-.56Z"/><path class="cls-4" d="M9.57,8.35a1.8,1.8,0,0,1,.15-.73,2,2,0,0,1,.4-.59,1.91,1.91,0,0,1,.6-.4,2,2,0,0,1,1.48,0,1.91,1.91,0,0,1,.6.4,2,2,0,0,1,.4.59,1.85,1.85,0,0,1,0,1.46,1.87,1.87,0,0,1-.4.59,1.91,1.91,0,0,1-.6.4,2,2,0,0,1-1.48,0,1.91,1.91,0,0,1-.6-.4,1.87,1.87,0,0,1-.4-.59A1.8,1.8,0,0,1,9.57,8.35Zm.72,0a1.35,1.35,0,0,0,.09.5,1.09,1.09,0,0,0,.23.39,1,1,0,0,0,.36.25,1.25,1.25,0,0,0,1,0,1,1,0,0,0,.36-.25,1.09,1.09,0,0,0,.23-.39,1.35,1.35,0,0,0,.09-.5,1.39,1.39,0,0,0-.09-.5,1.09,1.09,0,0,0-.23-.39A1.16,1.16,0,0,0,12,7.21a1.38,1.38,0,0,0-1,0,1.16,1.16,0,0,0-.36.25,1.09,1.09,0,0,0-.23.39A1.39,1.39,0,0,0,10.29,8.35Z"/><path class="cls-4" d="M17.15,10.12h-.68V9.58h0A1,1,0,0,1,16,10a1.43,1.43,0,0,1-.73.17,1.57,1.57,0,0,1-.49-.07,1.22,1.22,0,0,1-.41-.25,1.15,1.15,0,0,1-.28-.42A1.62,1.62,0,0,1,14,8.86V6.58h.68V8.67a1.11,1.11,0,0,0,.07.43.68.68,0,0,0,.18.28.82.82,0,0,0,.25.16,1.06,1.06,0,0,0,.31.05,1.23,1.23,0,0,0,.39-.07,1,1,0,0,0,.31-.21,1.07,1.07,0,0,0,.21-.38,1.66,1.66,0,0,0,.07-.53V6.58h.68Z"/><path class="cls-4" d="M18,6.58h.67v.54h0a.87.87,0,0,1,.18-.26,1.18,1.18,0,0,1,.25-.19,1,1,0,0,1,.3-.13,1.13,1.13,0,0,1,.63,0l0,.73-.16,0h-.17a1,1,0,0,0-.75.27,1.2,1.2,0,0,0-.27.86v1.78H18Z"/><path class="cls-4" d="M23,8.6a.88.88,0,0,0,.11.42.93.93,0,0,0,.26.33,1.28,1.28,0,0,0,.38.21,1.41,1.41,0,0,0,.45.07,1.1,1.1,0,0,0,.55-.14,1.91,1.91,0,0,0,.42-.39l.51.39a2.09,2.09,0,0,1-2.33.58,1.53,1.53,0,0,1-.57-.39,1.79,1.79,0,0,1-.37-.59,2.21,2.21,0,0,1-.12-.74,2,2,0,0,1,.13-.74A2,2,0,0,1,22.77,7a1.69,1.69,0,0,1,.58-.39,1.73,1.73,0,0,1,.73-.14,1.78,1.78,0,0,1,.8.16,1.6,1.6,0,0,1,.53.43,1.69,1.69,0,0,1,.3.6,2.24,2.24,0,0,1,.1.68V8.6Zm2.13-.54A1.3,1.3,0,0,0,25,7.65a.82.82,0,0,0-.51-.54A1.06,1.06,0,0,0,24.06,7a1.13,1.13,0,0,0-.45.09,1.09,1.09,0,0,0-.35.24A1.11,1.11,0,0,0,23,7.7a.94.94,0,0,0-.08.36Z"/><path class="cls-4" d="M26.43,6.58h.63v.55h0a.93.93,0,0,1,.12-.19,1.29,1.29,0,0,1,.24-.21,1.54,1.54,0,0,1,.34-.17,1.23,1.23,0,0,1,.44-.07,1.12,1.12,0,0,1,1.11.66,1.11,1.11,0,0,1,.48-.5,1.38,1.38,0,0,1,.64-.16,1.45,1.45,0,0,1,.67.13,1.06,1.06,0,0,1,.42.36,1.31,1.31,0,0,1,.2.5,2.78,2.78,0,0,1,.06.58v2.06h-.68v-2a2.42,2.42,0,0,0,0-.39A1.17,1.17,0,0,0,31,7.43a.72.72,0,0,0-.23-.23.89.89,0,0,0-.4-.08.8.8,0,0,0-.7.3,1.28,1.28,0,0,0-.2.77v1.93h-.68V8.27c0-.17,0-.33,0-.47a1.17,1.17,0,0,0-.11-.36.64.64,0,0,0-.22-.24.89.89,0,0,0-.4-.08.87.87,0,0,0-.35.07.86.86,0,0,0-.29.21,1,1,0,0,0-.2.36,1.62,1.62,0,0,0-.08.52v1.84h-.67Z"/><path class="cls-4" d="M32.63,7a2,2,0,0,1,.66-.39A2.19,2.19,0,0,1,34,6.49a2.22,2.22,0,0,1,.67.09,1.36,1.36,0,0,1,.46.27,1.07,1.07,0,0,1,.27.37,1.42,1.42,0,0,1,.08.45V9.48c0,.13,0,.24,0,.34a2.66,2.66,0,0,0,0,.3H35c0-.17,0-.35,0-.53h0a1.23,1.23,0,0,1-.54.48,1.58,1.58,0,0,1-.71.14,1.84,1.84,0,0,1-.47-.06,1.43,1.43,0,0,1-.39-.2,1.13,1.13,0,0,1-.27-.34,1.08,1.08,0,0,1-.09-.46,1,1,0,0,1,.15-.57A1,1,0,0,1,33,8.2,1.89,1.89,0,0,1,33.64,8a4.56,4.56,0,0,1,.76-.07h.49V7.78a.65.65,0,0,0,0-.27.67.67,0,0,0-.16-.25.69.69,0,0,0-.26-.17A1,1,0,0,0,34.05,7a1.65,1.65,0,0,0-.34,0,1.69,1.69,0,0,0-.27.1l-.22.13L33,7.43Zm1.9,1.41-.49,0a2,2,0,0,0-.45.11,1,1,0,0,0-.34.2.48.48,0,0,0-.13.35.49.49,0,0,0,.21.44,1,1,0,0,0,.55.14,1.09,1.09,0,0,0,.47-.1A.86.86,0,0,0,34.84,9a1.22,1.22,0,0,0,0-.37V8.42Z"/><path class="cls-4" d="M36.21,5.3A.45.45,0,0,1,36.36,5a.45.45,0,0,1,.35-.15.51.51,0,0,1,.49.49.45.45,0,0,1-.15.35.45.45,0,0,1-.34.15.51.51,0,0,1-.5-.5Zm.16,1.28H37v3.54h-.67Z"/><path class="cls-4" d="M38,4.47h.67v5.65H38Z"/></svg>