<svg id="Layer_1" data-name="Layer 1" xmlns="http://www.w3.org/2000/svg" viewBox="0 0 210.84 49"><defs><style>.cls-1{fill:#58595b;}.cls-2{fill:#919396;}</style></defs><path class="cls-1" d="M.21.41H2a4.23,4.23,0,0,1,.7.06A1.54,1.54,0,0,1,3.29.7a1.42,1.42,0,0,1,.45.49A1.63,1.63,0,0,1,3.92,2a1.23,1.23,0,0,1-.28.81,1.3,1.3,0,0,1-.81.45v0a1.93,1.93,0,0,1,.55.14,1.48,1.48,0,0,1,.43.31,1.24,1.24,0,0,1,.27.46,1.57,1.57,0,0,1,.1.58,1.68,1.68,0,0,1-.2.86,1.44,1.44,0,0,1-.5.51,1.86,1.86,0,0,1-.66.26,3.25,3.25,0,0,1-.67.07H.21ZM.78,3H2a2.08,2.08,0,0,0,.72-.1,1.21,1.21,0,0,0,.42-.26.76.76,0,0,0,.21-.33A1.39,1.39,0,0,0,3.35,2a1,1,0,0,0-.11-.52A.93.93,0,0,0,3,1.15,1.13,1.13,0,0,0,2.54,1,2.1,2.1,0,0,0,2,.93H.78ZM.78,6H2.07a2.31,2.31,0,0,0,.81-.12,1.23,1.23,0,0,0,.46-.3,1,1,0,0,0,.22-.38,1.35,1.35,0,0,0,.06-.37,1.26,1.26,0,0,0-.13-.57,1.17,1.17,0,0,0-.34-.39,1.23,1.23,0,0,0-.46-.22,1.93,1.93,0,0,0-.53-.07H.78Z"/><path class="cls-1" d="M5.53,3.63c0-.07,0-.16,0-.27s0-.21,0-.32,0-.21,0-.3,0-.17,0-.22H6C6,2.67,6,2.81,6,3s0,.22,0,.26a1.87,1.87,0,0,1,.51-.57,1.25,1.25,0,0,1,.75-.22h.15l.15,0L7.53,3a.43.43,0,0,0-.19,0A1.43,1.43,0,0,0,6.76,3a1.09,1.09,0,0,0-.4.29,1.22,1.22,0,0,0-.24.45A1.85,1.85,0,0,0,6,4.32V6.48H5.53Z"/><path class="cls-1" d="M11.52,4.82v.52c0,.16,0,.3,0,.43s0,.25,0,.37,0,.23,0,.34h-.48a3.2,3.2,0,0,1,0-.64h0a1.43,1.43,0,0,1-.56.56,1.7,1.7,0,0,1-.83.18,2.22,2.22,0,0,1-.51-.06,1.19,1.19,0,0,1-.44-.21A1,1,0,0,1,8.39,6a1,1,0,0,1-.13-.54,1.09,1.09,0,0,1,.23-.72,1.51,1.51,0,0,1,.57-.4,2.52,2.52,0,0,1,.72-.17,5.83,5.83,0,0,1,.68,0h.6V3.84a.85.85,0,0,0-.32-.74,1.42,1.42,0,0,0-.8-.22,1.8,1.8,0,0,0-1.21.45L8.43,3a1.84,1.84,0,0,1,.71-.41,2.37,2.37,0,0,1,.8-.14,1.77,1.77,0,0,1,1.15.34,1.29,1.29,0,0,1,.43,1.09Zm-1-.33a4.23,4.23,0,0,0-.63,0,1.93,1.93,0,0,0-.55.14A1,1,0,0,0,8.92,5a.59.59,0,0,0-.14.42.62.62,0,0,0,.08.33.66.66,0,0,0,.21.23.86.86,0,0,0,.29.13,1.13,1.13,0,0,0,.32,0A1.61,1.61,0,0,0,10.35,6a1.16,1.16,0,0,0,.43-.31A1.22,1.22,0,0,0,11,5.25a2.05,2.05,0,0,0,.06-.49V4.49Z"/><path class="cls-1" d="M13,3.63c0-.07,0-.16,0-.27s0-.21,0-.32,0-.21,0-.3a2,2,0,0,1,0-.22h.51c0,.15,0,.29,0,.43a.76.76,0,0,0,0,.26h0A1.53,1.53,0,0,1,14,2.65a1.55,1.55,0,0,1,.84-.23,1.76,1.76,0,0,1,.75.14,1.34,1.34,0,0,1,.46.38,1.43,1.43,0,0,1,.23.55,3.29,3.29,0,0,1,.07.63V6.48h-.52V4.15a2.42,2.42,0,0,0,0-.47,1.34,1.34,0,0,0-.15-.41.74.74,0,0,0-.3-.28,1.06,1.06,0,0,0-.5-.11,1.4,1.4,0,0,0-.54.1,1.08,1.08,0,0,0-.44.3,1.39,1.39,0,0,0-.29.51,2.17,2.17,0,0,0-.1.71v2H13Z"/><path class="cls-1" d="M21.24,5.79h0a1.43,1.43,0,0,1-.3.35,1.62,1.62,0,0,1-.39.25,2.07,2.07,0,0,1-.44.15,2.28,2.28,0,0,1-.45,0,2.24,2.24,0,0,1-.84-.15A1.89,1.89,0,0,1,18.14,6a1.93,1.93,0,0,1-.43-.66,2.32,2.32,0,0,1-.16-.84,2.23,2.23,0,0,1,.16-.83,1.89,1.89,0,0,1,1.09-1.1,2.24,2.24,0,0,1,.84-.15,2.28,2.28,0,0,1,.45,0,2.07,2.07,0,0,1,.44.15,2,2,0,0,1,.39.25,1.43,1.43,0,0,1,.3.35h0V0h.51V6.48h-.51Zm.05-1.29a1.51,1.51,0,0,0-.13-.63,1.41,1.41,0,0,0-.35-.51A1.54,1.54,0,0,0,20.29,3a1.57,1.57,0,0,0-.65-.13A1.51,1.51,0,0,0,19,3a1.37,1.37,0,0,0-.5.35,1.32,1.32,0,0,0-.31.51,1.67,1.67,0,0,0-.11.63,1.67,1.67,0,0,0,.11.63,1.32,1.32,0,0,0,.31.51A1.37,1.37,0,0,0,19,6a1.51,1.51,0,0,0,.65.13A1.57,1.57,0,0,0,20.29,6a1.54,1.54,0,0,0,.52-.35,1.41,1.41,0,0,0,.35-.51A1.51,1.51,0,0,0,21.29,4.5Z"/><path class="cls-1" d="M23,1a.38.38,0,0,1,.39-.38.35.35,0,0,1,.27.11.37.37,0,0,1,.11.27.41.41,0,0,1-.11.28.39.39,0,0,1-.27.11.41.41,0,0,1-.28-.11A.41.41,0,0,1,23,1Zm.13,1.57h.51v4h-.51Z"/><path class="cls-1" d="M25.2,3.63c0-.07,0-.16,0-.27s0-.21,0-.32,0-.21,0-.3a2,2,0,0,1,0-.22h.51c0,.15,0,.29,0,.43a1,1,0,0,0,0,.26h0a1.45,1.45,0,0,1,.52-.56,1.55,1.55,0,0,1,.84-.23,1.79,1.79,0,0,1,.75.14,1.34,1.34,0,0,1,.46.38,1.43,1.43,0,0,1,.23.55,3.28,3.28,0,0,1,.06.63V6.48h-.51V4.15a2.42,2.42,0,0,0,0-.47,1.34,1.34,0,0,0-.15-.41.74.74,0,0,0-.3-.28,1.06,1.06,0,0,0-.5-.11,1.4,1.4,0,0,0-.54.1,1.08,1.08,0,0,0-.44.3,1.39,1.39,0,0,0-.29.51,2.16,2.16,0,0,0-.11.71v2H25.2Z"/><path class="cls-1" d="M34,6.22a2.93,2.93,0,0,1-.21,1.2,1.78,1.78,0,0,1-1.23,1,2.66,2.66,0,0,1-1.25,0,3.47,3.47,0,0,1-.55-.16,2.28,2.28,0,0,1-.46-.26,1.76,1.76,0,0,1-.37-.35l.4-.38a1.68,1.68,0,0,0,.69.56,2.17,2.17,0,0,0,.88.19A1.82,1.82,0,0,0,32.56,8,1.27,1.27,0,0,0,33,7.7a1.25,1.25,0,0,0,.28-.37,2.12,2.12,0,0,0,.14-.4,1.31,1.31,0,0,0,.06-.38c0-.12,0-.22,0-.29V5.71h0a1.54,1.54,0,0,1-.6.56,1.84,1.84,0,0,1-.9.21,2.07,2.07,0,0,1-.82-.16,1.91,1.91,0,0,1-.67-.44,1.94,1.94,0,0,1,0-2.86A2.12,2.12,0,0,1,32,2.42a2,2,0,0,1,.9.2,1.64,1.64,0,0,1,.6.57h0V2.52H34Zm-.49-1.77a1.55,1.55,0,0,0-.13-.61,1.45,1.45,0,0,0-.33-.5,1.77,1.77,0,0,0-.5-.34,1.58,1.58,0,0,0-.61-.12,1.63,1.63,0,0,0-.62.12,1.72,1.72,0,0,0-.49.34,1.64,1.64,0,0,0-.34.5,1.61,1.61,0,0,0,0,1.22,1.77,1.77,0,0,0,.34.5,1.51,1.51,0,0,0,.49.33,1.47,1.47,0,0,0,.62.13,1.42,1.42,0,0,0,.61-.13,1.59,1.59,0,0,0,1-1.44Z"/><path class="cls-1" d="M40.69,4.82v.52c0,.16,0,.3,0,.43s0,.25,0,.37,0,.23,0,.34h-.48a3.16,3.16,0,0,1-.06-.64h0a1.5,1.5,0,0,1-.56.56,1.7,1.7,0,0,1-.83.18,2.22,2.22,0,0,1-.51-.06,1.19,1.19,0,0,1-.44-.21A1,1,0,0,1,37.56,6a1,1,0,0,1-.13-.54,1.09,1.09,0,0,1,.23-.72,1.51,1.51,0,0,1,.57-.4A2.52,2.52,0,0,1,39,4.12a5.83,5.83,0,0,1,.68,0h.6V3.84a.85.85,0,0,0-.32-.74,1.42,1.42,0,0,0-.8-.22,1.8,1.8,0,0,0-1.21.45L37.6,3a1.77,1.77,0,0,1,.71-.41,2.33,2.33,0,0,1,.8-.14,1.79,1.79,0,0,1,1.15.34,1.29,1.29,0,0,1,.43,1.09Zm-1-.33a4.23,4.23,0,0,0-.63,0,1.85,1.85,0,0,0-.55.14,1,1,0,0,0-.39.28.59.59,0,0,0-.14.42.62.62,0,0,0,.08.33.66.66,0,0,0,.21.23.9.9,0,0,0,.28.13,1.26,1.26,0,0,0,.33,0A1.61,1.61,0,0,0,39.52,6,1.16,1.16,0,0,0,40,5.69a1.22,1.22,0,0,0,.22-.44,2.05,2.05,0,0,0,.06-.49V4.49Z"/><path class="cls-1" d="M42.12,3.63c0-.07,0-.16,0-.27s0-.21,0-.32,0-.21,0-.3a2,2,0,0,1,0-.22h.51c0,.15,0,.29,0,.43a1,1,0,0,0,0,.26h0a1.45,1.45,0,0,1,.52-.56A1.55,1.55,0,0,1,44,2.42a1.79,1.79,0,0,1,.75.14,1.34,1.34,0,0,1,.46.38,1.43,1.43,0,0,1,.23.55,3.28,3.28,0,0,1,.06.63V6.48H45V4.15a2.42,2.42,0,0,0,0-.47,1.34,1.34,0,0,0-.15-.41.74.74,0,0,0-.3-.28,1.06,1.06,0,0,0-.5-.11,1.4,1.4,0,0,0-.54.1,1.08,1.08,0,0,0-.44.3,1.39,1.39,0,0,0-.29.51,2.16,2.16,0,0,0-.11.71v2h-.51Z"/><path class="cls-1" d="M50.41,5.79h0a1.43,1.43,0,0,1-.3.35,1.62,1.62,0,0,1-.39.25,2.28,2.28,0,0,1-.44.15,2.35,2.35,0,0,1-.45,0A2.24,2.24,0,0,1,48,6.43,1.89,1.89,0,0,1,47.31,6a1.93,1.93,0,0,1-.43-.66,2.13,2.13,0,0,1-.16-.84,2,2,0,0,1,.16-.83A1.89,1.89,0,0,1,48,2.57a2.24,2.24,0,0,1,.84-.15,2.35,2.35,0,0,1,.45,0,2.28,2.28,0,0,1,.44.15,2,2,0,0,1,.39.25,1.43,1.43,0,0,1,.3.35h0V0h.51V6.48h-.51Zm.05-1.29a1.51,1.51,0,0,0-.13-.63A1.41,1.41,0,0,0,50,3.36,1.54,1.54,0,0,0,49.46,3a1.72,1.72,0,0,0-1.31,0,1.33,1.33,0,0,0-.49.35,1.48,1.48,0,0,0-.32.51,1.89,1.89,0,0,0-.1.63,1.89,1.89,0,0,0,.1.63,1.48,1.48,0,0,0,.32.51,1.33,1.33,0,0,0,.49.35,1.72,1.72,0,0,0,1.31,0A1.54,1.54,0,0,0,50,5.64a1.41,1.41,0,0,0,.35-.51A1.51,1.51,0,0,0,50.46,4.5Z"/><path class="cls-1" d="M54.62.41h.85L57.68,5.5,59.89.41h.8V6.48h-.56V1.13h0L57.8,6.48h-.25L55.2,1.13h0V6.48h-.56Z"/><path class="cls-1" d="M65.29,4.82v.52c0,.16,0,.3,0,.43s0,.25,0,.37,0,.23,0,.34h-.48a3.16,3.16,0,0,1-.06-.64h0a1.5,1.5,0,0,1-.56.56,1.7,1.7,0,0,1-.83.18,2.22,2.22,0,0,1-.51-.06,1.19,1.19,0,0,1-.44-.21A1,1,0,0,1,62.16,6,1,1,0,0,1,62,5.41a1.09,1.09,0,0,1,.23-.72,1.51,1.51,0,0,1,.57-.4,2.52,2.52,0,0,1,.72-.17,5.83,5.83,0,0,1,.68,0h.6V3.84a.85.85,0,0,0-.32-.74,1.42,1.42,0,0,0-.8-.22,1.8,1.8,0,0,0-1.21.45L62.2,3a1.84,1.84,0,0,1,.71-.41,2.33,2.33,0,0,1,.8-.14,1.79,1.79,0,0,1,1.15.34,1.29,1.29,0,0,1,.43,1.09Zm-1-.33a4.23,4.23,0,0,0-.63,0,1.85,1.85,0,0,0-.55.14,1,1,0,0,0-.39.28.59.59,0,0,0-.14.42.62.62,0,0,0,.08.33.66.66,0,0,0,.21.23.9.9,0,0,0,.28.13,1.26,1.26,0,0,0,.33,0A1.61,1.61,0,0,0,64.12,6a1.16,1.16,0,0,0,.43-.31,1.22,1.22,0,0,0,.22-.44,2.05,2.05,0,0,0,.06-.49V4.49Z"/><path class="cls-1" d="M66.72,3.63c0-.07,0-.16,0-.27s0-.21,0-.32,0-.21,0-.3a2,2,0,0,1,0-.22h.51c0,.15,0,.29,0,.43a1,1,0,0,0,0,.26,1.84,1.84,0,0,1,.5-.57,1.26,1.26,0,0,1,.76-.22h.15l.15,0L68.73,3a.51.51,0,0,0-.2,0A1.46,1.46,0,0,0,68,3a1.09,1.09,0,0,0-.4.29,1.22,1.22,0,0,0-.24.45,1.85,1.85,0,0,0-.08.54V6.48h-.51Z"/><path class="cls-1" d="M69.63,0h.52V4.32L72.1,2.53h.76l-2,1.81L73.1,6.48h-.78L70.15,4.39V6.48h-.52Z"/><path class="cls-1" d="M77.32,5.73a1.81,1.81,0,0,1-.75.66,2.33,2.33,0,0,1-1,.19,2.14,2.14,0,0,1-.82-.15A1.9,1.9,0,0,1,74.14,6a2,2,0,0,1-.4-.66,2.33,2.33,0,0,1-.14-.85,2.17,2.17,0,0,1,.14-.82A2.23,2.23,0,0,1,74.15,3a2,2,0,0,1,.63-.43,1.87,1.87,0,0,1,.8-.16,1.84,1.84,0,0,1,.8.16A1.63,1.63,0,0,1,77,3a1.87,1.87,0,0,1,.36.59,2,2,0,0,1,.12.68v.36H74.11a1.76,1.76,0,0,0,.06.41,1.77,1.77,0,0,0,.24.5,1.54,1.54,0,0,0,.46.41,1.47,1.47,0,0,0,.74.17,1.59,1.59,0,0,0,.76-.19,1.35,1.35,0,0,0,.57-.51Zm-.4-1.56a1,1,0,0,0-.11-.5,1.18,1.18,0,0,0-.29-.41A1.39,1.39,0,0,0,76.09,3a1.62,1.62,0,0,0-.54-.1,1.37,1.37,0,0,0-.7.17,1.71,1.71,0,0,0-.44.4,1.29,1.29,0,0,0-.23.43,1,1,0,0,0-.07.29Z"/><path class="cls-1" d="M80.58,3H79.45V5.56a.5.5,0,0,0,.55.56,1,1,0,0,0,.29,0,1.42,1.42,0,0,0,.29-.1l0,.47-.33.09a1.48,1.48,0,0,1-.34,0,1.13,1.13,0,0,1-.47-.08.7.7,0,0,1-.31-.22A.92.92,0,0,1,79,6a1.25,1.25,0,0,1,0-.4V3h-.86V2.52h.86V1.38h.51V2.52h1.13Z"/><path class="cls-1" d="M81.52,1a.38.38,0,0,1,.39-.38.33.33,0,0,1,.27.11.33.33,0,0,1,.11.27.38.38,0,0,1-.38.39.41.41,0,0,1-.28-.11A.41.41,0,0,1,81.52,1Zm.13,1.57h.52v4h-.52Z"/><path class="cls-1" d="M83.68,3.63c0-.07,0-.16,0-.27s0-.21,0-.32,0-.21,0-.3a2,2,0,0,1,0-.22h.51c0,.15,0,.29,0,.43a1.18,1.18,0,0,0,0,.26h0a1.53,1.53,0,0,1,.52-.56,1.55,1.55,0,0,1,.84-.23,1.76,1.76,0,0,1,.75.14,1.25,1.25,0,0,1,.46.38,1.43,1.43,0,0,1,.23.55,2.65,2.65,0,0,1,.07.63V6.48h-.52V4.15a2.42,2.42,0,0,0,0-.47,1.34,1.34,0,0,0-.15-.41.74.74,0,0,0-.3-.28,1.06,1.06,0,0,0-.5-.11A1.4,1.4,0,0,0,85,3a1,1,0,0,0-.43.3,1.27,1.27,0,0,0-.29.51,1.93,1.93,0,0,0-.11.71v2h-.52Z"/><path class="cls-1" d="M92.49,6.22a2.77,2.77,0,0,1-.22,1.2,1.93,1.93,0,0,1-.53.7,2,2,0,0,1-.69.33,2.71,2.71,0,0,1-1.26,0,3.08,3.08,0,0,1-.54-.16,2.12,2.12,0,0,1-.47-.26,1.71,1.71,0,0,1-.36-.35l.4-.38a1.6,1.6,0,0,0,.68.56,2.21,2.21,0,0,0,.88.19A1.82,1.82,0,0,0,91,8a1.42,1.42,0,0,0,.45-.27,1.07,1.07,0,0,0,.27-.37,1.63,1.63,0,0,0,.15-.4,1.73,1.73,0,0,0,0-.38c0-.12,0-.22,0-.29V5.71h0a1.5,1.5,0,0,1-.61.56,1.8,1.8,0,0,1-.89.21,2.08,2.08,0,0,1-.83-.16A2,2,0,0,1,89,5.88a2.06,2.06,0,0,1-.45-.64,1.78,1.78,0,0,1-.17-.79,1.78,1.78,0,0,1,.17-.79A2.06,2.06,0,0,1,89,3a2.16,2.16,0,0,1,.67-.44,2.08,2.08,0,0,1,.83-.16,1.92,1.92,0,0,1,.89.2,1.6,1.6,0,0,1,.61.57h0V2.52h.52ZM92,4.45a1.54,1.54,0,0,0-.12-.61A1.62,1.62,0,0,0,91,3a1.61,1.61,0,0,0-1.22,0,1.77,1.77,0,0,0-.5.34,1.45,1.45,0,0,0-.33.5,1.5,1.5,0,0,0,0,1.22,1.49,1.49,0,0,0,.83.83,1.5,1.5,0,0,0,1.22,0,1.45,1.45,0,0,0,.5-.33,1.77,1.77,0,0,0,.34-.5A1.54,1.54,0,0,0,92,4.45Z"/><path class="cls-1" d="M96.4,5.36a1.51,1.51,0,0,0,.58.57,1.67,1.67,0,0,0,.81.19A1.78,1.78,0,0,0,98.32,6a1.36,1.36,0,0,0,.44-.25,1.06,1.06,0,0,0,.29-.37,1.1,1.1,0,0,0,.11-.49A.91.91,0,0,0,99,4.41a1,1,0,0,0-.35-.34,2.54,2.54,0,0,0-.5-.23l-.58-.19A4.79,4.79,0,0,1,97,3.44a1.71,1.71,0,0,1-.5-.32,1.35,1.35,0,0,1-.36-.48A1.69,1.69,0,0,1,96,1.92a1.46,1.46,0,0,1,.16-.71,1.46,1.46,0,0,1,.42-.53,2.08,2.08,0,0,1,.63-.32,2.63,2.63,0,0,1,1.65.07,1.82,1.82,0,0,1,.74.59l-.49.35a1.42,1.42,0,0,0-.5-.45A1.45,1.45,0,0,0,98,.77a2.26,2.26,0,0,0-.53.07,1.25,1.25,0,0,0-.43.22,1.07,1.07,0,0,0-.3.36,1.12,1.12,0,0,0-.11.5,1,1,0,0,0,.23.7A1.67,1.67,0,0,0,97.4,3a5.21,5.21,0,0,0,.76.25,4.17,4.17,0,0,1,.75.29,1.65,1.65,0,0,1,.58.5,1.54,1.54,0,0,1,.23.89,1.7,1.7,0,0,1-.15.73,1.57,1.57,0,0,1-.42.53,1.68,1.68,0,0,1-.6.33,2.15,2.15,0,0,1-.71.11,2.89,2.89,0,0,1-1.11-.21,1.94,1.94,0,0,1-.87-.7Z"/><path class="cls-1" d="M102.86,3h-1.13V5.56a.53.53,0,0,0,.14.41.54.54,0,0,0,.4.15,1,1,0,0,0,.3,0,1.42,1.42,0,0,0,.29-.1l0,.47-.33.09a1.48,1.48,0,0,1-.34,0,1.13,1.13,0,0,1-.47-.08.74.74,0,0,1-.32-.22.9.9,0,0,1-.17-.32,1.25,1.25,0,0,1-.06-.4V3h-.85V2.52h.85V1.38h.52V2.52h1.13Z"/><path class="cls-1" d="M103.84,3.63c0-.07,0-.16,0-.27s0-.21,0-.32a2.81,2.81,0,0,0,0-.3c0-.1,0-.17,0-.22h.52c0,.15,0,.29,0,.43a1.18,1.18,0,0,0,0,.26,1.75,1.75,0,0,1,.51-.57,1.21,1.21,0,0,1,.75-.22h.15l.15,0-.06.51a.48.48,0,0,0-.2,0,1.41,1.41,0,0,0-.57.11,1.13,1.13,0,0,0-.41.29,1.37,1.37,0,0,0-.23.45,1.85,1.85,0,0,0-.08.54V6.48h-.51Z"/><path class="cls-1" d="M109.83,4.82v.52c0,.16,0,.3,0,.43l0,.37c0,.11,0,.23,0,.34h-.48a4.16,4.16,0,0,1,0-.64h0a1.5,1.5,0,0,1-.56.56,1.73,1.73,0,0,1-.83.18,2.22,2.22,0,0,1-.51-.06,1.19,1.19,0,0,1-.44-.21,1,1,0,0,1-.33-.36,1.13,1.13,0,0,1-.12-.54,1.09,1.09,0,0,1,.23-.72,1.51,1.51,0,0,1,.57-.4,2.52,2.52,0,0,1,.72-.17,5.79,5.79,0,0,1,.67,0h.6V3.84a.85.85,0,0,0-.31-.74,1.42,1.42,0,0,0-.8-.22,1.8,1.8,0,0,0-1.21.45l-.3-.36a1.8,1.8,0,0,1,.7-.41,2.38,2.38,0,0,1,.81-.14,1.79,1.79,0,0,1,1.15.34,1.32,1.32,0,0,1,.43,1.09Zm-1-.33a4.23,4.23,0,0,0-.63,0,1.85,1.85,0,0,0-.55.14,1,1,0,0,0-.39.28.6.6,0,0,0-.15.42.63.63,0,0,0,.09.33.66.66,0,0,0,.21.23.9.9,0,0,0,.28.13,1.25,1.25,0,0,0,.32,0,1.66,1.66,0,0,0,.68-.12,1.16,1.16,0,0,0,.43-.31,1.19,1.19,0,0,0,.21-.44,2.05,2.05,0,0,0,.06-.49V4.49Z"/><path class="cls-1" d="M113.2,3h-1.14V5.56a.53.53,0,0,0,.15.41.54.54,0,0,0,.4.15,1,1,0,0,0,.3,0,1.66,1.66,0,0,0,.29-.1l0,.47-.34.09a1.35,1.35,0,0,1-.33,0,1.13,1.13,0,0,1-.47-.08.74.74,0,0,1-.32-.22.76.76,0,0,1-.17-.32,1.25,1.25,0,0,1-.06-.4V3h-.86V2.52h.86V1.38h.51V2.52h1.14Z"/><path class="cls-1" d="M117.67,5.73a1.79,1.79,0,0,1-.74.66,2.4,2.4,0,0,1-1,.19,2.19,2.19,0,0,1-.83-.15A2,2,0,0,1,114.5,6a2,2,0,0,1-.41-.66,2.57,2.57,0,0,1-.14-.85,2.18,2.18,0,0,1,.15-.82,1.88,1.88,0,0,1,.41-.66,1.82,1.82,0,0,1,.62-.43,1.91,1.91,0,0,1,.8-.16,1.84,1.84,0,0,1,.8.16,1.55,1.55,0,0,1,.58.42,1.71,1.71,0,0,1,.36.59,2,2,0,0,1,.12.68v.36h-3.33a1.85,1.85,0,0,0,.07.41,1.5,1.5,0,0,0,.23.5,1.67,1.67,0,0,0,.46.41,1.47,1.47,0,0,0,.74.17,1.62,1.62,0,0,0,.77-.19,1.39,1.39,0,0,0,.56-.51Zm-.39-1.56a1.18,1.18,0,0,0-.11-.5,1.33,1.33,0,0,0-.29-.41,1.44,1.44,0,0,0-.44-.28,1.62,1.62,0,0,0-.54-.1,1.31,1.31,0,0,0-.69.17,1.61,1.61,0,0,0-.45.4,1.8,1.8,0,0,0-.23.43,1.41,1.41,0,0,0-.07.29Z"/><path class="cls-1" d="M123,6.22a2.92,2.92,0,0,1-.22,1.2,1.93,1.93,0,0,1-.53.7,2,2,0,0,1-.69.33,2.71,2.71,0,0,1-1.26,0,3.08,3.08,0,0,1-.54-.16,2.12,2.12,0,0,1-.47-.26,2,2,0,0,1-.37-.35l.41-.38a1.6,1.6,0,0,0,.68.56,2.21,2.21,0,0,0,.88.19,1.82,1.82,0,0,0,.66-.11A1.42,1.42,0,0,0,122,7.7a1.22,1.22,0,0,0,.27-.37,1.63,1.63,0,0,0,.15-.4,1.73,1.73,0,0,0,0-.38c0-.12,0-.22,0-.29V5.71h0a1.47,1.47,0,0,1-.6.56,1.81,1.81,0,0,1-.9.21,2.07,2.07,0,0,1-.82-.16,1.91,1.91,0,0,1-.67-.44,2.27,2.27,0,0,1-.46-.64,2,2,0,0,1,0-1.58,2.27,2.27,0,0,1,.46-.64,2.12,2.12,0,0,1,1.49-.6,1.93,1.93,0,0,1,.9.2,1.57,1.57,0,0,1,.6.57h0V2.52H123Zm-.5-1.77a1.54,1.54,0,0,0-.12-.61,1.64,1.64,0,0,0-.34-.5,1.77,1.77,0,0,0-.5-.34,1.61,1.61,0,0,0-1.22,0,1.77,1.77,0,0,0-.5.34,1.45,1.45,0,0,0-.33.5,1.5,1.5,0,0,0,0,1.22,1.49,1.49,0,0,0,.83.83,1.5,1.5,0,0,0,1.22,0,1.56,1.56,0,0,0,.5-.33,1.77,1.77,0,0,0,.34-.5A1.54,1.54,0,0,0,122.48,4.45Z"/><path class="cls-1" d="M124.25,1a.38.38,0,0,1,.39-.38.33.33,0,0,1,.27.11A.33.33,0,0,1,125,1a.38.38,0,0,1-.38.39.41.41,0,0,1-.28-.11A.41.41,0,0,1,124.25,1Zm.13,1.57h.52v4h-.52Z"/><path class="cls-1" d="M129.91,5.73a1.79,1.79,0,0,1-.74.66,2.4,2.4,0,0,1-1,.19,2.19,2.19,0,0,1-.83-.15,2,2,0,0,1-.63-.43,2,2,0,0,1-.41-.66,2.57,2.57,0,0,1-.14-.85,2.18,2.18,0,0,1,.15-.82,1.88,1.88,0,0,1,.41-.66,1.82,1.82,0,0,1,.62-.43,1.91,1.91,0,0,1,.8-.16,1.84,1.84,0,0,1,.8.16,1.55,1.55,0,0,1,.58.42,1.71,1.71,0,0,1,.36.59,2,2,0,0,1,.12.68v.36H126.7a1.85,1.85,0,0,0,.07.41,1.5,1.5,0,0,0,.23.5,1.67,1.67,0,0,0,.46.41,1.47,1.47,0,0,0,.74.17,1.62,1.62,0,0,0,.77-.19,1.39,1.39,0,0,0,.56-.51Zm-.39-1.56a1.18,1.18,0,0,0-.11-.5,1.33,1.33,0,0,0-.29-.41,1.44,1.44,0,0,0-.44-.28,1.62,1.62,0,0,0-.54-.1,1.31,1.31,0,0,0-.69.17,1.61,1.61,0,0,0-.45.4,1.8,1.8,0,0,0-.23.43,1.41,1.41,0,0,0-.07.29Z"/><path class="cls-1" d="M131.25,5.47a1.11,1.11,0,0,0,.48.48,1.42,1.42,0,0,0,.67.17,1.25,1.25,0,0,0,.32,0,.73.73,0,0,0,.29-.15.63.63,0,0,0,.21-.22.54.54,0,0,0,.09-.31.48.48,0,0,0-.18-.41,1.33,1.33,0,0,0-.43-.21,4.32,4.32,0,0,0-.57-.14,1.93,1.93,0,0,1-.56-.17,1.19,1.19,0,0,1-.44-.32.85.85,0,0,1-.17-.58,1,1,0,0,1,.12-.51,1,1,0,0,1,.31-.35,1.15,1.15,0,0,1,.43-.21,1.66,1.66,0,0,1,.49-.07,1.8,1.8,0,0,1,.84.18,1.26,1.26,0,0,1,.56.56l-.47.28a1,1,0,0,0-.36-.42,1.09,1.09,0,0,0-.57-.14,1,1,0,0,0-.29,0,1.11,1.11,0,0,0-.27.12.76.76,0,0,0-.2.2.5.5,0,0,0-.08.27.46.46,0,0,0,.18.4,1.22,1.22,0,0,0,.43.2,4.06,4.06,0,0,0,.57.12,2.44,2.44,0,0,1,.56.17,1.1,1.1,0,0,1,.43.34.94.94,0,0,1,.18.62,1.12,1.12,0,0,1-.12.53,1,1,0,0,1-.31.38,1.35,1.35,0,0,1-.46.24,1.9,1.9,0,0,1-.54.07,2.19,2.19,0,0,1-.94-.19,1.55,1.55,0,0,1-.66-.61Z"/><path class="cls-2" d="M0,9.9H6.78V25.09H24.61V9.9h6.78V48H24.61V31.23H6.78V48H0Z"/><path class="cls-2" d="M37.86,29.12a22.11,22.11,0,0,1,1.5-8.31,18.71,18.71,0,0,1,4.18-6.39,18.3,18.3,0,0,1,6.35-4.06A22.31,22.31,0,0,1,58,8.93a22.93,22.93,0,0,1,8.19,1.32,18,18,0,0,1,6.41,4,18.67,18.67,0,0,1,4.2,6.36,21.94,21.94,0,0,1,1.51,8.29A21.25,21.25,0,0,1,76.79,37a18.81,18.81,0,0,1-4.2,6.3,19.25,19.25,0,0,1-6.41,4.12A22.74,22.74,0,0,1,58,49a22.31,22.31,0,0,1-8.1-1.43,18.4,18.4,0,0,1-6.35-4,18.58,18.58,0,0,1-4.18-6.27A21.27,21.27,0,0,1,37.86,29.12Zm7.1-.43a16.36,16.36,0,0,0,.95,5.66,13.18,13.18,0,0,0,2.66,4.47,12.51,12.51,0,0,0,4.12,3,12.9,12.9,0,0,0,5.36,1.08,13.06,13.06,0,0,0,5.38-1.08,12.43,12.43,0,0,0,4.15-3,13.37,13.37,0,0,0,2.67-4.47,16.59,16.59,0,0,0,.94-5.66,15,15,0,0,0-.94-5.33A13.23,13.23,0,0,0,67.58,19a12.16,12.16,0,0,0-4.15-2.91,13.38,13.38,0,0,0-5.38-1.05,13.21,13.21,0,0,0-5.36,1.05A12.23,12.23,0,0,0,48.57,19a13,13,0,0,0-2.66,4.33A14.83,14.83,0,0,0,45,28.69Z"/><path class="cls-2" d="M80.5,9.9h7.43L95.1,37.36h.1L103.77,9.9h6.67l8.4,27.46H119L126.44,9.9h6.89L122.24,48h-6.47l-8.83-29h-.1L98,48H91.76Z"/><path class="cls-1" d="M136.19,19h3.26a6.08,6.08,0,0,1,1.74.22,4.53,4.53,0,0,1,1.29.6,3.6,3.6,0,0,1,.91.87,4.25,4.25,0,0,1,.58,1,5,5,0,0,1,.3,1,5.52,5.52,0,0,1,.09.95,4.72,4.72,0,0,1-.33,1.74,4.41,4.41,0,0,1-1,1.49,5,5,0,0,1-1.61,1.05,5.78,5.78,0,0,1-2.21.39h-3.05Zm1.27,8.16h1.6a5.42,5.42,0,0,0,1.52-.22,3.61,3.61,0,0,0,1.26-.66,3.14,3.14,0,0,0,.86-1.08,3.51,3.51,0,0,0,.32-1.53,4.41,4.41,0,0,0-.15-1.05,3.14,3.14,0,0,0-.54-1.14,3.34,3.34,0,0,0-1.12-.92,4,4,0,0,0-1.85-.38h-1.9Z"/><path class="cls-1" d="M145.45,25.18a3.26,3.26,0,0,1,.25-1.29,3.56,3.56,0,0,1,.71-1,3.21,3.21,0,0,1,1.06-.7,3.41,3.41,0,0,1,2.61,0,3.21,3.21,0,0,1,1.06.7,3.34,3.34,0,0,1,.7,1,3.31,3.31,0,0,1,0,2.57,3.27,3.27,0,0,1-.7,1.05,3.56,3.56,0,0,1-1.06.7,3.53,3.53,0,0,1-2.61,0,3.56,3.56,0,0,1-1.06-.7,3.47,3.47,0,0,1-.71-1.05A3.25,3.25,0,0,1,145.45,25.18Zm1.26,0a2.49,2.49,0,0,0,.15.87,2,2,0,0,0,.41.69,1.89,1.89,0,0,0,.65.45,2.36,2.36,0,0,0,1.71,0,1.89,1.89,0,0,0,.65-.45,2,2,0,0,0,.41-.69,2.8,2.8,0,0,0,0-1.75,2,2,0,0,0-.41-.69,1.89,1.89,0,0,0-.65-.45,2.36,2.36,0,0,0-1.71,0,1.89,1.89,0,0,0-.65.45,2,2,0,0,0-.41.69A2.5,2.5,0,0,0,146.71,25.18Z"/><path class="cls-1" d="M159.51,24.32,156,19h1.62l2.55,4.1,2.63-4.1h1.54l-3.53,5.36v4h-1.27Z"/><path class="cls-1" d="M164.38,25.18a3.27,3.27,0,0,1,.26-1.29,3.34,3.34,0,0,1,.7-1,3.21,3.21,0,0,1,1.06-.7,3.41,3.41,0,0,1,2.61,0,3.21,3.21,0,0,1,1.06.7,3.56,3.56,0,0,1,.71,1,3.43,3.43,0,0,1,0,2.57,3.47,3.47,0,0,1-.71,1.05,3.56,3.56,0,0,1-1.06.7,3.53,3.53,0,0,1-2.61,0,3.56,3.56,0,0,1-1.06-.7,3.33,3.33,0,0,1-1-2.33Zm1.27,0a2.74,2.74,0,0,0,.14.87,2.14,2.14,0,0,0,.41.69,1.89,1.89,0,0,0,.65.45,2.13,2.13,0,0,0,.86.16,2.2,2.2,0,0,0,.86-.16,1.85,1.85,0,0,0,.64-.45,2,2,0,0,0,.41-.69,2.63,2.63,0,0,0,0-1.75,2,2,0,0,0-.41-.69,1.85,1.85,0,0,0-.64-.45,2.2,2.2,0,0,0-.86-.16,2.13,2.13,0,0,0-.86.16,1.89,1.89,0,0,0-.65.45,2.14,2.14,0,0,0-.41.69A2.75,2.75,0,0,0,165.65,25.18Z"/><path class="cls-1" d="M179.14,28.3H178v-1h0a1.74,1.74,0,0,1-.78.81,2.81,2.81,0,0,1-2.16.17,1.79,1.79,0,0,1-.71-.43,2,2,0,0,1-.5-.74,2.91,2.91,0,0,1-.18-1.08v-4h1.18v3.69a2.11,2.11,0,0,0,.12.75,1.39,1.39,0,0,0,.32.5,1.18,1.18,0,0,0,.45.28,1.64,1.64,0,0,0,.54.08,2,2,0,0,0,.69-.12,1.34,1.34,0,0,0,.55-.37,1.79,1.79,0,0,0,.37-.65,3,3,0,0,0,.13-.94V22.05h1.19Z"/><path class="cls-1" d="M136.4,29.46h3.25a4.06,4.06,0,0,1,1.13.15,2.51,2.51,0,0,1,.9.43,2,2,0,0,1,.59.72,2.28,2.28,0,0,1,.22,1,1.9,1.9,0,0,1-.45,1.31,2.66,2.66,0,0,1-1.16.75v0a2.11,2.11,0,0,1,.79.22,2.26,2.26,0,0,1,.64.5,2.43,2.43,0,0,1,.59,1.61,2.33,2.33,0,0,1-.26,1.11,2.41,2.41,0,0,1-.7.82,3.4,3.4,0,0,1-1.05.5,4.72,4.72,0,0,1-1.28.17H136.4Zm1.27,3.88h1.73a2.87,2.87,0,0,0,.67-.07,1.58,1.58,0,0,0,.56-.24,1.21,1.21,0,0,0,.37-.44,1.28,1.28,0,0,0,.14-.65,1.32,1.32,0,0,0-1.48-1.37h-2Zm0,4.36h1.86a3.72,3.72,0,0,0,.64-.06,1.94,1.94,0,0,0,.66-.24,1.66,1.66,0,0,0,.51-.48,1.38,1.38,0,0,0,.21-.8,1.48,1.48,0,0,0-.54-1.25,2.32,2.32,0,0,0-1.46-.42h-1.88Z"/><path class="cls-1" d="M144.73,36.12a1.53,1.53,0,0,0,.18.74,1.91,1.91,0,0,0,.47.58,2.41,2.41,0,0,0,.67.37,2.68,2.68,0,0,0,.8.13,1.77,1.77,0,0,0,1-.26,3.17,3.17,0,0,0,.75-.68l.9.69A3.31,3.31,0,0,1,146.69,39a3.59,3.59,0,0,1-1.34-.25,3,3,0,0,1-1-.7,3,3,0,0,1-.64-1,3.66,3.66,0,0,1-.22-1.3,3.46,3.46,0,0,1,.24-1.3,3.21,3.21,0,0,1,.67-1,3.08,3.08,0,0,1,1-.7,3.37,3.37,0,0,1,1.29-.25,3.16,3.16,0,0,1,1.41.29,2.84,2.84,0,0,1,.94.76,3,3,0,0,1,.54,1.06,4.38,4.38,0,0,1,.16,1.19v.43Zm3.75-.95a2.37,2.37,0,0,0-.12-.73,1.63,1.63,0,0,0-.34-.57,1.41,1.41,0,0,0-.56-.39,2.09,2.09,0,0,0-.78-.14,1.88,1.88,0,0,0-.8.17,1.86,1.86,0,0,0-.62.43,2.16,2.16,0,0,0-.39.59,1.61,1.61,0,0,0-.14.64Z"/><path class="cls-1" d="M155.07,34.21a2.72,2.72,0,0,0-.69-.52,1.93,1.93,0,0,0-.87-.17,1.9,1.9,0,0,0-.85.17,1.8,1.8,0,0,0-.6.49,2.1,2.1,0,0,0-.37.71,2.63,2.63,0,0,0-.13.84,2.31,2.31,0,0,0,.15.83,2.11,2.11,0,0,0,.4.68,2,2,0,0,0,.64.45,2,2,0,0,0,.83.17,1.91,1.91,0,0,0,.86-.18,2.14,2.14,0,0,0,.66-.52l.84.84a2.53,2.53,0,0,1-1.07.74,3.78,3.78,0,0,1-1.3.23,3.54,3.54,0,0,1-1.33-.24,3.05,3.05,0,0,1-1-.67,2.92,2.92,0,0,1-.67-1,3.52,3.52,0,0,1-.24-1.32,3.63,3.63,0,0,1,.24-1.34,3.05,3.05,0,0,1,.67-1,2.94,2.94,0,0,1,1-.68,3.56,3.56,0,0,1,1.34-.24,3.66,3.66,0,0,1,1.31.24,2.81,2.81,0,0,1,1.09.75Z"/><path class="cls-1" d="M156.08,35.68a3.21,3.21,0,0,1,.25-1.28,3.34,3.34,0,0,1,1.77-1.75,3.32,3.32,0,0,1,1.3-.26,3.33,3.33,0,0,1,2.37,1,3.4,3.4,0,0,1,.7,1,3.22,3.22,0,0,1,.26,1.28,3.29,3.29,0,0,1-1,2.33,3.32,3.32,0,0,1-1.06.7,3.37,3.37,0,0,1-1.31.26,3.32,3.32,0,0,1-1.3-.26A3.21,3.21,0,0,1,157,38a3.15,3.15,0,0,1-.71-1A3.26,3.26,0,0,1,156.08,35.68Zm1.26,0a2.5,2.5,0,0,0,.15.88,1.72,1.72,0,0,0,.41.68,1.85,1.85,0,0,0,.64.45,2.2,2.2,0,0,0,.86.17,2.13,2.13,0,0,0,.86-.17,1.89,1.89,0,0,0,.65-.45,2,2,0,0,0,.41-.68,2.84,2.84,0,0,0,0-1.76,2.09,2.09,0,0,0-.41-.68,1.89,1.89,0,0,0-.65-.45,2.13,2.13,0,0,0-.86-.17,2.2,2.2,0,0,0-.86.17,1.85,1.85,0,0,0-.64.45,1.8,1.8,0,0,0-.41.68A2.5,2.5,0,0,0,157.34,35.68Z"/><path class="cls-1" d="M163.64,32.55h1.11v1h0a.87.87,0,0,1,.2-.33,2.25,2.25,0,0,1,.42-.38,2.48,2.48,0,0,1,.61-.3,2.34,2.34,0,0,1,.77-.13,2.27,2.27,0,0,1,1.18.29,2.37,2.37,0,0,1,.78.87,2,2,0,0,1,.85-.87,2.47,2.47,0,0,1,1.13-.29,2.6,2.6,0,0,1,1.19.24,1.93,1.93,0,0,1,.72.63,2.22,2.22,0,0,1,.36.88,4.93,4.93,0,0,1,.1,1v3.64h-1.18V35.32a5.06,5.06,0,0,0,0-.68,1.65,1.65,0,0,0-.19-.58,1.24,1.24,0,0,0-.41-.41,1.43,1.43,0,0,0-.7-.15,1.41,1.41,0,0,0-1.23.53,2.3,2.3,0,0,0-.37,1.36v3.42h-1.19V35.54a6.82,6.82,0,0,0,0-.82,1.93,1.93,0,0,0-.19-.64,1.08,1.08,0,0,0-.39-.43,1.43,1.43,0,0,0-.7-.15,1.56,1.56,0,0,0-1.13.5,1.88,1.88,0,0,0-.36.64,2.84,2.84,0,0,0-.13.92v3.25h-1.19Z"/><path class="cls-1" d="M175.21,36.12a1.52,1.52,0,0,0,.17.74,1.91,1.91,0,0,0,.47.58,2.47,2.47,0,0,0,.68.37,2.62,2.62,0,0,0,.79.13,1.77,1.77,0,0,0,1-.26A3,3,0,0,0,179,37l.9.69A3.31,3.31,0,0,1,177.16,39a3.59,3.59,0,0,1-1.34-.25,3,3,0,0,1-1-.7,3.14,3.14,0,0,1-.64-1,3.66,3.66,0,0,1-.22-1.3,3.46,3.46,0,0,1,.24-1.3,3.23,3.23,0,0,1,.68-1,3,3,0,0,1,1-.7,3.41,3.41,0,0,1,1.29-.25,3.13,3.13,0,0,1,1.41.29,2.84,2.84,0,0,1,.94.76,3,3,0,0,1,.54,1.06,4.38,4.38,0,0,1,.16,1.19v.43Zm3.75-.95a2.71,2.71,0,0,0-.13-.73,1.63,1.63,0,0,0-.34-.57,1.41,1.41,0,0,0-.56-.39,2.05,2.05,0,0,0-.78-.14,1.91,1.91,0,0,0-.8.17,2,2,0,0,0-.62.43,2.16,2.16,0,0,0-.39.59,1.59,1.59,0,0,0-.13.64Z"/><path class="cls-1" d="M186.67,34.82l-3.54-5.36h1.62l2.55,4.11,2.63-4.11h1.54l-3.54,5.36v4h-1.26Z"/><path class="cls-1" d="M190.34,35.68a3.21,3.21,0,0,1,.25-1.28,3.34,3.34,0,0,1,1.77-1.75,3.32,3.32,0,0,1,1.3-.26,3.33,3.33,0,0,1,2.37,1,3.29,3.29,0,0,1,1,2.32,3.27,3.27,0,0,1-.26,1.29,3.13,3.13,0,0,1-.7,1,3.32,3.32,0,0,1-1.06.7,3.37,3.37,0,0,1-1.31.26,3.32,3.32,0,0,1-1.3-.26,3.21,3.21,0,0,1-1.06-.7,3.15,3.15,0,0,1-.71-1A3.26,3.26,0,0,1,190.34,35.68Zm1.26,0a2.5,2.5,0,0,0,.15.88,1.91,1.91,0,0,0,1.05,1.13,2.2,2.2,0,0,0,.86.17,2.13,2.13,0,0,0,.86-.17,1.89,1.89,0,0,0,.65-.45,2,2,0,0,0,.41-.68,2.84,2.84,0,0,0,0-1.76,2.09,2.09,0,0,0-.41-.68,1.89,1.89,0,0,0-.65-.45,2.13,2.13,0,0,0-.86-.17,2.2,2.2,0,0,0-.86.17,1.85,1.85,0,0,0-.64.45,1.93,1.93,0,0,0-.41.68A2.5,2.5,0,0,0,191.6,35.68Z"/><path class="cls-1" d="M203.89,38.81h-1.18v-1h0a1.79,1.79,0,0,1-.78.81,2.66,2.66,0,0,1-1.28.31,2.74,2.74,0,0,1-.87-.14,2,2,0,0,1-.72-.43,2.06,2.06,0,0,1-.5-.75,2.89,2.89,0,0,1-.18-1.07v-4h1.19v3.7a2,2,0,0,0,.12.74,1.42,1.42,0,0,0,.31.51,1.27,1.27,0,0,0,.46.27,1.6,1.6,0,0,0,.53.09,1.92,1.92,0,0,0,.69-.12,1.3,1.3,0,0,0,.55-.38,1.65,1.65,0,0,0,.37-.65,2.91,2.91,0,0,0,.14-.94V32.55h1.18Z"/><path class="cls-1" d="M207.43,36.2v-.81a2.38,2.38,0,0,1,.06-.59,1.36,1.36,0,0,1,.15-.43,1.62,1.62,0,0,1,.29-.37l.44-.43.42-.4a5.22,5.22,0,0,0,.39-.43,2.69,2.69,0,0,0,.28-.46,1.35,1.35,0,0,0,.11-.55,1.47,1.47,0,0,0-.11-.56,1.37,1.37,0,0,0-.3-.44,1.35,1.35,0,0,0-.44-.29,1.51,1.51,0,0,0-1.6.3,1.77,1.77,0,0,0-.48,1.07l-1.35-.13a2.8,2.8,0,0,1,1-1.8,2.93,2.93,0,0,1,1.95-.66,3.24,3.24,0,0,1,1,.17,2.49,2.49,0,0,1,.83.47,2.16,2.16,0,0,1,.56.77,2.44,2.44,0,0,1,.21,1,2.33,2.33,0,0,1-.15.87,2.31,2.31,0,0,1-.41.71l-.79.82-.13.12c-.14.13-.25.24-.34.34a1.21,1.21,0,0,0-.29.62,3,3,0,0,0,0,.46v.59ZM207.18,38a.87.87,0,0,1,.26-.62.88.88,0,0,1,1.23,0,.86.86,0,0,1,.25.62.84.84,0,0,1-.25.61.88.88,0,0,1-1.49-.61Z"/></svg>