<svg id="Layer_1" data-name="Layer 1" xmlns="http://www.w3.org/2000/svg" viewBox="0 0 168.31 50"><defs><style>.cls-1{fill:#404041;}.cls-2{fill:#babcbe;}.cls-3{fill:#f8a54a;}</style></defs><path class="cls-1" d="M.91.45H3.48a3.12,3.12,0,0,1,.74.09,1.62,1.62,0,0,1,.64.29,1.41,1.41,0,0,1,.46.51,1.54,1.54,0,0,1,.18.77A1.31,1.31,0,0,1,5.18,3a1.78,1.78,0,0,1-.82.52v0a1.63,1.63,0,0,1,.57.17,1.57,1.57,0,0,1,.45.34,1.51,1.51,0,0,1,.29.49,1.44,1.44,0,0,1,.11.59,1.76,1.76,0,0,1-.21.9A1.76,1.76,0,0,1,5,6.64,2.47,2.47,0,0,1,4.2,7,4.7,4.7,0,0,1,3.28,7H.91ZM2.08,3.13H3.15A1.4,1.4,0,0,0,4,2.9a.71.71,0,0,0,.3-.6A.72.72,0,0,0,4,1.66a1.72,1.72,0,0,0-1-.21h-1ZM2.08,6H3.16l.48,0a1.42,1.42,0,0,0,.47-.13,1,1,0,0,0,.36-.3.84.84,0,0,0,.14-.51.8.8,0,0,0-.34-.73,2.21,2.21,0,0,0-1.06-.2H2.08Z"/><path class="cls-1" d="M6.61,2.57H7.73v.71h0a1.43,1.43,0,0,1,.53-.61,1.48,1.48,0,0,1,.79-.21l.2,0,.2,0V3.61L9.2,3.54l-.27,0a1.18,1.18,0,0,0-.63.15A1,1,0,0,0,7.94,4a1,1,0,0,0-.17.37,1.23,1.23,0,0,0,0,.28V7H6.61Z"/><path class="cls-1" d="M12.8,6.43h0a1.42,1.42,0,0,1-.62.55,1.85,1.85,0,0,1-.82.17,2.06,2.06,0,0,1-.6-.08,1.79,1.79,0,0,1-.52-.25,1.37,1.37,0,0,1-.37-.42,1.22,1.22,0,0,1-.14-.59,1.46,1.46,0,0,1,.13-.62,1.31,1.31,0,0,1,.35-.42,1.8,1.8,0,0,1,.51-.28,2.93,2.93,0,0,1,.6-.15,4.5,4.5,0,0,1,.63-.07h.88V4.14a.74.74,0,0,0-.29-.63,1.24,1.24,0,0,0-.74-.21,1.76,1.76,0,0,0-.66.12,1.79,1.79,0,0,0-.53.34L10,3.18a2.11,2.11,0,0,1,.87-.55,3.27,3.27,0,0,1,1-.17,2.57,2.57,0,0,1,.8.11,1.7,1.7,0,0,1,.54.27,1,1,0,0,1,.33.39,1.49,1.49,0,0,1,.17.44,1.65,1.65,0,0,1,.06.43c0,.14,0,.27,0,.37V7h-1ZM12.73,5H12.5l-.52,0a2.34,2.34,0,0,0-.55.09,1.14,1.14,0,0,0-.43.2.45.45,0,0,0-.18.38.5.5,0,0,0,.07.27.65.65,0,0,0,.43.28,1,1,0,0,0,.28,0A1.2,1.2,0,0,0,12.46,6a1,1,0,0,0,.27-.75Z"/><path class="cls-1" d="M14.77,2.57h1.06v.72h0a1.59,1.59,0,0,1,.49-.58,1.38,1.38,0,0,1,.88-.25,1.75,1.75,0,0,1,.76.15,1.44,1.44,0,0,1,.51.39,1.55,1.55,0,0,1,.28.56,2.84,2.84,0,0,1,.08.66V7H17.73V4.78a3.25,3.25,0,0,0,0-.42,1.43,1.43,0,0,0-.09-.42.86.86,0,0,0-.25-.34.7.7,0,0,0-.46-.13,1.13,1.13,0,0,0-.47.09,1,1,0,0,0-.31.25,1,1,0,0,0-.19.36,2,2,0,0,0,0,.43V7H14.77Z"/><path class="cls-1" d="M23.42,6.37h0a1.47,1.47,0,0,1-.66.6,2.13,2.13,0,0,1-.88.18A2.27,2.27,0,0,1,20.94,7a1.92,1.92,0,0,1-.69-.5,2.11,2.11,0,0,1-.44-.74,2.77,2.77,0,0,1-.15-.92,2.6,2.6,0,0,1,.16-.93,2.2,2.2,0,0,1,.44-.74,2,2,0,0,1,.69-.5,2.08,2.08,0,0,1,.87-.18,2.34,2.34,0,0,1,.56.06,2.14,2.14,0,0,1,.43.17,2,2,0,0,1,.32.22l.21.23h0V0h1.12V7H23.42ZM20.78,4.81a1.43,1.43,0,0,0,.09.5,1.27,1.27,0,0,0,.26.43,1.4,1.4,0,0,0,.41.3,1.38,1.38,0,0,0,.55.11A1.35,1.35,0,0,0,22.64,6a1.6,1.6,0,0,0,.42-.3,1.45,1.45,0,0,0,.26-.43,1.43,1.43,0,0,0,.09-.5,1.48,1.48,0,0,0-.09-.51,1.29,1.29,0,0,0-.26-.42,1.25,1.25,0,0,0-.42-.3,1.2,1.2,0,0,0-.55-.11,1.23,1.23,0,0,0-.55.11,1.12,1.12,0,0,0-.41.3,1.14,1.14,0,0,0-.26.42A1.48,1.48,0,0,0,20.78,4.81Z"/><path class="cls-1" d="M31.38,1.86a1,1,0,0,0-.5-.39,1.65,1.65,0,0,0-.66-.13,1.74,1.74,0,0,0-.39,0,1.09,1.09,0,0,0-.35.15.75.75,0,0,0-.24.26.71.71,0,0,0-.1.39.6.6,0,0,0,.24.51A2.18,2.18,0,0,0,30,3c.23.09.49.17.76.25a2.83,2.83,0,0,1,.75.34,1.82,1.82,0,0,1,.58.56,1.67,1.67,0,0,1,.23,1,2,2,0,0,1-.19.92,1.82,1.82,0,0,1-.53.66,2.33,2.33,0,0,1-.77.39,3.1,3.1,0,0,1-.92.13A3.61,3.61,0,0,1,28.68,7a2.31,2.31,0,0,1-1-.69l.89-.86a1.45,1.45,0,0,0,.56.51,1.59,1.59,0,0,0,.74.18,1.45,1.45,0,0,0,.41-.06,1,1,0,0,0,.37-.17.81.81,0,0,0,.27-.28.73.73,0,0,0,.1-.39.67.67,0,0,0-.23-.56,2,2,0,0,0-.58-.33c-.23-.09-.48-.18-.75-.26a3.24,3.24,0,0,1-.76-.33,1.9,1.9,0,0,1-.57-.56,1.61,1.61,0,0,1-.24-.94,1.76,1.76,0,0,1,.21-.88,1.94,1.94,0,0,1,.55-.62A2.34,2.34,0,0,1,29.45.4a3.37,3.37,0,0,1,.9-.12,3.18,3.18,0,0,1,1,.16,2.33,2.33,0,0,1,.88.52Z"/><path class="cls-1" d="M32.64,3.52v-1h.92V1.28h1.12V2.57h1.23v1H34.68v2A1,1,0,0,0,34.8,6a.56.56,0,0,0,.5.19l.33,0a.66.66,0,0,0,.28-.11V7a1.66,1.66,0,0,1-.44.11l-.45,0a2.46,2.46,0,0,1-.73-.09,1,1,0,0,1-.45-.3,1.14,1.14,0,0,1-.22-.5,3.54,3.54,0,0,1-.06-.69V3.52Z"/><path class="cls-1" d="M36.55,2.57h1.12v.71h0a1.43,1.43,0,0,1,.53-.61A1.48,1.48,0,0,1,39,2.46l.2,0,.2,0V3.61l-.28-.07-.26,0a1.18,1.18,0,0,0-.63.15,1,1,0,0,0-.36.33,1,1,0,0,0-.17.37,1.23,1.23,0,0,0,0,.28V7H36.55Z"/><path class="cls-1" d="M42.73,6.43h0a1.42,1.42,0,0,1-.62.55,1.85,1.85,0,0,1-.82.17,2.06,2.06,0,0,1-.6-.08,1.79,1.79,0,0,1-.52-.25,1.37,1.37,0,0,1-.37-.42,1.22,1.22,0,0,1-.14-.59,1.46,1.46,0,0,1,.13-.62,1.31,1.31,0,0,1,.35-.42,1.8,1.8,0,0,1,.51-.28,2.93,2.93,0,0,1,.6-.15,4.5,4.5,0,0,1,.63-.07h.87V4.14a.73.73,0,0,0-.28-.63,1.24,1.24,0,0,0-.74-.21,1.76,1.76,0,0,0-.66.12,1.79,1.79,0,0,0-.53.34l-.59-.58a2.11,2.11,0,0,1,.87-.55,3.27,3.27,0,0,1,1-.17,2.57,2.57,0,0,1,.8.11,1.7,1.7,0,0,1,.54.27,1,1,0,0,1,.33.39,1.49,1.49,0,0,1,.17.44,1.65,1.65,0,0,1,.06.43c0,.14,0,.27,0,.37V7h-1ZM42.67,5h-.23l-.52,0a2.34,2.34,0,0,0-.55.09,1.07,1.07,0,0,0-.43.2.45.45,0,0,0-.18.38.5.5,0,0,0,.07.27.65.65,0,0,0,.43.28,1,1,0,0,0,.28,0A1.16,1.16,0,0,0,42.39,6a1,1,0,0,0,.28-.75Z"/><path class="cls-1" d="M44.19,3.52v-1h.92V1.28h1.12V2.57h1.23v1H46.23v2a1,1,0,0,0,.12.53.56.56,0,0,0,.5.19l.33,0a.66.66,0,0,0,.28-.11V7a1.57,1.57,0,0,1-.44.11l-.45,0a2.46,2.46,0,0,1-.73-.09,1,1,0,0,1-.45-.3,1.27,1.27,0,0,1-.22-.5,3.54,3.54,0,0,1-.06-.69V3.52Z"/><path class="cls-1" d="M49,5.2a1.09,1.09,0,0,0,.39.78,1.19,1.19,0,0,0,.81.28,1.37,1.37,0,0,0,.7-.17,2.07,2.07,0,0,0,.5-.43l.8.6a2.29,2.29,0,0,1-.88.69,2.5,2.5,0,0,1-1,.2,2.71,2.71,0,0,1-1-.16,2.1,2.1,0,0,1-.77-.48,2.2,2.2,0,0,1-.52-.74,2.32,2.32,0,0,1-.19-1,2.33,2.33,0,0,1,.19-1,2.3,2.3,0,0,1,.52-.74,2.21,2.21,0,0,1,.77-.47,2.71,2.71,0,0,1,1-.17,2.15,2.15,0,0,1,.85.16,1.85,1.85,0,0,1,.66.47,2.09,2.09,0,0,1,.43.76,3.29,3.29,0,0,1,.16,1V5.2Zm2.29-.84A1.07,1.07,0,0,0,51,3.58a1.14,1.14,0,0,0-.83-.28,1.08,1.08,0,0,0-.8.29,1.29,1.29,0,0,0-.35.77Z"/><path class="cls-1" d="M57.82,2.57V6.64a3.75,3.75,0,0,1-.15,1.1,2.17,2.17,0,0,1-.46.83,2.1,2.1,0,0,1-.79.52,3,3,0,0,1-1.13.19,4.15,4.15,0,0,1-1.18-.16,2.66,2.66,0,0,1-1-.58l.67-.91a2.61,2.61,0,0,0,.7.47,1.84,1.84,0,0,0,.83.17A1.7,1.7,0,0,0,56,8.16a1.1,1.1,0,0,0,.44-.31,1.15,1.15,0,0,0,.23-.47,2.27,2.27,0,0,0,.07-.61V6.45h0a1.57,1.57,0,0,1-.64.49,2.34,2.34,0,0,1-.82.16,2.21,2.21,0,0,1-.91-.18,2.25,2.25,0,0,1-.71-.49,2.36,2.36,0,0,1-.45-.73A2.65,2.65,0,0,1,53,4.81a2.83,2.83,0,0,1,.15-.93,2.2,2.2,0,0,1,.44-.74,2,2,0,0,1,.69-.5,2.27,2.27,0,0,1,.93-.18,2.06,2.06,0,0,1,.89.19,1.42,1.42,0,0,1,.65.59h0V2.57Zm-2.39.9a1.53,1.53,0,0,0-.54.09,1.33,1.33,0,0,0-.41.27,1.17,1.17,0,0,0-.27.42,1.42,1.42,0,0,0-.1.55,1.18,1.18,0,0,0,.1.5,1.13,1.13,0,0,0,.27.41A1.34,1.34,0,0,0,54.9,6a1.3,1.3,0,0,0,.52.1A1.43,1.43,0,0,0,56,6a1.51,1.51,0,0,0,.42-.27,1.29,1.29,0,0,0,.26-.42,1.46,1.46,0,0,0,.1-.52,1.24,1.24,0,0,0-1.33-1.31Z"/><path class="cls-1" d="M58.25,2.57h1.23l1.24,3.1h0l1.12-3.1H63L60.91,8a3.24,3.24,0,0,1-.27.56,1.64,1.64,0,0,1-.34.4,1.19,1.19,0,0,1-.46.24,2.3,2.3,0,0,1-.63.08,3.49,3.49,0,0,1-.86-.11l.14-1,.27.08.3,0a1.65,1.65,0,0,0,.34,0,.9.9,0,0,0,.24-.12.58.58,0,0,0,.16-.21c0-.08.09-.18.14-.3l.22-.53Z"/><path class="cls-1" d="M68,3.75v-2h1V3.75h2v1h-2V6.75H68v-2h-2v-1Z"/><path class="cls-1" d="M74.58.45h2.57a3,3,0,0,1,.73.09,1.6,1.6,0,0,1,.65.29,1.51,1.51,0,0,1,.46.51,1.54,1.54,0,0,1,.18.77,1.36,1.36,0,0,1-.32.92,1.82,1.82,0,0,1-.83.52v0a1.62,1.62,0,0,1,.58.17,1.9,1.9,0,0,1,.45.34,1.72,1.72,0,0,1,.29.49,1.63,1.63,0,0,1,.11.59,1.67,1.67,0,0,1-.22.9,1.73,1.73,0,0,1-.56.58,2.47,2.47,0,0,1-.8.31A4.7,4.7,0,0,1,77,7H74.58Zm1.17,2.68h1.07a1.42,1.42,0,0,0,.88-.23A.7.7,0,0,0,78,2.3a.74.74,0,0,0-.3-.64,1.72,1.72,0,0,0-1-.21h-1Zm0,2.91h1.08l.48,0a1.42,1.42,0,0,0,.47-.13.92.92,0,0,0,.35-.3.77.77,0,0,0,.14-.51.78.78,0,0,0-.34-.73,2.16,2.16,0,0,0-1.05-.2H75.75Z"/><path class="cls-1" d="M80.28,2.57h1.11v.71h0a1.5,1.5,0,0,1,.53-.61,1.52,1.52,0,0,1,.8-.21l.2,0,.2,0V3.61l-.28-.07-.26,0a1.18,1.18,0,0,0-.63.15A1.08,1.08,0,0,0,81.6,4a1,1,0,0,0-.16.37,1.38,1.38,0,0,0,0,.28V7H80.28Z"/><path class="cls-1" d="M86.46,6.43h0a1.4,1.4,0,0,1-.61.55,1.85,1.85,0,0,1-.82.17,2,2,0,0,1-.6-.08,1.67,1.67,0,0,1-.52-.25,1.15,1.15,0,0,1-.37-.42,1.22,1.22,0,0,1-.14-.59,1.32,1.32,0,0,1,.13-.62,1.19,1.19,0,0,1,.35-.42,1.67,1.67,0,0,1,.51-.28,2.93,2.93,0,0,1,.6-.15,4.5,4.5,0,0,1,.63-.07h.87V4.14a.71.71,0,0,0-.29-.63,1.19,1.19,0,0,0-.73-.21,1.76,1.76,0,0,0-.66.12,1.67,1.67,0,0,0-.53.34l-.59-.58a2.11,2.11,0,0,1,.87-.55,3.27,3.27,0,0,1,1-.17,2.62,2.62,0,0,1,.8.11,1.7,1.7,0,0,1,.54.27,1.23,1.23,0,0,1,.33.39,1.82,1.82,0,0,1,.17.44,3.41,3.41,0,0,1,.06.43c0,.14,0,.27,0,.37V7h-1ZM86.4,5h-.24l-.52,0a2.34,2.34,0,0,0-.54.09,1.19,1.19,0,0,0-.44.2.47.47,0,0,0-.17.38.5.5,0,0,0,.07.27.52.52,0,0,0,.18.18.69.69,0,0,0,.25.1.9.9,0,0,0,.28,0A1.16,1.16,0,0,0,86.12,6a1,1,0,0,0,.28-.75Z"/><path class="cls-1" d="M88.44,2.57H89.5v.72h0A1.56,1.56,0,0,1,90,2.71a1.41,1.41,0,0,1,.89-.25,1.75,1.75,0,0,1,.76.15,1.5,1.5,0,0,1,.5.39,1.41,1.41,0,0,1,.28.56,2.39,2.39,0,0,1,.09.66V7H91.4V4.78c0-.12,0-.26,0-.42a1.18,1.18,0,0,0-.1-.42A.76.76,0,0,0,91,3.6a.74.74,0,0,0-.46-.13,1.09,1.09,0,0,0-.47.09,1,1,0,0,0-.32.25,1.22,1.22,0,0,0-.18.36,1.54,1.54,0,0,0-.06.43V7H88.44Z"/><path class="cls-1" d="M97.09,6.37h0a1.45,1.45,0,0,1-.65.6,2.16,2.16,0,0,1-.88.18A2.27,2.27,0,0,1,94.61,7a2,2,0,0,1-.7-.5,2.09,2.09,0,0,1-.43-.74,2.77,2.77,0,0,1-.15-.92,2.6,2.6,0,0,1,.16-.93,2.2,2.2,0,0,1,.44-.74,2.1,2.1,0,0,1,.68-.5,2.13,2.13,0,0,1,.88-.18,2.34,2.34,0,0,1,.56.06,2.41,2.41,0,0,1,.43.17,1.54,1.54,0,0,1,.31.22,2.28,2.28,0,0,1,.22.23h0V0h1.12V7H97.09ZM94.44,4.81a1.43,1.43,0,0,0,.09.5,1.45,1.45,0,0,0,.26.43,1.6,1.6,0,0,0,.42.3,1.35,1.35,0,0,0,.55.11A1.38,1.38,0,0,0,96.31,6a1.4,1.4,0,0,0,.41-.3A1.27,1.27,0,0,0,97,5.31a1.43,1.43,0,0,0,.09-.5A1.48,1.48,0,0,0,97,4.3a1.14,1.14,0,0,0-.26-.42,1.12,1.12,0,0,0-.41-.3,1.23,1.23,0,0,0-.55-.11,1.2,1.2,0,0,0-.55.11,1.25,1.25,0,0,0-.42.3,1.29,1.29,0,0,0-.26.42A1.48,1.48,0,0,0,94.44,4.81Z"/><path class="cls-1" d="M101.79.45H103V7h-1.17Z"/><path class="cls-1" d="M107.61,6.37h0a1.45,1.45,0,0,1-.65.6,2.36,2.36,0,0,1-1.81,0,2,2,0,0,1-.7-.5,2.11,2.11,0,0,1-.44-.74,2.77,2.77,0,0,1-.15-.92,2.84,2.84,0,0,1,.16-.93,2.41,2.41,0,0,1,.45-.74,1.91,1.91,0,0,1,.68-.5,2.13,2.13,0,0,1,.88-.18,2.26,2.26,0,0,1,.55.06,1.93,1.93,0,0,1,.43.17,1.63,1.63,0,0,1,.32.22,1.41,1.41,0,0,1,.21.23h0V0h1.12V7h-1.06ZM105,4.81a1.43,1.43,0,0,0,.09.5,1.45,1.45,0,0,0,.26.43,1.45,1.45,0,0,0,.42.3,1.35,1.35,0,0,0,.55.11,1.42,1.42,0,0,0,.55-.11,1.4,1.4,0,0,0,.41-.3,1.45,1.45,0,0,0,.26-.43,1.43,1.43,0,0,0,.09-.5,1.48,1.48,0,0,0-.09-.51,1.29,1.29,0,0,0-.26-.42,1.12,1.12,0,0,0-.41-.3,1.26,1.26,0,0,0-.55-.11,1.2,1.2,0,0,0-.55.11,1.15,1.15,0,0,0-.42.3,1.29,1.29,0,0,0-.26.42A1.48,1.48,0,0,0,105,4.81Z"/><path class="cls-1" d="M110.6,5.2A1.17,1.17,0,0,0,111,6a1.19,1.19,0,0,0,.81.28,1.37,1.37,0,0,0,.7-.17,2.07,2.07,0,0,0,.5-.43l.8.6a2.33,2.33,0,0,1-.87.69,2.54,2.54,0,0,1-1,.2A2.75,2.75,0,0,1,111,7a2.28,2.28,0,0,1-1.29-1.22,2.32,2.32,0,0,1-.19-1,2.33,2.33,0,0,1,.19-1A2.22,2.22,0,0,1,111,2.63a2.75,2.75,0,0,1,1-.17,2.11,2.11,0,0,1,.85.16,2,2,0,0,1,.67.47,2.23,2.23,0,0,1,.42.76,3,3,0,0,1,.16,1V5.2Zm2.29-.84a1.07,1.07,0,0,0-.31-.78,1.14,1.14,0,0,0-.83-.28,1,1,0,0,0-.79.29,1.24,1.24,0,0,0-.36.77Z"/><path class="cls-1" d="M114.82,2.57h1.06v.72h0a1.56,1.56,0,0,1,.48-.58,1.42,1.42,0,0,1,.89-.25,1.75,1.75,0,0,1,.76.15,1.54,1.54,0,0,1,.51.39,1.39,1.39,0,0,1,.27.56,2.39,2.39,0,0,1,.09.66V7h-1.12V4.78c0-.12,0-.26,0-.42a1.18,1.18,0,0,0-.1-.42.76.76,0,0,0-.24-.34.72.72,0,0,0-.46-.13,1.09,1.09,0,0,0-.47.09,1,1,0,0,0-.32.25,1.22,1.22,0,0,0-.18.36,1.54,1.54,0,0,0,0,.43V7h-1.12Z"/><path class="cls-1" d="M119.41,3.52v-1h.92V1.28h1.12V2.57h1.23v1h-1.23v2a.93.93,0,0,0,.13.53.55.55,0,0,0,.5.19l.32,0a.66.66,0,0,0,.28-.11V7a1.58,1.58,0,0,1-.43.11l-.45,0a2.53,2.53,0,0,1-.74-.09,1.08,1.08,0,0,1-.44-.3,1.15,1.15,0,0,1-.23-.5,3.54,3.54,0,0,1-.06-.69V3.52Z"/><path class="cls-1" d="M123.19,1.05a.67.67,0,0,1,.2-.47.73.73,0,0,1,.51-.2.77.77,0,0,1,.52.19.63.63,0,0,1,.21.48.6.6,0,0,1-.21.48.73.73,0,0,1-.52.19.69.69,0,0,1-.51-.2A.65.65,0,0,1,123.19,1.05Zm.16,1.52h1.12V7h-1.12Z"/><path class="cls-1" d="M125,3.52v-1h.92V1.28H127V2.57h1.23v1H127v2a.93.93,0,0,0,.13.53.54.54,0,0,0,.49.19l.33,0a.66.66,0,0,0,.28-.11V7a1.58,1.58,0,0,1-.43.11l-.46,0a2.5,2.5,0,0,1-.73-.09,1,1,0,0,1-.44-.3,1.15,1.15,0,0,1-.23-.5,3.54,3.54,0,0,1-.06-.69V3.52Z"/><path class="cls-1" d="M128.31,2.57h1.23l1.25,3.1h0l1.12-3.1h1.17L131,8a4.21,4.21,0,0,1-.26.56,1.89,1.89,0,0,1-.34.4,1.26,1.26,0,0,1-.46.24,2.43,2.43,0,0,1-.64.08,3.49,3.49,0,0,1-.86-.11l.14-1,.27.08a1.53,1.53,0,0,0,.3,0,1.65,1.65,0,0,0,.34,0,.77.77,0,0,0,.24-.12.49.49,0,0,0,.16-.21,2.15,2.15,0,0,0,.14-.3l.22-.53Z"/><path class="cls-2" d="M146.4,20.57h1.08l3.73,8.74h-1.38L149,27.15H144.8l-.87,2.16h-1.38Zm2.12,5.54-1.62-4h0l-1.65,4Z"/><path class="cls-2" d="M152.07,23.46h1.11v.9h0a1.39,1.39,0,0,1,.3-.43,2.15,2.15,0,0,1,.41-.32,2.52,2.52,0,0,1,.5-.22,2,2,0,0,1,.54-.08,1.59,1.59,0,0,1,.5.08l0,1.19-.27-.06a1.37,1.37,0,0,0-.28,0,1.64,1.64,0,0,0-1.24.45,2,2,0,0,0-.43,1.42v2.94h-1.11Z"/><path class="cls-2" d="M157.25,26.79a1.47,1.47,0,0,0,.16.7,1.62,1.62,0,0,0,.44.53,1.93,1.93,0,0,0,.63.35,2.34,2.34,0,0,0,.74.12,1.63,1.63,0,0,0,.9-.24,3,3,0,0,0,.71-.63l.83.64a3.07,3.07,0,0,1-2.59,1.2,3.17,3.17,0,0,1-1.25-.24,2.64,2.64,0,0,1-.95-.65,2.83,2.83,0,0,1-.6-1,3.47,3.47,0,0,1-.21-1.22,3.22,3.22,0,0,1,.23-1.21,3,3,0,0,1,.63-1,2.89,2.89,0,0,1,1-.64,3,3,0,0,1,1.21-.24,2.91,2.91,0,0,1,1.31.27,2.58,2.58,0,0,1,.88.71,2.72,2.72,0,0,1,.5,1,4.27,4.27,0,0,1,.16,1.12v.39Zm3.5-.89a2.48,2.48,0,0,0-.12-.68,1.48,1.48,0,0,0-.31-.53,1.61,1.61,0,0,0-.52-.36,1.88,1.88,0,0,0-.74-.13,1.86,1.86,0,0,0-.75.15,2,2,0,0,0-.57.41,1.6,1.6,0,0,0-.36.54,1.51,1.51,0,0,0-.13.6Z"/><path class="cls-2" d="M146.06,35.61l-3.21-4.86h1.47l2.31,3.72L149,30.75h1.4l-3.21,4.86v3.61h-1.14Z"/><path class="cls-2" d="M149.5,36.38a3,3,0,0,1,.23-1.16,3.2,3.2,0,0,1,.64-.94,3,3,0,0,1,1-.64,3.17,3.17,0,0,1,2.37,0,3.12,3.12,0,0,1,1,.64,3,3,0,0,1,.64,3.27,2.66,2.66,0,0,1-.64.94,3.09,3.09,0,0,1-3.32.64,3,3,0,0,1-1-.64,3,3,0,0,1-.64-.94A3,3,0,0,1,149.5,36.38Zm1.15,0a2.28,2.28,0,0,0,.13.8,1.83,1.83,0,0,0,.37.62,1.78,1.78,0,0,0,.59.41,2.08,2.08,0,0,0,1.55,0,1.78,1.78,0,0,0,.59-.41,1.83,1.83,0,0,0,.37-.62,2.5,2.5,0,0,0,0-1.59,1.83,1.83,0,0,0-.37-.62,1.78,1.78,0,0,0-.59-.41,2.08,2.08,0,0,0-1.55,0,1.78,1.78,0,0,0-.59.41,1.83,1.83,0,0,0-.37.62A2.26,2.26,0,0,0,150.65,36.38Z"/><path class="cls-2" d="M161.9,39.22h-1.08v-.87h0a1.61,1.61,0,0,1-.71.73,2.29,2.29,0,0,1-1.16.28,2.5,2.5,0,0,1-.78-.12,2,2,0,0,1-.66-.39,2,2,0,0,1-.44-.68,2.4,2.4,0,0,1-.17-1V33.55H158V36.9a1.88,1.88,0,0,0,.11.67,1.25,1.25,0,0,0,.29.46,1.16,1.16,0,0,0,.41.25,1.62,1.62,0,0,0,.49.08,1.8,1.8,0,0,0,.62-.11,1.31,1.31,0,0,0,.5-.34,1.68,1.68,0,0,0,.33-.59,2.72,2.72,0,0,0,.12-.85V33.55h1.08Z"/><path class="cls-2" d="M165.22,36.85v-.73a2.76,2.76,0,0,1,.05-.54,1.32,1.32,0,0,1,.15-.39,1.44,1.44,0,0,1,.25-.33l.4-.39.39-.36a4.13,4.13,0,0,0,.34-.39,2,2,0,0,0,.26-.41,1.18,1.18,0,0,0,.1-.5,1.25,1.25,0,0,0-.1-.51,1.41,1.41,0,0,0-.27-.4,1.11,1.11,0,0,0-.4-.26,1.21,1.21,0,0,0-.5-.1,1.31,1.31,0,0,0-.95.37,1.58,1.58,0,0,0-.43,1l-1.22-.12a2.51,2.51,0,0,1,.86-1.63,2.67,2.67,0,0,1,1.77-.59,2.89,2.89,0,0,1,.94.15,2.27,2.27,0,0,1,.76.43,2,2,0,0,1,.5.69,2.19,2.19,0,0,1,.19.94,2.11,2.11,0,0,1-.13.79,2.27,2.27,0,0,1-.37.64l-.72.75L167,35l-.31.31a1.06,1.06,0,0,0-.17.26.75.75,0,0,0-.09.31,2.37,2.37,0,0,0,0,.41v.53ZM165,38.5a.76.76,0,0,1,.23-.56.79.79,0,0,1,.56-.23.76.76,0,0,1,.55.23.77.77,0,0,1,.24.56.8.8,0,0,1-.79.79.79.79,0,0,1-.56-.23A.75.75,0,0,1,165,38.5Z"/><path class="cls-3" d="M0,10.91H7.43l7.16,27.46h.11l8.56-27.46h6.68l8.4,27.46h.11l7.48-27.46h6.9L41.73,49H35.27L26.44,20h-.11L17.5,49H11.25Z"/><path class="cls-3" d="M57.08,10.91h6.78V26.09H81.69V10.91h6.78V49H81.69V32.23H63.86V49H57.08Z"/><path class="cls-3" d="M94.93,30.13a22.21,22.21,0,0,1,1.51-8.32,18.76,18.76,0,0,1,4.18-6.38A18.32,18.32,0,0,1,107,11.36a24.89,24.89,0,0,1,16.29-.1,17.82,17.82,0,0,1,6.41,4,18.63,18.63,0,0,1,4.2,6.35,22,22,0,0,1,1.5,8.29,21.34,21.34,0,0,1-1.5,8.14,18.81,18.81,0,0,1-4.2,6.3,19.25,19.25,0,0,1-6.41,4.12A23,23,0,0,1,115.07,50a22.31,22.31,0,0,1-8.1-1.43,18.25,18.25,0,0,1-6.35-4,18.58,18.58,0,0,1-4.18-6.27A21.25,21.25,0,0,1,94.93,30.13ZM102,29.7a16.3,16.3,0,0,0,.95,5.65,13,13,0,0,0,2.66,4.47,12.23,12.23,0,0,0,4.12,3,12.9,12.9,0,0,0,5.36,1.08,13.06,13.06,0,0,0,5.38-1.08,12.15,12.15,0,0,0,4.15-3,13,13,0,0,0,2.66-4.47,16.3,16.3,0,0,0,1-5.65,14.83,14.83,0,0,0-1-5.33A13.09,13.09,0,0,0,124.66,20a12.13,12.13,0,0,0-4.15-2.9,13.38,13.38,0,0,0-5.38-1.05,13.21,13.21,0,0,0-5.36,1.05,12.21,12.21,0,0,0-4.12,2.9A13.09,13.09,0,0,0,103,24.37,14.83,14.83,0,0,0,102,29.7Z"/></svg>