<svg id="Layer_1" data-name="Layer 1" xmlns="http://www.w3.org/2000/svg" viewBox="0 0 359.68 719"><defs><style>.cls-1{fill:#e6e7e8;}</style></defs><rect class="cls-1" width="359.68" height="719"/><path d="M95.55,166.21v-.76l-2.34-.55A132.07,132.07,0,0,0,72,161.77v.73A132.3,132.3,0,0,1,93,165.62Z"/><path d="M45.1,162.25A60.81,60.81,0,0,1,57.27,153v-.79H57a60.81,60.81,0,0,0-12.49,9.52c-1.59,1.54-3.1,3.13-4.56,4.77h0a22,22,0,0,1-2.44-4.26,29.27,29.27,0,0,1-2.23-9.25l0-.42h-.8c0,.17,0,.33,0,.49a29.7,29.7,0,0,0,2.29,9.5,22.66,22.66,0,0,0,2.63,4.55q-3.12,3.56-5.84,7.37v1.39A94.77,94.77,0,0,1,40,167.7l.1-.11-.1.11a20.22,20.22,0,0,0,12.15,7.08,43.71,43.71,0,0,0,5.17.72v-.8a42.8,42.8,0,0,1-5-.7,19.52,19.52,0,0,1-11.78-6.91h0l0,0,0,0Q42.7,164.6,45.1,162.25Z"/><path d="M44.2,194.36a23.75,23.75,0,0,1,3.6,9.46,16.61,16.61,0,0,1-1.15,8.75h.79a17.37,17.37,0,0,0,1.09-8.85,24.66,24.66,0,0,0-3.7-9.75c-.54-.86-1.11-1.71-1.73-2.55h-.92C42.92,192.39,43.59,193.37,44.2,194.36Z"/><path d="M83.82,200.36a55.76,55.76,0,0,1,11.44-8.7v-.61h-.43a57.43,57.43,0,0,0-11.53,8.78,87.91,87.91,0,0,0-11,13.11h.9A87.5,87.5,0,0,1,83.82,200.36Z"/><path d="M281.4,173.2a18,18,0,0,1-13.56-10.9,26.83,26.83,0,0,1-2-8.53l0-.39H265l0,.46a27.74,27.74,0,0,0,2.12,8.76,18.66,18.66,0,0,0,14.09,11.32,42.66,42.66,0,0,0,5,.67v-.73A42.45,42.45,0,0,1,281.4,173.2Z"/><path d="M314,162.35a56.39,56.39,0,0,1,11.44-8.7v-.6H325a56.43,56.43,0,0,0-11.53,8.78,87.9,87.9,0,0,0-11,13.1h.9A87.5,87.5,0,0,1,314,162.35Z"/><path d="M284.92,203c-2.38-.54-4.7-1-7-1.43a28.07,28.07,0,0,0-3.58-8.26c-.57-.93-1.2-1.86-1.87-2.77h-1c.79,1.05,1.52,2.11,2.19,3.19a27.75,27.75,0,0,1,3.39,7.68c-4.52-.79-8.92-1.35-13.26-1.68v.8a135.53,135.53,0,0,1,13.46,1.73c.13.57.23,1.15.31,1.73a18,18,0,0,1-1.25,9.48h.85a18.82,18.82,0,0,0,1.19-9.59c-.07-.49-.15-1-.25-1.47,2.18.4,4.38.85,6.63,1.36l2.72.64v-.82Z"/><path d="M325.75,204.22v-.76l-2.35-.55a132.18,132.18,0,0,0-21.22-3.14v.74a130.21,130.21,0,0,1,21.06,3.12C324.08,203.82,324.91,204,325.75,204.22Z"/><path d="M127.87,249.21a18,18,0,0,1-13.56-10.9,26.7,26.7,0,0,1-2.06-8.53l0-.38h-.74c0,.15,0,.3,0,.45a27.67,27.67,0,0,0,2.11,8.76,18.66,18.66,0,0,0,14.09,11.32,41.2,41.2,0,0,0,5,.68v-.74A40.17,40.17,0,0,1,127.87,249.21Z"/><path d="M160.48,238.37a55.76,55.76,0,0,1,11.44-8.7v-.61h-.43A56.7,56.7,0,0,0,160,237.84a87.74,87.74,0,0,0-11,13.1h.89A87.59,87.59,0,0,1,160.48,238.37Z"/><path d="M95.55,242.22v-.75c-.78-.19-1.56-.38-2.34-.55A131,131,0,0,0,72,237.78v.74A131.11,131.11,0,0,1,93,241.63Z"/><path d="M45.1,238.26A61.18,61.18,0,0,1,57.27,229v-.79H57a61.53,61.53,0,0,0-12.49,9.52c-1.59,1.55-3.1,3.14-4.56,4.77h0a22,22,0,0,1-2.44-4.26A29.21,29.21,0,0,1,35.32,229l0-.42h-.8c0,.16,0,.32,0,.49a29.64,29.64,0,0,0,2.29,9.49,23,23,0,0,0,2.63,4.56,91.66,91.66,0,0,0-5.84,7.37v1.38A93.09,93.09,0,0,1,40,243.72l.1-.12-.1.12A20.32,20.32,0,0,0,52.1,250.8a43.67,43.67,0,0,0,5.17.71v-.8a42.77,42.77,0,0,1-5-.69,19.62,19.62,0,0,1-11.78-6.91h0l0,0,0,0C42,241.44,43.5,239.83,45.1,238.26Z"/><path d="M44.2,270.38a23.69,23.69,0,0,1,3.6,9.46,16.58,16.58,0,0,1-1.15,8.74h.79a17.33,17.33,0,0,0,1.09-8.84,24.6,24.6,0,0,0-3.7-9.75c-.54-.86-1.11-1.71-1.73-2.55h-.92A32.7,32.7,0,0,1,44.2,270.38Z"/><path d="M83.82,276.37a56.11,56.11,0,0,1,11.44-8.7v-.6h-.43a56.7,56.7,0,0,0-11.53,8.78,87.83,87.83,0,0,0-11,13.1h.9A87.5,87.5,0,0,1,83.82,276.37Z"/><path d="M131.38,279c-2.37-.54-4.7-1-7-1.43a28.13,28.13,0,0,0-3.57-8.25c-.58-.94-1.2-1.86-1.87-2.77h-1q1.19,1.57,2.19,3.18a27.85,27.85,0,0,1,3.4,7.69c-4.53-.8-8.92-1.36-13.26-1.69v.8c4.4.34,8.86.91,13.45,1.73.13.58.23,1.15.31,1.73a18,18,0,0,1-1.25,9.48h.86a18.7,18.7,0,0,0,1.18-9.59c-.06-.49-.15-1-.25-1.46q3.27.6,6.64,1.36l2.72.64v-.82Q132.66,279.28,131.38,279Z"/><path d="M172.21,280.23v-.76l-2.34-.55a132.07,132.07,0,0,0-21.23-3.13v.73a132.3,132.3,0,0,1,21.06,3.12Z"/><path d="M281.4,249.21a18,18,0,0,1-13.56-10.9,26.7,26.7,0,0,1-2-8.53l0-.38H265l0,.45a27.67,27.67,0,0,0,2.12,8.76,18.66,18.66,0,0,0,14.09,11.32,40.67,40.67,0,0,0,5,.68v-.74A40.33,40.33,0,0,1,281.4,249.21Z"/><path d="M314,238.37a56,56,0,0,1,11.44-8.7v-.61H325a56.43,56.43,0,0,0-11.53,8.78,88.41,88.41,0,0,0-11,13.1h.9A86.88,86.88,0,0,1,314,238.37Z"/><path d="M249.09,242.22v-.75c-.78-.19-1.56-.38-2.35-.55a131.06,131.06,0,0,0-21.22-3.14v.74a131.27,131.27,0,0,1,21.06,3.11Z"/><path d="M198.64,238.26A60.84,60.84,0,0,1,210.8,229v-.79h-.22a61.86,61.86,0,0,0-12.5,9.52q-2.37,2.33-4.56,4.77h0a22.51,22.51,0,0,1-2.43-4.26,29.21,29.21,0,0,1-2.23-9.24l0-.42H188l0,.49a29.91,29.91,0,0,0,2.3,9.49,23,23,0,0,0,2.62,4.56,93.94,93.94,0,0,0-5.84,7.37v1.38a95.06,95.06,0,0,1,6.34-8.11l.11-.12-.11.12a20.35,20.35,0,0,0,12.15,7.08,44.25,44.25,0,0,0,5.17.71v-.8a43.36,43.36,0,0,1-5-.69A19.56,19.56,0,0,1,194,243.11h0l0,0,0,0C195.5,241.44,197,239.83,198.64,238.26Z"/><path d="M127.87,96.2a18,18,0,0,1-13.56-10.9,26.83,26.83,0,0,1-2.06-8.53l0-.39h-.74c0,.15,0,.3,0,.46a27.74,27.74,0,0,0,2.11,8.76,18.66,18.66,0,0,0,14.09,11.32,43.24,43.24,0,0,0,5,.67v-.73A42.28,42.28,0,0,1,127.87,96.2Z"/><path d="M160.48,85.35a56.11,56.11,0,0,1,11.44-8.7v-.6h-.43A56.7,56.7,0,0,0,160,84.83a87.24,87.24,0,0,0-11,13.1h.89A88.22,88.22,0,0,1,160.48,85.35Z"/><path d="M95.55,89.21v-.76l-2.34-.55A132.07,132.07,0,0,0,72,84.77v.73A132.3,132.3,0,0,1,93,88.62Z"/><path d="M45.1,85.25A60.81,60.81,0,0,1,57.27,76v-.79H57a60.81,60.81,0,0,0-12.49,9.52C43,86.22,41.45,87.81,40,89.45h0a22,22,0,0,1-2.44-4.26,29.27,29.27,0,0,1-2.23-9.25l0-.42h-.8c0,.17,0,.33,0,.49a29.7,29.7,0,0,0,2.29,9.5,22.66,22.66,0,0,0,2.63,4.55q-3.12,3.56-5.84,7.37v1.39A94.77,94.77,0,0,1,40,90.7l.1-.11-.1.11A20.22,20.22,0,0,0,52.1,97.78a43.71,43.71,0,0,0,5.17.72v-.8a42.8,42.8,0,0,1-5-.7,19.52,19.52,0,0,1-11.78-6.91h0l0,0,0,0Q42.7,87.6,45.1,85.25Z"/><path d="M44.2,117.36a23.75,23.75,0,0,1,3.6,9.46,16.61,16.61,0,0,1-1.15,8.75h.79a17.37,17.37,0,0,0,1.09-8.85,24.66,24.66,0,0,0-3.7-9.75c-.54-.86-1.11-1.71-1.73-2.55h-.92C42.92,115.39,43.59,116.37,44.2,117.36Z"/><path d="M83.82,123.36a55.76,55.76,0,0,1,11.44-8.7v-.61h-.43a57.43,57.43,0,0,0-11.53,8.78,87.91,87.91,0,0,0-11,13.11h.9A87.5,87.5,0,0,1,83.82,123.36Z"/><path d="M281.4,96.2a18,18,0,0,1-13.56-10.9,26.83,26.83,0,0,1-2-8.53l0-.39H265l0,.46a27.74,27.74,0,0,0,2.12,8.76,18.66,18.66,0,0,0,14.09,11.32,42.66,42.66,0,0,0,5,.67v-.73A42.45,42.45,0,0,1,281.4,96.2Z"/><path d="M314,85.35a56.39,56.39,0,0,1,11.44-8.7v-.6H325a56.43,56.43,0,0,0-11.53,8.78,87.9,87.9,0,0,0-11,13.1h.9A87.5,87.5,0,0,1,314,85.35Z"/><path d="M249.09,89.21v-.76l-2.35-.55a132.12,132.12,0,0,0-21.22-3.13v.73a132.46,132.46,0,0,1,21.06,3.12Z"/><path d="M198.64,85.25A60.47,60.47,0,0,1,210.8,76v-.79h-.22a61.14,61.14,0,0,0-12.5,9.52q-2.37,2.31-4.56,4.77h0a22.51,22.51,0,0,1-2.43-4.26,29.27,29.27,0,0,1-2.23-9.25l0-.42H188l0,.49a30,30,0,0,0,2.3,9.5A22.63,22.63,0,0,0,193,90.06q-3.1,3.56-5.84,7.37v1.39a96.81,96.81,0,0,1,6.34-8.12l.11-.11-.11.11a20.25,20.25,0,0,0,12.15,7.08,44.29,44.29,0,0,0,5.17.72v-.8a43.4,43.4,0,0,1-5-.7A19.47,19.47,0,0,1,194,90.09h0l0,0,0,0C195.5,88.43,197,86.82,198.64,85.25Z"/><path d="M284.92,126c-2.38-.54-4.7-1-7-1.43a28.07,28.07,0,0,0-3.58-8.26c-.57-.93-1.2-1.86-1.87-2.77h-1c.79,1,1.52,2.11,2.19,3.19a27.75,27.75,0,0,1,3.39,7.68c-4.52-.79-8.92-1.35-13.26-1.68v.8a135.53,135.53,0,0,1,13.46,1.73c.13.57.23,1.15.31,1.73a18,18,0,0,1-1.25,9.48h.85a18.82,18.82,0,0,0,1.19-9.59c-.07-.49-.15-1-.25-1.47,2.18.4,4.38.85,6.63,1.36l2.72.64v-.82Z"/><path d="M325.75,127.22v-.76l-2.35-.55a132.18,132.18,0,0,0-21.22-3.14v.74a130.21,130.21,0,0,1,21.06,3.12C324.08,126.82,324.91,127,325.75,127.22Z"/><path d="M197.74,270.38a24,24,0,0,1,3.6,9.46,16.68,16.68,0,0,1-1.16,8.74h.8a17.33,17.33,0,0,0,1.09-8.84,24.48,24.48,0,0,0-3.71-9.75c-.53-.86-1.11-1.71-1.72-2.55h-.92C196.45,268.4,197.12,269.38,197.74,270.38Z"/><path d="M237.35,276.37a56.39,56.39,0,0,1,11.44-8.7v-.6h-.42a56.43,56.43,0,0,0-11.53,8.78,87.9,87.9,0,0,0-11,13.1h.9A87.5,87.5,0,0,1,237.35,276.37Z"/><path d="M131.38,128c-2.37-.54-4.7-1-7-1.43a28.13,28.13,0,0,0-3.57-8.25c-.58-.94-1.2-1.86-1.87-2.77h-1q1.19,1.58,2.19,3.18a27.85,27.85,0,0,1,3.4,7.69c-4.53-.8-8.92-1.36-13.26-1.69v.8c4.4.34,8.86.91,13.45,1.73.13.58.23,1.15.31,1.73a18,18,0,0,1-1.25,9.48h.86a18.7,18.7,0,0,0,1.18-9.59c-.06-.49-.15-1-.25-1.46q3.27.6,6.64,1.36l2.72.64v-.82Q132.66,128.28,131.38,128Z"/><path d="M172.21,129.23v-.76l-2.34-.55a132.07,132.07,0,0,0-21.23-3.13v.73a132.3,132.3,0,0,1,21.06,3.12Z"/><path d="M197.74,119.38a24,24,0,0,1,3.6,9.46,16.68,16.68,0,0,1-1.16,8.74h.8a17.33,17.33,0,0,0,1.09-8.84,24.48,24.48,0,0,0-3.71-9.75c-.53-.86-1.11-1.71-1.72-2.55h-.92C196.45,117.4,197.12,118.38,197.74,119.38Z"/><path d="M237.35,125.37a56.39,56.39,0,0,1,11.44-8.7v-.6h-.42a56.43,56.43,0,0,0-11.53,8.78,87.9,87.9,0,0,0-11,13.1h.9A87.5,87.5,0,0,1,237.35,125.37Z"/><path d="M44.2,33.36a23.75,23.75,0,0,1,3.6,9.46,16.61,16.61,0,0,1-1.15,8.75h.79a17.37,17.37,0,0,0,1.09-8.85A24.66,24.66,0,0,0,44.83,33c-.54-.86-1.11-1.71-1.73-2.55h-.92C42.92,31.39,43.59,32.37,44.2,33.36Z"/><path d="M83.82,39.36a55.76,55.76,0,0,1,11.44-8.7v-.61h-.43A57.43,57.43,0,0,0,83.3,38.83a87.91,87.91,0,0,0-11,13.11h.9A87.5,87.5,0,0,1,83.82,39.36Z"/><path d="M284.92,42c-2.38-.54-4.7-1-7-1.43a28.07,28.07,0,0,0-3.58-8.26c-.57-.93-1.2-1.86-1.87-2.77h-1c.79,1,1.52,2.11,2.19,3.19a27.75,27.75,0,0,1,3.39,7.68c-4.52-.79-8.92-1.35-13.26-1.68v.8a135.53,135.53,0,0,1,13.46,1.73c.13.57.23,1.15.31,1.73a18,18,0,0,1-1.25,9.48h.85a18.82,18.82,0,0,0,1.19-9.59c-.07-.49-.15-1-.25-1.47,2.18.4,4.38.85,6.63,1.36l2.72.64v-.82Z"/><path d="M325.75,43.22v-.76l-2.35-.55a132.18,132.18,0,0,0-21.22-3.14v.74a130.21,130.21,0,0,1,21.06,3.12C324.08,42.82,324.91,43,325.75,43.22Z"/><path d="M131.38,44c-2.37-.54-4.7-1-7-1.43a28.13,28.13,0,0,0-3.57-8.25c-.58-.94-1.2-1.86-1.87-2.77h-1q1.19,1.57,2.19,3.18a27.85,27.85,0,0,1,3.4,7.69c-4.53-.8-8.92-1.36-13.26-1.69v.8c4.4.34,8.86.91,13.45,1.73.13.58.23,1.15.31,1.73a18,18,0,0,1-1.25,9.48h.86a18.7,18.7,0,0,0,1.18-9.59c-.06-.49-.15-1-.25-1.46q3.27.6,6.64,1.36l2.72.64V44.6Q132.66,44.29,131.38,44Z"/><path d="M172.21,45.23v-.76l-2.34-.55a132.07,132.07,0,0,0-21.23-3.13v.73a132.3,132.3,0,0,1,21.06,3.12Z"/><path d="M197.74,35.38a24,24,0,0,1,3.6,9.46,16.68,16.68,0,0,1-1.16,8.74h.8a17.33,17.33,0,0,0,1.09-8.84A24.48,24.48,0,0,0,198.36,35c-.53-.86-1.11-1.71-1.72-2.55h-.92C196.45,33.4,197.12,34.38,197.74,35.38Z"/><path d="M237.35,41.37a56.39,56.39,0,0,1,11.44-8.7v-.6h-.42a56.43,56.43,0,0,0-11.53,8.78,87.9,87.9,0,0,0-11,13.1h.9A87.5,87.5,0,0,1,237.35,41.37Z"/><path d="M131.38,201c-2.37-.54-4.7-1-7-1.43a28.13,28.13,0,0,0-3.57-8.25c-.58-.94-1.2-1.86-1.87-2.77h-1q1.19,1.57,2.19,3.18a27.85,27.85,0,0,1,3.4,7.69c-4.53-.8-8.92-1.36-13.26-1.69v.8c4.4.34,8.86.91,13.45,1.73.13.58.23,1.15.31,1.73a18,18,0,0,1-1.25,9.48h.86a18.7,18.7,0,0,0,1.18-9.59c-.06-.49-.15-1-.25-1.46q3.27.6,6.64,1.36l2.72.64v-.82Q132.66,201.28,131.38,201Z"/><path d="M172.21,202.23v-.76l-2.34-.55a132.07,132.07,0,0,0-21.23-3.13v.73a132.3,132.3,0,0,1,21.06,3.12Z"/><path d="M197.74,192.38a24,24,0,0,1,3.6,9.46,16.68,16.68,0,0,1-1.16,8.74h.8a17.33,17.33,0,0,0,1.09-8.84,24.48,24.48,0,0,0-3.71-9.75c-.53-.86-1.11-1.71-1.72-2.55h-.92C196.45,190.4,197.12,191.38,197.74,192.38Z"/><path d="M237.35,198.37a56.39,56.39,0,0,1,11.44-8.7v-.6h-.42a56.43,56.43,0,0,0-11.53,8.78,87.9,87.9,0,0,0-11,13.1h.9A87.5,87.5,0,0,1,237.35,198.37Z"/><path d="M284.92,279c-2.38-.54-4.7-1-7-1.43a27.91,27.91,0,0,0-3.58-8.25c-.57-.94-1.2-1.86-1.87-2.77h-1q1.18,1.57,2.19,3.18a27.81,27.81,0,0,1,3.39,7.69c-4.52-.8-8.92-1.36-13.26-1.69v.8a135.53,135.53,0,0,1,13.46,1.73c.13.58.23,1.15.31,1.73a18,18,0,0,1-1.25,9.48h.85a18.81,18.81,0,0,0,1.19-9.59c-.07-.49-.15-1-.25-1.46,2.18.4,4.38.85,6.63,1.36l2.72.64v-.82C286.62,279.39,285.77,279.19,284.92,279Z"/><path d="M325.75,280.23v-.76l-2.35-.55a132.12,132.12,0,0,0-21.22-3.13v.73a132.46,132.46,0,0,1,21.06,3.12Z"/><path d="M127.87,325.73a18,18,0,0,1-13.56-10.9,26.7,26.7,0,0,1-2.06-8.53l0-.39h-.74c0,.16,0,.31,0,.46a27.67,27.67,0,0,0,2.11,8.76,18.66,18.66,0,0,0,14.09,11.32,41.2,41.2,0,0,0,5,.68v-.74A40.17,40.17,0,0,1,127.87,325.73Z"/><path d="M160.48,314.88a56.11,56.11,0,0,1,11.44-8.7v-.6h-.43A56.7,56.7,0,0,0,160,314.36a87.24,87.24,0,0,0-11,13.1h.89A88.22,88.22,0,0,1,160.48,314.88Z"/><path d="M95.55,318.74V318l-2.34-.56A132.07,132.07,0,0,0,72,314.3V315A131.11,131.11,0,0,1,93,318.15Z"/><path d="M45.1,314.78a60.81,60.81,0,0,1,12.17-9.3v-.79H57a61.53,61.53,0,0,0-12.49,9.52C43,315.75,41.45,317.34,40,319h0a22,22,0,0,1-2.44-4.26,29.28,29.28,0,0,1-2.23-9.24l0-.43h-.8c0,.17,0,.33,0,.5A29.71,29.71,0,0,0,36.82,315a23,23,0,0,0,2.63,4.56A93.31,93.31,0,0,0,33.61,327v1.39A93.09,93.09,0,0,1,40,320.24l.1-.12-.1.12a20.32,20.32,0,0,0,12.15,7.08,43.67,43.67,0,0,0,5.17.71v-.8a45,45,0,0,1-5-.69,19.58,19.58,0,0,1-11.78-6.92h0l0,0,0,0Q42.7,317.13,45.1,314.78Z"/><path d="M44.2,346.9a23.69,23.69,0,0,1,3.6,9.46,16.58,16.58,0,0,1-1.15,8.74h.79a17.35,17.35,0,0,0,1.09-8.84,24.55,24.55,0,0,0-3.7-9.75c-.54-.86-1.11-1.71-1.73-2.56h-.92A34.32,34.32,0,0,1,44.2,346.9Z"/><path d="M83.82,352.89a56.11,56.11,0,0,1,11.44-8.7v-.6h-.43a56.7,56.7,0,0,0-11.53,8.78,87.83,87.83,0,0,0-11,13.1h.9A87.5,87.5,0,0,1,83.82,352.89Z"/><path d="M131.38,355.52q-3.56-.81-7-1.43a28.3,28.3,0,0,0-3.57-8.26c-.58-.93-1.2-1.85-1.87-2.77h-1c.79,1.06,1.52,2.12,2.19,3.19a27.79,27.79,0,0,1,3.4,7.68c-4.53-.79-8.92-1.35-13.26-1.68v.8c4.4.34,8.86.91,13.45,1.73.13.58.23,1.15.31,1.73a18,18,0,0,1-1.25,9.48h.86a18.71,18.71,0,0,0,1.18-9.59c-.06-.49-.15-1-.25-1.47q3.27.6,6.64,1.37c.91.2,1.81.42,2.72.64v-.82Z"/><path d="M172.21,356.75V356l-2.34-.55a132.07,132.07,0,0,0-21.23-3.13V353a131.17,131.17,0,0,1,21.06,3.12Z"/><path d="M281.4,325.73a18,18,0,0,1-13.56-10.9,26.7,26.7,0,0,1-2-8.53l0-.39H265l0,.46a27.67,27.67,0,0,0,2.12,8.76,18.66,18.66,0,0,0,14.09,11.32,40.67,40.67,0,0,0,5,.68v-.74A40.33,40.33,0,0,1,281.4,325.73Z"/><path d="M314,314.88a56.39,56.39,0,0,1,11.44-8.7v-.6H325a56.43,56.43,0,0,0-11.53,8.78,87.9,87.9,0,0,0-11,13.1h.9A87.5,87.5,0,0,1,314,314.88Z"/><path d="M249.09,318.74V318l-2.35-.56a132.12,132.12,0,0,0-21.22-3.13V315a131.27,131.27,0,0,1,21.06,3.11Z"/><path d="M198.64,314.78a60.47,60.47,0,0,1,12.16-9.3v-.79h-.22a61.86,61.86,0,0,0-12.5,9.52q-2.37,2.31-4.56,4.77h0a22.51,22.51,0,0,1-2.43-4.26,29.28,29.28,0,0,1-2.23-9.24l0-.43H188l0,.5a30,30,0,0,0,2.3,9.49A23,23,0,0,0,193,319.6q-3.1,3.54-5.84,7.36v1.39a95.06,95.06,0,0,1,6.34-8.11l.11-.12-.11.12a20.35,20.35,0,0,0,12.15,7.08,44.25,44.25,0,0,0,5.17.71v-.8a45.66,45.66,0,0,1-5-.69A19.53,19.53,0,0,1,194,319.62h0l0,0,0,0C195.5,318,197,316.35,198.64,314.78Z"/><path d="M197.74,346.9a24,24,0,0,1,3.6,9.46,16.68,16.68,0,0,1-1.16,8.74h.8a17.35,17.35,0,0,0,1.09-8.84,24.42,24.42,0,0,0-3.71-9.75c-.53-.86-1.11-1.71-1.72-2.56h-.92C196.45,344.92,197.12,345.9,197.74,346.9Z"/><path d="M237.35,352.89a56.39,56.39,0,0,1,11.44-8.7v-.6h-.42a56.43,56.43,0,0,0-11.53,8.78,87.9,87.9,0,0,0-11,13.1h.9A87.5,87.5,0,0,1,237.35,352.89Z"/><path d="M284.92,355.52c-2.38-.54-4.7-1-7-1.43a28.07,28.07,0,0,0-3.58-8.26c-.57-.93-1.2-1.85-1.87-2.77h-1c.79,1.06,1.52,2.12,2.19,3.19a27.75,27.75,0,0,1,3.39,7.68c-4.52-.79-8.92-1.35-13.26-1.68v.8a135.53,135.53,0,0,1,13.46,1.73c.13.58.23,1.15.31,1.73a18,18,0,0,1-1.25,9.48h.85a18.82,18.82,0,0,0,1.19-9.59c-.07-.49-.15-1-.25-1.47,2.18.4,4.38.86,6.63,1.37.91.2,1.82.42,2.72.64v-.82C286.62,355.91,285.77,355.71,284.92,355.52Z"/><path d="M325.75,356.75V356l-2.35-.55a132.12,132.12,0,0,0-21.22-3.13V353a131.33,131.33,0,0,1,21.06,3.12Z"/><path d="M127.87,401.74a18,18,0,0,1-13.56-10.89,26.83,26.83,0,0,1-2.06-8.53l0-.39h-.74c0,.15,0,.3,0,.45a27.61,27.61,0,0,0,2.11,8.76,18.62,18.62,0,0,0,14.09,11.32,41.2,41.2,0,0,0,5,.68v-.74A40.17,40.17,0,0,1,127.87,401.74Z"/><path d="M160.48,390.9a55.76,55.76,0,0,1,11.44-8.7v-.61h-.43A57.06,57.06,0,0,0,160,390.37a87.31,87.31,0,0,0-11,13.11h.89A88.22,88.22,0,0,1,160.48,390.9Z"/><path d="M95.55,394.76V394l-2.34-.55A131,131,0,0,0,72,390.31v.74A130.05,130.05,0,0,1,93,394.17C93.88,394.36,94.72,394.55,95.55,394.76Z"/><path d="M45.1,390.79a60.75,60.75,0,0,1,12.17-9.29v-.8H57a61.53,61.53,0,0,0-12.49,9.52C43,391.77,41.45,393.36,40,395h0a22.62,22.62,0,0,1-2.44-4.26,29.34,29.34,0,0,1-2.23-9.25l0-.42h-.8c0,.16,0,.33,0,.49a29.77,29.77,0,0,0,2.29,9.5,22.94,22.94,0,0,0,2.63,4.55A93.46,93.46,0,0,0,33.61,403v1.39A93.23,93.23,0,0,1,40,396.25l.1-.12-.1.12a20.27,20.27,0,0,0,12.15,7.08,43.67,43.67,0,0,0,5.17.71v-.8a42.77,42.77,0,0,1-5-.69,19.57,19.57,0,0,1-11.78-6.91h0l0,0,0,0Q42.7,393.15,45.1,390.79Z"/><path d="M44.2,422.91a23.75,23.75,0,0,1,3.6,9.46,16.63,16.63,0,0,1-1.15,8.75h.79a17.38,17.38,0,0,0,1.09-8.85,24.66,24.66,0,0,0-3.7-9.75c-.54-.86-1.11-1.71-1.73-2.55h-.92C42.92,420.94,43.59,421.92,44.2,422.91Z"/><path d="M83.82,428.91a55.76,55.76,0,0,1,11.44-8.7v-.61h-.43a56.7,56.7,0,0,0-11.53,8.78,88.34,88.34,0,0,0-11,13.1h.9A86.88,86.88,0,0,1,83.82,428.91Z"/><path d="M131.38,431.53c-2.37-.54-4.7-1-7-1.43a28.25,28.25,0,0,0-3.57-8.25c-.58-.94-1.2-1.86-1.87-2.77h-1c.79,1.05,1.52,2.11,2.19,3.19a27.79,27.79,0,0,1,3.4,7.68c-4.53-.79-8.92-1.35-13.26-1.69v.81c4.4.33,8.86.91,13.45,1.72.13.58.23,1.16.31,1.73a18.05,18.05,0,0,1-1.25,9.49h.86a18.72,18.72,0,0,0,1.18-9.59c-.06-.49-.15-1-.25-1.47q3.27.6,6.64,1.36l2.72.64v-.82Z"/><path d="M172.21,432.76V432c-.78-.19-1.56-.38-2.34-.55a131,131,0,0,0-21.23-3.14v.74a131.11,131.11,0,0,1,21.06,3.11Z"/><path d="M281.4,401.74a18,18,0,0,1-13.56-10.89,26.83,26.83,0,0,1-2-8.53l0-.39H265l0,.45a27.61,27.61,0,0,0,2.12,8.76,18.62,18.62,0,0,0,14.09,11.32,40.67,40.67,0,0,0,5,.68v-.74A40.33,40.33,0,0,1,281.4,401.74Z"/><path d="M314,390.9a56,56,0,0,1,11.44-8.7v-.61H325a56.79,56.79,0,0,0-11.53,8.78,88,88,0,0,0-11,13.11h.9A87.5,87.5,0,0,1,314,390.9Z"/><path d="M249.09,394.76V394l-2.35-.55a131.06,131.06,0,0,0-21.22-3.14v.74a130.21,130.21,0,0,1,21.06,3.12C247.42,394.36,248.25,394.55,249.09,394.76Z"/><path d="M198.64,390.79a60.41,60.41,0,0,1,12.16-9.29v-.8h-.22a61.86,61.86,0,0,0-12.5,9.52q-2.37,2.32-4.56,4.78h0a23.15,23.15,0,0,1-2.43-4.26,29.34,29.34,0,0,1-2.23-9.25l0-.42H188l0,.49a30,30,0,0,0,2.3,9.5,22.91,22.91,0,0,0,2.62,4.55q-3.1,3.56-5.84,7.37v1.39a95.21,95.21,0,0,1,6.34-8.12l.11-.12-.11.12a20.3,20.3,0,0,0,12.15,7.08,44.25,44.25,0,0,0,5.17.71v-.8a43.36,43.36,0,0,1-5-.69A19.52,19.52,0,0,1,194,395.64h0l0,0,0,0C195.5,394,197,392.36,198.64,390.79Z"/><path d="M197.74,422.91a24,24,0,0,1,3.6,9.46,16.73,16.73,0,0,1-1.16,8.75h.8a17.38,17.38,0,0,0,1.09-8.85,24.53,24.53,0,0,0-3.71-9.75c-.53-.86-1.11-1.71-1.72-2.55h-.92C196.45,420.94,197.12,421.92,197.74,422.91Z"/><path d="M237.35,428.91a56,56,0,0,1,11.44-8.7v-.61h-.42a56.43,56.43,0,0,0-11.53,8.78,88.41,88.41,0,0,0-11,13.1h.9A86.88,86.88,0,0,1,237.35,428.91Z"/><path d="M284.92,431.53c-2.38-.54-4.7-1-7-1.43a28,28,0,0,0-3.58-8.25c-.57-.94-1.2-1.86-1.87-2.77h-1c.79,1.05,1.52,2.11,2.19,3.19a27.75,27.75,0,0,1,3.39,7.68c-4.52-.79-8.92-1.35-13.26-1.69v.81a135.46,135.46,0,0,1,13.46,1.72c.13.58.23,1.16.31,1.73a18.05,18.05,0,0,1-1.25,9.49h.85a18.84,18.84,0,0,0,1.19-9.59c-.07-.49-.15-1-.25-1.47,2.18.4,4.38.85,6.63,1.36l2.72.64v-.82Z"/><path d="M325.75,432.76V432c-.78-.19-1.56-.38-2.35-.55a131.06,131.06,0,0,0-21.22-3.14v.74a131.27,131.27,0,0,1,21.06,3.11Z"/><path d="M127.87,484.73a18,18,0,0,1-13.56-10.9,26.7,26.7,0,0,1-2.06-8.53l0-.39h-.74c0,.16,0,.31,0,.46a27.67,27.67,0,0,0,2.11,8.76,18.66,18.66,0,0,0,14.09,11.32,41.2,41.2,0,0,0,5,.68v-.74A40.17,40.17,0,0,1,127.87,484.73Z"/><path d="M160.48,473.88a56.11,56.11,0,0,1,11.44-8.7v-.6h-.43A56.7,56.7,0,0,0,160,473.36a87.24,87.24,0,0,0-11,13.1h.89A88.22,88.22,0,0,1,160.48,473.88Z"/><path d="M95.55,477.74V477l-2.34-.56A132.07,132.07,0,0,0,72,473.3V474A131.11,131.11,0,0,1,93,477.15Z"/><path d="M45.1,473.78a60.81,60.81,0,0,1,12.17-9.3v-.79H57a61.53,61.53,0,0,0-12.49,9.52C43,474.75,41.45,476.34,40,478h0a22,22,0,0,1-2.44-4.26,29.28,29.28,0,0,1-2.23-9.24l0-.43h-.8c0,.17,0,.33,0,.5A29.71,29.71,0,0,0,36.82,474a23,23,0,0,0,2.63,4.56A93.31,93.31,0,0,0,33.61,486v1.39A93.09,93.09,0,0,1,40,479.24l.1-.12-.1.12a20.32,20.32,0,0,0,12.15,7.08,43.67,43.67,0,0,0,5.17.71v-.8a45,45,0,0,1-5-.69,19.58,19.58,0,0,1-11.78-6.92h0l0,0,0,0Q42.7,476.13,45.1,473.78Z"/><path d="M44.2,505.9a23.69,23.69,0,0,1,3.6,9.46,16.58,16.58,0,0,1-1.15,8.74h.79a17.35,17.35,0,0,0,1.09-8.84,24.55,24.55,0,0,0-3.7-9.75c-.54-.86-1.11-1.71-1.73-2.56h-.92A34.32,34.32,0,0,1,44.2,505.9Z"/><path d="M83.82,511.89a56.11,56.11,0,0,1,11.44-8.7v-.6h-.43a56.7,56.7,0,0,0-11.53,8.78,87.83,87.83,0,0,0-11,13.1h.9A87.5,87.5,0,0,1,83.82,511.89Z"/><path d="M131.38,514.52q-3.56-.81-7-1.43a28.3,28.3,0,0,0-3.57-8.26c-.58-.93-1.2-1.85-1.87-2.77h-1c.79,1.06,1.52,2.12,2.19,3.19a27.79,27.79,0,0,1,3.4,7.68c-4.53-.79-8.92-1.35-13.26-1.68v.8c4.4.34,8.86.91,13.45,1.73.13.58.23,1.15.31,1.73a18,18,0,0,1-1.25,9.48h.86a18.71,18.71,0,0,0,1.18-9.59c-.06-.49-.15-1-.25-1.47q3.27.6,6.64,1.37c.91.2,1.81.42,2.72.64v-.82Z"/><path d="M172.21,515.75V515l-2.34-.55a132.07,132.07,0,0,0-21.23-3.13V512a131.17,131.17,0,0,1,21.06,3.12Z"/><path d="M281.4,484.73a18,18,0,0,1-13.56-10.9,26.7,26.7,0,0,1-2-8.53l0-.39H265l0,.46a27.67,27.67,0,0,0,2.12,8.76,18.66,18.66,0,0,0,14.09,11.32,40.67,40.67,0,0,0,5,.68v-.74A40.33,40.33,0,0,1,281.4,484.73Z"/><path d="M314,473.88a56.39,56.39,0,0,1,11.44-8.7v-.6H325a56.43,56.43,0,0,0-11.53,8.78,87.9,87.9,0,0,0-11,13.1h.9A87.5,87.5,0,0,1,314,473.88Z"/><path d="M249.09,477.74V477l-2.35-.56a132.12,132.12,0,0,0-21.22-3.13V474a131.27,131.27,0,0,1,21.06,3.11Z"/><path d="M198.64,473.78a60.47,60.47,0,0,1,12.16-9.3v-.79h-.22a61.86,61.86,0,0,0-12.5,9.52q-2.37,2.31-4.56,4.77h0a22.51,22.51,0,0,1-2.43-4.26,29.28,29.28,0,0,1-2.23-9.24l0-.43H188l0,.5a30,30,0,0,0,2.3,9.49A23,23,0,0,0,193,478.6q-3.1,3.54-5.84,7.36v1.39a95.06,95.06,0,0,1,6.34-8.11l.11-.12-.11.12a20.35,20.35,0,0,0,12.15,7.08,44.25,44.25,0,0,0,5.17.71v-.8a45.66,45.66,0,0,1-5-.69A19.53,19.53,0,0,1,194,478.62h0l0,0,0,0C195.5,477,197,475.35,198.64,473.78Z"/><path d="M197.74,505.9a24,24,0,0,1,3.6,9.46,16.68,16.68,0,0,1-1.16,8.74h.8a17.35,17.35,0,0,0,1.09-8.84,24.42,24.42,0,0,0-3.71-9.75c-.53-.86-1.11-1.71-1.72-2.56h-.92C196.45,503.92,197.12,504.9,197.74,505.9Z"/><path d="M237.35,511.89a56.39,56.39,0,0,1,11.44-8.7v-.6h-.42a56.43,56.43,0,0,0-11.53,8.78,87.9,87.9,0,0,0-11,13.1h.9A87.5,87.5,0,0,1,237.35,511.89Z"/><path d="M284.92,514.52c-2.38-.54-4.7-1-7-1.43a28.07,28.07,0,0,0-3.58-8.26c-.57-.93-1.2-1.85-1.87-2.77h-1c.79,1.06,1.52,2.12,2.19,3.19a27.75,27.75,0,0,1,3.39,7.68c-4.52-.79-8.92-1.35-13.26-1.68v.8a135.53,135.53,0,0,1,13.46,1.73c.13.58.23,1.15.31,1.73a18,18,0,0,1-1.25,9.48h.85a18.82,18.82,0,0,0,1.19-9.59c-.07-.49-.15-1-.25-1.47,2.18.4,4.38.86,6.63,1.37.91.2,1.82.42,2.72.64v-.82C286.62,514.91,285.77,514.71,284.92,514.52Z"/><path d="M325.75,515.75V515l-2.35-.55a132.12,132.12,0,0,0-21.22-3.13V512a131.33,131.33,0,0,1,21.06,3.12Z"/><path d="M127.87,560.74a18,18,0,0,1-13.56-10.89,26.83,26.83,0,0,1-2.06-8.53l0-.39h-.74c0,.15,0,.3,0,.45a27.61,27.61,0,0,0,2.11,8.76,18.62,18.62,0,0,0,14.09,11.32,41.2,41.2,0,0,0,5,.68v-.74A40.17,40.17,0,0,1,127.87,560.74Z"/><path d="M160.48,549.9a55.76,55.76,0,0,1,11.44-8.7v-.61h-.43A57.06,57.06,0,0,0,160,549.37a87.31,87.31,0,0,0-11,13.11h.89A88.22,88.22,0,0,1,160.48,549.9Z"/><path d="M95.55,553.76V553l-2.34-.55A131,131,0,0,0,72,549.31v.74A130.05,130.05,0,0,1,93,553.17C93.88,553.36,94.72,553.55,95.55,553.76Z"/><path d="M45.1,549.79a60.75,60.75,0,0,1,12.17-9.29v-.8H57a61.53,61.53,0,0,0-12.49,9.52C43,550.77,41.45,552.36,40,554h0a22.62,22.62,0,0,1-2.44-4.26,29.34,29.34,0,0,1-2.23-9.25l0-.42h-.8c0,.16,0,.33,0,.49a29.77,29.77,0,0,0,2.29,9.5,22.94,22.94,0,0,0,2.63,4.55A93.46,93.46,0,0,0,33.61,562v1.39A93.23,93.23,0,0,1,40,555.25l.1-.12-.1.12a20.27,20.27,0,0,0,12.15,7.08,43.67,43.67,0,0,0,5.17.71v-.8a42.77,42.77,0,0,1-5-.69,19.57,19.57,0,0,1-11.78-6.91h0l0,0,0,0Q42.7,552.15,45.1,549.79Z"/><path d="M44.2,581.91a23.75,23.75,0,0,1,3.6,9.46,16.63,16.63,0,0,1-1.15,8.75h.79a17.38,17.38,0,0,0,1.09-8.85,24.66,24.66,0,0,0-3.7-9.75c-.54-.86-1.11-1.71-1.73-2.55h-.92C42.92,579.94,43.59,580.92,44.2,581.91Z"/><path d="M83.82,587.91a55.76,55.76,0,0,1,11.44-8.7v-.61h-.43a56.7,56.7,0,0,0-11.53,8.78,88.34,88.34,0,0,0-11,13.1h.9A86.88,86.88,0,0,1,83.82,587.91Z"/><path d="M131.38,590.53c-2.37-.54-4.7-1-7-1.43a28.25,28.25,0,0,0-3.57-8.25c-.58-.94-1.2-1.86-1.87-2.77h-1c.79,1,1.52,2.11,2.19,3.19a27.79,27.79,0,0,1,3.4,7.68c-4.53-.79-8.92-1.35-13.26-1.69v.81c4.4.33,8.86.91,13.45,1.72.13.58.23,1.16.31,1.73a18.05,18.05,0,0,1-1.25,9.49h.86a18.72,18.72,0,0,0,1.18-9.59c-.06-.49-.15-1-.25-1.47q3.27.6,6.64,1.36l2.72.64v-.82Z"/><path d="M172.21,591.76V591c-.78-.19-1.56-.38-2.34-.55a131,131,0,0,0-21.23-3.14v.74a131.11,131.11,0,0,1,21.06,3.11Z"/><path d="M281.4,560.74a18,18,0,0,1-13.56-10.89,26.83,26.83,0,0,1-2-8.53l0-.39H265l0,.45a27.61,27.61,0,0,0,2.12,8.76,18.62,18.62,0,0,0,14.09,11.32,40.67,40.67,0,0,0,5,.68v-.74A40.33,40.33,0,0,1,281.4,560.74Z"/><path d="M314,549.9a56,56,0,0,1,11.44-8.7v-.61H325a56.79,56.79,0,0,0-11.53,8.78,88,88,0,0,0-11,13.11h.9A87.5,87.5,0,0,1,314,549.9Z"/><path d="M249.09,553.76V553l-2.35-.55a131.06,131.06,0,0,0-21.22-3.14v.74a130.21,130.21,0,0,1,21.06,3.12C247.42,553.36,248.25,553.55,249.09,553.76Z"/><path d="M198.64,549.79a60.41,60.41,0,0,1,12.16-9.29v-.8h-.22a61.86,61.86,0,0,0-12.5,9.52q-2.37,2.32-4.56,4.78h0a23.15,23.15,0,0,1-2.43-4.26,29.34,29.34,0,0,1-2.23-9.25l0-.42H188l0,.49a30,30,0,0,0,2.3,9.5,22.91,22.91,0,0,0,2.62,4.55q-3.1,3.55-5.84,7.37v1.39a95.21,95.21,0,0,1,6.34-8.12l.11-.12-.11.12a20.3,20.3,0,0,0,12.15,7.08,44.25,44.25,0,0,0,5.17.71v-.8a43.36,43.36,0,0,1-5-.69A19.52,19.52,0,0,1,194,554.64h0l0,0,0,0C195.5,553,197,551.36,198.64,549.79Z"/><path d="M197.74,581.91a24,24,0,0,1,3.6,9.46,16.73,16.73,0,0,1-1.16,8.75h.8a17.38,17.38,0,0,0,1.09-8.85,24.53,24.53,0,0,0-3.71-9.75c-.53-.86-1.11-1.71-1.72-2.55h-.92C196.45,579.94,197.12,580.92,197.74,581.91Z"/><path d="M237.35,587.91a56,56,0,0,1,11.44-8.7v-.61h-.42a56.43,56.43,0,0,0-11.53,8.78,88.41,88.41,0,0,0-11,13.1h.9A86.88,86.88,0,0,1,237.35,587.91Z"/><path d="M284.92,590.53c-2.38-.54-4.7-1-7-1.43a28,28,0,0,0-3.58-8.25c-.57-.94-1.2-1.86-1.87-2.77h-1c.79,1,1.52,2.11,2.19,3.19a27.75,27.75,0,0,1,3.39,7.68c-4.52-.79-8.92-1.35-13.26-1.69v.81a135.46,135.46,0,0,1,13.46,1.72c.13.58.23,1.16.31,1.73a18.05,18.05,0,0,1-1.25,9.49h.85a18.84,18.84,0,0,0,1.19-9.59c-.07-.49-.15-1-.25-1.47,2.18.4,4.38.85,6.63,1.36l2.72.64v-.82Z"/><path d="M325.75,591.76V591c-.78-.19-1.56-.38-2.35-.55a131.06,131.06,0,0,0-21.22-3.14v.74a131.27,131.27,0,0,1,21.06,3.11Z"/><path d="M127.87,641.74a18,18,0,0,1-13.56-10.89,26.83,26.83,0,0,1-2.06-8.53l0-.39h-.74c0,.15,0,.3,0,.45a27.61,27.61,0,0,0,2.11,8.76,18.62,18.62,0,0,0,14.09,11.32,41.2,41.2,0,0,0,5,.68v-.74A40.17,40.17,0,0,1,127.87,641.74Z"/><path d="M160.48,630.9a55.76,55.76,0,0,1,11.44-8.7v-.61h-.43A57.06,57.06,0,0,0,160,630.37a87.31,87.31,0,0,0-11,13.11h.89A88.22,88.22,0,0,1,160.48,630.9Z"/><path d="M95.55,634.76V634l-2.34-.55A131,131,0,0,0,72,630.31v.74A130.05,130.05,0,0,1,93,634.17C93.88,634.36,94.72,634.55,95.55,634.76Z"/><path d="M45.1,630.79a60.75,60.75,0,0,1,12.17-9.29v-.8H57a61.53,61.53,0,0,0-12.49,9.52C43,631.77,41.45,633.36,40,635h0a22.62,22.62,0,0,1-2.44-4.26,29.34,29.34,0,0,1-2.23-9.25l0-.42h-.8c0,.16,0,.33,0,.49a29.77,29.77,0,0,0,2.29,9.5,22.94,22.94,0,0,0,2.63,4.55A93.46,93.46,0,0,0,33.61,643v1.39A93.23,93.23,0,0,1,40,636.25l.1-.12-.1.12a20.27,20.27,0,0,0,12.15,7.08,43.67,43.67,0,0,0,5.17.71v-.8a42.77,42.77,0,0,1-5-.69,19.57,19.57,0,0,1-11.78-6.91h0l0,0,0,0Q42.7,633.15,45.1,630.79Z"/><path d="M44.2,662.91a23.75,23.75,0,0,1,3.6,9.46,16.63,16.63,0,0,1-1.15,8.75h.79a17.38,17.38,0,0,0,1.09-8.85,24.66,24.66,0,0,0-3.7-9.75c-.54-.86-1.11-1.71-1.73-2.55h-.92C42.92,660.94,43.59,661.92,44.2,662.91Z"/><path d="M83.82,668.91a55.76,55.76,0,0,1,11.44-8.7v-.61h-.43a56.7,56.7,0,0,0-11.53,8.78,88.34,88.34,0,0,0-11,13.1h.9A86.88,86.88,0,0,1,83.82,668.91Z"/><path d="M131.38,671.53c-2.37-.54-4.7-1-7-1.43a28.25,28.25,0,0,0-3.57-8.25c-.58-.94-1.2-1.86-1.87-2.77h-1c.79,1,1.52,2.11,2.19,3.19a27.79,27.79,0,0,1,3.4,7.68c-4.53-.79-8.92-1.35-13.26-1.69v.81c4.4.33,8.86.91,13.45,1.72.13.58.23,1.16.31,1.73a18.05,18.05,0,0,1-1.25,9.49h.86a18.72,18.72,0,0,0,1.18-9.59c-.06-.49-.15-1-.25-1.47q3.27.6,6.64,1.36l2.72.64v-.82Z"/><path d="M172.21,672.76V672c-.78-.19-1.56-.38-2.34-.55a131,131,0,0,0-21.23-3.14v.74a131.11,131.11,0,0,1,21.06,3.11Z"/><path d="M281.4,641.74a18,18,0,0,1-13.56-10.89,26.83,26.83,0,0,1-2-8.53l0-.39H265l0,.45a27.61,27.61,0,0,0,2.12,8.76,18.62,18.62,0,0,0,14.09,11.32,40.67,40.67,0,0,0,5,.68v-.74A40.33,40.33,0,0,1,281.4,641.74Z"/><path d="M314,630.9a56,56,0,0,1,11.44-8.7v-.61H325a56.79,56.79,0,0,0-11.53,8.78,88,88,0,0,0-11,13.11h.9A87.5,87.5,0,0,1,314,630.9Z"/><path d="M249.09,634.76V634l-2.35-.55a131.06,131.06,0,0,0-21.22-3.14v.74a130.21,130.21,0,0,1,21.06,3.12C247.42,634.36,248.25,634.55,249.09,634.76Z"/><path d="M198.64,630.79a60.41,60.41,0,0,1,12.16-9.29v-.8h-.22a61.86,61.86,0,0,0-12.5,9.52q-2.37,2.32-4.56,4.78h0a23.15,23.15,0,0,1-2.43-4.26,29.34,29.34,0,0,1-2.23-9.25l0-.42H188l0,.49a30,30,0,0,0,2.3,9.5,22.91,22.91,0,0,0,2.62,4.55q-3.1,3.55-5.84,7.37v1.39a95.21,95.21,0,0,1,6.34-8.12l.11-.12-.11.12a20.3,20.3,0,0,0,12.15,7.08,44.25,44.25,0,0,0,5.17.71v-.8a43.36,43.36,0,0,1-5-.69A19.52,19.52,0,0,1,194,635.64h0l0,0,0,0C195.5,634,197,632.36,198.64,630.79Z"/><path d="M197.74,662.91a24,24,0,0,1,3.6,9.46,16.73,16.73,0,0,1-1.16,8.75h.8a17.38,17.38,0,0,0,1.09-8.85,24.53,24.53,0,0,0-3.71-9.75c-.53-.86-1.11-1.71-1.72-2.55h-.92C196.45,660.94,197.12,661.92,197.74,662.91Z"/><path d="M237.35,668.91a56,56,0,0,1,11.44-8.7v-.61h-.42a56.43,56.43,0,0,0-11.53,8.78,88.41,88.41,0,0,0-11,13.1h.9A86.88,86.88,0,0,1,237.35,668.91Z"/><path d="M284.92,671.53c-2.38-.54-4.7-1-7-1.43a28,28,0,0,0-3.58-8.25c-.57-.94-1.2-1.86-1.87-2.77h-1c.79,1,1.52,2.11,2.19,3.19a27.75,27.75,0,0,1,3.39,7.68c-4.52-.79-8.92-1.35-13.26-1.69v.81a135.46,135.46,0,0,1,13.46,1.72c.13.58.23,1.16.31,1.73a18.05,18.05,0,0,1-1.25,9.49h.85a18.84,18.84,0,0,0,1.19-9.59c-.07-.49-.15-1-.25-1.47,2.18.4,4.38.85,6.63,1.36l2.72.64v-.82Z"/><path d="M325.75,672.76V672c-.78-.19-1.56-.38-2.35-.55a131.06,131.06,0,0,0-21.22-3.14v.74a131.27,131.27,0,0,1,21.06,3.11Z"/><path d="M126.19,157.27h4.72v.67h-4v2.81h3.71v.67h-3.71v3.74h-.73Z"/><path d="M132.38,157.27h4.82v.67h-4.09v2.81h3.83v.67h-3.83v3.07h4.27v.67h-5Z"/><path d="M139,157.27h4.82v.67h-4.08v2.81h3.83v.67h-3.83v3.07H144v.67h-5Z"/><path d="M145.59,157.27h.73v7.22H150v.67h-4.41Z"/><path d="M151.15,157.27h.74v7.89h-.74Z"/><path d="M154.05,157.27H155l4.79,6.91h0v-6.91h.73v7.89h-.94l-4.8-6.91h0v6.91h-.73Z"/><path d="M169.22,164.65a5.16,5.16,0,0,1-1.44.55,6.82,6.82,0,0,1-1.5.16,4.23,4.23,0,0,1-1.66-.31,3.68,3.68,0,0,1-1.28-.85,3.92,3.92,0,0,1-.84-1.32,4.74,4.74,0,0,1,0-3.32,3.88,3.88,0,0,1,.84-1.31,3.57,3.57,0,0,1,1.28-.86,4.24,4.24,0,0,1,1.66-.32,3.82,3.82,0,0,1,2.84,1.1l-.54.55a2.11,2.11,0,0,0-.44-.39,2.6,2.6,0,0,0-.57-.31,3.2,3.2,0,0,0-.64-.21,3.69,3.69,0,0,0-.65-.07,3.41,3.41,0,0,0-1.39.27,3,3,0,0,0-1,.74,3.22,3.22,0,0,0-.67,1.1,3.83,3.83,0,0,0-.24,1.37,3.87,3.87,0,0,0,.24,1.37,3.32,3.32,0,0,0,.67,1.1,3,3,0,0,0,1,.73,3.41,3.41,0,0,0,1.39.27,6.44,6.44,0,0,0,1.19-.1,3.05,3.05,0,0,0,1-.37v-2.65h-1.89v-.67h2.63Z"/><path d="M173.76,161.22a4.46,4.46,0,0,1,.3-1.66,4,4,0,0,1,.83-1.31,3.7,3.7,0,0,1,1.29-.86,4.44,4.44,0,0,1,3.31,0,3.57,3.57,0,0,1,1.28.86,3.88,3.88,0,0,1,.84,1.31,4.74,4.74,0,0,1,0,3.32,3.92,3.92,0,0,1-.84,1.32,3.68,3.68,0,0,1-1.28.85,4.57,4.57,0,0,1-3.31,0,3.82,3.82,0,0,1-1.29-.85,4.06,4.06,0,0,1-.83-1.32A4.49,4.49,0,0,1,173.76,161.22Zm.73,0a3.87,3.87,0,0,0,.24,1.37,3.16,3.16,0,0,0,.67,1.1,3,3,0,0,0,1,.73,3.69,3.69,0,0,0,2.77,0,3,3,0,0,0,1.05-.73,3.16,3.16,0,0,0,.67-1.1,3.87,3.87,0,0,0,.24-1.37,3.83,3.83,0,0,0-.24-1.37,3.07,3.07,0,0,0-.67-1.1,3,3,0,0,0-1.05-.74,3.69,3.69,0,0,0-2.77,0,3,3,0,0,0-1,.74,3.07,3.07,0,0,0-.67,1.1A3.83,3.83,0,0,0,174.49,161.22Z"/><path d="M183.56,157.27h4.72v.67h-4v2.81H188v.67h-3.71v3.74h-.73Z"/><path d="M195.06,157.27h.76l3.32,7.89h-.83l-.85-2.09h-4.18l-.89,2.09h-.77Zm.35.81-1.84,4.32h3.62Z"/><path d="M203.17,157.27h.73v7.22h3.68v.67h-4.41Z"/><path d="M208.22,161.22a4.46,4.46,0,0,1,.3-1.66,4,4,0,0,1,.84-1.31,3.61,3.61,0,0,1,1.29-.86,4.41,4.41,0,0,1,3.3,0,3.7,3.7,0,0,1,1.29.86,3.85,3.85,0,0,1,.83,1.31,4.6,4.6,0,0,1,0,3.32,3.9,3.9,0,0,1-.83,1.32,3.82,3.82,0,0,1-1.29.85,4.55,4.55,0,0,1-3.3,0,3.72,3.72,0,0,1-1.29-.85,4.08,4.08,0,0,1-.84-1.32A4.49,4.49,0,0,1,208.22,161.22Zm.74,0a4.1,4.1,0,0,0,.23,1.37,3.32,3.32,0,0,0,.67,1.1,3,3,0,0,0,1,.73,3.71,3.71,0,0,0,2.78,0,3,3,0,0,0,1.05-.73,3.32,3.32,0,0,0,.67-1.1,4.1,4.1,0,0,0,.23-1.37,4.06,4.06,0,0,0-.23-1.37,3.22,3.22,0,0,0-.67-1.1,3,3,0,0,0-1.05-.74,3.71,3.71,0,0,0-2.78,0,3,3,0,0,0-1,.74,3.22,3.22,0,0,0-.67,1.1A4.06,4.06,0,0,0,209,161.22Z"/><path d="M217.51,161.22a4.46,4.46,0,0,1,.3-1.66,3.88,3.88,0,0,1,.84-1.31,3.57,3.57,0,0,1,1.28-.86,4.27,4.27,0,0,1,1.66-.32,4.22,4.22,0,0,1,1.65.32,3.7,3.7,0,0,1,1.29.86,4,4,0,0,1,.83,1.31,4.74,4.74,0,0,1,0,3.32,4.06,4.06,0,0,1-.83,1.32,3.82,3.82,0,0,1-1.29.85,4.22,4.22,0,0,1-1.65.31,4.27,4.27,0,0,1-1.66-.31,3.68,3.68,0,0,1-1.28-.85,3.92,3.92,0,0,1-.84-1.32A4.49,4.49,0,0,1,217.51,161.22Zm.74,0a3.87,3.87,0,0,0,.23,1.37,3.32,3.32,0,0,0,.67,1.1,3,3,0,0,0,1,.73,3.69,3.69,0,0,0,2.77,0,3,3,0,0,0,1.06-.73,3.14,3.14,0,0,0,.66-1.1,3.87,3.87,0,0,0,.24-1.37,3.83,3.83,0,0,0-.24-1.37,3.05,3.05,0,0,0-.66-1.1A3,3,0,0,0,223,158a3.69,3.69,0,0,0-2.77,0,3,3,0,0,0-1,.74,3.22,3.22,0,0,0-.67,1.1A3.83,3.83,0,0,0,218.25,161.22Z"/><path d="M227.31,157.27h.74v3.48h.06l3.82-3.48h1l-4,3.61,4.21,4.28h-1.06l-4-4.08h-.06v4.08h-.74Z"/></svg>