<svg id="Layer_1" data-name="Layer 1" xmlns="http://www.w3.org/2000/svg" viewBox="0 0 60 40.05"><defs><style>.cls-1{fill:#58595b;}.cls-1,.cls-2{fill-rule:evenodd;}.cls-2{fill:#a5a7aa;}.cls-3{fill:#231f20;}</style></defs><path class="cls-1" d="M24,4.75c11.45,13.5-10.1,21.82-19.78,20C-8.3,21.8,9.57-12.3,24,4.75"/><path class="cls-2" d="M33.58,14.52c0,6.54,1.55,10.61,5.71,10.37C89,22.1,33.59-4,33.58,14.52"/><path class="cls-3" d="M0,31.15H2.65v.37H.41V33.1H2.49v.37H.41v2.1H0Z"/><path class="cls-3" d="M3.47,31.15H6.18v.37H3.88V33.1H6v.37H3.88V35.2h2.4v.37H3.47Z"/><path class="cls-3" d="M7.18,31.15h2.7v.37H7.59V33.1H9.74v.37H7.59V35.2H10v.37H7.18Z"/><path class="cls-3" d="M10.88,31.15h.41V35.2h2.06v.37H10.88Z"/><path class="cls-3" d="M14,31.15h.41v4.42H14Z"/><path class="cls-3" d="M15.63,31.15h.53L18.85,35h0V31.15h.41v4.42h-.53L16.05,31.7h0v3.87h-.41Z"/><path class="cls-3" d="M24.13,35.28a2.71,2.71,0,0,1-.8.31,4,4,0,0,1-.85.09,2.32,2.32,0,0,1-.92-.17,2,2,0,0,1-.73-.48,2.21,2.21,0,0,1-.46-.74,2.63,2.63,0,0,1,0-1.86,2.27,2.27,0,0,1,.46-.73,2.18,2.18,0,0,1,.73-.49,2.51,2.51,0,0,1,.92-.17,2.16,2.16,0,0,1,1.6.61l-.3.31a1.36,1.36,0,0,0-.25-.22,1.23,1.23,0,0,0-.32-.17,1.9,1.9,0,0,0-.36-.12,2.33,2.33,0,0,0-.37,0,1.92,1.92,0,0,0-.77.15,1.69,1.69,0,0,0-.59.41,1.89,1.89,0,0,0-.38.62,2.19,2.19,0,0,0-.13.77,2.15,2.15,0,0,0,.13.77,1.79,1.79,0,0,0,.38.62,1.69,1.69,0,0,0,.59.41,1.92,1.92,0,0,0,.77.15,3.55,3.55,0,0,0,.67-.06,1.55,1.55,0,0,0,.57-.2V33.56H22.66v-.37h1.47Z"/><path class="cls-3" d="M26.68,33.36a2.52,2.52,0,0,1,.17-.93A2.18,2.18,0,0,1,28,31.21a2.6,2.6,0,0,1,1.85,0,2.18,2.18,0,0,1,.73.49,2.27,2.27,0,0,1,.46.73,2.63,2.63,0,0,1,0,1.86,2.21,2.21,0,0,1-.46.74,2,2,0,0,1-.73.48,2.6,2.6,0,0,1-1.85,0,2,2,0,0,1-.72-.48,2.08,2.08,0,0,1-.47-.74A2.52,2.52,0,0,1,26.68,33.36Zm.41,0a2.39,2.39,0,0,0,.13.77,2,2,0,0,0,.38.62,1.78,1.78,0,0,0,.59.41,2.08,2.08,0,0,0,1.55,0,1.76,1.76,0,0,0,1-1,2.15,2.15,0,0,0,.13-.77,2.19,2.19,0,0,0-.13-.77,1.89,1.89,0,0,0-.38-.62,1.78,1.78,0,0,0-.59-.41,2.08,2.08,0,0,0-1.55,0,1.78,1.78,0,0,0-.59.41,2.07,2.07,0,0,0-.38.62A2.44,2.44,0,0,0,27.09,33.36Z"/><path class="cls-3" d="M32.18,31.15h2.64v.37H32.59V33.1h2.08v.37H32.59v2.1h-.41Z"/><path class="cls-3" d="M38.63,31.15h.42l1.86,4.42h-.46L40,34.4H37.63l-.5,1.17H36.7Zm.19.45-1,2.42h2Z"/><path class="cls-3" d="M43.17,31.15h.42V35.2h2.06v.37H43.17Z"/><path class="cls-3" d="M46,33.36a2.52,2.52,0,0,1,.17-.93,2.18,2.18,0,0,1,1.19-1.22,2.6,2.6,0,0,1,1.85,0,2.18,2.18,0,0,1,1.19,1.22,2.63,2.63,0,0,1,0,1.86,2.08,2.08,0,0,1-.47.74,2,2,0,0,1-.72.48,2.6,2.6,0,0,1-1.85,0,2,2,0,0,1-.72-.48,2.08,2.08,0,0,1-.47-.74A2.52,2.52,0,0,1,46,33.36Zm.41,0a2.39,2.39,0,0,0,.13.77,2,2,0,0,0,.38.62,1.78,1.78,0,0,0,.59.41,2.08,2.08,0,0,0,1.55,0,1.76,1.76,0,0,0,1-1,2.15,2.15,0,0,0,.13-.77,2.19,2.19,0,0,0-.13-.77,1.89,1.89,0,0,0-.38-.62,1.78,1.78,0,0,0-.59-.41,2.08,2.08,0,0,0-1.55,0,1.78,1.78,0,0,0-.59.41,2.07,2.07,0,0,0-.38.62A2.44,2.44,0,0,0,46.42,33.36Z"/><path class="cls-3" d="M51.22,33.36a2.33,2.33,0,0,1,.17-.93,2.18,2.18,0,0,1,1.19-1.22,2.6,2.6,0,0,1,1.85,0,2.18,2.18,0,0,1,1.19,1.22,2.63,2.63,0,0,1,0,1.86,2.08,2.08,0,0,1-.47.74,2,2,0,0,1-.72.48,2.6,2.6,0,0,1-1.85,0,2,2,0,0,1-.72-.48,2.08,2.08,0,0,1-.47-.74A2.33,2.33,0,0,1,51.22,33.36Zm.41,0a2.15,2.15,0,0,0,.13.77,1.76,1.76,0,0,0,1,1,2.08,2.08,0,0,0,1.55,0,1.78,1.78,0,0,0,.59-.41,2,2,0,0,0,.38-.62,2.39,2.39,0,0,0,.13-.77,2.44,2.44,0,0,0-.13-.77,2.07,2.07,0,0,0-.38-.62,1.78,1.78,0,0,0-.59-.41,2.08,2.08,0,0,0-1.55,0,1.78,1.78,0,0,0-.59.41,1.89,1.89,0,0,0-.38.62A2.19,2.19,0,0,0,51.63,33.36Z"/><path class="cls-3" d="M56.72,31.15h.41v2h0l2.15-2h.57l-2.24,2L60,35.57h-.59l-2.25-2.28h0v2.28h-.41Z"/><path class="cls-3" d="M1.14,38.41H.62v1.17a.29.29,0,0,0,.07.19.26.26,0,0,0,.18.06H1l.13,0,0,.21L1,40l-.16,0a.65.65,0,0,1-.21,0,.39.39,0,0,1-.14-.1.28.28,0,0,1-.08-.15.48.48,0,0,1,0-.18V38.41H0V38.2H.39v-.52H.62v.52h.52Z"/><path class="cls-3" d="M1.82,39.1a.92.92,0,0,1,.07-.38.77.77,0,0,1,.19-.3.93.93,0,0,1,.68-.27.92.92,0,0,1,.38.07.79.79,0,0,1,.3.2.79.79,0,0,1,.2.3.92.92,0,0,1,.07.38,1,1,0,0,1-.07.38,1,1,0,0,1-.2.3.93.93,0,0,1-.3.2,1.12,1.12,0,0,1-.38.07A1.22,1.22,0,0,1,2.38,40a1.21,1.21,0,0,1-.3-.2,1,1,0,0,1-.26-.68Zm.23,0a.93.93,0,0,0,.05.29.79.79,0,0,0,.14.23.63.63,0,0,0,.23.16.71.71,0,0,0,.29,0,.73.73,0,0,0,.3,0,.73.73,0,0,0,.23-.16.79.79,0,0,0,.14-.23.87.87,0,0,0,0-.58.59.59,0,0,0-.14-.23.72.72,0,0,0-.53-.22.72.72,0,0,0-.29.06.63.63,0,0,0-.23.16.59.59,0,0,0-.14.23A.93.93,0,0,0,2.05,39.1Z"/><path class="cls-3" d="M7.48,39.73a.84.84,0,0,1-.3.24.86.86,0,0,1-.36.08A1.12,1.12,0,0,1,6.44,40a.93.93,0,0,1-.3-.2,1,1,0,0,1-.2-.3,1,1,0,0,1-.07-.38.92.92,0,0,1,.07-.38.92.92,0,0,1,.5-.5.92.92,0,0,1,.38-.07,1,1,0,0,1,.37.08,1.09,1.09,0,0,1,.3.23l-.19.14a.87.87,0,0,0-.22-.17.48.48,0,0,0-.26-.07.73.73,0,0,0-.3.06.6.6,0,0,0-.22.16.61.61,0,0,0-.15.23.87.87,0,0,0,0,.58.83.83,0,0,0,.15.23.6.6,0,0,0,.22.16.73.73,0,0,0,.3,0,.6.6,0,0,0,.27-.06.91.91,0,0,0,.21-.18Z"/><path class="cls-3" d="M8.21,38.7v-.12a.66.66,0,0,1,0-.14.61.61,0,0,0,0-.14v-.1h.23a1.28,1.28,0,0,1,0,.19.31.31,0,0,0,0,.12,1,1,0,0,1,.23-.26.62.62,0,0,1,.34-.1h.14l0,.23-.09,0a.67.67,0,0,0-.26,0,.51.51,0,0,0-.18.14.49.49,0,0,0-.11.2,1,1,0,0,0,0,.25v1H8.21Z"/><path class="cls-3" d="M11.39,39.66a.75.75,0,0,1-.34.3,1,1,0,0,1-.44.09,1.06,1.06,0,0,1-.37-.07,1,1,0,0,1-.29-.2,1.17,1.17,0,0,1-.19-.3,1.23,1.23,0,0,1-.06-.39.9.9,0,0,1,.07-.37.92.92,0,0,1,.18-.3,1,1,0,0,1,.29-.2,1,1,0,0,1,.36-.07,1,1,0,0,1,.36.07.77.77,0,0,1,.27.19.85.85,0,0,1,.16.28.8.8,0,0,1,.06.3v.17H9.93a.81.81,0,0,0,0,.19.76.76,0,0,0,.11.22.78.78,0,0,0,.21.19.81.81,0,0,0,.68,0,.73.73,0,0,0,.26-.23ZM11.21,39a.46.46,0,0,0-.05-.23.59.59,0,0,0-.13-.19.67.67,0,0,0-.2-.12.64.64,0,0,0-.24,0,.63.63,0,0,0-.32.08.7.7,0,0,0-.2.18,1,1,0,0,0-.11.2.45.45,0,0,0,0,.13Z"/><path class="cls-3" d="M13.73,39.24v.24c0,.07,0,.14,0,.2a.81.81,0,0,0,0,.16s0,.11,0,.16h-.21a1.36,1.36,0,0,1,0-.29h0a.69.69,0,0,1-.26.25.71.71,0,0,1-.38.09l-.23,0a.54.54,0,0,1-.2-.1.43.43,0,0,1-.14-.16.58.58,0,0,1,0-.58.68.68,0,0,1,.26-.18,2,2,0,0,1,.33-.08h.58V38.8a.4.4,0,0,0-.14-.34.7.7,0,0,0-.37-.1.85.85,0,0,0-.55.2l-.13-.16a.77.77,0,0,1,.32-.18,1,1,0,0,1,.36-.07.8.8,0,0,1,.53.16.57.57,0,0,1,.19.49Zm-.47-.15-.28,0a1.26,1.26,0,0,0-.25.07.35.35,0,0,0-.18.13.25.25,0,0,0-.07.19.42.42,0,0,0,0,.15.32.32,0,0,0,.1.1.26.26,0,0,0,.13.06.32.32,0,0,0,.14,0,.69.69,0,0,0,.31,0,.55.55,0,0,0,.19-.14.54.54,0,0,0,.1-.2.83.83,0,0,0,0-.22v-.13Z"/><path class="cls-3" d="M15.6,38.41h-.52v1.17a.29.29,0,0,0,.07.19.24.24,0,0,0,.18.06h.14l.13,0,0,.21-.15.05-.16,0a.65.65,0,0,1-.21,0,.56.56,0,0,1-.15-.1.53.53,0,0,1-.08-.15.9.9,0,0,1,0-.18V38.41h-.39V38.2h.39v-.52h.23v.52h.52Z"/><path class="cls-3" d="M18,39.66a.81.81,0,0,1-.34.3,1,1,0,0,1-.44.09.88.88,0,0,1-.67-.27.92.92,0,0,1-.18-.3,1.23,1.23,0,0,1-.06-.39,1.1,1.1,0,0,1,.06-.37,1.17,1.17,0,0,1,.19-.3,1,1,0,0,1,.28-.2,1.06,1.06,0,0,1,.37-.07,1,1,0,0,1,.36.07.88.88,0,0,1,.27.19.85.85,0,0,1,.16.28A1,1,0,0,1,18,39v.17H16.51a.81.81,0,0,0,0,.19.57.57,0,0,0,.11.22.91.91,0,0,0,.2.19.69.69,0,0,0,.34.07.72.72,0,0,0,.35-.08.73.73,0,0,0,.26-.23ZM17.79,39a.59.59,0,0,0-.05-.23.8.8,0,0,0-.13-.19.82.82,0,0,0-.2-.12.7.7,0,0,0-.25,0,.59.59,0,0,0-.31.08.59.59,0,0,0-.2.18.66.66,0,0,0-.11.2.45.45,0,0,0,0,.13Z"/><path class="cls-3" d="M20,38.2h.26l.43,1.51h0l.5-1.51h.23L22,39.71h0l.42-1.51h.24L22.13,40h-.24l-.54-1.47h0L20.84,40H20.6Z"/><path class="cls-3" d="M23.39,37.05h.23v1.46h0a.64.64,0,0,1,.24-.25.68.68,0,0,1,.38-.11.69.69,0,0,1,.34.07.53.53,0,0,1,.31.42,1.36,1.36,0,0,1,0,.29V40H24.7V38.94a1.36,1.36,0,0,0,0-.21.44.44,0,0,0-.07-.19.4.4,0,0,0-.13-.13.52.52,0,0,0-.23,0,.7.7,0,0,0-.25,0,.5.5,0,0,0-.19.13.74.74,0,0,0-.14.23,1.09,1.09,0,0,0-.05.33V40h-.23Z"/><path class="cls-3" d="M27.32,39.24v.24c0,.07,0,.14,0,.2a.81.81,0,0,0,0,.16s0,.11,0,.16h-.21a1.36,1.36,0,0,1,0-.29h0a.69.69,0,0,1-.26.25.71.71,0,0,1-.38.09l-.23,0a.54.54,0,0,1-.2-.1.43.43,0,0,1-.14-.16.58.58,0,0,1,0-.58A.68.68,0,0,1,26.2,39a1.77,1.77,0,0,1,.33-.08h.58V38.8a.4.4,0,0,0-.14-.34.7.7,0,0,0-.37-.1.85.85,0,0,0-.55.2l-.13-.16a.77.77,0,0,1,.32-.18,1,1,0,0,1,.36-.07.8.8,0,0,1,.53.16.57.57,0,0,1,.19.49Zm-.47-.15-.28,0a1.26,1.26,0,0,0-.25.07.35.35,0,0,0-.18.13.25.25,0,0,0-.07.19.42.42,0,0,0,0,.15.32.32,0,0,0,.1.1.26.26,0,0,0,.13.06.32.32,0,0,0,.14,0,.69.69,0,0,0,.31,0,.55.55,0,0,0,.19-.14.54.54,0,0,0,.1-.2.83.83,0,0,0,0-.22v-.13Z"/><path class="cls-3" d="M29.19,38.41h-.52v1.17a.29.29,0,0,0,.07.19.24.24,0,0,0,.18.06h.14l.13,0,0,.21-.15.05-.16,0a.65.65,0,0,1-.21,0,.56.56,0,0,1-.15-.1.53.53,0,0,1-.08-.15.9.9,0,0,1,0-.18V38.41h-.39V38.2h.39v-.52h.23v.52h.52Z"/><path class="cls-3" d="M32.85,39.73a.84.84,0,0,1-.3.24.86.86,0,0,1-.36.08,1.12,1.12,0,0,1-.38-.07.93.93,0,0,1-.3-.2,1,1,0,0,1-.2-.3,1.17,1.17,0,0,1-.07-.38,1.12,1.12,0,0,1,.07-.38.92.92,0,0,1,.5-.5.92.92,0,0,1,.38-.07,1,1,0,0,1,.37.08,1.09,1.09,0,0,1,.3.23l-.19.14a.87.87,0,0,0-.22-.17.48.48,0,0,0-.26-.07.73.73,0,0,0-.3.06.6.6,0,0,0-.22.16.61.61,0,0,0-.15.23,1.07,1.07,0,0,0,0,.58.83.83,0,0,0,.15.23.6.6,0,0,0,.22.16.73.73,0,0,0,.3,0,.6.6,0,0,0,.27-.06.91.91,0,0,0,.21-.18Z"/><path class="cls-3" d="M33.58,38.7v-.12a.66.66,0,0,1,0-.14V38.3a.46.46,0,0,1,0-.1h.23a1.28,1.28,0,0,1,0,.19,1.05,1.05,0,0,0,0,.12,1,1,0,0,1,.23-.26.62.62,0,0,1,.34-.1h.14l0,.23-.09,0a.67.67,0,0,0-.26,0,.62.62,0,0,0-.18.14.49.49,0,0,0-.11.2,1,1,0,0,0,0,.25v1h-.23Z"/><path class="cls-3" d="M36.76,39.66a.75.75,0,0,1-.34.3,1,1,0,0,1-.44.09,1.11,1.11,0,0,1-.37-.07,1,1,0,0,1-.29-.2,1.17,1.17,0,0,1-.19-.3,1.23,1.23,0,0,1-.06-.39.9.9,0,0,1,.07-.37.92.92,0,0,1,.18-.3,1,1,0,0,1,.29-.2,1,1,0,0,1,.36-.07,1.06,1.06,0,0,1,.37.07.83.83,0,0,1,.26.19.71.71,0,0,1,.16.28.8.8,0,0,1,.06.3v.17H35.3a.81.81,0,0,0,0,.19.76.76,0,0,0,.11.22.78.78,0,0,0,.21.19.81.81,0,0,0,.68,0,.66.66,0,0,0,.26-.23ZM36.58,39a.46.46,0,0,0,0-.23.59.59,0,0,0-.13-.19.56.56,0,0,0-.2-.12.64.64,0,0,0-.24,0,.63.63,0,0,0-.32.08.7.7,0,0,0-.2.18.62.62,0,0,0-.1.2.3.3,0,0,0,0,.13Z"/><path class="cls-3" d="M39.1,39.24v.24c0,.07,0,.14,0,.2a.81.81,0,0,0,0,.16.88.88,0,0,0,0,.16h-.22a1.36,1.36,0,0,1,0-.29h0a.74.74,0,0,1-.25.25.74.74,0,0,1-.38.09A.85.85,0,0,1,38,40a.51.51,0,0,1-.21-.1.43.43,0,0,1-.14-.16.49.49,0,0,1-.06-.25.44.44,0,0,1,.11-.33A.58.58,0,0,1,38,39a2,2,0,0,1,.33-.08h.58V38.8a.4.4,0,0,0-.14-.34.7.7,0,0,0-.37-.1.87.87,0,0,0-.55.2l-.13-.16a.77.77,0,0,1,.32-.18,1,1,0,0,1,.36-.07.8.8,0,0,1,.53.16.57.57,0,0,1,.19.49Zm-.47-.15-.28,0a1.26,1.26,0,0,0-.25.07.35.35,0,0,0-.18.13.29.29,0,0,0-.07.19.42.42,0,0,0,0,.15.32.32,0,0,0,.1.1.31.31,0,0,0,.13.06.32.32,0,0,0,.14,0,.69.69,0,0,0,.31,0,.47.47,0,0,0,.19-.14.42.42,0,0,0,.1-.2.83.83,0,0,0,0-.22v-.13Z"/><path class="cls-3" d="M41,38.41h-.52v1.17a.29.29,0,0,0,.07.19.26.26,0,0,0,.18.06h.14l.13,0L41,40l-.15.05-.16,0a.65.65,0,0,1-.21,0,.39.39,0,0,1-.14-.1.28.28,0,0,1-.08-.15.48.48,0,0,1,0-.18V38.41h-.39V38.2h.39v-.52h.23v.52H41Z"/><path class="cls-3" d="M43.34,39.66A.75.75,0,0,1,43,40a1,1,0,0,1-.44.09,1.17,1.17,0,0,1-.38-.07.91.91,0,0,1-.47-.5,1.23,1.23,0,0,1-.06-.39,1.1,1.1,0,0,1,.06-.37,1.17,1.17,0,0,1,.19-.3,1.1,1.1,0,0,1,.28-.2,1.06,1.06,0,0,1,.37-.07,1,1,0,0,1,.36.07.77.77,0,0,1,.27.19.85.85,0,0,1,.16.28,1,1,0,0,1,0,.3v.17H41.88a.81.81,0,0,0,0,.19.76.76,0,0,0,.11.22.78.78,0,0,0,.21.19.62.62,0,0,0,.33.07.72.72,0,0,0,.35-.08.73.73,0,0,0,.26-.23ZM43.16,39a.59.59,0,0,0,0-.23.8.8,0,0,0-.13-.19.67.67,0,0,0-.2-.12.69.69,0,0,0-.24,0,.61.61,0,0,0-.32.08.59.59,0,0,0-.2.18.66.66,0,0,0-.11.2.45.45,0,0,0,0,.13Z"/><path class="cls-3" d="M44.28,39.54a.47.47,0,0,0,.22.22.66.66,0,0,0,.3.07.39.39,0,0,0,.15,0,.59.59,0,0,0,.14-.06.48.48,0,0,0,.09-.11.21.21,0,0,0,0-.14.22.22,0,0,0-.08-.18.47.47,0,0,0-.2-.1l-.26-.06a.92.92,0,0,1-.25-.08.43.43,0,0,1-.2-.15.4.4,0,0,1-.08-.26.52.52,0,0,1,.05-.23.46.46,0,0,1,.15-.16.5.5,0,0,1,.19-.1.91.91,0,0,1,.23,0,.92.92,0,0,1,.38.08.57.57,0,0,1,.25.26l-.21.13a.4.4,0,0,0-.17-.19.39.39,0,0,0-.25-.07l-.14,0a.34.34,0,0,0-.12.06l-.09.09a.21.21,0,0,0,0,.12.22.22,0,0,0,.08.18.61.61,0,0,0,.2.09l.26.06a.91.91,0,0,1,.25.07.53.53,0,0,1,.2.16.44.44,0,0,1,.08.28.6.6,0,0,1-.05.24.52.52,0,0,1-.15.18.75.75,0,0,1-.2.1,1,1,0,0,1-.68,0,.65.65,0,0,1-.29-.28Z"/><path class="cls-3" d="M48.56,38.41H48v1.17a.29.29,0,0,0,.07.19.26.26,0,0,0,.18.06h.14l.13,0,0,.21-.15.05-.16,0a.65.65,0,0,1-.21,0,.39.39,0,0,1-.14-.1.28.28,0,0,1-.08-.15.48.48,0,0,1,0-.18V38.41h-.39V38.2h.39v-.52H48v.52h.52Z"/><path class="cls-3" d="M49.24,39.1a.92.92,0,0,1,.07-.38.77.77,0,0,1,.19-.3.93.93,0,0,1,.68-.27.92.92,0,0,1,.38.07.92.92,0,0,1,.5.5.92.92,0,0,1,.07.38,1,1,0,0,1-.07.38,1,1,0,0,1-.2.3.93.93,0,0,1-.3.2,1.12,1.12,0,0,1-.38.07.93.93,0,0,1-.68-.27,1,1,0,0,1-.26-.68Zm.23,0a.93.93,0,0,0,.05.29.79.79,0,0,0,.14.23.63.63,0,0,0,.23.16.71.71,0,0,0,.29,0,.67.67,0,0,0,.53-.21.79.79,0,0,0,.14-.23.87.87,0,0,0,0-.58.59.59,0,0,0-.14-.23.72.72,0,0,0-.53-.22.72.72,0,0,0-.29.06.63.63,0,0,0-.23.16.59.59,0,0,0-.14.23A.93.93,0,0,0,49.47,39.1Z"/><path class="cls-3" d="M53.43,37.05h.24v3h-.24Z"/><path class="cls-3" d="M56.09,39.24v.24c0,.07,0,.14,0,.2a.81.81,0,0,0,0,.16s0,.11,0,.16h-.21a1.36,1.36,0,0,1,0-.29h0a.69.69,0,0,1-.26.25.71.71,0,0,1-.38.09L55,40a.54.54,0,0,1-.2-.1.43.43,0,0,1-.14-.16.58.58,0,0,1,0-.58A.68.68,0,0,1,55,39a1.77,1.77,0,0,1,.33-.08h.58V38.8a.4.4,0,0,0-.14-.34.7.7,0,0,0-.37-.1.85.85,0,0,0-.55.2l-.13-.16a.77.77,0,0,1,.32-.18,1,1,0,0,1,.36-.07.8.8,0,0,1,.53.16.57.57,0,0,1,.19.49Zm-.47-.15-.28,0a1.26,1.26,0,0,0-.25.07.35.35,0,0,0-.18.13.25.25,0,0,0-.07.19.42.42,0,0,0,0,.15.32.32,0,0,0,.1.1.26.26,0,0,0,.13.06.32.32,0,0,0,.14,0,.69.69,0,0,0,.31,0,.55.55,0,0,0,.19-.14.54.54,0,0,0,.1-.2.83.83,0,0,0,0-.22v-.13Z"/><path class="cls-3" d="M57.08,39.54a.47.47,0,0,0,.22.22.63.63,0,0,0,.3.07.39.39,0,0,0,.15,0,.52.52,0,0,0,.13-.06.52.52,0,0,0,.1-.11.29.29,0,0,0,0-.14.22.22,0,0,0-.08-.18.47.47,0,0,0-.2-.1l-.26-.06a1.12,1.12,0,0,1-.26-.08.45.45,0,0,1-.19-.15.35.35,0,0,1-.08-.26.52.52,0,0,1,0-.23.56.56,0,0,1,.14-.16.54.54,0,0,1,.2-.1.83.83,0,0,1,.22,0,.93.93,0,0,1,.39.08.57.57,0,0,1,.25.26l-.21.13a.46.46,0,0,0-.17-.19.4.4,0,0,0-.26-.07l-.13,0a.34.34,0,0,0-.12.06.2.2,0,0,0-.09.09.16.16,0,0,0,0,.12.22.22,0,0,0,.08.18.53.53,0,0,0,.2.09l.26.06a.91.91,0,0,1,.25.07.53.53,0,0,1,.2.16.44.44,0,0,1,.08.28.6.6,0,0,1,0,.24.65.65,0,0,1-.15.18.68.68,0,0,1-.21.1.86.86,0,0,1-.24,0,1,1,0,0,1-.43-.09.68.68,0,0,1-.3-.28Z"/><path class="cls-3" d="M60,38.41h-.51v1.17a.22.22,0,0,0,.25.25h.13l.13,0L60,40l-.15.05-.15,0a.67.67,0,0,1-.22,0,.39.39,0,0,1-.14-.1.28.28,0,0,1-.08-.15.48.48,0,0,1,0-.18V38.41h-.39V38.2h.39v-.52h.24v.52H60Z"/></svg>