<svg id="Layer_1" data-name="Layer 1" xmlns="http://www.w3.org/2000/svg" viewBox="0 0 150.78 48.26"><defs><style>.cls-1{fill:#404041;}.cls-2{fill:#babcbe;}.cls-3{fill:#fbb963;}</style></defs><path class="cls-1" d="M.17.43H2.64a3.43,3.43,0,0,1,.71.08A1.94,1.94,0,0,1,4,.79a1.42,1.42,0,0,1,.44.5A1.49,1.49,0,0,1,4.58,2a1.25,1.25,0,0,1-.31.88,1.66,1.66,0,0,1-.79.5v0A1.47,1.47,0,0,1,4,3.59a1.27,1.27,0,0,1,.43.33,1.53,1.53,0,0,1,.28.46A1.56,1.56,0,0,1,4.85,5a1.64,1.64,0,0,1-.21.86,1.67,1.67,0,0,1-.54.55,2.29,2.29,0,0,1-.77.3,4.31,4.31,0,0,1-.88.09H.17ZM1.3,3h1a1.34,1.34,0,0,0,.84-.22.68.68,0,0,0,.28-.57.69.69,0,0,0-.29-.62,1.69,1.69,0,0,0-.93-.2H1.3Zm0,2.79h1l.46,0a1.66,1.66,0,0,0,.45-.12.94.94,0,0,0,.34-.29.79.79,0,0,0,.13-.49.75.75,0,0,0-.33-.7,2,2,0,0,0-1-.19H1.3Z"/><path class="cls-1" d="M5.77,2.46H6.85v.68h0a1.37,1.37,0,0,1,.51-.58,1.49,1.49,0,0,1,.76-.2.58.58,0,0,1,.19,0l.2,0v1L8.25,3.4a1.06,1.06,0,0,0-.25,0,1.16,1.16,0,0,0-.6.13,1.1,1.1,0,0,0-.35.32,1,1,0,0,0-.16.36,1.16,1.16,0,0,0,0,.27V6.75H5.77Z"/><path class="cls-1" d="M11.84,6.16h0a1.31,1.31,0,0,1-.59.53,1.85,1.85,0,0,1-.78.17,2.25,2.25,0,0,1-.58-.08,1.65,1.65,0,0,1-.5-.24A1.22,1.22,0,0,1,9,6.14a1.17,1.17,0,0,1-.14-.57A1.32,1.32,0,0,1,9,5a1.2,1.2,0,0,1,.33-.41,1.93,1.93,0,0,1,.49-.27,3.51,3.51,0,0,1,.58-.14,4.09,4.09,0,0,1,.6-.07h.84V4a.7.7,0,0,0-.28-.61,1.18,1.18,0,0,0-.7-.2,1.69,1.69,0,0,0-.64.12,1.72,1.72,0,0,0-.51.33l-.56-.56A2.07,2.07,0,0,1,10,2.52a2.92,2.92,0,0,1,1-.16,2.44,2.44,0,0,1,.77.1,1.94,1.94,0,0,1,.52.26,1.58,1.58,0,0,1,.32.37,2.5,2.5,0,0,1,.16.43,2,2,0,0,1,0,.41c0,.14,0,.26,0,.36V6.75h-1Zm-.06-1.33h-.23l-.5,0a2.83,2.83,0,0,0-.52.08,1.36,1.36,0,0,0-.42.2.44.44,0,0,0-.16.36.53.53,0,0,0,.06.26.59.59,0,0,0,.18.17.64.64,0,0,0,.24.1,1.26,1.26,0,0,0,.27,0,1.08,1.08,0,0,0,.81-.27.94.94,0,0,0,.27-.72Z"/><path class="cls-1" d="M13.87,2.46h1v.69h0a1.55,1.55,0,0,1,.47-.56,1.43,1.43,0,0,1,.85-.23,1.74,1.74,0,0,1,.72.14,1.44,1.44,0,0,1,.49.38,1.56,1.56,0,0,1,.27.53,2.67,2.67,0,0,1,.08.64v2.7H16.71V4.58c0-.12,0-.25,0-.4a1.45,1.45,0,0,0-.1-.41.79.79,0,0,0-.23-.32.74.74,0,0,0-.44-.13,1,1,0,0,0-.45.09.89.89,0,0,0-.3.24A1.06,1.06,0,0,0,15,4a1.84,1.84,0,0,0-.05.41V6.75H13.87Z"/><path class="cls-1" d="M22.3,6.11h0a1.39,1.39,0,0,1-.63.57,2,2,0,0,1-.85.18,2,2,0,0,1-.88-.18,1.89,1.89,0,0,1-.67-.47,2.24,2.24,0,0,1-.42-.72,2.8,2.8,0,0,1-.14-.88,2.6,2.6,0,0,1,.15-.89A2.19,2.19,0,0,1,19.26,3a2.12,2.12,0,0,1,.66-.48,2.14,2.14,0,0,1,.84-.17,2.23,2.23,0,0,1,.54.06,2.19,2.19,0,0,1,.41.16,1.94,1.94,0,0,1,.3.21l.21.22h0V0h1.07V6.75h-1Zm-2.54-1.5a1.51,1.51,0,0,0,.08.48,1.22,1.22,0,0,0,.25.41,1.35,1.35,0,0,0,1.46.29,1.24,1.24,0,0,0,.39-.29,1.08,1.08,0,0,0,.25-.41,1.33,1.33,0,0,0,0-1,1,1,0,0,0-.25-.41,1.24,1.24,0,0,0-.39-.29,1.27,1.27,0,0,0-1.46.29,1.13,1.13,0,0,0-.25.41A1.51,1.51,0,0,0,19.76,4.61Z"/><path class="cls-1" d="M27.09.43h2.49a3.78,3.78,0,0,1,1.21.19,2.86,2.86,0,0,1,1,.59,3,3,0,0,1,.71,1,3.36,3.36,0,0,1,.27,1.4A3,3,0,0,1,32.49,5a3,3,0,0,1-.79,1,3.53,3.53,0,0,1-1.08.58,3.76,3.76,0,0,1-1.17.19H27.09Zm2,5.3a4,4,0,0,0,1-.12,2.29,2.29,0,0,0,.82-.37,1.77,1.77,0,0,0,.55-.66,2.27,2.27,0,0,0,.2-1,2.42,2.42,0,0,0-.18-1A1.69,1.69,0,0,0,31,1.94a2.19,2.19,0,0,0-.75-.37,3.6,3.6,0,0,0-1-.12h-1V5.73Z"/><path class="cls-1" d="M33.55,1a.61.61,0,0,1,.19-.45.66.66,0,0,1,.49-.19.71.71,0,0,1,.49.18.58.58,0,0,1,.2.46.58.58,0,0,1-.2.46.71.71,0,0,1-.49.18.66.66,0,0,1-.49-.19A.61.61,0,0,1,33.55,1Zm.15,1.45h1.07V6.75H33.7Z"/><path class="cls-1" d="M38.2,3.65a1,1,0,0,0-.84-.43.92.92,0,0,0-.42.1.36.36,0,0,0-.2.35.3.3,0,0,0,.17.29,1.64,1.64,0,0,0,.43.15l.55.13a2.07,2.07,0,0,1,.56.2,1.31,1.31,0,0,1,.43.38,1.15,1.15,0,0,1,.17.66,1.18,1.18,0,0,1-.17.65,1.33,1.33,0,0,1-.42.43,2.27,2.27,0,0,1-.6.23,3.7,3.7,0,0,1-.66.07,3,3,0,0,1-.92-.14,1.79,1.79,0,0,1-.75-.52l.72-.67a2,2,0,0,0,.44.38,1,1,0,0,0,.57.15l.25,0a.92.92,0,0,0,.23-.09.44.44,0,0,0,.17-.16A.32.32,0,0,0,38,5.56a.39.39,0,0,0-.17-.33,1.43,1.43,0,0,0-.43-.17c-.17,0-.36-.09-.56-.13a2.16,2.16,0,0,1-.56-.18,1.22,1.22,0,0,1-.42-.36,1,1,0,0,1-.17-.65,1.23,1.23,0,0,1,.14-.62,1.34,1.34,0,0,1,.39-.43,1.72,1.72,0,0,1,.55-.25,2.29,2.29,0,0,1,.64-.08,2.54,2.54,0,0,1,.85.15,1.35,1.35,0,0,1,.68.5Z"/><path class="cls-1" d="M42.72,3.75a2.12,2.12,0,0,0-.39-.31.84.84,0,0,0-.42-.12,1.23,1.23,0,0,0-.93.4,1.13,1.13,0,0,0-.25.41,1.48,1.48,0,0,0,0,1A1.22,1.22,0,0,0,41,5.5a1.18,1.18,0,0,0,.93.39,1,1,0,0,0,.46-.1,1.07,1.07,0,0,0,.37-.3l.71.77a1.5,1.5,0,0,1-.37.28,2.6,2.6,0,0,1-.42.19,4,4,0,0,1-.41.1l-.34,0A2.49,2.49,0,0,1,41,6.7a2.06,2.06,0,0,1-.74-.46,2,2,0,0,1-.5-.71,2.25,2.25,0,0,1-.18-.92,2.34,2.34,0,0,1,.18-.93,2.23,2.23,0,0,1,.5-.71A2.19,2.19,0,0,1,41,2.52a2.49,2.49,0,0,1,.91-.16,2.37,2.37,0,0,1,.82.15,1.91,1.91,0,0,1,.73.5Z"/><path class="cls-1" d="M43.79,4.61A2.34,2.34,0,0,1,44,3.68a2.4,2.4,0,0,1,.5-.71,2.41,2.41,0,0,1,.74-.45,2.53,2.53,0,0,1,.91-.16,2.49,2.49,0,0,1,.91.16,2.19,2.19,0,0,1,.74.45,2.23,2.23,0,0,1,.5.71,2.34,2.34,0,0,1,.18.93,2.25,2.25,0,0,1-.18.92,2,2,0,0,1-.5.71A2.06,2.06,0,0,1,47,6.7a2.49,2.49,0,0,1-.91.16,2.53,2.53,0,0,1-.91-.16,2.25,2.25,0,0,1-.74-.46,2.17,2.17,0,0,1-.5-.71A2.25,2.25,0,0,1,43.79,4.61Zm1.07,0a1.28,1.28,0,0,0,.09.48,1.22,1.22,0,0,0,.25.41,1.18,1.18,0,0,0,.4.29,1.24,1.24,0,0,0,.52.1,1.18,1.18,0,0,0,.93-.39,1.22,1.22,0,0,0,.25-.41,1.48,1.48,0,0,0,0-1,1.13,1.13,0,0,0-.25-.41,1.23,1.23,0,0,0-.93-.4,1.24,1.24,0,0,0-.52.11,1.18,1.18,0,0,0-.4.29,1.13,1.13,0,0,0-.25.41A1.28,1.28,0,0,0,44.86,4.61Z"/><path class="cls-1" d="M48.78,2.46H50l1.15,3h0l1.16-3h1.1L51.68,6.75H50.53Z"/><path class="cls-1" d="M54.77,5a1,1,0,0,0,.37.75,1.19,1.19,0,0,0,.78.27,1.26,1.26,0,0,0,.67-.16,1.75,1.75,0,0,0,.48-.42l.77.58a2.16,2.16,0,0,1-.84.66,2.55,2.55,0,0,1-1.88,0,2.2,2.2,0,0,1-.75-.46,2.14,2.14,0,0,1-.49-.71,2.25,2.25,0,0,1-.18-.92,2.34,2.34,0,0,1,.18-.93A2.37,2.37,0,0,1,54.37,3a2.34,2.34,0,0,1,.75-.45A2.49,2.49,0,0,1,56,2.36a2.12,2.12,0,0,1,.81.15,1.84,1.84,0,0,1,.64.46,2.09,2.09,0,0,1,.41.72,3,3,0,0,1,.15,1V5ZM57,4.18a1,1,0,0,0-.29-.75,1.11,1.11,0,0,0-.79-.27,1,1,0,0,0-.77.28,1.19,1.19,0,0,0-.34.74Z"/><path class="cls-1" d="M59,2.46H60v.68h0a1.37,1.37,0,0,1,.51-.58,1.45,1.45,0,0,1,.75-.2.68.68,0,0,1,.2,0l.19,0v1l-.26-.06a1.18,1.18,0,0,0-.26,0,1.16,1.16,0,0,0-.6.13,1.22,1.22,0,0,0-.35.32,1.14,1.14,0,0,0-.16.36,1.16,1.16,0,0,0,0,.27V6.75H59Z"/><path class="cls-1" d="M61.75,2.46h1.18l1.2,3h0l1.08-3h1.11l-2,5.21a3.74,3.74,0,0,1-.26.53,1.4,1.4,0,0,1-.33.39,1.23,1.23,0,0,1-.44.23,2.15,2.15,0,0,1-.61.08,3.24,3.24,0,0,1-.82-.11l.13-1,.27.08a1.27,1.27,0,0,0,.28,0,1.55,1.55,0,0,0,.33,0,.84.84,0,0,0,.23-.12.58.58,0,0,0,.15-.19l.14-.29.2-.51Z"/><path class="cls-2" d="M128.88,19.8H130l3.74,8.74h-1.38l-.88-2.16h-4.16l-.86,2.16H125ZM131,25.34l-1.63-4h0l-1.65,4Z"/><path class="cls-2" d="M134.54,22.69h1.11v.9h0a1.84,1.84,0,0,1,.3-.43,1.91,1.91,0,0,1,.91-.54,2.09,2.09,0,0,1,.55-.08,1.53,1.53,0,0,1,.49.07l0,1.2-.27-.06-.27,0a1.65,1.65,0,0,0-1.25.46,2,2,0,0,0-.43,1.42v2.94h-1.11Z"/><path class="cls-2" d="M139.72,26a1.51,1.51,0,0,0,.17.7,1.6,1.6,0,0,0,.44.53,2,2,0,0,0,.62.35,2.36,2.36,0,0,0,.75.12,1.68,1.68,0,0,0,.9-.24,2.79,2.79,0,0,0,.7-.64l.84.65a3.11,3.11,0,0,1-2.59,1.19,3.21,3.21,0,0,1-1.26-.23,2.77,2.77,0,0,1-.95-.65,3,3,0,0,1-.59-1,3.47,3.47,0,0,1-.21-1.22,3.21,3.21,0,0,1,.22-1.21,3.3,3.3,0,0,1,.63-1,3.07,3.07,0,0,1,1-.65,3.18,3.18,0,0,1,1.21-.23,2.86,2.86,0,0,1,1.31.27,2.62,2.62,0,0,1,.89.71,2.89,2.89,0,0,1,.5,1,4.18,4.18,0,0,1,.15,1.11V26Zm3.51-.89a2.42,2.42,0,0,0-.12-.68,1.64,1.64,0,0,0-.32-.54,1.37,1.37,0,0,0-.52-.35,1.88,1.88,0,0,0-.74-.13,1.78,1.78,0,0,0-.74.15,1.87,1.87,0,0,0-.58.4,2.17,2.17,0,0,0-.36.55,1.44,1.44,0,0,0-.13.6Z"/><path class="cls-2" d="M128.53,34.83,125.33,30h1.47l2.3,3.72L131.48,30h1.4l-3.2,4.85v3.62h-1.15Z"/><path class="cls-2" d="M132,35.61a2.83,2.83,0,0,1,.24-1.16,2.9,2.9,0,0,1,.64-.94,3,3,0,0,1,1-.64,3,3,0,0,1,1.19-.24,2.93,2.93,0,0,1,1.18.24,2.89,2.89,0,0,1,1,.64,3.07,3.07,0,0,1,.64.94,3,3,0,0,1,.23,1.16,3.05,3.05,0,0,1-.23,1.17,3,3,0,0,1-.64.94,3,3,0,0,1-1,.64,3.1,3.1,0,0,1-1.18.23,3.15,3.15,0,0,1-1.19-.23,3.12,3.12,0,0,1-1-.64,2.8,2.8,0,0,1-.64-.94A2.88,2.88,0,0,1,132,35.61Zm1.15,0a2.58,2.58,0,0,0,.13.8,1.83,1.83,0,0,0,.37.62,1.78,1.78,0,0,0,.59.41,2.22,2.22,0,0,0,1.55,0,1.69,1.69,0,0,0,.59-.41,1.83,1.83,0,0,0,.37-.62,2.32,2.32,0,0,0,.13-.8,2.22,2.22,0,0,0-.13-.79,1.87,1.87,0,0,0-.37-.63,1.67,1.67,0,0,0-.59-.4,2.08,2.08,0,0,0-1.55,0,1.76,1.76,0,0,0-.59.4,1.87,1.87,0,0,0-.37.63A2.47,2.47,0,0,0,133.12,35.61Z"/><path class="cls-2" d="M144.37,38.45H143.3v-.88h0a1.56,1.56,0,0,1-.7.74,2.51,2.51,0,0,1-1.95.15,1.6,1.6,0,0,1-.65-.39,1.8,1.8,0,0,1-.45-.67,2.64,2.64,0,0,1-.17-1V32.78h1.08v3.35a1.71,1.71,0,0,0,.11.67,1.23,1.23,0,0,0,.28.46,1.12,1.12,0,0,0,.42.25,1.51,1.51,0,0,0,.48.07,1.79,1.79,0,0,0,.62-.1,1.31,1.31,0,0,0,.5-.34,1.6,1.6,0,0,0,.34-.6,2.62,2.62,0,0,0,.12-.84V32.78h1.07Z"/><path class="cls-2" d="M147.7,36.08v-.73a2.06,2.06,0,0,1,.05-.54,1.64,1.64,0,0,1,.14-.39,1.3,1.3,0,0,1,.26-.33c.1-.11.24-.24.4-.39l.38-.37a4.14,4.14,0,0,0,.35-.38,1.79,1.79,0,0,0,.25-.42,1.1,1.1,0,0,0,.1-.49,1.19,1.19,0,0,0-.1-.51,1,1,0,0,0-.27-.4,1.28,1.28,0,0,0-.4-.27,1.33,1.33,0,0,0-.49-.09,1.26,1.26,0,0,0-1,.37,1.59,1.59,0,0,0-.44,1L145.76,32a2.47,2.47,0,0,1,.87-1.63,2.63,2.63,0,0,1,1.76-.6,2.85,2.85,0,0,1,.94.15,2.46,2.46,0,0,1,.76.43,2.15,2.15,0,0,1,.51.7,2.32,2.32,0,0,1,.18.94,2.15,2.15,0,0,1-.13.79,2.42,2.42,0,0,1-.37.64l-.72.74-.12.11a4.08,4.08,0,0,0-.3.31.87.87,0,0,0-.18.26,1.32,1.32,0,0,0-.09.3,2.62,2.62,0,0,0,0,.42v.53Zm-.23,1.65a.79.79,0,0,1,.79-.79.8.8,0,0,1,.56.23.79.79,0,0,1,.23.56.76.76,0,0,1-.23.55.77.77,0,0,1-.56.24.8.8,0,0,1-.79-.79Z"/><path class="cls-3" d="M0,10.13H7.43l7.16,27.46h.11l8.56-27.46h6.68l8.4,27.46h.11l7.48-27.46h6.9L41.73,48.26H35.27l-8.83-29h-.11l-8.83,29H11.25Z"/><path class="cls-3" d="M57.08,10.13h6.78V25.32H81.69V10.13h6.78V48.26H81.69V31.46H63.86v16.8H57.08Z"/><path class="cls-3" d="M106.3,31.94,92,10.13h8.51l9.37,15.19,9.48-15.19h8.08L113.08,31.94V48.26H106.3Z"/></svg>