<svg id="Layer_1" data-name="Layer 1" xmlns="http://www.w3.org/2000/svg" viewBox="0 0 168.31 50"><defs><style>.cls-1{fill:#58595b;}.cls-2{fill:#6d6e70;}.cls-3{fill:#a5a7aa;}</style></defs><path class="cls-1" d="M1.08.45H3a4.74,4.74,0,0,1,.75.06,1.78,1.78,0,0,1,.69.25,1.48,1.48,0,0,1,.49.53,1.82,1.82,0,0,1,.19.9,1.38,1.38,0,0,1-.3.88,1.49,1.49,0,0,1-.88.49v0a1.9,1.9,0,0,1,.59.15A1.62,1.62,0,0,1,5,4.07a1.39,1.39,0,0,1,.3.5,1.81,1.81,0,0,1,.11.63,1.67,1.67,0,0,1-.22.92,1.77,1.77,0,0,1-.55.57A2,2,0,0,1,3.9,7,3.65,3.65,0,0,1,3.18,7H1.08ZM1.69,3.3H3a2.11,2.11,0,0,0,.77-.12,1.5,1.5,0,0,0,.47-.28.86.86,0,0,0,.22-.36,1.22,1.22,0,0,0,.06-.35,1.2,1.2,0,0,0-.12-.57,1,1,0,0,0-.31-.37,1.35,1.35,0,0,0-.46-.19A3.21,3.21,0,0,0,3.05,1H1.69Zm0,3.18H3.1A2.35,2.35,0,0,0,4,6.35,1.28,1.28,0,0,0,4.48,6a1.09,1.09,0,0,0,.23-.42,1.16,1.16,0,0,0,.06-.39,1.25,1.25,0,0,0-.14-.63,1.22,1.22,0,0,0-.36-.42,1.5,1.5,0,0,0-.51-.24,2.22,2.22,0,0,0-.57-.07H1.69Z"/><path class="cls-1" d="M6.93,4c0-.08,0-.18,0-.29s0-.23,0-.35,0-.23,0-.33,0-.19,0-.24h.56c0,.16,0,.32,0,.47a1.2,1.2,0,0,0,0,.28A1.83,1.83,0,0,1,8,2.87a1.35,1.35,0,0,1,.82-.24H9l.16,0-.06.55-.22,0a1.73,1.73,0,0,0-.63.11,1.27,1.27,0,0,0-.43.32,1.4,1.4,0,0,0-.26.48,1.94,1.94,0,0,0-.08.6V7H6.93Z"/><path class="cls-1" d="M13.51,5.24c0,.21,0,.4,0,.56s0,.33,0,.47,0,.28,0,.4,0,.25,0,.37h-.53a4.9,4.9,0,0,1-.05-.7h0a1.56,1.56,0,0,1-.6.62,1.89,1.89,0,0,1-.91.19,2,2,0,0,1-.55-.07,1.32,1.32,0,0,1-.48-.22,1.1,1.1,0,0,1-.35-.39A1.22,1.22,0,0,1,10,5.88a1.18,1.18,0,0,1,.25-.78,1.6,1.6,0,0,1,.62-.44,2.93,2.93,0,0,1,.79-.18,6.89,6.89,0,0,1,.73-.05H13V4.17a.93.93,0,0,0-.34-.8,1.51,1.51,0,0,0-.87-.24,2,2,0,0,0-1.32.49l-.32-.39a1.92,1.92,0,0,1,.76-.45,2.85,2.85,0,0,1,.88-.15A1.94,1.94,0,0,1,13.05,3a1.41,1.41,0,0,1,.46,1.18Zm-1.12-.36a5.06,5.06,0,0,0-.68,0,2.2,2.2,0,0,0-.6.16,1.17,1.17,0,0,0-.42.29.69.69,0,0,0-.16.47.68.68,0,0,0,.09.35.79.79,0,0,0,.23.25.89.89,0,0,0,.31.15,1.41,1.41,0,0,0,.35.05,1.78,1.78,0,0,0,.74-.13,1.35,1.35,0,0,0,.46-.34,1.21,1.21,0,0,0,.23-.47A2,2,0,0,0,13,5.17V4.88Z"/><path class="cls-1" d="M15.14,4c0-.08,0-.18,0-.29s0-.23,0-.35,0-.23,0-.33,0-.19,0-.24h.56c0,.16,0,.32,0,.47a1.43,1.43,0,0,0,0,.28h0a1.54,1.54,0,0,1,.56-.61,1.61,1.61,0,0,1,.91-.25,1.76,1.76,0,0,1,.82.16,1.27,1.27,0,0,1,.5.41,1.49,1.49,0,0,1,.25.59,3.23,3.23,0,0,1,.07.69V7h-.56V4.51a2.85,2.85,0,0,0,0-.51,1.3,1.3,0,0,0-.17-.44.74.74,0,0,0-.32-.31,1.09,1.09,0,0,0-.55-.12,1.62,1.62,0,0,0-.58.11,1.39,1.39,0,0,0-.48.32,1.72,1.72,0,0,0-.31.55,2.28,2.28,0,0,0-.12.78V7h-.56Z"/><path class="cls-1" d="M24.23,6.29h0a1.35,1.35,0,0,1-.33.38,2.36,2.36,0,0,1-.42.28A2.21,2.21,0,0,1,23,7.1a2.18,2.18,0,0,1-.5.05A2.45,2.45,0,0,1,21.57,7a2.09,2.09,0,0,1-.72-.47,2.16,2.16,0,0,1-.46-.72,2.52,2.52,0,0,1,0-1.82,2.11,2.11,0,0,1,1.18-1.19,2.45,2.45,0,0,1,.91-.16,2.18,2.18,0,0,1,.5.05,2.26,2.26,0,0,1,.48.16,1.88,1.88,0,0,1,.42.27,1.51,1.51,0,0,1,.33.38h0V0h.55V7h-.55Zm.05-1.4a1.56,1.56,0,0,0-.14-.68,1.68,1.68,0,0,0-.38-.56,1.73,1.73,0,0,0-.57-.38,1.83,1.83,0,0,0-.71-.14,1.75,1.75,0,0,0-.7.14,1.43,1.43,0,0,0-.54.38,1.46,1.46,0,0,0-.34.56,1.91,1.91,0,0,0-.12.68,2,2,0,0,0,.12.69,1.42,1.42,0,0,0,.34.55,1.43,1.43,0,0,0,.54.38,1.59,1.59,0,0,0,.7.14,1.67,1.67,0,0,0,.71-.14,1.73,1.73,0,0,0,.57-.38,1.71,1.71,0,0,0,.52-1.24Z"/><path class="cls-1" d="M29.19,5.82a1.59,1.59,0,0,0,.63.63,1.93,1.93,0,0,0,.88.2,1.81,1.81,0,0,0,.58-.09,1.54,1.54,0,0,0,.47-.26,1.25,1.25,0,0,0,.43-.94A1.09,1.09,0,0,0,32,4.79a1.26,1.26,0,0,0-.39-.37,2.69,2.69,0,0,0-.54-.25L30.48,4l-.62-.23a2.2,2.2,0,0,1-.55-.34,1.47,1.47,0,0,1-.38-.53,1.81,1.81,0,0,1-.15-.78A1.76,1.76,0,0,1,29,1.31a1.64,1.64,0,0,1,.47-.57A2,2,0,0,1,30.09.4,2.74,2.74,0,0,1,30.9.28a2.54,2.54,0,0,1,1,.19,1.92,1.92,0,0,1,.79.64l-.53.38A1.48,1.48,0,0,0,31.62,1a1.58,1.58,0,0,0-.74-.16,2.12,2.12,0,0,0-.57.08,1.38,1.38,0,0,0-.47.23,1.12,1.12,0,0,0-.32.39,1.18,1.18,0,0,0-.12.55,1.06,1.06,0,0,0,.25.76,1.93,1.93,0,0,0,.63.42,7.17,7.17,0,0,0,.82.27,3.85,3.85,0,0,1,.82.31,1.82,1.82,0,0,1,.63.54,1.72,1.72,0,0,1,.25,1,1.8,1.8,0,0,1-.17.79,1.71,1.71,0,0,1-.45.58,1.92,1.92,0,0,1-.66.36,2.53,2.53,0,0,1-.77.12A3.09,3.09,0,0,1,29.55,7a2.24,2.24,0,0,1-.95-.77Z"/><path class="cls-1" d="M36.28,3.24H35.05V6.05a.55.55,0,0,0,.6.6,1.22,1.22,0,0,0,.32,0,1.63,1.63,0,0,0,.31-.11l0,.51-.37.1a1.59,1.59,0,0,1-.36,0,1.52,1.52,0,0,1-.51-.08,1,1,0,0,1-.35-.24,1.08,1.08,0,0,1-.19-.35,1.49,1.49,0,0,1-.06-.43V3.24h-.93v-.5h.93V1.5h.56V2.74h1.23Z"/><path class="cls-1" d="M37.42,4c0-.08,0-.18,0-.29s0-.23,0-.35,0-.23,0-.33,0-.19,0-.24h.56c0,.16,0,.32,0,.47a1.2,1.2,0,0,0,0,.28,1.83,1.83,0,0,1,.55-.62,1.35,1.35,0,0,1,.82-.24h.16l.16,0-.06.55-.22,0a1.73,1.73,0,0,0-.63.11,1.27,1.27,0,0,0-.43.32,1.4,1.4,0,0,0-.26.48,1.93,1.93,0,0,0-.09.6V7h-.55Z"/><path class="cls-1" d="M44,5.24c0,.21,0,.4,0,.56s0,.33,0,.47,0,.28,0,.4a2.33,2.33,0,0,0,0,.37h-.53a4.9,4.9,0,0,1-.05-.7h0a1.56,1.56,0,0,1-.6.62,1.89,1.89,0,0,1-.91.19,2.08,2.08,0,0,1-.55-.07A1.32,1.32,0,0,1,41,6.86a1.1,1.1,0,0,1-.35-.39,1.22,1.22,0,0,1-.14-.59,1.18,1.18,0,0,1,.25-.78,1.6,1.6,0,0,1,.62-.44,2.93,2.93,0,0,1,.79-.18,6.89,6.89,0,0,1,.73-.05h.65V4.17a.93.93,0,0,0-.34-.8,1.51,1.51,0,0,0-.87-.24A2,2,0,0,0,41,3.62l-.32-.39a1.92,1.92,0,0,1,.76-.45,2.85,2.85,0,0,1,.88-.15A1.94,1.94,0,0,1,43.54,3,1.41,1.41,0,0,1,44,4.18Zm-1.12-.36a5.06,5.06,0,0,0-.68,0,2.2,2.2,0,0,0-.6.16,1.17,1.17,0,0,0-.42.29.69.69,0,0,0-.16.47.68.68,0,0,0,.09.35.79.79,0,0,0,.23.25.89.89,0,0,0,.31.15,1.41,1.41,0,0,0,.35.05,1.78,1.78,0,0,0,.74-.13,1.35,1.35,0,0,0,.46-.34,1.21,1.21,0,0,0,.23-.47,2,2,0,0,0,.07-.54V4.88Z"/><path class="cls-1" d="M47.74,3.24H46.51V6.05a.57.57,0,0,0,.16.44.56.56,0,0,0,.43.16,1.24,1.24,0,0,0,.33,0,1.63,1.63,0,0,0,.31-.11l0,.51-.37.1a1.65,1.65,0,0,1-.36,0,1.52,1.52,0,0,1-.51-.08.91.91,0,0,1-.35-.24A.92.92,0,0,1,46,6.48,1.49,1.49,0,0,1,46,6.05V3.24H45v-.5H46V1.5h.56V2.74h1.23Z"/><path class="cls-1" d="M52.67,6.23a1.81,1.81,0,0,1-.8.71,2.61,2.61,0,0,1-1.06.21A2.28,2.28,0,0,1,49.92,7a2,2,0,0,1-.69-.47,2.12,2.12,0,0,1-.44-.72,2.47,2.47,0,0,1-.16-.92A2.35,2.35,0,0,1,48.79,4a2.31,2.31,0,0,1,.45-.72,2.18,2.18,0,0,1,.68-.47,2,2,0,0,1,.86-.17,2.06,2.06,0,0,1,.88.17,2,2,0,0,1,.63.46,1.81,1.81,0,0,1,.38.64,2.15,2.15,0,0,1,.14.74V5H49.19a1.71,1.71,0,0,0,.07.45,1.58,1.58,0,0,0,.26.54,1.69,1.69,0,0,0,.5.45,1.55,1.55,0,0,0,.8.18,1.88,1.88,0,0,0,.83-.2,1.51,1.51,0,0,0,.61-.56Zm-.42-1.7A1.22,1.22,0,0,0,52.13,4a1.42,1.42,0,0,0-.32-.45,1.72,1.72,0,0,0-.47-.3,1.62,1.62,0,0,0-.58-.11,1.36,1.36,0,0,0-.76.19,1.44,1.44,0,0,0-.48.43,1.54,1.54,0,0,0-.25.47,1.25,1.25,0,0,0-.08.31Z"/><path class="cls-1" d="M58.52,6.76a3,3,0,0,1-.24,1.3,2,2,0,0,1-.58.76,2,2,0,0,1-.75.37,3.37,3.37,0,0,1-.73.09,3.28,3.28,0,0,1-.63-.06A2.71,2.71,0,0,1,55,9a2.48,2.48,0,0,1-.51-.28,2.07,2.07,0,0,1-.4-.38L54.53,8a1.75,1.75,0,0,0,.74.62,2.38,2.38,0,0,0,.95.2A2,2,0,0,0,57,8.66a1.43,1.43,0,0,0,.48-.29,1.27,1.27,0,0,0,.3-.4,2.6,2.6,0,0,0,.16-.44A3.12,3.12,0,0,0,58,7.12c0-.13,0-.24,0-.32V6.2h0a1.64,1.64,0,0,1-.66.62,2,2,0,0,1-1,.22,2.33,2.33,0,0,1-1.63-.64,2.31,2.31,0,0,1-.49-.71,2.12,2.12,0,0,1,0-1.71,2.16,2.16,0,0,1,.49-.7,2.28,2.28,0,0,1,1.63-.65,2,2,0,0,1,1,.22,1.71,1.71,0,0,1,.66.62h0V2.74h.56ZM58,4.83a1.66,1.66,0,0,0-.14-.66,1.7,1.7,0,0,0-.36-.54,1.82,1.82,0,0,0-.54-.36,1.67,1.67,0,0,0-.67-.14,1.71,1.71,0,0,0-.67.14,2,2,0,0,0-.54.36,1.7,1.7,0,0,0-.36.54,1.77,1.77,0,0,0,0,1.33,1.7,1.7,0,0,0,.36.54,2.25,2.25,0,0,0,.54.37,1.7,1.7,0,0,0,.67.13,1.67,1.67,0,0,0,.67-.13A2.07,2.07,0,0,0,57.48,6a1.7,1.7,0,0,0,.36-.54A1.67,1.67,0,0,0,58,4.83Z"/><path class="cls-1" d="M61.24,8.38A1.66,1.66,0,0,1,60.8,9a1.13,1.13,0,0,1-.75.24l-.28,0L59.5,9.2l.06-.53.25.07a1.09,1.09,0,0,0,.25,0,.6.6,0,0,0,.27-.07.65.65,0,0,0,.2-.17,1.28,1.28,0,0,0,.14-.23,1.89,1.89,0,0,0,.11-.25l.39-1L59.42,2.74H60l1.43,3.62,1.39-3.62h.59Z"/><path class="cls-1" d="M67,4h2.15V1.84h.45V4h2.15v.44H69.62V6.6h-.45V4.44H67Z"/><path class="cls-1" d="M76.1.45H78a5,5,0,0,1,.76.06,1.74,1.74,0,0,1,.68.25,1.42,1.42,0,0,1,.5.53,1.94,1.94,0,0,1,.19.9,1.38,1.38,0,0,1-.3.88,1.49,1.49,0,0,1-.88.49v0a1.9,1.9,0,0,1,.59.15,1.62,1.62,0,0,1,.47.34,1.39,1.39,0,0,1,.3.5,1.81,1.81,0,0,1,.11.63,1.76,1.76,0,0,1-.22.92,1.77,1.77,0,0,1-.55.57,2,2,0,0,1-.72.28,3.8,3.8,0,0,1-.72.07H76.1Zm.62,2.85H78a2.11,2.11,0,0,0,.77-.12,1.34,1.34,0,0,0,.46-.28.79.79,0,0,0,.23-.36,1.18,1.18,0,0,0,.05-.35,1.35,1.35,0,0,0-.11-.57,1,1,0,0,0-.31-.37,1.44,1.44,0,0,0-.46-.19A3.31,3.31,0,0,0,78.08,1H76.72Zm0,3.18h1.41A2.35,2.35,0,0,0,79,6.35,1.17,1.17,0,0,0,79.5,6a1,1,0,0,0,.24-.42,1.48,1.48,0,0,0,.06-.39,1.25,1.25,0,0,0-.14-.63,1.22,1.22,0,0,0-.36-.42,1.5,1.5,0,0,0-.51-.24,2.22,2.22,0,0,0-.57-.07h-1.5Z"/><path class="cls-1" d="M82,4V3.66c0-.12,0-.23,0-.35s0-.23,0-.33,0-.19,0-.24h.56c0,.16,0,.32,0,.47a1.43,1.43,0,0,0,0,.28,2.06,2.06,0,0,1,.55-.62,1.39,1.39,0,0,1,.82-.24H84l.16,0-.07.55a.76.76,0,0,0-.21,0,1.73,1.73,0,0,0-.63.11,1.32,1.32,0,0,0-.44.32,1.38,1.38,0,0,0-.25.48,1.93,1.93,0,0,0-.09.6V7H82Z"/><path class="cls-1" d="M88.54,5.24V5.8c0,.17,0,.33,0,.47s0,.28,0,.4,0,.25,0,.37H88.1a3.78,3.78,0,0,1,0-.7h0a1.56,1.56,0,0,1-.6.62,1.92,1.92,0,0,1-.91.19A2,2,0,0,1,86,7.08a1.45,1.45,0,0,1-.49-.22,1.2,1.2,0,0,1-.35-.39A1.35,1.35,0,0,1,85,5.88a1.13,1.13,0,0,1,.25-.78,1.6,1.6,0,0,1,.62-.44,3,3,0,0,1,.78-.18,7.06,7.06,0,0,1,.73-.05H88V4.17a.91.91,0,0,0-.35-.8,1.48,1.48,0,0,0-.86-.24,2,2,0,0,0-1.32.49l-.32-.39A1.92,1.92,0,0,1,86,2.78a2.81,2.81,0,0,1,.88-.15A1.91,1.91,0,0,1,88.07,3a1.41,1.41,0,0,1,.47,1.18Zm-1.12-.36a5.06,5.06,0,0,0-.68,0,2.2,2.2,0,0,0-.6.16,1,1,0,0,0-.42.29.69.69,0,0,0-.16.47.68.68,0,0,0,.09.35.69.69,0,0,0,.23.25.81.81,0,0,0,.31.15,1.34,1.34,0,0,0,.35.05,1.7,1.7,0,0,0,.73-.13,1.18,1.18,0,0,0,.46-.34A1.11,1.11,0,0,0,88,5.71,2.5,2.5,0,0,0,88,5.17V4.88Z"/><path class="cls-1" d="M90.17,4c0-.08,0-.18,0-.29s0-.23,0-.35,0-.23,0-.33,0-.19,0-.24h.56c0,.16,0,.32,0,.47a1.43,1.43,0,0,0,0,.28h0a1.54,1.54,0,0,1,.56-.61,1.61,1.61,0,0,1,.91-.25,1.79,1.79,0,0,1,.82.16,1.27,1.27,0,0,1,.5.41,1.65,1.65,0,0,1,.25.59,3.23,3.23,0,0,1,.07.69V7H93.3V4.51a2.84,2.84,0,0,0,0-.51,1.29,1.29,0,0,0-.16-.44.82.82,0,0,0-.33-.31,1.05,1.05,0,0,0-.54-.12,1.58,1.58,0,0,0-.58.11,1.31,1.31,0,0,0-.48.32,1.55,1.55,0,0,0-.31.55,2.28,2.28,0,0,0-.12.78V7h-.56Z"/><path class="cls-1" d="M99.25,6.29h0a1.18,1.18,0,0,1-.32.38,2.12,2.12,0,0,1-.43.28A2,2,0,0,1,98,7.1a2.18,2.18,0,0,1-.5.05A2.45,2.45,0,0,1,96.6,7a2.09,2.09,0,0,1-.72-.47,2.16,2.16,0,0,1-.46-.72,2.27,2.27,0,0,1-.17-.91A2.27,2.27,0,0,1,95.42,4,2.11,2.11,0,0,1,96.6,2.79a2.45,2.45,0,0,1,.91-.16,2.18,2.18,0,0,1,.5.05,2,2,0,0,1,.47.16,1.73,1.73,0,0,1,.43.27,1.3,1.3,0,0,1,.32.38h0V0h.56V7h-.56Zm.06-1.4a1.72,1.72,0,0,0-.14-.68,1.68,1.68,0,0,0-.38-.56,1.73,1.73,0,0,0-.57-.38,1.83,1.83,0,0,0-.71-.14,1.8,1.8,0,0,0-.71.14,1.61,1.61,0,0,0-.88.94,1.9,1.9,0,0,0-.11.68,2,2,0,0,0,.11.69,1.55,1.55,0,0,0,.34.55,1.6,1.6,0,0,0,.54.38,1.64,1.64,0,0,0,.71.14,1.67,1.67,0,0,0,.71-.14,1.73,1.73,0,0,0,.57-.38,1.64,1.64,0,0,0,.38-.55A1.81,1.81,0,0,0,99.31,4.89Z"/><path class="cls-1" d="M104,.45h.62V7H104Z"/><path class="cls-1" d="M110.21,6.29h0a1.35,1.35,0,0,1-.33.38,2.36,2.36,0,0,1-.42.28,1.92,1.92,0,0,1-.48.15,2.09,2.09,0,0,1-.49.05,2.51,2.51,0,0,1-.92-.16,2,2,0,0,1-.71-.47,2.19,2.19,0,0,1-.47-.72,2.52,2.52,0,0,1,0-1.82,2.15,2.15,0,0,1,.47-.71,2,2,0,0,1,.71-.48,2.51,2.51,0,0,1,.92-.16,2.09,2.09,0,0,1,.49.05,1.94,1.94,0,0,1,.48.16,1.88,1.88,0,0,1,.42.27,1.51,1.51,0,0,1,.33.38h0V0h.56V7h-.56Zm.05-1.4a1.56,1.56,0,0,0-.14-.68,1.68,1.68,0,0,0-.38-.56,1.73,1.73,0,0,0-.57-.38,1.85,1.85,0,0,0-1.41,0,1.61,1.61,0,0,0-.88.94,1.91,1.91,0,0,0-.12.68,2,2,0,0,0,.12.69,1.55,1.55,0,0,0,.34.55,1.6,1.6,0,0,0,.54.38,1.85,1.85,0,0,0,1.41,0,1.73,1.73,0,0,0,.57-.38,1.71,1.71,0,0,0,.52-1.24Z"/><path class="cls-1" d="M116.08,6.23a1.89,1.89,0,0,1-.81.71,2.61,2.61,0,0,1-1.06.21,2.31,2.31,0,0,1-.89-.16,2,2,0,0,1-.69-.47,2.12,2.12,0,0,1-.44-.72,2.69,2.69,0,0,1-.16-.92,2.56,2.56,0,0,1,.16-.89,2.31,2.31,0,0,1,.45-.72,2.18,2.18,0,0,1,.68-.47,2.31,2.31,0,0,1,1.74,0,2,2,0,0,1,.63.46,2,2,0,0,1,.39.64,2.4,2.4,0,0,1,.13.74V5h-3.62a2.26,2.26,0,0,0,.07.45,1.58,1.58,0,0,0,.26.54,1.69,1.69,0,0,0,.5.45,1.58,1.58,0,0,0,.8.18,1.88,1.88,0,0,0,.83-.2,1.61,1.61,0,0,0,.62-.56Zm-.43-1.7a1.22,1.22,0,0,0-.12-.54,1.57,1.57,0,0,0-.31-.45,2,2,0,0,0-.48-.3,1.62,1.62,0,0,0-.58-.11,1.36,1.36,0,0,0-.76.19,1.68,1.68,0,0,0-.73.9,1.25,1.25,0,0,0-.08.31Z"/><path class="cls-1" d="M117.59,4V3.66c0-.12,0-.23,0-.35s0-.23,0-.33,0-.19,0-.24h.56c0,.16,0,.32,0,.47a1.43,1.43,0,0,0,0,.28h0a1.54,1.54,0,0,1,.56-.61,1.64,1.64,0,0,1,.91-.25,1.76,1.76,0,0,1,.82.16,1.27,1.27,0,0,1,.5.41,1.49,1.49,0,0,1,.25.59,3.23,3.23,0,0,1,.07.69V7h-.56V4.51a2.85,2.85,0,0,0,0-.51,1.54,1.54,0,0,0-.16-.44.82.82,0,0,0-.33-.31,1.09,1.09,0,0,0-.55-.12,1.66,1.66,0,0,0-.58.11,1.27,1.27,0,0,0-.47.32,1.56,1.56,0,0,0-.32.55,2.28,2.28,0,0,0-.12.78V7h-.56Z"/><path class="cls-1" d="M125,3.24h-1.23V6.05a.55.55,0,0,0,.6.6,1.22,1.22,0,0,0,.32,0A1.63,1.63,0,0,0,125,6.5l0,.51-.37.1a1.59,1.59,0,0,1-.36,0,1.52,1.52,0,0,1-.51-.08.91.91,0,0,1-.35-.24,1.08,1.08,0,0,1-.19-.35,1.49,1.49,0,0,1-.06-.43V3.24h-.93v-.5h.93V1.5h.56V2.74H125Z"/><path class="cls-1" d="M126.12,1a.4.4,0,0,1,.12-.29.43.43,0,0,1,.6,0A.4.4,0,0,1,127,1a.42.42,0,1,1-.84,0Zm.14,1.71h.56V7h-.56Z"/><path class="cls-1" d="M130.65,3.24h-1.23V6.05a.57.57,0,0,0,.16.44.56.56,0,0,0,.43.16,1.12,1.12,0,0,0,.32,0,1.73,1.73,0,0,0,.32-.11l0,.51-.36.1a1.71,1.71,0,0,1-.36,0,1.62,1.62,0,0,1-.52-.08,1,1,0,0,1-.34-.24.92.92,0,0,1-.19-.35,1.49,1.49,0,0,1-.06-.43V3.24h-.93v-.5h.93V1.5h.56V2.74h1.23Z"/><path class="cls-1" d="M133,8.38a1.65,1.65,0,0,1-.43.66,1.13,1.13,0,0,1-.75.24l-.28,0-.27-.06.06-.53.24.07a1.17,1.17,0,0,0,.26,0,.6.6,0,0,0,.27-.07.79.79,0,0,0,.2-.17,1.28,1.28,0,0,0,.14-.23,1.89,1.89,0,0,0,.11-.25l.39-1-1.75-4.32h.62l1.43,3.62,1.38-3.62h.6Z"/><path class="cls-2" d="M146.4,20.57h1.08l3.73,8.74h-1.38L149,27.15H144.8l-.87,2.16h-1.38Zm2.12,5.54-1.62-4h0l-1.65,4Z"/><path class="cls-2" d="M152.07,23.46h1.11v.9h0a1.39,1.39,0,0,1,.3-.43,2.15,2.15,0,0,1,.41-.32,2.52,2.52,0,0,1,.5-.22,2,2,0,0,1,.54-.08,1.59,1.59,0,0,1,.5.08l0,1.19-.27-.06a1.37,1.37,0,0,0-.28,0,1.64,1.64,0,0,0-1.24.45,2,2,0,0,0-.43,1.42v2.94h-1.11Z"/><path class="cls-2" d="M157.25,26.79a1.47,1.47,0,0,0,.16.7,1.62,1.62,0,0,0,.44.53,1.93,1.93,0,0,0,.63.35,2.34,2.34,0,0,0,.74.12,1.63,1.63,0,0,0,.9-.24,3,3,0,0,0,.71-.63l.83.64a3.07,3.07,0,0,1-2.59,1.2,3.17,3.17,0,0,1-1.25-.24,2.64,2.64,0,0,1-.95-.65,2.83,2.83,0,0,1-.6-1,3.47,3.47,0,0,1-.21-1.22,3.22,3.22,0,0,1,.23-1.21,3,3,0,0,1,.63-1,2.89,2.89,0,0,1,1-.64,3,3,0,0,1,1.21-.24,2.91,2.91,0,0,1,1.31.27,2.58,2.58,0,0,1,.88.71,2.72,2.72,0,0,1,.5,1,4.27,4.27,0,0,1,.16,1.12v.39Zm3.5-.89a2.48,2.48,0,0,0-.12-.68,1.48,1.48,0,0,0-.31-.53,1.61,1.61,0,0,0-.52-.36,1.88,1.88,0,0,0-.74-.13,1.86,1.86,0,0,0-.75.15,2,2,0,0,0-.57.41,1.6,1.6,0,0,0-.36.54,1.51,1.51,0,0,0-.13.6Z"/><path class="cls-2" d="M146.06,35.61l-3.21-4.86h1.47l2.31,3.72L149,30.75h1.4l-3.21,4.86v3.61h-1.14Z"/><path class="cls-2" d="M149.5,36.38a3,3,0,0,1,.23-1.16,3.2,3.2,0,0,1,.64-.94,3,3,0,0,1,1-.64,3.17,3.17,0,0,1,2.37,0,3.12,3.12,0,0,1,1,.64,3,3,0,0,1,.64,3.27,2.66,2.66,0,0,1-.64.94,3.09,3.09,0,0,1-3.32.64,3,3,0,0,1-1-.64,3,3,0,0,1-.64-.94A3,3,0,0,1,149.5,36.38Zm1.15,0a2.28,2.28,0,0,0,.13.8,1.83,1.83,0,0,0,.37.62,1.78,1.78,0,0,0,.59.41,2.08,2.08,0,0,0,1.55,0,1.78,1.78,0,0,0,.59-.41,1.83,1.83,0,0,0,.37-.62,2.5,2.5,0,0,0,0-1.59,1.83,1.83,0,0,0-.37-.62,1.78,1.78,0,0,0-.59-.41,2.08,2.08,0,0,0-1.55,0,1.78,1.78,0,0,0-.59.41,1.83,1.83,0,0,0-.37.62A2.26,2.26,0,0,0,150.65,36.38Z"/><path class="cls-2" d="M161.9,39.22h-1.08v-.87h0a1.61,1.61,0,0,1-.71.73,2.29,2.29,0,0,1-1.16.28,2.5,2.5,0,0,1-.78-.12,2,2,0,0,1-.66-.39,2,2,0,0,1-.44-.68,2.4,2.4,0,0,1-.17-1V33.55H158V36.9a1.88,1.88,0,0,0,.11.67,1.25,1.25,0,0,0,.29.46,1.16,1.16,0,0,0,.41.25,1.62,1.62,0,0,0,.49.08,1.8,1.8,0,0,0,.62-.11,1.31,1.31,0,0,0,.5-.34,1.68,1.68,0,0,0,.33-.59,2.72,2.72,0,0,0,.12-.85V33.55h1.08Z"/><path class="cls-2" d="M165.22,36.85v-.73a2.76,2.76,0,0,1,.05-.54,1.32,1.32,0,0,1,.15-.39,1.44,1.44,0,0,1,.25-.33l.4-.39.39-.36a4.13,4.13,0,0,0,.34-.39,2,2,0,0,0,.26-.41,1.18,1.18,0,0,0,.1-.5,1.25,1.25,0,0,0-.1-.51,1.41,1.41,0,0,0-.27-.4,1.11,1.11,0,0,0-.4-.26,1.21,1.21,0,0,0-.5-.1,1.31,1.31,0,0,0-.95.37,1.58,1.58,0,0,0-.43,1l-1.22-.12a2.51,2.51,0,0,1,.86-1.63,2.67,2.67,0,0,1,1.77-.59,2.89,2.89,0,0,1,.94.15,2.27,2.27,0,0,1,.76.43,2,2,0,0,1,.5.69,2.19,2.19,0,0,1,.19.94,2.11,2.11,0,0,1-.13.79,2.27,2.27,0,0,1-.37.64l-.72.75L167,35l-.31.31a1.06,1.06,0,0,0-.17.26.75.75,0,0,0-.09.31,2.37,2.37,0,0,0,0,.41v.53ZM165,38.5a.76.76,0,0,1,.23-.56.79.79,0,0,1,.56-.23.76.76,0,0,1,.55.23.77.77,0,0,1,.24.56.8.8,0,0,1-.79.79.79.79,0,0,1-.56-.23A.75.75,0,0,1,165,38.5Z"/><path class="cls-3" d="M0,10.91H7.43l7.16,27.46h.11l8.56-27.46h6.68l8.4,27.46h.11l7.48-27.46h6.9L41.73,49H35.27L26.44,20h-.11L17.5,49H11.25Z"/><path class="cls-3" d="M57.08,10.91h6.78V26.09H81.69V10.91h6.78V49H81.69V32.23H63.86V49H57.08Z"/><path class="cls-3" d="M94.93,30.13a22.21,22.21,0,0,1,1.51-8.32,18.76,18.76,0,0,1,4.18-6.38A18.32,18.32,0,0,1,107,11.36a24.89,24.89,0,0,1,16.29-.1,17.82,17.82,0,0,1,6.41,4,18.63,18.63,0,0,1,4.2,6.35,22,22,0,0,1,1.5,8.29,21.34,21.34,0,0,1-1.5,8.14,18.81,18.81,0,0,1-4.2,6.3,19.25,19.25,0,0,1-6.41,4.12A23,23,0,0,1,115.07,50a22.31,22.31,0,0,1-8.1-1.43,18.25,18.25,0,0,1-6.35-4,18.58,18.58,0,0,1-4.18-6.27A21.25,21.25,0,0,1,94.93,30.13ZM102,29.7a16.3,16.3,0,0,0,.95,5.65,13,13,0,0,0,2.66,4.47,12.23,12.23,0,0,0,4.12,3,12.9,12.9,0,0,0,5.36,1.08,13.06,13.06,0,0,0,5.38-1.08,12.15,12.15,0,0,0,4.15-3,13,13,0,0,0,2.66-4.47,16.3,16.3,0,0,0,1-5.65,14.83,14.83,0,0,0-1-5.33A13.09,13.09,0,0,0,124.66,20a12.13,12.13,0,0,0-4.15-2.9,13.38,13.38,0,0,0-5.38-1.05,13.21,13.21,0,0,0-5.36,1.05,12.21,12.21,0,0,0-4.12,2.9A13.09,13.09,0,0,0,103,24.37,14.83,14.83,0,0,0,102,29.7Z"/></svg>