<svg id="Layer_1" data-name="Layer 1" xmlns="http://www.w3.org/2000/svg" viewBox="0 0 170 56.89"><defs><style>.cls-1{fill:#404041;}.cls-2{fill:#58595b;}</style></defs><path class="cls-1" d="M0,.41H7.4V35.28H25.07V42H0Z"/><path class="cls-1" d="M28.35,4.23a4,4,0,0,1,1.27-3A4.32,4.32,0,0,1,32.81,0a4.66,4.66,0,0,1,3.26,1.2,3.93,3.93,0,0,1,1.32,3,3.91,3.91,0,0,1-1.32,3,4.66,4.66,0,0,1-3.26,1.2,4.32,4.32,0,0,1-3.19-1.26A4,4,0,0,1,28.35,4.23Zm1,9.57h7V42h-7Z"/><path class="cls-1" d="M40.09,13.8h7.69L55.3,33.52h.11L63,13.8h7.22L59.11,42H51.6Z"/><path class="cls-1" d="M79.42,30.35a7.17,7.17,0,0,0,2.47,4.93A7.74,7.74,0,0,0,87,37,8.45,8.45,0,0,0,91.43,36a12.58,12.58,0,0,0,3.14-2.73L99.62,37a14.45,14.45,0,0,1-5.52,4.35,16.3,16.3,0,0,1-6.4,1.29,17,17,0,0,1-6-1.06A14,14,0,0,1,73.58,34a15,15,0,0,1-1.2-6.08,14.91,14.91,0,0,1,1.2-6.07,14,14,0,0,1,8.13-7.66,16.82,16.82,0,0,1,6-1.06,13.57,13.57,0,0,1,5.37,1,11.39,11.39,0,0,1,4.17,3,13.83,13.83,0,0,1,2.7,4.79,20.18,20.18,0,0,1,1,6.54v1.94Zm14.44-5.28a6.62,6.62,0,0,0-1.93-4.91,7.31,7.31,0,0,0-5.23-1.79,6.88,6.88,0,0,0-5,1.82,8.2,8.2,0,0,0-2.26,4.88Z"/><path class="cls-1" d="M122.8,4.23a4,4,0,0,1,1.27-3A4.33,4.33,0,0,1,127.27,0a4.65,4.65,0,0,1,3.25,1.2,3.93,3.93,0,0,1,1.32,3,3.91,3.91,0,0,1-1.32,3,4.65,4.65,0,0,1-3.25,1.2,4.33,4.33,0,0,1-3.2-1.26A4,4,0,0,1,122.8,4.23Zm1,9.57h7V42h-7Z"/><path class="cls-1" d="M135.07,19.78v-6h5.81V5.64h7.05V13.8h7.75v6h-7.75V32.11a6.15,6.15,0,0,0,.79,3.35c.53.82,1.58,1.23,3.14,1.23a11.24,11.24,0,0,0,2.06-.21,4.26,4.26,0,0,0,1.76-.67v5.93a9.33,9.33,0,0,1-2.73.73,22.5,22.5,0,0,1-2.85.21,14.42,14.42,0,0,1-4.61-.62,6.14,6.14,0,0,1-2.82-1.88,7.13,7.13,0,0,1-1.4-3.14,21.51,21.51,0,0,1-.39-4.34V19.78Z"/><path class="cls-1" d="M160.61,37.86A4.38,4.38,0,0,1,162,34.63a4.6,4.6,0,0,1,3.31-1.35,4.72,4.72,0,0,1,3.29,1.3A4.12,4.12,0,0,1,170,37.75,4.34,4.34,0,0,1,168.62,41a4.76,4.76,0,0,1-5.11,1A5.09,5.09,0,0,1,162,41a4.15,4.15,0,0,1-1-1.41A4,4,0,0,1,160.61,37.86Z"/><path class="cls-2" d="M.07,47.31H1v7.15h-1Z"/><path class="cls-2" d="M3.83,49.67h.91v.74h0a1.28,1.28,0,0,1,.6-.62,2,2,0,0,1,1-.24,2.08,2.08,0,0,1,.66.11,1.51,1.51,0,0,1,.56.33,1.62,1.62,0,0,1,.38.57,2.23,2.23,0,0,1,.14.82v3.08H7.17V51.63a1.62,1.62,0,0,0-.09-.57,1.2,1.2,0,0,0-.25-.38.78.78,0,0,0-.35-.21,1.1,1.1,0,0,0-.41-.07,1.5,1.5,0,0,0-.52.09,1.21,1.21,0,0,0-.43.29,1.42,1.42,0,0,0-.28.5,2.2,2.2,0,0,0-.1.72v2.46H3.83Z"/><path class="cls-2" d="M13.2,50.46H11.9v2.17c0,.14,0,.27,0,.4a1,1,0,0,0,.07.36.64.64,0,0,0,.21.25.71.71,0,0,0,.4.1l.33,0a1,1,0,0,0,.31-.11v.82a1,1,0,0,1-.42.13l-.4,0a1.77,1.77,0,0,1-.81-.15,1.15,1.15,0,0,1-.43-.38,1.27,1.27,0,0,1-.16-.52c0-.19,0-.39,0-.58v-2.5H9.94v-.79H11V48.33h.91v1.34h1.3Z"/><path class="cls-2" d="M16.25,52.4a1.2,1.2,0,0,0,.13.57,1.29,1.29,0,0,0,.36.44,1.75,1.75,0,0,0,.52.29,2,2,0,0,0,.6.1,1.36,1.36,0,0,0,.74-.2,2.34,2.34,0,0,0,.58-.52l.69.52a2.76,2.76,0,0,1-3.15.79,2,2,0,0,1-.78-.53,2.11,2.11,0,0,1-.49-.8,2.64,2.64,0,0,1-.17-1,2.73,2.73,0,0,1,.18-1,2.69,2.69,0,0,1,.52-.8,2.41,2.41,0,0,1,1.77-.72,2.47,2.47,0,0,1,1.08.22,2.3,2.3,0,0,1,.72.58,2.22,2.22,0,0,1,.41.81,3.2,3.2,0,0,1,.13.92v.32Zm2.87-.73a1.92,1.92,0,0,0-.1-.55,1.22,1.22,0,0,0-.69-.74,1.57,1.57,0,0,0-.6-.1,1.54,1.54,0,0,0-.61.12,1.8,1.8,0,0,0-.47.33,1.61,1.61,0,0,0-.3.45,1.26,1.26,0,0,0-.1.49Z"/><path class="cls-2" d="M27.16,54.42a2.66,2.66,0,0,1-.18,1,2.35,2.35,0,0,1-.53.78,2.41,2.41,0,0,1-.83.51,3.08,3.08,0,0,1-1.07.18,3.87,3.87,0,0,1-1.26-.19A3,3,0,0,1,22.2,56l.62-.77a2.34,2.34,0,0,0,.77.58,2,2,0,0,0,.94.2,2.3,2.3,0,0,0,.84-.14,1.64,1.64,0,0,0,.53-.38,1.38,1.38,0,0,0,.27-.54,2,2,0,0,0,.09-.6v-.7h0a1.57,1.57,0,0,1-.71.64,2.18,2.18,0,0,1-.94.2,2.63,2.63,0,0,1-1-.18,2.33,2.33,0,0,1-.77-.52,2.29,2.29,0,0,1-.51-.78,2.58,2.58,0,0,1-.18-1,2.94,2.94,0,0,1,.17-1,2.61,2.61,0,0,1,.49-.8,2.23,2.23,0,0,1,.77-.54,2.53,2.53,0,0,1,1-.19,2.25,2.25,0,0,1,.94.21,1.64,1.64,0,0,1,.72.6h0v-.69h.9Zm-2.48-4a1.56,1.56,0,0,0-.66.13,1.34,1.34,0,0,0-.49.34,1.57,1.57,0,0,0-.32.53,2,2,0,0,0-.11.67,1.61,1.61,0,0,0,.43,1.17,1.52,1.52,0,0,0,1.15.44,1.54,1.54,0,0,0,1.15-.44,1.65,1.65,0,0,0,.43-1.17,1.81,1.81,0,0,0-.12-.67,1.55,1.55,0,0,0-.31-.53,1.39,1.39,0,0,0-.5-.34A1.51,1.51,0,0,0,24.68,50.4Z"/><path class="cls-2" d="M29.72,49.67h.91v.74h0a1.19,1.19,0,0,1,.25-.35,2.16,2.16,0,0,1,.33-.27,2.09,2.09,0,0,1,.41-.17,1.41,1.41,0,0,1,.45-.07,1.25,1.25,0,0,1,.4.06l0,1-.22-.05-.22,0a1.32,1.32,0,0,0-1,.38,1.6,1.6,0,0,0-.36,1.16v2.4h-.91Z"/><path class="cls-2" d="M34.67,50.26a2.43,2.43,0,0,1,.89-.53,3,3,0,0,1,1-.18,2.67,2.67,0,0,1,.9.13,1.69,1.69,0,0,1,.62.36,1.14,1.14,0,0,1,.36.51,1.53,1.53,0,0,1,.12.6V53.6c0,.16,0,.32,0,.46s0,.28,0,.4H37.8q0-.36,0-.72h0a1.64,1.64,0,0,1-.72.65,2.34,2.34,0,0,1-1.59.11,1.84,1.84,0,0,1-.54-.28,1.19,1.19,0,0,1-.35-.45,1.35,1.35,0,0,1-.14-.62,1.38,1.38,0,0,1,.21-.78,1.57,1.57,0,0,1,.57-.51,2.86,2.86,0,0,1,.84-.28,5.53,5.53,0,0,1,1-.09h.67v-.2a.92.92,0,0,0-.07-.36.93.93,0,0,0-.21-.33,1.13,1.13,0,0,0-.36-.24,1.5,1.5,0,0,0-.5-.08,2,2,0,0,0-.46,0,1.4,1.4,0,0,0-.36.13,1.58,1.58,0,0,0-.29.17l-.26.19Zm2.57,1.9-.67,0a2.73,2.73,0,0,0-.61.14,1.23,1.23,0,0,0-.46.28.66.66,0,0,0-.18.47.68.68,0,0,0,.28.6,1.4,1.4,0,0,0,.76.18,1.36,1.36,0,0,0,.63-.13,1.1,1.1,0,0,0,.43-.33,1.37,1.37,0,0,0,.23-.45,1.66,1.66,0,0,0,.07-.49v-.3Z"/><path class="cls-2" d="M43.64,50.46h-1.3v2.17c0,.14,0,.27,0,.4a1,1,0,0,0,.08.36.55.55,0,0,0,.2.25.71.71,0,0,0,.4.1l.33,0a1,1,0,0,0,.31-.11v.82a1,1,0,0,1-.41.13l-.4,0a1.82,1.82,0,0,1-.82-.15,1,1,0,0,1-.42-.38,1.13,1.13,0,0,1-.16-.52,5.63,5.63,0,0,1,0-.58v-2.5h-1v-.79h1V48.33h.91v1.34h1.3Z"/><path class="cls-2" d="M46.69,52.4a1.2,1.2,0,0,0,.13.57,1.42,1.42,0,0,0,.36.44,1.75,1.75,0,0,0,.52.29,2,2,0,0,0,.6.1,1.36,1.36,0,0,0,.74-.2,2.34,2.34,0,0,0,.58-.52l.69.52a2.54,2.54,0,0,1-2.13,1,2.58,2.58,0,0,1-1-.2,2,2,0,0,1-.78-.53,2.24,2.24,0,0,1-.49-.8,2.64,2.64,0,0,1-.17-1,2.73,2.73,0,0,1,.18-1,2.69,2.69,0,0,1,.52-.8,2.5,2.5,0,0,1,.78-.53,2.53,2.53,0,0,1,1-.19,2.47,2.47,0,0,1,1.08.22,2.3,2.3,0,0,1,.72.58,2.22,2.22,0,0,1,.41.81,3.2,3.2,0,0,1,.13.92v.32Zm2.87-.73a1.92,1.92,0,0,0-.1-.55,1,1,0,0,0-.26-.44,1.19,1.19,0,0,0-.42-.3,1.66,1.66,0,0,0-.61-.1,1.54,1.54,0,0,0-.61.12,1.8,1.8,0,0,0-.47.33,1.61,1.61,0,0,0-.3.45,1.26,1.26,0,0,0-.1.49Z"/><path class="cls-2" d="M57.61,54.46H56.7v-.68h0a1.79,1.79,0,0,1-.73.59,2.09,2.09,0,0,1-.94.22,2.53,2.53,0,0,1-1-.2,2.17,2.17,0,0,1-.77-.53,2.61,2.61,0,0,1-.49-.8,2.86,2.86,0,0,1-.17-1,3,3,0,0,1,.17-1,2.61,2.61,0,0,1,.49-.8,2.46,2.46,0,0,1,.77-.53,2.53,2.53,0,0,1,1-.19,2.15,2.15,0,0,1,1,.22,1.69,1.69,0,0,1,.7.59h0V46.82h.91Zm-2.49-.72a1.76,1.76,0,0,0,.66-.13,1.44,1.44,0,0,0,.49-.34,1.57,1.57,0,0,0,.32-.53,2.1,2.1,0,0,0,0-1.34,1.57,1.57,0,0,0-.32-.53,1.44,1.44,0,0,0-.49-.34,1.74,1.74,0,0,0-1.32,0,1.44,1.44,0,0,0-.49.34,1.57,1.57,0,0,0-.32.53,2.1,2.1,0,0,0,0,1.34,1.57,1.57,0,0,0,.32.53,1.44,1.44,0,0,0,.49.34A1.76,1.76,0,0,0,55.12,53.74Z"/><path class="cls-2" d="M64.39,47.31h2.49a2.94,2.94,0,0,1,.86.11,1.85,1.85,0,0,1,.69.33,1.52,1.52,0,0,1,.45.55,1.69,1.69,0,0,1,.17.8,1.44,1.44,0,0,1-.34,1,2,2,0,0,1-.89.57v0a1.54,1.54,0,0,1,.6.17,1.89,1.89,0,0,1,.5.38,2,2,0,0,1,.32.56,1.88,1.88,0,0,1-.07,1.53,1.88,1.88,0,0,1-.54.62,2.37,2.37,0,0,1-.8.38,3.46,3.46,0,0,1-1,.13H64.39Zm1,3h1.33a2.1,2.1,0,0,0,.51-.06,1.27,1.27,0,0,0,.43-.18,1,1,0,0,0,.39-.83,1.09,1.09,0,0,0-.27-.74,1.08,1.08,0,0,0-.86-.31H65.36Zm0,3.34h1.43a3,3,0,0,0,.49,0,1.5,1.5,0,0,0,.5-.18,1.37,1.37,0,0,0,.39-.37,1.06,1.06,0,0,0,.16-.62,1.11,1.11,0,0,0-.41-.95,1.75,1.75,0,0,0-1.12-.32H65.36Z"/><path class="cls-2" d="M71.71,49.67h.91v.74h0a1.36,1.36,0,0,1,.24-.35,2.24,2.24,0,0,1,.34-.27,1.86,1.86,0,0,1,.41-.17,1.41,1.41,0,0,1,.45-.07,1.29,1.29,0,0,1,.4.06l0,1-.22-.05-.22,0a1.36,1.36,0,0,0-1,.38,1.64,1.64,0,0,0-.35,1.16v2.4h-.91Z"/><path class="cls-2" d="M76.65,50.26a2.6,2.6,0,0,1,.89-.53,3,3,0,0,1,1-.18,2.71,2.71,0,0,1,.9.13,1.78,1.78,0,0,1,.62.36,1.32,1.32,0,0,1,.36.51,1.53,1.53,0,0,1,.12.6V53.6c0,.16,0,.32,0,.46a2.5,2.5,0,0,0,0,.4h-.81q0-.36,0-.72h0a1.64,1.64,0,0,1-.72.65,2.37,2.37,0,0,1-1.6.11,1.78,1.78,0,0,1-.53-.28,1.33,1.33,0,0,1-.36-.45,1.35,1.35,0,0,1-.13-.62,1.38,1.38,0,0,1,.21-.78,1.62,1.62,0,0,1,.56-.51,2.86,2.86,0,0,1,.84-.28,5.64,5.64,0,0,1,1-.09h.67v-.2a1.15,1.15,0,0,0-.07-.36.83.83,0,0,0-.22-.33,1,1,0,0,0-.35-.24,1.52,1.52,0,0,0-.51-.08,2,2,0,0,0-.45,0,1.17,1.17,0,0,0-.36.13,2.14,2.14,0,0,0-.3.17l-.25.19Zm2.57,1.9-.66,0a2.82,2.82,0,0,0-.62.14,1.28,1.28,0,0,0-.45.28.75.75,0,0,0,.1,1.07,1.36,1.36,0,0,0,.75.18,1.41,1.41,0,0,0,.64-.13,1.07,1.07,0,0,0,.42-.33,1.22,1.22,0,0,0,.24-.45,2.07,2.07,0,0,0,.07-.49v-.3Z"/><path class="cls-2" d="M83.06,49.67H84v.74h0a1.38,1.38,0,0,1,.6-.62,2,2,0,0,1,1-.24,2.08,2.08,0,0,1,.66.11,1.44,1.44,0,0,1,.56.33,1.5,1.5,0,0,1,.38.57,2.23,2.23,0,0,1,.14.82v3.08H86.4V51.63a1.62,1.62,0,0,0-.09-.57,1,1,0,0,0-.24-.38.84.84,0,0,0-.35-.21,1.14,1.14,0,0,0-.41-.07,1.51,1.51,0,0,0-.53.09,1.1,1.1,0,0,0-.42.29,1.43,1.43,0,0,0-.29.5A2.5,2.5,0,0,0,84,52v2.46h-.91Z"/><path class="cls-2" d="M94.67,54.46h-.91v-.68h0a1.75,1.75,0,0,1-.72.59,2.13,2.13,0,0,1-1,.22,2.48,2.48,0,0,1-1-.2,2.08,2.08,0,0,1-.77-.53,2.43,2.43,0,0,1-.49-.8,2.64,2.64,0,0,1-.17-1,2.73,2.73,0,0,1,.17-1,2.43,2.43,0,0,1,.49-.8,2.35,2.35,0,0,1,.77-.53,2.48,2.48,0,0,1,1-.19,2.13,2.13,0,0,1,1,.22,1.58,1.58,0,0,1,.7.59h0V46.82h.91Zm-2.49-.72a1.69,1.69,0,0,0,.66-.13,1.48,1.48,0,0,0,.5-.34,1.55,1.55,0,0,0,.31-.53,2.1,2.1,0,0,0,0-1.34,1.55,1.55,0,0,0-.31-.53,1.48,1.48,0,0,0-.5-.34,1.53,1.53,0,0,0-.66-.13,1.51,1.51,0,0,0-.65.13,1.48,1.48,0,0,0-.5.34,1.55,1.55,0,0,0-.31.53,2.1,2.1,0,0,0,0,1.34,1.55,1.55,0,0,0,.31.53,1.48,1.48,0,0,0,.5.34A1.67,1.67,0,0,0,92.18,53.74Z"/><path class="cls-2" d="M101.45,47.31h4.63v.91h-3.65v2.13h3.39v.91h-3.39v2.29h3.83v.91h-4.81Z"/><path class="cls-2" d="M109.9,51.91l-1.7-2.24h1.17l1.16,1.7,1.15-1.7h1.1l-1.64,2.24,1.94,2.55h-1.17l-1.42-2-1.41,2H108Z"/><path class="cls-2" d="M115.7,52.4a1.1,1.1,0,0,0,.14.57,1.39,1.39,0,0,0,.35.44,1.75,1.75,0,0,0,.52.29,2.11,2.11,0,0,0,.61.1,1.39,1.39,0,0,0,.74-.2,2.3,2.3,0,0,0,.57-.52l.69.52a2.52,2.52,0,0,1-2.12,1,2.63,2.63,0,0,1-1-.2,2,2,0,0,1-.78-.53,2.39,2.39,0,0,1-.49-.8,2.86,2.86,0,0,1-.17-1,2.54,2.54,0,0,1,.19-1,2.48,2.48,0,0,1,.51-.8,2.61,2.61,0,0,1,2.85-.5,2.23,2.23,0,0,1,.73.58,2.58,2.58,0,0,1,.41.81,3.57,3.57,0,0,1,.12.92v.32Zm2.87-.73a1.92,1.92,0,0,0-.1-.55,1.12,1.12,0,0,0-.25-.44,1.33,1.33,0,0,0-.43-.3,1.61,1.61,0,0,0-.6-.1,1.56,1.56,0,0,0-.62.12,1.45,1.45,0,0,0-.76.78,1.28,1.28,0,0,0-.11.49Z"/><path class="cls-2" d="M125.24,51a1.65,1.65,0,0,0-.53-.4,1.6,1.6,0,0,0-1.31,0,1.31,1.31,0,0,0-.47.37,1.9,1.9,0,0,0-.28.55,2.25,2.25,0,0,0-.09.64,1.67,1.67,0,0,0,.11.63,1.44,1.44,0,0,0,.31.52,1.33,1.33,0,0,0,.49.35,1.57,1.57,0,0,0,.63.13,1.46,1.46,0,0,0,.66-.14,1.55,1.55,0,0,0,.5-.4l.65.65a2,2,0,0,1-.82.56,2.81,2.81,0,0,1-1,.18,2.71,2.71,0,0,1-1-.19,2.29,2.29,0,0,1-.8-.51,2.24,2.24,0,0,1-.51-.79,2.53,2.53,0,0,1-.19-1,2.61,2.61,0,0,1,.19-1,2.27,2.27,0,0,1,1.3-1.32,2.54,2.54,0,0,1,1-.19,2.67,2.67,0,0,1,1,.19,2.06,2.06,0,0,1,.83.57Z"/><path class="cls-2" d="M132.12,54.46h-.91v-.73h0a1.37,1.37,0,0,1-.6.62,2,2,0,0,1-1,.24,2.14,2.14,0,0,1-.67-.11,1.55,1.55,0,0,1-.55-.33,1.67,1.67,0,0,1-.38-.57,2.27,2.27,0,0,1-.14-.82V49.67h.91V52.5a1.55,1.55,0,0,0,.09.57,1.09,1.09,0,0,0,.25.39.78.78,0,0,0,.35.21,1.35,1.35,0,0,0,.41.07,1.5,1.5,0,0,0,.52-.09,1.36,1.36,0,0,0,.43-.29,1.42,1.42,0,0,0,.28-.5,2.24,2.24,0,0,0,.1-.72V49.67h.91Z"/><path class="cls-2" d="M137.25,50.46h-1.31v2.17c0,.14,0,.27,0,.4a1,1,0,0,0,.08.36.55.55,0,0,0,.2.25.71.71,0,0,0,.4.1l.33,0a1.1,1.1,0,0,0,.32-.11v.82a1.16,1.16,0,0,1-.42.13l-.4,0a1.82,1.82,0,0,1-.82-.15,1,1,0,0,1-.42-.38,1.13,1.13,0,0,1-.16-.52,5.63,5.63,0,0,1,0-.58v-2.5H134v-.79H135V48.33h.91v1.34h1.31Z"/><path class="cls-2" d="M139.46,48a.61.61,0,0,1,.2-.47.63.63,0,0,1,.47-.19.66.66,0,0,1,.47.19.64.64,0,0,1,.19.47.63.63,0,0,1-.19.47.67.67,0,0,1-.47.2.63.63,0,0,1-.47-.2A.6.6,0,0,1,139.46,48Zm.21,1.72h.91v4.79h-.91Z"/><path class="cls-2" d="M143,52.07a2.45,2.45,0,0,1,.19-1,2.65,2.65,0,0,1,.55-.8,2.36,2.36,0,0,1,.8-.54,2.63,2.63,0,0,1,2,0,2.5,2.5,0,0,1,.81.54,2.82,2.82,0,0,1,.54.8,2.62,2.62,0,0,1,0,2,2.68,2.68,0,0,1-.54.8,2.5,2.5,0,0,1-.81.54,2.63,2.63,0,0,1-2,0,2.36,2.36,0,0,1-.8-.54,2.53,2.53,0,0,1-.55-.8A2.45,2.45,0,0,1,143,52.07Zm1,0a1.81,1.81,0,0,0,.11.67,1.55,1.55,0,0,0,.31.53,1.48,1.48,0,0,0,.5.34,1.72,1.72,0,0,0,1.31,0,1.48,1.48,0,0,0,.5-.34,1.55,1.55,0,0,0,.31-.53,2.1,2.1,0,0,0,0-1.34,1.55,1.55,0,0,0-.31-.53,1.48,1.48,0,0,0-.5-.34,1.51,1.51,0,0,0-.65-.13,1.53,1.53,0,0,0-.66.13,1.48,1.48,0,0,0-.5.34,1.55,1.55,0,0,0-.31.53A1.81,1.81,0,0,0,144,52.07Z"/><path class="cls-2" d="M150.4,49.67h.91v.74h0a1.31,1.31,0,0,1,.59-.62,2,2,0,0,1,1-.24,2.17,2.17,0,0,1,.66.11,1.47,1.47,0,0,1,.55.33,1.39,1.39,0,0,1,.38.57,2,2,0,0,1,.14.82v3.08h-.91V51.63a1.62,1.62,0,0,0-.09-.57,1,1,0,0,0-.24-.38.84.84,0,0,0-.35-.21,1.14,1.14,0,0,0-.41-.07,1.46,1.46,0,0,0-.52.09,1.06,1.06,0,0,0-.43.29,1.42,1.42,0,0,0-.28.5,2.2,2.2,0,0,0-.1.72v2.46h-.91Z"/></svg>