<svg id="Layer_1" data-name="Layer 1" xmlns="http://www.w3.org/2000/svg" viewBox="0 0 170 57.68"><defs><style>.cls-1{fill:#f38020;}.cls-2{fill:#58595b;}</style></defs><path class="cls-1" d="M0,.41H7.4V35.28H25.07V42H0Z"/><path class="cls-1" d="M28.35,4.23a4,4,0,0,1,1.27-3A4.32,4.32,0,0,1,32.81,0a4.66,4.66,0,0,1,3.26,1.2,3.93,3.93,0,0,1,1.32,3,3.91,3.91,0,0,1-1.32,3,4.66,4.66,0,0,1-3.26,1.2,4.32,4.32,0,0,1-3.19-1.26A4,4,0,0,1,28.35,4.23Zm1,9.57h7V42h-7Z"/><path class="cls-1" d="M40.09,13.8h7.69L55.3,33.52h.11L63,13.8h7.22L59.11,42H51.6Z"/><path class="cls-1" d="M79.42,30.35a7.17,7.17,0,0,0,2.47,4.93A7.74,7.74,0,0,0,87,37,8.45,8.45,0,0,0,91.43,36a12.58,12.58,0,0,0,3.14-2.73L99.62,37a14.45,14.45,0,0,1-5.52,4.35,16.3,16.3,0,0,1-6.4,1.29,17,17,0,0,1-6-1.06A14,14,0,0,1,73.58,34a15,15,0,0,1-1.2-6.08,14.91,14.91,0,0,1,1.2-6.07,14,14,0,0,1,8.13-7.66,16.82,16.82,0,0,1,6-1.06,13.57,13.57,0,0,1,5.37,1,11.39,11.39,0,0,1,4.17,3,13.83,13.83,0,0,1,2.7,4.79,20.18,20.18,0,0,1,1,6.54v1.94Zm14.44-5.28a6.62,6.62,0,0,0-1.93-4.91,7.31,7.31,0,0,0-5.23-1.79,6.88,6.88,0,0,0-5,1.82,8.2,8.2,0,0,0-2.26,4.88Z"/><path class="cls-1" d="M122.8,4.23a4,4,0,0,1,1.27-3A4.33,4.33,0,0,1,127.27,0a4.65,4.65,0,0,1,3.25,1.2,3.93,3.93,0,0,1,1.32,3,3.91,3.91,0,0,1-1.32,3,4.65,4.65,0,0,1-3.25,1.2,4.33,4.33,0,0,1-3.2-1.26A4,4,0,0,1,122.8,4.23Zm1,9.57h7V42h-7Z"/><path class="cls-1" d="M135.07,19.78v-6h5.81V5.64h7.05V13.8h7.75v6h-7.75V32.11a6.15,6.15,0,0,0,.79,3.35c.53.82,1.58,1.23,3.14,1.23a11.24,11.24,0,0,0,2.06-.21,4.26,4.26,0,0,0,1.76-.67v5.93a9.33,9.33,0,0,1-2.73.73,22.5,22.5,0,0,1-2.85.21,14.42,14.42,0,0,1-4.61-.62,6.14,6.14,0,0,1-2.82-1.88,7.13,7.13,0,0,1-1.4-3.14,21.51,21.51,0,0,1-.39-4.34V19.78Z"/><path class="cls-1" d="M160.61,37.86A4.38,4.38,0,0,1,162,34.63a4.6,4.6,0,0,1,3.31-1.35,4.72,4.72,0,0,1,3.29,1.3A4.12,4.12,0,0,1,170,37.75,4.34,4.34,0,0,1,168.62,41a4.76,4.76,0,0,1-5.11,1A5.09,5.09,0,0,1,162,41a4.15,4.15,0,0,1-1-1.41A4,4,0,0,1,160.61,37.86Z"/><path class="cls-2" d="M.07,48.09H1v7.16h-1Z"/><path class="cls-2" d="M3.83,50.46h.91v.74h0a1.3,1.3,0,0,1,.6-.63A2.21,2.21,0,0,1,7,50.44a1.51,1.51,0,0,1,.56.33,1.83,1.83,0,0,1,.38.57,2.33,2.33,0,0,1,.14.83v3.08H7.17V52.42a1.62,1.62,0,0,0-.09-.57,1.25,1.25,0,0,0-.25-.39,1,1,0,0,0-.35-.21,1.35,1.35,0,0,0-.41-.06,1.5,1.5,0,0,0-.52.09,1.09,1.09,0,0,0-.43.29,1.33,1.33,0,0,0-.28.5,2.17,2.17,0,0,0-.1.71v2.47H3.83Z"/><path class="cls-2" d="M13.2,51.25H11.9v2.17c0,.14,0,.27,0,.4a1,1,0,0,0,.07.35.67.67,0,0,0,.21.26.72.72,0,0,0,.4.09l.33,0a.82.82,0,0,0,.31-.11v.83a1.23,1.23,0,0,1-.42.13l-.4,0a1.93,1.93,0,0,1-.81-.14,1.15,1.15,0,0,1-.43-.38,1.32,1.32,0,0,1-.16-.52c0-.2,0-.39,0-.59V51.25H9.94v-.79H11V49.11h.91v1.35h1.3Z"/><path class="cls-2" d="M16.25,53.19a1.2,1.2,0,0,0,.13.57,1.39,1.39,0,0,0,.36.44,1.53,1.53,0,0,0,.52.28,1.72,1.72,0,0,0,.6.1,1.36,1.36,0,0,0,.74-.19,2.82,2.82,0,0,0,.58-.52l.69.52a2.53,2.53,0,0,1-2.13,1,2.54,2.54,0,0,1-1-.19,2.16,2.16,0,0,1-.78-.53,2.19,2.19,0,0,1-.49-.8,2.92,2.92,0,0,1,0-2,2.57,2.57,0,0,1,.52-.8,2.35,2.35,0,0,1,.78-.53,2.5,2.5,0,0,1,1-.19,2.34,2.34,0,0,1,1.08.22,2.17,2.17,0,0,1,.72.58A2.22,2.22,0,0,1,20,52a3.2,3.2,0,0,1,.13.92v.32Zm2.87-.73a2,2,0,0,0-.1-.56,1.31,1.31,0,0,0-.26-.44,1.13,1.13,0,0,0-.43-.29,1.57,1.57,0,0,0-.6-.1,1.54,1.54,0,0,0-.61.12,1.8,1.8,0,0,0-.47.33,1.61,1.61,0,0,0-.3.45,1.26,1.26,0,0,0-.1.49Z"/><path class="cls-2" d="M27.16,55.21a2.7,2.7,0,0,1-.18,1,2.21,2.21,0,0,1-.53.77,2.6,2.6,0,0,1-.83.52,3.08,3.08,0,0,1-1.07.18,4.16,4.16,0,0,1-1.26-.19,3,3,0,0,1-1.09-.67l.62-.77a2.34,2.34,0,0,0,.77.58,2.16,2.16,0,0,0,.94.2,2.1,2.1,0,0,0,.84-.15,1.5,1.5,0,0,0,.53-.38,1.27,1.27,0,0,0,.27-.53,2.08,2.08,0,0,0,.09-.6v-.71h0a1.52,1.52,0,0,1-.71.64,2.19,2.19,0,0,1-.94.21,2.45,2.45,0,0,1-1-.19,2.16,2.16,0,0,1-.77-.51,2.29,2.29,0,0,1-.51-.78,2.59,2.59,0,0,1-.18-1,2.88,2.88,0,0,1,.17-1,2.39,2.39,0,0,1,.49-.8,2.23,2.23,0,0,1,.77-.54,2.53,2.53,0,0,1,1-.19,2.25,2.25,0,0,1,.94.21,1.64,1.64,0,0,1,.72.6h0v-.69h.9Zm-2.48-4a1.73,1.73,0,0,0-.66.12,1.37,1.37,0,0,0-.49.35,1.52,1.52,0,0,0-.32.52,2.09,2.09,0,0,0-.11.67A1.58,1.58,0,0,0,23.53,54a1.72,1.72,0,0,0,2.3,0,1.62,1.62,0,0,0,.43-1.17,1.85,1.85,0,0,0-.12-.67,1.5,1.5,0,0,0-.31-.52,1.41,1.41,0,0,0-.5-.35A1.67,1.67,0,0,0,24.68,51.19Z"/><path class="cls-2" d="M29.72,50.46h.91v.74h0a1.07,1.07,0,0,1,.25-.35,1.4,1.4,0,0,1,.33-.27,3,3,0,0,1,.41-.18,1.74,1.74,0,0,1,.45-.06,1.25,1.25,0,0,1,.4.06l0,1-.22-.05a.82.82,0,0,0-.22,0,1.32,1.32,0,0,0-1,.37,1.64,1.64,0,0,0-.36,1.17v2.4h-.91Z"/><path class="cls-2" d="M34.67,51.05a2.45,2.45,0,0,1,.89-.54,3.2,3.2,0,0,1,1-.17,2.67,2.67,0,0,1,.9.13,1.68,1.68,0,0,1,.62.35,1.26,1.26,0,0,1,.36.51,1.57,1.57,0,0,1,.12.6v2.45c0,.17,0,.32,0,.47l0,.4H37.8c0-.24,0-.48,0-.73h0a1.73,1.73,0,0,1-.72.66,2.41,2.41,0,0,1-1.59.1A1.61,1.61,0,0,1,34.9,55a1.19,1.19,0,0,1-.35-.45,1.5,1.5,0,0,1,.07-1.4,1.57,1.57,0,0,1,.57-.51,2.86,2.86,0,0,1,.84-.29,6.59,6.59,0,0,1,1-.08h.67v-.2a.94.94,0,0,0-.07-.37,1.15,1.15,0,0,0-.21-.33,1.31,1.31,0,0,0-.36-.23,1.28,1.28,0,0,0-.5-.08,1.58,1.58,0,0,0-.46,0,1.9,1.9,0,0,0-.36.12,1.19,1.19,0,0,0-.29.18l-.26.19ZM37.24,53l-.67,0a2.73,2.73,0,0,0-.61.14,1.23,1.23,0,0,0-.46.28.64.64,0,0,0-.18.47.67.67,0,0,0,.28.59,1.4,1.4,0,0,0,.76.18,1.51,1.51,0,0,0,.63-.12,1.33,1.33,0,0,0,.43-.33,1.47,1.47,0,0,0,.23-.45,1.71,1.71,0,0,0,.07-.49V53Z"/><path class="cls-2" d="M43.64,51.25h-1.3v2.17c0,.14,0,.27,0,.4a1,1,0,0,0,.08.35.57.57,0,0,0,.2.26.72.72,0,0,0,.4.09l.33,0a.76.76,0,0,0,.31-.11v.83a1.24,1.24,0,0,1-.41.13l-.4,0a2,2,0,0,1-.82-.14,1,1,0,0,1-.42-.38,1.17,1.17,0,0,1-.16-.52,5.83,5.83,0,0,1,0-.59V51.25h-1v-.79h1V49.11h.91v1.35h1.3Z"/><path class="cls-2" d="M46.69,53.19a1.2,1.2,0,0,0,.13.57,1.49,1.49,0,0,0,.88.72,1.76,1.76,0,0,0,.6.1,1.36,1.36,0,0,0,.74-.19,2.82,2.82,0,0,0,.58-.52l.69.52a2.53,2.53,0,0,1-2.13,1,2.58,2.58,0,0,1-1-.19,2.16,2.16,0,0,1-.78-.53,2.33,2.33,0,0,1-.49-.8,2.92,2.92,0,0,1,0-2,2.57,2.57,0,0,1,.52-.8,2.35,2.35,0,0,1,.78-.53,2.53,2.53,0,0,1,1-.19,2.34,2.34,0,0,1,1.08.22,2.17,2.17,0,0,1,.72.58,2.22,2.22,0,0,1,.41.81,3.2,3.2,0,0,1,.13.92v.32Zm2.87-.73a2,2,0,0,0-.1-.56,1.19,1.19,0,0,0-.68-.73,1.66,1.66,0,0,0-.61-.1,1.54,1.54,0,0,0-.61.12,1.8,1.8,0,0,0-.47.33,1.61,1.61,0,0,0-.3.45,1.26,1.26,0,0,0-.1.49Z"/><path class="cls-2" d="M57.61,55.25H56.7v-.69h0a1.73,1.73,0,0,1-.73.6,2.22,2.22,0,0,1-.94.21,2.53,2.53,0,0,1-1-.19,2.33,2.33,0,0,1-.77-.54,2.45,2.45,0,0,1-.49-.79,3,3,0,0,1,0-2,2.5,2.5,0,0,1,.49-.8,2.3,2.3,0,0,1,.77-.53,2.53,2.53,0,0,1,1-.19,2.29,2.29,0,0,1,1,.21,1.79,1.79,0,0,1,.7.6h0V47.61h.91Zm-2.49-.73a1.76,1.76,0,0,0,.66-.12,1.46,1.46,0,0,0,.49-.35,1.52,1.52,0,0,0,.32-.52,2.13,2.13,0,0,0,0-1.35,1.52,1.52,0,0,0-.32-.52,1.46,1.46,0,0,0-.49-.35,1.88,1.88,0,0,0-1.32,0,1.46,1.46,0,0,0-.49.35,1.52,1.52,0,0,0-.32.52,2.13,2.13,0,0,0,0,1.35,1.52,1.52,0,0,0,.32.52,1.46,1.46,0,0,0,.49.35A1.76,1.76,0,0,0,55.12,54.52Z"/><path class="cls-2" d="M64.39,48.09h2.49a3.32,3.32,0,0,1,.86.11,2.21,2.21,0,0,1,.69.33,1.55,1.55,0,0,1,.45.56,1.64,1.64,0,0,1,.17.79,1.47,1.47,0,0,1-.34,1,2,2,0,0,1-.89.57v0a1.39,1.39,0,0,1,.6.17,1.55,1.55,0,0,1,.5.38,2,2,0,0,1,.32.55,1.91,1.91,0,0,1,.13.68,1.78,1.78,0,0,1-.2.85,1.82,1.82,0,0,1-.54.63,2.82,2.82,0,0,1-.8.38,3.46,3.46,0,0,1-1,.13H64.39Zm1,3h1.33A2.1,2.1,0,0,0,67.2,51a1.28,1.28,0,0,0,.43-.19,1,1,0,0,0,.28-.33A1,1,0,0,0,68,50a1.06,1.06,0,0,0-.27-.73,1.08,1.08,0,0,0-.86-.32H65.36Zm0,3.33h1.43a2.93,2.93,0,0,0,.49,0,1.33,1.33,0,0,0,.5-.19,1.24,1.24,0,0,0,.39-.37,1,1,0,0,0,.16-.61,1.13,1.13,0,0,0-.41-1,1.82,1.82,0,0,0-1.12-.32H65.36Z"/><path class="cls-2" d="M71.71,50.46h.91v.74h0a1.21,1.21,0,0,1,.24-.35,1.44,1.44,0,0,1,.34-.27,2.54,2.54,0,0,1,.41-.18,1.74,1.74,0,0,1,.45-.06,1.29,1.29,0,0,1,.4.06l0,1-.22-.05a.86.86,0,0,0-.22,0,1.35,1.35,0,0,0-1,.37,1.69,1.69,0,0,0-.35,1.17v2.4h-.91Z"/><path class="cls-2" d="M76.65,51.05a2.63,2.63,0,0,1,.89-.54,3.3,3.3,0,0,1,1-.17,2.71,2.71,0,0,1,.9.13,1.76,1.76,0,0,1,.62.35,1.49,1.49,0,0,1,.36.51,1.57,1.57,0,0,1,.12.6v2.45c0,.17,0,.32,0,.47a2.6,2.6,0,0,0,0,.4h-.81c0-.24,0-.48,0-.73h0a1.73,1.73,0,0,1-.72.66,2.44,2.44,0,0,1-1.6.1,1.56,1.56,0,0,1-.53-.27,1.33,1.33,0,0,1-.36-.45,1.55,1.55,0,0,1,.08-1.4,1.62,1.62,0,0,1,.56-.51,2.86,2.86,0,0,1,.84-.29,6.72,6.72,0,0,1,1-.08h.67v-.2a1.16,1.16,0,0,0-.07-.37,1,1,0,0,0-.22-.33,1.12,1.12,0,0,0-.35-.23,1.3,1.3,0,0,0-.51-.08,1.55,1.55,0,0,0-.45,0,1.52,1.52,0,0,0-.36.12,1.49,1.49,0,0,0-.3.18l-.25.19ZM79.22,53l-.66,0a2.82,2.82,0,0,0-.62.14,1.28,1.28,0,0,0-.45.28.74.74,0,0,0,.1,1.06,1.36,1.36,0,0,0,.75.18,1.56,1.56,0,0,0,.64-.12,1.28,1.28,0,0,0,.42-.33,1.31,1.31,0,0,0,.24-.45,2.14,2.14,0,0,0,.07-.49V53Z"/><path class="cls-2" d="M83.06,50.46H84v.74h0a1.4,1.4,0,0,1,.6-.63,2.21,2.21,0,0,1,1.64-.13,1.44,1.44,0,0,1,.56.33,1.67,1.67,0,0,1,.38.57,2.33,2.33,0,0,1,.14.83v3.08H86.4V52.42a1.62,1.62,0,0,0-.09-.57,1.08,1.08,0,0,0-.24-.39,1.13,1.13,0,0,0-.35-.21,1.4,1.4,0,0,0-.41-.06,1.51,1.51,0,0,0-.53.09,1,1,0,0,0-.42.29,1.35,1.35,0,0,0-.29.5,2.48,2.48,0,0,0-.1.71v2.47h-.91Z"/><path class="cls-2" d="M94.67,55.25h-.91v-.69h0a1.7,1.7,0,0,1-.72.6,2.26,2.26,0,0,1-1,.21,2.48,2.48,0,0,1-1-.19,2.23,2.23,0,0,1-.77-.54,2.29,2.29,0,0,1-.49-.79,3,3,0,0,1,0-2,2.33,2.33,0,0,1,.49-.8,2.21,2.21,0,0,1,.77-.53,2.48,2.48,0,0,1,1-.19,2.25,2.25,0,0,1,1,.21,1.66,1.66,0,0,1,.7.6h0V47.61h.91Zm-2.49-.73a1.69,1.69,0,0,0,.66-.12,1.45,1.45,0,0,0,.81-.87,2.13,2.13,0,0,0,0-1.35,1.45,1.45,0,0,0-.81-.87,1.85,1.85,0,0,0-1.31,0,1.45,1.45,0,0,0-.81.87,1.85,1.85,0,0,0-.11.67,1.87,1.87,0,0,0,.11.68,1.45,1.45,0,0,0,.81.87A1.67,1.67,0,0,0,92.18,54.52Z"/><path class="cls-2" d="M101.45,48.09h4.63V49h-3.65v2.14h3.39v.91h-3.39v2.29h3.83v.91h-4.81Z"/><path class="cls-2" d="M109.9,52.69l-1.7-2.23h1.17l1.16,1.7,1.15-1.7h1.1l-1.64,2.23,1.94,2.56h-1.17l-1.42-2-1.41,2H108Z"/><path class="cls-2" d="M115.7,53.19a1.1,1.1,0,0,0,.14.57,1.51,1.51,0,0,0,.35.44,1.53,1.53,0,0,0,.52.28,1.81,1.81,0,0,0,.61.1,1.38,1.38,0,0,0,.74-.19,2.77,2.77,0,0,0,.57-.52l.69.52a2.51,2.51,0,0,1-2.12,1,2.63,2.63,0,0,1-1-.19,2.16,2.16,0,0,1-.78-.53,2.5,2.5,0,0,1-.49-.8,3,3,0,0,1-.17-1,2.53,2.53,0,0,1,.19-1,2.38,2.38,0,0,1,.51-.8,2.29,2.29,0,0,1,.79-.53,2.46,2.46,0,0,1,1-.19,2.32,2.32,0,0,1,1.07.22,2.11,2.11,0,0,1,.73.58,2.58,2.58,0,0,1,.41.81,3.57,3.57,0,0,1,.12.92v.32Zm2.87-.73a2,2,0,0,0-.1-.56,1.29,1.29,0,0,0-.25-.44,1.3,1.3,0,0,0-.43-.29,1.61,1.61,0,0,0-.6-.1,1.56,1.56,0,0,0-.62.12,1.45,1.45,0,0,0-.76.78,1.28,1.28,0,0,0-.11.49Z"/><path class="cls-2" d="M125.24,51.73a1.81,1.81,0,0,0-.53-.4,1.47,1.47,0,0,0-.66-.13,1.45,1.45,0,0,0-.65.13,1.34,1.34,0,0,0-.47.38,2,2,0,0,0-.28.54,2.32,2.32,0,0,0-.09.65,1.67,1.67,0,0,0,.11.63,1.44,1.44,0,0,0,.31.52,1.46,1.46,0,0,0,.49.35,1.57,1.57,0,0,0,.63.12,1.47,1.47,0,0,0,.66-.13,1.7,1.7,0,0,0,.5-.4l.65.64a1.91,1.91,0,0,1-.82.57,3,3,0,0,1-1,.17,2.71,2.71,0,0,1-1-.18,2.29,2.29,0,0,1-.8-.51,2.24,2.24,0,0,1-.51-.79,2.58,2.58,0,0,1-.19-1,2.61,2.61,0,0,1,.19-1,2.24,2.24,0,0,1,.51-.79,2.29,2.29,0,0,1,.79-.53,2.73,2.73,0,0,1,1-.18,2.87,2.87,0,0,1,1,.18,2.19,2.19,0,0,1,.83.58Z"/><path class="cls-2" d="M132.12,55.25h-.91v-.74h0a1.28,1.28,0,0,1-.6.62,2,2,0,0,1-1,.24,2.13,2.13,0,0,1-.67-.1,1.55,1.55,0,0,1-.55-.33,1.67,1.67,0,0,1-.38-.57,2.33,2.33,0,0,1-.14-.83V50.46h.91v2.83a1.62,1.62,0,0,0,.09.57,1.09,1.09,0,0,0,.25.39,1,1,0,0,0,.35.21,1.35,1.35,0,0,0,.41.06,1.5,1.5,0,0,0,.52-.09,1.09,1.09,0,0,0,.43-.29,1.33,1.33,0,0,0,.28-.5,2.17,2.17,0,0,0,.1-.71V50.46h.91Z"/><path class="cls-2" d="M137.25,51.25h-1.31v2.17c0,.14,0,.27,0,.4a1,1,0,0,0,.08.35.57.57,0,0,0,.2.26.72.72,0,0,0,.4.09l.33,0a.87.87,0,0,0,.32-.11v.83a1.39,1.39,0,0,1-.42.13l-.4,0a2,2,0,0,1-.82-.14,1,1,0,0,1-.42-.38,1.17,1.17,0,0,1-.16-.52,5.83,5.83,0,0,1,0-.59V51.25H134v-.79H135V49.11h.91v1.35h1.31Z"/><path class="cls-2" d="M139.46,48.74a.61.61,0,0,1,.2-.47.63.63,0,0,1,.47-.2.67.67,0,0,1,.47.2.68.68,0,0,1,0,.94.67.67,0,0,1-.47.2.63.63,0,0,1-.47-.2A.61.61,0,0,1,139.46,48.74Zm.21,1.72h.91v4.79h-.91Z"/><path class="cls-2" d="M143,52.85a2.48,2.48,0,0,1,.19-1,2.61,2.61,0,0,1,.55-.79,2.53,2.53,0,0,1,.8-.55,2.75,2.75,0,0,1,2,0,2.7,2.7,0,0,1,.81.55,2.77,2.77,0,0,1,.54.79,2.65,2.65,0,0,1,0,2,2.82,2.82,0,0,1-.54.8,2.87,2.87,0,0,1-.81.54,2.75,2.75,0,0,1-2,0,2.68,2.68,0,0,1-.8-.54,2.65,2.65,0,0,1-.55-.8A2.5,2.5,0,0,1,143,52.85Zm1,0a1.87,1.87,0,0,0,.11.68,1.45,1.45,0,0,0,.81.87,1.85,1.85,0,0,0,1.31,0,1.45,1.45,0,0,0,.81-.87,1.87,1.87,0,0,0,.11-.68,1.85,1.85,0,0,0-.11-.67,1.45,1.45,0,0,0-.81-.87,1.85,1.85,0,0,0-1.31,0,1.45,1.45,0,0,0-.81.87A1.85,1.85,0,0,0,144,52.85Z"/><path class="cls-2" d="M150.4,50.46h.91v.74h0a1.32,1.32,0,0,1,.59-.63,2.1,2.1,0,0,1,1-.23,2.16,2.16,0,0,1,.66.1,1.47,1.47,0,0,1,.55.33,1.54,1.54,0,0,1,.38.57,2.12,2.12,0,0,1,.14.83v3.08h-.91V52.42a1.62,1.62,0,0,0-.09-.57,1.08,1.08,0,0,0-.24-.39,1.13,1.13,0,0,0-.35-.21,1.4,1.4,0,0,0-.41-.06,1.46,1.46,0,0,0-.52.09,1,1,0,0,0-.43.29,1.33,1.33,0,0,0-.28.5,2.17,2.17,0,0,0-.1.71v2.47h-.91Z"/></svg>