<svg id="Layer_1" data-name="Layer 1" xmlns="http://www.w3.org/2000/svg" viewBox="0 0 210.84 49"><defs><style>.cls-1{fill:#404041;}.cls-2{fill:#f59233;}.cls-3{fill:#babcbe;}</style></defs><path class="cls-1" d="M.06.41H2.43A3.07,3.07,0,0,1,3.1.49a1.93,1.93,0,0,1,.6.27,1.47,1.47,0,0,1,.42.47,1.43,1.43,0,0,1,.17.71,1.24,1.24,0,0,1-.3.85,1.61,1.61,0,0,1-.76.48h0a1.82,1.82,0,0,1,.53.16,1.3,1.3,0,0,1,.41.32,1.29,1.29,0,0,1,.27.45,1.33,1.33,0,0,1,.1.54,1.62,1.62,0,0,1-.19.83,1.75,1.75,0,0,1-.52.53,2.19,2.19,0,0,1-.74.28,4,4,0,0,1-.84.09H.06ZM1.14,2.88h1a1.33,1.33,0,0,0,.81-.21.66.66,0,0,0,.27-.55.68.68,0,0,0-.28-.59A1.63,1.63,0,0,0,2,1.34H1.14Zm0,2.67h1a3.54,3.54,0,0,0,.45,0A1.52,1.52,0,0,0,3,5.41a.76.76,0,0,0,.32-.27.78.78,0,0,0,.13-.48A.69.69,0,0,0,3.15,4a1.89,1.89,0,0,0-1-.19h-1Z"/><path class="cls-1" d="M5.31,2.37h1V3h0a1.3,1.3,0,0,1,1.22-.76l.18,0,.19,0v1l-.26-.06-.24,0a1.21,1.21,0,0,0-.58.13,1,1,0,0,0-.33.31A1,1,0,0,0,6.37,4a1.86,1.86,0,0,0,0,.26v2.2h-1Z"/><path class="cls-1" d="M11,5.92h0a1.3,1.3,0,0,1-.57.5,1.65,1.65,0,0,1-.75.16,2,2,0,0,1-.55-.07,1.35,1.35,0,0,1-.48-.24,1.12,1.12,0,0,1-.34-.38,1.08,1.08,0,0,1-.13-.54,1.18,1.18,0,0,1,.44-1,1.76,1.76,0,0,1,.47-.25A3.41,3.41,0,0,1,9.61,4a5.7,5.7,0,0,1,.58-.06H11V3.81a.67.67,0,0,0-.27-.58,1.12,1.12,0,0,0-.68-.2A1.58,1.58,0,0,0,9,3.46l-.54-.54a2,2,0,0,1,.8-.5,2.75,2.75,0,0,1,.95-.16,2.52,2.52,0,0,1,.73.1,1.79,1.79,0,0,1,.5.25,1.25,1.25,0,0,1,.3.36,1.59,1.59,0,0,1,.16.41,1.83,1.83,0,0,1,.05.4c0,.12,0,.24,0,.33V6.48H11Zm-.06-1.28h-.7a2.75,2.75,0,0,0-.5.09,1.13,1.13,0,0,0-.4.18.42.42,0,0,0-.16.35.49.49,0,0,0,.06.25.65.65,0,0,0,.17.16.67.67,0,0,0,.23.1,1.15,1.15,0,0,0,.26,0,1,1,0,0,0,.78-.25.94.94,0,0,0,.26-.69Z"/><path class="cls-1" d="M12.81,2.37h1V3h0a1.34,1.34,0,0,1,.44-.54,1.35,1.35,0,0,1,.82-.23,1.65,1.65,0,0,1,.7.14,1.27,1.27,0,0,1,.46.36,1.37,1.37,0,0,1,.26.51,2.49,2.49,0,0,1,.08.61v2.6h-1V4.4c0-.12,0-.24,0-.38a1.37,1.37,0,0,0-.09-.4.84.84,0,0,0-.22-.31.7.7,0,0,0-.42-.12,1.12,1.12,0,0,0-.44.08.85.85,0,0,0-.29.24.86.86,0,0,0-.17.33,1.74,1.74,0,0,0-.05.39V6.48h-1Z"/><path class="cls-1" d="M20.78,5.86h0a1.27,1.27,0,0,1-.6.55,1.84,1.84,0,0,1-.81.17A1.91,1.91,0,0,1,17.85,6a2.05,2.05,0,0,1-.4-.69,2.57,2.57,0,0,1-.14-.85,2.41,2.41,0,0,1,.15-.85,2,2,0,0,1,.41-.68,1.71,1.71,0,0,1,.63-.46,1.91,1.91,0,0,1,.8-.17,2,2,0,0,1,.52.06,1.76,1.76,0,0,1,.39.16,1.34,1.34,0,0,1,.29.2,1.29,1.29,0,0,1,.2.21h0V0h1V6.48h-1ZM18.34,4.42a1.5,1.5,0,0,0,.08.47,1.28,1.28,0,0,0,.24.39,1.19,1.19,0,0,0,.39.27,1.12,1.12,0,0,0,.5.11,1.19,1.19,0,0,0,.51-.11,1.15,1.15,0,0,0,.38-.27,1.28,1.28,0,0,0,.24-.39,1.5,1.5,0,0,0,.08-.47A1.44,1.44,0,0,0,20.68,4a1.28,1.28,0,0,0-.24-.39,1.17,1.17,0,0,0-.38-.28,1.19,1.19,0,0,0-.51-.1,1.12,1.12,0,0,0-.5.1,1.21,1.21,0,0,0-.39.28,1.28,1.28,0,0,0-.24.39A1.44,1.44,0,0,0,18.34,4.42Z"/><path class="cls-1" d="M22.59,1a.58.58,0,0,1,.18-.43.61.61,0,0,1,.47-.19.66.66,0,0,1,.47.18.56.56,0,0,1,.2.44.57.57,0,0,1-.2.44.66.66,0,0,1-.47.18.65.65,0,0,1-.47-.19A.6.6,0,0,1,22.59,1Zm.14,1.4h1V6.48h-1Z"/><path class="cls-1" d="M24.73,2.37h1V3h0a1.45,1.45,0,0,1,.45-.54A1.32,1.32,0,0,1,27,2.26a1.62,1.62,0,0,1,.7.14,1.31,1.31,0,0,1,.47.36,1.35,1.35,0,0,1,.25.51,2.09,2.09,0,0,1,.08.61v2.6h-1V4.4c0-.12,0-.24,0-.38a1.37,1.37,0,0,0-.09-.4.87.87,0,0,0-.23-.31.66.66,0,0,0-.42-.12,1.06,1.06,0,0,0-.43.08.76.76,0,0,0-.29.24.74.74,0,0,0-.17.33,1.31,1.31,0,0,0,0,.39V6.48h-1Z"/><path class="cls-1" d="M33.67,2.37V6.11a3.52,3.52,0,0,1-.14,1,1.94,1.94,0,0,1-.42.76,2,2,0,0,1-.73.49,2.88,2.88,0,0,1-1,.17,3.83,3.83,0,0,1-1.09-.15,2.37,2.37,0,0,1-1-.53L29.92,7a2.66,2.66,0,0,0,.65.44,1.86,1.86,0,0,0,.77.15,1.65,1.65,0,0,0,.62-.1,1,1,0,0,0,.4-.28,1.21,1.21,0,0,0,.22-.44,2.4,2.4,0,0,0,.06-.56v-.3h0a1.34,1.34,0,0,1-.59.45,2,2,0,0,1-.75.15,2.06,2.06,0,0,1-.84-.16,2.35,2.35,0,0,1-.65-.45,2.11,2.11,0,0,1-.42-.67,2.54,2.54,0,0,1-.14-.83,2.41,2.41,0,0,1,.14-.85,1.86,1.86,0,0,1,.4-.68,1.75,1.75,0,0,1,.64-.46,2.08,2.08,0,0,1,.85-.17,2,2,0,0,1,.81.17,1.33,1.33,0,0,1,.6.55h0V2.37Zm-2.2.82a1.3,1.3,0,0,0-.49.09,1.13,1.13,0,0,0-.63.63,1.36,1.36,0,0,0-.09.51,1.22,1.22,0,0,0,.09.46,1.05,1.05,0,0,0,.25.37,1.16,1.16,0,0,0,.39.26,1.06,1.06,0,0,0,.48.1,1.25,1.25,0,0,0,.51-.1,1,1,0,0,0,.38-.25,1.09,1.09,0,0,0,.25-.38,1.51,1.51,0,0,0,.08-.48,1.25,1.25,0,0,0-.32-.88A1.22,1.22,0,0,0,31.47,3.19Z"/><path class="cls-1" d="M39.51,5.92h0a1.3,1.3,0,0,1-.57.5,1.71,1.71,0,0,1-.75.16,2,2,0,0,1-.55-.07,1.35,1.35,0,0,1-.48-.24,1.12,1.12,0,0,1-.34-.38,1.08,1.08,0,0,1-.13-.54,1.18,1.18,0,0,1,.44-1,1.62,1.62,0,0,1,.47-.25A3.16,3.16,0,0,1,38.13,4a5.42,5.42,0,0,1,.58-.06h.8V3.81a.66.66,0,0,0-.26-.58,1.12,1.12,0,0,0-.68-.2,1.54,1.54,0,0,0-.61.12,1.64,1.64,0,0,0-.49.31l-.54-.54a2,2,0,0,1,.81-.5,2.73,2.73,0,0,1,.94-.16,2.6,2.6,0,0,1,.74.1,1.79,1.79,0,0,1,.5.25,1.25,1.25,0,0,1,.3.36,2.05,2.05,0,0,1,.16.41,1.83,1.83,0,0,1,0,.4c0,.12,0,.24,0,.33V6.48h-.93Zm-.06-1.28h-.69a2.61,2.61,0,0,0-.5.09,1.13,1.13,0,0,0-.4.18.42.42,0,0,0-.16.35.49.49,0,0,0,.06.25.52.52,0,0,0,.17.16.6.6,0,0,0,.23.1,1.15,1.15,0,0,0,.26,0,1.06,1.06,0,0,0,.78-.25.93.93,0,0,0,.25-.69Z"/><path class="cls-1" d="M41.33,2.37h1V3h0a1.28,1.28,0,0,1,1.26-.77,1.6,1.6,0,0,1,.69.14,1.23,1.23,0,0,1,.47.36,1.37,1.37,0,0,1,.26.51,2.49,2.49,0,0,1,.08.61v2.6h-1V4.4c0-.12,0-.24,0-.38a1.37,1.37,0,0,0-.09-.4.76.76,0,0,0-.23-.31.66.66,0,0,0-.42-.12,1.1,1.1,0,0,0-.43.08.85.85,0,0,0-.29.24.86.86,0,0,0-.17.33,1.74,1.74,0,0,0,0,.39V6.48h-1Z"/><path class="cls-1" d="M49.29,5.86h0a1.27,1.27,0,0,1-.6.55,1.88,1.88,0,0,1-.82.17A2.08,2.08,0,0,1,47,6.42,2.14,2.14,0,0,1,46.37,6a1.9,1.9,0,0,1-.4-.69,2.57,2.57,0,0,1-.14-.85A2.41,2.41,0,0,1,46,3.57a2,2,0,0,1,.4-.68A1.9,1.9,0,0,1,47,2.43a2,2,0,0,1,.81-.17,1.93,1.93,0,0,1,.51.06,2.09,2.09,0,0,1,.4.16,1.64,1.64,0,0,1,.29.2,1.29,1.29,0,0,1,.2.21h0V0h1V6.48h-1ZM46.86,4.42a1.5,1.5,0,0,0,.08.47,1,1,0,0,0,.24.39,1.15,1.15,0,0,0,.38.27,1.19,1.19,0,0,0,.51.11,1.12,1.12,0,0,0,.5-.11A1.19,1.19,0,0,0,49,5.28a1.09,1.09,0,0,0,.23-.39,1.27,1.27,0,0,0,.09-.47A1.22,1.22,0,0,0,49.19,4,1.09,1.09,0,0,0,49,3.57a1.21,1.21,0,0,0-.39-.28,1.12,1.12,0,0,0-.5-.1,1.19,1.19,0,0,0-.51.1,1.17,1.17,0,0,0-.38.28,1,1,0,0,0-.24.39A1.44,1.44,0,0,0,46.86,4.42Z"/><path class="cls-1" d="M53.67.41h1.64l1.62,4.25L58.57.41H60.2V6.48h-1v-5h0l-1.84,5h-.76l-1.84-5h0v5h-1Z"/><path class="cls-1" d="M63.84,5.92h0a1.3,1.3,0,0,1-.57.5,1.73,1.73,0,0,1-.76.16,2.08,2.08,0,0,1-.55-.07,1.35,1.35,0,0,1-.48-.24,1.24,1.24,0,0,1-.34-.38A1.2,1.2,0,0,1,61,5.35a1.26,1.26,0,0,1,.12-.57,1.16,1.16,0,0,1,.33-.4,1.69,1.69,0,0,1,.46-.25A3.28,3.28,0,0,1,62.46,4,5.51,5.51,0,0,1,63,3.93h.81V3.81a.67.67,0,0,0-.27-.58A1.09,1.09,0,0,0,62.9,3a1.54,1.54,0,0,0-.61.12,1.64,1.64,0,0,0-.49.31l-.54-.54a2,2,0,0,1,.8-.5A2.79,2.79,0,0,1,63,2.26a2.6,2.6,0,0,1,.74.1,1.73,1.73,0,0,1,.49.25,1.29,1.29,0,0,1,.31.36,1.56,1.56,0,0,1,.15.41,2.76,2.76,0,0,1,.06.4c0,.12,0,.24,0,.33V6.48h-.93Zm-.06-1.28h-.69a2.71,2.71,0,0,0-.51.09,1.08,1.08,0,0,0-.39.18.43.43,0,0,0-.17.35.41.41,0,0,0,.07.25.61.61,0,0,0,.16.16.64.64,0,0,0,.24.1,1.29,1.29,0,0,0,1-.22.93.93,0,0,0,.25-.69Z"/><path class="cls-1" d="M65.66,2.37h1V3h0a1.34,1.34,0,0,1,.49-.56,1.38,1.38,0,0,1,.73-.2l.19,0,.18,0v1L68,3.26l-.25,0a1.21,1.21,0,0,0-.58.13,1.1,1.1,0,0,0-.33.31.85.85,0,0,0-.15.34,1,1,0,0,0,0,.26v2.2h-1Z"/><path class="cls-1" d="M68.78,0h1V4.07l1.58-1.7h1.32L71,4.23l1.87,2.25H71.46l-1.64-2.1h0v2.1h-1Z"/><path class="cls-1" d="M74,4.78a1,1,0,0,0,.36.72,1.11,1.11,0,0,0,.74.26,1.18,1.18,0,0,0,.65-.16,1.6,1.6,0,0,0,.46-.4l.74.56a2,2,0,0,1-.81.63,2.31,2.31,0,0,1-.93.19,2.58,2.58,0,0,1-.88-.15A2.07,2.07,0,0,1,73.61,6a1.93,1.93,0,0,1-.47-.68A2.14,2.14,0,0,1,73,4.42a2.1,2.1,0,0,1,.18-.88,2,2,0,0,1,.47-.69,2.21,2.21,0,0,1,.71-.43,2.37,2.37,0,0,1,.88-.16,2,2,0,0,1,.78.15,1.68,1.68,0,0,1,.61.44,1.86,1.86,0,0,1,.39.69,2.85,2.85,0,0,1,.15,1v.28ZM76.1,4a1,1,0,0,0-.29-.71A1,1,0,0,0,75.05,3a1,1,0,0,0-.73.27A1.18,1.18,0,0,0,74,4Z"/><path class="cls-1" d="M77.39,3.24V2.37h.85V1.17h1v1.2H80.4v.87H79.27V5a1,1,0,0,0,.11.49.51.51,0,0,0,.46.18l.3,0a.57.57,0,0,0,.26-.1v.87a1.37,1.37,0,0,1-.4.1l-.41,0a2.15,2.15,0,0,1-.68-.09.92.92,0,0,1-.41-.27,1,1,0,0,1-.2-.46,2.93,2.93,0,0,1-.06-.63V3.24Z"/><path class="cls-1" d="M80.87,1a.56.56,0,0,1,.19-.43.59.59,0,0,1,.46-.19A.68.68,0,0,1,82,.53a.55.55,0,0,1,.19.44.56.56,0,0,1-.19.44.68.68,0,0,1-.48.18.63.63,0,0,1-.46-.19A.57.57,0,0,1,80.87,1ZM81,2.37h1V6.48H81Z"/><path class="cls-1" d="M83,2.37h1V3h0a1.42,1.42,0,0,1,.44-.54,1.35,1.35,0,0,1,.82-.23,1.65,1.65,0,0,1,.7.14,1.27,1.27,0,0,1,.46.36,1.37,1.37,0,0,1,.26.51,2.49,2.49,0,0,1,.08.61v2.6h-1V4.4c0-.12,0-.24,0-.38a1.37,1.37,0,0,0-.09-.4.84.84,0,0,0-.22-.31A.7.7,0,0,0,85,3.19a1.12,1.12,0,0,0-.44.08,1,1,0,0,0-.29.24.86.86,0,0,0-.17.33,1.74,1.74,0,0,0,0,.39V6.48H83Z"/><path class="cls-1" d="M92,2.37V6.11a3.53,3.53,0,0,1-.13,1,1.92,1.92,0,0,1-1.15,1.25,2.94,2.94,0,0,1-1,.17,3.93,3.93,0,0,1-1.09-.15,2.43,2.43,0,0,1-1-.53L88.21,7a2.62,2.62,0,0,0,.64.44,1.86,1.86,0,0,0,.77.15,1.58,1.58,0,0,0,.62-.1,1,1,0,0,0,.41-.28,1.06,1.06,0,0,0,.21-.44,2.38,2.38,0,0,0,.07-.56v-.3h0a1.39,1.39,0,0,1-.59.45,2,2,0,0,1-.76.15,2.06,2.06,0,0,1-.84-.16,2.3,2.3,0,0,1-.64-.45,2.11,2.11,0,0,1-.42-.67,2.31,2.31,0,0,1-.15-.83,2.66,2.66,0,0,1,.14-.85,2,2,0,0,1,.4-.68,1.84,1.84,0,0,1,.64-.46,2.13,2.13,0,0,1,.86-.17,2,2,0,0,1,.81.17A1.38,1.38,0,0,1,91,3h0V2.37Zm-2.19.82a1.35,1.35,0,0,0-.5.09,1.09,1.09,0,0,0-.38.25,1.14,1.14,0,0,0-.25.38,1.36,1.36,0,0,0-.09.51,1.22,1.22,0,0,0,.09.46,1.08,1.08,0,0,0,.26.37,1,1,0,0,0,.38.26,1.12,1.12,0,0,0,.48.1,1.19,1.19,0,0,0,.51-.1,1.14,1.14,0,0,0,.39-.25,1.23,1.23,0,0,0,.24-.38A1.28,1.28,0,0,0,91,4.4a1.22,1.22,0,0,0-.33-.88A1.19,1.19,0,0,0,89.76,3.19Z"/><path class="cls-1" d="M98.3,1.71a1.09,1.09,0,0,0-.46-.36,1.54,1.54,0,0,0-.61-.12,1.49,1.49,0,0,0-.36.05.92.92,0,0,0-.32.14.64.64,0,0,0-.22.24.68.68,0,0,0-.09.35.57.57,0,0,0,.21.48,2.47,2.47,0,0,0,.54.28c.21.08.44.16.69.23a2.69,2.69,0,0,1,.69.31,1.67,1.67,0,0,1,.54.52,1.6,1.6,0,0,1,.21.87,1.9,1.9,0,0,1-.18.85,1.68,1.68,0,0,1-.48.6,2.16,2.16,0,0,1-.71.36,3,3,0,0,1-.85.12,3.32,3.32,0,0,1-1.09-.18,2.11,2.11,0,0,1-.9-.64L95.73,5a1.35,1.35,0,0,0,.51.47,1.53,1.53,0,0,0,.69.17,1.57,1.57,0,0,0,.37,0,1.39,1.39,0,0,0,.35-.16.89.89,0,0,0,.25-.26A.74.74,0,0,0,98,4.83a.62.62,0,0,0-.22-.52,1.79,1.79,0,0,0-.53-.3c-.21-.09-.44-.16-.69-.24a2.67,2.67,0,0,1-.69-.3A1.67,1.67,0,0,1,95.32,3a1.54,1.54,0,0,1-.21-.86,1.62,1.62,0,0,1,.19-.81,1.75,1.75,0,0,1,.51-.57,2.12,2.12,0,0,1,.71-.34,2.91,2.91,0,0,1,.83-.11,3.22,3.22,0,0,1,.93.14,2.23,2.23,0,0,1,.81.48Z"/><path class="cls-1" d="M99.45,3.24V2.37h.85V1.17h1v1.2h1.13v.87h-1.13V5a.87.87,0,0,0,.12.49.5.5,0,0,0,.46.18l.3,0a.52.52,0,0,0,.25-.1v.87a1.3,1.3,0,0,1-.39.1l-.42,0a2,2,0,0,1-.67-.09.82.82,0,0,1-.41-.27,1.09,1.09,0,0,1-.21-.46,2.93,2.93,0,0,1-.06-.63V3.24Z"/><path class="cls-1" d="M103.05,2.37h1V3h0a1.28,1.28,0,0,1,.49-.56,1.35,1.35,0,0,1,.73-.2l.18,0,.19,0v1l-.26-.06-.24,0a1.21,1.21,0,0,0-.58.13.9.9,0,0,0-.33.31,1,1,0,0,0-.16.34,1.86,1.86,0,0,0,0,.26v2.2h-1Z"/><path class="cls-1" d="M108.75,5.92h0a1.3,1.3,0,0,1-.57.5,1.68,1.68,0,0,1-.75.16,2,2,0,0,1-.55-.07,1.35,1.35,0,0,1-.48-.24,1.12,1.12,0,0,1-.34-.38,1.08,1.08,0,0,1-.13-.54,1.18,1.18,0,0,1,.44-1,1.76,1.76,0,0,1,.47-.25,3.41,3.41,0,0,1,.55-.14,5.7,5.7,0,0,1,.58-.06h.81V3.81a.67.67,0,0,0-.27-.58,1.12,1.12,0,0,0-.68-.2,1.58,1.58,0,0,0-1.09.43l-.54-.54a1.91,1.91,0,0,1,.8-.5,2.73,2.73,0,0,1,.94-.16,2.54,2.54,0,0,1,.74.1,1.79,1.79,0,0,1,.5.25,1.25,1.25,0,0,1,.3.36,1.59,1.59,0,0,1,.16.41,1.83,1.83,0,0,1,0,.4c0,.12,0,.24,0,.33V6.48h-.92Zm-.06-1.28H108a2.61,2.61,0,0,0-.5.09,1.13,1.13,0,0,0-.4.18.42.42,0,0,0-.16.35.49.49,0,0,0,.06.25.65.65,0,0,0,.17.16.67.67,0,0,0,.23.1,1.15,1.15,0,0,0,.26,0,1.06,1.06,0,0,0,.78-.25.94.94,0,0,0,.26-.69Z"/><path class="cls-1" d="M110.08,3.24V2.37h.85V1.17h1v1.2h1.13v.87H112V5a.87.87,0,0,0,.12.49.49.49,0,0,0,.45.18,1.53,1.53,0,0,0,.3,0,.57.57,0,0,0,.26-.1v.87a1.37,1.37,0,0,1-.4.1l-.41,0a2.15,2.15,0,0,1-.68-.09.92.92,0,0,1-.41-.27,1,1,0,0,1-.2-.46,2.93,2.93,0,0,1-.06-.63V3.24Z"/><path class="cls-1" d="M114.51,4.78a1,1,0,0,0,.36.72,1.11,1.11,0,0,0,.74.26,1.21,1.21,0,0,0,.65-.16,1.75,1.75,0,0,0,.46-.4l.73.56a2,2,0,0,1-.8.63,2.32,2.32,0,0,1-.94.19,2.53,2.53,0,0,1-.87-.15,2.09,2.09,0,0,1-1.19-1.12,2.31,2.31,0,0,1-.17-.89,2.26,2.26,0,0,1,.17-.88,2.14,2.14,0,0,1,.48-.69,2.21,2.21,0,0,1,.71-.43,2.32,2.32,0,0,1,.87-.16,2,2,0,0,1,.79.15,1.68,1.68,0,0,1,.61.44,1.86,1.86,0,0,1,.39.69,2.85,2.85,0,0,1,.14,1v.28Zm2.1-.77a.94.94,0,0,0-.28-.71,1,1,0,0,0-.76-.27,1,1,0,0,0-.73.27,1.18,1.18,0,0,0-.33.71Z"/><path class="cls-1" d="M122.62,2.37V6.11a3.53,3.53,0,0,1-.13,1,1.92,1.92,0,0,1-1.15,1.25,2.94,2.94,0,0,1-1,.17,3.93,3.93,0,0,1-1.09-.15,2.43,2.43,0,0,1-.95-.53l.62-.84a2.62,2.62,0,0,0,.64.44,1.86,1.86,0,0,0,.77.15,1.61,1.61,0,0,0,.62-.1,1,1,0,0,0,.41-.28,1.06,1.06,0,0,0,.21-.44,2.38,2.38,0,0,0,.07-.56v-.3h0a1.39,1.39,0,0,1-.59.45,2,2,0,0,1-.76.15,2.06,2.06,0,0,1-.84-.16,2.35,2.35,0,0,1-.65-.45,2.28,2.28,0,0,1-.41-.67,2.31,2.31,0,0,1-.15-.83,2.66,2.66,0,0,1,.14-.85,2,2,0,0,1,.4-.68,1.84,1.84,0,0,1,.64-.46,2.11,2.11,0,0,1,.85-.17,2,2,0,0,1,.82.17,1.38,1.38,0,0,1,.6.55h0V2.37Zm-2.19.82a1.35,1.35,0,0,0-.5.09,1.09,1.09,0,0,0-.38.25,1,1,0,0,0-.25.38,1.36,1.36,0,0,0-.09.51,1.22,1.22,0,0,0,.09.46,1.08,1.08,0,0,0,.26.37,1,1,0,0,0,.38.26,1.12,1.12,0,0,0,.48.1,1.19,1.19,0,0,0,.51-.1,1.14,1.14,0,0,0,.39-.25,1.23,1.23,0,0,0,.24-.38,1.28,1.28,0,0,0,.09-.48,1.22,1.22,0,0,0-.33-.88A1.19,1.19,0,0,0,120.43,3.19Z"/><path class="cls-1" d="M123.45,1a.58.58,0,0,1,.18-.43.61.61,0,0,1,.47-.19.66.66,0,0,1,.47.18.56.56,0,0,1,.2.44.57.57,0,0,1-.2.44.66.66,0,0,1-.47.18.65.65,0,0,1-.47-.19A.6.6,0,0,1,123.45,1Zm.14,1.4h1V6.48h-1Z"/><path class="cls-1" d="M126.41,4.78a1.09,1.09,0,0,0,.36.72,1.27,1.27,0,0,0,1.39.1,1.6,1.6,0,0,0,.46-.4l.74.56a2,2,0,0,1-.8.63,2.32,2.32,0,0,1-.94.19,2.49,2.49,0,0,1-.87-.15A2,2,0,0,1,126,6a2.07,2.07,0,0,1-.47-.68,2.14,2.14,0,0,1-.18-.89A2.2,2.2,0,0,1,126,2.85a2.16,2.16,0,0,1,.72-.43,2.28,2.28,0,0,1,.87-.16,1.94,1.94,0,0,1,.78.15,1.6,1.6,0,0,1,.61.44,2,2,0,0,1,.4.69,3.13,3.13,0,0,1,.14,1v.28ZM128.52,4a.94.94,0,0,0-.28-.71,1,1,0,0,0-.76-.27,1,1,0,0,0-.74.27,1.18,1.18,0,0,0-.33.71Z"/><path class="cls-1" d="M132.49,3.51a1,1,0,0,0-.81-.42.85.85,0,0,0-.4.1.35.35,0,0,0-.2.33.3.3,0,0,0,.17.28,1.93,1.93,0,0,0,.41.14l.53.13a2.47,2.47,0,0,1,.54.19,1.21,1.21,0,0,1,.41.37,1.07,1.07,0,0,1,.16.63,1.08,1.08,0,0,1-.16.62,1.15,1.15,0,0,1-.41.41,1.78,1.78,0,0,1-.57.22,3,3,0,0,1-1.51-.06,1.74,1.74,0,0,1-.72-.5l.68-.64a1.62,1.62,0,0,0,.43.36,1,1,0,0,0,.55.14l.23,0A.85.85,0,0,0,132,5.7a.5.5,0,0,0,.17-.15.37.37,0,0,0,.06-.21.35.35,0,0,0-.16-.32,1.59,1.59,0,0,0-.41-.16,3.92,3.92,0,0,0-.54-.12,2.21,2.21,0,0,1-.53-.18,1.16,1.16,0,0,1-.41-.35,1,1,0,0,1-.17-.62A1.13,1.13,0,0,1,130.2,3a1.15,1.15,0,0,1,.37-.42,1.51,1.51,0,0,1,.53-.24,2.49,2.49,0,0,1,.61-.08,2.56,2.56,0,0,1,.81.14,1.33,1.33,0,0,1,.65.49Z"/><path class="cls-2" d="M0,9.9H6.78V25.09H24.61V9.9h6.78V48H24.61V31.23H6.78V48H0Z"/><path class="cls-2" d="M37.86,29.12a22.11,22.11,0,0,1,1.5-8.31,18.71,18.71,0,0,1,4.18-6.39,18.3,18.3,0,0,1,6.35-4.06A22.31,22.31,0,0,1,58,8.93a22.93,22.93,0,0,1,8.19,1.32,18,18,0,0,1,6.41,4,18.67,18.67,0,0,1,4.2,6.36,21.94,21.94,0,0,1,1.51,8.29A21.25,21.25,0,0,1,76.79,37a18.81,18.81,0,0,1-4.2,6.3,19.25,19.25,0,0,1-6.41,4.12A22.74,22.74,0,0,1,58,49a22.31,22.31,0,0,1-8.1-1.43,18.4,18.4,0,0,1-6.35-4,18.58,18.58,0,0,1-4.18-6.27A21.27,21.27,0,0,1,37.86,29.12Zm7.1-.43a16.36,16.36,0,0,0,.95,5.66,13.18,13.18,0,0,0,2.66,4.47,12.51,12.51,0,0,0,4.12,3,12.9,12.9,0,0,0,5.36,1.08,13.06,13.06,0,0,0,5.38-1.08,12.43,12.43,0,0,0,4.15-3,13.37,13.37,0,0,0,2.67-4.47,16.59,16.59,0,0,0,.94-5.66,15,15,0,0,0-.94-5.33A13.23,13.23,0,0,0,67.58,19a12.16,12.16,0,0,0-4.15-2.91,13.38,13.38,0,0,0-5.38-1.05,13.21,13.21,0,0,0-5.36,1.05A12.23,12.23,0,0,0,48.57,19a13,13,0,0,0-2.66,4.33A14.83,14.83,0,0,0,45,28.69Z"/><path class="cls-2" d="M80.5,9.9h7.43L95.1,37.36h.1L103.77,9.9h6.67l8.4,27.46H119L126.44,9.9h6.89L122.24,48h-6.47l-8.83-29h-.1L98,48H91.76Z"/><path class="cls-3" d="M136.19,19h3.26a6.08,6.08,0,0,1,1.74.22,4.53,4.53,0,0,1,1.29.6,3.6,3.6,0,0,1,.91.87,4.25,4.25,0,0,1,.58,1,5,5,0,0,1,.3,1,5.52,5.52,0,0,1,.09.95,4.72,4.72,0,0,1-.33,1.74,4.41,4.41,0,0,1-1,1.49,5,5,0,0,1-1.61,1.05,5.78,5.78,0,0,1-2.21.39h-3.05Zm1.27,8.16h1.6a5.42,5.42,0,0,0,1.52-.22,3.61,3.61,0,0,0,1.26-.66,3.14,3.14,0,0,0,.86-1.08,3.51,3.51,0,0,0,.32-1.53,4.41,4.41,0,0,0-.15-1.05,3.14,3.14,0,0,0-.54-1.14,3.34,3.34,0,0,0-1.12-.92,4,4,0,0,0-1.85-.38h-1.9Z"/><path class="cls-3" d="M145.45,25.18a3.26,3.26,0,0,1,.25-1.29,3.56,3.56,0,0,1,.71-1,3.21,3.21,0,0,1,1.06-.7,3.41,3.41,0,0,1,2.61,0,3.21,3.21,0,0,1,1.06.7,3.34,3.34,0,0,1,.7,1,3.31,3.31,0,0,1,0,2.57,3.27,3.27,0,0,1-.7,1.05,3.56,3.56,0,0,1-1.06.7,3.53,3.53,0,0,1-2.61,0,3.56,3.56,0,0,1-1.06-.7,3.47,3.47,0,0,1-.71-1.05A3.25,3.25,0,0,1,145.45,25.18Zm1.26,0a2.49,2.49,0,0,0,.15.87,2,2,0,0,0,.41.69,1.89,1.89,0,0,0,.65.45,2.36,2.36,0,0,0,1.71,0,1.89,1.89,0,0,0,.65-.45,2,2,0,0,0,.41-.69,2.8,2.8,0,0,0,0-1.75,2,2,0,0,0-.41-.69,1.89,1.89,0,0,0-.65-.45,2.36,2.36,0,0,0-1.71,0,1.89,1.89,0,0,0-.65.45,2,2,0,0,0-.41.69A2.5,2.5,0,0,0,146.71,25.18Z"/><path class="cls-3" d="M159.51,24.32,156,19h1.62l2.55,4.1,2.63-4.1h1.54l-3.53,5.36v4h-1.27Z"/><path class="cls-3" d="M164.38,25.18a3.27,3.27,0,0,1,.26-1.29,3.34,3.34,0,0,1,.7-1,3.21,3.21,0,0,1,1.06-.7,3.41,3.41,0,0,1,2.61,0,3.21,3.21,0,0,1,1.06.7,3.56,3.56,0,0,1,.71,1,3.43,3.43,0,0,1,0,2.57,3.47,3.47,0,0,1-.71,1.05,3.56,3.56,0,0,1-1.06.7,3.53,3.53,0,0,1-2.61,0,3.56,3.56,0,0,1-1.06-.7,3.33,3.33,0,0,1-1-2.33Zm1.27,0a2.74,2.74,0,0,0,.14.87,2.14,2.14,0,0,0,.41.69,1.89,1.89,0,0,0,.65.45,2.13,2.13,0,0,0,.86.16,2.2,2.2,0,0,0,.86-.16,1.85,1.85,0,0,0,.64-.45,2,2,0,0,0,.41-.69,2.63,2.63,0,0,0,0-1.75,2,2,0,0,0-.41-.69,1.85,1.85,0,0,0-.64-.45,2.2,2.2,0,0,0-.86-.16,2.13,2.13,0,0,0-.86.16,1.89,1.89,0,0,0-.65.45,2.14,2.14,0,0,0-.41.69A2.75,2.75,0,0,0,165.65,25.18Z"/><path class="cls-3" d="M179.14,28.3H178v-1h0a1.74,1.74,0,0,1-.78.81,2.81,2.81,0,0,1-2.16.17,1.79,1.79,0,0,1-.71-.43,2,2,0,0,1-.5-.74,2.91,2.91,0,0,1-.18-1.08v-4h1.18v3.69a2.11,2.11,0,0,0,.12.75,1.39,1.39,0,0,0,.32.5,1.18,1.18,0,0,0,.45.28,1.64,1.64,0,0,0,.54.08,2,2,0,0,0,.69-.12,1.34,1.34,0,0,0,.55-.37,1.79,1.79,0,0,0,.37-.65,3,3,0,0,0,.13-.94V22.05h1.19Z"/><path class="cls-3" d="M136.4,29.46h3.25a4.06,4.06,0,0,1,1.13.15,2.51,2.51,0,0,1,.9.43,2,2,0,0,1,.59.72,2.28,2.28,0,0,1,.22,1,1.9,1.9,0,0,1-.45,1.31,2.66,2.66,0,0,1-1.16.75v0a2.11,2.11,0,0,1,.79.22,2.26,2.26,0,0,1,.64.5,2.43,2.43,0,0,1,.59,1.61,2.33,2.33,0,0,1-.26,1.11,2.41,2.41,0,0,1-.7.82,3.4,3.4,0,0,1-1.05.5,4.72,4.72,0,0,1-1.28.17H136.4Zm1.27,3.88h1.73a2.87,2.87,0,0,0,.67-.07,1.58,1.58,0,0,0,.56-.24,1.21,1.21,0,0,0,.37-.44,1.28,1.28,0,0,0,.14-.65,1.32,1.32,0,0,0-1.48-1.37h-2Zm0,4.36h1.86a3.72,3.72,0,0,0,.64-.06,1.94,1.94,0,0,0,.66-.24,1.66,1.66,0,0,0,.51-.48,1.38,1.38,0,0,0,.21-.8,1.48,1.48,0,0,0-.54-1.25,2.32,2.32,0,0,0-1.46-.42h-1.88Z"/><path class="cls-3" d="M144.73,36.12a1.53,1.53,0,0,0,.18.74,1.91,1.91,0,0,0,.47.58,2.41,2.41,0,0,0,.67.37,2.68,2.68,0,0,0,.8.13,1.77,1.77,0,0,0,1-.26,3.17,3.17,0,0,0,.75-.68l.9.69A3.31,3.31,0,0,1,146.69,39a3.59,3.59,0,0,1-1.34-.25,3,3,0,0,1-1-.7,3,3,0,0,1-.64-1,3.66,3.66,0,0,1-.22-1.3,3.46,3.46,0,0,1,.24-1.3,3.21,3.21,0,0,1,.67-1,3.08,3.08,0,0,1,1-.7,3.37,3.37,0,0,1,1.29-.25,3.16,3.16,0,0,1,1.41.29,2.84,2.84,0,0,1,.94.76,3,3,0,0,1,.54,1.06,4.38,4.38,0,0,1,.16,1.19v.43Zm3.75-.95a2.37,2.37,0,0,0-.12-.73,1.63,1.63,0,0,0-.34-.57,1.41,1.41,0,0,0-.56-.39,2.09,2.09,0,0,0-.78-.14,1.88,1.88,0,0,0-.8.17,1.86,1.86,0,0,0-.62.43,2.16,2.16,0,0,0-.39.59,1.61,1.61,0,0,0-.14.64Z"/><path class="cls-3" d="M155.07,34.21a2.72,2.72,0,0,0-.69-.52,1.93,1.93,0,0,0-.87-.17,1.9,1.9,0,0,0-.85.17,1.8,1.8,0,0,0-.6.49,2.1,2.1,0,0,0-.37.71,2.63,2.63,0,0,0-.13.84,2.31,2.31,0,0,0,.15.83,2.11,2.11,0,0,0,.4.68,2,2,0,0,0,.64.45,2,2,0,0,0,.83.17,1.91,1.91,0,0,0,.86-.18,2.14,2.14,0,0,0,.66-.52l.84.84a2.53,2.53,0,0,1-1.07.74,3.78,3.78,0,0,1-1.3.23,3.54,3.54,0,0,1-1.33-.24,3.05,3.05,0,0,1-1-.67,2.92,2.92,0,0,1-.67-1,3.52,3.52,0,0,1-.24-1.32,3.63,3.63,0,0,1,.24-1.34,3.05,3.05,0,0,1,.67-1,2.94,2.94,0,0,1,1-.68,3.56,3.56,0,0,1,1.34-.24,3.66,3.66,0,0,1,1.31.24,2.81,2.81,0,0,1,1.09.75Z"/><path class="cls-3" d="M156.08,35.68a3.21,3.21,0,0,1,.25-1.28,3.34,3.34,0,0,1,1.77-1.75,3.32,3.32,0,0,1,1.3-.26,3.33,3.33,0,0,1,2.37,1,3.4,3.4,0,0,1,.7,1,3.22,3.22,0,0,1,.26,1.28,3.29,3.29,0,0,1-1,2.33,3.32,3.32,0,0,1-1.06.7,3.37,3.37,0,0,1-1.31.26,3.32,3.32,0,0,1-1.3-.26A3.21,3.21,0,0,1,157,38a3.15,3.15,0,0,1-.71-1A3.26,3.26,0,0,1,156.08,35.68Zm1.26,0a2.5,2.5,0,0,0,.15.88,1.72,1.72,0,0,0,.41.68,1.85,1.85,0,0,0,.64.45,2.2,2.2,0,0,0,.86.17,2.13,2.13,0,0,0,.86-.17,1.89,1.89,0,0,0,.65-.45,2,2,0,0,0,.41-.68,2.84,2.84,0,0,0,0-1.76,2.09,2.09,0,0,0-.41-.68,1.89,1.89,0,0,0-.65-.45,2.13,2.13,0,0,0-.86-.17,2.2,2.2,0,0,0-.86.17,1.85,1.85,0,0,0-.64.45,1.8,1.8,0,0,0-.41.68A2.5,2.5,0,0,0,157.34,35.68Z"/><path class="cls-3" d="M163.64,32.55h1.11v1h0a.87.87,0,0,1,.2-.33,2.25,2.25,0,0,1,.42-.38,2.48,2.48,0,0,1,.61-.3,2.34,2.34,0,0,1,.77-.13,2.27,2.27,0,0,1,1.18.29,2.37,2.37,0,0,1,.78.87,2,2,0,0,1,.85-.87,2.47,2.47,0,0,1,1.13-.29,2.6,2.6,0,0,1,1.19.24,1.93,1.93,0,0,1,.72.63,2.22,2.22,0,0,1,.36.88,4.93,4.93,0,0,1,.1,1v3.64h-1.18V35.32a5.06,5.06,0,0,0,0-.68,1.65,1.65,0,0,0-.19-.58,1.24,1.24,0,0,0-.41-.41,1.43,1.43,0,0,0-.7-.15,1.41,1.41,0,0,0-1.23.53,2.3,2.3,0,0,0-.37,1.36v3.42h-1.19V35.54a6.82,6.82,0,0,0,0-.82,1.93,1.93,0,0,0-.19-.64,1.08,1.08,0,0,0-.39-.43,1.43,1.43,0,0,0-.7-.15,1.56,1.56,0,0,0-1.13.5,1.88,1.88,0,0,0-.36.64,2.84,2.84,0,0,0-.13.92v3.25h-1.19Z"/><path class="cls-3" d="M175.21,36.12a1.52,1.52,0,0,0,.17.74,1.91,1.91,0,0,0,.47.58,2.47,2.47,0,0,0,.68.37,2.62,2.62,0,0,0,.79.13,1.77,1.77,0,0,0,1-.26A3,3,0,0,0,179,37l.9.69A3.31,3.31,0,0,1,177.16,39a3.59,3.59,0,0,1-1.34-.25,3,3,0,0,1-1-.7,3.14,3.14,0,0,1-.64-1,3.66,3.66,0,0,1-.22-1.3,3.46,3.46,0,0,1,.24-1.3,3.23,3.23,0,0,1,.68-1,3,3,0,0,1,1-.7,3.41,3.41,0,0,1,1.29-.25,3.13,3.13,0,0,1,1.41.29,2.84,2.84,0,0,1,.94.76,3,3,0,0,1,.54,1.06,4.38,4.38,0,0,1,.16,1.19v.43Zm3.75-.95a2.71,2.71,0,0,0-.13-.73,1.63,1.63,0,0,0-.34-.57,1.41,1.41,0,0,0-.56-.39,2.05,2.05,0,0,0-.78-.14,1.91,1.91,0,0,0-.8.17,2,2,0,0,0-.62.43,2.16,2.16,0,0,0-.39.59,1.59,1.59,0,0,0-.13.64Z"/><path class="cls-3" d="M186.67,34.82l-3.54-5.36h1.62l2.55,4.11,2.63-4.11h1.54l-3.54,5.36v4h-1.26Z"/><path class="cls-3" d="M190.34,35.68a3.21,3.21,0,0,1,.25-1.28,3.34,3.34,0,0,1,1.77-1.75,3.32,3.32,0,0,1,1.3-.26,3.33,3.33,0,0,1,2.37,1,3.29,3.29,0,0,1,1,2.32,3.27,3.27,0,0,1-.26,1.29,3.13,3.13,0,0,1-.7,1,3.32,3.32,0,0,1-1.06.7,3.37,3.37,0,0,1-1.31.26,3.32,3.32,0,0,1-1.3-.26,3.21,3.21,0,0,1-1.06-.7,3.15,3.15,0,0,1-.71-1A3.26,3.26,0,0,1,190.34,35.68Zm1.26,0a2.5,2.5,0,0,0,.15.88,1.91,1.91,0,0,0,1.05,1.13,2.2,2.2,0,0,0,.86.17,2.13,2.13,0,0,0,.86-.17,1.89,1.89,0,0,0,.65-.45,2,2,0,0,0,.41-.68,2.84,2.84,0,0,0,0-1.76,2.09,2.09,0,0,0-.41-.68,1.89,1.89,0,0,0-.65-.45,2.13,2.13,0,0,0-.86-.17,2.2,2.2,0,0,0-.86.17,1.85,1.85,0,0,0-.64.45,1.93,1.93,0,0,0-.41.68A2.5,2.5,0,0,0,191.6,35.68Z"/><path class="cls-3" d="M203.89,38.81h-1.18v-1h0a1.79,1.79,0,0,1-.78.81,2.66,2.66,0,0,1-1.28.31,2.74,2.74,0,0,1-.87-.14,2,2,0,0,1-.72-.43,2.06,2.06,0,0,1-.5-.75,2.89,2.89,0,0,1-.18-1.07v-4h1.19v3.7a2,2,0,0,0,.12.74,1.42,1.42,0,0,0,.31.51,1.27,1.27,0,0,0,.46.27,1.6,1.6,0,0,0,.53.09,1.92,1.92,0,0,0,.69-.12,1.3,1.3,0,0,0,.55-.38,1.65,1.65,0,0,0,.37-.65,2.91,2.91,0,0,0,.14-.94V32.55h1.18Z"/><path class="cls-3" d="M207.43,36.2v-.81a2.38,2.38,0,0,1,.06-.59,1.36,1.36,0,0,1,.15-.43,1.62,1.62,0,0,1,.29-.37l.44-.43.42-.4a5.22,5.22,0,0,0,.39-.43,2.69,2.69,0,0,0,.28-.46,1.35,1.35,0,0,0,.11-.55,1.47,1.47,0,0,0-.11-.56,1.37,1.37,0,0,0-.3-.44,1.35,1.35,0,0,0-.44-.29,1.51,1.51,0,0,0-1.6.3,1.77,1.77,0,0,0-.48,1.07l-1.35-.13a2.8,2.8,0,0,1,1-1.8,2.93,2.93,0,0,1,1.95-.66,3.24,3.24,0,0,1,1,.17,2.49,2.49,0,0,1,.83.47,2.16,2.16,0,0,1,.56.77,2.44,2.44,0,0,1,.21,1,2.33,2.33,0,0,1-.15.87,2.31,2.31,0,0,1-.41.71l-.79.82-.13.12c-.14.13-.25.24-.34.34a1.21,1.21,0,0,0-.29.62,3,3,0,0,0,0,.46v.59ZM207.18,38a.87.87,0,0,1,.26-.62.88.88,0,0,1,1.23,0,.86.86,0,0,1,.25.62.84.84,0,0,1-.25.61.88.88,0,0,1-1.49-.61Z"/></svg>