<svg id="Layer_1" data-name="Layer 1" xmlns="http://www.w3.org/2000/svg" viewBox="0 0 360 538"><defs><style>.cls-1{fill:#f38020;}.cls-2{fill:#fff;}</style></defs><rect class="cls-1" width="360" height="538"/><path class="cls-2" d="M78.73,238.21H76.35v-.94h5.77v.94H79.74v6.46h-1Z"/><path class="cls-2" d="M83,236.77h.94v3.71h0a1.38,1.38,0,0,1,.62-.65,2.07,2.07,0,0,1,1-.24,2.26,2.26,0,0,1,.69.11,1.5,1.5,0,0,1,.57.34,1.69,1.69,0,0,1,.39.59,2.19,2.19,0,0,1,.15.85v3.19H86.4v-2.93a1.52,1.52,0,0,0-.1-.59,1.09,1.09,0,0,0-.25-.4.82.82,0,0,0-.36-.21,1.2,1.2,0,0,0-.42-.07,1.63,1.63,0,0,0-.55.09,1.05,1.05,0,0,0-.43.3,1.4,1.4,0,0,0-.3.52,2.32,2.32,0,0,0-.1.74v2.55H83Z"/><path class="cls-2" d="M88.61,237.94a.67.67,0,0,1,.21-.49.63.63,0,0,1,.48-.2.64.64,0,0,1,.49.2.66.66,0,0,1,.2.49.62.62,0,0,1-.2.48.67.67,0,0,1-1,0A.63.63,0,0,1,88.61,237.94Zm.22,1.77h1v5h-1Z"/><path class="cls-2" d="M91.27,239.71h.94v.77h0a1.43,1.43,0,0,1,.62-.65,2.07,2.07,0,0,1,1-.24,2.26,2.26,0,0,1,.69.11,1.5,1.5,0,0,1,.57.34,1.58,1.58,0,0,1,.4.59,2.4,2.4,0,0,1,.14.85v3.19h-.94v-2.93a1.74,1.74,0,0,0-.09-.59,1.44,1.44,0,0,0-.25-.4,1,1,0,0,0-.36-.21,1.25,1.25,0,0,0-.43-.07,1.61,1.61,0,0,0-.54.09,1,1,0,0,0-.44.3,1.38,1.38,0,0,0-.29.52,2.31,2.31,0,0,0-.11.74v2.55h-.94Z"/><path class="cls-2" d="M97.08,236.77h1v5.1l2.13-2.14h1.31L99.16,242l2.5,2.7h-1.33L98,242.1v2.57h-1Z"/><path class="cls-2" d="M106.16,240.32a2.59,2.59,0,0,1,.92-.55,3.21,3.21,0,0,1,1-.18,2.62,2.62,0,0,1,.94.14,1.79,1.79,0,0,1,.64.36,1.38,1.38,0,0,1,.37.53,1.47,1.47,0,0,1,.13.62v3c0,.15,0,.29,0,.42h-.84q0-.37,0-.75h0a1.83,1.83,0,0,1-.74.68,2.41,2.41,0,0,1-1,.2,2.07,2.07,0,0,1-.66-.1,1.51,1.51,0,0,1-.55-.28A1.43,1.43,0,0,1,106,244a1.41,1.41,0,0,1-.13-.64,1.42,1.42,0,0,1,.21-.8,1.52,1.52,0,0,1,.59-.53,2.41,2.41,0,0,1,.87-.29,5.9,5.9,0,0,1,1.06-.09h.69v-.21a1.05,1.05,0,0,0-.66-1,1.4,1.4,0,0,0-.53-.09,2.12,2.12,0,0,0-.47,0,2.64,2.64,0,0,0-.37.13,2.32,2.32,0,0,0-.31.19l-.26.2Zm2.65,2-.68,0a3.78,3.78,0,0,0-.64.14,1.19,1.19,0,0,0-.47.3.65.65,0,0,0-.18.48.68.68,0,0,0,.29.62,1.74,1.74,0,0,0,1.43,0,1.16,1.16,0,0,0,.44-.34,1.35,1.35,0,0,0,.24-.46,1.81,1.81,0,0,0,.08-.51v-.31Z"/><path class="cls-2" d="M111.56,236.77h1v3.66h0a1.64,1.64,0,0,1,.72-.62,2.28,2.28,0,0,1,1-.22,2.68,2.68,0,0,1,1,.2,2.24,2.24,0,0,1,.8.55,2.29,2.29,0,0,1,.5.82,3,3,0,0,1,0,2.06,2.29,2.29,0,0,1-.5.82,2.27,2.27,0,0,1-.8.56,2.68,2.68,0,0,1-1,.2,2.45,2.45,0,0,1-1-.22,1.8,1.8,0,0,1-.74-.62h0v.71h-1Zm2.58,7.15a1.87,1.87,0,0,0,.68-.13,1.57,1.57,0,0,0,.51-.36,1.46,1.46,0,0,0,.32-.54,2,2,0,0,0,.12-.7,1.92,1.92,0,0,0-.12-.69,1.43,1.43,0,0,0-.32-.55,1.54,1.54,0,0,0-.51-.35,1.68,1.68,0,0,0-.68-.13,1.65,1.65,0,0,0-.68.13,1.36,1.36,0,0,0-.51.35,1.58,1.58,0,0,0-.33.55,1.92,1.92,0,0,0-.11.69,2,2,0,0,0,.11.7,1.63,1.63,0,0,0,.33.54,1.38,1.38,0,0,0,.51.36A1.83,1.83,0,0,0,114.14,243.92Z"/><path class="cls-2" d="M117.71,242.19a2.44,2.44,0,0,1,.21-1,2.48,2.48,0,0,1,.56-.83,2.7,2.7,0,0,1,.83-.56,2.75,2.75,0,0,1,1-.2,2.7,2.7,0,0,1,1,.2,2.87,2.87,0,0,1,.84.56,2.64,2.64,0,0,1,.56.83,2.68,2.68,0,0,1,0,2,2.54,2.54,0,0,1-1.4,1.38,2.53,2.53,0,0,1-1,.21,2.58,2.58,0,0,1-1-.21,2.56,2.56,0,0,1-1.39-1.38A2.45,2.45,0,0,1,117.71,242.19Zm1,0a2,2,0,0,0,.11.7,1.63,1.63,0,0,0,.33.54,1.47,1.47,0,0,0,.51.36,1.83,1.83,0,0,0,.68.13,1.87,1.87,0,0,0,.68-.13,1.57,1.57,0,0,0,.51-.36,1.46,1.46,0,0,0,.32-.54,2,2,0,0,0,.12-.7,1.92,1.92,0,0,0-.12-.69,1.43,1.43,0,0,0-.32-.55,1.54,1.54,0,0,0-.51-.35,1.68,1.68,0,0,0-.68-.13,1.65,1.65,0,0,0-.68.13,1.45,1.45,0,0,0-.51.35,1.58,1.58,0,0,0-.33.55A1.92,1.92,0,0,0,118.72,242.19Z"/><path class="cls-2" d="M128.56,244.67h-.94v-.76h0a1.34,1.34,0,0,1-.61.64,2.08,2.08,0,0,1-1,.25,2.26,2.26,0,0,1-.69-.11,1.84,1.84,0,0,1-.57-.34,1.79,1.79,0,0,1-.39-.59,2.24,2.24,0,0,1-.15-.86v-3.19h1v2.93a1.7,1.7,0,0,0,.09.59,1.05,1.05,0,0,0,.25.4,1.13,1.13,0,0,0,.36.22,1.25,1.25,0,0,0,.43.07,1.4,1.4,0,0,0,.54-.1,1.17,1.17,0,0,0,.44-.29,1.53,1.53,0,0,0,.29-.52,2.35,2.35,0,0,0,.11-.74v-2.56h.94Z"/><path class="cls-2" d="M132.63,240.53h-1.34v2.25c0,.14,0,.28,0,.41a1.06,1.06,0,0,0,.07.37.67.67,0,0,0,.21.26.73.73,0,0,0,.42.1l.34,0a.93.93,0,0,0,.33-.12v.86a1.27,1.27,0,0,1-.44.13l-.41,0a1.77,1.77,0,0,1-.84-.16,1,1,0,0,1-.44-.39,1.23,1.23,0,0,1-.17-.54,5.74,5.74,0,0,1,0-.6v-2.58h-1.08v-.82h1.08v-1.39h.95v1.39h1.34Z"/><path class="cls-2" d="M137.47,236.77h.94v3.71h0a1.36,1.36,0,0,1,.61-.65,2.11,2.11,0,0,1,1-.24,2.25,2.25,0,0,1,.68.11,1.62,1.62,0,0,1,.58.34,1.69,1.69,0,0,1,.39.59,2.19,2.19,0,0,1,.15.85v3.19h-1v-2.93a1.74,1.74,0,0,0-.09-.59,1.24,1.24,0,0,0-.25-.4,1,1,0,0,0-.36-.21,1.25,1.25,0,0,0-.43-.07,1.61,1.61,0,0,0-.54.09,1.08,1.08,0,0,0-.44.3,1.53,1.53,0,0,0-.29.52,2.31,2.31,0,0,0-.11.74v2.55h-.94Z"/><path class="cls-2" d="M143.05,242.19a2.43,2.43,0,0,1,.2-1,2.64,2.64,0,0,1,.56-.83,2.87,2.87,0,0,1,.84-.56,2.7,2.7,0,0,1,1-.2,2.75,2.75,0,0,1,1,.2,2.7,2.7,0,0,1,.83.56,2.48,2.48,0,0,1,.56.83,2.56,2.56,0,0,1,0,2,2.56,2.56,0,0,1-1.39,1.38,2.58,2.58,0,0,1-1,.21,2.53,2.53,0,0,1-1-.21,2.54,2.54,0,0,1-1.4-1.38A2.44,2.44,0,0,1,143.05,242.19Zm1,0a2,2,0,0,0,.12.7,1.46,1.46,0,0,0,.32.54,1.57,1.57,0,0,0,.51.36,1.84,1.84,0,0,0,1.36,0,1.57,1.57,0,0,0,.51-.36,1.63,1.63,0,0,0,.33-.54,2.23,2.23,0,0,0,.11-.7,2.17,2.17,0,0,0-.11-.69,1.58,1.58,0,0,0-.33-.55,1.54,1.54,0,0,0-.51-.35,1.84,1.84,0,0,0-1.36,0,1.54,1.54,0,0,0-.51.35,1.43,1.43,0,0,0-.32.55A1.92,1.92,0,0,0,144.05,242.19Z"/><path class="cls-2" d="M148.9,239.71H150l1.11,3.71h0l1.19-3.71h1l1.26,3.71h0l1.06-3.71h1l-1.6,5h-1l-1.31-3.7h0l-1.19,3.7h-1Z"/><path class="cls-2" d="M160.48,239.71h1.08l1.47,3.87h0l1.41-3.87h1l-2.35,6c-.08.21-.17.41-.26.59a1.72,1.72,0,0,1-.32.45,1.31,1.31,0,0,1-.46.3,1.74,1.74,0,0,1-.65.1l-.42,0a1.19,1.19,0,0,1-.41-.11l.11-.85a1.65,1.65,0,0,0,.57.11,1.06,1.06,0,0,0,.37-.06.71.71,0,0,0,.26-.16,1.2,1.2,0,0,0,.18-.26l.14-.33.31-.79Z"/><path class="cls-2" d="M166.05,242.19a2.6,2.6,0,0,1,.2-1,2.82,2.82,0,0,1,.56-.83,2.87,2.87,0,0,1,.84-.56,2.78,2.78,0,0,1,2.07,0,2.87,2.87,0,0,1,.84.56,2.82,2.82,0,0,1,.56.83,2.68,2.68,0,0,1,0,2,2.82,2.82,0,0,1-.56.83,2.66,2.66,0,0,1-.84.55,2.66,2.66,0,0,1-2.07,0,2.66,2.66,0,0,1-.84-.55,2.82,2.82,0,0,1-.56-.83A2.61,2.61,0,0,1,166.05,242.19Zm1,0a2,2,0,0,0,.12.7,1.46,1.46,0,0,0,.32.54,1.57,1.57,0,0,0,.51.36,1.87,1.87,0,0,0,.68.13,1.79,1.79,0,0,0,.68-.13,1.51,1.51,0,0,0,.52-.36,1.61,1.61,0,0,0,.32-.54,2,2,0,0,0,.12-.7,1.92,1.92,0,0,0-.12-.69,1.56,1.56,0,0,0-.32-.55,1.49,1.49,0,0,0-.52-.35,1.62,1.62,0,0,0-.68-.13,1.68,1.68,0,0,0-.68.13,1.54,1.54,0,0,0-.51.35,1.43,1.43,0,0,0-.32.55A1.92,1.92,0,0,0,167.05,242.19Z"/><path class="cls-2" d="M176.89,244.67H176v-.76h0a1.37,1.37,0,0,1-.62.64,2.07,2.07,0,0,1-1,.25,2.22,2.22,0,0,1-.69-.11,1.54,1.54,0,0,1-1-.93,2.24,2.24,0,0,1-.15-.86v-3.19h.94v2.93a1.49,1.49,0,0,0,.1.59,1,1,0,0,0,.61.62,1.16,1.16,0,0,0,.42.07,1.42,1.42,0,0,0,.55-.1,1.13,1.13,0,0,0,.43-.29,1.4,1.4,0,0,0,.3-.52,2.37,2.37,0,0,0,.1-.74v-2.56h.94Z"/><path class="cls-2" d="M181.79,237.94a.67.67,0,0,1,.21-.49.63.63,0,0,1,.48-.2.68.68,0,0,1,.69.69.62.62,0,0,1-.2.48.67.67,0,0,1-.49.21.64.64,0,0,1-.48-.21A.63.63,0,0,1,181.79,237.94Zm.22,1.77H183v5H182Z"/><path class="cls-2" d="M184.45,239.71h.88v.78h0a.7.7,0,0,1,.16-.26,1.43,1.43,0,0,1,.34-.3,1.54,1.54,0,0,1,.48-.24,1.7,1.7,0,0,1,.61-.1,1.78,1.78,0,0,1,.93.23,1.68,1.68,0,0,1,.62.69,1.52,1.52,0,0,1,.68-.69,1.89,1.89,0,0,1,.88-.23,2,2,0,0,1,.95.19,1.52,1.52,0,0,1,.57.49,1.89,1.89,0,0,1,.29.7,4.45,4.45,0,0,1,.08.81v2.89H191v-2.76a4.56,4.56,0,0,0,0-.54,1.25,1.25,0,0,0-.15-.46.85.85,0,0,0-.33-.32,1.33,1.33,0,0,0-1.52.3,1.76,1.76,0,0,0-.3,1.07v2.71h-.94v-2.59a6.32,6.32,0,0,0,0-.65,1.8,1.8,0,0,0-.15-.51.82.82,0,0,0-.31-.33,1.09,1.09,0,0,0-.55-.12,1.19,1.19,0,0,0-.49.1,1.06,1.06,0,0,0-.41.29,1.56,1.56,0,0,0-.28.51,2.29,2.29,0,0,0-.11.73v2.57h-.94Z"/><path class="cls-2" d="M193.36,239.71h.94v.72h0a1.77,1.77,0,0,1,.75-.62,2.26,2.26,0,0,1,1-.22,2.68,2.68,0,0,1,1,.2,2.34,2.34,0,0,1,.79.55,2.62,2.62,0,0,1,.51.83,3,3,0,0,1,0,2.05,2.41,2.41,0,0,1-.51.83,2.34,2.34,0,0,1-.79.55,2.68,2.68,0,0,1-1,.2,2.33,2.33,0,0,1-1-.23,1.73,1.73,0,0,1-.72-.61h0v3.66h-.94Zm2.57.76a1.65,1.65,0,0,0-.68.13,1.54,1.54,0,0,0-.51.35,1.43,1.43,0,0,0-.32.55,1.92,1.92,0,0,0-.12.69,2,2,0,0,0,.12.7,1.46,1.46,0,0,0,.32.54,1.57,1.57,0,0,0,.51.36,1.84,1.84,0,0,0,1.36,0,1.57,1.57,0,0,0,.51-.36,1.63,1.63,0,0,0,.33-.54,2.23,2.23,0,0,0,.11-.7,2.17,2.17,0,0,0-.11-.69,1.58,1.58,0,0,0-.33-.55,1.54,1.54,0,0,0-.51-.35A1.65,1.65,0,0,0,195.93,240.47Z"/><path class="cls-2" d="M199.77,240.32a2.59,2.59,0,0,1,.92-.55,3.22,3.22,0,0,1,1.05-.18,2.6,2.6,0,0,1,.93.14,1.79,1.79,0,0,1,.64.36,1.52,1.52,0,0,1,.38.53,1.63,1.63,0,0,1,.12.62v2.53c0,.18,0,.34,0,.48a2.77,2.77,0,0,0,0,.42H203q0-.37,0-.75h0a1.83,1.83,0,0,1-.74.68,2.41,2.41,0,0,1-1,.2,2.07,2.07,0,0,1-.66-.1,1.51,1.51,0,0,1-.55-.28,1.43,1.43,0,0,1-.37-.47,1.41,1.41,0,0,1-.13-.64,1.42,1.42,0,0,1,.21-.8,1.59,1.59,0,0,1,.59-.53,2.41,2.41,0,0,1,.87-.29,5.9,5.9,0,0,1,1.06-.09h.69v-.21a1.05,1.05,0,0,0-.66-1,1.4,1.4,0,0,0-.53-.09,2.19,2.19,0,0,0-.47,0,2.64,2.64,0,0,0-.37.13l-.31.19-.26.2Zm2.65,2-.68,0a3.78,3.78,0,0,0-.64.14,1.19,1.19,0,0,0-.47.3.65.65,0,0,0-.18.48.68.68,0,0,0,.29.62,1.74,1.74,0,0,0,1.43,0,1.09,1.09,0,0,0,.44-.34,1.35,1.35,0,0,0,.24-.46,1.81,1.81,0,0,0,.08-.51v-.31Z"/><path class="cls-2" d="M208.72,241a2,2,0,0,0-.55-.41,1.72,1.72,0,0,0-1.36,0,1.29,1.29,0,0,0-.48.39,1.57,1.57,0,0,0-.29.56,2.13,2.13,0,0,0,0,1.32,1.87,1.87,0,0,0,.33.54,1.53,1.53,0,0,0,.5.36,1.69,1.69,0,0,0,.66.13,1.59,1.59,0,0,0,.68-.14,1.69,1.69,0,0,0,.52-.42l.67.67a2.14,2.14,0,0,1-.85.59,3,3,0,0,1-1,.18,2.89,2.89,0,0,1-1.05-.19,2.38,2.38,0,0,1-1.36-1.35,2.89,2.89,0,0,1-.19-1,3,3,0,0,1,.19-1.05,2.36,2.36,0,0,1,1.35-1.37,2.74,2.74,0,0,1,1.06-.19,2.82,2.82,0,0,1,1,.19,2.32,2.32,0,0,1,.86.59Z"/><path class="cls-2" d="M212.87,240.53h-1.35v2.25c0,.14,0,.28,0,.41a1.34,1.34,0,0,0,.08.37.59.59,0,0,0,.62.36l.35,0a.88.88,0,0,0,.32-.12v.86a1.15,1.15,0,0,1-.43.13l-.41,0a1.79,1.79,0,0,1-.85-.16,1.05,1.05,0,0,1-.44-.39,1.22,1.22,0,0,1-.16-.54,5.74,5.74,0,0,1,0-.6v-2.58h-1.09v-.82h1.09v-1.39h.94v1.39h1.35Z"/><path class="cls-2" d="M220.37,240.53H219v2.25c0,.14,0,.28,0,.41a.87.87,0,0,0,.08.37.53.53,0,0,0,.21.26.67.67,0,0,0,.41.1l.34,0a.93.93,0,0,0,.33-.12v.86a1.21,1.21,0,0,1-.44.13l-.41,0a1.77,1.77,0,0,1-.84-.16,1,1,0,0,1-.44-.39,1.37,1.37,0,0,1-.17-.54,5.82,5.82,0,0,1,0-.6v-2.58H217v-.82h1.09v-1.39H219v1.39h1.35Z"/><path class="cls-2" d="M221.58,236.77h.94v3.71h0a1.43,1.43,0,0,1,.62-.65,2.07,2.07,0,0,1,1-.24,2.26,2.26,0,0,1,.69.11,1.5,1.5,0,0,1,.57.34,1.45,1.45,0,0,1,.39.59,2.19,2.19,0,0,1,.15.85v3.19H225v-2.93a1.74,1.74,0,0,0-.09-.59,1.26,1.26,0,0,0-.26-.4.82.82,0,0,0-.36-.21,1.16,1.16,0,0,0-.42-.07,1.53,1.53,0,0,0-.54.09,1,1,0,0,0-.44.3,1.4,1.4,0,0,0-.3.52,2.32,2.32,0,0,0-.1.74v2.55h-.94Z"/><path class="cls-2" d="M228.1,242.54a1.31,1.31,0,0,0,.14.59,1.38,1.38,0,0,0,.38.45,1.62,1.62,0,0,0,.53.3,1.89,1.89,0,0,0,.63.1,1.46,1.46,0,0,0,.76-.2,2.74,2.74,0,0,0,.6-.54l.71.54a2.63,2.63,0,0,1-2.2,1,2.78,2.78,0,0,1-1.06-.2,2.33,2.33,0,0,1-.81-.55,2.56,2.56,0,0,1-.5-.83,2.86,2.86,0,0,1-.18-1,2.7,2.7,0,0,1,.19-1,2.54,2.54,0,0,1,.54-.82,2.2,2.2,0,0,1,.81-.55,2.61,2.61,0,0,1,1-.2,2.54,2.54,0,0,1,1.12.23,2.09,2.09,0,0,1,.74.6,2.39,2.39,0,0,1,.43.84,3.74,3.74,0,0,1,.13.94v.34Zm3-.76a1.75,1.75,0,0,0-.1-.57,1.15,1.15,0,0,0-.71-.76,1.67,1.67,0,0,0-.62-.11,1.61,1.61,0,0,0-.63.13,1.59,1.59,0,0,0-.49.34,1.82,1.82,0,0,0-.31.47,1.33,1.33,0,0,0-.11.5Z"/><path class="cls-2" d="M236.24,239.71h1l1.12,3.71h0l1.18-3.71h1l1.25,3.71h0l1.06-3.71h1l-1.6,5h-.95l-1.31-3.7h0l-1.2,3.7h-1Z"/><path class="cls-2" d="M244.53,242.19a2.6,2.6,0,0,1,.2-1,2.82,2.82,0,0,1,.56-.83,2.87,2.87,0,0,1,.84-.56,2.7,2.7,0,0,1,1-.2,2.75,2.75,0,0,1,1,.2,2.87,2.87,0,0,1,.84.56,2.82,2.82,0,0,1,.56.83,2.68,2.68,0,0,1,0,2,2.82,2.82,0,0,1-.56.83,2.66,2.66,0,0,1-.84.55,2.58,2.58,0,0,1-1,.21,2.53,2.53,0,0,1-1-.21,2.66,2.66,0,0,1-.84-.55,2.82,2.82,0,0,1-.56-.83A2.61,2.61,0,0,1,244.53,242.19Zm1,0a2,2,0,0,0,.12.7,1.46,1.46,0,0,0,.32.54,1.57,1.57,0,0,0,.51.36,1.87,1.87,0,0,0,.68.13,1.83,1.83,0,0,0,.68-.13,1.51,1.51,0,0,0,.52-.36,1.61,1.61,0,0,0,.32-.54,2,2,0,0,0,.12-.7,1.92,1.92,0,0,0-.12-.69,1.56,1.56,0,0,0-.32-.55,1.49,1.49,0,0,0-.52-.35,1.65,1.65,0,0,0-.68-.13,1.68,1.68,0,0,0-.68.13,1.54,1.54,0,0,0-.51.35,1.43,1.43,0,0,0-.32.55A1.92,1.92,0,0,0,245.53,242.19Z"/><path class="cls-2" d="M251,239.71h.94v.77h0a1.45,1.45,0,0,1,.25-.36,1.87,1.87,0,0,1,.35-.28,1.5,1.5,0,0,1,.43-.18,1.52,1.52,0,0,1,.88,0l0,1-.23-.06-.23,0a1.36,1.36,0,0,0-1.05.39,1.68,1.68,0,0,0-.37,1.2v2.49H251Z"/><path class="cls-2" d="M254.92,236.77h.94v7.9h-.94Z"/><path class="cls-2" d="M262.33,244.67h-.94V244h0a1.8,1.8,0,0,1-.74.62,2.45,2.45,0,0,1-1,.22,2.68,2.68,0,0,1-1-.2,2.27,2.27,0,0,1-.8-.56,2.29,2.29,0,0,1-.5-.82,3,3,0,0,1,0-2.06,2.29,2.29,0,0,1,.5-.82,2.24,2.24,0,0,1,.8-.55,2.68,2.68,0,0,1,1-.2,2.28,2.28,0,0,1,1,.22,1.64,1.64,0,0,1,.72.62h0v-3.66h.94Zm-2.58-.75a1.83,1.83,0,0,0,.68-.13,1.51,1.51,0,0,0,.52-.36,1.61,1.61,0,0,0,.32-.54,2,2,0,0,0,.12-.7,1.92,1.92,0,0,0-.12-.69A1.56,1.56,0,0,0,261,241a1.49,1.49,0,0,0-.52-.35,1.65,1.65,0,0,0-.68-.13,1.68,1.68,0,0,0-.68.13,1.54,1.54,0,0,0-.51.35,1.43,1.43,0,0,0-.32.55,1.92,1.92,0,0,0-.12.69,2,2,0,0,0,.12.7,1.46,1.46,0,0,0,.32.54,1.57,1.57,0,0,0,.51.36A1.87,1.87,0,0,0,259.75,243.92Z"/><path class="cls-2" d="M267.4,240.32a2.59,2.59,0,0,1,.92-.55,3.12,3.12,0,0,1,1-.18,2.7,2.7,0,0,1,.94.14,1.88,1.88,0,0,1,.64.36,1.38,1.38,0,0,1,.37.53,1.63,1.63,0,0,1,.12.62v2.53c0,.18,0,.34,0,.48s0,.29,0,.42h-.83q0-.37,0-.75h0a1.77,1.77,0,0,1-.74.68,2.36,2.36,0,0,1-1,.2,2.07,2.07,0,0,1-.66-.1,1.51,1.51,0,0,1-.55-.28,1.31,1.31,0,0,1-.37-.47,1.41,1.41,0,0,1-.14-.64,1.35,1.35,0,0,1,.22-.8,1.56,1.56,0,0,1,.58-.53,2.55,2.55,0,0,1,.87-.29,6,6,0,0,1,1.06-.09h.69v-.21a1,1,0,0,0-.07-.38,1,1,0,0,0-.22-.34,1.08,1.08,0,0,0-.37-.24,1.35,1.35,0,0,0-.52-.09,2.12,2.12,0,0,0-.47,0l-.38.13a2.2,2.2,0,0,0-.3.19l-.26.2Zm2.65,2-.68,0a3.58,3.58,0,0,0-.64.14,1.19,1.19,0,0,0-.47.3.66.66,0,0,0-.19.48.7.7,0,0,0,.29.62,1.76,1.76,0,0,0,1.44,0,1.16,1.16,0,0,0,.44-.34,1.35,1.35,0,0,0,.24-.46,1.79,1.79,0,0,0,.07-.51v-.31Z"/><path class="cls-2" d="M272.8,239.71h.94v.77h0a1.43,1.43,0,0,1,.62-.65,2.07,2.07,0,0,1,1-.24,2.26,2.26,0,0,1,.69.11,1.5,1.5,0,0,1,.57.34,1.58,1.58,0,0,1,.4.59,2.4,2.4,0,0,1,.14.85v3.19h-.94v-2.93a1.74,1.74,0,0,0-.09-.59,1.44,1.44,0,0,0-.25-.4,1,1,0,0,0-.36-.21,1.25,1.25,0,0,0-.43-.07,1.61,1.61,0,0,0-.54.09,1,1,0,0,0-.44.3,1.38,1.38,0,0,0-.29.52,2.31,2.31,0,0,0-.11.74v2.55h-.94Z"/><path class="cls-2" d="M283.58,244.67h-.94V244h0a1.77,1.77,0,0,1-.75.62,2.38,2.38,0,0,1-1,.22,2.68,2.68,0,0,1-1-.2,2.23,2.23,0,0,1-.79-.56,2.47,2.47,0,0,1-.51-.82,3,3,0,0,1,0-2.06,2.47,2.47,0,0,1,.51-.82,2.21,2.21,0,0,1,.79-.55,2.68,2.68,0,0,1,1-.2,2.33,2.33,0,0,1,1,.22,1.75,1.75,0,0,1,.72.62h0v-3.66h.94Zm-2.57-.75a1.83,1.83,0,0,0,.68-.13,1.57,1.57,0,0,0,.51-.36,1.63,1.63,0,0,0,.33-.54,2.23,2.23,0,0,0,.11-.7,2.17,2.17,0,0,0-.11-.69,1.58,1.58,0,0,0-.33-.55,1.54,1.54,0,0,0-.51-.35,1.84,1.84,0,0,0-1.36,0,1.54,1.54,0,0,0-.51.35,1.58,1.58,0,0,0-.33.55,2.17,2.17,0,0,0-.11.69,2.23,2.23,0,0,0,.11.7,1.63,1.63,0,0,0,.33.54,1.57,1.57,0,0,0,.51.36A1.83,1.83,0,0,0,281,243.92Z"/><path class="cls-2" d="M76.35,252.26h1.06l1.11,3.7h0l1.19-3.7h1L82,256h0l1-3.7h1l-1.6,5h-1l-1.31-3.7h0l-1.2,3.7H78Z"/><path class="cls-2" d="M85.59,255.09a1.31,1.31,0,0,0,.14.59,1.5,1.5,0,0,0,.38.45,1.44,1.44,0,0,0,.53.29,1.9,1.9,0,0,0,.63.11,1.46,1.46,0,0,0,.76-.2,2.7,2.7,0,0,0,.59-.54l.72.54a2.62,2.62,0,0,1-2.2,1,2.78,2.78,0,0,1-1.06-.19,2.27,2.27,0,0,1-1.31-1.38,2.9,2.9,0,0,1-.18-1,2.7,2.7,0,0,1,.19-1,2.59,2.59,0,0,1,.54-.83,2.3,2.3,0,0,1,.81-.54,2.44,2.44,0,0,1,1-.2,2.34,2.34,0,0,1,1.11.23,2,2,0,0,1,.75.6,2.39,2.39,0,0,1,.43.84,3.74,3.74,0,0,1,.13.94v.34Zm3-.76a1.7,1.7,0,0,0-.1-.57,1.23,1.23,0,0,0-.26-.46,1.19,1.19,0,0,0-.45-.3,1.67,1.67,0,0,0-.62-.11,1.45,1.45,0,0,0-.63.13,1.59,1.59,0,0,0-.49.34,1.82,1.82,0,0,0-.31.47,1.33,1.33,0,0,0-.11.5Z"/><path class="cls-2" d="M91.43,252.39h-.86l.72-2.57h1Z"/><path class="cls-2" d="M93.68,249.31h.94v7.91h-.94Z"/><path class="cls-2" d="M96.19,249.31h.94v7.91h-.94Z"/><path class="cls-2" d="M109.33,257.18a2.66,2.66,0,0,1-.2,1,2.24,2.24,0,0,1-.55.8,2.31,2.31,0,0,1-.85.53,3.08,3.08,0,0,1-1.11.19,4.08,4.08,0,0,1-1.3-.2,3.08,3.08,0,0,1-1.13-.69l.64-.79a2.67,2.67,0,0,0,.8.6,2.3,2.3,0,0,0,1,.2,2.19,2.19,0,0,0,.87-.15,1.4,1.4,0,0,0,.54-.39,1.33,1.33,0,0,0,.29-.55,2.27,2.27,0,0,0,.09-.62v-.74h0a1.69,1.69,0,0,1-.73.67,2.37,2.37,0,0,1-1,.21,2.59,2.59,0,0,1-1-.19,2.48,2.48,0,0,1-.8-.53,2.45,2.45,0,0,1-.52-.81,2.59,2.59,0,0,1-.19-1,2.88,2.88,0,0,1,.18-1,2.49,2.49,0,0,1,.5-.83,2.24,2.24,0,0,1,.8-.55,2.51,2.51,0,0,1,1-.2,2.29,2.29,0,0,1,1,.22,1.88,1.88,0,0,1,.75.61h0v-.71h.94ZM106.75,253a1.68,1.68,0,0,0-.68.13,1.41,1.41,0,0,0-.51.35,1.56,1.56,0,0,0-.32.55,1.92,1.92,0,0,0-.12.69,1.68,1.68,0,0,0,.44,1.21,1.81,1.81,0,0,0,2.39,0,1.68,1.68,0,0,0,.44-1.21,1.92,1.92,0,0,0-.12-.69,1.56,1.56,0,0,0-.32-.55,1.37,1.37,0,0,0-.52-.35A1.62,1.62,0,0,0,106.75,253Z"/><path class="cls-2" d="M111.46,255.09a1.31,1.31,0,0,0,.14.59,1.62,1.62,0,0,0,.37.45,1.48,1.48,0,0,0,.54.29,1.88,1.88,0,0,0,.62.11,1.47,1.47,0,0,0,.77-.2,2.7,2.7,0,0,0,.59-.54l.71.54a2.59,2.59,0,0,1-2.19,1,2.74,2.74,0,0,1-1.06-.19,2.47,2.47,0,0,1-.81-.55,2.51,2.51,0,0,1-.51-.83,3.13,3.13,0,0,1-.17-1,2.7,2.7,0,0,1,.19-1,2.74,2.74,0,0,1,.53-.83,2.57,2.57,0,0,1,1.84-.74,2.34,2.34,0,0,1,1.11.23,2.12,2.12,0,0,1,.75.6,2.37,2.37,0,0,1,.42.84,3.33,3.33,0,0,1,.13.94v.34Zm3-.76a2,2,0,0,0-.1-.57,1.24,1.24,0,0,0-.27-.46,1.08,1.08,0,0,0-.44-.3,1.71,1.71,0,0,0-.62-.11,1.5,1.5,0,0,0-1.12.47,1.6,1.6,0,0,0-.31.47,1.33,1.33,0,0,0-.11.5Z"/><path class="cls-2" d="M119.22,253.08h-1.35v2.25c0,.14,0,.27,0,.41a1.06,1.06,0,0,0,.08.37.58.58,0,0,0,.21.26.75.75,0,0,0,.41.1l.35,0a1.24,1.24,0,0,0,.32-.12v.86a1.46,1.46,0,0,1-.43.13l-.42,0a1.91,1.91,0,0,1-.84-.15,1.05,1.05,0,0,1-.44-.39,1.22,1.22,0,0,1-.16-.54q0-.3,0-.6v-2.58h-1.09v-.82h1.09v-1.39h.94v1.39h1.35Z"/><path class="cls-2" d="M126.17,249.31h.94V253h0a1.81,1.81,0,0,1,.72-.61,2.33,2.33,0,0,1,1-.22,2.51,2.51,0,0,1,1,.2,2.31,2.31,0,0,1,.79.54,2.51,2.51,0,0,1,.51.83,3,3,0,0,1,0,2.06,2.47,2.47,0,0,1-.51.82,2.36,2.36,0,0,1-.79.56,2.68,2.68,0,0,1-1,.19,2.4,2.4,0,0,1-1-.21,1.85,1.85,0,0,1-.75-.62h0v.71h-.94Zm2.57,7.16a1.83,1.83,0,0,0,.68-.13,1.61,1.61,0,0,0,.52-.36,1.8,1.8,0,0,0,.32-.54,2,2,0,0,0,.11-.7,1.92,1.92,0,0,0-.11-.69,1.73,1.73,0,0,0-.32-.55,1.45,1.45,0,0,0-.52-.35,1.65,1.65,0,0,0-.68-.13,1.68,1.68,0,0,0-.68.13,1.41,1.41,0,0,0-.51.35,1.43,1.43,0,0,0-.32.55,1.92,1.92,0,0,0-.12.69,2,2,0,0,0,.12.7,1.46,1.46,0,0,0,.32.54,1.57,1.57,0,0,0,.51.36A1.87,1.87,0,0,0,128.74,256.47Z"/><path class="cls-2" d="M132.58,252.87a2.69,2.69,0,0,1,.92-.55,3.22,3.22,0,0,1,1.05-.18,2.86,2.86,0,0,1,.93.13,1.8,1.8,0,0,1,.64.37,1.41,1.41,0,0,1,.38.53,1.63,1.63,0,0,1,.12.62v2.53c0,.17,0,.33,0,.48a2.77,2.77,0,0,0,0,.42h-.84q0-.37,0-.75h0a1.9,1.9,0,0,1-.74.68,2.62,2.62,0,0,1-1.66.1,1.63,1.63,0,0,1-.54-.28,1.46,1.46,0,0,1-.38-.47,1.44,1.44,0,0,1-.13-.64,1.48,1.48,0,0,1,.21-.81,1.66,1.66,0,0,1,.59-.52,2.79,2.79,0,0,1,.87-.3,5.93,5.93,0,0,1,1.06-.08h.69v-.21a1,1,0,0,0-.08-.38.92.92,0,0,0-.21-.34,1.08,1.08,0,0,0-.37-.24,1.38,1.38,0,0,0-.52-.09,2.28,2.28,0,0,0-.48.05,3.19,3.19,0,0,0-.37.13,2.2,2.2,0,0,0-.3.19l-.26.2Zm2.66,2q-.35,0-.69,0a3.15,3.15,0,0,0-.64.14,1.27,1.27,0,0,0-.47.3.65.65,0,0,0-.18.48.68.68,0,0,0,.29.61,1.36,1.36,0,0,0,.78.19,1.53,1.53,0,0,0,.66-.13,1.23,1.23,0,0,0,.43-.34,1.07,1.07,0,0,0,.24-.46,1.81,1.81,0,0,0,.08-.51v-.31Z"/><path class="cls-2" d="M141.53,253.58a1.88,1.88,0,0,0-.55-.41,1.72,1.72,0,0,0-1.36,0,1.37,1.37,0,0,0-.48.38,1.71,1.71,0,0,0-.29.57,2.07,2.07,0,0,0-.1.66,1.84,1.84,0,0,0,.12.66,1.52,1.52,0,0,0,.82.9,1.76,1.76,0,0,0,.66.13,1.59,1.59,0,0,0,.68-.14,1.85,1.85,0,0,0,.52-.42l.67.67a2.14,2.14,0,0,1-.85.59,3.18,3.18,0,0,1-2.08,0,2.38,2.38,0,0,1-1.36-1.35,2.89,2.89,0,0,1-.18-1.05,3,3,0,0,1,.18-1,2.62,2.62,0,0,1,.53-.83,2.44,2.44,0,0,1,.82-.54,2.74,2.74,0,0,1,1.06-.19,2.82,2.82,0,0,1,1,.19,2.32,2.32,0,0,1,.86.59Z"/><path class="cls-2" d="M143,249.31H144v5.11l2.13-2.15h1.31l-2.31,2.25,2.51,2.7h-1.34l-2.3-2.57v2.57H143Z"/><path class="cls-2" d="M156.85,253.08H155.5v2.25c0,.14,0,.27,0,.41a1.06,1.06,0,0,0,.08.37.58.58,0,0,0,.21.26.75.75,0,0,0,.41.1l.35,0a1.24,1.24,0,0,0,.32-.12v.86a1.46,1.46,0,0,1-.43.13l-.42,0a1.91,1.91,0,0,1-.84-.15,1.05,1.05,0,0,1-.44-.39,1.37,1.37,0,0,1-.17-.54c0-.2,0-.4,0-.6v-2.58h-1.09v-.82h1.09v-1.39h.94v1.39h1.35Z"/><path class="cls-2" d="M157.82,254.74a2.6,2.6,0,0,1,.2-1,2.82,2.82,0,0,1,.56-.83,2.69,2.69,0,0,1,.84-.56,2.78,2.78,0,0,1,2.07,0,2.69,2.69,0,0,1,.84.56,2.82,2.82,0,0,1,.56.83,2.6,2.6,0,0,1,.2,1,2.69,2.69,0,0,1-.2,1,2.54,2.54,0,0,1-1.4,1.38,2.78,2.78,0,0,1-2.07,0,2.54,2.54,0,0,1-1.4-1.38A2.69,2.69,0,0,1,157.82,254.74Zm1,0a2,2,0,0,0,.12.7,1.61,1.61,0,0,0,.32.54,1.51,1.51,0,0,0,.52.36,1.82,1.82,0,0,0,1.35,0,1.51,1.51,0,0,0,.52-.36,1.61,1.61,0,0,0,.32-.54,2,2,0,0,0,.12-.7,1.92,1.92,0,0,0-.12-.69,1.56,1.56,0,0,0-.32-.55,1.37,1.37,0,0,0-.52-.35,1.82,1.82,0,0,0-1.35,0,1.37,1.37,0,0,0-.52.35,1.56,1.56,0,0,0-.32.55A1.92,1.92,0,0,0,158.82,254.74Z"/><path class="cls-2" d="M169.42,252.26h1.09l1.47,3.87h0l1.41-3.87h1l-2.35,6c-.08.21-.17.41-.26.59a1.91,1.91,0,0,1-.32.45,1.29,1.29,0,0,1-.46.29,1.73,1.73,0,0,1-.65.11,3,3,0,0,1-.42,0,1.19,1.19,0,0,1-.41-.11l.11-.85a1.65,1.65,0,0,0,.57.11,1,1,0,0,0,.36-.06.76.76,0,0,0,.26-.16,1,1,0,0,0,.19-.26l.14-.34.31-.78Z"/><path class="cls-2" d="M175,254.74a2.6,2.6,0,0,1,.2-1,2.82,2.82,0,0,1,.56-.83,2.62,2.62,0,0,1,1.87-.76,2.75,2.75,0,0,1,1,.2,2.69,2.69,0,0,1,.84.56,2.82,2.82,0,0,1,.56.83,2.6,2.6,0,0,1,.2,1,2.69,2.69,0,0,1-.2,1,2.54,2.54,0,0,1-1.4,1.38,2.57,2.57,0,0,1-1,.2,2.52,2.52,0,0,1-1-.2,2.54,2.54,0,0,1-1.4-1.38A2.69,2.69,0,0,1,175,254.74Zm1,0a2,2,0,0,0,.12.7,1.46,1.46,0,0,0,.32.54,1.57,1.57,0,0,0,.51.36,1.87,1.87,0,0,0,.68.13,1.83,1.83,0,0,0,.68-.13,1.51,1.51,0,0,0,.52-.36,1.61,1.61,0,0,0,.32-.54,2,2,0,0,0,.12-.7,1.92,1.92,0,0,0-.12-.69,1.56,1.56,0,0,0-.32-.55,1.37,1.37,0,0,0-.52-.35,1.65,1.65,0,0,0-.68-.13,1.68,1.68,0,0,0-.68.13,1.41,1.41,0,0,0-.51.35,1.43,1.43,0,0,0-.32.55A1.92,1.92,0,0,0,176,254.74Z"/><path class="cls-2" d="M185.84,257.22h-.94v-.76h0a1.37,1.37,0,0,1-.62.64,2.07,2.07,0,0,1-1,.24,1.92,1.92,0,0,1-.69-.11,1.47,1.47,0,0,1-.57-.33,1.56,1.56,0,0,1-.39-.6,2.19,2.19,0,0,1-.15-.85v-3.19h.94v2.93a1.49,1.49,0,0,0,.1.59,1,1,0,0,0,.61.62,1.42,1.42,0,0,0,.42.07,1.33,1.33,0,0,0,.54-.1,1,1,0,0,0,.44-.3,1.28,1.28,0,0,0,.3-.51,2.39,2.39,0,0,0,.1-.75v-2.55h.94Z"/><path class="cls-2" d="M192.76,254.74a2.44,2.44,0,0,1,.21-1,2.48,2.48,0,0,1,.56-.83,2.53,2.53,0,0,1,.83-.56,2.75,2.75,0,0,1,1-.2,2.62,2.62,0,0,1,1.87.76,2.64,2.64,0,0,1,.56.83,2.6,2.6,0,0,1,.2,1,2.69,2.69,0,0,1-.2,1,2.64,2.64,0,0,1-.56.83,2.84,2.84,0,0,1-.84.55,2.52,2.52,0,0,1-1,.2,2.57,2.57,0,0,1-1-.2,2.67,2.67,0,0,1-.83-.55,2.48,2.48,0,0,1-.56-.83A2.52,2.52,0,0,1,192.76,254.74Zm1,0a2,2,0,0,0,.11.7,1.8,1.8,0,0,0,.32.54,1.61,1.61,0,0,0,.52.36,1.83,1.83,0,0,0,.68.13,1.87,1.87,0,0,0,.68-.13,1.57,1.57,0,0,0,.51-.36,1.46,1.46,0,0,0,.32-.54,2,2,0,0,0,.12-.7,1.92,1.92,0,0,0-.12-.69,1.43,1.43,0,0,0-.32-.55,1.41,1.41,0,0,0-.51-.35,1.68,1.68,0,0,0-.68-.13,1.65,1.65,0,0,0-.68.13,1.45,1.45,0,0,0-.52.35,1.73,1.73,0,0,0-.32.55A1.92,1.92,0,0,0,193.77,254.74Z"/><path class="cls-2" d="M199.21,252.26h.95V253h0a1.36,1.36,0,0,1,.61-.65,2.11,2.11,0,0,1,1-.24,2,2,0,0,1,.68.11,1.48,1.48,0,0,1,.58.34,1.69,1.69,0,0,1,.39.59,2.19,2.19,0,0,1,.15.85v3.19h-1v-2.93a1.7,1.7,0,0,0-.09-.59,1,1,0,0,0-.61-.62,1.54,1.54,0,0,0-.43-.06,1.61,1.61,0,0,0-.54.09,1.08,1.08,0,0,0-.44.3,1.44,1.44,0,0,0-.29.52,2.28,2.28,0,0,0-.1.74v2.55h-.95Z"/><path class="cls-2" d="M213.42,253.08h-1.35v2.25c0,.14,0,.27,0,.41a1.34,1.34,0,0,0,.08.37.75.75,0,0,0,.21.26.77.77,0,0,0,.41.1,2.07,2.07,0,0,0,.35,0,1,1,0,0,0,.32-.12v.86a1.37,1.37,0,0,1-.43.13l-.41,0a1.85,1.85,0,0,1-.84-.15,1,1,0,0,1-.44-.39,1.23,1.23,0,0,1-.17-.54q0-.3,0-.6v-2.58H210v-.82h1.09v-1.39h.94v1.39h1.35Z"/><path class="cls-2" d="M214.64,249.31h.94V253h0a1.41,1.41,0,0,1,.61-.65,2.13,2.13,0,0,1,1-.24,1.94,1.94,0,0,1,.68.11,1.48,1.48,0,0,1,.58.34,1.69,1.69,0,0,1,.39.59,2.19,2.19,0,0,1,.15.85v3.19h-.94v-2.93a1.49,1.49,0,0,0-.1-.59,1,1,0,0,0-.25-.4,1,1,0,0,0-.36-.22A1.52,1.52,0,0,0,217,253a1.63,1.63,0,0,0-.55.09,1.15,1.15,0,0,0-.44.3,1.44,1.44,0,0,0-.29.52,2.28,2.28,0,0,0-.1.74v2.55h-.94Z"/><path class="cls-2" d="M220.3,250.49a.65.65,0,0,1,.21-.49.63.63,0,0,1,.48-.21.67.67,0,0,1,.49.21.64.64,0,0,1,.2.49.63.63,0,0,1-.2.48.67.67,0,0,1-.49.21.63.63,0,0,1-.48-.21A.64.64,0,0,1,220.3,250.49Zm.22,1.77h.94v5h-.94Z"/><path class="cls-2" d="M225.59,253.51a1.39,1.39,0,0,0-.41-.35,1.11,1.11,0,0,0-.6-.14,1.09,1.09,0,0,0-.58.14.45.45,0,0,0-.25.41.49.49,0,0,0,.14.36,1.33,1.33,0,0,0,.34.22,2.77,2.77,0,0,0,.41.12l.38.07a4.75,4.75,0,0,1,.57.18,1.6,1.6,0,0,1,.46.27,1.12,1.12,0,0,1,.3.41,1.32,1.32,0,0,1,.11.59,1.34,1.34,0,0,1-.18.71,1.44,1.44,0,0,1-.46.49,1.85,1.85,0,0,1-.64.27,3.35,3.35,0,0,1-1.81-.1,2,2,0,0,1-.83-.69l.71-.59a4,4,0,0,0,.51.41,1.27,1.27,0,0,0,.69.18,2.46,2.46,0,0,0,.37,0,1.1,1.1,0,0,0,.32-.11.9.9,0,0,0,.23-.2.47.47,0,0,0,.09-.28.52.52,0,0,0-.13-.35.89.89,0,0,0-.32-.21l-.38-.13-.36-.07c-.21-.05-.4-.11-.58-.17a1.82,1.82,0,0,1-.48-.25,1.32,1.32,0,0,1-.34-.4,1.52,1.52,0,0,1,0-1.27,1.52,1.52,0,0,1,.43-.48,2,2,0,0,1,.61-.28,2.59,2.59,0,0,1,.68-.09,2.38,2.38,0,0,1,1,.19,1.54,1.54,0,0,1,.74.62Z"/><path class="cls-2" d="M232.74,252.26h1.09l1.49,3.8,1.42-3.8h1l-1.94,5h-1Z"/><path class="cls-2" d="M239.28,255.09a1.31,1.31,0,0,0,.14.59,1.46,1.46,0,0,0,.37.45,1.52,1.52,0,0,0,.53.29,2,2,0,0,0,.63.11,1.5,1.5,0,0,0,.77-.2,2.7,2.7,0,0,0,.59-.54l.71.54a2.59,2.59,0,0,1-2.19,1,2.74,2.74,0,0,1-1.06-.19,2.47,2.47,0,0,1-.81-.55,2.51,2.51,0,0,1-.51-.83,2.89,2.89,0,0,1-.17-1,2.7,2.7,0,0,1,.19-1,2.74,2.74,0,0,1,.53-.83,2.57,2.57,0,0,1,1.84-.74,2.34,2.34,0,0,1,1.11.23,2.21,2.21,0,0,1,.75.6,2.55,2.55,0,0,1,.42.84,3.33,3.33,0,0,1,.13.94v.34Zm3-.76a2,2,0,0,0-.1-.57,1.24,1.24,0,0,0-.27-.46,1.15,1.15,0,0,0-.44-.3,1.71,1.71,0,0,0-.62-.11,1.5,1.5,0,0,0-1.12.47,1.6,1.6,0,0,0-.31.47,1.33,1.33,0,0,0-.11.5Z"/><path class="cls-2" d="M244.38,252.26h.94V253h0a1.36,1.36,0,0,1,.25-.36,1.59,1.59,0,0,1,.36-.28,1.33,1.33,0,0,1,.42-.18,1.47,1.47,0,0,1,.46-.07,1.42,1.42,0,0,1,.42.06l-.05,1-.22-.05-.24,0a1.36,1.36,0,0,0-1.05.39,1.72,1.72,0,0,0-.37,1.2v2.49h-.94Z"/><path class="cls-2" d="M247.66,252.26h1.09l1.47,3.87h0l1.41-3.87h1l-2.35,6c-.08.21-.17.41-.26.59a1.91,1.91,0,0,1-.32.45,1.29,1.29,0,0,1-.46.29,1.73,1.73,0,0,1-.65.11,3,3,0,0,1-.42,0,1.19,1.19,0,0,1-.41-.11l.11-.85a1.65,1.65,0,0,0,.57.11,1,1,0,0,0,.36-.06.76.76,0,0,0,.26-.16,1,1,0,0,0,.19-.26l.14-.34.31-.78Z"/><path class="cls-2" d="M261.85,253.51a1.39,1.39,0,0,0-.41-.35,1.13,1.13,0,0,0-.6-.14,1.09,1.09,0,0,0-.58.14.44.44,0,0,0-.25.41.49.49,0,0,0,.14.36,1.33,1.33,0,0,0,.34.22,2.45,2.45,0,0,0,.41.12l.38.07a4.75,4.75,0,0,1,.57.18,1.6,1.6,0,0,1,.46.27,1.12,1.12,0,0,1,.3.41,1.48,1.48,0,0,1,.11.59,1.34,1.34,0,0,1-.18.71,1.54,1.54,0,0,1-.46.49,1.93,1.93,0,0,1-.64.27,3.35,3.35,0,0,1-1.81-.1,2,2,0,0,1-.83-.69l.71-.59a3,3,0,0,0,.51.41,1.27,1.27,0,0,0,.69.18,2.2,2.2,0,0,0,.36,0,1.07,1.07,0,0,0,.33-.11.9.9,0,0,0,.23-.2.47.47,0,0,0,.09-.28.52.52,0,0,0-.13-.35,1,1,0,0,0-.32-.21l-.38-.13-.36-.07c-.21-.05-.4-.11-.58-.17a1.82,1.82,0,0,1-.48-.25,1.32,1.32,0,0,1-.34-.4,1.52,1.52,0,0,1,0-1.27,1.52,1.52,0,0,1,.43-.48,2,2,0,0,1,.61-.28,2.59,2.59,0,0,1,.68-.09,2.38,2.38,0,0,1,1,.19,1.47,1.47,0,0,1,.73.62Z"/><path class="cls-2" d="M263.62,254.74a2.6,2.6,0,0,1,.2-1,2.82,2.82,0,0,1,.56-.83,2.69,2.69,0,0,1,.84-.56,2.78,2.78,0,0,1,2.07,0,2.69,2.69,0,0,1,.84.56,2.82,2.82,0,0,1,.56.83,2.6,2.6,0,0,1,.2,1,2.69,2.69,0,0,1-.2,1,2.54,2.54,0,0,1-1.4,1.38,2.78,2.78,0,0,1-2.07,0,2.54,2.54,0,0,1-1.4-1.38A2.69,2.69,0,0,1,263.62,254.74Zm1,0a2,2,0,0,0,.12.7,1.61,1.61,0,0,0,.32.54,1.57,1.57,0,0,0,.51.36,1.87,1.87,0,0,0,.68.13,1.79,1.79,0,0,0,.68-.13,1.51,1.51,0,0,0,.52-.36,1.61,1.61,0,0,0,.32-.54,2,2,0,0,0,.12-.7,1.92,1.92,0,0,0-.12-.69,1.56,1.56,0,0,0-.32-.55,1.37,1.37,0,0,0-.52-.35,1.62,1.62,0,0,0-.68-.13,1.68,1.68,0,0,0-.68.13,1.41,1.41,0,0,0-.51.35,1.56,1.56,0,0,0-.32.55A1.92,1.92,0,0,0,264.62,254.74Z"/><path class="cls-2" d="M269.83,254.74a2.44,2.44,0,0,1,.21-1,2.61,2.61,0,0,1,.55-.83,2.69,2.69,0,0,1,.84-.56,2.75,2.75,0,0,1,1-.2,2.62,2.62,0,0,1,1.87.76,2.82,2.82,0,0,1,.56.83,2.6,2.6,0,0,1,.2,1,2.69,2.69,0,0,1-.2,1,2.54,2.54,0,0,1-1.4,1.38,2.52,2.52,0,0,1-1,.2,2.57,2.57,0,0,1-1-.2,2.84,2.84,0,0,1-.84-.55,2.61,2.61,0,0,1-.55-.83A2.52,2.52,0,0,1,269.83,254.74Zm1,0a2,2,0,0,0,.11.7,1.8,1.8,0,0,0,.32.54,1.51,1.51,0,0,0,.52.36,1.83,1.83,0,0,0,.68.13,1.87,1.87,0,0,0,.68-.13,1.57,1.57,0,0,0,.51-.36,1.46,1.46,0,0,0,.32-.54,2,2,0,0,0,.12-.7,1.92,1.92,0,0,0-.12-.69,1.43,1.43,0,0,0-.32-.55,1.41,1.41,0,0,0-.51-.35,1.68,1.68,0,0,0-.68-.13,1.65,1.65,0,0,0-.68.13,1.37,1.37,0,0,0-.52.35,1.73,1.73,0,0,0-.32.55A1.92,1.92,0,0,0,270.84,254.74Z"/><path class="cls-2" d="M276.28,252.26h.94V253h0a1.43,1.43,0,0,1,.62-.65,2.11,2.11,0,0,1,1-.24,2,2,0,0,1,.68.11,1.48,1.48,0,0,1,.58.34,1.69,1.69,0,0,1,.39.59,2.2,2.2,0,0,1,.14.85v3.19h-.94v-2.93a1.7,1.7,0,0,0-.09-.59,1,1,0,0,0-.61-.62,1.54,1.54,0,0,0-.43-.06,1.61,1.61,0,0,0-.54.09,1.08,1.08,0,0,0-.44.3,1.44,1.44,0,0,0-.29.52,2.26,2.26,0,0,0-.11.74v2.55h-.94Z"/><path class="cls-2" d="M282.84,257.28a.68.68,0,0,1-.69-.69.66.66,0,0,1,.2-.48.67.67,0,0,1,.49-.21.72.72,0,0,1,.69.69.67.67,0,0,1-.21.49A.66.66,0,0,1,282.84,257.28Z"/><path class="cls-2" d="M38.19,35.41a44.21,44.21,0,0,1,9.12-6.94V28H47a44.66,44.66,0,0,0-9.19,7A69.66,69.66,0,0,0,29,45.43h.72A68.27,68.27,0,0,1,38.19,35.41Z"/><path class="cls-2" d="M47.54,68.77v-.6l-1.87-.44a105.74,105.74,0,0,0-16.91-2.5v.59A105.25,105.25,0,0,1,45.54,68.3Z"/><path class="cls-2" d="M38.19,96a44.51,44.51,0,0,1,9.12-6.93v-.48H47a45,45,0,0,0-9.19,7A70.24,70.24,0,0,0,29,106h.72A68.87,68.87,0,0,1,38.19,96Z"/><path class="cls-2" d="M47.54,129.36v-.6l-1.87-.44a105.74,105.74,0,0,0-16.91-2.5v.59a104.12,104.12,0,0,1,16.78,2.48Z"/><path class="cls-2" d="M139,44.05a14.33,14.33,0,0,1-10.81-8.69,21.41,21.41,0,0,1-1.64-6.79c0-.11,0-.21,0-.31h-.59l0,.36a22.07,22.07,0,0,0,1.68,7,14.86,14.86,0,0,0,11.23,9,32.21,32.21,0,0,0,4,.54v-.59A31.92,31.92,0,0,1,139,44.05Z"/><path class="cls-2" d="M165,35.41a44.21,44.21,0,0,1,9.12-6.94V28h-.34a44.93,44.93,0,0,0-9.19,7,70.26,70.26,0,0,0-8.79,10.44h.72A68.89,68.89,0,0,1,165,35.41Z"/><path class="cls-2" d="M113.21,38.48v-.6l-1.87-.44a103.48,103.48,0,0,0-16.92-2.5v.59A104.07,104.07,0,0,1,111.21,38Z"/><path class="cls-2" d="M73,35.32a48.7,48.7,0,0,1,9.7-7.41v-.63h-.18a49.19,49.19,0,0,0-10,7.59q-1.87,1.85-3.63,3.8h0A18.26,18.26,0,0,1,67,35.28a23.18,23.18,0,0,1-1.77-7.37l0-.34h-.64l0,.39a23.76,23.76,0,0,0,1.83,7.57,18.31,18.31,0,0,0,2.09,3.63C66.84,41.05,65.29,43,63.84,45v1.11a74.49,74.49,0,0,1,5-6.47l.08-.09-.08.09a16.2,16.2,0,0,0,9.68,5.65,36.86,36.86,0,0,0,4.13.56v-.63a36.63,36.63,0,0,1-4-.56,15.55,15.55,0,0,1-9.38-5.51h0l0,0,0,0C70.5,37.86,71.72,36.57,73,35.32Z"/><path class="cls-2" d="M72.28,60.92a19,19,0,0,1,2.87,7.54,13.32,13.32,0,0,1-.92,7h.63a13.81,13.81,0,0,0,.87-7.05,19.56,19.56,0,0,0-3-7.77c-.42-.69-.88-1.36-1.38-2h-.73C71.26,59.35,71.79,60.13,72.28,60.92Z"/><path class="cls-2" d="M103.86,65.7A44.93,44.93,0,0,1,113,58.76v-.48h-.34a45,45,0,0,0-9.19,7,70.17,70.17,0,0,0-8.79,10.44h.71A69.5,69.5,0,0,1,103.86,65.7Z"/><path class="cls-2" d="M141.77,67.79q-2.84-.65-5.58-1.14a22.39,22.39,0,0,0-2.85-6.58c-.46-.74-1-1.48-1.49-2.2h-.79c.63.83,1.21,1.68,1.74,2.54a22.36,22.36,0,0,1,2.71,6.12c-3.61-.63-7.11-1.08-10.57-1.34v.64c3.51.27,7.06.72,10.73,1.37q.15.69.24,1.38a14.3,14.3,0,0,1-1,7.56h.69a14.89,14.89,0,0,0,.94-7.64c0-.39-.12-.78-.2-1.17q2.61.48,5.29,1.08l2.17.51v-.65Z"/><path class="cls-2" d="M174.31,68.77v-.6l-1.87-.44a105.74,105.74,0,0,0-16.91-2.5v.59a105.25,105.25,0,0,1,16.78,2.48Z"/><path class="cls-2" d="M261.35,44.05a14.31,14.31,0,0,1-10.81-8.69,21.15,21.15,0,0,1-1.64-6.79l0-.31h-.58c0,.12,0,.24,0,.36a22.07,22.07,0,0,0,1.69,7,14.86,14.86,0,0,0,11.23,9,32,32,0,0,0,4,.54v-.59A31.65,31.65,0,0,1,261.35,44.05Z"/><path class="cls-2" d="M287.34,35.41a44.21,44.21,0,0,1,9.12-6.94V28h-.34a44.66,44.66,0,0,0-9.19,7,69.08,69.08,0,0,0-8.79,10.44h.71A69,69,0,0,1,287.34,35.41Z"/><path class="cls-2" d="M235.59,38.48v-.6l-1.87-.44a103.64,103.64,0,0,0-16.92-2.5v.59A104.24,104.24,0,0,1,233.59,38Z"/><path class="cls-2" d="M195.38,35.32a48.36,48.36,0,0,1,9.69-7.41v-.63h-.18a49.42,49.42,0,0,0-10,7.59q-1.89,1.85-3.63,3.8h0a17.72,17.72,0,0,1-1.94-3.39,23.45,23.45,0,0,1-1.78-7.37c0-.12,0-.23,0-.34h-.64l0,.39a23.76,23.76,0,0,0,1.83,7.57,17.83,17.83,0,0,0,2.09,3.63A74.49,74.49,0,0,0,186.21,45v1.11a76.6,76.6,0,0,1,5.06-6.47l.08-.09-.08.09A16.17,16.17,0,0,0,201,45.32a36.69,36.69,0,0,0,4.12.56v-.63a36.46,36.46,0,0,1-4-.56,15.55,15.55,0,0,1-9.39-5.51h0l0,0,0,0Q193.46,37.2,195.38,35.32Z"/><path class="cls-2" d="M194.66,60.92a19,19,0,0,1,2.87,7.54,13.32,13.32,0,0,1-.92,7h.63a13.81,13.81,0,0,0,.87-7.05,19.71,19.71,0,0,0-3-7.77c-.43-.69-.89-1.36-1.38-2h-.73C193.63,59.35,194.17,60.13,194.66,60.92Z"/><path class="cls-2" d="M226.24,65.7a45.15,45.15,0,0,1,9.11-6.94v-.48H235a45.57,45.57,0,0,0-9.19,7A70.1,70.1,0,0,0,217,75.72h.71A69.5,69.5,0,0,1,226.24,65.7Z"/><path class="cls-2" d="M264.15,67.79c-1.9-.43-3.75-.81-5.58-1.14a22.66,22.66,0,0,0-2.85-6.58c-.46-.74-1-1.48-1.49-2.2h-.8c.63.83,1.21,1.68,1.75,2.54a22,22,0,0,1,2.7,6.12c-3.6-.63-7.1-1.08-10.56-1.34v.64c3.51.27,7.06.72,10.72,1.37.1.46.19.92.25,1.38a14.4,14.4,0,0,1-1,7.56H258a15,15,0,0,0,.95-7.64c-.05-.39-.12-.78-.2-1.17q2.59.48,5.29,1.08l2.16.51v-.65Z"/><path class="cls-2" d="M296.69,68.77v-.6l-1.87-.44a105.69,105.69,0,0,0-16.92-2.5v.59a105.36,105.36,0,0,1,16.79,2.48Z"/><path class="cls-2" d="M139,104.64A14.33,14.33,0,0,1,128.16,96a21.41,21.41,0,0,1-1.64-6.8c0-.1,0-.2,0-.31h-.59l0,.36a22.07,22.07,0,0,0,1.68,7,14.86,14.86,0,0,0,11.23,9,32.21,32.21,0,0,0,4,.54v-.59A31.92,31.92,0,0,1,139,104.64Z"/><path class="cls-2" d="M165,96a44.51,44.51,0,0,1,9.12-6.93v-.48h-.34a45.23,45.23,0,0,0-9.19,7A70.85,70.85,0,0,0,155.76,106h.72A69.5,69.5,0,0,1,165,96Z"/><path class="cls-2" d="M113.21,99.07v-.6c-.62-.16-1.24-.3-1.87-.44a103.48,103.48,0,0,0-16.92-2.5v.58a104.13,104.13,0,0,1,16.79,2.49Z"/><path class="cls-2" d="M73,95.91a48.7,48.7,0,0,1,9.7-7.41v-.63h-.18a49.14,49.14,0,0,0-10,7.58c-1.25,1.24-2.46,2.5-3.63,3.81h0A18.35,18.35,0,0,1,67,95.86a23,23,0,0,1-1.77-7.37l0-.33h-.64l0,.39a23.83,23.83,0,0,0,1.83,7.57,18.31,18.31,0,0,0,2.09,3.63,74.85,74.85,0,0,0-4.65,5.87v1.11a74.49,74.49,0,0,1,5-6.47l.08-.09-.08.09a16.14,16.14,0,0,0,9.68,5.64,34.72,34.72,0,0,0,4.13.57v-.64a34.31,34.31,0,0,1-4-.55,15.55,15.55,0,0,1-9.38-5.51h0l0,0,0,0C70.5,98.45,71.72,97.16,73,95.91Z"/><path class="cls-2" d="M72.28,121.51a19,19,0,0,1,2.87,7.54,13.32,13.32,0,0,1-.92,7h.63a13.81,13.81,0,0,0,.87-7.05,19.51,19.51,0,0,0-3-7.77q-.63-1-1.38-2h-.73C71.26,119.94,71.79,120.72,72.28,121.51Z"/><path class="cls-2" d="M103.86,126.29a44.21,44.21,0,0,1,9.12-6.94v-.48h-.34a44.66,44.66,0,0,0-9.19,7,70.17,70.17,0,0,0-8.79,10.44h.71A69.5,69.5,0,0,1,103.86,126.29Z"/><path class="cls-2" d="M141.77,128.38q-2.84-.64-5.58-1.14a22.39,22.39,0,0,0-2.85-6.58c-.46-.74-1-1.48-1.49-2.21h-.79q.94,1.26,1.74,2.55a22.23,22.23,0,0,1,2.71,6.12c-3.61-.63-7.11-1.08-10.57-1.34v.63c3.51.27,7.06.73,10.73,1.38q.15.69.24,1.38a14.31,14.31,0,0,1-1,7.56h.69a14.89,14.89,0,0,0,.94-7.64c0-.4-.12-.79-.2-1.17q2.61.46,5.29,1.08l2.17.51v-.65Z"/><path class="cls-2" d="M174.31,129.36v-.6l-1.87-.44a105.74,105.74,0,0,0-16.91-2.5v.59a104.12,104.12,0,0,1,16.78,2.48Z"/><path class="cls-2" d="M261.35,104.64A14.31,14.31,0,0,1,250.54,96a21.15,21.15,0,0,1-1.64-6.8l0-.31h-.58c0,.12,0,.24,0,.36a22.07,22.07,0,0,0,1.69,7,14.86,14.86,0,0,0,11.23,9,32,32,0,0,0,4,.54v-.59A31.65,31.65,0,0,1,261.35,104.64Z"/><path class="cls-2" d="M287.34,96a44.51,44.51,0,0,1,9.12-6.93v-.48h-.34a45,45,0,0,0-9.19,7A69.65,69.65,0,0,0,278.14,106h.71A69.58,69.58,0,0,1,287.34,96Z"/><path class="cls-2" d="M235.59,99.07v-.6c-.62-.16-1.25-.3-1.87-.44a103.64,103.64,0,0,0-16.92-2.5v.58a104.29,104.29,0,0,1,16.79,2.49Z"/><path class="cls-2" d="M195.38,95.91a48.36,48.36,0,0,1,9.69-7.41v-.63h-.18a49.36,49.36,0,0,0-10,7.58c-1.26,1.24-2.47,2.5-3.63,3.81h0a17.8,17.8,0,0,1-1.94-3.4,23.31,23.31,0,0,1-1.78-7.37c0-.11,0-.22,0-.33h-.64l0,.39a23.83,23.83,0,0,0,1.83,7.57,17.83,17.83,0,0,0,2.09,3.63,72.7,72.7,0,0,0-4.66,5.87v1.11a76.6,76.6,0,0,1,5.06-6.47l.08-.09-.08.09A16.11,16.11,0,0,0,201,105.9a34.55,34.55,0,0,0,4.12.57v-.64a34.15,34.15,0,0,1-4-.55,15.55,15.55,0,0,1-9.39-5.51h0l0,0,0,0Q193.46,97.79,195.38,95.91Z"/><path class="cls-2" d="M194.66,121.51a19,19,0,0,1,2.87,7.54,13.32,13.32,0,0,1-.92,7h.63a13.81,13.81,0,0,0,.87-7.05,19.66,19.66,0,0,0-3-7.77q-.65-1-1.38-2h-.73C193.63,119.94,194.17,120.72,194.66,121.51Z"/><path class="cls-2" d="M226.24,126.29a44.43,44.43,0,0,1,9.11-6.94v-.48H235a45.2,45.2,0,0,0-9.19,7A70.1,70.1,0,0,0,217,136.31h.71A69.5,69.5,0,0,1,226.24,126.29Z"/><path class="cls-2" d="M264.15,128.38c-1.9-.43-3.75-.81-5.58-1.14a22.66,22.66,0,0,0-2.85-6.58c-.46-.74-1-1.48-1.49-2.21h-.8c.63.84,1.21,1.69,1.75,2.55a21.89,21.89,0,0,1,2.7,6.12c-3.6-.63-7.1-1.08-10.56-1.34v.63c3.51.27,7.06.73,10.72,1.38.1.46.19.92.25,1.38a14.41,14.41,0,0,1-1,7.56H258a15,15,0,0,0,.95-7.64c-.05-.4-.12-.79-.2-1.17q2.59.46,5.29,1.08l2.16.51v-.65C265.5,128.69,264.82,128.54,264.15,128.38Z"/><path class="cls-2" d="M296.69,129.36v-.6l-1.87-.44a105.69,105.69,0,0,0-16.92-2.5v.59a104.24,104.24,0,0,1,16.79,2.48Z"/><path class="cls-2" d="M322.15,35.32a48.36,48.36,0,0,1,9.69-7.41v-.63h-.17a49.19,49.19,0,0,0-10,7.59q-1.89,1.85-3.63,3.8h0a18.26,18.26,0,0,1-1.94-3.39,23.45,23.45,0,0,1-1.78-7.37c0-.12,0-.23,0-.34h-.64l0,.39a23.76,23.76,0,0,0,1.83,7.57,17.83,17.83,0,0,0,2.09,3.63C316,41.05,314.44,43,313,45v1.11A74.49,74.49,0,0,1,318,39.67l.08-.09-.08.09a16.17,16.17,0,0,0,9.68,5.65,37,37,0,0,0,4.12.56v-.63a36.8,36.8,0,0,1-4-.56,15.55,15.55,0,0,1-9.38-5.51h0l0,0,0,0Q320.22,37.2,322.15,35.32Z"/><path class="cls-2" d="M321.43,60.92a19,19,0,0,1,2.87,7.54,13.32,13.32,0,0,1-.92,7H324a13.81,13.81,0,0,0,.87-7.05,19.71,19.71,0,0,0-2.95-7.77c-.43-.69-.88-1.36-1.38-2h-.73C320.4,59.35,320.94,60.13,321.43,60.92Z"/><path class="cls-2" d="M322.15,95.91a48.36,48.36,0,0,1,9.69-7.41v-.63h-.17a49.14,49.14,0,0,0-10,7.58c-1.26,1.24-2.47,2.5-3.63,3.81h0a18.35,18.35,0,0,1-1.94-3.4,23.31,23.31,0,0,1-1.78-7.37c0-.11,0-.22,0-.33h-.64l0,.39a23.83,23.83,0,0,0,1.83,7.57,17.83,17.83,0,0,0,2.09,3.63,74.85,74.85,0,0,0-4.65,5.87v1.11a74.49,74.49,0,0,1,5.05-6.47l.08-.09-.08.09a16.11,16.11,0,0,0,9.68,5.64,34.84,34.84,0,0,0,4.12.57v-.64a34.44,34.44,0,0,1-4-.55,15.55,15.55,0,0,1-9.38-5.51h0l0,0,0,0Q320.22,97.79,322.15,95.91Z"/><path class="cls-2" d="M321.43,121.51a19,19,0,0,1,2.87,7.54,13.32,13.32,0,0,1-.92,7H324a13.81,13.81,0,0,0,.87-7.05,19.66,19.66,0,0,0-2.95-7.77c-.43-.69-.88-1.37-1.38-2h-.73C320.4,119.94,320.94,120.72,321.43,121.51Z"/><path class="cls-2" d="M38.19,160.16a44.51,44.51,0,0,1,9.12-6.93v-.48H47a45,45,0,0,0-9.19,7A69.74,69.74,0,0,0,29,170.19h.72A68.87,68.87,0,0,1,38.19,160.16Z"/><path class="cls-2" d="M47.54,193.53v-.6l-1.87-.44A105.74,105.74,0,0,0,28.76,190v.59a104.12,104.12,0,0,1,16.78,2.48Z"/><path class="cls-2" d="M38.19,220.75a44.51,44.51,0,0,1,9.12-6.93v-.49H47a45,45,0,0,0-9.19,7A69.74,69.74,0,0,0,29,230.78h.72A68.87,68.87,0,0,1,38.19,220.75Z"/><path class="cls-2" d="M47.54,254.12v-.6l-1.87-.44a103.53,103.53,0,0,0-16.91-2.5v.59a104.12,104.12,0,0,1,16.78,2.48Z"/><path class="cls-2" d="M139,168.81a14.33,14.33,0,0,1-10.81-8.69,21.41,21.41,0,0,1-1.64-6.8c0-.1,0-.2,0-.31h-.59l0,.36a22.07,22.07,0,0,0,1.68,7,14.86,14.86,0,0,0,11.23,9,32.21,32.21,0,0,0,4,.54v-.59A31.92,31.92,0,0,1,139,168.81Z"/><path class="cls-2" d="M165,160.16a44.51,44.51,0,0,1,9.12-6.93v-.48h-.34a45.23,45.23,0,0,0-9.19,7,70.34,70.34,0,0,0-8.79,10.45h.72A69.5,69.5,0,0,1,165,160.16Z"/><path class="cls-2" d="M113.21,163.24v-.61l-1.87-.43a103.48,103.48,0,0,0-16.92-2.5v.58a104.13,104.13,0,0,1,16.79,2.49Z"/><path class="cls-2" d="M73,160.08a48.7,48.7,0,0,1,9.7-7.41V152h-.18a48.78,48.78,0,0,0-10,7.58c-1.25,1.24-2.46,2.5-3.63,3.81h0A18.35,18.35,0,0,1,67,160a23,23,0,0,1-1.77-7.37l0-.33h-.64l0,.39a23.83,23.83,0,0,0,1.83,7.57,18.31,18.31,0,0,0,2.09,3.63,74.85,74.85,0,0,0-4.65,5.87v1.11a73,73,0,0,1,5-6.47l.08-.1-.08.1a16.19,16.19,0,0,0,9.68,5.64,34.72,34.72,0,0,0,4.13.57V170a34.31,34.31,0,0,1-4-.55,15.55,15.55,0,0,1-9.38-5.51h0l0,0,0,0C70.5,162.62,71.72,161.33,73,160.08Z"/><path class="cls-2" d="M72.28,185.68a19,19,0,0,1,2.87,7.54,13.32,13.32,0,0,1-.92,7h.63a13.81,13.81,0,0,0,.87-7.05,19.51,19.51,0,0,0-3-7.77q-.63-1-1.38-2h-.73C71.26,184.11,71.79,184.88,72.28,185.68Z"/><path class="cls-2" d="M103.86,190.46a44.21,44.21,0,0,1,9.12-6.94V183h-.34a44.66,44.66,0,0,0-9.19,7,70.17,70.17,0,0,0-8.79,10.44h.71A69,69,0,0,1,103.86,190.46Z"/><path class="cls-2" d="M141.77,192.55q-2.84-.65-5.58-1.14a22.39,22.39,0,0,0-2.85-6.58c-.46-.74-1-1.48-1.49-2.21h-.79q.94,1.26,1.74,2.55a22.1,22.1,0,0,1,2.71,6.12c-3.61-.63-7.11-1.08-10.57-1.34v.63c3.51.27,7.06.73,10.73,1.38q.15.69.24,1.38a14.31,14.31,0,0,1-1,7.56h.69a14.91,14.91,0,0,0,.94-7.65c0-.39-.12-.78-.2-1.17q2.61.48,5.29,1.09l2.17.51V193Z"/><path class="cls-2" d="M174.31,193.53v-.6l-1.87-.44a105.74,105.74,0,0,0-16.91-2.5v.59a104.12,104.12,0,0,1,16.78,2.48Z"/><path class="cls-2" d="M261.35,168.81a14.31,14.31,0,0,1-10.81-8.69,21.15,21.15,0,0,1-1.64-6.8l0-.31h-.58c0,.12,0,.24,0,.36a22.07,22.07,0,0,0,1.69,7,14.86,14.86,0,0,0,11.23,9,32,32,0,0,0,4,.54v-.59A31.65,31.65,0,0,1,261.35,168.81Z"/><path class="cls-2" d="M287.34,160.16a44.51,44.51,0,0,1,9.12-6.93v-.48h-.34a45,45,0,0,0-9.19,7,69.15,69.15,0,0,0-8.79,10.45h.71A69.58,69.58,0,0,1,287.34,160.16Z"/><path class="cls-2" d="M235.59,163.24v-.61l-1.87-.43a103.64,103.64,0,0,0-16.92-2.5v.58a104.29,104.29,0,0,1,16.79,2.49Z"/><path class="cls-2" d="M195.38,160.08a48.36,48.36,0,0,1,9.69-7.41V152h-.18a49,49,0,0,0-10,7.58c-1.26,1.24-2.47,2.5-3.63,3.81h0a17.8,17.8,0,0,1-1.94-3.4,23.31,23.31,0,0,1-1.78-7.37c0-.11,0-.22,0-.33h-.64l0,.39a23.83,23.83,0,0,0,1.83,7.57,17.83,17.83,0,0,0,2.09,3.63,72.7,72.7,0,0,0-4.66,5.87v1.11a75,75,0,0,1,5.06-6.47l.08-.1-.08.1a16.16,16.16,0,0,0,9.68,5.64,34.55,34.55,0,0,0,4.12.57V170a34.15,34.15,0,0,1-4-.55,15.55,15.55,0,0,1-9.39-5.51h0l0,0,0,0Q193.46,162,195.38,160.08Z"/><path class="cls-2" d="M194.66,185.68a19,19,0,0,1,2.87,7.54,13.32,13.32,0,0,1-.92,7h.63a13.81,13.81,0,0,0,.87-7.05,19.66,19.66,0,0,0-3-7.77q-.65-1-1.38-2h-.73C193.63,184.11,194.17,184.88,194.66,185.68Z"/><path class="cls-2" d="M226.24,190.46a44.43,44.43,0,0,1,9.11-6.94V183H235a45.2,45.2,0,0,0-9.19,7A70.1,70.1,0,0,0,217,200.48h.71A69,69,0,0,1,226.24,190.46Z"/><path class="cls-2" d="M264.15,192.55c-1.9-.43-3.75-.81-5.58-1.14a22.66,22.66,0,0,0-2.85-6.58c-.46-.74-1-1.48-1.49-2.21h-.8c.63.84,1.21,1.69,1.75,2.55a21.76,21.76,0,0,1,2.7,6.12c-3.6-.63-7.1-1.08-10.56-1.34v.63c3.51.27,7.06.73,10.72,1.38.1.46.19.92.25,1.38a14.41,14.41,0,0,1-1,7.56H258a15,15,0,0,0,.95-7.65c-.05-.39-.12-.78-.2-1.17q2.59.48,5.29,1.09l2.16.51V193C265.5,192.86,264.82,192.71,264.15,192.55Z"/><path class="cls-2" d="M296.69,193.53v-.6l-1.87-.44A105.69,105.69,0,0,0,277.9,190v.59a104.24,104.24,0,0,1,16.79,2.48Z"/><path class="cls-2" d="M322.15,160.08a48.36,48.36,0,0,1,9.69-7.41V152h-.17a48.78,48.78,0,0,0-10,7.58c-1.26,1.24-2.47,2.5-3.63,3.81h0a18.35,18.35,0,0,1-1.94-3.4,23.31,23.31,0,0,1-1.78-7.37c0-.11,0-.22,0-.33h-.64l0,.39a23.83,23.83,0,0,0,1.83,7.57,17.83,17.83,0,0,0,2.09,3.63,74.85,74.85,0,0,0-4.65,5.87v1.11a73,73,0,0,1,5.05-6.47l.08-.1-.08.1a16.16,16.16,0,0,0,9.68,5.64,34.84,34.84,0,0,0,4.12.57V170a34.44,34.44,0,0,1-4-.55,15.55,15.55,0,0,1-9.38-5.51h0l0,0,0,0Q320.22,162,322.15,160.08Z"/><path class="cls-2" d="M321.43,185.68a19,19,0,0,1,2.87,7.54,13.32,13.32,0,0,1-.92,7H324a13.81,13.81,0,0,0,.87-7.05,19.66,19.66,0,0,0-2.95-7.77c-.43-.69-.88-1.37-1.38-2h-.73C320.4,184.11,320.94,184.88,321.43,185.68Z"/><path class="cls-2" d="M322.15,220.67a48,48,0,0,1,9.69-7.41v-.64h-.17a49.19,49.19,0,0,0-10,7.59q-1.89,1.84-3.63,3.81h0a18.35,18.35,0,0,1-1.94-3.4,23.31,23.31,0,0,1-1.78-7.37c0-.11,0-.22,0-.33h-.64l0,.39a23.83,23.83,0,0,0,1.83,7.57,17.83,17.83,0,0,0,2.09,3.63,74.85,74.85,0,0,0-4.65,5.87v1.1A74.35,74.35,0,0,1,318,225l.08-.1-.08.1a16.16,16.16,0,0,0,9.68,5.64,34.84,34.84,0,0,0,4.12.57v-.64a34.44,34.44,0,0,1-4-.55,15.55,15.55,0,0,1-9.38-5.51h0l0,0,0,0C319.64,223.2,320.87,221.92,322.15,220.67Z"/><path class="cls-2" d="M321.43,246.27a19,19,0,0,1,2.87,7.54,13.34,13.34,0,0,1-.92,7H324a13.82,13.82,0,0,0,.87-7,19.6,19.6,0,0,0-2.95-7.77c-.43-.69-.88-1.37-1.38-2h-.73C320.4,244.69,320.94,245.47,321.43,246.27Z"/><path class="cls-2" d="M38.19,284.92A44.51,44.51,0,0,1,47.31,278v-.49H47a45,45,0,0,0-9.19,7A69.74,69.74,0,0,0,29,295h.72A68.87,68.87,0,0,1,38.19,284.92Z"/><path class="cls-2" d="M47.54,318.29v-.6l-1.87-.44a103.53,103.53,0,0,0-16.91-2.5v.58a105.3,105.3,0,0,1,16.78,2.49Z"/><path class="cls-2" d="M38.19,345.51a44.57,44.57,0,0,1,9.12-6.94v-.48H47a44.66,44.66,0,0,0-9.19,7A70.17,70.17,0,0,0,29,355.53h.72A68.8,68.8,0,0,1,38.19,345.51Z"/><path class="cls-2" d="M47.54,378.88v-.61l-1.87-.44a105.74,105.74,0,0,0-16.91-2.5v.59a104.18,104.18,0,0,1,16.78,2.49Z"/><path class="cls-2" d="M139,293.56a14.29,14.29,0,0,1-10.81-8.68,21.48,21.48,0,0,1-1.64-6.8c0-.1,0-.21,0-.31h-.59l0,.36a21.94,21.94,0,0,0,1.68,7,14.87,14.87,0,0,0,11.23,9,34.23,34.23,0,0,0,4,.54v-.59A32,32,0,0,1,139,293.56Z"/><path class="cls-2" d="M165,284.92a44.51,44.51,0,0,1,9.12-6.93v-.49h-.34a45.29,45.29,0,0,0-9.19,7A70.34,70.34,0,0,0,155.76,295h.72A69.5,69.5,0,0,1,165,284.92Z"/><path class="cls-2" d="M113.21,288v-.61l-1.87-.44a105.69,105.69,0,0,0-16.92-2.5V285a105.2,105.2,0,0,1,16.79,2.48C111.88,287.68,112.55,287.83,113.21,288Z"/><path class="cls-2" d="M73,284.84a48,48,0,0,1,9.7-7.41v-.64h-.18a49.19,49.19,0,0,0-10,7.59q-1.87,1.85-3.63,3.81h0a18.35,18.35,0,0,1-1.94-3.4,23,23,0,0,1-1.77-7.37l0-.34h-.64l0,.4a23.83,23.83,0,0,0,1.83,7.57,18.51,18.51,0,0,0,2.09,3.62q-2.47,2.83-4.65,5.88v1.1a74.35,74.35,0,0,1,5-6.46l.08-.1-.08.1a16.19,16.19,0,0,0,9.68,5.64,34.72,34.72,0,0,0,4.13.57v-.64a34.31,34.31,0,0,1-4-.55,15.6,15.6,0,0,1-9.38-5.51h0l0,0,0,0C70.5,287.37,71.72,286.09,73,284.84Z"/><path class="cls-2" d="M72.28,310.43A19.15,19.15,0,0,1,75.15,318a13.36,13.36,0,0,1-.92,7h.63a13.82,13.82,0,0,0,.87-7.05,19.45,19.45,0,0,0-3-7.77q-.63-1-1.38-2h-.73C71.26,308.86,71.79,309.64,72.28,310.43Z"/><path class="cls-2" d="M103.86,315.21a44.51,44.51,0,0,1,9.12-6.93v-.48h-.34a45,45,0,0,0-9.19,7,70.24,70.24,0,0,0-8.79,10.45h.71A69.58,69.58,0,0,1,103.86,315.21Z"/><path class="cls-2" d="M141.77,317.31q-2.84-.65-5.58-1.14a22.39,22.39,0,0,0-2.85-6.58c-.46-.75-1-1.48-1.49-2.21h-.79c.63.84,1.21,1.68,1.74,2.54a22.28,22.28,0,0,1,2.71,6.13c-3.61-.64-7.11-1.08-10.57-1.35v.64c3.51.27,7.06.73,10.73,1.38q.15.69.24,1.38a14.33,14.33,0,0,1-1,7.56h.69a14.94,14.94,0,0,0,.94-7.65c0-.39-.12-.78-.2-1.17q2.61.48,5.29,1.09c.73.16,1.45.33,2.17.51v-.66Z"/><path class="cls-2" d="M174.31,318.29v-.6l-1.87-.44a103.53,103.53,0,0,0-16.91-2.5v.58a105.3,105.3,0,0,1,16.78,2.49Z"/><path class="cls-2" d="M261.35,293.56a14.28,14.28,0,0,1-10.81-8.68,21.21,21.21,0,0,1-1.64-6.8l0-.31h-.58c0,.12,0,.24,0,.36a21.94,21.94,0,0,0,1.69,7,14.87,14.87,0,0,0,11.23,9,34,34,0,0,0,4,.54v-.59A31.68,31.68,0,0,1,261.35,293.56Z"/><path class="cls-2" d="M287.34,284.92a44.51,44.51,0,0,1,9.12-6.93v-.49h-.34a45,45,0,0,0-9.19,7A69.15,69.15,0,0,0,278.14,295h.71A69.58,69.58,0,0,1,287.34,284.92Z"/><path class="cls-2" d="M235.59,288v-.61l-1.87-.44a105.86,105.86,0,0,0-16.92-2.5V285a105.36,105.36,0,0,1,16.79,2.48Z"/><path class="cls-2" d="M195.38,284.84a47.63,47.63,0,0,1,9.69-7.41v-.64h-.18a49.42,49.42,0,0,0-10,7.59q-1.89,1.85-3.63,3.81h0a17.8,17.8,0,0,1-1.94-3.4,23.31,23.31,0,0,1-1.78-7.37c0-.11,0-.22,0-.34h-.64l0,.4a23.83,23.83,0,0,0,1.83,7.57,18,18,0,0,0,2.09,3.62,74.64,74.64,0,0,0-4.66,5.88v1.1a76.46,76.46,0,0,1,5.06-6.46l.08-.1-.08.1a16.16,16.16,0,0,0,9.68,5.64,34.55,34.55,0,0,0,4.12.57v-.64a34.15,34.15,0,0,1-4-.55,15.6,15.6,0,0,1-9.39-5.51h0l0,0,0,0C192.87,287.37,194.1,286.09,195.38,284.84Z"/><path class="cls-2" d="M194.66,310.43a19.15,19.15,0,0,1,2.87,7.54,13.36,13.36,0,0,1-.92,7h.63a13.82,13.82,0,0,0,.87-7.05,19.6,19.6,0,0,0-3-7.77q-.65-1-1.38-2h-.73C193.63,308.86,194.17,309.64,194.66,310.43Z"/><path class="cls-2" d="M226.24,315.21a44.73,44.73,0,0,1,9.11-6.93v-.48H235a45.51,45.51,0,0,0-9.19,7A70.17,70.17,0,0,0,217,325.24h.71A69.58,69.58,0,0,1,226.24,315.21Z"/><path class="cls-2" d="M264.15,317.31c-1.9-.43-3.75-.81-5.58-1.14a22.66,22.66,0,0,0-2.85-6.58c-.46-.75-1-1.48-1.49-2.21h-.8c.63.84,1.21,1.68,1.75,2.54a21.94,21.94,0,0,1,2.7,6.13c-3.6-.64-7.1-1.08-10.56-1.35v.64c3.51.27,7.06.73,10.72,1.38.1.46.19.92.25,1.38a14.43,14.43,0,0,1-1,7.56H258a15.05,15.05,0,0,0,.95-7.65c-.05-.39-.12-.78-.2-1.17q2.59.48,5.29,1.09,1.08.24,2.16.51v-.66Z"/><path class="cls-2" d="M296.69,318.29v-.6l-1.87-.44a103.48,103.48,0,0,0-16.92-2.5v.58a105.42,105.42,0,0,1,16.79,2.49Z"/><path class="cls-2" d="M139,354.15a14.31,14.31,0,0,1-10.81-8.68,21.48,21.48,0,0,1-1.64-6.8c0-.11,0-.21,0-.31h-.59l0,.36a22,22,0,0,0,1.68,7,14.87,14.87,0,0,0,11.23,9,34.23,34.23,0,0,0,4,.54v-.59A34.08,34.08,0,0,1,139,354.15Z"/><path class="cls-2" d="M165,345.51a44.57,44.57,0,0,1,9.12-6.94v-.48h-.34a44.93,44.93,0,0,0-9.19,7,70.78,70.78,0,0,0-8.79,10.44h.72A69.43,69.43,0,0,1,165,345.51Z"/><path class="cls-2" d="M113.21,348.58V348l-1.87-.44A105.69,105.69,0,0,0,94.42,345v.59a104.07,104.07,0,0,1,16.79,2.48Z"/><path class="cls-2" d="M73,345.42A48.7,48.7,0,0,1,82.7,338v-.63h-.18a49.19,49.19,0,0,0-10,7.59q-1.87,1.84-3.63,3.8h0A17.94,17.94,0,0,1,67,345.38,23.18,23.18,0,0,1,65.21,338l0-.34h-.64l0,.39a23.69,23.69,0,0,0,1.83,7.57,18.31,18.31,0,0,0,2.09,3.63q-2.47,2.83-4.65,5.88v1.1a74.49,74.49,0,0,1,5-6.47l.08-.09-.08.09a16.2,16.2,0,0,0,9.68,5.65,36.9,36.9,0,0,0,4.13.57v-.64a34.35,34.35,0,0,1-4-.56,15.54,15.54,0,0,1-9.38-5.5h0l0,0,0,0C70.5,348,71.72,346.67,73,345.42Z"/><path class="cls-2" d="M72.28,371a19.09,19.09,0,0,1,2.87,7.54,13.32,13.32,0,0,1-.92,7h.63a13.81,13.81,0,0,0,.87-7,19.56,19.56,0,0,0-3-7.77c-.42-.68-.88-1.36-1.38-2h-.73C71.26,369.45,71.79,370.23,72.28,371Z"/><path class="cls-2" d="M103.86,375.8a44.51,44.51,0,0,1,9.12-6.93v-.49h-.34a45.38,45.38,0,0,0-9.19,7,69.74,69.74,0,0,0-8.79,10.45h.71A69.58,69.58,0,0,1,103.86,375.8Z"/><path class="cls-2" d="M261.35,354.15a14.3,14.3,0,0,1-10.81-8.68,21.21,21.21,0,0,1-1.64-6.8l0-.31h-.58c0,.12,0,.24,0,.36a22,22,0,0,0,1.69,7,14.87,14.87,0,0,0,11.23,9,34,34,0,0,0,4,.54v-.59A33.77,33.77,0,0,1,261.35,354.15Z"/><path class="cls-2" d="M287.34,345.51a44.57,44.57,0,0,1,9.12-6.94v-.48h-.34a44.66,44.66,0,0,0-9.19,7,69.57,69.57,0,0,0-8.79,10.44h.71A69.5,69.5,0,0,1,287.34,345.51Z"/><path class="cls-2" d="M235.59,348.58V348l-1.87-.44A105.86,105.86,0,0,0,216.8,345v.59a104.24,104.24,0,0,1,16.79,2.48Z"/><path class="cls-2" d="M195.38,345.42a48.36,48.36,0,0,1,9.69-7.41v-.63h-.18a49.42,49.42,0,0,0-10,7.59q-1.89,1.84-3.63,3.8h0a17.42,17.42,0,0,1-1.94-3.39,23.45,23.45,0,0,1-1.78-7.37c0-.11,0-.23,0-.34h-.64l0,.39a23.69,23.69,0,0,0,1.83,7.57,17.83,17.83,0,0,0,2.09,3.63,74.64,74.64,0,0,0-4.66,5.88v1.1a76.6,76.6,0,0,1,5.06-6.47l.08-.09-.08.09a16.17,16.17,0,0,0,9.68,5.65,36.73,36.73,0,0,0,4.12.57v-.64a34.18,34.18,0,0,1-4-.56,15.54,15.54,0,0,1-9.39-5.5h0l0,0,0,0Q193.46,347.29,195.38,345.42Z"/><path class="cls-2" d="M264.15,377.9c-1.9-.43-3.75-.81-5.58-1.14a22.54,22.54,0,0,0-2.85-6.58c-.46-.75-1-1.48-1.49-2.21h-.8c.63.84,1.21,1.68,1.75,2.54a22,22,0,0,1,2.7,6.12c-3.6-.63-7.1-1.07-10.56-1.34v.64A106,106,0,0,1,258,377.31c.1.46.19.91.25,1.38a14.38,14.38,0,0,1-1,7.55H258a15,15,0,0,0,.95-7.64c-.05-.39-.12-.78-.2-1.17q2.59.48,5.29,1.09l2.16.51v-.66Z"/><path class="cls-2" d="M296.69,378.88v-.61l-1.87-.44a105.69,105.69,0,0,0-16.92-2.5v.59a104.29,104.29,0,0,1,16.79,2.49Z"/><path class="cls-2" d="M322.15,284.84a47.63,47.63,0,0,1,9.69-7.41v-.64h-.17a49.19,49.19,0,0,0-10,7.59q-1.89,1.85-3.63,3.81h0a18.35,18.35,0,0,1-1.94-3.4,23.31,23.31,0,0,1-1.78-7.37c0-.11,0-.22,0-.34h-.64l0,.4a23.83,23.83,0,0,0,1.83,7.57,18,18,0,0,0,2.09,3.62q-2.47,2.83-4.65,5.88v1.1a74.35,74.35,0,0,1,5.05-6.46l.08-.1-.08.1a16.16,16.16,0,0,0,9.68,5.64,34.84,34.84,0,0,0,4.12.57v-.64a34.44,34.44,0,0,1-4-.55,15.6,15.6,0,0,1-9.38-5.51h0l0,0,0,0C319.64,287.37,320.87,286.09,322.15,284.84Z"/><path class="cls-2" d="M321.43,310.43A19.15,19.15,0,0,1,324.3,318a13.36,13.36,0,0,1-.92,7H324a13.82,13.82,0,0,0,.87-7.05,19.6,19.6,0,0,0-2.95-7.77c-.43-.69-.88-1.37-1.38-2h-.73C320.4,308.86,320.94,309.64,321.43,310.43Z"/><path class="cls-2" d="M322.15,345.42a48.36,48.36,0,0,1,9.69-7.41v-.63h-.17a49.19,49.19,0,0,0-10,7.59q-1.89,1.84-3.63,3.8h0a17.94,17.94,0,0,1-1.94-3.39,23.45,23.45,0,0,1-1.78-7.37c0-.11,0-.23,0-.34h-.64l0,.39a23.69,23.69,0,0,0,1.83,7.57,17.83,17.83,0,0,0,2.09,3.63q-2.47,2.83-4.65,5.88v1.1a74.49,74.49,0,0,1,5.05-6.47l.08-.09-.08.09a16.17,16.17,0,0,0,9.68,5.65,37.05,37.05,0,0,0,4.12.57v-.64a34.48,34.48,0,0,1-4-.56,15.54,15.54,0,0,1-9.38-5.5h0l0,0,0,0Q320.22,347.29,322.15,345.42Z"/><path class="cls-2" d="M321.43,371a19.09,19.09,0,0,1,2.87,7.54,13.32,13.32,0,0,1-.92,7H324a13.81,13.81,0,0,0,.87-7,19.71,19.71,0,0,0-2.95-7.77c-.43-.68-.88-1.36-1.38-2h-.73C320.4,369.45,320.94,370.23,321.43,371Z"/><path class="cls-2" d="M38.19,409.68a44.21,44.21,0,0,1,9.12-6.94v-.48H47a44.66,44.66,0,0,0-9.19,7A70.17,70.17,0,0,0,29,419.7h.72A68.8,68.8,0,0,1,38.19,409.68Z"/><path class="cls-2" d="M47.54,443.05v-.61L45.67,442a105.74,105.74,0,0,0-16.91-2.5v.59a104.18,104.18,0,0,1,16.78,2.49C46.21,442.73,46.88,442.88,47.54,443.05Z"/><path class="cls-2" d="M38.19,470.26a44.51,44.51,0,0,1,9.12-6.93v-.48H47a44.66,44.66,0,0,0-9.19,7A69.66,69.66,0,0,0,29,480.29h.72A68.87,68.87,0,0,1,38.19,470.26Z"/><path class="cls-2" d="M47.54,503.63V503l-1.87-.44a105.74,105.74,0,0,0-16.91-2.5v.59a105.25,105.25,0,0,1,16.78,2.48Z"/><path class="cls-2" d="M139,418.32a14.31,14.31,0,0,1-10.81-8.68,21.48,21.48,0,0,1-1.64-6.8c0-.11,0-.21,0-.31h-.59l0,.36a22,22,0,0,0,1.68,7,14.89,14.89,0,0,0,11.23,9,34.2,34.2,0,0,0,4,.53v-.58A34.08,34.08,0,0,1,139,418.32Z"/><path class="cls-2" d="M165,409.68a44.21,44.21,0,0,1,9.12-6.94v-.48h-.34a44.93,44.93,0,0,0-9.19,7,70.78,70.78,0,0,0-8.79,10.44h.72A69.43,69.43,0,0,1,165,409.68Z"/><path class="cls-2" d="M113.21,412.75v-.6l-1.87-.44a105.69,105.69,0,0,0-16.92-2.5v.59a104.07,104.07,0,0,1,16.79,2.48Z"/><path class="cls-2" d="M73,409.59a48.7,48.7,0,0,1,9.7-7.41v-.63h-.18a49.19,49.19,0,0,0-10,7.59q-1.87,1.85-3.63,3.8h0A17.94,17.94,0,0,1,67,409.55a23.18,23.18,0,0,1-1.77-7.37l0-.34h-.64l0,.39a23.76,23.76,0,0,0,1.83,7.57,18.31,18.31,0,0,0,2.09,3.63q-2.47,2.83-4.65,5.88v1.1a74.49,74.49,0,0,1,5-6.47l.08-.09-.08.09a16.2,16.2,0,0,0,9.68,5.65,36.9,36.9,0,0,0,4.13.57v-.64a36.63,36.63,0,0,1-4-.56,15.54,15.54,0,0,1-9.38-5.5h0l0,0,0,0C70.5,412.13,71.72,410.84,73,409.59Z"/><path class="cls-2" d="M72.28,435.19a19.09,19.09,0,0,1,2.87,7.54,13.32,13.32,0,0,1-.92,7h.63a13.81,13.81,0,0,0,.87-7.05,19.56,19.56,0,0,0-3-7.77c-.42-.68-.88-1.36-1.38-2h-.73C71.26,433.62,71.79,434.4,72.28,435.19Z"/><path class="cls-2" d="M103.86,440A44.51,44.51,0,0,1,113,433v-.49h-.34a45,45,0,0,0-9.19,7A69.74,69.74,0,0,0,94.66,450h.71A69.58,69.58,0,0,1,103.86,440Z"/><path class="cls-2" d="M141.77,442.07q-2.84-.65-5.58-1.15a22.23,22.23,0,0,0-2.85-6.57c-.46-.75-1-1.48-1.49-2.21h-.79c.63.84,1.21,1.68,1.74,2.54a22.36,22.36,0,0,1,2.71,6.12c-3.61-.63-7.11-1.08-10.57-1.34v.64a106.52,106.52,0,0,1,10.73,1.38c.1.45.18.91.24,1.37a14.3,14.3,0,0,1-1,7.56h.69a14.89,14.89,0,0,0,.94-7.64c0-.39-.12-.78-.2-1.17q2.61.48,5.29,1.09c.73.16,1.45.33,2.17.51v-.66Z"/><path class="cls-2" d="M174.31,443.05v-.61l-1.87-.44a105.74,105.74,0,0,0-16.91-2.5v.59a104.18,104.18,0,0,1,16.78,2.49C173,442.73,173.65,442.88,174.31,443.05Z"/><path class="cls-2" d="M261.35,418.32a14.3,14.3,0,0,1-10.81-8.68,21.21,21.21,0,0,1-1.64-6.8l0-.31h-.58c0,.12,0,.24,0,.36a22,22,0,0,0,1.69,7,14.89,14.89,0,0,0,11.23,9,33.91,33.91,0,0,0,4,.53v-.58A33.77,33.77,0,0,1,261.35,418.32Z"/><path class="cls-2" d="M287.34,409.68a44.21,44.21,0,0,1,9.12-6.94v-.48h-.34a44.66,44.66,0,0,0-9.19,7,69.57,69.57,0,0,0-8.79,10.44h.71A69.5,69.5,0,0,1,287.34,409.68Z"/><path class="cls-2" d="M235.59,412.75v-.6l-1.87-.44a105.86,105.86,0,0,0-16.92-2.5v.59a104.24,104.24,0,0,1,16.79,2.48Z"/><path class="cls-2" d="M195.38,409.59a48.36,48.36,0,0,1,9.69-7.41v-.63h-.18a49.42,49.42,0,0,0-10,7.59q-1.89,1.85-3.63,3.8h0a17.42,17.42,0,0,1-1.94-3.39,23.45,23.45,0,0,1-1.78-7.37c0-.11,0-.23,0-.34h-.64l0,.39a23.76,23.76,0,0,0,1.83,7.57,17.83,17.83,0,0,0,2.09,3.63,74.64,74.64,0,0,0-4.66,5.88v1.1a76.6,76.6,0,0,1,5.06-6.47l.08-.09-.08.09a16.17,16.17,0,0,0,9.68,5.65,36.73,36.73,0,0,0,4.12.57v-.64a36.46,36.46,0,0,1-4-.56,15.54,15.54,0,0,1-9.39-5.5h0l0,0,0,0Q193.46,411.47,195.38,409.59Z"/><path class="cls-2" d="M194.66,435.19a19.09,19.09,0,0,1,2.87,7.54,13.32,13.32,0,0,1-.92,7h.63a13.81,13.81,0,0,0,.87-7.05,19.71,19.71,0,0,0-3-7.77c-.43-.68-.89-1.36-1.38-2h-.73C193.63,433.62,194.17,434.4,194.66,435.19Z"/><path class="cls-2" d="M226.24,440a44.73,44.73,0,0,1,9.11-6.93v-.49H235a45.57,45.57,0,0,0-9.19,7A69.67,69.67,0,0,0,217,450h.71A69.58,69.58,0,0,1,226.24,440Z"/><path class="cls-2" d="M264.15,442.07c-1.9-.43-3.75-.81-5.58-1.15a22.49,22.49,0,0,0-2.85-6.57c-.46-.75-1-1.48-1.49-2.21h-.8c.63.84,1.21,1.68,1.75,2.54a22,22,0,0,1,2.7,6.12c-3.6-.63-7.1-1.08-10.56-1.34v.64A106,106,0,0,1,258,441.48c.1.45.19.91.25,1.37a14.4,14.4,0,0,1-1,7.56H258a15,15,0,0,0,.95-7.64c-.05-.39-.12-.78-.2-1.17q2.59.48,5.29,1.09l2.16.51v-.66Z"/><path class="cls-2" d="M296.69,443.05v-.61l-1.87-.44a105.69,105.69,0,0,0-16.92-2.5v.59a104.29,104.29,0,0,1,16.79,2.49C295.36,442.73,296,442.88,296.69,443.05Z"/><path class="cls-2" d="M139,478.91a14.33,14.33,0,0,1-10.81-8.69,21.41,21.41,0,0,1-1.64-6.79c0-.11,0-.21,0-.31h-.59l0,.36a22.07,22.07,0,0,0,1.68,7,14.86,14.86,0,0,0,11.23,9,32.21,32.21,0,0,0,4,.54v-.59A31.92,31.92,0,0,1,139,478.91Z"/><path class="cls-2" d="M165,470.26a44.51,44.51,0,0,1,9.12-6.93v-.48h-.34a44.93,44.93,0,0,0-9.19,7,70.26,70.26,0,0,0-8.79,10.44h.72A69.5,69.5,0,0,1,165,470.26Z"/><path class="cls-2" d="M113.21,473.34v-.6l-1.87-.44a103.48,103.48,0,0,0-16.92-2.5v.59a104.07,104.07,0,0,1,16.79,2.48Z"/><path class="cls-2" d="M73,470.18a48.7,48.7,0,0,1,9.7-7.41v-.63h-.18a49.19,49.19,0,0,0-10,7.59q-1.87,1.84-3.63,3.8h0A18.26,18.26,0,0,1,67,470.14a23.18,23.18,0,0,1-1.77-7.37l0-.34h-.64l0,.39a23.76,23.76,0,0,0,1.83,7.57A18.31,18.31,0,0,0,68.49,474c-1.65,1.89-3.2,3.84-4.65,5.87V481a74.49,74.49,0,0,1,5-6.47l.08-.09-.08.09a16.14,16.14,0,0,0,9.68,5.64,34.72,34.72,0,0,0,4.13.57v-.64a34.31,34.31,0,0,1-4-.55A15.55,15.55,0,0,1,69.32,474h0l0,0,0,0C70.5,472.72,71.72,471.43,73,470.18Z"/><path class="cls-2" d="M72.28,495.78a19,19,0,0,1,2.87,7.54,13.32,13.32,0,0,1-.92,7h.63a13.81,13.81,0,0,0,.87-7.05,19.56,19.56,0,0,0-3-7.77c-.42-.69-.88-1.36-1.38-2h-.73C71.26,494.21,71.79,495,72.28,495.78Z"/><path class="cls-2" d="M103.86,500.56a44.57,44.57,0,0,1,9.12-6.94v-.48h-.34a45,45,0,0,0-9.19,7,70.17,70.17,0,0,0-8.79,10.44h.71A69.5,69.5,0,0,1,103.86,500.56Z"/><path class="cls-2" d="M141.77,502.65q-2.84-.64-5.58-1.14a22.39,22.39,0,0,0-2.85-6.58c-.46-.74-1-1.48-1.49-2.2h-.79c.63.83,1.21,1.68,1.74,2.54a22.36,22.36,0,0,1,2.71,6.12c-3.61-.63-7.11-1.08-10.57-1.34v.64c3.51.27,7.06.72,10.73,1.37q.15.69.24,1.38a14.3,14.3,0,0,1-1,7.56h.69a14.89,14.89,0,0,0,.94-7.64c0-.39-.12-.78-.2-1.17q2.61.48,5.29,1.08l2.17.51v-.65Z"/><path class="cls-2" d="M174.31,503.63V503l-1.87-.44a105.74,105.74,0,0,0-16.91-2.5v.59a105.25,105.25,0,0,1,16.78,2.48Z"/><path class="cls-2" d="M261.35,478.91a14.31,14.31,0,0,1-10.81-8.69,21.15,21.15,0,0,1-1.64-6.79l0-.31h-.58c0,.12,0,.24,0,.36a22.07,22.07,0,0,0,1.69,7,14.86,14.86,0,0,0,11.23,9,32,32,0,0,0,4,.54v-.59A31.65,31.65,0,0,1,261.35,478.91Z"/><path class="cls-2" d="M287.34,470.26a44.51,44.51,0,0,1,9.12-6.93v-.48h-.34a44.66,44.66,0,0,0-9.19,7,69.08,69.08,0,0,0-8.79,10.44h.71A69.58,69.58,0,0,1,287.34,470.26Z"/><path class="cls-2" d="M235.59,473.34v-.6l-1.87-.44a103.64,103.64,0,0,0-16.92-2.5v.59a104.24,104.24,0,0,1,16.79,2.48Z"/><path class="cls-2" d="M195.38,470.18a48.36,48.36,0,0,1,9.69-7.41v-.63h-.18a49.42,49.42,0,0,0-10,7.59q-1.89,1.84-3.63,3.8h0a17.72,17.72,0,0,1-1.94-3.39,23.45,23.45,0,0,1-1.78-7.37c0-.12,0-.23,0-.34h-.64l0,.39a23.76,23.76,0,0,0,1.83,7.57,17.83,17.83,0,0,0,2.09,3.63,74.49,74.49,0,0,0-4.66,5.87V481a76.6,76.6,0,0,1,5.06-6.47l.08-.09-.08.09a16.11,16.11,0,0,0,9.68,5.64,34.55,34.55,0,0,0,4.12.57v-.64a34.15,34.15,0,0,1-4-.55,15.55,15.55,0,0,1-9.39-5.51h0l0,0,0,0Q193.46,472.06,195.38,470.18Z"/><path class="cls-2" d="M194.66,495.78a19,19,0,0,1,2.87,7.54,13.32,13.32,0,0,1-.92,7h.63a13.81,13.81,0,0,0,.87-7.05,19.71,19.71,0,0,0-3-7.77c-.43-.69-.89-1.36-1.38-2h-.73C193.63,494.21,194.17,495,194.66,495.78Z"/><path class="cls-2" d="M226.24,500.56a44.78,44.78,0,0,1,9.11-6.94v-.48H235a45.57,45.57,0,0,0-9.19,7A70.1,70.1,0,0,0,217,510.58h.71A69.5,69.5,0,0,1,226.24,500.56Z"/><path class="cls-2" d="M264.15,502.65c-1.9-.43-3.75-.81-5.58-1.14a22.66,22.66,0,0,0-2.85-6.58c-.46-.74-1-1.48-1.49-2.2h-.8c.63.83,1.21,1.68,1.75,2.54a22,22,0,0,1,2.7,6.12c-3.6-.63-7.1-1.08-10.56-1.34v.64c3.51.27,7.06.72,10.72,1.37.1.46.19.92.25,1.38a14.4,14.4,0,0,1-1,7.56H258a15,15,0,0,0,.95-7.64c-.05-.39-.12-.78-.2-1.17q2.59.48,5.29,1.08l2.16.51v-.65Z"/><path class="cls-2" d="M296.69,503.63V503l-1.87-.44a105.69,105.69,0,0,0-16.92-2.5v.59a105.36,105.36,0,0,1,16.79,2.48Z"/><path class="cls-2" d="M322.15,409.59a48.36,48.36,0,0,1,9.69-7.41v-.63h-.17a49.19,49.19,0,0,0-10,7.59q-1.89,1.85-3.63,3.8h0a17.94,17.94,0,0,1-1.94-3.39,23.45,23.45,0,0,1-1.78-7.37c0-.11,0-.23,0-.34h-.64l0,.39a23.76,23.76,0,0,0,1.83,7.57,17.83,17.83,0,0,0,2.09,3.63q-2.47,2.83-4.65,5.88v1.1a74.49,74.49,0,0,1,5.05-6.47l.08-.09-.08.09a16.17,16.17,0,0,0,9.68,5.65,37.05,37.05,0,0,0,4.12.57v-.64a36.8,36.8,0,0,1-4-.56,15.54,15.54,0,0,1-9.38-5.5h0l0,0,0,0Q320.22,411.47,322.15,409.59Z"/><path class="cls-2" d="M321.43,435.19a19.09,19.09,0,0,1,2.87,7.54,13.32,13.32,0,0,1-.92,7H324a13.81,13.81,0,0,0,.87-7.05,19.71,19.71,0,0,0-2.95-7.77c-.43-.68-.88-1.36-1.38-2h-.73C320.4,433.62,320.94,434.4,321.43,435.19Z"/><path class="cls-2" d="M322.15,470.18a48.36,48.36,0,0,1,9.69-7.41v-.63h-.17a49.19,49.19,0,0,0-10,7.59q-1.89,1.84-3.63,3.8h0a18.26,18.26,0,0,1-1.94-3.39,23.45,23.45,0,0,1-1.78-7.37c0-.12,0-.23,0-.34h-.64l0,.39a23.76,23.76,0,0,0,1.83,7.57,17.83,17.83,0,0,0,2.09,3.63c-1.65,1.89-3.2,3.84-4.65,5.87V481a74.49,74.49,0,0,1,5.05-6.47l.08-.09-.08.09a16.11,16.11,0,0,0,9.68,5.64,34.84,34.84,0,0,0,4.12.57v-.64a34.44,34.44,0,0,1-4-.55,15.55,15.55,0,0,1-9.38-5.51h0l0,0,0,0Q320.22,472.06,322.15,470.18Z"/><path class="cls-2" d="M321.43,495.78a19,19,0,0,1,2.87,7.54,13.32,13.32,0,0,1-.92,7H324a13.81,13.81,0,0,0,.87-7.05,19.71,19.71,0,0,0-2.95-7.77c-.43-.69-.88-1.36-1.38-2h-.73C320.4,494.21,320.94,495,321.43,495.78Z"/><path class="cls-2" d="M168.28,224.3a9.49,9.49,0,0,1-4.59,1.1,6.59,6.59,0,0,1-2.35-.41,5.29,5.29,0,0,1-1.85-1.18,5.39,5.39,0,0,1-1.22-1.82,6.21,6.21,0,0,1-.43-2.37,6.48,6.48,0,0,1,.43-2.42,5.52,5.52,0,0,1,1.22-1.85,5.31,5.31,0,0,1,1.85-1.19,6.59,6.59,0,0,1,2.35-.41,9.07,9.07,0,0,1,2.38.3,5,5,0,0,1,2,1.09l-1.45,1.48a3.52,3.52,0,0,0-1.3-.8,4.5,4.5,0,0,0-1.6-.29,3.88,3.88,0,0,0-1.56.31,3.64,3.64,0,0,0-1.2.85,3.85,3.85,0,0,0-.77,1.26,4.15,4.15,0,0,0-.28,1.55,4.59,4.59,0,0,0,.28,1.64,3.83,3.83,0,0,0,.77,1.3,3.67,3.67,0,0,0,1.2.86,3.72,3.72,0,0,0,1.56.32,6.51,6.51,0,0,0,1.42-.15,4.23,4.23,0,0,0,1.18-.43v-2.62H164v-1.78h4.24Z"/><path class="cls-2" d="M170.44,217.6h1.88v1.19h0a2.36,2.36,0,0,1,.9-1,2.45,2.45,0,0,1,1.33-.36,1.24,1.24,0,0,1,.33,0l.34.07v1.82a4.24,4.24,0,0,0-.46-.1,2.28,2.28,0,0,0-.45,0,1.86,1.86,0,0,0-1.67.8,2,2,0,0,0-.28.62,3.12,3.12,0,0,0-.07.47v4h-1.88Z"/><path class="cls-2" d="M177.76,222a1.9,1.9,0,0,0,.65,1.31,2,2,0,0,0,1.37.47,2.18,2.18,0,0,0,1.18-.29,3.21,3.21,0,0,0,.84-.72l1.34,1a3.71,3.71,0,0,1-1.47,1.16,4.32,4.32,0,0,1-1.71.35,4.66,4.66,0,0,1-1.59-.28,3.9,3.9,0,0,1-1.3-.8,3.7,3.7,0,0,1-.87-1.25,3.84,3.84,0,0,1-.32-1.62,3.91,3.91,0,0,1,.32-1.62,3.68,3.68,0,0,1,2.17-2,4.44,4.44,0,0,1,1.59-.29,3.73,3.73,0,0,1,1.44.28,3,3,0,0,1,1.11.79,3.53,3.53,0,0,1,.72,1.28,5.4,5.4,0,0,1,.26,1.74V222Zm3.85-1.41a1.76,1.76,0,0,0-.52-1.31,1.92,1.92,0,0,0-1.39-.48,1.84,1.84,0,0,0-1.34.49,2.14,2.14,0,0,0-.6,1.3Z"/><path class="cls-2" d="M189.94,224.09h-.05a2.48,2.48,0,0,1-1,.93,3.31,3.31,0,0,1-1.38.29,3.85,3.85,0,0,1-1-.14,2.89,2.89,0,0,1-.88-.43,2.06,2.06,0,0,1-.61-.7,2,2,0,0,1-.24-1,2.22,2.22,0,0,1,.22-1,2.08,2.08,0,0,1,.59-.72,2.89,2.89,0,0,1,.85-.46,5.76,5.76,0,0,1,1-.26,9.28,9.28,0,0,1,1.06-.11c.35,0,.69,0,1,0h.47v-.21a1.21,1.21,0,0,0-.48-1,2,2,0,0,0-1.24-.36,2.89,2.89,0,0,0-1.11.21,3,3,0,0,0-.9.58l-1-1a3.46,3.46,0,0,1,1.46-.92,5.37,5.37,0,0,1,1.73-.29,4.41,4.41,0,0,1,1.35.18,3,3,0,0,1,.91.47,1.89,1.89,0,0,1,.55.65,2.68,2.68,0,0,1,.28.74,3.8,3.8,0,0,1,.11.73c0,.23,0,.44,0,.62v4.32h-1.69Zm-.11-2.34h-.39l-.88,0a4.32,4.32,0,0,0-.91.15,2.16,2.16,0,0,0-.73.35.74.74,0,0,0-.3.63.79.79,0,0,0,.12.45,1.07,1.07,0,0,0,.3.3,1.09,1.09,0,0,0,.43.18,1.84,1.84,0,0,0,.47.06,2,2,0,0,0,1.43-.46,1.71,1.71,0,0,0,.46-1.27Z"/><path class="cls-2" d="M192.78,219.2v-1.6h1.55v-2.18h1.88v2.18h2.06v1.6h-2.06v3.29a1.65,1.65,0,0,0,.21.89.92.92,0,0,0,.83.33,2.8,2.8,0,0,0,.55-.06,1,1,0,0,0,.47-.18v1.59a2.35,2.35,0,0,1-.73.19,5.5,5.5,0,0,1-.76.06,3.73,3.73,0,0,1-1.22-.17,1.64,1.64,0,0,1-.76-.5,1.91,1.91,0,0,1-.37-.84,5.7,5.7,0,0,1-.1-1.16V219.2Z"/><path class="cls-2" d="M199.76,224a1.15,1.15,0,0,1,.37-.86,1.21,1.21,0,0,1,.88-.36,1.26,1.26,0,0,1,.88.35,1.1,1.1,0,0,1,.38.84,1.17,1.17,0,0,1-.37.86,1.23,1.23,0,0,1-.89.36,1.36,1.36,0,0,1-.48-.09,1.3,1.3,0,0,1-.39-.25,1.17,1.17,0,0,1-.28-.38A1,1,0,0,1,199.76,224Zm2.19-2.38h-1.88V214H202Z"/><path class="cls-2" d="M136.31,373.87h3.88v.54h-3.27v2.31h3v.55h-3v3.07h-.61Z"/><path class="cls-2" d="M141.4,373.87h4v.54H142v2.31h3.15v.55H142v2.53h3.51v.54H141.4Z"/><path class="cls-2" d="M146.82,373.87h4v.54h-3.36v2.31h3.15v.55h-3.15v2.53h3.5v.54h-4.11Z"/><path class="cls-2" d="M152.25,373.87h.6v5.93h3v.54h-3.62Z"/><path class="cls-2" d="M156.83,373.87h.6v6.47h-.6Z"/><path class="cls-2" d="M159.2,373.87H160l4,5.67h0v-5.67h.61v6.47h-.78l-3.94-5.67h0v5.67h-.61Z"/><path class="cls-2" d="M171.67,379.92a4.07,4.07,0,0,1-1.18.46,6.36,6.36,0,0,1-1.24.13,3.74,3.74,0,0,1-1.36-.25,3.09,3.09,0,0,1-1-.71,3,3,0,0,1-.69-1.08,3.54,3.54,0,0,1-.25-1.36,3.59,3.59,0,0,1,.25-1.37,3.17,3.17,0,0,1,1.74-1.78,3.54,3.54,0,0,1,1.36-.26,3.11,3.11,0,0,1,2.33.9l-.43.46a1.71,1.71,0,0,0-.37-.33,2.28,2.28,0,0,0-.46-.26,3.24,3.24,0,0,0-.53-.16,2.48,2.48,0,0,0-.54-.06,2.79,2.79,0,0,0-1.14.22,2.66,2.66,0,0,0-.86.6,2.7,2.7,0,0,0-.55.91,3.43,3.43,0,0,0,0,2.25,2.7,2.7,0,0,0,.55.91,2.66,2.66,0,0,0,.86.6,2.79,2.79,0,0,0,1.14.22,6,6,0,0,0,1-.08,2.73,2.73,0,0,0,.83-.3V377.4h-1.55v-.55h2.16Z"/><path class="cls-2" d="M175.4,377.11a3.59,3.59,0,0,1,.25-1.37,3.09,3.09,0,0,1,1.74-1.78,3.51,3.51,0,0,1,1.36-.26,3.54,3.54,0,0,1,1.36.26,3.17,3.17,0,0,1,1.74,1.78,3.59,3.59,0,0,1,.25,1.37,3.54,3.54,0,0,1-.25,1.36,3,3,0,0,1-.69,1.08,3.09,3.09,0,0,1-1,.71,3.74,3.74,0,0,1-1.36.25,3.7,3.7,0,0,1-1.36-.25,3.24,3.24,0,0,1-1.06-.71,3.15,3.15,0,0,1-.68-1.08A3.54,3.54,0,0,1,175.4,377.11Zm.6,0a3.18,3.18,0,0,0,.2,1.12,2.54,2.54,0,0,0,1.41,1.51,3.06,3.06,0,0,0,2.28,0,2.55,2.55,0,0,0,.86-.6,2.7,2.7,0,0,0,.55-.91,3.43,3.43,0,0,0,0-2.25,2.7,2.7,0,0,0-.55-.91,2.55,2.55,0,0,0-.86-.6,3.06,3.06,0,0,0-2.28,0A2.54,2.54,0,0,0,176.2,376,3.19,3.19,0,0,0,176,377.11Z"/><path class="cls-2" d="M183.45,373.87h3.88v.54h-3.27v2.31h3v.55h-3v3.07h-.61Z"/><path class="cls-2" d="M192.9,373.87h.63l2.72,6.47h-.67l-.71-1.72h-3.43l-.73,1.72h-.63Zm.29.65-1.51,3.56h3Z"/><path class="cls-2" d="M199.57,373.87h.6v5.93h3v.54h-3.62Z"/><path class="cls-2" d="M203.72,377.11a3.59,3.59,0,0,1,.25-1.37,3.09,3.09,0,0,1,1.74-1.78,3.51,3.51,0,0,1,1.36-.26,3.54,3.54,0,0,1,1.36.26,3.17,3.17,0,0,1,1.74,1.78,3.79,3.79,0,0,1,.25,1.37,3.74,3.74,0,0,1-.25,1.36,3,3,0,0,1-.69,1.08,3.09,3.09,0,0,1-1,.71,3.74,3.74,0,0,1-1.36.25,3.7,3.7,0,0,1-1.36-.25,3.24,3.24,0,0,1-1.06-.71,3.15,3.15,0,0,1-.68-1.08A3.54,3.54,0,0,1,203.72,377.11Zm.6,0a3.18,3.18,0,0,0,.2,1.12,2.47,2.47,0,0,0,1.41,1.51,3.06,3.06,0,0,0,2.28,0,2.66,2.66,0,0,0,.86-.6,2.7,2.7,0,0,0,.55-.91,3.43,3.43,0,0,0,0-2.25,2.7,2.7,0,0,0-.55-.91,2.66,2.66,0,0,0-.86-.6,3.06,3.06,0,0,0-2.28,0,2.47,2.47,0,0,0-1.41,1.51A3.19,3.19,0,0,0,204.32,377.11Z"/><path class="cls-2" d="M211.35,377.11a3.59,3.59,0,0,1,.25-1.37,3.09,3.09,0,0,1,1.74-1.78,3.69,3.69,0,0,1,2.72,0,3.09,3.09,0,0,1,1.74,1.78,3.59,3.59,0,0,1,.25,1.37,3.54,3.54,0,0,1-.25,1.36,3.15,3.15,0,0,1-.68,1.08,3.24,3.24,0,0,1-1.06.71,3.82,3.82,0,0,1-2.72,0,3.24,3.24,0,0,1-1.06-.71,3.15,3.15,0,0,1-.68-1.08A3.54,3.54,0,0,1,211.35,377.11Zm.6,0a3.18,3.18,0,0,0,.2,1.12,2.7,2.7,0,0,0,.55.91,2.55,2.55,0,0,0,.86.6,3.06,3.06,0,0,0,2.28,0,2.55,2.55,0,0,0,.86-.6,2.7,2.7,0,0,0,.55-.91,3.43,3.43,0,0,0,0-2.25,2.7,2.7,0,0,0-.55-.91,2.55,2.55,0,0,0-.86-.6,3.06,3.06,0,0,0-2.28,0,2.55,2.55,0,0,0-.86.6,2.7,2.7,0,0,0-.55.91A3.19,3.19,0,0,0,212,377.11Z"/><path class="cls-2" d="M219.4,373.87H220v2.85h.05l3.14-2.85H224l-3.27,3,3.46,3.51h-.87L220.06,377H220v3.34h-.61Z"/><path d="M142.92,306.5a27,27,0,0,1,5.54-4.21V302h-.21a27.4,27.4,0,0,0-5.58,4.25,42.81,42.81,0,0,0-5.34,6.34h.44A43,43,0,0,1,142.92,306.5Z"/><path d="M130.05,308.37V308l-1.14-.26a62.84,62.84,0,0,0-10.27-1.52v.36a62.8,62.8,0,0,1,10.19,1.51Z"/><path d="M180,306.5a26.9,26.9,0,0,1,5.53-4.21V302h-.2a27.4,27.4,0,0,0-5.58,4.25,42.81,42.81,0,0,0-5.34,6.34h.43A43.1,43.1,0,0,1,180,306.5Z"/><path d="M167.15,308.37V308l-1.13-.26a62.84,62.84,0,0,0-10.27-1.52v.36a63.12,63.12,0,0,1,10.19,1.51Z"/><path d="M217.13,306.5a27.23,27.23,0,0,1,5.54-4.21V302h-.21a27.4,27.4,0,0,0-5.58,4.25,42.14,42.14,0,0,0-5.33,6.34H212A43,43,0,0,1,217.13,306.5Z"/><path d="M204.26,308.37V308l-1.14-.26a62.84,62.84,0,0,0-10.27-1.52v.36A62.8,62.8,0,0,1,203,308.09Z"/><path d="M254.24,306.5a26.69,26.69,0,0,1,5.54-4.21V302h-.21a27.4,27.4,0,0,0-5.58,4.25,42.81,42.81,0,0,0-5.34,6.34h.44A43,43,0,0,1,254.24,306.5Z"/><path d="M241.36,308.37V308l-1.13-.26A62.84,62.84,0,0,0,230,306.22v.36a63,63,0,0,1,10.19,1.51Z"/><path d="M293.89,306.5a27,27,0,0,1,5.54-4.21V302h-.21a27.4,27.4,0,0,0-5.58,4.25,42.81,42.81,0,0,0-5.34,6.34h.44A43,43,0,0,1,293.89,306.5Z"/><path d="M281,308.37V308l-1.14-.26a62.84,62.84,0,0,0-10.27-1.52v.36a62.8,62.8,0,0,1,10.19,1.51Z"/><path d="M331,306.5a26.9,26.9,0,0,1,5.53-4.21V302h-.2a27.4,27.4,0,0,0-5.58,4.25,42.81,42.81,0,0,0-5.34,6.34h.43A43.1,43.1,0,0,1,331,306.5Z"/><path d="M318.12,308.37V308l-1.13-.26a62.79,62.79,0,0,0-10.28-1.52v.36a63.07,63.07,0,0,1,10.2,1.51Z"/><path d="M355.23,308.37V308l-1.14-.26a62.84,62.84,0,0,0-10.27-1.52v.36A62.8,62.8,0,0,1,354,308.09Z"/></svg>