<svg id="Layer_1" data-name="Layer 1" xmlns="http://www.w3.org/2000/svg" viewBox="0 0 140 21.02"><defs><style>.cls-1{fill:#fff;}</style></defs><path class="cls-1" d="M0,.26H6.18v.88H1V4.81H5.81v.87H1v4.9H0Z"/><path class="cls-1" d="M8.1.26h6.31v.88H9.06V4.81h5v.87h-5v4h5.59v.87H8.1Z"/><path class="cls-1" d="M16.74.26h6.31v.88H17.71V4.81h5v.87h-5v4h5.58v.87H16.74Z"/><path class="cls-1" d="M25.39.26h1V9.71h4.81v.87H25.39Z"/><path class="cls-1" d="M32.67.26h1V10.58h-1Z"/><path class="cls-1" d="M36.46.26H37.7L44,9.3h0v-9h1V10.58H43.73l-6.28-9h0v9h-1Z"/><path class="cls-1" d="M56.31,9.91a6.69,6.69,0,0,1-1.87.72,9.38,9.38,0,0,1-2,.21,5.58,5.58,0,0,1-2.16-.4,4.94,4.94,0,0,1-1.69-1.12A5.16,5.16,0,0,1,47.52,7.6a6,6,0,0,1-.39-2.18,5.86,5.86,0,0,1,.39-2.17,5.21,5.21,0,0,1,1.09-1.71A5,5,0,0,1,50.3.41,5.58,5.58,0,0,1,52.46,0a5,5,0,0,1,3.72,1.43l-.7.73a2.94,2.94,0,0,0-.58-.52,3.79,3.79,0,0,0-.74-.41A4.81,4.81,0,0,0,53.32,1a3.67,3.67,0,0,0-.86-.1,4.56,4.56,0,0,0-1.81.35,4.15,4.15,0,0,0-1.38,1,4,4,0,0,0-.87,1.44,5,5,0,0,0-.31,1.79,5,5,0,0,0,.31,1.79,4,4,0,0,0,.87,1.44,4.15,4.15,0,0,0,1.38,1,4.56,4.56,0,0,0,1.81.35A9.46,9.46,0,0,0,54,9.84a4.14,4.14,0,0,0,1.33-.48V5.89H52.87V5h3.44Z"/><path class="cls-1" d="M62.25,5.42a5.86,5.86,0,0,1,.4-2.17A5,5,0,0,1,65.42.41a5.92,5.92,0,0,1,4.33,0,5,5,0,0,1,1.69,1.13,5.21,5.21,0,0,1,1.09,1.71,5.86,5.86,0,0,1,.39,2.17,6,6,0,0,1-.39,2.18,5.16,5.16,0,0,1-1.09,1.72,4.94,4.94,0,0,1-1.69,1.12,6.06,6.06,0,0,1-4.33,0A4.89,4.89,0,0,1,62.65,7.6,6,6,0,0,1,62.25,5.42Zm1,0a5.21,5.21,0,0,0,.3,1.79,4.2,4.2,0,0,0,.88,1.44,4.11,4.11,0,0,0,1.37,1,4.61,4.61,0,0,0,1.82.35,4.56,4.56,0,0,0,1.81-.35,4.15,4.15,0,0,0,1.38-1,4,4,0,0,0,.87-1.44A5,5,0,0,0,72,5.42a5,5,0,0,0-.31-1.79,4,4,0,0,0-.87-1.44,4.15,4.15,0,0,0-1.38-1A4.56,4.56,0,0,0,67.59.87a4.61,4.61,0,0,0-1.82.35,4.11,4.11,0,0,0-1.37,1,4.2,4.2,0,0,0-.88,1.44A5.21,5.21,0,0,0,63.22,5.42Z"/><path class="cls-1" d="M75.08.26h6.18v.88H76V4.81h4.85v.87H76v4.9h-1Z"/><path class="cls-1" d="M90.13.26h1l4.35,10.32H94.39L93.26,7.84H87.8l-1.17,2.74h-1Zm.45,1.05L88.18,7h4.74Z"/><path class="cls-1" d="M100.74.26h1V9.71h4.81v.87h-5.77Z"/><path class="cls-1" d="M107.36,5.42a5.86,5.86,0,0,1,.39-2.17,5.21,5.21,0,0,1,1.09-1.71A5,5,0,0,1,110.53.41a5.89,5.89,0,0,1,4.32,0,5,5,0,0,1,1.69,1.13,5.21,5.21,0,0,1,1.09,1.71A5.86,5.86,0,0,1,118,5.42a6,6,0,0,1-.39,2.18,5.16,5.16,0,0,1-1.09,1.72,4.94,4.94,0,0,1-1.69,1.12,6,6,0,0,1-4.32,0,4.94,4.94,0,0,1-1.69-1.12,5.16,5.16,0,0,1-1.09-1.72A6,6,0,0,1,107.36,5.42Zm1,0a5.21,5.21,0,0,0,.3,1.79,4.2,4.2,0,0,0,.88,1.44,4.15,4.15,0,0,0,1.38,1,4.56,4.56,0,0,0,1.81.35,4.61,4.61,0,0,0,1.82-.35,4.17,4.17,0,0,0,2.25-2.41,5.21,5.21,0,0,0,.3-1.79,5.21,5.21,0,0,0-.3-1.79,4.17,4.17,0,0,0-2.25-2.41,4.61,4.61,0,0,0-1.82-.35,4.56,4.56,0,0,0-1.81.35,4.15,4.15,0,0,0-1.38,1,4.2,4.2,0,0,0-.88,1.44A5.21,5.21,0,0,0,108.32,5.42Z"/><path class="cls-1" d="M119.51,5.42a5.86,5.86,0,0,1,.39-2.17A5.24,5.24,0,0,1,121,1.54,4.83,4.83,0,0,1,122.68.41a5.92,5.92,0,0,1,4.33,0,4.93,4.93,0,0,1,1.68,1.13,5.06,5.06,0,0,1,1.09,1.71,5.66,5.66,0,0,1,.4,2.17,5.75,5.75,0,0,1-.4,2.18,5,5,0,0,1-1.09,1.72A4.9,4.9,0,0,1,127,10.44a6.06,6.06,0,0,1-4.33,0A4.81,4.81,0,0,1,121,9.32a5.18,5.18,0,0,1-1.1-1.72A6,6,0,0,1,119.51,5.42Zm1,0a5,5,0,0,0,.31,1.79,4,4,0,0,0,.87,1.44,4.15,4.15,0,0,0,1.38,1,4.56,4.56,0,0,0,1.81.35,4.61,4.61,0,0,0,1.82-.35,4.09,4.09,0,0,0,2.25-2.41,5.32,5.32,0,0,0,0-3.58,4.09,4.09,0,0,0-2.25-2.41,4.61,4.61,0,0,0-1.82-.35,4.56,4.56,0,0,0-1.81.35,4.15,4.15,0,0,0-1.38,1,4,4,0,0,0-.87,1.44A5,5,0,0,0,120.47,5.42Z"/><path class="cls-1" d="M132.34.26h1V4.81h.08l5-4.55h1.33L134.49,5l5.51,5.6h-1.38l-5.24-5.33h-.08v5.33h-1Z"/><path class="cls-1" d="M2.66,17.2H1.46v2.74a.59.59,0,0,0,.15.43.56.56,0,0,0,.43.16,1.65,1.65,0,0,0,.31,0l.31-.11,0,.49a2.47,2.47,0,0,1-.35.1A1.72,1.72,0,0,1,2,21a1.28,1.28,0,0,1-.5-.09.81.81,0,0,1-.33-.23A.88.88,0,0,1,1,20.36a1.42,1.42,0,0,1-.06-.42V17.2H0v-.49H.91V15.5h.55v1.21h1.2Z"/><path class="cls-1" d="M4.24,18.81a2.35,2.35,0,0,1,.16-.89,2.08,2.08,0,0,1,.46-.7,2,2,0,0,1,.7-.46,2.35,2.35,0,0,1,.89-.16,2.35,2.35,0,0,1,.89.16,2.08,2.08,0,0,1,.7.46,2.24,2.24,0,0,1,.46.7,2.35,2.35,0,0,1,.16.89,2.3,2.3,0,0,1-.16.88,2.13,2.13,0,0,1-.46.7,1.94,1.94,0,0,1-.7.46,2.41,2.41,0,0,1-1.78,0,1.86,1.86,0,0,1-.7-.46,2,2,0,0,1-.46-.7A2.3,2.3,0,0,1,4.24,18.81Zm.55,0a1.89,1.89,0,0,0,.11.67,1.48,1.48,0,0,0,.33.54,1.54,1.54,0,0,0,.53.37,1.77,1.77,0,0,0,1.38,0A1.54,1.54,0,0,0,7.67,20,1.48,1.48,0,0,0,8,19.48a1.89,1.89,0,0,0,.11-.67A1.85,1.85,0,0,0,8,18.14a1.62,1.62,0,0,0-.33-.55,1.66,1.66,0,0,0-.53-.36,1.55,1.55,0,0,0-.69-.14,1.55,1.55,0,0,0-.69.14,1.66,1.66,0,0,0-.53.36,1.62,1.62,0,0,0-.33.55A1.85,1.85,0,0,0,4.79,18.81Z"/><path class="cls-1" d="M17.46,20.29a2,2,0,0,1-.7.55,2.06,2.06,0,0,1-.85.18,2.35,2.35,0,0,1-.89-.17,1.86,1.86,0,0,1-.7-.46,2,2,0,0,1-.46-.7,2.3,2.3,0,0,1-.16-.88,2.35,2.35,0,0,1,.16-.89,2.08,2.08,0,0,1,.46-.7,2,2,0,0,1,.7-.46,2.35,2.35,0,0,1,.89-.16,1.9,1.9,0,0,1,.86.19,2.1,2.1,0,0,1,.7.53l-.43.33a2,2,0,0,0-.52-.41,1.28,1.28,0,0,0-.61-.15,1.52,1.52,0,0,0-.69.14,1.66,1.66,0,0,0-.53.36,1.47,1.47,0,0,0-.33.55,1.85,1.85,0,0,0-.12.67,1.89,1.89,0,0,0,.12.67,1.36,1.36,0,0,0,.33.54,1.54,1.54,0,0,0,.53.37,1.67,1.67,0,0,0,.69.14,1.34,1.34,0,0,0,.63-.16,1.71,1.71,0,0,0,.5-.43Z"/><path class="cls-1" d="M19.16,17.89c0-.08,0-.18,0-.29s0-.22,0-.34,0-.22,0-.32a2.2,2.2,0,0,1,0-.23h.55c0,.15,0,.31,0,.45a1.35,1.35,0,0,0,0,.28,2,2,0,0,1,.54-.61,1.37,1.37,0,0,1,.8-.23h.16l.16,0-.07.54a.51.51,0,0,0-.2,0,1.46,1.46,0,0,0-.62.12,1.22,1.22,0,0,0-.43.31,1.41,1.41,0,0,0-.25.47,2.14,2.14,0,0,0-.08.58v2.29h-.54Z"/><path class="cls-1" d="M26.58,20.12a1.8,1.8,0,0,1-.79.69,2.46,2.46,0,0,1-1,.21,2.21,2.21,0,0,1-.87-.17,1.86,1.86,0,0,1-.68-.46,2.06,2.06,0,0,1-.43-.7,2.52,2.52,0,0,1-.15-.89,2.21,2.21,0,0,1,.16-.87,2,2,0,0,1,.43-.7,2.13,2.13,0,0,1,.67-.47,2.31,2.31,0,0,1,1.69,0,2,2,0,0,1,.62.45,2,2,0,0,1,.38.63,2.28,2.28,0,0,1,.13.72v.38H23.18a1.71,1.71,0,0,0,.07.45,1.57,1.57,0,0,0,.73.95,1.47,1.47,0,0,0,.79.19,1.8,1.8,0,0,0,.81-.2,1.52,1.52,0,0,0,.6-.55Zm-.42-1.67a1.27,1.27,0,0,0-.11-.52,1.52,1.52,0,0,0-.31-.44,1.49,1.49,0,0,0-.47-.29,1.3,1.3,0,0,0-.56-.11,1.44,1.44,0,0,0-.75.18,1.56,1.56,0,0,0-.46.42,1.62,1.62,0,0,0-.25.46,1.14,1.14,0,0,0-.07.3Z"/><path class="cls-1" d="M32,19.14v.56c0,.16,0,.31,0,.45l0,.39c0,.13,0,.25,0,.37h-.51a3.62,3.62,0,0,1-.05-.68h0a1.62,1.62,0,0,1-.59.6,1.92,1.92,0,0,1-.89.19,1.88,1.88,0,0,1-.53-.07,1.51,1.51,0,0,1-.48-.22,1.17,1.17,0,0,1-.34-.39A1.29,1.29,0,0,1,28.83,19a1.54,1.54,0,0,1,.6-.43,3.21,3.21,0,0,1,.77-.18c.27,0,.5,0,.71,0h.64v-.25a.91.91,0,0,0-.34-.79,1.52,1.52,0,0,0-.85-.23,2,2,0,0,0-1.28.47l-.32-.37a1.87,1.87,0,0,1,.75-.44,2.68,2.68,0,0,1,.85-.15,1.91,1.91,0,0,1,1.22.36A1.37,1.37,0,0,1,32,18.12ZM31,18.8a4.73,4.73,0,0,0-.67,0,2.54,2.54,0,0,0-.59.16,1,1,0,0,0-.41.29.68.68,0,0,0-.15.45.78.78,0,0,0,.08.35.66.66,0,0,0,.23.24,1.4,1.4,0,0,0,.3.15,1.33,1.33,0,0,0,.34.05,1.85,1.85,0,0,0,.72-.13,1.32,1.32,0,0,0,.45-.33,1.15,1.15,0,0,0,.23-.47,2.25,2.25,0,0,0,.07-.52V18.8Z"/><path class="cls-1" d="M36.4,17.2H35.19v2.74a.6.6,0,0,0,.16.43.54.54,0,0,0,.43.16,1.76,1.76,0,0,0,.31,0l.31-.11,0,.49a2.47,2.47,0,0,1-.35.1,1.81,1.81,0,0,1-.36.05,1.28,1.28,0,0,1-.5-.09.93.93,0,0,1-.34-.23,1,1,0,0,1-.18-.34,1.42,1.42,0,0,1-.06-.42V17.2h-.91v-.49h.91V15.5h.54v1.21H36.4Z"/><path class="cls-1" d="M41.92,20.12a1.83,1.83,0,0,1-.78.69,2.51,2.51,0,0,1-1,.21,2.21,2.21,0,0,1-.87-.17,1.83,1.83,0,0,1-.67-.46,1.92,1.92,0,0,1-.43-.7A2.52,2.52,0,0,1,38,18.8a2.41,2.41,0,0,1,.15-.87,2,2,0,0,1,.44-.7,2.21,2.21,0,0,1,.66-.47,2.15,2.15,0,0,1,.85-.16,2.08,2.08,0,0,1,.85.16,2.2,2.2,0,0,1,.62.45,2.09,2.09,0,0,1,.5,1.35v.38H38.52a2.26,2.26,0,0,0,.07.45,1.77,1.77,0,0,0,.25.52,1.48,1.48,0,0,0,.49.43,1.41,1.41,0,0,0,.78.19,1.8,1.8,0,0,0,.81-.2,1.52,1.52,0,0,0,.6-.55Zm-.41-1.67a1.14,1.14,0,0,0-.12-.52,1.35,1.35,0,0,0-.31-.44,1.44,1.44,0,0,0-.46-.29,1.38,1.38,0,0,0-.57-.11,1.4,1.4,0,0,0-.74.18,1.61,1.61,0,0,0-.47.42,1.57,1.57,0,0,0-.24.46,1.33,1.33,0,0,0-.08.3Z"/><path class="cls-1" d="M46.74,16.71h.6l1,3.52h0l1.18-3.52h.52l1.24,3.52h0l1-3.52h.55l-1.24,4.2h-.56l-1.26-3.44h0l-1.17,3.44h-.56Z"/><path class="cls-1" d="M54.58,14h.54v3.41h0a1.4,1.4,0,0,1,.55-.59,1.55,1.55,0,0,1,.89-.25,1.84,1.84,0,0,1,.8.15,1.24,1.24,0,0,1,.49.41,1.53,1.53,0,0,1,.24.57,3.08,3.08,0,0,1,.07.68v2.5h-.54V18.43a2.63,2.63,0,0,0,0-.49,1.16,1.16,0,0,0-.16-.43.87.87,0,0,0-.32-.31,1.13,1.13,0,0,0-.53-.11,1.56,1.56,0,0,0-.57.1,1.23,1.23,0,0,0-.46.32,1.42,1.42,0,0,0-.31.54,2.16,2.16,0,0,0-.12.76v2.1h-.54Z"/><path class="cls-1" d="M63.75,19.14v.56c0,.16,0,.31,0,.45l0,.39c0,.13,0,.25,0,.37h-.51a3.58,3.58,0,0,1-.06-.68h0a1.62,1.62,0,0,1-.59.6,1.92,1.92,0,0,1-.89.19,1.88,1.88,0,0,1-.53-.07,1.51,1.51,0,0,1-.48-.22,1.17,1.17,0,0,1-.34-.39A1.29,1.29,0,0,1,60.54,19a1.54,1.54,0,0,1,.6-.43,3.13,3.13,0,0,1,.76-.18c.27,0,.51,0,.72,0h.63v-.25a.91.91,0,0,0-.33-.79,1.52,1.52,0,0,0-.85-.23,2,2,0,0,0-1.28.47l-.32-.37a1.87,1.87,0,0,1,.75-.44,2.63,2.63,0,0,1,.85-.15,1.91,1.91,0,0,1,1.22.36,1.37,1.37,0,0,1,.46,1.16Zm-1.09-.34a4.73,4.73,0,0,0-.67,0,2.54,2.54,0,0,0-.59.16,1,1,0,0,0-.41.29.68.68,0,0,0-.15.45.78.78,0,0,0,.08.35.66.66,0,0,0,.23.24,1.4,1.4,0,0,0,.3.15,1.33,1.33,0,0,0,.34.05,1.85,1.85,0,0,0,.72-.13,1.32,1.32,0,0,0,.45-.33,1.15,1.15,0,0,0,.23-.47,2.24,2.24,0,0,0,.06-.52V18.8Z"/><path class="cls-1" d="M68.1,17.2H66.9v2.74a.6.6,0,0,0,.16.43.54.54,0,0,0,.43.16,1.76,1.76,0,0,0,.31,0,2.09,2.09,0,0,0,.3-.11l.05.49a2.47,2.47,0,0,1-.35.1,1.81,1.81,0,0,1-.36.05,1.28,1.28,0,0,1-.5-.09.93.93,0,0,1-.34-.23,1,1,0,0,1-.18-.34,1.42,1.42,0,0,1-.06-.42V17.2h-.91v-.49h.91V15.5h.54v1.21h1.2Z"/><path class="cls-1" d="M76.65,20.29a1.92,1.92,0,0,1-.7.55,2,2,0,0,1-.84.18,2.35,2.35,0,0,1-.89-.17,1.78,1.78,0,0,1-.7-.46,2,2,0,0,1-.46-.7,2.3,2.3,0,0,1-.16-.88,2.35,2.35,0,0,1,.16-.89,2.08,2.08,0,0,1,.46-.7,1.9,1.9,0,0,1,.7-.46,2.35,2.35,0,0,1,.89-.16,1.93,1.93,0,0,1,.86.19,2.1,2.1,0,0,1,.7.53l-.43.33a2.18,2.18,0,0,0-.52-.41,1.28,1.28,0,0,0-.61-.15,1.52,1.52,0,0,0-.69.14,1.66,1.66,0,0,0-.53.36,1.47,1.47,0,0,0-.33.55,1.85,1.85,0,0,0-.12.67,1.89,1.89,0,0,0,.12.67,1.36,1.36,0,0,0,.33.54,1.54,1.54,0,0,0,.53.37,1.67,1.67,0,0,0,.69.14,1.34,1.34,0,0,0,.63-.16,1.71,1.71,0,0,0,.5-.43Z"/><path class="cls-1" d="M78.36,17.89c0-.08,0-.18,0-.29s0-.22,0-.34,0-.22,0-.32a2.2,2.2,0,0,1,0-.23h.54c0,.15,0,.31,0,.45a1.35,1.35,0,0,0,0,.28,2,2,0,0,1,.54-.61,1.37,1.37,0,0,1,.8-.23h.16l.16,0-.07.54a.52.52,0,0,0-.21,0,1.44,1.44,0,0,0-.61.12,1.22,1.22,0,0,0-.43.31A1.41,1.41,0,0,0,79,18a2.14,2.14,0,0,0-.08.58v2.29h-.54Z"/><path class="cls-1" d="M85.78,20.12a1.86,1.86,0,0,1-.79.69A2.46,2.46,0,0,1,84,21a2.21,2.21,0,0,1-.87-.17,1.86,1.86,0,0,1-.68-.46,1.92,1.92,0,0,1-.43-.7,2.52,2.52,0,0,1-.15-.89,2.21,2.21,0,0,1,.16-.87,2,2,0,0,1,.43-.7,2.13,2.13,0,0,1,.67-.47,2,2,0,0,1,2.31.45,2,2,0,0,1,.38.63,2.28,2.28,0,0,1,.13.72v.38H82.38a2.15,2.15,0,0,0,.06.45,1.58,1.58,0,0,0,.26.52,1.54,1.54,0,0,0,.48.43,1.45,1.45,0,0,0,.79.19,1.8,1.8,0,0,0,.81-.2,1.52,1.52,0,0,0,.6-.55Zm-.42-1.67a1.27,1.27,0,0,0-.11-.52,1.52,1.52,0,0,0-.31-.44,1.49,1.49,0,0,0-.47-.29,1.36,1.36,0,0,0-.56-.11,1.44,1.44,0,0,0-.75.18,1.56,1.56,0,0,0-.46.42,1.62,1.62,0,0,0-.25.46,1.14,1.14,0,0,0-.07.3Z"/><path class="cls-1" d="M91.24,19.14v.56c0,.16,0,.31,0,.45s0,.27,0,.39,0,.25,0,.37h-.51a3.58,3.58,0,0,1-.06-.68h0a1.62,1.62,0,0,1-.59.6,1.92,1.92,0,0,1-.89.19,1.88,1.88,0,0,1-.53-.07,1.51,1.51,0,0,1-.48-.22,1.17,1.17,0,0,1-.34-.39A1.29,1.29,0,0,1,88,19a1.54,1.54,0,0,1,.6-.43,3.13,3.13,0,0,1,.76-.18c.27,0,.51,0,.72,0h.63v-.25a.91.91,0,0,0-.33-.79,1.52,1.52,0,0,0-.85-.23,2,2,0,0,0-1.28.47L88,17.19a1.87,1.87,0,0,1,.75-.44,2.63,2.63,0,0,1,.85-.15,1.91,1.91,0,0,1,1.22.36,1.39,1.39,0,0,1,.46,1.16Zm-1.1-.34a4.68,4.68,0,0,0-.66,0,2.54,2.54,0,0,0-.59.16,1,1,0,0,0-.41.29.68.68,0,0,0-.15.45.67.67,0,0,0,.08.35.73.73,0,0,0,.22.24,1.77,1.77,0,0,0,.31.15,1.27,1.27,0,0,0,.34.05A1.85,1.85,0,0,0,90,20.4a1.32,1.32,0,0,0,.45-.33,1.15,1.15,0,0,0,.23-.47,2.24,2.24,0,0,0,.06-.52V18.8Z"/><path class="cls-1" d="M95.59,17.2h-1.2v2.74a.56.56,0,0,0,.16.43.54.54,0,0,0,.42.16,1.75,1.75,0,0,0,.32,0l.3-.11,0,.49a2.47,2.47,0,0,1-.35.1,1.81,1.81,0,0,1-.36.05,1.24,1.24,0,0,1-.5-.09.93.93,0,0,1-.34-.23,1,1,0,0,1-.18-.34,1.42,1.42,0,0,1-.06-.42V17.2h-.91v-.49h.91V15.5h.54v1.21h1.2Z"/><path class="cls-1" d="M101.12,20.12a1.83,1.83,0,0,1-.78.69,2.54,2.54,0,0,1-1,.21,2.21,2.21,0,0,1-.87-.17,1.83,1.83,0,0,1-.67-.46,1.79,1.79,0,0,1-.43-.7,2.52,2.52,0,0,1-.15-.89,2.41,2.41,0,0,1,.15-.87,2,2,0,0,1,.44-.7,2.09,2.09,0,0,1,.66-.47,2.15,2.15,0,0,1,.85-.16,2.08,2.08,0,0,1,.85.16,2.2,2.2,0,0,1,.62.45,2.09,2.09,0,0,1,.5,1.35v.38H97.72a1.71,1.71,0,0,0,.07.45,1.55,1.55,0,0,0,.25.52,1.48,1.48,0,0,0,.49.43,1.41,1.41,0,0,0,.78.19,1.8,1.8,0,0,0,.81-.2,1.52,1.52,0,0,0,.6-.55Zm-.41-1.67a1.14,1.14,0,0,0-.12-.52,1.52,1.52,0,0,0-.31-.44,1.44,1.44,0,0,0-.46-.29,1.38,1.38,0,0,0-.57-.11,1.4,1.4,0,0,0-.74.18,1.49,1.49,0,0,0-.47.42,1.62,1.62,0,0,0-.25.46,1.82,1.82,0,0,0-.07.3Z"/><path class="cls-1" d="M103.32,19.84a1.25,1.25,0,0,0,.51.51,1.53,1.53,0,0,0,.71.18,1.07,1.07,0,0,0,.35-.06.89.89,0,0,0,.53-.39.63.63,0,0,0,.09-.33.49.49,0,0,0-.19-.43,1.24,1.24,0,0,0-.46-.23,4.43,4.43,0,0,0-.6-.14,2.63,2.63,0,0,1-.6-.18,1.41,1.41,0,0,1-.46-.34,1,1,0,0,1-.18-.62,1.13,1.13,0,0,1,.12-.54,1.35,1.35,0,0,1,.33-.38,1.62,1.62,0,0,1,.46-.22,1.86,1.86,0,0,1,.52-.07,1.93,1.93,0,0,1,.9.19,1.32,1.32,0,0,1,.59.6l-.5.29a1.18,1.18,0,0,0-.38-.44,1.13,1.13,0,0,0-.61-.15,1.08,1.08,0,0,0-.3,0,1.28,1.28,0,0,0-.29.13,1,1,0,0,0-.21.21.5.5,0,0,0-.09.29.47.47,0,0,0,.19.42,1.4,1.4,0,0,0,.46.21,3.33,3.33,0,0,0,.6.13,2.63,2.63,0,0,1,.6.18,1.23,1.23,0,0,1,.46.36,1,1,0,0,1,.18.66,1.22,1.22,0,0,1-.12.56,1,1,0,0,1-.34.41,1.57,1.57,0,0,1-.48.25,2.14,2.14,0,0,1-.58.08,2.31,2.31,0,0,1-1-.21,1.57,1.57,0,0,1-.7-.65Z"/><path class="cls-1" d="M113.3,17.2h-1.2v2.74a.56.56,0,0,0,.16.43.54.54,0,0,0,.42.16,1.75,1.75,0,0,0,.32,0l.3-.11,0,.49a2.28,2.28,0,0,1-.36.1,1.63,1.63,0,0,1-.35.05,1.24,1.24,0,0,1-.5-.09.93.93,0,0,1-.34-.23.86.86,0,0,1-.18-.34,1.42,1.42,0,0,1-.06-.42V17.2h-.91v-.49h.91V15.5h.54v1.21h1.2Z"/><path class="cls-1" d="M114.89,18.81a2.35,2.35,0,0,1,.16-.89,2.08,2.08,0,0,1,.46-.7,1.9,1.9,0,0,1,.7-.46,2.53,2.53,0,0,1,1.77,0,2,2,0,0,1,.7.46,2.08,2.08,0,0,1,.46.7,2.35,2.35,0,0,1,.17.89,2.3,2.3,0,0,1-.17.88,2,2,0,0,1-.46.7,1.86,1.86,0,0,1-.7.46,2.39,2.39,0,0,1-1.77,0,1.78,1.78,0,0,1-.7-.46,2,2,0,0,1-.46-.7A2.3,2.3,0,0,1,114.89,18.81Zm.54,0a1.89,1.89,0,0,0,.12.67,1.36,1.36,0,0,0,.33.54,1.45,1.45,0,0,0,.53.37,1.67,1.67,0,0,0,.69.14,1.74,1.74,0,0,0,.69-.14,1.56,1.56,0,0,0,.86-.91,2.14,2.14,0,0,0,.11-.67,2.09,2.09,0,0,0-.11-.67,1.49,1.49,0,0,0-.86-.91,1.58,1.58,0,0,0-.69-.14,1.52,1.52,0,0,0-.69.14,1.55,1.55,0,0,0-.53.36,1.47,1.47,0,0,0-.33.55A1.85,1.85,0,0,0,115.43,18.81Z"/><path class="cls-1" d="M124.67,14h.55v6.88h-.55Z"/><path class="cls-1" d="M130.88,19.14v.56c0,.16,0,.31,0,.45l0,.39c0,.13,0,.25,0,.37h-.51a3.62,3.62,0,0,1,0-.68h0a1.62,1.62,0,0,1-.59.6,1.92,1.92,0,0,1-.89.19,1.88,1.88,0,0,1-.53-.07,1.51,1.51,0,0,1-.48-.22,1.17,1.17,0,0,1-.34-.39,1.29,1.29,0,0,1,.12-1.33,1.54,1.54,0,0,1,.6-.43,3.13,3.13,0,0,1,.76-.18c.27,0,.51,0,.72,0h.64v-.25a.91.91,0,0,0-.34-.79,1.52,1.52,0,0,0-.85-.23,2,2,0,0,0-1.28.47l-.32-.37a1.87,1.87,0,0,1,.75-.44,2.68,2.68,0,0,1,.85-.15,1.91,1.91,0,0,1,1.22.36,1.37,1.37,0,0,1,.46,1.16Zm-1.09-.34a4.73,4.73,0,0,0-.67,0,2.54,2.54,0,0,0-.59.16,1,1,0,0,0-.41.29.68.68,0,0,0-.15.45.78.78,0,0,0,.08.35.66.66,0,0,0,.23.24,1.4,1.4,0,0,0,.3.15,1.33,1.33,0,0,0,.34.05,1.85,1.85,0,0,0,.72-.13,1.32,1.32,0,0,0,.45-.33,1.15,1.15,0,0,0,.23-.47,2.25,2.25,0,0,0,.07-.52V18.8Z"/><path class="cls-1" d="M133.19,19.84a1.14,1.14,0,0,0,.51.51,1.47,1.47,0,0,0,.71.18,1,1,0,0,0,.34-.06,1,1,0,0,0,.31-.15.83.83,0,0,0,.22-.24.63.63,0,0,0,.09-.33.49.49,0,0,0-.19-.43,1.2,1.2,0,0,0-.45-.23,5,5,0,0,0-.61-.14,3,3,0,0,1-.6-.18,1.41,1.41,0,0,1-.46-.34,1,1,0,0,1-.18-.62,1,1,0,0,1,.13-.54,1.1,1.1,0,0,1,.33-.38,1.4,1.4,0,0,1,.46-.22,1.81,1.81,0,0,1,.52-.07,1.91,1.91,0,0,1,.89.19,1.32,1.32,0,0,1,.59.6l-.49.29a1.3,1.3,0,0,0-.39-.44,1.07,1.07,0,0,0-.6-.15,1.15,1.15,0,0,0-.31,0,1.51,1.51,0,0,0-.29.13,1,1,0,0,0-.21.21.54.54,0,0,0,.1.71,1.4,1.4,0,0,0,.46.21,3.33,3.33,0,0,0,.6.13,2.63,2.63,0,0,1,.6.18,1.16,1.16,0,0,1,.46.36,1,1,0,0,1,.19.66,1.24,1.24,0,0,1-.46,1,1.74,1.74,0,0,1-.49.25,2.12,2.12,0,0,1-.57.08,2.33,2.33,0,0,1-1-.21,1.5,1.5,0,0,1-.69-.65Z"/><path class="cls-1" d="M140,17.2h-1.21v2.74a.6.6,0,0,0,.16.43.54.54,0,0,0,.43.16,1.76,1.76,0,0,0,.31,0l.31-.11,0,.49a2.47,2.47,0,0,1-.35.1,1.81,1.81,0,0,1-.36.05,1.28,1.28,0,0,1-.5-.09.93.93,0,0,1-.34-.23,1,1,0,0,1-.18-.34,1.42,1.42,0,0,1-.06-.42V17.2h-.91v-.49h.91V15.5h.54v1.21H140Z"/></svg>