<svg id="Layer_1" data-name="Layer 1" xmlns="http://www.w3.org/2000/svg" viewBox="0 0 33.37 33.38"><defs><style>.cls-1{fill:#f69333;}</style></defs><path class="cls-1" d="M16.21,14.23A85.84,85.84,0,0,1,33.37,1.12V0h-.31A86.31,86.31,0,0,0,15.43,13.43Q12.09,16.7,9,20.16H9a31,31,0,0,1-3.43-6,40.78,40.78,0,0,1-3.15-13c0-.2,0-.4,0-.6H1.25c0,.23,0,.47.05.7A41.84,41.84,0,0,0,4.54,14.6,31.86,31.86,0,0,0,8.24,21,131.88,131.88,0,0,0,0,31.42v2A131,131,0,0,1,8.94,21.93l.15-.17-.15.17a28.63,28.63,0,0,0,17.14,10,63.17,63.17,0,0,0,7.29,1V31.79a59.45,59.45,0,0,1-7.07-1A27.49,27.49,0,0,1,9.7,21.07h0l0-.05,0,.05Q12.82,17.54,16.21,14.23Z"/></svg>