<svg id="Layer_1" data-name="Layer 1" xmlns="http://www.w3.org/2000/svg" viewBox="0 0 27.15 184.38"><defs><style>.cls-1{fill:#f69333;}</style></defs><path class="cls-1" d="M13.63,11A66.27,66.27,0,0,1,27.15.72V0h-.5A66.83,66.83,0,0,0,13,10.37,103.47,103.47,0,0,0,0,25.85H1.06A103,103,0,0,1,13.63,11Z"/><path class="cls-1" d="M13.63,50.63A66,66,0,0,1,27.15,40.35v-.72h-.5A67.2,67.2,0,0,0,13,50,104.48,104.48,0,0,0,0,65.48H1.06A103.48,103.48,0,0,1,13.63,50.63Z"/><path class="cls-1" d="M13.63,90.26A66.32,66.32,0,0,1,27.15,80v-.71h-.5A66.48,66.48,0,0,0,13,89.64,103.47,103.47,0,0,0,0,105.12H1.06A103,103,0,0,1,13.63,90.26Z"/><path class="cls-1" d="M13.63,129.89a66.69,66.69,0,0,1,13.52-10.28v-.71h-.5A66.48,66.48,0,0,0,13,129.27,103.47,103.47,0,0,0,0,144.75H1.06A103,103,0,0,1,13.63,129.89Z"/><path class="cls-1" d="M13.63,169.52a66.27,66.27,0,0,1,13.52-10.27v-.72h-.5A66.83,66.83,0,0,0,13,168.9,104,104,0,0,0,0,184.38H1.06A104.11,104.11,0,0,1,13.63,169.52Z"/></svg>