<svg id="Layer_1" data-name="Layer 1" xmlns="http://www.w3.org/2000/svg" viewBox="0 0 21.82 21.82"><defs><style>.cls-1{fill:#6d6e70;}.cls-2{fill:#fff;}</style></defs><circle class="cls-1" cx="10.91" cy="10.91" r="10.91"/><path class="cls-2" d="M11.48,10.06a5,5,0,0,1,.43-.48,2.35,2.35,0,0,1,1.7-.67A3.53,3.53,0,0,1,14.68,9a2.08,2.08,0,0,1,1.48,1.56,6.28,6.28,0,0,1,.2,1.78V16.2c0,.11,0,.15-.15.15-.66,0-1.31,0-2,0-.12,0-.14,0-.14-.15V12.57a3.08,3.08,0,0,0-.11-.9,1,1,0,0,0-1.11-.79,1.23,1.23,0,0,0-1.28,1.22,3.64,3.64,0,0,0,0,.57c0,1.17,0,2.35,0,3.52,0,.12,0,.16-.15.16h-2c-.11,0-.14,0-.14-.13q0-3.5,0-7c0-.12,0-.15.15-.15h1.88c.11,0,.14,0,.14.15C11.47,9.51,11.48,9.79,11.48,10.06Z"/><path class="cls-2" d="M7.89,12.73v3.45c0,.13,0,.17-.16.17h-2c-.11,0-.14,0-.14-.13v-7c0-.09,0-.13.13-.13h2c.13,0,.14.05.14.16Z"/><path class="cls-2" d="M8.07,6.77a1.31,1.31,0,1,1-1.3-1.3A1.31,1.31,0,0,1,8.07,6.77Z"/></svg>