<svg id="Layer_1" data-name="Layer 1" xmlns="http://www.w3.org/2000/svg" viewBox="0 0 136.97 91.42"><defs><style>.cls-1{fill:#005879;}.cls-1,.cls-2{fill-rule:evenodd;}.cls-2{fill:#f48120;}.cls-3{fill:#58595b;}</style></defs><path class="cls-1" d="M54.84,10.84C81,41.66,31.77,60.65,9.68,56.44c-28.62-6.67,12.16-84.51,45.16-45.6"/><path class="cls-2" d="M76.67,33.14c0,14.94,3.53,24.23,13,23.69,113.51-6.38-13-66-13-23.69"/><path class="cls-3" d="M.06,71.26h6v.85H1v3.57H5.71v.85H1v4.75H.06Z"/><path class="cls-3" d="M7.93,71.26h6.13v.85H8.87v3.57h4.86v.85H8.87v3.9h5.42v.85H7.93Z"/><path class="cls-3" d="M16.32,71.26h6.13v.85H17.26v3.57h4.87v.85H17.26v3.9h5.42v.85H16.32Z"/><path class="cls-3" d="M24.71,71.26h.94v9.17h4.67v.85H24.71Z"/><path class="cls-3" d="M31.79,71.26h.93v10h-.93Z"/><path class="cls-3" d="M35.47,71.26h1.2L42.77,80h0V71.26h.93v10h-1.2l-6.1-8.77h0v8.77h-.93Z"/><path class="cls-3" d="M54.74,80.63a6.23,6.23,0,0,1-1.82.7,8.67,8.67,0,0,1-1.91.21,5.54,5.54,0,0,1-2.11-.39,4.72,4.72,0,0,1-1.63-1.09,5,5,0,0,1-1.06-1.67,6.08,6.08,0,0,1,0-4.23,5,5,0,0,1,1.06-1.66,4.86,4.86,0,0,1,1.63-1.09A5.36,5.36,0,0,1,51,71a4.81,4.81,0,0,1,3.6,1.39l-.68.7a3.38,3.38,0,0,0-.55-.5,3.93,3.93,0,0,0-.73-.39,4.5,4.5,0,0,0-.81-.26,4,4,0,0,0-.83-.09,4.37,4.37,0,0,0-1.77.34,3.84,3.84,0,0,0-1.33.93,4.14,4.14,0,0,0-.85,1.4,5,5,0,0,0-.3,1.74,4.89,4.89,0,0,0,.3,1.74,4,4,0,0,0,.85,1.4,3.87,3.87,0,0,0,1.33.94,4.37,4.37,0,0,0,1.77.34,8.09,8.09,0,0,0,1.51-.13,3.76,3.76,0,0,0,1.29-.47V76.73H51.4v-.85h3.34Z"/><path class="cls-3" d="M60.51,76.27a5.62,5.62,0,0,1,.39-2.11A5,5,0,0,1,62,72.5a4.86,4.86,0,0,1,1.63-1.09,5.74,5.74,0,0,1,4.21,0,4.86,4.86,0,0,1,1.63,1.09,5,5,0,0,1,1.06,1.66,6.08,6.08,0,0,1,0,4.23,5,5,0,0,1-1.06,1.67,4.72,4.72,0,0,1-1.63,1.09,5.88,5.88,0,0,1-4.21,0A4.72,4.72,0,0,1,62,80.06a5,5,0,0,1-1.06-1.67A5.63,5.63,0,0,1,60.51,76.27Zm.94,0a4.89,4.89,0,0,0,.3,1.74,4,4,0,0,0,2.18,2.34,4.35,4.35,0,0,0,1.76.34,4.4,4.4,0,0,0,1.77-.34,4,4,0,0,0,1.33-.94,4,4,0,0,0,.85-1.4,4.89,4.89,0,0,0,.3-1.74,5,5,0,0,0-.3-1.74,4.14,4.14,0,0,0-.85-1.4,3.94,3.94,0,0,0-1.33-.93,4.4,4.4,0,0,0-1.77-.34,4.35,4.35,0,0,0-1.76.34,3.84,3.84,0,0,0-1.33.93,4,4,0,0,0-.85,1.4A5,5,0,0,0,61.45,76.27Z"/><path class="cls-3" d="M73,71.26h6v.85H73.9v3.57h4.71v.85H73.9v4.75H73Z"/><path class="cls-3" d="M87.58,71.26h1l4.21,10h-1l-1.09-2.66H85.32l-1.13,2.66h-1Zm.44,1-2.33,5.49h4.6Z"/><path class="cls-3" d="M97.89,71.26h.93v9.17h4.67v.85h-5.6Z"/><path class="cls-3" d="M104.31,76.27a5.82,5.82,0,0,1,.38-2.11,5.18,5.18,0,0,1,1.06-1.66,4.9,4.9,0,0,1,1.64-1.09,5.28,5.28,0,0,1,2.1-.4,5.35,5.35,0,0,1,2.1.4,4.76,4.76,0,0,1,1.63,1.09,5,5,0,0,1,1.07,1.66,6.08,6.08,0,0,1,0,4.23,5,5,0,0,1-1.07,1.67,4.63,4.63,0,0,1-1.63,1.09,5.53,5.53,0,0,1-2.1.39,5.46,5.46,0,0,1-2.1-.39,4.76,4.76,0,0,1-1.64-1.09,5.12,5.12,0,0,1-1.06-1.67A5.83,5.83,0,0,1,104.31,76.27Zm.93,0a4.89,4.89,0,0,0,.3,1.74,4,4,0,0,0,.85,1.4,3.91,3.91,0,0,0,1.34.94,4.73,4.73,0,0,0,3.52,0,4,4,0,0,0,1.34-.94,4,4,0,0,0,.85-1.4,4.89,4.89,0,0,0,.29-1.74,5,5,0,0,0-.29-1.74,4.14,4.14,0,0,0-.85-1.4,4,4,0,0,0-1.34-.93,4.73,4.73,0,0,0-3.52,0,3.88,3.88,0,0,0-1.34.93,4.14,4.14,0,0,0-.85,1.4A5,5,0,0,0,105.24,76.27Z"/><path class="cls-3" d="M116.11,76.27a5.82,5.82,0,0,1,.38-2.11,5,5,0,0,1,1.07-1.66,4.76,4.76,0,0,1,1.63-1.09,5.71,5.71,0,0,1,4.2,0A4.9,4.9,0,0,1,125,72.5a5.18,5.18,0,0,1,1.06,1.66,6.08,6.08,0,0,1,0,4.23A5.12,5.12,0,0,1,125,80.06a4.76,4.76,0,0,1-1.64,1.09,5.85,5.85,0,0,1-4.2,0,4.63,4.63,0,0,1-1.63-1.09,5,5,0,0,1-1.07-1.67A5.83,5.83,0,0,1,116.11,76.27Zm.94,0a4.89,4.89,0,0,0,.29,1.74,4,4,0,0,0,.85,1.4,4,4,0,0,0,1.34.94,4.73,4.73,0,0,0,3.52,0,3.91,3.91,0,0,0,1.34-.94,4,4,0,0,0,.85-1.4,4.89,4.89,0,0,0,.3-1.74,5,5,0,0,0-.3-1.74,4.14,4.14,0,0,0-.85-1.4,3.88,3.88,0,0,0-1.34-.93,4.73,4.73,0,0,0-3.52,0,4,4,0,0,0-1.34.93,4.14,4.14,0,0,0-.85,1.4A5,5,0,0,0,117.05,76.27Z"/><path class="cls-3" d="M128.56,71.26h.94v4.42h.08l4.86-4.42h1.28l-5.06,4.59L136,81.28h-1.35l-5.08-5.18h-.08v5.18h-.94Z"/><path class="cls-3" d="M2.11,85.79h-2v-.51H4.72v.51h-2v5.48H2.11Z"/><path class="cls-3" d="M5,89.31a2.21,2.21,0,0,1,.15-.82,1.92,1.92,0,0,1,.42-.65,1.94,1.94,0,0,1,.65-.43A2.27,2.27,0,0,1,7,87.26a2.23,2.23,0,0,1,.83.15,1.94,1.94,0,0,1,.65.43,2.1,2.1,0,0,1,.43.65,2.34,2.34,0,0,1,0,1.65,2,2,0,0,1-1.08,1.08,2.23,2.23,0,0,1-.83.15,2.27,2.27,0,0,1-.83-.15,2.1,2.1,0,0,1-.65-.43,1.92,1.92,0,0,1-.42-.65A2.23,2.23,0,0,1,5,89.31Zm.51,0a1.79,1.79,0,0,0,.1.62,1.45,1.45,0,0,0,.31.51,1.57,1.57,0,0,0,.49.35,1.66,1.66,0,0,0,.64.12,1.71,1.71,0,0,0,.65-.12,1.57,1.57,0,0,0,.49-.35,1.44,1.44,0,0,0,.3-.51,1.59,1.59,0,0,0,.11-.62,1.72,1.72,0,0,0-.41-1.13,1.72,1.72,0,0,0-.49-.34A1.71,1.71,0,0,0,7,87.72a1.66,1.66,0,0,0-.64.12,1.72,1.72,0,0,0-.49.34,1.66,1.66,0,0,0-.31.51A1.83,1.83,0,0,0,5.48,89.31Z"/><path class="cls-3" d="M18.75,90.33a2.44,2.44,0,0,1-1,.83,2.9,2.9,0,0,1-1.22.26,3.4,3.4,0,0,1-1.26-.23,3,3,0,0,1-1-.65,2.91,2.91,0,0,1-.64-1,3.59,3.59,0,0,1,0-2.53,3,3,0,0,1,1.61-1.65,3.4,3.4,0,0,1,1.26-.23,3,3,0,0,1,1.13.21,2.24,2.24,0,0,1,.93.73l-.46.38a1.57,1.57,0,0,0-.71-.62,2.16,2.16,0,0,0-.89-.19,2.6,2.6,0,0,0-1.06.2,2.23,2.23,0,0,0-.79.56,2.41,2.41,0,0,0-.51.83,3.09,3.09,0,0,0,0,2.08,2.56,2.56,0,0,0,.51.84,2.36,2.36,0,0,0,.79.56,2.78,2.78,0,0,0,1.06.2,2.59,2.59,0,0,0,.47,0,3.06,3.06,0,0,0,.48-.17,2.39,2.39,0,0,0,.44-.29A1.72,1.72,0,0,0,18.3,90Z"/><path class="cls-3" d="M20.26,88.46v-.27c0-.1,0-.21,0-.31a2.81,2.81,0,0,0,0-.3c0-.1,0-.17,0-.22h.51c0,.15,0,.29,0,.42s0,.23,0,.27a1.73,1.73,0,0,1,.5-.57,1.23,1.23,0,0,1,.75-.22h.14l.15,0-.06.5a.63.63,0,0,0-.19,0,1.42,1.42,0,0,0-.57.1,1.18,1.18,0,0,0-.4.29,1.32,1.32,0,0,0-.23.44,1.91,1.91,0,0,0-.08.54v2.13h-.51Z"/><path class="cls-3" d="M27,90.53a1.66,1.66,0,0,1-.73.64,2.32,2.32,0,0,1-1,.2,2.09,2.09,0,0,1-.81-.15,2.13,2.13,0,0,1-.63-.43,2,2,0,0,1-.4-.65,2.45,2.45,0,0,1-.14-.83,2.18,2.18,0,0,1,.15-.82,1.92,1.92,0,0,1,.4-.64,2,2,0,0,1,.62-.44,2,2,0,0,1,.79-.15,2,2,0,0,1,.79.15,1.76,1.76,0,0,1,.57.42,1.68,1.68,0,0,1,.35.59,1.93,1.93,0,0,1,.12.67v.35H23.85a1.83,1.83,0,0,0,.06.41,1.49,1.49,0,0,0,.24.49,1.47,1.47,0,0,0,.45.4,1.34,1.34,0,0,0,.73.17,1.66,1.66,0,0,0,.75-.18,1.39,1.39,0,0,0,.56-.51ZM26.62,89a1.16,1.16,0,0,0-.1-.49,1.41,1.41,0,0,0-.29-.4,1.26,1.26,0,0,0-.43-.27,1.52,1.52,0,0,0-1.22.06,1.65,1.65,0,0,0-.43.39,1.4,1.4,0,0,0-.23.43,1,1,0,0,0-.07.28Z"/><path class="cls-3" d="M31.93,89.63c0,.19,0,.36,0,.51s0,.3,0,.43,0,.25,0,.36,0,.22,0,.34h-.47a3.26,3.26,0,0,1-.05-.64h0a1.41,1.41,0,0,1-.55.56,1.66,1.66,0,0,1-.82.18,2.07,2.07,0,0,1-.5-.06,1.38,1.38,0,0,1-.44-.21,1.12,1.12,0,0,1-.32-.36,1.07,1.07,0,0,1-.12-.53A1,1,0,0,1,29,89.5a1.29,1.29,0,0,1,.56-.39,2.38,2.38,0,0,1,.71-.17,5.56,5.56,0,0,1,.67,0h.59v-.24a.82.82,0,0,0-.31-.72,1.34,1.34,0,0,0-.79-.22,1.74,1.74,0,0,0-1.19.44l-.3-.35a1.84,1.84,0,0,1,.69-.41,2.33,2.33,0,0,1,.8-.14,1.79,1.79,0,0,1,1.13.33,1.32,1.32,0,0,1,.42,1.08Zm-1-.32a4.21,4.21,0,0,0-.62,0,2.13,2.13,0,0,0-.54.14,1.13,1.13,0,0,0-.39.27.68.68,0,0,0-.14.42.65.65,0,0,0,.29.55,1,1,0,0,0,.28.14,1.12,1.12,0,0,0,.32,0,1.56,1.56,0,0,0,.66-.12,1,1,0,0,0,.42-.31,1,1,0,0,0,.22-.43,2,2,0,0,0,.06-.48v-.26Z"/><path class="cls-3" d="M35.83,87.82H34.72v2.54a.54.54,0,0,0,.14.41.57.57,0,0,0,.4.14,1,1,0,0,0,.29,0,1.31,1.31,0,0,0,.28-.09l0,.45a1.87,1.87,0,0,1-.33.1,2.14,2.14,0,0,1-.32,0,1.28,1.28,0,0,1-.47-.08.91.91,0,0,1-.31-.22.83.83,0,0,1-.18-.32,1.6,1.6,0,0,1,0-.39V87.82h-.85v-.46h.85V86.24h.51v1.12h1.11Z"/><path class="cls-3" d="M40.82,90.53a1.71,1.71,0,0,1-.73.64,2.32,2.32,0,0,1-1,.2,2.09,2.09,0,0,1-.81-.15,2.13,2.13,0,0,1-.63-.43,1.87,1.87,0,0,1-.4-.65,2.45,2.45,0,0,1-.14-.83,2.18,2.18,0,0,1,.15-.82,1.92,1.92,0,0,1,.4-.64,2,2,0,0,1,.62-.44,2,2,0,0,1,.79-.15,2,2,0,0,1,.79.15,1.88,1.88,0,0,1,.57.42,1.68,1.68,0,0,1,.35.59,1.93,1.93,0,0,1,.12.67v.35H37.66a1.83,1.83,0,0,0,.06.41,1.31,1.31,0,0,0,.24.49,1.47,1.47,0,0,0,.45.4,1.34,1.34,0,0,0,.73.17,1.66,1.66,0,0,0,.75-.18,1.46,1.46,0,0,0,.56-.51ZM40.43,89a1.16,1.16,0,0,0-.1-.49,1.41,1.41,0,0,0-.29-.4,1.41,1.41,0,0,0-1-.37,1.31,1.31,0,0,0-.69.16,1.65,1.65,0,0,0-.43.39,1.4,1.4,0,0,0-.23.43,1,1,0,0,0-.07.28Z"/><path class="cls-3" d="M44.9,85.28h.58L47,90.58h0l1.51-5.3h.71l1.51,5.3h0l1.49-5.3h.57l-1.74,6h-.68l-1.52-5.33h0l-1.52,5.33h-.68Z"/><path class="cls-3" d="M54.16,84.88h.5v3.17h0a1.35,1.35,0,0,1,.51-.56,1.52,1.52,0,0,1,.83-.23,1.74,1.74,0,0,1,.74.14,1.2,1.2,0,0,1,.45.38,1.32,1.32,0,0,1,.23.54,3.18,3.18,0,0,1,.07.62v2.33H57V89a3.42,3.42,0,0,0,0-.46,1.34,1.34,0,0,0-.15-.41.81.81,0,0,0-.3-.28,1,1,0,0,0-.49-.1,1.51,1.51,0,0,0-.53.09,1.19,1.19,0,0,0-.43.3,1.43,1.43,0,0,0-.29.5,2.1,2.1,0,0,0-.11.7v2h-.5Z"/><path class="cls-3" d="M62.53,89.63v.51c0,.15,0,.3,0,.43s0,.25,0,.36,0,.22,0,.34h-.47a4.26,4.26,0,0,1-.05-.64h0a1.39,1.39,0,0,1-.54.56,1.7,1.7,0,0,1-.83.18,2.14,2.14,0,0,1-.5-.06,1.38,1.38,0,0,1-.44-.21,1,1,0,0,1-.31-.36,1.06,1.06,0,0,1-.13-.53,1,1,0,0,1,.23-.71,1.27,1.27,0,0,1,.57-.39,2.31,2.31,0,0,1,.71-.17,5.52,5.52,0,0,1,.66,0h.59v-.24a.8.8,0,0,0-.31-.72,1.32,1.32,0,0,0-.79-.22,1.74,1.74,0,0,0-1.19.44l-.3-.35a1.8,1.8,0,0,1,.7-.41,2.27,2.27,0,0,1,.79-.14,1.77,1.77,0,0,1,1.13.33,1.29,1.29,0,0,1,.43,1.08Zm-1-.32a4.21,4.21,0,0,0-.62,0,2.13,2.13,0,0,0-.54.14,1,1,0,0,0-.38.27.64.64,0,0,0-.15.42.66.66,0,0,0,.08.32.77.77,0,0,0,.21.23,1.22,1.22,0,0,0,.28.14,1.17,1.17,0,0,0,.32,0,1.64,1.64,0,0,0,.67-.12,1.1,1.1,0,0,0,.42-.31,1.08,1.08,0,0,0,.21-.43,2,2,0,0,0,.06-.48v-.26Z"/><path class="cls-3" d="M66.43,87.82H65.31v2.54a.58.58,0,0,0,.14.41.57.57,0,0,0,.4.14,1,1,0,0,0,.29,0,1.61,1.61,0,0,0,.29-.09l0,.45-.33.1a2.43,2.43,0,0,1-.33,0,1.32,1.32,0,0,1-.47-.08.91.91,0,0,1-.31-.22.71.71,0,0,1-.17-.32,1.23,1.23,0,0,1-.06-.39V87.82H64v-.46h.84V86.24h.51v1.12h1.12Z"/><path class="cls-3" d="M75.87,90.33a2.44,2.44,0,0,1-1,.83,2.93,2.93,0,0,1-1.22.26,3.4,3.4,0,0,1-1.26-.23,2.81,2.81,0,0,1-1.61-1.65,3.59,3.59,0,0,1,0-2.53,3,3,0,0,1,.63-1,2.92,2.92,0,0,1,1-.66,3.4,3.4,0,0,1,1.26-.23,3,3,0,0,1,1.13.21,2.31,2.31,0,0,1,.93.73l-.46.38a1.57,1.57,0,0,0-.71-.62,2.16,2.16,0,0,0-.89-.19,2.6,2.6,0,0,0-1.06.2,2.15,2.15,0,0,0-.79.56,2.27,2.27,0,0,0-.51.83,3.09,3.09,0,0,0,0,2.08,2.4,2.4,0,0,0,.51.84,2.27,2.27,0,0,0,.79.56,2.78,2.78,0,0,0,1.06.2,2.59,2.59,0,0,0,.47,0,3.06,3.06,0,0,0,.48-.17A2.39,2.39,0,0,0,75,90.4a1.51,1.51,0,0,0,.37-.42Z"/><path class="cls-3" d="M77.38,88.46v-.27c0-.1,0-.21,0-.31a2.81,2.81,0,0,0,0-.3,2,2,0,0,1,0-.22h.51c0,.15,0,.29,0,.42a1.31,1.31,0,0,0,0,.27,1.73,1.73,0,0,1,.5-.57,1.23,1.23,0,0,1,.75-.22h.14l.15,0-.06.5a.63.63,0,0,0-.19,0,1.42,1.42,0,0,0-.57.1,1.09,1.09,0,0,0-.4.29,1.32,1.32,0,0,0-.23.44,1.91,1.91,0,0,0-.08.54v2.13h-.51Z"/><path class="cls-3" d="M84.13,90.53a1.71,1.71,0,0,1-.73.64,2.32,2.32,0,0,1-1,.2,2.09,2.09,0,0,1-.81-.15,2.13,2.13,0,0,1-.63-.43,1.87,1.87,0,0,1-.4-.65,2.45,2.45,0,0,1-.14-.83,2.18,2.18,0,0,1,.15-.82,1.92,1.92,0,0,1,.4-.64,2,2,0,0,1,.62-.44,2,2,0,0,1,.79-.15,2,2,0,0,1,.79.15,1.88,1.88,0,0,1,.57.42,1.68,1.68,0,0,1,.35.59,1.93,1.93,0,0,1,.12.67v.35H81a1.83,1.83,0,0,0,.06.41,1.46,1.46,0,0,0,.23.49,1.64,1.64,0,0,0,.46.4,1.34,1.34,0,0,0,.73.17,1.66,1.66,0,0,0,.75-.18,1.46,1.46,0,0,0,.56-.51ZM83.74,89a1.16,1.16,0,0,0-.1-.49,1.41,1.41,0,0,0-.29-.4,1.41,1.41,0,0,0-1-.37,1.31,1.31,0,0,0-.69.16,1.88,1.88,0,0,0-.44.39,1.6,1.6,0,0,0-.22.43A1,1,0,0,0,81,89Z"/><path class="cls-3" d="M89.05,89.63c0,.19,0,.36,0,.51s0,.3,0,.43,0,.25,0,.36,0,.22,0,.34h-.47a3.24,3.24,0,0,1-.06-.64h0a1.41,1.41,0,0,1-.55.56,1.66,1.66,0,0,1-.82.18,2.07,2.07,0,0,1-.5-.06,1.38,1.38,0,0,1-.44-.21,1,1,0,0,1-.32-.36,1.07,1.07,0,0,1-.12-.53,1,1,0,0,1,.23-.71,1.29,1.29,0,0,1,.56-.39,2.38,2.38,0,0,1,.71-.17,5.52,5.52,0,0,1,.66,0h.6v-.24a.8.8,0,0,0-.32-.72,1.31,1.31,0,0,0-.78-.22,1.78,1.78,0,0,0-1.2.44L86,87.81a1.76,1.76,0,0,1,.69-.41,2.33,2.33,0,0,1,.8-.14,1.79,1.79,0,0,1,1.13.33,1.32,1.32,0,0,1,.42,1.08Zm-1-.32a4.12,4.12,0,0,0-.62,0,2.13,2.13,0,0,0-.54.14,1,1,0,0,0-.39.27.63.63,0,0,0-.14.42.57.57,0,0,0,.08.32.74.74,0,0,0,.2.23,1.3,1.3,0,0,0,.29.14,1.1,1.1,0,0,0,.31,0,1.58,1.58,0,0,0,.67-.12,1,1,0,0,0,.42-.31,1,1,0,0,0,.22-.43,2,2,0,0,0,.06-.48v-.26Z"/><path class="cls-3" d="M93,87.82H91.83v2.54a.54.54,0,0,0,.15.41.56.56,0,0,0,.4.14,1,1,0,0,0,.29,0,1.31,1.31,0,0,0,.28-.09l0,.45a1.87,1.87,0,0,1-.33.1,2.11,2.11,0,0,1-.33,0,1.26,1.26,0,0,1-.46-.08.82.82,0,0,1-.31-.22.83.83,0,0,1-.18-.32,1.6,1.6,0,0,1,0-.39V87.82h-.85v-.46h.85V86.24h.5v1.12H93Z"/><path class="cls-3" d="M97.94,90.53a1.71,1.71,0,0,1-.73.64,2.32,2.32,0,0,1-1,.2,2.09,2.09,0,0,1-.81-.15,2,2,0,0,1-.63-.43,1.87,1.87,0,0,1-.4-.65,2.45,2.45,0,0,1-.14-.83,2.39,2.39,0,0,1,.14-.82,2,2,0,0,1,.41-.64,1.84,1.84,0,0,1,.62-.44,2,2,0,0,1,.78-.15,1.75,1.75,0,0,1,1.37.57,1.85,1.85,0,0,1,.35.59,1.93,1.93,0,0,1,.12.67v.35H94.78a1.83,1.83,0,0,0,.06.41,1.46,1.46,0,0,0,.23.49,1.64,1.64,0,0,0,.46.4,1.32,1.32,0,0,0,.73.17,1.66,1.66,0,0,0,.75-.18,1.46,1.46,0,0,0,.56-.51ZM97.55,89a1.16,1.16,0,0,0-.1-.49,1.64,1.64,0,0,0-.29-.4,1.36,1.36,0,0,0-.43-.27,1.39,1.39,0,0,0-.53-.1,1.31,1.31,0,0,0-.69.16,1.88,1.88,0,0,0-.44.39,2,2,0,0,0-.23.43,1.27,1.27,0,0,0-.06.28Z"/><path class="cls-3" d="M99.83,90.27a1.11,1.11,0,0,0,.48.48,1.4,1.4,0,0,0,.66.16.93.93,0,0,0,.32,0,1,1,0,0,0,.29-.14.74.74,0,0,0,.2-.23.48.48,0,0,0,.08-.3.46.46,0,0,0-.17-.4,1.33,1.33,0,0,0-.43-.21,2.88,2.88,0,0,0-.56-.13,3,3,0,0,1-.55-.17,1.27,1.27,0,0,1-.43-.32.85.85,0,0,1-.17-.58,1.15,1.15,0,0,1,.11-.5,1.15,1.15,0,0,1,.74-.55,1.59,1.59,0,0,1,.48-.07,1.86,1.86,0,0,1,.84.18,1.2,1.2,0,0,1,.54.55l-.46.28a1,1,0,0,0-.36-.41,1.12,1.12,0,0,0-.84-.1.83.83,0,0,0-.27.12.72.72,0,0,0-.2.19.5.5,0,0,0-.08.27.45.45,0,0,0,.18.39,1.49,1.49,0,0,0,.42.2,4.23,4.23,0,0,0,.56.12,2.44,2.44,0,0,1,.56.17,1.06,1.06,0,0,1,.43.33,1,1,0,0,1,.17.61,1.25,1.25,0,0,1-.11.53,1,1,0,0,1-.32.37,1.37,1.37,0,0,1-.45.23,1.89,1.89,0,0,1-.53.08,2.18,2.18,0,0,1-.93-.2,1.38,1.38,0,0,1-.64-.6Z"/><path class="cls-3" d="M108.37,85.79h-2.05v-.51H111v.51h-2v5.48h-.55Z"/><path class="cls-3" d="M111.22,89.31a2,2,0,0,1,.16-.82,1.92,1.92,0,0,1,.42-.65,1.94,1.94,0,0,1,.65-.43,2.23,2.23,0,0,1,.83-.15,2.18,2.18,0,0,1,.82.15,1.94,1.94,0,0,1,.65.43,1.8,1.8,0,0,1,.43.65,2.34,2.34,0,0,1,0,1.65,1.8,1.8,0,0,1-.43.65,2.1,2.1,0,0,1-.65.43,2.18,2.18,0,0,1-.82.15,2.23,2.23,0,0,1-.83-.15,2.1,2.1,0,0,1-.65-.43,1.92,1.92,0,0,1-.42-.65A2,2,0,0,1,111.22,89.31Zm.51,0a1.8,1.8,0,0,0,.11.62,1.32,1.32,0,0,0,.31.51,1.37,1.37,0,0,0,.49.35,1.77,1.77,0,0,0,1.28,0,1.46,1.46,0,0,0,.49-.35,1.32,1.32,0,0,0,.31-.51,1.8,1.8,0,0,0,.11-.62,1.84,1.84,0,0,0-.11-.62,1.49,1.49,0,0,0-.31-.51,1.59,1.59,0,0,0-.49-.34,1.77,1.77,0,0,0-1.28,0,1.44,1.44,0,0,0-.8.85A1.84,1.84,0,0,0,111.73,89.31Z"/><path class="cls-3" d="M120.08,85.28h.56v5.48h2.79v.51h-3.35Z"/><path class="cls-3" d="M127.83,89.63c0,.19,0,.36,0,.51s0,.3,0,.43,0,.25,0,.36,0,.22,0,.34h-.48a4.26,4.26,0,0,1-.05-.64h0a1.41,1.41,0,0,1-.55.56,1.69,1.69,0,0,1-.82.18,2.07,2.07,0,0,1-.5-.06,1.28,1.28,0,0,1-.44-.21,1,1,0,0,1-.32-.36,1.07,1.07,0,0,1-.12-.53,1,1,0,0,1,.23-.71,1.29,1.29,0,0,1,.56-.39,2.38,2.38,0,0,1,.71-.17,5.52,5.52,0,0,1,.66,0h.59v-.24a.8.8,0,0,0-.31-.72,1.31,1.31,0,0,0-.78-.22,1.76,1.76,0,0,0-1.2.44l-.29-.35a1.69,1.69,0,0,1,.69-.41,2.33,2.33,0,0,1,.8-.14,1.79,1.79,0,0,1,1.13.33,1.32,1.32,0,0,1,.42,1.08Zm-1-.32a4.12,4.12,0,0,0-.62,0,2.11,2.11,0,0,0-.55.14,1,1,0,0,0-.38.27.63.63,0,0,0-.14.42.57.57,0,0,0,.08.32.74.74,0,0,0,.2.23,1.3,1.3,0,0,0,.29.14,1.1,1.1,0,0,0,.31,0,1.61,1.61,0,0,0,.67-.12,1,1,0,0,0,.42-.31,1.1,1.1,0,0,0,.22-.43,2.61,2.61,0,0,0,.05-.48v-.26Z"/><path class="cls-3" d="M129.83,90.27a1,1,0,0,0,.47.48,1.4,1.4,0,0,0,.66.16.89.89,0,0,0,.32,0,1,1,0,0,0,.29-.14.93.93,0,0,0,.21-.23.56.56,0,0,0,.08-.3.46.46,0,0,0-.18-.4,1.23,1.23,0,0,0-.43-.21,2.78,2.78,0,0,0-.55-.13,2.83,2.83,0,0,1-.56-.17,1.38,1.38,0,0,1-.43-.32.91.91,0,0,1-.17-.58,1,1,0,0,1,.12-.5,1.15,1.15,0,0,1,.31-.35,1.25,1.25,0,0,1,.42-.2,1.59,1.59,0,0,1,.48-.07,1.83,1.83,0,0,1,.84.18,1.2,1.2,0,0,1,.54.55l-.45.28a1.12,1.12,0,0,0-.36-.41,1,1,0,0,0-.57-.14,1,1,0,0,0-.28,0,.69.69,0,0,0-.26.12.61.61,0,0,0-.2.19.43.43,0,0,0-.08.27.44.44,0,0,0,.17.39,1.43,1.43,0,0,0,.43.2,4.07,4.07,0,0,0,.55.12,2.29,2.29,0,0,1,.56.17,1.06,1.06,0,0,1,.43.33.92.92,0,0,1,.17.61,1,1,0,0,1-.42.9,1.53,1.53,0,0,1-.46.23,1.84,1.84,0,0,1-.53.08,2.18,2.18,0,0,1-.93-.2,1.43,1.43,0,0,1-.64-.6Z"/><path class="cls-3" d="M136,87.82h-1.12v2.54a.58.58,0,0,0,.14.41.57.57,0,0,0,.4.14,1,1,0,0,0,.29,0,1.61,1.61,0,0,0,.29-.09l0,.45-.33.1a2.43,2.43,0,0,1-.33,0,1.32,1.32,0,0,1-.47-.08.91.91,0,0,1-.31-.22.71.71,0,0,1-.17-.32,1.23,1.23,0,0,1-.06-.39V87.82h-.84v-.46h.84V86.24h.51v1.12H136Z"/></svg>