<svg id="Layer_1" data-name="Layer 1" xmlns="http://www.w3.org/2000/svg" viewBox="0 0 71.08 51.85"><defs><style>.cls-1{fill:#6d6e70;}</style></defs><path class="cls-1" d="M10.62,0h3L23.9,24.11H20.09l-2.42-6H6.2l-2.39,6H0Zm5.86,15.29L12,4.22h-.07L7.35,15.29Z"/><path class="cls-1" d="M26.25,8h3.07v2.48h.06a4.49,4.49,0,0,1,.82-1.17,5.52,5.52,0,0,1,1.14-.9,6.13,6.13,0,0,1,1.38-.6,5.19,5.19,0,0,1,1.5-.22,4.46,4.46,0,0,1,1.36.2l-.14,3.31a6.58,6.58,0,0,0-.74-.17,3.81,3.81,0,0,0-.75-.07,4.5,4.5,0,0,0-3.44,1.26A5.5,5.5,0,0,0,29.32,16v8.11H26.25Z"/><path class="cls-1" d="M40.55,17.16A4.09,4.09,0,0,0,41,19.08a4.87,4.87,0,0,0,1.21,1.49,5.84,5.84,0,0,0,1.74.95,6.15,6.15,0,0,0,2,.34,4.63,4.63,0,0,0,2.49-.66,8.18,8.18,0,0,0,1.94-1.76l2.31,1.77a8.52,8.52,0,0,1-7.15,3.31,8.88,8.88,0,0,1-3.45-.65,7.53,7.53,0,0,1-2.63-1.79,8.1,8.1,0,0,1-1.65-2.69A9.62,9.62,0,0,1,37.28,16a8.85,8.85,0,0,1,.63-3.36A8.31,8.31,0,0,1,39.65,10a7.94,7.94,0,0,1,2.64-1.78,8.33,8.33,0,0,1,3.34-.65,7.94,7.94,0,0,1,3.62.75,7.17,7.17,0,0,1,2.44,2A7.86,7.86,0,0,1,53.07,13a11.5,11.5,0,0,1,.42,3.08v1.09Zm9.67-2.45a6.42,6.42,0,0,0-.32-1.87A4,4,0,0,0,49,11.36a4.06,4.06,0,0,0-1.45-1,5.24,5.24,0,0,0-2-.36,4.81,4.81,0,0,0-2.06.43,5.07,5.07,0,0,0-1.59,1.1,5.2,5.2,0,0,0-1,1.52,4.1,4.1,0,0,0-.36,1.65Z"/><path class="cls-1" d="M9.67,41.49.83,28.09H4.89l6.37,10.27,6.56-10.27h3.86l-8.84,13.4v10H9.67Z"/><path class="cls-1" d="M19.17,43.64a8,8,0,0,1,.65-3.21,8.47,8.47,0,0,1,1.76-2.6,8.39,8.39,0,0,1,11.82,0,8.47,8.47,0,0,1,1.76,2.6,8.25,8.25,0,0,1,0,6.42,8.28,8.28,0,0,1-1.76,2.61,8.39,8.39,0,0,1-2.64,1.75,8.67,8.67,0,0,1-6.54,0,8.39,8.39,0,0,1-2.64-1.75,8.28,8.28,0,0,1-1.76-2.61A8,8,0,0,1,19.17,43.64Zm3.17,0a6.22,6.22,0,0,0,.37,2.19,5,5,0,0,0,1,1.72,4.84,4.84,0,0,0,1.62,1.12,5.79,5.79,0,0,0,4.28,0,4.84,4.84,0,0,0,1.62-1.12,5,5,0,0,0,1-1.72,6.7,6.7,0,0,0,0-4.39,4.87,4.87,0,0,0-1-1.71,4.72,4.72,0,0,0-1.62-1.13,5.79,5.79,0,0,0-4.28,0,4.72,4.72,0,0,0-1.62,1.13,4.87,4.87,0,0,0-1,1.71A6.23,6.23,0,0,0,22.34,43.64Z"/><path class="cls-1" d="M53.39,51.46h-3V49.05h-.06a4.48,4.48,0,0,1-2,2,6.5,6.5,0,0,1-3.2.77A6.77,6.77,0,0,1,43,51.51a5,5,0,0,1-1.8-1.08A5.08,5.08,0,0,1,40,48.57a7.11,7.11,0,0,1-.47-2.69V35.82h3v9.23a5.2,5.2,0,0,0,.3,1.87,3.4,3.4,0,0,0,.79,1.25,3.06,3.06,0,0,0,1.14.7,4.27,4.27,0,0,0,1.34.21,4.8,4.8,0,0,0,1.71-.3,3.61,3.61,0,0,0,1.39-.94,4.51,4.51,0,0,0,.92-1.63,7.42,7.42,0,0,0,.33-2.34v-8h3Z"/><path class="cls-1" d="M62.57,44.92v-2a7,7,0,0,1,.13-1.49,4.38,4.38,0,0,1,.39-1.07,4.55,4.55,0,0,1,.71-.92c.3-.3.67-.66,1.11-1.07l1-1a9.48,9.48,0,0,0,1-1.06,5.49,5.49,0,0,0,.71-1.15,3.2,3.2,0,0,0,.28-1.37,3.4,3.4,0,0,0-.28-1.4,3.59,3.59,0,0,0-.74-1.11,3.23,3.23,0,0,0-1.11-.72,3.49,3.49,0,0,0-1.37-.27,3.53,3.53,0,0,0-2.62,1A4.47,4.47,0,0,0,60.59,34l-3.37-.33a7,7,0,0,1,2.39-4.51,7.35,7.35,0,0,1,4.87-1.63,8.08,8.08,0,0,1,2.59.41,6.23,6.23,0,0,1,2.09,1.19A5.41,5.41,0,0,1,70.57,31a6.3,6.3,0,0,1,.51,2.59,6.15,6.15,0,0,1-.36,2.2,6.82,6.82,0,0,1-1,1.76l-2,2-.33.3q-.52.5-.84.84a3,3,0,0,0-.49.72,2.9,2.9,0,0,0-.25.85,7.35,7.35,0,0,0-.07,1.15v1.45Zm-.63,4.56A2.19,2.19,0,1,1,62.58,51,2.09,2.09,0,0,1,61.94,49.48Z"/></svg>