<svg id="Layer_1" data-name="Layer 1" xmlns="http://www.w3.org/2000/svg" viewBox="0 0 364.01 73.98"><defs><style>.cls-1{fill:#231f20;}</style></defs><path class="cls-1" d="M1.67,2.11H13.78a15,15,0,0,1,3.47.41A8.91,8.91,0,0,1,20.3,3.89a7.29,7.29,0,0,1,2.18,2.43,7.37,7.37,0,0,1,.83,3.6,6.4,6.4,0,0,1-1.49,4.35,8.36,8.36,0,0,1-3.91,2.46v.08a7.93,7.93,0,0,1,2.7.82,7,7,0,0,1,2.13,1.62,7.32,7.32,0,0,1,1.38,2.28,7.6,7.6,0,0,1,.51,2.79,8.19,8.19,0,0,1-1,4.24A8.14,8.14,0,0,1,21,31.28a11.25,11.25,0,0,1-3.77,1.47,21.56,21.56,0,0,1-4.33.44H1.67ZM7.2,14.75h5.05a6.7,6.7,0,0,0,4.15-1.08,3.41,3.41,0,0,0,1.38-2.83,3.41,3.41,0,0,0-1.43-3,8.23,8.23,0,0,0-4.59-1H7.2Zm0,13.7h5.09c.7,0,1.46-.05,2.26-.13a6.88,6.88,0,0,0,2.22-.62,4.39,4.39,0,0,0,1.67-1.38,4,4,0,0,0,.66-2.44,3.65,3.65,0,0,0-1.61-3.42,9.85,9.85,0,0,0-5-1H7.2Z"/><path class="cls-1" d="M28.45,5a3,3,0,0,1,.94-2.22,3.28,3.28,0,0,1,2.39-.94,3.49,3.49,0,0,1,2.44.9,2.92,2.92,0,0,1,1,2.26,2.92,2.92,0,0,1-1,2.26,3.49,3.49,0,0,1-2.44.9,3.24,3.24,0,0,1-2.39-.94A3,3,0,0,1,28.45,5Zm.74,7.16h5.27V33.19H29.19Z"/><path class="cls-1" d="M61.68,12.12V31.3a18,18,0,0,1-.7,5.16,10,10,0,0,1-2.18,3.91,9.89,9.89,0,0,1-3.71,2.48,14.62,14.62,0,0,1-5.31.87A20.2,20.2,0,0,1,44.21,43a12.62,12.62,0,0,1-4.88-2.72L42.5,36a12.56,12.56,0,0,0,3.29,2.24,9.29,9.29,0,0,0,4,.79,8.47,8.47,0,0,0,3.18-.52A5.18,5.18,0,0,0,55,37a5.52,5.52,0,0,0,1.1-2.22,11.6,11.6,0,0,0,.33-2.87V30.38h-.09a6.94,6.94,0,0,1-3,2.3,10,10,0,0,1-3.86.77,10.51,10.51,0,0,1-4.3-.85,10.31,10.31,0,0,1-3.32-2.31,10.09,10.09,0,0,1-2.13-3.42,12,12,0,0,1-.74-4.22,13,13,0,0,1,.7-4.34,10.22,10.22,0,0,1,2.06-3.52A9.88,9.88,0,0,1,45,12.45a10.62,10.62,0,0,1,4.37-.86,9.87,9.87,0,0,1,4.17.88,6.74,6.74,0,0,1,3.08,2.81h.08V12.12ZM50.44,16.33a6.73,6.73,0,0,0-2.55.46A5.57,5.57,0,0,0,44.67,20a6.87,6.87,0,0,0-.46,2.57A6,6,0,0,0,44.67,25,5.89,5.89,0,0,0,46,26.91a6.13,6.13,0,0,0,2,1.32,6.27,6.27,0,0,0,2.46.48A6.82,6.82,0,0,0,53,28.23a6,6,0,0,0,2-1.3A5.52,5.52,0,0,0,56.24,25a6.84,6.84,0,0,0,.43-2.46,5.8,5.8,0,0,0-6.23-6.19Z"/><path class="cls-1" d="M113.44,33.19H95.35a19.58,19.58,0,0,1-6.74-1.12,15.8,15.8,0,0,1-5.36-3.21,14.75,14.75,0,0,1-3.55-5.09A16.84,16.84,0,0,1,78.4,17,15.19,15.19,0,0,1,83.23,5.73a16.5,16.5,0,0,1,5.2-3.25,17.69,17.69,0,0,1,12.6,0,16.43,16.43,0,0,1,5.21,3.25A15.19,15.19,0,0,1,111.07,17a14.09,14.09,0,0,1-.6,4.32,12.28,12.28,0,0,1-1.56,3.3A11.27,11.27,0,0,1,106.79,27a19.37,19.37,0,0,1-2.27,1.62v.09h8.92ZM94.6,6.32a10.55,10.55,0,0,0-4.15.81,10,10,0,0,0-3.29,2.26A10.72,10.72,0,0,0,85,12.82a11.42,11.42,0,0,0-.79,4.3A12,12,0,0,0,85,21.53,10.65,10.65,0,0,0,87.18,25a10.07,10.07,0,0,0,3.32,2.31,10.28,10.28,0,0,0,4.19.83,10.66,10.66,0,0,0,4.24-.83A10,10,0,0,0,102.29,25a10.65,10.65,0,0,0,2.19-3.51,12,12,0,0,0,.79-4.41,11.42,11.42,0,0,0-.79-4.3,10.6,10.6,0,0,0-2.19-3.43,10.2,10.2,0,0,0-3.36-2.26A11.24,11.24,0,0,0,94.6,6.32Z"/><path class="cls-1" d="M135.69,33.19h-5V29.81h-.09a7.42,7.42,0,0,1-2.28,2.74,6.75,6.75,0,0,1-4.17,1.17,8.53,8.53,0,0,1-3.58-.68,6.44,6.44,0,0,1-2.39-1.85,7,7,0,0,1-1.32-2.65,12.35,12.35,0,0,1-.4-3.12V12.12h5.27V22.78c0,.59,0,1.24.09,2a7,7,0,0,0,.46,2,3.92,3.92,0,0,0,1.14,1.58,3.34,3.34,0,0,0,2.17.63,5.08,5.08,0,0,0,2.22-.43,4.27,4.27,0,0,0,1.49-1.19,4.6,4.6,0,0,0,.86-1.71,7.51,7.51,0,0,0,.26-2V12.12h5.27Z"/><path class="cls-1" d="M145.35,24.5a5.35,5.35,0,0,0,1.84,3.68A5.78,5.78,0,0,0,151,29.5a6.33,6.33,0,0,0,3.32-.81,9.31,9.31,0,0,0,2.35-2l3.77,2.85a10.69,10.69,0,0,1-4.12,3.25,12.28,12.28,0,0,1-4.79,1,12.62,12.62,0,0,1-4.48-.8A10.45,10.45,0,0,1,141,27.2a11.2,11.2,0,0,1-.9-4.55,11.12,11.12,0,0,1,.9-4.54,10.5,10.5,0,0,1,2.44-3.49,10.72,10.72,0,0,1,3.64-2.24,12.61,12.61,0,0,1,4.48-.79,10.32,10.32,0,0,1,4,.77,8.53,8.53,0,0,1,3.11,2.22,10,10,0,0,1,2,3.57,15,15,0,0,1,.73,4.9V24.5Zm10.8-3.95a4.94,4.94,0,0,0-1.45-3.67,5.46,5.46,0,0,0-3.91-1.34A5.14,5.14,0,0,0,147,16.9a6.06,6.06,0,0,0-1.69,3.65Z"/><path class="cls-1" d="M177,18a4.81,4.81,0,0,0-4.12-2.16,4.49,4.49,0,0,0-2.07.53,1.79,1.79,0,0,0-1,1.71,1.47,1.47,0,0,0,.84,1.41,9.19,9.19,0,0,0,2.11.74c.84.21,1.76.42,2.74.64a11,11,0,0,1,2.74,1,5.93,5.93,0,0,1,2.11,1.87,5.53,5.53,0,0,1,.84,3.25,5.92,5.92,0,0,1-.82,3.18,6.33,6.33,0,0,1-2.1,2.08,9.27,9.27,0,0,1-2.92,1.14,15.05,15.05,0,0,1-3.25.36,13.87,13.87,0,0,1-4.52-.71,8.54,8.54,0,0,1-3.69-2.54l3.51-3.3A9.64,9.64,0,0,0,169.6,29a5.3,5.3,0,0,0,2.84.72,5.46,5.46,0,0,0,1.18-.13,3.75,3.75,0,0,0,1.14-.44,2.76,2.76,0,0,0,.86-.76,1.82,1.82,0,0,0,.33-1.08,1.78,1.78,0,0,0-.84-1.62,7.18,7.18,0,0,0-2.1-.86c-.85-.22-1.77-.42-2.75-.62a10.4,10.4,0,0,1-2.74-.92,5.74,5.74,0,0,1-2.11-1.77,5.28,5.28,0,0,1-.83-3.17,6.2,6.2,0,0,1,.72-3.05,6.41,6.41,0,0,1,1.91-2.13A8.55,8.55,0,0,1,169.93,12a12.54,12.54,0,0,1,7.29.33,6.85,6.85,0,0,1,3.34,2.48Z"/><path class="cls-1" d="M182.31,16.59V12.12h4.35V6h5.27v6.11h5.79v4.47h-5.79v9.22a4.57,4.57,0,0,0,.59,2.51,2.6,2.6,0,0,0,2.35.92,7.88,7.88,0,0,0,1.53-.16,3.23,3.23,0,0,0,1.32-.5V33a6.5,6.5,0,0,1-2,.55,17.72,17.72,0,0,1-2.13.16,10.75,10.75,0,0,1-3.45-.47,4.46,4.46,0,0,1-2.1-1.4,5.35,5.35,0,0,1-1.06-2.35,16.54,16.54,0,0,1-.28-3.25V16.59Z"/><path class="cls-1" d="M200.71,5a3,3,0,0,1,.94-2.22A3.28,3.28,0,0,1,204,1.8a3.49,3.49,0,0,1,2.44.9,2.92,2.92,0,0,1,1,2.26,2.92,2.92,0,0,1-1,2.26,3.49,3.49,0,0,1-2.44.9,3.24,3.24,0,0,1-2.39-.94A3,3,0,0,1,200.71,5Zm.74,7.16h5.27V33.19h-5.27Z"/><path class="cls-1" d="M211.2,22.65a11.12,11.12,0,0,1,.9-4.54,10.62,10.62,0,0,1,2.43-3.49,10.76,10.76,0,0,1,3.65-2.24,13.07,13.07,0,0,1,8.95,0,10.76,10.76,0,0,1,3.65,2.24,10.62,10.62,0,0,1,2.43,3.49,11.12,11.12,0,0,1,.9,4.54,11.2,11.2,0,0,1-.9,4.55,10.37,10.37,0,0,1-6.08,5.72,12.92,12.92,0,0,1-8.95,0,10.37,10.37,0,0,1-6.08-5.72A11.2,11.2,0,0,1,211.2,22.65Zm5.26,0a6.8,6.8,0,0,0,.42,2.37,6,6,0,0,0,3.19,3.43,6.11,6.11,0,0,0,2.59.52,6.18,6.18,0,0,0,2.59-.52A6,6,0,0,0,227.2,27a6,6,0,0,0,1.23-2,7.05,7.05,0,0,0,0-4.74,6.06,6.06,0,0,0-1.23-2,6.4,6.4,0,0,0-7.13-1.4,6,6,0,0,0-3.19,3.42A6.8,6.8,0,0,0,216.46,22.65Z"/><path class="cls-1" d="M238.5,12.12h5V15.5h.08a7.38,7.38,0,0,1,2.29-2.75,6.77,6.77,0,0,1,4.17-1.16,8.28,8.28,0,0,1,3.58.7A6.85,6.85,0,0,1,256,14.14a7,7,0,0,1,1.31,2.63,11.86,11.86,0,0,1,.4,3.12v13.3h-5.27V22.52q0-.87-.09-1.95a6.69,6.69,0,0,0-.46-2A3.72,3.72,0,0,0,250.75,17a3.3,3.3,0,0,0-2.15-.64,5.08,5.08,0,0,0-2.22.44A4.16,4.16,0,0,0,244.89,18a4.6,4.6,0,0,0-.86,1.71,7.82,7.82,0,0,0-.26,2v11.5H238.5Z"/><path class="cls-1" d="M274.41,18a4.81,4.81,0,0,0-4.12-2.16,4.43,4.43,0,0,0-2.07.53,1.79,1.79,0,0,0-1,1.71,1.47,1.47,0,0,0,.84,1.41,8.92,8.92,0,0,0,2.1.74c.85.21,1.77.42,2.75.64a11,11,0,0,1,2.74,1,6,6,0,0,1,2.11,1.87,5.6,5.6,0,0,1,.83,3.25,5.92,5.92,0,0,1-.81,3.18,6.26,6.26,0,0,1-2.11,2.08,9.08,9.08,0,0,1-2.92,1.14,14.9,14.9,0,0,1-3.24.36A14,14,0,0,1,265,33a8.57,8.57,0,0,1-3.68-2.54l3.51-3.3A9.43,9.43,0,0,0,267,29a5.29,5.29,0,0,0,2.83.72,5.55,5.55,0,0,0,1.19-.13,3.75,3.75,0,0,0,1.14-.44,2.87,2.87,0,0,0,.86-.76,1.88,1.88,0,0,0,.32-1.08,1.77,1.77,0,0,0-.83-1.62,7.25,7.25,0,0,0-2.11-.86c-.85-.22-1.76-.42-2.74-.62a10.28,10.28,0,0,1-2.74-.92,5.66,5.66,0,0,1-2.11-1.77,5.28,5.28,0,0,1-.84-3.17,6.2,6.2,0,0,1,.73-3.05,6.41,6.41,0,0,1,1.91-2.13A8.45,8.45,0,0,1,267.3,12a12.54,12.54,0,0,1,7.29.33,6.87,6.87,0,0,1,3.33,2.48Z"/><path class="cls-1" d="M307.77,30.29h-.13a6.75,6.75,0,0,1-2.89,2.61,9.16,9.16,0,0,1-3.87.82,10.4,10.4,0,0,1-2.83-.4,7.6,7.6,0,0,1-2.46-1.19,6,6,0,0,1-1.73-2,5.59,5.59,0,0,1-.66-2.77,6.39,6.39,0,0,1,.61-2.92,6,6,0,0,1,1.65-2,8.21,8.21,0,0,1,2.39-1.3,16.53,16.53,0,0,1,2.83-.72,24.71,24.71,0,0,1,3-.31c1-.05,1.93-.07,2.81-.07h1.31v-.57a3.41,3.41,0,0,0-1.36-3,5.72,5.72,0,0,0-3.46-1,8.21,8.21,0,0,0-3.12.59,7.79,7.79,0,0,0-2.5,1.61L294.56,15a10.23,10.23,0,0,1,4.11-2.59,15,15,0,0,1,4.85-.79,12.38,12.38,0,0,1,3.77.5,8.35,8.35,0,0,1,2.55,1.3,5.83,5.83,0,0,1,1.56,1.82,9,9,0,0,1,.79,2.09,11.48,11.48,0,0,1,.28,2c0,.66,0,1.24,0,1.73V33.19h-4.75Zm-.3-6.54h-1.1q-1.1,0-2.46.09a13.8,13.8,0,0,0-2.57.41,6,6,0,0,0-2,1,2.13,2.13,0,0,0-.83,1.78,2.24,2.24,0,0,0,.33,1.25,3,3,0,0,0,.85.86,3.62,3.62,0,0,0,1.19.5,5.94,5.94,0,0,0,1.32.15,5.47,5.47,0,0,0,4-1.29,4.78,4.78,0,0,0,1.3-3.53Z"/><path class="cls-1" d="M317.65,12.12h5V15.5h.08A7.38,7.38,0,0,1,325,12.75a6.77,6.77,0,0,1,4.17-1.16,8.21,8.21,0,0,1,3.57.7,6.89,6.89,0,0,1,2.4,1.85,7,7,0,0,1,1.31,2.63,11.86,11.86,0,0,1,.4,3.12v13.3h-5.27V22.52q0-.87-.09-1.95a7,7,0,0,0-.46-2A3.72,3.72,0,0,0,329.9,17a3.3,3.3,0,0,0-2.15-.64,5.08,5.08,0,0,0-2.22.44A4.16,4.16,0,0,0,324,18a4.6,4.6,0,0,0-.86,1.71,7.82,7.82,0,0,0-.26,2v11.5h-5.27Z"/><path class="cls-1" d="M359,30h-.08a6.79,6.79,0,0,1-3.08,2.81,10,10,0,0,1-4.17.88,10.62,10.62,0,0,1-4.37-.86A9.77,9.77,0,0,1,344,30.51,10.08,10.08,0,0,1,342,27a13.14,13.14,0,0,1-.7-4.35,12.56,12.56,0,0,1,.74-4.34,11,11,0,0,1,2.09-3.52,9.62,9.62,0,0,1,3.23-2.34,9.84,9.84,0,0,1,4.12-.86,10,10,0,0,1,2.64.31,9,9,0,0,1,2,.79,8,8,0,0,1,1.49,1,7.06,7.06,0,0,1,1,1.07h.13V0H364V33.19h-5Zm-12.46-7.38A6.79,6.79,0,0,0,347,25a6,6,0,0,0,1.23,2A6,6,0,0,0,352.73,29a6.15,6.15,0,0,0,2.59-.52A6,6,0,0,0,357.27,27a6,6,0,0,0,1.23-2,6.9,6.9,0,0,0,0-4.74,6.06,6.06,0,0,0-1.23-2,6.25,6.25,0,0,0-9.09,0,6.06,6.06,0,0,0-1.23,2A6.79,6.79,0,0,0,346.54,22.65Z"/><path class="cls-1" d="M0,57.78A18,18,0,0,1,1.23,51a15.24,15.24,0,0,1,3.4-5.21,15.08,15.08,0,0,1,5.18-3.31,18.32,18.32,0,0,1,6.61-1.16,18.57,18.57,0,0,1,6.67,1.07,14.77,14.77,0,0,1,5.23,3.27,15.2,15.2,0,0,1,3.42,5.18A17.85,17.85,0,0,1,33,57.6a17.25,17.25,0,0,1-1.23,6.63,15.23,15.23,0,0,1-3.42,5.14,15.88,15.88,0,0,1-5.23,3.36A18.58,18.58,0,0,1,16.42,74a18.32,18.32,0,0,1-6.61-1.16,14.85,14.85,0,0,1-8.58-8.41A17.25,17.25,0,0,1,0,57.78Zm5.79-.35A13.43,13.43,0,0,0,6.56,62a10.74,10.74,0,0,0,2.18,3.64,10,10,0,0,0,3.35,2.42,10.66,10.66,0,0,0,4.37.87,10.75,10.75,0,0,0,4.39-.87,10,10,0,0,0,3.38-2.42A10.9,10.9,0,0,0,26.41,62a13.43,13.43,0,0,0,.76-4.61,12.21,12.21,0,0,0-.76-4.35,10.91,10.91,0,0,0-2.18-3.53,9.83,9.83,0,0,0-3.38-2.37,10.92,10.92,0,0,0-4.39-.86,10.82,10.82,0,0,0-4.37.86,9.9,9.9,0,0,0-3.35,2.37,10.74,10.74,0,0,0-2.18,3.53A12.21,12.21,0,0,0,5.79,57.43Z"/><path class="cls-1" d="M56.45,73.19h-5V69.81h-.09a7.42,7.42,0,0,1-2.28,2.74,6.73,6.73,0,0,1-4.17,1.17A8.53,8.53,0,0,1,41.33,73a6.44,6.44,0,0,1-2.39-1.85,7,7,0,0,1-1.32-2.65,12.35,12.35,0,0,1-.39-3.12V52.12H42.5V62.78c0,.59,0,1.24.08,2a7,7,0,0,0,.46,2,3.92,3.92,0,0,0,1.14,1.58,3.37,3.37,0,0,0,2.18.63,5.11,5.11,0,0,0,2.22-.43,4.46,4.46,0,0,0,1.49-1.19,4.74,4.74,0,0,0,.85-1.71,7.52,7.52,0,0,0,.27-2V52.12h5.26Z"/><path class="cls-1" d="M61.9,52.12h5.27v3.33h.08a6.59,6.59,0,0,1,2.51-2.85,6.92,6.92,0,0,1,3.73-1,4.91,4.91,0,0,1,.94.09c.31.06.62.13.95.22V57c-.44-.12-.88-.21-1.3-.29a7.64,7.64,0,0,0-1.25-.11,5.66,5.66,0,0,0-3,.68,5.59,5.59,0,0,0-1.72,1.56,5.47,5.47,0,0,0-.79,1.76,6.51,6.51,0,0,0-.19,1.32V73.19H61.9Z"/><path class="cls-1" d="M112.73,49.39a9.3,9.3,0,0,0-3.31-2.45,9,9,0,0,0-3.23-.62,10.82,10.82,0,0,0-4.37.86,9.9,9.9,0,0,0-3.35,2.37,10.74,10.74,0,0,0-2.18,3.53,12.21,12.21,0,0,0-.77,4.35A13.43,13.43,0,0,0,96.29,62a10.74,10.74,0,0,0,2.18,3.64,10,10,0,0,0,3.35,2.42,10.66,10.66,0,0,0,4.37.87,8.05,8.05,0,0,0,3.67-.9,10,10,0,0,0,3.31-2.87l4.57,3.25a12.49,12.49,0,0,1-5.14,4.21A16,16,0,0,1,106.15,74a18.32,18.32,0,0,1-6.61-1.16A14.85,14.85,0,0,1,91,64.41a17.25,17.25,0,0,1-1.23-6.63A18,18,0,0,1,91,51a15.24,15.24,0,0,1,3.4-5.21,15.08,15.08,0,0,1,5.18-3.31,18.32,18.32,0,0,1,6.61-1.16A15.11,15.11,0,0,1,112,42.44a13.71,13.71,0,0,1,5,3.79Z"/><path class="cls-1" d="M119.41,62.65a11.12,11.12,0,0,1,.9-4.54,10.62,10.62,0,0,1,2.43-3.49,10.76,10.76,0,0,1,3.65-2.24,13.07,13.07,0,0,1,9,0A10.62,10.62,0,0,1,139,54.62a10.5,10.5,0,0,1,2.44,3.49,11.93,11.93,0,0,1,0,9.09,10.45,10.45,0,0,1-6.08,5.72,12.92,12.92,0,0,1-9,0,10.37,10.37,0,0,1-6.08-5.72A11.2,11.2,0,0,1,119.41,62.65Zm5.26,0a6.8,6.8,0,0,0,.42,2.37,6,6,0,0,0,1.23,2,6,6,0,0,0,2,1.41,6.71,6.71,0,0,0,5.18,0,6.07,6.07,0,0,0,2-1.41,6,6,0,0,0,1.23-2,7.05,7.05,0,0,0,0-4.74,6.06,6.06,0,0,0-1.23-2,6.2,6.2,0,0,0-2-1.4,6.12,6.12,0,0,0-8.36,3.42A6.8,6.8,0,0,0,124.67,62.65Z"/><path class="cls-1" d="M146.71,52.12H152v3.33h.09a6.57,6.57,0,0,1,2.5-2.85,7,7,0,0,1,3.73-1,4.83,4.83,0,0,1,.94.09c.31.06.63.13.95.22V57c-.44-.12-.87-.21-1.3-.29a7.64,7.64,0,0,0-1.25-.11,5.66,5.66,0,0,0-3,.68A5.43,5.43,0,0,0,153,58.83a5.07,5.07,0,0,0-.79,1.76,6,6,0,0,0-.2,1.32V73.19h-5.27Z"/><path class="cls-1" d="M166.68,64.5a5.35,5.35,0,0,0,1.85,3.68,5.76,5.76,0,0,0,3.82,1.32,6.27,6.27,0,0,0,3.31-.81,9.14,9.14,0,0,0,2.35-2l3.78,2.85a10.71,10.71,0,0,1-4.13,3.25,12.23,12.23,0,0,1-4.78,1,12.54,12.54,0,0,1-4.48-.8,10.37,10.37,0,0,1-6.08-5.72,11.93,11.93,0,0,1,0-9.09,10.62,10.62,0,0,1,2.43-3.49,10.76,10.76,0,0,1,3.65-2.24,12.53,12.53,0,0,1,4.48-.79,10.24,10.24,0,0,1,4,.77A8.57,8.57,0,0,1,180,54.58a10.31,10.31,0,0,1,2,3.57,15.27,15.27,0,0,1,.72,4.9V64.5Zm10.8-4A4.94,4.94,0,0,0,176,56.88a5.46,5.46,0,0,0-3.91-1.34,5.14,5.14,0,0,0-3.75,1.36,6.07,6.07,0,0,0-1.7,3.65Z"/><path class="cls-1" d="M215.33,48.78A5.16,5.16,0,0,0,213,46.91a8.34,8.34,0,0,0-3.1-.59,8.16,8.16,0,0,0-1.86.22,5.19,5.19,0,0,0-1.63.7,3.69,3.69,0,0,0-1.16,1.26,3.61,3.61,0,0,0-.44,1.82,2.84,2.84,0,0,0,1.1,2.41,10.68,10.68,0,0,0,2.72,1.45c1.08.41,2.27.81,3.55,1.19A14.13,14.13,0,0,1,215.72,57a8.76,8.76,0,0,1,2.72,2.67,8,8,0,0,1,1.1,4.44,9.83,9.83,0,0,1-.92,4.37,9,9,0,0,1-2.48,3.09,10.77,10.77,0,0,1-3.62,1.84,15.2,15.2,0,0,1-4.35.62,16.22,16.22,0,0,1-5.58-1A10.69,10.69,0,0,1,198,69.76l4.18-4a6.94,6.94,0,0,0,2.65,2.39,7.47,7.47,0,0,0,3.49.85,7.12,7.12,0,0,0,1.93-.26,5.85,5.85,0,0,0,1.76-.79,4.07,4.07,0,0,0,1.27-1.34,3.58,3.58,0,0,0,.49-1.86,3.26,3.26,0,0,0-1.1-2.64,9.88,9.88,0,0,0-2.73-1.56c-1.08-.42-2.26-.82-3.55-1.2a15,15,0,0,1-3.56-1.56,8.66,8.66,0,0,1-2.72-2.64,7.82,7.82,0,0,1-1.1-4.41,8.35,8.35,0,0,1,1-4.17,9.09,9.09,0,0,1,2.59-2.92,11.4,11.4,0,0,1,3.67-1.73,15.78,15.78,0,0,1,9,.17,11.12,11.12,0,0,1,4.14,2.46Z"/><path class="cls-1" d="M228.49,64.5a5.32,5.32,0,0,0,1.85,3.68,5.76,5.76,0,0,0,3.82,1.32,6.29,6.29,0,0,0,3.31-.81,9.14,9.14,0,0,0,2.35-2l3.78,2.85a10.71,10.71,0,0,1-4.13,3.25,12.24,12.24,0,0,1-4.79,1,12.52,12.52,0,0,1-4.47-.8,10.37,10.37,0,0,1-6.08-5.72,11.93,11.93,0,0,1,0-9.09,10.62,10.62,0,0,1,2.43-3.49,10.76,10.76,0,0,1,3.65-2.24,12.52,12.52,0,0,1,4.47-.79,10.25,10.25,0,0,1,4,.77,8.57,8.57,0,0,1,3.12,2.22,10.31,10.31,0,0,1,2,3.57,15.27,15.27,0,0,1,.72,4.9V64.5Zm10.8-4a4.94,4.94,0,0,0-1.45-3.67,5.41,5.41,0,0,0-3.9-1.34,5.18,5.18,0,0,0-3.76,1.36,6.12,6.12,0,0,0-1.69,3.65Z"/><path class="cls-1" d="M249,52.12h5.27v3.33h.09a6.57,6.57,0,0,1,2.5-2.85,7,7,0,0,1,3.73-1,4.83,4.83,0,0,1,.94.09c.31.06.63.13.95.22V57c-.44-.12-.87-.21-1.3-.29a7.64,7.64,0,0,0-1.25-.11,5.69,5.69,0,0,0-3,.68,5.43,5.43,0,0,0-1.71,1.56,5.07,5.07,0,0,0-.79,1.76,6.69,6.69,0,0,0-.2,1.32V73.19H249Z"/><path class="cls-1" d="M262.65,52.12h5.75L274,66.87h.09l5.66-14.75h5.4l-8.3,21.07h-5.62Z"/><path class="cls-1" d="M287.1,45a3,3,0,0,1,.94-2.22,3.29,3.29,0,0,1,2.4-.94,3.48,3.48,0,0,1,2.43.9,3.07,3.07,0,0,1,0,4.52,3.48,3.48,0,0,1-2.43.9,3.25,3.25,0,0,1-2.4-.94A3,3,0,0,1,287.1,45Zm.75,7.16h5.26V73.19h-5.26Z"/><path class="cls-1" d="M313,58.44a8,8,0,0,0-1.93-1.54,4.14,4.14,0,0,0-2.06-.57,6.11,6.11,0,0,0-2.59.53,6.31,6.31,0,0,0-2,1.4,5.88,5.88,0,0,0-1.22,2,6.9,6.9,0,0,0,0,4.74,5.79,5.79,0,0,0,1.22,2,6.18,6.18,0,0,0,2,1.41,6.11,6.11,0,0,0,2.59.52,5.14,5.14,0,0,0,2.28-.5,5.08,5.08,0,0,0,1.8-1.47l3.51,3.77a7.79,7.79,0,0,1-1.82,1.36,12.29,12.29,0,0,1-2.08.93,13.2,13.2,0,0,1-2,.5,11.32,11.32,0,0,1-1.67.16,12.62,12.62,0,0,1-4.48-.8,10.45,10.45,0,0,1-6.08-5.72,11.93,11.93,0,0,1,0-9.09,10.5,10.5,0,0,1,2.44-3.49,10.72,10.72,0,0,1,3.64-2.24,12.61,12.61,0,0,1,4.48-.79,11.53,11.53,0,0,1,4.06.77,9.28,9.28,0,0,1,3.58,2.43Z"/><path class="cls-1" d="M323.49,64.5a5.32,5.32,0,0,0,1.85,3.68,5.74,5.74,0,0,0,3.82,1.32,6.29,6.29,0,0,0,3.31-.81,9.31,9.31,0,0,0,2.35-2l3.77,2.85a10.69,10.69,0,0,1-4.12,3.25,12.28,12.28,0,0,1-4.79,1,12.62,12.62,0,0,1-4.48-.8,10.45,10.45,0,0,1-6.08-5.72,11.93,11.93,0,0,1,0-9.09,10.5,10.5,0,0,1,6.08-5.73,12.61,12.61,0,0,1,4.48-.79,10.29,10.29,0,0,1,4,.77,8.65,8.65,0,0,1,3.12,2.22,10.14,10.14,0,0,1,2,3.57,15,15,0,0,1,.73,4.9V64.5Zm10.8-4a4.94,4.94,0,0,0-1.45-3.67,5.43,5.43,0,0,0-3.9-1.34,5.16,5.16,0,0,0-3.76,1.36,6.12,6.12,0,0,0-1.69,3.65Z"/><path class="cls-1" d="M355.19,58a4.82,4.82,0,0,0-4.13-2.16,4.42,4.42,0,0,0-2.06.53A1.78,1.78,0,0,0,348,58a1.48,1.48,0,0,0,.83,1.41,9.19,9.19,0,0,0,2.11.74c.85.21,1.76.42,2.74.64a11,11,0,0,1,2.75,1,6,6,0,0,1,2.1,1.87,5.53,5.53,0,0,1,.84,3.25,5.92,5.92,0,0,1-.81,3.18,6.45,6.45,0,0,1-2.11,2.08,9.17,9.17,0,0,1-2.92,1.14,15,15,0,0,1-3.25.36,13.87,13.87,0,0,1-4.52-.71,8.54,8.54,0,0,1-3.69-2.54l3.51-3.3A9.69,9.69,0,0,0,347.75,69a5.24,5.24,0,0,0,2.83.72,5.46,5.46,0,0,0,1.18-.13,3.75,3.75,0,0,0,1.14-.44,2.65,2.65,0,0,0,.86-.76,1.82,1.82,0,0,0,.33-1.08,1.79,1.79,0,0,0-.83-1.62,7.25,7.25,0,0,0-2.11-.86c-.85-.22-1.77-.42-2.75-.62a10.4,10.4,0,0,1-2.74-.92,5.74,5.74,0,0,1-2.11-1.77,5.35,5.35,0,0,1-.83-3.17,6.2,6.2,0,0,1,.72-3,6.52,6.52,0,0,1,1.91-2.13A8.51,8.51,0,0,1,348.08,52a12.5,12.5,0,0,1,7.28.33,6.85,6.85,0,0,1,3.34,2.48Z"/></svg>