<svg id="Layer_1" data-name="Layer 1" xmlns="http://www.w3.org/2000/svg" viewBox="0 0 47.56 103.36"><defs><style>.cls-1{fill:#58595b;}</style></defs><path class="cls-1" d="M1.18,103.14v-5a13.56,13.56,0,0,1,.16-2A4.79,4.79,0,0,1,2,94.3,3.91,3.91,0,0,1,3.41,93a4.83,4.83,0,0,1,2.38-.51,3.64,3.64,0,0,1,2.32.79,3.86,3.86,0,0,1,1.3,2.34h.05a4.66,4.66,0,0,1,.41-1.57,3.83,3.83,0,0,1,2.21-2,4.72,4.72,0,0,1,1.67-.28,4.61,4.61,0,0,1,2.45.58,4.44,4.44,0,0,1,1.5,1.45,5.88,5.88,0,0,1,.74,1.9,10.2,10.2,0,0,1,.19,1.91v5.57Zm7.54-1.63V98.14a5.88,5.88,0,0,0-.3-2,3.55,3.55,0,0,0-.76-1.23,2.18,2.18,0,0,0-.94-.59,3.32,3.32,0,0,0-.93-.15,3.22,3.22,0,0,0-1.51.31,2.52,2.52,0,0,0-1,.82,3.55,3.55,0,0,0-.5,1.21,6.88,6.88,0,0,0-.15,1.46v3.59Zm8.43,0V97.79a6.38,6.38,0,0,0-.34-2.3A3.61,3.61,0,0,0,16,94.14a2.66,2.66,0,0,0-1.1-.62,3.89,3.89,0,0,0-1-.16,3.41,3.41,0,0,0-1.65.37,3.17,3.17,0,0,0-1.12,1A3.85,3.85,0,0,0,10.4,96a6,6,0,0,0-.2,1.52v4Z"/><path class="cls-1" d="M10.45,78.17l-.78,0-.92,0c-.31,0-.6,0-.88,0l-.62,0V76.82l1.23,0a4.28,4.28,0,0,0,.76-.06,5.15,5.15,0,0,1-1.65-1.45A3.6,3.6,0,0,1,7,73.1a2,2,0,0,1,0-.43c0-.14,0-.29.08-.44l1.46.18a1.62,1.62,0,0,0-.1.56,4,4,0,0,0,.31,1.67,3.12,3.12,0,0,0,.85,1.16,3.44,3.44,0,0,0,1.27.67,5.2,5.2,0,0,0,1.56.23h6.21v1.47Z"/><path class="cls-1" d="M13.85,51.26h1.5l1.24,0c.37,0,.73,0,1.06-.06s.65-.06,1-.11v1.38a10.5,10.5,0,0,1-1.85.15v0a4.1,4.1,0,0,1,1.63,1.59,4.9,4.9,0,0,1,.52,2.4,5.45,5.45,0,0,1-.19,1.45,3.8,3.8,0,0,1-.59,1.29,3.23,3.23,0,0,1-1,.92,3.09,3.09,0,0,1-1.55.36A3,3,0,0,1,13.48,60a4.05,4.05,0,0,1-1.14-1.64,7.84,7.84,0,0,1-.5-2.07c-.07-.73-.11-1.37-.11-1.93V52.59H11a2.44,2.44,0,0,0-2.12.91,3.9,3.9,0,0,0-.64,2.3,5.21,5.21,0,0,0,1.28,3.47l-1,.86a5.26,5.26,0,0,1-1.19-2A7.22,7.22,0,0,1,7,55.8a5.21,5.21,0,0,1,1-3.31,3.78,3.78,0,0,1,3.15-1.23Zm-.94,3A13.29,13.29,0,0,0,13,56a6.2,6.2,0,0,0,.42,1.58,2.83,2.83,0,0,0,.79,1.12,1.8,1.8,0,0,0,1.23.42,1.78,1.78,0,0,0,.92-.24,2,2,0,0,0,.67-.6,2.88,2.88,0,0,0,.39-.83,3.21,3.21,0,0,0,.14-.92,4.76,4.76,0,0,0-.35-2,3.35,3.35,0,0,0-.9-1.22,3.13,3.13,0,0,0-1.25-.62,5.76,5.76,0,0,0-1.42-.18h-.77Z"/><path class="cls-1" d="M10.45,37.46l-.78,0-.92,0-.88,0c-.27,0-.48,0-.62,0V36.1l1.23,0A4.28,4.28,0,0,0,9.24,36v-.08a4,4,0,0,1-1.61-1.48A4.31,4.31,0,0,1,7,32a4.85,4.85,0,0,1,.42-2.17,3.42,3.42,0,0,1,1.1-1.32A4,4,0,0,1,10,27.89a8.45,8.45,0,0,1,1.82-.19h6.78v1.48h-6.7a7.34,7.34,0,0,0-1.34.12,3.94,3.94,0,0,0-1.18.43,2.29,2.29,0,0,0-.82.87A2.9,2.9,0,0,0,8.28,32a4.42,4.42,0,0,0,.28,1.54,3.4,3.4,0,0,0,.87,1.26,4.09,4.09,0,0,0,1.45.83,6.08,6.08,0,0,0,2.06.31h5.69v1.48Z"/><path class="cls-1" d="M16.64,3.94V4a4,4,0,0,1,1,.86A5.11,5.11,0,0,1,18.37,6a5.41,5.41,0,0,1,.42,1.27,6.46,6.46,0,0,1,.14,1.3A6.39,6.39,0,0,1,18.48,11a5.36,5.36,0,0,1-1.24,1.89,5.74,5.74,0,0,1-1.9,1.24,6.77,6.77,0,0,1-4.8,0,5.74,5.74,0,0,1-1.9-1.24A5.38,5.38,0,0,1,7.39,11,6.59,6.59,0,0,1,7,8.55a6.46,6.46,0,0,1,.14-1.3A5.9,5.9,0,0,1,7.5,6a5.16,5.16,0,0,1,.72-1.13,4,4,0,0,1,1-.86V3.94H0V2.46H18.63V3.94Zm-3.7-.15a4.58,4.58,0,0,0-1.81.37,4.8,4.8,0,0,0-1.48,1,4.91,4.91,0,0,0-1,1.51,4.62,4.62,0,0,0-.37,1.87,4.49,4.49,0,0,0,.37,1.87,4.33,4.33,0,0,0,1,1.43,4.07,4.07,0,0,0,1.48.9,5.44,5.44,0,0,0,3.62,0,4.07,4.07,0,0,0,1.48-.9,4.33,4.33,0,0,0,1-1.43,4.66,4.66,0,0,0,.37-1.87,4.8,4.8,0,0,0-.37-1.87,4.91,4.91,0,0,0-1-1.51,4.8,4.8,0,0,0-1.48-1A4.61,4.61,0,0,0,12.94,3.79Z"/><path class="cls-1" d="M24.19,103.36V98a11.62,11.62,0,0,1,.56-3.84,8.55,8.55,0,0,1,1.41-2.62,7.38,7.38,0,0,1,1.91-1.66,9.55,9.55,0,0,1,2-.88,9.32,9.32,0,0,1,1.74-.36c.52,0,.88-.07,1.1-.07s.58,0,1.09.07a9.32,9.32,0,0,1,1.74.36,9.55,9.55,0,0,1,2,.88,7.22,7.22,0,0,1,1.91,1.66,8.56,8.56,0,0,1,1.42,2.62A11.64,11.64,0,0,1,41.64,98v5.4Zm16-1.62V98.38a11.62,11.62,0,0,0-.43-3.23,7.47,7.47,0,0,0-1.32-2.61,6.22,6.22,0,0,0-2.25-1.75,8.52,8.52,0,0,0-6.48,0,6.17,6.17,0,0,0-2.26,1.75,7.47,7.47,0,0,0-1.32,2.61,11.62,11.62,0,0,0-.43,3.23v3.36Z"/><path class="cls-1" d="M25.74,85.42A1.06,1.06,0,0,1,25,85.1a1,1,0,0,1-.32-.79,1.11,1.11,0,1,1,2.21,0,1,1,0,0,1-.32.79A1.07,1.07,0,0,1,25.74,85.42Zm4.51-.37V83.57H41.64v1.48Z"/><path class="cls-1" d="M38.73,79.36A3.14,3.14,0,0,0,40.12,78a4.08,4.08,0,0,0,.48-1.92A3,3,0,0,0,40,74.28a2.18,2.18,0,0,0-.65-.6,1.64,1.64,0,0,0-.88-.24,1.39,1.39,0,0,0-1.18.51,3.61,3.61,0,0,0-.62,1.24,15.71,15.71,0,0,0-.38,1.63,7.38,7.38,0,0,1-.49,1.63,3.59,3.59,0,0,1-.93,1.24,2.47,2.47,0,0,1-1.67.51,3,3,0,0,1-1.46-.35,3.16,3.16,0,0,1-1-.9,3.86,3.86,0,0,1-.6-1.24A4.81,4.81,0,0,1,30,76.3a5.28,5.28,0,0,1,.52-2.43,3.57,3.57,0,0,1,1.62-1.59l.79,1.33a3.15,3.15,0,0,0-1.19,1,2.91,2.91,0,0,0-.41,1.64,3.14,3.14,0,0,0,.12.83,2.84,2.84,0,0,0,.35.77,1.94,1.94,0,0,0,.56.58,1.36,1.36,0,0,0,.79.24,1.32,1.32,0,0,0,1.14-.51A4,4,0,0,0,34.83,77a16,16,0,0,0,.35-1.63,6.87,6.87,0,0,1,.48-1.63,3.54,3.54,0,0,1,1-1.24A2.79,2.79,0,0,1,38.41,72,3.24,3.24,0,0,1,40,72.3a3.13,3.13,0,0,1,1.1.91,3.9,3.9,0,0,1,.66,1.32,5.28,5.28,0,0,1,.23,1.55,6.28,6.28,0,0,1-.57,2.7,4.09,4.09,0,0,1-1.75,1.88Z"/><path class="cls-1" d="M40,59.35a5.24,5.24,0,0,1,1.5,1.89,5.51,5.51,0,0,1,.48,2.3A6.34,6.34,0,0,1,41.49,66a5.49,5.49,0,0,1-1.24,1.9,6,6,0,0,1-1.9,1.23,6.25,6.25,0,0,1-2.4.44,6.34,6.34,0,0,1-2.41-.44,5.83,5.83,0,0,1-1.89-1.23A5.52,5.52,0,0,1,30.4,66,6.54,6.54,0,0,1,30,63.54a5.2,5.2,0,0,1,.52-2.33,5.94,5.94,0,0,1,1.45-1.91l.89,1.18a5.19,5.19,0,0,0-1.12,1.4,3.38,3.38,0,0,0-.41,1.66,4.52,4.52,0,0,0,.37,1.87,4.44,4.44,0,0,0,1,1.43,4.36,4.36,0,0,0,1.48.9,5.44,5.44,0,0,0,3.62,0,4.36,4.36,0,0,0,1.48-.9,4.44,4.44,0,0,0,1-1.43,4.69,4.69,0,0,0,.36-1.87,3.46,3.46,0,0,0-.43-1.72A4.55,4.55,0,0,0,39,60.48Z"/><path class="cls-1" d="M36,57.67a6.54,6.54,0,0,1-2.41-.44A5.7,5.7,0,0,1,31.65,56,5.38,5.38,0,0,1,30.4,54.1,6.59,6.59,0,0,1,30,51.68a6.45,6.45,0,0,1,.44-2.4,5.61,5.61,0,0,1,1.25-1.9,5.55,5.55,0,0,1,1.89-1.24A6.34,6.34,0,0,1,36,45.69a6.25,6.25,0,0,1,2.4.45,5.69,5.69,0,0,1,1.9,1.24,5.59,5.59,0,0,1,1.24,1.9,6.25,6.25,0,0,1,.45,2.4,6.39,6.39,0,0,1-.45,2.42A5.36,5.36,0,0,1,40.25,56a5.84,5.84,0,0,1-1.9,1.24A6.45,6.45,0,0,1,36,57.67Zm0-1.48a5.18,5.18,0,0,0,1.81-.31,4.07,4.07,0,0,0,1.48-.9,4.33,4.33,0,0,0,1-1.43,5,5,0,0,0,0-3.74,4.33,4.33,0,0,0-1-1.43,4.07,4.07,0,0,0-1.48-.9,5.44,5.44,0,0,0-3.62,0,4.07,4.07,0,0,0-1.48.9,4.33,4.33,0,0,0-1,1.43,4.91,4.91,0,0,0,0,3.74,4.33,4.33,0,0,0,1,1.43,4.07,4.07,0,0,0,1.48.9A5.14,5.14,0,0,0,36,56.19Z"/><path class="cls-1" d="M30.25,44V42.32L40,38.52l-9.79-3.7v-1.5l11.39,4.49v1.52Z"/><path class="cls-1" d="M39.5,20.92a5,5,0,0,1,1.87,2.14,6.69,6.69,0,0,1,.57,2.79,6,6,0,0,1-.45,2.37A5.26,5.26,0,0,1,40.25,30a5.52,5.52,0,0,1-1.9,1.17,7,7,0,0,1-2.43.41,6.47,6.47,0,0,1-2.36-.42A5.65,5.65,0,0,1,31.67,30,5.48,5.48,0,0,1,30,25.93a5.6,5.6,0,0,1,.45-2.31A5.17,5.17,0,0,1,31.62,22a5,5,0,0,1,1.71-1,5.76,5.76,0,0,1,2-.34h1v9.56A5.13,5.13,0,0,0,37.51,30a4.26,4.26,0,0,0,2.6-2,4.1,4.1,0,0,0,.49-2.13,4.8,4.8,0,0,0-.54-2.2A3.94,3.94,0,0,0,38.58,22ZM35,22.06a3.28,3.28,0,0,0-1.43.31,3.61,3.61,0,0,0-1.17.83,4.13,4.13,0,0,0-.81,1.26A4.21,4.21,0,0,0,31.29,26a3.74,3.74,0,0,0,.49,2,4.47,4.47,0,0,0,2.38,1.93,3,3,0,0,0,.83.2Z"/><path class="cls-1" d="M33.46,17.28c-.22,0-.47,0-.78,0l-.92,0-.88,0-.63,0V15.92l1.24,0a2.91,2.91,0,0,0,.76-.06,5.15,5.15,0,0,1-1.65-1.45A3.6,3.6,0,0,1,30,12.2a2,2,0,0,1,0-.43c0-.14.05-.29.08-.43l1.46.17a1.71,1.71,0,0,0-.1.57,4,4,0,0,0,.31,1.66,3,3,0,0,0,.85,1.16,3.65,3.65,0,0,0,1.26.68,5.67,5.67,0,0,0,1.57.22h6.21v1.48Z"/><path class="cls-1" d="M45.16,5.87A4.22,4.22,0,0,1,46.91,7a2.92,2.92,0,0,1,.65,2,4.51,4.51,0,0,1-.07.73,5.4,5.4,0,0,1-.16.72L46,10.3c.07-.21.13-.43.19-.65A2.58,2.58,0,0,0,46.22,9a1.35,1.35,0,0,0-.17-.7,1.73,1.73,0,0,0-.44-.53A2.51,2.51,0,0,0,45,7.36c-.22-.11-.44-.2-.67-.29L41.69,6,30.25,10.67V9l9.59-3.77L30.25,1.58V0Z"/></svg>