<svg id="Layer_1" data-name="Layer 1" xmlns="http://www.w3.org/2000/svg" viewBox="0 0 167.61 73.6"><defs><style>.cls-1{fill:#58595b;}</style></defs><path class="cls-1" d="M.49,1.23H5.73a13.59,13.59,0,0,1,2.09.17,4.84,4.84,0,0,1,1.89.7,4.08,4.08,0,0,1,1.36,1.46A5.08,5.08,0,0,1,11.59,6a3.75,3.75,0,0,1-.82,2.42A4.05,4.05,0,0,1,8.33,9.82v0A4.56,4.56,0,0,1,10,10.3a4.15,4.15,0,0,1,1.29.92,4.19,4.19,0,0,1,.84,1.38,5.12,5.12,0,0,1,.29,1.74,4.88,4.88,0,0,1-.6,2.56,4.73,4.73,0,0,1-1.52,1.56,5.84,5.84,0,0,1-2,.77,10.29,10.29,0,0,1-2,.21H.49ZM2.19,9.1H5.71a6,6,0,0,0,2.13-.32A3.94,3.94,0,0,0,9.13,8a2.29,2.29,0,0,0,.61-1A3.32,3.32,0,0,0,9.9,6a3.53,3.53,0,0,0-.32-1.58,2.65,2.65,0,0,0-.87-1,3.29,3.29,0,0,0-1.25-.53,7.46,7.46,0,0,0-1.52-.15H2.19Zm0,8.79H6.07a6.67,6.67,0,0,0,2.4-.36,3.61,3.61,0,0,0,1.4-.9,2.78,2.78,0,0,0,.66-1.14,4.21,4.21,0,0,0,.17-1.09,3.59,3.59,0,0,0-.39-1.73,3.46,3.46,0,0,0-1-1.17,4.28,4.28,0,0,0-1.4-.65,6.15,6.15,0,0,0-1.59-.21H2.19Z"/><path class="cls-1" d="M16.25,10.9q0-.33,0-.81c0-.32,0-.64,0-1s0-.63,0-.92,0-.5,0-.65h1.54c0,.44,0,.87,0,1.28a4.79,4.79,0,0,0,.06.8,5.27,5.27,0,0,1,1.52-1.72,3.73,3.73,0,0,1,2.26-.67,2.15,2.15,0,0,1,.45,0,3.58,3.58,0,0,1,.45.09L22.26,8.9a1.8,1.8,0,0,0-.59-.11,4.34,4.34,0,0,0-1.73.32,3.24,3.24,0,0,0-1.21.89A3.82,3.82,0,0,0,18,11.32,5.75,5.75,0,0,0,17.79,13v6.48H16.25Z"/><path class="cls-1" d="M34,14.45c0,.58,0,1.1,0,1.57s0,.89,0,1.28,0,.76.06,1.11.07.68.12,1H32.83a11.5,11.5,0,0,1-.16-1.93h-.05A4.29,4.29,0,0,1,31,19.2a5.17,5.17,0,0,1-2.5.54,6,6,0,0,1-1.52-.19,3.78,3.78,0,0,1-1.33-.62,3.19,3.19,0,0,1-1-1.09,3.23,3.23,0,0,1-.37-1.62A3.18,3.18,0,0,1,25,14.06a4.3,4.3,0,0,1,1.71-1.19,8.12,8.12,0,0,1,2.16-.52c.76-.07,1.44-.11,2-.11h1.8v-.72a2.51,2.51,0,0,0-.95-2.21,4,4,0,0,0-2.39-.67A5.44,5.44,0,0,0,25.68,10l-.9-1.05a5.61,5.61,0,0,1,2.11-1.25,7.66,7.66,0,0,1,2.42-.42,5.38,5.38,0,0,1,3.44,1A3.89,3.89,0,0,1,34,11.54Zm-3.09-1a12.94,12.94,0,0,0-1.89.13,6.56,6.56,0,0,0-1.64.44,3,3,0,0,0-1.17.82,1.91,1.91,0,0,0-.44,1.28,1.94,1.94,0,0,0,.24,1,2.32,2.32,0,0,0,.63.69,2.9,2.9,0,0,0,.87.41,3.11,3.11,0,0,0,1,.15,5,5,0,0,0,2-.36,3.46,3.46,0,0,0,1.27-.94,3.31,3.31,0,0,0,.66-1.31,6.18,6.18,0,0,0,.18-1.48v-.8Z"/><path class="cls-1" d="M38.15,10.9q0-.33,0-.81c0-.32,0-.64,0-1s0-.63,0-.92,0-.5,0-.65h1.54c0,.44,0,.87,0,1.28a3.63,3.63,0,0,0,.07.8h.07A4.18,4.18,0,0,1,41.29,8a4.51,4.51,0,0,1,2.52-.71,5.08,5.08,0,0,1,2.26.44,3.6,3.6,0,0,1,1.37,1.14,4.27,4.27,0,0,1,.7,1.63,9.24,9.24,0,0,1,.19,1.91v7.07H46.79v-7a7.22,7.22,0,0,0-.13-1.4,4,4,0,0,0-.45-1.22,2.26,2.26,0,0,0-.9-.86,3.15,3.15,0,0,0-1.5-.32,4.55,4.55,0,0,0-1.61.29,3.5,3.5,0,0,0-1.31.9A4.51,4.51,0,0,0,40,11.35a6.58,6.58,0,0,0-.32,2.15v5.94H38.15Z"/><path class="cls-1" d="M62.83,17.35h0a4,4,0,0,1-.9,1.07,5.54,5.54,0,0,1-1.17.75,5.91,5.91,0,0,1-1.33.43,6.35,6.35,0,0,1-1.36.14,6.68,6.68,0,0,1-2.52-.46,5.73,5.73,0,0,1-2-1.3,5.83,5.83,0,0,1-1.28-2,6.54,6.54,0,0,1-.46-2.5A6.6,6.6,0,0,1,52.24,11a6,6,0,0,1,1.28-2,5.73,5.73,0,0,1,2-1.3A6.68,6.68,0,0,1,58,7.25a7.06,7.06,0,0,1,1.36.14,5.93,5.93,0,0,1,1.33.44,5.5,5.5,0,0,1,1.17.74,4,4,0,0,1,.9,1.07h0V0h1.54V19.44H62.83ZM63,13.5a4.63,4.63,0,0,0-.38-1.89,4.91,4.91,0,0,0-1.06-1.55A5.13,5.13,0,0,0,60,9a5.07,5.07,0,0,0-2-.38,4.88,4.88,0,0,0-2,.38,4.69,4.69,0,0,0-1.49,1,4.45,4.45,0,0,0-.94,1.55,5.74,5.74,0,0,0,0,3.78,4.41,4.41,0,0,0,.94,1.54,4.54,4.54,0,0,0,1.49,1,4.72,4.72,0,0,0,2,.39A4.9,4.9,0,0,0,60,18a5,5,0,0,0,1.56-1,4.87,4.87,0,0,0,1.06-1.54A4.66,4.66,0,0,0,63,13.5Z"/><path class="cls-1" d="M75.76,16.07a4.36,4.36,0,0,0,1.74,1.72,5.07,5.07,0,0,0,2.43.57,4.91,4.91,0,0,0,1.59-.26,4,4,0,0,0,1.3-.72,3.29,3.29,0,0,0,.87-1.12A3.25,3.25,0,0,0,84,14.78a2.82,2.82,0,0,0-.4-1.57,3.11,3.11,0,0,0-1.06-1A7.75,7.75,0,0,0,81,11.52L79.32,11c-.59-.19-1.16-.4-1.72-.64a5.72,5.72,0,0,1-1.51-.94A4.22,4.22,0,0,1,75,7.92a5.11,5.11,0,0,1-.4-2.16,4.66,4.66,0,0,1,.48-2.15A4.55,4.55,0,0,1,76.39,2a5.84,5.84,0,0,1,1.86-.95A7.72,7.72,0,0,1,80.46.77a7.19,7.19,0,0,1,2.77.53,5.27,5.27,0,0,1,2.2,1.76L84,4.11a4.34,4.34,0,0,0-1.5-1.35,4.4,4.4,0,0,0-2-.45,5.71,5.71,0,0,0-1.56.22,4,4,0,0,0-1.3.64,3.19,3.19,0,0,0-.89,1.07,3.31,3.31,0,0,0-.33,1.52A2.91,2.91,0,0,0,77,7.85,4.79,4.79,0,0,0,78.76,9,19.3,19.3,0,0,0,81,9.76a10.69,10.69,0,0,1,2.26.86A5,5,0,0,1,85,12.12a4.5,4.5,0,0,1,.69,2.66A5.1,5.1,0,0,1,85.25,17,4.81,4.81,0,0,1,84,18.57a5.31,5.31,0,0,1-1.81,1,6.7,6.7,0,0,1-2.14.34,8.52,8.52,0,0,1-3.31-.63,6.11,6.11,0,0,1-2.6-2.12Z"/><path class="cls-1" d="M94.94,9h-3.4v7.73A1.67,1.67,0,0,0,92,17.92a1.65,1.65,0,0,0,1.21.44,3.46,3.46,0,0,0,.89-.12,6.24,6.24,0,0,0,.86-.3l.13,1.39a8.33,8.33,0,0,1-1,.29,4.83,4.83,0,0,1-1,.12,3.71,3.71,0,0,1-1.41-.24,2.38,2.38,0,0,1-1-.66,2.5,2.5,0,0,1-.53-1,4.19,4.19,0,0,1-.17-1.2V9H87.43V7.56H90V4.14h1.54V7.56h3.4Z"/><path class="cls-1" d="M97.69,10.9q0-.33,0-.81c0-.32,0-.64,0-1s0-.63,0-.92,0-.5,0-.65H99.1c0,.44,0,.87,0,1.28a3.63,3.63,0,0,0,.07.8,5.25,5.25,0,0,1,1.51-1.72A3.73,3.73,0,0,1,103,7.25a2.15,2.15,0,0,1,.45,0,3.58,3.58,0,0,1,.45.09l-.17,1.52a1.91,1.91,0,0,0-.6-.11,4.38,4.38,0,0,0-1.73.32,3.32,3.32,0,0,0-1.21.89,3.82,3.82,0,0,0-.71,1.32A5.75,5.75,0,0,0,99.23,13v6.48H97.69Z"/><path class="cls-1" d="M115.48,14.45c0,.58,0,1.1,0,1.57s0,.89,0,1.28,0,.76.06,1.11.07.68.12,1h-1.44a11.54,11.54,0,0,1-.15-1.93h-.06a4.26,4.26,0,0,1-1.65,1.69,5.21,5.21,0,0,1-2.51.54,6,6,0,0,1-1.52-.19,3.87,3.87,0,0,1-1.33-.62,3.19,3.19,0,0,1-1-1.09,3.23,3.23,0,0,1-.37-1.62,3.18,3.18,0,0,1,.69-2.16,4.37,4.37,0,0,1,1.71-1.19,8.12,8.12,0,0,1,2.16-.52c.77-.07,1.44-.11,2-.11h1.8v-.72a2.51,2.51,0,0,0-1-2.21,4,4,0,0,0-2.39-.67A5.44,5.44,0,0,0,107.12,10l-.9-1.05a5.61,5.61,0,0,1,2.11-1.25,7.66,7.66,0,0,1,2.42-.42,5.36,5.36,0,0,1,3.44,1,3.89,3.89,0,0,1,1.29,3.27Zm-3.09-1a12.94,12.94,0,0,0-1.89.13,6.68,6.68,0,0,0-1.64.44,3,3,0,0,0-1.17.82,1.91,1.91,0,0,0-.44,1.28,1.85,1.85,0,0,0,.25,1,2.09,2.09,0,0,0,.63.69,2.74,2.74,0,0,0,.86.41,3.11,3.11,0,0,0,1,.15,5,5,0,0,0,2-.36,3.46,3.46,0,0,0,1.27-.94,3.31,3.31,0,0,0,.66-1.31,6.18,6.18,0,0,0,.18-1.48v-.8Z"/><path class="cls-1" d="M125.4,9H122v7.73a1.53,1.53,0,0,0,1.64,1.68,3.41,3.41,0,0,0,.89-.12,5.81,5.81,0,0,0,.86-.3l.13,1.39a8.69,8.69,0,0,1-1,.29,4.91,4.91,0,0,1-1,.12,3.8,3.8,0,0,1-1.42-.24,2.45,2.45,0,0,1-1-.66,2.5,2.5,0,0,1-.53-1,4.2,4.2,0,0,1-.16-1.2V9h-2.58V7.56h2.58V4.14H122V7.56h3.39Z"/><path class="cls-1" d="M138.64,17.2a5.16,5.16,0,0,1-2.22,1.95,7,7,0,0,1-2.92.59,6.32,6.32,0,0,1-2.47-.46A5.57,5.57,0,0,1,127.91,16a7,7,0,0,1-.43-2.53,6.86,6.86,0,0,1,.44-2.47,5.82,5.82,0,0,1,1.23-2A5.74,5.74,0,0,1,131,7.73a5.83,5.83,0,0,1,2.39-.48,5.73,5.73,0,0,1,2.41.48A5.17,5.17,0,0,1,137.57,9a5.43,5.43,0,0,1,1.07,1.79,6,6,0,0,1,.36,2v1.08H129a5.2,5.2,0,0,0,.19,1.25,4.37,4.37,0,0,0,.71,1.48,4.43,4.43,0,0,0,1.37,1.23,4.35,4.35,0,0,0,2.23.52,4.91,4.91,0,0,0,2.28-.57,4.11,4.11,0,0,0,1.7-1.54Zm-1.18-4.71a3.59,3.59,0,0,0-.32-1.49,4.09,4.09,0,0,0-.88-1.22A4,4,0,0,0,135,9a4.11,4.11,0,0,0-1.6-.31,4,4,0,0,0-2.1.51,4.63,4.63,0,0,0-1.32,1.18,4.76,4.76,0,0,0-.7,1.3,3.26,3.26,0,0,0-.2.86Z"/><path class="cls-1" d="M154.37,18.66a8.44,8.44,0,0,1-.64,3.58,5.61,5.61,0,0,1-1.61,2.11,5.37,5.37,0,0,1-2.07,1,8.88,8.88,0,0,1-2,.25,9.29,9.29,0,0,1-1.76-.16,8.35,8.35,0,0,1-1.63-.49,7.24,7.24,0,0,1-1.4-.78,5.54,5.54,0,0,1-1.1-1.06L143.37,22a5,5,0,0,0,2.06,1.7,6.43,6.43,0,0,0,2.62.54,5.73,5.73,0,0,0,2-.31,4.09,4.09,0,0,0,1.34-.81A3.94,3.94,0,0,0,152.2,22a5.69,5.69,0,0,0,.44-1.21,7,7,0,0,0,.17-1.14c0-.36,0-.65,0-.87V17.12h-.05a4.77,4.77,0,0,1-1.81,1.7,5.59,5.59,0,0,1-2.69.62,6.46,6.46,0,0,1-4.49-1.79,6.6,6.6,0,0,1-1.36-1.94,5.76,5.76,0,0,1-.5-2.37,5.68,5.68,0,0,1,.5-2.36,6.3,6.3,0,0,1,1.36-1.93,6.57,6.57,0,0,1,2-1.31,6.22,6.22,0,0,1,2.47-.49,5.59,5.59,0,0,1,2.69.62,4.75,4.75,0,0,1,1.81,1.69h.05v-2h1.54Zm-1.49-5.32a4.58,4.58,0,0,0-.37-1.84A4.65,4.65,0,0,0,150,9a4.76,4.76,0,0,0-3.68,0,4.65,4.65,0,0,0-2.49,2.49,4.64,4.64,0,0,0,0,3.68,4.82,4.82,0,0,0,1,1.49,4.65,4.65,0,0,0,1.49,1,4.64,4.64,0,0,0,3.68,0,4.65,4.65,0,0,0,1.49-1,4.82,4.82,0,0,0,1-1.49A4.55,4.55,0,0,0,152.88,13.34Z"/><path class="cls-1" d="M161.49,23.11a4.5,4.5,0,0,1-1.2,1.83,3.07,3.07,0,0,1-2.06.66,5,5,0,0,1-.77-.06,5.86,5.86,0,0,1-.75-.17l.16-1.44.68.2a2.82,2.82,0,0,0,.71.09A1.49,1.49,0,0,0,159,24a1.91,1.91,0,0,0,.55-.47,2.51,2.51,0,0,0,.4-.63c.11-.23.21-.46.3-.7l1.07-2.75L156.48,7.56h1.72l3.94,10,3.83-10h1.64Z"/><path class="cls-1" d="M0,35H5.94V29.09H7.17V35h5.94v1.23H7.17V42.2H5.94V36.26H0Z"/><path class="cls-1" d="M.49,49.23H5.73a13.59,13.59,0,0,1,2.09.17,4.84,4.84,0,0,1,1.89.7,4.08,4.08,0,0,1,1.36,1.46A5.08,5.08,0,0,1,11.59,54a3.75,3.75,0,0,1-.82,2.42,4.05,4.05,0,0,1-2.44,1.36v0A4.56,4.56,0,0,1,10,58.3a4.15,4.15,0,0,1,1.29.92,4.19,4.19,0,0,1,.84,1.38,5.12,5.12,0,0,1,.29,1.74,4.88,4.88,0,0,1-.6,2.56,4.73,4.73,0,0,1-1.52,1.56,5.84,5.84,0,0,1-2,.77,10.29,10.29,0,0,1-2,.21H.49Zm1.7,7.87H5.71a6,6,0,0,0,2.13-.32A3.94,3.94,0,0,0,9.13,56a2.29,2.29,0,0,0,.61-1,3.32,3.32,0,0,0,.16-1,3.53,3.53,0,0,0-.32-1.58,2.65,2.65,0,0,0-.87-1,3.29,3.29,0,0,0-1.25-.53,7.46,7.46,0,0,0-1.52-.15H2.19Zm0,8.79H6.07a6.67,6.67,0,0,0,2.4-.36,3.61,3.61,0,0,0,1.4-.9,2.78,2.78,0,0,0,.66-1.14,4.21,4.21,0,0,0,.17-1.09,3.59,3.59,0,0,0-.39-1.73,3.46,3.46,0,0,0-1-1.17,4.28,4.28,0,0,0-1.4-.65,6.15,6.15,0,0,0-1.59-.21H2.19Z"/><path class="cls-1" d="M16.25,58.9q0-.33,0-.81c0-.32,0-.64,0-1s0-.63,0-.92,0-.5,0-.65h1.54c0,.44,0,.87,0,1.28a4.79,4.79,0,0,0,.06.8,5.27,5.27,0,0,1,1.52-1.72,3.73,3.73,0,0,1,2.26-.67,2.15,2.15,0,0,1,.45,0l.45.09-.18,1.52a1.8,1.8,0,0,0-.59-.11,4.34,4.34,0,0,0-1.73.32,3.24,3.24,0,0,0-1.21.89A3.82,3.82,0,0,0,18,59.32,5.75,5.75,0,0,0,17.79,61v6.48H16.25Z"/><path class="cls-1" d="M34,62.45c0,.58,0,1.1,0,1.57s0,.89,0,1.28,0,.76.06,1.11.07.68.12,1H32.83a11.5,11.5,0,0,1-.16-1.93h-.05A4.29,4.29,0,0,1,31,67.2a5.17,5.17,0,0,1-2.5.54,6,6,0,0,1-1.52-.19,3.78,3.78,0,0,1-1.33-.62,3.19,3.19,0,0,1-1-1.09,3.23,3.23,0,0,1-.37-1.62A3.18,3.18,0,0,1,25,62.06a4.3,4.3,0,0,1,1.71-1.19,8.12,8.12,0,0,1,2.16-.52c.76-.07,1.44-.11,2-.11h1.8v-.72a2.51,2.51,0,0,0-.95-2.21,4,4,0,0,0-2.39-.67A5.44,5.44,0,0,0,25.68,58l-.9-1a5.61,5.61,0,0,1,2.11-1.25,7.66,7.66,0,0,1,2.42-.42,5.38,5.38,0,0,1,3.44,1A3.89,3.89,0,0,1,34,59.54Zm-3.09-1a12.94,12.94,0,0,0-1.89.13,6.56,6.56,0,0,0-1.64.44,3,3,0,0,0-1.17.82,1.91,1.91,0,0,0-.44,1.28,1.94,1.94,0,0,0,.24,1,2.32,2.32,0,0,0,.63.69,2.9,2.9,0,0,0,.87.41,3.11,3.11,0,0,0,1,.15,5,5,0,0,0,2-.36,3.46,3.46,0,0,0,1.27-.94,3.31,3.31,0,0,0,.66-1.31,6.18,6.18,0,0,0,.18-1.48v-.8Z"/><path class="cls-1" d="M38.15,58.9q0-.33,0-.81c0-.32,0-.64,0-1s0-.63,0-.92,0-.5,0-.65h1.54c0,.44,0,.87,0,1.28a3.63,3.63,0,0,0,.07.8h.07A4.18,4.18,0,0,1,41.29,56a4.51,4.51,0,0,1,2.52-.71,5.08,5.08,0,0,1,2.26.44,3.6,3.6,0,0,1,1.37,1.14,4.27,4.27,0,0,1,.7,1.63,9.24,9.24,0,0,1,.19,1.91v7.07H46.79v-7a7.22,7.22,0,0,0-.13-1.4,4,4,0,0,0-.45-1.22,2.26,2.26,0,0,0-.9-.86,3.15,3.15,0,0,0-1.5-.32,4.55,4.55,0,0,0-1.61.29,3.5,3.5,0,0,0-1.31.9A4.51,4.51,0,0,0,40,59.35a6.58,6.58,0,0,0-.32,2.15v5.94H38.15Z"/><path class="cls-1" d="M62.83,65.35h0a4,4,0,0,1-.9,1.07,5.54,5.54,0,0,1-1.17.75,5.91,5.91,0,0,1-1.33.43,6.35,6.35,0,0,1-1.36.14,6.68,6.68,0,0,1-2.52-.46,5.73,5.73,0,0,1-2-1.3,5.83,5.83,0,0,1-1.28-2,7.05,7.05,0,0,1,0-5,6,6,0,0,1,1.28-2,5.73,5.73,0,0,1,2-1.3A6.68,6.68,0,0,1,58,55.25a7.06,7.06,0,0,1,1.36.14,5.93,5.93,0,0,1,1.33.44,5.5,5.5,0,0,1,1.17.74,4,4,0,0,1,.9,1.07h0V48h1.54V67.44H62.83ZM63,61.5a4.63,4.63,0,0,0-.38-1.89,4.91,4.91,0,0,0-1.06-1.55A5.13,5.13,0,0,0,60,57a5.07,5.07,0,0,0-2-.38,4.88,4.88,0,0,0-2,.38,4.69,4.69,0,0,0-1.49,1,4.45,4.45,0,0,0-.94,1.55,5.74,5.74,0,0,0,0,3.78,4.41,4.41,0,0,0,.94,1.54,4.54,4.54,0,0,0,1.49,1,4.72,4.72,0,0,0,2,.39A4.9,4.9,0,0,0,60,66a5,5,0,0,0,1.56-1,4.87,4.87,0,0,0,1.06-1.54A4.66,4.66,0,0,0,63,61.5Z"/><path class="cls-1" d="M75.27,49.23H77V67.44h-1.7Z"/><path class="cls-1" d="M91.9,65.35h-.05a4,4,0,0,1-.9,1.07,5.54,5.54,0,0,1-1.17.75,6,6,0,0,1-1.32.43,6.41,6.41,0,0,1-1.36.14,6.68,6.68,0,0,1-2.52-.46,5.73,5.73,0,0,1-2-1.3,5.85,5.85,0,0,1-1.29-2,7.05,7.05,0,0,1,0-5,6.06,6.06,0,0,1,1.29-2,5.73,5.73,0,0,1,2-1.3,6.68,6.68,0,0,1,2.52-.46,7.14,7.14,0,0,1,1.36.14,6,6,0,0,1,1.32.44,5.5,5.5,0,0,1,1.17.74,4,4,0,0,1,.9,1.07h.05V48h1.55V67.44H91.9Zm.16-3.85a4.63,4.63,0,0,0-.39-1.89,4.88,4.88,0,0,0-1-1.55,5.31,5.31,0,0,0-1.57-1,5,5,0,0,0-2-.38,5,5,0,0,0-2,.38,4.69,4.69,0,0,0-1.49,1,4.6,4.6,0,0,0-.94,1.55,5.74,5.74,0,0,0,0,3.78A4.41,4.41,0,0,0,85.14,66a4.8,4.8,0,0,0,2,.39,4.85,4.85,0,0,0,2-.39,5.12,5.12,0,0,0,1.57-1,4.84,4.84,0,0,0,1-1.54A4.67,4.67,0,0,0,92.06,61.5Z"/><path class="cls-1" d="M107.71,65.2a5.1,5.1,0,0,1-2.22,2,7,7,0,0,1-2.92.59,6.24,6.24,0,0,1-2.46-.46A5.55,5.55,0,0,1,97,64a7.26,7.26,0,0,1-.42-2.53A6.86,6.86,0,0,1,97,59a6,6,0,0,1,1.24-2,5.64,5.64,0,0,1,1.88-1.31,5.8,5.8,0,0,1,2.39-.48,5.68,5.68,0,0,1,2.4.48A5.21,5.21,0,0,1,106.65,57a5.41,5.41,0,0,1,1.06,1.79,5.76,5.76,0,0,1,.36,2v1.08h-10a5.2,5.2,0,0,0,.19,1.25A4.57,4.57,0,0,0,99,64.61a4.36,4.36,0,0,0,1.38,1.23,4.29,4.29,0,0,0,2.22.52,5,5,0,0,0,2.29-.57,4.14,4.14,0,0,0,1.69-1.54Zm-1.18-4.71a3.59,3.59,0,0,0-.32-1.49,3.89,3.89,0,0,0-.87-1.22A4.12,4.12,0,0,0,104,57a4.2,4.2,0,0,0-1.61-.31,4,4,0,0,0-2.1.51A4.92,4.92,0,0,0,99,58.33a4.45,4.45,0,0,0-.69,1.3,3.42,3.42,0,0,0-.21.86Z"/><path class="cls-1" d="M111.52,58.9q0-.33,0-.81c0-.32,0-.64,0-1s0-.63,0-.92,0-.5,0-.65h1.54c0,.44,0,.87,0,1.28a3.63,3.63,0,0,0,.07.8h.07A4.18,4.18,0,0,1,114.66,56a4.49,4.49,0,0,1,2.52-.71,5.11,5.11,0,0,1,2.26.44,3.6,3.6,0,0,1,1.37,1.14,4.27,4.27,0,0,1,.7,1.63,9.24,9.24,0,0,1,.19,1.91v7.07h-1.54v-7A8.1,8.1,0,0,0,120,59a4,4,0,0,0-.45-1.22,2.4,2.4,0,0,0-.9-.86,3.15,3.15,0,0,0-1.5-.32,4.51,4.51,0,0,0-1.61.29,3.5,3.5,0,0,0-1.31.9,4.51,4.51,0,0,0-.88,1.52,6.58,6.58,0,0,0-.32,2.15v5.94h-1.54Z"/><path class="cls-1" d="M131.62,57h-3.39v7.73a1.67,1.67,0,0,0,.44,1.24,1.63,1.63,0,0,0,1.21.44,3.39,3.39,0,0,0,.88-.12,5.81,5.81,0,0,0,.86-.3l.13,1.39a8.69,8.69,0,0,1-1,.29,4.91,4.91,0,0,1-1,.12,3.8,3.8,0,0,1-1.42-.24,2.45,2.45,0,0,1-1-.66,2.5,2.5,0,0,1-.53-1,4.2,4.2,0,0,1-.16-1.2V57h-2.57V55.56h2.57V52.14h1.54v3.42h3.39Z"/><path class="cls-1" d="M134.27,50.85a1.12,1.12,0,0,1,.33-.82,1.15,1.15,0,0,1,.83-.33,1.13,1.13,0,0,1,1.15,1.15,1.15,1.15,0,0,1-.33.83,1.12,1.12,0,0,1-.82.33,1.13,1.13,0,0,1-1.16-1.16Zm.39,4.71h1.54V67.44h-1.54Z"/><path class="cls-1" d="M146.38,57H143v7.73a1.67,1.67,0,0,0,.43,1.24,1.65,1.65,0,0,0,1.21.44,3.46,3.46,0,0,0,.89-.12,6.24,6.24,0,0,0,.86-.3l.13,1.39a8.33,8.33,0,0,1-1,.29,4.83,4.83,0,0,1-1,.12,3.71,3.71,0,0,1-1.41-.24,2.38,2.38,0,0,1-1-.66,2.5,2.5,0,0,1-.53-1,4.19,4.19,0,0,1-.17-1.2V57h-2.57V55.56h2.57V52.14H143v3.42h3.39Z"/><path class="cls-1" d="M152.47,71.11a4.41,4.41,0,0,1-1.21,1.83,3,3,0,0,1-2,.66,4.9,4.9,0,0,1-.77-.06,5.86,5.86,0,0,1-.75-.17l.15-1.44.69.2a2.74,2.74,0,0,0,.7.09A1.44,1.44,0,0,0,150,72a2,2,0,0,0,.56-.47,3.24,3.24,0,0,0,.4-.63,6.07,6.07,0,0,0,.29-.7l1.08-2.75-4.83-11.93h1.72l3.93,10,3.83-10h1.65Z"/></svg>