<svg id="Layer_1" data-name="Layer 1" xmlns="http://www.w3.org/2000/svg" viewBox="0 0 206 55.22"><defs><style>.cls-1{fill:#58595b;}</style></defs><path class="cls-1" d="M0,0H9a16.77,16.77,0,0,1,4.79.62,12.52,12.52,0,0,1,3.57,1.66,10.4,10.4,0,0,1,2.51,2.38,13,13,0,0,1,1.59,2.77,14.08,14.08,0,0,1,.84,2.84,15,15,0,0,1,.25,2.63,12.9,12.9,0,0,1-.91,4.79A12.24,12.24,0,0,1,19,21.81a13.35,13.35,0,0,1-4.43,2.89,15.84,15.84,0,0,1-6.1,1.1H0ZM3.5,22.52H7.91a14.41,14.41,0,0,0,4.2-.6,10.29,10.29,0,0,0,3.48-1.81,8.54,8.54,0,0,0,2.37-3,9.62,9.62,0,0,0,.88-4.21,13,13,0,0,0-.4-2.9,8.7,8.7,0,0,0-4.6-5.68,10.92,10.92,0,0,0-5.1-1H3.5Z"/><path class="cls-1" d="M25.54,17.16a8.83,8.83,0,0,1,.71-3.53A9.12,9.12,0,0,1,31.11,8.8a9.53,9.53,0,0,1,7.22,0,9.12,9.12,0,0,1,4.86,4.83,8.67,8.67,0,0,1,.71,3.53,9,9,0,0,1-2.66,6.43,9.42,9.42,0,0,1-10.13,1.93,9.08,9.08,0,0,1-2.91-1.93,8.73,8.73,0,0,1-1.95-2.88A9,9,0,0,1,25.54,17.16Zm3.5,0a7,7,0,0,0,.4,2.42,5.46,5.46,0,0,0,1.13,1.9,5.32,5.32,0,0,0,1.78,1.24,6,6,0,0,0,2.37.45,6,6,0,0,0,2.37-.45A5.18,5.18,0,0,0,40,19.58a7.35,7.35,0,0,0,0-4.84,5.4,5.4,0,0,0-1.13-1.9,5.32,5.32,0,0,0-1.78-1.24,6,6,0,0,0-2.37-.45,6,6,0,0,0-2.37.45,5.32,5.32,0,0,0-1.78,1.24,5.55,5.55,0,0,0-1.13,1.9A7,7,0,0,0,29,17.16Z"/><path class="cls-1" d="M64.34,14.79,54.58,0h4.48l7,11.33L73.34,0H77.6L67.84,14.79v11h-3.5Z"/><path class="cls-1" d="M77.79,17.16a8.67,8.67,0,0,1,.71-3.53A9.12,9.12,0,0,1,83.36,8.8a9.53,9.53,0,0,1,7.22,0,9.08,9.08,0,0,1,2.91,1.95,9,9,0,0,1,2,2.88,8.83,8.83,0,0,1,.71,3.53,9,9,0,0,1-.71,3.55,8.73,8.73,0,0,1-2,2.88,9.19,9.19,0,0,1-2.91,1.93,9.33,9.33,0,0,1-10.13-1.93,9,9,0,0,1-2.66-6.43Zm3.49,0a7,7,0,0,0,.41,2.42,5.11,5.11,0,0,0,2.91,3.14,6,6,0,0,0,2.37.45,6,6,0,0,0,2.37-.45,5.32,5.32,0,0,0,1.78-1.24,5.46,5.46,0,0,0,1.13-1.9,7.52,7.52,0,0,0,0-4.84,5.55,5.55,0,0,0-1.13-1.9,5.32,5.32,0,0,0-1.78-1.24A6,6,0,0,0,87,11.15a6,6,0,0,0-2.37.45,5.46,5.46,0,0,0-1.79,1.24,5.53,5.53,0,0,0-1.12,1.9A7,7,0,0,0,81.28,17.16Z"/><path class="cls-1" d="M118.52,25.8h-3.28V23.14h-.07A4.83,4.83,0,0,1,113,25.38a7.13,7.13,0,0,1-3.54.85,7.27,7.27,0,0,1-2.4-.38,5.65,5.65,0,0,1-2-1.18,5.74,5.74,0,0,1-1.36-2.06,7.89,7.89,0,0,1-.51-3V8.53h3.28v10.2a5.74,5.74,0,0,0,.33,2.06,3.55,3.55,0,0,0,.87,1.38,3.28,3.28,0,0,0,1.26.77,4.81,4.81,0,0,0,1.47.23,5.38,5.38,0,0,0,1.9-.33,3.91,3.91,0,0,0,1.53-1,5.19,5.19,0,0,0,1-1.81,8.28,8.28,0,0,0,.36-2.58V8.53h3.28Z"/><path class="cls-1" d="M.58,29h9a11.47,11.47,0,0,1,3.11.4,7.24,7.24,0,0,1,2.48,1.19,5.54,5.54,0,0,1,1.64,2,6.41,6.41,0,0,1,.6,2.86,5.28,5.28,0,0,1-1.24,3.63,7.18,7.18,0,0,1-3.21,2v.08a5.5,5.5,0,0,1,2.19.6,6,6,0,0,1,1.77,1.38,6.81,6.81,0,0,1,1.18,2,6.7,6.7,0,0,1,.44,2.44,6.51,6.51,0,0,1-.71,3.08,6.86,6.86,0,0,1-2,2.24A9,9,0,0,1,13,54.31a12.5,12.5,0,0,1-3.53.48H.58ZM4.08,39.7H8.85a7.92,7.92,0,0,0,1.86-.2,4.25,4.25,0,0,0,1.53-.67,3.54,3.54,0,0,0,1-1.2,3.76,3.76,0,0,0,.38-1.79,3.94,3.94,0,0,0-1-2.66,3.92,3.92,0,0,0-3.1-1.13H4.08Zm0,12H9.22A10.53,10.53,0,0,0,11,51.56a5.45,5.45,0,0,0,1.81-.65,4.49,4.49,0,0,0,1.42-1.33,3.82,3.82,0,0,0,.58-2.23,4.08,4.08,0,0,0-1.49-3.44,6.54,6.54,0,0,0-4.05-1.15H4.08Z"/><path class="cls-1" d="M23.57,47.35a4.41,4.41,0,0,0,.49,2.06A5.14,5.14,0,0,0,25.36,51a6.18,6.18,0,0,0,1.86,1,6.69,6.69,0,0,0,2.18.36,4.92,4.92,0,0,0,2.66-.71,8.49,8.49,0,0,0,2.08-1.88l2.48,1.9A9.13,9.13,0,0,1,29,55.22a9.48,9.48,0,0,1-3.69-.69,8.09,8.09,0,0,1-2.81-1.91,8.61,8.61,0,0,1-1.77-2.88,10.21,10.21,0,0,1-.62-3.59,9.44,9.44,0,0,1,.68-3.59,9,9,0,0,1,1.86-2.88,8.53,8.53,0,0,1,2.82-1.91A9.09,9.09,0,0,1,29,37.08a8.6,8.6,0,0,1,3.88.8A7.64,7.64,0,0,1,35.49,40,8.16,8.16,0,0,1,37,42.89a11.9,11.9,0,0,1,.46,3.3v1.16Zm10.35-2.62a6.59,6.59,0,0,0-.35-2,4.23,4.23,0,0,0-.93-1.59,4.13,4.13,0,0,0-1.54-1,5.6,5.6,0,0,0-2.17-.39,5.21,5.21,0,0,0-2.21.46A5.45,5.45,0,0,0,25,41.34,5.74,5.74,0,0,0,24,43a4.59,4.59,0,0,0-.38,1.77Z"/><path class="cls-1" d="M52.1,42.11a7,7,0,0,0-1.91-1.44,5.37,5.37,0,0,0-2.39-.49,5.25,5.25,0,0,0-2.35.49A4.7,4.7,0,0,0,43.78,42a6.21,6.21,0,0,0-1,2,7.8,7.8,0,0,0-.34,2.32,6.34,6.34,0,0,0,.4,2.27,5.65,5.65,0,0,0,1.13,1.88,5.16,5.16,0,0,0,1.75,1.26,5.6,5.6,0,0,0,2.29.45,5.19,5.19,0,0,0,2.37-.49,6.09,6.09,0,0,0,1.82-1.44l2.33,2.33a7.25,7.25,0,0,1-3,2,10.23,10.23,0,0,1-3.59.62,9.86,9.86,0,0,1-3.67-.65,8.63,8.63,0,0,1-2.86-1.84,8.08,8.08,0,0,1-1.85-2.84,9.86,9.86,0,0,1-.66-3.67,10,10,0,0,1,.66-3.68,8.32,8.32,0,0,1,1.84-2.87,8.2,8.2,0,0,1,2.84-1.88,9.72,9.72,0,0,1,3.7-.67,9.85,9.85,0,0,1,3.62.67,8,8,0,0,1,3,2.06Z"/><path class="cls-1" d="M54.87,46.15a8.83,8.83,0,0,1,.71-3.53,9.12,9.12,0,0,1,4.86-4.83,9.53,9.53,0,0,1,7.22,0,9.12,9.12,0,0,1,4.86,4.83,8.67,8.67,0,0,1,.71,3.53,9,9,0,0,1-2.66,6.43,9.33,9.33,0,0,1-13,0,8.73,8.73,0,0,1-2-2.88A9,9,0,0,1,54.87,46.15Zm3.5,0a7,7,0,0,0,.4,2.42,5.22,5.22,0,0,0,1.13,1.9,5.32,5.32,0,0,0,1.78,1.24,6.47,6.47,0,0,0,4.74,0,5.32,5.32,0,0,0,1.78-1.24,5.22,5.22,0,0,0,1.13-1.9,7.52,7.52,0,0,0,0-4.84,5.4,5.4,0,0,0-1.13-1.9,5.15,5.15,0,0,0-1.78-1.23,6.34,6.34,0,0,0-4.74,0,5.15,5.15,0,0,0-1.78,1.23,5.4,5.4,0,0,0-1.13,1.9A7,7,0,0,0,58.37,46.15Z"/><path class="cls-1" d="M75.75,37.52h3.06v2.69h.07a2.93,2.93,0,0,1,.56-.91,6.36,6.36,0,0,1,1.17-1,7.31,7.31,0,0,1,1.68-.83,6.26,6.26,0,0,1,2.13-.35,6.15,6.15,0,0,1,3.24.8,6.05,6.05,0,0,1,2.15,2.41,5.57,5.57,0,0,1,2.37-2.41,6.65,6.65,0,0,1,3.09-.8,7.11,7.11,0,0,1,3.28.66,5.24,5.24,0,0,1,2,1.73,6.62,6.62,0,0,1,1,2.44,14.5,14.5,0,0,1,.27,2.82V54.79H98.55V45.17a14.57,14.57,0,0,0-.12-1.9,4.64,4.64,0,0,0-.53-1.6,3.09,3.09,0,0,0-1.13-1.11,4.66,4.66,0,0,0-5.32,1,6.39,6.39,0,0,0-1,3.75v9.44H87.15v-9A17.43,17.43,0,0,0,87,43.49a5.11,5.11,0,0,0-.51-1.77,2.83,2.83,0,0,0-1.09-1.16,3.76,3.76,0,0,0-1.91-.42,4.35,4.35,0,0,0-1.7.35,4.11,4.11,0,0,0-1.44,1,5.19,5.19,0,0,0-1,1.77A8,8,0,0,0,79,45.82v9H75.75Z"/><path class="cls-1" d="M107.66,47.35a4.41,4.41,0,0,0,.49,2.06,5.14,5.14,0,0,0,1.3,1.59,6.18,6.18,0,0,0,1.86,1,6.69,6.69,0,0,0,2.18.36,4.92,4.92,0,0,0,2.66-.71,8.49,8.49,0,0,0,2.08-1.88l2.47,1.9a9.1,9.1,0,0,1-7.65,3.53,9.48,9.48,0,0,1-3.69-.69,8.09,8.09,0,0,1-2.81-1.91,8.61,8.61,0,0,1-1.77-2.88,10.21,10.21,0,0,1-.62-3.59,9.44,9.44,0,0,1,.68-3.59,9,9,0,0,1,1.86-2.88,8.43,8.43,0,0,1,2.82-1.91,9.09,9.09,0,0,1,3.57-.69,8.6,8.6,0,0,1,3.88.8,7.64,7.64,0,0,1,2.61,2.1,8.16,8.16,0,0,1,1.47,2.91,12.28,12.28,0,0,1,.46,3.3v1.16ZM118,44.73a6.91,6.91,0,0,0-.35-2,4.22,4.22,0,0,0-2.47-2.64A5.6,5.6,0,0,0,113,39.7a5.21,5.21,0,0,0-2.21.46,5.33,5.33,0,0,0-1.69,1.18A5.74,5.74,0,0,0,108,43a4.59,4.59,0,0,0-.38,1.77Z"/><path class="cls-1" d="M139.29,43.78,129.52,29H134l7,11.33L148.29,29h4.26l-9.77,14.79v11h-3.49Z"/><path class="cls-1" d="M149.42,46.15a8.67,8.67,0,0,1,.71-3.53A9.12,9.12,0,0,1,155,37.79a9.51,9.51,0,0,1,7.21,0,9,9,0,0,1,2.92,2,9.28,9.28,0,0,1,1.95,2.88,8.83,8.83,0,0,1,.71,3.53,9,9,0,0,1-2.66,6.43,9.12,9.12,0,0,1-2.92,1.93,9.32,9.32,0,0,1-10.12-1.93,9,9,0,0,1-2.66-6.43Zm3.49,0a7.23,7.23,0,0,0,.4,2.42,5.52,5.52,0,0,0,1.13,1.9,5.36,5.36,0,0,0,1.79,1.24,6,6,0,0,0,2.37.45,6,6,0,0,0,2.37-.45,5.18,5.18,0,0,0,2.91-3.14,7.52,7.52,0,0,0,0-4.84,5.55,5.55,0,0,0-1.13-1.9A5.25,5.25,0,0,0,161,40.6a5.86,5.86,0,0,0-2.37-.46,5.79,5.79,0,0,0-2.37.46,5.2,5.2,0,0,0-1.79,1.23,5.71,5.71,0,0,0-1.13,1.9A7.27,7.27,0,0,0,152.91,46.15Z"/><path class="cls-1" d="M186.83,54.79h-3.28V52.13h-.07a4.83,4.83,0,0,1-2.15,2.24,7.12,7.12,0,0,1-3.53.85,7.38,7.38,0,0,1-2.41-.38,5.39,5.39,0,0,1-2-1.18A5.76,5.76,0,0,1,172,51.6a7.89,7.89,0,0,1-.51-3V37.52h3.28v10.2a5.74,5.74,0,0,0,.33,2.06,3.8,3.8,0,0,0,.87,1.38,3.43,3.43,0,0,0,1.26.77,4.81,4.81,0,0,0,1.47.23,5.57,5.57,0,0,0,1.9-.32,4,4,0,0,0,1.53-1,4.89,4.89,0,0,0,1-1.81,8.28,8.28,0,0,0,.36-2.58V37.52h3.28Z"/><path class="cls-1" d="M196.6,47.57V45.35a8.28,8.28,0,0,1,.14-1.64,4.31,4.31,0,0,1,1.22-2.2l1.22-1.19q.58-.54,1.17-1.11A11.55,11.55,0,0,0,201.41,38a6.67,6.67,0,0,0,.78-1.27,3.52,3.52,0,0,0,.31-1.51,3.77,3.77,0,0,0-.31-1.55,4,4,0,0,0-.82-1.22,3.64,3.64,0,0,0-1.22-.8,4.22,4.22,0,0,0-4.41.84,4.9,4.9,0,0,0-1.33,2.95l-3.71-.37a7.62,7.62,0,0,1,2.64-5,8.11,8.11,0,0,1,5.37-1.8,8.88,8.88,0,0,1,2.86.45,6.86,6.86,0,0,1,2.32,1.31,6,6,0,0,1,1.54,2.12,7.49,7.49,0,0,1,.17,5.28,7.67,7.67,0,0,1-1.13,2l-2.19,2.26-.36.32q-.58.55-.93.93a4,4,0,0,0-.55.8,3.36,3.36,0,0,0-.27.93A9.17,9.17,0,0,0,200.1,46v1.6Zm-.69,5a2.44,2.44,0,1,1,.71,1.69A2.27,2.27,0,0,1,195.91,52.6Z"/></svg>