<svg id="Layer_1" data-name="Layer 1" xmlns="http://www.w3.org/2000/svg" viewBox="0 0 367.94 110.57"><defs><style>.cls-1{fill:#f69333;}</style></defs><path class="cls-1" d="M0,2.68H18.72V44.59H67.91V2.68H86.64V107.89H67.91V61.53H18.72v46.36H0Z"/><path class="cls-1" d="M104.47,55.73a60.83,60.83,0,0,1,4.16-23,51.48,51.48,0,0,1,11.52-17.61A50.52,50.52,0,0,1,137.68,3.94,61.62,61.62,0,0,1,160.05,0a62.35,62.35,0,0,1,22.58,3.64,49.25,49.25,0,0,1,17.69,11.07,51.26,51.26,0,0,1,11.59,17.53,60.48,60.48,0,0,1,4.16,22.89,58.51,58.51,0,0,1-4.16,22.44A51.59,51.59,0,0,1,200.32,95a52.85,52.85,0,0,1-17.69,11.37,62.62,62.62,0,0,1-22.58,4.24,61.62,61.62,0,0,1-22.37-3.94,50.2,50.2,0,0,1-29.05-28.46A58.25,58.25,0,0,1,104.47,55.73Zm19.61-1.19a45.37,45.37,0,0,0,2.6,15.61A36.82,36.82,0,0,0,134,82.48a34.15,34.15,0,0,0,11.37,8.17,35.48,35.48,0,0,0,14.78,3,36,36,0,0,0,14.86-3,34,34,0,0,0,11.45-8.17,36.64,36.64,0,0,0,7.35-12.33,45.37,45.37,0,0,0,2.6-15.61,41.11,41.11,0,0,0-2.6-14.71,36.46,36.46,0,0,0-7.35-12,33.75,33.75,0,0,0-11.45-8A37,37,0,0,0,160.19,17a36.43,36.43,0,0,0-14.78,2.89,33.92,33.92,0,0,0-11.37,8,36.65,36.65,0,0,0-7.36,12A41.11,41.11,0,0,0,124.08,54.54Z"/><path class="cls-1" d="M222.16,2.68h20.51l19.76,75.79h.3L286.36,2.68h18.42L328,78.47h.29L348.92,2.68h19L337.33,107.89H319.5l-24.38-80.1h-.29l-24.37,80.1H253.22Z"/></svg>