<svg id="Layer_1" data-name="Layer 1" xmlns="http://www.w3.org/2000/svg" viewBox="0 0 367.49 23.94"><defs><style>.cls-1{fill:#58595b;}</style></defs><path class="cls-1" d="M0,1.15H2.31v17H0Z"/><path class="cls-1" d="M8.94,6.78H11.1V8.53h.05a3.26,3.26,0,0,1,1.42-1.48,4.75,4.75,0,0,1,2.33-.56,4.93,4.93,0,0,1,1.58.25,3.67,3.67,0,0,1,1.32.78,3.76,3.76,0,0,1,.9,1.36,5.28,5.28,0,0,1,.34,2v7.33H16.87V11.44a3.93,3.93,0,0,0-.21-1.36,2.59,2.59,0,0,0-.58-.91,2.15,2.15,0,0,0-.83-.5,2.9,2.9,0,0,0-1-.16A3.39,3.39,0,0,0,13,8.73a2.55,2.55,0,0,0-1,.68,3.19,3.19,0,0,0-.67,1.19,5.41,5.41,0,0,0-.25,1.71v5.86H8.94Z"/><path class="cls-1" d="M31.22,8.65h-3.1v5.17c0,.32,0,.64,0,.95a2.25,2.25,0,0,0,.18.84,1.29,1.29,0,0,0,.48.6,1.64,1.64,0,0,0,1,.23,4.37,4.37,0,0,0,.79-.07,2.4,2.4,0,0,0,.75-.27v2a3,3,0,0,1-1,.3,8.74,8.74,0,0,1-.95.08,4.42,4.42,0,0,1-1.94-.35,2.41,2.41,0,0,1-1-.9A3,3,0,0,1,26,16Q26,15.29,26,14.59V8.65h-2.5V6.78H26V3.58h2.16v3.2h3.1Z"/><path class="cls-1" d="M38.46,13.27a2.93,2.93,0,0,0,.32,1.36,3.44,3.44,0,0,0,.86,1,3.9,3.9,0,0,0,1.22.67,4.44,4.44,0,0,0,1.44.24,3.25,3.25,0,0,0,1.76-.46,5.88,5.88,0,0,0,1.37-1.24l1.63,1.25a6,6,0,0,1-5,2.33A6.17,6.17,0,0,1,39.58,18a5.15,5.15,0,0,1-1.85-1.26,5.52,5.52,0,0,1-1.17-1.9,6.77,6.77,0,0,1-.41-2.36,6.17,6.17,0,0,1,.45-2.37,5.79,5.79,0,0,1,1.22-1.9A5.47,5.47,0,0,1,39.68,7,5.91,5.91,0,0,1,42,6.49,5.67,5.67,0,0,1,44.6,7,5,5,0,0,1,46.32,8.4a5.44,5.44,0,0,1,1,1.92,8.07,8.07,0,0,1,.3,2.18v.77Zm6.82-1.73a4.56,4.56,0,0,0-.22-1.32,2.84,2.84,0,0,0-.62-1.05,2.77,2.77,0,0,0-1-.7A3.69,3.69,0,0,0,42,8.22a3.45,3.45,0,0,0-1.45.3,3.51,3.51,0,0,0-1.12.78,3.57,3.57,0,0,0-.71,1.07,2.9,2.9,0,0,0-.25,1.17Z"/><path class="cls-1" d="M64.42,18.08A6,6,0,0,1,64,20.44a5.16,5.16,0,0,1-1.26,1.85,5.71,5.71,0,0,1-2,1.22,7.18,7.18,0,0,1-2.55.43,9.15,9.15,0,0,1-3-.46,7.07,7.07,0,0,1-2.58-1.58l1.46-1.83a5.89,5.89,0,0,0,1.83,1.38,5.69,5.69,0,0,0,4.23.12,3.2,3.2,0,0,0,1.92-2.16A5.35,5.35,0,0,0,62.25,18V16.3h-.07a3.77,3.77,0,0,1-1.69,1.52,5.35,5.35,0,0,1-2.25.5,5.92,5.92,0,0,1-2.32-.45,5.58,5.58,0,0,1-1.84-1.22,5.73,5.73,0,0,1-1.2-1.86,6,6,0,0,1-.43-2.31,6.49,6.49,0,0,1,.41-2.35A5.79,5.79,0,0,1,54,8.22,5.37,5.37,0,0,1,55.85,7a5.92,5.92,0,0,1,2.39-.46,5.41,5.41,0,0,1,2.25.5,4.16,4.16,0,0,1,1.72,1.42h0V6.78h2.17ZM58.5,8.51a3.94,3.94,0,0,0-1.56.3A3.39,3.39,0,0,0,55,10.88a4.59,4.59,0,0,0-.27,1.6,3.84,3.84,0,0,0,1,2.77,4.1,4.1,0,0,0,5.48,0,3.79,3.79,0,0,0,1-2.77,4.59,4.59,0,0,0-.26-1.6,3.63,3.63,0,0,0-.75-1.25,3.39,3.39,0,0,0-1.17-.82A4,4,0,0,0,58.5,8.51Z"/><path class="cls-1" d="M70.5,6.78h2.16V8.53h0a3.11,3.11,0,0,1,.58-.83,4,4,0,0,1,1.77-1,3.59,3.59,0,0,1,1.06-.16,3.13,3.13,0,0,1,1,.14L77,9a5,5,0,0,0-.53-.12,2.38,2.38,0,0,0-.53,0,3.16,3.16,0,0,0-2.43.89,3.9,3.9,0,0,0-.84,2.76v5.72H70.5Z"/><path class="cls-1" d="M82.25,8.17a6.07,6.07,0,0,1,2.12-1.26,7.22,7.22,0,0,1,2.4-.42,6.55,6.55,0,0,1,2.15.31,4.22,4.22,0,0,1,1.48.84,3.37,3.37,0,0,1,.85,1.22,3.65,3.65,0,0,1,.28,1.43V16.1c0,.4,0,.77,0,1.11s0,.66.08,1H89.7c0-.58-.07-1.15-.07-1.73h0A4.11,4.11,0,0,1,87.88,18a5.32,5.32,0,0,1-2.29.46,5,5,0,0,1-1.51-.22,3.59,3.59,0,0,1-1.26-.65A3,3,0,0,1,82,16.52a3.25,3.25,0,0,1-.31-1.47,3.25,3.25,0,0,1,.49-1.85A3.71,3.71,0,0,1,83.49,12a6.66,6.66,0,0,1,2-.67,13.6,13.6,0,0,1,2.44-.21h1.59v-.48a2.44,2.44,0,0,0-.17-.86,2.31,2.31,0,0,0-.5-.78A2.63,2.63,0,0,0,88,8.42a3.37,3.37,0,0,0-1.21-.2,4.43,4.43,0,0,0-1.09.12,4.7,4.7,0,0,0-.85.3,3.71,3.71,0,0,0-.7.42l-.6.46Zm6.11,4.52c-.52,0-1,0-1.58.08a6.38,6.38,0,0,0-1.46.33,2.91,2.91,0,0,0-1.09.67,1.53,1.53,0,0,0-.42,1.11,1.55,1.55,0,0,0,.67,1.42,3.29,3.29,0,0,0,1.79.43,3.48,3.48,0,0,0,1.51-.3,2.85,2.85,0,0,0,1-.78,3,3,0,0,0,.55-1.07,4.3,4.3,0,0,0,.17-1.17v-.72Z"/><path class="cls-1" d="M103.6,8.65h-3.1v5.17c0,.32,0,.64,0,.95a2.72,2.72,0,0,0,.18.84,1.29,1.29,0,0,0,.48.6,1.66,1.66,0,0,0,.95.23,4.29,4.29,0,0,0,.79-.07,2.31,2.31,0,0,0,.75-.27v2a3,3,0,0,1-1,.3,8.55,8.55,0,0,1-1,.08,4.35,4.35,0,0,1-1.93-.35,2.3,2.3,0,0,1-1-.9A2.87,2.87,0,0,1,98.39,16q-.06-.68-.06-1.38V8.65h-2.5V6.78h2.5V3.58h2.17v3.2h3.1Z"/><path class="cls-1" d="M110.83,13.27a2.82,2.82,0,0,0,.33,1.36,3.41,3.41,0,0,0,.85,1,3.9,3.9,0,0,0,1.22.67,4.45,4.45,0,0,0,1.45.24,3.24,3.24,0,0,0,1.75-.46,5.88,5.88,0,0,0,1.37-1.24l1.64,1.25a6,6,0,0,1-5,2.33A6.17,6.17,0,0,1,112,18a5.15,5.15,0,0,1-1.85-1.26,5.52,5.52,0,0,1-1.17-1.9,6.77,6.77,0,0,1-.41-2.36,6.17,6.17,0,0,1,.45-2.37,5.79,5.79,0,0,1,1.22-1.9A5.51,5.51,0,0,1,112.06,7a5.87,5.87,0,0,1,2.35-.46A5.67,5.67,0,0,1,117,7a5,5,0,0,1,1.72,1.38,5.44,5.44,0,0,1,1,1.92A8.09,8.09,0,0,1,120,12.5v.77Zm6.83-1.73a4.92,4.92,0,0,0-.23-1.32,3,3,0,0,0-.61-1.05,2.9,2.9,0,0,0-1-.7,3.66,3.66,0,0,0-1.43-.25,3.48,3.48,0,0,0-1.45.3,3.62,3.62,0,0,0-1.12.78,3.77,3.77,0,0,0-.71,1.07,2.9,2.9,0,0,0-.25,1.17Z"/><path class="cls-1" d="M136.79,18.17h-2.16V16.54h0A4.16,4.16,0,0,1,132.86,18a5.41,5.41,0,0,1-2.25.5,5.92,5.92,0,0,1-2.39-.46,5.24,5.24,0,0,1-1.82-1.27,5.71,5.71,0,0,1-1.17-1.9,6.67,6.67,0,0,1-.41-2.35,6.78,6.78,0,0,1,.41-2.37,5.52,5.52,0,0,1,1.17-1.9A5.21,5.21,0,0,1,128.22,7a5.92,5.92,0,0,1,2.39-.46,5.21,5.21,0,0,1,2.31.52,4,4,0,0,1,1.66,1.4h0V0h2.16Zm-5.91-1.73a3.91,3.91,0,0,0,1.56-.3,3.39,3.39,0,0,0,1.92-2.07,4.85,4.85,0,0,0,0-3.19,3.39,3.39,0,0,0-1.92-2.07,3.91,3.91,0,0,0-1.56-.3,4,4,0,0,0-1.57.3,3.39,3.39,0,0,0-1.17.82,3.63,3.63,0,0,0-.75,1.25,5,5,0,0,0,0,3.19,3.63,3.63,0,0,0,.75,1.25,3.39,3.39,0,0,0,1.17.82A4,4,0,0,0,130.88,16.44Z"/><path class="cls-1" d="M152.92,1.15h5.91a7.55,7.55,0,0,1,2.06.27,4.66,4.66,0,0,1,1.63.78,3.5,3.5,0,0,1,1.08,1.32,4.18,4.18,0,0,1,.4,1.89,3.45,3.45,0,0,1-.82,2.39,4.74,4.74,0,0,1-2.11,1.36v.05a3.59,3.59,0,0,1,1.44.39,3.72,3.72,0,0,1,1.16.92,4.29,4.29,0,0,1,1.07,2.92,4.28,4.28,0,0,1-.46,2A4.58,4.58,0,0,1,163,17a6.09,6.09,0,0,1-1.9.91,8.31,8.31,0,0,1-2.33.31h-5.84Zm2.31,7.07h3.14a5.34,5.34,0,0,0,1.23-.13,2.81,2.81,0,0,0,1-.45,2.2,2.2,0,0,0,.69-.79,2.61,2.61,0,0,0,.25-1.18,2.58,2.58,0,0,0-.65-1.75,2.56,2.56,0,0,0-2-.75h-3.63Zm0,7.93h3.39a6.2,6.2,0,0,0,1.16-.11,3.34,3.34,0,0,0,1.19-.43,2.91,2.91,0,0,0,.94-.88,2.53,2.53,0,0,0,.38-1.46,2.69,2.69,0,0,0-1-2.27,4.26,4.26,0,0,0-2.67-.76h-3.41Z"/><path class="cls-1" d="M170.32,6.78h2.16V8.53h.05a3.36,3.36,0,0,1,.58-.83,4,4,0,0,1,.8-.63,3.92,3.92,0,0,1,1-.42,3.48,3.48,0,0,1,1.05-.16,3.24,3.24,0,0,1,1,.14L176.81,9a5,5,0,0,0-.53-.12,2.38,2.38,0,0,0-.53,0,3.17,3.17,0,0,0-2.43.89,3.9,3.9,0,0,0-.84,2.76v5.72h-2.16Z"/><path class="cls-1" d="M182.07,8.17a6.07,6.07,0,0,1,2.12-1.26,7.22,7.22,0,0,1,2.4-.42,6.51,6.51,0,0,1,2.15.31,4.13,4.13,0,0,1,1.48.84,3.4,3.4,0,0,1,.86,1.22,3.83,3.83,0,0,1,.27,1.43V16.1q0,.6,0,1.11c0,.34,0,.66.07,1h-1.92c-.05-.58-.08-1.15-.08-1.73h0A4.05,4.05,0,0,1,187.7,18a5.31,5.31,0,0,1-2.28.46,5.08,5.08,0,0,1-1.52-.22,3.59,3.59,0,0,1-1.26-.65,2.89,2.89,0,0,1-.85-1.07,3.25,3.25,0,0,1-.32-1.47,3.25,3.25,0,0,1,.5-1.85A3.6,3.6,0,0,1,183.31,12a6.72,6.72,0,0,1,2-.67,13.44,13.44,0,0,1,2.44-.21h1.58v-.48a2.23,2.23,0,0,0-.17-.86,2.31,2.31,0,0,0-.5-.78,2.52,2.52,0,0,0-.84-.56,3.35,3.35,0,0,0-1.2-.2,4.52,4.52,0,0,0-1.1.12,5,5,0,0,0-.85.3,3.71,3.71,0,0,0-.7.42l-.6.46Zm6.11,4.52c-.51,0-1,0-1.58.08a6.38,6.38,0,0,0-1.46.33,2.8,2.8,0,0,0-1.08.67,1.53,1.53,0,0,0-.42,1.11,1.57,1.57,0,0,0,.66,1.42,3.29,3.29,0,0,0,1.79.43,3.44,3.44,0,0,0,1.51-.3,2.76,2.76,0,0,0,1-.78,3,3,0,0,0,.55-1.07,4,4,0,0,0,.17-1.17v-.72Z"/><path class="cls-1" d="M197.31,6.78h2.17V8.53h0a3.26,3.26,0,0,1,1.42-1.48,4.78,4.78,0,0,1,2.33-.56,4.93,4.93,0,0,1,1.58.25,3.67,3.67,0,0,1,1.32.78,3.76,3.76,0,0,1,.9,1.36,5.09,5.09,0,0,1,.34,2v7.33h-2.17V11.44a3.93,3.93,0,0,0-.21-1.36,2.59,2.59,0,0,0-.58-.91,2.08,2.08,0,0,0-.83-.5,2.86,2.86,0,0,0-1-.16,3.39,3.39,0,0,0-1.25.22,2.62,2.62,0,0,0-1,.68,3.19,3.19,0,0,0-.67,1.19,5.43,5.43,0,0,0-.24,1.71v5.86h-2.17Z"/><path class="cls-1" d="M224.91,18.17h-2.17V16.54h0A4.16,4.16,0,0,1,221,18a5.41,5.41,0,0,1-2.25.5,5.92,5.92,0,0,1-2.39-.46,5.28,5.28,0,0,1-1.83-1.27,5.85,5.85,0,0,1-1.16-1.9,6.45,6.45,0,0,1-.41-2.35,6.56,6.56,0,0,1,.41-2.37,5.65,5.65,0,0,1,1.16-1.9A5.25,5.25,0,0,1,216.34,7a5.92,5.92,0,0,1,2.39-.46A5.21,5.21,0,0,1,221,7a4,4,0,0,1,1.66,1.4h0V0h2.17ZM219,16.44a4,4,0,0,0,1.57-.3,3.39,3.39,0,0,0,1.17-.82,3.63,3.63,0,0,0,.75-1.25,5,5,0,0,0,0-3.19,3.63,3.63,0,0,0-.75-1.25,3.39,3.39,0,0,0-1.17-.82,4.23,4.23,0,0,0-3.13,0,3.39,3.39,0,0,0-1.92,2.07,4.85,4.85,0,0,0,0,3.19,3.39,3.39,0,0,0,1.92,2.07A3.94,3.94,0,0,0,219,16.44Z"/><path class="cls-1" d="M241,1.15h11V3.32h-8.68V8.39h8.08v2.16h-8.08V16h9.11v2.16H241Z"/><path class="cls-1" d="M261.1,12.09l-4-5.31h2.78l2.77,4,2.72-4H268l-3.9,5.31,4.62,6.08h-2.79l-3.37-4.78-3.36,4.78h-2.67Z"/><path class="cls-1" d="M274.9,13.27a2.82,2.82,0,0,0,.33,1.36,3.41,3.41,0,0,0,.85,1,3.84,3.84,0,0,0,1.23.67,4.35,4.35,0,0,0,1.44.24,3.22,3.22,0,0,0,1.75-.46,5.69,5.69,0,0,0,1.37-1.24l1.64,1.25a6,6,0,0,1-5.05,2.33A6.17,6.17,0,0,1,276,18a5.15,5.15,0,0,1-1.85-1.26,5.67,5.67,0,0,1-1.17-1.9,6.77,6.77,0,0,1-.41-2.36,6.17,6.17,0,0,1,.45-2.37,5.82,5.82,0,0,1,1.23-1.9A5.47,5.47,0,0,1,276.13,7a5.87,5.87,0,0,1,2.35-.46A5.64,5.64,0,0,1,281,7a5,5,0,0,1,1.72,1.38,5.44,5.44,0,0,1,1,1.92A7.71,7.71,0,0,1,284,12.5v.77Zm6.83-1.73a4.56,4.56,0,0,0-.23-1.32,2.79,2.79,0,0,0-1.63-1.75,3.73,3.73,0,0,0-1.43-.25,3.5,3.5,0,0,0-1.46.3,3.62,3.62,0,0,0-1.12.78,3.77,3.77,0,0,0-.71,1.07,3.08,3.08,0,0,0-.25,1.17Z"/><path class="cls-1" d="M297.59,9.81a4.36,4.36,0,0,0-1.26-1,3.49,3.49,0,0,0-1.57-.33,3.41,3.41,0,0,0-1.55.33,3.11,3.11,0,0,0-1.11.89,3.87,3.87,0,0,0-.67,1.29,4.89,4.89,0,0,0-.23,1.53,4.38,4.38,0,0,0,.26,1.5,3.78,3.78,0,0,0,.75,1.24,3.43,3.43,0,0,0,1.15.83,3.68,3.68,0,0,0,1.52.3,3.56,3.56,0,0,0,1.56-.32,4.22,4.22,0,0,0,1.2-1l1.54,1.54a4.82,4.82,0,0,1-2,1.34,6.86,6.86,0,0,1-2.37.41,6.46,6.46,0,0,1-2.41-.43,5.65,5.65,0,0,1-1.89-1.22,5.34,5.34,0,0,1-1.23-1.87,7,7,0,0,1,0-4.84,5.59,5.59,0,0,1,1.22-1.9A5.51,5.51,0,0,1,292.41,7a6.35,6.35,0,0,1,2.44-.45,6.43,6.43,0,0,1,2.39.45,5.32,5.32,0,0,1,2,1.36Z"/><path class="cls-1" d="M313.94,18.17h-2.17V16.42h0a3.26,3.26,0,0,1-1.42,1.48,4.78,4.78,0,0,1-2.33.56,4.86,4.86,0,0,1-1.59-.25,3.63,3.63,0,0,1-1.31-.78,3.76,3.76,0,0,1-.9-1.36,5.09,5.09,0,0,1-.34-2V6.78H306v6.73a3.91,3.91,0,0,0,.22,1.36,2.59,2.59,0,0,0,.58.91,2.08,2.08,0,0,0,.83.5,2.86,2.86,0,0,0,1,.16,3.39,3.39,0,0,0,1.25-.22,2.62,2.62,0,0,0,1-.68,3.19,3.19,0,0,0,.67-1.19,5.43,5.43,0,0,0,.24-1.71V6.78h2.17Z"/><path class="cls-1" d="M326.12,8.65H323v5.17c0,.32,0,.64,0,.95a2.25,2.25,0,0,0,.18.84,1.29,1.29,0,0,0,.48.6,1.64,1.64,0,0,0,1,.23,4.37,4.37,0,0,0,.79-.07,2.4,2.4,0,0,0,.75-.27v2a3,3,0,0,1-1,.3,8.74,8.74,0,0,1-.95.08,4.39,4.39,0,0,1-1.94-.35,2.41,2.41,0,0,1-1-.9,3,3,0,0,1-.38-1.24q-.06-.68-.06-1.38V8.65h-2.5V6.78h2.5V3.58H323v3.2h3.1Z"/><path class="cls-1" d="M331.39,2.69a1.52,1.52,0,0,1,.47-1.12,1.58,1.58,0,0,1,2.23,0,1.56,1.56,0,0,1,.47,1.12,1.54,1.54,0,0,1-.47,1.12,1.56,1.56,0,0,1-2.23,0A1.5,1.5,0,0,1,331.39,2.69Zm.5,4.09h2.17V18.17h-2.17Z"/><path class="cls-1" d="M339.75,12.48a5.86,5.86,0,0,1,.47-2.34,6,6,0,0,1,1.29-1.9A5.93,5.93,0,0,1,343.43,7a6.26,6.26,0,0,1,4.76,0,5.93,5.93,0,0,1,1.92,1.28,6.21,6.21,0,0,1,1.29,1.9,5.86,5.86,0,0,1,.47,2.34,5.92,5.92,0,0,1-1.76,4.24,6.16,6.16,0,0,1-8.6,0,5.82,5.82,0,0,1-1.29-1.9A5.93,5.93,0,0,1,339.75,12.48Zm2.31,0a4.82,4.82,0,0,0,.26,1.59,3.63,3.63,0,0,0,.75,1.25,3.33,3.33,0,0,0,1.18.82,4.21,4.21,0,0,0,3.12,0,3.33,3.33,0,0,0,1.18-.82,3.46,3.46,0,0,0,.74-1.25,4.85,4.85,0,0,0,0-3.19,3.46,3.46,0,0,0-.74-1.25,3.33,3.33,0,0,0-1.18-.82,4.21,4.21,0,0,0-3.12,0,3.33,3.33,0,0,0-1.18.82,3.63,3.63,0,0,0-.75,1.25A4.84,4.84,0,0,0,342.06,12.48Z"/><path class="cls-1" d="M357.39,6.78h2.17V8.53h0A3.26,3.26,0,0,1,361,7.05a4.78,4.78,0,0,1,2.33-.56,4.93,4.93,0,0,1,1.58.25,3.67,3.67,0,0,1,1.32.78,3.76,3.76,0,0,1,.9,1.36,5.09,5.09,0,0,1,.34,2v7.33h-2.16V11.44a3.91,3.91,0,0,0-.22-1.36,2.46,2.46,0,0,0-.58-.91,2.08,2.08,0,0,0-.83-.5,2.86,2.86,0,0,0-1-.16,3.39,3.39,0,0,0-1.25.22,2.62,2.62,0,0,0-1,.68,3.19,3.19,0,0,0-.67,1.19,5.43,5.43,0,0,0-.24,1.71v5.86h-2.17Z"/></svg>