<svg id="Layer_1" data-name="Layer 1" xmlns="http://www.w3.org/2000/svg" viewBox="0 0 404.16 101.46"><defs><style>.cls-1{fill:#f48120;}</style></defs><path class="cls-1" d="M0,1H17.58v82.9h42V99.79H0Z"/><path class="cls-1" d="M67.41,10.05a9.65,9.65,0,0,1,3-7A10.29,10.29,0,0,1,78,0a11.11,11.11,0,0,1,7.75,2.86,9.34,9.34,0,0,1,3.14,7.19,9.34,9.34,0,0,1-3.14,7.19A11.11,11.11,0,0,1,78,20.1a10.29,10.29,0,0,1-7.6-3A9.65,9.65,0,0,1,67.41,10.05ZM69.78,32.8H86.53v67H69.78Z"/><path class="cls-1" d="M95.32,32.8H113.6l17.86,46.89h.28l18-46.89h17.16l-26.37,67H122.67Z"/><path class="cls-1" d="M188.82,72.15c.56,5,2.51,8.93,5.86,11.73a18.36,18.36,0,0,0,12.15,4.18,20,20,0,0,0,10.53-2.58A29.07,29.07,0,0,0,224.83,79l12,9.07a34,34,0,0,1-13.12,10.33,38.6,38.6,0,0,1-15.21,3.07A40.27,40.27,0,0,1,194.27,99a34.26,34.26,0,0,1-11.59-7.12,33.64,33.64,0,0,1-7.74-11.09,35.43,35.43,0,0,1-2.86-14.45,35.35,35.35,0,0,1,2.86-14.44,33.58,33.58,0,0,1,7.74-11.1,34.26,34.26,0,0,1,11.59-7.12,40.27,40.27,0,0,1,14.23-2.51,32.69,32.69,0,0,1,12.77,2.44,27.48,27.48,0,0,1,9.91,7A32.66,32.66,0,0,1,237.6,52a48.39,48.39,0,0,1,2.3,15.56v4.6Zm34.34-12.56q-.15-7.4-4.61-11.65t-12.42-4.26q-7.55,0-11.93,4.33a19.31,19.31,0,0,0-5.38,11.58Z"/><path class="cls-1" d="M292,10.05a9.61,9.61,0,0,1,3-7,10.29,10.29,0,0,1,7.6-3,11.13,11.13,0,0,1,7.75,2.86,9.34,9.34,0,0,1,3.14,7.19,9.34,9.34,0,0,1-3.14,7.19,11.13,11.13,0,0,1-7.75,2.86,10.29,10.29,0,0,1-7.6-3A9.61,9.61,0,0,1,292,10.05Zm2.37,22.75h16.75v67H294.33Z"/><path class="cls-1" d="M321.12,47V32.8h13.82V13.4h16.75V32.8h18.42V47H351.69V76.34a14.52,14.52,0,0,0,1.88,8c1.26,2,3.74,2.94,7.47,2.94a27.69,27.69,0,0,0,4.88-.49,10.26,10.26,0,0,0,4.19-1.61v14.1a21.91,21.91,0,0,1-6.49,1.74,53.66,53.66,0,0,1-6.77.49,34.5,34.5,0,0,1-11-1.46,14.46,14.46,0,0,1-6.69-4.47,16.88,16.88,0,0,1-3.35-7.47,51.82,51.82,0,0,1-.91-10.32V47Z"/><path class="cls-1" d="M381.83,90a10.36,10.36,0,0,1,3.28-7.68A10.85,10.85,0,0,1,393,79.13a11.23,11.23,0,0,1,7.81,3.07,9.85,9.85,0,0,1,3.35,7.54,10.34,10.34,0,0,1-3.28,7.67,10.86,10.86,0,0,1-7.88,3.21,11.19,11.19,0,0,1-4.26-.83,12.15,12.15,0,0,1-3.56-2.24,10.27,10.27,0,0,1-2.44-3.35A9.7,9.7,0,0,1,381.83,90Z"/></svg>