<svg id="Layer_1" data-name="Layer 1" xmlns="http://www.w3.org/2000/svg" viewBox="0 0 363.4 23.56"><defs><style>.cls-1{fill:#58595b;}</style></defs><path class="cls-1" d="M0,1.14H4.83a12.39,12.39,0,0,1,1.91.15,4.38,4.38,0,0,1,1.74.64A3.63,3.63,0,0,1,9.73,3.28a4.54,4.54,0,0,1,.49,2.28,3.42,3.42,0,0,1-.76,2.22A3.73,3.73,0,0,1,7.22,9v0a4.6,4.6,0,0,1,1.51.39,3.78,3.78,0,0,1,1.18.86,3.65,3.65,0,0,1,.77,1.26A4.65,4.65,0,0,1,11,13.2a4.44,4.44,0,0,1-.55,2.35A4.17,4.17,0,0,1,9,17a5.2,5.2,0,0,1-1.82.71,9.49,9.49,0,0,1-1.83.19H0ZM1.56,8.37H4.8a5.46,5.46,0,0,0,2-.29A3.6,3.6,0,0,0,8,7.36a2.31,2.31,0,0,0,.57-.91,3.4,3.4,0,0,0,.14-.89,3.19,3.19,0,0,0-.3-1.46,2.53,2.53,0,0,0-.79-.92A3.09,3.09,0,0,0,6.41,2.7,6.3,6.3,0,0,0,5,2.55H1.56Zm0,8.09H5.13a6.22,6.22,0,0,0,2.22-.33,3.31,3.31,0,0,0,1.28-.83,2.7,2.7,0,0,0,.61-1.05,3.85,3.85,0,0,0,.15-1A3.39,3.39,0,0,0,9,11.66a3.26,3.26,0,0,0-.93-1.08A3.92,3.92,0,0,0,6.82,10a6,6,0,0,0-1.45-.19H1.56Z"/><path class="cls-1" d="M14.5,10c0-.21,0-.45,0-.75s0-.58,0-.88,0-.58,0-.84,0-.46,0-.61H15.8c0,.41,0,.81,0,1.19a2.68,2.68,0,0,0,.06.73,4.73,4.73,0,0,1,1.39-1.58,3.46,3.46,0,0,1,2.08-.62,1.93,1.93,0,0,1,.42,0l.41.08L20,8.18a1.86,1.86,0,0,0-.55-.09,3.86,3.86,0,0,0-1.59.3,2.89,2.89,0,0,0-1.12.81,3.49,3.49,0,0,0-.65,1.22,5.18,5.18,0,0,0-.21,1.5v6H14.5Z"/><path class="cls-1" d="M30.87,13.29c0,.54,0,1,0,1.45s0,.82,0,1.18,0,.7.06,1,.05.63.1.94H29.76a9.63,9.63,0,0,1-.14-1.77h-.05A4,4,0,0,1,28,17.67a4.75,4.75,0,0,1-2.3.5,5.49,5.49,0,0,1-1.4-.18,3.65,3.65,0,0,1-1.23-.57,3.07,3.07,0,0,1-.89-1,3,3,0,0,1-.34-1.49,2.9,2.9,0,0,1,.64-2,3.89,3.89,0,0,1,1.57-1.1,7.32,7.32,0,0,1,2-.47,16.38,16.38,0,0,1,1.86-.11h1.65V10.6a2.32,2.32,0,0,0-.87-2A3.75,3.75,0,0,0,26.52,8a5,5,0,0,0-3.34,1.23l-.83-1a5,5,0,0,1,1.94-1.15,7,7,0,0,1,2.23-.39,5,5,0,0,1,3.17.93,3.62,3.62,0,0,1,1.18,3ZM28,12.4a12.31,12.31,0,0,0-1.74.11,6.06,6.06,0,0,0-1.51.41,2.79,2.79,0,0,0-1.08.75,1.76,1.76,0,0,0-.4,1.18,1.73,1.73,0,0,0,.22.89,2.1,2.1,0,0,0,.58.64,2.69,2.69,0,0,0,.8.38,2.93,2.93,0,0,0,.88.13,4.57,4.57,0,0,0,1.87-.33,3.1,3.1,0,0,0,1.17-.87,3,3,0,0,0,.61-1.2,5.68,5.68,0,0,0,.16-1.36V12.4Z"/><path class="cls-1" d="M34.65,10c0-.21,0-.45,0-.75s0-.58,0-.88,0-.58,0-.84,0-.46,0-.61H36c0,.41,0,.81,0,1.19a3.94,3.94,0,0,0,.06.73h.07a3.79,3.79,0,0,1,1.42-1.55,4.17,4.17,0,0,1,2.32-.65,4.64,4.64,0,0,1,2.08.4,3.4,3.4,0,0,1,1.27,1,4,4,0,0,1,.63,1.51A8.45,8.45,0,0,1,44,11.38v6.5H42.6V11.45a6.88,6.88,0,0,0-.12-1.29A3.33,3.33,0,0,0,42.07,9a2.2,2.2,0,0,0-.83-.8A2.89,2.89,0,0,0,39.86,8a4.05,4.05,0,0,0-1.48.27,3.16,3.16,0,0,0-1.21.83,4,4,0,0,0-.8,1.39,5.89,5.89,0,0,0-.3,2v5.46H34.65Z"/><path class="cls-1" d="M57.36,16h0a3.69,3.69,0,0,1-.82,1,5,5,0,0,1-1.08.68,5.15,5.15,0,0,1-1.22.41,6.72,6.72,0,0,1-1.25.13,6.26,6.26,0,0,1-2.32-.43,5.18,5.18,0,0,1-1.82-1.19,5.39,5.39,0,0,1-1.18-1.83,6,6,0,0,1-.43-2.3,6,6,0,0,1,.43-2.31A5.35,5.35,0,0,1,48.8,8.29,5.18,5.18,0,0,1,50.62,7.1a6.06,6.06,0,0,1,2.32-.43,6,6,0,0,1,1.25.13,5.63,5.63,0,0,1,1.22.4,4.72,4.72,0,0,1,1.08.69,3.69,3.69,0,0,1,.82,1h0V0h1.42V17.88H57.36Zm.14-3.55a4.23,4.23,0,0,0-.35-1.74,4.53,4.53,0,0,0-1-1.42,4.78,4.78,0,0,0-1.44-1A4.66,4.66,0,0,0,52.94,8a4.55,4.55,0,0,0-1.8.35,4.23,4.23,0,0,0-1.37,1,4,4,0,0,0-.86,1.42,5,5,0,0,0-.3,1.74,5.05,5.05,0,0,0,.3,1.74,4,4,0,0,0,2.23,2.37,4.38,4.38,0,0,0,1.8.36,4.49,4.49,0,0,0,1.8-.36,4.57,4.57,0,0,0,1.44-1,4.65,4.65,0,0,0,1-1.42A4.3,4.3,0,0,0,57.5,12.42Z"/><path class="cls-1" d="M62.16,2.63a1,1,0,0,1,.31-.76,1,1,0,0,1,.76-.31,1,1,0,0,1,.75.31,1,1,0,0,1,.31.76,1,1,0,0,1-.31.75,1,1,0,0,1-.75.31,1.06,1.06,0,0,1-1.07-1.06ZM62.52,7h1.42V17.88H62.52Z"/><path class="cls-1" d="M68,10c0-.21,0-.45,0-.75s0-.58,0-.88,0-.58,0-.84,0-.46,0-.61h1.42c0,.41,0,.81,0,1.19a3.42,3.42,0,0,0,0,.73h.08a3.73,3.73,0,0,1,1.42-1.55,4.14,4.14,0,0,1,2.31-.65,4.62,4.62,0,0,1,2.08.4,3.4,3.4,0,0,1,1.27,1,4,4,0,0,1,.64,1.51,8.45,8.45,0,0,1,.18,1.75v6.5H75.91V11.45a6.88,6.88,0,0,0-.12-1.29A3.34,3.34,0,0,0,75.37,9a2.17,2.17,0,0,0-.82-.8A3,3,0,0,0,73.16,8a4.09,4.09,0,0,0-1.48.27,3.2,3.2,0,0,0-1.2.83,4,4,0,0,0-.81,1.39,6.17,6.17,0,0,0-.29,2v5.46H68Z"/><path class="cls-1" d="M92.09,17.17a7.84,7.84,0,0,1-.59,3.29A5.26,5.26,0,0,1,90,22.4a4.76,4.76,0,0,1-1.91.92,8,8,0,0,1-1.84.24,8,8,0,0,1-3.12-.6,6.15,6.15,0,0,1-1.29-.72,5.48,5.48,0,0,1-1-1L82,20.22a4.68,4.68,0,0,0,1.89,1.57,6,6,0,0,0,2.42.49A5.18,5.18,0,0,0,88.1,22a3.56,3.56,0,0,0,1.23-.75,3.49,3.49,0,0,0,.76-1,5.37,5.37,0,0,0,.4-1.12,5.11,5.11,0,0,0,.15-1.05c0-.33,0-.6,0-.8V15.75h0A4.35,4.35,0,0,1,89,17.32a5.2,5.2,0,0,1-2.47.56,6,6,0,0,1-2.27-.43,6,6,0,0,1-1.86-1.21,5.77,5.77,0,0,1-1.25-1.79,5.37,5.37,0,0,1,0-4.35,5.57,5.57,0,0,1,1.25-1.77,6,6,0,0,1,1.86-1.21,5.78,5.78,0,0,1,2.27-.45A5.09,5.09,0,0,1,89,7.24,4.4,4.4,0,0,1,90.62,8.8h0V7h1.42Zm-1.37-4.89a4.24,4.24,0,0,0-.35-1.7,4.46,4.46,0,0,0-.92-1.37,4.52,4.52,0,0,0-1.37-.92,4.4,4.4,0,0,0-3.39,0,4.28,4.28,0,0,0-2.29,2.29,4.23,4.23,0,0,0-.34,1.7A4.18,4.18,0,0,0,82.4,14a4.52,4.52,0,0,0,.92,1.37,4.46,4.46,0,0,0,1.37.92,4.28,4.28,0,0,0,3.39,0A4.28,4.28,0,0,0,90.37,14,4.19,4.19,0,0,0,90.72,12.28Z"/><path class="cls-1" d="M110.21,13.29c0,.54,0,1,0,1.45s0,.82,0,1.18,0,.7.06,1,.06.63.11.94h-1.33a10.59,10.59,0,0,1-.14-1.77h0a3.94,3.94,0,0,1-1.52,1.56,4.82,4.82,0,0,1-2.31.5,5.47,5.47,0,0,1-1.39-.18,3.65,3.65,0,0,1-1.23-.57,3,3,0,0,1-.89-1,3,3,0,0,1-.34-1.49,2.9,2.9,0,0,1,.64-2,3.89,3.89,0,0,1,1.57-1.1,7.15,7.15,0,0,1,2-.47,16.34,16.34,0,0,1,1.85-.11h1.66V10.6a2.3,2.3,0,0,0-.88-2,3.71,3.71,0,0,0-2.2-.61,5,5,0,0,0-3.33,1.23l-.83-1a5,5,0,0,1,1.94-1.15,6.93,6.93,0,0,1,2.22-.39A5,5,0,0,1,109,7.6a3.63,3.63,0,0,1,1.19,3Zm-2.84-.89a12.31,12.31,0,0,0-1.74.11,6,6,0,0,0-1.51.41,2.79,2.79,0,0,0-1.08.75,1.76,1.76,0,0,0-.4,1.18,1.73,1.73,0,0,0,.22.89,2,2,0,0,0,.58.64,2.75,2.75,0,0,0,.79.38,3,3,0,0,0,.89.13,4.57,4.57,0,0,0,1.87-.33,3.1,3.1,0,0,0,1.17-.87,3,3,0,0,0,.6-1.2,5.69,5.69,0,0,0,.17-1.36V12.4Z"/><path class="cls-1" d="M114,10c0-.21,0-.45,0-.75s0-.58,0-.88,0-.58,0-.84,0-.46,0-.61h1.42c0,.41,0,.81,0,1.19a2.68,2.68,0,0,0,.06.73h.07a3.73,3.73,0,0,1,1.42-1.55,4.14,4.14,0,0,1,2.31-.65,4.66,4.66,0,0,1,2.09.4,3.45,3.45,0,0,1,1.26,1,4,4,0,0,1,.64,1.51,8.45,8.45,0,0,1,.18,1.75v6.5h-1.42V11.45a6.88,6.88,0,0,0-.12-1.29A3.55,3.55,0,0,0,121.41,9a2.28,2.28,0,0,0-.83-.8A3,3,0,0,0,119.19,8a4,4,0,0,0-1.47.27,3.16,3.16,0,0,0-1.21.83,3.85,3.85,0,0,0-.8,1.39,5.89,5.89,0,0,0-.3,2v5.46H114Z"/><path class="cls-1" d="M136.7,16h0a3.73,3.73,0,0,1-.83,1,5.23,5.23,0,0,1-1.07.68,5.15,5.15,0,0,1-1.22.41,6.81,6.81,0,0,1-1.25.13,6.26,6.26,0,0,1-2.32-.43,5.18,5.18,0,0,1-1.82-1.19A5.57,5.57,0,0,1,127,14.72a6.15,6.15,0,0,1-.42-2.3,6.17,6.17,0,0,1,.42-2.31,5.52,5.52,0,0,1,1.19-1.82A5.18,5.18,0,0,1,130,7.1a6.33,6.33,0,0,1,3.57-.3,5.63,5.63,0,0,1,1.22.4,4.88,4.88,0,0,1,1.07.69,3.73,3.73,0,0,1,.83,1h0V0h1.42V17.88H136.7Zm.14-3.55a4.4,4.4,0,0,0-.35-1.74,4.53,4.53,0,0,0-1-1.42,4.7,4.7,0,0,0-1.45-1A4.61,4.61,0,0,0,132.28,8a4.48,4.48,0,0,0-1.8.35,4.1,4.1,0,0,0-2.24,2.38,5.21,5.21,0,0,0-.29,1.74,5.29,5.29,0,0,0,.29,1.74,4.22,4.22,0,0,0,.87,1.42,4,4,0,0,0,1.37,1,4.32,4.32,0,0,0,1.8.36,4.44,4.44,0,0,0,1.79-.36,4.5,4.5,0,0,0,1.45-1,4.65,4.65,0,0,0,1-1.42A4.47,4.47,0,0,0,136.84,12.42Z"/><path class="cls-1" d="M148,1.14h2.34l6.11,14.05,6.1-14h2.22V17.88h-1.56V3.12h0l-6.39,14.76h-.69L149.59,3.12h-.05V17.88H148Z"/><path class="cls-1" d="M177.27,13.29c0,.54,0,1,0,1.45s0,.82,0,1.18,0,.7.06,1,.06.63.11.94h-1.33a10.59,10.59,0,0,1-.14-1.77h0a4,4,0,0,1-1.53,1.56,4.82,4.82,0,0,1-2.31.5,5.47,5.47,0,0,1-1.39-.18,3.65,3.65,0,0,1-1.23-.57,3.07,3.07,0,0,1-.89-1,3,3,0,0,1-.34-1.49,2.9,2.9,0,0,1,.64-2,3.89,3.89,0,0,1,1.57-1.1,7.15,7.15,0,0,1,2-.47,16.34,16.34,0,0,1,1.85-.11H176V10.6a2.3,2.3,0,0,0-.88-2,3.71,3.71,0,0,0-2.2-.61,5,5,0,0,0-3.33,1.23l-.83-1a5,5,0,0,1,1.94-1.15,6.93,6.93,0,0,1,2.22-.39,5,5,0,0,1,3.17.93,3.63,3.63,0,0,1,1.19,3Zm-2.84-.89a12.31,12.31,0,0,0-1.74.11,6.06,6.06,0,0,0-1.51.41,2.79,2.79,0,0,0-1.08.75,1.76,1.76,0,0,0-.4,1.18,1.73,1.73,0,0,0,.22.89,2.1,2.1,0,0,0,.58.64,2.75,2.75,0,0,0,.79.38,3,3,0,0,0,.89.13,4.57,4.57,0,0,0,1.87-.33,3.1,3.1,0,0,0,1.17-.87,3,3,0,0,0,.6-1.2,5.69,5.69,0,0,0,.17-1.36V12.4Z"/><path class="cls-1" d="M181.05,10c0-.21,0-.45,0-.75s0-.58,0-.88,0-.58,0-.84,0-.46,0-.61h1.42c0,.41,0,.81,0,1.19a3.19,3.19,0,0,0,.06.73,4.73,4.73,0,0,1,1.39-1.58,3.46,3.46,0,0,1,2.08-.62,1.93,1.93,0,0,1,.42,0l.41.08-.16,1.39a1.81,1.81,0,0,0-.55-.09,3.89,3.89,0,0,0-1.59.3,3,3,0,0,0-1.12.81,3.67,3.67,0,0,0-.65,1.22,5.18,5.18,0,0,0-.21,1.5v6h-1.42Z"/><path class="cls-1" d="M188.93,0h1.42V11.92L195.74,7h2.08l-5.63,5,6.29,5.91h-2.15l-6-5.77v5.77h-1.42Z"/><path class="cls-1" d="M210,15.83a4.85,4.85,0,0,1-2.05,1.79,6.39,6.39,0,0,1-2.68.55,5.85,5.85,0,0,1-2.27-.43,5.12,5.12,0,0,1-1.76-1.19,5.4,5.4,0,0,1-1.12-1.83,6.6,6.6,0,0,1-.39-2.32,6.28,6.28,0,0,1,.4-2.28,5.56,5.56,0,0,1,1.14-1.81A5.27,5.27,0,0,1,203,7.11a5.39,5.39,0,0,1,2.19-.44,5.33,5.33,0,0,1,2.22.44A4.89,4.89,0,0,1,209,8.27a5,5,0,0,1,1,1.64,5.54,5.54,0,0,1,.33,1.87v1h-9.18a4.77,4.77,0,0,0,.18,1.15,4,4,0,0,0,.65,1.36,4.23,4.23,0,0,0,1.26,1.14,4,4,0,0,0,2.05.47,4.47,4.47,0,0,0,2.1-.52A3.87,3.87,0,0,0,208.92,15Zm-1.09-4.33a3.23,3.23,0,0,0-.3-1.38,3.54,3.54,0,0,0-.8-1.12,3.9,3.9,0,0,0-2.69-1,3.64,3.64,0,0,0-1.92.47,4.21,4.21,0,0,0-1.22,1.09,4.5,4.5,0,0,0-.64,1.19,3,3,0,0,0-.19.8Z"/><path class="cls-1" d="M218.8,8.23h-3.12v7.12a1.54,1.54,0,0,0,.4,1.14,1.51,1.51,0,0,0,1.12.4,3.35,3.35,0,0,0,.81-.11,4.89,4.89,0,0,0,.79-.27l.12,1.28c-.27.09-.57.18-.92.26a4.15,4.15,0,0,1-.92.12,3.36,3.36,0,0,1-1.3-.23,2.29,2.29,0,0,1-.88-.6,2.32,2.32,0,0,1-.48-.89,3.52,3.52,0,0,1-.16-1.1V8.23H211.9V7h2.36V3.81h1.42V7h3.12Z"/><path class="cls-1" d="M221.24,2.63a1,1,0,0,1,.31-.76,1,1,0,0,1,.75-.31,1,1,0,0,1,.76.31,1,1,0,0,1,.31.76,1,1,0,0,1-.31.75,1,1,0,0,1-.76.31,1,1,0,0,1-.75-.31A1,1,0,0,1,221.24,2.63ZM221.59,7H223V17.88h-1.42Z"/><path class="cls-1" d="M227,10c0-.21,0-.45,0-.75s0-.58,0-.88,0-.58,0-.84,0-.46,0-.61h1.42c0,.41,0,.81,0,1.19a3.94,3.94,0,0,0,.06.73h.07a3.87,3.87,0,0,1,1.42-1.55,4.17,4.17,0,0,1,2.32-.65,4.64,4.64,0,0,1,2.08.4,3.4,3.4,0,0,1,1.27,1,4.18,4.18,0,0,1,.64,1.51,9.19,9.19,0,0,1,.17,1.75v6.5H235V11.45a6.88,6.88,0,0,0-.12-1.29A3.13,3.13,0,0,0,234.45,9a2.2,2.2,0,0,0-.83-.8A2.89,2.89,0,0,0,232.24,8a4.09,4.09,0,0,0-1.48.27,3.24,3.24,0,0,0-1.21.83,4.16,4.16,0,0,0-.8,1.39,5.89,5.89,0,0,0-.3,2v5.46H227Z"/><path class="cls-1" d="M251.16,17.17a7.69,7.69,0,0,1-.59,3.29,5.15,5.15,0,0,1-1.48,1.94,4.73,4.73,0,0,1-1.9.92,8.1,8.1,0,0,1-1.85.24,8,8,0,0,1-3.12-.6,6.7,6.7,0,0,1-1.29-.72,5.42,5.42,0,0,1-1-1L241,20.22a4.55,4.55,0,0,0,1.89,1.57,6,6,0,0,0,2.41.49,5.2,5.2,0,0,0,1.84-.28,3.75,3.75,0,0,0,1.23-.75,3.45,3.45,0,0,0,.75-1,4.89,4.89,0,0,0,.41-1.12,7,7,0,0,0,.15-1.05c0-.33,0-.6,0-.8V15.75h0A4.35,4.35,0,0,1,248,17.32a5.23,5.23,0,0,1-2.47.56,5.92,5.92,0,0,1-2.27-.43,6,6,0,0,1-1.86-1.21,5.61,5.61,0,0,1-1.25-1.79,5.27,5.27,0,0,1,0-4.35,5.42,5.42,0,0,1,1.25-1.77,6,6,0,0,1,1.86-1.21,5.75,5.75,0,0,1,2.27-.45,5.12,5.12,0,0,1,2.47.57A4.4,4.4,0,0,1,249.7,8.8h0V7h1.42Zm-1.37-4.89a4.23,4.23,0,0,0-.34-1.7,4.64,4.64,0,0,0-.92-1.37,4.57,4.57,0,0,0-1.38-.92,4.37,4.37,0,0,0-3.38,0,4.4,4.4,0,0,0-1.37.92,4.29,4.29,0,0,0-.92,1.37,4.24,4.24,0,0,0-.35,1.7,4.32,4.32,0,0,0,2.64,4,4.26,4.26,0,0,0,3.38,0,4.39,4.39,0,0,0,1.38-.92,4.52,4.52,0,0,0,.92-1.37A4.18,4.18,0,0,0,249.79,12.28Z"/><path class="cls-1" d="M261.64,14.78a4,4,0,0,0,1.6,1.59,4.65,4.65,0,0,0,2.23.52,4.44,4.44,0,0,0,1.47-.24,3.67,3.67,0,0,0,1.2-.66,3.25,3.25,0,0,0,.8-1,3,3,0,0,0,.29-1.36,2.65,2.65,0,0,0-.36-1.44,3,3,0,0,0-1-.94,7.11,7.11,0,0,0-1.39-.62c-.51-.18-1-.35-1.58-.52s-1.07-.37-1.59-.59A5.46,5.46,0,0,1,262,8.62a3.78,3.78,0,0,1-1-1.33,4.71,4.71,0,0,1-.37-2,4.37,4.37,0,0,1,.44-2,4.23,4.23,0,0,1,1.18-1.44A5.28,5.28,0,0,1,263.94,1a7.11,7.11,0,0,1,2-.29,6.6,6.6,0,0,1,2.54.48,5,5,0,0,1,2,1.62l-1.35,1a4.07,4.07,0,0,0-1.39-1.24,4.07,4.07,0,0,0-1.88-.41,5.27,5.27,0,0,0-1.44.2,3.4,3.4,0,0,0-1.19.59,2.89,2.89,0,0,0-.82,1,3,3,0,0,0-.31,1.4,2.74,2.74,0,0,0,.64,1.93,4.52,4.52,0,0,0,1.6,1.06,17.48,17.48,0,0,0,2.08.69,9.74,9.74,0,0,1,2.08.79,4.52,4.52,0,0,1,1.6,1.38,4.17,4.17,0,0,1,.64,2.45,4.57,4.57,0,0,1-.43,2,4.32,4.32,0,0,1-1.15,1.48,4.87,4.87,0,0,1-1.66.91,6.24,6.24,0,0,1-2,.31,7.82,7.82,0,0,1-3-.58,5.63,5.63,0,0,1-2.39-2Z"/><path class="cls-1" d="M279.29,8.23h-3.12v7.12a1.54,1.54,0,0,0,.4,1.14,1.5,1.5,0,0,0,1.11.4,3.36,3.36,0,0,0,.82-.11,5.25,5.25,0,0,0,.79-.27l.12,1.28c-.27.09-.58.18-.93.26a4.08,4.08,0,0,1-.92.12,3.39,3.39,0,0,1-1.3-.23,2.33,2.33,0,0,1-.87-.6,2.22,2.22,0,0,1-.49-.89,3.85,3.85,0,0,1-.15-1.1V8.23h-2.37V7h2.37V3.81h1.42V7h3.12Z"/><path class="cls-1" d="M281.82,10c0-.21,0-.45,0-.75s0-.58,0-.88,0-.58,0-.84,0-.46,0-.61h1.42c0,.41,0,.81,0,1.19a2.68,2.68,0,0,0,.06.73,4.73,4.73,0,0,1,1.39-1.58,3.46,3.46,0,0,1,2.08-.62,2,2,0,0,1,.42,0l.41.08-.17,1.39a1.79,1.79,0,0,0-.54-.09,3.94,3.94,0,0,0-1.6.3,2.86,2.86,0,0,0-1.11.81,3.49,3.49,0,0,0-.65,1.22,5.18,5.18,0,0,0-.21,1.5v6h-1.42Z"/><path class="cls-1" d="M298.19,13.29c0,.54,0,1,0,1.45s0,.82,0,1.18,0,.7.06,1,.06.63.11.94h-1.32a9.58,9.58,0,0,1-.15-1.77h0a4,4,0,0,1-1.53,1.56,4.8,4.8,0,0,1-2.3.5,5.49,5.49,0,0,1-1.4-.18,3.65,3.65,0,0,1-1.23-.57,3.07,3.07,0,0,1-.89-1,3,3,0,0,1-.34-1.49,2.9,2.9,0,0,1,.64-2,3.89,3.89,0,0,1,1.57-1.1,7.23,7.23,0,0,1,2-.47,16.34,16.34,0,0,1,1.85-.11h1.66V10.6a2.32,2.32,0,0,0-.87-2,3.75,3.75,0,0,0-2.2-.61,5,5,0,0,0-3.34,1.23l-.83-1a5,5,0,0,1,1.94-1.15,7,7,0,0,1,2.23-.39A5,5,0,0,1,297,7.6a3.65,3.65,0,0,1,1.18,3Zm-2.84-.89a12.31,12.31,0,0,0-1.74.11,6.06,6.06,0,0,0-1.51.41,2.79,2.79,0,0,0-1.08.75,1.76,1.76,0,0,0-.4,1.18,1.73,1.73,0,0,0,.22.89,2.1,2.1,0,0,0,.58.64,2.69,2.69,0,0,0,.8.38,2.93,2.93,0,0,0,.88.13,4.57,4.57,0,0,0,1.87-.33,3.1,3.1,0,0,0,1.17-.87,3,3,0,0,0,.6-1.2,5.69,5.69,0,0,0,.17-1.36V12.4Z"/><path class="cls-1" d="M307.32,8.23H304.2v7.12a1.54,1.54,0,0,0,.4,1.14,1.5,1.5,0,0,0,1.11.4,3.36,3.36,0,0,0,.82-.11,5.25,5.25,0,0,0,.79-.27l.12,1.28c-.27.09-.58.18-.93.26a4.08,4.08,0,0,1-.92.12,3.39,3.39,0,0,1-1.3-.23,2.33,2.33,0,0,1-.87-.6,2.22,2.22,0,0,1-.49-.89,3.85,3.85,0,0,1-.15-1.1V8.23h-2.37V7h2.37V3.81h1.42V7h3.12Z"/><path class="cls-1" d="M319.5,15.83a4.74,4.74,0,0,1-2.05,1.79,6.36,6.36,0,0,1-2.68.55,5.89,5.89,0,0,1-2.27-.43,5.08,5.08,0,0,1-1.75-1.19,5.42,5.42,0,0,1-1.13-1.83,6.6,6.6,0,0,1-.39-2.32,6.28,6.28,0,0,1,.41-2.28,5.32,5.32,0,0,1,5.06-3.45,5.31,5.31,0,0,1,2.21.44,4.89,4.89,0,0,1,1.61,1.16,5,5,0,0,1,1,1.64,5.54,5.54,0,0,1,.33,1.87v1h-9.18a4.77,4.77,0,0,0,.18,1.15,4.14,4.14,0,0,0,.65,1.36,4.27,4.27,0,0,0,1.27,1.14,4,4,0,0,0,2,.47,4.54,4.54,0,0,0,2.11-.52A3.78,3.78,0,0,0,318.46,15Zm-1.09-4.33a3.38,3.38,0,0,0-.29-1.38A3.73,3.73,0,0,0,317.31,9a3.85,3.85,0,0,0-2.68-1,3.65,3.65,0,0,0-1.93.47,4.34,4.34,0,0,0-1.22,1.09,4.5,4.5,0,0,0-.64,1.19,3.48,3.48,0,0,0-.19.8Z"/><path class="cls-1" d="M334,17.17a7.84,7.84,0,0,1-.59,3.29,5.26,5.26,0,0,1-1.48,1.94,4.76,4.76,0,0,1-1.91.92,8.09,8.09,0,0,1-1.84.24A8,8,0,0,1,325,23a6.15,6.15,0,0,1-1.29-.72,5.18,5.18,0,0,1-1-1l1.11-1.05a4.64,4.64,0,0,0,1.9,1.57,5.94,5.94,0,0,0,2.41.49A5.18,5.18,0,0,0,330,22a3.56,3.56,0,0,0,1.23-.75,3.49,3.49,0,0,0,.76-1,5.37,5.37,0,0,0,.4-1.12,5.11,5.11,0,0,0,.15-1.05c0-.33,0-.6,0-.8V15.75h-.05a4.35,4.35,0,0,1-1.67,1.57,5.2,5.2,0,0,1-2.47.56,6,6,0,0,1-2.27-.43,6,6,0,0,1-1.86-1.21A6,6,0,0,1,323,14.45a5.37,5.37,0,0,1,0-4.35,5.73,5.73,0,0,1,1.25-1.77,6,6,0,0,1,1.86-1.21,5.78,5.78,0,0,1,2.27-.45,5.09,5.09,0,0,1,2.47.57,4.4,4.4,0,0,1,1.67,1.56h.05V7H334Zm-1.38-4.89a4.23,4.23,0,0,0-.34-1.7,4.46,4.46,0,0,0-.92-1.37A4.52,4.52,0,0,0,330,8.29a4.37,4.37,0,0,0-3.38,0,4.57,4.57,0,0,0-1.38.92,4.64,4.64,0,0,0-.92,1.37,4.23,4.23,0,0,0-.34,1.7,4.18,4.18,0,0,0,.34,1.69,4.52,4.52,0,0,0,.92,1.37,4.39,4.39,0,0,0,1.38.92,4.26,4.26,0,0,0,3.38,0A4.28,4.28,0,0,0,332.26,14,4.18,4.18,0,0,0,332.6,12.28Z"/><path class="cls-1" d="M337.34,2.63a1,1,0,0,1,.3-.76,1.09,1.09,0,0,1,1.52,0,1,1,0,0,1,.31.76,1.07,1.07,0,1,1-2.13,0ZM337.69,7h1.42V17.88h-1.42Z"/><path class="cls-1" d="M352.78,15.83a4.77,4.77,0,0,1-2,1.79,6.44,6.44,0,0,1-2.69.55,5.92,5.92,0,0,1-2.27-.43A5.08,5.08,0,0,1,344,16.55a5.25,5.25,0,0,1-1.12-1.83,6.6,6.6,0,0,1-.39-2.32,6.28,6.28,0,0,1,.4-2.28,5.54,5.54,0,0,1,1.13-1.81,5.37,5.37,0,0,1,1.73-1.2,5.44,5.44,0,0,1,2.2-.44,5.28,5.28,0,0,1,2.21.44,4.79,4.79,0,0,1,1.61,1.16,5,5,0,0,1,1,1.64,5.54,5.54,0,0,1,.33,1.87v1h-9.17a4.68,4.68,0,0,0,.17,1.15,4.14,4.14,0,0,0,.65,1.36A4.27,4.27,0,0,0,346,16.42a4,4,0,0,0,2,.47,4.54,4.54,0,0,0,2.11-.52A3.78,3.78,0,0,0,351.74,15Zm-1.09-4.33a3.22,3.22,0,0,0-.29-1.38A3.73,3.73,0,0,0,350.59,9a3.8,3.8,0,0,0-1.2-.77A3.9,3.9,0,0,0,347.91,8a3.68,3.68,0,0,0-1.93.47,4.34,4.34,0,0,0-1.22,1.09,4.18,4.18,0,0,0-.63,1.19,3,3,0,0,0-.19.8Z"/><path class="cls-1" d="M356.31,15.09a3.11,3.11,0,0,0,1.32,1.34,3.9,3.9,0,0,0,1.85.46,3.13,3.13,0,0,0,.9-.14,3,3,0,0,0,.8-.4,2.31,2.31,0,0,0,.58-.63,1.6,1.6,0,0,0,.22-.84,1.37,1.37,0,0,0-.48-1.14,3.58,3.58,0,0,0-1.19-.59,14.62,14.62,0,0,0-1.57-.36,7.47,7.47,0,0,1-1.56-.48,3.3,3.3,0,0,1-1.19-.89,2.34,2.34,0,0,1-.49-1.6,2.84,2.84,0,0,1,.33-1.4,3.15,3.15,0,0,1,.87-1,3.77,3.77,0,0,1,1.19-.58,4.74,4.74,0,0,1,1.35-.19,5.1,5.1,0,0,1,2.33.5,3.45,3.45,0,0,1,1.53,1.56l-1.28.76a2.93,2.93,0,0,0-1-1.15,3.08,3.08,0,0,0-3.11.06,1.89,1.89,0,0,0-.55.54,1.31,1.31,0,0,0-.23.76,1.25,1.25,0,0,0,.49,1.09,3.75,3.75,0,0,0,1.19.55,14.5,14.5,0,0,0,1.56.35,5.79,5.79,0,0,1,1.56.46,3.12,3.12,0,0,1,1.2.92,2.68,2.68,0,0,1,.48,1.71,3.14,3.14,0,0,1-.32,1.48,3.08,3.08,0,0,1-.87,1.06,3.87,3.87,0,0,1-1.27.63,4.89,4.89,0,0,1-1.49.22,6,6,0,0,1-2.59-.55,3.93,3.93,0,0,1-1.81-1.68Z"/></svg>