<svg id="Layer_1" data-name="Layer 1" xmlns="http://www.w3.org/2000/svg" viewBox="0 0 373.59 110.57"><defs><style>.cls-1{fill:#f9a64a;}</style></defs><path class="cls-1" d="M0,2.68H20.51L40.27,78.47h.3L64.2,2.68H82.62l23.19,75.79h.29L126.76,2.68h19L115.17,107.89H97.33L73,27.79h-.29L48.3,107.89H31.06Z"/><path class="cls-1" d="M157.52,2.68h18.72V44.59h49.19V2.68h18.72V107.89H225.43V61.53H176.24v46.36H157.52Z"/><path class="cls-1" d="M262,55.73a60.83,60.83,0,0,1,4.16-23,51.61,51.61,0,0,1,11.51-17.61A50.65,50.65,0,0,1,295.2,3.94,61.57,61.57,0,0,1,317.56,0a62.37,62.37,0,0,1,22.59,3.64,49.12,49.12,0,0,1,17.68,11.07,51.14,51.14,0,0,1,11.6,17.53,60.48,60.48,0,0,1,4.16,22.89,58.51,58.51,0,0,1-4.16,22.44A51.47,51.47,0,0,1,357.83,95a52.71,52.71,0,0,1-17.68,11.37,62.63,62.63,0,0,1-22.59,4.24,61.57,61.57,0,0,1-22.36-3.94,50.12,50.12,0,0,1-29.05-28.46A58.25,58.25,0,0,1,262,55.73Zm19.61-1.19a45.37,45.37,0,0,0,2.6,15.61,36.66,36.66,0,0,0,7.36,12.33,34.15,34.15,0,0,0,11.37,8.17,35.48,35.48,0,0,0,14.78,3,36.06,36.06,0,0,0,14.86-3A33.94,33.94,0,0,0,344,82.48a36.66,36.66,0,0,0,7.36-12.33A45.37,45.37,0,0,0,354,54.54a41.11,41.11,0,0,0-2.6-14.71,36.48,36.48,0,0,0-7.36-12,33.71,33.71,0,0,0-11.44-8A37,37,0,0,0,317.71,17a36.43,36.43,0,0,0-14.78,2.89,33.92,33.92,0,0,0-11.37,8,36.48,36.48,0,0,0-7.36,12A41.11,41.11,0,0,0,281.6,54.54Z"/></svg>