<svg id="Layer_1" data-name="Layer 1" xmlns="http://www.w3.org/2000/svg" viewBox="0 0 1478.39 1364.1"><defs><style>.cls-1{fill:#231f20;}</style></defs><path d="M178.21,15.36A92.55,92.55,0,0,1,197.09,1V0h-.7a93.56,93.56,0,0,0-19,14.49,144.77,144.77,0,0,0-18.2,21.63h1.48A143.48,143.48,0,0,1,178.21,15.36Z"/><path d="M266.73,958.62a92.55,92.55,0,0,1,18.88-14.36v-1h-.7a93.93,93.93,0,0,0-19,14.49,145.78,145.78,0,0,0-18.2,21.63h1.48A144,144,0,0,1,266.73,958.62Z"/><path d="M1478.39,688.14v-1.25c-1.28-.31-2.57-.62-3.87-.91a217.89,217.89,0,0,0-35-5.18V682a215.72,215.72,0,0,1,34.76,5.15C1475.64,687.48,1477,687.8,1478.39,688.14Z"/><path d="M781.56,1205.19v-1.25c-1.29-.32-2.58-.62-3.88-.91a216.83,216.83,0,0,0-35-5.18v1.22a216,216,0,0,1,34.76,5.14C778.8,1204.53,780.18,1204.85,781.56,1205.19Z"/><path d="M1248.65,1281.18a92.55,92.55,0,0,1,18.88-14.36v-1h-.7a93.93,93.93,0,0,0-19,14.49,145.37,145.37,0,0,0-18.2,21.63h1.48A145.3,145.3,0,0,1,1248.65,1281.18Z"/><path d="M762.19,1143.24a92.55,92.55,0,0,1,18.88-14.36v-1h-.7a93.2,93.2,0,0,0-19,14.49,144.77,144.77,0,0,0-18.2,21.63h1.48A144.11,144.11,0,0,1,762.19,1143.24Z"/><path d="M781.56,1089.33v-1.25l-3.88-.91a216.77,216.77,0,0,0-35-5.17v1.21a217.17,217.17,0,0,1,34.76,5.15C778.8,1088.67,780.18,1089,781.56,1089.33Z"/><path d="M762.19,1022.69a92.55,92.55,0,0,1,18.88-14.36v-1h-.7a93.2,93.2,0,0,0-19,14.49,144.77,144.77,0,0,0-18.2,21.63h1.48A143.58,143.58,0,0,1,762.19,1022.69Z"/><path d="M781.56,338.46v-1.25c-1.29-.31-2.58-.62-3.88-.91a217.94,217.94,0,0,0-35-5.18v1.22a217.11,217.11,0,0,1,34.76,5.14C778.8,337.8,780.18,338.12,781.56,338.46Z"/><path d="M762.19,276.51a92.55,92.55,0,0,1,18.88-14.36v-1h-.7a93.56,93.56,0,0,0-19,14.49,144.77,144.77,0,0,0-18.2,21.63h1.48A144.66,144.66,0,0,1,762.19,276.51Z"/><path d="M781.56,222.6v-1.25l-3.88-.91a216.77,216.77,0,0,0-35-5.17v1.21a217.17,217.17,0,0,1,34.76,5.15C778.8,221.94,780.18,222.27,781.56,222.6Z"/><path d="M762.19,156a92.55,92.55,0,0,1,18.88-14.36v-1h-.7a93.56,93.56,0,0,0-19,14.49,144.77,144.77,0,0,0-18.2,21.63h1.48A144.66,144.66,0,0,1,762.19,156Z"/><path d="M1365.26,258.45a92.34,92.34,0,0,1,18.89-14.36v-1h-.7a93.89,93.89,0,0,0-19,14.49,146,146,0,0,0-18.2,21.63h1.49A144.58,144.58,0,0,1,1365.26,258.45Z"/><path d="M90.58,1364.1v-1.25l-3.88-.91a217.89,217.89,0,0,0-35-5.18V1358a216.84,216.84,0,0,1,34.76,5.15C87.82,1363.44,89.2,1363.77,90.58,1364.1Z"/><path d="M38.9,627.2V626c-1.29-.31-2.58-.62-3.87-.91a218.06,218.06,0,0,0-35-5.18v1.22a215.72,215.72,0,0,1,34.76,5.15C36.15,626.54,37.53,626.86,38.9,627.2Z"/><path class="cls-1" d="M1245.11,784.48c5.59,9,8.89,17.7,10.08,26.53a46.64,46.64,0,0,1-3.23,24.52h2.22a48.64,48.64,0,0,0,3.06-24.8c-1.23-9.12-4.63-18.06-10.38-27.34q-2.25-3.61-4.84-7.16h-2.58C1241.49,779,1243.38,781.69,1245.11,784.48Z"/><path d="M1131.49,65.21A142.89,142.89,0,0,1,1160,43.41V41.55h-.53a144.4,144.4,0,0,0-29.3,22.32q-5.57,5.45-10.68,11.19h0a51.18,51.18,0,0,1-5.71-10,68,68,0,0,1-5.23-21.68c0-.33,0-.66-.08-1h-1.87c0,.38.05.77.08,1.15a70.19,70.19,0,0,0,5.38,22.27,54,54,0,0,0,6.15,10.67q-7.29,8.32-13.69,17.28V97a220.62,220.62,0,0,1,14.87-19l.24-.28-.24.28c7,8.61,16.51,14.17,28.48,16.6A103.91,103.91,0,0,0,1160,96.28V94.4a103.47,103.47,0,0,1-11.76-1.62c-11.62-2.36-20.86-7.79-27.59-16.21h0l-.05-.07.06.07Q1125.86,70.74,1131.49,65.21Z"/><path d="M420.34,449.5c-6.66-1.51-13.19-2.84-19.63-4a79.09,79.09,0,0,0-10-23.15c-1.63-2.62-3.37-5.21-5.25-7.77h-2.8c2.23,2.95,4.27,5.93,6.15,8.95a77.54,77.54,0,0,1,9.51,21.54c-12.68-2.23-25-3.79-37.17-4.72v2.24a379.93,379.93,0,0,1,37.73,4.85c.36,1.61.65,3.23.87,4.85a50.72,50.72,0,0,1-3.51,26.59h2.4A52.59,52.59,0,0,0,401.94,452c-.18-1.38-.42-2.75-.7-4.12,6.11,1.12,12.3,2.39,18.61,3.82q3.82.87,7.62,1.8v-2.3C425.1,450.6,422.73,450,420.34,449.5Z"/><path class="cls-1" d="M727.39,561.81l-17,4.76-.65-3,16.92-5.08Z"/><path class="cls-1" d="M733.11,550.85a13.84,13.84,0,0,1-6.49-1.28,8.19,8.19,0,0,1-3.58-4,10.44,10.44,0,0,1-5.36,5,19.21,19.21,0,0,1-7.62,1.53,23.21,23.21,0,0,1-6.08-.8,16.45,16.45,0,0,1-5-2.26l3.07-5.16a8.56,8.56,0,0,0,3.58,1.66,20.44,20.44,0,0,0,4.72.52,22.07,22.07,0,0,0,4-.36,13.69,13.69,0,0,0,3.55-1.13,8.18,8.18,0,0,0,2.54-1.85,4.15,4.15,0,0,0,1-2.54l-3.63-18.94,4.43-3.38,3.39,17.56c.32,1.56.61,2.93.88,4.11a8.35,8.35,0,0,0,1.21,2.94,5.18,5.18,0,0,0,2.14,1.78,8.82,8.82,0,0,0,3.58.6h.24v6Z"/><path class="cls-1" d="M751.89,550.85a12.72,12.72,0,0,1-6.25-1.2,7.13,7.13,0,0,1-3-3.63,9.26,9.26,0,0,1-3.83,3.71,10.76,10.76,0,0,1-4.79,1.12h-.33a4.76,4.76,0,0,1-1.25-.16c-.4-.1-.6-.24-.6-.4v-4.84c0-.21.2-.36.6-.44a6.46,6.46,0,0,1,1.25-.12,9.72,9.72,0,0,0,5.12-1.33A4.86,4.86,0,0,0,741,539v-2.58l4.19-1.53a27,27,0,0,0,.32,4.55,7.39,7.39,0,0,0,1.17,3.1,4.87,4.87,0,0,0,2.33,1.78,11.15,11.15,0,0,0,3.83.56v6Zm-8.87-21-5.32-3.7,4-4.92L747,525Z"/><path class="cls-1" d="M745.76,563.34l3.47-4.43,4.75,3.47,3.38-4,4.76,3.46-3.63,4.35-4.59-3.54-3.31,4.11ZM751,545.45c0-.21.2-.36.6-.44a6.46,6.46,0,0,1,1.25-.12h1.61a11.51,11.51,0,0,0,5-.93,3.06,3.06,0,0,0,1.89-2.94,5.91,5.91,0,0,0-1.17-3.26c-.77-1.15-1.51-2.19-2.21-3.1l4.11-4.43a18,18,0,0,1,3,4.75,15.43,15.43,0,0,1,1.13,5.56q0,10.32-12.09,10.31h-1.29a4.76,4.76,0,0,1-1.25-.16c-.4-.1-.6-.24-.6-.4Z"/><path class="cls-1" d="M786.64,492a9.81,9.81,0,0,1-2.74,3,10,10,0,0,1-3.26,1.49,12.93,12.93,0,0,1-3.59.4,32.9,32.9,0,0,1-3.7-.28c-1.13-.16-2.14-.29-3-.4a13,13,0,0,0-2.46-.08,6.52,6.52,0,0,0-2.14.52,12.2,12.2,0,0,0-2.13,1.25l-2.5-2.9a13.17,13.17,0,0,1,2.86-2.26,8.93,8.93,0,0,1,2.7-1,9.54,9.54,0,0,1,3,0c1.1.16,2.41.37,3.91.64a15.13,15.13,0,0,0,3.67.32,10.17,10.17,0,0,0,2.86-.52,9.62,9.62,0,0,0,2.45-1.25A19.78,19.78,0,0,0,785,489Zm-10.07,57.78-4.11,1.12q-.16-4.35-.28-10.27t-.24-12.53q-.12-6.6-.28-13.42t-.33-13l5.24-2.1Z"/><path class="cls-1" d="M791.51,549.73a17,17,0,0,1-2,7.41,29.83,29.83,0,0,1-4.63,6.41,38.79,38.79,0,0,1-6.08,5.23,51.41,51.41,0,0,1-6.37,3.83l-3.71-4.19A62,62,0,0,0,775,565a41,41,0,0,0,5.48-4.11,24.63,24.63,0,0,0,4.11-4.72,12.85,12.85,0,0,0,2.05-5.32A10.29,10.29,0,0,0,785.5,546a29.34,29.34,0,0,0-2.45-3.95l4-4.59c.69,1,1.31,1.89,1.85,2.78a16.87,16.87,0,0,0,1.69,2.33,8.36,8.36,0,0,0,1.94,1.66,4.78,4.78,0,0,0,2.57.64v6A6.67,6.67,0,0,1,791.51,549.73Z"/><path class="cls-1" d="M795.13,550.85a4.76,4.76,0,0,1-1.25-.16c-.4-.1-.6-.24-.6-.4v-4.84c0-.21.2-.36.6-.44a6.46,6.46,0,0,1,1.25-.12h7.5v6Z"/><path class="cls-1" d="M800.77,545.45c0-.21.2-.36.61-.44a6.39,6.39,0,0,1,1.25-.12H810a27.46,27.46,0,0,0,3.54-.24,15.19,15.19,0,0,0,3.47-.85,7,7,0,0,0,2.66-1.69,3.94,3.94,0,0,0,1-2.86v-.52a1.78,1.78,0,0,0-.08-.53,21.36,21.36,0,0,1-3.39,1.29,12.11,12.11,0,0,1-3.3.49,5.87,5.87,0,0,1-4.07-1.49q-1.65-1.5-1.65-5a15,15,0,0,1,.64-4,19.31,19.31,0,0,1,1.81-4.35,15.13,15.13,0,0,1,2.7-3.51,4.58,4.58,0,0,1,7.09.49,16.32,16.32,0,0,1,2.66,4.59,29.63,29.63,0,0,1,1.58,5.48,27.12,27.12,0,0,1,.52,4.59q0,14.1-14.51,14.1h-8.13a4.71,4.71,0,0,1-1.25-.16c-.41-.1-.61-.24-.61-.4Zm15.64-31.26-5.32-3.71,4-4.91,5.23,3.7ZM815,534.33a7.3,7.3,0,0,0,2.41-.44,12.17,12.17,0,0,0,2.26-1c-.16-.69-.36-1.45-.61-2.25a15.11,15.11,0,0,0-.84-2.22,5.92,5.92,0,0,0-1.13-1.65,2,2,0,0,0-1.45-.64,1.88,1.88,0,0,0-1.25.52,5.67,5.67,0,0,0-1.09,1.33,8.92,8.92,0,0,0-.8,1.77,5.75,5.75,0,0,0-.33,1.86,3,3,0,0,0,.65,1.93A2.62,2.62,0,0,0,815,534.33Z"/><path class="cls-1" d="M583.74,675.65c2.16-1.23,4.52-2.55,7.11-4a83.61,83.61,0,0,0,7.48-4.68,55.6,55.6,0,0,0,6.62-5.44,21.58,21.58,0,0,0,4.63-6.35c-.51.08-1,.13-1.4.17s-.87,0-1.3,0a15.57,15.57,0,0,1-6.24-1.13,11.33,11.33,0,0,1-4.25-3.12,13.13,13.13,0,0,1-2.48-4.68,20.88,20.88,0,0,1-.8-5.92,23.05,23.05,0,0,1,1.07-6.73,22.65,22.65,0,0,1,3.07-6.35,18.26,18.26,0,0,1,4.68-4.68,10.32,10.32,0,0,1,5.92-1.83,9.91,9.91,0,0,1,6.95,2.63,19.63,19.63,0,0,1,4.57,6.51,35.14,35.14,0,0,1,2.48,8.24,46.58,46.58,0,0,1,.75,7.8,35.31,35.31,0,0,1-2.37,13.3A39.07,39.07,0,0,1,614,669.94a49.29,49.29,0,0,1-8.77,8.18,97.91,97.91,0,0,1-10,6.35Zm19.92-37a2.81,2.81,0,0,0-.33,1.29,2.16,2.16,0,0,0,.86,1.83,3.9,3.9,0,0,0,2.37.65,15.7,15.7,0,0,0,3.34-.38,4.87,4.87,0,0,0,2.26-.92,18.5,18.5,0,0,0-.65-2.47,21.4,21.4,0,0,0-1-2.42,5.85,5.85,0,0,0-1.29-1.83,2.32,2.32,0,0,0-1.61-.7,2.89,2.89,0,0,0-2.42,1.56A12.16,12.16,0,0,0,603.66,638.62Z"/><path class="cls-1" d="M657.53,635.07a12.13,12.13,0,0,0-1.07,2.42c-.36,1-.69,2.12-1,3.23a34.51,34.51,0,0,0-.7,3.39,19.35,19.35,0,0,0-.27,2.9,14.23,14.23,0,0,0,.75,4.52,9.93,9.93,0,0,0,2.59,4,13,13,0,0,0,5,2.85,24.85,24.85,0,0,0,7.91,1.08,53.08,53.08,0,0,0,7.59-.59,54,54,0,0,0,7.75-1.72,47.52,47.52,0,0,0,6.73-2.59,12,12,0,0,0,4.41-3.28,2.31,2.31,0,0,0,.59-1,.53.53,0,0,0-.16-.54,1.53,1.53,0,0,0-.86-.16l-4.25-.27q-2.64-.17-5.54-.49t-5.55-.86a12.34,12.34,0,0,1-4.14-1.5,8.28,8.28,0,0,1-3.5-4.09,16.42,16.42,0,0,1-1-6,18.1,18.1,0,0,1,2.31-8.07,37.58,37.58,0,0,1,14.64-15.23,19.58,19.58,0,0,1,9.85-2.75,20.18,20.18,0,0,1,5.92.86,43.77,43.77,0,0,1,4.52,1.62l-4.84,12.91c-.65-.28-1.44-.59-2.37-.91a9.7,9.7,0,0,0-3.23-.49,13.91,13.91,0,0,0-5.06,1,22.11,22.11,0,0,0-4.57,2.42,20.14,20.14,0,0,0-3.66,3.23,12.26,12.26,0,0,0-2.21,3.39L690,635l5.86.64a26.57,26.57,0,0,1,7.48,1.89,9.7,9.7,0,0,1,3.88,3,8.2,8.2,0,0,1,1.5,3.71,30.89,30.89,0,0,1,.27,4.15,12.74,12.74,0,0,1-1.77,6.35,26,26,0,0,1-4.74,5.92,41.4,41.4,0,0,1-6.83,5.16,56.21,56.21,0,0,1-8.13,4.09,54.24,54.24,0,0,1-8.56,2.69,37,37,0,0,1-8.18,1q-8,0-13.13-2.37a23,23,0,0,1-8.29-6.13,21.93,21.93,0,0,1-4.36-8.5,37.61,37.61,0,0,1-1.23-9.48,28.38,28.38,0,0,1,.43-4.79q.42-2.52,1.07-5a44.44,44.44,0,0,1,1.46-4.52,22.18,22.18,0,0,1,1.56-3.39Z"/><path class="cls-1" d="M726.44,631.84c.57.93,1.24,1.95,2,3.06a29.53,29.53,0,0,1,2.15,3.83,27.63,27.63,0,0,1,1.73,4.84,24.26,24.26,0,0,1,.69,6,25.54,25.54,0,0,1-2.36,10.6,47.68,47.68,0,0,1-5.87,9.69,55.92,55.92,0,0,1-7.64,8,45.52,45.52,0,0,1-7.7,5.49l-10.65-8.61c2.72-1.5,5.49-3.19,8.28-5.06a61.1,61.1,0,0,0,7.59-5.91,31.91,31.91,0,0,0,5.55-6.62,13.57,13.57,0,0,0,2.15-7.16,7.3,7.3,0,0,0-.43-2.32,23.12,23.12,0,0,0-1.08-2.53c-.43-.86-.88-1.7-1.34-2.53s-.92-1.56-1.35-2.2Z"/><path class="cls-1" d="M746.72,653a15,15,0,0,1-5.49-4.47,18.65,18.65,0,0,1-3.07-6.35,28,28,0,0,1-1-7.32l-.11-41.12,10.76-4,.11,45.1a6,6,0,0,0,1.56,4q1.56,1.83,5.33,1.83v14A18.28,18.28,0,0,1,746.72,653Z"/><path class="cls-1" d="M801.78,654.66a18.73,18.73,0,0,1-5.44-.76,19.1,19.1,0,0,1-5-2.31,45.12,45.12,0,0,1-5-3.82q-2.58-2.26-5.59-5.38a15.59,15.59,0,0,1-2.15,4.73,12.65,12.65,0,0,1-4.53,3.93,27.66,27.66,0,0,1-7.69,2.64,58.73,58.73,0,0,1-11.57,1,6.17,6.17,0,0,1-1.67-.22q-.81-.21-.81-.54V641.52c0-.28.27-.5.81-.64a6.59,6.59,0,0,1,1.67-.22,63.08,63.08,0,0,0,8.88-.48,16,16,0,0,0,4.73-1.29,3.74,3.74,0,0,0,1.94-1.83,5.79,5.79,0,0,0,.38-2,7.85,7.85,0,0,0-1.94-4.58,46.31,46.31,0,0,0-4.57-5.06c-1.76-1.68-3.54-3.3-5.33-4.84a32.61,32.61,0,0,1-4.09-4l.21-5.81a12.52,12.52,0,0,1,1.56-4.84,15.5,15.5,0,0,1,1.89-2.37c.71-.57,1.86-1.36,3.44-2.37s3.45-2.15,5.6-3.44,4.52-2.64,7.1-4,5.2-2.8,7.86-4.2,5.24-2.7,7.75-3.93,4.81-2.29,6.89-3.23v15.61q-3.76,1.62-7.7,3.5l-7.69,3.71c-2.52,1.23-4.9,2.46-7.16,3.72s-4.33,2.42-6.19,3.5q3.76,3.54,7.59,7.48t8.56,8.66c2,2.08,3.76,3.88,5.27,5.38a45.49,45.49,0,0,0,4.2,3.77,16.37,16.37,0,0,0,3.76,2.26,10.42,10.42,0,0,0,4,.75h.86v14Z"/><path class="cls-1" d="M802.64,654.66a6.17,6.17,0,0,1-1.67-.22q-.81-.21-.81-.54V641.52c0-.28.27-.5.81-.64a6.59,6.59,0,0,1,1.67-.22H813.4v14Z"/><path class="cls-1" d="M813.4,654.66a6.22,6.22,0,0,1-1.67-.22q-.81-.21-.81-.54V641.52c0-.28.27-.5.81-.64a6.65,6.65,0,0,1,1.67-.22h10.76v14Z"/><path class="cls-1" d="M824.16,654.66a6.22,6.22,0,0,1-1.67-.22c-.54-.14-.8-.32-.8-.54V641.52c0-.28.26-.5.8-.64a6.65,6.65,0,0,1,1.67-.22h10.76v14Z"/><path class="cls-1" d="M834.92,654.66a6.1,6.1,0,0,1-1.66-.22q-.81-.21-.81-.54V641.52c0-.28.27-.5.81-.64a6.52,6.52,0,0,1,1.66-.22h10.77v14Z"/><path class="cls-1" d="M892.83,654.66a14.42,14.42,0,0,1-5.27-1,24.24,24.24,0,0,1-4.85-2.59,11.51,11.51,0,0,1-3,5.33,7.09,7.09,0,0,1-5.22,2.1,12.1,12.1,0,0,1-3.66-.65,30.8,30.8,0,0,1-4.25-1.72q-2.21-1.06-4.41-2.42T858,651a17.4,17.4,0,0,1-4.36,2.63,13.74,13.74,0,0,1-5.44,1h-2.47a6.17,6.17,0,0,1-1.67-.22q-.81-.21-.81-.54V641.52c0-.28.27-.5.81-.64a6.59,6.59,0,0,1,1.67-.22h2.47a5.71,5.71,0,0,0,3-.8,9.81,9.81,0,0,0,2.42-2.05,19.66,19.66,0,0,0,2-2.74c.61-1,1.21-2,1.78-2.91q1.29-2.14,2.48-4.14a20.47,20.47,0,0,1,2.58-3.5,12.9,12.9,0,0,1,3-2.42,6.8,6.8,0,0,1,3.5-.92,6.22,6.22,0,0,1,3.23,1,19,19,0,0,1,3.28,2.58,40.12,40.12,0,0,1,3.28,3.61c1.08,1.33,2.16,2.67,3.23,4,.65.86,1.35,1.77,2.1,2.74a18.85,18.85,0,0,0,2.48,2.64,13.59,13.59,0,0,0,3,2,8.66,8.66,0,0,0,3.44.91ZM871,644.43a8.06,8.06,0,0,0,.86.38,1.49,1.49,0,0,0,.86.05,1,1,0,0,0,.65-.48,3,3,0,0,0,.21-1.35,7.06,7.06,0,0,0-.27-1.77,18.36,18.36,0,0,0-.69-2.1c-.29-.72-.58-1.38-.87-2a7,7,0,0,0-.86-1.46c-.5-.57-1-.79-1.45-.64a2.9,2.9,0,0,0-1.24.75,18.78,18.78,0,0,0-1.18,1.56,11.88,11.88,0,0,0-1.62,3.39,21.34,21.34,0,0,0,2.75,2.05A24,24,0,0,0,871,644.43Z"/><path class="cls-1" d="M900.26,640.66a10.07,10.07,0,0,1-1.51-2.74,9.07,9.07,0,0,1-.65-3.28,14.22,14.22,0,0,1,.92-5.17,16.85,16.85,0,0,1,2.42-4.31,16.67,16.67,0,0,1,7.53-5.49l-2.69-1.93,8.4-10.87c2.8,2.36,5.76,5,8.88,8a93.28,93.28,0,0,1,8.66,9.48,52.21,52.21,0,0,1,6.57,10.54,26.69,26.69,0,0,1,2.58,11.36,22.25,22.25,0,0,1-.48,4.63,10.94,10.94,0,0,1-1.67,4,8.84,8.84,0,0,1-7.75,3.88,14.8,14.8,0,0,1-4.14-.65,36.78,36.78,0,0,1-4.42-1.61q-2.2-1-4.36-2c-1.43-.72-2.79-1.36-4.09-1.94a25.07,25.07,0,0,1-10.33,2.16h-11.3a6.22,6.22,0,0,1-1.67-.22q-.81-.21-.81-.54V641.52c0-.28.27-.5.81-.64a6.65,6.65,0,0,1,1.67-.22Zm8.07-7.1a3,3,0,0,0,.64,1.83,8.29,8.29,0,0,0,1.57,1.56,19.19,19.19,0,0,0,2,1.35,17.62,17.62,0,0,0,2,1.07,8,8,0,0,0,2.91-5.6,6.44,6.44,0,0,0-1-3.33,3,3,0,0,0-2.69-1.62,4.84,4.84,0,0,0-1.72.38,6.69,6.69,0,0,0-1.78,1,6.93,6.93,0,0,0-1.4,1.51A3.19,3.19,0,0,0,908.33,633.56ZM925,635.17a23,23,0,0,1-.91,4.09,24.46,24.46,0,0,1-1.46,3.77l3.5,1.83c.83.43,1.46.76,1.89,1a5.34,5.34,0,0,0,.86.38,2,2,0,0,0,.43,0c.79,0,1.18-.5,1.18-1.51a8.82,8.82,0,0,0-1.83-5.22A37.31,37.31,0,0,0,925,635.17Z"/><path class="cls-1" d="M622.18,782.42a14,14,0,0,1-5.54-4.2,23.25,23.25,0,0,1-8.13,5.27,25.4,25.4,0,0,1-9.31,1.83,28.8,28.8,0,0,1-9.42-1.5,22.08,22.08,0,0,1-6.94-3.66l6.89-10.76a7.76,7.76,0,0,0,3.44,1.39,28.77,28.77,0,0,0,6,.54,23.42,23.42,0,0,0,4.14-.37,19.58,19.58,0,0,0,3.83-1.08,12.49,12.49,0,0,0,3-1.67,4.19,4.19,0,0,0,1.56-2.15q-1.19-6.13-2.37-11.46c-.79-3.56-1.58-7.41-2.37-11.58l10-7.1,5.49,28.2a6.84,6.84,0,0,0,2.37,4.25,8.29,8.29,0,0,0,5.27,1.46v14A20.2,20.2,0,0,1,622.18,782.42Z"/><path class="cls-1" d="M633.54,769.83q6.88,0,6.88-2.48a3.1,3.1,0,0,0-.48-1.18c-.32-.58-.72-1.2-1.18-1.89l-1.46-2.1c-.5-.71-.9-1.29-1.18-1.72l8-11.08c.5.64,1.15,1.57,1.94,2.79a38.26,38.26,0,0,1,2.32,4.2,38.94,38.94,0,0,1,2,5.17,19.74,19.74,0,0,1,.86,5.81q0,8.07-4.52,12.27t-13.13,4.2h-3.45a6.22,6.22,0,0,1-1.67-.22c-.54-.14-.8-.32-.8-.54V770.69c0-.29.26-.5.8-.65a6.65,6.65,0,0,1,1.67-.21Zm8.39-24.76-4.25-3c-1.4-1-2.82-2-4.25-3,1.14-1.44,2.2-2.78,3.17-4s2.06-2.6,3.29-4q2.15,1.5,4.14,3c1.33,1,2.71,2,4.14,3Z"/><path class="cls-1" d="M672.86,783.49a34.07,34.07,0,0,1-3.71,9.64,39.59,39.59,0,0,1-6,7.91,53.44,53.44,0,0,1-7.7,6.46,88.22,88.22,0,0,1-8.61,5.27l-10.33-8.39q2.91-1.51,7.37-3.93a60.56,60.56,0,0,0,8.56-5.65,38.73,38.73,0,0,0,7.05-7.21,14.2,14.2,0,0,0,3-8.62,5.84,5.84,0,0,0-.54-2.31,18.23,18.23,0,0,0-1.29-2.42c-.5-.79-1-1.56-1.56-2.32s-1-1.41-1.35-2l9-9.15c.51.87,1.08,1.83,1.73,2.91a21.77,21.77,0,0,0,2.1,3,12.78,12.78,0,0,0,2.42,2.26,4.9,4.9,0,0,0,2.9.92v14A13.1,13.1,0,0,1,672.86,783.49Z"/><path class="cls-1" d="M679.32,769.83q6.88,0,6.89-2.48a3.18,3.18,0,0,0-.49-1.18c-.32-.58-.72-1.2-1.18-1.89l-1.46-2.1c-.5-.71-.89-1.29-1.18-1.72l8-11.08c.51.64,1.15,1.57,1.94,2.79a38.26,38.26,0,0,1,2.32,4.2,38.94,38.94,0,0,1,2,5.17,19.74,19.74,0,0,1,.86,5.81q0,8.07-4.52,12.27t-13.13,4.2h-3.45a6.22,6.22,0,0,1-1.67-.22c-.53-.14-.8-.32-.8-.54V770.69c0-.29.27-.5.8-.65a6.65,6.65,0,0,1,1.67-.21Zm6,36-4.25-3-4.25-3c1.15-1.43,2.21-2.78,3.18-4s2.06-2.61,3.28-4q2.15,1.5,4.14,3t4.15,3Z"/><path class="cls-1" d="M753.92,783.82a25.13,25.13,0,0,1-6.57-.76,14.41,14.41,0,0,1-4.84-2.25,13.52,13.52,0,0,1-3.44-3.77,23.91,23.91,0,0,1-2.37-5.17,34,34,0,0,1-5.81,2,22.62,22.62,0,0,1-5.39.75q-5.7,0-8.34-3.66a14.68,14.68,0,0,1-2.63-8.83,13.64,13.64,0,0,1,1.61-6.56,25.25,25.25,0,0,1,4-5.55,32.85,32.85,0,0,1,5.27-4.46,54.25,54.25,0,0,1,5.33-3.23l-.65-4,9.91-7.32,5.7,31.86a9.94,9.94,0,0,0,2.26,5.22q1.62,1.67,5.92,1.67Zm-20-23.36a8.46,8.46,0,0,0-.16-1.24c-.11-.61-.24-1.29-.38-2s-.27-1.44-.38-2a9.33,9.33,0,0,0-.26-1.23c-.43.21-1.12.61-2.05,1.18a22.62,22.62,0,0,0-2.74,2,15.66,15.66,0,0,0-2.32,2.37,2.85,2.85,0,0,0-.75,2.31c.07.65.52,1,1.34,1a10.46,10.46,0,0,0,2.8-.33,18.32,18.32,0,0,0,3-1A8.77,8.77,0,0,0,733.9,760.46Z"/><path class="cls-1" d="M791.27,783.82q-7,0-11-1.78a17.27,17.27,0,0,1-6.57-5q-1.83,1.5-3.66,2.8a18.68,18.68,0,0,1-4,2.15,26.45,26.45,0,0,1-4.9,1.34,34.8,34.8,0,0,1-6.24.49h-1a6.17,6.17,0,0,1-1.67-.22q-.81-.21-.81-.54V770.69c0-.29.27-.5.81-.65a6.59,6.59,0,0,1,1.67-.21h1a27.11,27.11,0,0,0,7.42-.87,17.23,17.23,0,0,0,5.17-2.36c-.79-.43-1.9-1-3.34-1.73a8.57,8.57,0,0,0-4.62-.86,21.22,21.22,0,0,1,2.15-7.85,19.11,19.11,0,0,1,4.09-5.49,15.67,15.67,0,0,1,5.11-3.18,15.27,15.27,0,0,1,5.33-1,19.55,19.55,0,0,1,4.95.64,14.38,14.38,0,0,1,4.47,2,10.24,10.24,0,0,1,3.23,3.6,12.47,12.47,0,0,1,1.34,5.6,10.53,10.53,0,0,1-1.67,6.51,18.72,18.72,0,0,1-4.25,4.36,27.65,27.65,0,0,0,7,.65h4.3v14Z"/><path class="cls-1" d="M824.27,769.83a6.3,6.3,0,0,0,3-.6,4.73,4.73,0,0,0,1.72-1.4,4.61,4.61,0,0,0,.81-1.61,5.66,5.66,0,0,0,.22-1.35v-.8c0-.4,0-.81-.06-1.24s0-.84,0-1.24v-.91l9.36-2.69a24.77,24.77,0,0,1,.22,3.6,16,16,0,0,0,.48,4,7,7,0,0,0,1.73,3.18,5.05,5.05,0,0,0,3.82,1.29,6.46,6.46,0,0,0,3-.59,5,5,0,0,0,1.72-1.4,5.19,5.19,0,0,0,.81-1.61,5.58,5.58,0,0,0,.21-1.35v-.86c0-.43,0-.88,0-1.35s-.06-.89-.06-1.29v-.91l9.37-2.69a26.44,26.44,0,0,1,.21,3.6,16.26,16.26,0,0,0,.49,4,7.34,7.34,0,0,0,1.72,3.28,4.93,4.93,0,0,0,3.82,1.35,10.22,10.22,0,0,0,1.4-.11,5.26,5.26,0,0,0,1.45-.43,3.71,3.71,0,0,0,1.19-.86,1.88,1.88,0,0,0,.48-1.29,8.64,8.64,0,0,0-.75-3.93,12.55,12.55,0,0,0-1.83-2.64l8.29-9.26a19.51,19.51,0,0,1,3.33,5.6,26.55,26.55,0,0,1,1.72,9.9,20.37,20.37,0,0,1-1.34,7.86,14.87,14.87,0,0,1-3.55,5.27,13.27,13.27,0,0,1-5,3,17.16,17.16,0,0,1-5.44.92,21.16,21.16,0,0,1-5.6-.76,10.55,10.55,0,0,1-5.06-3.22,13.67,13.67,0,0,1-4.41,2.74,16.67,16.67,0,0,1-6.13,1,21.51,21.51,0,0,1-5.6-.75,10.53,10.53,0,0,1-5.06-3.23,13.86,13.86,0,0,1-4.41,2.75,16.69,16.69,0,0,1-6.14,1h-31.1a6.17,6.17,0,0,1-1.67-.22q-.81-.21-.81-.54V770.69c0-.29.27-.5.81-.65a6.59,6.59,0,0,1,1.67-.21Z"/><path class="cls-1" d="M915,783.82a30.36,30.36,0,0,1-3.71,9.79,40.09,40.09,0,0,1-6.3,8,56.94,56.94,0,0,1-8,6.57q-4.35,3-8.66,5.43l-11.73-8.82q3.33-1.95,7.26-4.15a80.16,80.16,0,0,0,7.54-4.79,59.41,59.41,0,0,0,6.67-5.54,21,21,0,0,0,4.68-6.51h-2.8q-6.67,0-10.27-3.5t-3.61-10.39a22.25,22.25,0,0,1,1.13-6.83,24.6,24.6,0,0,1,3.12-6.41A17.62,17.62,0,0,1,895,752,10.8,10.8,0,0,1,907,751.9a16.74,16.74,0,0,1,4.53,4.58,28.26,28.26,0,0,1,3.12,6.3,38.71,38.71,0,0,1,1.77,7.05H918v14ZM901,763a3.91,3.91,0,0,0-3.07,1.67,5.55,5.55,0,0,0-1.34,3.5c0,1.08.75,1.62,2.26,1.62H906c-.14-.72-.34-1.49-.59-2.32a9.47,9.47,0,0,0-1-2.21,5.76,5.76,0,0,0-1.45-1.61A3.17,3.17,0,0,0,901,763Z"/><path class="cls-1" d="M921.46,769.83q6.88,0,6.89-2.48a3,3,0,0,0-.49-1.18c-.32-.58-.71-1.2-1.18-1.89l-1.45-2.1c-.51-.71-.9-1.29-1.19-1.72l8-11.08c.5.64,1.15,1.57,1.94,2.79a38.29,38.29,0,0,1,2.31,4.2,37.61,37.61,0,0,1,2,5.17,19.74,19.74,0,0,1,.86,5.81q0,8.07-4.52,12.27t-13.13,4.2H918a6.17,6.17,0,0,1-1.67-.22q-.81-.21-.81-.54V770.69c0-.29.27-.5.81-.65a6.59,6.59,0,0,1,1.67-.21ZM941.37,737c-1,1.43-2,2.78-3,4s-2,2.6-3,4l-6.57-5-4.63,5.49c-1.44-1-2.83-2-4.2-2.91s-2.76-1.9-4.19-2.9c1-1.37,2-2.71,3.12-4s2.11-2.64,3.12-3.93l6.89,5.38,4.09-6Z"/><path class="cls-1" d="M582.84,873.42a15.06,15.06,0,0,1,1.53-6.89q1.53-3,3.39-6.08a3.78,3.78,0,0,1-1.13-.89l3.14-6q11.85,9.27,11.85,17.49a14.33,14.33,0,0,1-.65,4.31A10.22,10.22,0,0,1,599,879a9.16,9.16,0,0,1-3.19,2.42,10.06,10.06,0,0,1-4.31.89,8.22,8.22,0,0,1-6.48-2.5A9.24,9.24,0,0,1,582.84,873.42Zm13.62-2.33a6.88,6.88,0,0,0-1.77-4.52,34.4,34.4,0,0,0-3.87-3.86,33.44,33.44,0,0,0-2.38,4.47,11.4,11.4,0,0,0-1.09,4.55,3,3,0,0,0,1.41,2.74,5.61,5.61,0,0,0,3.15.85,5.38,5.38,0,0,0,3.14-1.09A3.67,3.67,0,0,0,596.46,871.09Z"/><path class="cls-1" d="M609.52,878.62a9.83,9.83,0,0,1-3.5-4.07,16.71,16.71,0,0,1-1.45-5.64c-.19-2.1-.28-4.16-.28-6.2v-31l5.07-3.38-.08,36.9a32.62,32.62,0,0,0,.16,3.31,7.78,7.78,0,0,0,.85,2.9,5,5,0,0,0,2.05,2.05,7.64,7.64,0,0,0,3.71.77v6A11.61,11.61,0,0,1,609.52,878.62Z"/><path class="cls-1" d="M649.56,880.19a10.09,10.09,0,0,1-3.91-.72,15.18,15.18,0,0,1-3.59-2.22A47.71,47.71,0,0,1,638,873.5c-1.47-1.5-3.26-3.25-5.35-5.23a13.06,13.06,0,0,1-1.09,5.64,9.85,9.85,0,0,1-3,3.66,12.13,12.13,0,0,1-4.52,2,25.38,25.38,0,0,1-5.68.6h-.32a4.71,4.71,0,0,1-1.25-.16c-.4-.11-.6-.24-.6-.4v-4.84c0-.21.2-.36.6-.44a6.39,6.39,0,0,1,1.25-.12q11,0,11-6.45a7.76,7.76,0,0,0-1.37-4.27,28.25,28.25,0,0,0-3.18-4,47.47,47.47,0,0,0-3.63-3.42,23.21,23.21,0,0,1-2.7-2.58c0-1.93.13-3.37.24-4.31s.27-1.49.49-1.65a155.12,155.12,0,0,1,16.31-9.84,173.89,173.89,0,0,1,16.24-7.49l-.89,6.12q-1.29.57-3.54,1.62c-1.51.7-3.17,1.49-5,2.37s-3.72,1.83-5.68,2.82-3.84,2-5.64,2.91-3.4,1.82-4.79,2.65a35,35,0,0,0-3.15,2.06q6.28,5.88,10.44,10.27t7.17,7.34a29.61,29.61,0,0,0,5.52,4.39,10.86,10.86,0,0,0,5.56,1.45h2.26v6ZM647.3,828.3c-2.09,1-5.51,2.64-10.23,5s-10.83,5.58-18.29,9.55l.32-3.54q8.29-4.68,15.35-8.42t13.09-6.73Z"/><path class="cls-1" d="M646.81,874.79c0-.21.2-.36.61-.44a6.39,6.39,0,0,1,1.25-.12h1.61a11.49,11.49,0,0,0,5-.93,3.08,3.08,0,0,0,1.9-2.94A5.88,5.88,0,0,0,656,867.1c-.78-1.16-1.52-2.19-2.22-3.11l4.11-4.43a17.82,17.82,0,0,1,3,4.76,15.17,15.17,0,0,1,1.13,5.56q0,10.3-12.08,10.31h-1.29a4.71,4.71,0,0,1-1.25-.16c-.41-.11-.61-.24-.61-.4Zm9.51-19.58L651,851.5l4-4.91,5.24,3.71Z"/><path class="cls-1" d="M741.31,880.19a10.13,10.13,0,0,1-3.91-.72,14.57,14.57,0,0,1-3.54-2.22,51.09,51.09,0,0,1-4-3.75c-1.48-1.5-3.26-3.25-5.36-5.23v.4a7.79,7.79,0,0,1-1.37,4.55,12.59,12.59,0,0,1-3.63,3.43,22.89,22.89,0,0,1-5.15,2.41,48.59,48.59,0,0,1-6,1.58,55.11,55.11,0,0,1-6.12.84c-2,.16-3.83.24-5.44.24-2.26-.05-4.62-.19-7.09-.4a24.59,24.59,0,0,1-6.81-1.53,12.25,12.25,0,0,1-5.08-3.59,9.85,9.85,0,0,1-2-6.48,12,12,0,0,1,.68-4.07,13.38,13.38,0,0,1,1.82-3.43l3.78,1.13a12.26,12.26,0,0,0-1.2,2.9,9.81,9.81,0,0,0-.33,2.42,4.84,4.84,0,0,0,1.74,4,11.16,11.16,0,0,0,4.27,2.09,24.78,24.78,0,0,0,5.52.81q3,.12,5.4.12c1.34,0,2.86-.15,4.55-.28s3.4-.34,5.12-.61,3.38-.6,5-1a23.32,23.32,0,0,0,4.35-1.54,11,11,0,0,0,3.11-2.09,3.83,3.83,0,0,0,1.16-2.78,8.49,8.49,0,0,0-1.53-4.15,26.72,26.72,0,0,0-3.14-3.87q-1.77-1.82-3.51-3.34c-1.15-1-2-1.86-2.61-2.5,0-1.93.13-3.37.24-4.31s.29-1.49.56-1.65a139.65,139.65,0,0,1,16.2-9.84q8.53-4.43,16.2-7.49l-.81,6.12c-.81.38-2,.92-3.51,1.62s-3.21,1.49-5,2.37-3.74,1.83-5.72,2.82-3.87,2-5.64,2.91-3.38,1.82-4.8,2.65a24.75,24.75,0,0,0-3.1,2.06q6.29,5.88,10.39,10.27t7.18,7.34a30.37,30.37,0,0,0,5.56,4.39,10.67,10.67,0,0,0,5.48,1.45h2.25v6Z"/><path class="cls-1" d="M738.33,892.68l3.47-4.43,4.75,3.47,3.38-4,4.76,3.46-3.63,4.35L746.47,892l-3.3,4.11Zm5.24-17.89c0-.21.2-.36.6-.44a6.46,6.46,0,0,1,1.25-.12H747a11.51,11.51,0,0,0,5-.93,3.08,3.08,0,0,0,1.89-2.94,5.88,5.88,0,0,0-1.17-3.26c-.77-1.16-1.51-2.19-2.21-3.11l4.11-4.43a18.07,18.07,0,0,1,3,4.76,15.38,15.38,0,0,1,1.13,5.56q0,10.3-12.09,10.31h-1.29a4.76,4.76,0,0,1-1.25-.16c-.4-.11-.6-.24-.6-.4Z"/><path class="cls-1" d="M844.35,880.19a8.5,8.5,0,0,1-4.71-1.09,5.63,5.63,0,0,1-2.3-3,6.57,6.57,0,0,1-3.1,3.27,10.13,10.13,0,0,1-4.31.92,9.83,9.83,0,0,1-4.55-1,7.78,7.78,0,0,1-3.27-3.14,6.61,6.61,0,0,1-3.1,3.1,9.64,9.64,0,0,1-4.47,1.09,11.19,11.19,0,0,1-2.34-.24,6.78,6.78,0,0,1-2.26-1,20.8,20.8,0,0,1-1.08,8.06,20.37,20.37,0,0,1-4,6.89,19.47,19.47,0,0,1-6.61,4.84,21.37,21.37,0,0,1-9,1.81c-4.2,0-7.59-.89-10.2-2.66a15,15,0,0,1-5.6-6.85,18.64,18.64,0,0,1-1.13-9.19,25.74,25.74,0,0,1,3.23-9.75L779.4,874a33.67,33.67,0,0,0-1.69,5.52,18.53,18.53,0,0,0-.4,5,9.94,9.94,0,0,0,2.13,5.77,11.43,11.43,0,0,0,4.64,3.38,15.67,15.67,0,0,0,6,1,16.53,16.53,0,0,0,6.13-1.25,14.81,14.81,0,0,0,5.07-3.51,11.55,11.55,0,0,0,2.9-5.68,17,17,0,0,0-.24-7.13,20.85,20.85,0,0,0-3.22-7.13l4.67-3.39a25,25,0,0,0,3.63,5.4,6.94,6.94,0,0,0,5,2.18h1a4.88,4.88,0,0,0,3.91-1.45c.83-1,1.25-2.79,1.25-5.48v-.65l4.11-1.53a26.55,26.55,0,0,0,.2,3.35,9.61,9.61,0,0,0,.8,2.94,5.38,5.38,0,0,0,1.7,2.09,4.79,4.79,0,0,0,2.94.81,5.69,5.69,0,0,0,2.9-.65,4.36,4.36,0,0,0,1.73-1.73,7.78,7.78,0,0,0,.85-2.46,16.26,16.26,0,0,0,.24-2.82l3.79-1.45c0,1.35,0,2.57.16,3.67a8.21,8.21,0,0,0,.76,2.86,4.17,4.17,0,0,0,1.82,1.85,6.9,6.9,0,0,0,3.3.65h.65v6Z"/><path class="cls-1" d="M844.19,874.79c0-.21.2-.36.61-.44a6.28,6.28,0,0,1,1.24-.12h5.24a29.45,29.45,0,0,0,6.77-.69,31.07,31.07,0,0,0,5.4-1.77,54,54,0,0,0,4.88-2.42c1.58-.88,3.29-1.73,5.11-2.54l-4.91-2.09L865,863.23c-1-.4-1.77-.71-2.42-.93A5.27,5.27,0,0,0,861,862a6.92,6.92,0,0,0-2.82.69,8.28,8.28,0,0,0-2.9,2.29l-3.63-1.61a15.68,15.68,0,0,1,4.4-5.6,7.68,7.68,0,0,1,4.39-1.81,12.44,12.44,0,0,1,5.56,1.49q3,1.49,6.85,3c1.18.54,2.25,1,3.22,1.33a24,24,0,0,0,2.94.85,29,29,0,0,0,3.23.48c1.15.11,2.53.16,4.15.16l-1.37,5.8c-1.08,0-2.06,0-2.95.12s-1.7.18-2.45.28a16.5,16.5,0,0,0-6.21,2.26q-2.9,1.77-6.08,3.63a50.08,50.08,0,0,1-7,3.34,24.84,24.84,0,0,1-9.07,1.49H846a4.63,4.63,0,0,1-1.24-.16c-.41-.11-.61-.24-.61-.4Z"/><path class="cls-1" d="M910.16,879.06a15.25,15.25,0,0,1-1.85,7.26,30.06,30.06,0,0,1-4.68,6.44,40,40,0,0,1-6.16,5.32,51.3,51.3,0,0,1-6.41,3.87l-3.71-4.19a59.07,59.07,0,0,0,6.41-3.55,39.69,39.69,0,0,0,5.76-4.39,22.64,22.64,0,0,0,4.19-5.08,10.85,10.85,0,0,0,1.61-5.68,9.24,9.24,0,0,0-1.2-4.51q-1.22-2.17-2.5-4l4.27-4.27a27.71,27.71,0,0,1,3.26,6.37A20,20,0,0,1,910.16,879.06Z"/><path class="cls-1" d="M926.55,880.19a26.55,26.55,0,0,1-6.17-.72,16.15,16.15,0,0,1-5.36-2.34l3.06-5.16a9.29,9.29,0,0,0,4.19,1.86,27.39,27.39,0,0,0,4.68.4c1,0,2-.05,3.18-.16a12.13,12.13,0,0,0,3.22-.73,6.94,6.94,0,0,0,2.54-1.61,3.81,3.81,0,0,0,1.05-2.82,7.14,7.14,0,0,0-1.25-4,17.29,17.29,0,0,0-3-3.46,30.34,30.34,0,0,0-3.79-2.86c-1.34-.86-2.5-1.59-3.46-2.18l2.42-6.12a60.68,60.68,0,0,1,4.95,3.74,30.79,30.79,0,0,1,4.35,4.43,22.47,22.47,0,0,1,3.06,5.12,14.84,14.84,0,0,1,1.17,5.88,8.63,8.63,0,0,1-1.41,5.08,11.33,11.33,0,0,1-3.58,3.3,14.93,14.93,0,0,1-4.8,1.82A25.51,25.51,0,0,1,926.55,880.19Z"/><path class="cls-1" d="M881.43,887l-15.54,4.35-.59-2.73L880.77,884Z"/><path class="cls-1" d="M661.73,887l-15.54,4.35-.59-2.73L661.07,884Z"/></svg>