<svg id="Layer_1" data-name="Layer 1" xmlns="http://www.w3.org/2000/svg" viewBox="0 0 460.79 79.5"><defs><style>.cls-1{fill:#fff;}.cls-2{fill:#006588;}</style></defs><path class="cls-1" d="M0,2.07H11.34a22.29,22.29,0,0,1,4.49.43A10.36,10.36,0,0,1,19.51,4,7.46,7.46,0,0,1,22,6.84a9.69,9.69,0,0,1,.93,4.5,10.51,10.51,0,0,1-.86,4.49,7.41,7.41,0,0,1-2.37,2.88,9.77,9.77,0,0,1-3.58,1.54,21.15,21.15,0,0,1-4.49.45H6.73V32.6H0ZM6.73,15h4.48A8.31,8.31,0,0,0,13,14.83a4.44,4.44,0,0,0,1.51-.58,3,3,0,0,0,1.07-1.12A3.46,3.46,0,0,0,16,11.34a3,3,0,0,0-.54-1.88A3.53,3.53,0,0,0,14,8.37a5.85,5.85,0,0,0-1.88-.5,19.69,19.69,0,0,0-2-.11H6.73Z"/><path class="cls-1" d="M26.35,11.64h6.46V15h.09a7.83,7.83,0,0,1,2.46-2.91,6.19,6.19,0,0,1,3.58-1c.37,0,.75,0,1.12.05a6.15,6.15,0,0,1,1,.17v5.91a10.11,10.11,0,0,0-1.35-.32,8.06,8.06,0,0,0-1.41-.11,6.8,6.8,0,0,0-2.93.52,3.84,3.84,0,0,0-1.66,1.44A5.4,5.4,0,0,0,33,21a20.72,20.72,0,0,0-.18,2.85V32.6H26.35Z"/><path class="cls-1" d="M43.47,5a3.6,3.6,0,0,1,1.1-2.65,3.74,3.74,0,0,1,5.3,0A3.64,3.64,0,0,1,51,5a3.65,3.65,0,0,1-1.1,2.66,3.74,3.74,0,0,1-5.3,0A3.61,3.61,0,0,1,43.47,5Zm.51,6.6h6.47v21H44Z"/><path class="cls-1" d="M55.11,11.64h6.21v2.85h.08a5.29,5.29,0,0,1,.87-1.21A6.53,6.53,0,0,1,63.6,12.2a8,8,0,0,1,1.77-.77,7.42,7.42,0,0,1,2.16-.31,8.25,8.25,0,0,1,3.9.91A5.71,5.71,0,0,1,74,14.88,6.94,6.94,0,0,1,76.71,12a8.13,8.13,0,0,1,3.93-.87,7.91,7.91,0,0,1,3.55.72,5.74,5.74,0,0,1,2.29,1.94,8.29,8.29,0,0,1,1.21,2.89,16.68,16.68,0,0,1,.36,3.55V32.6H81.58V20.4A4.81,4.81,0,0,0,81,17.88a2.36,2.36,0,0,0-2.22-1.06,4.38,4.38,0,0,0-1.88.36,3.15,3.15,0,0,0-1.2,1A4,4,0,0,0,75,19.71a8.17,8.17,0,0,0-.19,1.81V32.6H68.35V21.52c0-.38,0-.84,0-1.38a5.54,5.54,0,0,0-.3-1.55,2.89,2.89,0,0,0-.84-1.25,2.45,2.45,0,0,0-1.7-.52,4,4,0,0,0-2,.45,3,3,0,0,0-1.18,1.21,4.65,4.65,0,0,0-.54,1.7,14,14,0,0,0-.13,2V32.6H55.11Z"/><path class="cls-1" d="M105.78,30h-.09a6.06,6.06,0,0,1-2.87,2.41,10,10,0,0,1-6.6.33,7,7,0,0,1-2.39-1.23,5.91,5.91,0,0,1-1.64-2,6.21,6.21,0,0,1-.6-2.8,6.35,6.35,0,0,1,.67-3.06,5.83,5.83,0,0,1,1.81-2.07,8.8,8.8,0,0,1,2.61-1.27,17.66,17.66,0,0,1,3-.67,27.87,27.87,0,0,1,3.15-.26c1,0,2,0,2.91,0a3.36,3.36,0,0,0-1.23-2.74,4.42,4.42,0,0,0-2.91-1,6.36,6.36,0,0,0-2.91.67A8,8,0,0,0,96.38,18l-3.45-3.54A11.78,11.78,0,0,1,97.15,12a15.14,15.14,0,0,1,5-.85,12.93,12.93,0,0,1,4.68.72,6.75,6.75,0,0,1,2.93,2.09,8,8,0,0,1,1.54,3.38,22.83,22.83,0,0,1,.43,4.64V32.6h-6Zm-1.6-6.55q-.74,0-1.83.06a9.14,9.14,0,0,0-2.11.37,4.67,4.67,0,0,0-1.73.9,2.09,2.09,0,0,0-.71,1.68,1.85,1.85,0,0,0,1,1.73,4.18,4.18,0,0,0,2.07.56,6.58,6.58,0,0,0,1.83-.26,5.59,5.59,0,0,0,1.58-.73,3.65,3.65,0,0,0,1.1-1.21,3.51,3.51,0,0,0,.41-1.73V23.42Z"/><path class="cls-1" d="M115.78,11.64h6.47V15h.08a7.83,7.83,0,0,1,2.46-2.91,6.19,6.19,0,0,1,3.58-1c.37,0,.75,0,1.12.05a6.27,6.27,0,0,1,1,.17v5.91a10.25,10.25,0,0,0-1.36-.32,7.94,7.94,0,0,0-1.4-.11,6.82,6.82,0,0,0-2.94.52,3.9,3.9,0,0,0-1.66,1.44,5.71,5.71,0,0,0-.75,2.22,22.52,22.52,0,0,0-.17,2.85V32.6h-6.47Z"/><path class="cls-1" d="M132.9,5A3.64,3.64,0,0,1,134,2.39a3.74,3.74,0,0,1,5.3,0A3.6,3.6,0,0,1,140.4,5a3.61,3.61,0,0,1-1.1,2.66,3.74,3.74,0,0,1-5.3,0A3.65,3.65,0,0,1,132.9,5Zm.52,6.6h6.46v21h-6.46Z"/><path class="cls-1" d="M144.63,0h6.47V32.6h-6.47Z"/><path class="cls-1" d="M167.83,36c-.43,1.12-.85,2.11-1.25,3A7.31,7.31,0,0,1,165,41.16a5.9,5.9,0,0,1-2.34,1.34,12.81,12.81,0,0,1-3.76.45,15.17,15.17,0,0,1-4.83-.78l.87-5.3a7.39,7.39,0,0,0,3,.65,5.46,5.46,0,0,0,1.76-.24,3.07,3.07,0,0,0,1.15-.69,3.82,3.82,0,0,0,.75-1.1c.2-.43.42-.94.65-1.51l.47-1.21L153.6,11.64h7L166,25.48h.09l4.61-13.84h6.64Z"/><path class="cls-1" d="M192.06,5a3.64,3.64,0,0,1,1.1-2.65,3.74,3.74,0,0,1,5.3,0A3.6,3.6,0,0,1,199.56,5a3.61,3.61,0,0,1-1.1,2.66,3.74,3.74,0,0,1-5.3,0A3.65,3.65,0,0,1,192.06,5Zm.52,6.6h6.47v21h-6.47Z"/><path class="cls-1" d="M218,16.82h-5.7v7a12.71,12.71,0,0,0,.09,1.58,3.3,3.3,0,0,0,.39,1.23,1.94,1.94,0,0,0,.92.79,4.12,4.12,0,0,0,1.67.28,11.24,11.24,0,0,0,1.35-.1,2.32,2.32,0,0,0,1.28-.5v5.39a10,10,0,0,1-2.25.52,22.09,22.09,0,0,1-2.28.13,12.45,12.45,0,0,1-3-.35,6.74,6.74,0,0,1-2.41-1.1,5.11,5.11,0,0,1-1.62-2,6.66,6.66,0,0,1-.58-2.93v-10h-4.14V11.64h4.14V5.43h6.46v6.21H218Z"/><path class="cls-1" d="M226.17,14.23h-5.52l3.19-12.16h6.21Z"/><path class="cls-1" d="M242.68,17.81A4.55,4.55,0,0,0,238.93,16a3.52,3.52,0,0,0-1.59.39,1.37,1.37,0,0,0-.78,1.34,1.21,1.21,0,0,0,.8,1.14,11.06,11.06,0,0,0,2,.65l2.63.6a10.09,10.09,0,0,1,2.63,1,5.86,5.86,0,0,1,2,1.88,5.54,5.54,0,0,1,.8,3.17,5.87,5.87,0,0,1-.88,3.34,6.75,6.75,0,0,1-2.27,2.11,9.39,9.39,0,0,1-3.1,1.12,18.14,18.14,0,0,1-3.41.33,16.41,16.41,0,0,1-4.44-.63,8.17,8.17,0,0,1-3.79-2.22l3.92-4.35a6.6,6.6,0,0,0,2,1.7,5.41,5.41,0,0,0,2.57.58,6.18,6.18,0,0,0,2-.32,1.2,1.2,0,0,0,.9-1.19,1.32,1.32,0,0,0-.79-1.23,9.21,9.21,0,0,0-2-.69l-2.63-.6a10.61,10.61,0,0,1-2.63-1,5.48,5.48,0,0,1-2-1.83,5.62,5.62,0,0,1-.8-3.17,6.3,6.3,0,0,1,.76-3.19,6.55,6.55,0,0,1,2-2.2,8.39,8.39,0,0,1,2.83-1.27,12.61,12.61,0,0,1,3.23-.42,15.26,15.26,0,0,1,4.18.61,7.78,7.78,0,0,1,3.58,2.15Z"/><path class="cls-1" d="M276.71,30h-.09a6,6,0,0,1-2.87,2.41,9.94,9.94,0,0,1-6.59.33,7,7,0,0,1-2.4-1.23,6,6,0,0,1-1.64-2,6.21,6.21,0,0,1-.6-2.8,6.35,6.35,0,0,1,.67-3.06A5.83,5.83,0,0,1,265,21.52a8.8,8.8,0,0,1,2.61-1.27,17.66,17.66,0,0,1,3-.67,27.87,27.87,0,0,1,3.15-.26c1.05,0,2,0,2.91,0a3.36,3.36,0,0,0-1.23-2.74,4.42,4.42,0,0,0-2.91-1,6.36,6.36,0,0,0-2.91.67A8,8,0,0,0,267.31,18l-3.45-3.54A11.78,11.78,0,0,1,268.08,12a15.14,15.14,0,0,1,5-.85,12.93,12.93,0,0,1,4.68.72,6.78,6.78,0,0,1,2.94,2.09,8.15,8.15,0,0,1,1.53,3.38,22.83,22.83,0,0,1,.43,4.64V32.6h-6Zm-1.6-6.55q-.74,0-1.83.06a9.14,9.14,0,0,0-2.11.37,4.75,4.75,0,0,0-1.73.9,2.09,2.09,0,0,0-.71,1.68,1.85,1.85,0,0,0,1,1.73,4.18,4.18,0,0,0,2.07.56,6.58,6.58,0,0,0,1.83-.26,5.59,5.59,0,0,0,1.58-.73,3.65,3.65,0,0,0,1.1-1.21,3.51,3.51,0,0,0,.41-1.73V23.42Z"/><path class="cls-1" d="M287.31,0h6.47V13.88h.09a6.08,6.08,0,0,1,2.87-2.13,11,11,0,0,1,3.77-.63,8.62,8.62,0,0,1,4,.93,9.36,9.36,0,0,1,3,2.48,11.46,11.46,0,0,1,1.89,3.56,13.1,13.1,0,0,1,.67,4.2,12.43,12.43,0,0,1-.73,4.36,10.1,10.1,0,0,1-2.09,3.43A9.45,9.45,0,0,1,304,32.32a10.8,10.8,0,0,1-4.22.8,7.29,7.29,0,0,1-2.12-.3,9.42,9.42,0,0,1-1.83-.78A7.91,7.91,0,0,1,294.36,31a7.32,7.32,0,0,1-1-1.14h-.09V32.6h-5.95Zm5.95,22.12A5.46,5.46,0,0,0,294.62,26a5.7,5.7,0,0,0,7.64,0,5.45,5.45,0,0,0,1.35-3.84,5.45,5.45,0,0,0-1.35-3.84,5.73,5.73,0,0,0-7.64,0A5.46,5.46,0,0,0,293.26,22.12Z"/><path class="cls-1" d="M313.1,22.12a10.94,10.94,0,0,1,.91-4.53,10.44,10.44,0,0,1,2.48-3.47,10.94,10.94,0,0,1,3.7-2.22,13.66,13.66,0,0,1,9.1,0A11.08,11.08,0,0,1,333,14.12a10.44,10.44,0,0,1,2.48,3.47,11.11,11.11,0,0,1,.91,4.53,11,11,0,0,1-.91,4.53A10.34,10.34,0,0,1,333,30.12a11.08,11.08,0,0,1-3.71,2.22,13.66,13.66,0,0,1-9.1,0,10.94,10.94,0,0,1-3.7-2.22A10.34,10.34,0,0,1,314,26.65,10.88,10.88,0,0,1,313.1,22.12Zm6.47,0A5.42,5.42,0,0,0,320.93,26a5.69,5.69,0,0,0,7.63,0,5.46,5.46,0,0,0,1.36-3.84,5.46,5.46,0,0,0-1.36-3.84,5.71,5.71,0,0,0-7.63,0A5.42,5.42,0,0,0,319.57,22.12Z"/><path class="cls-1" d="M360.36,32.6h-6.21V29.75h-.08a7.34,7.34,0,0,1-.89,1.21A5.86,5.86,0,0,1,351.87,32a8,8,0,0,1-1.77.78,7.42,7.42,0,0,1-2.16.3,9,9,0,0,1-4-.76,5.69,5.69,0,0,1-2.37-2.09,8.25,8.25,0,0,1-1.12-3.15,25.18,25.18,0,0,1-.28-3.92V11.64h6.47V21.91c0,.6,0,1.22.06,1.87a6.25,6.25,0,0,0,.39,1.79,3.18,3.18,0,0,0,1,1.34,3.13,3.13,0,0,0,1.92.52,3.94,3.94,0,0,0,2-.46,3,3,0,0,0,1.18-1.2,4.7,4.7,0,0,0,.54-1.71,14,14,0,0,0,.13-2V11.64h6.47Z"/><path class="cls-1" d="M379.2,16.82h-5.69v7a12.71,12.71,0,0,0,.09,1.58,3.3,3.3,0,0,0,.39,1.23,1.94,1.94,0,0,0,.92.79,4.07,4.07,0,0,0,1.66.28,11.24,11.24,0,0,0,1.36-.1,2.25,2.25,0,0,0,1.27-.5v5.39A9.75,9.75,0,0,1,377,33a22.25,22.25,0,0,1-2.28.13,12.39,12.39,0,0,1-3-.35,6.79,6.79,0,0,1-2.42-1.1,5,5,0,0,1-1.61-2,6.65,6.65,0,0,1-.59-2.93v-10H362.9V11.64H367V5.43h6.47v6.21h5.69Z"/><path class="cls-2" d="M0,43.79H6.73V55.18H19.79V43.79h6.73V74.32H19.79V61.13H6.73V74.32H0Z"/><path class="cls-2" d="M52.09,74.32H45.88V71.48h-.09a7.52,7.52,0,0,1-.88,1.21,5.67,5.67,0,0,1-1.32,1.07,7.27,7.27,0,0,1-1.76.78,7.42,7.42,0,0,1-2.16.3,9.1,9.1,0,0,1-4-.75A5.76,5.76,0,0,1,33.31,72a8.25,8.25,0,0,1-1.12-3.15,25.4,25.4,0,0,1-.28-3.93V53.37h6.47V63.63c0,.6,0,1.23.06,1.88a6.07,6.07,0,0,0,.39,1.79,3.15,3.15,0,0,0,1,1.33,3.07,3.07,0,0,0,1.92.52,4,4,0,0,0,2-.45A3.11,3.11,0,0,0,45,67.49a4.65,4.65,0,0,0,.54-1.7,14.26,14.26,0,0,0,.13-2V53.37h6.47Z"/><path class="cls-2" d="M56.66,53.37h6.21v2.84H63a5.27,5.27,0,0,1,.86-1.2,5.77,5.77,0,0,1,1.34-1.08,7.27,7.27,0,0,1,1.76-.78,7.42,7.42,0,0,1,2.16-.3,8.08,8.08,0,0,1,3.9.91,5.73,5.73,0,0,1,2.57,2.84,7,7,0,0,1,2.71-2.89,8.27,8.27,0,0,1,3.93-.86,8.09,8.09,0,0,1,3.56.71A5.86,5.86,0,0,1,88,55.5a8.37,8.37,0,0,1,1.21,2.89A16.76,16.76,0,0,1,89.61,62V74.32H83.14V62.12a4.81,4.81,0,0,0-.63-2.52,2.36,2.36,0,0,0-2.22-1.06,4.15,4.15,0,0,0-1.87.37,3,3,0,0,0-1.21,1,4.3,4.3,0,0,0-.65,1.51,8.23,8.23,0,0,0-.19,1.81V74.32H69.9V63.24c0-.37,0-.83,0-1.38a5.34,5.34,0,0,0-.31-1.55,2.89,2.89,0,0,0-.84-1.25,2.44,2.44,0,0,0-1.7-.52A4,4,0,0,0,65,59,3.18,3.18,0,0,0,63.8,60.2a4.7,4.7,0,0,0-.54,1.71,14,14,0,0,0-.13,2V74.32H56.66Z"/><path class="cls-2" d="M107.33,71.69h-.09a6.05,6.05,0,0,1-2.86,2.42,9.9,9.9,0,0,1-3.78.73,9.43,9.43,0,0,1-2.82-.41,7,7,0,0,1-2.4-1.23,5.85,5.85,0,0,1-1.63-2,6.12,6.12,0,0,1-.61-2.81,6.41,6.41,0,0,1,.67-3.06,6,6,0,0,1,1.81-2.07A9.05,9.05,0,0,1,98.23,62a20,20,0,0,1,3-.67,30.4,30.4,0,0,1,3.15-.26c1,0,2,0,2.91,0a3.37,3.37,0,0,0-1.23-2.74,4.46,4.46,0,0,0-2.91-1,6.24,6.24,0,0,0-2.91.67,7.75,7.75,0,0,0-2.35,1.83l-3.45-3.54a11.87,11.87,0,0,1,4.22-2.52,15.14,15.14,0,0,1,5-.84,13.15,13.15,0,0,1,4.67.71,6.86,6.86,0,0,1,2.94,2.09A8.13,8.13,0,0,1,112.85,59a22.73,22.73,0,0,1,.43,4.63V74.32h-6Zm-1.6-6.55c-.49,0-1.1,0-1.83.07a9.13,9.13,0,0,0-2.11.36,4.61,4.61,0,0,0-1.73.91,2.09,2.09,0,0,0-.71,1.68,1.85,1.85,0,0,0,1,1.72,4.08,4.08,0,0,0,2.07.56,6.64,6.64,0,0,0,1.84-.25,5.68,5.68,0,0,0,1.57-.74,3.41,3.41,0,0,0,1.51-2.93V65.14Z"/><path class="cls-2" d="M117.33,53.37h6.21v2.84h.09a5.27,5.27,0,0,1,.86-1.2,5.77,5.77,0,0,1,1.34-1.08,7.27,7.27,0,0,1,1.76-.78,7.47,7.47,0,0,1,2.16-.3,8.83,8.83,0,0,1,4,.76,5.69,5.69,0,0,1,2.35,2.09,8.45,8.45,0,0,1,1.14,3.14,24.14,24.14,0,0,1,.3,3.93V74.32H131V64.06c0-.6,0-1.23-.06-1.87a5.65,5.65,0,0,0-.39-1.79,2.78,2.78,0,0,0-2.91-1.86,4,4,0,0,0-2,.45,3.18,3.18,0,0,0-1.18,1.21,4.9,4.9,0,0,0-.54,1.71,14,14,0,0,0-.13,2V74.32h-6.47Z"/><path class="cls-1" d="M178.22,67.12l6.81,7.2h-8.32l-2.54-2.88a12,12,0,0,1-4.08,2.8,13.27,13.27,0,0,1-4.89.86,14.49,14.49,0,0,1-4-.56,10.65,10.65,0,0,1-3.48-1.7A8.34,8.34,0,0,1,155.28,70a8.44,8.44,0,0,1-.91-4,7.79,7.79,0,0,1,.5-2.78,8.24,8.24,0,0,1,1.38-2.39,9.66,9.66,0,0,1,2.05-1.88,10.24,10.24,0,0,1,2.54-1.27c-.49-.55-.94-1.07-1.36-1.56a9.77,9.77,0,0,1-1.08-1.55,7.55,7.55,0,0,1-.69-1.72,8.46,8.46,0,0,1-.23-2,7.35,7.35,0,0,1,.79-3.54,7.19,7.19,0,0,1,2.14-2.41,9.08,9.08,0,0,1,3.06-1.38A14.42,14.42,0,0,1,167,43a12.28,12.28,0,0,1,3.36.45,8.48,8.48,0,0,1,2.83,1.38,7,7,0,0,1,2,2.33,7.13,7.13,0,0,1,.73,3.34,7,7,0,0,1-.45,2.55,8.66,8.66,0,0,1-1.23,2.17,10.22,10.22,0,0,1-1.79,1.81,13.78,13.78,0,0,1-2.18,1.41l3.93,4.18,3-4h7.5ZM164.85,61.3c-.43.26-.85.53-1.27.8a6.74,6.74,0,0,0-1.12.91,4,4,0,0,0-.8,1.14,3.54,3.54,0,0,0-.3,1.51,3.43,3.43,0,0,0,.34,1.55,3.48,3.48,0,0,0,.91,1.16,4.47,4.47,0,0,0,2.85,1,5,5,0,0,0,2.6-.65,14,14,0,0,0,2.18-1.59Zm2.07-13.11a3,3,0,0,0-2.11.78A2.64,2.64,0,0,0,164,51a2.56,2.56,0,0,0,.25,1.1,6.46,6.46,0,0,0,.63,1,7.18,7.18,0,0,0,.82.93q.45.43.84.78c.34-.2.72-.44,1.12-.71a9.07,9.07,0,0,0,1.12-.91,4.86,4.86,0,0,0,.86-1.08,2.39,2.39,0,0,0,.35-1.23,2.51,2.51,0,0,0-.88-2.05A3.34,3.34,0,0,0,166.92,48.19Z"/><path class="cls-2" d="M211.21,43.79h5.56l13.28,30.53h-7.59l-2.63-6.46H208l-2.54,6.46H198Zm2.58,8.89-3.71,9.48h7.46Z"/><path class="cls-2" d="M232.29,53.37h6.47v3.36h.09a8.07,8.07,0,0,1,2.45-2.91,6.21,6.21,0,0,1,3.58-1c.38,0,.75,0,1.12,0a5.36,5.36,0,0,1,1,.18V59a9.89,9.89,0,0,0-1.36-.32,9,9,0,0,0-1.4-.11,6.77,6.77,0,0,0-2.93.52,3.91,3.91,0,0,0-1.66,1.44,5.56,5.56,0,0,0-.76,2.22,22.76,22.76,0,0,0-.17,2.85v8.75h-6.47Z"/><path class="cls-2" d="M263.25,60.14A3.68,3.68,0,0,0,261.92,59a4,4,0,0,0-1.86-.45A4.91,4.91,0,0,0,256.25,60a6.09,6.09,0,0,0,0,7.67,4.91,4.91,0,0,0,3.81,1.47,3.57,3.57,0,0,0,1.86-.47,5.61,5.61,0,0,0,1.33-1.13L267.52,72A8.33,8.33,0,0,1,264,74.22a13.22,13.22,0,0,1-8.45-.15,11.08,11.08,0,0,1-3.71-2.22,10.62,10.62,0,0,1-2.48-3.48,11.83,11.83,0,0,1,0-9.05,10.48,10.48,0,0,1,2.48-3.47,10.76,10.76,0,0,1,3.71-2.22,13.18,13.18,0,0,1,4.55-.78,13.52,13.52,0,0,1,3.9.62,8.33,8.33,0,0,1,3.56,2.18Z"/><path class="cls-2" d="M276.32,41.72V56.21h.09a3.69,3.69,0,0,1,.73-1.2,5.27,5.27,0,0,1,1.25-1.08,6.65,6.65,0,0,1,1.72-.78,7.42,7.42,0,0,1,2.16-.3,8.83,8.83,0,0,1,4,.76,5.69,5.69,0,0,1,2.35,2.09,8.45,8.45,0,0,1,1.14,3.14,24.14,24.14,0,0,1,.3,3.93V74.32h-6.47V64.06c0-.6,0-1.23-.06-1.87a5.65,5.65,0,0,0-.39-1.79,2.78,2.78,0,0,0-2.91-1.86,4,4,0,0,0-2,.45A3.18,3.18,0,0,0,277,60.2a4.9,4.9,0,0,0-.54,1.71,14,14,0,0,0-.13,2V74.32h-6.47V41.72Z"/><path class="cls-2" d="M294.17,46.77A3.76,3.76,0,0,1,297.92,43a3.75,3.75,0,0,1,2.65,6.4,3.75,3.75,0,0,1-6.4-2.65Zm.52,6.6h6.47V74.32h-6.47Z"/><path class="cls-2" d="M320.09,58.54h-5.7v7a12.55,12.55,0,0,0,.09,1.57,3.18,3.18,0,0,0,.39,1.23,2,2,0,0,0,.92.8,4.12,4.12,0,0,0,1.67.28,11.61,11.61,0,0,0,1.35-.11,2.32,2.32,0,0,0,1.28-.5v5.4a9.94,9.94,0,0,1-2.25.51,19.61,19.61,0,0,1-2.28.13,12.47,12.47,0,0,1-3-.34,7,7,0,0,1-2.42-1.1,5.23,5.23,0,0,1-1.61-2,6.73,6.73,0,0,1-.58-2.94v-10h-4.14V53.37h4.14V47.16h6.46v6.21h5.7Z"/><path class="cls-2" d="M343.2,70.7a10.29,10.29,0,0,1-3.92,3.06,11.77,11.77,0,0,1-4.92,1.08,13.38,13.38,0,0,1-4.55-.77,11.08,11.08,0,0,1-3.71-2.22,10.62,10.62,0,0,1-2.48-3.48,11.83,11.83,0,0,1,0-9.05,10.48,10.48,0,0,1,2.48-3.47,10.76,10.76,0,0,1,3.71-2.22,13.14,13.14,0,0,1,4.55-.78,10.29,10.29,0,0,1,4.07.78,8.29,8.29,0,0,1,3.11,2.22,10.06,10.06,0,0,1,2,3.47,14,14,0,0,1,.69,4.53v2h-15a5.12,5.12,0,0,0,1.69,3,5.27,5.27,0,0,0,5.88.38,7.09,7.09,0,0,0,1.92-1.83Zm-5.48-9.23a3.73,3.73,0,0,0-1.08-2.8,3.8,3.8,0,0,0-2.88-1.16,4.85,4.85,0,0,0-1.9.34,4.6,4.6,0,0,0-1.4.89,3.87,3.87,0,0,0-.91,1.25,4.24,4.24,0,0,0-.37,1.48Z"/><path class="cls-2" d="M362.3,60.14A3.72,3.72,0,0,0,361,59a3.92,3.92,0,0,0-1.85-.45A5,5,0,0,0,355.29,60a6.12,6.12,0,0,0,0,7.67,5,5,0,0,0,3.82,1.47,3.51,3.51,0,0,0,1.85-.47,5.47,5.47,0,0,0,1.34-1.13L366.57,72A8.33,8.33,0,0,1,363,74.22a13.52,13.52,0,0,1-3.9.62,13.38,13.38,0,0,1-4.55-.77,11.08,11.08,0,0,1-3.71-2.22,10.62,10.62,0,0,1-2.48-3.48,11.83,11.83,0,0,1,0-9.05,10.48,10.48,0,0,1,2.48-3.47,10.76,10.76,0,0,1,3.71-2.22,13.14,13.14,0,0,1,4.55-.78,13.52,13.52,0,0,1,3.9.62,8.33,8.33,0,0,1,3.56,2.18Z"/><path class="cls-2" d="M383.17,58.54h-5.69v7a12.55,12.55,0,0,0,.09,1.57,3,3,0,0,0,.38,1.23,2,2,0,0,0,.93.8,4.07,4.07,0,0,0,1.66.28,11.59,11.59,0,0,0,1.36-.11,2.28,2.28,0,0,0,1.27-.5v5.4a9.86,9.86,0,0,1-2.24.51,19.91,19.91,0,0,1-2.29.13,12.32,12.32,0,0,1-3-.34,7,7,0,0,1-2.42-1.1,5.26,5.26,0,0,1-1.62-2A6.88,6.88,0,0,1,371,68.5v-10h-4.14V53.37H371V47.16h6.47v6.21h5.69Z"/><path class="cls-2" d="M406.63,74.32h-6.21V71.48h-.09a7.52,7.52,0,0,1-.88,1.21,5.82,5.82,0,0,1-1.31,1.07,7.52,7.52,0,0,1-1.77.78,7.42,7.42,0,0,1-2.16.3,9.1,9.1,0,0,1-4-.75A5.76,5.76,0,0,1,387.85,72a8.25,8.25,0,0,1-1.12-3.15,25.4,25.4,0,0,1-.28-3.93V53.37h6.47V63.63c0,.6,0,1.23.06,1.88a6.4,6.4,0,0,0,.39,1.79,3.15,3.15,0,0,0,1,1.33,3.07,3.07,0,0,0,1.92.52,4,4,0,0,0,2-.45,3.11,3.11,0,0,0,1.18-1.21,4.65,4.65,0,0,0,.54-1.7,14.26,14.26,0,0,0,.13-2V53.37h6.47Z"/><path class="cls-2" d="M411.2,53.37h6.47v3.36h.08a8.09,8.09,0,0,1,2.46-2.91,6.19,6.19,0,0,1,3.58-1c.38,0,.75,0,1.12,0a5.36,5.36,0,0,1,1,.18V59a9.89,9.89,0,0,0-1.36-.32,9,9,0,0,0-1.4-.11,6.74,6.74,0,0,0-2.93.52,3.85,3.85,0,0,0-1.66,1.44,5.56,5.56,0,0,0-.76,2.22,22.76,22.76,0,0,0-.17,2.85v8.75H411.2Z"/><path class="cls-2" d="M447.81,70.7a10.21,10.21,0,0,1-3.92,3.06A11.74,11.74,0,0,1,439,74.84a13.38,13.38,0,0,1-4.55-.77,11.08,11.08,0,0,1-3.71-2.22,10.62,10.62,0,0,1-2.48-3.48,11.83,11.83,0,0,1,0-9.05,10.48,10.48,0,0,1,2.48-3.47,10.76,10.76,0,0,1,3.71-2.22,13.14,13.14,0,0,1,4.55-.78,10.38,10.38,0,0,1,4.08.78,8.33,8.33,0,0,1,3.1,2.22,10.06,10.06,0,0,1,2,3.47,14,14,0,0,1,.69,4.53v2h-15a5.11,5.11,0,0,0,1.68,3,5.27,5.27,0,0,0,5.88.38,7,7,0,0,0,1.92-1.83Zm-5.48-9.23a3.76,3.76,0,0,0-1.07-2.8,3.82,3.82,0,0,0-2.89-1.16,4.88,4.88,0,0,0-1.9.34,4.72,4.72,0,0,0-1.4.89,3.87,3.87,0,0,0-.91,1.25,4,4,0,0,0-.36,1.48Z"/><path class="cls-2" d="M454.37,67.34h6.21L456.69,79.5h-5.52Zm-1.51-10.52a4,4,0,0,1,.3-1.55A3.85,3.85,0,0,1,454,54a3.8,3.8,0,0,1,1.27-.84,4.18,4.18,0,0,1,3.11,0,3.91,3.91,0,0,1,1.27.84,3.85,3.85,0,0,1,.84,1.28,4,4,0,0,1,.3,1.55,4.07,4.07,0,0,1-.3,1.55,3.8,3.8,0,0,1-.84,1.27,3.91,3.91,0,0,1-1.27.84,4.06,4.06,0,0,1-3.11,0,3.81,3.81,0,0,1-2.11-2.11A4.07,4.07,0,0,1,452.86,56.82Z"/></svg>