<svg id="Layer_1" data-name="Layer 1" xmlns="http://www.w3.org/2000/svg" viewBox="0 0 288.18 116.53"><defs><style>.cls-1{font-size:43.12px;font-family:Avenir-Black, Avenir;font-weight:800;}.cls-1,.cls-2{fill:#fff;}</style></defs><text class="cls-1" transform="translate(0 36.82)">here to create</text><path class="cls-2" d="M195.6,177.29h-.18a13.83,13.83,0,0,1-6.27,5.74,20.43,20.43,0,0,1-8.52,1.79,21.52,21.52,0,0,1-8.92-1.75,19.9,19.9,0,0,1-6.68-4.79,20.48,20.48,0,0,1-4.22-7.18,26.91,26.91,0,0,1-1.43-8.87,25.56,25.56,0,0,1,1.52-8.88,22.16,22.16,0,0,1,4.26-7.17,19.67,19.67,0,0,1,6.59-4.8,20.1,20.1,0,0,1,8.43-1.75,20.7,20.7,0,0,1,5.38.63,19,19,0,0,1,4.13,1.61,16.36,16.36,0,0,1,3,2.11,15.36,15.36,0,0,1,2.07,2.2h.27V116h10.76v67.79H195.6Zm-25.46-15.06a13.94,13.94,0,0,0,.85,4.84,12.09,12.09,0,0,0,2.51,4.12,13.08,13.08,0,0,0,14.57,2.87,12.25,12.25,0,0,0,6.5-7,14.23,14.23,0,0,0,0-9.69,12.18,12.18,0,0,0-2.51-4.12,13.13,13.13,0,0,0-14.57-2.87,12.73,12.73,0,0,0-4,2.87,12.18,12.18,0,0,0-2.51,4.12A14,14,0,0,0,170.14,162.23Z"/><path class="cls-2" d="M303.56,177.29h-.18A13.86,13.86,0,0,1,297.1,183a20.41,20.41,0,0,1-8.51,1.79,21.56,21.56,0,0,1-8.93-1.75,20,20,0,0,1-6.68-4.79,20.61,20.61,0,0,1-4.21-7.18,26.66,26.66,0,0,1-1.44-8.87,25.33,25.33,0,0,1,1.53-8.88,22,22,0,0,1,4.26-7.17,19.57,19.57,0,0,1,6.59-4.8,20.1,20.1,0,0,1,8.43-1.75,20.75,20.75,0,0,1,5.38.63,18.92,18.92,0,0,1,4.12,1.61,16.46,16.46,0,0,1,3.05,2.11,15.24,15.24,0,0,1,2.06,2.2H303V116h10.76v67.79H303.56Zm-25.47-15.06a13.94,13.94,0,0,0,.86,4.84,11.93,11.93,0,0,0,2.51,4.12,12.21,12.21,0,0,0,4,2.87A12.72,12.72,0,0,0,300,171.19a12.24,12.24,0,0,0,2.51-4.12,14.23,14.23,0,0,0,0-9.69,12.34,12.34,0,0,0-2.51-4.12,12.73,12.73,0,0,0-4-2.87,12.72,12.72,0,0,0-14.57,2.87,12,12,0,0,0-2.51,4.12A14,14,0,0,0,278.09,162.23Z"/></svg>