<svg id="Layer_1" data-name="Layer 1" xmlns="http://www.w3.org/2000/svg" xmlns:xlink="http://www.w3.org/1999/xlink" viewBox="0 0 664.86 88.23"><defs><style>.cls-1{fill:none;}.cls-2{clip-path:url(#clip-path);}.cls-3{font-size:43.12px;font-family:Avenir-Black, Avenir;font-weight:800;}.cls-3,.cls-5{fill:#fff;}.cls-4{fill:#005879;}</style><clipPath id="clip-path"><rect class="cls-1" x="-1139.14" y="309.41" width="1920" height="940"/></clipPath></defs><g class="cls-2"><image width="5388" height="3592" transform="translate(-1139.14 62.83) scale(0.36)" xlink:href="../../../Volumes/GRAPHIT/Art%20Gallery/Projects/1402/Feeling%20of%20a%20Look/Site/attachments-2/%D8%A8%D8%B1%D9%86%D8%AF%DB%8C%D9%86%DA%AF%20%20%D9%81%D8%B6%D8%A7%20-%20primarily%20it's%20about%20human%20and%20architecture.jpg"/></g><text class="cls-3" transform="translate(30.08 -79.13)">here to create</text><path class="cls-4" d="M0,4.3H24.75a29.69,29.69,0,0,1,7.08.86,17.9,17.9,0,0,1,6.23,2.78,14.68,14.68,0,0,1,4.44,5,14.85,14.85,0,0,1,1.71,7.35,13,13,0,0,1-3.05,8.88,17,17,0,0,1-8,5v.18A16.56,16.56,0,0,1,38.69,36,14.7,14.7,0,0,1,43,39.32,15.25,15.25,0,0,1,45.86,44a15.52,15.52,0,0,1,1,5.7,16.59,16.59,0,0,1-2.07,8.65,16.39,16.39,0,0,1-5.42,5.56,23.33,23.33,0,0,1-7.71,3,43.54,43.54,0,0,1-8.84.9H0ZM11.3,30.13H21.61q5.66,0,8.47-2.2a7,7,0,0,0,2.83-5.78A7,7,0,0,0,30,16q-2.91-2-9.37-2H11.3Zm0,28H21.7a42.76,42.76,0,0,0,4.62-.27,13.57,13.57,0,0,0,4.52-1.25,8.85,8.85,0,0,0,3.41-2.83,8.21,8.21,0,0,0,1.35-5q0-5-3.28-7t-10.17-2H11.3Z"/><path class="cls-5" d="M57.12,24.75H67.88v6.81h.18a13.53,13.53,0,0,1,5.11-5.83,14.17,14.17,0,0,1,7.62-2.06,10.27,10.27,0,0,1,1.93.18c.62.12,1.27.27,1.92.45V34.7c-.89-.24-1.77-.43-2.64-.58a15,15,0,0,0-2.56-.23,11.63,11.63,0,0,0-6,1.39,11.12,11.12,0,0,0-3.5,3.19,10.7,10.7,0,0,0-1.61,3.58,13.5,13.5,0,0,0-.4,2.69V67.79H57.12Z"/><path class="cls-5" d="M118.9,61.87h-.27a13.94,13.94,0,0,1-5.92,5.34,18.64,18.64,0,0,1-7.89,1.65,21.35,21.35,0,0,1-5.79-.8,15.91,15.91,0,0,1-5-2.42,12.63,12.63,0,0,1-3.54-4A11.51,11.51,0,0,1,89.13,56a13,13,0,0,1,1.25-6,12.43,12.43,0,0,1,3.36-4.13,17.37,17.37,0,0,1,4.89-2.64,33.31,33.31,0,0,1,5.78-1.48,51.21,51.21,0,0,1,6.06-.63c2-.09,3.94-.13,5.74-.13h2.69V39.81a7,7,0,0,0-2.78-6.05,11.82,11.82,0,0,0-7.09-2A16.75,16.75,0,0,0,102.67,33a16.12,16.12,0,0,0-5.12,3.28l-5.64-5.65a20.77,20.77,0,0,1,8.38-5.29,30.77,30.77,0,0,1,9.91-1.62,25.15,25.15,0,0,1,7.71,1,17,17,0,0,1,5.2,2.65,11.77,11.77,0,0,1,3.18,3.72,17.09,17.09,0,0,1,1.62,4.26,23.08,23.08,0,0,1,.58,4.17q.09,2,.09,3.54V67.79H118.9Zm-.63-13.36H116c-1.5,0-3.17.06-5,.18a26.19,26.19,0,0,0-5.24.85,12,12,0,0,0-4.17,2,4.31,4.31,0,0,0-1.7,3.64,4.57,4.57,0,0,0,.67,2.55,6.08,6.08,0,0,0,1.75,1.75,7.2,7.2,0,0,0,2.42,1,11.69,11.69,0,0,0,2.69.31c3.7,0,6.44-.88,8.2-2.64a9.73,9.73,0,0,0,2.65-7.22Z"/><path class="cls-5" d="M140.15,24.75h10.22v6.9h.18a15,15,0,0,1,4.66-5.6q3.14-2.39,8.52-2.38A16.83,16.83,0,0,1,171,25.11a13.72,13.72,0,0,1,4.88,3.76,14.13,14.13,0,0,1,2.69,5.38,24.77,24.77,0,0,1,.81,6.37V67.79H168.66V46q0-1.8-.18-4a14.31,14.31,0,0,0-.94-4.13,7.68,7.68,0,0,0-2.38-3.22,6.77,6.77,0,0,0-4.39-1.3,10.42,10.42,0,0,0-4.53.89,8.88,8.88,0,0,0-3.05,2.42,9.85,9.85,0,0,0-1.75,3.5,15.59,15.59,0,0,0-.53,4.13V67.79H140.15Z"/><path class="cls-5" d="M225.69,61.33h-.18a13.85,13.85,0,0,1-6.28,5.74,20.27,20.27,0,0,1-8.52,1.79,21.68,21.68,0,0,1-8.92-1.74,20.06,20.06,0,0,1-6.68-4.8,20.41,20.41,0,0,1-4.21-7.17,26.76,26.76,0,0,1-1.44-8.88A25.33,25.33,0,0,1,191,37.39a21.81,21.81,0,0,1,4.26-7.17,19.6,19.6,0,0,1,6.59-4.8,20.09,20.09,0,0,1,8.42-1.75,20.64,20.64,0,0,1,5.38.63,19,19,0,0,1,4.13,1.61,16.8,16.8,0,0,1,3,2.11,15.83,15.83,0,0,1,2.06,2.2h.27V0h10.76V67.79H225.69ZM200.22,46.27a13.94,13.94,0,0,0,.85,4.84,12.15,12.15,0,0,0,2.51,4.12,12.72,12.72,0,0,0,18.57,0,12.15,12.15,0,0,0,2.51-4.12,14.2,14.2,0,0,0,0-9.68,12.29,12.29,0,0,0-2.51-4.13,12.73,12.73,0,0,0-4-2.87,13.64,13.64,0,0,0-10.59,0,12.73,12.73,0,0,0-4,2.87,12.29,12.29,0,0,0-2.51,4.13A13.94,13.94,0,0,0,200.22,46.27Z"/><path class="cls-5" d="M256.71,50a10.93,10.93,0,0,0,3.77,7.54,11.79,11.79,0,0,0,7.8,2.69,12.91,12.91,0,0,0,6.77-1.66,18.86,18.86,0,0,0,4.79-4.17l7.72,5.83a21.91,21.91,0,0,1-8.43,6.63,24.77,24.77,0,0,1-9.78,2,25.7,25.7,0,0,1-9.14-1.61,22.14,22.14,0,0,1-7.45-4.57,21.71,21.71,0,0,1-5-7.13A22.68,22.68,0,0,1,246,46.27,22.68,22.68,0,0,1,247.79,37a21.61,21.61,0,0,1,5-7.13,22,22,0,0,1,7.45-4.57,25.71,25.71,0,0,1,9.14-1.62,21,21,0,0,1,8.21,1.57,17.63,17.63,0,0,1,6.36,4.53,20.86,20.86,0,0,1,4.13,7.31,30.9,30.9,0,0,1,1.48,10v3ZM278.77,42a10.14,10.14,0,0,0-3-7.48q-2.87-2.74-8-2.74a10.47,10.47,0,0,0-7.67,2.78A12.46,12.46,0,0,0,256.71,42Z"/><path class="cls-5" d="M333.64,61.33h-.18a13.78,13.78,0,0,1-6.27,5.74,20.27,20.27,0,0,1-8.52,1.79,21.68,21.68,0,0,1-8.92-1.74,20.06,20.06,0,0,1-6.68-4.8,20.43,20.43,0,0,1-4.22-7.17,27,27,0,0,1-1.43-8.88,25.33,25.33,0,0,1,1.52-8.88,22.16,22.16,0,0,1,4.26-7.17,19.7,19.7,0,0,1,6.59-4.8,20.1,20.1,0,0,1,8.43-1.75,20.75,20.75,0,0,1,5.38.63,19.22,19.22,0,0,1,4.13,1.61,16.36,16.36,0,0,1,3,2.11,15.36,15.36,0,0,1,2.07,2.2h.27V0h10.76V67.79H333.64ZM308.18,46.27a13.94,13.94,0,0,0,.85,4.84,12,12,0,0,0,2.51,4.12,12.72,12.72,0,0,0,18.56,0,12,12,0,0,0,2.51-4.12,14.2,14.2,0,0,0,0-9.68,12.13,12.13,0,0,0-2.51-4.13,12.62,12.62,0,0,0-4-2.87,13.61,13.61,0,0,0-10.58,0,12.73,12.73,0,0,0-4,2.87A12.13,12.13,0,0,0,309,41.43,13.94,13.94,0,0,0,308.18,46.27Z"/><path class="cls-4" d="M414.7,17.93a10.51,10.51,0,0,0-4.8-3.81,16.88,16.88,0,0,0-6.32-1.21,16,16,0,0,0-3.81.45,10.54,10.54,0,0,0-3.32,1.43,7.55,7.55,0,0,0-2.37,2.56,7.37,7.37,0,0,0-.9,3.72A5.82,5.82,0,0,0,395.42,26,21.82,21.82,0,0,0,401,29q3.31,1.26,7.26,2.42a30,30,0,0,1,7.27,3.23,18.12,18.12,0,0,1,5.56,5.47,16.29,16.29,0,0,1,2.24,9.06,19.86,19.86,0,0,1-1.89,8.92,18.09,18.09,0,0,1-5.06,6.32,22,22,0,0,1-7.4,3.77,31.19,31.19,0,0,1-8.88,1.25,33.38,33.38,0,0,1-11.38-2,21.89,21.89,0,0,1-9.42-6.64l8.52-8.25a14.11,14.11,0,0,0,5.42,4.89,15.22,15.22,0,0,0,7.13,1.75,14.92,14.92,0,0,0,3.95-.54A12.11,12.11,0,0,0,407.88,57a8.44,8.44,0,0,0,2.61-2.74,7.35,7.35,0,0,0,1-3.81,6.65,6.65,0,0,0-2.24-5.38,20,20,0,0,0-5.56-3.18q-3.32-1.31-7.26-2.47a30.29,30.29,0,0,1-7.27-3.18,17.57,17.57,0,0,1-5.55-5.38c-1.5-2.24-2.25-5.25-2.25-9a17.15,17.15,0,0,1,2-8.52,18.49,18.49,0,0,1,5.29-6,22.82,22.82,0,0,1,7.49-3.54,32,32,0,0,1,8.61-1.17,31.62,31.62,0,0,1,9.73,1.52,22.55,22.55,0,0,1,8.47,5Z"/><path class="cls-5" d="M434.07,24.75h10.22V31.2h.18a13.73,13.73,0,0,1,6.28-5.73,20.23,20.23,0,0,1,8.51-1.8,21.62,21.62,0,0,1,8.88,1.75,20.07,20.07,0,0,1,6.73,4.8,20.56,20.56,0,0,1,4.21,7.17,26.76,26.76,0,0,1,1.43,8.88A25.33,25.33,0,0,1,479,55.15a22.16,22.16,0,0,1-4.26,7.17,19.7,19.7,0,0,1-6.59,4.8,20.25,20.25,0,0,1-8.43,1.74,21.22,21.22,0,0,1-5.38-.62,18.43,18.43,0,0,1-4.12-1.62,16.44,16.44,0,0,1-3-2.1,14.7,14.7,0,0,1-2.06-2.2h-.27V88.23H434.07Zm35.68,21.52a13.94,13.94,0,0,0-.85-4.84,12.13,12.13,0,0,0-2.51-4.13,13.13,13.13,0,0,0-14.57-2.87,12.73,12.73,0,0,0-4,2.87,12.13,12.13,0,0,0-2.51,4.13,14.2,14.2,0,0,0,0,9.68,12,12,0,0,0,2.51,4.12A13.08,13.08,0,0,0,462.4,58.1a12.21,12.21,0,0,0,4-2.87,12,12,0,0,0,2.51-4.12A13.94,13.94,0,0,0,469.75,46.27Z"/><path class="cls-5" d="M517.46,61.87h-.27a13.94,13.94,0,0,1-5.92,5.34,18.64,18.64,0,0,1-7.89,1.65,21.35,21.35,0,0,1-5.79-.8,15.91,15.91,0,0,1-5-2.42,12.63,12.63,0,0,1-3.54-4A11.41,11.41,0,0,1,487.69,56a13,13,0,0,1,1.25-6,12.43,12.43,0,0,1,3.36-4.13,17.37,17.37,0,0,1,4.89-2.64A33.31,33.31,0,0,1,503,41.74a51.21,51.21,0,0,1,6.06-.63c2-.09,3.94-.13,5.74-.13h2.69V39.81a7,7,0,0,0-2.78-6.05,11.82,11.82,0,0,0-7.09-2A16.75,16.75,0,0,0,501.23,33a16.12,16.12,0,0,0-5.12,3.28l-5.64-5.65a20.77,20.77,0,0,1,8.38-5.29,30.77,30.77,0,0,1,9.91-1.62,25.15,25.15,0,0,1,7.71,1,17,17,0,0,1,5.2,2.65,11.77,11.77,0,0,1,3.18,3.72,17.09,17.09,0,0,1,1.62,4.26,24,24,0,0,1,.58,4.17q.09,2,.09,3.54V67.79h-9.68Zm-.63-13.36h-2.24c-1.5,0-3.17.06-5,.18a26.19,26.19,0,0,0-5.24.85,12,12,0,0,0-4.17,2,4.31,4.31,0,0,0-1.7,3.64,4.57,4.57,0,0,0,.67,2.55,6.08,6.08,0,0,0,1.75,1.75,7.2,7.2,0,0,0,2.42,1,11.69,11.69,0,0,0,2.69.31c3.7,0,6.44-.88,8.2-2.64a9.73,9.73,0,0,0,2.65-7.22Z"/><path class="cls-5" d="M568.12,37.66a17.63,17.63,0,0,0-4-3.14A8.55,8.55,0,0,0,560,33.36a12.25,12.25,0,0,0-9.28,3.94,12,12,0,0,0-2.51,4.13,14,14,0,0,0,0,9.68,11.84,11.84,0,0,0,2.51,4.12,12.21,12.21,0,0,0,4,2.87A12.41,12.41,0,0,0,560,59.18a10.63,10.63,0,0,0,4.66-1,10.3,10.3,0,0,0,3.68-3l7.17,7.71a17,17,0,0,1-3.72,2.78,26.48,26.48,0,0,1-4.26,1.88,25.94,25.94,0,0,1-4.13,1,21.9,21.9,0,0,1-3.4.31,25.76,25.76,0,0,1-9.15-1.61,21.39,21.39,0,0,1-12.42-11.7,22.84,22.84,0,0,1-1.84-9.28A22.84,22.84,0,0,1,538.39,37a21.39,21.39,0,0,1,12.42-11.7A25.76,25.76,0,0,1,560,23.67a23.53,23.53,0,0,1,8.29,1.57,18.93,18.93,0,0,1,7.31,5Z"/><path class="cls-5" d="M590.53,50a11,11,0,0,0,3.77,7.54,11.79,11.79,0,0,0,7.8,2.69,12.91,12.91,0,0,0,6.77-1.66,19.08,19.08,0,0,0,4.8-4.17l7.71,5.83A21.76,21.76,0,0,1,613,66.89a24.76,24.76,0,0,1-9.77,2A25.76,25.76,0,0,1,594,67.25a22,22,0,0,1-7.44-4.57,21.59,21.59,0,0,1-5-7.13,22.68,22.68,0,0,1-1.84-9.28A22.68,22.68,0,0,1,581.61,37a21.49,21.49,0,0,1,5-7.13A21.84,21.84,0,0,1,594,25.29a25.76,25.76,0,0,1,9.15-1.62,21,21,0,0,1,8.2,1.57,17.76,17.76,0,0,1,6.37,4.53,21,21,0,0,1,4.12,7.31,30.9,30.9,0,0,1,1.48,10v3ZM612.59,42a10.14,10.14,0,0,0-3-7.48q-2.86-2.74-8-2.74A10.48,10.48,0,0,0,594,34.52,12.46,12.46,0,0,0,590.53,42Z"/><path class="cls-5" d="M656.35,36.67a9.89,9.89,0,0,0-8.43-4.39,9,9,0,0,0-4.22,1.08,3.65,3.65,0,0,0-2.06,3.49,3,3,0,0,0,1.7,2.87,18.77,18.77,0,0,0,4.31,1.53q2.6.63,5.6,1.3a22.14,22.14,0,0,1,5.61,2.06,12.39,12.39,0,0,1,4.3,3.81,11.41,11.41,0,0,1,1.7,6.64,12.07,12.07,0,0,1-1.65,6.5,13.19,13.19,0,0,1-4.31,4.26,19.26,19.26,0,0,1-6,2.33,31.89,31.89,0,0,1-6.64.71,28.68,28.68,0,0,1-9.23-1.43,17.56,17.56,0,0,1-7.53-5.2l7.17-6.73a19.65,19.65,0,0,0,4.44,3.81,10.68,10.68,0,0,0,5.78,1.48,12.17,12.17,0,0,0,2.42-.26,7.73,7.73,0,0,0,2.33-.9,5.53,5.53,0,0,0,1.75-1.57,4,4,0,0,0-1-5.52,15.52,15.52,0,0,0-4.3-1.74q-2.61-.67-5.61-1.26a21.6,21.6,0,0,1-5.6-1.88A11.84,11.84,0,0,1,632.58,44a10.82,10.82,0,0,1-1.7-6.46,12.51,12.51,0,0,1,1.48-6.23,13.16,13.16,0,0,1,3.9-4.35,17.09,17.09,0,0,1,5.56-2.51,25.34,25.34,0,0,1,6.37-.81,25.67,25.67,0,0,1,8.51,1.48,14,14,0,0,1,6.82,5.07Z"/></svg>