<svg id="Layer_1" data-name="Layer 1" xmlns="http://www.w3.org/2000/svg" xmlns:xlink="http://www.w3.org/1999/xlink" viewBox="0 0 344.78 25.26"><defs><style>.cls-1{fill:none;}.cls-2{clip-path:url(#clip-path);}.cls-3{fill:#006588;}.cls-4{fill:#fff;}</style><clipPath id="clip-path"><rect class="cls-1" x="-637.97" y="138.79" width="1920" height="940"/></clipPath></defs><g class="cls-2"><image width="5388" height="3592" transform="translate(-637.97 -107.79) scale(0.36)" xlink:href="../../../Volumes/GRAPHIT/Art%20Gallery/Projects/1402/Feeling%20of%20a%20Look/Site/attachments-2/%D8%A8%D8%B1%D9%86%D8%AF%DB%8C%D9%86%DA%AF%20%20%D9%81%D8%B6%D8%A7%20-%20primarily%20it's%20about%20human%20and%20architecture.jpg"/></g><path class="cls-3" d="M19.51,23.6a21.42,21.42,0,0,1-16.15-13A32.1,32.1,0,0,1,.91.46L.88,0H0C0,.18,0,.36,0,.54A32.92,32.92,0,0,0,2.56,11,22.19,22.19,0,0,0,19.34,24.45a48.67,48.67,0,0,0,5.94.81v-.88A49.62,49.62,0,0,1,19.51,23.6Z"/><path class="cls-3" d="M65.15,23.6A21.38,21.38,0,0,1,49,10.62,31.57,31.57,0,0,1,46.56.46c0-.15,0-.31,0-.46h-.88c0,.18,0,.36,0,.54A32.92,32.92,0,0,0,48.2,11,22.21,22.21,0,0,0,65,24.45a48.67,48.67,0,0,0,5.94.81v-.88A49.91,49.91,0,0,1,65.15,23.6Z"/><path class="cls-3" d="M110.8,23.6a21.4,21.4,0,0,1-16.15-13A32.1,32.1,0,0,1,92.2.46l0-.46h-.88c0,.18,0,.36,0,.54A32.65,32.65,0,0,0,93.85,11a22.19,22.19,0,0,0,16.77,13.48,48.67,48.67,0,0,0,5.94.81v-.88A49.75,49.75,0,0,1,110.8,23.6Z"/><path class="cls-3" d="M156.44,23.6a21.42,21.42,0,0,1-16.15-13A32.1,32.1,0,0,1,137.84.46l0-.46h-.88c0,.18,0,.36,0,.54A32.65,32.65,0,0,0,139.49,11a22.19,22.19,0,0,0,16.78,13.48,48.67,48.67,0,0,0,5.94.81v-.88A49.62,49.62,0,0,1,156.44,23.6Z"/><path class="cls-3" d="M202.08,23.6a21.38,21.38,0,0,1-16.14-13A31.57,31.57,0,0,1,183.49.46c0-.15,0-.31,0-.46h-.88c0,.18,0,.36,0,.54A32.92,32.92,0,0,0,185.13,11a22.21,22.21,0,0,0,16.78,13.48,48.67,48.67,0,0,0,5.94.81v-.88A49.62,49.62,0,0,1,202.08,23.6Z"/><path class="cls-3" d="M247.73,23.6a21.38,21.38,0,0,1-16.15-13A32.1,32.1,0,0,1,229.13.46c0-.15,0-.31,0-.46h-.87c0,.18,0,.36,0,.54A32.65,32.65,0,0,0,230.78,11a22.18,22.18,0,0,0,16.77,13.48,48.67,48.67,0,0,0,5.94.81v-.88A49.45,49.45,0,0,1,247.73,23.6Z"/><path class="cls-4" d="M293.37,23.6a21.4,21.4,0,0,1-16.15-13A32.1,32.1,0,0,1,274.77.46l0-.46h-.88c0,.18,0,.36,0,.54A32.65,32.65,0,0,0,276.42,11,22.19,22.19,0,0,0,293.2,24.45a48.67,48.67,0,0,0,5.94.81v-.88A49.62,49.62,0,0,1,293.37,23.6Z"/><path class="cls-3" d="M339,23.6a21.42,21.42,0,0,1-16.15-13A32.1,32.1,0,0,1,320.41.46l0-.46h-.88c0,.18,0,.36,0,.54A32.92,32.92,0,0,0,322.06,11a22.21,22.21,0,0,0,16.78,13.48,48.67,48.67,0,0,0,5.94.81v-.88A49.62,49.62,0,0,1,339,23.6Z"/></svg>