<svg id="Layer_1" data-name="Layer 1" xmlns="http://www.w3.org/2000/svg" viewBox="0 0 567.45 98.85"><defs><style>.cls-1{fill:#231f20;}</style></defs><path class="cls-1" d="M515.77,42a252.43,252.43,0,0,1,51.68-39.3V0h-1.92a256.1,256.1,0,0,0-52.08,39.66,397.23,397.23,0,0,0-49.81,59.19h4.05A394.69,394.69,0,0,1,515.77,42Z"/><path class="cls-1" d="M438.23,42a252.7,252.7,0,0,1,51.68-39.3V0H488a256.1,256.1,0,0,0-52.08,39.66A397.23,397.23,0,0,0,386.1,98.85h4A395.33,395.33,0,0,1,438.23,42Z"/><path class="cls-1" d="M360.7,42a252.38,252.38,0,0,1,51.67-39.3V0h-1.91a256.16,256.16,0,0,0-52.09,39.66,397.23,397.23,0,0,0-49.81,59.19h4.05A394.76,394.76,0,0,1,360.7,42Z"/><path class="cls-1" d="M283.16,42a252.43,252.43,0,0,1,51.68-39.3V0h-1.92a256.16,256.16,0,0,0-52.09,39.66A398.44,398.44,0,0,0,231,98.85h4.06A394.05,394.05,0,0,1,283.16,42Z"/><path class="cls-1" d="M205.62,42A252.43,252.43,0,0,1,257.3,2.74V0h-1.92a256.16,256.16,0,0,0-52.09,39.66,398.44,398.44,0,0,0-49.81,59.19h4.06A394.69,394.69,0,0,1,205.62,42Z"/><path class="cls-1" d="M129.68,42a252.38,252.38,0,0,1,51.67-39.3V0h-1.91a256.16,256.16,0,0,0-52.09,39.66A397.84,397.84,0,0,0,77.54,98.85h4A394.76,394.76,0,0,1,129.68,42Z"/><path class="cls-1" d="M52.14,42a252.43,252.43,0,0,1,51.68-39.3V0H101.9A256.16,256.16,0,0,0,49.81,39.66,398.44,398.44,0,0,0,0,98.85H4.06A394.05,394.05,0,0,1,52.14,42Z"/></svg>