<svg id="Layer_1" data-name="Layer 1" xmlns="http://www.w3.org/2000/svg" viewBox="0 0 88.98 87.72"><defs><style>.cls-1{fill:#231f20;}</style></defs><path class="cls-1" d="M0,55.68q9.8.76,19.72,1.92Q9.27,69.66,0,82.54v5.18A354.07,354.07,0,0,1,23.31,58.06C34.48,71.62,49.65,80.41,68.64,84.25A170,170,0,0,0,89,87V84a165.55,165.55,0,0,1-19.74-2.69c-17.09-3.46-31-11.06-41.47-22.69,16.54,2.21,33.44,5.29,51,9.27Q83.9,69.06,89,70.3V67.21Q84.21,66.06,79.41,65c-18.48-4.2-36.27-7.39-53.68-9.64q8-8.93,16.61-17.38A228,228,0,0,1,89,2.47V0H87.25a231.63,231.63,0,0,0-47,35.8q-8.73,8.54-16.79,17.57A82.89,82.89,0,0,1,14,36.89C9.46,26.63,6.71,15.25,5.56,2.11c0-.53-.07-1.06-.11-1.59h-3c0,.62.09,1.24.14,1.85,1.18,13.47,4,25.16,8.63,35.72A86.35,86.35,0,0,0,20.69,54.7Q10.27,53.46,0,52.68Z"/></svg>